<svg xml:space="preserve" width="426.476" height="127.36" xmlns="http://www.w3.org/2000/svg"><path d="M-30.635 20.598h61.27v15.497h-61.27Z" style="fill:none;stroke:#000;stroke-width:.3985;stroke-linecap:butt;stroke-linejoin:miter;stroke-miterlimit:10;stroke-dasharray:none;stroke-opacity:1" transform="matrix(1.33333 0 0 -1.33333 210.404 48.393)"/><text transform="matrix(1.33333 0 0 1.33333 173.985 13.918)" style="font-variant:normal;font-weight:400;font-size:9.9626px;font-family:CMBX10;-inkscape-font-specification:CMBX10;writing-mode:lr-tb;fill:#000;fill-opacity:1;fill-rule:nonzero;stroke:none"><tspan x="0 6.8911304 10.073185 16.43829 22.166784 28.531891 34.100983 39.829479 45.080765" y="0">Linguagem</tspan></text><path d="M-157.603-49.3h88.432v13.56h-88.432z" style="fill:none;stroke:#000;stroke-width:.3985;stroke-linecap:butt;stroke-linejoin:miter;stroke-miterlimit:10;stroke-dasharray:none;stroke-opacity:1" transform="matrix(1.33333 0 0 -1.33333 210.404 48.393)"/><text transform="matrix(1.33333 0 0 1.33333 4.697 109.698)" style="font-variant:normal;font-weight:400;font-size:9.9626px;font-family:CMBX10;-inkscape-font-specification:CMBX10;writing-mode:lr-tb;fill:#000;fill-opacity:1;fill-rule:nonzero;stroke:none"><tspan x="0 8.7860165 14.037303 18.75559 21.937645 27.34634 32.915436 39.28054 42.462593 45.64465 48.826702 55.191807 60.760902 67.126007" y="0">Derivabilidade</tspan></text><text transform="matrix(1.33333 0 0 1.33333 105.632 109.698)" style="font-variant:normal;font-weight:400;font-size:9.9626px;font-family:CMSY10;-inkscape-font-specification:CMSY10;writing-mode:lr-tb;fill:#000;fill-opacity:1;fill-rule:nonzero;stroke:none"><tspan x="0" y="0">⊢</tspan></text><path d="M82.382-50.822h62.01v16.604h-62.01Z" style="fill:none;stroke:#000;stroke-width:.3985;stroke-linecap:butt;stroke-linejoin:miter;stroke-miterlimit:10;stroke-dasharray:none;stroke-opacity:1" transform="matrix(1.33333 0 0 -1.33333 210.404 48.393)"/><text transform="matrix(1.33333 0 0 1.33333 324.673 108.406)" style="font-variant:normal;font-weight:400;font-size:9.9626px;font-family:CMBX10;-inkscape-font-specification:CMBX10;writing-mode:lr-tb;fill:#000;fill-opacity:1;fill-rule:nonzero;stroke:none"><tspan x="0 7.7050748 13.274168 16.456223 19.638277 26.003382 31.572475 37.93758" y="0">Validade</tspan></text><text transform="matrix(1.33333 0 0 1.33333 386.69 108.406)" style="font-variant:normal;font-weight:400;font-size:9.9626px;font-family:CMSY10;-inkscape-font-specification:CMSY10;writing-mode:lr-tb;fill:#000;fill-opacity:1;fill-rule:nonzero;stroke:none"><tspan x="0" y="0">|</tspan></text><text transform="matrix(1.33333 0 0 1.33333 388.166 108.406)" style="font-variant:normal;font-weight:400;font-size:9.9626px;font-family:CMR10;-inkscape-font-specification:CMR10;writing-mode:lr-tb;fill:#000;fill-opacity:1;fill-rule:nonzero;stroke:none"><tspan x="0" y="0">=</tspan></text><path d="m0 20.4-112.976-55.738" style="fill:none;stroke:#000;stroke-width:.3985;stroke-linecap:butt;stroke-linejoin:miter;stroke-miterlimit:10;stroke-dasharray:none;stroke-opacity:1" transform="matrix(1.33333 0 0 -1.33333 210.404 48.393)"/><path d="M-1.196 1.594C-1.096.996 0 .1.3 0 0-.1-1.096-.996-1.196-1.594" style="fill:none;stroke:#000;stroke-width:.31879;stroke-linecap:round;stroke-linejoin:round;stroke-miterlimit:10;stroke-dasharray:none;stroke-opacity:1" transform="matrix(-1.19565 .58988 .58988 1.19565 59.768 95.51)"/><text transform="matrix(1.33333 0 0 1.33333 1.086 63.1)" style="font-variant:normal;font-weight:400;font-size:9.9626px;font-family:CMR10;-inkscape-font-specification:CMR10;writing-mode:lr-tb;fill:#000;fill-opacity:1;fill-rule:nonzero;stroke:none"><tspan x="0 5.5352206 8.3028307 12.23208 16.106535 20.533915 28.835749 37.134594 44.745026 49.172405 54.707626 60.242847 64.117302 66.884911 71.86422" y="0">SistemaDedutivo</tspan></text><path d="m0 20.4 112.974-54.22" style="fill:none;stroke:#000;stroke-width:.3985;stroke-linecap:butt;stroke-linejoin:miter;stroke-miterlimit:10;stroke-dasharray:none;stroke-opacity:1" transform="matrix(1.33333 0 0 -1.33333 210.404 48.393)"/><path d="M-1.196 1.594C-1.096.996 0 .1.3 0 0-.1-1.096-.996-1.196-1.594" style="fill:none;stroke:#000;stroke-width:.31879;stroke-linecap:round;stroke-linejoin:round;stroke-miterlimit:10;stroke-dasharray:none;stroke-opacity:1" transform="matrix(1.20199 .57687 .57687 -1.20199 361.036 93.487)"/><text transform="matrix(1.33333 0 0 1.33333 317.254 62.085)" style="font-variant:normal;font-weight:400;font-size:9.9626px;font-family:CMR10;-inkscape-font-specification:CMR10;writing-mode:lr-tb;fill:#000;fill-opacity:1;fill-rule:nonzero;stroke:none"><tspan x="0 5.5352206 8.3028307 12.23208 16.106535 20.533915 28.835749 37.134594 42.669815 47.097195 55.399029 55.399029 60.380329 65.646561 69.521019 72.288628 76.716003" y="0">SistemaSemˆantico</tspan></text><path d="M82.183-38.535H-68.514" style="fill:none;stroke:#000;stroke-width:.3985;stroke-linecap:butt;stroke-linejoin:miter;stroke-miterlimit:10;stroke-dasharray:none;stroke-opacity:1" transform="matrix(1.33333 0 0 -1.33333 210.404 48.393)"/><path d="M-1.196 1.594C-1.096.996 0 .1.3 0 0-.1-1.096-.996-1.196-1.594" style="fill:none;stroke:#000;stroke-width:.31879;stroke-linecap:round;stroke-linejoin:round;stroke-miterlimit:10;stroke-dasharray:none;stroke-opacity:1" transform="matrix(-1.33333 0 0 1.33333 119.052 99.773)"/><text transform="matrix(1.33333 0 0 1.33333 184.157 92.497)" style="font-variant:normal;font-weight:400;font-size:9.9626px;font-family:CMR10;-inkscape-font-specification:CMR10;writing-mode:lr-tb;fill:#000;fill-opacity:1;fill-rule:nonzero;stroke:none"><tspan x="0 7.1949897 12.17629 20.478125 26.013346 28.780954 33.208336 37.08279 42.618011 48.153233" y="0">Completude</tspan></text><path d="M-68.972-46.505H81.724" style="fill:none;stroke:#000;stroke-width:.3985;stroke-linecap:butt;stroke-linejoin:miter;stroke-miterlimit:10;stroke-dasharray:none;stroke-opacity:1" transform="matrix(1.33333 0 0 -1.33333 210.404 48.393)"/><path d="M-1.196 1.594C-1.096.996 0 .1.3 0 0-.1-1.096-.996-1.196-1.594" style="fill:none;stroke:#000;stroke-width:.31879;stroke-linecap:round;stroke-linejoin:round;stroke-miterlimit:10;stroke-dasharray:none;stroke-opacity:1" transform="matrix(1.33333 0 0 -1.33333 319.37 110.4)"/><text transform="matrix(1.33333 0 0 1.33333 193.345 124.169)" style="font-variant:normal;font-weight:400;font-size:9.9626px;font-family:CMR10;-inkscape-font-specification:CMR10;writing-mode:lr-tb;fill:#000;fill-opacity:1;fill-rule:nonzero;stroke:none"><tspan x="0 7.1949897 12.17629 16.07864 19.980991 24.408369 24.412355 28.839735 28.839735 33.821033" y="0">Corre¸c˜ao</tspan></text></svg>