<svg xml:space="preserve" width="605.263" height="384.732" xmlns="http://www.w3.org/2000/svg"><path d="M222.79 141.734h-445.58a3.985 3.985 0 0 1-3.985-3.985V-81.055c0-2.201 1.785-3.985 3.986-3.985h445.578c2.201 0 3.986 1.784 3.986 3.985v218.804c0 2.2-1.785 3.985-3.986 3.985z" style="fill:none;stroke:#000;stroke-width:.3985;stroke-linecap:butt;stroke-linejoin:miter;stroke-miterlimit:10;stroke-dasharray:none;stroke-opacity:1" transform="matrix(1.33333 0 0 -1.33333 302.632 189.244)"/><text transform="matrix(1.33333 0 0 1.33333 174.898 154.77)" style="font-variant:normal;font-weight:400;font-size:9.9626px;font-family:CMBX10;-inkscape-font-specification:CMBX10;writing-mode:lr-tb;fill:#000;fill-opacity:1;fill-rule:nonzero;stroke:none"><tspan x="0 7.7050748 13.274168 16.456223 22.184717 30.728643 33.910698 33.910698 39.639194 45.367687 48.549744 53.641628 63.185799 68.59449 74.163589 78.881874 82.063927 91.458664 96.709946 102.75625 107.21152 111.92981 120.99677 124.17883 130.22513 134.6804 139.93169 144.64998 151.01509 155.73337 160.98465 165.43993 171.00902 171.01003 176.10191 176.10191 181.8304 187.08168" y="0">Valorl´ogicovariaentreinterpreta¸c˜oes</tspan></text><path d="M182.739-14.173H44.036a3.985 3.985 0 0 1-3.986-3.985v-48.724c0-2.2 1.785-3.985 3.986-3.985h138.703c2.2 0 3.985 1.784 3.985 3.985v48.724a3.985 3.985 0 0 1-3.985 3.985z" style="fill:none;stroke:#000;stroke-width:.3985;stroke-linecap:butt;stroke-linejoin:miter;stroke-miterlimit:10;stroke-dasharray:none;stroke-opacity:1" transform="matrix(1.33333 0 0 -1.33333 302.632 189.244)"/><text transform="matrix(1.33333 0 0 1.33333 360.46 249.258)" style="font-variant:normal;font-weight:400;font-size:9.9626px;font-family:CMR10;-inkscape-font-specification:CMR10;writing-mode:lr-tb;fill:#000;fill-opacity:1;fill-rule:nonzero;stroke:none"><tspan x="0 5.6766896 10.65799 13.4256 17.354849 25.653694 30.081074 41.700455 46.958714 52.493935 57.475235 60.242847 65.501106 71.036324 75.463707 82.693565 85.461174 90.717445 94.591896 99.019279 102.92163 108.45685 112.3592 116.78658 120.66103 125.64233 125.63635 130.06374 130.06374 135.04503" y="0">Falsaemqualquerinterpreta¸c˜ao</tspan></text><path d="M-31.651-14.173h-163.472a3.985 3.985 0 0 1-3.985-3.985v-48.724c0-2.2 1.784-3.985 3.985-3.985h163.472a3.985 3.985 0 0 1 3.985 3.985v48.724a3.985 3.985 0 0 1-3.985 3.985z" style="fill:none;stroke:#000;stroke-width:.3985;stroke-linecap:butt;stroke-linejoin:miter;stroke-miterlimit:10;stroke-dasharray:none;stroke-opacity:1" transform="matrix(1.33333 0 0 -1.33333 302.632 189.244)"/><text transform="matrix(1.33333 0 0 1.33333 41.585 249.258)" style="font-variant:normal;font-weight:400;font-size:9.9626px;font-family:CMR10;-inkscape-font-specification:CMR10;writing-mode:lr-tb;fill:#000;fill-opacity:1;fill-rule:nonzero;stroke:none"><tspan x="0 6.6450543 11.072433 14.974784 20.510004 25.491304 31.026525 35.453903 38.221516 42.123867 50.42271 54.85009 66.469467 71.72773 77.262955 82.244255 85.011864 90.270119 95.805344 100.23272 107.46258 110.23019 115.48646 119.36092 123.78829 127.69064 133.22586 137.12822 141.55559 145.43005 150.41135 150.40536 154.83275 154.83275 159.81406" y="0">Verdadeiraemqualquerinterpreta¸c˜ao</tspan></text><text transform="matrix(1.33333 0 0 1.33333 75.245 381.54)" style="font-variant:normal;font-weight:400;font-size:9.9626px;font-family:CMBX10;-inkscape-font-specification:CMBX10;writing-mode:lr-tb;fill:#000;fill-opacity:1;fill-rule:nonzero;stroke:none"><tspan x="0 7.0136704 12.582764 18.947868 23.403143 29.131639 32.313694 32.313694 38.042187 43.770683 46.952736 52.044621" y="0">Tautol´ogica</tspan></text><text transform="matrix(1.33333 0 0 1.33333 189.976 382.832)" style="font-variant:normal;font-weight:400;font-size:9.9626px;font-family:CMBX10;-inkscape-font-specification:CMBX10;writing-mode:lr-tb;fill:#000;fill-opacity:1;fill-rule:nonzero;stroke:none"><tspan x="0 6.3651052 11.934198 16.389473 19.571527 24.090563 27.591421 33.160515 36.977184 38.252399 41.434452 47.161953 52.413239" y="0">Satisfaz´ıvel</tspan></text><text transform="matrix(1.33333 0 0 1.33333 342.292 382.832)" style="font-variant:normal;font-weight:400;font-size:9.9626px;font-family:CMBX10;-inkscape-font-specification:CMBX10;writing-mode:lr-tb;fill:#000;fill-opacity:1;fill-rule:nonzero;stroke:none"><tspan x="0 6.2525277 11.821621 15.003675 19.522711 22.704765 29.06987 34.082054 34.161755 39.73085 45.458347 50.709633" y="0">Falsifc´avel</tspan></text><text transform="matrix(1.33333 0 0 1.33333 446.278 382.832)" style="font-variant:normal;font-weight:400;font-size:9.9626px;font-family:CMBX10;-inkscape-font-specification:CMBX10;writing-mode:lr-tb;fill:#000;fill-opacity:1;fill-rule:nonzero;stroke:none"><tspan x="0 8.2749357 14.00343 20.049732 24.505007 29.223295 34.792389 41.157494 44.339546 48.794823 48.794823 54.523315 59.241604 62.42366" y="0">Contradit´oria</tspan></text><path d="m-139.465-133.786 17.797 62.28" style="fill:none;stroke:#000;stroke-width:.3985;stroke-linecap:butt;stroke-linejoin:miter;stroke-miterlimit:10;stroke-dasharray:none;stroke-opacity:1" transform="matrix(1.33333 0 0 -1.33333 302.632 189.244)"/><path d="M-1.196 1.594C-1.096.996 0 .1.3 0 0-.1-1.096-.996-1.196-1.594" style="fill:none;stroke:#000;stroke-width:.31879;stroke-linecap:round;stroke-linejoin:round;stroke-miterlimit:10;stroke-dasharray:none;stroke-opacity:1" transform="scale(1.3333 -1.3333) rotate(74.052 194.145 -36.915)"/><path d="m-60.678-134.755-36.172 63.29" style="fill:none;stroke:#000;stroke-width:.3985;stroke-linecap:butt;stroke-linejoin:miter;stroke-miterlimit:10;stroke-dasharray:none;stroke-opacity:1" transform="matrix(1.33333 0 0 -1.33333 302.632 189.244)"/><path d="M-1.196 1.594C-1.096.996 0 .1.3 0 0-.1-1.096-.996-1.196-1.594" style="fill:none;stroke:#000;stroke-width:.31879;stroke-linecap:round;stroke-linejoin:round;stroke-miterlimit:10;stroke-dasharray:none;stroke-opacity:1" transform="scale(-1.33327 1.33327) rotate(-60.25 118.823 218.833)"/><path d="m-53.208-134.755 37.072 74.132" style="fill:none;stroke:#000;stroke-width:.3985;stroke-linecap:butt;stroke-linejoin:miter;stroke-miterlimit:10;stroke-dasharray:none;stroke-opacity:1" transform="matrix(1.33333 0 0 -1.33333 302.632 189.244)"/><path d="M-1.196 1.594C-1.096.996 0 .1.3 0 0-.1-1.096-.996-1.196-1.594" style="fill:none;stroke:#000;stroke-width:.31879;stroke-linecap:round;stroke-linejoin:round;stroke-miterlimit:10;stroke-dasharray:none;stroke-opacity:1" transform="scale(1.33326 -1.33326) rotate(63.432 269.317 69.308)"/><path d="m60.678-134.755 36.172 63.29" style="fill:none;stroke:#000;stroke-width:.3985;stroke-linecap:butt;stroke-linejoin:miter;stroke-miterlimit:10;stroke-dasharray:none;stroke-opacity:1" transform="matrix(1.33333 0 0 -1.33333 302.632 189.244)"/><path d="M-1.196 1.594C-1.096.996 0 .1.3 0 0-.1-1.096-.996-1.196-1.594" style="fill:none;stroke:#000;stroke-width:.31879;stroke-linecap:round;stroke-linejoin:round;stroke-miterlimit:10;stroke-dasharray:none;stroke-opacity:1" transform="scale(1.33327 -1.33327) rotate(60.25 345.808 172.34)"/><path d="M53.208-134.755 16.136-60.623" style="fill:none;stroke:#000;stroke-width:.3985;stroke-linecap:butt;stroke-linejoin:miter;stroke-miterlimit:10;stroke-dasharray:none;stroke-opacity:1" transform="matrix(1.33333 0 0 -1.33333 302.632 189.244)"/><path d="M-1.196 1.594C-1.096.996 0 .1.3 0 0-.1-1.096-.996-1.196-1.594" style="fill:none;stroke:#000;stroke-width:.31879;stroke-linecap:round;stroke-linejoin:round;stroke-miterlimit:10;stroke-dasharray:none;stroke-opacity:1" transform="scale(-1.33326 1.33326) rotate(-63.432 42.33 297.988)"/><path d="m139.742-134.755-18.074 63.248" style="fill:none;stroke:#000;stroke-width:.3985;stroke-linecap:butt;stroke-linejoin:miter;stroke-miterlimit:10;stroke-dasharray:none;stroke-opacity:1" transform="matrix(1.33333 0 0 -1.33333 302.632 189.244)"/><path d="M-1.196 1.594C-1.096.996 0 .1.3 0 0-.1-1.096-.996-1.196-1.594" style="fill:none;stroke:#000;stroke-width:.31879;stroke-linecap:round;stroke-linejoin:round;stroke-miterlimit:10;stroke-dasharray:none;stroke-opacity:1" transform="scale(-1.3333 1.3333) rotate(-74.052 -32.834 337.84)"/></svg>