<svg xml:space="preserve" width="492.52" height="261.565" xmlns="http://www.w3.org/2000/svg"><text transform="translate(240.77 11.38) scale(1.33333)" style="font-variant:normal;font-weight:400;font-size:11.9552px;font-family:CMMI12;-inkscape-font-specification:CMMI12;writing-mode:lr-tb;fill:#000;fill-opacity:1;fill-rule:nonzero;stroke:none"><tspan x="0" y="0">P</tspan></text><text transform="translate(111.662 63.28) scale(1.33333)" style="font-variant:normal;font-weight:400;font-size:11.9552px;font-family:CMMI12;-inkscape-font-specification:CMMI12;writing-mode:lr-tb;fill:#000;fill-opacity:1;fill-rule:nonzero;stroke:none"><tspan x="0" y="0">Q</tspan></text><text transform="translate(369.744 63.28) scale(1.33333)" style="font-variant:normal;font-weight:400;font-size:11.9552px;font-family:CMMI12;-inkscape-font-specification:CMMI12;writing-mode:lr-tb;fill:#000;fill-opacity:1;fill-rule:nonzero;stroke:none"><tspan x="0" y="0">Q</tspan></text><text transform="translate(-1.549 159.318) scale(1.33333)" style="font-variant:normal;font-weight:400;font-size:11.9552px;font-family:CMMI12;-inkscape-font-specification:CMMI12;writing-mode:lr-tb;fill:#000;fill-opacity:1;fill-rule:nonzero;stroke:none"><tspan x="0" y="0">R</tspan></text><text transform="translate(162.046 159.318) scale(1.33333)" style="font-variant:normal;font-weight:400;font-size:11.9552px;font-family:CMMI12;-inkscape-font-specification:CMMI12;writing-mode:lr-tb;fill:#000;fill-opacity:1;fill-rule:nonzero;stroke:none"><tspan x="0" y="0">R</tspan></text><text transform="translate(319.711 159.318) scale(1.33333)" style="font-variant:normal;font-weight:400;font-size:11.9552px;font-family:CMMI12;-inkscape-font-specification:CMMI12;writing-mode:lr-tb;fill:#000;fill-opacity:1;fill-rule:nonzero;stroke:none"><tspan x="0" y="0">R</tspan></text><text transform="translate(483.304 159.318) scale(1.33333)" style="font-variant:normal;font-weight:400;font-size:11.9552px;font-family:CMMI12;-inkscape-font-specification:CMMI12;writing-mode:lr-tb;fill:#000;fill-opacity:1;fill-rule:nonzero;stroke:none"><tspan x="0" y="0">R</tspan></text><text transform="translate(81.16 257.049) scale(1.33333)" style="font-variant:normal;font-weight:400;font-size:11.9552px;font-family:CMR12;-inkscape-font-specification:CMR12;writing-mode:lr-tb;fill:#000;fill-opacity:1;fill-rule:nonzero;stroke:none"><tspan x="0" y="0">F</tspan></text><path d="M0 0h14.414" style="fill:none;stroke:#000;stroke-width:.398;stroke-linecap:butt;stroke-linejoin:miter;stroke-miterlimit:10;stroke-dasharray:none;stroke-opacity:1" transform="matrix(1.33333 0 0 -1.33333 76.644 241.905)"/><path d="M0 0v14.545" style="fill:none;stroke:#000;stroke-width:.398;stroke-linecap:butt;stroke-linejoin:miter;stroke-miterlimit:10;stroke-dasharray:none;stroke-opacity:1" transform="matrix(1.33333 0 0 -1.33333 76.91 261.3)"/><path d="M0 0v14.545" style="fill:none;stroke:#000;stroke-width:.398;stroke-linecap:butt;stroke-linejoin:miter;stroke-miterlimit:10;stroke-dasharray:none;stroke-opacity:1" transform="matrix(1.33333 0 0 -1.33333 95.598 261.3)"/><path d="M0 0h14.414" style="fill:none;stroke:#000;stroke-width:.398;stroke-linecap:butt;stroke-linejoin:miter;stroke-miterlimit:10;stroke-dasharray:none;stroke-opacity:1" transform="matrix(1.33333 0 0 -1.33333 76.644 261.3)"/><text transform="translate(401.663 257.049) scale(1.33333)" style="font-variant:normal;font-weight:400;font-size:11.9552px;font-family:CMR12;-inkscape-font-specification:CMR12;writing-mode:lr-tb;fill:#000;fill-opacity:1;fill-rule:nonzero;stroke:none"><tspan x="0" y="0">V</tspan></text><path d="M0 0h15.55" style="fill:none;stroke:#000;stroke-width:.398;stroke-linecap:butt;stroke-linejoin:miter;stroke-miterlimit:10;stroke-dasharray:none;stroke-opacity:1" transform="matrix(1.33333 0 0 -1.33333 397.147 241.905)"/><path d="M0 0v14.545" style="fill:none;stroke:#000;stroke-width:.398;stroke-linecap:butt;stroke-linejoin:miter;stroke-miterlimit:10;stroke-dasharray:none;stroke-opacity:1" transform="matrix(1.33333 0 0 -1.33333 397.412 261.3)"/><path d="M0 0v14.545" style="fill:none;stroke:#000;stroke-width:.398;stroke-linecap:butt;stroke-linejoin:miter;stroke-miterlimit:10;stroke-dasharray:none;stroke-opacity:1" transform="matrix(1.33333 0 0 -1.33333 417.614 261.3)"/><path d="M0 0h15.55" style="fill:none;stroke:#000;stroke-width:.398;stroke-linecap:butt;stroke-linejoin:miter;stroke-miterlimit:10;stroke-dasharray:none;stroke-opacity:1" transform="matrix(1.33333 0 0 -1.33333 397.147 261.3)"/><path d="m-8.686-3.596-79.36-32.877" style="fill:none;stroke:#000;stroke-width:.3985;stroke-linecap:butt;stroke-linejoin:miter;stroke-miterlimit:10;stroke-dasharray:2.98883,2.98883;stroke-dashoffset:0;stroke-opacity:1" transform="matrix(1.33333 0 0 -1.33333 246.883 5.933)"/><path d="m8.686-3.596 79.36-32.877" style="fill:none;stroke:#000;stroke-width:.3985;stroke-linecap:butt;stroke-linejoin:miter;stroke-miterlimit:10;stroke-dasharray:none;stroke-opacity:1" transform="matrix(1.33333 0 0 -1.33333 246.883 5.933)"/><path d="m-105.519-47.368-67.698-56.424" style="fill:none;stroke:#000;stroke-width:.3985;stroke-linecap:butt;stroke-linejoin:miter;stroke-miterlimit:10;stroke-dasharray:2.98883,2.98883;stroke-dashoffset:0;stroke-opacity:1" transform="matrix(1.33333 0 0 -1.33333 246.883 5.933)"/><path d="m-91.818-49.436 28.345-53.334" style="fill:none;stroke:#000;stroke-width:.3985;stroke-linecap:butt;stroke-linejoin:miter;stroke-miterlimit:10;stroke-dasharray:none;stroke-opacity:1" transform="matrix(1.33333 0 0 -1.33333 246.883 5.933)"/><path d="M91.818-49.436 63.473-102.77" style="fill:none;stroke:#000;stroke-width:.3985;stroke-linecap:butt;stroke-linejoin:miter;stroke-miterlimit:10;stroke-dasharray:2.98883,2.98883;stroke-dashoffset:0;stroke-opacity:1" transform="matrix(1.33333 0 0 -1.33333 246.883 5.933)"/><path d="m105.519-47.368 67.698-56.424" style="fill:none;stroke:#000;stroke-width:.3985;stroke-linecap:butt;stroke-linejoin:miter;stroke-miterlimit:10;stroke-dasharray:none;stroke-opacity:1" transform="matrix(1.33333 0 0 -1.33333 246.883 5.933)"/><path d="M-180.39-119.141c4.546-30.217 20.166-49.812 48.608-60.983" style="fill:none;stroke:#000;stroke-width:.3985;stroke-linecap:butt;stroke-linejoin:miter;stroke-miterlimit:10;stroke-dasharray:2.98883,2.98883;stroke-dashoffset:0;stroke-opacity:1" transform="matrix(1.33333 0 0 -1.33333 246.883 5.933)"/><path d="M-173.217-114.099c28.595-9.91 45.004-28.863 50.719-58.582" style="fill:none;stroke:#000;stroke-width:.3985;stroke-linecap:butt;stroke-linejoin:miter;stroke-miterlimit:10;stroke-dasharray:none;stroke-opacity:1" transform="matrix(1.33333 0 0 -1.33333 246.883 5.933)"/><path d="M-67.73-114.099c-28.596-9.91-45.005-28.863-50.72-58.582" style="fill:none;stroke:#000;stroke-width:.3985;stroke-linecap:butt;stroke-linejoin:miter;stroke-miterlimit:10;stroke-dasharray:2.98883,2.98883;stroke-dashoffset:0;stroke-opacity:1" transform="matrix(1.33333 0 0 -1.33333 246.883 5.933)"/><path d="M-60.557-119.141c-4.547-30.217-20.167-49.812-48.609-60.983" style="fill:none;stroke:#000;stroke-width:.3985;stroke-linecap:butt;stroke-linejoin:miter;stroke-miterlimit:10;stroke-dasharray:none;stroke-opacity:1" transform="matrix(1.33333 0 0 -1.33333 246.883 5.933)"/><path d="m50.52-114.459-159.686-65.187" style="fill:none;stroke:#000;stroke-width:.3985;stroke-linecap:butt;stroke-linejoin:miter;stroke-miterlimit:10;stroke-dasharray:2.98883,2.98883;stroke-dashoffset:0;stroke-opacity:1" transform="matrix(1.33333 0 0 -1.33333 246.883 5.933)"/><path d="m65.972-119.141 44.824-53.54" style="fill:none;stroke:#000;stroke-width:.3985;stroke-linecap:butt;stroke-linejoin:miter;stroke-miterlimit:10;stroke-dasharray:none;stroke-opacity:1" transform="matrix(1.33333 0 0 -1.33333 246.883 5.933)"/><path d="m173.217-113.039-282.383-68.486" style="fill:none;stroke:#000;stroke-width:.3985;stroke-linecap:butt;stroke-linejoin:miter;stroke-miterlimit:10;stroke-dasharray:2.98883,2.98883;stroke-dashoffset:0;stroke-opacity:1" transform="matrix(1.33333 0 0 -1.33333 246.883 5.933)"/><path d="m174.975-119.141-44.823-53.54" style="fill:none;stroke:#000;stroke-width:.3985;stroke-linecap:butt;stroke-linejoin:miter;stroke-miterlimit:10;stroke-dasharray:none;stroke-opacity:1" transform="matrix(1.33333 0 0 -1.33333 246.883 5.933)"/></svg>