<svg xml:space="preserve" width="507.461" height="218.125" xmlns="http://www.w3.org/2000/svg"><text transform="translate(225.507 9.632) scale(1.33333)" style="font-variant:normal;font-weight:400;font-size:9.9626px;font-family:CMMI10;-inkscape-font-specification:CMMI10;writing-mode:lr-tb;fill:#000;fill-opacity:1;fill-rule:nonzero;stroke:none"><tspan x="0" y="0">Q</tspan></text><path d="M-172.869-158.606h152.174v66.954H-172.87z" style="fill:none;stroke:#000;stroke-width:.3985;stroke-linecap:butt;stroke-linejoin:miter;stroke-miterlimit:10;stroke-dasharray:none;stroke-opacity:1" transform="matrix(1.33333 0 0 -1.33333 230.758 6.385)"/><text transform="translate(66.978 151.034) scale(1.33333)" style="font-variant:normal;font-weight:400;font-size:9.9626px;font-family:CMMI10;-inkscape-font-specification:CMMI10;writing-mode:lr-tb;fill:#000;fill-opacity:1;fill-rule:nonzero;stroke:none"><tspan x="0" y="0">R</tspan></text><text transform="translate(121.187 204.485) scale(1.33333)" style="font-variant:normal;font-weight:400;font-size:9.9626px;font-family:CMR10;-inkscape-font-specification:CMR10;writing-mode:lr-tb;fill:#000;fill-opacity:1;fill-rule:nonzero;stroke:none"><tspan x="0" y="0">F</tspan></text><path d="M0 0h13.278" style="fill:none;stroke:#000;stroke-width:.398;stroke-linecap:butt;stroke-linejoin:miter;stroke-miterlimit:10;stroke-dasharray:none;stroke-opacity:1" transform="matrix(1.33333 0 0 -1.33333 116.67 191.157)"/><path d="M0 0v13.184" style="fill:none;stroke:#000;stroke-width:.398;stroke-linecap:butt;stroke-linejoin:miter;stroke-miterlimit:10;stroke-dasharray:none;stroke-opacity:1" transform="matrix(1.33333 0 0 -1.33333 116.936 208.736)"/><path d="M0 0v13.184" style="fill:none;stroke:#000;stroke-width:.398;stroke-linecap:butt;stroke-linejoin:miter;stroke-miterlimit:10;stroke-dasharray:none;stroke-opacity:1" transform="matrix(1.33333 0 0 -1.33333 134.11 208.736)"/><path d="M0 0h13.278" style="fill:none;stroke:#000;stroke-width:.398;stroke-linecap:butt;stroke-linejoin:miter;stroke-miterlimit:10;stroke-dasharray:none;stroke-opacity:1" transform="matrix(1.33333 0 0 -1.33333 116.67 208.736)"/><text transform="translate(13.64 204.485) scale(1.33333)" style="font-variant:normal;font-weight:400;font-size:9.9626px;font-family:CMR10;-inkscape-font-specification:CMR10;writing-mode:lr-tb;fill:#000;fill-opacity:1;fill-rule:nonzero;stroke:none"><tspan x="0" y="0">V</tspan></text><path d="M0 0h14.247" style="fill:none;stroke:#000;stroke-width:.398;stroke-linecap:butt;stroke-linejoin:miter;stroke-miterlimit:10;stroke-dasharray:none;stroke-opacity:1" transform="matrix(1.33333 0 0 -1.33333 9.124 191.157)"/><path d="M0 0v13.184" style="fill:none;stroke:#000;stroke-width:.398;stroke-linecap:butt;stroke-linejoin:miter;stroke-miterlimit:10;stroke-dasharray:none;stroke-opacity:1" transform="matrix(1.33333 0 0 -1.33333 9.39 208.736)"/><path d="M0 0v13.184" style="fill:none;stroke:#000;stroke-width:.398;stroke-linecap:butt;stroke-linejoin:miter;stroke-miterlimit:10;stroke-dasharray:none;stroke-opacity:1" transform="matrix(1.33333 0 0 -1.33333 27.854 208.736)"/><path d="M0 0h14.247" style="fill:none;stroke:#000;stroke-width:.398;stroke-linecap:butt;stroke-linejoin:miter;stroke-miterlimit:10;stroke-dasharray:none;stroke-opacity:1" transform="matrix(1.33333 0 0 -1.33333 9.124 208.736)"/><path d="m6.922-6.924 23.008-23.01" style="fill:none;stroke:#000;stroke-width:.3985;stroke-linecap:butt;stroke-linejoin:miter;stroke-miterlimit:10;stroke-dasharray:none;stroke-opacity:1" transform="matrix(1.33333 0 0 -1.33333 72.072 146.496)"/><path d="m-6.923-6.924-22.859-22.853" style="fill:none;stroke:#000;stroke-width:.3985;stroke-linecap:butt;stroke-linejoin:miter;stroke-miterlimit:10;stroke-dasharray:2.98883,2.98883;stroke-dashoffset:0;stroke-opacity:1" transform="matrix(1.33333 0 0 -1.33333 72.072 146.496)"/><text transform="translate(181.123 151.034) scale(1.33333)" style="font-variant:normal;font-weight:400;font-size:9.9626px;font-family:CMR10;-inkscape-font-specification:CMR10;writing-mode:lr-tb;fill:#000;fill-opacity:1;fill-rule:nonzero;stroke:none"><tspan x="0" y="0">F</tspan></text><path d="M0 0h13.278" style="fill:none;stroke:#000;stroke-width:.398;stroke-linecap:butt;stroke-linejoin:miter;stroke-miterlimit:10;stroke-dasharray:none;stroke-opacity:1" transform="matrix(1.33333 0 0 -1.33333 176.606 137.706)"/><path d="M0 0v13.184" style="fill:none;stroke:#000;stroke-width:.398;stroke-linecap:butt;stroke-linejoin:miter;stroke-miterlimit:10;stroke-dasharray:none;stroke-opacity:1" transform="matrix(1.33333 0 0 -1.33333 176.87 155.285)"/><path d="M0 0v13.184" style="fill:none;stroke:#000;stroke-width:.398;stroke-linecap:butt;stroke-linejoin:miter;stroke-miterlimit:10;stroke-dasharray:none;stroke-opacity:1" transform="matrix(1.33333 0 0 -1.33333 194.044 155.285)"/><path d="M0 0h13.278" style="fill:none;stroke:#000;stroke-width:.398;stroke-linecap:butt;stroke-linejoin:miter;stroke-miterlimit:10;stroke-dasharray:none;stroke-opacity:1" transform="matrix(1.33333 0 0 -1.33333 176.606 155.285)"/><text transform="translate(124.338 150.186) scale(1.33333)" style="font-variant:normal;font-weight:400;font-size:9.9626px;font-family:CMSY10;-inkscape-font-specification:CMSY10;writing-mode:lr-tb;fill:#000;fill-opacity:1;fill-rule:nonzero;stroke:none"><tspan x="0" y="0">∧</tspan></text><path d="M-13.764-156.912h221.093v63.566H-13.765Z" style="fill:none;stroke:#000;stroke-width:.3985;stroke-linecap:butt;stroke-linejoin:miter;stroke-miterlimit:10;stroke-dasharray:none;stroke-opacity:1" transform="matrix(1.33333 0 0 -1.33333 230.758 6.385)"/><text transform="translate(279.114 148.777) scale(1.33333)" style="font-variant:normal;font-weight:400;font-size:9.9626px;font-family:CMMI10;-inkscape-font-specification:CMMI10;writing-mode:lr-tb;fill:#000;fill-opacity:1;fill-rule:nonzero;stroke:none"><tspan x="0" y="0">R</tspan></text><text transform="translate(333.323 202.228) scale(1.33333)" style="font-variant:normal;font-weight:400;font-size:9.9626px;font-family:CMR10;-inkscape-font-specification:CMR10;writing-mode:lr-tb;fill:#000;fill-opacity:1;fill-rule:nonzero;stroke:none"><tspan x="0" y="0">F</tspan></text><path d="M0 0h13.278" style="fill:none;stroke:#000;stroke-width:.398;stroke-linecap:butt;stroke-linejoin:miter;stroke-miterlimit:10;stroke-dasharray:none;stroke-opacity:1" transform="matrix(1.33333 0 0 -1.33333 328.807 188.9)"/><path d="M0 0v13.184" style="fill:none;stroke:#000;stroke-width:.398;stroke-linecap:butt;stroke-linejoin:miter;stroke-miterlimit:10;stroke-dasharray:none;stroke-opacity:1" transform="matrix(1.33333 0 0 -1.33333 329.072 206.478)"/><path d="M0 0v13.184" style="fill:none;stroke:#000;stroke-width:.398;stroke-linecap:butt;stroke-linejoin:miter;stroke-miterlimit:10;stroke-dasharray:none;stroke-opacity:1" transform="matrix(1.33333 0 0 -1.33333 346.246 206.478)"/><path d="M0 0h13.278" style="fill:none;stroke:#000;stroke-width:.398;stroke-linecap:butt;stroke-linejoin:miter;stroke-miterlimit:10;stroke-dasharray:none;stroke-opacity:1" transform="matrix(1.33333 0 0 -1.33333 328.807 206.478)"/><text transform="translate(225.776 202.228) scale(1.33333)" style="font-variant:normal;font-weight:400;font-size:9.9626px;font-family:CMR10;-inkscape-font-specification:CMR10;writing-mode:lr-tb;fill:#000;fill-opacity:1;fill-rule:nonzero;stroke:none"><tspan x="0" y="0">V</tspan></text><path d="M0 0h14.247" style="fill:none;stroke:#000;stroke-width:.398;stroke-linecap:butt;stroke-linejoin:miter;stroke-miterlimit:10;stroke-dasharray:none;stroke-opacity:1" transform="matrix(1.33333 0 0 -1.33333 221.26 188.9)"/><path d="M0 0v13.184" style="fill:none;stroke:#000;stroke-width:.398;stroke-linecap:butt;stroke-linejoin:miter;stroke-miterlimit:10;stroke-dasharray:none;stroke-opacity:1" transform="matrix(1.33333 0 0 -1.33333 221.526 206.478)"/><path d="M0 0v13.184" style="fill:none;stroke:#000;stroke-width:.398;stroke-linecap:butt;stroke-linejoin:miter;stroke-miterlimit:10;stroke-dasharray:none;stroke-opacity:1" transform="matrix(1.33333 0 0 -1.33333 239.99 206.478)"/><path d="M0 0h14.247" style="fill:none;stroke:#000;stroke-width:.398;stroke-linecap:butt;stroke-linejoin:miter;stroke-miterlimit:10;stroke-dasharray:none;stroke-opacity:1" transform="matrix(1.33333 0 0 -1.33333 221.26 206.478)"/><path d="m6.922-6.924 23.008-23.01" style="fill:none;stroke:#000;stroke-width:.3985;stroke-linecap:butt;stroke-linejoin:miter;stroke-miterlimit:10;stroke-dasharray:none;stroke-opacity:1" transform="matrix(1.33333 0 0 -1.33333 284.208 144.238)"/><path d="m-6.923-6.924-22.859-22.853" style="fill:none;stroke:#000;stroke-width:.3985;stroke-linecap:butt;stroke-linejoin:miter;stroke-miterlimit:10;stroke-dasharray:2.98883,2.98883;stroke-dashoffset:0;stroke-opacity:1" transform="matrix(1.33333 0 0 -1.33333 284.208 144.238)"/><text transform="translate(430.295 148.777) scale(1.33333)" style="font-variant:normal;font-weight:400;font-size:9.9626px;font-family:CMMI10;-inkscape-font-specification:CMMI10;writing-mode:lr-tb;fill:#000;fill-opacity:1;fill-rule:nonzero;stroke:none"><tspan x="0" y="0">R</tspan></text><text transform="translate(377.603 202.228) scale(1.33333)" style="font-variant:normal;font-weight:400;font-size:9.9626px;font-family:CMR10;-inkscape-font-specification:CMR10;writing-mode:lr-tb;fill:#000;fill-opacity:1;fill-rule:nonzero;stroke:none"><tspan x="0" y="0">F</tspan></text><path d="M0 0h13.278" style="fill:none;stroke:#000;stroke-width:.398;stroke-linecap:butt;stroke-linejoin:miter;stroke-miterlimit:10;stroke-dasharray:none;stroke-opacity:1" transform="matrix(1.33333 0 0 -1.33333 373.087 188.9)"/><path d="M0 0v13.184" style="fill:none;stroke:#000;stroke-width:.398;stroke-linecap:butt;stroke-linejoin:miter;stroke-miterlimit:10;stroke-dasharray:none;stroke-opacity:1" transform="matrix(1.33333 0 0 -1.33333 373.352 206.478)"/><path d="M0 0v13.184" style="fill:none;stroke:#000;stroke-width:.398;stroke-linecap:butt;stroke-linejoin:miter;stroke-miterlimit:10;stroke-dasharray:none;stroke-opacity:1" transform="matrix(1.33333 0 0 -1.33333 390.526 206.478)"/><path d="M0 0h13.278" style="fill:none;stroke:#000;stroke-width:.398;stroke-linecap:butt;stroke-linejoin:miter;stroke-miterlimit:10;stroke-dasharray:none;stroke-opacity:1" transform="matrix(1.33333 0 0 -1.33333 373.087 206.478)"/><text transform="translate(483.859 202.228) scale(1.33333)" style="font-variant:normal;font-weight:400;font-size:9.9626px;font-family:CMR10;-inkscape-font-specification:CMR10;writing-mode:lr-tb;fill:#000;fill-opacity:1;fill-rule:nonzero;stroke:none"><tspan x="0" y="0">V</tspan></text><path d="M0 0h14.247" style="fill:none;stroke:#000;stroke-width:.398;stroke-linecap:butt;stroke-linejoin:miter;stroke-miterlimit:10;stroke-dasharray:none;stroke-opacity:1" transform="matrix(1.33333 0 0 -1.33333 479.343 188.9)"/><path d="M0 0v13.184" style="fill:none;stroke:#000;stroke-width:.398;stroke-linecap:butt;stroke-linejoin:miter;stroke-miterlimit:10;stroke-dasharray:none;stroke-opacity:1" transform="matrix(1.33333 0 0 -1.33333 479.608 206.478)"/><path d="M0 0v13.184" style="fill:none;stroke:#000;stroke-width:.398;stroke-linecap:butt;stroke-linejoin:miter;stroke-miterlimit:10;stroke-dasharray:none;stroke-opacity:1" transform="matrix(1.33333 0 0 -1.33333 498.072 206.478)"/><path d="M0 0h14.247" style="fill:none;stroke:#000;stroke-width:.398;stroke-linecap:butt;stroke-linejoin:miter;stroke-miterlimit:10;stroke-dasharray:none;stroke-opacity:1" transform="matrix(1.33333 0 0 -1.33333 479.343 206.478)"/><path d="m106.465-6.924-23.007-23.01" style="fill:none;stroke:#000;stroke-width:.3985;stroke-linecap:butt;stroke-linejoin:miter;stroke-miterlimit:10;stroke-dasharray:2.98883,2.98883;stroke-dashoffset:0;stroke-opacity:1" transform="matrix(1.33333 0 0 -1.33333 284.208 144.238)"/><path d="m120.31-6.924 22.86-22.853" style="fill:none;stroke:#000;stroke-width:.3985;stroke-linecap:butt;stroke-linejoin:miter;stroke-miterlimit:10;stroke-dasharray:none;stroke-opacity:1" transform="matrix(1.33333 0 0 -1.33333 284.208 144.238)"/><text transform="translate(355.37 147.928) scale(1.33333)" style="font-variant:normal;font-weight:400;font-size:9.9626px;font-family:CMSY10;-inkscape-font-specification:CMSY10;writing-mode:lr-tb;fill:#000;fill-opacity:1;fill-rule:nonzero;stroke:none"><tspan x="0" y="0">∧</tspan></text><path d="m-6.1-7.892-64.675-83.561" style="fill:none;stroke:#000;stroke-width:.79701;stroke-linecap:butt;stroke-linejoin:miter;stroke-miterlimit:10;stroke-dasharray:2.98883,2.98883;stroke-dashoffset:0;stroke-opacity:1" transform="matrix(1.33333 0 0 -1.33333 230.758 6.385)"/><path d="m6.1-7.892 65.983-85.255" style="fill:none;stroke:#000;stroke-width:.79701;stroke-linecap:butt;stroke-linejoin:miter;stroke-miterlimit:10;stroke-dasharray:none;stroke-opacity:1" transform="matrix(1.33333 0 0 -1.33333 230.758 6.385)"/></svg>