<svg xml:space="preserve" width="469.666" height="263.937" xmlns="http://www.w3.org/2000/svg"><text transform="translate(279.345 9.483) scale(1.33333)" style="font-variant:normal;font-weight:400;font-size:9.9626px;font-family:CMMI10;-inkscape-font-specification:CMMI10;writing-mode:lr-tb;fill:#000;fill-opacity:1;fill-rule:nonzero;stroke:none"><tspan x="0" y="0">P</tspan></text><path d="M-213.2-194.046H19.635v137.834H-213.2z" style="fill:none;stroke:#000;stroke-width:.3985;stroke-linecap:butt;stroke-linejoin:miter;stroke-miterlimit:10;stroke-dasharray:none;stroke-opacity:1" transform="matrix(1.33333 0 0 -1.33333 284.532 4.944)"/><text transform="translate(66.978 99.116) scale(1.33333)" style="font-variant:normal;font-weight:400;font-size:9.9626px;font-family:CMMI10;-inkscape-font-specification:CMMI10;writing-mode:lr-tb;fill:#000;fill-opacity:1;fill-rule:nonzero;stroke:none"><tspan x="0" y="0">R</tspan></text><text transform="translate(121.188 152.567) scale(1.33333)" style="font-variant:normal;font-weight:400;font-size:9.9626px;font-family:CMR10;-inkscape-font-specification:CMR10;writing-mode:lr-tb;fill:#000;fill-opacity:1;fill-rule:nonzero;stroke:none"><tspan x="0" y="0">F</tspan></text><path d="M0 0h13.278" style="fill:none;stroke:#000;stroke-width:.398;stroke-linecap:butt;stroke-linejoin:miter;stroke-miterlimit:10;stroke-dasharray:none;stroke-opacity:1" transform="matrix(1.33333 0 0 -1.33333 116.672 139.239)"/><path d="M0 0v13.184" style="fill:none;stroke:#000;stroke-width:.398;stroke-linecap:butt;stroke-linejoin:miter;stroke-miterlimit:10;stroke-dasharray:none;stroke-opacity:1" transform="matrix(1.33333 0 0 -1.33333 116.937 156.817)"/><path d="M0 0v13.184" style="fill:none;stroke:#000;stroke-width:.398;stroke-linecap:butt;stroke-linejoin:miter;stroke-miterlimit:10;stroke-dasharray:none;stroke-opacity:1" transform="matrix(1.33333 0 0 -1.33333 134.11 156.817)"/><path d="M0 0h13.278" style="fill:none;stroke:#000;stroke-width:.398;stroke-linecap:butt;stroke-linejoin:miter;stroke-miterlimit:10;stroke-dasharray:none;stroke-opacity:1" transform="matrix(1.33333 0 0 -1.33333 116.672 156.817)"/><text transform="translate(13.641 152.567) scale(1.33333)" style="font-variant:normal;font-weight:400;font-size:9.9626px;font-family:CMR10;-inkscape-font-specification:CMR10;writing-mode:lr-tb;fill:#000;fill-opacity:1;fill-rule:nonzero;stroke:none"><tspan x="0" y="0">V</tspan></text><path d="M0 0h14.247" style="fill:none;stroke:#000;stroke-width:.398;stroke-linecap:butt;stroke-linejoin:miter;stroke-miterlimit:10;stroke-dasharray:none;stroke-opacity:1" transform="matrix(1.33333 0 0 -1.33333 9.125 139.239)"/><path d="M0 0v13.184" style="fill:none;stroke:#000;stroke-width:.398;stroke-linecap:butt;stroke-linejoin:miter;stroke-miterlimit:10;stroke-dasharray:none;stroke-opacity:1" transform="matrix(1.33333 0 0 -1.33333 9.39 156.817)"/><path d="M0 0v13.184" style="fill:none;stroke:#000;stroke-width:.398;stroke-linecap:butt;stroke-linejoin:miter;stroke-miterlimit:10;stroke-dasharray:none;stroke-opacity:1" transform="matrix(1.33333 0 0 -1.33333 27.854 156.817)"/><path d="M0 0h14.247" style="fill:none;stroke:#000;stroke-width:.398;stroke-linecap:butt;stroke-linejoin:miter;stroke-miterlimit:10;stroke-dasharray:none;stroke-opacity:1" transform="matrix(1.33333 0 0 -1.33333 9.125 156.817)"/><path d="m6.922-6.924 23.008-23.01" style="fill:none;stroke:#000;stroke-width:.3985;stroke-linecap:butt;stroke-linejoin:miter;stroke-miterlimit:10;stroke-dasharray:none;stroke-opacity:1" transform="matrix(1.33333 0 0 -1.33333 72.073 94.577)"/><path d="m-6.923-6.924-22.859-22.853" style="fill:none;stroke:#000;stroke-width:.3985;stroke-linecap:butt;stroke-linejoin:miter;stroke-miterlimit:10;stroke-dasharray:2.98883,2.98883;stroke-dashoffset:0;stroke-opacity:1" transform="matrix(1.33333 0 0 -1.33333 72.073 94.577)"/><text transform="translate(180.208 97.825) scale(1.33333)" style="font-variant:normal;font-weight:400;font-size:9.9626px;font-family:CMMI10;-inkscape-font-specification:CMMI10;writing-mode:lr-tb;fill:#000;fill-opacity:1;fill-rule:nonzero;stroke:none"><tspan x="0" y="0">Q</tspan></text><text transform="translate(233.814 152.567) scale(1.33333)" style="font-variant:normal;font-weight:400;font-size:9.9626px;font-family:CMMI10;-inkscape-font-specification:CMMI10;writing-mode:lr-tb;fill:#000;fill-opacity:1;fill-rule:nonzero;stroke:none"><tspan x="0" y="0">R</tspan></text><text transform="translate(184.902 250.297) scale(1.33333)" style="font-variant:normal;font-weight:400;font-size:9.9626px;font-family:CMR10;-inkscape-font-specification:CMR10;writing-mode:lr-tb;fill:#000;fill-opacity:1;fill-rule:nonzero;stroke:none"><tspan x="0" y="0">F</tspan></text><path d="M0 0h13.278" style="fill:none;stroke:#000;stroke-width:.398;stroke-linecap:butt;stroke-linejoin:miter;stroke-miterlimit:10;stroke-dasharray:none;stroke-opacity:1" transform="matrix(1.33333 0 0 -1.33333 180.386 236.97)"/><path d="M0 0v13.184" style="fill:none;stroke:#000;stroke-width:.398;stroke-linecap:butt;stroke-linejoin:miter;stroke-miterlimit:10;stroke-dasharray:none;stroke-opacity:1" transform="matrix(1.33333 0 0 -1.33333 180.652 254.548)"/><path d="M0 0v13.184" style="fill:none;stroke:#000;stroke-width:.398;stroke-linecap:butt;stroke-linejoin:miter;stroke-miterlimit:10;stroke-dasharray:none;stroke-opacity:1" transform="matrix(1.33333 0 0 -1.33333 197.825 254.548)"/><path d="M0 0h13.278" style="fill:none;stroke:#000;stroke-width:.398;stroke-linecap:butt;stroke-linejoin:miter;stroke-miterlimit:10;stroke-dasharray:none;stroke-opacity:1" transform="matrix(1.33333 0 0 -1.33333 180.386 254.548)"/><text transform="translate(287.378 206.017) scale(1.33333)" style="font-variant:normal;font-weight:400;font-size:9.9626px;font-family:CMR10;-inkscape-font-specification:CMR10;writing-mode:lr-tb;fill:#000;fill-opacity:1;fill-rule:nonzero;stroke:none"><tspan x="0" y="0">V</tspan></text><path d="M0 0h14.247" style="fill:none;stroke:#000;stroke-width:.398;stroke-linecap:butt;stroke-linejoin:miter;stroke-miterlimit:10;stroke-dasharray:none;stroke-opacity:1" transform="matrix(1.33333 0 0 -1.33333 282.862 192.69)"/><path d="M0 0v13.184" style="fill:none;stroke:#000;stroke-width:.398;stroke-linecap:butt;stroke-linejoin:miter;stroke-miterlimit:10;stroke-dasharray:none;stroke-opacity:1" transform="matrix(1.33333 0 0 -1.33333 283.128 210.268)"/><path d="M0 0v13.184" style="fill:none;stroke:#000;stroke-width:.398;stroke-linecap:butt;stroke-linejoin:miter;stroke-miterlimit:10;stroke-dasharray:none;stroke-opacity:1" transform="matrix(1.33333 0 0 -1.33333 301.592 210.268)"/><path d="M0 0h14.247" style="fill:none;stroke:#000;stroke-width:.398;stroke-linecap:butt;stroke-linejoin:miter;stroke-miterlimit:10;stroke-dasharray:none;stroke-opacity:1" transform="matrix(1.33333 0 0 -1.33333 282.862 210.268)"/><path d="m85.238-7.892 2.38-95.184" style="fill:none;stroke:#000;stroke-width:.3985;stroke-linecap:butt;stroke-linejoin:miter;stroke-miterlimit:10;stroke-dasharray:2.98883,2.98883;stroke-dashoffset:0;stroke-opacity:1" transform="matrix(1.33333 0 0 -1.33333 72.073 94.577)"/><path d="m92.498-7.455 25.71-25.71" style="fill:none;stroke:#000;stroke-width:.3985;stroke-linecap:butt;stroke-linejoin:miter;stroke-miterlimit:10;stroke-dasharray:none;stroke-opacity:1" transform="matrix(1.33333 0 0 -1.33333 72.073 94.577)"/><path d="m121.611-47.012-28.5-56.064" style="fill:none;stroke:#000;stroke-width:.3985;stroke-linecap:butt;stroke-linejoin:miter;stroke-miterlimit:10;stroke-dasharray:2.98883,2.98883;stroke-dashoffset:0;stroke-opacity:1" transform="matrix(1.33333 0 0 -1.33333 72.073 94.577)"/><path d="m132.052-47.012 22.859-22.854" style="fill:none;stroke:#000;stroke-width:.3985;stroke-linecap:butt;stroke-linejoin:miter;stroke-miterlimit:10;stroke-dasharray:none;stroke-opacity:1" transform="matrix(1.33333 0 0 -1.33333 72.073 94.577)"/><text transform="translate(152.953 200.584) scale(1.33333)" style="font-variant:normal;font-weight:400;font-size:9.9626px;font-family:CMSY10;-inkscape-font-specification:CMSY10;writing-mode:lr-tb;fill:#000;fill-opacity:1;fill-rule:nonzero;stroke:none"><tspan x="0" y="0">∧</tspan></text><path d="M54.913-138.561h83.738v26.864H54.913Z" style="fill:none;stroke:#000;stroke-width:.3985;stroke-linecap:butt;stroke-linejoin:miter;stroke-miterlimit:10;stroke-dasharray:none;stroke-opacity:1" transform="matrix(1.33333 0 0 -1.33333 284.532 4.944)"/><text transform="translate(371.12 176.32) scale(1.33333)" style="font-variant:normal;font-weight:400;font-size:9.9626px;font-family:CMR10;-inkscape-font-specification:CMR10;writing-mode:lr-tb;fill:#000;fill-opacity:1;fill-rule:nonzero;stroke:none"><tspan x="0" y="0">F</tspan></text><path d="M0 0h13.278" style="fill:none;stroke:#000;stroke-width:.398;stroke-linecap:butt;stroke-linejoin:miter;stroke-miterlimit:10;stroke-dasharray:none;stroke-opacity:1" transform="matrix(1.33333 0 0 -1.33333 366.604 162.992)"/><path d="M0 0v13.184" style="fill:none;stroke:#000;stroke-width:.398;stroke-linecap:butt;stroke-linejoin:miter;stroke-miterlimit:10;stroke-dasharray:none;stroke-opacity:1" transform="matrix(1.33333 0 0 -1.33333 366.869 180.57)"/><path d="M0 0v13.184" style="fill:none;stroke:#000;stroke-width:.398;stroke-linecap:butt;stroke-linejoin:miter;stroke-miterlimit:10;stroke-dasharray:none;stroke-opacity:1" transform="matrix(1.33333 0 0 -1.33333 384.041 180.57)"/><path d="M0 0h13.278" style="fill:none;stroke:#000;stroke-width:.398;stroke-linecap:butt;stroke-linejoin:miter;stroke-miterlimit:10;stroke-dasharray:none;stroke-opacity:1" transform="matrix(1.33333 0 0 -1.33333 366.604 180.57)"/><text transform="translate(446.065 176.32) scale(1.33333)" style="font-variant:normal;font-weight:400;font-size:9.9626px;font-family:CMR10;-inkscape-font-specification:CMR10;writing-mode:lr-tb;fill:#000;fill-opacity:1;fill-rule:nonzero;stroke:none"><tspan x="0" y="0">V</tspan></text><path d="M0 0h14.247" style="fill:none;stroke:#000;stroke-width:.398;stroke-linecap:butt;stroke-linejoin:miter;stroke-miterlimit:10;stroke-dasharray:none;stroke-opacity:1" transform="matrix(1.33333 0 0 -1.33333 441.548 162.992)"/><path d="M0 0v13.184" style="fill:none;stroke:#000;stroke-width:.398;stroke-linecap:butt;stroke-linejoin:miter;stroke-miterlimit:10;stroke-dasharray:none;stroke-opacity:1" transform="matrix(1.33333 0 0 -1.33333 441.814 180.57)"/><path d="M0 0v13.184" style="fill:none;stroke:#000;stroke-width:.398;stroke-linecap:butt;stroke-linejoin:miter;stroke-miterlimit:10;stroke-dasharray:none;stroke-opacity:1" transform="matrix(1.33333 0 0 -1.33333 460.278 180.57)"/><path d="M0 0h14.247" style="fill:none;stroke:#000;stroke-width:.398;stroke-linecap:butt;stroke-linejoin:miter;stroke-miterlimit:10;stroke-dasharray:none;stroke-opacity:1" transform="matrix(1.33333 0 0 -1.33333 441.548 180.57)"/><text transform="translate(408.822 175.47) scale(1.33333)" style="font-variant:normal;font-weight:400;font-size:9.9626px;font-family:CMSY10;-inkscape-font-specification:CMSY10;writing-mode:lr-tb;fill:#000;fill-opacity:1;fill-rule:nonzero;stroke:none"><tspan x="0" y="0">∧</tspan></text><path d="m-5.362-6.924-38.044-49.089" style="fill:none;stroke:#000;stroke-width:.79701;stroke-linecap:butt;stroke-linejoin:miter;stroke-miterlimit:10;stroke-dasharray:2.98883,2.98883;stroke-dashoffset:0;stroke-opacity:1" transform="matrix(1.33333 0 0 -1.33333 284.532 4.944)"/><path d="m5.35-6.924 80.905-104.573" style="fill:none;stroke:#000;stroke-width:.79701;stroke-linecap:butt;stroke-linejoin:miter;stroke-miterlimit:10;stroke-dasharray:none;stroke-opacity:1" transform="matrix(1.33333 0 0 -1.33333 284.532 4.944)"/></svg>