<svg xml:space="preserve" width="557.339" height="349.55" xmlns="http://www.w3.org/2000/svg"><text transform="translate(75.066 11.543) scale(1.33333)" style="font-variant:normal;font-weight:400;font-size:11.9552px;font-family:CMSY10;-inkscape-font-specification:CMSY10;writing-mode:lr-tb;fill:#000;fill-opacity:1;fill-rule:nonzero;stroke:none"><tspan x="0" y="0">∧</tspan></text><text transform="translate(-1.549 86.821) scale(1.33333)" style="font-variant:normal;font-weight:400;font-size:11.9552px;font-family:CMMI12;-inkscape-font-specification:CMMI12;writing-mode:lr-tb;fill:#000;fill-opacity:1;fill-rule:nonzero;stroke:none"><tspan x="0" y="0">P</tspan></text><text transform="translate(150.078 82.792) scale(1.33333)" style="font-variant:normal;font-weight:400;font-size:11.9552px;font-family:CMSY10;-inkscape-font-specification:CMSY10;writing-mode:lr-tb;fill:#000;fill-opacity:1;fill-rule:nonzero;stroke:none"><tspan x="0" y="0">¬</tspan></text><text transform="translate(150.078 178.173) scale(1.33333)" style="font-variant:normal;font-weight:400;font-size:11.9552px;font-family:CMSY10;-inkscape-font-specification:CMSY10;writing-mode:lr-tb;fill:#000;fill-opacity:1;fill-rule:nonzero;stroke:none"><tspan x="0" y="0">∧</tspan></text><text transform="translate(73.464 253.452) scale(1.33333)" style="font-variant:normal;font-weight:400;font-size:11.9552px;font-family:CMMI12;-inkscape-font-specification:CMMI12;writing-mode:lr-tb;fill:#000;fill-opacity:1;fill-rule:nonzero;stroke:none"><tspan x="0" y="0">P</tspan></text><text transform="translate(225.091 249.423) scale(1.33333)" style="font-variant:normal;font-weight:400;font-size:11.9552px;font-family:CMSY10;-inkscape-font-specification:CMSY10;writing-mode:lr-tb;fill:#000;fill-opacity:1;fill-rule:nonzero;stroke:none"><tspan x="0" y="0">¬</tspan></text><text transform="translate(224.223 346.841) scale(1.33333)" style="font-variant:normal;font-weight:400;font-size:11.9552px;font-family:CMMI12;-inkscape-font-specification:CMMI12;writing-mode:lr-tb;fill:#000;fill-opacity:1;fill-rule:nonzero;stroke:none"><tspan x="0" y="0">Q</tspan></text><path d="m-7.576-7.422-40.93-40.088M7.705-7.422l41.63-40.088m6.925-13.35v-56.693m7.706-14.844 41.63-40.088m-56.911 40.088-40.93-40.088m104.765-13.349v-56.694" style="fill:none;stroke:#000;stroke-width:.3985;stroke-linecap:butt;stroke-linejoin:miter;stroke-miterlimit:10;stroke-dasharray:none;stroke-opacity:1" transform="matrix(1.33333 0 0 -1.33333 80.38 7.115)"/><text transform="translate(397.338 11.543) scale(1.33333)" style="font-variant:normal;font-weight:400;font-size:11.9552px;font-family:CMSY10;-inkscape-font-specification:CMSY10;writing-mode:lr-tb;fill:#000;fill-opacity:1;fill-rule:nonzero;stroke:none"><tspan x="0" y="0">∧</tspan></text><text transform="translate(399.536 349.052) scale(1.33333)" style="font-variant:normal;font-weight:400;font-size:11.9552px;font-family:CMMI12;-inkscape-font-specification:CMMI12;writing-mode:lr-tb;fill:#000;fill-opacity:1;fill-rule:nonzero;stroke:none"><tspan x="0" y="0">P</tspan></text><text transform="translate(472.35 82.792) scale(1.33333)" style="font-variant:normal;font-weight:400;font-size:11.9552px;font-family:CMSY10;-inkscape-font-specification:CMSY10;writing-mode:lr-tb;fill:#000;fill-opacity:1;fill-rule:nonzero;stroke:none"><tspan x="0" y="0">¬</tspan></text><text transform="translate(472.35 178.173) scale(1.33333)" style="font-variant:normal;font-weight:400;font-size:11.9552px;font-family:CMSY10;-inkscape-font-specification:CMSY10;writing-mode:lr-tb;fill:#000;fill-opacity:1;fill-rule:nonzero;stroke:none"><tspan x="0" y="0">∧</tspan></text><text transform="translate(547.363 249.423) scale(1.33333)" style="font-variant:normal;font-weight:400;font-size:11.9552px;font-family:CMSY10;-inkscape-font-specification:CMSY10;writing-mode:lr-tb;fill:#000;fill-opacity:1;fill-rule:nonzero;stroke:none"><tspan x="0" y="0">¬</tspan></text><text transform="translate(546.496 346.841) scale(1.33333)" style="font-variant:normal;font-weight:400;font-size:11.9552px;font-family:CMMI12;-inkscape-font-specification:CMMI12;writing-mode:lr-tb;fill:#000;fill-opacity:1;fill-rule:nonzero;stroke:none"><tspan x="0" y="0">Q</tspan></text><path d="m.066-7.422 2.11-236.763M7.705-7.422l41.63-40.088m6.925-13.35v-56.693m7.706-14.844 41.63-40.088m-52.478 40.088L5.716-244.185m106.804 58.351v-56.694" style="fill:none;stroke:#000;stroke-width:.3985;stroke-linecap:butt;stroke-linejoin:miter;stroke-miterlimit:10;stroke-dasharray:none;stroke-opacity:1" transform="matrix(1.33333 0 0 -1.33333 402.651 7.115)"/></svg>