<svg xml:space="preserve" width="510.26" height="621.556" xmlns="http://www.w3.org/2000/svg"><text transform="translate(102.023 41.97) scale(1.33333)" style="font-variant:normal;font-weight:400;font-size:11.9552px;font-family:CMSY10;-inkscape-font-specification:CMSY10;writing-mode:lr-tb;fill:#000;fill-opacity:1;fill-rule:nonzero;stroke:none"><tspan x="0" y="0">∧</tspan></text><text transform="translate(27.609 113.22) scale(1.33333)" style="font-variant:normal;font-weight:400;font-size:11.9552px;font-family:CMMI12;-inkscape-font-specification:CMMI12;writing-mode:lr-tb;fill:#000;fill-opacity:1;fill-rule:nonzero;stroke:none"><tspan x="0" y="0">α</tspan></text><text transform="translate(177.037 117.426) scale(1.33333)" style="font-variant:normal;font-weight:400;font-size:11.9552px;font-family:CMMI12;-inkscape-font-specification:CMMI12;writing-mode:lr-tb;fill:#000;fill-opacity:1;fill-rule:nonzero;stroke:none"><tspan x="0" y="0">β</tspan></text><path d="M-7.675-7.422-49.139-47.51M7.288-7.422l40.886-41.631" style="fill:none;stroke:#000;stroke-width:.3985;stroke-linecap:butt;stroke-linejoin:miter;stroke-miterlimit:10;stroke-dasharray:none;stroke-opacity:1" transform="matrix(1.33333 0 0 -1.33333 107.337 37.542)"/><text transform="translate(396.415 41.97) scale(1.33333)" style="font-variant:normal;font-weight:400;font-size:11.9552px;font-family:CMSY10;-inkscape-font-specification:CMSY10;writing-mode:lr-tb;fill:#000;fill-opacity:1;fill-rule:nonzero;stroke:none"><tspan x="0" y="0">∧</tspan></text><text transform="translate(322 113.22) scale(1.33333)" style="font-variant:normal;font-weight:400;font-size:11.9552px;font-family:CMMI12;-inkscape-font-specification:CMMI12;writing-mode:lr-tb;fill:#000;fill-opacity:1;fill-rule:nonzero;stroke:none"><tspan x="0" y="0">α</tspan></text><text transform="translate(471.427 117.426) scale(1.33333)" style="font-variant:normal;font-weight:400;font-size:11.9552px;font-family:CMMI12;-inkscape-font-specification:CMMI12;writing-mode:lr-tb;fill:#000;fill-opacity:1;fill-rule:nonzero;stroke:none"><tspan x="0" y="0">β</tspan></text><path d="M-7.675-7.422-49.139-47.51M7.288-7.422l40.886-41.631" style="fill:none;stroke:#000;stroke-width:.3985;stroke-linecap:butt;stroke-linejoin:miter;stroke-miterlimit:10;stroke-dasharray:none;stroke-opacity:1" transform="matrix(1.33333 0 0 -1.33333 401.729 37.542)"/><text transform="translate(102.023 289.043) scale(1.33333)" style="font-variant:normal;font-weight:400;font-size:11.9552px;font-family:CMSY10;-inkscape-font-specification:CMSY10;writing-mode:lr-tb;fill:#000;fill-opacity:1;fill-rule:nonzero;stroke:none"><tspan x="0" y="0">∧</tspan></text><text transform="translate(27.609 360.293) scale(1.33333)" style="font-variant:normal;font-weight:400;font-size:11.9552px;font-family:CMMI12;-inkscape-font-specification:CMMI12;writing-mode:lr-tb;fill:#000;fill-opacity:1;fill-rule:nonzero;stroke:none"><tspan x="0" y="0">α</tspan></text><text transform="translate(177.037 364.5) scale(1.33333)" style="font-variant:normal;font-weight:400;font-size:11.9552px;font-family:CMMI12;-inkscape-font-specification:CMMI12;writing-mode:lr-tb;fill:#000;fill-opacity:1;fill-rule:nonzero;stroke:none"><tspan x="0" y="0">β</tspan></text><path d="M-7.675-7.422-49.139-47.51M7.288-7.422l40.886-41.631" style="fill:none;stroke:#000;stroke-width:.3985;stroke-linecap:butt;stroke-linejoin:miter;stroke-miterlimit:10;stroke-dasharray:none;stroke-opacity:1" transform="matrix(1.33333 0 0 -1.33333 107.337 284.615)"/><text transform="translate(377.82 289.043) scale(1.33333)" style="font-variant:normal;font-weight:400;font-size:11.9552px;font-family:CMSY10;-inkscape-font-specification:CMSY10;writing-mode:lr-tb;fill:#000;fill-opacity:1;fill-rule:nonzero;stroke:none"><tspan x="0" y="0">∧</tspan></text><text transform="translate(303.405 360.293) scale(1.33333)" style="font-variant:normal;font-weight:400;font-size:11.9552px;font-family:CMMI12;-inkscape-font-specification:CMMI12;writing-mode:lr-tb;fill:#000;fill-opacity:1;fill-rule:nonzero;stroke:none"><tspan x="0" y="0">α</tspan></text><text transform="translate(452.833 364.5) scale(1.33333)" style="font-variant:normal;font-weight:400;font-size:11.9552px;font-family:CMMI12;-inkscape-font-specification:CMMI12;writing-mode:lr-tb;fill:#000;fill-opacity:1;fill-rule:nonzero;stroke:none"><tspan x="0" y="0">β</tspan></text><path d="M-7.675-7.422-49.139-47.51M7.288-7.422l40.886-41.631" style="fill:none;stroke:#000;stroke-width:.3985;stroke-linecap:butt;stroke-linejoin:miter;stroke-miterlimit:10;stroke-dasharray:none;stroke-opacity:1" transform="matrix(1.33333 0 0 -1.33333 383.133 284.615)"/><text transform="translate(102.023 536.117) scale(1.33333)" style="font-variant:normal;font-weight:400;font-size:11.9552px;font-family:CMSY10;-inkscape-font-specification:CMSY10;writing-mode:lr-tb;fill:#000;fill-opacity:1;fill-rule:nonzero;stroke:none"><tspan x="0" y="0">∧</tspan></text><text transform="translate(27.609 607.366) scale(1.33333)" style="font-variant:normal;font-weight:400;font-size:11.9552px;font-family:CMMI12;-inkscape-font-specification:CMMI12;writing-mode:lr-tb;fill:#000;fill-opacity:1;fill-rule:nonzero;stroke:none"><tspan x="0" y="0">α</tspan></text><text transform="translate(177.037 611.573) scale(1.33333)" style="font-variant:normal;font-weight:400;font-size:11.9552px;font-family:CMMI12;-inkscape-font-specification:CMMI12;writing-mode:lr-tb;fill:#000;fill-opacity:1;fill-rule:nonzero;stroke:none"><tspan x="0" y="0">β</tspan></text><path d="M-7.675-7.422-49.139-47.51M7.288-7.422l40.886-41.631" style="fill:none;stroke:#000;stroke-width:.3985;stroke-linecap:butt;stroke-linejoin:miter;stroke-miterlimit:10;stroke-dasharray:none;stroke-opacity:1" transform="matrix(1.33333 0 0 -1.33333 107.337 531.689)"/><text transform="translate(377.82 536.117) scale(1.33333)" style="font-variant:normal;font-weight:400;font-size:11.9552px;font-family:CMSY10;-inkscape-font-specification:CMSY10;writing-mode:lr-tb;fill:#000;fill-opacity:1;fill-rule:nonzero;stroke:none"><tspan x="0" y="0">∧</tspan></text><text transform="translate(303.405 607.366) scale(1.33333)" style="font-variant:normal;font-weight:400;font-size:11.9552px;font-family:CMMI12;-inkscape-font-specification:CMMI12;writing-mode:lr-tb;fill:#000;fill-opacity:1;fill-rule:nonzero;stroke:none"><tspan x="0" y="0">α</tspan></text><text transform="translate(452.833 611.573) scale(1.33333)" style="font-variant:normal;font-weight:400;font-size:11.9552px;font-family:CMMI12;-inkscape-font-specification:CMMI12;writing-mode:lr-tb;fill:#000;fill-opacity:1;fill-rule:nonzero;stroke:none"><tspan x="0" y="0">β</tspan></text><path d="M-7.675-7.422-49.139-47.51M7.288-7.422l40.886-41.631" style="fill:none;stroke:#000;stroke-width:.3985;stroke-linecap:butt;stroke-linejoin:miter;stroke-miterlimit:10;stroke-dasharray:none;stroke-opacity:1" transform="matrix(1.33333 0 0 -1.33333 383.133 531.689)"/><path style="fill:none;stroke:teal;stroke-width:1px;stroke-linecap:butt;stroke-linejoin:miter;stroke-opacity:1" d="M10.207 89.911c1.161-2.1 2.06-4.847 4.058-6.42m6.676-9.131c3.357-4.244 1.696-2.44 4.844-5.538m3.404-4.3c2.227-1.166 3.19-3.426 5.236-4.654m9.949-8.659c3.054-3.985 1.394-2.669 4.45-4.536M53.8 42.02a39.132 39.132 0 0 0 4.712-3.653m17.411-11.369 3.011-1.944m-16.756 9.484c.963-.378 6.22-5.693 6.807-3.711m16.364-10.662c2.928-1.607 6.009-3.03 9.294-3.712m3.011-9.483c1.528 1.374 3.135 2.664 4.582 4.123 1.13 1.138 1.24 4.49 2.75 3.947 1.799-.648 1.782-10.412 4.581-11.252"/><path style="fill:none;stroke:teal;stroke-width:1px;stroke-linecap:butt;stroke-linejoin:miter;stroke-opacity:1" d="M6.672 82.548c-1.957.691 3.273 11.632 3.273 9.425 4.404.32 8.926-1.278 12.305-3.711M.388 102.753c1.179 1.453 2.35 2.911 3.535 4.36.823 1.006 1.626 2.03 2.487 3.004 9.734 11.013 1.124-8.625 7.986-10.31m103.157-86.24c4.03.22 5.011 1.026 8.378 3.24m10.734 5.891c3.095.253 4.507 1.988 6.939 3.593m7.2 7.894c3.945 2.367 2.516.836 4.581 4.3m7.07 5.125 3.142 3.417m9.818 7.245c2.643 3.444 3.367 6.846 7.593 8.188m7.592 8.601c1.724 2.093 2.77 3.958 3.927 6.303m3.666 11.664c1.795 3.837.857 2.349 2.487 4.654"/><path style="fill:none;stroke:teal;stroke-width:1px;stroke-linecap:butt;stroke-linejoin:miter;stroke-opacity:1" d="M188.375 88.969c5.043 2.983 3.046 1.83 6.022 3.534.364.21 5.24 3.297 5.498 3.122.505-.34.493-1.115.785-1.649.981-1.795 3.69-6.59 6.022-7.01m-2.749 19.027c.655 1.277 1.214 2.606 1.964 3.83 1.61 2.625 3.336 7.395 5.629 3.71 1.062-1.707 2.086-3.448 2.88-5.301.55-1.286-.052-3.2 1.047-4.065.477-.375 1.168.36 1.702.648m73.295 1.65c1.309 1.413 2.566 2.877 3.927 4.24 7.7 7.718 2.442-6.866 9.164-7.068m-2.226-11.193c1.594-3.872.373-2.519 3.142-4.477m7.2-8.6 4.713-3.476m5.367-7.54c.977-1.642 1.584-3.54 3.142-4.241m6.807-9.19c1.763-2.365 2.676-3.249 5.106-4.123m7.723-7.305c.212-3.378 1.085-3 3.273-4.477m8.64-7.128c1.095-3.791 2.015-3.594 5.105-4.83m4.321-2.533c2.545-2.613 2.581-2.643 5.236-3.24"/><path style="fill:none;stroke:teal;stroke-width:1px;stroke-linecap:butt;stroke-linejoin:miter;stroke-opacity:1" d="M368.884 15.393c1.353-.314 2.683-.75 4.059-.942 16.38-2.296-5.738 11.507 2.094 11.899M391.27 1.668c1.004 1.119 2.005 2.24 3.01 3.357.958 1.063 1.94 2.104 2.881 3.181 1.55 1.777 2.527 5.162 3.666 1.473.82-2.659-.076-7.708 1.701-9.307m96.617 107.035c3.542 1.63 6.033 5.542 9.556 7.128 1.003.451-.045-2.2 0-3.299.115-2.784 1.178-5.721 1.048-8.483-.01-.184-.568-.355-.524-.176m-10.211-10.839c3.55 2.362 1.956 1.418 4.713 2.945m-16.364-12.901 4.451 3.652m-17.149-14.785c4.654 3.74 2.21 2.363 7.2 4.359m-14.662-13.372c1.247 2.92 1.733 3.443 4.45 3.888m-17.148-16.436c3.878 3.88 2.04 2.796 4.843 4.183m-17.28-14.845c2.655 1.6 5.11 3.342 7.855 4.772M427.93 27.234c1.41 1.677 1.377 3.477 2.88 4.83M418.635 15.51c3.238 4.438 1.358 3.368 4.582 4.596m-10.342-8.012c-.218 1.002-.511 1.99-.654 3.005-.11.777 0 3.141 0 2.356 0-1.303-.024 3.014.654-2.298.13-1.012-.82-2.456 0-3.063 3.259-2.408 9.255-.42 12.96-.118"/><path style="fill:none;stroke:#de8787;stroke-width:1px;stroke-linecap:butt;stroke-linejoin:miter;stroke-opacity:1" d="M3.762 351.936c-.696 4.07-1.072 4.394-.654 8.247.061.57.584 2.16.654 1.59.803-6.502-3.226-8.278 4.058-13.195.255-.172 2.347-.122 2.619 0 1.663.749-6.313 2.604-6.677 3.358-.744 1.543-.202 3.518.393 5.125.139.374 3.093-.524 3.404-.59 2.474-.523 2.732-.423 6.021-.117m-6.938-17.378c-.405-3.468 2.173-5.58 4.451-7.835m3.011-3.946c1.613-3.574 1.668-3.638 4.451-4.89m6.415-6.598c1.162-3.13 2.271-6.48 5.76-7.422m8.77-5.184c.979-3.816 2.21-5.075 5.76-5.714m7.855-9.425c1.01-.851 4.951-6.346 7.331-4.418m8.117-7.187c3.134-3.31 6.3-4.264 10.342-5.537m3.403-2.356c2.479-1.039 5.01-1.96 7.462-3.064 4.51-2.03-3.098-1.94-.655-2.061.918-.046 2.667.063 2.488 1.354-.358 2.576-5.692 5.563-3.404 4.713 1.062-.395 2.095-.864 3.142-1.296m10.734-15.964c.825 2.55-.028 5.446.786 8.011.197.622-.382-1.248-.524-1.885-.585-2.633-1.083-7.997-.392-10.485.072-.261 7.212-1.03 8.64-1.06.523-.012 1.57.523 1.57 0 0-.262-.523 0-.785 0-1.405 0-13.239.372-9.295 5.419.997 1.276 2.902 1.474 4.451 1.944.427.13 3.082-.394 3.535-.53.209-.063-.436 0-.655 0-1.178 0-2.387.328-3.534.059-1.322-.31-5.087-1.05-3.797-1.473 2.122-.694 4.451.353 6.677.53m374.716 102.323c1.094 2.951-.42 6.332.524 9.307.267.844-.131-1.766-.131-2.65 0-3.704-1.268-8.61.785-11.959 1.308-2.133 5.7-1.472 7.724-1.355 1.239.072 4.588-.182 3.665.648-.948.854-14.454-.271-9.425 1.709"/><path style="fill:none;stroke:#de8787;stroke-width:1px;stroke-linecap:butt;stroke-linejoin:miter;stroke-opacity:1" d="M484.384 358.121c1.47.145 9.537-.507 8.771.412M374.813 255.445c-.446-.542-.823 10.597-1.964 9.955-4.29-2.414 1.603-8.56 1.964-9.955.441-1.705-.815-3.49-.655-5.243.084-.91 5.888-.924 6.284-.942 1.39-.066 1.87-.06 3.011-.06.13 0 .522-.016.393 0-3.044.392-6.108.42-9.164.649-.827.062-2.487-.77-2.487.059 0 2.041 2.585 3.495 2.618 5.537.03 1.837-2.095 3.533-2.095 5.537 0 .865-.265-1.823.131-2.592 3.013-5.847 1.956.373 1.44-8.129-.06-.99.262-2.238.262-3.24v-.412c0 4.702.189 8.713-.655 13.43-.048.271 0 1.1 0 .825 0-1.845.917-3.74.917-5.42 0-1.484-.674-2.893-.917-4.358-.644-3.896 6.536-1.88 8.379-2.71.756-.34-1.66-.123-2.487-.059-1.64.127-4.599.184-6.284.943-.478.215 1.048-.038 1.57 0 2.349.166 2.795.417 5.499-.06"/><path style="fill:none;stroke:#de8787;stroke-width:1px;stroke-linecap:butt;stroke-linejoin:miter;stroke-opacity:1" d="M373.766 258.214c1.396-.099 2.79-.227 4.189-.295 14.26-.698-16.837.421 1.701.236m21.601.648c3.436.435 6.01 2.33 9.032 3.77m7.462 8.187c1.72 2.932 3.857 4.217 6.153 6.363m6.676 5.125c2.236 3.614 5.796 5.532 8.902 8.188m10.866 9.602c3.29 1.742 4.25 3.94 5.89 6.892m5.106 7.187c1.434 2.374 3.15 4.3 4.451 6.716m6.022 6.715c2.758 4.312 1.286 2.927 3.666 4.83"/><path style="fill:none;stroke:#de8787;stroke-width:1px;stroke-linecap:butt;stroke-linejoin:miter;stroke-opacity:1" d="M400.471 260.393c.175 1.237.2 2.505.524 3.711.232.865 1.393 3.285 1.178 2.416-.278-1.127-1.987-5.61-1.702-6.127 1.974-3.583 6.232-4.076 9.688-4.595"/><path style="fill:none;stroke:#abc837;stroke-width:1px;stroke-linecap:butt;stroke-linejoin:miter;stroke-opacity:1" d="M5.53 598.066c.48 1.649.916 3.312 1.44 4.948 2.533 7.919 3.18 8.553 4.974 1.414.47-1.872 1.215-5.785 1.048-6.54m-4.059-8.482c1.264-2.442 2.677-4.752 4.975-6.303m3.534-8.07c2.385-3.472 1.208-2.416 2.88-3.77m5.63-4.301 3.272-2.415.131-.118m9.557-7.599c2.703-2.492 2.3-3.063 4.712-3.063m9.033-3.829c3.173-1.987 1.931-1.4 3.535-2.12m5.891-3.771c2.066-1.375 4.242-3.685 6.938-3.888m8.771-4.418 3.534-2.003.393-.059m.786-2.709c1.183-2.755 8.415-2.188 9.818-4.713.938-1.689-6.724-1.066-4.975-1.59 10.868-3.261-.361 10.94 4.582 4.064m10.604-22.149c.204-3.65.144 11.075 1.047 7.422.624-2.526-1.116-4.958-1.047-7.422.186-6.677 4.253-5.884 9.425-5.302.627.07-1.222.313-1.832.471-2.404.624-4.773.598-7.07.943-.425.064.6.755.524 1.178-.17.953-1.703 1.997-1.047 2.71 1.307 1.42 3.78 1.91 5.629 1.355.869-.261-6.41-.934-5.63-1.355 1.581-.854 3.579.314 5.368.471m12.306 5.537c4.297.74 6.78 3.455 9.949 5.95m6.152 4.36a72.625 72.625 0 0 0 5.499 6.185m7.2 6.656c3.7 2.946 2.403 1.66 4.189 3.535m7.724 9.189c.97 2.851 2.707 3.986 4.712 5.891m7.07 10.486 3.272 3.593m6.022 7.658 2.88 4.241m4.844 3.476c-.991.02 7.305 8.247 5.76 8.247-1.213 0-4.473-1.77-3.273-1.59 1.2.18 2.37 1.202 3.665 1.119 2.05-.132 1.769-4.588 4.451-4.89m8.247 20.147c.688 4.673-2.902 9.567-1.701 4.477.367-1.554 1.436-2.903 1.702-4.477.347-2.06-1.091-4.709.785-6.539.694-.677 9.898-1.404 6.807 2.769"/><path style="fill:none;stroke:#abc837;stroke-width:1px;stroke-linecap:butt;stroke-linejoin:miter;stroke-opacity:1" d="m208.57 608.492 3.142.06h.393c-12.151-.229 11.039-.59.917-.59m269.412-19.204c-.111-1.982-4.355-4.716-3.273-6.42m-6.021-7.423c.68-1.012-7.017-5.216-7.462-6.244-.207-.476.96-.393 1.44-.59m-7.331-8.895c.48-2.699-3.185-3.001-4.059-4.771m-4.843-8.483c-2.96-2.16-5.578-4.717-8.379-7.069m-9.818-11.251c-1.571-2.028-10.025-3.327-9.556-6.068m-10.08-6.126c-3.672-.293-5.871-2.159-8.248-4.654-.454-.477-1.297-1.998-1.44-1.355-.306 1.38-.13 2.893-.13 4.3v1.473c0-4.164-1.01-5.789 3.272-5.89 3.019-.072 5.287-.082 8.379.353m71.28 96.168c.305 1.708.53 3.433.916 5.125 2.426 10.604 5.948-5.636 8.379-6.657.416-.175.872.236 1.309.353M377.248 501.487c-.234 2.453.262 4.81.262 7.246 0 1.181-.235-2.354-.262-3.535-.067-2.998-.13-6.5-.13-9.366 0-.628 10.734-.206 11.912-.471.9-.203-1.828-.255-2.75-.295-2.226-.098-4.452.007-6.676-.118-.106-.006-2.039-.328-2.094-.118-.309 1.181.035 2.305 0 3.476-.032 1.063-1.14 2.579-.262 3.181.05.034 8.014 1.116 9.164-.177.353-.397-9.47.14-9.164.177 5.751.706 13.883 0 0 0zm-14.531 3.123c-2.022.455-5.718.798-6.807 3.003m-5.106 3.535c-1.76.633-17.514 6.221-6.807 5.714m-11.127 6.126c-3.858.413-6.787 2.956-9.295 5.714m-10.08 7.188c-3.048 2.45-6.464 4.234-9.164 7.068m-9.425 10.014c-.418 2.682-3.404 4.256-3.404 6.893m-4.582 10.78c-1.54 3.61-1.394 6.343-.654 9.837m-.916 8.718c-.898 3.002-.103 6.22-.524 9.25-.362 2.603-3.928-2.014-3.928-1.827 0 1.821 4.922 3.649 6.153 2.356 1.022-1.072 2.318-7.292 3.404-3.71m-8.247 16.493c-1.337.48 1.047 9.575 1.047 9.308 0-3.037-3.32-17.281 4.843-13.608 1.326.597-5.963 1.176-6.021 1.296-.438.902.13 2.002.13 3.004 0 1.297-.13 2.592-.13 3.888 0 .157 5.36-.14 6.021-.883 1.094-1.23-12.14 1.004-2.88-1.179"/></svg>