<svg width="532.89" height="225.89" xml:space="preserve" xmlns="http://www.w3.org/2000/svg"><defs><clipPath id="a"><path d="M0 0h595v841H0z"/></clipPath></defs><g clip-path="url(#a)" fill="none" stroke-linecap="round" stroke-linejoin="round" stroke-miterlimit="10" transform="translate(-73.914 -25.317) scale(1.3333)"><g stroke="#000"><path d="M84.156 28.645v155.37" stroke-width=".85"/><path d="M84.379 113.59h89.301" stroke-width=".937"/><path d="m171.21 111.92.363.074" stroke-width=".824"/><path d="m171.57 112 .285.109" stroke-width=".833"/><path d="m171.86 112.1.282.11" stroke-width=".838"/><path d="m172.14 112.22.324.219m-.004-.009.242.179" stroke-width=".843"/><path d="m172.7 112.61.246.184m.004.006.281.183m-.001-.003.489.29" stroke-width=".845"/><path d="m173.72 113.27.324.218" stroke-width=".846"/><path d="m174.04 113.49.203.293" stroke-width=".897"/><path d="m174.25 113.78-.125.438" stroke-width=".947"/><path d="m174.12 114.22-.199.472" stroke-width=".948"/><path d="m173.92 114.69-.164.258" stroke-width=".953"/><path d="m173.76 114.95-.281.508" stroke-width=".958"/><path d="m173.48 115.46-.247.477" stroke-width=".962"/><path d="m173.23 115.93-.242.398" stroke-width=".964"/><path d="m172.99 116.33-.203.367" stroke-width=".97"/><path d="m172.78 116.7-.324.254" stroke-width=".971"/><path d="M172.46 116.95h-.363" stroke-width=".739"/><path d="m172.1 116.95-.325-.035" stroke-width=".114"/><path d="m177.65 119.07-.039.438" stroke-width=".795"/><path d="m177.61 119.51-.043.398" stroke-width=".815"/><path d="M177.57 119.91v.438" stroke-width=".828"/><path d="M177.57 120.34v.511" stroke-width=".841"/><path d="m177.57 120.86-.039.622" stroke-width=".847"/><path d="M177.53 121.48v.617" stroke-width=".849"/><path d="M177.53 122.09v.621m0 .009v.656" stroke-width=".852"/><path d="M177.53 123.37v.582m0-.002.039.547m.001.003.164.512" stroke-width=".854"/><path d="m177.73 125.01.161.476m-.001.004.242.399" stroke-width=".855"/><path d="m178.13 125.89.203.293" stroke-width=".853"/><path d="m178.34 126.18.324.293" stroke-width=".841"/><path d="m178.66 126.47.324.035" stroke-width=".838"/><path d="m178.98 126.51.528-.184" stroke-width=".837"/><path d="m179.51 126.32.285-.219" stroke-width=".817"/><path d="m179.8 126.1.281-.253" stroke-width=".785"/><path d="m180.08 125.85.285-.254" stroke-width=".748"/><path d="m180.36 125.6.242-.328" stroke-width=".69"/><path d="m180.6 125.27.165-.258" stroke-width=".623"/><path d="m180.77 125.01.16-.289" stroke-width=".467"/><path d="m180.93 124.72.082-.293" stroke-width=".215"/><path d="m176.51 123.08.406-.254" stroke-width=".722"/><path d="M176.92 122.82h.488" stroke-width=".735"/><path d="M177.41 122.82h.567" stroke-width=".738"/><path d="M177.97 122.82h.648m.002 0 .688.074" stroke-width=".74"/><path d="m179.31 122.9.73.071" stroke-width=".69"/><path d="m180.04 122.97.688.109" stroke-width=".577"/><path d="m180.73 123.08.425-.016" stroke-width=".375"/><path d="m181.15 123.06.426-.019" stroke-width=".172"/><path d="m181.58 123.04.688-.035" stroke-width=".07"/><path d="m80.281 32.574.449-.144" stroke-width=".822"/><path d="m80.73 32.43.282-.293" stroke-width=".845"/><path d="m81.012 32.137.324-.403" stroke-width=".859"/><path d="m81.336 31.734.164-.254" stroke-width=".863"/><path d="m81.5 31.48.16-.253" stroke-width=".866"/><path d="m81.66 31.227.164-.293" stroke-width=".877"/><path d="m81.824 30.934.16-.329" stroke-width=".883"/><path d="m81.984 30.605.164-.257" stroke-width=".888"/><path d="m82.148 30.348.243-.473" stroke-width=".899"/><path d="m82.391 29.875.16-.293" stroke-width=".903"/><path d="m82.551 29.582.164-.254" stroke-width=".907"/><path d="m82.715 29.328.242-.328m0 0 .285-.254" stroke-width=".91"/><path d="m83.242 28.746.324-.258" stroke-width=".918"/><path d="m83.566 28.488.2.293" stroke-width=".922"/><path d="m83.766 28.781.246.364" stroke-width=".923"/><path d="m84.012 29.145.281.328m0 0 .324.437" stroke-width=".927"/><path d="m84.617 29.91.285.438m0 0 .243.437m0 0 .242.477m0 0 .285.328" stroke-width=".93"/><path d="m85.672 31.59.285.219" stroke-width=".932"/><path d="m85.957 31.809.324.328" stroke-width=".931"/><path d="m86.281 32.137.242.183" stroke-width=".889"/><path d="m86.523 32.32.161.473" stroke-width=".487"/><path d="M74.207 26.375h-.367" stroke-width=".854"/><path d="M73.84 26.375h.324" stroke-width=".857"/><path d="m74.164 26.375.648.109" stroke-width=".858"/><path d="m74.812 26.484.364.184m0 0 .406.144m0 0 .324.219m0 0 .285.219m0 0 .204.254m0 0 .16.328M76.555 27.832l.121.293m0 0v.402" stroke-width=".86"/><path d="m76.676 28.527-.039.364m0 0-.121.328m0 0-.164.363" stroke-width=".861"/><path d="m76.352 29.582-.282.258m0 0-.367.289" stroke-width=".863"/><path d="m75.703 30.129-.324.183m0 0-.402.219m0 0-.325.219" stroke-width=".864"/><path d="m74.652 30.75-.285.109" stroke-width=".863"/><path d="m74.367 30.859-.406.219" stroke-width=".798"/><path d="m78.742 25.754-.402-.07" stroke-width=".766"/><path d="m78.34 25.684-.367.254" stroke-width=".79"/><path d="m77.973 25.938-.243.253" stroke-width=".8"/><path d="m77.73 26.191-.285.368" stroke-width=".811"/><path d="m77.445 26.559-.242.398" stroke-width=".819"/><path d="m77.203 26.957-.285.477" stroke-width=".831"/><path d="m76.918 27.434-.16.507m0 0-.164.512" stroke-width=".837"/><path d="m76.594 28.453-.078.473m0 0-.043.437m0 0 .082.367M76.555 29.73l.082.29" stroke-width=".84"/><path d="m76.637 30.02.281.257" stroke-width=".836"/><path d="m76.918 30.277.367.18" stroke-width=".835"/><path d="m77.285 30.457.406.148" stroke-width=".829"/><path d="m77.691 30.605.485.11" stroke-width=".818"/><path d="M78.176 30.715h.445" stroke-width=".794"/><path d="m78.621 30.715.445-.039" stroke-width=".763"/><path d="m79.066 30.676.407-.071" stroke-width=".717"/><path d="m79.473 30.605.324-.109" stroke-width=".654"/><path d="m79.797 30.496.484-.328" stroke-width=".427"/><path d="M74.363 28.152h3.399" stroke-width=".718"/><path d="M212.62 28.434v155.79" stroke-width=".85"/><path d="M212.84 113.38h89.305" stroke-width=".937"/><path d="m299.67 111.71.367.074" stroke-width=".824"/><path d="m300.04 111.78.281.11" stroke-width=".833"/><path d="m300.32 111.9.286.109" stroke-width=".838"/><path d="m300.6 112 .324.219m.006.001.242.179" stroke-width=".843"/><path d="m301.17 112.4.242.184m-.002.006.285.184m.005-.004.485.289" stroke-width=".845"/><path d="m302.18 113.06.324.218" stroke-width=".846"/><path d="m302.5 113.28.203.293" stroke-width=".897"/><path d="m302.71 113.57-.121.438" stroke-width=".947"/><path d="m302.59 114.01-.203.472" stroke-width=".948"/><path d="m302.38 114.48-.16.258" stroke-width=".953"/><path d="m302.22 114.74-.285.508" stroke-width=".958"/><path d="m301.94 115.25-.243.477" stroke-width=".962"/><path d="m301.7 115.72-.242.398" stroke-width=".964"/><path d="m301.45 116.12-.203.367" stroke-width=".97"/><path d="m301.25 116.49-.324.254" stroke-width=".971"/><path d="M300.93 116.74h-.364" stroke-width=".739"/><path d="m300.56 116.74-.324-.035" stroke-width=".114"/><path d="m306.11 118.86-.043.438" stroke-width=".795"/><path d="m306.07 119.3-.039.398" stroke-width=".815"/><path d="M306.03 119.7v.438" stroke-width=".828"/><path d="M306.03 120.13v.512" stroke-width=".841"/><path d="m306.03 120.64-.043.621" stroke-width=".847"/><path d="M305.99 121.27v.617" stroke-width=".849"/><path d="M305.99 121.88v.621m0-.001v.656" stroke-width=".852"/><path d="M305.99 123.16v.586m0 .004.043.547m-.003-.007.16.508" stroke-width=".854"/><path d="m306.19 124.8.164.476m.006.004.243.399" stroke-width=".855"/><path d="m306.6 125.68.203.293" stroke-width=".853"/><path d="m306.8 125.97.324.293" stroke-width=".841"/><path d="m307.12 126.26.324.035" stroke-width=".838"/><path d="m307.45 126.3.528-.184" stroke-width=".837"/><path d="m307.98 126.11.281-.218" stroke-width=".817"/><path d="m308.26 125.9.285-.254" stroke-width=".785"/><path d="m308.54 125.64.285-.254" stroke-width=".748"/><path d="m308.83 125.39.242-.328" stroke-width=".69"/><path d="m309.07 125.06.16-.258" stroke-width=".623"/><path d="m309.23 124.8.165-.289" stroke-width=".467"/><path d="m309.4 124.51.078-.293" stroke-width=".215"/><path d="m304.98 122.87.406-.254" stroke-width=".722"/><path d="M305.38 122.61h.484" stroke-width=".735"/><path d="M305.87 122.61h.571" stroke-width=".738"/><path d="M306.44 122.61h.648m.002 0 .687.075" stroke-width=".74"/><path d="m307.77 122.69.731.07" stroke-width=".69"/><path d="m308.5 122.76.687.109" stroke-width=".577"/><path d="m309.19 122.87.426-.015" stroke-width=".375"/><path d="m309.62 122.85.426-.02" stroke-width=".172"/><path d="m310.04 122.83.687-.035" stroke-width=".07"/><path d="m208.75 32.363.445-.144" stroke-width=".822"/><path d="m209.19 32.219.286-.293" stroke-width=".845"/><path d="m209.48 31.926.324-.403" stroke-width=".859"/><path d="m209.8 31.523.16-.253" stroke-width=".863"/><path d="m209.96 31.27.164-.254" stroke-width=".866"/><path d="m210.12 31.016.16-.293" stroke-width=".877"/><path d="m210.28 30.723.164-.328" stroke-width=".883"/><path d="m210.45 30.395.16-.258" stroke-width=".888"/><path d="m210.61 30.137.243-.473" stroke-width=".899"/><path d="m210.85 29.664.164-.293" stroke-width=".903"/><path d="m211.02 29.371.16-.254" stroke-width=".907"/><path d="m211.18 29.117.246-.328m-.006 0 .281-.254" stroke-width=".91"/><path d="m211.7 28.535.324-.258" stroke-width=".918"/><path d="m212.03 28.277.203.293" stroke-width=".922"/><path d="m212.23 28.57.243.364" stroke-width=".923"/><path d="m212.47 28.934.285.328m.005 0 .324.437" stroke-width=".927"/><path d="m213.08 29.699.285.438m.005 0 .242.441m-.002 0 .243.473m-.003 0 .285.328" stroke-width=".93"/><path d="m214.14 31.379.281.219" stroke-width=".932"/><path d="m214.42 31.598.324.328" stroke-width=".931"/><path d="m214.74 31.926.242.183" stroke-width=".889"/><path d="m214.98 32.109.164.473" stroke-width=".487"/><path d="M340.09 28.105v155.14" stroke-width=".85"/><path d="M340.31 113.05h89.301" stroke-width=".937"/><path d="m427.14 111.38.363.074" stroke-width=".824"/><path d="m427.5 111.46.285.109" stroke-width=".833"/><path d="m427.79 111.57.281.11" stroke-width=".838"/><path d="m428.07 111.68.325.219m.005.001.242.179" stroke-width=".843"/><path d="m428.64 112.07.246.184m-.006.006.281.183m-.001-.003.488.289" stroke-width=".845"/><path d="m429.65 112.73.325.219" stroke-width=".846"/><path d="m429.98 112.95.203.293" stroke-width=".897"/><path d="m430.18 113.24-.121.438" stroke-width=".947"/><path d="m430.06 113.68-.204.472" stroke-width=".948"/><path d="m429.86 114.15-.164.258" stroke-width=".953"/><path d="m429.69 114.41-.281.508" stroke-width=".958"/><path d="m429.41 114.92-.246.477" stroke-width=".962"/><path d="m429.16 115.4-.242.398" stroke-width=".964"/><path d="m428.92 115.79-.203.367" stroke-width=".97"/><path d="m428.72 116.16-.324.254" stroke-width=".971"/><path d="M428.4 116.41h-.364" stroke-width=".739"/><path d="m428.03 116.41-.324-.035" stroke-width=".114"/><path d="m433.58 118.53-.039.438" stroke-width=".795"/><path d="m433.54 118.97-.043.398" stroke-width=".815"/><path d="M433.5 119.37v.438" stroke-width=".828"/><path d="M433.5 119.8v.511" stroke-width=".841"/><path d="m433.5 120.32-.039.622" stroke-width=".847"/><path d="M433.46 120.94v.617" stroke-width=".849"/><path d="M433.46 121.56v.621m0-.001v.656" stroke-width=".852"/><path d="M433.46 122.83v.582m0-.002.039.551m.001-.001.164.508" stroke-width=".854"/><path d="m433.66 124.47.16.476m0 .004.242.399" stroke-width=".855"/><path d="m434.07 125.35.204.293" stroke-width=".853"/><path d="m434.27 125.64.324.293" stroke-width=".841"/><path d="m434.59 125.93.324.035" stroke-width=".838"/><path d="m434.92 125.97.527-.184" stroke-width=".837"/><path d="m435.44 125.78.285-.219" stroke-width=".817"/><path d="m435.73 125.57.282-.254" stroke-width=".785"/><path d="m436.01 125.31.285-.253" stroke-width=".748"/><path d="m436.3 125.06.242-.329" stroke-width=".69"/><path d="m436.54 124.73.164-.257" stroke-width=".623"/><path d="m436.7 124.47.16-.289" stroke-width=".467"/><path d="m436.86 124.18.082-.293" stroke-width=".215"/><path d="m432.45 122.54.403-.254" stroke-width=".722"/><path d="M432.85 122.28h.488" stroke-width=".735"/><path d="M433.34 122.28h.566" stroke-width=".738"/><path d="M433.91 122.28h.649m.001 0 .687.074" stroke-width=".74"/><path d="m435.24 122.36.731.071" stroke-width=".69"/><path d="m435.97 122.43.687.109" stroke-width=".577"/><path d="m436.66 122.54.426-.016" stroke-width=".375"/><path d="m437.09 122.52.426-.019" stroke-width=".172"/><path d="m437.51 122.5.687-.035" stroke-width=".07"/><path d="m336.22 32.035.449-.144" stroke-width=".822"/><path d="m336.66 31.891.281-.293" stroke-width=".845"/><path d="m336.94 31.598.325-.403" stroke-width=".859"/><path d="m337.27 31.195.164-.254" stroke-width=".863"/><path d="m337.43 30.941.16-.253" stroke-width=".866"/><path d="m337.59 30.688.164-.293" stroke-width=".877"/><path d="m337.76 30.395.16-.329" stroke-width=".883"/><path d="m337.92 30.066.164-.257" stroke-width=".888"/><path d="m338.08 29.809.242-.473" stroke-width=".899"/><path d="m338.32 29.336.16-.293" stroke-width=".903"/><path d="m338.48 29.043.164-.254" stroke-width=".907"/><path d="m338.65 28.789.243-.328m-.003 0 .285-.254" stroke-width=".91"/><path d="m339.18 28.207.324-.258" stroke-width=".918"/><path d="m339.5 27.949.199.293" stroke-width=".922"/><path d="m339.7 28.242.246.363" stroke-width=".923"/><path d="m339.94 28.605.282.329m.008 0 .324.437" stroke-width=".927"/><path d="m340.55 29.371.285.438m.005 0 .242.437m-.002 0 .242.477m-.002 0 .285.328" stroke-width=".93"/><path d="m341.6 31.051.286.219" stroke-width=".932"/><path d="m341.89 31.27.324.328" stroke-width=".931"/><path d="m342.22 31.598.242.183" stroke-width=".889"/><path d="m342.46 31.781.16.473" stroke-width=".487"/><path d="m202.41 25.098.121.402" stroke-width=".751"/><path d="m202.53 25.5.203.363" stroke-width=".774"/><path d="m202.73 25.863.243.512" stroke-width=".796"/><path d="m202.97 26.375.324.512" stroke-width=".821"/><path d="m203.3 26.887.242.547" stroke-width=".84"/><path d="m203.54 27.434.203.546" stroke-width=".854"/><path d="m203.74 27.98.242.508" stroke-width=".864"/><path d="m203.98 28.488.164.438" stroke-width=".87"/><path d="m204.15 28.926.122.402" stroke-width=".882"/><path d="m204.27 29.328.121.293" stroke-width=".887"/><path d="m204.39 29.621.082.438" stroke-width=".895"/><path d="m204.47 30.059.121.437" stroke-width=".898"/><path d="m204.59 30.496.121.363" stroke-width=".901"/><path d="m204.72 30.859.281-.254" stroke-width=".945"/><path d="m205 30.605.367-.476" stroke-width=".948"/><path d="m205.36 30.129.242-.399m-.002 0 .325-.476m.005 0 .285-.547m.005 0 .281-.547" stroke-width=".951"/><path d="m206.5 28.16.203-.547m-.003 0 .121-.508m-.001 0 .121-.476m-.001 0v-.399" stroke-width=".952"/><path d="m206.94 26.23.043-.367" stroke-width=".956"/><path d="M206.98 25.863v-.508m0 0v-.328" stroke-width=".955"/><path d="m206.98 25.027.078-.293" stroke-width=".934"/><path d="m331.09 24.625-.121-.363" stroke-width=".874"/><path d="m330.97 24.262-.242-.293" stroke-width=".912"/><path d="m330.73 23.969-.407-.328" stroke-width=".948"/><path d="m330.32 23.641-.324-.149" stroke-width=".964"/><path d="m330 23.492-.285-.109" stroke-width=".984"/><path d="m329.71 23.383-.402-.11" stroke-width=".992"/><path d="m329.31 23.273-.407-.035" stroke-width=".996"/><path d="M328.9 23.238h-.363m.003 0-.406.035m-.004 0-.285.149" stroke-width="1.001"/><path d="m327.85 23.422-.403.398m-.007 0-.164.368m.004 0-.121.363" stroke-width="1.003"/><path d="m327.16 24.551-.082.511m.002 0-.039.512m-.001 0v.582" stroke-width="1.002"/><path d="m327.04 26.156.121.582" stroke-width="1.001"/><path d="m327.16 26.738.203.547" stroke-width=".998"/><path d="m327.36 27.285.282.512" stroke-width=".99"/><path d="m327.64 27.797.367.402" stroke-width=".985"/><path d="m328.01 28.199.242.289" stroke-width=".975"/><path d="m328.25 28.488.285.219" stroke-width=".965"/><path d="m328.54 28.707.445.148" stroke-width=".963"/><path d="m328.98 28.855.364-.183" stroke-width=".974"/><path d="m329.35 28.672.242-.219" stroke-width=".978"/><path d="m329.59 28.453.121-.328" stroke-width=".987"/><path d="m329.71 28.125.164-.363m.006 0 .16-.367m0 0 .125-.438" stroke-width=".99"/><path d="m330.16 26.957.078-.437m.002 0 .121-.438m-.001 0 .125-.398m-.005 0 .121-.403" stroke-width=".992"/><path d="m330.6 25.281.122-.293m.008 0 .121-.289m-.001 0 .121-.328" stroke-width=".993"/><path d="m330.97 24.371.121.289" stroke-width=".996"/><path d="m331.09 24.66.164.328m-.004 0 .203.367m.007 0 .242.399" stroke-width=".997"/><path d="m331.7 25.754.281.402m-.001 0 .247.364"/><path d="m332.23 26.52.242.292m-.002 0 .242.254" stroke-width=".996"/><path d="m332.71 27.066.445.329m.005 0 .406.148" stroke-width=".997"/><path d="m333.56 27.543.446.035" stroke-width=".999"/><path d="m334.01 27.578.527-.035" stroke-width=".983"/><path d="m334.54 27.543.485-.039" stroke-width=".692"/></g><g stroke="#00c0ff"><path d="m85.145 113.02 14.871-27.532" stroke-width=".837"/><path d="M213.51 56.191h12.879" stroke-width=".955"/><path d="M340.37 113h13.594" stroke-width=".994"/><path d="M99.922 112.81V85.708" stroke-dasharray="0.5, 3" stroke-width=".883"/><path d="M227.23 57.227v53.777" stroke-dasharray="0.5, 3" stroke-width=".875"/></g><g stroke="#0f0"><path d="m99.73 86.215-.16-.328" stroke-width=".633"/><path d="m99.57 85.887.121-.367" stroke-width=".665"/><path d="m99.691 85.52.161-.364" stroke-width=".679"/><path d="m99.852 85.156.367-.437" stroke-width=".697"/><path d="m100.22 84.719.242-.219" stroke-width=".719"/><path d="m100.46 84.5.203-.293" stroke-width=".738"/><path d="m100.66 84.207.242-.363" stroke-width=".76"/><path d="m100.91 83.844.324-.364" stroke-width=".774"/><path d="m101.23 83.48.286-.402" stroke-width=".782"/><path d="m101.52 83.078.363-.437" stroke-width=".79"/><path d="m101.88 82.641.363-.403" stroke-width=".795"/><path d="m102.24 82.238.367-.437" stroke-width=".797"/><path d="m102.61 81.801.403-.438" stroke-width=".802"/><path d="m103.01 81.363.449-.402m.001 0 .484-.438" stroke-width=".804"/><path d="m103.94 80.523.489-.437m.001 0 .484-.398" stroke-width=".806"/><path d="m104.92 79.688.445-.403m-.005 0 .489-.402m.001 0 .484-.399m.006 0 .445-.402M106.78 78.082l.489-.437m.001 0 .484-.403m-.004 0 .527-.437m.003 0 .485-.399" stroke-width=".808"/><path d="m108.77 76.406.445-.367m-.005 0 .406-.289m.004 0 .406-.293m-.006 0 .286-.219m.004 0 .324-.218m-.004 0 .242-.219m.008 0 .242-.219m-.002 0 .242-.184" stroke-width=".81"/><path d="m111.36 74.398.286-.218m-.006 0 .281-.219" stroke-width=".812"/><path d="m111.93 73.961.324-.219m-.004 0 .406-.254m.004 0 .406-.258M113.06 73.23l.407-.289m.003 0 .445-.257" stroke-width=".808"/><path d="m113.91 72.684.484-.329" stroke-width=".81"/><path d="m114.4 72.355.446-.253m-.006 0 .445-.293" stroke-width=".811"/><path d="m115.29 71.809.367-.219m.003 0 .324-.219m-.004 0 .325-.219m-.005 0 .445-.289" stroke-width=".809"/><path d="m116.75 70.863.445-.258M117.2 70.605l.528-.253m-.008 0 .324-.145m.006 0 .363-.184m-.003 0 .406-.183" stroke-width=".811"/><path d="m118.82 69.84.407-.219" stroke-width=".81"/><path d="m119.22 69.621.402-.254" stroke-width=".811"/><path d="m119.62 69.367.406-.219m.004 0 .407-.183" stroke-width=".812"/><path d="m120.44 68.965.402-.18m-.002 0 .406-.219m.004 0 .406-.183m-.006 0 .407-.145m.003 0 .402-.218M122.46 68.02l.367-.149m.003 0 .363-.144m-.003 0 .325-.145" stroke-width=".811"/><path d="m123.52 67.582.363-.148m-.003 0 .367-.11" stroke-width=".809"/><path d="m124.25 67.324.324-.179m-.004 0 .364-.184m-.004 0 .324-.184" stroke-width=".81"/><path d="m125.26 66.777.363-.218" stroke-width=".811"/><path d="m125.62 66.559.367-.145m.003 0 .282-.148m-.002 0 .324-.145m-.004 0 .527-.219" stroke-width=".812"/><path d="m127.12 65.902.488-.218m.002 0 .325-.11" stroke-width=".811"/><path d="m127.93 65.574.281-.183m.009 0 .406-.18m-.006 0 .324-.219m-.004 0 .325-.183m.005 0 .324-.184M129.59 64.625l.445-.254" stroke-width=".812"/><path d="m130.04 64.371.406-.219m-.006 0 .446-.218" stroke-width=".814"/><path d="m130.89 63.934.484-.219" stroke-width=".846"/><path d="m131.38 63.715.488-.293m-.008 0 .242-.18" stroke-width=".858"/><path d="m132.1 63.242.325-.183m.005 0 .363-.219m-.003 0 .367-.145m.003 0 .402-.148M133.56 62.547l.407-.18m.003 0 .406-.109m.004 0 .406-.149m-.006 0 .403-.144" stroke-width=".861"/><path d="m135.18 61.965.285-.145m.005 0 .324-.148" stroke-width=".864"/><path d="m135.79 61.672.406-.18" stroke-width=".861"/><path d="m136.2 61.492.403-.148m-.003 0 .449-.145" stroke-width=".862"/><path d="m137.05 61.199.484-.183m.006 0 .285-.11m-.005 0 .282-.109m-.002 0 .285-.109m.005 0 .281-.145m-.001 0 .285-.109" stroke-width=".864"/><path d="m138.95 60.434.485-.219" stroke-width=".865"/><path d="m139.44 60.215.367-.145m-.007 0 .363-.109" stroke-width=".863"/><path d="m140.17 59.961.406-.149" stroke-width=".864"/><path d="m140.57 59.812.61-.144m0 0 .32-.074" stroke-width=".865"/><path d="m141.5 59.594.324-.11m.006 0 .285-.109m-.005 0 .285-.109M142.4 59.266l.403-.145" stroke-width=".863"/><path d="m142.8 59.121.367-.109m.003 0 .402-.11" stroke-width=".864"/><path d="m143.57 58.902.45-.109m0 0 .324-.074m-.004 0 .566-.145" stroke-width=".863"/><path d="m144.91 58.574.528-.148" stroke-width=".864"/><path d="m145.44 58.426.445-.145m-.005 0 .324-.109" stroke-width=".863"/><path d="m146.21 58.172.402-.074" stroke-width=".864"/><path d="m146.61 58.098.407-.11m.003 0 .406-.035" stroke-width=".863"/><path d="m147.42 57.953.445-.109" stroke-width=".865"/><path d="m147.87 57.844.324-.074" stroke-width=".864"/><path d="m148.19 57.77.325-.071" stroke-width=".865"/><path d="m148.52 57.699.324-.074" stroke-width=".864"/><path d="m148.84 57.625.363-.074m-.003 0 .367-.035" stroke-width=".863"/><path d="m149.57 57.516.403-.036" stroke-width=".864"/><path d="m149.97 57.48.527-.039m.003 0 .445-.035" stroke-width=".863"/><path d="m150.94 57.406.325-.074" stroke-width=".864"/><path d="M151.27 57.332h.406" stroke-width=".862"/><path d="m151.68 57.332.527-.035" stroke-width=".861"/><path d="M152.2 57.297h.324" stroke-width=".86"/><path d="M152.53 57.297h.407" stroke-width=".859"/><path d="m152.93 57.297.402-.035m.008 0h.324" stroke-width=".858"/><path d="m153.66 57.262.406-.039" stroke-width=".856"/><path d="M154.07 57.223h.325m-.005 0 .324-.071m.006 0 .406-.039m-.006 0 .402-.07" stroke-width=".855"/><path d="m155.52 57.043.407-.074" stroke-width=".852"/><path d="M155.93 56.969h.445" stroke-width=".849"/><path d="M156.38 56.969h.367" stroke-width=".848"/><path d="m156.74 56.969.281.183" stroke-width=".07"/><path d="m226.31 57.188 57.336 55.39" stroke-width=".786"/><path d="M353.54 156.89h57.492" stroke-width=".954"/><g stroke-dasharray="0.5, 3"><path d="M156.45 113.71V57.3" stroke-width=".88"/><path d="M411.84 156.52v-42.422" stroke-width=".907"/><path d="M354.1 155.68v-42.227" stroke-width=".89"/></g></g><g stroke="#00c0ff"><path d="m94.301 122.17.406-.074" stroke-width=".85"/><path d="m94.707 122.09.285-.145" stroke-width=".857"/><path d="m94.992 121.95.281-.109" stroke-width=".861"/><path d="m95.273 121.84.286-.254" stroke-width=".864"/><path d="m95.559 121.59.324-.258m0-.002.242-.254" stroke-width=".866"/><path d="m96.125 121.07.285-.293m0 .003.324-.328" stroke-width=".869"/><path d="m96.734 120.45.204.402" stroke-width=".895"/><path d="m96.938 120.86.039.438" stroke-width=".901"/><path d="m96.977 121.29.039.582" stroke-width=".906"/><path d="m97.016 121.88.043.656" stroke-width=".909"/><path d="m97.059 122.53.039.766m0 .004v.805m0-.005v.8" stroke-width=".911"/><path d="M97.098 124.9v.766" stroke-width=".901"/><path d="M97.098 125.67v.656" stroke-width=".814"/><path d="M97.098 126.32v.586" stroke-width=".514"/><path d="M97.098 126.91v.363" stroke-width=".07"/><path d="m100.54 125.96-.445 3.246" stroke-width=".64"/><path d="m103.34 120.16.488.035" stroke-width=".785"/><path d="M103.82 120.2h.324m.006 0 .364.035" stroke-width=".791"/><path d="m104.51 120.23.367-.035" stroke-width=".777"/><path d="m104.88 120.2.363-.035" stroke-width=".708"/><path d="m105.24 120.16.485-.258" stroke-width=".521"/><path d="m105.73 119.91.367-.218" stroke-width=".07"/><path d="m104.27 120.02-.082.367" stroke-width=".679"/><path d="M104.19 120.38v.547" stroke-width=".733"/><path d="M104.19 120.93v.508" stroke-width=".745"/><path d="m104.19 121.44.121.367" stroke-width=".751"/><path d="m104.31 121.8.164.363m-.004.007.281.219" stroke-width=".758"/><path d="m104.75 122.39.367.109" stroke-width=".717"/><path d="m105.12 122.5.527.035" stroke-width=".698"/><path d="m105.65 122.53.528.039m.002.001.402.219" stroke-width=".693"/><path d="m106.58 122.79.242.473" stroke-width=".698"/><path d="m106.82 123.26.082.363" stroke-width=".707"/><path d="m106.9 123.62.043.402m-.003.008v.438m0-.008v.437" stroke-width=".714"/><path d="m106.94 124.9-.082.403" stroke-width=".721"/><path d="m106.86 125.3-.164.293" stroke-width=".742"/><path d="m106.7 125.6-.445.363" stroke-width=".817"/><path d="m106.25 125.96-.402.109" stroke-width=".85"/><path d="m105.85 126.07-.407.075m-.003-.005-.488.07" stroke-width=".864"/><path d="m104.96 126.22-.445.039" stroke-width=".822"/><path d="M104.51 126.25h-.446" stroke-width=".623"/><path d="m222.95 121.59.446-.074" stroke-width=".77"/><path d="m223.4 121.51.363-.219" stroke-width=".804"/><path d="m223.76 121.29.363-.363" stroke-width=".827"/><path d="m224.12 120.93.246-.219" stroke-width=".852"/><path d="m224.37 120.71.16.398" stroke-width=".876"/><path d="m224.53 121.11.082.403m-.002-.003.082.472" stroke-width=".881"/><path d="m224.69 121.98.039.547m.001.003v.621m0-.001v.621" stroke-width=".882"/><path d="m224.73 123.77-.039.618" stroke-width=".865"/><path d="m224.69 124.39-.043.586" stroke-width=".811"/><path d="m224.65 124.98-.039.511" stroke-width=".71"/><path d="m224.61 125.49-.043.508" stroke-width=".475"/><path d="m224.57 126 .043.367" stroke-width=".07"/><path d="m228.62 124.98-.851 4.23" stroke-width=".616"/><path d="m231.13 120.34.281.148" stroke-width=".756"/><path d="m231.41 120.49.449-.074" stroke-width=".76"/><path d="m231.86 120.42.524-.184" stroke-width=".707"/><path d="m232.39 120.23.324-.179" stroke-width=".548"/><path d="m232.71 120.06.324-.149" stroke-width=".07"/><path d="m231.82 120.27-.281.329" stroke-width=".636"/><path d="m231.54 120.6-.203.363" stroke-width=".699"/><path d="m231.34 120.96-.164.473" stroke-width=".746"/><path d="m231.17 121.44-.121.437" stroke-width=".76"/><path d="m231.05 121.88.121.402" stroke-width=".771"/><path d="m231.17 122.28.367.145" stroke-width=".78"/><path d="m231.54 122.42.324.183" stroke-width=".782"/><path d="m231.86 122.6.325.293m.005.007.242.364" stroke-width=".785"/><path d="m232.43 123.26.242.328m-.002.002.16.328" stroke-width=".788"/><path d="m232.83 123.92.043.437" stroke-width=".8"/><path d="m232.88 124.36-.203.477" stroke-width=".824"/><path d="m232.67 124.83-.242.328" stroke-width=".845"/><path d="m232.43 125.16-.285.363" stroke-width=".864"/><path d="m232.14 125.52-.364.403" stroke-width=".881"/><path d="m231.78 125.93-.367.289" stroke-width=".891"/><path d="m231.41 126.22-.324.258m.004-.008-.281.144" stroke-width=".894"/><path d="m230.81 126.62-.407-.035" stroke-width=".619"/><path d="m352.28 100.84.285-.328" stroke-width=".895"/><path d="m352.57 100.51.243-.254" stroke-width=".901"/><path d="m352.81 100.25.242-.219" stroke-width=".906"/><path d="m353.05 100.04.367-.437" stroke-width=".908"/><path d="m353.42 99.598.281-.328" stroke-width=".918"/><path d="M353.7 99.27v.363" stroke-width=".938"/><path d="M353.7 99.633v.402" stroke-width=".947"/><path d="M353.7 100.04v.547" stroke-width=".953"/><path d="m353.7 100.58-.039.617m-.001.003v.731m0-.001-.082.73" stroke-width=".961"/><path d="m353.58 102.66-.039.731m-.001-.001-.082.656m.002.004-.082.582" stroke-width=".962"/><path d="m353.38 104.63-.039.473" stroke-width=".948"/><path d="M353.34 105.1v.367" stroke-width=".894"/><path d="m353.34 105.47.203.328" stroke-width=".442"/><path d="m356.82 103.9-.812 4.231" stroke-width=".738"/><path d="m359.7 99.961 2.149-.363" stroke-width=".797"/><path d="m359.86 100.14-.242.328" stroke-width=".623"/><path d="m359.62 100.47-.164.289" stroke-width=".65"/><path d="m359.45 100.76-.082.293" stroke-width=".66"/><path d="m359.37 101.06.121.437" stroke-width=".668"/><path d="m359.49 101.49.367.254" stroke-width=".672"/><path d="m359.86 101.75.485.184" stroke-width=".68"/><path d="m360.34 101.93.445.144" stroke-width=".682"/><path d="m360.79 102.07.406.11m.004 0 .446.109" stroke-width=".685"/><path d="m361.64 102.29.285.148" stroke-width=".684"/><path d="m361.93 102.44.242.364" stroke-width=".685"/><path d="m362.17 102.8-.039.547" stroke-width=".712"/><path d="m362.13 103.35-.043.328" stroke-width=".743"/><path d="m362.09 103.68-.121.402" stroke-width=".763"/><path d="m361.96 104.08-.16.293" stroke-width=".772"/><path d="m361.8 104.38-.121.289" stroke-width=".781"/><path d="m361.68 104.66-.286.402" stroke-width=".822"/><path d="m361.4 105.07-.406.145" stroke-width=".875"/><path d="M360.99 105.21h-.324" stroke-width=".884"/><path d="m360.67 105.21-.445-.035m-.005.005-.485-.11" stroke-width=".893"/><path d="m359.74 105.07-.488-.144" stroke-width=".889"/><path d="m359.25 104.92-.484-.149" stroke-width=".833"/><path d="m358.77 104.77-.407-.144" stroke-width=".702"/><path d="m358.36 104.63-.406-.035" stroke-width=".07"/></g><g stroke="#0f0"><path d="m152.65 119.4-.203.473" stroke-width=".741"/><path d="m152.44 119.87-.082.328" stroke-width=".754"/><path d="m152.36 120.2-.039.363" stroke-width=".76"/><path d="m152.32 120.56-.039.477" stroke-width=".764"/><path d="M152.28 121.04v.438" stroke-width=".77"/><path d="M152.28 121.48v.507" stroke-width=".778"/><path d="M152.28 121.98v.438" stroke-width=".783"/><path d="m152.28 122.42.039.437" stroke-width=".788"/><path d="m152.32 122.86.039.329" stroke-width=".803"/><path d="m152.36 123.19.082.292" stroke-width=".819"/><path d="m152.44 123.48.082.329" stroke-width=".869"/><path d="m152.53 123.81.282.144m-.002-.004.488.074m.002.006.324.035M153.62 124.06h.363m-.003 0 .368.04" stroke-width=".992"/><path d="M154.35 124.1h.363" stroke-width=".993"/><path d="m154.72 124.1.324-.04" stroke-width=".995"/><path d="m155.04 124.06.609-.035m.001.005h.485" stroke-width=".994"/><path d="M156.13 124.03h.609" stroke-width=".965"/><path d="M156.74 124.03h.324" stroke-width=".914"/><path d="m157.07 124.03.325.035" stroke-width=".806"/><path d="m157.39 124.06.445.184" stroke-width=".566"/><path d="m157.84 124.25.324.145" stroke-width=".07"/><path d="m156.25 121.51-.852 7.293" stroke-width=".717"/><path d="m280.48 119.1-.043.473" stroke-width=".907"/><path d="M280.44 119.58v.367" stroke-width=".92"/><path d="m280.44 119.94.043.547" stroke-width=".931"/><path d="M280.48 120.49v.582" stroke-width=".943"/><path d="m280.48 121.07.039.656m.001.004v.622" stroke-width=".948"/><path d="M280.52 122.35v.582m0-.002v.511m0-.001v.399m0 .001v.402" stroke-width=".953"/><path d="m280.52 124.25.489.109m.001.001.566-.109" stroke-width=".972"/><path d="m281.58 124.25.406-.074m-.006-.006.606-.145" stroke-width=".977"/><path d="m282.59 124.03.527-.109" stroke-width=".974"/><path d="m283.12 123.92.445-.035" stroke-width=".95"/><path d="M283.56 123.88h.364" stroke-width=".807"/><path d="m283.93 123.88.527-.11" stroke-width=".435"/><path d="m284.45 123.77.285-.109" stroke-width=".07"/><path d="m283.77 119.47-1.012 11.195" stroke-width=".701"/><path d="m410.14 99.086-.243.328" stroke-width=".744"/><path d="m409.9 99.414-.039.363" stroke-width=".77"/><path d="M409.86 99.777v.512" stroke-width=".79"/><path d="M409.86 100.29v.547" stroke-width=".814"/><path d="M409.86 100.84v.582" stroke-width=".834"/><path d="M409.86 101.42v.547" stroke-width=".849"/><path d="M409.86 101.96v.476" stroke-width=".867"/><path d="m409.86 102.44.039.364" stroke-width=".879"/><path d="m409.9 102.8.04.328" stroke-width=".892"/><path d="m409.94 103.13.121.402" stroke-width=".948"/><path d="m410.06 103.54.406.184" stroke-width=".969"/><path d="m410.46 103.72.609.07m.001 0h.446" stroke-width=".978"/><path d="M411.52 103.79h.484" stroke-width=".979"/><path d="M412 103.79h.527m.003 0h.528m.002 0h.488m.002 0h.445m-.005 0 .363-.035" stroke-width=".983"/><path d="m414.36 103.75.407-.035" stroke-width=".972"/><path d="m414.76 103.72.078-.328" stroke-width=".07"/><path d="m412.94 100.04-.813 8.422" stroke-width=".725"/></g><g stroke="#ff8000"><path d="M84.797 56.816h71.375" stroke-dasharray="0.5, 3" stroke-width=".959"/><path d="M340.45 156.84h12.36" stroke-dasharray="0.5, 3" stroke-width=".982"/><path d="M59.859 54.113h3.161" stroke-width=".665"/><path d="m59.781 53.797-.164.363" stroke-width=".606"/><path d="m59.617 54.16-.039.328" stroke-width=".646"/><path d="M59.578 54.488v.367" stroke-width=".683"/><path d="M59.578 54.855v.438" stroke-width=".715"/><path d="M59.578 55.293v.437" stroke-width=".744"/><path d="M59.578 55.73v.473" stroke-width=".764"/><path d="M59.578 56.203v.438" stroke-width=".777"/><path d="m59.578 56.641.039.328" stroke-width=".786"/><path d="m59.617 56.969.121.472" stroke-width=".805"/><path d="m59.738 57.441.125.368" stroke-width=".827"/><path d="m59.863 57.809.325.035" stroke-width=".833"/><path d="M60.188 57.844h.363" stroke-width=".835"/><path d="M60.551 57.844h.406m0 0h.523" stroke-width=".837"/><path d="M61.48 57.844h.325" stroke-width=".815"/><path d="m61.805 57.844.609.254m0 0 .203.293" stroke-width=".782"/><path d="m62.617 58.391.203.363m0 0 .16.402" stroke-width=".783"/><path d="m62.98 59.156.043.403" stroke-width=".778"/><path d="m63.023 59.559.039.402" stroke-width=".775"/><path d="m63.062 59.961.04.363" stroke-width=".773"/><path d="m63.102 60.324-.079.547" stroke-width=".775"/><path d="m63.023 60.871-.324.363" stroke-width=".784"/><path d="m62.699 61.234-.57.149" stroke-width=".778"/><path d="m62.129 61.383-.301-.094" stroke-width=".584"/><path d="m61.828 61.289-.305-.09" stroke-width=".39"/><path d="m61.523 61.199-.242-.183" stroke-width=".07"/><path d="m64.441 55.363.403-.218m0 0 .285-.11" stroke-width=".661"/><path d="m65.129 55.035.363-.07m0 0 .57-.149" stroke-width=".665"/><path d="m66.062 54.816.364.075m0 0 .16.328" stroke-width=".653"/><path d="m66.586 55.219.043.328" stroke-width=".655"/><path d="M66.629 55.547v.328" stroke-width=".657"/><path d="m66.629 55.875-.043.402m0 0-.039.364" stroke-width=".658"/><path d="m66.547 56.641-.16.582" stroke-width=".698"/><path d="m66.387 57.223-.285.328" stroke-width=".793"/><path d="m66.102 57.551-.286.148" stroke-width=".877"/><path d="m65.816 57.699-.363.071" stroke-width=".936"/><path d="m65.453 57.77.363-.071" stroke-width=".809"/><path d="m65.816 57.699.407.035" stroke-width=".756"/><path d="m66.223 57.734.285.254" stroke-width=".725"/><path d="m66.508 57.988.242.512" stroke-width=".73"/><path d="m66.75 58.5.039.363" stroke-width=".732"/><path d="m66.789 58.863.043.367m0 0 .039.399" stroke-width=".736"/><path d="m66.871 59.629-.039.402" stroke-width=".74"/><path d="m66.832 60.031-.164.621" stroke-width=".775"/><path d="m66.668 60.652-.363.438" stroke-width=".835"/><path d="m66.305 61.09-.243.183m0 0-.285.11" stroke-width=".844"/><path d="m65.777 61.383-.445.109" stroke-width=".374"/><path d="m69.301 62.875-.688 2.734" stroke-width=".723"/><path d="m72.504 57.77.484-.145" stroke-width=".706"/><path d="m72.988 57.625.285-.184" stroke-width=".719"/><path d="m73.273 57.441.286-.289" stroke-width=".725"/><path d="m73.559 57.152.242-.328" stroke-width=".73"/><path d="m73.801 56.824.242-.293" stroke-width=".735"/><path d="m74.043 56.531.164-.293" stroke-width=".754"/><path d="m74.207 56.238.121-.328" stroke-width=".789"/><path d="m74.328 55.91.039.547" stroke-width=".811"/><path d="M74.367 56.457v.477" stroke-width=".826"/><path d="M74.367 56.934v.582" stroke-width=".856"/><path d="m74.367 57.516-.039.73" stroke-width=".881"/><path d="m74.328 58.246-.043.836" stroke-width=".895"/><path d="m74.285 59.082-.078.84m0 0-.082.805m0 0-.082.691" stroke-width=".898"/><path d="m74.043 61.418-.082.473" stroke-width=".843"/><path d="M73.961 61.891v.437" stroke-width=".07"/><path d="m76.676 54.672.406-.145" stroke-width=".734"/><path d="m77.082 54.527.363-.039" stroke-width=".724"/><path d="m77.445 54.488.446-.035" stroke-width=".691"/><path d="M77.891 54.453h.367" stroke-width=".65"/><path d="M78.258 54.453h.324" stroke-width=".599"/><path d="m78.582 54.453.363.219" stroke-width=".544"/><path d="m78.945 54.672.164.363" stroke-width=".554"/><path d="M79.109 55.035v.477" stroke-width=".594"/><path d="m79.109 55.512-.043.328" stroke-width=".598"/><path d="m79.066 55.84-.203.508" stroke-width=".629"/><path d="m78.863 56.348-.402.402" stroke-width=".728"/><path d="m78.461 56.75-.367.328" stroke-width=".827"/><path d="m78.094 57.078-.324.254" stroke-width=".89"/><path d="m77.77 57.332-.243.184" stroke-width=".923"/><path d="m77.527 57.516.364-.254" stroke-width=".882"/><path d="m77.891 57.262.449-.11" stroke-width=".842"/><path d="m78.34 57.152.523-.039" stroke-width=".772"/><path d="m78.863 57.113.571.11" stroke-width=".7"/><path d="m79.434 57.223.445.367m0 0 .121.328" stroke-width=".691"/><path d="m80 57.918.082.328" stroke-width=".719"/><path d="M80.082 58.246v.438" stroke-width=".766"/><path d="m80.082 58.684-.043.398" stroke-width=".823"/><path d="M80.039 59.082 80 59.52" stroke-width=".874"/><path d="m80 59.52-.164.402" stroke-width=".915"/><path d="m79.836 59.922-.203.367" stroke-width=".944"/><path d="m79.633 60.289-.242.289" stroke-width=".961"/><path d="m79.391 60.578-.243.258m0 0-.242.18" stroke-width=".967"/><path d="m78.906 61.016-.488.293" stroke-width=".739"/><path d="m191.3 56.934.043-.368" stroke-width=".809"/><path d="m191.34 56.566.242-.472" stroke-width=".839"/><path d="m191.59 56.094.121-.328" stroke-width=".853"/><path d="m191.71 55.766.164-.254" stroke-width=".865"/><path d="m191.87 55.512.16-.258" stroke-width=".886"/><path d="m192.03 55.254.121-.328" stroke-width=".917"/><path d="m192.15 54.926.203.547" stroke-width=".952"/><path d="m192.36 55.473.122.511" stroke-width=".963"/><path d="m192.48 55.984.121.547" stroke-width=".972"/><path d="m192.6 56.531.125.621m-.005 0 .078.618" stroke-width=".974"/><path d="m192.8 57.77.043.585m-.003 0 .039.508m.001 0v.403" stroke-width=".978"/><path d="M192.88 59.266v.437" stroke-width=".891"/><path d="m192.88 59.703.285-.144" stroke-width=".07"/><path d="m195.4 54.965.285-.258" stroke-width=".842"/><path d="m195.68 54.707.648-.145" stroke-width=".824"/><path d="m196.33 54.562.363-.074" stroke-width=".803"/><path d="m196.69 54.488.325-.035" stroke-width=".782"/><path d="m197.02 54.453.406.145" stroke-width=".77"/><path d="m197.42 54.598.121.547m-.001 0v.437" stroke-width=".773"/><path d="m197.54 55.582-.121.477m.001 0-.121.507" stroke-width=".775"/><path d="m197.3 56.566-.246.477m.006 0-.243.437" stroke-width=".773"/><path d="m196.81 57.48-.242.329" stroke-width=".774"/><path d="m196.57 57.809-.203.289" stroke-width=".781"/><path d="m196.37 58.098-.324.293" stroke-width=".823"/><path d="m196.04 58.391.203.402" stroke-width=".803"/><path d="m196.25 58.793.324.109" stroke-width=".785"/><path d="m196.57 58.902.446.145" stroke-width=".763"/><path d="m197.02 59.047.445.109" stroke-width=".73"/><path d="m197.46 59.156.445.035" stroke-width=".703"/><path d="m197.91 59.191.367.039" stroke-width=".685"/><path d="m198.27 59.23.325-.039" stroke-width=".655"/><path d="m198.6 59.191.484-.109" stroke-width=".403"/><path d="m203.82 54.09.403.144" stroke-width=".927"/><path d="m204.23 54.234.57.11" stroke-width=".948"/><path d="m204.8 54.344.648.035" stroke-width=".957"/><path d="M205.44 54.379h.364m.006 0h.406" stroke-width=".959"/><path d="m206.22 54.379.605-.035" stroke-width=".955"/><path d="m206.82 54.344.407-.11" stroke-width=".845"/><path d="m207.23 54.234.363-.035" stroke-width=".07"/><path d="m203.46 53.941-.203.329" stroke-width=".798"/><path d="m203.25 54.27-.078.367" stroke-width=".834"/><path d="m203.18 54.637-.043.472" stroke-width=".857"/><path d="m203.13 55.109-.039.512" stroke-width=".867"/><path d="M203.09 55.621v.547" stroke-width=".871"/><path d="m203.09 56.168.039.508" stroke-width=".876"/><path d="m203.13 56.676.082.402" stroke-width=".878"/><path d="m203.22 57.078.121.328" stroke-width=".881"/><path d="m203.34 57.406.203.293" stroke-width=".887"/><path d="M203.54 57.699h.324m-.004 0 .567-.074" stroke-width=".952"/><path d="m204.43 57.625.367-.035" stroke-width=".949"/><path d="M204.8 57.59h.402" stroke-width=".946"/><path d="M205.2 57.59h.367" stroke-width=".941"/><path d="M205.57 57.59h.325" stroke-width=".937"/><path d="m205.89 57.59.281.109" stroke-width=".935"/><path d="m206.17 57.699.324.254" stroke-width=".932"/><path d="m206.5 57.953.121.402" stroke-width=".941"/><path d="M206.62 58.355v.583" stroke-width=".953"/><path d="M206.62 58.938v.328" stroke-width=".956"/><path d="m206.62 59.266-.078.328" stroke-width=".959"/><path d="m206.54 59.594-.285.547" stroke-width=".96"/><path d="m206.25 60.141-.445.402" stroke-width=".964"/><path d="m205.81 60.543-.325.219" stroke-width=".952"/><path d="m205.48 60.762-.648.218" stroke-width=".666"/><path d="m204.84 60.98-.324.036" stroke-width=".07"/><path d="m201.35 59.449-1.5 4.887" stroke-width=".877"/><path d="M319.34 157.14h3.203" stroke-width=".709"/><path d="M326.96 154.49h3.199" stroke-width=".888"/><path d="m328.29 154.66-.484.07" stroke-width=".87"/><path d="m327.81 154.73-.286.149" stroke-width=".902"/><path d="m327.52 154.88-.199.363" stroke-width=".924"/><path d="m327.32 155.24-.082.293" stroke-width=".933"/><path d="m327.24 155.54-.082.328" stroke-width=".939"/><path d="m327.16 155.86-.039.617" stroke-width=".944"/><path d="m327.12 156.48.039.512" stroke-width=".947"/><path d="m327.16 156.99.203.403" stroke-width=".949"/><path d="m327.36 157.4.242.253" stroke-width=".95"/><path d="m327.6 157.65.407.11m.003 0h.363" stroke-width=".953"/><path d="m328.38 157.76.406-.035" stroke-width=".951"/><path d="M328.78 157.72h.407" stroke-width=".936"/><path d="m329.19 157.72.324.144" stroke-width=".925"/><path d="m329.51 157.87.242.473" stroke-width=".924"/><path d="m329.75 158.34.082.367" stroke-width=".925"/><path d="m329.84 158.71.039.363" stroke-width=".934"/><path d="m329.88 159.07-.039.403" stroke-width=".945"/><path d="m329.84 159.47-.043.398" stroke-width=".961"/><path d="m329.79 159.87-.16.367" stroke-width=".97"/><path d="m329.63 160.24-.242.364" stroke-width=".981"/><path d="m329.39 160.6-.325.293m.005.007-.324.253m-.006-.003-.285.219" stroke-width=".99"/><path d="m328.46 161.37-.285.149" stroke-width=".97"/><path d="m328.17 161.52-.445.218" stroke-width=".425"/></g><g stroke="#000"><path d="m66.184 34.469-.368.258" stroke-width=".964"/><path d="m65.816 34.727-.078.328" stroke-width=".977"/><path d="m65.738 35.055-.121.507" stroke-width=".988"/><path d="m65.617 35.562-.082.622" stroke-width=".999"/><path d="m65.535 36.184-.082.73" stroke-width="1.004"/><path d="m65.453 36.914-.082.801" stroke-width="1.006"/><path d="M65.371 37.715v.875M65.371 38.59v.84m0 0 .043.8m0 0 .16.696" stroke-width="1.012"/><path d="m65.574 40.926.164.547" stroke-width="1.003"/><path d="m65.738 41.473.242.398" stroke-width=".978"/><path d="m65.98 41.871.243.219" stroke-width=".903"/><path d="m66.223 42.09.324.039" stroke-width=".695"/><path d="m66.547 42.129.324.035" stroke-width=".487"/><path d="M69.262 39.648v-.511" stroke-width=".717"/><path d="M69.262 39.137v-.328" stroke-width=".748"/><path d="M69.262 38.809v-.329" stroke-width=".772"/><path d="m69.262 38.48.039-.363" stroke-width=".797"/><path d="m69.301 38.117.043-.476" stroke-width=".853"/><path d="m69.344 37.641.039.476m0 0 .043.328m0 0 .039.547" stroke-width=".871"/><path d="m69.465 38.992.039.363" stroke-width=".874"/><path d="m69.504 39.355.121-.328m0 0 .082-.289" stroke-width=".936"/><path d="m69.707 38.738.082-.328m0 0 .242-.551" stroke-width=".935"/><path d="m70.031 37.859.324-.363" stroke-width=".934"/><path d="m70.355 37.496.325-.254" stroke-width=".931"/><path d="m70.68 37.242.406-.148" stroke-width=".92"/><path d="m71.086 37.094.406-.071" stroke-width=".902"/><path d="m71.492 37.023.363.145m0 0 .282.402m0 0 .125.328" stroke-width=".893"/><path d="m72.262 37.898.078.29m0 0 .082.292" stroke-width=".892"/><path d="m72.422 38.48.082.477" stroke-width=".889"/><path d="M72.504 38.957v.328" stroke-width=".888"/><path d="m72.504 39.285-.043.399" stroke-width=".889"/><path d="M72.461 39.684v-.508m0 0 .043-.438m0 0 .16-.367" stroke-width=".901"/><path d="m72.664 38.371.246-.293" stroke-width=".897"/><path d="m72.91 38.078.324-.07" stroke-width=".884"/><path d="m73.234 38.008.403.144" stroke-width=".863"/><path d="m73.637 38.152.285.368" stroke-width=".856"/><path d="m73.922 38.52.16.328" stroke-width=".849"/><path d="m74.082 38.848.082.363" stroke-width=".836"/><path d="m74.164 39.211.082.437" stroke-width=".805"/><path d="m74.246 39.648.121.403" stroke-width=".746"/><path d="m74.367 40.051.039.363" stroke-width=".685"/><path d="m74.406 40.414.082.582" stroke-width=".301"/><path d="m75.703 34.836.285.109" stroke-width=".74"/><path d="m75.988 34.945.446.473" stroke-width=".782"/><path d="m76.434 35.418.242.328" stroke-width=".801"/><path d="m76.676 35.746.242.363" stroke-width=".829"/><path d="m76.918 36.109.203.438" stroke-width=".861"/><path d="m77.121 36.547.164.512" stroke-width=".885"/><path d="m77.285 37.059.121.546" stroke-width=".898"/><path d="m77.406 37.605.039.622" stroke-width=".907"/><path d="m77.445 38.227.043.691m0 0-.043.73" stroke-width=".915"/><path d="m77.445 39.648-.039.657" stroke-width=".899"/><path d="m77.406 40.305-.121.621" stroke-width=".831"/><path d="m77.285 40.926-.242.691" stroke-width=".662"/><path d="m77.043 41.617-.203.473" stroke-width=".07"/><path d="m190.13 32.684-.164.328" stroke-width=".742"/><path d="m189.96 33.012-.082.363" stroke-width=".785"/><path d="m189.88 33.375-.121.512" stroke-width=".829"/><path d="m189.76 33.887-.078.656" stroke-width=".864"/><path d="m189.68 34.543-.082.801" stroke-width=".886"/><path d="m189.6 35.344-.082.84" stroke-width=".904"/><path d="M189.52 36.184v.875" stroke-width=".915"/><path d="M189.52 37.059v.839" stroke-width=".919"/><path d="M189.52 37.898v.731m0 0v.656m0 0 .082.582" stroke-width=".923"/><path d="m189.6 39.867.16.403" stroke-width=".9"/><path d="m189.76 40.27.203.253" stroke-width=".822"/><path d="m189.96 40.523.285.145" stroke-width=".668"/><path d="m190.25 40.668.527-.18" stroke-width=".231"/><path d="m190.78 40.488.446-.218" stroke-width=".07"/><path d="m193.05 38.043-.082-.363" stroke-width=".68"/><path d="m192.96 37.68-.043-.621" stroke-width=".718"/><path d="M192.92 37.059v-.364" stroke-width=".748"/><path d="M192.92 36.695v-.476" stroke-width=".819"/><path d="M192.92 36.219v.586" stroke-width=".853"/><path d="M192.92 36.805v.617" stroke-width=".855"/><path d="M192.92 37.422v.437" stroke-width=".858"/><path d="m192.92 37.859.203-.398m-.003 0 .121-.328" stroke-width=".931"/><path d="m193.25 37.133.121-.367m-.001 0 .125-.289m-.005 0 .16-.258" stroke-width=".932"/><path d="m193.65 36.219.286-.364" stroke-width=".928"/><path d="m193.94 35.855.324-.183" stroke-width=".925"/><path d="m194.26 35.672.324.074" stroke-width=".902"/><path d="m194.59 35.746.203.512m-.003 0 .039.398" stroke-width=".903"/><path d="m194.83 36.656.039.438m.001 0 .043.437m-.003 0v.328m0 0v.403" stroke-width=".906"/><path d="m194.91 38.262.203-.438" stroke-width=".943"/><path d="m195.11 37.824.078-.328" stroke-width=".944"/><path d="m195.19 37.496.164-.293m.006 0 .161-.254" stroke-width=".946"/><path d="m195.52 36.949.242-.437" stroke-width=".943"/><path d="m195.76 36.512.324-.254" stroke-width=".903"/><path d="m196.08 36.258.324.328m.006 0 .285.582" stroke-width=".898"/><path d="m196.69 37.168.082.293" stroke-width=".897"/><path d="m196.77 37.461.204.437" stroke-width=".854"/><path d="m196.98 37.898.078.364" stroke-width=".608"/><path d="m199.04 40.34.039-.399" stroke-width=".929"/><path d="m199.08 39.941.121-.293" stroke-width=".934"/><path d="m199.2 39.648.242-.402" stroke-width=".936"/><path d="m199.44 39.246.285-.437" stroke-width=".937"/><path d="m199.73 38.809.286-.512m.004 0 .324-.547m-.004 0 .242-.473" stroke-width=".939"/><path d="m200.58 37.277.281-.511" stroke-width=".941"/><path d="m200.86 36.766.246-.438" stroke-width=".942"/><path d="m201.11 36.328.161-.398m-.001 0 .164-.328" stroke-width=".943"/><path d="m201.43 35.602.16-.438" stroke-width=".904"/><path d="m204.96 36.039-.406-.074" stroke-width=".906"/><path d="m204.55 35.965-.363.035" stroke-width=".933"/><path d="m204.19 36-.243.328m-.007 0-.164.512" stroke-width=".938"/><path d="M203.78 36.84v.472" stroke-width=".939"/><path d="m203.78 37.312.203.438" stroke-width=".922"/><path d="m203.98 37.75.325.148" stroke-width=".901"/><path d="m204.31 37.898.285.11" stroke-width=".886"/><path d="m204.59 38.008.16.363m0 0 .082.586" stroke-width=".881"/><path d="m204.84 38.957.039.328m.001 0v.328" stroke-width=".88"/><path d="m204.88 39.613-.078.547" stroke-width=".887"/><path d="m204.8 40.16-.406.328" stroke-width=".913"/><path d="m204.39 40.488-.567.11" stroke-width=".936"/><path d="m203.82 40.598-.445-.039" stroke-width=".901"/><path d="M203.38 40.559v-.438" stroke-width=".38"/><path d="m203.38 40.121.199-.254" stroke-width=".07"/><path d="m207.14 33.414.324-.109" stroke-width=".764"/><path d="m207.47 33.305.445.363" stroke-width=".843"/><path d="m207.91 33.668.285.363" stroke-width=".887"/><path d="m208.2 34.031.281.438" stroke-width=".92"/><path d="m208.48 34.469.247.547" stroke-width=".944"/><path d="m208.73 35.016.203.586" stroke-width=".96"/><path d="m208.93 35.602.16.656" stroke-width=".979"/><path d="m209.09 36.258.039.726" stroke-width=".995"/><path d="m209.13 36.984.043.731" stroke-width="1.008"/><path d="m209.17 37.715-.043.805" stroke-width="1.015"/><path d="m209.13 38.52-.121.8" stroke-width="1.02"/><path d="m209.01 39.32-.242.84m.002 0-.286.766" stroke-width="1.023"/><path d="m208.48 40.926-.281.691" stroke-width="1.016"/><path d="m208.2 41.617-.285.582" stroke-width=".965"/><path d="m207.91 42.199-.281.547" stroke-width=".703"/><path d="m207.63 42.746-.203.402" stroke-width=".07"/><path d="m317.07 32.977-.281.179" stroke-width=".961"/><path d="m316.79 33.156-.125.403" stroke-width=".97"/><path d="m316.66 33.559-.16.691" stroke-width=".981"/><path d="m316.5 34.25-.242.875" stroke-width=".995"/><path d="m316.26 35.125-.203 1.059" stroke-width="1.002"/><path d="m316.06 36.184-.164 1.168" stroke-width="1.004"/><path d="m315.9 37.352-.161 1.168m-.009 0-.039 1.128m.009 0-.043.985" stroke-width="1.008"/><path d="m315.65 40.633.082.801" stroke-width="1.002"/><path d="m315.73 41.434.161.656" stroke-width=".977"/><path d="m315.9 42.09.324.437" stroke-width=".909"/><path d="m316.22 42.527.445.258" stroke-width=".724"/><path d="m316.66 42.785.387.016" stroke-width=".552"/><path d="m317.05 42.801.387.019" stroke-width=".381"/><path d="m317.44 42.82.343-.054" stroke-width=".226"/><path d="m317.78 42.766.344-.055" stroke-width=".07"/><path d="M319.75 40.16v-.512" stroke-width=".822"/><path d="M319.75 39.648v-.328" stroke-width=".848"/><path d="M319.75 39.32v-.402" stroke-width=".873"/><path d="M319.75 38.918v-.363" stroke-width=".894"/><path d="m319.75 38.555-.043-.367" stroke-width=".911"/><path d="m319.7 38.188-.039-.508" stroke-width=".943"/><path d="m319.66 37.68-.039.437" stroke-width=".933"/><path d="m319.62 38.117-.043.438m.003 0v.472m0 0-.039.438m-.001 0v.367" stroke-width=".934"/><path d="m319.54 39.832-.039.438" stroke-width=".939"/><path d="M319.5 40.27v-.438" stroke-width=".98"/><path d="m319.5 39.832.078-.367" stroke-width=".981"/><path d="m319.58 39.465.082-.399m-.002 0 .121-.437m-.001 0 .121-.441M319.91 38.188l.164-.399m-.004 0 .16-.367" stroke-width=".982"/><path d="m320.23 37.422.165-.289" stroke-width=".976"/><path d="m320.4 37.133.242-.367" stroke-width=".969"/><path d="m320.64 36.766.406-.18" stroke-width=".944"/><path d="m321.04 36.586.281.144" stroke-width=".93"/><path d="m321.32 36.73.285.547m.005 0 .121.403m-.001 0 .082.398" stroke-width=".921"/><path d="m321.81 38.078.083.402m.007 0 .039.403" stroke-width=".92"/><path d="m321.93 38.883.039.328" stroke-width=".921"/><path d="M321.97 39.211v.363" stroke-width=".924"/><path d="m321.97 39.574.043-.328m.007 0 .078-.289" stroke-width=".964"/><path d="m322.09 38.957.164-.402" stroke-width=".959"/><path d="m322.26 38.555.16-.367" stroke-width=".954"/><path d="m322.42 38.188.164-.364" stroke-width=".949"/><path d="m322.58 37.824.16-.293" stroke-width=".946"/><path d="m322.74 37.531.203-.398" stroke-width=".939"/><path d="m322.94 37.133.285-.11" stroke-width=".921"/><path d="m323.23 37.023.161.582m-.001 0 .082.473" stroke-width=".922"/><path d="m323.47 38.078.082.512" stroke-width=".921"/><path d="m323.56 38.59.082.437" stroke-width=".892"/><path d="m323.64 39.027.039.368" stroke-width=".816"/><path d="m323.68 39.395.082.398" stroke-width=".471"/><path d="m326.59 40.777 2.429-5.578m2.441 2.078-.406-.144" stroke-width=".812"/><path d="M331.05 37.133h-.367" stroke-width=".892"/><path d="m330.68 37.133-.364.254" stroke-width=".921"/><path d="m330.32 37.387-.16.293" stroke-width=".931"/><path d="m330.16 37.68-.125.328" stroke-width=".937"/><path d="m330.04 38.008-.039.363m-.001 0-.039.367" stroke-width=".94"/><path d="M329.96 38.738v.364" stroke-width=".937"/><path d="m329.96 39.102.121.293" stroke-width=".933"/><path d="m330.08 39.395.16.253" stroke-width=".922"/><path d="m330.24 39.648.446.293" stroke-width=".887"/><path d="m330.68 39.941.367.071" stroke-width=".861"/><path d="m331.05 40.012.242.258" stroke-width=".866"/><path d="m331.29 40.27-.121.656" stroke-width=".882"/><path d="m331.17 40.926-.121.398m.001 0-.121.403m.001 0-.121.363" stroke-width=".886"/><path d="m330.81 42.09-.164.293" stroke-width=".89"/><path d="m330.64 42.383-.407.328" stroke-width=".892"/><path d="m330.24 42.711-.484.109" stroke-width=".741"/><path d="m329.75 42.82-.324-.363" stroke-width=".07"/><path d="m333.36 34.762.243-.184" stroke-width=".745"/><path d="m333.6 34.578.527-.035" stroke-width=".751"/><path d="M334.13 34.543h.324M334.45 34.543l.285.109m.005 0 .324.11m-.004 0 .243.218" stroke-width=".754"/><path d="m335.3 34.98.363.293" stroke-width=".746"/><path d="m335.67 35.273.082.329" stroke-width=".729"/><path d="M335.75 35.602V36" stroke-width=".734"/><path d="m335.75 36-.16.477" stroke-width=".763"/><path d="m335.59 36.477-.324.507" stroke-width=".819"/><path d="m335.27 36.984-.325.328" stroke-width=".882"/><path d="m334.94 37.312-.246.184" stroke-width=".923"/><path d="m334.7 37.496.121.293" stroke-width=".93"/><path d="m334.82 37.789.407.035" stroke-width=".942"/><path d="m335.22 37.824.445-.074" stroke-width=".927"/><path d="m335.67 37.75.406-.18" stroke-width=".754"/><path d="m336.07 37.57.324-.074" stroke-width=".512"/><path d="m337.45 34.617.16.399" stroke-width=".898"/><path d="m337.61 35.016.121.293" stroke-width=".931"/><path d="m337.73 35.309.121.402" stroke-width=".952"/><path d="m337.86 35.711.083.473" stroke-width=".968"/><path d="m337.94 36.184.121.511" stroke-width=".981"/><path d="m338.06 36.695.043.582" stroke-width=".994"/><path d="m338.1 37.277.039.621" stroke-width="1.004"/><path d="m338.14 37.898.039.692" stroke-width="1.012"/><path d="m338.18 38.59-.039.73" stroke-width="1.018"/><path d="m338.14 39.32-.039.731" stroke-width="1.028"/><path d="m338.1 40.051-.082.765m.002 0-.165.727m.005 0-.199.73" stroke-width="1.031"/><path d="m337.66 42.273-.246.692" stroke-width="1.024"/><path d="m337.41 42.965-.242.656" stroke-width=".985"/><path d="m337.17 43.621-.324.875" stroke-width=".748"/><path d="m336.84 44.496-.141.348" stroke-width=".409"/><path d="m336.7 44.844-.144.347" stroke-width=".07"/><path d="m442.92 118.2-.164.289" stroke-width=".982"/><path d="m442.76 118.48-.039.368" stroke-width="1.002"/><path d="m442.72 118.85-.043.472" stroke-width="1.011"/><path d="m442.68 119.32-.039.582" stroke-width="1.016"/><path d="M442.64 119.91v.621M442.64 120.53v.621m0-.001v.657m0-.007.039.617" stroke-width="1.025"/><path d="m442.68 122.42.082.586" stroke-width="1.021"/><path d="m442.76 123.01.203.547" stroke-width="1.013"/><path d="m442.96 123.56.164.472" stroke-width=".973"/><path d="m443.12 124.03.242.403" stroke-width=".869"/><path d="m443.37 124.43.242.363" stroke-width=".677"/><path d="m443.61 124.79.325.293" stroke-width=".353"/><path d="m443.93 125.09.324.254" stroke-width=".07"/><path d="m447.01 120.49-.242-.183" stroke-width=".754"/><path d="m446.77 120.31-.364-.184" stroke-width=".928"/><path d="m446.41 120.12-.445.074" stroke-width=".959"/><path d="m445.96 120.2-.203.328" stroke-width=".96"/><path d="m445.76 120.53-.082.512m.002-.002.039.328" stroke-width=".962"/><path d="m445.72 121.37.324.363" stroke-width=".952"/><path d="m446.04 121.73.406.145" stroke-width=".925"/><path d="m446.44 121.88.325.039" stroke-width=".904"/><path d="M446.77 121.91h.445" stroke-width=".896"/><path d="m447.22 121.91.164.438" stroke-width=".912"/><path d="m447.38 122.35.039.617" stroke-width=".922"/><path d="m447.42 122.97-.039.547" stroke-width=".937"/><path d="m447.38 123.52-.082.293" stroke-width=".942"/><path d="m447.3 123.81-.242.363" stroke-width=".946"/><path d="m447.06 124.17-.325.219" stroke-width=".881"/><path d="m449.69 117.94.285.218" stroke-width=".832"/><path d="m449.97 118.16.281.547" stroke-width=".951"/><path d="m450.25 118.7.242.402" stroke-width=".988"/><path d="m450.5 119.1.125.512" stroke-width="1.012"/><path d="m450.62 119.62.121.582" stroke-width="1.041"/><path d="m450.74 120.2.078.656" stroke-width="1.056"/><path d="m450.82 120.86-.039.731" stroke-width="1.065"/><path d="m450.78 121.59-.121.766m.001-.006-.164.8" stroke-width="1.069"/><path d="m450.5 123.15-.281.801" stroke-width="1.063"/><path d="m450.22 123.95-.324.77" stroke-width="1.038"/><path d="m449.89 124.72-.286.691" stroke-width=".958"/><path d="m449.6 125.41-.203.363" stroke-width=".765"/><path d="m449.4 125.78-.203.368" stroke-width=".571"/><path d="m449.2 126.14-.14.273" stroke-width=".321"/><path d="m449.06 126.42-.141.273" stroke-width=".07"/><path d="m316.62 118.74-.281.363" stroke-width=".953"/><path d="m316.34 119.1-.125.329" stroke-width=".973"/><path d="m316.22 119.43-.121.511" stroke-width=".989"/><path d="m316.1 119.94-.078.547" stroke-width="1.006"/><path d="m316.02 120.49-.082.692" stroke-width="1.015"/><path d="m315.94 121.18-.043.73" stroke-width="1.021"/><path d="M315.9 121.91v.801m0 .009v.801m0-.001.043.804" stroke-width="1.027"/><path d="m315.94 124.32.082.692" stroke-width="1.023"/><path d="m316.02 125.01.078.621" stroke-width="1.001"/><path d="m316.1 125.63.203.437" stroke-width=".94"/><path d="m316.3 126.07.203.293" stroke-width=".785"/><path d="m316.5 126.36.363.071" stroke-width=".519"/><path d="m316.87 126.43.367-.036" stroke-width=".07"/><path d="m319.62 121.15-.324-.074" stroke-width=".911"/><path d="m319.3 121.07-.367.145" stroke-width=".943"/><path d="m318.93 121.22-.122.437" stroke-width=".944"/><path d="m318.81 121.66-.039.512" stroke-width=".946"/><path d="m318.77 122.17.122.402" stroke-width=".942"/><path d="m318.9 122.57.324.289" stroke-width=".934"/><path d="m319.22 122.86.445.219" stroke-width=".927"/><path d="m319.66 123.08.285.184m.005-.004.242.293" stroke-width=".923"/><path d="m320.19 123.56.161.398" stroke-width=".926"/><path d="m320.35 123.95.082.402" stroke-width=".934"/><path d="m320.43 124.36-.082.368" stroke-width=".951"/><path d="m320.35 124.72-.2.289" stroke-width=".958"/><path d="m320.15 125.01-.449.109" stroke-width=".95"/><path d="M319.7 125.12h-.324" stroke-width=".8"/><path d="m319.38 125.12-.078-.437" stroke-width=".07"/><path d="m323.19 118.92.203.258" stroke-width=".721"/><path d="m323.39 119.18.203.289" stroke-width=".8"/><path d="m323.59 119.47.203.402" stroke-width=".867"/><path d="m323.8 119.87.203.512" stroke-width=".922"/><path d="m324 120.38.121.582" stroke-width=".961"/><path d="m324.12 120.96.121.656" stroke-width=".989"/><path d="m324.24 121.62-.039.801" stroke-width="1.008"/><path d="m324.2 122.42-.082.84m.002 0-.203.91" stroke-width="1.018"/><path d="m323.92 124.17-.281.949" stroke-width="1.015"/><path d="m323.64 125.12-.325.875" stroke-width="1.001"/><path d="m323.31 126-.285.805" stroke-width=".903"/><path d="m323.03 126.8-.203.398" stroke-width=".675"/><path d="m322.82 127.2-.203.403" stroke-width=".448"/><path d="m322.62 127.6-.16.293" stroke-width=".259"/><path d="m322.46 127.9-.164.289" stroke-width=".07"/><path d="m186.48 118.78-.324.075" stroke-width=".864"/><path d="m186.16 118.85-.203.582" stroke-width=".922"/><path d="m185.95 119.43-.121.511" stroke-width=".939"/><path d="m185.83 119.94-.082.582" stroke-width=".955"/><path d="m185.75 120.53-.078.657" stroke-width=".963"/><path d="m185.67 121.18-.043.73" stroke-width=".968"/><path d="M185.63 121.91v.727" stroke-width=".972"/><path d="M185.63 122.64v.695m0 .005.043.656m-.003-.006.078.582" stroke-width=".974"/><path d="m185.75 124.57.082.512" stroke-width=".972"/><path d="m185.83 125.09.082.437" stroke-width=".967"/><path d="m185.91 125.52.16.364" stroke-width=".933"/><path d="m186.07 125.89.203.293" stroke-width=".862"/><path d="m186.28 126.18.246.218" stroke-width=".745"/><path d="m186.52 126.4.446.145" stroke-width=".499"/><path d="m186.97 126.54.363.109" stroke-width=".07"/><path d="m189.44 119.98-.446.11" stroke-width=".921"/><path d="m188.99 120.09-.242.328" stroke-width=".924"/><path d="m188.75 120.42-.082.293" stroke-width=".925"/><path d="m188.67 120.71-.039.328m-.001.002v.399" stroke-width=".924"/><path d="m188.63 121.44.082.585" stroke-width=".914"/><path d="m188.71 122.02.281.364" stroke-width=".885"/><path d="m188.99 122.39.324.109" stroke-width=".86"/><path d="m189.32 122.5.368.035" stroke-width=".82"/><path d="m189.68 122.53.199.258" stroke-width=".806"/><path d="m189.88 122.79.125.547" stroke-width=".8"/><path d="m190.01 123.34.039.656" stroke-width=".79"/><path d="m190.05 123.99-.039.473" stroke-width=".785"/><path d="m190.01 124.46-.246.328" stroke-width=".787"/><path d="m189.76 124.79-.403.039" stroke-width=".669"/><path d="m189.36 124.83-.082-.441" stroke-width=".07"/><path d="m192.64 118.56.281.253" stroke-width=".629"/><path d="m192.92 118.81.367.403" stroke-width=".795"/><path d="m193.29 119.22.203.293" stroke-width=".866"/><path d="m193.49 119.51.121.363" stroke-width=".913"/><path d="m193.61 119.87.078.473" stroke-width=".953"/><path d="m193.69 120.34-.039.547" stroke-width=".98"/><path d="m193.65 120.89-.082.656" stroke-width=".996"/><path d="m193.57 121.55-.203.84m.003 0-.242.875m-.008-.005-.363.949" stroke-width="1.002"/><path d="m192.76 124.21-.285.91" stroke-width=".977"/><path d="m192.48 125.12-.243.84" stroke-width=".854"/><path d="m192.23 125.96-.121.492" stroke-width=".629"/><path d="m192.11 126.45-.121.492" stroke-width=".404"/><path d="m191.99 126.94-.082.364" stroke-width=".237"/><path d="m191.91 127.31-.082.367" stroke-width=".07"/></g></g></svg>