<?xml version="1.0" encoding="UTF-8"?>
<svg width="496.73" height="225.89" version="1.1" viewBox="0 0 496.73 225.89" xml:space="preserve" xmlns="http://www.w3.org/2000/svg"><defs><clipPath id="clipPath12603"><path d="m0 0h595v841h-595z"/></clipPath></defs><g transform="matrix(1.3333 0 0 1.3333 -92.581 -25.317)"><g clip-path="url(#clipPath12603)" fill="none" stroke-linecap="round" stroke-linejoin="round" stroke-miterlimit="10"><g stroke="#000"><path d="m84.156 28.645v155.37" stroke-width=".85"/><path d="m84.379 113.59h89.301" stroke-width=".93715"/><path d="m171.21 111.92 0.363 0.074" stroke-width=".8243"/><path d="m171.57 112 0.285 0.109" stroke-width=".83256"/><path d="m171.86 112.1 0.282 0.11" stroke-width=".83841"/><path d="m172.14 112.22 0.324 0.219" stroke-width=".84254"/><path d="m172.46 112.43 0.242 0.179" stroke-width=".84254"/><g stroke-width=".8453"><path d="m172.7 112.61 0.246 0.184"/><path d="m172.95 112.8 0.281 0.183"/><path d="m173.23 112.98 0.489 0.29"/></g><path d="m173.72 113.27 0.324 0.218" stroke-width=".84564"/><path d="m174.04 113.49 0.203 0.293" stroke-width=".89661"/><path d="m174.25 113.78-0.125 0.438" stroke-width=".94687"/><path d="m174.12 114.22-0.199 0.472" stroke-width=".9479"/><path d="m173.92 114.69-0.164 0.258" stroke-width=".95307"/><path d="m173.76 114.95-0.281 0.508" stroke-width=".95754"/><path d="m173.48 115.46-0.247 0.477" stroke-width=".96167"/><path d="m173.23 115.93-0.242 0.398" stroke-width=".96443"/><path d="m172.99 116.33-0.203 0.367" stroke-width=".96961"/><path d="m172.78 116.7-0.324 0.254" stroke-width=".97064"/><path d="m172.46 116.95h-0.363" stroke-width=".73856"/><path d="m172.1 116.95-0.325-0.035" stroke-width=".11431"/><path d="m177.65 119.07-0.039 0.438" stroke-width=".7947"/><path d="m177.61 119.51-0.043 0.398" stroke-width=".81466"/><path d="m177.57 119.91v0.438" stroke-width=".82774"/><path d="m177.57 120.34v0.511" stroke-width=".84117"/><path d="m177.57 120.86-0.039 0.622" stroke-width=".84668"/><path d="m177.53 121.48v0.617" stroke-width=".84874"/><path d="m177.53 122.09v0.621" stroke-width=".8515"/><path d="m177.53 122.72v0.656" stroke-width=".85184"/><g stroke-width=".8539"><path d="m177.53 123.37v0.582"/><path d="m177.53 123.95 0.039 0.547"/><path d="m177.57 124.5 0.164 0.512"/></g><path d="m177.73 125.01 0.161 0.476" stroke-width=".85528"/><path d="m177.89 125.49 0.242 0.399" stroke-width=".85528"/><path d="m178.13 125.89 0.203 0.293" stroke-width=".85253"/><path d="m178.34 126.18 0.324 0.293" stroke-width=".84082"/><path d="m178.66 126.47 0.324 0.035" stroke-width=".83772"/><path d="m178.98 126.51 0.528-0.184" stroke-width=".83738"/><path d="m179.51 126.32 0.285-0.219" stroke-width=".81742"/><path d="m179.8 126.1 0.281-0.253" stroke-width=".78538"/><path d="m180.08 125.85 0.285-0.254" stroke-width=".74751"/><path d="m180.36 125.6 0.242-0.328" stroke-width=".68966"/><path d="m180.6 125.27 0.165-0.258" stroke-width=".62253"/><path d="m180.77 125.01 0.16-0.289" stroke-width=".46655"/><path d="m180.93 124.72 0.082-0.293" stroke-width=".21519"/><path d="m176.51 123.08 0.406-0.254" stroke-width=".72204"/><path d="m176.92 122.82h0.488" stroke-width=".73478"/><path d="m177.41 122.82h0.567" stroke-width=".73788"/><path d="m177.97 122.82h0.648" stroke-width=".7396"/><path d="m178.62 122.82 0.688 0.074" stroke-width=".7396"/><path d="m179.31 122.9 0.73 0.071" stroke-width=".69"/><path d="m180.04 122.97 0.688 0.109" stroke-width=".57742"/><path d="m180.73 123.08 0.425-0.016" stroke-width=".37495"/><path d="m181.15 123.06 0.426-0.019" stroke-width=".17248"/><path d="m181.58 123.04 0.688-0.035" stroke-width=".0705"/><path d="m80.281 32.574 0.449-0.144" stroke-width=".82155"/><path d="m80.73 32.43 0.282-0.293" stroke-width=".84495"/><path d="m81.012 32.137 0.324-0.403" stroke-width=".85872"/><path d="m81.336 31.734 0.164-0.254" stroke-width=".86286"/><path d="m81.5 31.48 0.16-0.253" stroke-width=".86595"/><path d="m81.66 31.227 0.164-0.293" stroke-width=".87697"/><path d="m81.824 30.934 0.16-0.329" stroke-width=".88319"/><path d="m81.984 30.605 0.164-0.257" stroke-width=".88835"/><path d="m82.148 30.348 0.243-0.473" stroke-width=".89868"/><path d="m82.391 29.875 0.16-0.293" stroke-width=".90315"/><path d="m82.551 29.582 0.164-0.254" stroke-width=".9066"/><path d="M 82.715,29.328 82.957,29" stroke-width=".90969"/><path d="m82.957 29 0.285-0.254" stroke-width=".91038"/><path d="m83.242 28.746 0.324-0.258" stroke-width=".91795"/><path d="m83.566 28.488 0.2 0.293" stroke-width=".92243"/><path d="m83.766 28.781 0.246 0.364" stroke-width=".92277"/><path d="m84.012 29.145 0.281 0.328" stroke-width=".92656"/><path d="m84.293 29.473 0.324 0.437" stroke-width=".9269"/><path d="m84.617 29.91 0.285 0.438" stroke-width=".93"/><path d="m84.902 30.348 0.243 0.437" stroke-width=".93"/><path d="m85.145 30.785 0.242 0.477" stroke-width=".93035"/><path d="m85.387 31.262 0.285 0.328" stroke-width=".93035"/><path d="m85.672 31.59 0.285 0.219" stroke-width=".93207"/><path d="m85.957 31.809 0.324 0.328" stroke-width=".93138"/><path d="m86.281 32.137 0.242 0.183" stroke-width=".88904"/><path d="m86.523 32.32 0.161 0.473" stroke-width=".48652"/><path d="m212.62 28.434v155.79" stroke-width=".85"/><path d="m212.84 113.38h89.305" stroke-width=".93715"/><path d="m299.67 111.71 0.367 0.074" stroke-width=".8243"/><path d="m300.04 111.78 0.281 0.11" stroke-width=".83256"/><path d="m300.32 111.9 0.286 0.109" stroke-width=".83841"/><path d="m300.6 112 0.324 0.219" stroke-width=".84254"/><path d="m300.93 112.22 0.242 0.179" stroke-width=".84254"/><g stroke-width=".8453"><path d="m301.17 112.4 0.242 0.184"/><path d="m301.41 112.59 0.285 0.184"/><path d="m301.7 112.77 0.485 0.289"/></g><path d="m302.18 113.06 0.324 0.218" stroke-width=".84564"/><path d="m302.5 113.28 0.203 0.293" stroke-width=".89661"/><path d="m302.71 113.57-0.121 0.438" stroke-width=".94687"/><path d="m302.59 114.01-0.203 0.472" stroke-width=".9479"/><path d="m302.38 114.48-0.16 0.258" stroke-width=".95307"/><path d="m302.22 114.74-0.285 0.508" stroke-width=".95754"/><path d="m301.94 115.25-0.243 0.477" stroke-width=".96167"/><path d="m301.7 115.72-0.242 0.398" stroke-width=".96443"/><path d="m301.45 116.12-0.203 0.367" stroke-width=".96961"/><path d="m301.25 116.49-0.324 0.254" stroke-width=".97064"/><path d="m300.93 116.74h-0.364" stroke-width=".73856"/><path d="m300.56 116.74-0.324-0.035" stroke-width=".11431"/><path d="m306.11 118.86-0.043 0.438" stroke-width=".7947"/><path d="m306.07 119.3-0.039 0.398" stroke-width=".81466"/><path d="m306.03 119.7v0.438" stroke-width=".82774"/><path d="m306.03 120.13v0.512" stroke-width=".84117"/><path d="m306.03 120.64-0.043 0.621" stroke-width=".84668"/><path d="m305.99 121.27v0.617" stroke-width=".84874"/><path d="m305.99 121.88v0.621" stroke-width=".8515"/><path d="m305.99 122.5v0.656" stroke-width=".85184"/><g stroke-width=".8539"><path d="m305.99 123.16v0.586"/><path d="m305.99 123.75 0.043 0.547"/><path d="m306.03 124.29 0.16 0.508"/></g><path d="m306.19 124.8 0.164 0.476" stroke-width=".85528"/><path d="m306.36 125.28 0.243 0.399" stroke-width=".85528"/><path d="m306.6 125.68 0.203 0.293" stroke-width=".85253"/><path d="m306.8 125.97 0.324 0.293" stroke-width=".84082"/><path d="m307.12 126.26 0.324 0.035" stroke-width=".83772"/><path d="m307.45 126.3 0.528-0.184" stroke-width=".83738"/><path d="m307.98 126.11 0.281-0.218" stroke-width=".81742"/><path d="m308.26 125.9 0.285-0.254" stroke-width=".78538"/><path d="m308.54 125.64 0.285-0.254" stroke-width=".74751"/><path d="m308.83 125.39 0.242-0.328" stroke-width=".68966"/><path d="m309.07 125.06 0.16-0.258" stroke-width=".62253"/><path d="m309.23 124.8 0.165-0.289" stroke-width=".46655"/><path d="m309.4 124.51 0.078-0.293" stroke-width=".21519"/><path d="m304.98 122.87 0.406-0.254" stroke-width=".72204"/><path d="m305.38 122.61h0.484" stroke-width=".73478"/><path d="m305.87 122.61h0.571" stroke-width=".73788"/><path d="m306.44 122.61h0.648" stroke-width=".7396"/><path d="m307.09 122.61 0.687 0.075" stroke-width=".7396"/><path d="m307.77 122.69 0.731 0.07" stroke-width=".69"/><path d="m308.5 122.76 0.687 0.109" stroke-width=".57742"/><path d="m309.19 122.87 0.426-0.015" stroke-width=".37495"/><path d="m309.62 122.85 0.426-0.02" stroke-width=".17248"/><path d="m310.04 122.83 0.687-0.035" stroke-width=".0705"/><path d="m208.75 32.363 0.445-0.144" stroke-width=".82155"/><path d="m209.19 32.219 0.286-0.293" stroke-width=".84495"/><path d="m209.48 31.926 0.324-0.403" stroke-width=".85872"/><path d="m209.8 31.523 0.16-0.253" stroke-width=".86286"/><path d="m209.96 31.27 0.164-0.254" stroke-width=".86595"/><path d="m210.12 31.016 0.16-0.293" stroke-width=".87697"/><path d="m210.28 30.723 0.164-0.328" stroke-width=".88319"/><path d="m210.45 30.395 0.16-0.258" stroke-width=".88835"/><path d="m210.61 30.137 0.243-0.473" stroke-width=".89868"/><path d="m210.85 29.664 0.164-0.293" stroke-width=".90315"/><path d="m211.02 29.371 0.16-0.254" stroke-width=".9066"/><path d="m211.18 29.117 0.246-0.328" stroke-width=".90969"/><path d="m211.42 28.789 0.281-0.254" stroke-width=".91038"/><path d="m211.7 28.535 0.324-0.258" stroke-width=".91795"/><path d="m212.03 28.277 0.203 0.293" stroke-width=".92243"/><path d="m212.23 28.57 0.243 0.364" stroke-width=".92277"/><path d="m212.47 28.934 0.285 0.328" stroke-width=".92656"/><path d="m212.76 29.262 0.324 0.437" stroke-width=".9269"/><path d="m213.08 29.699 0.285 0.438" stroke-width=".93"/><path d="m213.37 30.137 0.242 0.441" stroke-width=".93"/><path d="m213.61 30.578 0.243 0.473" stroke-width=".93035"/><path d="m213.85 31.051 0.285 0.328" stroke-width=".93035"/><path d="m214.14 31.379 0.281 0.219" stroke-width=".93207"/><path d="m214.42 31.598 0.324 0.328" stroke-width=".93138"/><path d="m214.74 31.926 0.242 0.183" stroke-width=".88904"/><path d="m214.98 32.109 0.164 0.473" stroke-width=".48652"/><path d="m340.09 28.105v155.14" stroke-width=".85"/><path d="m340.31 113.05h89.301" stroke-width=".93715"/><path d="m427.14 111.38 0.363 0.074" stroke-width=".8243"/><path d="m427.5 111.46 0.285 0.109" stroke-width=".83256"/><path d="m427.79 111.57 0.281 0.11" stroke-width=".83841"/><path d="m428.07 111.68 0.325 0.219" stroke-width=".84254"/><path d="m428.4 111.9 0.242 0.179" stroke-width=".84254"/><g stroke-width=".8453"><path d="m428.64 112.07 0.246 0.184"/><path d="m428.88 112.26 0.281 0.183"/><path d="m429.16 112.44 0.488 0.289"/></g><path d="m429.65 112.73 0.325 0.219" stroke-width=".84564"/><path d="m429.98 112.95 0.203 0.293" stroke-width=".89661"/><path d="m430.18 113.24-0.121 0.438" stroke-width=".94687"/><path d="m430.06 113.68-0.204 0.472" stroke-width=".9479"/><path d="m429.86 114.15-0.164 0.258" stroke-width=".95307"/><path d="m429.69 114.41-0.281 0.508" stroke-width=".95754"/><path d="m429.41 114.92-0.246 0.477" stroke-width=".96167"/><path d="m429.16 115.4-0.242 0.398" stroke-width=".96443"/><path d="m428.92 115.79-0.203 0.367" stroke-width=".96961"/><path d="m428.72 116.16-0.324 0.254" stroke-width=".97064"/><path d="m428.4 116.41h-0.364" stroke-width=".73856"/><path d="m428.03 116.41-0.324-0.035" stroke-width=".11431"/><path d="m433.58 118.53-0.039 0.438" stroke-width=".7947"/><path d="m433.54 118.97-0.043 0.398" stroke-width=".81466"/><path d="m433.5 119.37v0.438" stroke-width=".82774"/><path d="m433.5 119.8v0.511" stroke-width=".84117"/><path d="m433.5 120.32-0.039 0.622" stroke-width=".84668"/><path d="m433.46 120.94v0.617" stroke-width=".84874"/><path d="m433.46 121.56v0.621" stroke-width=".8515"/><path d="m433.46 122.18v0.656" stroke-width=".85184"/><g stroke-width=".8539"><path d="m433.46 122.83v0.582"/><path d="m433.46 123.41 0.039 0.551"/><path d="m433.5 123.96 0.164 0.508"/></g><path d="m433.66 124.47 0.16 0.476" stroke-width=".85528"/><path d="m433.82 124.95 0.242 0.399" stroke-width=".85528"/><path d="m434.07 125.35 0.204 0.293" stroke-width=".85253"/><path d="m434.27 125.64 0.324 0.293" stroke-width=".84082"/><path d="m434.59 125.93 0.324 0.035" stroke-width=".83772"/><path d="m434.92 125.97 0.527-0.184" stroke-width=".83738"/><path d="m435.44 125.78 0.285-0.219" stroke-width=".81742"/><path d="m435.73 125.57 0.282-0.254" stroke-width=".78538"/><path d="m436.01 125.31 0.285-0.253" stroke-width=".74751"/><path d="m436.3 125.06 0.242-0.329" stroke-width=".68966"/><path d="m436.54 124.73 0.164-0.257" stroke-width=".62253"/><path d="m436.7 124.47 0.16-0.289" stroke-width=".46655"/><path d="m436.86 124.18 0.082-0.293" stroke-width=".21519"/><path d="m432.45 122.54 0.403-0.254" stroke-width=".72204"/><path d="m432.85 122.28h0.488" stroke-width=".73478"/><path d="m433.34 122.28h0.566" stroke-width=".73788"/><path d="m433.91 122.28h0.649" stroke-width=".7396"/><path d="m434.56 122.28 0.687 0.074" stroke-width=".7396"/><path d="m435.24 122.36 0.731 0.071" stroke-width=".69"/><path d="m435.97 122.43 0.687 0.109" stroke-width=".57742"/><path d="m436.66 122.54 0.426-0.016" stroke-width=".37495"/><path d="m437.09 122.52 0.426-0.019" stroke-width=".17248"/><path d="m437.51 122.5 0.687-0.035" stroke-width=".0705"/><path d="m336.22 32.035 0.449-0.144" stroke-width=".82155"/><path d="m336.66 31.891 0.281-0.293" stroke-width=".84495"/><path d="m336.94 31.598 0.325-0.403" stroke-width=".85872"/><path d="m337.27 31.195 0.164-0.254" stroke-width=".86286"/><path d="m337.43 30.941 0.16-0.253" stroke-width=".86595"/><path d="m337.59 30.688 0.164-0.293" stroke-width=".87697"/><path d="m337.76 30.395 0.16-0.329" stroke-width=".88319"/><path d="m337.92 30.066 0.164-0.257" stroke-width=".88835"/><path d="m338.08 29.809 0.242-0.473" stroke-width=".89868"/><path d="m338.32 29.336 0.16-0.293" stroke-width=".90315"/><path d="m338.48 29.043 0.164-0.254" stroke-width=".9066"/><path d="m338.65 28.789 0.243-0.328" stroke-width=".90969"/><path d="m338.89 28.461 0.285-0.254" stroke-width=".91038"/><path d="m339.18 28.207 0.324-0.258" stroke-width=".91795"/><path d="m339.5 27.949 0.199 0.293" stroke-width=".92243"/><path d="m339.7 28.242 0.246 0.363" stroke-width=".92277"/><path d="m339.94 28.605 0.282 0.329" stroke-width=".92656"/><path d="m340.23 28.934 0.324 0.437" stroke-width=".9269"/><path d="m340.55 29.371 0.285 0.438" stroke-width=".93"/><path d="m340.84 29.809 0.242 0.437" stroke-width=".93"/><path d="m341.08 30.246 0.242 0.477" stroke-width=".93035"/><path d="m341.32 30.723 0.285 0.328" stroke-width=".93035"/><path d="m341.6 31.051 0.286 0.219" stroke-width=".93207"/><path d="m341.89 31.27 0.324 0.328" stroke-width=".93138"/><path d="m342.22 31.598 0.242 0.183" stroke-width=".88904"/><path d="m342.46 31.781 0.16 0.473" stroke-width=".48652"/><path d="m202.41 25.098 0.121 0.402" stroke-width=".75096"/><path d="m202.53 25.5 0.203 0.363" stroke-width=".77402"/><path d="m202.73 25.863 0.243 0.512" stroke-width=".79573"/><path d="m202.97 26.375 0.324 0.512" stroke-width=".8212"/><path d="m203.3 26.887 0.242 0.547" stroke-width=".84014"/><path d="m203.54 27.434 0.203 0.546" stroke-width=".85356"/><path d="m203.74 27.98 0.242 0.508" stroke-width=".86354"/><path d="m203.98 28.488 0.164 0.438" stroke-width=".87008"/><path d="m204.15 28.926 0.122 0.402" stroke-width=".88215"/><path d="m204.27 29.328 0.121 0.293" stroke-width=".88663"/><path d="m204.39 29.621 0.082 0.438" stroke-width=".89489"/><path d="m204.47 30.059 0.121 0.437" stroke-width=".89799"/><path d="m204.59 30.496 0.121 0.363" stroke-width=".90074"/><path d="m204.72 30.859 0.281-0.254" stroke-width=".9448"/><path d="m205 30.605 0.367-0.476" stroke-width=".94756"/><path d="m205.36 30.129 0.242-0.399" stroke-width=".95066"/><path d="m205.6 29.73 0.325-0.476" stroke-width=".951"/><path d="m205.93 29.254 0.285-0.547" stroke-width=".951"/><path d="m206.22 28.707 0.281-0.547" stroke-width=".95135"/><path d="m206.5 28.16 0.203-0.547" stroke-width=".95169"/><path d="m206.7 27.613 0.121-0.508" stroke-width=".95203"/><path d="m206.82 27.105 0.121-0.476" stroke-width=".95238"/><path d="m206.94 26.629v-0.399" stroke-width=".95238"/><path d="m206.94 26.23 0.043-0.367" stroke-width=".95582"/><path d="m206.98 25.863v-0.508" stroke-width=".95548"/><path d="m206.98 25.355v-0.328" stroke-width=".95548"/><path d="m206.98 25.027 0.078-0.293" stroke-width=".93379"/><path d="m331.09 24.625-0.121-0.363" stroke-width=".87353"/><path d="m330.97 24.262-0.242-0.293" stroke-width=".9121"/><path d="m330.73 23.969-0.407-0.328" stroke-width=".94825"/><path d="m330.32 23.641-0.324-0.149" stroke-width=".96443"/><path d="m330 23.492-0.285-0.109" stroke-width=".98407"/><path d="m329.71 23.383-0.402-0.11" stroke-width=".99233"/><path d="m329.31 23.273-0.407-0.035" stroke-width=".99646"/><g stroke-width="1.0009"><path d="m328.9 23.238h-0.363"/><path d="m328.54 23.238-0.406 0.035"/><path d="m328.13 23.273-0.285 0.149"/></g><g stroke-width="1.0034"><path d="m327.85 23.422-0.403 0.398"/><path d="m327.44 23.82-0.164 0.368"/><path d="m327.28 24.188-0.121 0.363"/></g><g stroke-width="1.0016"><path d="m327.16 24.551-0.082 0.511"/><path d="m327.08 25.062-0.039 0.512"/><path d="m327.04 25.574v0.582"/></g><path d="m327.04 26.156 0.121 0.582" stroke-width="1.0013"/><path d="m327.16 26.738 0.203 0.547" stroke-width=".9975"/><path d="m327.36 27.285 0.282 0.512" stroke-width=".98992"/><path d="m327.64 27.797 0.367 0.402" stroke-width=".98476"/><path d="m328.01 28.199 0.242 0.289" stroke-width=".97478"/><path d="m328.25 28.488 0.285 0.219" stroke-width=".96512"/><path d="m328.54 28.707 0.445 0.148" stroke-width=".9627"/><path d="m328.98 28.855 0.364-0.183" stroke-width=".97443"/><path d="m329.35 28.672 0.242-0.219" stroke-width=".97822"/><path d="m329.59 28.453 0.121-0.328" stroke-width=".98682"/><path d="m329.71 28.125 0.164-0.363" stroke-width=".98958"/><path d="m329.88 27.762 0.16-0.367" stroke-width=".98958"/><path d="m330.04 27.395 0.125-0.438" stroke-width=".98992"/><g stroke-width=".99199"><path d="m330.16 26.957 0.078-0.437"/><path d="m330.24 26.52 0.121-0.438"/><path d="m330.36 26.082 0.125-0.398"/><path d="m330.48 25.684 0.121-0.403"/></g><path d="m330.6 25.281 0.122-0.293" stroke-width=".99268"/><path d="m330.73 24.988 0.121-0.289" stroke-width=".99302"/><path d="m330.85 24.699 0.121-0.328" stroke-width=".99336"/><path d="m330.97 24.371 0.121 0.289" stroke-width=".99646"/><path d="m331.09 24.66 0.164 0.328" stroke-width=".99681"/><path d="m331.25 24.988 0.203 0.367" stroke-width=".99681"/><path d="m331.46 25.355 0.242 0.399" stroke-width=".99715"/><path d="m331.7 25.754 0.281 0.402" stroke-width=".99956"/><path d="m331.98 26.156 0.247 0.364" stroke-width=".99956"/><path d="m332.23 26.52 0.242 0.292" stroke-width=".99646"/><path d="m332.47 26.812 0.242 0.254" stroke-width=".99646"/><path d="m332.71 27.066 0.445 0.329" stroke-width=".99681"/><path d="m333.16 27.395 0.406 0.148" stroke-width=".99715"/><path d="m333.56 27.543 0.446 0.035" stroke-width=".99887"/><path d="m334.01 27.578 0.527-0.035" stroke-width=".98269"/><path d="m334.54 27.543 0.485-0.039" stroke-width=".69207"/><path d="m73.598 30.457 3.968-5.977" stroke-width=".8243"/><path d="m74.082 24.332 0.246 0.328" stroke-width=".75268"/><path d="m74.328 24.66 0.363 0.477" stroke-width=".79573"/><path d="m74.691 25.137 0.204 0.254" stroke-width=".81156"/><path d="m74.895 25.391 0.121 0.293" stroke-width=".81776"/><path d="m75.016 25.684 0.285 0.437" stroke-width=".82809"/><path d="m75.301 26.121 0.199 0.289" stroke-width=".8305"/><path d="m75.5 26.41 0.125 0.367" stroke-width=".82774"/><path d="m75.625 26.777 0.039 0.582" stroke-width=".72789"/><path d="m75.664 27.359-0.039 0.621" stroke-width=".50855"/><path d="m75.625 27.98-0.082 0.508" stroke-width=".0705"/></g><g stroke="#0f0"><path d="m84.902 113.12v-0.402" stroke-width=".77748"/><path d="m84.902 112.72 0.043-0.508" stroke-width=".78584"/><path d="m84.945 112.22 0.184-0.438" stroke-width=".7862"/><path d="m85.129 111.78 0.133-0.476" stroke-width=".79784"/><path d="m85.262 111.3 0.273-0.547" stroke-width=".81092"/><path d="m85.535 110.75 0.227-0.582" stroke-width=".82365"/><path d="m85.762 110.17 0.226-0.656" stroke-width=".8371"/><path d="m85.988 109.52 0.27-0.696" stroke-width=".85094"/><path d="m86.258 108.82 0.226-0.691" stroke-width=".86003"/><path d="m86.484 108.13 0.27-0.691" stroke-width=".86875"/><path d="m86.754 107.44 0.226-0.731" stroke-width=".87384"/><path d="m86.98 106.71 0.227-0.691" stroke-width=".88402"/><path d="m87.207 106.02 0.27-0.696" stroke-width=".88439"/><path d="m87.477 105.32 0.363-0.726" stroke-width=".88512"/><path d="m87.84 104.59 0.316-0.766" stroke-width=".88948"/><path d="m88.156 103.83 0.453-0.805" stroke-width=".89202"/><g stroke-width=".89275"><path d="m88.609 103.02 0.407-0.839"/><path d="m89.016 102.18 0.449-0.875"/><path d="m89.465 101.31 0.5-0.946"/></g><path d="m89.965 100.36 0.543-0.914" stroke-width=".89748"/><path d="m90.508 99.449 0.496-0.945" stroke-width=".89784"/><path d="m91.004 98.504 0.543-0.914" stroke-width=".89784"/><path d="m91.547 97.59 0.496-0.836" stroke-width=".90584"/><path d="m92.043 96.754 0.496-0.805" stroke-width=".91093"/><path d="m92.539 95.949 0.496-0.801" stroke-width=".91347"/><path d="m93.035 95.148 0.453-0.765" stroke-width=".91638"/><path d="m93.488 94.383 0.453-0.766" stroke-width=".91638"/><path d="m93.941 93.617 0.497-0.805" stroke-width=".92365"/><path d="m94.438 92.812 0.542-0.835" stroke-width=".92365"/><path d="m94.98 91.977 0.543-0.875" stroke-width=".9222"/><path d="m95.523 91.102 0.543-0.95" stroke-width=".9222"/><path d="m96.066 90.152 0.633-0.91" stroke-width=".92256"/><g stroke-width=".92474"><path d="m96.699 89.242 0.633-0.914"/><path d="m97.332 88.328 0.586-0.84"/><path d="m97.918 87.488 0.633-0.8"/></g><path d="m98.551 86.688 0.543-0.766" stroke-width=".92729"/><path d="m99.094 85.922 0.586-0.731" stroke-width=".92765"/><path d="m99.68 85.191 0.543-0.726" stroke-width=".92765"/><path d="m100.22 84.465 0.632-0.731" stroke-width=".93095"/><path d="m100.86 83.734 0.633-0.8" stroke-width=".93167"/><g stroke-width=".93494"><path d="m101.49 82.934 0.68-0.805"/><path d="m102.17 82.129 0.723-0.84"/><path d="m102.89 81.289 0.765-0.836"/></g><path d="m103.66 80.453 0.817-0.84" stroke-width=".93894"/><path d="m104.47 79.613 0.812-0.765" stroke-width=".93894"/><g stroke-width=".93858"><path d="m105.28 78.848 0.813-0.692"/><path d="m106.1 78.156 0.722-0.586"/><path d="m106.82 77.57 0.68-0.472"/></g><g stroke-width=".94149"><path d="m107.5 77.098 0.586-0.364"/><path d="m108.09 76.734 0.453-0.293"/><path d="m108.54 76.441 0.406-0.253"/></g><g stroke-width=".94731"><path d="m108.94 76.188 0.407-0.219"/><path d="m109.35 75.969 0.363-0.258"/><path d="m109.72 75.711 0.359-0.219"/></g><path d="m110.07 75.492 0.406-0.289" stroke-width=".94949"/><path d="m110.48 75.203 0.454-0.293" stroke-width=".94985"/><path d="m110.93 74.91 0.496-0.293" stroke-width=".95349"/><path d="m111.43 74.617 0.543-0.363" stroke-width=".95349"/><path d="m111.97 74.254 0.589-0.328" stroke-width=".95385"/><g stroke-width=".95894"><path d="m112.56 73.926 0.586-0.367"/><path d="m113.15 73.559 0.586-0.289"/><path d="m113.73 73.27 0.543-0.258"/><path d="m114.28 73.012 0.543-0.254"/></g><path d="m114.82 72.758 0.496-0.145" stroke-width=".95967"/><g stroke-width=".96367"><path d="m115.32 72.613 0.454-0.183"/><path d="m115.77 72.43 0.406-0.11"/><path d="m116.18 72.32 0.453-0.144"/></g><path d="m116.63 72.176 0.453-0.11" stroke-width=".96658"/><path d="m117.08 72.066 0.406-0.148" stroke-width=".96694"/><path d="m117.49 71.918 0.407-0.109" stroke-width=".96694"/><path d="m117.9 71.809 0.406-0.071" stroke-width=".97239"/><path d="m118.3 71.738 0.406-0.074" stroke-width=".97312"/><path d="m118.71 71.664 0.496-0.074" stroke-width=".97966"/><path d="m119.2 71.59 0.5-0.07" stroke-width=".97966"/><path d="m119.7 71.52 0.543-0.04" stroke-width=".98184"/><path d="m120.25 71.48 0.586-0.07" stroke-width=".98657"/><path d="m120.83 71.41 0.543-0.039" stroke-width=".98657"/><path d="m121.38 71.371h0.496" stroke-width=".98912"/><path d="m121.87 71.371h0.496" stroke-width=".99312"/><path d="m122.37 71.371h0.5" stroke-width=".99348"/><path d="m122.87 71.371 0.449 0.039" stroke-width=".9982"/><path d="m123.32 71.41 0.5 0.07" stroke-width=".9982"/><path d="m123.82 71.48 0.496 0.075" stroke-width=".99857"/><g stroke-width="1.0008"><path d="m124.31 71.555 0.497 0.109"/><path d="m124.81 71.664 0.543 0.145"/><path d="m125.35 71.809 0.543 0.148"/><path d="m125.9 71.957 0.543 0.18"/></g><path d="m126.44 72.137 0.585 0.148" stroke-width="1.0011"/><g stroke-width="1.0033"><path d="m127.02 72.285 0.586 0.11"/><path d="m127.61 72.395 0.633 0.144"/><path d="m128.24 72.539 0.633 0.184"/></g><g stroke-width="1.004"><path d="m128.88 72.723 0.59 0.144"/><path d="m129.46 72.867 0.586 0.184"/><path d="m130.05 73.051 0.496 0.219"/><path d="m130.55 73.27 0.453 0.179"/><path d="m131 73.449 0.496 0.184"/></g><g stroke-width="1.0062"><path d="m131.5 73.633 0.453 0.219"/><path d="m131.95 73.852 0.453 0.183"/><path d="m132.4 74.035 0.453 0.18"/></g><path d="m132.86 74.215 0.45 0.183" stroke-width="1.0077"/><path d="m133.3 74.398 0.5 0.219" stroke-width="1.0077"/><g stroke-width="1.0073"><path d="m133.8 74.617 0.449 0.258"/><path d="m134.25 74.875 0.453 0.254"/><path d="m134.71 75.129 0.453 0.293"/></g><g stroke-width="1.0106"><path d="m135.16 75.422 0.406 0.289"/><path d="m135.57 75.711 0.407 0.328"/><path d="m135.97 76.039 0.406 0.293"/></g><path d="m136.38 76.332 0.363 0.328" stroke-width="1.0135"/><path d="m136.74 76.66 0.406 0.328" stroke-width="1.0135"/><g stroke-width="1.0131"><path d="m137.15 76.988 0.36 0.328"/><path d="m137.51 77.316 0.406 0.364"/><path d="m137.91 77.68 0.453 0.402"/></g><g stroke-width="1.0153"><path d="m138.37 78.082 0.406 0.402"/><path d="m138.77 78.484 0.497 0.438"/><path d="m139.27 78.922 0.453 0.437"/></g><path d="m139.72 79.359 0.453 0.508" stroke-width="1.0164"/><path d="m140.18 79.867 0.496 0.512" stroke-width="1.0164"/><g stroke-width="1.016"><path d="m140.67 80.379 0.453 0.512"/><path d="m141.12 80.891 0.406 0.507"/><path d="m141.53 81.398 0.407 0.512"/></g><g stroke-width="1.0178"><path d="m141.94 81.91 0.316 0.477"/><path d="m142.25 82.387 0.363 0.472"/><path d="m142.62 82.859 0.27 0.438"/></g><g stroke-width="1.0171"><path d="m142.89 83.297 0.269 0.437"/><path d="m143.16 83.734 0.317 0.438"/><path d="m143.47 84.172 0.273 0.402"/><path d="m143.75 84.574 0.27 0.438"/><path d="m144.02 85.012 0.273 0.437"/></g><g stroke-width="1.0168"><path d="m144.29 85.449 0.27 0.438"/><path d="m144.56 85.887 0.273 0.472"/><path d="m144.83 86.359 0.316 0.512"/></g><g stroke-width="1.016"><path d="m145.15 86.871 0.27 0.547"/><path d="m145.42 87.418 0.316 0.547"/><path d="m145.73 87.965 0.27 0.547"/><path d="m146 88.512 0.273 0.582"/><path d="m146.28 89.094 0.27 0.547"/></g><g stroke-width="1.0164"><path d="m146.55 89.641 0.226 0.547"/><path d="m146.77 90.188 0.27 0.511"/><path d="m147.04 90.699 0.227 0.547"/></g><path d="m147.27 91.246 0.273 0.547" stroke-width="1.0175"/><path d="m147.54 91.793 0.227 0.547" stroke-width="1.0175"/><path d="m147.77 92.34 0.179 0.512" stroke-width="1.0168"/><path d="m147.95 92.852 0.27 0.507" stroke-width="1.0164"/><path d="m148.22 93.359 0.136 0.547" stroke-width="1.0164"/><path d="m148.36 93.906 0.27 0.512" stroke-width="1.016"/><g stroke-width="1.0153"><path d="m148.62 94.418 0.227 0.512"/><path d="m148.85 94.93 0.136 0.547"/><path d="m148.99 95.477 0.27 0.582"/><path d="m149.26 96.059 0.137 0.546"/></g><g stroke-width="1.0149"><path d="m149.4 96.605 0.179 0.586"/><path d="m149.57 97.191 0.184 0.547"/><path d="m149.76 97.738 0.09 0.473"/></g><g stroke-width="1.016"><path d="m149.85 98.211 0.136 0.473"/><path d="m149.98 98.684 0.133 0.437"/><path d="m150.12 99.121 0.184 0.402"/></g><path d="m150.3 99.523 0.179 0.403" stroke-width="1.0171"/><path d="m150.48 99.926 0.133 0.363" stroke-width="1.0171"/><g stroke-width="1.0168"><path d="m150.61 100.29 0.184 0.402"/><path d="m150.8 100.69 0.133 0.364"/><path d="m150.93 101.06 0.183 0.402"/></g><path d="m151.11 101.46 0.133 0.398" stroke-width="1.0178"/><path d="m151.25 101.86 0.184 0.403" stroke-width="1.0178"/><path d="m151.43 102.26 0.09 0.402" stroke-width="1.0171"/><g stroke-width="1.0168"><path d="m151.52 102.66 0.136 0.402"/><path d="m151.66 103.06 0.133 0.399"/><path d="m151.79 103.46 0.137 0.402"/></g><g stroke-width="1.0164"><path d="m151.93 103.86 0.136 0.364"/><path d="m152.06 104.23 0.133 0.367"/><path d="m152.2 104.59 0.274 0.547"/></g><g stroke-width="1.0171"><path d="m152.47 105.14 0.226 0.472"/><path d="m152.7 105.61 0.18 0.438"/><path d="m152.88 106.05 0.18 0.437"/></g><path d="m153.06 106.49 0.136 0.438" stroke-width="1.0168"/><path d="m153.19 106.93 0.09 0.363" stroke-width="1.0175"/><path d="m153.28 107.29 0.09 0.367" stroke-width="1.0175"/><path d="m153.37 107.66 0.137 0.399" stroke-width="1.0171"/><path d="m153.51 108.06 0.137 0.437" stroke-width="1.0171"/><path d="m153.64 108.49 0.132 0.438" stroke-width="1.0178"/><path d="m153.78 108.93 0.137 0.367" stroke-width="1.0178"/><g stroke-width="1.0175"><path d="m153.91 109.3 0.137 0.398"/><path d="m154.05 109.7 0.09 0.293"/><path d="m154.14 109.99 0.089 0.293"/><path d="m154.23 110.28 0.09 0.328"/></g><path d="m154.32 110.61 0.137 0.293" stroke-width="1.0178"/><path d="m154.46 110.9 0.09 0.289" stroke-width="1.0182"/><g stroke-width="1.0178"><path d="m154.55 111.19 0.269 0.477"/><path d="m154.82 111.67 0.184 0.437"/><path d="m155 112.1 0.227 0.329"/><path d="m155.23 112.43 0.179 0.363"/><path d="m155.41 112.8 0.137 0.328"/></g><path d="m155.54 113.12 0.133 0.363" stroke-width="1.0175"/><path d="m155.68 113.49 0.09 0.328" stroke-width="1.0186"/><path d="m155.77 113.82 0.046 0.403" stroke-width="1.0189"/><path d="m212.98 70.133 71.434 92.875" stroke-width=".89696"/><path d="m340.46 155.48h71.918" stroke-width=".89279"/></g><g stroke="#00c0ff"><path d="m121.23 71.941v41.973" stroke-dasharray="0.5, 3" stroke-width=".7961"/><path d="m375 114.95v38.172" stroke-dasharray="0.5, 3" stroke-width=".95858"/><g><path d="m118.94 121.04-0.286-0.258" stroke-width=".90212"/><path d="m118.65 120.78-0.203 0.328" stroke-width=".96202"/><path d="m118.45 121.11-0.121 0.403" stroke-width=".96821"/><path d="m118.33 121.51-0.16 0.547" stroke-width=".97478"/><g stroke-width=".98476"><path d="m118.17 122.06-0.203 0.656"/><path d="m117.96 122.72-0.121 0.73"/><path d="m117.84 123.44-0.121 0.692"/></g><g stroke-width=".98717"><path d="m117.72 124.14v0.695"/><path d="m117.72 124.83 0.039 0.582"/><path d="m117.76 125.41 0.164 0.547"/></g><path d="m117.93 125.96 0.281 0.363" stroke-width=".9851"/><path d="m118.21 126.32 0.324 0.258" stroke-width=".97168"/><path d="m118.53 126.58 0.407 0.145" stroke-width=".95307"/><path d="m118.94 126.73 0.445 0.074" stroke-width=".92725"/><path d="m119.38 126.8 0.484-0.074" stroke-width=".89524"/><path d="m119.87 126.73 0.528-0.184" stroke-width=".84151"/><path d="m120.4 126.54 0.527-0.328" stroke-width=".74132"/><path d="m120.92 126.22 0.488-0.473" stroke-width=".5485"/><path d="m121.41 125.74 0.223-0.363" stroke-width=".32572"/><path d="m121.63 125.38 0.222-0.367" stroke-width=".10295"/><path d="m121.86 125.01 0.364-0.621" stroke-width=".0705"/><path d="m116.34 123.24h3.847" stroke-width=".59188"/><path d="m123.36 129.35-0.285-0.254" stroke-width=".70412"/><path d="m123.07 129.1-0.164-0.368" stroke-width=".70689"/><path d="m122.91 128.73-0.078-0.398" stroke-width=".70896"/><path d="m122.83 128.33-0.082-0.367" stroke-width=".71963"/><path d="m122.75 127.96-0.164 0.293" stroke-width=".74407"/><path d="m122.58 128.26-0.078 0.512" stroke-width=".75268"/><path d="m122.5 128.77-0.043 0.328" stroke-width=".76094"/><path d="m122.46 129.1-0.078-0.403" stroke-width=".92587"/><path d="m122.38 128.7 0.039-0.511" stroke-width=".9269"/><path d="m122.42 128.18 0.082-0.289" stroke-width=".9269"/><path d="m122.5 127.9 0.16-0.293" stroke-width=".92656"/><g stroke-width=".92415"><path d="m122.66 127.6 0.203-0.329"/><path d="m122.87 127.27 0.203-0.293"/><path d="m123.07 126.98 0.203-0.253"/></g><path d="m123.27 126.73 0.407-0.403" stroke-width=".90969"/><path d="m123.68 126.32 0.363-0.179" stroke-width=".89455"/><path d="m124.04 126.14 0.363 0.035" stroke-width=".87594"/><g stroke-width=".87525"><path d="m124.41 126.18 0.242 0.402"/><path d="m124.65 126.58 0.082 0.289"/><path d="m124.73 126.87 0.122 0.328"/></g><path d="m124.85 127.2 0.082 0.547" stroke-width=".87594"/><path d="m124.93 127.75 0.082 0.328" stroke-width=".88076"/><path d="m125.02 128.07 0.121-0.437" stroke-width=".9362"/><path d="m125.14 127.64 0.16-0.473" stroke-width=".93586"/><path d="m125.3 127.16 0.203-0.437" stroke-width=".93482"/><path d="m125.5 126.73 0.246-0.254" stroke-width=".92828"/><path d="m125.75 126.47 0.281-0.11" stroke-width=".91451"/><path d="m126.03 126.36 0.446 0.219" stroke-width=".90625"/><path d="m126.47 126.58 0.285 0.547" stroke-width=".90832"/><path d="m126.76 127.13 0.121 0.289" stroke-width=".91038"/><path d="m126.88 127.42 0.121 0.367" stroke-width=".91038"/><path d="m127 127.78 0.164 0.508" stroke-width=".89386"/><path d="m127.16 128.29 0.121 0.328" stroke-width=".76059"/><path d="m127.28 128.62 0.281 0.109" stroke-width=".42143"/><path d="m129.51 126.98-0.324-0.218" stroke-width=".85494"/><path d="m129.19 126.76-0.282-0.11" stroke-width=".93586"/><path d="m128.91 126.65-0.449 0.11" stroke-width=".9603"/><g stroke-width=".96202"><path d="m128.46 126.76-0.199 0.547"/><path d="m128.26 127.31-0.082 0.437"/><path d="m128.18 127.75-0.039 0.438"/><path d="m128.14 128.18v0.437"/></g><path d="m128.14 128.62 0.078 0.328" stroke-width=".96167"/><path d="m128.22 128.95 0.121 0.328" stroke-width=".96167"/><path d="m128.34 129.28 0.285 0.293" stroke-width=".95926"/><path d="m128.62 129.57 0.406 0.035" stroke-width=".95858"/><path d="m129.03 129.6 0.325-0.363" stroke-width=".96098"/><path d="m129.35 129.24 0.16-0.293" stroke-width=".96098"/><g stroke-width=".96064"><path d="m129.51 128.95 0.121-0.363"/><path d="m129.63 128.59 0.082-0.328"/><path d="m129.72 128.26 0.121-0.328"/><path d="m129.84 127.93 0.082-0.293"/><path d="m129.92 127.64 0.082-0.328"/></g><path d="m130 127.31 0.121 0.476" stroke-width=".96684"/><path d="m130.12 127.78 0.082 0.363" stroke-width=".96718"/><path d="m130.2 128.15 0.16 0.547" stroke-width=".9703"/><path d="m130.36 128.7 0.203 0.364" stroke-width=".97133"/><path d="m130.57 129.06 0.325 0.257" stroke-width=".95789"/><path d="m130.89 129.32 0.406 0.145" stroke-width=".85769"/><path d="m131.3 129.46 0.363 0.035" stroke-width=".65214"/><path d="m131.66 129.5 0.324-0.18" stroke-width=".4025"/><path d="m132.47 130.66 0.246-0.293" stroke-width=".89764"/><path d="m132.72 130.37 0.281-0.289" stroke-width=".90384"/><path d="m133 130.08 0.367-0.402" stroke-width=".90384"/><path d="m133.36 129.68 0.403-0.438" stroke-width=".90178"/><path d="m133.77 129.24 0.445-0.547" stroke-width=".88181"/><path d="m134.21 128.7 0.406-0.547" stroke-width=".84702"/><path d="m134.62 128.15 0.324-0.546" stroke-width=".79332"/><path d="m134.94 127.6 0.243-0.512" stroke-width=".72789"/><path d="m135.18 127.09 0.164-0.438" stroke-width=".63837"/><path d="m135.35 126.65 0.082-0.398" stroke-width=".41317"/><path d="m132.75 126.32v0.403" stroke-width=".75853"/><path d="m132.75 126.73 0.082 0.293" stroke-width=".80846"/><path d="m132.84 127.02 0.16 0.398" stroke-width=".84736"/><path d="m133 127.42 0.203 0.367" stroke-width=".87559"/><path d="m133.2 127.78 0.242 0.438" stroke-width=".89902"/><path d="m133.44 128.22 0.247 0.398" stroke-width=".90866"/><path d="m133.69 128.62 0.281 0.438" stroke-width=".91141"/><path d="m133.97 129.06 0.242 0.367" stroke-width=".91141"/><path d="m134.21 129.43 0.285 0.363" stroke-width=".90005"/><path d="m134.5 129.79 0.242 0.363" stroke-width=".83497"/><path d="m134.74 130.15 0.242 0.293" stroke-width=".67864"/><path d="m134.98 130.44 0.286 0.364" stroke-width=".10192"/><path d="m135.27 130.81 0.242 0.257" stroke-width=".0705"/><path d="m249.57 101.78-0.121 0.289" stroke-width=".72479"/><path d="m249.44 102.07-0.121 0.367" stroke-width=".75681"/><path d="m249.32 102.44-0.16 0.547" stroke-width=".79192"/><path d="m249.16 102.99-0.164 0.731" stroke-width=".81845"/><path d="m249 103.72-0.16 0.801" stroke-width=".83428"/><path d="m248.84 104.52-0.164 0.91" stroke-width=".84151"/><path d="m248.68 105.43-0.039 0.84" stroke-width=".84358"/><path d="m248.64 106.27v0.8" stroke-width=".84564"/><path d="m248.64 107.07 0.121 0.657" stroke-width=".84599"/><path d="m248.76 107.73 0.203 0.437" stroke-width=".84564"/><path d="m248.96 108.16 0.324 0.367" stroke-width=".83807"/><path d="m249.28 108.53 0.363 0.219" stroke-width=".82568"/><path d="m249.65 108.75 0.407 0.07" stroke-width=".81604"/><path d="m250.06 108.82 0.445 0.039" stroke-width=".78951"/><path d="m250.5 108.86 0.445-0.148" stroke-width=".74924"/><path d="m250.94 108.71 0.489-0.219" stroke-width=".71997"/><path d="m251.43 108.49 0.402-0.219" stroke-width=".68381"/><path d="m251.84 108.27 0.324-0.328" stroke-width=".62632"/><path d="m252.16 107.94 0.324-0.218" stroke-width=".53198"/><path d="m252.48 107.73 0.286-0.508" stroke-width=".0705"/><path d="m247.59 105h4.945" stroke-width=".63996"/><path d="m255 109.15-0.078-0.363" stroke-width=".85287"/><path d="m254.92 108.78 0.039-0.582" stroke-width=".8694"/><path d="m254.96 108.2 0.039-0.328" stroke-width=".86974"/><path d="m255 107.88 0.043-0.512" stroke-width=".87525"/><path d="m255.04 107.36 0.039-0.328" stroke-width=".88525"/><g stroke-width=".88628"><path d="m255.08 107.04v0.438"/><path d="m255.08 107.47-0.039 0.328"/><path d="m255.04 107.8v0.328"/><path d="m255.04 108.13-0.082 0.473"/></g><path d="m254.96 108.6v-0.582" stroke-width=".95616"/><path d="m254.96 108.02 0.082-0.364" stroke-width=".95651"/><g stroke-width=".95616"><path d="m255.04 107.66 0.16-0.328"/><path d="m255.2 107.33 0.164-0.367"/><path d="m255.36 106.96 0.16-0.328"/></g><path d="m255.52 106.63 0.165-0.254" stroke-width=".95582"/><path d="m255.69 106.38 0.281-0.438" stroke-width=".95272"/><path d="m255.97 105.94 0.285-0.218" stroke-width=".95238"/><path d="m256.25 105.72 0.363-0.11" stroke-width=".94067"/><path d="m256.62 105.61 0.324 0.403" stroke-width=".93069"/><path d="m256.94 106.02 0.082 0.328" stroke-width=".93035"/><path d="m257.02 106.34 0.082 0.328" stroke-width=".93069"/><path d="m257.1 106.67 0.079 0.437" stroke-width=".93035"/><path d="m257.18 107.11 0.043 0.399" stroke-width=".93"/><path d="m257.23 107.51 0.039 0.586" stroke-width=".92966"/><path d="m257.27 108.09 0.043-0.477" stroke-width=".97478"/><path d="m257.31 107.62 0.16-0.328" stroke-width=".96961"/><path d="m257.47 107.29 0.121-0.363" stroke-width=".96477"/><path d="m257.59 106.93 0.164-0.293" stroke-width=".95961"/><path d="m257.75 106.63 0.16-0.289" stroke-width=".95444"/><path d="m257.91 106.34 0.164-0.293" stroke-width=".94825"/><path d="m258.08 106.05 0.324-0.184" stroke-width=".93861"/><path d="m258.4 105.87 0.325 0.039" stroke-width=".93379"/><path d="m258.73 105.91 0.281 0.254" stroke-width=".93551"/><g stroke-width=".93517"><path d="m259.01 106.16 0.121 0.402"/><path d="m259.13 106.56 0.082 0.547"/><path d="m259.21 107.11v0.329"/></g><path d="m259.21 107.44v0.363" stroke-width=".93069"/><path d="m259.21 107.8v0.328" stroke-width=".87903"/><path d="m259.21 108.13 0.039 0.547" stroke-width=".56296"/><path d="m259.25 108.68 0.285 0.109" stroke-width=".13806"/><path d="m262.21 106.34-0.164-0.328" stroke-width=".78813"/><path d="m262.05 106.02-0.242-0.184" stroke-width=".8856"/><path d="m261.8 105.83-0.446-0.074" stroke-width=".9269"/><path d="m261.36 105.76-0.324 0.293" stroke-width=".92759"/><path d="m261.04 106.05-0.242 0.582" stroke-width=".93551"/><path d="m260.79 106.63-0.082 0.367" stroke-width=".93826"/><path d="m260.71 107-0.082 0.398" stroke-width=".93826"/><path d="m260.63 107.4-0.039 0.586" stroke-width=".94102"/><path d="m260.59 107.98 0.039 0.364" stroke-width=".94067"/><path d="m260.63 108.35 0.324 0.183" stroke-width=".94171"/><path d="m260.95 108.53 0.324-0.219" stroke-width=".94653"/><path d="m261.28 108.31 0.243-0.257" stroke-width=".94894"/><g stroke-width=".95169"><path d="m261.52 108.06 0.164-0.289"/><path d="m261.68 107.77 0.16-0.328"/><path d="m261.84 107.44 0.164-0.329"/></g><path d="m262.01 107.11 0.203-0.476" stroke-width=".95238"/><path d="m262.21 106.63 0.203 0.328" stroke-width=".97168"/><path d="m262.41 106.96 0.039 0.367" stroke-width=".97202"/><path d="m262.45 107.33 0.039 0.328" stroke-width=".97237"/><path d="m262.49 107.66 0.082 0.582" stroke-width=".97271"/><path d="m262.57 108.24 0.16 0.403" stroke-width=".93482"/><path d="m262.73 108.64 0.286 0.144" stroke-width=".82327"/><path d="m263.02 108.78 0.445-0.293" stroke-width=".48996"/><path d="m263.46 108.49 0.285-0.289" stroke-width=".0705"/><path d="m264.56 109.66 2.433-3.465" stroke-width=".89076"/><path d="m265 107.44v0.398" stroke-width=".7334"/><path d="m265 107.84v0.328" stroke-width=".79779"/><path d="m265 108.16 0.082 0.367" stroke-width=".83291"/><path d="m265.09 108.53 0.164 0.438" stroke-width=".84427"/><path d="m265.25 108.97 0.242 0.363" stroke-width=".84427"/><path d="m265.49 109.33 0.281 0.402" stroke-width=".83841"/><path d="m265.77 109.73 0.407 0.364" stroke-width=".75887"/><path d="m266.18 110.1 0.609 0.511" stroke-width=".51681"/><path d="m266.79 110.61 0.262 0.219" stroke-width=".29366"/><path d="m267.05 110.83 0.265 0.219" stroke-width=".0705"/><path d="m372.74 101.2-0.324 0.219" stroke-width=".69241"/><path d="m372.42 101.42-0.203 0.586" stroke-width=".72307"/><path d="m372.22 102-0.078 0.398" stroke-width=".76886"/><path d="m372.14 102.4-0.121 0.547" stroke-width=".80881"/><path d="m372.02 102.95-0.125 0.66" stroke-width=".83876"/><path d="m371.89 103.61-0.121 0.727" stroke-width=".85631"/><path d="m371.77 104.34-0.079 0.73" stroke-width=".86905"/><g stroke-width=".87594"><path d="m371.69 105.07-0.082 0.731"/><path d="m371.61 105.8v0.617"/><path d="m371.61 106.41 0.039 0.547"/></g><path d="m371.65 106.96 0.164 0.367" stroke-width=".87938"/><path d="m371.81 107.33 0.243 0.219" stroke-width=".87938"/><path d="m372.06 107.55 0.285 0.109" stroke-width=".87903"/><path d="m372.34 107.66 0.402 0.035" stroke-width=".87903"/><path d="m372.74 107.69 0.367-0.074" stroke-width=".87697"/><path d="m373.11 107.62 0.403-0.179" stroke-width=".87112"/><path d="m373.51 107.44 0.445-0.293" stroke-width=".84633"/><path d="m373.96 107.14 0.406-0.364" stroke-width=".80571"/><path d="m374.36 106.78 0.325-0.402" stroke-width=".74476"/><path d="m374.69 106.38 0.242-0.438" stroke-width=".66969"/><path d="m374.93 105.94 0.121-0.363" stroke-width=".50752"/><path d="m375.05 105.58v-0.437" stroke-width=".21037"/><path d="m375.05 105.14-0.039-0.329" stroke-width=".0705"/><path d="m370.12 103.78h4.305" stroke-width=".50278"/><path d="m376.8 107.18-0.082-0.399" stroke-width=".67899"/><path d="m376.72 106.78v-0.586" stroke-width=".71137"/><path d="m376.72 106.2v-0.472" stroke-width=".73581"/><path d="m376.72 105.72-0.203 0.437" stroke-width=".76094"/><path d="m376.51 106.16-0.082 0.402" stroke-width=".7692"/><path d="m376.43 106.56-0.082 0.364" stroke-width=".77574"/><path d="m376.35 106.93-0.039 0.328" stroke-width=".78159"/><path d="m376.31 107.25-0.082 0.328" stroke-width=".78676"/><path d="m376.23 107.58-0.079 0.328" stroke-width=".79538"/><path d="m376.15 107.91 0.122-0.512" stroke-width=".91004"/><g stroke-width=".91107"><path d="m376.27 107.4 0.203-0.328"/><path d="m376.47 107.07 0.16-0.363"/><path d="m376.63 106.71 0.203-0.402"/></g><path d="m376.84 106.3 0.242-0.364" stroke-width=".91072"/><path d="m377.08 105.94 0.121-0.328" stroke-width=".91072"/><path d="m377.2 105.61 0.164-0.293" stroke-width=".91038"/><path d="m377.36 105.32 0.242-0.437" stroke-width=".90763"/><path d="m377.6 104.88 0.243-0.254" stroke-width=".90281"/><path d="m377.85 104.63 0.406-0.219" stroke-width=".87456"/><path d="m378.25 104.41 0.324 0.145" stroke-width=".84908"/><path d="m378.58 104.56 0.285 0.367" stroke-width=".84702"/><g stroke-width=".84668"><path d="m378.86 104.92 0.078 0.289"/><path d="m378.94 105.21 0.082 0.293"/><path d="m379.02 105.5 0.039 0.363"/></g><path d="m379.06 105.87 0.043 0.328" stroke-width=".85012"/><path d="m379.1 106.2v0.512" stroke-width=".85012"/><path d="m379.1 106.71v0.402" stroke-width=".87043"/><path d="m379.1 107.11v-0.367" stroke-width=".92587"/><path d="m379.1 106.74 0.122-0.437" stroke-width=".92553"/><path d="m379.23 106.3 0.203-0.438" stroke-width=".92518"/><path d="m379.43 105.87 0.203-0.472" stroke-width=".92277"/><path d="m379.63 105.4 0.242-0.329" stroke-width=".92243"/><path d="m379.88 105.07 0.363-0.218" stroke-width=".90797"/><path d="m380.24 104.85 0.367 0.183" stroke-width=".90074"/><path d="m380.6 105.03 0.325 0.508" stroke-width=".89799"/><path d="m380.93 105.54 0.16 0.367" stroke-width=".89627"/><path d="m381.09 105.91 0.082 0.328" stroke-width=".89592"/><path d="m381.17 106.23 0.039 0.328" stroke-width=".89179"/><path d="m381.21 106.56 0.082 0.329" stroke-width=".88146"/><path d="m381.29 106.89 0.039 0.437" stroke-width=".81604"/><path d="m381.33 107.33 0.164 0.328" stroke-width=".3846"/><path d="m383.77 105.18-0.368-0.328" stroke-width=".92243"/><path d="m383.4 104.85-0.281-0.11" stroke-width=".96477"/><path d="m383.12 104.74-0.324 0.219" stroke-width=".96996"/><path d="m382.79 104.96-0.164 0.254" stroke-width=".96996"/><path d="m382.63 105.21-0.16 0.402" stroke-width=".97305"/><path d="m382.47 105.61-0.082 0.438" stroke-width=".97305"/><path d="m382.39 106.05-0.082 0.472" stroke-width=".96996"/><path d="m382.3 106.52-0.039 0.438" stroke-width=".96925"/><path d="m382.27 106.96 0.039 0.367" stroke-width=".95961"/><path d="m382.3 107.33 0.203 0.363" stroke-width=".93586"/><path d="m382.51 107.69 0.324 0.036" stroke-width=".93448"/><path d="m382.83 107.73 0.324-0.399" stroke-width=".93413"/><path d="m383.16 107.33 0.164-0.367" stroke-width=".93413"/><path d="m383.32 106.96 0.16-0.399" stroke-width=".93379"/><path d="m383.48 106.56 0.122-0.402" stroke-width=".93379"/><g stroke-width=".93172"><path d="m383.6 106.16 0.121-0.363"/><path d="m383.72 105.8 0.082-0.293"/><path d="m383.8 105.5 0.082-0.328"/></g><path d="m383.89 105.18 0.039 0.512" stroke-width=".96236"/><path d="m383.93 105.69 0.039 0.546" stroke-width=".9627"/><path d="m383.96 106.23 0.082 0.328" stroke-width=".96236"/><path d="m384.05 106.56 0.367 0.254" stroke-width=".81328"/><path d="m384.41 106.82 0.301-0.035" stroke-width=".65059"/><path d="m384.72 106.78 0.305-0.039" stroke-width=".48789"/><path d="m385.02 106.74 0.324-0.109" stroke-width=".0705"/><path d="m385.67 108.35 0.406-0.328" stroke-width=".8632"/><g stroke-width=".86389"><path d="m386.07 108.02 0.324-0.329"/><path d="m386.4 107.69 0.282-0.437"/><path d="m386.68 107.25 0.285-0.438"/></g><path d="m386.96 106.82 0.242-0.437" stroke-width=".85494"/><path d="m387.21 106.38 0.164-0.402" stroke-width=".83222"/><path d="m387.37 105.98 0.16-0.364" stroke-width=".78676"/><path d="m387.53 105.61 0.121-0.328" stroke-width=".74304"/><path d="m387.65 105.28 0.246-0.621" stroke-width=".47722"/><path d="m386.36 103.97v0.328" stroke-width=".64629"/><path d="m386.36 104.3v0.328" stroke-width=".72686"/><path d="m386.36 104.63v0.437" stroke-width=".78986"/><path d="m386.36 105.07 0.043 0.438" stroke-width=".82912"/><path d="m386.4 105.5 0.161 0.512" stroke-width=".84874"/><path d="m386.56 106.02 0.121 0.472" stroke-width=".86526"/><g stroke-width=".87559"><path d="m386.68 106.49 0.246 0.438"/><path d="m386.93 106.93 0.203 0.363"/><path d="m387.13 107.29 0.199 0.293"/></g><path d="m387.33 107.58 0.246 0.293" stroke-width=".85046"/><path d="m387.57 107.88 0.281 0.437" stroke-width=".68725"/><path d="m387.86 108.31 0.204 0.329" stroke-width=".45829"/><path d="m388.06 108.64 0.203 0.254" stroke-width=".0705"/></g></g></g></g></svg>
