<svg width="496.73" height="225.89" xml:space="preserve" xmlns="http://www.w3.org/2000/svg"><defs><clipPath id="a"><path d="M0 0h595v841H0z"/></clipPath></defs><g clip-path="url(#a)" fill="none" stroke-linecap="round" stroke-linejoin="round" stroke-miterlimit="10" transform="translate(-92.581 -25.317) scale(1.3333)"><g stroke="#000"><path d="M84.156 28.645v155.37" stroke-width=".85"/><path d="M84.379 113.59h89.301" stroke-width=".937"/><path d="m171.21 111.92.363.074" stroke-width=".824"/><path d="m171.57 112 .285.109" stroke-width=".833"/><path d="m171.86 112.1.282.11" stroke-width=".838"/><path d="m172.14 112.22.324.219m-.004-.009.242.179" stroke-width=".843"/><path d="m172.7 112.61.246.184m.004.006.281.183m-.001-.003.489.29" stroke-width=".845"/><path d="m173.72 113.27.324.218" stroke-width=".846"/><path d="m174.04 113.49.203.293" stroke-width=".897"/><path d="m174.25 113.78-.125.438" stroke-width=".947"/><path d="m174.12 114.22-.199.472" stroke-width=".948"/><path d="m173.92 114.69-.164.258" stroke-width=".953"/><path d="m173.76 114.95-.281.508" stroke-width=".958"/><path d="m173.48 115.46-.247.477" stroke-width=".962"/><path d="m173.23 115.93-.242.398" stroke-width=".964"/><path d="m172.99 116.33-.203.367" stroke-width=".97"/><path d="m172.78 116.7-.324.254" stroke-width=".971"/><path d="M172.46 116.95h-.363" stroke-width=".739"/><path d="m172.1 116.95-.325-.035" stroke-width=".114"/><path d="m177.65 119.07-.039.438" stroke-width=".795"/><path d="m177.61 119.51-.043.398" stroke-width=".815"/><path d="M177.57 119.91v.438" stroke-width=".828"/><path d="M177.57 120.34v.511" stroke-width=".841"/><path d="m177.57 120.86-.039.622" stroke-width=".847"/><path d="M177.53 121.48v.617" stroke-width=".849"/><path d="M177.53 122.09v.621m0 .009v.656" stroke-width=".852"/><path d="M177.53 123.37v.582m0-.002.039.547m.001.003.164.512" stroke-width=".854"/><path d="m177.73 125.01.161.476m-.001.004.242.399" stroke-width=".855"/><path d="m178.13 125.89.203.293" stroke-width=".853"/><path d="m178.34 126.18.324.293" stroke-width=".841"/><path d="m178.66 126.47.324.035" stroke-width=".838"/><path d="m178.98 126.51.528-.184" stroke-width=".837"/><path d="m179.51 126.32.285-.219" stroke-width=".817"/><path d="m179.8 126.1.281-.253" stroke-width=".785"/><path d="m180.08 125.85.285-.254" stroke-width=".748"/><path d="m180.36 125.6.242-.328" stroke-width=".69"/><path d="m180.6 125.27.165-.258" stroke-width=".623"/><path d="m180.77 125.01.16-.289" stroke-width=".467"/><path d="m180.93 124.72.082-.293" stroke-width=".215"/><path d="m176.51 123.08.406-.254" stroke-width=".722"/><path d="M176.92 122.82h.488" stroke-width=".735"/><path d="M177.41 122.82h.567" stroke-width=".738"/><path d="M177.97 122.82h.648m.002 0 .688.074" stroke-width=".74"/><path d="m179.31 122.9.73.071" stroke-width=".69"/><path d="m180.04 122.97.688.109" stroke-width=".577"/><path d="m180.73 123.08.425-.016" stroke-width=".375"/><path d="m181.15 123.06.426-.019" stroke-width=".172"/><path d="m181.58 123.04.688-.035" stroke-width=".07"/><path d="m80.281 32.574.449-.144" stroke-width=".822"/><path d="m80.73 32.43.282-.293" stroke-width=".845"/><path d="m81.012 32.137.324-.403" stroke-width=".859"/><path d="m81.336 31.734.164-.254" stroke-width=".863"/><path d="m81.5 31.48.16-.253" stroke-width=".866"/><path d="m81.66 31.227.164-.293" stroke-width=".877"/><path d="m81.824 30.934.16-.329" stroke-width=".883"/><path d="m81.984 30.605.164-.257" stroke-width=".888"/><path d="m82.148 30.348.243-.473" stroke-width=".899"/><path d="m82.391 29.875.16-.293" stroke-width=".903"/><path d="m82.551 29.582.164-.254" stroke-width=".907"/><path d="m82.715 29.328.242-.328m0 0 .285-.254" stroke-width=".91"/><path d="m83.242 28.746.324-.258" stroke-width=".918"/><path d="m83.566 28.488.2.293" stroke-width=".922"/><path d="m83.766 28.781.246.364" stroke-width=".923"/><path d="m84.012 29.145.281.328m0 0 .324.437" stroke-width=".927"/><path d="m84.617 29.91.285.438m0 0 .243.437m0 0 .242.477m0 0 .285.328" stroke-width=".93"/><path d="m85.672 31.59.285.219" stroke-width=".932"/><path d="m85.957 31.809.324.328" stroke-width=".931"/><path d="m86.281 32.137.242.183" stroke-width=".889"/><path d="m86.523 32.32.161.473" stroke-width=".487"/><path d="M212.62 28.434v155.79" stroke-width=".85"/><path d="M212.84 113.38h89.305" stroke-width=".937"/><path d="m299.67 111.71.367.074" stroke-width=".824"/><path d="m300.04 111.78.281.11" stroke-width=".833"/><path d="m300.32 111.9.286.109" stroke-width=".838"/><path d="m300.6 112 .324.219m.006.001.242.179" stroke-width=".843"/><path d="m301.17 112.4.242.184m-.002.006.285.184m.005-.004.485.289" stroke-width=".845"/><path d="m302.18 113.06.324.218" stroke-width=".846"/><path d="m302.5 113.28.203.293" stroke-width=".897"/><path d="m302.71 113.57-.121.438" stroke-width=".947"/><path d="m302.59 114.01-.203.472" stroke-width=".948"/><path d="m302.38 114.48-.16.258" stroke-width=".953"/><path d="m302.22 114.74-.285.508" stroke-width=".958"/><path d="m301.94 115.25-.243.477" stroke-width=".962"/><path d="m301.7 115.72-.242.398" stroke-width=".964"/><path d="m301.45 116.12-.203.367" stroke-width=".97"/><path d="m301.25 116.49-.324.254" stroke-width=".971"/><path d="M300.93 116.74h-.364" stroke-width=".739"/><path d="m300.56 116.74-.324-.035" stroke-width=".114"/><path d="m306.11 118.86-.043.438" stroke-width=".795"/><path d="m306.07 119.3-.039.398" stroke-width=".815"/><path d="M306.03 119.7v.438" stroke-width=".828"/><path d="M306.03 120.13v.512" stroke-width=".841"/><path d="m306.03 120.64-.043.621" stroke-width=".847"/><path d="M305.99 121.27v.617" stroke-width=".849"/><path d="M305.99 121.88v.621m0-.001v.656" stroke-width=".852"/><path d="M305.99 123.16v.586m0 .004.043.547m-.003-.007.16.508" stroke-width=".854"/><path d="m306.19 124.8.164.476m.006.004.243.399" stroke-width=".855"/><path d="m306.6 125.68.203.293" stroke-width=".853"/><path d="m306.8 125.97.324.293" stroke-width=".841"/><path d="m307.12 126.26.324.035" stroke-width=".838"/><path d="m307.45 126.3.528-.184" stroke-width=".837"/><path d="m307.98 126.11.281-.218" stroke-width=".817"/><path d="m308.26 125.9.285-.254" stroke-width=".785"/><path d="m308.54 125.64.285-.254" stroke-width=".748"/><path d="m308.83 125.39.242-.328" stroke-width=".69"/><path d="m309.07 125.06.16-.258" stroke-width=".623"/><path d="m309.23 124.8.165-.289" stroke-width=".467"/><path d="m309.4 124.51.078-.293" stroke-width=".215"/><path d="m304.98 122.87.406-.254" stroke-width=".722"/><path d="M305.38 122.61h.484" stroke-width=".735"/><path d="M305.87 122.61h.571" stroke-width=".738"/><path d="M306.44 122.61h.648m.002 0 .687.075" stroke-width=".74"/><path d="m307.77 122.69.731.07" stroke-width=".69"/><path d="m308.5 122.76.687.109" stroke-width=".577"/><path d="m309.19 122.87.426-.015" stroke-width=".375"/><path d="m309.62 122.85.426-.02" stroke-width=".172"/><path d="m310.04 122.83.687-.035" stroke-width=".07"/><path d="m208.75 32.363.445-.144" stroke-width=".822"/><path d="m209.19 32.219.286-.293" stroke-width=".845"/><path d="m209.48 31.926.324-.403" stroke-width=".859"/><path d="m209.8 31.523.16-.253" stroke-width=".863"/><path d="m209.96 31.27.164-.254" stroke-width=".866"/><path d="m210.12 31.016.16-.293" stroke-width=".877"/><path d="m210.28 30.723.164-.328" stroke-width=".883"/><path d="m210.45 30.395.16-.258" stroke-width=".888"/><path d="m210.61 30.137.243-.473" stroke-width=".899"/><path d="m210.85 29.664.164-.293" stroke-width=".903"/><path d="m211.02 29.371.16-.254" stroke-width=".907"/><path d="m211.18 29.117.246-.328m-.006 0 .281-.254" stroke-width=".91"/><path d="m211.7 28.535.324-.258" stroke-width=".918"/><path d="m212.03 28.277.203.293" stroke-width=".922"/><path d="m212.23 28.57.243.364" stroke-width=".923"/><path d="m212.47 28.934.285.328m.005 0 .324.437" stroke-width=".927"/><path d="m213.08 29.699.285.438m.005 0 .242.441m-.002 0 .243.473m-.003 0 .285.328" stroke-width=".93"/><path d="m214.14 31.379.281.219" stroke-width=".932"/><path d="m214.42 31.598.324.328" stroke-width=".931"/><path d="m214.74 31.926.242.183" stroke-width=".889"/><path d="m214.98 32.109.164.473" stroke-width=".487"/><path d="M340.09 28.105v155.14" stroke-width=".85"/><path d="M340.31 113.05h89.301" stroke-width=".937"/><path d="m427.14 111.38.363.074" stroke-width=".824"/><path d="m427.5 111.46.285.109" stroke-width=".833"/><path d="m427.79 111.57.281.11" stroke-width=".838"/><path d="m428.07 111.68.325.219m.005.001.242.179" stroke-width=".843"/><path d="m428.64 112.07.246.184m-.006.006.281.183m-.001-.003.488.289" stroke-width=".845"/><path d="m429.65 112.73.325.219" stroke-width=".846"/><path d="m429.98 112.95.203.293" stroke-width=".897"/><path d="m430.18 113.24-.121.438" stroke-width=".947"/><path d="m430.06 113.68-.204.472" stroke-width=".948"/><path d="m429.86 114.15-.164.258" stroke-width=".953"/><path d="m429.69 114.41-.281.508" stroke-width=".958"/><path d="m429.41 114.92-.246.477" stroke-width=".962"/><path d="m429.16 115.4-.242.398" stroke-width=".964"/><path d="m428.92 115.79-.203.367" stroke-width=".97"/><path d="m428.72 116.16-.324.254" stroke-width=".971"/><path d="M428.4 116.41h-.364" stroke-width=".739"/><path d="m428.03 116.41-.324-.035" stroke-width=".114"/><path d="m433.58 118.53-.039.438" stroke-width=".795"/><path d="m433.54 118.97-.043.398" stroke-width=".815"/><path d="M433.5 119.37v.438" stroke-width=".828"/><path d="M433.5 119.8v.511" stroke-width=".841"/><path d="m433.5 120.32-.039.622" stroke-width=".847"/><path d="M433.46 120.94v.617" stroke-width=".849"/><path d="M433.46 121.56v.621m0-.001v.656" stroke-width=".852"/><path d="M433.46 122.83v.582m0-.002.039.551m.001-.001.164.508" stroke-width=".854"/><path d="m433.66 124.47.16.476m0 .004.242.399" stroke-width=".855"/><path d="m434.07 125.35.204.293" stroke-width=".853"/><path d="m434.27 125.64.324.293" stroke-width=".841"/><path d="m434.59 125.93.324.035" stroke-width=".838"/><path d="m434.92 125.97.527-.184" stroke-width=".837"/><path d="m435.44 125.78.285-.219" stroke-width=".817"/><path d="m435.73 125.57.282-.254" stroke-width=".785"/><path d="m436.01 125.31.285-.253" stroke-width=".748"/><path d="m436.3 125.06.242-.329" stroke-width=".69"/><path d="m436.54 124.73.164-.257" stroke-width=".623"/><path d="m436.7 124.47.16-.289" stroke-width=".467"/><path d="m436.86 124.18.082-.293" stroke-width=".215"/><path d="m432.45 122.54.403-.254" stroke-width=".722"/><path d="M432.85 122.28h.488" stroke-width=".735"/><path d="M433.34 122.28h.566" stroke-width=".738"/><path d="M433.91 122.28h.649m.001 0 .687.074" stroke-width=".74"/><path d="m435.24 122.36.731.071" stroke-width=".69"/><path d="m435.97 122.43.687.109" stroke-width=".577"/><path d="m436.66 122.54.426-.016" stroke-width=".375"/><path d="m437.09 122.52.426-.019" stroke-width=".172"/><path d="m437.51 122.5.687-.035" stroke-width=".07"/><path d="m336.22 32.035.449-.144" stroke-width=".822"/><path d="m336.66 31.891.281-.293" stroke-width=".845"/><path d="m336.94 31.598.325-.403" stroke-width=".859"/><path d="m337.27 31.195.164-.254" stroke-width=".863"/><path d="m337.43 30.941.16-.253" stroke-width=".866"/><path d="m337.59 30.688.164-.293" stroke-width=".877"/><path d="m337.76 30.395.16-.329" stroke-width=".883"/><path d="m337.92 30.066.164-.257" stroke-width=".888"/><path d="m338.08 29.809.242-.473" stroke-width=".899"/><path d="m338.32 29.336.16-.293" stroke-width=".903"/><path d="m338.48 29.043.164-.254" stroke-width=".907"/><path d="m338.65 28.789.243-.328m-.003 0 .285-.254" stroke-width=".91"/><path d="m339.18 28.207.324-.258" stroke-width=".918"/><path d="m339.5 27.949.199.293" stroke-width=".922"/><path d="m339.7 28.242.246.363" stroke-width=".923"/><path d="m339.94 28.605.282.329m.008 0 .324.437" stroke-width=".927"/><path d="m340.55 29.371.285.438m.005 0 .242.437m-.002 0 .242.477m-.002 0 .285.328" stroke-width=".93"/><path d="m341.6 31.051.286.219" stroke-width=".932"/><path d="m341.89 31.27.324.328" stroke-width=".931"/><path d="m342.22 31.598.242.183" stroke-width=".889"/><path d="m342.46 31.781.16.473" stroke-width=".487"/><path d="m202.41 25.098.121.402" stroke-width=".751"/><path d="m202.53 25.5.203.363" stroke-width=".774"/><path d="m202.73 25.863.243.512" stroke-width=".796"/><path d="m202.97 26.375.324.512" stroke-width=".821"/><path d="m203.3 26.887.242.547" stroke-width=".84"/><path d="m203.54 27.434.203.546" stroke-width=".854"/><path d="m203.74 27.98.242.508" stroke-width=".864"/><path d="m203.98 28.488.164.438" stroke-width=".87"/><path d="m204.15 28.926.122.402" stroke-width=".882"/><path d="m204.27 29.328.121.293" stroke-width=".887"/><path d="m204.39 29.621.082.438" stroke-width=".895"/><path d="m204.47 30.059.121.437" stroke-width=".898"/><path d="m204.59 30.496.121.363" stroke-width=".901"/><path d="m204.72 30.859.281-.254" stroke-width=".945"/><path d="m205 30.605.367-.476" stroke-width=".948"/><path d="m205.36 30.129.242-.399m-.002 0 .325-.476m.005 0 .285-.547m.005 0 .281-.547" stroke-width=".951"/><path d="m206.5 28.16.203-.547m-.003 0 .121-.508m-.001 0 .121-.476m-.001 0v-.399" stroke-width=".952"/><path d="m206.94 26.23.043-.367" stroke-width=".956"/><path d="M206.98 25.863v-.508m0 0v-.328" stroke-width=".955"/><path d="m206.98 25.027.078-.293" stroke-width=".934"/><path d="m331.09 24.625-.121-.363" stroke-width=".874"/><path d="m330.97 24.262-.242-.293" stroke-width=".912"/><path d="m330.73 23.969-.407-.328" stroke-width=".948"/><path d="m330.32 23.641-.324-.149" stroke-width=".964"/><path d="m330 23.492-.285-.109" stroke-width=".984"/><path d="m329.71 23.383-.402-.11" stroke-width=".992"/><path d="m329.31 23.273-.407-.035" stroke-width=".996"/><path d="M328.9 23.238h-.363m.003 0-.406.035m-.004 0-.285.149" stroke-width="1.001"/><path d="m327.85 23.422-.403.398m-.007 0-.164.368m.004 0-.121.363" stroke-width="1.003"/><path d="m327.16 24.551-.082.511m.002 0-.039.512m-.001 0v.582" stroke-width="1.002"/><path d="m327.04 26.156.121.582" stroke-width="1.001"/><path d="m327.16 26.738.203.547" stroke-width=".998"/><path d="m327.36 27.285.282.512" stroke-width=".99"/><path d="m327.64 27.797.367.402" stroke-width=".985"/><path d="m328.01 28.199.242.289" stroke-width=".975"/><path d="m328.25 28.488.285.219" stroke-width=".965"/><path d="m328.54 28.707.445.148" stroke-width=".963"/><path d="m328.98 28.855.364-.183" stroke-width=".974"/><path d="m329.35 28.672.242-.219" stroke-width=".978"/><path d="m329.59 28.453.121-.328" stroke-width=".987"/><path d="m329.71 28.125.164-.363m.006 0 .16-.367m0 0 .125-.438" stroke-width=".99"/><path d="m330.16 26.957.078-.437m.002 0 .121-.438m-.001 0 .125-.398m-.005 0 .121-.403" stroke-width=".992"/><path d="m330.6 25.281.122-.293m.008 0 .121-.289m-.001 0 .121-.328" stroke-width=".993"/><path d="m330.97 24.371.121.289" stroke-width=".996"/><path d="m331.09 24.66.164.328m-.004 0 .203.367m.007 0 .242.399" stroke-width=".997"/><path d="m331.7 25.754.281.402m-.001 0 .247.364"/><path d="m332.23 26.52.242.292m-.002 0 .242.254" stroke-width=".996"/><path d="m332.71 27.066.445.329m.005 0 .406.148" stroke-width=".997"/><path d="m333.56 27.543.446.035" stroke-width=".999"/><path d="m334.01 27.578.527-.035" stroke-width=".983"/><path d="m334.54 27.543.485-.039" stroke-width=".692"/><path d="m73.598 30.457 3.968-5.977" stroke-width=".824"/><path d="m74.082 24.332.246.328" stroke-width=".753"/><path d="m74.328 24.66.363.477" stroke-width=".796"/><path d="m74.691 25.137.204.254" stroke-width=".812"/><path d="m74.895 25.391.121.293" stroke-width=".818"/><path d="m75.016 25.684.285.437" stroke-width=".828"/><path d="m75.301 26.121.199.289" stroke-width=".831"/><path d="m75.5 26.41.125.367" stroke-width=".828"/><path d="m75.625 26.777.039.582" stroke-width=".728"/><path d="m75.664 27.359-.039.621" stroke-width=".509"/><path d="m75.625 27.98-.082.508" stroke-width=".07"/></g><g stroke="#0f0"><path d="M84.902 113.12v-.402" stroke-width=".777"/><path d="m84.902 112.72.043-.508m0 .008.184-.438" stroke-width=".786"/><path d="m85.129 111.78.133-.476" stroke-width=".798"/><path d="m85.262 111.3.273-.547" stroke-width=".811"/><path d="m85.535 110.75.227-.582" stroke-width=".824"/><path d="m85.762 110.17.226-.656" stroke-width=".837"/><path d="m85.988 109.52.27-.696" stroke-width=".851"/><path d="m86.258 108.82.226-.691" stroke-width=".86"/><path d="m86.484 108.13.27-.691" stroke-width=".869"/><path d="m86.754 107.44.226-.731" stroke-width=".874"/><path d="m86.98 106.71.227-.691m0 .001.27-.696" stroke-width=".884"/><path d="m87.477 105.32.363-.726" stroke-width=".885"/><path d="m87.84 104.59.316-.766" stroke-width=".889"/><path d="m88.156 103.83.453-.805" stroke-width=".892"/><path d="m88.609 103.02.407-.839m0-.001.449-.875m0 .005.5-.946" stroke-width=".893"/><path d="m89.965 100.36.543-.914" stroke-width=".897"/><path d="m90.508 99.449.496-.945m0 0 .543-.914" stroke-width=".898"/><path d="m91.547 97.59.496-.836" stroke-width=".906"/><path d="m92.043 96.754.496-.805" stroke-width=".911"/><path d="m92.539 95.949.496-.801" stroke-width=".913"/><path d="m93.035 95.148.453-.765m0 0 .453-.766" stroke-width=".916"/><path d="m93.941 93.617.497-.805m0 0 .542-.835" stroke-width=".924"/><path d="m94.98 91.977.543-.875m0 0 .543-.95" stroke-width=".922"/><path d="m96.066 90.152.633-.91" stroke-width=".923"/><path d="m96.699 89.242.633-.914m0 0 .586-.84m0 0 .633-.8" stroke-width=".925"/><path d="m98.551 86.688.543-.766" stroke-width=".927"/><path d="m99.094 85.922.586-.731m0 0 .543-.726" stroke-width=".928"/><path d="m100.22 84.465.632-.731" stroke-width=".931"/><path d="m100.86 83.734.633-.8" stroke-width=".932"/><path d="m101.49 82.934.68-.805m0 0 .723-.84m-.003 0 .765-.836" stroke-width=".935"/><path d="m103.66 80.453.817-.84m-.007 0 .812-.765M105.28 78.848l.813-.692m.007 0 .722-.586m-.002 0 .68-.472" stroke-width=".939"/><path d="m107.5 77.098.586-.364m.004 0 .453-.293m-.003 0 .406-.253" stroke-width=".941"/><path d="m108.94 76.188.407-.219m.003 0 .363-.258m.007 0 .359-.219" stroke-width=".947"/><path d="m110.07 75.492.406-.289" stroke-width=".949"/><path d="m110.48 75.203.454-.293" stroke-width=".95"/><path d="m110.93 74.91.496-.293m.004 0 .543-.363" stroke-width=".953"/><path d="m111.97 74.254.589-.328" stroke-width=".954"/><path d="m112.56 73.926.586-.367m.004 0 .586-.289m-.006 0 .543-.258m.007 0 .543-.254" stroke-width=".959"/><path d="m114.82 72.758.496-.145" stroke-width=".96"/><path d="m115.32 72.613.454-.183m-.004 0 .406-.11m.004 0 .453-.144" stroke-width=".964"/><path d="m116.63 72.176.453-.11m-.003 0 .406-.148m.004 0 .407-.109" stroke-width=".967"/><path d="m117.9 71.809.406-.071" stroke-width=".972"/><path d="m118.3 71.738.406-.074" stroke-width=".973"/><path d="m118.71 71.664.496-.074m-.006 0 .5-.07" stroke-width=".98"/><path d="m119.7 71.52.543-.04" stroke-width=".982"/><path d="m120.25 71.48.586-.07m-.006 0 .543-.039" stroke-width=".987"/><path d="M121.38 71.371h.496" stroke-width=".989"/><path d="M121.87 71.371h.496m.004 0h.5" stroke-width=".993"/><path d="m122.87 71.371.449.039m.001 0 .5.07" stroke-width=".998"/><path d="m123.82 71.48.496.075" stroke-width=".999"/><path d="m124.31 71.555.497.109m.003 0 .543.145m-.003 0 .543.148m.007 0 .543.18M126.44 72.137l.585.148" stroke-width="1.001"/><path d="m127.02 72.285.586.11m.004 0 .633.144m-.003 0 .633.184" stroke-width="1.003"/><path d="m128.88 72.723.59.144m-.01 0 .586.184m.004 0 .496.219m.004 0 .453.179m-.003 0 .496.184" stroke-width="1.004"/><path d="m131.5 73.633.453.219m-.003 0 .453.183m-.003 0 .453.18" stroke-width="1.006"/><path d="m132.86 74.215.45.183m-.01 0 .5.219" stroke-width="1.008"/><path d="m133.8 74.617.449.258m.001 0 .453.254m.007 0 .453.293" stroke-width="1.007"/><path d="m135.16 75.422.406.289m.004 0 .407.328m-.007 0 .406.293" stroke-width="1.011"/><path d="m136.38 76.332.363.328m-.003 0 .406.328" stroke-width="1.014"/><path d="m137.15 76.988.36.328m0 0 .406.364m-.006 0 .453.402" stroke-width="1.013"/><path d="m138.37 78.082.406.402m-.006 0 .497.438m.003 0 .453.437" stroke-width="1.015"/><path d="m139.72 79.359.453.508m.007 0 .496.512M140.67 80.379l.453.512m-.003 0 .406.507m.004 0 .407.512" stroke-width="1.016"/><path d="m141.94 81.91.316.477m-.006 0 .363.472m.007 0 .27.438" stroke-width="1.018"/><path d="m142.89 83.297.269.437m.001 0 .317.438m-.007 0 .273.402m.007 0 .27.438m0 0 .273.437M144.29 85.449l.27.438m0 0 .273.472m-.003 0 .316.512" stroke-width="1.017"/><path d="m145.15 86.871.27.547m0 0 .316.547m-.006 0 .27.547m0 0 .273.582m.007 0 .27.547M146.55 89.641l.226.547m-.006 0 .27.511m0 0 .227.547" stroke-width="1.016"/><path d="m147.27 91.246.273.547m-.003 0 .227.547" stroke-width="1.018"/><path d="m147.77 92.34.179.512" stroke-width="1.017"/><path d="m147.95 92.852.27.507m0 0 .136.547m.004 0 .27.512" stroke-width="1.016"/><path d="m148.62 94.418.227.512m.003 0 .136.547m.004 0 .27.582m0 0 .137.546M149.4 96.605l.179.586m-.009 0 .184.547m.006 0 .09.473" stroke-width="1.015"/><path d="m149.85 98.211.136.473m-.006 0 .133.437m.007 0 .184.402" stroke-width="1.016"/><path d="m150.3 99.523.179.403m.001 0 .133.363M150.61 100.29l.184.402m.006-.002.133.364m-.003.006.183.402" stroke-width="1.017"/><path d="m151.11 101.46.133.398m.007.002.184.403" stroke-width="1.018"/><path d="m151.43 102.26.09.402M151.52 102.66l.136.402m.004-.002.133.399m-.003.001.137.402" stroke-width="1.017"/><path d="m151.93 103.86.136.364m-.006.006.133.367m.007-.007.274.547" stroke-width="1.016"/><path d="m152.47 105.14.226.472m.004-.002.18.438m0 .002.18.437M153.06 106.49l.136.438" stroke-width="1.017"/><path d="m153.19 106.93.09.363m0-.003.09.367" stroke-width="1.018"/><path d="m153.37 107.66.137.399m.003.001.137.437" stroke-width="1.017"/><path d="m153.64 108.49.132.438m.008.002.137.367M153.91 109.3l.137.398m.003.002.09.293m0-.003.089.293m.001-.003.09.328M154.32 110.61l.137.293m.003-.003.09.289M154.55 111.19l.269.477m.001.003.184.437M155 112.1l.227.329m.003.001.179.363m.001.007.137.328M155.54 113.12l.133.363" stroke-width="1.018"/><path d="m155.68 113.49.09.328m0 .002.046.403" stroke-width="1.019"/><path d="m212.98 70.133 71.434 92.875" stroke-width=".897"/><path d="M340.46 155.48h71.918" stroke-width=".893"/></g><g stroke="#00c0ff"><path d="M121.23 71.941v41.973" stroke-dasharray="0.5, 3" stroke-width=".796"/><path d="M375 114.95v38.172" stroke-dasharray="0.5, 3" stroke-width=".959"/><path d="m118.94 121.04-.286-.258" stroke-width=".902"/><path d="m118.65 120.78-.203.328" stroke-width=".962"/><path d="m118.45 121.11-.121.403" stroke-width=".968"/><path d="m118.33 121.51-.16.547" stroke-width=".975"/><path d="m118.17 122.06-.203.656m-.007.004-.121.73m.001-.01-.121.692" stroke-width=".985"/><path d="M117.72 124.14v.695m0-.005.039.582m.001-.002.164.547" stroke-width=".987"/><path d="m117.93 125.96.281.363" stroke-width=".985"/><path d="m118.21 126.32.324.258" stroke-width=".972"/><path d="m118.53 126.58.407.145" stroke-width=".953"/><path d="m118.94 126.73.445.074" stroke-width=".927"/><path d="m119.38 126.8.484-.074" stroke-width=".895"/><path d="m119.87 126.73.528-.184" stroke-width=".842"/><path d="m120.4 126.54.527-.328" stroke-width=".741"/><path d="m120.92 126.22.488-.473" stroke-width=".548"/><path d="m121.41 125.74.223-.363" stroke-width=".326"/><path d="m121.63 125.38.222-.367" stroke-width=".103"/><path d="m121.86 125.01.364-.621" stroke-width=".07"/><path d="M116.34 123.24h3.847" stroke-width=".592"/><path d="m123.36 129.35-.285-.254" stroke-width=".704"/><path d="m123.07 129.1-.164-.368" stroke-width=".707"/><path d="m122.91 128.73-.078-.398" stroke-width=".709"/><path d="m122.83 128.33-.082-.367" stroke-width=".72"/><path d="m122.75 127.96-.164.293" stroke-width=".744"/><path d="m122.58 128.26-.078.512" stroke-width=".753"/><path d="m122.5 128.77-.043.328" stroke-width=".761"/><path d="m122.46 129.1-.078-.403" stroke-width=".926"/><path d="m122.38 128.7.039-.511m.001-.009.082-.289m-.002.009.16-.293" stroke-width=".927"/><path d="m122.66 127.6.203-.329m.007-.001.203-.293m-.003.003.203-.253" stroke-width=".924"/><path d="m123.27 126.73.407-.403" stroke-width=".91"/><path d="m123.68 126.32.363-.179" stroke-width=".895"/><path d="m124.04 126.14.363.035" stroke-width=".876"/><path d="m124.41 126.18.242.402m-.002-.002.082.289m-.002.001.122.328" stroke-width=".875"/><path d="m124.85 127.2.082.547" stroke-width=".876"/><path d="m124.93 127.75.082.328" stroke-width=".881"/><path d="m125.02 128.07.121-.437m-.001.007.16-.473" stroke-width=".936"/><path d="m125.3 127.16.203-.437" stroke-width=".935"/><path d="m125.5 126.73.246-.254" stroke-width=".928"/><path d="m125.75 126.47.281-.11" stroke-width=".915"/><path d="m126.03 126.36.446.219" stroke-width=".906"/><path d="m126.47 126.58.285.547" stroke-width=".908"/><path d="m126.76 127.13.121.289m-.001.001.121.367" stroke-width=".91"/><path d="m127 127.78.164.508" stroke-width=".894"/><path d="m127.16 128.29.121.328" stroke-width=".761"/><path d="m127.28 128.62.281.109" stroke-width=".421"/><path d="m129.51 126.98-.324-.218" stroke-width=".855"/><path d="m129.19 126.76-.282-.11" stroke-width=".936"/><path d="m128.91 126.65-.449.11" stroke-width=".96"/><path d="m128.46 126.76-.199.547m-.001.003-.082.437m.002.003-.039.438m-.001-.008v.437M128.14 128.62l.078.328m.002.002.121.328" stroke-width=".962"/><path d="m128.34 129.28.285.293m-.005-.003.406.035" stroke-width=".959"/><path d="m129.03 129.6.325-.363m-.005.003.16-.293M129.51 128.95l.121-.363m-.001.003.082-.328m.008-.002.121-.328m-.001-.002.082-.293m-.002.003.082-.328" stroke-width=".961"/><path d="m130 127.31.121.476m-.001-.006.082.363" stroke-width=".967"/><path d="m130.2 128.15.16.547" stroke-width=".97"/><path d="m130.36 128.7.203.364" stroke-width=".971"/><path d="m130.57 129.06.325.257" stroke-width=".958"/><path d="m130.89 129.32.406.145" stroke-width=".858"/><path d="m131.3 129.46.363.035" stroke-width=".652"/><path d="m131.66 129.5.324-.18" stroke-width=".403"/><path d="m132.47 130.66.246-.293" stroke-width=".898"/><path d="m132.72 130.37.281-.289m-.001-.001.367-.402" stroke-width=".904"/><path d="m133.36 129.68.403-.438" stroke-width=".902"/><path d="m133.77 129.24.445-.547" stroke-width=".882"/><path d="m134.21 128.7.406-.547" stroke-width=".847"/><path d="m134.62 128.15.324-.546" stroke-width=".793"/><path d="m134.94 127.6.243-.512" stroke-width=".728"/><path d="m135.18 127.09.164-.438" stroke-width=".638"/><path d="m135.35 126.65.082-.398" stroke-width=".413"/><path d="M132.75 126.32v.403" stroke-width=".759"/><path d="m132.75 126.73.082.293" stroke-width=".808"/><path d="m132.84 127.02.16.398" stroke-width=".847"/><path d="m133 127.42.203.367" stroke-width=".876"/><path d="m133.2 127.78.242.438" stroke-width=".899"/><path d="m133.44 128.22.247.398" stroke-width=".909"/><path d="m133.69 128.62.281.438m-.001.002.242.367" stroke-width=".911"/><path d="m134.21 129.43.285.363" stroke-width=".9"/><path d="m134.5 129.79.242.363" stroke-width=".835"/><path d="m134.74 130.15.242.293" stroke-width=".679"/><path d="m134.98 130.44.286.364" stroke-width=".102"/><path d="m135.27 130.81.242.257" stroke-width=".07"/><path d="m249.57 101.78-.121.289" stroke-width=".725"/><path d="m249.44 102.07-.121.367" stroke-width=".757"/><path d="m249.32 102.44-.16.547" stroke-width=".792"/><path d="m249.16 102.99-.164.731" stroke-width=".818"/><path d="m249 103.72-.16.801" stroke-width=".834"/><path d="m248.84 104.52-.164.91" stroke-width=".842"/><path d="m248.68 105.43-.039.84" stroke-width=".844"/><path d="M248.64 106.27v.8m0 0 .121.657m-.001.003.203.437" stroke-width=".846"/><path d="m248.96 108.16.324.367" stroke-width=".838"/><path d="m249.28 108.53.363.219" stroke-width=".826"/><path d="m249.65 108.75.407.07" stroke-width=".816"/><path d="m250.06 108.82.445.039" stroke-width=".79"/><path d="m250.5 108.86.445-.148" stroke-width=".749"/><path d="m250.94 108.71.489-.219" stroke-width=".72"/><path d="m251.43 108.49.402-.219" stroke-width=".684"/><path d="m251.84 108.27.324-.328" stroke-width=".626"/><path d="m252.16 107.94.324-.218" stroke-width=".532"/><path d="m252.48 107.73.286-.508" stroke-width=".07"/><path d="M247.59 105h4.945" stroke-width=".64"/><path d="m255 109.15-.078-.363" stroke-width=".853"/><path d="m254.92 108.78.039-.582" stroke-width=".869"/><path d="m254.96 108.2.039-.328" stroke-width=".87"/><path d="m255 107.88.043-.512" stroke-width=".875"/><path d="m255.04 107.36.039-.328" stroke-width=".885"/><path d="M255.08 107.04v.438m0-.008-.039.328m-.001.002v.328m0 .002-.082.473" stroke-width=".886"/><path d="M254.96 108.6v-.582" stroke-width=".956"/><path d="m254.96 108.02.082-.364" stroke-width=".957"/><path d="m255.04 107.66.16-.328m0-.002.164-.367m-.004-.003.16-.328M255.52 106.63l.165-.254" stroke-width=".956"/><path d="m255.69 106.38.281-.438" stroke-width=".953"/><path d="m255.97 105.94.285-.218" stroke-width=".952"/><path d="m256.25 105.72.363-.11" stroke-width=".941"/><path d="m256.62 105.61.324.403" stroke-width=".931"/><path d="m256.94 106.02.082.328" stroke-width=".93"/><path d="m257.02 106.34.082.328" stroke-width=".931"/><path d="m257.1 106.67.079.437m.001.003.043.399m.007.001.039.586" stroke-width=".93"/><path d="m257.27 108.09.043-.477" stroke-width=".975"/><path d="m257.31 107.62.16-.328" stroke-width=".97"/><path d="m257.47 107.29.121-.363" stroke-width=".965"/><path d="m257.59 106.93.164-.293" stroke-width=".96"/><path d="m257.75 106.63.16-.289" stroke-width=".954"/><path d="m257.91 106.34.164-.293" stroke-width=".948"/><path d="m258.08 106.05.324-.184" stroke-width=".939"/><path d="m258.4 105.87.325.039" stroke-width=".934"/><path d="m258.73 105.91.281.254" stroke-width=".936"/><path d="m259.01 106.16.121.402m-.001-.002.082.547m-.002.003v.329" stroke-width=".935"/><path d="M259.21 107.44v.363" stroke-width=".931"/><path d="M259.21 107.8v.328" stroke-width=".879"/><path d="m259.21 108.13.039.547" stroke-width=".563"/><path d="m259.25 108.68.285.109" stroke-width=".138"/><path d="m262.21 106.34-.164-.328" stroke-width=".788"/><path d="m262.05 106.02-.242-.184" stroke-width=".886"/><path d="m261.8 105.83-.446-.074" stroke-width=".927"/><path d="m261.36 105.76-.324.293" stroke-width=".928"/><path d="m261.04 106.05-.242.582" stroke-width=".936"/><path d="m260.79 106.63-.082.367m.002.003-.082.398" stroke-width=".938"/><path d="m260.63 107.4-.039.586m-.001-.006.039.364" stroke-width=".941"/><path d="m260.63 108.35.324.183" stroke-width=".942"/><path d="m260.95 108.53.324-.219" stroke-width=".947"/><path d="m261.28 108.31.243-.257" stroke-width=".949"/><path d="m261.52 108.06.164-.289m-.004-.001.16-.328m0-.002.164-.329M262.01 107.11l.203-.476" stroke-width=".952"/><path d="m262.21 106.63.203.328m-.003.002.039.367m.001.003.039.328" stroke-width=".972"/><path d="m262.49 107.66.082.582" stroke-width=".973"/><path d="m262.57 108.24.16.403" stroke-width=".935"/><path d="m262.73 108.64.286.144" stroke-width=".823"/><path d="m263.02 108.78.445-.293" stroke-width=".49"/><path d="m263.46 108.49.285-.289" stroke-width=".07"/><path d="m264.56 109.66 2.433-3.465" stroke-width=".891"/><path d="M265 107.44v.398" stroke-width=".733"/><path d="M265 107.84v.328" stroke-width=".798"/><path d="m265 108.16.082.367" stroke-width=".833"/><path d="m265.09 108.53.164.438m-.004.002.242.363" stroke-width=".844"/><path d="m265.49 109.33.281.402" stroke-width=".838"/><path d="m265.77 109.73.407.364" stroke-width=".759"/><path d="m266.18 110.1.609.511" stroke-width=".517"/><path d="m266.79 110.61.262.219" stroke-width=".294"/><path d="m267.05 110.83.265.219" stroke-width=".07"/><path d="m372.74 101.2-.324.219" stroke-width=".692"/><path d="m372.42 101.42-.203.586" stroke-width=".723"/><path d="m372.22 102-.078.398" stroke-width=".769"/><path d="m372.14 102.4-.121.547" stroke-width=".809"/><path d="m372.02 102.95-.125.66" stroke-width=".839"/><path d="m371.89 103.61-.121.727" stroke-width=".856"/><path d="m371.77 104.34-.079.73" stroke-width=".869"/><path d="m371.69 105.07-.082.731m.002-.001v.617m0-.007.039.547" stroke-width=".876"/><path d="m371.65 106.96.164.367m-.004.003.243.219m.007.001.285.109m-.005.001.402.035" stroke-width=".879"/><path d="m372.74 107.69.367-.074" stroke-width=".877"/><path d="m373.11 107.62.403-.179" stroke-width=".871"/><path d="m373.51 107.44.445-.293" stroke-width=".846"/><path d="m373.96 107.14.406-.364" stroke-width=".806"/><path d="m374.36 106.78.325-.402" stroke-width=".745"/><path d="m374.69 106.38.242-.438" stroke-width=".67"/><path d="m374.93 105.94.121-.363" stroke-width=".508"/><path d="M375.05 105.58v-.437" stroke-width=".21"/><path d="m375.05 105.14-.039-.329" stroke-width=".07"/><path d="M370.12 103.78h4.305" stroke-width=".503"/><path d="m376.8 107.18-.082-.399" stroke-width=".679"/><path d="M376.72 106.78v-.586" stroke-width=".711"/><path d="M376.72 106.2v-.472" stroke-width=".736"/><path d="m376.72 105.72-.203.437" stroke-width=".761"/><path d="m376.51 106.16-.082.402" stroke-width=".769"/><path d="m376.43 106.56-.082.364" stroke-width=".776"/><path d="m376.35 106.93-.039.328" stroke-width=".782"/><path d="m376.31 107.25-.082.328" stroke-width=".787"/><path d="m376.23 107.58-.079.328" stroke-width=".795"/><path d="m376.15 107.91.122-.512" stroke-width=".91"/><path d="m376.27 107.4.203-.328m-.003-.002.16-.363m0 .003.203-.402M376.84 106.3l.242-.364m-.002.004.121-.328" stroke-width=".911"/><path d="m377.2 105.61.164-.293" stroke-width=".91"/><path d="m377.36 105.32.242-.437" stroke-width=".908"/><path d="m377.6 104.88.243-.254" stroke-width=".903"/><path d="m377.85 104.63.406-.219" stroke-width=".875"/><path d="m378.25 104.41.324.145" stroke-width=".849"/><path d="m378.58 104.56.285.367M378.86 104.92l.078.289m.002.001.082.293m-.002-.003.039.363" stroke-width=".847"/><path d="m379.06 105.87.043.328m-.003.002v.512" stroke-width=".85"/><path d="M379.1 106.71v.402" stroke-width=".87"/><path d="M379.1 107.11v-.367m0-.003.122-.437" stroke-width=".926"/><path d="m379.23 106.3.203-.438" stroke-width=".925"/><path d="m379.43 105.87.203-.472" stroke-width=".923"/><path d="m379.63 105.4.242-.329" stroke-width=".922"/><path d="m379.88 105.07.363-.218" stroke-width=".908"/><path d="m380.24 104.85.367.183" stroke-width=".901"/><path d="m380.6 105.03.325.508" stroke-width=".898"/><path d="m380.93 105.54.16.367m0 .003.082.328" stroke-width=".896"/><path d="m381.17 106.23.039.328" stroke-width=".892"/><path d="m381.21 106.56.082.329" stroke-width=".881"/><path d="m381.29 106.89.039.437" stroke-width=".816"/><path d="m381.33 107.33.164.328" stroke-width=".385"/><path d="m383.77 105.18-.368-.328" stroke-width=".922"/><path d="m383.4 104.85-.281-.11" stroke-width=".965"/><path d="m383.12 104.74-.324.219m-.006.001-.164.254" stroke-width=".97"/><path d="m382.63 105.21-.16.402m0-.002-.082.438" stroke-width=".973"/><path d="m382.39 106.05-.082.472" stroke-width=".97"/><path d="m382.3 106.52-.039.438" stroke-width=".969"/><path d="m382.27 106.96.039.367" stroke-width=".96"/><path d="m382.3 107.33.203.363" stroke-width=".936"/><path d="m382.51 107.69.324.036m-.004.004.324-.399m.006-.001.164-.367m-.004-.003.16-.399m0-.001.122-.402" stroke-width=".934"/><path d="m383.6 106.16.121-.363m-.001.003.082-.293m-.002-.007.082-.328" stroke-width=".932"/><path d="m383.89 105.18.039.512" stroke-width=".962"/><path d="m383.93 105.69.039.546" stroke-width=".963"/><path d="m383.96 106.23.082.328" stroke-width=".962"/><path d="m384.05 106.56.367.254" stroke-width=".813"/><path d="m384.41 106.82.301-.035" stroke-width=".651"/><path d="m384.72 106.78.305-.039" stroke-width=".488"/><path d="m385.02 106.74.324-.109" stroke-width=".07"/><path d="m385.67 108.35.406-.328" stroke-width=".863"/><path d="m386.07 108.02.324-.329m.006-.001.282-.437m-.002-.003.285-.438" stroke-width=".864"/><path d="m386.96 106.82.242-.437" stroke-width=".855"/><path d="m387.21 106.38.164-.402" stroke-width=".832"/><path d="m387.37 105.98.16-.364" stroke-width=".787"/><path d="m387.53 105.61.121-.328" stroke-width=".743"/><path d="m387.65 105.28.246-.621" stroke-width=".477"/><path d="M386.36 103.97v.328" stroke-width=".646"/><path d="M386.36 104.3v.328" stroke-width=".727"/><path d="M386.36 104.63v.437" stroke-width=".79"/><path d="m386.36 105.07.043.438" stroke-width=".829"/><path d="m386.4 105.5.161.512" stroke-width=".849"/><path d="m386.56 106.02.121.472" stroke-width=".865"/><path d="m386.68 106.49.246.438m.004.002.203.363m-.003-.003.199.293" stroke-width=".876"/><path d="m387.33 107.58.246.293" stroke-width=".85"/><path d="m387.57 107.88.281.437" stroke-width=".687"/><path d="m387.86 108.31.204.329" stroke-width=".458"/><path d="m388.06 108.64.203.254" stroke-width=".07"/></g></g></svg>