<svg width="496.43" height="225.89" xml:space="preserve" xmlns="http://www.w3.org/2000/svg"><defs><clipPath id="a"><path d="M0 0h595v841H0z"/></clipPath></defs><g clip-path="url(#a)" fill="none" stroke-linecap="round" stroke-linejoin="round" stroke-miterlimit="10" transform="translate(-92.882 -25.317) scale(1.3333)"><g stroke="#000"><path d="M84.156 28.645v155.37" stroke-width=".85"/><path d="M84.379 113.59h89.301" stroke-width=".937"/><path d="m171.21 111.92.363.074" stroke-width=".824"/><path d="m171.57 112 .285.109" stroke-width=".833"/><path d="m171.86 112.1.282.11" stroke-width=".838"/><path d="m172.14 112.22.324.219m-.004-.009.242.179" stroke-width=".843"/><path d="m172.7 112.61.246.184m.004.006.281.183m-.001-.003.489.29" stroke-width=".845"/><path d="m173.72 113.27.324.218" stroke-width=".846"/><path d="m174.04 113.49.203.293" stroke-width=".897"/><path d="m174.25 113.78-.125.438" stroke-width=".947"/><path d="m174.12 114.22-.199.472" stroke-width=".948"/><path d="m173.92 114.69-.164.258" stroke-width=".953"/><path d="m173.76 114.95-.281.508" stroke-width=".958"/><path d="m173.48 115.46-.247.477" stroke-width=".962"/><path d="m173.23 115.93-.242.398" stroke-width=".964"/><path d="m172.99 116.33-.203.367" stroke-width=".97"/><path d="m172.78 116.7-.324.254" stroke-width=".971"/><path d="M172.46 116.95h-.363" stroke-width=".739"/><path d="m172.1 116.95-.325-.035" stroke-width=".114"/><path d="m177.65 119.07-.039.438" stroke-width=".795"/><path d="m177.61 119.51-.043.398" stroke-width=".815"/><path d="M177.57 119.91v.438" stroke-width=".828"/><path d="M177.57 120.34v.511" stroke-width=".841"/><path d="m177.57 120.86-.039.622" stroke-width=".847"/><path d="M177.53 121.48v.617" stroke-width=".849"/><path d="M177.53 122.09v.621m0 .009v.656" stroke-width=".852"/><path d="M177.53 123.37v.582m0-.002.039.547m.001.003.164.512" stroke-width=".854"/><path d="m177.73 125.01.161.476m-.001.004.242.399" stroke-width=".855"/><path d="m178.13 125.89.203.293" stroke-width=".853"/><path d="m178.34 126.18.324.293" stroke-width=".841"/><path d="m178.66 126.47.324.035" stroke-width=".838"/><path d="m178.98 126.51.528-.184" stroke-width=".837"/><path d="m179.51 126.32.285-.219" stroke-width=".817"/><path d="m179.8 126.1.281-.253" stroke-width=".785"/><path d="m180.08 125.85.285-.254" stroke-width=".748"/><path d="m180.36 125.6.242-.328" stroke-width=".69"/><path d="m180.6 125.27.165-.258" stroke-width=".623"/><path d="m180.77 125.01.16-.289" stroke-width=".467"/><path d="m180.93 124.72.082-.293" stroke-width=".215"/><path d="m176.51 123.08.406-.254" stroke-width=".722"/><path d="M176.92 122.82h.488" stroke-width=".735"/><path d="M177.41 122.82h.567" stroke-width=".738"/><path d="M177.97 122.82h.648m.002 0 .688.074" stroke-width=".74"/><path d="m179.31 122.9.73.071" stroke-width=".69"/><path d="m180.04 122.97.688.109" stroke-width=".577"/><path d="m180.73 123.08.425-.016" stroke-width=".375"/><path d="m181.15 123.06.426-.019" stroke-width=".172"/><path d="m181.58 123.04.688-.035" stroke-width=".07"/><path d="m80.281 32.574.449-.144" stroke-width=".822"/><path d="m80.73 32.43.282-.293" stroke-width=".845"/><path d="m81.012 32.137.324-.403" stroke-width=".859"/><path d="m81.336 31.734.164-.254" stroke-width=".863"/><path d="m81.5 31.48.16-.253" stroke-width=".866"/><path d="m81.66 31.227.164-.293" stroke-width=".877"/><path d="m81.824 30.934.16-.329" stroke-width=".883"/><path d="m81.984 30.605.164-.257" stroke-width=".888"/><path d="m82.148 30.348.243-.473" stroke-width=".899"/><path d="m82.391 29.875.16-.293" stroke-width=".903"/><path d="m82.551 29.582.164-.254" stroke-width=".907"/><path d="m82.715 29.328.242-.328m0 0 .285-.254" stroke-width=".91"/><path d="m83.242 28.746.324-.258" stroke-width=".918"/><path d="m83.566 28.488.2.293" stroke-width=".922"/><path d="m83.766 28.781.246.364" stroke-width=".923"/><path d="m84.012 29.145.281.328m0 0 .324.437" stroke-width=".927"/><path d="m84.617 29.91.285.438m0 0 .243.437m0 0 .242.477m0 0 .285.328" stroke-width=".93"/><path d="m85.672 31.59.285.219" stroke-width=".932"/><path d="m85.957 31.809.324.328" stroke-width=".931"/><path d="m86.281 32.137.242.183" stroke-width=".889"/><path d="m86.523 32.32.161.473" stroke-width=".487"/><path d="M74.207 26.375h-.367" stroke-width=".854"/><path d="M73.84 26.375h.324" stroke-width=".857"/><path d="m74.164 26.375.648.109" stroke-width=".858"/><path d="m74.812 26.484.364.184m0 0 .406.144m0 0 .324.219m0 0 .285.219m0 0 .204.254m0 0 .16.328M76.555 27.832l.121.293m0 0v.402" stroke-width=".86"/><path d="m76.676 28.527-.039.364m0 0-.121.328m0 0-.164.363" stroke-width=".861"/><path d="m76.352 29.582-.282.258m0 0-.367.289" stroke-width=".863"/><path d="m75.703 30.129-.324.183m0 0-.402.219m0 0-.325.219" stroke-width=".864"/><path d="m74.652 30.75-.285.109" stroke-width=".863"/><path d="m74.367 30.859-.406.219" stroke-width=".798"/><path d="m78.742 25.754-.402-.07" stroke-width=".766"/><path d="m78.34 25.684-.367.254" stroke-width=".79"/><path d="m77.973 25.938-.243.253" stroke-width=".8"/><path d="m77.73 26.191-.285.368" stroke-width=".811"/><path d="m77.445 26.559-.242.398" stroke-width=".819"/><path d="m77.203 26.957-.285.477" stroke-width=".831"/><path d="m76.918 27.434-.16.507m0 0-.164.512" stroke-width=".837"/><path d="m76.594 28.453-.078.473m0 0-.043.437m0 0 .082.367M76.555 29.73l.082.29" stroke-width=".84"/><path d="m76.637 30.02.281.257" stroke-width=".836"/><path d="m76.918 30.277.367.18" stroke-width=".835"/><path d="m77.285 30.457.406.148" stroke-width=".829"/><path d="m77.691 30.605.485.11" stroke-width=".818"/><path d="M78.176 30.715h.445" stroke-width=".794"/><path d="m78.621 30.715.445-.039" stroke-width=".763"/><path d="m79.066 30.676.407-.071" stroke-width=".717"/><path d="m79.473 30.605.324-.109" stroke-width=".654"/><path d="m79.797 30.496.484-.328" stroke-width=".427"/><path d="M74.363 28.152h3.399" stroke-width=".718"/><path d="M212.62 28.434v155.79" stroke-width=".85"/><path d="M212.84 113.38h89.305" stroke-width=".937"/><path d="m299.67 111.71.367.074" stroke-width=".824"/><path d="m300.04 111.78.281.11" stroke-width=".833"/><path d="m300.32 111.9.286.109" stroke-width=".838"/><path d="m300.6 112 .324.219m.006.001.242.179" stroke-width=".843"/><path d="m301.17 112.4.242.184m-.002.006.285.184m.005-.004.485.289" stroke-width=".845"/><path d="m302.18 113.06.324.218" stroke-width=".846"/><path d="m302.5 113.28.203.293" stroke-width=".897"/><path d="m302.71 113.57-.121.438" stroke-width=".947"/><path d="m302.59 114.01-.203.472" stroke-width=".948"/><path d="m302.38 114.48-.16.258" stroke-width=".953"/><path d="m302.22 114.74-.285.508" stroke-width=".958"/><path d="m301.94 115.25-.243.477" stroke-width=".962"/><path d="m301.7 115.72-.242.398" stroke-width=".964"/><path d="m301.45 116.12-.203.367" stroke-width=".97"/><path d="m301.25 116.49-.324.254" stroke-width=".971"/><path d="M300.93 116.74h-.364" stroke-width=".739"/><path d="m300.56 116.74-.324-.035" stroke-width=".114"/><path d="m306.11 118.86-.043.438" stroke-width=".795"/><path d="m306.07 119.3-.039.398" stroke-width=".815"/><path d="M306.03 119.7v.438" stroke-width=".828"/><path d="M306.03 120.13v.512" stroke-width=".841"/><path d="m306.03 120.64-.043.621" stroke-width=".847"/><path d="M305.99 121.27v.617" stroke-width=".849"/><path d="M305.99 121.88v.621m0-.001v.656" stroke-width=".852"/><path d="M305.99 123.16v.586m0 .004.043.547m-.003-.007.16.508" stroke-width=".854"/><path d="m306.19 124.8.164.476m.006.004.243.399" stroke-width=".855"/><path d="m306.6 125.68.203.293" stroke-width=".853"/><path d="m306.8 125.97.324.293" stroke-width=".841"/><path d="m307.12 126.26.324.035" stroke-width=".838"/><path d="m307.45 126.3.528-.184" stroke-width=".837"/><path d="m307.98 126.11.281-.218" stroke-width=".817"/><path d="m308.26 125.9.285-.254" stroke-width=".785"/><path d="m308.54 125.64.285-.254" stroke-width=".748"/><path d="m308.83 125.39.242-.328" stroke-width=".69"/><path d="m309.07 125.06.16-.258" stroke-width=".623"/><path d="m309.23 124.8.165-.289" stroke-width=".467"/><path d="m309.4 124.51.078-.293" stroke-width=".215"/><path d="m304.98 122.87.406-.254" stroke-width=".722"/><path d="M305.38 122.61h.484" stroke-width=".735"/><path d="M305.87 122.61h.571" stroke-width=".738"/><path d="M306.44 122.61h.648m.002 0 .687.075" stroke-width=".74"/><path d="m307.77 122.69.731.07" stroke-width=".69"/><path d="m308.5 122.76.687.109" stroke-width=".577"/><path d="m309.19 122.87.426-.015" stroke-width=".375"/><path d="m309.62 122.85.426-.02" stroke-width=".172"/><path d="m310.04 122.83.687-.035" stroke-width=".07"/><path d="m208.75 32.363.445-.144" stroke-width=".822"/><path d="m209.19 32.219.286-.293" stroke-width=".845"/><path d="m209.48 31.926.324-.403" stroke-width=".859"/><path d="m209.8 31.523.16-.253" stroke-width=".863"/><path d="m209.96 31.27.164-.254" stroke-width=".866"/><path d="m210.12 31.016.16-.293" stroke-width=".877"/><path d="m210.28 30.723.164-.328" stroke-width=".883"/><path d="m210.45 30.395.16-.258" stroke-width=".888"/><path d="m210.61 30.137.243-.473" stroke-width=".899"/><path d="m210.85 29.664.164-.293" stroke-width=".903"/><path d="m211.02 29.371.16-.254" stroke-width=".907"/><path d="m211.18 29.117.246-.328m-.006 0 .281-.254" stroke-width=".91"/><path d="m211.7 28.535.324-.258" stroke-width=".918"/><path d="m212.03 28.277.203.293" stroke-width=".922"/><path d="m212.23 28.57.243.364" stroke-width=".923"/><path d="m212.47 28.934.285.328m.005 0 .324.437" stroke-width=".927"/><path d="m213.08 29.699.285.438m.005 0 .242.441m-.002 0 .243.473m-.003 0 .285.328" stroke-width=".93"/><path d="m214.14 31.379.281.219" stroke-width=".932"/><path d="m214.42 31.598.324.328" stroke-width=".931"/><path d="m214.74 31.926.242.183" stroke-width=".889"/><path d="m214.98 32.109.164.473" stroke-width=".487"/><path d="M340.09 28.105v155.14" stroke-width=".85"/><path d="M340.31 113.05h89.301" stroke-width=".937"/><path d="m427.14 111.38.363.074" stroke-width=".824"/><path d="m427.5 111.46.285.109" stroke-width=".833"/><path d="m427.79 111.57.281.11" stroke-width=".838"/><path d="m428.07 111.68.325.219m.005.001.242.179" stroke-width=".843"/><path d="m428.64 112.07.246.184m-.006.006.281.183m-.001-.003.488.289" stroke-width=".845"/><path d="m429.65 112.73.325.219" stroke-width=".846"/><path d="m429.98 112.95.203.293" stroke-width=".897"/><path d="m430.18 113.24-.121.438" stroke-width=".947"/><path d="m430.06 113.68-.204.472" stroke-width=".948"/><path d="m429.86 114.15-.164.258" stroke-width=".953"/><path d="m429.69 114.41-.281.508" stroke-width=".958"/><path d="m429.41 114.92-.246.477" stroke-width=".962"/><path d="m429.16 115.4-.242.398" stroke-width=".964"/><path d="m428.92 115.79-.203.367" stroke-width=".97"/><path d="m428.72 116.16-.324.254" stroke-width=".971"/><path d="M428.4 116.41h-.364" stroke-width=".739"/><path d="m428.03 116.41-.324-.035" stroke-width=".114"/><path d="m433.58 118.53-.039.438" stroke-width=".795"/><path d="m433.54 118.97-.043.398" stroke-width=".815"/><path d="M433.5 119.37v.438" stroke-width=".828"/><path d="M433.5 119.8v.511" stroke-width=".841"/><path d="m433.5 120.32-.039.622" stroke-width=".847"/><path d="M433.46 120.94v.617" stroke-width=".849"/><path d="M433.46 121.56v.621m0-.001v.656" stroke-width=".852"/><path d="M433.46 122.83v.582m0-.002.039.551m.001-.001.164.508" stroke-width=".854"/><path d="m433.66 124.47.16.476m0 .004.242.399" stroke-width=".855"/><path d="m434.07 125.35.204.293" stroke-width=".853"/><path d="m434.27 125.64.324.293" stroke-width=".841"/><path d="m434.59 125.93.324.035" stroke-width=".838"/><path d="m434.92 125.97.527-.184" stroke-width=".837"/><path d="m435.44 125.78.285-.219" stroke-width=".817"/><path d="m435.73 125.57.282-.254" stroke-width=".785"/><path d="m436.01 125.31.285-.253" stroke-width=".748"/><path d="m436.3 125.06.242-.329" stroke-width=".69"/><path d="m436.54 124.73.164-.257" stroke-width=".623"/><path d="m436.7 124.47.16-.289" stroke-width=".467"/><path d="m436.86 124.18.082-.293" stroke-width=".215"/><path d="m432.45 122.54.403-.254" stroke-width=".722"/><path d="M432.85 122.28h.488" stroke-width=".735"/><path d="M433.34 122.28h.566" stroke-width=".738"/><path d="M433.91 122.28h.649m.001 0 .687.074" stroke-width=".74"/><path d="m435.24 122.36.731.071" stroke-width=".69"/><path d="m435.97 122.43.687.109" stroke-width=".577"/><path d="m436.66 122.54.426-.016" stroke-width=".375"/><path d="m437.09 122.52.426-.019" stroke-width=".172"/><path d="m437.51 122.5.687-.035" stroke-width=".07"/><path d="m336.22 32.035.449-.144" stroke-width=".822"/><path d="m336.66 31.891.281-.293" stroke-width=".845"/><path d="m336.94 31.598.325-.403" stroke-width=".859"/><path d="m337.27 31.195.164-.254" stroke-width=".863"/><path d="m337.43 30.941.16-.253" stroke-width=".866"/><path d="m337.59 30.688.164-.293" stroke-width=".877"/><path d="m337.76 30.395.16-.329" stroke-width=".883"/><path d="m337.92 30.066.164-.257" stroke-width=".888"/><path d="m338.08 29.809.242-.473" stroke-width=".899"/><path d="m338.32 29.336.16-.293" stroke-width=".903"/><path d="m338.48 29.043.164-.254" stroke-width=".907"/><path d="m338.65 28.789.243-.328m-.003 0 .285-.254" stroke-width=".91"/><path d="m339.18 28.207.324-.258" stroke-width=".918"/><path d="m339.5 27.949.199.293" stroke-width=".922"/><path d="m339.7 28.242.246.363" stroke-width=".923"/><path d="m339.94 28.605.282.329m.008 0 .324.437" stroke-width=".927"/><path d="m340.55 29.371.285.438m.005 0 .242.437m-.002 0 .242.477m-.002 0 .285.328" stroke-width=".93"/><path d="m341.6 31.051.286.219" stroke-width=".932"/><path d="m341.89 31.27.324.328" stroke-width=".931"/><path d="m342.22 31.598.242.183" stroke-width=".889"/><path d="m342.46 31.781.16.473" stroke-width=".487"/><path d="m202.41 25.098.121.402" stroke-width=".751"/><path d="m202.53 25.5.203.363" stroke-width=".774"/><path d="m202.73 25.863.243.512" stroke-width=".796"/><path d="m202.97 26.375.324.512" stroke-width=".821"/><path d="m203.3 26.887.242.547" stroke-width=".84"/><path d="m203.54 27.434.203.546" stroke-width=".854"/><path d="m203.74 27.98.242.508" stroke-width=".864"/><path d="m203.98 28.488.164.438" stroke-width=".87"/><path d="m204.15 28.926.122.402" stroke-width=".882"/><path d="m204.27 29.328.121.293" stroke-width=".887"/><path d="m204.39 29.621.082.438" stroke-width=".895"/><path d="m204.47 30.059.121.437" stroke-width=".898"/><path d="m204.59 30.496.121.363" stroke-width=".901"/><path d="m204.72 30.859.281-.254" stroke-width=".945"/><path d="m205 30.605.367-.476" stroke-width=".948"/><path d="m205.36 30.129.242-.399m-.002 0 .325-.476m.005 0 .285-.547m.005 0 .281-.547" stroke-width=".951"/><path d="m206.5 28.16.203-.547m-.003 0 .121-.508m-.001 0 .121-.476m-.001 0v-.399" stroke-width=".952"/><path d="m206.94 26.23.043-.367" stroke-width=".956"/><path d="M206.98 25.863v-.508m0 0v-.328" stroke-width=".955"/><path d="m206.98 25.027.078-.293" stroke-width=".934"/><path d="m331.09 24.625-.121-.363" stroke-width=".874"/><path d="m330.97 24.262-.242-.293" stroke-width=".912"/><path d="m330.73 23.969-.407-.328" stroke-width=".948"/><path d="m330.32 23.641-.324-.149" stroke-width=".964"/><path d="m330 23.492-.285-.109" stroke-width=".984"/><path d="m329.71 23.383-.402-.11" stroke-width=".992"/><path d="m329.31 23.273-.407-.035" stroke-width=".996"/><path d="M328.9 23.238h-.363m.003 0-.406.035m-.004 0-.285.149" stroke-width="1.001"/><path d="m327.85 23.422-.403.398m-.007 0-.164.368m.004 0-.121.363" stroke-width="1.003"/><path d="m327.16 24.551-.082.511m.002 0-.039.512m-.001 0v.582" stroke-width="1.002"/><path d="m327.04 26.156.121.582" stroke-width="1.001"/><path d="m327.16 26.738.203.547" stroke-width=".998"/><path d="m327.36 27.285.282.512" stroke-width=".99"/><path d="m327.64 27.797.367.402" stroke-width=".985"/><path d="m328.01 28.199.242.289" stroke-width=".975"/><path d="m328.25 28.488.285.219" stroke-width=".965"/><path d="m328.54 28.707.445.148" stroke-width=".963"/><path d="m328.98 28.855.364-.183" stroke-width=".974"/><path d="m329.35 28.672.242-.219" stroke-width=".978"/><path d="m329.59 28.453.121-.328" stroke-width=".987"/><path d="m329.71 28.125.164-.363m.006 0 .16-.367m0 0 .125-.438" stroke-width=".99"/><path d="m330.16 26.957.078-.437m.002 0 .121-.438m-.001 0 .125-.398m-.005 0 .121-.403" stroke-width=".992"/><path d="m330.6 25.281.122-.293m.008 0 .121-.289m-.001 0 .121-.328" stroke-width=".993"/><path d="m330.97 24.371.121.289" stroke-width=".996"/><path d="m331.09 24.66.164.328m-.004 0 .203.367m.007 0 .242.399" stroke-width=".997"/><path d="m331.7 25.754.281.402m-.001 0 .247.364"/><path d="m332.23 26.52.242.292m-.002 0 .242.254" stroke-width=".996"/><path d="m332.71 27.066.445.329m.005 0 .406.148" stroke-width=".997"/><path d="m333.56 27.543.446.035" stroke-width=".999"/><path d="m334.01 27.578.527-.035" stroke-width=".983"/><path d="m334.54 27.543.485-.039" stroke-width=".692"/></g><g stroke="#00c0ff"><path d="m85.145 113.02 14.871-27.532" stroke-width=".837"/><path d="M213.51 56.191h12.879" stroke-width=".955"/><path d="M340.37 113h13.594" stroke-width=".994"/><path d="M99.922 112.81V85.708" stroke-dasharray="0.5, 3" stroke-width=".883"/><path d="M227.23 57.227v53.777" stroke-dasharray="0.5, 3" stroke-width=".875"/><path d="m100.22 119.25-.367.219" stroke-width=".942"/><path d="m99.852 119.47-.161.328" stroke-width=".946"/><path d="m99.691 119.8-.164.437" stroke-width=".957"/><path d="m99.527 120.23-.199.512" stroke-width=".961"/><path d="m99.328 120.75-.203.621" stroke-width=".966"/><path d="m99.125 121.37-.121.692" stroke-width=".973"/><path d="m99.004 122.06-.164.691" stroke-width=".975"/><path d="m98.84 122.75-.082.695m0-.005-.078.657m0 .003v.621" stroke-width=".978"/><path d="m98.68 124.72.039.547m0 .003.16.472m0-.002.203.403" stroke-width=".98"/><path d="m99.082 126.14.246.328" stroke-width=".979"/><path d="m99.328 126.47.242.179" stroke-width=".97"/><path d="m99.57 126.65.282.11" stroke-width=".954"/><path d="m99.852 126.76.324.039" stroke-width=".929"/><path d="m100.18 126.8.324-.11" stroke-width=".903"/><path d="m100.5 126.69.406-.257" stroke-width=".859"/><path d="m100.91 126.43.406-.364" stroke-width=".749"/><path d="m101.31 126.07.282-.511" stroke-width=".535"/><path d="m101.59 125.56.125-.364" stroke-width=".303"/><path d="m101.72 125.2.121-.363" stroke-width=".071"/><path d="m101.84 124.83.16-.551" stroke-width=".07"/><path d="M97.422 122.2h3.805" stroke-width=".744"/><path d="m103.06 129.46-.121-.328" stroke-width=".941"/><path d="m102.93 129.13.078-.582" stroke-width=".944"/><path d="m103.01 128.55.043-.328m.007-.002.039-.368" stroke-width=".947"/><path d="m103.09 127.86.082-.546m.008-.004.039-.364m.001-.006v-.328" stroke-width=".95"/><path d="M103.22 126.62v-.328" stroke-width=".951"/><path d="m103.22 126.29.285-.144" stroke-width=".95"/><path d="m103.5 126.14.324-.04m-.004 0 .406-.07m.004.01.524-.148" stroke-width=".951"/><path d="m104.75 125.89.367-.145m.003-.005.527-.293" stroke-width=".954"/><path d="m105.65 125.45.325-.219" stroke-width=".942"/><path d="m227.73 118.78-.324.254" stroke-width=".852"/><path d="m227.41 119.03-.164.403" stroke-width=".873"/><path d="m227.24 119.43-.16.582" stroke-width=".891"/><path d="m227.08 120.02-.164.656" stroke-width=".9"/><path d="m226.92 120.67-.16.766" stroke-width=".906"/><path d="m226.76 121.44-.082.804" stroke-width=".912"/><path d="m226.68 122.24-.082.766" stroke-width=".913"/><path d="m226.59 123.01-.039.691m.009-.001v.621M226.56 124.32l.078.547m-.008.003.164.363m.006-.003.16.258" stroke-width=".918"/><path d="m226.96 125.49.246.18" stroke-width=".911"/><path d="m227.2 125.67.445.109m.005.001.282-.109m-.002-.001.246-.219" stroke-width=".904"/><path d="m228.18 125.45.281-.328" stroke-width=".896"/><path d="m228.46 125.12.203-.398" stroke-width=".882"/><path d="m228.66 124.72.164-.368" stroke-width=".849"/><path d="m228.82 124.36.078-.328" stroke-width=".796"/><path d="m228.9 124.03.121-.328" stroke-width=".713"/><path d="m229.02 123.7.043-.328" stroke-width=".589"/><path d="m229.07 123.37.082-.473" stroke-width=".391"/><path d="m229.15 122.9.04-.402" stroke-width=".07"/><path d="M225.18 121.59h3.402" stroke-width=".608"/><path d="m230.69 130.26.039-.438" stroke-width=".898"/><path d="m230.73 129.82.082-.289" stroke-width=".916"/><path d="m230.81 129.54.082-.328" stroke-width=".923"/><path d="m230.89 129.21.078-.402" stroke-width=".928"/><path d="m230.97 128.8.082-.438" stroke-width=".934"/><path d="m231.05 128.37.039-.437" stroke-width=".939"/><path d="m231.09 127.93.082-.438m-.002-.002.043-.437m.007.007v-.403" stroke-width=".945"/><path d="m231.22 126.65.039-.363" stroke-width=".949"/><path d="M231.25 126.29v-.582m0 .002.039-.328" stroke-width=".948"/><path d="M231.29 125.38h.445" stroke-width=".939"/><path d="m231.74 125.38.407.07m-.007 0h.406" stroke-width=".94"/><path d="m232.55 125.45.484-.035" stroke-width=".889"/><path d="m233.04 125.41.387-.074" stroke-width=".665"/><path d="m233.42 125.34.383-.07" stroke-width=".44"/><path d="m233.8 125.27.449-.149" stroke-width=".07"/><path d="m354.43 98.355-.242.477" stroke-width=".821"/><path d="m354.19 98.832-.043.438" stroke-width=".84"/><path d="m354.14 99.27-.04.546" stroke-width=".86"/><path d="m354.1 99.816-.043.618" stroke-width=".872"/><path d="m354.06 100.43-.039.621" stroke-width=".875"/><path d="M354.02 101.06v.621m0-.001v.582" stroke-width=".883"/><path d="M354.02 102.26v.472" stroke-width=".884"/><path d="M354.02 102.73v.442" stroke-width=".885"/><path d="m354.02 103.17.082.289" stroke-width=".886"/><path d="m354.1 103.46.161.258" stroke-width=".885"/><path d="m354.27 103.72.445.289" stroke-width=".876"/><path d="m354.71 104.01.367.109" stroke-width=".874"/><path d="M355.08 104.12h.363" stroke-width=".853"/><path d="M355.44 104.12h.407" stroke-width=".822"/><path d="m355.85 104.12.324-.07" stroke-width=".778"/><path d="m356.17 104.05.324-.074" stroke-width=".716"/><path d="m356.5 103.97.363-.219" stroke-width=".551"/><path d="m356.86 103.75.121-.363" stroke-width=".07"/><path d="M352.32 101.67h3.641" stroke-width=".652"/><path d="m359.74 107.73.121-.289" stroke-width=".824"/><path d="m359.86 107.44.079-.477" stroke-width=".84"/><path d="m359.94 106.96.042-.328" stroke-width=".85"/><path d="m359.98 106.63.082-.617" stroke-width=".862"/><path d="M360.06 106.02v-.512" stroke-width=".877"/><path d="m360.06 105.5-.042-.363" stroke-width=".885"/><path d="m360.02 105.14-.204-.368" stroke-width=".887"/><path d="m359.82 104.77.164-.253" stroke-width=".84"/><path d="m359.98 104.52.407-.11" stroke-width=".852"/><path d="m360.39 104.41.281-.109" stroke-width=".853"/><path d="m360.67 104.3.406-.11" stroke-width=".788"/><path d="M361.07 104.19h.528" stroke-width=".529"/><path d="M361.6 104.19h.363" stroke-width=".186"/><path d="M361.96 104.19h.363" stroke-width=".07"/></g><g stroke="#0f0"><path d="m99.73 86.215-.16-.328" stroke-width=".633"/><path d="m99.57 85.887.121-.367" stroke-width=".665"/><path d="m99.691 85.52.161-.364" stroke-width=".679"/><path d="m99.852 85.156.367-.437" stroke-width=".697"/><path d="m100.22 84.719.242-.219" stroke-width=".719"/><path d="m100.46 84.5.203-.293" stroke-width=".738"/><path d="m100.66 84.207.242-.363" stroke-width=".76"/><path d="m100.91 83.844.324-.364" stroke-width=".774"/><path d="m101.23 83.48.286-.402" stroke-width=".782"/><path d="m101.52 83.078.363-.437" stroke-width=".79"/><path d="m101.88 82.641.363-.403" stroke-width=".795"/><path d="m102.24 82.238.367-.437" stroke-width=".797"/><path d="m102.61 81.801.403-.438" stroke-width=".802"/><path d="m103.01 81.363.449-.402m.001 0 .484-.438" stroke-width=".804"/><path d="m103.94 80.523.489-.437m.001 0 .484-.398" stroke-width=".806"/><path d="m104.92 79.688.445-.403m-.005 0 .489-.402m.001 0 .484-.399m.006 0 .445-.402M106.78 78.082l.489-.437m.001 0 .484-.403m-.004 0 .527-.437m.003 0 .485-.399" stroke-width=".808"/><path d="m108.77 76.406.445-.367m-.005 0 .406-.289m.004 0 .406-.293m-.006 0 .286-.219m.004 0 .324-.218m-.004 0 .242-.219m.008 0 .242-.219m-.002 0 .242-.184" stroke-width=".81"/><path d="m111.36 74.398.286-.218m-.006 0 .281-.219" stroke-width=".812"/><path d="m111.93 73.961.324-.219m-.004 0 .406-.254m.004 0 .406-.258M113.06 73.23l.407-.289m.003 0 .445-.257" stroke-width=".808"/><path d="m113.91 72.684.484-.329" stroke-width=".81"/><path d="m114.4 72.355.446-.253m-.006 0 .445-.293" stroke-width=".811"/><path d="m115.29 71.809.367-.219m.003 0 .324-.219m-.004 0 .325-.219m-.005 0 .445-.289" stroke-width=".809"/><path d="m116.75 70.863.445-.258M117.2 70.605l.528-.253m-.008 0 .324-.145m.006 0 .363-.184m-.003 0 .406-.183" stroke-width=".811"/><path d="m118.82 69.84.407-.219" stroke-width=".81"/><path d="m119.22 69.621.402-.254" stroke-width=".811"/><path d="m119.62 69.367.406-.219m.004 0 .407-.183" stroke-width=".812"/><path d="m120.44 68.965.402-.18m-.002 0 .406-.219m.004 0 .406-.183m-.006 0 .407-.145m.003 0 .402-.218M122.46 68.02l.367-.149m.003 0 .363-.144m-.003 0 .325-.145" stroke-width=".811"/><path d="m123.52 67.582.363-.148m-.003 0 .367-.11" stroke-width=".809"/><path d="m124.25 67.324.324-.179m-.004 0 .364-.184m-.004 0 .324-.184" stroke-width=".81"/><path d="m125.26 66.777.363-.218" stroke-width=".811"/><path d="m125.62 66.559.367-.145m.003 0 .282-.148m-.002 0 .324-.145m-.004 0 .527-.219" stroke-width=".812"/><path d="m127.12 65.902.488-.218m.002 0 .325-.11" stroke-width=".811"/><path d="m127.93 65.574.281-.183m.009 0 .406-.18m-.006 0 .324-.219m-.004 0 .325-.183m.005 0 .324-.184M129.59 64.625l.445-.254" stroke-width=".812"/><path d="m130.04 64.371.406-.219m-.006 0 .446-.218" stroke-width=".814"/><path d="m130.89 63.934.484-.219" stroke-width=".846"/><path d="m131.38 63.715.488-.293m-.008 0 .242-.18" stroke-width=".858"/><path d="m132.1 63.242.325-.183m.005 0 .363-.219m-.003 0 .367-.145m.003 0 .402-.148M133.56 62.547l.407-.18m.003 0 .406-.109m.004 0 .406-.149m-.006 0 .403-.144" stroke-width=".861"/><path d="m135.18 61.965.285-.145m.005 0 .324-.148" stroke-width=".864"/><path d="m135.79 61.672.406-.18" stroke-width=".861"/><path d="m136.2 61.492.403-.148m-.003 0 .449-.145" stroke-width=".862"/><path d="m137.05 61.199.484-.183m.006 0 .285-.11m-.005 0 .282-.109m-.002 0 .285-.109m.005 0 .281-.145m-.001 0 .285-.109" stroke-width=".864"/><path d="m138.95 60.434.485-.219" stroke-width=".865"/><path d="m139.44 60.215.367-.145m-.007 0 .363-.109" stroke-width=".863"/><path d="m140.17 59.961.406-.149" stroke-width=".864"/><path d="m140.57 59.812.61-.144m0 0 .32-.074" stroke-width=".865"/><path d="m141.5 59.594.324-.11m.006 0 .285-.109m-.005 0 .285-.109M142.4 59.266l.403-.145" stroke-width=".863"/><path d="m142.8 59.121.367-.109m.003 0 .402-.11" stroke-width=".864"/><path d="m143.57 58.902.45-.109m0 0 .324-.074m-.004 0 .566-.145" stroke-width=".863"/><path d="m144.91 58.574.528-.148" stroke-width=".864"/><path d="m145.44 58.426.445-.145m-.005 0 .324-.109" stroke-width=".863"/><path d="m146.21 58.172.402-.074" stroke-width=".864"/><path d="m146.61 58.098.407-.11m.003 0 .406-.035" stroke-width=".863"/><path d="m147.42 57.953.445-.109" stroke-width=".865"/><path d="m147.87 57.844.324-.074" stroke-width=".864"/><path d="m148.19 57.77.325-.071" stroke-width=".865"/><path d="m148.52 57.699.324-.074" stroke-width=".864"/><path d="m148.84 57.625.363-.074m-.003 0 .367-.035" stroke-width=".863"/><path d="m149.57 57.516.403-.036" stroke-width=".864"/><path d="m149.97 57.48.527-.039m.003 0 .445-.035" stroke-width=".863"/><path d="m150.94 57.406.325-.074" stroke-width=".864"/><path d="M151.27 57.332h.406" stroke-width=".862"/><path d="m151.68 57.332.527-.035" stroke-width=".861"/><path d="M152.2 57.297h.324" stroke-width=".86"/><path d="M152.53 57.297h.407" stroke-width=".859"/><path d="m152.93 57.297.402-.035m.008 0h.324" stroke-width=".858"/><path d="m153.66 57.262.406-.039" stroke-width=".856"/><path d="M154.07 57.223h.325m-.005 0 .324-.071m.006 0 .406-.039m-.006 0 .402-.07" stroke-width=".855"/><path d="m155.52 57.043.407-.074" stroke-width=".852"/><path d="M155.93 56.969h.445" stroke-width=".849"/><path d="M156.38 56.969h.367" stroke-width=".848"/><path d="m156.74 56.969.281.183" stroke-width=".07"/><path d="m226.31 57.188 57.336 55.39" stroke-width=".786"/><path d="M353.54 156.89h57.492" stroke-width=".954"/><g stroke-dasharray="0.5, 3"><path d="M156.45 113.71V57.3" stroke-width=".88"/><path d="M411.84 156.52v-42.422" stroke-width=".907"/><path d="M354.1 155.68v-42.227" stroke-width=".89"/></g><path d="m406.33 95.949-.281.438" stroke-width=".855"/><path d="m406.05 96.387-.125.476" stroke-width=".873"/><path d="m405.93 96.863-.121.657" stroke-width=".887"/><path d="m405.8 97.52-.121.8" stroke-width=".897"/><path d="m405.68 98.32-.161.875" stroke-width=".901"/><path d="m405.52 99.195-.082.91" stroke-width=".903"/><path d="m405.44 100.1-.082.915m.002.005-.039.765m-.001-.005.039.692" stroke-width=".906"/><path d="m405.36 102.48.203.585" stroke-width=".903"/><path d="m405.56 103.06.243.438" stroke-width=".895"/><path d="m405.8 103.5.324.328" stroke-width=".875"/><path d="m406.13 103.83.445.18" stroke-width=".851"/><path d="m406.57 104.01.449.074" stroke-width=".812"/><path d="m407.02 104.08.485-.144" stroke-width=".749"/><path d="m407.51 103.94.566-.258" stroke-width=".68"/><path d="m408.07 103.68.528-.438" stroke-width=".503"/><path d="m408.6 103.24.566-.73" stroke-width=".221"/><path d="m409.17 102.51.406-.617" stroke-width=".07"/><path d="M403.66 99.766h4.293" stroke-width=".603"/><path d="m411.23 107.62-.039-.398" stroke-width=".696"/><path d="M411.2 107.22v-.696" stroke-width=".759"/><path d="M411.2 106.52v-.398" stroke-width=".79"/><path d="m411.2 106.12.039-.402" stroke-width=".828"/><path d="m411.23 105.72.043-.403" stroke-width=".86"/><path d="m411.28 105.32.039-.398" stroke-width=".885"/><path d="m411.32 104.92.039-.512" stroke-width=".933"/><path d="M411.36 104.41v-.363" stroke-width=".973"/><path d="m411.36 104.05.286-.293m-.006-.007.445-.219" stroke-width=".975"/><path d="m412.09 103.54.285-.183" stroke-width=".977"/><path d="m412.37 103.35.324-.145" stroke-width=".971"/><path d="m412.7 103.21.282-.184" stroke-width=".903"/><path d="m412.98 103.02.406-.218" stroke-width=".571"/><path d="M419.31 104.64v-8.329" stroke-width=".728"/><path d="M416.46 100.03h5.184" stroke-width=".658"/><path d="m429.18 95.293-.282.254" stroke-width=".818"/><path d="m428.9 95.547-.121.402" stroke-width=".854"/><path d="m428.78 95.949-.121.621" stroke-width=".877"/><path d="m428.66 96.57-.164.766" stroke-width=".891"/><path d="m428.5 97.336-.121.91" stroke-width=".897"/><path d="m428.38 98.246-.082.949" stroke-width=".898"/><path d="m428.29 99.195-.082.91m.002-.005v.875" stroke-width=".902"/><path d="m428.21 100.98.125.805" stroke-width=".9"/><path d="m428.34 101.78.16.656" stroke-width=".896"/><path d="m428.5 102.44.242.473" stroke-width=".881"/><path d="m428.74 102.91.324.293" stroke-width=".867"/><path d="m429.06 103.21.325.145" stroke-width=".858"/><path d="m429.39 103.35.367-.036" stroke-width=".844"/><path d="m429.75 103.32.402-.218" stroke-width=".824"/><path d="m430.16 103.1.406-.403" stroke-width=".756"/><path d="m430.56 102.7.407-.547" stroke-width=".68"/><path d="m430.97 102.15.324-.621" stroke-width=".525"/><path d="m431.29 101.53.281-.726" stroke-width=".36"/><path d="m431.57 100.8.164-.586" stroke-width=".07"/><path d="m426.51 99.23.203-.253" stroke-width=".888"/><path d="m426.72 98.977.605-.075" stroke-width=".924"/><path d="m427.32 98.902.446-.035" stroke-width=".934"/><path d="M427.77 98.867h.406" stroke-width=".937"/><path d="M428.17 98.867h.445m.005 0h.406" stroke-width=".94"/><path d="m429.02 98.867.407.035" stroke-width=".897"/><path d="M429.43 98.902h.402" stroke-width=".767"/><path d="m429.83 98.902.57.039" stroke-width=".429"/><path d="M430.4 98.941h.485" stroke-width=".07"/><path d="m433.96 101.53-.203.403" stroke-width=".876"/><path d="m433.76 101.93-.078.363" stroke-width=".885"/><path d="m433.68 102.29-.043.437" stroke-width=".887"/><path d="m433.64 102.73-.079.586" stroke-width=".888"/><path d="m433.56 103.32-.082.622m.002-.002-.082.617" stroke-width=".891"/><path d="m433.4 104.56-.039.621" stroke-width=".888"/><path d="M433.36 105.18v.547" stroke-width=".88"/><path d="M433.36 105.72v.511" stroke-width=".868"/><path d="m433.36 106.23.121.399" stroke-width=".849"/><path d="m433.48 106.63.161.328" stroke-width=".82"/><path d="m433.64 106.96.203.293" stroke-width=".784"/><path d="m433.84 107.25.242.184" stroke-width=".736"/><path d="m434.09 107.44.285.109" stroke-width=".699"/><path d="m434.37 107.55.285.109" stroke-width=".665"/><path d="m434.66 107.66.324-.039" stroke-width=".614"/><path d="m434.98 107.62.282-.109" stroke-width=".533"/><path d="m435.26 107.51.324-.18" stroke-width=".447"/><path d="m435.59 107.33.367-.437" stroke-width=".247"/><path d="m435.95 106.89.242-.403" stroke-width=".07"/><path d="m431.9 103.9.325-.035" stroke-width=".848"/><path d="m432.22 103.86.527.11" stroke-width=".879"/><path d="m432.75 103.97.488.109" stroke-width=".892"/><path d="m433.24 104.08.485.074" stroke-width=".902"/><path d="m433.72 104.16.406-.039" stroke-width=".896"/><path d="m434.13 104.12.445-.07" stroke-width=".717"/><path d="m434.57 104.05.364-.149" stroke-width=".467"/><path d="m434.94 103.9.367-.144" stroke-width=".07"/><path d="m273.27 119.1-.325.512" stroke-width=".708"/><path d="m272.94 119.62-.199.473" stroke-width=".738"/><path d="m272.75 120.09-.164.621" stroke-width=".77"/><path d="m272.58 120.71-.16.727" stroke-width=".797"/><path d="m272.42 121.44-.164.839" stroke-width=".814"/><path d="m272.26 122.28-.039.84" stroke-width=".823"/><path d="m272.22 123.12-.043.836m.003-.006v.805" stroke-width=".826"/><path d="m272.18 124.76.121.73m-.001 0 .164.617" stroke-width=".831"/><path d="m272.46 126.1.203.477" stroke-width=".829"/><path d="m272.66 126.58.242.328" stroke-width=".828"/><path d="m272.91 126.91.285.219" stroke-width=".816"/><path d="m273.19 127.13.282.109" stroke-width=".8"/><path d="M273.47 127.24h.324" stroke-width=".753"/><path d="m273.8 127.24.406-.109" stroke-width=".686"/><path d="m274.2 127.13.406-.219" stroke-width=".556"/><path d="m274.61 126.91.528-.547" stroke-width=".268"/><path d="m275.14 126.36.445-.547" stroke-width=".07"/><path d="m271.57 122.75.446.184" stroke-width=".788"/><path d="m272.02 122.93.527.144" stroke-width=".807"/><path d="m272.54 123.08.363.039" stroke-width=".815"/><path d="m272.91 123.12.364.035m-.004-.005h.445" stroke-width=".817"/><path d="m273.72 123.15.406-.035" stroke-width=".793"/><path d="m274.12 123.12.445-.074" stroke-width=".719"/><path d="m274.57 123.04.489-.145" stroke-width=".544"/><path d="m275.06 122.9.566-.148" stroke-width=".222"/><path d="m275.62 122.75.484-.145" stroke-width=".07"/><path d="m276.51 128.99.043-.328m.007-.002.078-.293" stroke-width=".983"/><path d="m276.63 128.37.082-.328M276.72 128.04l.082-.363m-.002.003.082-.367m-.002-.003.121-.364" stroke-width=".988"/><path d="m277 126.94.039-.363" stroke-width=".989"/><path d="m277.04 126.58.039-.328m.001-.002.082-.512" stroke-width=".991"/><path d="m277.16 125.74.242-.363" stroke-width=".98"/><path d="M277.4 125.38h.407" stroke-width=".973"/><path d="M277.81 125.38h.488" stroke-width=".949"/><path d="M278.3 125.38h.523" stroke-width=".881"/><path d="M278.82 125.38h.325" stroke-width=".801"/><path d="M279.14 125.38h.324" stroke-width=".629"/><path d="M279.47 125.38h.324" stroke-width=".456"/><path d="m284.86 120.53-.203.254" stroke-width=".907"/><path d="M284.66 120.78v.438" stroke-width=".921"/><path d="m284.66 121.22-.039.621" stroke-width=".929"/><path d="m284.62 121.84-.082.691m.002-.001-.082.766m-.008.004-.039.765" stroke-width=".934"/><path d="m284.41 124.06-.082.696" stroke-width=".928"/><path d="M284.33 124.76v.621" stroke-width=".901"/><path d="M284.33 125.38v.547" stroke-width=".847"/><path d="M284.33 125.93v.363" stroke-width=".747"/><path d="m284.33 126.29.164.293" stroke-width=".238"/><path d="m282.51 124.06 4.5-.617" stroke-width=".938"/><path d="m290.21 118.89-.203.254" stroke-width=".752"/><path d="m290 119.14-.039.367" stroke-width=".793"/><path d="m289.96 119.51-.082.437" stroke-width=".829"/><path d="m289.88 119.94-.082.547" stroke-width=".858"/><path d="m289.8 120.49-.121.617" stroke-width=".881"/><path d="m289.68 121.11-.121.696" stroke-width=".902"/><path d="m289.56 121.8-.121.726" stroke-width=".91"/><path d="m289.44 122.53-.122.731" stroke-width=".915"/><path d="m289.32 123.26-.082.691m-.008-.001-.082.586" stroke-width=".918"/><path d="m289.15 124.54-.039.512m-.001-.002.121.363" stroke-width=".921"/><path d="m289.23 125.41.204.254" stroke-width=".909"/><path d="m289.44 125.67.324.109" stroke-width=".895"/><path d="m289.76 125.78.445.075" stroke-width=".855"/><path d="M290.21 125.85h.445" stroke-width=".794"/><path d="m290.65 125.85.567-.145" stroke-width=".714"/><path d="m291.22 125.71.57-.219" stroke-width=".616"/><path d="m291.79 125.49.484-.258" stroke-width=".49"/><path d="m292.27 125.23.446-.363" stroke-width=".306"/><path d="m292.72 124.87.324-.254" stroke-width=".07"/><path d="m289.11 122.06 3.282.437" stroke-width=".872"/><path d="m296.49 124.03-.082.403" stroke-width=".835"/><path d="m296.41 124.43-.082.402" stroke-width=".861"/><path d="m296.32 124.83-.121.508" stroke-width=".885"/><path d="m296.2 125.34-.121.656" stroke-width=".903"/><path d="m296.08 126-.121.656" stroke-width=".914"/><path d="m295.96 126.65-.121.696m.001.004-.121.617" stroke-width=".926"/><path d="m295.72 127.96-.082.586m.002.004-.039.508m-.001.002v.476" stroke-width=".927"/><path d="m295.6 129.54.16.328" stroke-width=".914"/><path d="m295.76 129.86.203.289" stroke-width=".874"/><path d="m295.96 130.15.324.184" stroke-width=".801"/><path d="m296.28 130.34.406.074" stroke-width=".694"/><path d="m296.69 130.41.649-.109" stroke-width=".44"/><path d="m297.34 130.3.527-.219" stroke-width=".07"/><path d="M294.71 128.1h3.848" stroke-width=".754"/><path d="m150.3 119.18-.281.437" stroke-width=".918"/><path d="m150.02 119.62-.082.547" stroke-width=".942"/><path d="m149.93 120.16-.082.691" stroke-width=".96"/><path d="m149.85 120.86-.122.84" stroke-width=".969"/><path d="m149.73 121.7-.16.91" stroke-width=".977"/><path d="m149.57 122.6-.082.875m.002.005-.082.875" stroke-width=".979"/><path d="m149.41 124.36-.039.766m-.001-.006.121.656" stroke-width=".981"/><path d="m149.49 125.78.203.547" stroke-width=".972"/><path d="m149.69 126.32.282.367" stroke-width=".959"/><path d="m149.97 126.69.367.219" stroke-width=".934"/><path d="m150.34 126.91.402.07" stroke-width=".909"/><path d="M150.74 126.98h.488" stroke-width=".869"/><path d="m151.23 126.98.485-.179" stroke-width=".802"/><path d="m151.72 126.8.488-.258" stroke-width=".703"/><path d="m152.2 126.54.567-.508" stroke-width=".495"/><path d="m152.77 126.04.203-.238" stroke-width=".283"/><path d="m152.97 125.8.203-.238" stroke-width=".07"/><path d="m148.6 123.23 4.254-.258" stroke-width=".842"/><path d="M155.28 129.46v-.547" stroke-width=".729"/><path d="m155.28 128.91.043-.363" stroke-width=".762"/><path d="m155.32 128.55.078-.403" stroke-width=".787"/><path d="m155.4 128.15.043-.363" stroke-width=".817"/><path d="m155.44 127.78.039-.367" stroke-width=".847"/><path d="m155.48 127.42.039-.508" stroke-width=".885"/><path d="M155.52 126.91h.325" stroke-width=".888"/><path d="m155.85 126.91.324.07" stroke-width=".89"/><path d="m156.17 126.98.445-.035" stroke-width=".881"/><path d="m156.62 126.94.488-.293" stroke-width=".818"/><path d="m157.1 126.65.243-.254" stroke-width=".738"/><path d="m157.35 126.4.242-.328" stroke-width=".579"/><path d="m157.59 126.07.285-.328" stroke-width=".308"/><path d="m157.88 125.74.285-.254" stroke-width=".07"/><path d="M161.36 126.22v-6.016" stroke-width=".781"/><path d="m160.3 122.79.285-.293" stroke-width=".855"/><path d="m160.59 122.5.363-.109m-.003-.001.367-.075m.003-.005.446-.035m.004.005.406-.035" stroke-width=".863"/><path d="M162.17 122.24h.402" stroke-width=".822"/><path d="m162.57 122.24.367.11" stroke-width=".714"/><path d="m162.94 122.35.524.218" stroke-width=".438"/><path d="m163.46 122.57.367.18" stroke-width=".07"/><path d="m167.07 119.29-.203.547" stroke-width=".799"/><path d="m166.87 119.84-.164.398" stroke-width=".858"/><path d="m166.71 120.23-.16.547" stroke-width=".895"/><path d="m166.55 120.78-.242.696" stroke-width=".922"/><path d="m166.3 121.48-.246.765" stroke-width=".939"/><path d="m166.06 122.24-.161.836" stroke-width=".945"/><path d="m165.9 123.08-.164.84m-.006 0-.039.805m.009-.005.082.726" stroke-width=".95"/><path d="m165.78 125.45.161.586m-.001.004.242.473" stroke-width=".953"/><path d="m166.18 126.51.406.328" stroke-width=".943"/><path d="m166.59 126.84.406.184" stroke-width=".924"/><path d="m166.99 127.02.528.035" stroke-width=".887"/><path d="m167.52 127.06.527-.11" stroke-width=".821"/><path d="m168.05 126.94.523-.218" stroke-width=".711"/><path d="m168.57 126.73.489-.403" stroke-width=".522"/><path d="m169.06 126.32.445-.656" stroke-width=".224"/><path d="m169.5 125.67.324-.582" stroke-width=".07"/><path d="M164.68 122.89h3.117" stroke-width=".624"/><path d="M170.56 125.89v.367" stroke-width=".802"/><path d="M170.56 126.25v.398" stroke-width=".84"/><path d="m170.56 126.65-.043.547" stroke-width=".875"/><path d="M170.52 127.2v.621" stroke-width=".899"/><path d="m170.52 127.82-.039.692" stroke-width=".91"/><path d="m170.48 128.51-.039.695" stroke-width=".912"/><path d="m170.44 129.21-.043.656m.003-.006v.582" stroke-width=".916"/><path d="m170.4 130.44.121.438" stroke-width=".913"/><path d="m170.52 130.88.121.328" stroke-width=".9"/><path d="m170.64 131.21.246.219" stroke-width=".867"/><path d="m170.88 131.43.324.074" stroke-width=".819"/><path d="M171.21 131.5h.324" stroke-width=".748"/><path d="m171.53 131.5.364-.149" stroke-width=".668"/><path d="m171.9 131.36.363-.218" stroke-width=".501"/><path d="m172.26 131.14.445-.399" stroke-width=".271"/><path d="m172.7 130.74.367-.402" stroke-width=".07"/><path d="m168.94 128.22.324.109" stroke-width=".902"/><path d="m169.26 128.33.324.109" stroke-width=".911"/><path d="m169.59 128.44.402.071" stroke-width=".919"/><path d="m169.99 128.51.45.039" stroke-width=".924"/><path d="m170.44 128.55.445.035m-.005.005.445-.035" stroke-width=".925"/><path d="m171.33 128.55.324-.039" stroke-width=".922"/><path d="m171.65 128.51.325-.071" stroke-width=".88"/><path d="m171.98 128.44.527-.148" stroke-width=".406"/></g></g></svg>