<?xml version="1.0" encoding="UTF-8"?>
<svg width="532.89" height="225.89" version="1.1" viewBox="0 0 532.89 225.89" xml:space="preserve" xmlns="http://www.w3.org/2000/svg"><defs><clipPath id="clipPath4885"><path d="m0 0h595v841h-595z"/></clipPath></defs><g transform="matrix(1.3333 0 0 1.3333 -73.914 -25.317)"><g clip-path="url(#clipPath4885)" fill="none" stroke-linecap="round" stroke-linejoin="round" stroke-miterlimit="10"><g stroke="#000"><path d="m84.156 28.645v155.37" stroke-width=".85"/><path d="m84.379 113.59h89.301" stroke-width=".93715"/><path d="m171.21 111.92 0.363 0.074" stroke-width=".8243"/><path d="m171.57 112 0.285 0.109" stroke-width=".83256"/><path d="m171.86 112.1 0.282 0.11" stroke-width=".83841"/><path d="m172.14 112.22 0.324 0.219" stroke-width=".84254"/><path d="m172.46 112.43 0.242 0.179" stroke-width=".84254"/><g stroke-width=".8453"><path d="m172.7 112.61 0.246 0.184"/><path d="m172.95 112.8 0.281 0.183"/><path d="m173.23 112.98 0.489 0.29"/></g><path d="m173.72 113.27 0.324 0.218" stroke-width=".84564"/><path d="m174.04 113.49 0.203 0.293" stroke-width=".89661"/><path d="m174.25 113.78-0.125 0.438" stroke-width=".94687"/><path d="m174.12 114.22-0.199 0.472" stroke-width=".9479"/><path d="m173.92 114.69-0.164 0.258" stroke-width=".95307"/><path d="m173.76 114.95-0.281 0.508" stroke-width=".95754"/><path d="m173.48 115.46-0.247 0.477" stroke-width=".96167"/><path d="m173.23 115.93-0.242 0.398" stroke-width=".96443"/><path d="m172.99 116.33-0.203 0.367" stroke-width=".96961"/><path d="m172.78 116.7-0.324 0.254" stroke-width=".97064"/><path d="m172.46 116.95h-0.363" stroke-width=".73856"/><path d="m172.1 116.95-0.325-0.035" stroke-width=".11431"/><path d="m177.65 119.07-0.039 0.438" stroke-width=".7947"/><path d="m177.61 119.51-0.043 0.398" stroke-width=".81466"/><path d="m177.57 119.91v0.438" stroke-width=".82774"/><path d="m177.57 120.34v0.511" stroke-width=".84117"/><path d="m177.57 120.86-0.039 0.622" stroke-width=".84668"/><path d="m177.53 121.48v0.617" stroke-width=".84874"/><path d="m177.53 122.09v0.621" stroke-width=".8515"/><path d="m177.53 122.72v0.656" stroke-width=".85184"/><g stroke-width=".8539"><path d="m177.53 123.37v0.582"/><path d="m177.53 123.95 0.039 0.547"/><path d="m177.57 124.5 0.164 0.512"/></g><path d="m177.73 125.01 0.161 0.476" stroke-width=".85528"/><path d="m177.89 125.49 0.242 0.399" stroke-width=".85528"/><path d="m178.13 125.89 0.203 0.293" stroke-width=".85253"/><path d="m178.34 126.18 0.324 0.293" stroke-width=".84082"/><path d="m178.66 126.47 0.324 0.035" stroke-width=".83772"/><path d="m178.98 126.51 0.528-0.184" stroke-width=".83738"/><path d="m179.51 126.32 0.285-0.219" stroke-width=".81742"/><path d="m179.8 126.1 0.281-0.253" stroke-width=".78538"/><path d="m180.08 125.85 0.285-0.254" stroke-width=".74751"/><path d="m180.36 125.6 0.242-0.328" stroke-width=".68966"/><path d="m180.6 125.27 0.165-0.258" stroke-width=".62253"/><path d="m180.77 125.01 0.16-0.289" stroke-width=".46655"/><path d="m180.93 124.72 0.082-0.293" stroke-width=".21519"/><path d="m176.51 123.08 0.406-0.254" stroke-width=".72204"/><path d="m176.92 122.82h0.488" stroke-width=".73478"/><path d="m177.41 122.82h0.567" stroke-width=".73788"/><path d="m177.97 122.82h0.648" stroke-width=".7396"/><path d="m178.62 122.82 0.688 0.074" stroke-width=".7396"/><path d="m179.31 122.9 0.73 0.071" stroke-width=".69"/><path d="m180.04 122.97 0.688 0.109" stroke-width=".57742"/><path d="m180.73 123.08 0.425-0.016" stroke-width=".37495"/><path d="m181.15 123.06 0.426-0.019" stroke-width=".17248"/><path d="m181.58 123.04 0.688-0.035" stroke-width=".0705"/><path d="m80.281 32.574 0.449-0.144" stroke-width=".82155"/><path d="m80.73 32.43 0.282-0.293" stroke-width=".84495"/><path d="m81.012 32.137 0.324-0.403" stroke-width=".85872"/><path d="m81.336 31.734 0.164-0.254" stroke-width=".86286"/><path d="m81.5 31.48 0.16-0.253" stroke-width=".86595"/><path d="m81.66 31.227 0.164-0.293" stroke-width=".87697"/><path d="m81.824 30.934 0.16-0.329" stroke-width=".88319"/><path d="m81.984 30.605 0.164-0.257" stroke-width=".88835"/><path d="m82.148 30.348 0.243-0.473" stroke-width=".89868"/><path d="m82.391 29.875 0.16-0.293" stroke-width=".90315"/><path d="m82.551 29.582 0.164-0.254" stroke-width=".9066"/><path d="M 82.715,29.328 82.957,29" stroke-width=".90969"/><path d="m82.957 29 0.285-0.254" stroke-width=".91038"/><path d="m83.242 28.746 0.324-0.258" stroke-width=".91795"/><path d="m83.566 28.488 0.2 0.293" stroke-width=".92243"/><path d="m83.766 28.781 0.246 0.364" stroke-width=".92277"/><path d="m84.012 29.145 0.281 0.328" stroke-width=".92656"/><path d="m84.293 29.473 0.324 0.437" stroke-width=".9269"/><path d="m84.617 29.91 0.285 0.438" stroke-width=".93"/><path d="m84.902 30.348 0.243 0.437" stroke-width=".93"/><path d="m85.145 30.785 0.242 0.477" stroke-width=".93035"/><path d="m85.387 31.262 0.285 0.328" stroke-width=".93035"/><path d="m85.672 31.59 0.285 0.219" stroke-width=".93207"/><path d="m85.957 31.809 0.324 0.328" stroke-width=".93138"/><path d="m86.281 32.137 0.242 0.183" stroke-width=".88904"/><path d="m86.523 32.32 0.161 0.473" stroke-width=".48652"/><path d="m74.207 26.375h-0.367" stroke-width=".85356"/><path d="m73.84 26.375h0.324" stroke-width=".857"/><path d="m74.164 26.375 0.648 0.109" stroke-width=".85769"/><g stroke-width=".8601"><path d="m74.812 26.484 0.364 0.184"/><path d="m75.176 26.668 0.406 0.144"/><path d="m75.582 26.812 0.324 0.219"/><path d="m75.906 27.031 0.285 0.219"/><path d="m76.191 27.25 0.204 0.254"/><path d="m76.395 27.504 0.16 0.328"/></g><path d="m76.555 27.832 0.121 0.293" stroke-width=".85976"/><path d="m76.676 28.125v0.402" stroke-width=".85976"/><g stroke-width=".86113"><path d="m76.676 28.527-0.039 0.364"/><path d="m76.637 28.891-0.121 0.328"/><path d="m76.516 29.219-0.164 0.363"/></g><path d="m76.352 29.582-0.282 0.258" stroke-width=".8632"/><path d="m76.07 29.84-0.367 0.289" stroke-width=".8632"/><g stroke-width=".86354"><path d="m75.703 30.129-0.324 0.183"/><path d="m75.379 30.312-0.402 0.219"/><path d="m74.977 30.531-0.325 0.219"/></g><path d="m74.652 30.75-0.285 0.109" stroke-width=".8632"/><path d="m74.367 30.859-0.406 0.219" stroke-width=".79779"/><path d="m78.742 25.754-0.402-0.07" stroke-width=".76645"/><path d="m78.34 25.684-0.367 0.254" stroke-width=".7902"/><path d="m77.973 25.938-0.243 0.253" stroke-width=".79952"/><path d="m77.73 26.191-0.285 0.368" stroke-width=".81053"/><path d="m77.445 26.559-0.242 0.398" stroke-width=".81914"/><path d="m77.203 26.957-0.285 0.477" stroke-width=".8305"/><path d="m76.918 27.434-0.16 0.507" stroke-width=".83669"/><path d="m76.758 27.941-0.164 0.512" stroke-width=".83738"/><g stroke-width=".84014"><path d="m76.594 28.453-0.078 0.473"/><path d="m76.516 28.926-0.043 0.437"/><path d="m76.473 29.363 0.082 0.367"/></g><path d="m76.555 29.73 0.082 0.29" stroke-width=".83979"/><path d="m76.637 30.02 0.281 0.257" stroke-width=".83566"/><path d="m76.918 30.277 0.367 0.18" stroke-width=".83532"/><path d="m77.285 30.457 0.406 0.148" stroke-width=".82912"/><path d="m77.691 30.605 0.485 0.11" stroke-width=".81845"/><path d="m78.176 30.715h0.445" stroke-width=".79366"/><path d="m78.621 30.715 0.445-0.039" stroke-width=".76266"/><path d="m79.066 30.676 0.407-0.071" stroke-width=".71722"/><path d="m79.473 30.605 0.324-0.109" stroke-width=".6542"/><path d="m79.797 30.496 0.484-0.328" stroke-width=".42729"/><path d="m74.363 28.152h3.399" stroke-width=".7182"/><path d="m212.62 28.434v155.79" stroke-width=".85"/><path d="m212.84 113.38h89.305" stroke-width=".93715"/><path d="m299.67 111.71 0.367 0.074" stroke-width=".8243"/><path d="m300.04 111.78 0.281 0.11" stroke-width=".83256"/><path d="m300.32 111.9 0.286 0.109" stroke-width=".83841"/><path d="m300.6 112 0.324 0.219" stroke-width=".84254"/><path d="m300.93 112.22 0.242 0.179" stroke-width=".84254"/><g stroke-width=".8453"><path d="m301.17 112.4 0.242 0.184"/><path d="m301.41 112.59 0.285 0.184"/><path d="m301.7 112.77 0.485 0.289"/></g><path d="m302.18 113.06 0.324 0.218" stroke-width=".84564"/><path d="m302.5 113.28 0.203 0.293" stroke-width=".89661"/><path d="m302.71 113.57-0.121 0.438" stroke-width=".94687"/><path d="m302.59 114.01-0.203 0.472" stroke-width=".9479"/><path d="m302.38 114.48-0.16 0.258" stroke-width=".95307"/><path d="m302.22 114.74-0.285 0.508" stroke-width=".95754"/><path d="m301.94 115.25-0.243 0.477" stroke-width=".96167"/><path d="m301.7 115.72-0.242 0.398" stroke-width=".96443"/><path d="m301.45 116.12-0.203 0.367" stroke-width=".96961"/><path d="m301.25 116.49-0.324 0.254" stroke-width=".97064"/><path d="m300.93 116.74h-0.364" stroke-width=".73856"/><path d="m300.56 116.74-0.324-0.035" stroke-width=".11431"/><path d="m306.11 118.86-0.043 0.438" stroke-width=".7947"/><path d="m306.07 119.3-0.039 0.398" stroke-width=".81466"/><path d="m306.03 119.7v0.438" stroke-width=".82774"/><path d="m306.03 120.13v0.512" stroke-width=".84117"/><path d="m306.03 120.64-0.043 0.621" stroke-width=".84668"/><path d="m305.99 121.27v0.617" stroke-width=".84874"/><path d="m305.99 121.88v0.621" stroke-width=".8515"/><path d="m305.99 122.5v0.656" stroke-width=".85184"/><g stroke-width=".8539"><path d="m305.99 123.16v0.586"/><path d="m305.99 123.75 0.043 0.547"/><path d="m306.03 124.29 0.16 0.508"/></g><path d="m306.19 124.8 0.164 0.476" stroke-width=".85528"/><path d="m306.36 125.28 0.243 0.399" stroke-width=".85528"/><path d="m306.6 125.68 0.203 0.293" stroke-width=".85253"/><path d="m306.8 125.97 0.324 0.293" stroke-width=".84082"/><path d="m307.12 126.26 0.324 0.035" stroke-width=".83772"/><path d="m307.45 126.3 0.528-0.184" stroke-width=".83738"/><path d="m307.98 126.11 0.281-0.218" stroke-width=".81742"/><path d="m308.26 125.9 0.285-0.254" stroke-width=".78538"/><path d="m308.54 125.64 0.285-0.254" stroke-width=".74751"/><path d="m308.83 125.39 0.242-0.328" stroke-width=".68966"/><path d="m309.07 125.06 0.16-0.258" stroke-width=".62253"/><path d="m309.23 124.8 0.165-0.289" stroke-width=".46655"/><path d="m309.4 124.51 0.078-0.293" stroke-width=".21519"/><path d="m304.98 122.87 0.406-0.254" stroke-width=".72204"/><path d="m305.38 122.61h0.484" stroke-width=".73478"/><path d="m305.87 122.61h0.571" stroke-width=".73788"/><path d="m306.44 122.61h0.648" stroke-width=".7396"/><path d="m307.09 122.61 0.687 0.075" stroke-width=".7396"/><path d="m307.77 122.69 0.731 0.07" stroke-width=".69"/><path d="m308.5 122.76 0.687 0.109" stroke-width=".57742"/><path d="m309.19 122.87 0.426-0.015" stroke-width=".37495"/><path d="m309.62 122.85 0.426-0.02" stroke-width=".17248"/><path d="m310.04 122.83 0.687-0.035" stroke-width=".0705"/><path d="m208.75 32.363 0.445-0.144" stroke-width=".82155"/><path d="m209.19 32.219 0.286-0.293" stroke-width=".84495"/><path d="m209.48 31.926 0.324-0.403" stroke-width=".85872"/><path d="m209.8 31.523 0.16-0.253" stroke-width=".86286"/><path d="m209.96 31.27 0.164-0.254" stroke-width=".86595"/><path d="m210.12 31.016 0.16-0.293" stroke-width=".87697"/><path d="m210.28 30.723 0.164-0.328" stroke-width=".88319"/><path d="m210.45 30.395 0.16-0.258" stroke-width=".88835"/><path d="m210.61 30.137 0.243-0.473" stroke-width=".89868"/><path d="m210.85 29.664 0.164-0.293" stroke-width=".90315"/><path d="m211.02 29.371 0.16-0.254" stroke-width=".9066"/><path d="m211.18 29.117 0.246-0.328" stroke-width=".90969"/><path d="m211.42 28.789 0.281-0.254" stroke-width=".91038"/><path d="m211.7 28.535 0.324-0.258" stroke-width=".91795"/><path d="m212.03 28.277 0.203 0.293" stroke-width=".92243"/><path d="m212.23 28.57 0.243 0.364" stroke-width=".92277"/><path d="m212.47 28.934 0.285 0.328" stroke-width=".92656"/><path d="m212.76 29.262 0.324 0.437" stroke-width=".9269"/><path d="m213.08 29.699 0.285 0.438" stroke-width=".93"/><path d="m213.37 30.137 0.242 0.441" stroke-width=".93"/><path d="m213.61 30.578 0.243 0.473" stroke-width=".93035"/><path d="m213.85 31.051 0.285 0.328" stroke-width=".93035"/><path d="m214.14 31.379 0.281 0.219" stroke-width=".93207"/><path d="m214.42 31.598 0.324 0.328" stroke-width=".93138"/><path d="m214.74 31.926 0.242 0.183" stroke-width=".88904"/><path d="m214.98 32.109 0.164 0.473" stroke-width=".48652"/><path d="m340.09 28.105v155.14" stroke-width=".85"/><path d="m340.31 113.05h89.301" stroke-width=".93715"/><path d="m427.14 111.38 0.363 0.074" stroke-width=".8243"/><path d="m427.5 111.46 0.285 0.109" stroke-width=".83256"/><path d="m427.79 111.57 0.281 0.11" stroke-width=".83841"/><path d="m428.07 111.68 0.325 0.219" stroke-width=".84254"/><path d="m428.4 111.9 0.242 0.179" stroke-width=".84254"/><g stroke-width=".8453"><path d="m428.64 112.07 0.246 0.184"/><path d="m428.88 112.26 0.281 0.183"/><path d="m429.16 112.44 0.488 0.289"/></g><path d="m429.65 112.73 0.325 0.219" stroke-width=".84564"/><path d="m429.98 112.95 0.203 0.293" stroke-width=".89661"/><path d="m430.18 113.24-0.121 0.438" stroke-width=".94687"/><path d="m430.06 113.68-0.204 0.472" stroke-width=".9479"/><path d="m429.86 114.15-0.164 0.258" stroke-width=".95307"/><path d="m429.69 114.41-0.281 0.508" stroke-width=".95754"/><path d="m429.41 114.92-0.246 0.477" stroke-width=".96167"/><path d="m429.16 115.4-0.242 0.398" stroke-width=".96443"/><path d="m428.92 115.79-0.203 0.367" stroke-width=".96961"/><path d="m428.72 116.16-0.324 0.254" stroke-width=".97064"/><path d="m428.4 116.41h-0.364" stroke-width=".73856"/><path d="m428.03 116.41-0.324-0.035" stroke-width=".11431"/><path d="m433.58 118.53-0.039 0.438" stroke-width=".7947"/><path d="m433.54 118.97-0.043 0.398" stroke-width=".81466"/><path d="m433.5 119.37v0.438" stroke-width=".82774"/><path d="m433.5 119.8v0.511" stroke-width=".84117"/><path d="m433.5 120.32-0.039 0.622" stroke-width=".84668"/><path d="m433.46 120.94v0.617" stroke-width=".84874"/><path d="m433.46 121.56v0.621" stroke-width=".8515"/><path d="m433.46 122.18v0.656" stroke-width=".85184"/><g stroke-width=".8539"><path d="m433.46 122.83v0.582"/><path d="m433.46 123.41 0.039 0.551"/><path d="m433.5 123.96 0.164 0.508"/></g><path d="m433.66 124.47 0.16 0.476" stroke-width=".85528"/><path d="m433.82 124.95 0.242 0.399" stroke-width=".85528"/><path d="m434.07 125.35 0.204 0.293" stroke-width=".85253"/><path d="m434.27 125.64 0.324 0.293" stroke-width=".84082"/><path d="m434.59 125.93 0.324 0.035" stroke-width=".83772"/><path d="m434.92 125.97 0.527-0.184" stroke-width=".83738"/><path d="m435.44 125.78 0.285-0.219" stroke-width=".81742"/><path d="m435.73 125.57 0.282-0.254" stroke-width=".78538"/><path d="m436.01 125.31 0.285-0.253" stroke-width=".74751"/><path d="m436.3 125.06 0.242-0.329" stroke-width=".68966"/><path d="m436.54 124.73 0.164-0.257" stroke-width=".62253"/><path d="m436.7 124.47 0.16-0.289" stroke-width=".46655"/><path d="m436.86 124.18 0.082-0.293" stroke-width=".21519"/><path d="m432.45 122.54 0.403-0.254" stroke-width=".72204"/><path d="m432.85 122.28h0.488" stroke-width=".73478"/><path d="m433.34 122.28h0.566" stroke-width=".73788"/><path d="m433.91 122.28h0.649" stroke-width=".7396"/><path d="m434.56 122.28 0.687 0.074" stroke-width=".7396"/><path d="m435.24 122.36 0.731 0.071" stroke-width=".69"/><path d="m435.97 122.43 0.687 0.109" stroke-width=".57742"/><path d="m436.66 122.54 0.426-0.016" stroke-width=".37495"/><path d="m437.09 122.52 0.426-0.019" stroke-width=".17248"/><path d="m437.51 122.5 0.687-0.035" stroke-width=".0705"/><path d="m336.22 32.035 0.449-0.144" stroke-width=".82155"/><path d="m336.66 31.891 0.281-0.293" stroke-width=".84495"/><path d="m336.94 31.598 0.325-0.403" stroke-width=".85872"/><path d="m337.27 31.195 0.164-0.254" stroke-width=".86286"/><path d="m337.43 30.941 0.16-0.253" stroke-width=".86595"/><path d="m337.59 30.688 0.164-0.293" stroke-width=".87697"/><path d="m337.76 30.395 0.16-0.329" stroke-width=".88319"/><path d="m337.92 30.066 0.164-0.257" stroke-width=".88835"/><path d="m338.08 29.809 0.242-0.473" stroke-width=".89868"/><path d="m338.32 29.336 0.16-0.293" stroke-width=".90315"/><path d="m338.48 29.043 0.164-0.254" stroke-width=".9066"/><path d="m338.65 28.789 0.243-0.328" stroke-width=".90969"/><path d="m338.89 28.461 0.285-0.254" stroke-width=".91038"/><path d="m339.18 28.207 0.324-0.258" stroke-width=".91795"/><path d="m339.5 27.949 0.199 0.293" stroke-width=".92243"/><path d="m339.7 28.242 0.246 0.363" stroke-width=".92277"/><path d="m339.94 28.605 0.282 0.329" stroke-width=".92656"/><path d="m340.23 28.934 0.324 0.437" stroke-width=".9269"/><path d="m340.55 29.371 0.285 0.438" stroke-width=".93"/><path d="m340.84 29.809 0.242 0.437" stroke-width=".93"/><path d="m341.08 30.246 0.242 0.477" stroke-width=".93035"/><path d="m341.32 30.723 0.285 0.328" stroke-width=".93035"/><path d="m341.6 31.051 0.286 0.219" stroke-width=".93207"/><path d="m341.89 31.27 0.324 0.328" stroke-width=".93138"/><path d="m342.22 31.598 0.242 0.183" stroke-width=".88904"/><path d="m342.46 31.781 0.16 0.473" stroke-width=".48652"/><path d="m202.41 25.098 0.121 0.402" stroke-width=".75096"/><path d="m202.53 25.5 0.203 0.363" stroke-width=".77402"/><path d="m202.73 25.863 0.243 0.512" stroke-width=".79573"/><path d="m202.97 26.375 0.324 0.512" stroke-width=".8212"/><path d="m203.3 26.887 0.242 0.547" stroke-width=".84014"/><path d="m203.54 27.434 0.203 0.546" stroke-width=".85356"/><path d="m203.74 27.98 0.242 0.508" stroke-width=".86354"/><path d="m203.98 28.488 0.164 0.438" stroke-width=".87008"/><path d="m204.15 28.926 0.122 0.402" stroke-width=".88215"/><path d="m204.27 29.328 0.121 0.293" stroke-width=".88663"/><path d="m204.39 29.621 0.082 0.438" stroke-width=".89489"/><path d="m204.47 30.059 0.121 0.437" stroke-width=".89799"/><path d="m204.59 30.496 0.121 0.363" stroke-width=".90074"/><path d="m204.72 30.859 0.281-0.254" stroke-width=".9448"/><path d="m205 30.605 0.367-0.476" stroke-width=".94756"/><path d="m205.36 30.129 0.242-0.399" stroke-width=".95066"/><path d="m205.6 29.73 0.325-0.476" stroke-width=".951"/><path d="m205.93 29.254 0.285-0.547" stroke-width=".951"/><path d="m206.22 28.707 0.281-0.547" stroke-width=".95135"/><path d="m206.5 28.16 0.203-0.547" stroke-width=".95169"/><path d="m206.7 27.613 0.121-0.508" stroke-width=".95203"/><path d="m206.82 27.105 0.121-0.476" stroke-width=".95238"/><path d="m206.94 26.629v-0.399" stroke-width=".95238"/><path d="m206.94 26.23 0.043-0.367" stroke-width=".95582"/><path d="m206.98 25.863v-0.508" stroke-width=".95548"/><path d="m206.98 25.355v-0.328" stroke-width=".95548"/><path d="m206.98 25.027 0.078-0.293" stroke-width=".93379"/><path d="m331.09 24.625-0.121-0.363" stroke-width=".87353"/><path d="m330.97 24.262-0.242-0.293" stroke-width=".9121"/><path d="m330.73 23.969-0.407-0.328" stroke-width=".94825"/><path d="m330.32 23.641-0.324-0.149" stroke-width=".96443"/><path d="m330 23.492-0.285-0.109" stroke-width=".98407"/><path d="m329.71 23.383-0.402-0.11" stroke-width=".99233"/><path d="m329.31 23.273-0.407-0.035" stroke-width=".99646"/><g stroke-width="1.0009"><path d="m328.9 23.238h-0.363"/><path d="m328.54 23.238-0.406 0.035"/><path d="m328.13 23.273-0.285 0.149"/></g><g stroke-width="1.0034"><path d="m327.85 23.422-0.403 0.398"/><path d="m327.44 23.82-0.164 0.368"/><path d="m327.28 24.188-0.121 0.363"/></g><g stroke-width="1.0016"><path d="m327.16 24.551-0.082 0.511"/><path d="m327.08 25.062-0.039 0.512"/><path d="m327.04 25.574v0.582"/></g><path d="m327.04 26.156 0.121 0.582" stroke-width="1.0013"/><path d="m327.16 26.738 0.203 0.547" stroke-width=".9975"/><path d="m327.36 27.285 0.282 0.512" stroke-width=".98992"/><path d="m327.64 27.797 0.367 0.402" stroke-width=".98476"/><path d="m328.01 28.199 0.242 0.289" stroke-width=".97478"/><path d="m328.25 28.488 0.285 0.219" stroke-width=".96512"/><path d="m328.54 28.707 0.445 0.148" stroke-width=".9627"/><path d="m328.98 28.855 0.364-0.183" stroke-width=".97443"/><path d="m329.35 28.672 0.242-0.219" stroke-width=".97822"/><path d="m329.59 28.453 0.121-0.328" stroke-width=".98682"/><path d="m329.71 28.125 0.164-0.363" stroke-width=".98958"/><path d="m329.88 27.762 0.16-0.367" stroke-width=".98958"/><path d="m330.04 27.395 0.125-0.438" stroke-width=".98992"/><g stroke-width=".99199"><path d="m330.16 26.957 0.078-0.437"/><path d="m330.24 26.52 0.121-0.438"/><path d="m330.36 26.082 0.125-0.398"/><path d="m330.48 25.684 0.121-0.403"/></g><path d="m330.6 25.281 0.122-0.293" stroke-width=".99268"/><path d="m330.73 24.988 0.121-0.289" stroke-width=".99302"/><path d="m330.85 24.699 0.121-0.328" stroke-width=".99336"/><path d="m330.97 24.371 0.121 0.289" stroke-width=".99646"/><path d="m331.09 24.66 0.164 0.328" stroke-width=".99681"/><path d="m331.25 24.988 0.203 0.367" stroke-width=".99681"/><path d="m331.46 25.355 0.242 0.399" stroke-width=".99715"/><path d="m331.7 25.754 0.281 0.402" stroke-width=".99956"/><path d="m331.98 26.156 0.247 0.364" stroke-width=".99956"/><path d="m332.23 26.52 0.242 0.292" stroke-width=".99646"/><path d="m332.47 26.812 0.242 0.254" stroke-width=".99646"/><path d="m332.71 27.066 0.445 0.329" stroke-width=".99681"/><path d="m333.16 27.395 0.406 0.148" stroke-width=".99715"/><path d="m333.56 27.543 0.446 0.035" stroke-width=".99887"/><path d="m334.01 27.578 0.527-0.035" stroke-width=".98269"/><path d="m334.54 27.543 0.485-0.039" stroke-width=".69207"/></g><g stroke="#00c0ff"><g><path d="m85.145 113.02 14.871-27.532" stroke-width=".83738"/><path d="m213.51 56.191h12.879" stroke-width=".95505"/><path d="m340.37 113h13.594" stroke-width=".99399"/></g><path d="m99.922 112.81v-27.102" stroke-dasharray="0.5, 3" stroke-width=".88288"/><path d="m227.23 57.227v53.777" stroke-dasharray="0.5, 3" stroke-width=".87532"/></g><g stroke="#0f0"><g><path d="m99.73 86.215-0.16-0.328" stroke-width=".63286"/><path d="m99.57 85.887 0.121-0.367" stroke-width=".66488"/><path d="m99.691 85.52 0.161-0.364" stroke-width=".67933"/><path d="m99.852 85.156 0.367-0.437" stroke-width=".69689"/><path d="m100.22 84.719 0.242-0.219" stroke-width=".71929"/><path d="m100.46 84.5 0.203-0.293" stroke-width=".73788"/><path d="m100.66 84.207 0.242-0.363" stroke-width=".75956"/><path d="m100.91 83.844 0.324-0.364" stroke-width=".77402"/><path d="m101.23 83.48 0.286-0.402" stroke-width=".78159"/><path d="m101.52 83.078 0.363-0.437" stroke-width=".78986"/><path d="m101.88 82.641 0.363-0.403" stroke-width=".7947"/><path d="m102.24 82.238 0.367-0.437" stroke-width=".79676"/><path d="m102.61 81.801 0.403-0.438" stroke-width=".80192"/><path d="m103.01 81.363 0.449-0.402" stroke-width=".80399"/><path d="m103.46 80.961 0.484-0.438" stroke-width=".80399"/><path d="m103.94 80.523 0.489-0.437" stroke-width=".80571"/><path d="m104.43 80.086 0.484-0.398" stroke-width=".80606"/><g stroke-width=".80778"><path d="m104.92 79.688 0.445-0.403"/><path d="m105.36 79.285 0.489-0.402"/><path d="m105.85 78.883 0.484-0.399"/><path d="m106.34 78.484 0.445-0.402"/></g><path d="m106.78 78.082 0.489-0.437" stroke-width=".80812"/><path d="m107.27 77.645 0.484-0.403" stroke-width=".80812"/><path d="m107.75 77.242 0.527-0.437" stroke-width=".80846"/><path d="m108.28 76.805 0.485-0.399" stroke-width=".80846"/><g stroke-width=".81019"><path d="m108.77 76.406 0.445-0.367"/><path d="m109.21 76.039 0.406-0.289"/><path d="m109.62 75.75 0.406-0.293"/><path d="m110.02 75.457 0.286-0.219"/><path d="m110.31 75.238 0.324-0.218"/><path d="m110.63 75.02 0.242-0.219"/><path d="m110.88 74.801 0.242-0.219"/><path d="m111.12 74.582 0.242-0.184"/></g><path d="m111.36 74.398 0.286-0.218" stroke-width=".81156"/><path d="m111.64 74.18 0.281-0.219" stroke-width=".81156"/><g stroke-width=".80812"><path d="m111.93 73.961 0.324-0.219"/><path d="m112.25 73.742 0.406-0.254"/><path d="m112.66 73.488 0.406-0.258"/></g><path d="m113.06 73.23 0.407-0.289" stroke-width=".80846"/><path d="m113.47 72.941 0.445-0.257" stroke-width=".80812"/><path d="m113.91 72.684 0.484-0.329" stroke-width=".81019"/><path d="m114.4 72.355 0.446-0.253" stroke-width=".81088"/><path d="m114.84 72.102 0.445-0.293" stroke-width=".81088"/><path d="m115.29 71.809 0.367-0.219" stroke-width=".80881"/><path d="m115.66 71.59 0.324-0.219" stroke-width=".80881"/><path d="m115.98 71.371 0.325-0.219" stroke-width=".80915"/><path d="m116.3 71.152 0.445-0.289" stroke-width=".80915"/><path d="m116.75 70.863 0.445-0.258" stroke-width=".81122"/><g stroke-width=".81053"><path d="m117.2 70.605 0.528-0.253"/><path d="m117.72 70.352 0.324-0.145"/><path d="m118.05 70.207 0.363-0.184"/><path d="m118.41 70.023 0.406-0.183"/></g><path d="m118.82 69.84 0.407-0.219" stroke-width=".81019"/><path d="m119.22 69.621 0.402-0.254" stroke-width=".81053"/><path d="m119.62 69.367 0.406-0.219" stroke-width=".81225"/><path d="m120.03 69.148 0.407-0.183" stroke-width=".81225"/><g stroke-width=".81053"><path d="m120.44 68.965 0.402-0.18"/><path d="m120.84 68.785 0.406-0.219"/><path d="m121.25 68.566 0.406-0.183"/><path d="m121.65 68.383 0.407-0.145"/><path d="m122.06 68.238 0.402-0.218"/></g><g stroke-width=".81088"><path d="m122.46 68.02 0.367-0.149"/><path d="m122.83 67.871 0.363-0.144"/><path d="m123.19 67.727 0.325-0.145"/></g><path d="m123.52 67.582 0.363-0.148" stroke-width=".8095"/><path d="m123.88 67.434 0.367-0.11" stroke-width=".8095"/><g stroke-width=".81019"><path d="m124.25 67.324 0.324-0.179"/><path d="m124.57 67.145 0.364-0.184"/><path d="m124.93 66.961 0.324-0.184"/></g><path d="m125.26 66.777 0.363-0.218" stroke-width=".81053"/><path d="m125.62 66.559 0.367-0.145" stroke-width=".81191"/><path d="m125.99 66.414 0.282-0.148" stroke-width=".81191"/><path d="m126.27 66.266 0.324-0.145" stroke-width=".81156"/><path d="m126.59 66.121 0.527-0.219" stroke-width=".81156"/><path d="m127.12 65.902 0.488-0.218" stroke-width=".81122"/><path d="m127.61 65.684 0.325-0.11" stroke-width=".81122"/><g stroke-width=".81225"><path d="m127.93 65.574 0.281-0.183"/><path d="m128.22 65.391 0.406-0.18"/><path d="m128.62 65.211 0.324-0.219"/><path d="m128.94 64.992 0.325-0.183"/><path d="m129.27 64.809 0.324-0.184"/></g><path d="m129.59 64.625 0.445-0.254" stroke-width=".81191"/><path d="m130.04 64.371 0.406-0.219" stroke-width=".81397"/><path d="m130.44 64.152 0.446-0.218" stroke-width=".81397"/><path d="m130.89 63.934 0.484-0.219" stroke-width=".84564"/><path d="m131.38 63.715 0.488-0.293" stroke-width=".85769"/><path d="m131.86 63.422 0.242-0.18" stroke-width=".85804"/><path d="m132.1 63.242 0.325-0.183" stroke-width=".86113"/><path d="m132.43 63.059 0.363-0.219" stroke-width=".86113"/><path d="m132.79 62.84 0.367-0.145" stroke-width=".86079"/><path d="m133.16 62.695 0.402-0.148" stroke-width=".86079"/><g stroke-width=".86113"><path d="m133.56 62.547 0.407-0.18"/><path d="m133.97 62.367 0.406-0.109"/><path d="m134.38 62.258 0.406-0.149"/><path d="m134.78 62.109 0.403-0.144"/></g><path d="m135.18 61.965 0.285-0.145" stroke-width=".86354"/><path d="m135.47 61.82 0.324-0.148" stroke-width=".86354"/><path d="m135.79 61.672 0.406-0.18" stroke-width=".86148"/><path d="m136.2 61.492 0.403-0.148" stroke-width=".86182"/><path d="m136.6 61.344 0.449-0.145" stroke-width=".86217"/><g stroke-width=".86389"><path d="m137.05 61.199 0.484-0.183"/><path d="m137.54 61.016 0.285-0.11"/><path d="m137.82 60.906 0.282-0.109"/><path d="m138.1 60.797 0.285-0.109"/><path d="m138.39 60.688 0.281-0.145"/><path d="m138.67 60.543 0.285-0.109"/></g><path d="m138.95 60.434 0.485-0.219" stroke-width=".86492"/><path d="m139.44 60.215 0.367-0.145" stroke-width=".86286"/><path d="m139.8 60.07 0.363-0.109" stroke-width=".8632"/><path d="m140.17 59.961 0.406-0.149" stroke-width=".86354"/><path d="m140.57 59.812 0.61-0.144" stroke-width=".86492"/><path d="m141.18 59.668 0.32-0.074" stroke-width=".86492"/><g stroke-width=".86286"><path d="m141.5 59.594 0.324-0.11"/><path d="m141.83 59.484 0.285-0.109"/><path d="m142.11 59.375 0.285-0.109"/></g><path d="m142.4 59.266 0.403-0.145" stroke-width=".8632"/><path d="m142.8 59.121 0.367-0.109" stroke-width=".86389"/><path d="m143.17 59.012 0.402-0.11" stroke-width=".86354"/><path d="m143.57 58.902 0.45-0.109" stroke-width=".8632"/><path d="m144.02 58.793 0.324-0.074" stroke-width=".8632"/><path d="m144.34 58.719 0.566-0.145" stroke-width=".86286"/><path d="m144.91 58.574 0.528-0.148" stroke-width=".86389"/><path d="m145.44 58.426 0.445-0.145" stroke-width=".8632"/><path d="m145.88 58.281 0.324-0.109" stroke-width=".8632"/><path d="m146.21 58.172 0.402-0.074" stroke-width=".86389"/><path d="m146.61 58.098 0.407-0.11" stroke-width=".8632"/><path d="m147.02 57.988 0.406-0.035" stroke-width=".8632"/><path d="m147.42 57.953 0.445-0.109" stroke-width=".86526"/><path d="m147.87 57.844 0.324-0.074" stroke-width=".86423"/><path d="m148.19 57.77 0.325-0.071" stroke-width=".86458"/><path d="m148.52 57.699 0.324-0.074" stroke-width=".86423"/><path d="m148.84 57.625 0.363-0.074" stroke-width=".86286"/><path d="m149.2 57.551 0.367-0.035" stroke-width=".86251"/><path d="m149.57 57.516 0.403-0.036" stroke-width=".86389"/><path d="m149.97 57.48 0.527-0.039" stroke-width=".8632"/><path d="m150.5 57.441 0.445-0.035" stroke-width=".86286"/><path d="m150.94 57.406 0.325-0.074" stroke-width=".86423"/><path d="m151.27 57.332h0.406" stroke-width=".86217"/><path d="m151.68 57.332 0.527-0.035" stroke-width=".86079"/><path d="m152.2 57.297h0.324" stroke-width=".85976"/><path d="m152.53 57.297h0.407" stroke-width=".85941"/><path d="m152.93 57.297 0.402-0.035" stroke-width=".85838"/><path d="m153.34 57.262h0.324" stroke-width=".85769"/><path d="m153.66 57.262 0.406-0.039" stroke-width=".85563"/><path d="m154.07 57.223h0.325" stroke-width=".85494"/><path d="m154.39 57.223 0.324-0.071" stroke-width=".85459"/><path d="m154.72 57.152 0.406-0.039" stroke-width=".85459"/><path d="m155.12 57.113 0.402-0.07" stroke-width=".85494"/><path d="m155.52 57.043 0.407-0.074" stroke-width=".85218"/><path d="m155.93 56.969h0.445" stroke-width=".84943"/><path d="m156.38 56.969h0.367" stroke-width=".84771"/><path d="m156.74 56.969 0.281 0.183" stroke-width=".0705"/><path d="m226.31 57.188 57.336 55.39" stroke-width=".78641"/><path d="m353.54 156.89h57.492" stroke-width=".95434"/></g><g stroke-dasharray="0.5, 3"><path d="m156.45 113.71v-56.41" stroke-width=".88038"/><path d="m411.84 156.52v-42.422" stroke-width=".90659"/><path d="m354.1 155.68v-42.227" stroke-width=".88957"/></g></g><g stroke="#00c0ff"><path d="m94.301 122.17 0.406-0.074" stroke-width=".85046"/><path d="m94.707 122.09 0.285-0.145" stroke-width=".85666"/><path d="m94.992 121.95 0.281-0.109" stroke-width=".86079"/><path d="m95.273 121.84 0.286-0.254" stroke-width=".86423"/><path d="m95.559 121.59 0.324-0.258" stroke-width=".8663"/><path d="m95.883 121.33 0.242-0.254" stroke-width=".8663"/><path d="m96.125 121.07 0.285-0.293" stroke-width=".86871"/><path d="m96.41 120.78 0.324-0.328" stroke-width=".86905"/><path d="m96.734 120.45 0.204 0.402" stroke-width=".89489"/><path d="m96.938 120.86 0.039 0.438" stroke-width=".90109"/><path d="m96.977 121.29 0.039 0.582" stroke-width=".90625"/><path d="m97.016 121.88 0.043 0.656" stroke-width=".909"/><path d="m97.059 122.53 0.039 0.766" stroke-width=".91141"/><path d="m97.098 123.3v0.805" stroke-width=".91141"/><path d="m97.098 124.1v0.8" stroke-width=".91107"/><path d="m97.098 124.9v0.766" stroke-width=".90074"/><path d="m97.098 125.67v0.656" stroke-width=".81397"/><path d="m97.098 126.32v0.586" stroke-width=".5144"/><path d="m97.098 126.91v0.363" stroke-width=".0705"/><path d="m100.54 125.96-0.445 3.246" stroke-width=".64009"/><path d="m103.34 120.16 0.488 0.035" stroke-width=".78504"/><path d="m103.82 120.2h0.324" stroke-width=".79123"/><path d="m104.15 120.2 0.364 0.035" stroke-width=".79123"/><path d="m104.51 120.23 0.367-0.035" stroke-width=".77712"/><path d="m104.88 120.2 0.363-0.035" stroke-width=".70758"/><path d="m105.24 120.16 0.485-0.258" stroke-width=".5206"/><path d="m105.73 119.91 0.367-0.218" stroke-width=".0705"/><path d="m104.27 120.02-0.082 0.367" stroke-width=".67899"/><path d="m104.19 120.38v0.547" stroke-width=".73271"/><path d="m104.19 120.93v0.508" stroke-width=".7451"/><path d="m104.19 121.44 0.121 0.367" stroke-width=".7513"/><path d="m104.31 121.8 0.164 0.363" stroke-width=".75784"/><path d="m104.47 122.17 0.281 0.219" stroke-width=".75784"/><path d="m104.75 122.39 0.367 0.109" stroke-width=".71653"/><path d="m105.12 122.5 0.527 0.035" stroke-width=".69827"/><path d="m105.65 122.53 0.528 0.039" stroke-width=".69276"/><path d="m106.18 122.57 0.402 0.219" stroke-width=".69276"/><path d="m106.58 122.79 0.242 0.473" stroke-width=".69758"/><path d="m106.82 123.26 0.082 0.363" stroke-width=".70655"/><path d="m106.9 123.62 0.043 0.402" stroke-width=".71378"/><path d="m106.94 124.03v0.438" stroke-width=".71412"/><path d="m106.94 124.46v0.437" stroke-width=".71447"/><path d="m106.94 124.9-0.082 0.403" stroke-width=".72101"/><path d="m106.86 125.3-0.164 0.293" stroke-width=".74166"/><path d="m106.7 125.6-0.445 0.363" stroke-width=".81673"/><path d="m106.25 125.96-0.402 0.109" stroke-width=".84977"/><path d="m105.85 126.07-0.407 0.075" stroke-width=".86354"/><path d="m105.44 126.14-0.488 0.07" stroke-width=".86354"/><path d="m104.96 126.22-0.445 0.039" stroke-width=".82189"/><path d="m104.51 126.25h-0.446" stroke-width=".62288"/><path d="m222.95 121.59 0.446-0.074" stroke-width=".77023"/><path d="m223.4 121.51 0.363-0.219" stroke-width=".80433"/><path d="m223.76 121.29 0.363-0.363" stroke-width=".82705"/><path d="m224.12 120.93 0.246-0.219" stroke-width=".8515"/><path d="m224.37 120.71 0.16 0.398" stroke-width=".87628"/><path d="m224.53 121.11 0.082 0.403" stroke-width=".88076"/><path d="m224.61 121.51 0.082 0.472" stroke-width=".88146"/><path d="m224.69 121.98 0.039 0.547" stroke-width=".88181"/><path d="m224.73 122.53v0.621" stroke-width=".88215"/><path d="m224.73 123.15v0.621" stroke-width=".88215"/><path d="m224.73 123.77-0.039 0.618" stroke-width=".86526"/><path d="m224.69 124.39-0.043 0.586" stroke-width=".81088"/><path d="m224.65 124.98-0.039 0.511" stroke-width=".70965"/><path d="m224.61 125.49-0.043 0.508" stroke-width=".47516"/><path d="m224.57 126 0.043 0.367" stroke-width=".0705"/><path d="m228.62 124.98-0.851 4.23" stroke-width=".61563"/><path d="m231.13 120.34 0.281 0.148" stroke-width=".75578"/><path d="m231.41 120.49 0.449-0.074" stroke-width=".75956"/><path d="m231.86 120.42 0.524-0.184" stroke-width=".70724"/><path d="m232.39 120.23 0.324-0.179" stroke-width=".54781"/><path d="m232.71 120.06 0.324-0.149" stroke-width=".0705"/><path d="m231.82 120.27-0.281 0.329" stroke-width=".63596"/><path d="m231.54 120.6-0.203 0.363" stroke-width=".69895"/><path d="m231.34 120.96-0.164 0.473" stroke-width=".74614"/><path d="m231.17 121.44-0.121 0.437" stroke-width=".75956"/><path d="m231.05 121.88 0.121 0.402" stroke-width=".77127"/><path d="m231.17 122.28 0.367 0.145" stroke-width=".77987"/><path d="m231.54 122.42 0.324 0.183" stroke-width=".78228"/><path d="m231.86 122.6 0.325 0.293" stroke-width=".78538"/><path d="m232.19 122.9 0.242 0.364" stroke-width=".78538"/><path d="m232.43 123.26 0.242 0.328" stroke-width=".78779"/><path d="m232.67 123.59 0.16 0.328" stroke-width=".78813"/><path d="m232.83 123.92 0.043 0.437" stroke-width=".79952"/><path d="m232.88 124.36-0.203 0.477" stroke-width=".82396"/><path d="m232.67 124.83-0.242 0.328" stroke-width=".84461"/><path d="m232.43 125.16-0.285 0.363" stroke-width=".86423"/><path d="m232.14 125.52-0.364 0.403" stroke-width=".8811"/><path d="m231.78 125.93-0.367 0.289" stroke-width=".89145"/><path d="m231.41 126.22-0.324 0.258" stroke-width=".8942"/><path d="m231.09 126.47-0.281 0.144" stroke-width=".8942"/><path d="m230.81 126.62-0.407-0.035" stroke-width=".61944"/><path d="m352.28 100.84 0.285-0.328" stroke-width=".89455"/><path d="m352.57 100.51 0.243-0.254" stroke-width=".90074"/><path d="m352.81 100.25 0.242-0.219" stroke-width=".90591"/><path d="m353.05 100.04 0.367-0.437" stroke-width=".90832"/><path d="m353.42 99.598 0.281-0.328" stroke-width=".91795"/><path d="m353.7 99.27v0.363" stroke-width=".93792"/><path d="m353.7 99.633v0.402" stroke-width=".94722"/><path d="m353.7 100.04v0.547" stroke-width=".95341"/><path d="m353.7 100.58-0.039 0.617" stroke-width=".96064"/><path d="m353.66 101.2v0.731" stroke-width=".96133"/><path d="m353.66 101.93-0.082 0.73" stroke-width=".96133"/><path d="m353.58 102.66-0.039 0.731" stroke-width=".96167"/><path d="m353.54 103.39-0.082 0.656" stroke-width=".96202"/><path d="m353.46 104.05-0.082 0.582" stroke-width=".96202"/><path d="m353.38 104.63-0.039 0.473" stroke-width=".94756"/><path d="m353.34 105.1v0.367" stroke-width=".89351"/><path d="m353.34 105.47 0.203 0.328" stroke-width=".44211"/><path d="m356.82 103.9-0.812 4.231" stroke-width=".73822"/><path d="m359.7 99.961 2.149-0.363" stroke-width=".79745"/><path d="m359.86 100.14-0.242 0.328" stroke-width=".62253"/><path d="m359.62 100.47-0.164 0.289" stroke-width=".65042"/><path d="m359.45 100.76-0.082 0.293" stroke-width=".65971"/><path d="m359.37 101.06 0.121 0.437" stroke-width=".66797"/><path d="m359.49 101.49 0.367 0.254" stroke-width=".6721"/><path d="m359.86 101.75 0.485 0.184" stroke-width=".68036"/><path d="m360.34 101.93 0.445 0.144" stroke-width=".68243"/><path d="m360.79 102.07 0.406 0.11" stroke-width=".68484"/><path d="m361.2 102.18 0.446 0.109" stroke-width=".68484"/><path d="m361.64 102.29 0.285 0.148" stroke-width=".6845"/><path d="m361.93 102.44 0.242 0.364" stroke-width=".68484"/><path d="m362.17 102.8-0.039 0.547" stroke-width=".71171"/><path d="m362.13 103.35-0.043 0.328" stroke-width=".74269"/><path d="m362.09 103.68-0.121 0.402" stroke-width=".76266"/><path d="m361.96 104.08-0.16 0.293" stroke-width=".77195"/><path d="m361.8 104.38-0.121 0.289" stroke-width=".7809"/><path d="m361.68 104.66-0.286 0.402" stroke-width=".82155"/><path d="m361.4 105.07-0.406 0.145" stroke-width=".87525"/><path d="m360.99 105.21h-0.324" stroke-width=".88422"/><path d="m360.67 105.21-0.445-0.035" stroke-width=".89282"/><path d="m360.22 105.18-0.485-0.11" stroke-width=".89282"/><path d="m359.74 105.07-0.488-0.144" stroke-width=".88938"/><path d="m359.25 104.92-0.484-0.149" stroke-width=".83256"/><path d="m358.77 104.77-0.407-0.144" stroke-width=".7024"/><path d="m358.36 104.63-0.406-0.035" stroke-width=".0705"/></g><g stroke="#0f0"><path d="m152.65 119.4-0.203 0.473" stroke-width=".74132"/><path d="m152.44 119.87-0.082 0.328" stroke-width=".75405"/><path d="m152.36 120.2-0.039 0.363" stroke-width=".75991"/><path d="m152.32 120.56-0.039 0.477" stroke-width=".76438"/><path d="m152.28 121.04v0.438" stroke-width=".77023"/><path d="m152.28 121.48v0.507" stroke-width=".77781"/><path d="m152.28 121.98v0.438" stroke-width=".78297"/><path d="m152.28 122.42 0.039 0.437" stroke-width=".78779"/><path d="m152.32 122.86 0.039 0.329" stroke-width=".8033"/><path d="m152.36 123.19 0.082 0.292" stroke-width=".81914"/><path d="m152.44 123.48 0.082 0.329" stroke-width=".8694"/><g stroke-width=".99199"><path d="m152.53 123.81 0.282 0.144"/><path d="m152.81 123.95 0.488 0.074"/><path d="m153.3 124.03 0.324 0.035"/></g><path d="m153.62 124.06h0.363" stroke-width=".99233"/><path d="m153.98 124.06 0.368 0.04" stroke-width=".99233"/><path d="m154.35 124.1h0.363" stroke-width=".99268"/><path d="m154.72 124.1 0.324-0.04" stroke-width=".99543"/><path d="m155.04 124.06 0.609-0.035" stroke-width=".99371"/><path d="m155.65 124.03h0.485" stroke-width=".99371"/><path d="m156.13 124.03h0.609" stroke-width=".96477"/><path d="m156.74 124.03h0.324" stroke-width=".91382"/><path d="m157.07 124.03 0.325 0.035" stroke-width=".80571"/><path d="m157.39 124.06 0.445 0.184" stroke-width=".56606"/><path d="m157.84 124.25 0.324 0.145" stroke-width=".0705"/><path d="m156.25 121.51-0.852 7.293" stroke-width=".71722"/><path d="m280.48 119.1-0.043 0.473" stroke-width=".90694"/><path d="m280.44 119.58v0.367" stroke-width=".92036"/><path d="m280.44 119.94 0.043 0.547" stroke-width=".93069"/><path d="m280.48 120.49v0.582" stroke-width=".94343"/><path d="m280.48 121.07 0.039 0.656" stroke-width=".94756"/><path d="m280.52 121.73v0.622" stroke-width=".94825"/><path d="m280.52 122.35v0.582" stroke-width=".95272"/><path d="m280.52 122.93v0.511" stroke-width=".95307"/><path d="m280.52 123.44v0.399" stroke-width=".95307"/><path d="m280.52 123.84v0.402" stroke-width=".95341"/><path d="m280.52 124.25 0.489 0.109" stroke-width=".97168"/><path d="m281.01 124.36 0.566-0.109" stroke-width=".97168"/><path d="m281.58 124.25 0.406-0.074" stroke-width=".97684"/><path d="m281.98 124.17 0.606-0.145" stroke-width=".9765"/><path d="m282.59 124.03 0.527-0.109" stroke-width=".97443"/><path d="m283.12 123.92 0.445-0.035" stroke-width=".94962"/><path d="m283.56 123.88h0.364" stroke-width=".80743"/><path d="m283.93 123.88 0.527-0.11" stroke-width=".43486"/><path d="m284.45 123.77 0.285-0.109" stroke-width=".0705"/><path d="m283.77 119.47-1.012 11.195" stroke-width=".70068"/><path d="m410.14 99.086-0.243 0.328" stroke-width=".74442"/><path d="m409.9 99.414-0.039 0.363" stroke-width=".77023"/><path d="m409.86 99.777v0.512" stroke-width=".7902"/><path d="m409.86 100.29v0.547" stroke-width=".81397"/><path d="m409.86 100.84v0.582" stroke-width=".83428"/><path d="m409.86 101.42v0.547" stroke-width=".84908"/><path d="m409.86 101.96v0.476" stroke-width=".86733"/><path d="m409.86 102.44 0.039 0.364" stroke-width=".87903"/><path d="m409.9 102.8 0.04 0.328" stroke-width=".89248"/><path d="m409.94 103.13 0.121 0.402" stroke-width=".94825"/><path d="m410.06 103.54 0.406 0.184" stroke-width=".96856"/><path d="m410.46 103.72 0.609 0.07" stroke-width=".97787"/><path d="m411.07 103.79h0.446" stroke-width=".97822"/><path d="m411.52 103.79h0.484" stroke-width=".97856"/><g stroke-width=".98269"><path d="m412 103.79h0.527"/><path d="m412.53 103.79h0.528"/><path d="m413.06 103.79h0.488"/><path d="m413.55 103.79h0.445"/><path d="m413.99 103.79 0.363-0.035"/></g><path d="m414.36 103.75 0.407-0.035" stroke-width=".97168"/><path d="m414.76 103.72 0.078-0.328" stroke-width=".0705"/><path d="m412.94 100.04-0.813 8.422" stroke-width=".72479"/></g><g stroke="#ff8000"><path d="m84.797 56.816h71.375" stroke-dasharray="0.5, 3" stroke-width=".95903"/><path d="m340.45 156.84h12.36" stroke-dasharray="0.5, 3" stroke-width=".98224"/><g><path d="m59.859 54.113h3.161" stroke-width=".66476"/><path d="m59.781 53.797-0.164 0.363" stroke-width=".60599"/><path d="m59.617 54.16-0.039 0.328" stroke-width=".6456"/><path d="m59.578 54.488v0.367" stroke-width=".68346"/><path d="m59.578 54.855v0.438" stroke-width=".71481"/><path d="m59.578 55.293v0.437" stroke-width=".74373"/><path d="m59.578 55.73v0.473" stroke-width=".76438"/><path d="m59.578 56.203v0.438" stroke-width=".77677"/><path d="m59.578 56.641 0.039 0.328" stroke-width=".78572"/><path d="m59.617 56.969 0.121 0.472" stroke-width=".80468"/><path d="m59.738 57.441 0.125 0.368" stroke-width=".8274"/><path d="m59.863 57.809 0.325 0.035" stroke-width=".83256"/><path d="m60.188 57.844h0.363" stroke-width=".83497"/><path d="m60.551 57.844h0.406" stroke-width=".83738"/><path d="m60.957 57.844h0.523" stroke-width=".83704"/><path d="m61.48 57.844h0.325" stroke-width=".81501"/><path d="m61.805 57.844 0.609 0.254" stroke-width=".78228"/><path d="m62.414 58.098 0.203 0.293" stroke-width=".78228"/><path d="m62.617 58.391 0.203 0.363" stroke-width=".78331"/><path d="m62.82 58.754 0.16 0.402" stroke-width=".78331"/><path d="m62.98 59.156 0.043 0.403" stroke-width=".77815"/><path d="m63.023 59.559 0.039 0.402" stroke-width=".77471"/><path d="m63.062 59.961 0.04 0.363" stroke-width=".77299"/><path d="m63.102 60.324-0.079 0.547" stroke-width=".77505"/><path d="m63.023 60.871-0.324 0.363" stroke-width=".78435"/><path d="m62.699 61.234-0.57 0.149" stroke-width=".77815"/><path d="m62.129 61.383-0.301-0.094" stroke-width=".58396"/><path d="m61.828 61.289-0.305-0.09" stroke-width=".38976"/><path d="m61.523 61.199-0.242-0.183" stroke-width=".0705"/><path d="m64.441 55.363 0.403-0.218" stroke-width=".66109"/><path d="m64.844 55.145 0.285-0.11" stroke-width=".66143"/><path d="m65.129 55.035 0.363-0.07" stroke-width=".66453"/><path d="m65.492 54.965 0.57-0.149" stroke-width=".66453"/><path d="m66.062 54.816 0.364 0.075" stroke-width=".65283"/><path d="m66.426 54.891 0.16 0.328" stroke-width=".65283"/><path d="m66.586 55.219 0.043 0.328" stroke-width=".65489"/><path d="m66.629 55.547v0.328" stroke-width=".65696"/><path d="m66.629 55.875-0.043 0.402" stroke-width=".65765"/><path d="m66.586 56.277-0.039 0.364" stroke-width=".65765"/><path d="m66.547 56.641-0.16 0.582" stroke-width=".69792"/><path d="m66.387 57.223-0.285 0.328" stroke-width=".79295"/><path d="m66.102 57.551-0.286 0.148" stroke-width=".87662"/><path d="m65.816 57.699-0.363 0.071" stroke-width=".9362"/><path d="m65.453 57.77 0.363-0.071" stroke-width=".80915"/><path d="m65.816 57.699 0.407 0.035" stroke-width=".75646"/><path d="m66.223 57.734 0.285 0.254" stroke-width=".72548"/><path d="m66.508 57.988 0.242 0.512" stroke-width=".72996"/><path d="m66.75 58.5 0.039 0.363" stroke-width=".73202"/><path d="m66.789 58.863 0.043 0.367" stroke-width=".73581"/><path d="m66.832 59.23 0.039 0.399" stroke-width=".73615"/><path d="m66.871 59.629-0.039 0.402" stroke-width=".7396"/><path d="m66.832 60.031-0.164 0.621" stroke-width=".7754"/><path d="m66.668 60.652-0.363 0.438" stroke-width=".83463"/><path d="m66.305 61.09-0.243 0.183" stroke-width=".84392"/><path d="m66.062 61.273-0.285 0.11" stroke-width=".84392"/><path d="m65.777 61.383-0.445 0.109" stroke-width=".37393"/><path d="m69.301 62.875-0.688 2.734" stroke-width=".72307"/><path d="m72.504 57.77 0.484-0.145" stroke-width=".70552"/><path d="m72.988 57.625 0.285-0.184" stroke-width=".71894"/><path d="m73.273 57.441 0.286-0.289" stroke-width=".72514"/><path d="m73.559 57.152 0.242-0.328" stroke-width=".7303"/><path d="m73.801 56.824 0.242-0.293" stroke-width=".73546"/><path d="m74.043 56.531 0.164-0.293" stroke-width=".75371"/><path d="m74.207 56.238 0.121-0.328" stroke-width=".78882"/><path d="m74.328 55.91 0.039 0.547" stroke-width=".81088"/><path d="m74.367 56.457v0.477" stroke-width=".82568"/><path d="m74.367 56.934v0.582" stroke-width=".85631"/><path d="m74.367 57.516-0.039 0.73" stroke-width=".8811"/><path d="m74.328 58.246-0.043 0.836" stroke-width=".89455"/><path d="m74.285 59.082-0.078 0.84" stroke-width=".89799"/><path d="m74.207 59.922-0.082 0.805" stroke-width=".89833"/><path d="m74.125 60.727-0.082 0.691" stroke-width=".89833"/><path d="m74.043 61.418-0.082 0.473" stroke-width=".84254"/><path d="m73.961 61.891v0.437" stroke-width=".0705"/><path d="m76.676 54.672 0.406-0.145" stroke-width=".73374"/><path d="m77.082 54.527 0.363-0.039" stroke-width=".72445"/><path d="m77.445 54.488 0.446-0.035" stroke-width=".69138"/><path d="m77.891 54.453h0.367" stroke-width=".65007"/><path d="m78.258 54.453h0.324" stroke-width=".5991"/><path d="m78.582 54.453 0.363 0.219" stroke-width=".54437"/><path d="m78.945 54.672 0.164 0.363" stroke-width=".55401"/><path d="m79.109 55.035v0.477" stroke-width=".59394"/><path d="m79.109 55.512-0.043 0.328" stroke-width=".59842"/><path d="m79.066 55.84-0.203 0.508" stroke-width=".62942"/><path d="m78.863 56.348-0.402 0.402" stroke-width=".72755"/><path d="m78.461 56.75-0.367 0.328" stroke-width=".82671"/><path d="m78.094 57.078-0.324 0.254" stroke-width=".88973"/><path d="m77.77 57.332-0.243 0.184" stroke-width=".92346"/><path d="m77.527 57.516 0.364-0.254" stroke-width=".88215"/><path d="m77.891 57.262 0.449-0.11" stroke-width=".8422"/><path d="m78.34 57.152 0.523-0.039" stroke-width=".77161"/><path d="m78.863 57.113 0.571 0.11" stroke-width=".70033"/><path d="m79.434 57.223 0.445 0.367" stroke-width=".69104"/><path d="M 79.879,57.59 80,57.918" stroke-width=".69104"/><path d="m80 57.918 0.082 0.328" stroke-width=".71894"/><path d="m80.082 58.246v0.438" stroke-width=".76645"/><path d="m80.082 58.684-0.043 0.398" stroke-width=".82258"/><path d="M 80.039,59.082 80,59.52" stroke-width=".87422"/><path d="m80 59.52-0.164 0.402" stroke-width=".91451"/><path d="m79.836 59.922-0.203 0.367" stroke-width=".94446"/><path d="m79.633 60.289-0.242 0.289" stroke-width=".96098"/><path d="m79.391 60.578-0.243 0.258" stroke-width=".96718"/><path d="m79.148 60.836-0.242 0.18" stroke-width=".96718"/><path d="m78.906 61.016-0.488 0.293" stroke-width=".73856"/><path d="m191.3 56.934 0.043-0.368" stroke-width=".8095"/><path d="m191.34 56.566 0.242-0.472" stroke-width=".83945"/><path d="m191.59 56.094 0.121-0.328" stroke-width=".85287"/><path d="m191.71 55.766 0.164-0.254" stroke-width=".86526"/><path d="m191.87 55.512 0.16-0.258" stroke-width=".8856"/><path d="m192.03 55.254 0.121-0.328" stroke-width=".91658"/><path d="m192.15 54.926 0.203 0.547" stroke-width=".95203"/><path d="m192.36 55.473 0.122 0.511" stroke-width=".96339"/><path d="m192.48 55.984 0.121 0.547" stroke-width=".97168"/><path d="m192.6 56.531 0.125 0.621" stroke-width=".97374"/><path d="m192.72 57.152 0.078 0.618" stroke-width=".97374"/><g stroke-width=".97822"><path d="m192.8 57.77 0.043 0.585"/><path d="m192.84 58.355 0.039 0.508"/><path d="m192.88 58.863v0.403"/></g><path d="m192.88 59.266v0.437" stroke-width=".8911"/><path d="m192.88 59.703 0.285-0.144" stroke-width=".0705"/><path d="m195.4 54.965 0.285-0.258" stroke-width=".84186"/><path d="m195.68 54.707 0.648-0.145" stroke-width=".82396"/><path d="m196.33 54.562 0.363-0.074" stroke-width=".8033"/><path d="m196.69 54.488 0.325-0.035" stroke-width=".78194"/><path d="m197.02 54.453 0.406 0.145" stroke-width=".76954"/><path d="m197.42 54.598 0.121 0.547" stroke-width=".77264"/><path d="m197.54 55.145v0.437" stroke-width=".77299"/><path d="m197.54 55.582-0.121 0.477" stroke-width=".77505"/><path d="m197.42 56.059-0.121 0.507" stroke-width=".77505"/><path d="m197.3 56.566-0.246 0.477" stroke-width=".77264"/><path d="m197.06 57.043-0.243 0.437" stroke-width=".77264"/><path d="m196.81 57.48-0.242 0.329" stroke-width=".77368"/><path d="m196.57 57.809-0.203 0.289" stroke-width=".7809"/><path d="m196.37 58.098-0.324 0.293" stroke-width=".82292"/><path d="m196.04 58.391 0.203 0.402" stroke-width=".80261"/><path d="m196.25 58.793 0.324 0.109" stroke-width=".78504"/><path d="m196.57 58.902 0.446 0.145" stroke-width=".763"/><path d="m197.02 59.047 0.445 0.109" stroke-width=".7303"/><path d="m197.46 59.156 0.445 0.035" stroke-width=".70308"/><path d="m197.91 59.191 0.367 0.039" stroke-width=".68484"/><path d="m198.27 59.23 0.325-0.039" stroke-width=".65455"/><path d="m198.6 59.191 0.484-0.109" stroke-width=".40284"/><path d="m203.82 54.09 0.403 0.144" stroke-width=".9269"/><path d="m204.23 54.234 0.57 0.11" stroke-width=".94825"/><path d="m204.8 54.344 0.648 0.035" stroke-width=".95685"/><path d="m205.44 54.379h0.364" stroke-width=".95858"/><path d="m205.81 54.379h0.406" stroke-width=".95892"/><path d="m206.22 54.379 0.605-0.035" stroke-width=".95513"/><path d="m206.82 54.344 0.407-0.11" stroke-width=".8453"/><path d="m207.23 54.234 0.363-0.035" stroke-width=".0705"/><path d="m203.46 53.941-0.203 0.329" stroke-width=".79848"/><path d="m203.25 54.27-0.078 0.367" stroke-width=".8336"/><path d="m203.18 54.637-0.043 0.472" stroke-width=".857"/><path d="m203.13 55.109-0.039 0.512" stroke-width=".86664"/><path d="m203.09 55.621v0.547" stroke-width=".87146"/><path d="m203.09 56.168 0.039 0.508" stroke-width=".87559"/><path d="m203.13 56.676 0.082 0.402" stroke-width=".878"/><path d="m203.22 57.078 0.121 0.328" stroke-width=".88076"/><path d="m203.34 57.406 0.203 0.293" stroke-width=".88663"/><path d="m203.54 57.699h0.324" stroke-width=".95238"/><path d="m203.86 57.699 0.567-0.074" stroke-width=".95203"/><path d="m204.43 57.625 0.367-0.035" stroke-width=".94928"/><path d="m204.8 57.59h0.402" stroke-width=".94618"/><path d="m205.2 57.59h0.367" stroke-width=".94102"/><path d="m205.57 57.59h0.325" stroke-width=".93723"/><path d="m205.89 57.59 0.281 0.109" stroke-width=".93482"/><path d="m206.17 57.699 0.324 0.254" stroke-width=".93207"/><path d="m206.5 57.953 0.121 0.402" stroke-width=".94102"/><path d="m206.62 58.355v0.583" stroke-width=".95307"/><path d="m206.62 58.938v0.328" stroke-width=".95616"/><path d="m206.62 59.266-0.078 0.328" stroke-width=".95926"/><path d="m206.54 59.594-0.285 0.547" stroke-width=".95961"/><path d="m206.25 60.141-0.445 0.402" stroke-width=".96443"/><path d="m205.81 60.543-0.325 0.219" stroke-width=".95238"/><path d="m205.48 60.762-0.648 0.218" stroke-width=".66591"/><path d="m204.84 60.98-0.324 0.036" stroke-width=".0705"/><path d="m201.35 59.449-1.5 4.887" stroke-width=".87731"/><path d="m319.34 157.14h3.203" stroke-width=".70895"/><path d="m326.96 154.49h3.199" stroke-width=".88839"/><path d="m328.29 154.66-0.484 0.07" stroke-width=".86974"/><path d="m327.81 154.73-0.286 0.149" stroke-width=".90178"/><path d="m327.52 154.88-0.199 0.363" stroke-width=".92381"/><path d="m327.32 155.24-0.082 0.293" stroke-width=".9331"/><path d="m327.24 155.54-0.082 0.328" stroke-width=".93895"/><path d="m327.16 155.86-0.039 0.617" stroke-width=".94412"/><path d="m327.12 156.48 0.039 0.512" stroke-width=".94722"/><path d="m327.16 156.99 0.203 0.403" stroke-width=".94928"/><path d="m327.36 157.4 0.242 0.253" stroke-width=".94962"/><path d="m327.6 157.65 0.407 0.11" stroke-width=".95272"/><path d="m328.01 157.76h0.363" stroke-width=".95307"/><path d="m328.38 157.76 0.406-0.035" stroke-width=".95066"/><path d="m328.78 157.72h0.407" stroke-width=".9362"/><path d="m329.19 157.72 0.324 0.144" stroke-width=".92484"/><path d="m329.51 157.87 0.242 0.473" stroke-width=".9245"/><path d="m329.75 158.34 0.082 0.367" stroke-width=".92484"/><path d="m329.84 158.71 0.039 0.363" stroke-width=".93413"/><path d="m329.88 159.07-0.039 0.403" stroke-width=".94515"/><path d="m329.84 159.47-0.043 0.398" stroke-width=".96064"/><path d="m329.79 159.87-0.16 0.367" stroke-width=".96996"/><path d="m329.63 160.24-0.242 0.364" stroke-width=".98132"/><g stroke-width=".98958"><path d="m329.39 160.6-0.325 0.293"/><path d="m329.07 160.9-0.324 0.253"/><path d="m328.74 161.15-0.285 0.219"/></g><path d="m328.46 161.37-0.285 0.149" stroke-width=".96996"/><path d="m328.17 161.52-0.445 0.218" stroke-width=".42522"/></g></g><g stroke="#000"><path d="m66.184 34.469-0.368 0.258" stroke-width=".96374"/><path d="m65.816 34.727-0.078 0.328" stroke-width=".97718"/><path d="m65.738 35.055-0.121 0.507" stroke-width=".98751"/><path d="m65.617 35.562-0.082 0.622" stroke-width=".99887"/><path d="m65.535 36.184-0.082 0.73" stroke-width="1.004"/><path d="m65.453 36.914-0.082 0.801" stroke-width="1.0064"/><path d="m65.371 37.715v0.875" stroke-width="1.0116"/><g stroke-width="1.012"><path d="m65.371 38.59v0.84"/><path d="m65.371 39.43 0.043 0.8"/><path d="m65.414 40.23 0.16 0.696"/></g><path d="m65.574 40.926 0.164 0.547" stroke-width="1.0034"/><path d="m65.738 41.473 0.242 0.398" stroke-width=".97787"/><path d="m65.98 41.871 0.243 0.219" stroke-width=".9035"/><path d="m66.223 42.09 0.324 0.039" stroke-width=".69501"/><path d="m66.547 42.129 0.324 0.035" stroke-width=".48652"/><path d="m69.262 39.648v-0.511" stroke-width=".71722"/><path d="m69.262 39.137v-0.328" stroke-width=".7482"/><path d="m69.262 38.809v-0.329" stroke-width=".77161"/><path d="m69.262 38.48 0.039-0.363" stroke-width=".79676"/><path d="m69.301 38.117 0.043-0.476" stroke-width=".85253"/><path d="m69.344 37.641 0.039 0.476" stroke-width=".87112"/><path d="m69.383 38.117 0.043 0.328" stroke-width=".87112"/><path d="m69.426 38.445 0.039 0.547" stroke-width=".87146"/><path d="m69.465 38.992 0.039 0.363" stroke-width=".87387"/><path d="m69.504 39.355 0.121-0.328" stroke-width=".93551"/><path d="m69.625 39.027 0.082-0.289" stroke-width=".93551"/><path d="m69.707 38.738 0.082-0.328" stroke-width=".93517"/><path d="m69.789 38.41 0.242-0.551" stroke-width=".93517"/><path d="m70.031 37.859 0.324-0.363" stroke-width=".93448"/><path d="m70.355 37.496 0.325-0.254" stroke-width=".93138"/><path d="m70.68 37.242 0.406-0.148" stroke-width=".92002"/><path d="m71.086 37.094 0.406-0.071" stroke-width=".90246"/><path d="m71.492 37.023 0.363 0.145" stroke-width=".89317"/><path d="m71.855 37.168 0.282 0.402" stroke-width=".89282"/><path d="m72.137 37.57 0.125 0.328" stroke-width=".89282"/><path d="m72.262 37.898 0.078 0.29" stroke-width=".89214"/><path d="m72.34 38.188 0.082 0.292" stroke-width=".89179"/><path d="m72.422 38.48 0.082 0.477" stroke-width=".88904"/><path d="m72.504 38.957v0.328" stroke-width=".88835"/><path d="m72.504 39.285-0.043 0.399" stroke-width=".88904"/><path d="m72.461 39.684v-0.508" stroke-width=".90143"/><path d="m72.461 39.176 0.043-0.438" stroke-width=".90109"/><path d="m72.504 38.738 0.16-0.367" stroke-width=".90074"/><path d="m72.664 38.371 0.246-0.293" stroke-width=".89661"/><path d="m72.91 38.078 0.324-0.07" stroke-width=".88353"/><path d="m73.234 38.008 0.403 0.144" stroke-width=".86251"/><path d="m73.637 38.152 0.285 0.368" stroke-width=".85563"/><path d="m73.922 38.52 0.16 0.328" stroke-width=".84943"/><path d="m74.082 38.848 0.082 0.363" stroke-width=".83566"/><path d="m74.164 39.211 0.082 0.437" stroke-width=".80468"/><path d="m74.246 39.648 0.121 0.403" stroke-width=".74579"/><path d="m74.367 40.051 0.039 0.363" stroke-width=".68484"/><path d="m74.406 40.414 0.082 0.582" stroke-width=".30058"/><path d="m75.703 34.836 0.285 0.109" stroke-width=".74028"/><path d="m75.988 34.945 0.446 0.473" stroke-width=".78159"/><path d="m76.434 35.418 0.242 0.328" stroke-width=".80124"/><path d="m76.676 35.746 0.242 0.363" stroke-width=".82946"/><path d="m76.918 36.109 0.203 0.438" stroke-width=".86113"/><path d="m77.121 36.547 0.164 0.512" stroke-width=".88491"/><path d="m77.285 37.059 0.121 0.546" stroke-width=".89764"/><path d="m77.406 37.605 0.039 0.622" stroke-width=".90694"/><path d="m77.445 38.227 0.043 0.691" stroke-width=".91486"/><path d="m77.488 38.918-0.043 0.73" stroke-width=".91486"/><path d="m77.445 39.648-0.039 0.657" stroke-width=".89937"/><path d="m77.406 40.305-0.121 0.621" stroke-width=".83084"/><path d="m77.285 40.926-0.242 0.691" stroke-width=".66246"/><path d="m77.043 41.617-0.203 0.473" stroke-width=".0705"/><path d="m190.13 32.684-0.164 0.328" stroke-width=".74201"/><path d="m189.96 33.012-0.082 0.363" stroke-width=".78538"/><path d="m189.88 33.375-0.121 0.512" stroke-width=".82878"/><path d="m189.76 33.887-0.078 0.656" stroke-width=".86354"/><path d="m189.68 34.543-0.082 0.801" stroke-width=".8856"/><path d="m189.6 35.344-0.082 0.84" stroke-width=".90418"/><path d="m189.52 36.184v0.875" stroke-width=".91451"/><path d="m189.52 37.059v0.839" stroke-width=".91933"/><g stroke-width=".92277"><path d="m189.52 37.898v0.731"/><path d="m189.52 38.629v0.656"/><path d="m189.52 39.285 0.082 0.582"/></g><path d="m189.6 39.867 0.16 0.403" stroke-width=".89971"/><path d="m189.76 40.27 0.203 0.253" stroke-width=".82224"/><path d="m189.96 40.523 0.285 0.145" stroke-width=".66797"/><path d="m190.25 40.668 0.527-0.18" stroke-width=".23103"/><path d="m190.78 40.488 0.446-0.218" stroke-width=".0705"/><path d="m193.05 38.043-0.082-0.363" stroke-width=".67968"/><path d="m192.96 37.68-0.043-0.621" stroke-width=".71756"/><path d="m192.92 37.059v-0.364" stroke-width=".74751"/><path d="m192.92 36.695v-0.476" stroke-width=".81914"/><path d="m192.92 36.219v0.586" stroke-width=".85287"/><path d="m192.92 36.805v0.617" stroke-width=".85528"/><path d="m192.92 37.422v0.437" stroke-width=".85769"/><path d="m192.92 37.859 0.203-0.398" stroke-width=".93138"/><path d="m193.12 37.461 0.121-0.328" stroke-width=".93138"/><g stroke-width=".93172"><path d="m193.25 37.133 0.121-0.367"/><path d="m193.37 36.766 0.125-0.289"/><path d="m193.49 36.477 0.16-0.258"/></g><path d="m193.65 36.219 0.286-0.364" stroke-width=".92828"/><path d="m193.94 35.855 0.324-0.183" stroke-width=".92518"/><path d="m194.26 35.672 0.324 0.074" stroke-width=".90246"/><path d="m194.59 35.746 0.203 0.512" stroke-width=".90281"/><path d="m194.79 36.258 0.039 0.398" stroke-width=".90281"/><path d="m194.83 36.656 0.039 0.438" stroke-width=".90625"/><path d="m194.87 37.094 0.043 0.437" stroke-width=".90625"/><path d="m194.91 37.531v0.328" stroke-width=".90591"/><path d="m194.91 37.859v0.403" stroke-width=".90556"/><path d="m194.91 38.262 0.203-0.438" stroke-width=".94308"/><path d="m195.11 37.824 0.078-0.328" stroke-width=".94377"/><path d="m195.19 37.496 0.164-0.293" stroke-width=".94584"/><path d="m195.36 37.203 0.161-0.254" stroke-width=".94584"/><path d="m195.52 36.949 0.242-0.437" stroke-width=".94274"/><path d="m195.76 36.512 0.324-0.254" stroke-width=".90281"/><path d="m196.08 36.258 0.324 0.328" stroke-width=".89799"/><path d="m196.41 36.586 0.285 0.582" stroke-width=".89764"/><path d="m196.69 37.168 0.082 0.293" stroke-width=".89696"/><path d="m196.77 37.461 0.204 0.437" stroke-width=".85356"/><path d="m196.98 37.898 0.078 0.364" stroke-width=".60771"/><path d="m199.04 40.34 0.039-0.399" stroke-width=".92897"/><path d="m199.08 39.941 0.121-0.293" stroke-width=".93413"/><path d="m199.2 39.648 0.242-0.402" stroke-width=".9362"/><path d="m199.44 39.246 0.285-0.437" stroke-width=".93654"/><g stroke-width=".93895"><path d="m199.73 38.809 0.286-0.512"/><path d="m200.02 38.297 0.324-0.547"/><path d="m200.34 37.75 0.242-0.473"/></g><path d="m200.58 37.277 0.281-0.511" stroke-width=".94136"/><path d="m200.86 36.766 0.246-0.438" stroke-width=".94171"/><path d="m201.11 36.328 0.161-0.398" stroke-width=".94343"/><path d="m201.27 35.93 0.164-0.328" stroke-width=".94343"/><path d="m201.43 35.602 0.16-0.438" stroke-width=".90418"/><path d="m204.96 36.039-0.406-0.074" stroke-width=".90556"/><path d="m204.55 35.965-0.363 0.035" stroke-width=".93276"/><path d="m204.19 36-0.243 0.328" stroke-width=".93792"/><path d="m203.94 36.328-0.164 0.512" stroke-width=".93826"/><path d="m203.78 36.84v0.472" stroke-width=".9393"/><path d="m203.78 37.312 0.203 0.438" stroke-width=".92174"/><path d="m203.98 37.75 0.325 0.148" stroke-width=".90109"/><path d="m204.31 37.898 0.285 0.11" stroke-width=".88594"/><path d="m204.59 38.008 0.16 0.363" stroke-width=".88076"/><path d="m204.75 38.371 0.082 0.586" stroke-width=".88076"/><path d="m204.84 38.957 0.039 0.328" stroke-width=".88041"/><path d="m204.88 39.285v0.328" stroke-width=".88007"/><path d="m204.88 39.613-0.078 0.547" stroke-width=".88732"/><path d="m204.8 40.16-0.406 0.328" stroke-width=".91314"/><path d="m204.39 40.488-0.567 0.11" stroke-width=".93551"/><path d="m203.82 40.598-0.445-0.039" stroke-width=".90143"/><path d="m203.38 40.559v-0.438" stroke-width=".38012"/><path d="m203.38 40.121 0.199-0.254" stroke-width=".0705"/><path d="m207.14 33.414 0.324-0.109" stroke-width=".76369"/><path d="m207.47 33.305 0.445 0.363" stroke-width=".84323"/><path d="m207.91 33.668 0.285 0.363" stroke-width=".88697"/><path d="m208.2 34.031 0.281 0.438" stroke-width=".92002"/><path d="m208.48 34.469 0.247 0.547" stroke-width=".94377"/><path d="m208.73 35.016 0.203 0.586" stroke-width=".9603"/><path d="m208.93 35.602 0.16 0.656" stroke-width=".97856"/><path d="m209.09 36.258 0.039 0.726" stroke-width=".99508"/><path d="m209.13 36.984 0.043 0.731" stroke-width="1.0075"/><path d="m209.17 37.715-0.043 0.805" stroke-width="1.0147"/><path d="m209.13 38.52-0.121 0.8" stroke-width="1.0202"/><path d="m209.01 39.32-0.242 0.84" stroke-width="1.023"/><path d="m208.77 40.16-0.286 0.766" stroke-width="1.023"/><path d="m208.48 40.926-0.281 0.691" stroke-width="1.0157"/><path d="m208.2 41.617-0.285 0.582" stroke-width=".96546"/><path d="m207.91 42.199-0.281 0.547" stroke-width=".70274"/><path d="m207.63 42.746-0.203 0.402" stroke-width=".0705"/><path d="m317.07 32.977-0.281 0.179" stroke-width=".96133"/><path d="m316.79 33.156-0.125 0.403" stroke-width=".96996"/><path d="m316.66 33.559-0.16 0.691" stroke-width=".98132"/><path d="m316.5 34.25-0.242 0.875" stroke-width=".99474"/><path d="m316.26 35.125-0.203 1.059" stroke-width="1.0016"/><path d="m316.06 36.184-0.164 1.168" stroke-width="1.004"/><g stroke-width="1.0078"><path d="m315.9 37.352-0.161 1.168"/><path d="m315.73 38.52-0.039 1.128"/><path d="m315.7 39.648-0.043 0.985"/></g><path d="m315.65 40.633 0.082 0.801" stroke-width="1.0016"/><path d="m315.73 41.434 0.161 0.656" stroke-width=".97684"/><path d="m315.9 42.09 0.324 0.437" stroke-width=".90866"/><path d="m316.22 42.527 0.445 0.258" stroke-width=".7241"/><path d="m316.66 42.785 0.387 0.016" stroke-width=".55246"/><path d="m317.05 42.801 0.387 0.019" stroke-width=".38081"/><path d="m317.44 42.82 0.343-0.054" stroke-width=".22566"/><path d="m317.78 42.766 0.344-0.055" stroke-width=".0705"/><path d="m319.75 40.16v-0.512" stroke-width=".82155"/><path d="m319.75 39.648v-0.328" stroke-width=".8484"/><path d="m319.75 39.32v-0.402" stroke-width=".87318"/><path d="m319.75 38.918v-0.363" stroke-width=".89386"/><path d="m319.75 38.555-0.043-0.367" stroke-width=".91141"/><path d="m319.7 38.188-0.039-0.508" stroke-width=".94343"/><path d="m319.66 37.68-0.039 0.437" stroke-width=".93344"/><path d="m319.62 38.117-0.043 0.438" stroke-width=".93448"/><path d="m319.58 38.555v0.472" stroke-width=".93448"/><path d="m319.58 39.027-0.039 0.438" stroke-width=".93413"/><path d="m319.54 39.465v0.367" stroke-width=".93413"/><path d="m319.54 39.832-0.039 0.438" stroke-width=".93895"/><path d="m319.5 40.27v-0.438" stroke-width=".97994"/><path d="m319.5 39.832 0.078-0.367" stroke-width=".98063"/><g stroke-width=".98235"><path d="m319.58 39.465 0.082-0.399"/><path d="m319.66 39.066 0.121-0.437"/><path d="m319.78 38.629 0.121-0.441"/></g><path d="m319.91 38.188 0.164-0.399" stroke-width=".982"/><path d="m320.07 37.789 0.16-0.367" stroke-width=".982"/><path d="m320.23 37.422 0.165-0.289" stroke-width=".97581"/><path d="m320.4 37.133 0.242-0.367" stroke-width=".96856"/><path d="m320.64 36.766 0.406-0.18" stroke-width=".94412"/><path d="m321.04 36.586 0.281 0.144" stroke-width=".93035"/><path d="m321.32 36.73 0.285 0.547" stroke-width=".92105"/><path d="m321.61 37.277 0.121 0.403" stroke-width=".92071"/><path d="m321.73 37.68 0.082 0.398" stroke-width=".92071"/><path d="m321.81 38.078 0.083 0.402" stroke-width=".92036"/><path d="m321.9 38.48 0.039 0.403" stroke-width=".92036"/><path d="m321.93 38.883 0.039 0.328" stroke-width=".92071"/><path d="m321.97 39.211v0.363" stroke-width=".92381"/><path d="m321.97 39.574 0.043-0.328" stroke-width=".96374"/><path d="m322.02 39.246 0.078-0.289" stroke-width=".96374"/><path d="m322.09 38.957 0.164-0.402" stroke-width=".95926"/><path d="m322.26 38.555 0.16-0.367" stroke-width=".9541"/><path d="m322.42 38.188 0.164-0.364" stroke-width=".94928"/><path d="m322.58 37.824 0.16-0.293" stroke-width=".94618"/><path d="m322.74 37.531 0.203-0.398" stroke-width=".93861"/><path d="m322.94 37.133 0.285-0.11" stroke-width=".9214"/><path d="m323.23 37.023 0.161 0.582" stroke-width=".92208"/><path d="m323.39 37.605 0.082 0.473" stroke-width=".92208"/><path d="m323.47 38.078 0.082 0.512" stroke-width=".9214"/><path d="m323.56 38.59 0.082 0.437" stroke-width=".89248"/><path d="m323.64 39.027 0.039 0.368" stroke-width=".81569"/><path d="m323.68 39.395 0.082 0.398" stroke-width=".47068"/><path d="m326.59 40.777 2.429-5.578" stroke-width=".81191"/><path d="m331.46 37.277-0.406-0.144" stroke-width=".81225"/><path d="m331.05 37.133h-0.367" stroke-width=".89179"/><path d="m330.68 37.133-0.364 0.254" stroke-width=".92071"/><path d="m330.32 37.387-0.16 0.293" stroke-width=".93104"/><path d="m330.16 37.68-0.125 0.328" stroke-width=".93654"/><path d="m330.04 38.008-0.039 0.363" stroke-width=".93964"/><path d="m330 38.371-0.039 0.367" stroke-width=".93964"/><path d="m329.96 38.738v0.364" stroke-width=".93689"/><path d="m329.96 39.102 0.121 0.293" stroke-width=".9331"/><path d="m330.08 39.395 0.16 0.253" stroke-width=".92243"/><path d="m330.24 39.648 0.446 0.293" stroke-width=".88732"/><path d="m330.68 39.941 0.367 0.071" stroke-width=".86148"/><path d="m331.05 40.012 0.242 0.258" stroke-width=".86595"/><path d="m331.29 40.27-0.121 0.656" stroke-width=".8825"/><g stroke-width=".88594"><path d="m331.17 40.926-0.121 0.398"/><path d="m331.05 41.324-0.121 0.403"/><path d="m330.93 41.727-0.121 0.363"/></g><path d="m330.81 42.09-0.164 0.293" stroke-width=".88973"/><path d="m330.64 42.383-0.407 0.328" stroke-width=".89214"/><path d="m330.24 42.711-0.484 0.109" stroke-width=".74132"/><path d="m329.75 42.82-0.324-0.363" stroke-width=".0705"/><path d="m333.36 34.762 0.243-0.184" stroke-width=".74545"/><path d="m333.6 34.578 0.527-0.035" stroke-width=".7513"/><path d="m334.13 34.543h0.324" stroke-width=".75371"/><g stroke-width=".75405"><path d="m334.45 34.543 0.285 0.109"/><path d="m334.74 34.652 0.324 0.11"/><path d="m335.06 34.762 0.243 0.218"/></g><path d="m335.3 34.98 0.363 0.293" stroke-width=".74648"/><path d="m335.67 35.273 0.082 0.329" stroke-width=".72927"/><path d="m335.75 35.602v0.398" stroke-width=".73443"/><path d="m335.75 36-0.16 0.477" stroke-width=".76266"/><path d="m335.59 36.477-0.324 0.507" stroke-width=".81914"/><path d="m335.27 36.984-0.325 0.328" stroke-width=".8825"/><path d="m334.94 37.312-0.246 0.184" stroke-width=".92346"/><path d="m334.7 37.496 0.121 0.293" stroke-width=".92966"/><path d="m334.82 37.789 0.407 0.035" stroke-width=".94205"/><path d="m335.22 37.824 0.445-0.074" stroke-width=".92656"/><path d="m335.67 37.75 0.406-0.18" stroke-width=".7544"/><path d="m336.07 37.57 0.324-0.074" stroke-width=".51233"/><path d="m337.45 34.617 0.16 0.399" stroke-width=".89799"/><path d="m337.61 35.016 0.121 0.293" stroke-width=".93104"/><path d="m337.73 35.309 0.121 0.402" stroke-width=".95169"/><path d="m337.86 35.711 0.083 0.473" stroke-width=".96821"/><path d="m337.94 36.184 0.121 0.511" stroke-width=".98132"/><path d="m338.06 36.695 0.043 0.582" stroke-width=".99371"/><path d="m338.1 37.277 0.039 0.621" stroke-width="1.0044"/><path d="m338.14 37.898 0.039 0.692" stroke-width="1.0116"/><path d="m338.18 38.59-0.039 0.73" stroke-width="1.0178"/><path d="m338.14 39.32-0.039 0.731" stroke-width="1.0281"/><path d="m338.1 40.051-0.082 0.765" stroke-width="1.0309"/><path d="m338.02 40.816-0.165 0.727" stroke-width="1.0312"/><path d="m337.86 41.543-0.199 0.73" stroke-width="1.0312"/><path d="m337.66 42.273-0.246 0.692" stroke-width="1.0237"/><path d="m337.41 42.965-0.242 0.656" stroke-width=".98545"/><path d="m337.17 43.621-0.324 0.875" stroke-width=".74751"/><path d="m336.84 44.496-0.141 0.348" stroke-width=".40901"/><path d="m336.7 44.844-0.144 0.347" stroke-width=".0705"/><path d="m442.92 118.2-0.164 0.289" stroke-width=".98166"/><path d="m442.76 118.48-0.039 0.368" stroke-width="1.002"/><path d="m442.72 118.85-0.043 0.472" stroke-width="1.0113"/><path d="m442.68 119.32-0.039 0.582" stroke-width="1.0164"/><path d="m442.64 119.91v0.621" stroke-width="1.025"/><g stroke-width="1.0254"><path d="m442.64 120.53v0.621"/><path d="m442.64 121.15v0.657"/><path d="m442.64 121.8 0.039 0.617"/></g><path d="m442.68 122.42 0.082 0.586" stroke-width="1.0209"/><path d="m442.76 123.01 0.203 0.547" stroke-width="1.0126"/><path d="m442.96 123.56 0.164 0.472" stroke-width=".97271"/><path d="m443.12 124.03 0.242 0.403" stroke-width=".8694"/><path d="m443.37 124.43 0.242 0.363" stroke-width=".67727"/><path d="m443.61 124.79 0.325 0.293" stroke-width=".35293"/><path d="m443.93 125.09 0.324 0.254" stroke-width=".0705"/><path d="m447.01 120.49-0.242-0.183" stroke-width=".7544"/><path d="m446.77 120.31-0.364-0.184" stroke-width=".92759"/><path d="m446.41 120.12-0.445 0.074" stroke-width=".95892"/><path d="m445.96 120.2-0.203 0.328" stroke-width=".95961"/><path d="m445.76 120.53-0.082 0.512" stroke-width=".96167"/><path d="m445.68 121.04 0.039 0.328" stroke-width=".96167"/><path d="m445.72 121.37 0.324 0.363" stroke-width=".95238"/><path d="m446.04 121.73 0.406 0.145" stroke-width=".92484"/><path d="m446.44 121.88 0.325 0.039" stroke-width=".90384"/><path d="m446.77 121.91h0.445" stroke-width=".89592"/><path d="m447.22 121.91 0.164 0.438" stroke-width=".91245"/><path d="m447.38 122.35 0.039 0.617" stroke-width=".92208"/><path d="m447.42 122.97-0.039 0.547" stroke-width=".93723"/><path d="m447.38 123.52-0.082 0.293" stroke-width=".9424"/><path d="m447.3 123.81-0.242 0.363" stroke-width=".94584"/><path d="m447.06 124.17-0.325 0.219" stroke-width=".88076"/><path d="m449.69 117.94 0.285 0.218" stroke-width=".83222"/><path d="m449.97 118.16 0.281 0.547" stroke-width=".95066"/><path d="m450.25 118.7 0.242 0.402" stroke-width=".9882"/><path d="m450.5 119.1 0.125 0.512" stroke-width="1.012"/><path d="m450.62 119.62 0.121 0.582" stroke-width="1.0409"/><path d="m450.74 120.2 0.078 0.656" stroke-width="1.056"/><path d="m450.82 120.86-0.039 0.731" stroke-width="1.0653"/><path d="m450.78 121.59-0.121 0.766" stroke-width="1.0695"/><path d="m450.66 122.35-0.164 0.8" stroke-width="1.0695"/><path d="m450.5 123.15-0.281 0.801" stroke-width="1.0629"/><path d="m450.22 123.95-0.324 0.77" stroke-width="1.0381"/><path d="m449.89 124.72-0.286 0.691" stroke-width=".95789"/><path d="m449.6 125.41-0.203 0.363" stroke-width=".76455"/><path d="m449.4 125.78-0.203 0.368" stroke-width=".57122"/><path d="m449.2 126.14-0.14 0.273" stroke-width=".32086"/><path d="m449.06 126.42-0.141 0.273" stroke-width=".0705"/><path d="m316.62 118.74-0.281 0.363" stroke-width=".95272"/><path d="m316.34 119.1-0.125 0.329" stroke-width=".97305"/><path d="m316.22 119.43-0.121 0.511" stroke-width=".98889"/><path d="m316.1 119.94-0.078 0.547" stroke-width="1.0061"/><path d="m316.02 120.49-0.082 0.692" stroke-width="1.0147"/><path d="m315.94 121.18-0.043 0.73" stroke-width="1.0209"/><path d="m315.9 121.91v0.801" stroke-width="1.0268"/><path d="m315.9 122.72v0.801" stroke-width="1.0271"/><path d="m315.9 123.52 0.043 0.804" stroke-width="1.0271"/><path d="m315.94 124.32 0.082 0.692" stroke-width="1.023"/><path d="m316.02 125.01 0.078 0.621" stroke-width="1.0013"/><path d="m316.1 125.63 0.203 0.437" stroke-width=".94033"/><path d="m316.3 126.07 0.203 0.293" stroke-width=".78504"/><path d="m316.5 126.36 0.363 0.071" stroke-width=".51853"/><path d="m316.87 126.43 0.367-0.036" stroke-width=".0705"/><path d="m319.62 121.15-0.324-0.074" stroke-width=".91141"/><path d="m319.3 121.07-0.367 0.145" stroke-width=".94343"/><path d="m318.93 121.22-0.122 0.437" stroke-width=".94412"/><path d="m318.81 121.66-0.039 0.512" stroke-width=".94584"/><path d="m318.77 122.17 0.122 0.402" stroke-width=".9424"/><path d="m318.9 122.57 0.324 0.289" stroke-width=".93413"/><path d="m319.22 122.86 0.445 0.219" stroke-width=".92725"/><path d="m319.66 123.08 0.285 0.184" stroke-width=".92277"/><path d="m319.95 123.26 0.242 0.293" stroke-width=".92312"/><path d="m320.19 123.56 0.161 0.398" stroke-width=".92622"/><path d="m320.35 123.95 0.082 0.402" stroke-width=".93448"/><path d="m320.43 124.36-0.082 0.368" stroke-width=".95066"/><path d="m320.35 124.72-0.2 0.289" stroke-width=".95789"/><path d="m320.15 125.01-0.449 0.109" stroke-width=".94962"/><path d="m319.7 125.12h-0.324" stroke-width=".79986"/><path d="m319.38 125.12-0.078-0.437" stroke-width=".0705"/><path d="m323.19 118.92 0.203 0.258" stroke-width=".72101"/><path d="m323.39 119.18 0.203 0.289" stroke-width=".79952"/><path d="m323.59 119.47 0.203 0.402" stroke-width=".86733"/><path d="m323.8 119.87 0.203 0.512" stroke-width=".92208"/><path d="m324 120.38 0.121 0.582" stroke-width=".96064"/><path d="m324.12 120.96 0.121 0.656" stroke-width=".98923"/><path d="m324.24 121.62-0.039 0.801" stroke-width="1.0078"/><path d="m324.2 122.42-0.082 0.84" stroke-width="1.0175"/><path d="m324.12 123.26-0.203 0.91" stroke-width="1.0175"/><path d="m323.92 124.17-0.281 0.949" stroke-width="1.0154"/><path d="m323.64 125.12-0.325 0.875" stroke-width="1.0009"/><path d="m323.31 126-0.285 0.805" stroke-width=".90281"/><path d="m323.03 126.8-0.203 0.398" stroke-width=".67538"/><path d="m322.82 127.2-0.203 0.403" stroke-width=".44796"/><path d="m322.62 127.6-0.16 0.293" stroke-width=".25923"/><path d="m322.46 127.9-0.164 0.289" stroke-width=".0705"/><path d="m186.48 118.78-0.324 0.075" stroke-width=".86354"/><path d="m186.16 118.85-0.203 0.582" stroke-width=".92208"/><path d="m185.95 119.43-0.121 0.511" stroke-width=".93861"/><path d="m185.83 119.94-0.082 0.582" stroke-width=".95513"/><path d="m185.75 120.53-0.078 0.657" stroke-width=".9627"/><path d="m185.67 121.18-0.043 0.73" stroke-width=".96787"/><path d="m185.63 121.91v0.727" stroke-width=".97202"/><path d="m185.63 122.64v0.695" stroke-width=".97409"/><path d="m185.63 123.34 0.043 0.656" stroke-width=".97443"/><path d="m185.67 123.99 0.078 0.582" stroke-width=".97443"/><path d="m185.75 124.57 0.082 0.512" stroke-width=".97237"/><path d="m185.83 125.09 0.082 0.437" stroke-width=".96718"/><path d="m185.91 125.52 0.16 0.364" stroke-width=".93276"/><path d="m186.07 125.89 0.203 0.293" stroke-width=".86182"/><path d="m186.28 126.18 0.246 0.218" stroke-width=".74476"/><path d="m186.52 126.4 0.446 0.145" stroke-width=".49891"/><path d="m186.97 126.54 0.363 0.109" stroke-width=".0705"/><path d="m189.44 119.98-0.446 0.11" stroke-width=".9214"/><path d="m188.99 120.09-0.242 0.328" stroke-width=".9245"/><path d="m188.75 120.42-0.082 0.293" stroke-width=".92484"/><path d="m188.67 120.71-0.039 0.328" stroke-width=".9245"/><path d="m188.63 121.04v0.399" stroke-width=".9245"/><path d="m188.63 121.44 0.082 0.585" stroke-width=".91417"/><path d="m188.71 122.02 0.281 0.364" stroke-width=".88525"/><path d="m188.99 122.39 0.324 0.109" stroke-width=".86044"/><path d="m189.32 122.5 0.368 0.035" stroke-width=".82017"/><path d="m189.68 122.53 0.199 0.258" stroke-width=".80571"/><path d="m189.88 122.79 0.125 0.547" stroke-width=".79952"/><path d="m190.01 123.34 0.039 0.656" stroke-width=".78951"/><path d="m190.05 123.99-0.039 0.473" stroke-width=".78504"/><path d="m190.01 124.46-0.246 0.328" stroke-width=".78744"/><path d="m189.76 124.79-0.403 0.039" stroke-width=".66866"/><path d="m189.36 124.83-0.082-0.441" stroke-width=".0705"/><path d="m192.64 118.56 0.281 0.253" stroke-width=".62873"/><path d="m192.92 118.81 0.367 0.403" stroke-width=".79504"/><path d="m193.29 119.22 0.203 0.293" stroke-width=".86595"/><path d="m193.49 119.51 0.121 0.363" stroke-width=".91348"/><path d="m193.61 119.87 0.078 0.473" stroke-width=".95272"/><path d="m193.69 120.34-0.039 0.547" stroke-width=".9796"/><path d="m193.65 120.89-0.082 0.656" stroke-width=".99612"/><path d="m193.57 121.55-0.203 0.84" stroke-width="1.002"/><path d="m193.37 122.39-0.242 0.875" stroke-width="1.0023"/><path d="m193.12 123.26-0.363 0.949" stroke-width="1.002"/><path d="m192.76 124.21-0.285 0.91" stroke-width=".97718"/><path d="m192.48 125.12-0.243 0.84" stroke-width=".85425"/><path d="m192.23 125.96-0.121 0.492" stroke-width=".62924"/><path d="m192.11 126.45-0.121 0.492" stroke-width=".40422"/><path d="m191.99 126.94-0.082 0.364" stroke-width=".23736"/><path d="m191.91 127.31-0.082 0.367" stroke-width=".0705"/></g></g></g></svg>
