<svg width="512.45" height="225.89" xml:space="preserve" xmlns="http://www.w3.org/2000/svg"><defs><clipPath id="a"><path d="M0 0h595v841H0z"/></clipPath></defs><g clip-path="url(#a)" fill="none" stroke-linecap="round" stroke-linejoin="round" stroke-miterlimit="10" transform="translate(-76.861 -25.317) scale(1.3333)"><g stroke="#000"><path d="M84.156 28.645v155.37" stroke-width=".85"/><path d="M84.379 113.59h89.301" stroke-width=".937"/><path d="m171.21 111.92.363.074" stroke-width=".824"/><path d="m171.57 112 .285.109" stroke-width=".833"/><path d="m171.86 112.1.282.11" stroke-width=".838"/><path d="m172.14 112.22.324.219m-.004-.009.242.179" stroke-width=".843"/><path d="m172.7 112.61.246.184m.004.006.281.183m-.001-.003.489.29" stroke-width=".845"/><path d="m173.72 113.27.324.218" stroke-width=".846"/><path d="m174.04 113.49.203.293" stroke-width=".897"/><path d="m174.25 113.78-.125.438" stroke-width=".947"/><path d="m174.12 114.22-.199.472" stroke-width=".948"/><path d="m173.92 114.69-.164.258" stroke-width=".953"/><path d="m173.76 114.95-.281.508" stroke-width=".958"/><path d="m173.48 115.46-.247.477" stroke-width=".962"/><path d="m173.23 115.93-.242.398" stroke-width=".964"/><path d="m172.99 116.33-.203.367" stroke-width=".97"/><path d="m172.78 116.7-.324.254" stroke-width=".971"/><path d="M172.46 116.95h-.363" stroke-width=".739"/><path d="m172.1 116.95-.325-.035" stroke-width=".114"/><path d="m177.65 119.07-.039.438" stroke-width=".795"/><path d="m177.61 119.51-.043.398" stroke-width=".815"/><path d="M177.57 119.91v.438" stroke-width=".828"/><path d="M177.57 120.34v.511" stroke-width=".841"/><path d="m177.57 120.86-.039.622" stroke-width=".847"/><path d="M177.53 121.48v.617" stroke-width=".849"/><path d="M177.53 122.09v.621m0 .009v.656" stroke-width=".852"/><path d="M177.53 123.37v.582m0-.002.039.547m.001.003.164.512" stroke-width=".854"/><path d="m177.73 125.01.161.476m-.001.004.242.399" stroke-width=".855"/><path d="m178.13 125.89.203.293" stroke-width=".853"/><path d="m178.34 126.18.324.293" stroke-width=".841"/><path d="m178.66 126.47.324.035" stroke-width=".838"/><path d="m178.98 126.51.528-.184" stroke-width=".837"/><path d="m179.51 126.32.285-.219" stroke-width=".817"/><path d="m179.8 126.1.281-.253" stroke-width=".785"/><path d="m180.08 125.85.285-.254" stroke-width=".748"/><path d="m180.36 125.6.242-.328" stroke-width=".69"/><path d="m180.6 125.27.165-.258" stroke-width=".623"/><path d="m180.77 125.01.16-.289" stroke-width=".467"/><path d="m180.93 124.72.082-.293" stroke-width=".215"/><path d="m176.51 123.08.406-.254" stroke-width=".722"/><path d="M176.92 122.82h.488" stroke-width=".735"/><path d="M177.41 122.82h.567" stroke-width=".738"/><path d="M177.97 122.82h.648m.002 0 .688.074" stroke-width=".74"/><path d="m179.31 122.9.73.071" stroke-width=".69"/><path d="m180.04 122.97.688.109" stroke-width=".577"/><path d="m180.73 123.08.425-.016" stroke-width=".375"/><path d="m181.15 123.06.426-.019" stroke-width=".172"/><path d="m181.58 123.04.688-.035" stroke-width=".07"/><path d="m80.281 32.574.449-.144" stroke-width=".822"/><path d="m80.73 32.43.282-.293" stroke-width=".845"/><path d="m81.012 32.137.324-.403" stroke-width=".859"/><path d="m81.336 31.734.164-.254" stroke-width=".863"/><path d="m81.5 31.48.16-.253" stroke-width=".866"/><path d="m81.66 31.227.164-.293" stroke-width=".877"/><path d="m81.824 30.934.16-.329" stroke-width=".883"/><path d="m81.984 30.605.164-.257" stroke-width=".888"/><path d="m82.148 30.348.243-.473" stroke-width=".899"/><path d="m82.391 29.875.16-.293" stroke-width=".903"/><path d="m82.551 29.582.164-.254" stroke-width=".907"/><path d="m82.715 29.328.242-.328m0 0 .285-.254" stroke-width=".91"/><path d="m83.242 28.746.324-.258" stroke-width=".918"/><path d="m83.566 28.488.2.293" stroke-width=".922"/><path d="m83.766 28.781.246.364" stroke-width=".923"/><path d="m84.012 29.145.281.328m0 0 .324.437" stroke-width=".927"/><path d="m84.617 29.91.285.438m0 0 .243.437m0 0 .242.477m0 0 .285.328" stroke-width=".93"/><path d="m85.672 31.59.285.219" stroke-width=".932"/><path d="m85.957 31.809.324.328" stroke-width=".931"/><path d="m86.281 32.137.242.183" stroke-width=".889"/><path d="m86.523 32.32.161.473" stroke-width=".487"/><path d="M212.62 28.434v155.79" stroke-width=".85"/><path d="M212.84 113.38h89.305" stroke-width=".937"/><path d="m299.67 111.71.367.074" stroke-width=".824"/><path d="m300.04 111.78.281.11" stroke-width=".833"/><path d="m300.32 111.9.286.109" stroke-width=".838"/><path d="m300.6 112 .324.219m.006.001.242.179" stroke-width=".843"/><path d="m301.17 112.4.242.184m-.002.006.285.184m.005-.004.485.289" stroke-width=".845"/><path d="m302.18 113.06.324.218" stroke-width=".846"/><path d="m302.5 113.28.203.293" stroke-width=".897"/><path d="m302.71 113.57-.121.438" stroke-width=".947"/><path d="m302.59 114.01-.203.472" stroke-width=".948"/><path d="m302.38 114.48-.16.258" stroke-width=".953"/><path d="m302.22 114.74-.285.508" stroke-width=".958"/><path d="m301.94 115.25-.243.477" stroke-width=".962"/><path d="m301.7 115.72-.242.398" stroke-width=".964"/><path d="m301.45 116.12-.203.367" stroke-width=".97"/><path d="m301.25 116.49-.324.254" stroke-width=".971"/><path d="M300.93 116.74h-.364" stroke-width=".739"/><path d="m300.56 116.74-.324-.035" stroke-width=".114"/><path d="m306.11 118.86-.043.438" stroke-width=".795"/><path d="m306.07 119.3-.039.398" stroke-width=".815"/><path d="M306.03 119.7v.438" stroke-width=".828"/><path d="M306.03 120.13v.512" stroke-width=".841"/><path d="m306.03 120.64-.043.621" stroke-width=".847"/><path d="M305.99 121.27v.617" stroke-width=".849"/><path d="M305.99 121.88v.621m0-.001v.656" stroke-width=".852"/><path d="M305.99 123.16v.586m0 .004.043.547m-.003-.007.16.508" stroke-width=".854"/><path d="m306.19 124.8.164.476m.006.004.243.399" stroke-width=".855"/><path d="m306.6 125.68.203.293" stroke-width=".853"/><path d="m306.8 125.97.324.293" stroke-width=".841"/><path d="m307.12 126.26.324.035" stroke-width=".838"/><path d="m307.45 126.3.528-.184" stroke-width=".837"/><path d="m307.98 126.11.281-.218" stroke-width=".817"/><path d="m308.26 125.9.285-.254" stroke-width=".785"/><path d="m308.54 125.64.285-.254" stroke-width=".748"/><path d="m308.83 125.39.242-.328" stroke-width=".69"/><path d="m309.07 125.06.16-.258" stroke-width=".623"/><path d="m309.23 124.8.165-.289" stroke-width=".467"/><path d="m309.4 124.51.078-.293" stroke-width=".215"/><path d="m304.98 122.87.406-.254" stroke-width=".722"/><path d="M305.38 122.61h.484" stroke-width=".735"/><path d="M305.87 122.61h.571" stroke-width=".738"/><path d="M306.44 122.61h.648m.002 0 .687.075" stroke-width=".74"/><path d="m307.77 122.69.731.07" stroke-width=".69"/><path d="m308.5 122.76.687.109" stroke-width=".577"/><path d="m309.19 122.87.426-.015" stroke-width=".375"/><path d="m309.62 122.85.426-.02" stroke-width=".172"/><path d="m310.04 122.83.687-.035" stroke-width=".07"/><path d="m208.75 32.363.445-.144" stroke-width=".822"/><path d="m209.19 32.219.286-.293" stroke-width=".845"/><path d="m209.48 31.926.324-.403" stroke-width=".859"/><path d="m209.8 31.523.16-.253" stroke-width=".863"/><path d="m209.96 31.27.164-.254" stroke-width=".866"/><path d="m210.12 31.016.16-.293" stroke-width=".877"/><path d="m210.28 30.723.164-.328" stroke-width=".883"/><path d="m210.45 30.395.16-.258" stroke-width=".888"/><path d="m210.61 30.137.243-.473" stroke-width=".899"/><path d="m210.85 29.664.164-.293" stroke-width=".903"/><path d="m211.02 29.371.16-.254" stroke-width=".907"/><path d="m211.18 29.117.246-.328m-.006 0 .281-.254" stroke-width=".91"/><path d="m211.7 28.535.324-.258" stroke-width=".918"/><path d="m212.03 28.277.203.293" stroke-width=".922"/><path d="m212.23 28.57.243.364" stroke-width=".923"/><path d="m212.47 28.934.285.328m.005 0 .324.437" stroke-width=".927"/><path d="m213.08 29.699.285.438m.005 0 .242.441m-.002 0 .243.473m-.003 0 .285.328" stroke-width=".93"/><path d="m214.14 31.379.281.219" stroke-width=".932"/><path d="m214.42 31.598.324.328" stroke-width=".931"/><path d="m214.74 31.926.242.183" stroke-width=".889"/><path d="m214.98 32.109.164.473" stroke-width=".487"/><path d="M340.09 28.105v155.14" stroke-width=".85"/><path d="M340.31 113.05h89.301" stroke-width=".937"/><path d="m427.14 111.38.363.074" stroke-width=".824"/><path d="m427.5 111.46.285.109" stroke-width=".833"/><path d="m427.79 111.57.281.11" stroke-width=".838"/><path d="m428.07 111.68.325.219m.005.001.242.179" stroke-width=".843"/><path d="m428.64 112.07.246.184m-.006.006.281.183m-.001-.003.488.289" stroke-width=".845"/><path d="m429.65 112.73.325.219" stroke-width=".846"/><path d="m429.98 112.95.203.293" stroke-width=".897"/><path d="m430.18 113.24-.121.438" stroke-width=".947"/><path d="m430.06 113.68-.204.472" stroke-width=".948"/><path d="m429.86 114.15-.164.258" stroke-width=".953"/><path d="m429.69 114.41-.281.508" stroke-width=".958"/><path d="m429.41 114.92-.246.477" stroke-width=".962"/><path d="m429.16 115.4-.242.398" stroke-width=".964"/><path d="m428.92 115.79-.203.367" stroke-width=".97"/><path d="m428.72 116.16-.324.254" stroke-width=".971"/><path d="M428.4 116.41h-.364" stroke-width=".739"/><path d="m428.03 116.41-.324-.035" stroke-width=".114"/><path d="m433.58 118.53-.039.438" stroke-width=".795"/><path d="m433.54 118.97-.043.398" stroke-width=".815"/><path d="M433.5 119.37v.438" stroke-width=".828"/><path d="M433.5 119.8v.511" stroke-width=".841"/><path d="m433.5 120.32-.039.622" stroke-width=".847"/><path d="M433.46 120.94v.617" stroke-width=".849"/><path d="M433.46 121.56v.621m0-.001v.656" stroke-width=".852"/><path d="M433.46 122.83v.582m0-.002.039.551m.001-.001.164.508" stroke-width=".854"/><path d="m433.66 124.47.16.476m0 .004.242.399" stroke-width=".855"/><path d="m434.07 125.35.204.293" stroke-width=".853"/><path d="m434.27 125.64.324.293" stroke-width=".841"/><path d="m434.59 125.93.324.035" stroke-width=".838"/><path d="m434.92 125.97.527-.184" stroke-width=".837"/><path d="m435.44 125.78.285-.219" stroke-width=".817"/><path d="m435.73 125.57.282-.254" stroke-width=".785"/><path d="m436.01 125.31.285-.253" stroke-width=".748"/><path d="m436.3 125.06.242-.329" stroke-width=".69"/><path d="m436.54 124.73.164-.257" stroke-width=".623"/><path d="m436.7 124.47.16-.289" stroke-width=".467"/><path d="m436.86 124.18.082-.293" stroke-width=".215"/><path d="m432.45 122.54.403-.254" stroke-width=".722"/><path d="M432.85 122.28h.488" stroke-width=".735"/><path d="M433.34 122.28h.566" stroke-width=".738"/><path d="M433.91 122.28h.649m.001 0 .687.074" stroke-width=".74"/><path d="m435.24 122.36.731.071" stroke-width=".69"/><path d="m435.97 122.43.687.109" stroke-width=".577"/><path d="m436.66 122.54.426-.016" stroke-width=".375"/><path d="m437.09 122.52.426-.019" stroke-width=".172"/><path d="m437.51 122.5.687-.035" stroke-width=".07"/><path d="m336.22 32.035.449-.144" stroke-width=".822"/><path d="m336.66 31.891.281-.293" stroke-width=".845"/><path d="m336.94 31.598.325-.403" stroke-width=".859"/><path d="m337.27 31.195.164-.254" stroke-width=".863"/><path d="m337.43 30.941.16-.253" stroke-width=".866"/><path d="m337.59 30.688.164-.293" stroke-width=".877"/><path d="m337.76 30.395.16-.329" stroke-width=".883"/><path d="m337.92 30.066.164-.257" stroke-width=".888"/><path d="m338.08 29.809.242-.473" stroke-width=".899"/><path d="m338.32 29.336.16-.293" stroke-width=".903"/><path d="m338.48 29.043.164-.254" stroke-width=".907"/><path d="m338.65 28.789.243-.328m-.003 0 .285-.254" stroke-width=".91"/><path d="m339.18 28.207.324-.258" stroke-width=".918"/><path d="m339.5 27.949.199.293" stroke-width=".922"/><path d="m339.7 28.242.246.363" stroke-width=".923"/><path d="m339.94 28.605.282.329m.008 0 .324.437" stroke-width=".927"/><path d="m340.55 29.371.285.438m.005 0 .242.437m-.002 0 .242.477m-.002 0 .285.328" stroke-width=".93"/><path d="m341.6 31.051.286.219" stroke-width=".932"/><path d="m341.89 31.27.324.328" stroke-width=".931"/><path d="m342.22 31.598.242.183" stroke-width=".889"/><path d="m342.46 31.781.16.473" stroke-width=".487"/><path d="m202.41 25.098.121.402" stroke-width=".751"/><path d="m202.53 25.5.203.363" stroke-width=".774"/><path d="m202.73 25.863.243.512" stroke-width=".796"/><path d="m202.97 26.375.324.512" stroke-width=".821"/><path d="m203.3 26.887.242.547" stroke-width=".84"/><path d="m203.54 27.434.203.546" stroke-width=".854"/><path d="m203.74 27.98.242.508" stroke-width=".864"/><path d="m203.98 28.488.164.438" stroke-width=".87"/><path d="m204.15 28.926.122.402" stroke-width=".882"/><path d="m204.27 29.328.121.293" stroke-width=".887"/><path d="m204.39 29.621.082.438" stroke-width=".895"/><path d="m204.47 30.059.121.437" stroke-width=".898"/><path d="m204.59 30.496.121.363" stroke-width=".901"/><path d="m204.72 30.859.281-.254" stroke-width=".945"/><path d="m205 30.605.367-.476" stroke-width=".948"/><path d="m205.36 30.129.242-.399m-.002 0 .325-.476m.005 0 .285-.547m.005 0 .281-.547" stroke-width=".951"/><path d="m206.5 28.16.203-.547m-.003 0 .121-.508m-.001 0 .121-.476m-.001 0v-.399" stroke-width=".952"/><path d="m206.94 26.23.043-.367" stroke-width=".956"/><path d="M206.98 25.863v-.508m0 0v-.328" stroke-width=".955"/><path d="m206.98 25.027.078-.293" stroke-width=".934"/><path d="m331.09 24.625-.121-.363" stroke-width=".874"/><path d="m330.97 24.262-.242-.293" stroke-width=".912"/><path d="m330.73 23.969-.407-.328" stroke-width=".948"/><path d="m330.32 23.641-.324-.149" stroke-width=".964"/><path d="m330 23.492-.285-.109" stroke-width=".984"/><path d="m329.71 23.383-.402-.11" stroke-width=".992"/><path d="m329.31 23.273-.407-.035" stroke-width=".996"/><path d="M328.9 23.238h-.363m.003 0-.406.035m-.004 0-.285.149" stroke-width="1.001"/><path d="m327.85 23.422-.403.398m-.007 0-.164.368m.004 0-.121.363" stroke-width="1.003"/><path d="m327.16 24.551-.082.511m.002 0-.039.512m-.001 0v.582" stroke-width="1.002"/><path d="m327.04 26.156.121.582" stroke-width="1.001"/><path d="m327.16 26.738.203.547" stroke-width=".998"/><path d="m327.36 27.285.282.512" stroke-width=".99"/><path d="m327.64 27.797.367.402" stroke-width=".985"/><path d="m328.01 28.199.242.289" stroke-width=".975"/><path d="m328.25 28.488.285.219" stroke-width=".965"/><path d="m328.54 28.707.445.148" stroke-width=".963"/><path d="m328.98 28.855.364-.183" stroke-width=".974"/><path d="m329.35 28.672.242-.219" stroke-width=".978"/><path d="m329.59 28.453.121-.328" stroke-width=".987"/><path d="m329.71 28.125.164-.363m.006 0 .16-.367m0 0 .125-.438" stroke-width=".99"/><path d="m330.16 26.957.078-.437m.002 0 .121-.438m-.001 0 .125-.398m-.005 0 .121-.403" stroke-width=".992"/><path d="m330.6 25.281.122-.293m.008 0 .121-.289m-.001 0 .121-.328" stroke-width=".993"/><path d="m330.97 24.371.121.289" stroke-width=".996"/><path d="m331.09 24.66.164.328m-.004 0 .203.367m.007 0 .242.399" stroke-width=".997"/><path d="m331.7 25.754.281.402m-.001 0 .247.364"/><path d="m332.23 26.52.242.292m-.002 0 .242.254" stroke-width=".996"/><path d="m332.71 27.066.445.329m.005 0 .406.148" stroke-width=".997"/><path d="m333.56 27.543.446.035" stroke-width=".999"/><path d="m334.01 27.578.527-.035" stroke-width=".983"/><path d="m334.54 27.543.485-.039" stroke-width=".692"/><path d="m73.598 30.457 3.968-5.977" stroke-width=".824"/><path d="m74.082 24.332.246.328" stroke-width=".753"/><path d="m74.328 24.66.363.477" stroke-width=".796"/><path d="m74.691 25.137.204.254" stroke-width=".812"/><path d="m74.895 25.391.121.293" stroke-width=".818"/><path d="m75.016 25.684.285.437" stroke-width=".828"/><path d="m75.301 26.121.199.289" stroke-width=".831"/><path d="m75.5 26.41.125.367" stroke-width=".828"/><path d="m75.625 26.777.039.582" stroke-width=".728"/><path d="m75.664 27.359-.039.621" stroke-width=".509"/><path d="m75.625 27.98-.082.508" stroke-width=".07"/></g><g stroke="#00c0ff"><g stroke-dasharray="0.5, 3"><path d="M357.77 115.75v38.176" stroke-width=".959"/><path d="M107.66 72.574v39.797" stroke-width=".951"/><path d="m108.44 95.875.368-.109" stroke-width=".07"/></g><path d="m100.87 119.4-.285-.145" stroke-width=".722"/><path d="m100.58 119.25-.363-.035" stroke-width=".844"/><path d="m100.22 119.22-.324.254" stroke-width=".875"/><path d="m99.895 119.47-.122.293m0-.003-.121.363m0-.003-.082.402" stroke-width=".877"/><path d="m99.57 120.53-.082.438m0-.008-.039.437" stroke-width=".876"/><path d="M99.449 121.4v.438" stroke-width=".869"/><path d="m99.449 121.84.121.293" stroke-width=".864"/><path d="m99.57 122.13.121.289m0 .001.485.328m.004.002.285.109m-.005.001.363-.035" stroke-width=".859"/><path d="m100.82 122.82.324-.035" stroke-width=".86"/><path d="m101.15 122.79.325-.109m-.005-.001.246-.184m.004.004.324-.254" stroke-width=".863"/><path d="m102.04 122.24.242-.293m-.002.003.242-.328m.008-.002.243-.363" stroke-width=".865"/><path d="m102.77 121.26.121-.367m-.001-.003.121-.364" stroke-width=".867"/><path d="m103.01 120.53.043-.367m.007-.003.039-.363" stroke-width=".871"/><path d="m103.09 119.8-.039-.621" stroke-width=".881"/><path d="m103.06 119.18-.203-.438" stroke-width=".888"/><path d="m102.85 118.74-.364-.363" stroke-width=".891"/><path d="m102.49 118.38-.445-.219" stroke-width=".894"/><path d="m102.04 118.16-.488-.035" stroke-width=".859"/><path d="m101.56 118.12-.485.363" stroke-width=".711"/><path d="m101.07 118.48-.285.403" stroke-width=".538"/><path d="m100.78 118.89-.164.289" stroke-width=".364"/><path d="m100.62 119.18-.16.293" stroke-width=".19"/><path d="m100.46 119.47-.242.472" stroke-width=".07"/><path d="m105.28 123.12-.847 3.133" stroke-width=".769"/><path d="m109.05 118.56-.406-.039" stroke-width=".805"/><path d="M108.64 118.52h-.325" stroke-width=".889"/><path d="m108.32 118.52-.402.328m.002.002-.285.621" stroke-width=".906"/><path d="m107.63 119.47-.121.437m.001.003-.082.477m.002-.007-.039.508M107.39 120.89l-.043.476m.003.004v.508m0 .002.043.437" stroke-width=".907"/><path d="m107.39 122.31.16.403" stroke-width=".905"/><path d="m107.55 122.72.121.293" stroke-width=".901"/><path d="m107.67 123.01.246.254" stroke-width=".895"/><path d="m107.92 123.26.445.254" stroke-width=".879"/><path d="m108.36 123.52.528.109m.002-.009.32-.035" stroke-width=".875"/><path d="m109.21 123.59.57-.219" stroke-width=".861"/><path d="m109.78 123.37.364-.473" stroke-width=".86"/><path d="m110.14 122.9.164-.511" stroke-width=".865"/><path d="m110.31 122.39.039-.403" stroke-width=".885"/><path d="m110.35 121.98-.203-.254" stroke-width=".913"/><path d="m110.14 121.73-.407-.074" stroke-width=".934"/><path d="m109.74 121.66-.445.149m-.005-.009-.242.218m.002.002-.203.289" stroke-width=".935"/><path d="m108.85 122.31-.16.329" stroke-width=".923"/><path d="m108.69 122.64-.122.293" stroke-width=".892"/><path d="m108.57 122.93-.125.437" stroke-width=".692"/><path d="m108.44 123.37.489.184" stroke-width=".07"/><path d="m112.78 119.36.407-.074" stroke-width=".732"/><path d="m113.18 119.28.324-.144" stroke-width=".756"/><path d="m113.51 119.14.324-.293" stroke-width=".765"/><path d="m113.83 118.85.16-.364" stroke-width=".77"/><path d="m113.99 118.48.164-.293" stroke-width=".779"/><path d="m114.16 118.19.16.329" stroke-width=".876"/><path d="m114.32 118.52.043.437" stroke-width=".903"/><path d="m114.36 118.96.039.512" stroke-width=".923"/><path d="m114.4 119.47.043.582" stroke-width=".937"/><path d="M114.44 120.05v.66m0 0 .039.617" stroke-width=".941"/><path d="M114.48 121.33v.656m0-.006v.621" stroke-width=".944"/><path d="M114.48 122.6v.622" stroke-width=".931"/><path d="M114.48 123.23v.546" stroke-width=".856"/><path d="M114.48 123.77v.582" stroke-width=".633"/><path d="M114.48 124.36v.438" stroke-width=".07"/><path d="m237.33 104.99-.285-.219" stroke-width=".74"/><path d="m237.05 104.77-.363-.183" stroke-width=".884"/><path d="m236.68 104.59-.325.183m.005-.003-.203.512m.003-.002-.082.363m-.008.007-.078.368m.008.002-.043.398" stroke-width=".923"/><path d="m235.95 106.41-.039.402m-.001.008.082.364" stroke-width=".922"/><path d="m236 107.18.078.367" stroke-width=".92"/><path d="m236.07 107.55.203.254" stroke-width=".913"/><path d="m236.28 107.8.243.219" stroke-width=".899"/><path d="m236.52 108.02.285.144" stroke-width=".881"/><path d="m236.8 108.16.566.148" stroke-width=".867"/><path d="M237.37 108.31h.567m.003 0 .406-.183m-.006.003.242-.219" stroke-width=".864"/><path d="m238.59 107.91.125-.328m-.005-.002.16-.363m0 .003.16-.438M239.03 106.78l.043-.437m-.003-.003.039-.438m.001.008.043-.402" stroke-width=".861"/><path d="M239.16 105.5v-.328" stroke-width=".863"/><path d="m239.16 105.18-.082-.547" stroke-width=".868"/><path d="m239.07 104.63-.242-.328" stroke-width=".891"/><path d="m238.83 104.3-.367-.149" stroke-width=".896"/><path d="M238.46 104.15h-.445" stroke-width=".865"/><path d="m238.02 104.15-.567.149" stroke-width=".75"/><path d="m237.45 104.3-.445.363" stroke-width=".49"/><path d="m241.67 108.38-.813 2.773" stroke-width=".659"/><path d="m245.52 103.24-.286-.219" stroke-width=".814"/><path d="m245.23 103.02-.32.036" stroke-width=".91"/><path d="m244.91 103.06-.324.402" stroke-width=".92"/><path d="m244.59 103.46-.164.328" stroke-width=".928"/><path d="m244.42 103.79-.203.438" stroke-width=".932"/><path d="m244.22 104.23-.121.437" stroke-width=".934"/><path d="m244.1 104.66-.082.512m.002.008-.078.508m-.002-.008-.083.476m.003.004.04.512m0-.002.043.437m-.003.003.16.438" stroke-width=".939"/><path d="m244.1 107.55.203.363" stroke-width=".934"/><path d="m244.3 107.91.242.293" stroke-width=".928"/><path d="m244.54 108.2.367.363" stroke-width=".907"/><path d="m244.91 108.57.402.11" stroke-width=".896"/><path d="m245.31 108.68.407-.035" stroke-width=".897"/><path d="m245.72 108.64.324-.403" stroke-width=".885"/><path d="m246.04 108.24.16-.328" stroke-width=".87"/><path d="m246.2 107.91.125-.363" stroke-width=".848"/><path d="m246.33 107.55.078-.367" stroke-width=".827"/><path d="m246.41 107.18.043-.364" stroke-width=".814"/><path d="m246.45 106.82.039-.328" stroke-width=".809"/><path d="m246.49 106.49-.16-.511" stroke-width=".81"/><path d="m246.33 105.98-.367-.219" stroke-width=".859"/><path d="m245.96 105.76-.324-.074" stroke-width=".878"/><path d="m245.64 105.68-.649.257m-.001.003-.281.254" stroke-width=".887"/><path d="m244.71 106.2-.246.367" stroke-width=".885"/><path d="m244.46 106.56-.121.329" stroke-width=".856"/><path d="m244.34 106.89-.078.363" stroke-width=".772"/><path d="m244.26 107.25.121.363" stroke-width=".529"/><path d="m244.38 107.62.16.258" stroke-width=".07"/><path d="m248.72 104.88.242-.184" stroke-width=".73"/><path d="m248.96 104.7.406-.328m.004-.002.403-.437" stroke-width=".738"/><path d="m249.77 103.93.285-.399" stroke-width=".753"/><path d="m250.06 103.54.16-.293" stroke-width=".791"/><path d="m250.22 103.24.121-.293" stroke-width=".837"/><path d="m250.34 102.95.082.586" stroke-width=".919"/><path d="m250.42 103.54.043.473" stroke-width=".942"/><path d="m250.46 104.01.039.656" stroke-width=".958"/><path d="M250.5 104.66v.766" stroke-width=".964"/><path d="M250.5 105.43v.875m0-.005-.082.875" stroke-width=".966"/><path d="m250.42 107.18-.039.84" stroke-width=".942"/><path d="m250.38 108.02-.043.73" stroke-width=".831"/><path d="m250.34 108.75-.02.309" stroke-width=".638"/><path d="m250.32 109.06-.019.308" stroke-width=".446"/><path d="m250.3 109.37.039.438" stroke-width=".07"/><path d="m352.85 103.75-.403-.109" stroke-width=".842"/><path d="m352.44 103.64-.449.109" stroke-width=".883"/><path d="m352 103.75-.199.398m-.001.002-.082.328" stroke-width=".885"/><path d="m351.72 104.48-.043.368m-.007.002-.039.507" stroke-width=".886"/><path d="M351.63 105.36v.512m0-.002v.547" stroke-width=".888"/><path d="m351.63 106.41.121.512m-.001.008.164.512" stroke-width=".887"/><path d="m351.92 107.44.203.363" stroke-width=".881"/><path d="m352.12 107.8.281.219" stroke-width=".873"/><path d="m352.4 108.02.528.183" stroke-width=".867"/><path d="m352.93 108.2.324-.109m-.004-.001.363-.184" stroke-width=".869"/><path d="m353.62 107.91.324-.328m-.004-.002.325-.363m.005.003.246-.403m-.006.003.199-.402m.001-.008.164-.363M354.88 106.05l.082-.367" stroke-width=".87"/><path d="m354.96 105.68.039-.329" stroke-width=".874"/><path d="m355 105.36-.16-.582" stroke-width=".877"/><path d="m354.84 104.77-.164-.253" stroke-width=".88"/><path d="m354.67 104.52-.242-.293" stroke-width=".882"/><path d="m354.43 104.23-.242-.219m.002-.001-.286-.184m-.004-.006-.242-.179" stroke-width=".885"/><path d="m353.66 103.64-.324-.219" stroke-width=".89"/><path d="m353.34 103.43-.164.254" stroke-width=".536"/><path d="m358.16 107.55-.324.363" stroke-width=".786"/><path d="m357.83 107.91-.203.293m.003-.003-.242.363" stroke-width=".792"/><path d="m357.39 108.57-.242.438" stroke-width=".789"/><path d="m357.14 109-.165.473" stroke-width=".735"/><path d="m356.98 109.48-.203.476" stroke-width=".645"/><path d="m356.78 109.95-.078.473" stroke-width=".42"/><path d="m356.7 110.43-.082.363" stroke-width=".07"/><path d="M362.09 102.95h-.324" stroke-width=".846"/><path d="m361.76 102.95-.324.184" stroke-width=".891"/><path d="m361.44 103.13-.446.402" stroke-width=".911"/><path d="m360.99 103.54-.16.328" stroke-width=".92"/><path d="m360.83 103.86-.203.399" stroke-width=".928"/><path d="m360.63 104.26-.203.511" stroke-width=".932"/><path d="m360.43 104.77-.121.547" stroke-width=".936"/><path d="m360.3 105.32-.164.621" stroke-width=".937"/><path d="m360.14 105.94-.121.657m.001.003-.04.656" stroke-width=".939"/><path d="m359.98 107.25-.042.621" stroke-width=".94"/><path d="m359.94 107.88.042.582m-.002-.002.161.512" stroke-width=".943"/><path d="m360.14 108.97.164.363" stroke-width=".937"/><path d="m360.3 109.33.203.254" stroke-width=".925"/><path d="m360.51 109.59.281.184" stroke-width=".917"/><path d="m360.79 109.77.57.074" stroke-width=".902"/><path d="m361.36 109.84.325-.074" stroke-width=".896"/><path d="m361.68 109.77.242-.219" stroke-width=".882"/><path d="m361.93 109.55.363-.293" stroke-width=".865"/><path d="m362.29 109.26.242-.363" stroke-width=".85"/><path d="m362.53 108.9.203-.329" stroke-width=".841"/><path d="m362.73 108.57.164-.363m.006-.007.079-.367" stroke-width=".835"/><path d="m362.98 107.84.043-.547" stroke-width=".839"/><path d="m363.02 107.29-.243-.328" stroke-width=".876"/><path d="m362.78 106.96-.57-.145" stroke-width=".913"/><path d="M362.21 106.82h-.605m-.005 0-.286.145" stroke-width=".924"/><path d="m361.32 106.96-.406.437" stroke-width=".922"/><path d="m360.91 107.4-.121.293" stroke-width=".886"/><path d="m360.79 107.69.043.364" stroke-width=".561"/><path d="m365.61 105.68.203-.289" stroke-width=".726"/><path d="m365.82 105.4.161-.547" stroke-width=".746"/><path d="m365.98 104.85.121-.403" stroke-width=".756"/><path d="m366.1 104.44.121-.402" stroke-width=".78"/><path d="m366.22 104.04.082-.438" stroke-width=".811"/><path d="m366.3 103.6.082-.328" stroke-width=".855"/><path d="m366.38 103.28.082-.398" stroke-width=".909"/><path d="m366.46 102.88.039.582" stroke-width=".917"/><path d="m366.5 103.46.039.512" stroke-width=".925"/><path d="m366.54 103.97.082.582" stroke-width=".931"/><path d="m366.62 104.56.039.656" stroke-width=".934"/><path d="M366.66 105.21v.656m0 .004.043.695" stroke-width=".936"/><path d="m366.71 106.56.039.657" stroke-width=".929"/><path d="m366.75 107.22.039.582" stroke-width=".863"/><path d="m366.78 107.8.043.73" stroke-width=".672"/><path d="M366.83 108.53v.582" stroke-width=".07"/><path d="M395.94 114.97v40.64" stroke-dasharray="0.5, 3" stroke-width=".952"/></g><g stroke="#0f0"><path d="m85.145 84.062.039-.367" stroke-width=".781"/><path d="m85.184 83.695.246-.363" stroke-width=".795"/><path d="m85.43 83.332.203-.254" stroke-width=".798"/><path d="m85.633 83.078.281-.367m0 0 .367-.399" stroke-width=".802"/><path d="m86.281 82.312.446-.511m0 0 .445-.547m0 0 .484-.512M87.656 80.742l.489-.547" stroke-width=".806"/><path d="m88.145 80.195.445-.472m0 0 .445-.403m0 0 .406-.328M89.441 78.992l.325-.289" stroke-width=".807"/><path d="m89.766 78.703.363-.219m0 0 .242-.183" stroke-width=".813"/><path d="m90.371 78.301.285-.184" stroke-width=".814"/><path d="m90.656 78.117.364-.144" stroke-width=".818"/><path d="m91.02 77.973.324-.219" stroke-width=".821"/><path d="m91.344 77.754.406-.219" stroke-width=".823"/><path d="m91.75 77.535.363-.219m0 0 .407-.254" stroke-width=".825"/><path d="m92.52 77.062.406-.257" stroke-width=".832"/><path d="m92.926 76.805.445-.254" stroke-width=".834"/><path d="m93.371 76.551.445-.258" stroke-width=".835"/><path d="m93.816 76.293.446-.254" stroke-width=".84"/><path d="m94.262 76.039.445-.254" stroke-width=".844"/><path d="m94.707 75.785.445-.258" stroke-width=".847"/><path d="m95.152 75.527.407-.254m0 0 .445-.218" stroke-width=".849"/><path d="m96.004 75.055.406-.219m0 0 .445-.219m0 0 .407-.183" stroke-width=".854"/><path d="m97.262 74.434.445-.18m0 0 .445-.149" stroke-width=".855"/><path d="m98.152 74.105.485-.179" stroke-width=".857"/><path d="m98.637 73.926.488-.184m0 0 .484-.219" stroke-width=".859"/><path d="m99.609 73.523.489-.144m.002 0 .484-.149m-.004 0 .406-.144" stroke-width=".866"/><path d="m100.99 73.086.407-.109" stroke-width=".87"/><path d="m101.4 72.977.363-.11" stroke-width=".873"/><path d="m101.76 72.867.363-.109" stroke-width=".876"/><path d="m102.12 72.758.567-.219" stroke-width=".878"/><path d="m102.69 72.539.609-.184m.001 0 .363-.035" stroke-width=".883"/><path d="m103.66 72.32.367-.074" stroke-width=".889"/><path d="m104.03 72.246.407-.035" stroke-width=".89"/><path d="m104.43 72.211.402-.035m.008 0 .406-.074m-.006 0 .363-.036" stroke-width=".892"/><path d="m105.6 72.066.407-.039m.003 0 .406-.07m.004 0 .363-.039" stroke-width=".896"/><path d="m106.78 71.918.364-.07m-.004 0 .406-.039" stroke-width=".898"/><path d="m107.55 71.809.406-.036" stroke-width=".902"/><path d="m107.96 71.773.406-.035m-.006 0 .446-.074" stroke-width=".907"/><path d="m108.81 71.664.445-.035m-.005 0 .484-.039m.006 0 .446-.035" stroke-width=".916"/><path d="m110.18 71.555.449-.035" stroke-width=".919"/><path d="M110.63 71.52h.445" stroke-width=".92"/><path d="M111.08 71.52h.445m-.005 0h.403m.007 0h.406" stroke-width=".924"/><path d="M112.33 71.52h.406m.004 0 .364.035m-.004 0 .324.035" stroke-width=".928"/><path d="m113.43 71.59.609.109" stroke-width=".929"/><path d="m114.04 71.699.324.074m-.004 0 .364.075m-.004 0 .367.07" stroke-width=".93"/><path d="m115.09 71.918.363.074m-.003 0 .406.074m.004 0 .446.071m-.006 0 .445.074" stroke-width=".935"/><path d="m116.75 72.211.445.109" stroke-width=".939"/><path d="m117.2 72.32.485.184m-.005 0 .445.144m-.005 0 .449.145" stroke-width=".943"/><path d="m118.57 72.793.403.148m.007 0 .406.145" stroke-width=".95"/><path d="m119.38 73.086.363.144m.007 0 .367.149m-.007 0 .403.144" stroke-width=".949"/><path d="m120.52 73.523.367.145m-.007 0 .406.148m.004 0 .402.145" stroke-width=".952"/><path d="m121.69 73.961.407.219m.003 0 .406.144m-.006 0 .402.219m.008 0 .449.219" stroke-width=".954"/><path d="m123.36 74.762.403.218" stroke-width=".955"/><path d="m123.76 74.98.367.184m-.007 0 .281.145m.009 0 .324.148" stroke-width=".958"/><path d="m124.73 75.457.489.289" stroke-width=".959"/><path d="m125.22 75.746.484.293" stroke-width=".957"/><path d="m125.7 76.039.445.254m.005 0 .286.219m-.006 0 .566.328m.004 0 .242.183M127.24 77.023l.324.184m.006 0 .246.184m-.006 0 .282.179" stroke-width=".959"/><path d="m128.09 77.57.285.184m.005 0 .484.363" stroke-width=".961"/><path d="m128.86 78.117.489.328M129.35 78.445l.242.184m-.002 0 .242.183m.008 0 .242.18" stroke-width=".96"/><path d="m130.08 78.992.285.184m-.005 0 .242.219m-.002 0 .325.218M130.93 79.613l.285.219m.005 0 .324.254M131.54 80.086l.242.328m-.002 0 .285.219m.005 0 .282.328" stroke-width=".962"/><path d="m132.35 80.961.246.293m-.006 0 .281.293m.009 0 .242.328" stroke-width=".963"/><path d="m133.12 81.875.285.254m-.005 0 .243.293" stroke-width=".964"/><path d="m133.64 82.422.242.289m.008 0 .246.293m-.006 0 .281.328" stroke-width=".963"/><path d="m134.41 83.332.246.328m.004 0 .281.363m-.001 0 .243.368" stroke-width=".964"/><path d="m135.18 84.391.285.363m.005 0 .242.367" stroke-width=".965"/><path d="m135.71 85.121.324.328m.006 0 .285.363m-.005 0 .325.329" stroke-width=".964"/><path d="m136.64 86.141.242.328m.008 0 .242.328" stroke-width=".965"/><path d="m137.13 86.797.285.363" stroke-width=".962"/><path d="m137.41 87.16.242.367m.008 0 .285.364m-.005 0 .243.402" stroke-width=".959"/><path d="m138.18 88.293.324.398m.006 0 .324.438" stroke-width=".955"/><path d="m138.83 89.129.285.437" stroke-width=".951"/><path d="m139.12 89.566.321.438" stroke-width=".95"/><path d="m139.44 90.004.246.402" stroke-width=".943"/><path d="m139.68 90.406.281.364" stroke-width=".942"/><path d="m139.96 90.77.285.402" stroke-width=".937"/><path d="m140.25 91.172.242.367" stroke-width=".935"/><path d="m140.49 91.539.242.399" stroke-width=".934"/><path d="m140.73 91.938.246.367m.004 0 .204.363" stroke-width=".93"/><path d="m141.18 92.668.242.402" stroke-width=".927"/><path d="m141.43 93.07.203.364m-.003 0 .121.363m-.001 0 .16.367" stroke-width=".925"/><path d="m141.91 94.164.164.328m-.004 0 .16.363m0 0 .164.329" stroke-width=".924"/><path d="m142.4 95.184.243.363m-.003 0 .121.328m-.001 0 .164.367" stroke-width=".922"/><path d="m142.93 96.242.16.328m0 0 .121.328" stroke-width=".924"/><path d="m143.21 96.898.121.329" stroke-width=".923"/><path d="m143.33 97.227.121.363" stroke-width=".921"/><path d="m143.45 97.59.121.363" stroke-width=".918"/><path d="m143.57 97.953.125.367m.005 0 .121.438" stroke-width=".915"/><path d="m143.82 98.758.122.402m-.002 0 .082.399m-.002 0 .121.367" stroke-width=".912"/><path d="m144.14 99.926.078.363m.002.001.082.293" stroke-width=".911"/><path d="m144.3 100.58.043.328" stroke-width=".909"/><path d="m144.34 100.91.078.508" stroke-width=".903"/><path d="m144.42 101.42.043.477" stroke-width=".895"/><path d="m144.46 101.9.078.617" stroke-width=".892"/><path d="m144.54 102.51.043.367" stroke-width=".891"/><path d="m144.59 102.88.039.328" stroke-width=".889"/><path d="m144.62 103.21.082.363m.008-.003.082.328" stroke-width=".886"/><path d="m144.79 103.9.078.364" stroke-width=".877"/><path d="m144.87 104.26.125.293" stroke-width=".871"/><path d="m144.99 104.56.121.293" stroke-width=".865"/><path d="m145.11 104.85.203.472" stroke-width=".86"/><path d="m145.32 105.32.161.512" stroke-width=".856"/><path d="m145.48 105.83.121.438" stroke-width=".854"/><path d="m145.6 106.27.082.402" stroke-width=".85"/><path d="m145.68 106.67.082.363" stroke-width=".848"/><path d="m145.76 107.04.078.403" stroke-width=".847"/><path d="M145.84 107.44v.437" stroke-width=".844"/><path d="m145.84 107.88.043.398m-.003-.008.078.403m.002.007.043.437m-.003-.007.039.328" stroke-width=".845"/><path d="m146.04 109.44.043.329" stroke-width=".842"/><path d="m146.09 109.77.078.472m-.008-.002.121.403" stroke-width=".841"/><path d="m146.28 110.64.125.402" stroke-width=".843"/><path d="M146.41 111.05v.398" stroke-width=".841"/><path d="m146.41 111.44.078.293" stroke-width=".844"/><path d="m146.49 111.74.082.328" stroke-width=".872"/><path d="m212.33 85.996 58.793 74.789" stroke-width=".786"/><path d="M340.23 155.6h56.414" stroke-width=".981"/></g><g stroke="#00c0ff"><path d="M270.59 116.04v41.61" stroke-dasharray="0.5, 3" stroke-width=".91"/><path d="m265.7 103.13-.246-.184m-.004.004.449-.289m.001-.001.325-.148m-.005-.002.324-.145m.006.005.281-.144m-.001-.006.363-.11" stroke-width=".97"/><path d="m267.19 102.11.286.219" stroke-width=".976"/><path d="m267.48 102.33.039.617" stroke-width=".978"/><path d="M267.52 102.95v.477m0 .003-.039.547m-.001-.007-.082.582" stroke-width=".983"/><path d="m267.4 104.56-.122.582" stroke-width=".985"/><path d="m267.27 105.14-.121.586" stroke-width=".986"/><path d="m267.15 105.72-.16.472" stroke-width=".988"/><path d="m266.99 106.2-.164.367" stroke-width=".994"/><path d="m266.83 106.56-.242.364" stroke-width="1.03"/><path d="m266.59 106.93.203.254m-.003-.004h.649" stroke-width="1.046"/><path d="m267.44 107.18.363-.071" stroke-width="1.049"/><path d="m267.8 107.11.285-.148m.005-.002.363-.289" stroke-width="1.05"/><path d="m268.45 106.67.567-.074" stroke-width=".676"/><path d="m272.3 107.47-1.293 4.23" stroke-width=".853"/><path d="m274.12 100.87.445.219" stroke-width=".788"/><path d="m274.57 101.09.325.074" stroke-width=".799"/><path d="m274.89 101.16.445.074" stroke-width=".804"/><path d="m275.34 101.24.488.035m-.008-.005h.485" stroke-width=".805"/><path d="m276.31 101.27.488-.035" stroke-width=".751"/><path d="m276.8 101.24.445-.074" stroke-width=".656"/><path d="m277.24 101.16.406-.184" stroke-width=".444"/><path d="m277.65 100.98.325-.144" stroke-width=".07"/><path d="m275.06 101.6-.082.293" stroke-width=".644"/><path d="m274.97 101.9-.121.546" stroke-width=".712"/><path d="m274.85 102.44-.082.289" stroke-width=".734"/><path d="m274.77 102.73-.04.512" stroke-width=".755"/><path d="m274.73 103.24.04.363" stroke-width=".767"/><path d="m274.77 103.6.367.293" stroke-width=".775"/><path d="m275.14 103.9.324.145m-.004-.005.445.074m.005.006.524.074" stroke-width=".778"/><path d="m276.43 104.19.527.071" stroke-width=".775"/><path d="m276.96 104.26.488.109" stroke-width=".767"/><path d="m277.44 104.37.325.149" stroke-width=".742"/><path d="m277.77 104.52.242.363" stroke-width=".738"/><path d="m278.01 104.88.039.512" stroke-width=".78"/><path d="M278.05 105.4v.363" stroke-width=".814"/><path d="m278.05 105.76-.039.402" stroke-width=".85"/><path d="m278.01 106.16-.082.438" stroke-width=".874"/><path d="m277.93 106.6-.16.472" stroke-width=".894"/><path d="m277.77 107.07-.204.477" stroke-width=".91"/><path d="m277.57 107.55-.164.398" stroke-width=".923"/><path d="m277.4 107.94-.242.328" stroke-width=".932"/><path d="m277.16 108.27-.16.293m0 .007-.285.184" stroke-width=".938"/><path d="m276.72 108.75-.324.18" stroke-width=".866"/><path d="m276.39 108.93-.446.328" stroke-width=".525"/><path d="m275.94 109.26-.445.219" stroke-width=".07"/><path d="m390.17 102.88.363-.039" stroke-width=".938"/><path d="m390.53 102.84.407.039m.003.001.523.07m-.003 0 .57.074" stroke-width=".94"/><path d="m392.03 103.02.524.075m.006.005.449.07m-.009 0 .484.219" stroke-width=".938"/><path d="m393.49 103.39.082.476" stroke-width=".96"/><path d="m393.57 103.86-.121.399m.001.001-.285.476" stroke-width=".965"/><path d="m393.16 104.74-.363.547" stroke-width=".971"/><path d="m392.8 105.28-.406.582" stroke-width=".972"/><path d="m392.4 105.87-.325.512" stroke-width=".971"/><path d="m392.07 106.38-.242.473m.002-.003-.164.328" stroke-width=".97"/><path d="m391.66 107.18-.242.367" stroke-width=".969"/><path d="m391.42 107.55.285.254m.005-.004.566.109" stroke-width=".964"/><path d="m392.27 107.91.649.074m.001-.004.324-.039" stroke-width=".967"/><path d="m393.25 107.94.363-.035" stroke-width=".966"/><path d="m393.61 107.91.368-.035" stroke-width=".948"/><path d="m393.98 107.88.324-.109" stroke-width=".868"/><path d="m394.3 107.77.363-.11" stroke-width=".699"/><path d="m394.66 107.66.445-.183" stroke-width=".425"/><path d="m395.11 107.47.364-.145" stroke-width=".07"/><path d="m397.18 106.45-.649 3.461" stroke-width=".868"/><path d="m401.02 102.44.368.145" stroke-width=".828"/><path d="M401.39 102.59h.605" stroke-width=".862"/><path d="m402 102.59.367-.035m-.007-.005.403-.074m.007.004.324-.145" stroke-width=".865"/><path d="m403.09 102.33.324-.148" stroke-width=".864"/><path d="m403.41 102.18.324-.399" stroke-width=".8"/><path d="m403.74 101.78.121-.367" stroke-width=".544"/><path d="m403.86 101.42.043-.328" stroke-width=".07"/><path d="m401.47 102.26-.16.328" stroke-width=".665"/><path d="m401.31 102.59-.164.328" stroke-width=".734"/><path d="m401.14 102.91-.122.363" stroke-width=".778"/><path d="m401.02 103.28-.16.328" stroke-width=".804"/><path d="m400.86 103.6-.121.293" stroke-width=".823"/><path d="m400.74 103.9-.121.473" stroke-width=".848"/><path d="m400.62 104.37-.043.402m.003-.002.246.219m-.006.001.403.11m.007 0 .367.035" stroke-width=".858"/><path d="m401.59 105.14.523-.035m.007-.005.528-.075" stroke-width=".86"/><path d="m402.64 105.03.406-.144m.004-.006.363-.035" stroke-width=".858"/><path d="m403.41 104.85.324.289" stroke-width=".86"/><path d="m403.74 105.14.082.293" stroke-width=".863"/><path d="m403.82 105.43.039.328" stroke-width=".871"/><path d="M403.86 105.76v.328" stroke-width=".891"/><path d="m403.86 106.09-.039.367" stroke-width=".915"/><path d="m403.82 106.45-.16.399" stroke-width=".943"/><path d="m403.66 106.85-.285.437" stroke-width=".97"/><path d="m403.38 107.29-.406.367" stroke-width=".998"/><path d="m402.97 107.66-.446.328" stroke-width="1.013"/><path d="m402.52 107.98-.484.254m.004.006-.445.145m-.005-.005-.449.109" stroke-width="1.023"/><path d="m401.14 108.49-.321.074" stroke-width=".955"/><path d="m400.82 108.57-.285-.109" stroke-width=".525"/><path d="m140.86 118.34.161-.258m-.001-.002.324-.18m-.004 0 .324-.148" stroke-width="1.037"/><path d="m141.67 117.75.324-.109m-.004-.001.324-.11" stroke-width="1.036"/><path d="M142.32 117.54h.485" stroke-width="1.03"/><path d="m142.8 117.54.324.293" stroke-width="1.022"/><path d="m143.12 117.83.125.328m.005.002v.403m0-.003.039.472m.001-.002-.039.547m-.001.003-.043.547m.003-.007-.082.547m-.008.003-.16.476" stroke-width="1.02"/><path d="m142.96 121.15-.164.399" stroke-width="1.027"/><path d="m142.8 121.55-.281.328" stroke-width="1.03"/><path d="m142.52 121.88-.243.293" stroke-width="1.036"/><path d="m142.28 122.17-.324.219" stroke-width="1.038"/><path d="m141.95 122.39-.285.254" stroke-width="1.04"/><path d="m141.67 122.64-.285.257m-.005.003-.403.329" stroke-width="1.043"/><path d="m140.98 123.23.204.289" stroke-width="1.036"/><path d="m141.18 123.52.484.109m.006-.009.527.074" stroke-width="1.038"/><path d="m142.2 123.7.567.11" stroke-width="1.03"/><path d="m142.76 123.81.609.035" stroke-width=".966"/><path d="m143.37 123.84.344-.016" stroke-width=".785"/><path d="m143.72 123.83.344-.019" stroke-width=".603"/><path d="m144.06 123.81.324-.036" stroke-width=".07"/><path d="m147.71 123.52-.691 3.101" stroke-width=".879"/><path d="m150.18 119 3.89-1.133" stroke-width=".916"/><path d="m151.59 118.05-.242.254" stroke-width=".693"/><path d="m151.35 118.3-.161.258" stroke-width=".783"/><path d="m151.19 118.56-.203.328" stroke-width=".845"/><path d="m150.99 118.89-.203.437" stroke-width=".887"/><path d="m150.78 119.32-.121.438" stroke-width=".908"/><path d="m150.66 119.76-.121.402" stroke-width=".919"/><path d="m150.54 120.16-.082.438m.002.002-.043.328M150.42 120.93l.043.472m-.003-.002.363.219m-.003.001h.324" stroke-width=".927"/><path d="m151.15 121.62.325.035" stroke-width=".923"/><path d="M151.47 121.66h.324" stroke-width=".92"/><path d="M151.8 121.66h.406" stroke-width=".911"/><path d="M152.2 121.66h.324" stroke-width=".897"/><path d="M152.53 121.66h.567" stroke-width=".872"/><path d="M153.09 121.66h.445" stroke-width=".853"/><path d="m153.54 121.66.367.184" stroke-width=".844"/><path d="m153.91 121.84.242.402" stroke-width=".854"/><path d="m154.15 122.24.122.473" stroke-width=".88"/><path d="m154.27 122.72-.165.547" stroke-width=".919"/><path d="m154.1 123.26-.242.254" stroke-width=".931"/><path d="m153.86 123.52-.324.218" stroke-width=".944"/><path d="m153.54 123.73-.484.219m.004.001-.571.184" stroke-width=".949"/><path d="m152.48 124.14-.605.144" stroke-width=".934"/><path d="m151.88 124.28-.649.149" stroke-width=".876"/><path d="m151.23 124.43-.851.218" stroke-width=".673"/><path d="m150.38 124.65-.344.071" stroke-width=".372"/><path d="m150.04 124.72-.344.074" stroke-width=".07"/></g><g stroke="#ff8000"><path d="M84.559 70.949h22.867" stroke-dasharray="0.5, 3" stroke-width=".944"/><path d="M213.05 161.41h57.461" stroke-dasharray="0.5, 3" stroke-width=".953"/><path d="M317.27 155.87h3.035" stroke-width=".762"/><path d="m324.93 152.65-.082-.328" stroke-width=".87"/><path d="m324.85 152.32-.368-.293" stroke-width=".991"/><path d="m324.48 152.03-.566-.109" stroke-width="1.029"/><path d="m323.92 151.92-.566-.035" stroke-width="1.044"/><path d="m323.35 151.89-.407.183m-.003-.003-.16.254m0-.004-.082.328" stroke-width="1.048"/><path d="m322.7 152.65-.039.438m-.001.002v.437m0 .003.121.438" stroke-width="1.047"/><path d="m322.78 153.96.16.328" stroke-width="1.046"/><path d="m322.94 154.29.164.254" stroke-width="1.043"/><path d="m323.11 154.55.364.258" stroke-width="1.034"/><path d="m323.47 154.8.363.035" stroke-width="1.033"/><path d="m323.84 154.84.285-.402m-.005.002.164-.29" stroke-width="1.034"/><path d="m324.28 154.15.121-.367m.009-.003.121-.289" stroke-width="1.033"/><path d="m324.53 153.49.203-.476" stroke-width="1.031"/><path d="m324.73 153.02.122.402" stroke-width="1.026"/><path d="M324.85 153.42v.473" stroke-width="1.03"/><path d="M324.85 153.89v.547" stroke-width="1.033"/><path d="M324.85 154.44v.621m0-.001-.043.656m.003.004v.656" stroke-width="1.037"/><path d="m324.81 156.37-.039.586" stroke-width="1.036"/><path d="m324.77 156.96-.04.547" stroke-width="1.027"/><path d="M324.73 157.5v.508" stroke-width=".986"/><path d="M324.73 158.01v.437" stroke-width=".807"/><path d="m324.73 158.45.079.477" stroke-width=".07"/><path d="m328.09 158.45-1.055 2.406" stroke-width=".853"/><path d="m332.51 155.9.324.18" stroke-width=".801"/><path d="m332.83 156.08.406.442m.004-.002.16.253m0-.003.164.293" stroke-width=".808"/><path d="m333.56 157.07.04.329" stroke-width=".814"/><path d="m333.6 157.4.043.363" stroke-width=".819"/><path d="m333.64 157.76.039.363" stroke-width=".826"/><path d="m333.68 158.12-.039.402" stroke-width=".833"/><path d="m333.64 158.52-.083.403" stroke-width=".843"/><path d="m333.56 158.93-.164.363" stroke-width=".854"/><path d="m333.4 159.29-.199.293" stroke-width=".872"/><path d="m333.2 159.58-.246.18" stroke-width=".896"/><path d="m332.95 159.76-.484.183" stroke-width=".929"/><path d="M332.47 159.94h-.407" stroke-width=".948"/><path d="m332.06 159.94-.285-.109m.005.009-.16-.293" stroke-width=".952"/><path d="m331.62 159.54-.082-.473" stroke-width=".945"/><path d="M331.54 159.07v-.363" stroke-width=".941"/><path d="M331.54 158.71v-.367" stroke-width=".933"/><path d="M331.54 158.34v-.438" stroke-width=".923"/><path d="m331.54 157.9.082-.437" stroke-width=".915"/><path d="m331.62 157.46.121-.473" stroke-width=".903"/><path d="m331.74 156.99.164-.512" stroke-width=".887"/><path d="m331.9 156.48.16-.511" stroke-width=".873"/><path d="m332.06 155.97.165-.473" stroke-width=".861"/><path d="m332.23 155.5.078-.473" stroke-width=".855"/><path d="m332.3 155.02.082-.476" stroke-width=".848"/><path d="m332.39 154.55.082-.399" stroke-width=".838"/><path d="m332.47 154.15.082-.402" stroke-width=".828"/><path d="m332.55 153.75.039-.437" stroke-width=".803"/><path d="m332.59 153.31.039-.403" stroke-width=".769"/><path d="m332.63 152.91.043-.398" stroke-width=".739"/><path d="M332.67 152.51v-.438" stroke-width=".726"/><path d="M332.67 152.07v-.367" stroke-width=".722"/><path d="m332.67 151.7-.043-.547" stroke-width=".72"/><path d="m332.63 151.16-.281-.289" stroke-width=".744"/><path d="M332.35 150.87h-.407" stroke-width=".758"/><path d="m331.94 150.87-.285.328" stroke-width=".777"/><path d="m331.66 151.2-.16.289" stroke-width=".795"/><path d="m331.5 151.48-.121.328" stroke-width=".812"/><path d="m331.38 151.81-.121.329" stroke-width=".828"/><path d="m331.25 152.14-.121.402" stroke-width=".842"/><path d="m331.13 152.54-.082.437" stroke-width=".855"/><path d="m331.05 152.98-.082.473" stroke-width=".868"/><path d="m330.97 153.45-.082.477" stroke-width=".874"/><path d="m330.89 153.93-.039.472" stroke-width=".877"/><path d="M330.85 154.4v.403" stroke-width=".88"/><path d="M330.85 154.8v.398" stroke-width=".881"/><path d="m330.85 155.2.203.547" stroke-width=".872"/><path d="m331.05 155.75.445.328" stroke-width=".776"/><path d="m331.5 156.08.484.149" stroke-width=".651"/><path d="m331.98 156.23.407.109" stroke-width=".07"/><path d="m178.82 160.09 3.688.656" stroke-width=".919"/><path d="m186 160.02.203-.438" stroke-width=".798"/><path d="m186.2 159.58.16-.293m0 .003.243-.363m-.003.003.242-.403" stroke-width=".802"/><path d="m186.84 158.52.246-.402m.004.002.242-.398m-.002-.002.16-.368m0 .008.164-.289" stroke-width=".803"/><path d="m187.66 157.07.082-.328" stroke-width=".804"/><path d="m187.74 156.74.078.547" stroke-width=".886"/><path d="M187.82 157.28v.508" stroke-width=".907"/><path d="m187.82 157.79.043.656" stroke-width=".918"/><path d="M187.86 158.45v.766" stroke-width=".921"/><path d="M187.86 159.22v.875m0-.005v.84" stroke-width=".922"/><path d="M187.86 160.93v.765" stroke-width=".89"/><path d="M187.86 161.7v.621" stroke-width=".809"/><path d="M187.86 162.32v.508" stroke-width=".633"/><path d="m187.86 162.82.039.328" stroke-width=".07"/><path d="m190.17 160.16.285-.184" stroke-width=".744"/><path d="m190.45 159.98.527-.035" stroke-width=".785"/><path d="m190.98 159.94.567.11" stroke-width=".803"/><path d="m191.55 160.06.242.183m-.002-.003.203.254" stroke-width=".806"/><path d="m191.99 160.49.16.328" stroke-width=".809"/><path d="m192.15 160.82.121.364m-.001-.004.082.402" stroke-width=".812"/><path d="m192.36 161.59.043.437" stroke-width=".814"/><path d="M192.4 162.02v.403" stroke-width=".817"/><path d="m192.4 162.43-.043.328" stroke-width=".821"/><path d="m192.36 162.75-.121.289" stroke-width=".831"/><path d="m192.23 163.04-.484.293" stroke-width=".878"/><path d="m191.75 163.34-.324.039" stroke-width=".896"/><path d="m191.43 163.38-.571-.113" stroke-width=".926"/><path d="m190.86 163.26-.363-.289" stroke-width=".93"/><path d="m190.49 162.97-.121-.403" stroke-width=".922"/><path d="m190.37 162.57.121-.547" stroke-width=".913"/><path d="m190.49 162.02.121-.328" stroke-width=".905"/><path d="m190.61 161.7.203-.437" stroke-width=".896"/><path d="m190.82 161.26.204-.438" stroke-width=".883"/><path d="m191.02 160.82.242-.437" stroke-width=".864"/><path d="m191.26 160.38.203-.473" stroke-width=".837"/><path d="m191.46 159.91.16-.476" stroke-width=".812"/><path d="m191.62 159.43.164-.438" stroke-width=".797"/><path d="m191.79 159 .121-.437" stroke-width=".778"/><path d="m191.91 158.56.082-.364" stroke-width=".761"/><path d="m191.99 158.2.082-.328" stroke-width=".745"/><path d="m192.07 157.87.078-.472" stroke-width=".737"/><path d="m192.15 157.4-.203-.293" stroke-width=".741"/><path d="m191.95 157.1-.445-.145" stroke-width=".798"/><path d="m191.5 156.96-.566-.109" stroke-width=".879"/><path d="m190.94 156.85-.446.144" stroke-width=".904"/><path d="m190.49 156.99-.285.582m.005-.002-.039.438m-.001.002-.039.511" stroke-width=".905"/><path d="m190.13 158.52.039.512" stroke-width=".903"/><path d="m190.17 159.04.164.473" stroke-width=".874"/><path d="m190.33 159.51.16.363" stroke-width=".818"/><path d="m190.49 159.87.242.258" stroke-width=".74"/><path d="m190.73 160.13.246.18" stroke-width=".633"/><path d="m190.98 160.31.364.074" stroke-width=".405"/><path d="m196.45 162.64-.164.289" stroke-width=".871"/><path d="m196.28 162.93-.039.328m.009.002-.039.476m-.001.004-.082.547" stroke-width=".876"/><path d="m196.12 164.28-.043.547" stroke-width=".871"/><path d="m196.08 164.83-.078.547" stroke-width=".831"/><path d="m196 165.38-.043.473" stroke-width=".748"/><path d="M195.96 165.85v.367" stroke-width=".628"/><path d="m195.96 166.22-.039.363" stroke-width=".07"/><path d="m199.28 156.96.485-.293m.005-.007.445-.109m.005.009.449-.11M200.66 156.44l.445-.109" stroke-width=".882"/><path d="m201.11 156.34.364-.035m-.004-.005h.324" stroke-width=".88"/><path d="m201.8 156.3.406.363" stroke-width=".889"/><path d="m202.2 156.66.121.328m-.001.002.039.473" stroke-width=".901"/><path d="M202.36 157.46v.476m0 .004-.039.582m-.001-.002-.121.622" stroke-width=".902"/><path d="m202.2 159.14-.164.582m.004.008-.242.546m.002-.006-.203.403" stroke-width=".903"/><path d="m201.59 160.68-.242.328" stroke-width=".924"/><path d="m201.35 161-.243.18" stroke-width=".948"/><path d="m201.11 161.18-.488.257" stroke-width=".99"/><path d="m200.62 161.44-.406.11" stroke-width="1.004"/><path d="m200.22 161.55.203.254" stroke-width="1.003"/><path d="m200.42 161.8.367.183" stroke-width="1.004"/><path d="m200.78 161.99.445.145" stroke-width="1.006"/><path d="m201.23 162.13.567.074M201.8 162.21h.363m-.003 0h.324m-.004 0h.325" stroke-width="1.01"/><path d="m202.81 162.21.367-.039" stroke-width="1.011"/><path d="m203.18 162.17.527-.07" stroke-width="1.008"/><path d="m203.7 162.1.445-.184" stroke-width=".895"/><path d="m204.15 161.91.243-.184" stroke-width=".684"/><path d="m201.76 81.109-.446-.074" stroke-width=".951"/><path d="m201.31 81.035-.449.035" stroke-width=".984"/><path d="m200.86 81.07-.445.368" stroke-width=".998"/><path d="m200.42 81.438-.203.289" stroke-width="1.006"/><path d="m200.22 81.727-.242.402" stroke-width="1.012"/><path d="m199.97 82.129-.203.512" stroke-width="1.02"/><path d="m199.77 82.641-.2.582" stroke-width="1.026"/><path d="m199.57 83.223-.203.656" stroke-width="1.03"/><path d="m199.37 83.879-.121.695" stroke-width="1.032"/><path d="m199.25 84.574-.125.727" stroke-width="1.033"/><path d="m199.12 85.301-.078.73" stroke-width="1.035"/><path d="m199.04 86.031-.043.657m.003 0v.621" stroke-width="1.036"/><path d="m199 87.309.043.546" stroke-width="1.035"/><path d="m199.04 87.855.16.473m0 0 .164.293" stroke-width="1.034"/><path d="m199.37 88.621.242.219" stroke-width="1.027"/><path d="m199.61 88.84.325.144" stroke-width="1.017"/><path d="m199.93 88.984.324.036" stroke-width="1.01"/><path d="M200.26 89.02h.363" stroke-width="1.007"/><path d="m200.62 89.02.367-.071" stroke-width="1.004"/><path d="m200.99 88.949.324-.109m-.004 0 .282-.184m-.002 0 .242-.218m.008 0 .203-.254m-.003 0 .164-.438" stroke-width="1.001"/><path d="m202.2 87.746-.043-.476" stroke-width="1.002"/><path d="m202.16 87.27-.281-.364" stroke-width="1.014"/><path d="m201.88 86.906-.285-.109" stroke-width="1.022"/><path d="m201.59 86.797-.324-.035m.004 0-.606.07m-.004 0-.324.109" stroke-width="1.027"/><path d="m200.34 86.941-.246.219" stroke-width="1.014"/><path d="m200.09 87.16-.203.328" stroke-width=".965"/><path d="m199.89 87.488-.161.367" stroke-width=".807"/><path d="M199.73 87.855v.547" stroke-width=".49"/><path d="M199.73 88.402v.473" stroke-width=".07"/><path d="m61.848 69.039.281-.402" stroke-width=".905"/><path d="m62.129 68.637.164-.289" stroke-width=".921"/><path d="m62.293 68.348.242-.328" stroke-width=".928"/><path d="m62.535 68.02.203-.403" stroke-width=".936"/><path d="m62.738 67.617.164-.363" stroke-width=".943"/><path d="m62.902 67.254.16-.332" stroke-width=".948"/><path d="m63.062 66.922.122-.289" stroke-width=".949"/><path d="m63.184 66.633.203-.293" stroke-width=".953"/><path d="m63.387 66.34.285.144" stroke-width=".968"/><path d="m63.672 66.484.078.328" stroke-width=".983"/><path d="m63.75 66.812.043.442" stroke-width=".997"/><path d="m63.793 67.254.039.582" stroke-width="1.004"/><path d="m63.832 67.836.039.656" stroke-width="1.008"/><path d="m63.871 68.492-.039.692m0 0-.039.73" stroke-width="1.011"/><path d="m63.793 69.914-.082.691m0 0-.121.657" stroke-width="1.012"/><path d="m63.59 71.262-.121.621" stroke-width="1.011"/><path d="m63.469 71.883-.121.547" stroke-width=".994"/><path d="m63.348 72.43-.082.472" stroke-width=".94"/><path d="m63.266 72.902-.039.403" stroke-width=".821"/><path d="m63.227 73.305.078.363" stroke-width=".514"/><path d="m68.613 66.195-.324-.148" stroke-width=".917"/><path d="m68.289 66.047-.363-.035" stroke-width="1.008"/><path d="m67.926 66.012-.367.437" stroke-width="1.011"/><path d="m67.559 66.449-.2.438m0 0-.164.656m0 0-.16.73m0 0-.082.84" stroke-width="1.015"/><path d="m66.953 69.113-.082.836M66.871 69.949v.805m0 0 .082.726m0 0 .16.657" stroke-width="1.016"/><path d="m67.113 72.137.246.547" stroke-width="1.011"/><path d="m67.359 72.684.243.402" stroke-width="1.001"/><path d="m67.602 73.086.281.254" stroke-width=".988"/><path d="m67.883 73.34.285.148" stroke-width=".976"/><path d="m68.168 73.488.566.071" stroke-width=".967"/><path d="m68.734 73.559.489-.399m0 0 .16-.367m0 0 .164-.398m0 0 .121-.403m0 0 .082-.402m0 0 .039-.399" stroke-width=".965"/><path d="m69.789 71.191-.082-.511" stroke-width=".982"/><path d="m69.707 70.68-.406-.184" stroke-width="1.008"/><path d="m69.301 70.496-.363-.035m0 0-.364.144m0 0-.406.219" stroke-width="1.01"/><path d="m68.168 70.824-.324.367" stroke-width="1.006"/><path d="m67.844 71.191-.242.438" stroke-width=".976"/><path d="m67.602 71.629-.164.473" stroke-width=".887"/><path d="m67.438 72.102.042.546" stroke-width=".686"/><path d="m67.48 72.648.079.438" stroke-width=".07"/><path d="m72.664 74.145-.324.511" stroke-width=".885"/><path d="m72.34 74.656-.242.438m0 0-.282.508" stroke-width=".9"/><path d="m71.816 75.602-.246.586" stroke-width=".816"/><path d="m71.57 76.188-.058.363" stroke-width=".661"/><path d="m71.512 76.551-.063.363" stroke-width=".505"/><path d="m71.449 76.914-.082.547" stroke-width=".07"/><path d="M75.906 69.148h.324" stroke-width=".79"/><path d="m76.23 69.148.286.145m0 0 .281.219" stroke-width=".793"/><path d="m76.797 69.512.203.293" stroke-width=".787"/><path d="m77 69.805.164.363" stroke-width=".773"/><path d="m77.164 70.168.078.367" stroke-width=".75"/><path d="m77.242 70.535.043.438" stroke-width=".736"/><path d="m77.285 70.973-.043.437m0 0-.16.438m0 0-.164.398" stroke-width=".731"/><path d="m76.918 72.246-.242.293" stroke-width=".742"/><path d="m76.676 72.539-.403.363" stroke-width=".844"/><path d="m76.273 72.902-.449.11" stroke-width=".909"/><path d="m75.824 73.012-.363-.035" stroke-width=".925"/><path d="m75.461 72.977-.242-.219" stroke-width=".927"/><path d="m75.219 72.758-.121-.403" stroke-width=".904"/><path d="m75.098 72.355.121-.617" stroke-width=".889"/><path d="m75.219 71.738.16-.437" stroke-width=".882"/><path d="m75.379 71.301.203-.477" stroke-width=".872"/><path d="m75.582 70.824.242-.508" stroke-width=".866"/><path d="m75.824 70.316.246-.511" stroke-width=".86"/><path d="m76.07 69.805.203-.512" stroke-width=".851"/><path d="m76.273 69.293.161-.438" stroke-width=".846"/><path d="m76.434 68.855.16-.437" stroke-width=".843"/><path d="m76.594 68.418.125-.438" stroke-width=".836"/><path d="m76.719 67.98.121-.398" stroke-width=".824"/><path d="m76.84 67.582.121-.367" stroke-width=".812"/><path d="m76.961 67.215.082-.403" stroke-width=".796"/><path d="m77.043 66.812.078-.328" stroke-width=".78"/><path d="m77.121 66.484.043-.328" stroke-width=".768"/><path d="m77.164 66.156.039-.508m0 0-.082-.437" stroke-width=".763"/><path d="m77.121 65.211-.203-.367" stroke-width=".771"/><path d="m76.918 64.844-.402-.254" stroke-width=".828"/><path d="m76.516 64.59-.489-.184" stroke-width=".896"/><path d="m76.027 64.406-.484-.07" stroke-width=".928"/><path d="m75.543 64.336-.406.144m0 0-.16.254m0 0-.125.328" stroke-width=".931"/><path d="m74.852 65.062-.079.403m0 0-.043.512m0 0v.507" stroke-width=".93"/><path d="m74.73 66.484.082.512" stroke-width=".929"/><path d="m74.812 66.996.083.512" stroke-width=".927"/><path d="m74.895 67.508.203.472" stroke-width=".909"/><path d="m75.098 67.98.242.438" stroke-width=".859"/><path d="m75.34 68.418.16.367" stroke-width=".767"/><path d="m75.5 68.785.246.363" stroke-width=".528"/><path d="m75.746 69.148.203.293" stroke-width=".07"/></g></g></svg>