<?xml version="1.0" encoding="UTF-8"?>
<svg width="496.43" height="225.89" version="1.1" viewBox="0 0 496.43 225.89" xml:space="preserve" xmlns="http://www.w3.org/2000/svg"><defs><clipPath id="clipPath856"><path d="m0 0h595v841h-595z"/></clipPath></defs><g transform="matrix(1.3333 0 0 1.3333 -92.882 -25.317)"><g clip-path="url(#clipPath856)" fill="none" stroke-linecap="round" stroke-linejoin="round" stroke-miterlimit="10"><g stroke="#000"><path d="m84.156 28.645v155.37" stroke-width=".85"/><path d="m84.379 113.59h89.301" stroke-width=".93715"/><path d="m171.21 111.92 0.363 0.074" stroke-width=".8243"/><path d="m171.57 112 0.285 0.109" stroke-width=".83256"/><path d="m171.86 112.1 0.282 0.11" stroke-width=".83841"/><path d="m172.14 112.22 0.324 0.219" stroke-width=".84254"/><path d="m172.46 112.43 0.242 0.179" stroke-width=".84254"/><g stroke-width=".8453"><path d="m172.7 112.61 0.246 0.184"/><path d="m172.95 112.8 0.281 0.183"/><path d="m173.23 112.98 0.489 0.29"/></g><path d="m173.72 113.27 0.324 0.218" stroke-width=".84564"/><path d="m174.04 113.49 0.203 0.293" stroke-width=".89661"/><path d="m174.25 113.78-0.125 0.438" stroke-width=".94687"/><path d="m174.12 114.22-0.199 0.472" stroke-width=".9479"/><path d="m173.92 114.69-0.164 0.258" stroke-width=".95307"/><path d="m173.76 114.95-0.281 0.508" stroke-width=".95754"/><path d="m173.48 115.46-0.247 0.477" stroke-width=".96167"/><path d="m173.23 115.93-0.242 0.398" stroke-width=".96443"/><path d="m172.99 116.33-0.203 0.367" stroke-width=".96961"/><path d="m172.78 116.7-0.324 0.254" stroke-width=".97064"/><path d="m172.46 116.95h-0.363" stroke-width=".73856"/><path d="m172.1 116.95-0.325-0.035" stroke-width=".11431"/><path d="m177.65 119.07-0.039 0.438" stroke-width=".7947"/><path d="m177.61 119.51-0.043 0.398" stroke-width=".81466"/><path d="m177.57 119.91v0.438" stroke-width=".82774"/><path d="m177.57 120.34v0.511" stroke-width=".84117"/><path d="m177.57 120.86-0.039 0.622" stroke-width=".84668"/><path d="m177.53 121.48v0.617" stroke-width=".84874"/><path d="m177.53 122.09v0.621" stroke-width=".8515"/><path d="m177.53 122.72v0.656" stroke-width=".85184"/><g stroke-width=".8539"><path d="m177.53 123.37v0.582"/><path d="m177.53 123.95 0.039 0.547"/><path d="m177.57 124.5 0.164 0.512"/></g><path d="m177.73 125.01 0.161 0.476" stroke-width=".85528"/><path d="m177.89 125.49 0.242 0.399" stroke-width=".85528"/><path d="m178.13 125.89 0.203 0.293" stroke-width=".85253"/><path d="m178.34 126.18 0.324 0.293" stroke-width=".84082"/><path d="m178.66 126.47 0.324 0.035" stroke-width=".83772"/><path d="m178.98 126.51 0.528-0.184" stroke-width=".83738"/><path d="m179.51 126.32 0.285-0.219" stroke-width=".81742"/><path d="m179.8 126.1 0.281-0.253" stroke-width=".78538"/><path d="m180.08 125.85 0.285-0.254" stroke-width=".74751"/><path d="m180.36 125.6 0.242-0.328" stroke-width=".68966"/><path d="m180.6 125.27 0.165-0.258" stroke-width=".62253"/><path d="m180.77 125.01 0.16-0.289" stroke-width=".46655"/><path d="m180.93 124.72 0.082-0.293" stroke-width=".21519"/><path d="m176.51 123.08 0.406-0.254" stroke-width=".72204"/><path d="m176.92 122.82h0.488" stroke-width=".73478"/><path d="m177.41 122.82h0.567" stroke-width=".73788"/><path d="m177.97 122.82h0.648" stroke-width=".7396"/><path d="m178.62 122.82 0.688 0.074" stroke-width=".7396"/><path d="m179.31 122.9 0.73 0.071" stroke-width=".69"/><path d="m180.04 122.97 0.688 0.109" stroke-width=".57742"/><path d="m180.73 123.08 0.425-0.016" stroke-width=".37495"/><path d="m181.15 123.06 0.426-0.019" stroke-width=".17248"/><path d="m181.58 123.04 0.688-0.035" stroke-width=".0705"/><path d="m80.281 32.574 0.449-0.144" stroke-width=".82155"/><path d="m80.73 32.43 0.282-0.293" stroke-width=".84495"/><path d="m81.012 32.137 0.324-0.403" stroke-width=".85872"/><path d="m81.336 31.734 0.164-0.254" stroke-width=".86286"/><path d="m81.5 31.48 0.16-0.253" stroke-width=".86595"/><path d="m81.66 31.227 0.164-0.293" stroke-width=".87697"/><path d="m81.824 30.934 0.16-0.329" stroke-width=".88319"/><path d="m81.984 30.605 0.164-0.257" stroke-width=".88835"/><path d="m82.148 30.348 0.243-0.473" stroke-width=".89868"/><path d="m82.391 29.875 0.16-0.293" stroke-width=".90315"/><path d="m82.551 29.582 0.164-0.254" stroke-width=".9066"/><path d="M 82.715,29.328 82.957,29" stroke-width=".90969"/><path d="m82.957 29 0.285-0.254" stroke-width=".91038"/><path d="m83.242 28.746 0.324-0.258" stroke-width=".91795"/><path d="m83.566 28.488 0.2 0.293" stroke-width=".92243"/><path d="m83.766 28.781 0.246 0.364" stroke-width=".92277"/><path d="m84.012 29.145 0.281 0.328" stroke-width=".92656"/><path d="m84.293 29.473 0.324 0.437" stroke-width=".9269"/><path d="m84.617 29.91 0.285 0.438" stroke-width=".93"/><path d="m84.902 30.348 0.243 0.437" stroke-width=".93"/><path d="m85.145 30.785 0.242 0.477" stroke-width=".93035"/><path d="m85.387 31.262 0.285 0.328" stroke-width=".93035"/><path d="m85.672 31.59 0.285 0.219" stroke-width=".93207"/><path d="m85.957 31.809 0.324 0.328" stroke-width=".93138"/><path d="m86.281 32.137 0.242 0.183" stroke-width=".88904"/><path d="m86.523 32.32 0.161 0.473" stroke-width=".48652"/><path d="m74.207 26.375h-0.367" stroke-width=".85356"/><path d="m73.84 26.375h0.324" stroke-width=".857"/><path d="m74.164 26.375 0.648 0.109" stroke-width=".85769"/><g stroke-width=".8601"><path d="m74.812 26.484 0.364 0.184"/><path d="m75.176 26.668 0.406 0.144"/><path d="m75.582 26.812 0.324 0.219"/><path d="m75.906 27.031 0.285 0.219"/><path d="m76.191 27.25 0.204 0.254"/><path d="m76.395 27.504 0.16 0.328"/></g><path d="m76.555 27.832 0.121 0.293" stroke-width=".85976"/><path d="m76.676 28.125v0.402" stroke-width=".85976"/><g stroke-width=".86113"><path d="m76.676 28.527-0.039 0.364"/><path d="m76.637 28.891-0.121 0.328"/><path d="m76.516 29.219-0.164 0.363"/></g><path d="m76.352 29.582-0.282 0.258" stroke-width=".8632"/><path d="m76.07 29.84-0.367 0.289" stroke-width=".8632"/><g stroke-width=".86354"><path d="m75.703 30.129-0.324 0.183"/><path d="m75.379 30.312-0.402 0.219"/><path d="m74.977 30.531-0.325 0.219"/></g><path d="m74.652 30.75-0.285 0.109" stroke-width=".8632"/><path d="m74.367 30.859-0.406 0.219" stroke-width=".79779"/><path d="m78.742 25.754-0.402-0.07" stroke-width=".76645"/><path d="m78.34 25.684-0.367 0.254" stroke-width=".7902"/><path d="m77.973 25.938-0.243 0.253" stroke-width=".79952"/><path d="m77.73 26.191-0.285 0.368" stroke-width=".81053"/><path d="m77.445 26.559-0.242 0.398" stroke-width=".81914"/><path d="m77.203 26.957-0.285 0.477" stroke-width=".8305"/><path d="m76.918 27.434-0.16 0.507" stroke-width=".83669"/><path d="m76.758 27.941-0.164 0.512" stroke-width=".83738"/><g stroke-width=".84014"><path d="m76.594 28.453-0.078 0.473"/><path d="m76.516 28.926-0.043 0.437"/><path d="m76.473 29.363 0.082 0.367"/></g><path d="m76.555 29.73 0.082 0.29" stroke-width=".83979"/><path d="m76.637 30.02 0.281 0.257" stroke-width=".83566"/><path d="m76.918 30.277 0.367 0.18" stroke-width=".83532"/><path d="m77.285 30.457 0.406 0.148" stroke-width=".82912"/><path d="m77.691 30.605 0.485 0.11" stroke-width=".81845"/><path d="m78.176 30.715h0.445" stroke-width=".79366"/><path d="m78.621 30.715 0.445-0.039" stroke-width=".76266"/><path d="m79.066 30.676 0.407-0.071" stroke-width=".71722"/><path d="m79.473 30.605 0.324-0.109" stroke-width=".6542"/><path d="m79.797 30.496 0.484-0.328" stroke-width=".42729"/><path d="m74.363 28.152h3.399" stroke-width=".7182"/><path d="m212.62 28.434v155.79" stroke-width=".85"/><path d="m212.84 113.38h89.305" stroke-width=".93715"/><path d="m299.67 111.71 0.367 0.074" stroke-width=".8243"/><path d="m300.04 111.78 0.281 0.11" stroke-width=".83256"/><path d="m300.32 111.9 0.286 0.109" stroke-width=".83841"/><path d="m300.6 112 0.324 0.219" stroke-width=".84254"/><path d="m300.93 112.22 0.242 0.179" stroke-width=".84254"/><g stroke-width=".8453"><path d="m301.17 112.4 0.242 0.184"/><path d="m301.41 112.59 0.285 0.184"/><path d="m301.7 112.77 0.485 0.289"/></g><path d="m302.18 113.06 0.324 0.218" stroke-width=".84564"/><path d="m302.5 113.28 0.203 0.293" stroke-width=".89661"/><path d="m302.71 113.57-0.121 0.438" stroke-width=".94687"/><path d="m302.59 114.01-0.203 0.472" stroke-width=".9479"/><path d="m302.38 114.48-0.16 0.258" stroke-width=".95307"/><path d="m302.22 114.74-0.285 0.508" stroke-width=".95754"/><path d="m301.94 115.25-0.243 0.477" stroke-width=".96167"/><path d="m301.7 115.72-0.242 0.398" stroke-width=".96443"/><path d="m301.45 116.12-0.203 0.367" stroke-width=".96961"/><path d="m301.25 116.49-0.324 0.254" stroke-width=".97064"/><path d="m300.93 116.74h-0.364" stroke-width=".73856"/><path d="m300.56 116.74-0.324-0.035" stroke-width=".11431"/><path d="m306.11 118.86-0.043 0.438" stroke-width=".7947"/><path d="m306.07 119.3-0.039 0.398" stroke-width=".81466"/><path d="m306.03 119.7v0.438" stroke-width=".82774"/><path d="m306.03 120.13v0.512" stroke-width=".84117"/><path d="m306.03 120.64-0.043 0.621" stroke-width=".84668"/><path d="m305.99 121.27v0.617" stroke-width=".84874"/><path d="m305.99 121.88v0.621" stroke-width=".8515"/><path d="m305.99 122.5v0.656" stroke-width=".85184"/><g stroke-width=".8539"><path d="m305.99 123.16v0.586"/><path d="m305.99 123.75 0.043 0.547"/><path d="m306.03 124.29 0.16 0.508"/></g><path d="m306.19 124.8 0.164 0.476" stroke-width=".85528"/><path d="m306.36 125.28 0.243 0.399" stroke-width=".85528"/><path d="m306.6 125.68 0.203 0.293" stroke-width=".85253"/><path d="m306.8 125.97 0.324 0.293" stroke-width=".84082"/><path d="m307.12 126.26 0.324 0.035" stroke-width=".83772"/><path d="m307.45 126.3 0.528-0.184" stroke-width=".83738"/><path d="m307.98 126.11 0.281-0.218" stroke-width=".81742"/><path d="m308.26 125.9 0.285-0.254" stroke-width=".78538"/><path d="m308.54 125.64 0.285-0.254" stroke-width=".74751"/><path d="m308.83 125.39 0.242-0.328" stroke-width=".68966"/><path d="m309.07 125.06 0.16-0.258" stroke-width=".62253"/><path d="m309.23 124.8 0.165-0.289" stroke-width=".46655"/><path d="m309.4 124.51 0.078-0.293" stroke-width=".21519"/><path d="m304.98 122.87 0.406-0.254" stroke-width=".72204"/><path d="m305.38 122.61h0.484" stroke-width=".73478"/><path d="m305.87 122.61h0.571" stroke-width=".73788"/><path d="m306.44 122.61h0.648" stroke-width=".7396"/><path d="m307.09 122.61 0.687 0.075" stroke-width=".7396"/><path d="m307.77 122.69 0.731 0.07" stroke-width=".69"/><path d="m308.5 122.76 0.687 0.109" stroke-width=".57742"/><path d="m309.19 122.87 0.426-0.015" stroke-width=".37495"/><path d="m309.62 122.85 0.426-0.02" stroke-width=".17248"/><path d="m310.04 122.83 0.687-0.035" stroke-width=".0705"/><path d="m208.75 32.363 0.445-0.144" stroke-width=".82155"/><path d="m209.19 32.219 0.286-0.293" stroke-width=".84495"/><path d="m209.48 31.926 0.324-0.403" stroke-width=".85872"/><path d="m209.8 31.523 0.16-0.253" stroke-width=".86286"/><path d="m209.96 31.27 0.164-0.254" stroke-width=".86595"/><path d="m210.12 31.016 0.16-0.293" stroke-width=".87697"/><path d="m210.28 30.723 0.164-0.328" stroke-width=".88319"/><path d="m210.45 30.395 0.16-0.258" stroke-width=".88835"/><path d="m210.61 30.137 0.243-0.473" stroke-width=".89868"/><path d="m210.85 29.664 0.164-0.293" stroke-width=".90315"/><path d="m211.02 29.371 0.16-0.254" stroke-width=".9066"/><path d="m211.18 29.117 0.246-0.328" stroke-width=".90969"/><path d="m211.42 28.789 0.281-0.254" stroke-width=".91038"/><path d="m211.7 28.535 0.324-0.258" stroke-width=".91795"/><path d="m212.03 28.277 0.203 0.293" stroke-width=".92243"/><path d="m212.23 28.57 0.243 0.364" stroke-width=".92277"/><path d="m212.47 28.934 0.285 0.328" stroke-width=".92656"/><path d="m212.76 29.262 0.324 0.437" stroke-width=".9269"/><path d="m213.08 29.699 0.285 0.438" stroke-width=".93"/><path d="m213.37 30.137 0.242 0.441" stroke-width=".93"/><path d="m213.61 30.578 0.243 0.473" stroke-width=".93035"/><path d="m213.85 31.051 0.285 0.328" stroke-width=".93035"/><path d="m214.14 31.379 0.281 0.219" stroke-width=".93207"/><path d="m214.42 31.598 0.324 0.328" stroke-width=".93138"/><path d="m214.74 31.926 0.242 0.183" stroke-width=".88904"/><path d="m214.98 32.109 0.164 0.473" stroke-width=".48652"/><path d="m340.09 28.105v155.14" stroke-width=".85"/><path d="m340.31 113.05h89.301" stroke-width=".93715"/><path d="m427.14 111.38 0.363 0.074" stroke-width=".8243"/><path d="m427.5 111.46 0.285 0.109" stroke-width=".83256"/><path d="m427.79 111.57 0.281 0.11" stroke-width=".83841"/><path d="m428.07 111.68 0.325 0.219" stroke-width=".84254"/><path d="m428.4 111.9 0.242 0.179" stroke-width=".84254"/><g stroke-width=".8453"><path d="m428.64 112.07 0.246 0.184"/><path d="m428.88 112.26 0.281 0.183"/><path d="m429.16 112.44 0.488 0.289"/></g><path d="m429.65 112.73 0.325 0.219" stroke-width=".84564"/><path d="m429.98 112.95 0.203 0.293" stroke-width=".89661"/><path d="m430.18 113.24-0.121 0.438" stroke-width=".94687"/><path d="m430.06 113.68-0.204 0.472" stroke-width=".9479"/><path d="m429.86 114.15-0.164 0.258" stroke-width=".95307"/><path d="m429.69 114.41-0.281 0.508" stroke-width=".95754"/><path d="m429.41 114.92-0.246 0.477" stroke-width=".96167"/><path d="m429.16 115.4-0.242 0.398" stroke-width=".96443"/><path d="m428.92 115.79-0.203 0.367" stroke-width=".96961"/><path d="m428.72 116.16-0.324 0.254" stroke-width=".97064"/><path d="m428.4 116.41h-0.364" stroke-width=".73856"/><path d="m428.03 116.41-0.324-0.035" stroke-width=".11431"/><path d="m433.58 118.53-0.039 0.438" stroke-width=".7947"/><path d="m433.54 118.97-0.043 0.398" stroke-width=".81466"/><path d="m433.5 119.37v0.438" stroke-width=".82774"/><path d="m433.5 119.8v0.511" stroke-width=".84117"/><path d="m433.5 120.32-0.039 0.622" stroke-width=".84668"/><path d="m433.46 120.94v0.617" stroke-width=".84874"/><path d="m433.46 121.56v0.621" stroke-width=".8515"/><path d="m433.46 122.18v0.656" stroke-width=".85184"/><g stroke-width=".8539"><path d="m433.46 122.83v0.582"/><path d="m433.46 123.41 0.039 0.551"/><path d="m433.5 123.96 0.164 0.508"/></g><path d="m433.66 124.47 0.16 0.476" stroke-width=".85528"/><path d="m433.82 124.95 0.242 0.399" stroke-width=".85528"/><path d="m434.07 125.35 0.204 0.293" stroke-width=".85253"/><path d="m434.27 125.64 0.324 0.293" stroke-width=".84082"/><path d="m434.59 125.93 0.324 0.035" stroke-width=".83772"/><path d="m434.92 125.97 0.527-0.184" stroke-width=".83738"/><path d="m435.44 125.78 0.285-0.219" stroke-width=".81742"/><path d="m435.73 125.57 0.282-0.254" stroke-width=".78538"/><path d="m436.01 125.31 0.285-0.253" stroke-width=".74751"/><path d="m436.3 125.06 0.242-0.329" stroke-width=".68966"/><path d="m436.54 124.73 0.164-0.257" stroke-width=".62253"/><path d="m436.7 124.47 0.16-0.289" stroke-width=".46655"/><path d="m436.86 124.18 0.082-0.293" stroke-width=".21519"/><path d="m432.45 122.54 0.403-0.254" stroke-width=".72204"/><path d="m432.85 122.28h0.488" stroke-width=".73478"/><path d="m433.34 122.28h0.566" stroke-width=".73788"/><path d="m433.91 122.28h0.649" stroke-width=".7396"/><path d="m434.56 122.28 0.687 0.074" stroke-width=".7396"/><path d="m435.24 122.36 0.731 0.071" stroke-width=".69"/><path d="m435.97 122.43 0.687 0.109" stroke-width=".57742"/><path d="m436.66 122.54 0.426-0.016" stroke-width=".37495"/><path d="m437.09 122.52 0.426-0.019" stroke-width=".17248"/><path d="m437.51 122.5 0.687-0.035" stroke-width=".0705"/><path d="m336.22 32.035 0.449-0.144" stroke-width=".82155"/><path d="m336.66 31.891 0.281-0.293" stroke-width=".84495"/><path d="m336.94 31.598 0.325-0.403" stroke-width=".85872"/><path d="m337.27 31.195 0.164-0.254" stroke-width=".86286"/><path d="m337.43 30.941 0.16-0.253" stroke-width=".86595"/><path d="m337.59 30.688 0.164-0.293" stroke-width=".87697"/><path d="m337.76 30.395 0.16-0.329" stroke-width=".88319"/><path d="m337.92 30.066 0.164-0.257" stroke-width=".88835"/><path d="m338.08 29.809 0.242-0.473" stroke-width=".89868"/><path d="m338.32 29.336 0.16-0.293" stroke-width=".90315"/><path d="m338.48 29.043 0.164-0.254" stroke-width=".9066"/><path d="m338.65 28.789 0.243-0.328" stroke-width=".90969"/><path d="m338.89 28.461 0.285-0.254" stroke-width=".91038"/><path d="m339.18 28.207 0.324-0.258" stroke-width=".91795"/><path d="m339.5 27.949 0.199 0.293" stroke-width=".92243"/><path d="m339.7 28.242 0.246 0.363" stroke-width=".92277"/><path d="m339.94 28.605 0.282 0.329" stroke-width=".92656"/><path d="m340.23 28.934 0.324 0.437" stroke-width=".9269"/><path d="m340.55 29.371 0.285 0.438" stroke-width=".93"/><path d="m340.84 29.809 0.242 0.437" stroke-width=".93"/><path d="m341.08 30.246 0.242 0.477" stroke-width=".93035"/><path d="m341.32 30.723 0.285 0.328" stroke-width=".93035"/><path d="m341.6 31.051 0.286 0.219" stroke-width=".93207"/><path d="m341.89 31.27 0.324 0.328" stroke-width=".93138"/><path d="m342.22 31.598 0.242 0.183" stroke-width=".88904"/><path d="m342.46 31.781 0.16 0.473" stroke-width=".48652"/><path d="m202.41 25.098 0.121 0.402" stroke-width=".75096"/><path d="m202.53 25.5 0.203 0.363" stroke-width=".77402"/><path d="m202.73 25.863 0.243 0.512" stroke-width=".79573"/><path d="m202.97 26.375 0.324 0.512" stroke-width=".8212"/><path d="m203.3 26.887 0.242 0.547" stroke-width=".84014"/><path d="m203.54 27.434 0.203 0.546" stroke-width=".85356"/><path d="m203.74 27.98 0.242 0.508" stroke-width=".86354"/><path d="m203.98 28.488 0.164 0.438" stroke-width=".87008"/><path d="m204.15 28.926 0.122 0.402" stroke-width=".88215"/><path d="m204.27 29.328 0.121 0.293" stroke-width=".88663"/><path d="m204.39 29.621 0.082 0.438" stroke-width=".89489"/><path d="m204.47 30.059 0.121 0.437" stroke-width=".89799"/><path d="m204.59 30.496 0.121 0.363" stroke-width=".90074"/><path d="m204.72 30.859 0.281-0.254" stroke-width=".9448"/><path d="m205 30.605 0.367-0.476" stroke-width=".94756"/><path d="m205.36 30.129 0.242-0.399" stroke-width=".95066"/><path d="m205.6 29.73 0.325-0.476" stroke-width=".951"/><path d="m205.93 29.254 0.285-0.547" stroke-width=".951"/><path d="m206.22 28.707 0.281-0.547" stroke-width=".95135"/><path d="m206.5 28.16 0.203-0.547" stroke-width=".95169"/><path d="m206.7 27.613 0.121-0.508" stroke-width=".95203"/><path d="m206.82 27.105 0.121-0.476" stroke-width=".95238"/><path d="m206.94 26.629v-0.399" stroke-width=".95238"/><path d="m206.94 26.23 0.043-0.367" stroke-width=".95582"/><path d="m206.98 25.863v-0.508" stroke-width=".95548"/><path d="m206.98 25.355v-0.328" stroke-width=".95548"/><path d="m206.98 25.027 0.078-0.293" stroke-width=".93379"/><path d="m331.09 24.625-0.121-0.363" stroke-width=".87353"/><path d="m330.97 24.262-0.242-0.293" stroke-width=".9121"/><path d="m330.73 23.969-0.407-0.328" stroke-width=".94825"/><path d="m330.32 23.641-0.324-0.149" stroke-width=".96443"/><path d="m330 23.492-0.285-0.109" stroke-width=".98407"/><path d="m329.71 23.383-0.402-0.11" stroke-width=".99233"/><path d="m329.31 23.273-0.407-0.035" stroke-width=".99646"/><g stroke-width="1.0009"><path d="m328.9 23.238h-0.363"/><path d="m328.54 23.238-0.406 0.035"/><path d="m328.13 23.273-0.285 0.149"/></g><g stroke-width="1.0034"><path d="m327.85 23.422-0.403 0.398"/><path d="m327.44 23.82-0.164 0.368"/><path d="m327.28 24.188-0.121 0.363"/></g><g stroke-width="1.0016"><path d="m327.16 24.551-0.082 0.511"/><path d="m327.08 25.062-0.039 0.512"/><path d="m327.04 25.574v0.582"/></g><path d="m327.04 26.156 0.121 0.582" stroke-width="1.0013"/><path d="m327.16 26.738 0.203 0.547" stroke-width=".9975"/><path d="m327.36 27.285 0.282 0.512" stroke-width=".98992"/><path d="m327.64 27.797 0.367 0.402" stroke-width=".98476"/><path d="m328.01 28.199 0.242 0.289" stroke-width=".97478"/><path d="m328.25 28.488 0.285 0.219" stroke-width=".96512"/><path d="m328.54 28.707 0.445 0.148" stroke-width=".9627"/><path d="m328.98 28.855 0.364-0.183" stroke-width=".97443"/><path d="m329.35 28.672 0.242-0.219" stroke-width=".97822"/><path d="m329.59 28.453 0.121-0.328" stroke-width=".98682"/><path d="m329.71 28.125 0.164-0.363" stroke-width=".98958"/><path d="m329.88 27.762 0.16-0.367" stroke-width=".98958"/><path d="m330.04 27.395 0.125-0.438" stroke-width=".98992"/><g stroke-width=".99199"><path d="m330.16 26.957 0.078-0.437"/><path d="m330.24 26.52 0.121-0.438"/><path d="m330.36 26.082 0.125-0.398"/><path d="m330.48 25.684 0.121-0.403"/></g><path d="m330.6 25.281 0.122-0.293" stroke-width=".99268"/><path d="m330.73 24.988 0.121-0.289" stroke-width=".99302"/><path d="m330.85 24.699 0.121-0.328" stroke-width=".99336"/><path d="m330.97 24.371 0.121 0.289" stroke-width=".99646"/><path d="m331.09 24.66 0.164 0.328" stroke-width=".99681"/><path d="m331.25 24.988 0.203 0.367" stroke-width=".99681"/><path d="m331.46 25.355 0.242 0.399" stroke-width=".99715"/><path d="m331.7 25.754 0.281 0.402" stroke-width=".99956"/><path d="m331.98 26.156 0.247 0.364" stroke-width=".99956"/><path d="m332.23 26.52 0.242 0.292" stroke-width=".99646"/><path d="m332.47 26.812 0.242 0.254" stroke-width=".99646"/><path d="m332.71 27.066 0.445 0.329" stroke-width=".99681"/><path d="m333.16 27.395 0.406 0.148" stroke-width=".99715"/><path d="m333.56 27.543 0.446 0.035" stroke-width=".99887"/><path d="m334.01 27.578 0.527-0.035" stroke-width=".98269"/><path d="m334.54 27.543 0.485-0.039" stroke-width=".69207"/></g><g stroke="#00c0ff"><g><path d="m85.145 113.02 14.871-27.532" stroke-width=".83738"/><path d="m213.51 56.191h12.879" stroke-width=".95505"/><path d="m340.37 113h13.594" stroke-width=".99399"/></g><path d="m99.922 112.81v-27.102" stroke-dasharray="0.5, 3" stroke-width=".88288"/><path d="m227.23 57.227v53.777" stroke-dasharray="0.5, 3" stroke-width=".87532"/><g><path d="m100.22 119.25-0.367 0.219" stroke-width=".9424"/><path d="m99.852 119.47-0.161 0.328" stroke-width=".94584"/><path d="m99.691 119.8-0.164 0.437" stroke-width=".9572"/><path d="m99.527 120.23-0.199 0.512" stroke-width=".96133"/><path d="m99.328 120.75-0.203 0.621" stroke-width=".96649"/><path d="m99.125 121.37-0.121 0.692" stroke-width=".97271"/><path d="m99.004 122.06-0.164 0.691" stroke-width=".97478"/><path d="m98.84 122.75-0.082 0.695" stroke-width=".97787"/><path d="m98.758 123.44-0.078 0.657" stroke-width=".97787"/><path d="m98.68 124.1v0.621" stroke-width=".97822"/><path d="m98.68 124.72 0.039 0.547" stroke-width=".97994"/><path d="m98.719 125.27 0.16 0.472" stroke-width=".97994"/><path d="m98.879 125.74 0.203 0.403" stroke-width=".9796"/><path d="m99.082 126.14 0.246 0.328" stroke-width=".97925"/><path d="m99.328 126.47 0.242 0.179" stroke-width=".96961"/><path d="m99.57 126.65 0.282 0.11" stroke-width=".95444"/><path d="m99.852 126.76 0.324 0.039" stroke-width=".92931"/><path d="m100.18 126.8 0.324-0.11" stroke-width=".90281"/><path d="m100.5 126.69 0.406-0.257" stroke-width=".85941"/><path d="m100.91 126.43 0.406-0.364" stroke-width=".74889"/><path d="m101.31 126.07 0.282-0.511" stroke-width=".53508"/><path d="m101.59 125.56 0.125-0.364" stroke-width=".30299"/><path d="m101.72 125.2 0.121-0.363" stroke-width=".070913"/><path d="m101.84 124.83 0.16-0.551" stroke-width=".0705"/><path d="m97.422 122.2h3.805" stroke-width=".74388"/><path d="m103.06 129.46-0.121-0.328" stroke-width=".94102"/><path d="m102.93 129.13 0.078-0.582" stroke-width=".94377"/><path d="m103.01 128.55 0.043-0.328" stroke-width=".94653"/><path d="m103.06 128.22 0.039-0.368" stroke-width=".94653"/><path d="m103.09 127.86 0.082-0.546" stroke-width=".94997"/><path d="m103.18 127.31 0.039-0.364" stroke-width=".94997"/><path d="m103.22 126.94v-0.328" stroke-width=".95031"/><path d="m103.22 126.62v-0.328" stroke-width=".951"/><path d="m103.22 126.29 0.285-0.144" stroke-width=".95031"/><g stroke-width=".95135"><path d="m103.5 126.14 0.324-0.04"/><path d="m103.82 126.1 0.406-0.07"/><path d="m104.23 126.04 0.524-0.148"/></g><path d="m104.75 125.89 0.367-0.145" stroke-width=".95376"/><path d="m105.12 125.74 0.527-0.293" stroke-width=".95376"/><path d="m105.65 125.45 0.325-0.219" stroke-width=".9424"/><path d="m227.73 118.78-0.324 0.254" stroke-width=".8515"/><path d="m227.41 119.03-0.164 0.403" stroke-width=".87284"/><path d="m227.24 119.43-0.16 0.582" stroke-width=".89145"/><path d="m227.08 120.02-0.164 0.656" stroke-width=".90005"/><path d="m226.92 120.67-0.16 0.766" stroke-width=".90625"/><path d="m226.76 121.44-0.082 0.804" stroke-width=".91245"/><path d="m226.68 122.24-0.082 0.766" stroke-width=".91279"/><path d="m226.59 123.01-0.039 0.691" stroke-width=".9183"/><path d="m226.56 123.7v0.621" stroke-width=".9183"/><g stroke-width=".91795"><path d="m226.56 124.32 0.078 0.547"/><path d="m226.63 124.87 0.164 0.363"/><path d="m226.8 125.23 0.16 0.258"/></g><path d="m226.96 125.49 0.246 0.18" stroke-width=".91072"/><g stroke-width=".90384"><path d="m227.2 125.67 0.445 0.109"/><path d="m227.65 125.78 0.282-0.109"/><path d="m227.93 125.67 0.246-0.219"/></g><path d="m228.18 125.45 0.281-0.328" stroke-width=".89558"/><path d="m228.46 125.12 0.203-0.398" stroke-width=".8825"/><path d="m228.66 124.72 0.164-0.368" stroke-width=".84908"/><path d="m228.82 124.36 0.078-0.328" stroke-width=".79642"/><path d="m228.9 124.03 0.121-0.328" stroke-width=".71309"/><path d="m229.02 123.7 0.043-0.328" stroke-width=".58878"/><path d="m229.07 123.37 0.082-0.473" stroke-width=".39148"/><path d="m229.15 122.9 0.04-0.402" stroke-width=".0705"/><path d="m225.18 121.59h3.402" stroke-width=".6078"/><path d="m230.69 130.26 0.039-0.438" stroke-width=".89764"/><path d="m230.73 129.82 0.082-0.289" stroke-width=".91554"/><path d="m230.81 129.54 0.082-0.328" stroke-width=".92346"/><path d="m230.89 129.21 0.078-0.402" stroke-width=".92759"/><path d="m230.97 128.8 0.082-0.438" stroke-width=".93413"/><path d="m231.05 128.37 0.039-0.437" stroke-width=".9393"/><path d="m231.09 127.93 0.082-0.438" stroke-width=".94515"/><path d="m231.17 127.49 0.043-0.437" stroke-width=".94515"/><path d="m231.22 127.06v-0.403" stroke-width=".94549"/><path d="m231.22 126.65 0.039-0.363" stroke-width=".94859"/><path d="m231.25 126.29v-0.582" stroke-width=".94825"/><path d="m231.25 125.71 0.039-0.328" stroke-width=".94825"/><path d="m231.29 125.38h0.445" stroke-width=".93895"/><path d="m231.74 125.38 0.407 0.07" stroke-width=".94033"/><path d="m232.14 125.45h0.406" stroke-width=".93999"/><path d="m232.55 125.45 0.484-0.035" stroke-width=".88904"/><path d="m233.04 125.41 0.387-0.074" stroke-width=".66453"/><path d="m233.42 125.34 0.383-0.07" stroke-width=".44002"/><path d="m233.8 125.27 0.449-0.149" stroke-width=".0705"/><path d="m354.43 98.355-0.242 0.477" stroke-width=".8212"/><path d="m354.19 98.832-0.043 0.438" stroke-width=".83979"/><path d="m354.14 99.27-0.04 0.546" stroke-width=".86044"/><path d="m354.1 99.816-0.043 0.618" stroke-width=".8718"/><path d="m354.06 100.43-0.039 0.621" stroke-width=".87525"/><path d="m354.02 101.06v0.621" stroke-width=".88319"/><path d="m354.02 101.68v0.582" stroke-width=".88319"/><path d="m354.02 102.26v0.472" stroke-width=".88353"/><path d="m354.02 102.73v0.442" stroke-width=".88525"/><path d="m354.02 103.17 0.082 0.289" stroke-width=".8856"/><path d="m354.1 103.46 0.161 0.258" stroke-width=".88525"/><path d="m354.27 103.72 0.445 0.289" stroke-width=".87628"/><path d="m354.71 104.01 0.367 0.109" stroke-width=".87422"/><path d="m355.08 104.12h0.363" stroke-width=".85322"/><path d="m355.44 104.12h0.407" stroke-width=".82155"/><path d="m355.85 104.12 0.324-0.07" stroke-width=".77781"/><path d="m356.17 104.05 0.324-0.074" stroke-width=".71584"/><path d="m356.5 103.97 0.363-0.219" stroke-width=".55091"/><path d="m356.86 103.75 0.121-0.363" stroke-width=".0705"/><path d="m352.32 101.67h3.641" stroke-width=".65179"/><path d="m359.74 107.73 0.121-0.289" stroke-width=".82396"/><path d="m359.86 107.44 0.079-0.477" stroke-width=".84014"/><path d="m359.94 106.96 0.042-0.328" stroke-width=".85046"/><path d="m359.98 106.63 0.082-0.617" stroke-width=".86182"/><path d="m360.06 106.02v-0.512" stroke-width=".87662"/><path d="m360.06 105.5-0.042-0.363" stroke-width=".88491"/><path d="m360.02 105.14-0.204-0.368" stroke-width=".88732"/><path d="m359.82 104.77 0.164-0.253" stroke-width=".83979"/><path d="m359.98 104.52 0.407-0.11" stroke-width=".85218"/><path d="m360.39 104.41 0.281-0.109" stroke-width=".85253"/><path d="m360.67 104.3 0.406-0.11" stroke-width=".78848"/><path d="m361.07 104.19h0.528" stroke-width=".52851"/><path d="m361.6 104.19h0.363" stroke-width=".18559"/><path d="m361.96 104.19h0.363" stroke-width=".0705"/></g></g><g stroke="#0f0"><g><path d="m99.73 86.215-0.16-0.328" stroke-width=".63286"/><path d="m99.57 85.887 0.121-0.367" stroke-width=".66488"/><path d="m99.691 85.52 0.161-0.364" stroke-width=".67933"/><path d="m99.852 85.156 0.367-0.437" stroke-width=".69689"/><path d="m100.22 84.719 0.242-0.219" stroke-width=".71929"/><path d="m100.46 84.5 0.203-0.293" stroke-width=".73788"/><path d="m100.66 84.207 0.242-0.363" stroke-width=".75956"/><path d="m100.91 83.844 0.324-0.364" stroke-width=".77402"/><path d="m101.23 83.48 0.286-0.402" stroke-width=".78159"/><path d="m101.52 83.078 0.363-0.437" stroke-width=".78986"/><path d="m101.88 82.641 0.363-0.403" stroke-width=".7947"/><path d="m102.24 82.238 0.367-0.437" stroke-width=".79676"/><path d="m102.61 81.801 0.403-0.438" stroke-width=".80192"/><path d="m103.01 81.363 0.449-0.402" stroke-width=".80399"/><path d="m103.46 80.961 0.484-0.438" stroke-width=".80399"/><path d="m103.94 80.523 0.489-0.437" stroke-width=".80571"/><path d="m104.43 80.086 0.484-0.398" stroke-width=".80606"/><g stroke-width=".80778"><path d="m104.92 79.688 0.445-0.403"/><path d="m105.36 79.285 0.489-0.402"/><path d="m105.85 78.883 0.484-0.399"/><path d="m106.34 78.484 0.445-0.402"/></g><path d="m106.78 78.082 0.489-0.437" stroke-width=".80812"/><path d="m107.27 77.645 0.484-0.403" stroke-width=".80812"/><path d="m107.75 77.242 0.527-0.437" stroke-width=".80846"/><path d="m108.28 76.805 0.485-0.399" stroke-width=".80846"/><g stroke-width=".81019"><path d="m108.77 76.406 0.445-0.367"/><path d="m109.21 76.039 0.406-0.289"/><path d="m109.62 75.75 0.406-0.293"/><path d="m110.02 75.457 0.286-0.219"/><path d="m110.31 75.238 0.324-0.218"/><path d="m110.63 75.02 0.242-0.219"/><path d="m110.88 74.801 0.242-0.219"/><path d="m111.12 74.582 0.242-0.184"/></g><path d="m111.36 74.398 0.286-0.218" stroke-width=".81156"/><path d="m111.64 74.18 0.281-0.219" stroke-width=".81156"/><g stroke-width=".80812"><path d="m111.93 73.961 0.324-0.219"/><path d="m112.25 73.742 0.406-0.254"/><path d="m112.66 73.488 0.406-0.258"/></g><path d="m113.06 73.23 0.407-0.289" stroke-width=".80846"/><path d="m113.47 72.941 0.445-0.257" stroke-width=".80812"/><path d="m113.91 72.684 0.484-0.329" stroke-width=".81019"/><path d="m114.4 72.355 0.446-0.253" stroke-width=".81088"/><path d="m114.84 72.102 0.445-0.293" stroke-width=".81088"/><path d="m115.29 71.809 0.367-0.219" stroke-width=".80881"/><path d="m115.66 71.59 0.324-0.219" stroke-width=".80881"/><path d="m115.98 71.371 0.325-0.219" stroke-width=".80915"/><path d="m116.3 71.152 0.445-0.289" stroke-width=".80915"/><path d="m116.75 70.863 0.445-0.258" stroke-width=".81122"/><g stroke-width=".81053"><path d="m117.2 70.605 0.528-0.253"/><path d="m117.72 70.352 0.324-0.145"/><path d="m118.05 70.207 0.363-0.184"/><path d="m118.41 70.023 0.406-0.183"/></g><path d="m118.82 69.84 0.407-0.219" stroke-width=".81019"/><path d="m119.22 69.621 0.402-0.254" stroke-width=".81053"/><path d="m119.62 69.367 0.406-0.219" stroke-width=".81225"/><path d="m120.03 69.148 0.407-0.183" stroke-width=".81225"/><g stroke-width=".81053"><path d="m120.44 68.965 0.402-0.18"/><path d="m120.84 68.785 0.406-0.219"/><path d="m121.25 68.566 0.406-0.183"/><path d="m121.65 68.383 0.407-0.145"/><path d="m122.06 68.238 0.402-0.218"/></g><g stroke-width=".81088"><path d="m122.46 68.02 0.367-0.149"/><path d="m122.83 67.871 0.363-0.144"/><path d="m123.19 67.727 0.325-0.145"/></g><path d="m123.52 67.582 0.363-0.148" stroke-width=".8095"/><path d="m123.88 67.434 0.367-0.11" stroke-width=".8095"/><g stroke-width=".81019"><path d="m124.25 67.324 0.324-0.179"/><path d="m124.57 67.145 0.364-0.184"/><path d="m124.93 66.961 0.324-0.184"/></g><path d="m125.26 66.777 0.363-0.218" stroke-width=".81053"/><path d="m125.62 66.559 0.367-0.145" stroke-width=".81191"/><path d="m125.99 66.414 0.282-0.148" stroke-width=".81191"/><path d="m126.27 66.266 0.324-0.145" stroke-width=".81156"/><path d="m126.59 66.121 0.527-0.219" stroke-width=".81156"/><path d="m127.12 65.902 0.488-0.218" stroke-width=".81122"/><path d="m127.61 65.684 0.325-0.11" stroke-width=".81122"/><g stroke-width=".81225"><path d="m127.93 65.574 0.281-0.183"/><path d="m128.22 65.391 0.406-0.18"/><path d="m128.62 65.211 0.324-0.219"/><path d="m128.94 64.992 0.325-0.183"/><path d="m129.27 64.809 0.324-0.184"/></g><path d="m129.59 64.625 0.445-0.254" stroke-width=".81191"/><path d="m130.04 64.371 0.406-0.219" stroke-width=".81397"/><path d="m130.44 64.152 0.446-0.218" stroke-width=".81397"/><path d="m130.89 63.934 0.484-0.219" stroke-width=".84564"/><path d="m131.38 63.715 0.488-0.293" stroke-width=".85769"/><path d="m131.86 63.422 0.242-0.18" stroke-width=".85804"/><path d="m132.1 63.242 0.325-0.183" stroke-width=".86113"/><path d="m132.43 63.059 0.363-0.219" stroke-width=".86113"/><path d="m132.79 62.84 0.367-0.145" stroke-width=".86079"/><path d="m133.16 62.695 0.402-0.148" stroke-width=".86079"/><g stroke-width=".86113"><path d="m133.56 62.547 0.407-0.18"/><path d="m133.97 62.367 0.406-0.109"/><path d="m134.38 62.258 0.406-0.149"/><path d="m134.78 62.109 0.403-0.144"/></g><path d="m135.18 61.965 0.285-0.145" stroke-width=".86354"/><path d="m135.47 61.82 0.324-0.148" stroke-width=".86354"/><path d="m135.79 61.672 0.406-0.18" stroke-width=".86148"/><path d="m136.2 61.492 0.403-0.148" stroke-width=".86182"/><path d="m136.6 61.344 0.449-0.145" stroke-width=".86217"/><g stroke-width=".86389"><path d="m137.05 61.199 0.484-0.183"/><path d="m137.54 61.016 0.285-0.11"/><path d="m137.82 60.906 0.282-0.109"/><path d="m138.1 60.797 0.285-0.109"/><path d="m138.39 60.688 0.281-0.145"/><path d="m138.67 60.543 0.285-0.109"/></g><path d="m138.95 60.434 0.485-0.219" stroke-width=".86492"/><path d="m139.44 60.215 0.367-0.145" stroke-width=".86286"/><path d="m139.8 60.07 0.363-0.109" stroke-width=".8632"/><path d="m140.17 59.961 0.406-0.149" stroke-width=".86354"/><path d="m140.57 59.812 0.61-0.144" stroke-width=".86492"/><path d="m141.18 59.668 0.32-0.074" stroke-width=".86492"/><g stroke-width=".86286"><path d="m141.5 59.594 0.324-0.11"/><path d="m141.83 59.484 0.285-0.109"/><path d="m142.11 59.375 0.285-0.109"/></g><path d="m142.4 59.266 0.403-0.145" stroke-width=".8632"/><path d="m142.8 59.121 0.367-0.109" stroke-width=".86389"/><path d="m143.17 59.012 0.402-0.11" stroke-width=".86354"/><path d="m143.57 58.902 0.45-0.109" stroke-width=".8632"/><path d="m144.02 58.793 0.324-0.074" stroke-width=".8632"/><path d="m144.34 58.719 0.566-0.145" stroke-width=".86286"/><path d="m144.91 58.574 0.528-0.148" stroke-width=".86389"/><path d="m145.44 58.426 0.445-0.145" stroke-width=".8632"/><path d="m145.88 58.281 0.324-0.109" stroke-width=".8632"/><path d="m146.21 58.172 0.402-0.074" stroke-width=".86389"/><path d="m146.61 58.098 0.407-0.11" stroke-width=".8632"/><path d="m147.02 57.988 0.406-0.035" stroke-width=".8632"/><path d="m147.42 57.953 0.445-0.109" stroke-width=".86526"/><path d="m147.87 57.844 0.324-0.074" stroke-width=".86423"/><path d="m148.19 57.77 0.325-0.071" stroke-width=".86458"/><path d="m148.52 57.699 0.324-0.074" stroke-width=".86423"/><path d="m148.84 57.625 0.363-0.074" stroke-width=".86286"/><path d="m149.2 57.551 0.367-0.035" stroke-width=".86251"/><path d="m149.57 57.516 0.403-0.036" stroke-width=".86389"/><path d="m149.97 57.48 0.527-0.039" stroke-width=".8632"/><path d="m150.5 57.441 0.445-0.035" stroke-width=".86286"/><path d="m150.94 57.406 0.325-0.074" stroke-width=".86423"/><path d="m151.27 57.332h0.406" stroke-width=".86217"/><path d="m151.68 57.332 0.527-0.035" stroke-width=".86079"/><path d="m152.2 57.297h0.324" stroke-width=".85976"/><path d="m152.53 57.297h0.407" stroke-width=".85941"/><path d="m152.93 57.297 0.402-0.035" stroke-width=".85838"/><path d="m153.34 57.262h0.324" stroke-width=".85769"/><path d="m153.66 57.262 0.406-0.039" stroke-width=".85563"/><path d="m154.07 57.223h0.325" stroke-width=".85494"/><path d="m154.39 57.223 0.324-0.071" stroke-width=".85459"/><path d="m154.72 57.152 0.406-0.039" stroke-width=".85459"/><path d="m155.12 57.113 0.402-0.07" stroke-width=".85494"/><path d="m155.52 57.043 0.407-0.074" stroke-width=".85218"/><path d="m155.93 56.969h0.445" stroke-width=".84943"/><path d="m156.38 56.969h0.367" stroke-width=".84771"/><path d="m156.74 56.969 0.281 0.183" stroke-width=".0705"/><path d="m226.31 57.188 57.336 55.39" stroke-width=".78641"/><path d="m353.54 156.89h57.492" stroke-width=".95434"/></g><g stroke-dasharray="0.5, 3"><path d="m156.45 113.71v-56.41" stroke-width=".88038"/><path d="m411.84 156.52v-42.422" stroke-width=".90659"/><path d="m354.1 155.68v-42.227" stroke-width=".88957"/></g><g><path d="m406.33 95.949-0.281 0.438" stroke-width=".85494"/><path d="m406.05 96.387-0.125 0.476" stroke-width=".87284"/><path d="m405.93 96.863-0.121 0.657" stroke-width=".88732"/><path d="m405.8 97.52-0.121 0.8" stroke-width=".89661"/><path d="m405.68 98.32-0.161 0.875" stroke-width=".90074"/><path d="m405.52 99.195-0.082 0.91" stroke-width=".90281"/><g stroke-width=".90591"><path d="m405.44 100.1-0.082 0.915"/><path d="m405.36 101.02-0.039 0.765"/><path d="m405.32 101.78 0.039 0.692"/></g><path d="m405.36 102.48 0.203 0.585" stroke-width=".9035"/><path d="m405.56 103.06 0.243 0.438" stroke-width=".89524"/><path d="m405.8 103.5 0.324 0.328" stroke-width=".8749"/><path d="m406.13 103.83 0.445 0.18" stroke-width=".85081"/><path d="m406.57 104.01 0.449 0.074" stroke-width=".81191"/><path d="m407.02 104.08 0.485-0.144" stroke-width=".74889"/><path d="m407.51 103.94 0.566-0.258" stroke-width=".67968"/><path d="m408.07 103.68 0.528-0.438" stroke-width=".50304"/><path d="m408.6 103.24 0.566-0.73" stroke-width=".22104"/><path d="m409.17 102.51 0.406-0.617" stroke-width=".0705"/><path d="m403.66 99.766h4.293" stroke-width=".60317"/><path d="m411.23 107.62-0.039-0.398" stroke-width=".6962"/><path d="m411.2 107.22v-0.696" stroke-width=".75887"/><path d="m411.2 106.52v-0.398" stroke-width=".7902"/><path d="m411.2 106.12 0.039-0.402" stroke-width=".82809"/><path d="m411.23 105.72 0.043-0.403" stroke-width=".8601"/><path d="m411.28 105.32 0.039-0.398" stroke-width=".88491"/><path d="m411.32 104.92 0.039-0.512" stroke-width=".93276"/><path d="m411.36 104.41v-0.363" stroke-width=".97305"/><path d="m411.36 104.05 0.286-0.293" stroke-width=".97512"/><path d="m411.64 103.75 0.445-0.219" stroke-width=".97512"/><path d="m412.09 103.54 0.285-0.183" stroke-width=".97718"/><path d="m412.37 103.35 0.324-0.145" stroke-width=".97099"/><path d="m412.7 103.21 0.282-0.184" stroke-width=".90315"/><path d="m412.98 103.02 0.406-0.218" stroke-width=".57088"/><path d="m419.31 104.64v-8.329" stroke-width=".72806"/><path d="m416.46 100.03h5.184" stroke-width=".65822"/><path d="m429.18 95.293-0.282 0.254" stroke-width=".81776"/><path d="m428.9 95.547-0.121 0.402" stroke-width=".8539"/><path d="m428.78 95.949-0.121 0.621" stroke-width=".87662"/><path d="m428.66 96.57-0.164 0.766" stroke-width=".89076"/><path d="m428.5 97.336-0.121 0.91" stroke-width=".8973"/><path d="m428.38 98.246-0.082 0.949" stroke-width=".89764"/><path d="m428.29 99.195-0.082 0.91" stroke-width=".90212"/><path d="m428.21 100.1v0.875" stroke-width=".90212"/><path d="m428.21 100.98 0.125 0.805" stroke-width=".90005"/><path d="m428.34 101.78 0.16 0.656" stroke-width=".89592"/><path d="m428.5 102.44 0.242 0.473" stroke-width=".88146"/><path d="m428.74 102.91 0.324 0.293" stroke-width=".86699"/><path d="m429.06 103.21 0.325 0.145" stroke-width=".85769"/><path d="m429.39 103.35 0.367-0.036" stroke-width=".84392"/><path d="m429.75 103.32 0.402-0.218" stroke-width=".82361"/><path d="m430.16 103.1 0.406-0.403" stroke-width=".75646"/><path d="m430.56 102.7 0.407-0.547" stroke-width=".68002"/><path d="m430.97 102.15 0.324-0.621" stroke-width=".52473"/><path d="m431.29 101.53 0.281-0.726" stroke-width=".36016"/><path d="m431.57 100.8 0.164-0.586" stroke-width=".0705"/><path d="m426.51 99.23 0.203-0.253" stroke-width=".88801"/><path d="m426.72 98.977 0.605-0.075" stroke-width=".92381"/><path d="m427.32 98.902 0.446-0.035" stroke-width=".93448"/><path d="m427.77 98.867h0.406" stroke-width=".93723"/><path d="m428.17 98.867h0.445" stroke-width=".93964"/><path d="m428.62 98.867h0.406" stroke-width=".93964"/><path d="m429.02 98.867 0.407 0.035" stroke-width=".8973"/><path d="m429.43 98.902h0.402" stroke-width=".76714"/><path d="m429.83 98.902 0.57 0.039" stroke-width=".42866"/><path d="m430.4 98.941h0.485" stroke-width=".0705"/><path d="m433.96 101.53-0.203 0.403" stroke-width=".87559"/><path d="m433.76 101.93-0.078 0.363" stroke-width=".88456"/><path d="m433.68 102.29-0.043 0.437" stroke-width=".88732"/><path d="m433.64 102.73-0.079 0.586" stroke-width=".88766"/><path d="m433.56 103.32-0.082 0.622" stroke-width=".89076"/><path d="m433.48 103.94-0.082 0.617" stroke-width=".89076"/><path d="m433.4 104.56-0.039 0.621" stroke-width=".88766"/><path d="m433.36 105.18v0.547" stroke-width=".88041"/><path d="m433.36 105.72v0.511" stroke-width=".86802"/><path d="m433.36 106.23 0.121 0.399" stroke-width=".84874"/><path d="m433.48 106.63 0.161 0.328" stroke-width=".81982"/><path d="m433.64 106.96 0.203 0.293" stroke-width=".78435"/><path d="m433.84 107.25 0.242 0.184" stroke-width=".73615"/><path d="m434.09 107.44 0.285 0.109" stroke-width=".69861"/><path d="m434.37 107.55 0.285 0.109" stroke-width=".66453"/><path d="m434.66 107.66 0.324-0.039" stroke-width=".61425"/><path d="m434.98 107.62 0.282-0.109" stroke-width=".53335"/><path d="m435.26 107.51 0.324-0.18" stroke-width=".44693"/><path d="m435.59 107.33 0.367-0.437" stroke-width=".24686"/><path d="m435.95 106.89 0.242-0.403" stroke-width=".0705"/><path d="m431.9 103.9 0.325-0.035" stroke-width=".8484"/><path d="m432.22 103.86 0.527 0.11" stroke-width=".87903"/><path d="m432.75 103.97 0.488 0.109" stroke-width=".89248"/><path d="m433.24 104.08 0.485 0.074" stroke-width=".90212"/><path d="m433.72 104.16 0.406-0.039" stroke-width=".89558"/><path d="m434.13 104.12 0.445-0.07" stroke-width=".71688"/><path d="m434.57 104.05 0.364-0.149" stroke-width=".46724"/><path d="m434.94 103.9 0.367-0.144" stroke-width=".0705"/><path d="m273.27 119.1-0.325 0.512" stroke-width=".70827"/><path d="m272.94 119.62-0.199 0.473" stroke-width=".73753"/><path d="m272.75 120.09-0.164 0.621" stroke-width=".76954"/><path d="m272.58 120.71-0.16 0.727" stroke-width=".7971"/><path d="m272.42 121.44-0.164 0.839" stroke-width=".81397"/><path d="m272.26 122.28-0.039 0.84" stroke-width=".82292"/><path d="m272.22 123.12-0.043 0.836" stroke-width=".82637"/><path d="m272.18 123.95v0.805" stroke-width=".82637"/><path d="m272.18 124.76 0.121 0.73" stroke-width=".83118"/><path d="m272.3 125.49 0.164 0.617" stroke-width=".83118"/><path d="m272.46 126.1 0.203 0.477" stroke-width=".82912"/><path d="m272.66 126.58 0.242 0.328" stroke-width=".82843"/><path d="m272.91 126.91 0.285 0.219" stroke-width=".81604"/><path d="m273.19 127.13 0.282 0.109" stroke-width=".8002"/><path d="m273.47 127.24h0.324" stroke-width=".75302"/><path d="m273.8 127.24 0.406-0.109" stroke-width=".68587"/><path d="m274.2 127.13 0.406-0.219" stroke-width=".55642"/><path d="m274.61 126.91 0.528-0.547" stroke-width=".26754"/><path d="m275.14 126.36 0.445-0.547" stroke-width=".0705"/><path d="m271.57 122.75 0.446 0.184" stroke-width=".78848"/><path d="m272.02 122.93 0.527 0.144" stroke-width=".80743"/><path d="m272.54 123.08 0.363 0.039" stroke-width=".81466"/><path d="m272.91 123.12 0.364 0.035" stroke-width=".81742"/><path d="m273.27 123.15h0.445" stroke-width=".81742"/><path d="m273.72 123.15 0.406-0.035" stroke-width=".79295"/><path d="m274.12 123.12 0.445-0.074" stroke-width=".7186"/><path d="m274.57 123.04 0.489-0.145" stroke-width=".54437"/><path d="m275.06 122.9 0.566-0.148" stroke-width=".22173"/><path d="m275.62 122.75 0.484-0.145" stroke-width=".0705"/><path d="m276.51 128.99 0.043-0.328" stroke-width=".98304"/><path d="m276.56 128.66 0.078-0.293" stroke-width=".98304"/><path d="m276.63 128.37 0.082-0.328" stroke-width=".98786"/><g stroke-width=".9882"><path d="m276.72 128.04 0.082-0.363"/><path d="m276.8 127.68 0.082-0.367"/><path d="m276.88 127.31 0.121-0.364"/></g><path d="m277 126.94 0.039-0.363" stroke-width=".98854"/><path d="m277.04 126.58 0.039-0.328" stroke-width=".99061"/><path d="m277.08 126.25 0.082-0.512" stroke-width=".99095"/><path d="m277.16 125.74 0.242-0.363" stroke-width=".98028"/><path d="m277.4 125.38h0.407" stroke-width=".9734"/><path d="m277.81 125.38h0.488" stroke-width=".94859"/><path d="m278.3 125.38h0.523" stroke-width=".88146"/><path d="m278.82 125.38h0.325" stroke-width=".80124"/><path d="m279.14 125.38h0.324" stroke-width=".62873"/><path d="m279.47 125.38h0.324" stroke-width=".45622"/><path d="m284.86 120.53-0.203 0.254" stroke-width=".9066"/><path d="m284.66 120.78v0.438" stroke-width=".92105"/><path d="m284.66 121.22-0.039 0.621" stroke-width=".92863"/><g stroke-width=".93379"><path d="m284.62 121.84-0.082 0.691"/><path d="m284.54 122.53-0.082 0.766"/><path d="m284.45 123.3-0.039 0.765"/></g><path d="m284.41 124.06-0.082 0.696" stroke-width=".92794"/><path d="m284.33 124.76v0.621" stroke-width=".90109"/><path d="m284.33 125.38v0.547" stroke-width=".84702"/><path d="m284.33 125.93v0.363" stroke-width=".74717"/><path d="m284.33 126.29 0.164 0.293" stroke-width=".23791"/><path d="m282.51 124.06 4.5-0.617" stroke-width=".93792"/><path d="m290.21 118.89-0.203 0.254" stroke-width=".75164"/><path d="m290 119.14-0.039 0.367" stroke-width=".79261"/><path d="m289.96 119.51-0.082 0.437" stroke-width=".82912"/><path d="m289.88 119.94-0.082 0.547" stroke-width=".85804"/><path d="m289.8 120.49-0.121 0.617" stroke-width=".88076"/><path d="m289.68 121.11-0.121 0.696" stroke-width=".90212"/><path d="m289.56 121.8-0.121 0.726" stroke-width=".91038"/><path d="m289.44 122.53-0.122 0.731" stroke-width=".91486"/><path d="m289.32 123.26-0.082 0.691" stroke-width=".91795"/><path d="m289.23 123.95-0.082 0.586" stroke-width=".9183"/><path d="m289.15 124.54-0.039 0.512" stroke-width=".92105"/><path d="m289.11 125.05 0.121 0.363" stroke-width=".92105"/><path d="m289.23 125.41 0.204 0.254" stroke-width=".909"/><path d="m289.44 125.67 0.324 0.109" stroke-width=".89524"/><path d="m289.76 125.78 0.445 0.075" stroke-width=".85528"/><path d="m290.21 125.85h0.445" stroke-width=".79435"/><path d="m290.65 125.85 0.567-0.145" stroke-width=".71447"/><path d="m291.22 125.71 0.57-0.219" stroke-width=".61563"/><path d="m291.79 125.49 0.484-0.258" stroke-width=".48961"/><path d="m292.27 125.23 0.446-0.363" stroke-width=".30644"/><path d="m292.72 124.87 0.324-0.254" stroke-width=".0705"/><path d="m289.11 122.06 3.282 0.437" stroke-width=".87215"/><path d="m296.49 124.03-0.082 0.403" stroke-width=".83532"/><path d="m296.41 124.43-0.082 0.402" stroke-width=".86148"/><path d="m296.32 124.83-0.121 0.508" stroke-width=".88491"/><path d="m296.2 125.34-0.121 0.656" stroke-width=".9035"/><path d="m296.08 126-0.121 0.656" stroke-width=".91417"/><path d="m295.96 126.65-0.121 0.696" stroke-width=".92553"/><path d="m295.84 127.35-0.121 0.617" stroke-width=".92622"/><path d="m295.72 127.96-0.082 0.586" stroke-width=".92656"/><path d="m295.64 128.55-0.039 0.508" stroke-width=".9269"/><path d="m295.6 129.06v0.476" stroke-width=".9269"/><path d="m295.6 129.54 0.16 0.328" stroke-width=".91382"/><path d="m295.76 129.86 0.203 0.289" stroke-width=".87422"/><path d="m295.96 130.15 0.324 0.184" stroke-width=".80089"/><path d="m296.28 130.34 0.406 0.074" stroke-width=".69379"/><path d="m296.69 130.41 0.649-0.109" stroke-width=".43968"/><path d="m297.34 130.3 0.527-0.219" stroke-width=".0705"/><path d="m294.71 128.1h3.848" stroke-width=".75436"/><path d="m150.3 119.18-0.281 0.437" stroke-width=".9183"/><path d="m150.02 119.62-0.082 0.547" stroke-width=".94205"/><path d="m149.93 120.16-0.082 0.691" stroke-width=".9603"/><path d="m149.85 120.86-0.122 0.84" stroke-width=".96856"/><path d="m149.73 121.7-0.16 0.91" stroke-width=".97684"/><path d="m149.57 122.6-0.082 0.875" stroke-width=".97856"/><path d="m149.49 123.48-0.082 0.875" stroke-width=".97891"/><path d="m149.41 124.36-0.039 0.766" stroke-width=".98063"/><path d="m149.37 125.12 0.121 0.656" stroke-width=".98063"/><path d="m149.49 125.78 0.203 0.547" stroke-width=".97237"/><path d="m149.69 126.32 0.282 0.367" stroke-width=".95892"/><path d="m149.97 126.69 0.367 0.219" stroke-width=".93413"/><path d="m150.34 126.91 0.402 0.07" stroke-width=".90866"/><path d="m150.74 126.98h0.488" stroke-width=".8694"/><path d="m151.23 126.98 0.485-0.179" stroke-width=".80227"/><path d="m151.72 126.8 0.488-0.258" stroke-width=".70274"/><path d="m152.2 126.54 0.567-0.508" stroke-width=".49547"/><path d="m152.77 126.04 0.203-0.238" stroke-width=".28298"/><path d="m152.97 125.8 0.203-0.238" stroke-width=".0705"/><path d="m148.6 123.23 4.254-0.258" stroke-width=".8422"/><path d="m155.28 129.46v-0.547" stroke-width=".72927"/><path d="m155.28 128.91 0.043-0.363" stroke-width=".76163"/><path d="m155.32 128.55 0.078-0.403" stroke-width=".78744"/><path d="m155.4 128.15 0.043-0.363" stroke-width=".81707"/><path d="m155.44 127.78 0.039-0.367" stroke-width=".84702"/><path d="m155.48 127.42 0.039-0.508" stroke-width=".88525"/><path d="m155.52 126.91h0.325" stroke-width=".88766"/><path d="m155.85 126.91 0.324 0.07" stroke-width=".89007"/><path d="m156.17 126.98 0.445-0.035" stroke-width=".88146"/><path d="m156.62 126.94 0.488-0.293" stroke-width=".8181"/><path d="m157.1 126.65 0.243-0.254" stroke-width=".73753"/><path d="m157.35 126.4 0.242-0.328" stroke-width=".57948"/><path d="m157.59 126.07 0.285-0.328" stroke-width=".30781"/><path d="m157.88 125.74 0.285-0.254" stroke-width=".0705"/><path d="m161.36 126.22v-6.016" stroke-width=".78096"/><path d="m160.3 122.79 0.285-0.293" stroke-width=".85459"/><path d="m160.59 122.5 0.363-0.109" stroke-width=".86251"/><path d="m160.95 122.39 0.367-0.075" stroke-width=".86286"/><path d="m161.32 122.31 0.446-0.035" stroke-width=".86286"/><path d="m161.77 122.28 0.406-0.035" stroke-width=".86251"/><path d="m162.17 122.24h0.402" stroke-width=".82155"/><path d="m162.57 122.24 0.367 0.11" stroke-width=".71412"/><path d="m162.94 122.35 0.524 0.218" stroke-width=".43761"/><path d="m163.46 122.57 0.367 0.18" stroke-width=".0705"/><path d="m167.07 119.29-0.203 0.547" stroke-width=".79883"/><path d="m166.87 119.84-0.164 0.398" stroke-width=".85769"/><path d="m166.71 120.23-0.16 0.547" stroke-width=".89489"/><path d="m166.55 120.78-0.242 0.696" stroke-width=".92243"/><path d="m166.3 121.48-0.246 0.765" stroke-width=".93895"/><path d="m166.06 122.24-0.161 0.836" stroke-width=".94549"/><path d="m165.9 123.08-0.164 0.84" stroke-width=".94962"/><path d="m165.73 123.92-0.039 0.805" stroke-width=".94997"/><path d="m165.7 124.72 0.082 0.726" stroke-width=".95031"/><path d="m165.78 125.45 0.161 0.586" stroke-width=".95341"/><path d="m165.94 126.04 0.242 0.473" stroke-width=".95341"/><path d="m166.18 126.51 0.406 0.328" stroke-width=".94274"/><path d="m166.59 126.84 0.406 0.184" stroke-width=".92415"/><path d="m166.99 127.02 0.528 0.035" stroke-width=".88732"/><path d="m167.52 127.06 0.527-0.11" stroke-width=".82086"/><path d="m168.05 126.94 0.523-0.218" stroke-width=".71137"/><path d="m168.57 126.73 0.489-0.403" stroke-width=".52197"/><path d="m169.06 126.32 0.445-0.656" stroke-width=".22449"/><path d="m169.5 125.67 0.324-0.582" stroke-width=".0705"/><path d="m164.68 122.89h3.117" stroke-width=".62433"/><path d="m170.56 125.89v0.367" stroke-width=".80158"/><path d="m170.56 126.25v0.398" stroke-width=".84048"/><path d="m170.56 126.65-0.043 0.547" stroke-width=".8749"/><path d="m170.52 127.2v0.621" stroke-width=".89868"/><path d="m170.52 127.82-0.039 0.692" stroke-width=".91004"/><path d="m170.48 128.51-0.039 0.695" stroke-width=".9121"/><path d="m170.44 129.21-0.043 0.656" stroke-width=".91623"/><path d="m170.4 129.86v0.582" stroke-width=".91623"/><path d="m170.4 130.44 0.121 0.438" stroke-width=".91279"/><path d="m170.52 130.88 0.121 0.328" stroke-width=".9004"/><path d="m170.64 131.21 0.246 0.219" stroke-width=".86733"/><path d="m170.88 131.43 0.324 0.074" stroke-width=".81879"/><path d="m171.21 131.5h0.324" stroke-width=".74751"/><path d="m171.53 131.5 0.364-0.149" stroke-width=".66832"/><path d="m171.9 131.36 0.363-0.218" stroke-width=".50097"/><path d="m172.26 131.14 0.445-0.399" stroke-width=".27132"/><path d="m172.7 130.74 0.367-0.402" stroke-width=".0705"/><path d="m168.94 128.22 0.324 0.109" stroke-width=".90178"/><path d="m169.26 128.33 0.324 0.109" stroke-width=".91141"/><path d="m169.59 128.44 0.402 0.071" stroke-width=".91933"/><path d="m169.99 128.51 0.45 0.039" stroke-width=".9245"/><path d="m170.44 128.55 0.445 0.035" stroke-width=".92484"/><path d="m170.88 128.59 0.445-0.035" stroke-width=".92484"/><path d="m171.33 128.55 0.324-0.039" stroke-width=".92208"/><path d="m171.65 128.51 0.325-0.071" stroke-width=".88041"/><path d="m171.98 128.44 0.527-0.148" stroke-width=".4056"/></g></g></g></g></svg>
