<?xml version="1.0" encoding="UTF-8"?>
<svg width="512.45" height="225.89" version="1.1" viewBox="0 0 512.45 225.89" xml:space="preserve" xmlns="http://www.w3.org/2000/svg"><defs><clipPath id="clipPath9166"><path d="m0 0h595v841h-595z"/></clipPath></defs><g transform="matrix(1.3333 0 0 1.3333 -76.861 -25.317)"><g clip-path="url(#clipPath9166)" fill="none" stroke-linecap="round" stroke-linejoin="round" stroke-miterlimit="10"><g stroke="#000"><path d="m84.156 28.645v155.37" stroke-width=".85"/><path d="m84.379 113.59h89.301" stroke-width=".93715"/><path d="m171.21 111.92 0.363 0.074" stroke-width=".8243"/><path d="m171.57 112 0.285 0.109" stroke-width=".83256"/><path d="m171.86 112.1 0.282 0.11" stroke-width=".83841"/><path d="m172.14 112.22 0.324 0.219" stroke-width=".84254"/><path d="m172.46 112.43 0.242 0.179" stroke-width=".84254"/><g stroke-width=".8453"><path d="m172.7 112.61 0.246 0.184"/><path d="m172.95 112.8 0.281 0.183"/><path d="m173.23 112.98 0.489 0.29"/></g><path d="m173.72 113.27 0.324 0.218" stroke-width=".84564"/><path d="m174.04 113.49 0.203 0.293" stroke-width=".89661"/><path d="m174.25 113.78-0.125 0.438" stroke-width=".94687"/><path d="m174.12 114.22-0.199 0.472" stroke-width=".9479"/><path d="m173.92 114.69-0.164 0.258" stroke-width=".95307"/><path d="m173.76 114.95-0.281 0.508" stroke-width=".95754"/><path d="m173.48 115.46-0.247 0.477" stroke-width=".96167"/><path d="m173.23 115.93-0.242 0.398" stroke-width=".96443"/><path d="m172.99 116.33-0.203 0.367" stroke-width=".96961"/><path d="m172.78 116.7-0.324 0.254" stroke-width=".97064"/><path d="m172.46 116.95h-0.363" stroke-width=".73856"/><path d="m172.1 116.95-0.325-0.035" stroke-width=".11431"/><path d="m177.65 119.07-0.039 0.438" stroke-width=".7947"/><path d="m177.61 119.51-0.043 0.398" stroke-width=".81466"/><path d="m177.57 119.91v0.438" stroke-width=".82774"/><path d="m177.57 120.34v0.511" stroke-width=".84117"/><path d="m177.57 120.86-0.039 0.622" stroke-width=".84668"/><path d="m177.53 121.48v0.617" stroke-width=".84874"/><path d="m177.53 122.09v0.621" stroke-width=".8515"/><path d="m177.53 122.72v0.656" stroke-width=".85184"/><g stroke-width=".8539"><path d="m177.53 123.37v0.582"/><path d="m177.53 123.95 0.039 0.547"/><path d="m177.57 124.5 0.164 0.512"/></g><path d="m177.73 125.01 0.161 0.476" stroke-width=".85528"/><path d="m177.89 125.49 0.242 0.399" stroke-width=".85528"/><path d="m178.13 125.89 0.203 0.293" stroke-width=".85253"/><path d="m178.34 126.18 0.324 0.293" stroke-width=".84082"/><path d="m178.66 126.47 0.324 0.035" stroke-width=".83772"/><path d="m178.98 126.51 0.528-0.184" stroke-width=".83738"/><path d="m179.51 126.32 0.285-0.219" stroke-width=".81742"/><path d="m179.8 126.1 0.281-0.253" stroke-width=".78538"/><path d="m180.08 125.85 0.285-0.254" stroke-width=".74751"/><path d="m180.36 125.6 0.242-0.328" stroke-width=".68966"/><path d="m180.6 125.27 0.165-0.258" stroke-width=".62253"/><path d="m180.77 125.01 0.16-0.289" stroke-width=".46655"/><path d="m180.93 124.72 0.082-0.293" stroke-width=".21519"/><path d="m176.51 123.08 0.406-0.254" stroke-width=".72204"/><path d="m176.92 122.82h0.488" stroke-width=".73478"/><path d="m177.41 122.82h0.567" stroke-width=".73788"/><path d="m177.97 122.82h0.648" stroke-width=".7396"/><path d="m178.62 122.82 0.688 0.074" stroke-width=".7396"/><path d="m179.31 122.9 0.73 0.071" stroke-width=".69"/><path d="m180.04 122.97 0.688 0.109" stroke-width=".57742"/><path d="m180.73 123.08 0.425-0.016" stroke-width=".37495"/><path d="m181.15 123.06 0.426-0.019" stroke-width=".17248"/><path d="m181.58 123.04 0.688-0.035" stroke-width=".0705"/><path d="m80.281 32.574 0.449-0.144" stroke-width=".82155"/><path d="m80.73 32.43 0.282-0.293" stroke-width=".84495"/><path d="m81.012 32.137 0.324-0.403" stroke-width=".85872"/><path d="m81.336 31.734 0.164-0.254" stroke-width=".86286"/><path d="m81.5 31.48 0.16-0.253" stroke-width=".86595"/><path d="m81.66 31.227 0.164-0.293" stroke-width=".87697"/><path d="m81.824 30.934 0.16-0.329" stroke-width=".88319"/><path d="m81.984 30.605 0.164-0.257" stroke-width=".88835"/><path d="m82.148 30.348 0.243-0.473" stroke-width=".89868"/><path d="m82.391 29.875 0.16-0.293" stroke-width=".90315"/><path d="m82.551 29.582 0.164-0.254" stroke-width=".9066"/><path d="M 82.715,29.328 82.957,29" stroke-width=".90969"/><path d="m82.957 29 0.285-0.254" stroke-width=".91038"/><path d="m83.242 28.746 0.324-0.258" stroke-width=".91795"/><path d="m83.566 28.488 0.2 0.293" stroke-width=".92243"/><path d="m83.766 28.781 0.246 0.364" stroke-width=".92277"/><path d="m84.012 29.145 0.281 0.328" stroke-width=".92656"/><path d="m84.293 29.473 0.324 0.437" stroke-width=".9269"/><path d="m84.617 29.91 0.285 0.438" stroke-width=".93"/><path d="m84.902 30.348 0.243 0.437" stroke-width=".93"/><path d="m85.145 30.785 0.242 0.477" stroke-width=".93035"/><path d="m85.387 31.262 0.285 0.328" stroke-width=".93035"/><path d="m85.672 31.59 0.285 0.219" stroke-width=".93207"/><path d="m85.957 31.809 0.324 0.328" stroke-width=".93138"/><path d="m86.281 32.137 0.242 0.183" stroke-width=".88904"/><path d="m86.523 32.32 0.161 0.473" stroke-width=".48652"/><path d="m212.62 28.434v155.79" stroke-width=".85"/><path d="m212.84 113.38h89.305" stroke-width=".93715"/><path d="m299.67 111.71 0.367 0.074" stroke-width=".8243"/><path d="m300.04 111.78 0.281 0.11" stroke-width=".83256"/><path d="m300.32 111.9 0.286 0.109" stroke-width=".83841"/><path d="m300.6 112 0.324 0.219" stroke-width=".84254"/><path d="m300.93 112.22 0.242 0.179" stroke-width=".84254"/><g stroke-width=".8453"><path d="m301.17 112.4 0.242 0.184"/><path d="m301.41 112.59 0.285 0.184"/><path d="m301.7 112.77 0.485 0.289"/></g><path d="m302.18 113.06 0.324 0.218" stroke-width=".84564"/><path d="m302.5 113.28 0.203 0.293" stroke-width=".89661"/><path d="m302.71 113.57-0.121 0.438" stroke-width=".94687"/><path d="m302.59 114.01-0.203 0.472" stroke-width=".9479"/><path d="m302.38 114.48-0.16 0.258" stroke-width=".95307"/><path d="m302.22 114.74-0.285 0.508" stroke-width=".95754"/><path d="m301.94 115.25-0.243 0.477" stroke-width=".96167"/><path d="m301.7 115.72-0.242 0.398" stroke-width=".96443"/><path d="m301.45 116.12-0.203 0.367" stroke-width=".96961"/><path d="m301.25 116.49-0.324 0.254" stroke-width=".97064"/><path d="m300.93 116.74h-0.364" stroke-width=".73856"/><path d="m300.56 116.74-0.324-0.035" stroke-width=".11431"/><path d="m306.11 118.86-0.043 0.438" stroke-width=".7947"/><path d="m306.07 119.3-0.039 0.398" stroke-width=".81466"/><path d="m306.03 119.7v0.438" stroke-width=".82774"/><path d="m306.03 120.13v0.512" stroke-width=".84117"/><path d="m306.03 120.64-0.043 0.621" stroke-width=".84668"/><path d="m305.99 121.27v0.617" stroke-width=".84874"/><path d="m305.99 121.88v0.621" stroke-width=".8515"/><path d="m305.99 122.5v0.656" stroke-width=".85184"/><g stroke-width=".8539"><path d="m305.99 123.16v0.586"/><path d="m305.99 123.75 0.043 0.547"/><path d="m306.03 124.29 0.16 0.508"/></g><path d="m306.19 124.8 0.164 0.476" stroke-width=".85528"/><path d="m306.36 125.28 0.243 0.399" stroke-width=".85528"/><path d="m306.6 125.68 0.203 0.293" stroke-width=".85253"/><path d="m306.8 125.97 0.324 0.293" stroke-width=".84082"/><path d="m307.12 126.26 0.324 0.035" stroke-width=".83772"/><path d="m307.45 126.3 0.528-0.184" stroke-width=".83738"/><path d="m307.98 126.11 0.281-0.218" stroke-width=".81742"/><path d="m308.26 125.9 0.285-0.254" stroke-width=".78538"/><path d="m308.54 125.64 0.285-0.254" stroke-width=".74751"/><path d="m308.83 125.39 0.242-0.328" stroke-width=".68966"/><path d="m309.07 125.06 0.16-0.258" stroke-width=".62253"/><path d="m309.23 124.8 0.165-0.289" stroke-width=".46655"/><path d="m309.4 124.51 0.078-0.293" stroke-width=".21519"/><path d="m304.98 122.87 0.406-0.254" stroke-width=".72204"/><path d="m305.38 122.61h0.484" stroke-width=".73478"/><path d="m305.87 122.61h0.571" stroke-width=".73788"/><path d="m306.44 122.61h0.648" stroke-width=".7396"/><path d="m307.09 122.61 0.687 0.075" stroke-width=".7396"/><path d="m307.77 122.69 0.731 0.07" stroke-width=".69"/><path d="m308.5 122.76 0.687 0.109" stroke-width=".57742"/><path d="m309.19 122.87 0.426-0.015" stroke-width=".37495"/><path d="m309.62 122.85 0.426-0.02" stroke-width=".17248"/><path d="m310.04 122.83 0.687-0.035" stroke-width=".0705"/><path d="m208.75 32.363 0.445-0.144" stroke-width=".82155"/><path d="m209.19 32.219 0.286-0.293" stroke-width=".84495"/><path d="m209.48 31.926 0.324-0.403" stroke-width=".85872"/><path d="m209.8 31.523 0.16-0.253" stroke-width=".86286"/><path d="m209.96 31.27 0.164-0.254" stroke-width=".86595"/><path d="m210.12 31.016 0.16-0.293" stroke-width=".87697"/><path d="m210.28 30.723 0.164-0.328" stroke-width=".88319"/><path d="m210.45 30.395 0.16-0.258" stroke-width=".88835"/><path d="m210.61 30.137 0.243-0.473" stroke-width=".89868"/><path d="m210.85 29.664 0.164-0.293" stroke-width=".90315"/><path d="m211.02 29.371 0.16-0.254" stroke-width=".9066"/><path d="m211.18 29.117 0.246-0.328" stroke-width=".90969"/><path d="m211.42 28.789 0.281-0.254" stroke-width=".91038"/><path d="m211.7 28.535 0.324-0.258" stroke-width=".91795"/><path d="m212.03 28.277 0.203 0.293" stroke-width=".92243"/><path d="m212.23 28.57 0.243 0.364" stroke-width=".92277"/><path d="m212.47 28.934 0.285 0.328" stroke-width=".92656"/><path d="m212.76 29.262 0.324 0.437" stroke-width=".9269"/><path d="m213.08 29.699 0.285 0.438" stroke-width=".93"/><path d="m213.37 30.137 0.242 0.441" stroke-width=".93"/><path d="m213.61 30.578 0.243 0.473" stroke-width=".93035"/><path d="m213.85 31.051 0.285 0.328" stroke-width=".93035"/><path d="m214.14 31.379 0.281 0.219" stroke-width=".93207"/><path d="m214.42 31.598 0.324 0.328" stroke-width=".93138"/><path d="m214.74 31.926 0.242 0.183" stroke-width=".88904"/><path d="m214.98 32.109 0.164 0.473" stroke-width=".48652"/><path d="m340.09 28.105v155.14" stroke-width=".85"/><path d="m340.31 113.05h89.301" stroke-width=".93715"/><path d="m427.14 111.38 0.363 0.074" stroke-width=".8243"/><path d="m427.5 111.46 0.285 0.109" stroke-width=".83256"/><path d="m427.79 111.57 0.281 0.11" stroke-width=".83841"/><path d="m428.07 111.68 0.325 0.219" stroke-width=".84254"/><path d="m428.4 111.9 0.242 0.179" stroke-width=".84254"/><g stroke-width=".8453"><path d="m428.64 112.07 0.246 0.184"/><path d="m428.88 112.26 0.281 0.183"/><path d="m429.16 112.44 0.488 0.289"/></g><path d="m429.65 112.73 0.325 0.219" stroke-width=".84564"/><path d="m429.98 112.95 0.203 0.293" stroke-width=".89661"/><path d="m430.18 113.24-0.121 0.438" stroke-width=".94687"/><path d="m430.06 113.68-0.204 0.472" stroke-width=".9479"/><path d="m429.86 114.15-0.164 0.258" stroke-width=".95307"/><path d="m429.69 114.41-0.281 0.508" stroke-width=".95754"/><path d="m429.41 114.92-0.246 0.477" stroke-width=".96167"/><path d="m429.16 115.4-0.242 0.398" stroke-width=".96443"/><path d="m428.92 115.79-0.203 0.367" stroke-width=".96961"/><path d="m428.72 116.16-0.324 0.254" stroke-width=".97064"/><path d="m428.4 116.41h-0.364" stroke-width=".73856"/><path d="m428.03 116.41-0.324-0.035" stroke-width=".11431"/><path d="m433.58 118.53-0.039 0.438" stroke-width=".7947"/><path d="m433.54 118.97-0.043 0.398" stroke-width=".81466"/><path d="m433.5 119.37v0.438" stroke-width=".82774"/><path d="m433.5 119.8v0.511" stroke-width=".84117"/><path d="m433.5 120.32-0.039 0.622" stroke-width=".84668"/><path d="m433.46 120.94v0.617" stroke-width=".84874"/><path d="m433.46 121.56v0.621" stroke-width=".8515"/><path d="m433.46 122.18v0.656" stroke-width=".85184"/><g stroke-width=".8539"><path d="m433.46 122.83v0.582"/><path d="m433.46 123.41 0.039 0.551"/><path d="m433.5 123.96 0.164 0.508"/></g><path d="m433.66 124.47 0.16 0.476" stroke-width=".85528"/><path d="m433.82 124.95 0.242 0.399" stroke-width=".85528"/><path d="m434.07 125.35 0.204 0.293" stroke-width=".85253"/><path d="m434.27 125.64 0.324 0.293" stroke-width=".84082"/><path d="m434.59 125.93 0.324 0.035" stroke-width=".83772"/><path d="m434.92 125.97 0.527-0.184" stroke-width=".83738"/><path d="m435.44 125.78 0.285-0.219" stroke-width=".81742"/><path d="m435.73 125.57 0.282-0.254" stroke-width=".78538"/><path d="m436.01 125.31 0.285-0.253" stroke-width=".74751"/><path d="m436.3 125.06 0.242-0.329" stroke-width=".68966"/><path d="m436.54 124.73 0.164-0.257" stroke-width=".62253"/><path d="m436.7 124.47 0.16-0.289" stroke-width=".46655"/><path d="m436.86 124.18 0.082-0.293" stroke-width=".21519"/><path d="m432.45 122.54 0.403-0.254" stroke-width=".72204"/><path d="m432.85 122.28h0.488" stroke-width=".73478"/><path d="m433.34 122.28h0.566" stroke-width=".73788"/><path d="m433.91 122.28h0.649" stroke-width=".7396"/><path d="m434.56 122.28 0.687 0.074" stroke-width=".7396"/><path d="m435.24 122.36 0.731 0.071" stroke-width=".69"/><path d="m435.97 122.43 0.687 0.109" stroke-width=".57742"/><path d="m436.66 122.54 0.426-0.016" stroke-width=".37495"/><path d="m437.09 122.52 0.426-0.019" stroke-width=".17248"/><path d="m437.51 122.5 0.687-0.035" stroke-width=".0705"/><path d="m336.22 32.035 0.449-0.144" stroke-width=".82155"/><path d="m336.66 31.891 0.281-0.293" stroke-width=".84495"/><path d="m336.94 31.598 0.325-0.403" stroke-width=".85872"/><path d="m337.27 31.195 0.164-0.254" stroke-width=".86286"/><path d="m337.43 30.941 0.16-0.253" stroke-width=".86595"/><path d="m337.59 30.688 0.164-0.293" stroke-width=".87697"/><path d="m337.76 30.395 0.16-0.329" stroke-width=".88319"/><path d="m337.92 30.066 0.164-0.257" stroke-width=".88835"/><path d="m338.08 29.809 0.242-0.473" stroke-width=".89868"/><path d="m338.32 29.336 0.16-0.293" stroke-width=".90315"/><path d="m338.48 29.043 0.164-0.254" stroke-width=".9066"/><path d="m338.65 28.789 0.243-0.328" stroke-width=".90969"/><path d="m338.89 28.461 0.285-0.254" stroke-width=".91038"/><path d="m339.18 28.207 0.324-0.258" stroke-width=".91795"/><path d="m339.5 27.949 0.199 0.293" stroke-width=".92243"/><path d="m339.7 28.242 0.246 0.363" stroke-width=".92277"/><path d="m339.94 28.605 0.282 0.329" stroke-width=".92656"/><path d="m340.23 28.934 0.324 0.437" stroke-width=".9269"/><path d="m340.55 29.371 0.285 0.438" stroke-width=".93"/><path d="m340.84 29.809 0.242 0.437" stroke-width=".93"/><path d="m341.08 30.246 0.242 0.477" stroke-width=".93035"/><path d="m341.32 30.723 0.285 0.328" stroke-width=".93035"/><path d="m341.6 31.051 0.286 0.219" stroke-width=".93207"/><path d="m341.89 31.27 0.324 0.328" stroke-width=".93138"/><path d="m342.22 31.598 0.242 0.183" stroke-width=".88904"/><path d="m342.46 31.781 0.16 0.473" stroke-width=".48652"/><path d="m202.41 25.098 0.121 0.402" stroke-width=".75096"/><path d="m202.53 25.5 0.203 0.363" stroke-width=".77402"/><path d="m202.73 25.863 0.243 0.512" stroke-width=".79573"/><path d="m202.97 26.375 0.324 0.512" stroke-width=".8212"/><path d="m203.3 26.887 0.242 0.547" stroke-width=".84014"/><path d="m203.54 27.434 0.203 0.546" stroke-width=".85356"/><path d="m203.74 27.98 0.242 0.508" stroke-width=".86354"/><path d="m203.98 28.488 0.164 0.438" stroke-width=".87008"/><path d="m204.15 28.926 0.122 0.402" stroke-width=".88215"/><path d="m204.27 29.328 0.121 0.293" stroke-width=".88663"/><path d="m204.39 29.621 0.082 0.438" stroke-width=".89489"/><path d="m204.47 30.059 0.121 0.437" stroke-width=".89799"/><path d="m204.59 30.496 0.121 0.363" stroke-width=".90074"/><path d="m204.72 30.859 0.281-0.254" stroke-width=".9448"/><path d="m205 30.605 0.367-0.476" stroke-width=".94756"/><path d="m205.36 30.129 0.242-0.399" stroke-width=".95066"/><path d="m205.6 29.73 0.325-0.476" stroke-width=".951"/><path d="m205.93 29.254 0.285-0.547" stroke-width=".951"/><path d="m206.22 28.707 0.281-0.547" stroke-width=".95135"/><path d="m206.5 28.16 0.203-0.547" stroke-width=".95169"/><path d="m206.7 27.613 0.121-0.508" stroke-width=".95203"/><path d="m206.82 27.105 0.121-0.476" stroke-width=".95238"/><path d="m206.94 26.629v-0.399" stroke-width=".95238"/><path d="m206.94 26.23 0.043-0.367" stroke-width=".95582"/><path d="m206.98 25.863v-0.508" stroke-width=".95548"/><path d="m206.98 25.355v-0.328" stroke-width=".95548"/><path d="m206.98 25.027 0.078-0.293" stroke-width=".93379"/><path d="m331.09 24.625-0.121-0.363" stroke-width=".87353"/><path d="m330.97 24.262-0.242-0.293" stroke-width=".9121"/><path d="m330.73 23.969-0.407-0.328" stroke-width=".94825"/><path d="m330.32 23.641-0.324-0.149" stroke-width=".96443"/><path d="m330 23.492-0.285-0.109" stroke-width=".98407"/><path d="m329.71 23.383-0.402-0.11" stroke-width=".99233"/><path d="m329.31 23.273-0.407-0.035" stroke-width=".99646"/><g stroke-width="1.0009"><path d="m328.9 23.238h-0.363"/><path d="m328.54 23.238-0.406 0.035"/><path d="m328.13 23.273-0.285 0.149"/></g><g stroke-width="1.0034"><path d="m327.85 23.422-0.403 0.398"/><path d="m327.44 23.82-0.164 0.368"/><path d="m327.28 24.188-0.121 0.363"/></g><g stroke-width="1.0016"><path d="m327.16 24.551-0.082 0.511"/><path d="m327.08 25.062-0.039 0.512"/><path d="m327.04 25.574v0.582"/></g><path d="m327.04 26.156 0.121 0.582" stroke-width="1.0013"/><path d="m327.16 26.738 0.203 0.547" stroke-width=".9975"/><path d="m327.36 27.285 0.282 0.512" stroke-width=".98992"/><path d="m327.64 27.797 0.367 0.402" stroke-width=".98476"/><path d="m328.01 28.199 0.242 0.289" stroke-width=".97478"/><path d="m328.25 28.488 0.285 0.219" stroke-width=".96512"/><path d="m328.54 28.707 0.445 0.148" stroke-width=".9627"/><path d="m328.98 28.855 0.364-0.183" stroke-width=".97443"/><path d="m329.35 28.672 0.242-0.219" stroke-width=".97822"/><path d="m329.59 28.453 0.121-0.328" stroke-width=".98682"/><path d="m329.71 28.125 0.164-0.363" stroke-width=".98958"/><path d="m329.88 27.762 0.16-0.367" stroke-width=".98958"/><path d="m330.04 27.395 0.125-0.438" stroke-width=".98992"/><g stroke-width=".99199"><path d="m330.16 26.957 0.078-0.437"/><path d="m330.24 26.52 0.121-0.438"/><path d="m330.36 26.082 0.125-0.398"/><path d="m330.48 25.684 0.121-0.403"/></g><path d="m330.6 25.281 0.122-0.293" stroke-width=".99268"/><path d="m330.73 24.988 0.121-0.289" stroke-width=".99302"/><path d="m330.85 24.699 0.121-0.328" stroke-width=".99336"/><path d="m330.97 24.371 0.121 0.289" stroke-width=".99646"/><path d="m331.09 24.66 0.164 0.328" stroke-width=".99681"/><path d="m331.25 24.988 0.203 0.367" stroke-width=".99681"/><path d="m331.46 25.355 0.242 0.399" stroke-width=".99715"/><path d="m331.7 25.754 0.281 0.402" stroke-width=".99956"/><path d="m331.98 26.156 0.247 0.364" stroke-width=".99956"/><path d="m332.23 26.52 0.242 0.292" stroke-width=".99646"/><path d="m332.47 26.812 0.242 0.254" stroke-width=".99646"/><path d="m332.71 27.066 0.445 0.329" stroke-width=".99681"/><path d="m333.16 27.395 0.406 0.148" stroke-width=".99715"/><path d="m333.56 27.543 0.446 0.035" stroke-width=".99887"/><path d="m334.01 27.578 0.527-0.035" stroke-width=".98269"/><path d="m334.54 27.543 0.485-0.039" stroke-width=".69207"/><path d="m73.598 30.457 3.968-5.977" stroke-width=".8243"/><path d="m74.082 24.332 0.246 0.328" stroke-width=".75268"/><path d="m74.328 24.66 0.363 0.477" stroke-width=".79573"/><path d="m74.691 25.137 0.204 0.254" stroke-width=".81156"/><path d="m74.895 25.391 0.121 0.293" stroke-width=".81776"/><path d="m75.016 25.684 0.285 0.437" stroke-width=".82809"/><path d="m75.301 26.121 0.199 0.289" stroke-width=".8305"/><path d="m75.5 26.41 0.125 0.367" stroke-width=".82774"/><path d="m75.625 26.777 0.039 0.582" stroke-width=".72789"/><path d="m75.664 27.359-0.039 0.621" stroke-width=".50855"/><path d="m75.625 27.98-0.082 0.508" stroke-width=".0705"/></g><g stroke="#00c0ff"><g stroke-dasharray="0.5, 3"><path d="m357.77 115.75v38.176" stroke-width=".95858"/><path d="m107.66 72.574v39.797" stroke-width=".95057"/><path d="m108.44 95.875 0.368-0.109" stroke-width=".0705"/></g><g><path d="m100.87 119.4-0.285-0.145" stroke-width=".72238"/><path d="m100.58 119.25-0.363-0.035" stroke-width=".84358"/><path d="m100.22 119.22-0.324 0.254" stroke-width=".87456"/><path d="m99.895 119.47-0.122 0.293" stroke-width=".87697"/><path d="m99.773 119.76-0.121 0.363" stroke-width=".87697"/><path d="m99.652 120.12-0.082 0.402" stroke-width=".87662"/><path d="m99.57 120.53-0.082 0.438" stroke-width=".87628"/><path d="m99.488 120.96-0.039 0.437" stroke-width=".87594"/><path d="m99.449 121.4v0.438" stroke-width=".86871"/><path d="m99.449 121.84 0.121 0.293" stroke-width=".86354"/><path d="m99.57 122.13 0.121 0.289" stroke-width=".85941"/><path d="m99.691 122.42 0.485 0.328" stroke-width=".85907"/><path d="m100.18 122.75 0.285 0.109" stroke-width=".85907"/><path d="m100.46 122.86 0.363-0.035" stroke-width=".85941"/><path d="m100.82 122.82 0.324-0.035" stroke-width=".8601"/><g stroke-width=".86251"><path d="m101.15 122.79 0.325-0.109"/><path d="m101.47 122.68 0.246-0.184"/><path d="m101.72 122.5 0.324-0.254"/></g><g stroke-width=".86492"><path d="m102.04 122.24 0.242-0.293"/><path d="m102.28 121.95 0.242-0.328"/><path d="m102.53 121.62 0.243-0.363"/></g><path d="m102.77 121.26 0.121-0.367" stroke-width=".86664"/><path d="m102.89 120.89 0.121-0.364" stroke-width=".86733"/><path d="m103.01 120.53 0.043-0.367" stroke-width=".87077"/><path d="m103.06 120.16 0.039-0.363" stroke-width=".87146"/><path d="m103.09 119.8-0.039-0.621" stroke-width=".8811"/><path d="m103.06 119.18-0.203-0.438" stroke-width=".88801"/><path d="m102.85 118.74-0.364-0.363" stroke-width=".89145"/><path d="m102.49 118.38-0.445-0.219" stroke-width=".89386"/><path d="m102.04 118.16-0.488-0.035" stroke-width=".85907"/><path d="m101.56 118.12-0.485 0.363" stroke-width=".71102"/><path d="m101.07 118.48-0.285 0.403" stroke-width=".53783"/><path d="m100.78 118.89-0.164 0.289" stroke-width=".36377"/><path d="m100.62 119.18-0.16 0.293" stroke-width=".18972"/><path d="m100.46 119.47-0.242 0.472" stroke-width=".0705"/><path d="m105.28 123.12-0.847 3.133" stroke-width=".76886"/><path d="m109.05 118.56-0.406-0.039" stroke-width=".80502"/><path d="m108.64 118.52h-0.325" stroke-width=".88869"/><path d="m108.32 118.52-0.402 0.328" stroke-width=".90625"/><path d="m107.92 118.85-0.285 0.621" stroke-width=".90625"/><path d="m107.63 119.47-0.121 0.437" stroke-width=".9066"/><path d="m107.51 119.91-0.082 0.477" stroke-width=".90694"/><path d="m107.43 120.38-0.039 0.508" stroke-width=".90694"/><g stroke-width=".90728"><path d="m107.39 120.89-0.043 0.476"/><path d="m107.35 121.37v0.508"/><path d="m107.35 121.88 0.043 0.437"/></g><path d="m107.39 122.31 0.16 0.403" stroke-width=".90522"/><path d="m107.55 122.72 0.121 0.293" stroke-width=".90143"/><path d="m107.67 123.01 0.246 0.254" stroke-width=".89524"/><path d="m107.92 123.26 0.445 0.254" stroke-width=".87938"/><path d="m108.36 123.52 0.528 0.109" stroke-width=".87525"/><path d="m108.89 123.62 0.32-0.035" stroke-width=".8749"/><path d="m109.21 123.59 0.57-0.219" stroke-width=".86113"/><path d="m109.78 123.37 0.364-0.473" stroke-width=".86044"/><path d="m110.14 122.9 0.164-0.511" stroke-width=".86492"/><path d="m110.31 122.39 0.039-0.403" stroke-width=".88525"/><path d="m110.35 121.98-0.203-0.254" stroke-width=".91314"/><path d="m110.14 121.73-0.407-0.074" stroke-width=".93413"/><g stroke-width=".93482"><path d="m109.74 121.66-0.445 0.149"/><path d="m109.29 121.8-0.242 0.218"/><path d="m109.05 122.02-0.203 0.289"/></g><path d="m108.85 122.31-0.16 0.329" stroke-width=".92277"/><path d="m108.69 122.64-0.122 0.293" stroke-width=".89248"/><path d="m108.57 122.93-0.125 0.437" stroke-width=".69241"/><path d="m108.44 123.37 0.489 0.184" stroke-width=".0705"/><path d="m112.78 119.36 0.407-0.074" stroke-width=".73202"/><path d="m113.18 119.28 0.324-0.144" stroke-width=".75612"/><path d="m113.51 119.14 0.324-0.293" stroke-width=".76507"/><path d="m113.83 118.85 0.16-0.364" stroke-width=".76954"/><path d="m113.99 118.48 0.164-0.293" stroke-width=".77884"/><path d="m114.16 118.19 0.16 0.329" stroke-width=".87559"/><path d="m114.32 118.52 0.043 0.437" stroke-width=".9035"/><path d="m114.36 118.96 0.039 0.512" stroke-width=".92277"/><path d="m114.4 119.47 0.043 0.582" stroke-width=".93723"/><path d="m114.44 120.05v0.66" stroke-width=".94067"/><path d="m114.44 120.71 0.039 0.617" stroke-width=".94136"/><path d="m114.48 121.33v0.656" stroke-width=".94446"/><path d="m114.48 121.98v0.621" stroke-width=".94446"/><path d="m114.48 122.6v0.622" stroke-width=".93138"/><path d="m114.48 123.23v0.546" stroke-width=".85597"/><path d="m114.48 123.77v0.582" stroke-width=".6332"/><path d="m114.48 124.36v0.438" stroke-width=".0705"/><path d="m237.33 104.99-0.285-0.219" stroke-width=".73994"/><path d="m237.05 104.77-0.363-0.183" stroke-width=".88353"/><path d="m236.68 104.59-0.325 0.183" stroke-width=".92346"/><path d="m236.36 104.77-0.203 0.512" stroke-width=".92346"/><path d="m236.16 105.28-0.082 0.363" stroke-width=".92312"/><path d="m236.07 105.65-0.078 0.368" stroke-width=".92277"/><path d="m236 106.02-0.043 0.398" stroke-width=".92277"/><path d="m235.95 106.41-0.039 0.402" stroke-width=".92243"/><path d="m235.91 106.82 0.082 0.364" stroke-width=".92243"/><path d="m236 107.18 0.078 0.367" stroke-width=".91968"/><path d="m236.07 107.55 0.203 0.254" stroke-width=".91314"/><path d="m236.28 107.8 0.243 0.219" stroke-width=".89868"/><path d="m236.52 108.02 0.285 0.144" stroke-width=".88146"/><path d="m236.8 108.16 0.566 0.148" stroke-width=".86699"/><path d="m237.37 108.31h0.567" stroke-width=".86423"/><path d="m237.94 108.31 0.406-0.183" stroke-width=".86389"/><path d="m238.34 108.13 0.242-0.219" stroke-width=".86354"/><path d="m238.59 107.91 0.125-0.328" stroke-width=".86148"/><path d="m238.71 107.58 0.16-0.363" stroke-width=".86113"/><path d="m238.87 107.22 0.16-0.438" stroke-width=".86113"/><g stroke-width=".86079"><path d="m239.03 106.78 0.043-0.437"/><path d="m239.07 106.34 0.039-0.438"/><path d="m239.11 105.91 0.043-0.402"/></g><path d="m239.16 105.5v-0.328" stroke-width=".86286"/><path d="m239.16 105.18-0.082-0.547" stroke-width=".86802"/><path d="m239.07 104.63-0.242-0.328" stroke-width=".89076"/><path d="m238.83 104.3-0.367-0.149" stroke-width=".89558"/><path d="m238.46 104.15h-0.445" stroke-width=".86492"/><path d="m238.02 104.15-0.567 0.149" stroke-width=".75027"/><path d="m237.45 104.3-0.445 0.363" stroke-width=".48961"/><path d="m241.67 108.38-0.813 2.773" stroke-width=".65902"/><path d="m245.52 103.24-0.286-0.219" stroke-width=".81363"/><path d="m245.23 103.02-0.32 0.036" stroke-width=".90969"/><path d="m244.91 103.06-0.324 0.402" stroke-width=".92036"/><path d="m244.59 103.46-0.164 0.328" stroke-width=".92828"/><path d="m244.42 103.79-0.203 0.438" stroke-width=".93241"/><path d="m244.22 104.23-0.121 0.437" stroke-width=".93448"/><path d="m244.1 104.66-0.082 0.512" stroke-width=".93861"/><path d="m244.02 105.18-0.078 0.508" stroke-width=".93861"/><path d="m243.94 105.68-0.083 0.476" stroke-width=".93895"/><path d="m243.86 106.16 0.04 0.512" stroke-width=".9393"/><path d="m243.9 106.67 0.043 0.437" stroke-width=".9393"/><path d="m243.94 107.11 0.16 0.438" stroke-width=".93895"/><path d="m244.1 107.55 0.203 0.363" stroke-width=".93379"/><path d="m244.3 107.91 0.242 0.293" stroke-width=".92759"/><path d="m244.54 108.2 0.367 0.363" stroke-width=".90694"/><path d="m244.91 108.57 0.402 0.11" stroke-width=".89627"/><path d="m245.31 108.68 0.407-0.035" stroke-width=".8973"/><path d="m245.72 108.64 0.324-0.403" stroke-width=".88525"/><path d="m246.04 108.24 0.16-0.328" stroke-width=".86974"/><path d="m246.2 107.91 0.125-0.363" stroke-width=".84805"/><path d="m246.33 107.55 0.078-0.367" stroke-width=".82705"/><path d="m246.41 107.18 0.043-0.364" stroke-width=".81363"/><path d="m246.45 106.82 0.039-0.328" stroke-width=".8095"/><path d="m246.49 106.49-0.16-0.511" stroke-width=".80984"/><path d="m246.33 105.98-0.367-0.219" stroke-width=".85872"/><path d="m245.96 105.76-0.324-0.074" stroke-width=".87834"/><path d="m245.64 105.68-0.649 0.257" stroke-width=".88663"/><path d="m244.99 105.94-0.281 0.254" stroke-width=".88663"/><path d="m244.71 106.2-0.246 0.367" stroke-width=".88525"/><path d="m244.46 106.56-0.121 0.329" stroke-width=".85631"/><path d="m244.34 106.89-0.078 0.363" stroke-width=".77161"/><path d="m244.26 107.25 0.121 0.363" stroke-width=".52851"/><path d="m244.38 107.62 0.16 0.258" stroke-width=".0705"/><path d="m248.72 104.88 0.242-0.184" stroke-width=".7303"/><path d="m248.96 104.7 0.406-0.328" stroke-width=".73788"/><path d="m249.37 104.37 0.403-0.437" stroke-width=".73822"/><path d="m249.77 103.93 0.285-0.399" stroke-width=".75302"/><path d="m250.06 103.54 0.16-0.293" stroke-width=".79089"/><path d="m250.22 103.24 0.121-0.293" stroke-width=".83738"/><path d="m250.34 102.95 0.082 0.586" stroke-width=".91899"/><path d="m250.42 103.54 0.043 0.473" stroke-width=".94171"/><path d="m250.46 104.01 0.039 0.656" stroke-width=".95754"/><path d="m250.5 104.66v0.766" stroke-width=".96443"/><path d="m250.5 105.43v0.875" stroke-width=".96649"/><path d="m250.5 106.3-0.082 0.875" stroke-width=".96649"/><path d="m250.42 107.18-0.039 0.84" stroke-width=".94171"/><path d="m250.38 108.02-0.043 0.73" stroke-width=".83084"/><path d="m250.34 108.75-0.02 0.309" stroke-width=".6382"/><path d="m250.32 109.06-0.019 0.308" stroke-width=".44555"/><path d="m250.3 109.37 0.039 0.438" stroke-width=".0705"/><path d="m352.85 103.75-0.403-0.109" stroke-width=".84151"/><path d="m352.44 103.64-0.449 0.109" stroke-width=".88284"/><path d="m352 103.75-0.199 0.398" stroke-width=".88525"/><path d="m351.8 104.15-0.082 0.328" stroke-width=".88525"/><path d="m351.72 104.48-0.043 0.368" stroke-width=".8856"/><path d="m351.67 104.85-0.039 0.507" stroke-width=".88594"/><path d="m351.63 105.36v0.512" stroke-width=".88801"/><path d="m351.63 105.87v0.547" stroke-width=".88801"/><path d="m351.63 106.41 0.121 0.512" stroke-width=".88732"/><path d="m351.75 106.93 0.164 0.512" stroke-width=".88732"/><path d="m351.92 107.44 0.203 0.363" stroke-width=".8811"/><path d="m352.12 107.8 0.281 0.219" stroke-width=".87284"/><path d="m352.4 108.02 0.528 0.183" stroke-width=".86664"/><path d="m352.93 108.2 0.324-0.109" stroke-width=".8694"/><path d="m353.25 108.09 0.363-0.184" stroke-width=".8694"/><g stroke-width=".86974"><path d="m353.62 107.91 0.324-0.328"/><path d="m353.94 107.58 0.325-0.363"/><path d="m354.27 107.22 0.246-0.403"/><path d="m354.51 106.82 0.199-0.402"/><path d="m354.71 106.41 0.164-0.363"/></g><path d="m354.88 106.05 0.082-0.367" stroke-width=".87008"/><path d="m354.96 105.68 0.039-0.329" stroke-width=".87387"/><path d="m355 105.36-0.16-0.582" stroke-width=".87731"/><path d="m354.84 104.77-0.164-0.253" stroke-width=".88007"/><path d="m354.67 104.52-0.242-0.293" stroke-width=".8825"/><path d="m354.43 104.23-0.242-0.219" stroke-width=".88456"/><path d="m354.19 104.01-0.286-0.184" stroke-width=".88491"/><path d="m353.9 103.82-0.242-0.179" stroke-width=".88525"/><path d="m353.66 103.64-0.324-0.219" stroke-width=".88973"/><path d="m353.34 103.43-0.164 0.254" stroke-width=".53611"/><path d="m358.16 107.55-0.324 0.363" stroke-width=".78641"/><path d="m357.83 107.91-0.203 0.293" stroke-width=".79192"/><path d="m357.63 108.2-0.242 0.363" stroke-width=".79192"/><path d="m357.39 108.57-0.242 0.438" stroke-width=".78917"/><path d="m357.14 109-0.165 0.473" stroke-width=".73546"/><path d="m356.98 109.48-0.203 0.476" stroke-width=".64456"/><path d="m356.78 109.95-0.078 0.473" stroke-width=".41971"/><path d="m356.7 110.43-0.082 0.363" stroke-width=".0705"/><path d="m362.09 102.95h-0.324" stroke-width=".84633"/><path d="m361.76 102.95-0.324 0.184" stroke-width=".89145"/><path d="m361.44 103.13-0.446 0.402" stroke-width=".91141"/><path d="m360.99 103.54-0.16 0.328" stroke-width=".92036"/><path d="m360.83 103.86-0.203 0.399" stroke-width=".92794"/><path d="m360.63 104.26-0.203 0.511" stroke-width=".93172"/><path d="m360.43 104.77-0.121 0.547" stroke-width=".9362"/><path d="m360.3 105.32-0.164 0.621" stroke-width=".93689"/><path d="m360.14 105.94-0.121 0.657" stroke-width=".9393"/><path d="m360.02 106.6-0.04 0.656" stroke-width=".9393"/><path d="m359.98 107.25-0.042 0.621" stroke-width=".93964"/><path d="m359.94 107.88 0.042 0.582" stroke-width=".94308"/><path d="m359.98 108.46 0.161 0.512" stroke-width=".94308"/><path d="m360.14 108.97 0.164 0.363" stroke-width=".93654"/><path d="m360.3 109.33 0.203 0.254" stroke-width=".92518"/><path d="m360.51 109.59 0.281 0.184" stroke-width=".91727"/><path d="m360.79 109.77 0.57 0.074" stroke-width=".90246"/><path d="m361.36 109.84 0.325-0.074" stroke-width=".89558"/><path d="m361.68 109.77 0.242-0.219" stroke-width=".88181"/><path d="m361.93 109.55 0.363-0.293" stroke-width=".86458"/><path d="m362.29 109.26 0.242-0.363" stroke-width=".84977"/><path d="m362.53 108.9 0.203-0.329" stroke-width=".84082"/><path d="m362.73 108.57 0.164-0.363" stroke-width=".83532"/><path d="m362.9 108.2 0.079-0.367" stroke-width=".83463"/><path d="m362.98 107.84 0.043-0.547" stroke-width=".83945"/><path d="m363.02 107.29-0.243-0.328" stroke-width=".87559"/><path d="m362.78 106.96-0.57-0.145" stroke-width=".91279"/><path d="m362.21 106.82h-0.605" stroke-width=".92381"/><path d="m361.6 106.82-0.286 0.145" stroke-width=".92415"/><path d="m361.32 106.96-0.406 0.437" stroke-width=".92208"/><path d="m360.91 107.4-0.121 0.293" stroke-width=".88628"/><path d="m360.79 107.69 0.043 0.364" stroke-width=".56124"/><path d="m365.61 105.68 0.203-0.289" stroke-width=".72583"/><path d="m365.82 105.4 0.161-0.547" stroke-width=".74648"/><path d="m365.98 104.85 0.121-0.403" stroke-width=".75578"/><path d="m366.1 104.44 0.121-0.402" stroke-width=".77953"/><path d="m366.22 104.04 0.082-0.438" stroke-width=".81088"/><path d="m366.3 103.6 0.082-0.328" stroke-width=".85494"/><path d="m366.38 103.28 0.082-0.398" stroke-width=".90866"/><path d="m366.46 102.88 0.039 0.582" stroke-width=".91692"/><path d="m366.5 103.46 0.039 0.512" stroke-width=".92518"/><path d="m366.54 103.97 0.082 0.582" stroke-width=".93138"/><path d="m366.62 104.56 0.039 0.656" stroke-width=".93413"/><path d="m366.66 105.21v0.656" stroke-width=".9362"/><path d="m366.66 105.87 0.043 0.695" stroke-width=".9362"/><path d="m366.71 106.56 0.039 0.657" stroke-width=".92897"/><path d="m366.75 107.22 0.039 0.582" stroke-width=".8632"/><path d="m366.78 107.8 0.043 0.73" stroke-width=".6721"/><path d="m366.83 108.53v0.582" stroke-width=".0705"/></g><path d="m395.94 114.97v40.64" stroke-dasharray="0.5, 3" stroke-width=".95172"/></g><g stroke="#0f0"><path d="m85.145 84.062 0.039-0.367" stroke-width=".7809"/><path d="m85.184 83.695 0.246-0.363" stroke-width=".79538"/><path d="m85.43 83.332 0.203-0.254" stroke-width=".79848"/><path d="m85.633 83.078 0.281-0.367" stroke-width=".80158"/><path d="m85.914 82.711 0.367-0.399" stroke-width=".80227"/><g stroke-width=".80571"><path d="m86.281 82.312 0.446-0.511"/><path d="m86.727 81.801 0.445-0.547"/><path d="m87.172 81.254 0.484-0.512"/></g><path d="m87.656 80.742 0.489-0.547" stroke-width=".8064"/><g stroke-width=".80674"><path d="m88.145 80.195 0.445-0.472"/><path d="m88.59 79.723 0.445-0.403"/><path d="m89.035 79.32 0.406-0.328"/></g><path d="m89.441 78.992 0.325-0.289" stroke-width=".80709"/><path d="m89.766 78.703 0.363-0.219" stroke-width=".81294"/><path d="m90.129 78.484 0.242-0.183" stroke-width=".81328"/><path d="m90.371 78.301 0.285-0.184" stroke-width=".81363"/><path d="m90.656 78.117 0.364-0.144" stroke-width=".81776"/><path d="m91.02 77.973 0.324-0.219" stroke-width=".82051"/><path d="m91.344 77.754 0.406-0.219" stroke-width=".82292"/><path d="m91.75 77.535 0.363-0.219" stroke-width=".82464"/><path d="m92.113 77.316 0.407-0.254" stroke-width=".82499"/><path d="m92.52 77.062 0.406-0.257" stroke-width=".83187"/><path d="m92.926 76.805 0.445-0.254" stroke-width=".83428"/><path d="m93.371 76.551 0.445-0.258" stroke-width=".83463"/><path d="m93.816 76.293 0.446-0.254" stroke-width=".84048"/><path d="m94.262 76.039 0.445-0.254" stroke-width=".84427"/><path d="m94.707 75.785 0.445-0.258" stroke-width=".84668"/><path d="m95.152 75.527 0.407-0.254" stroke-width=".84874"/><path d="m95.559 75.273 0.445-0.218" stroke-width=".84943"/><g stroke-width=".85425"><path d="m96.004 75.055 0.406-0.219"/><path d="m96.41 74.836 0.445-0.219"/><path d="m96.855 74.617 0.407-0.183"/></g><path d="m97.262 74.434 0.445-0.18" stroke-width=".85459"/><path d="m97.707 74.254 0.445-0.149" stroke-width=".85494"/><path d="m98.152 74.105 0.485-0.179" stroke-width=".857"/><path d="m98.637 73.926 0.488-0.184" stroke-width=".85907"/><path d="m99.125 73.742 0.484-0.219" stroke-width=".85941"/><g stroke-width=".86561"><path d="m99.609 73.523 0.489-0.144"/><path d="m100.1 73.379 0.484-0.149"/><path d="m100.58 73.23 0.406-0.144"/></g><path d="m100.99 73.086 0.407-0.109" stroke-width=".87008"/><path d="m101.4 72.977 0.363-0.11" stroke-width=".87318"/><path d="m101.76 72.867 0.363-0.109" stroke-width=".87594"/><path d="m102.12 72.758 0.567-0.219" stroke-width=".878"/><path d="m102.69 72.539 0.609-0.184" stroke-width=".88284"/><path d="m103.3 72.355 0.363-0.035" stroke-width=".88319"/><path d="m103.66 72.32 0.367-0.074" stroke-width=".88938"/><path d="m104.03 72.246 0.407-0.035" stroke-width=".89007"/><g stroke-width=".89214"><path d="m104.43 72.211 0.402-0.035"/><path d="m104.84 72.176 0.406-0.074"/><path d="m105.24 72.102 0.363-0.036"/></g><g stroke-width=".89592"><path d="m105.6 72.066 0.407-0.039"/><path d="m106.01 72.027 0.406-0.07"/><path d="m106.42 71.957 0.363-0.039"/></g><path d="m106.78 71.918 0.364-0.07" stroke-width=".89764"/><path d="m107.14 71.848 0.406-0.039" stroke-width=".89799"/><path d="m107.55 71.809 0.406-0.036" stroke-width=".90212"/><path d="m107.96 71.773 0.406-0.035" stroke-width=".9066"/><path d="m108.36 71.738 0.446-0.074" stroke-width=".90728"/><g stroke-width=".91623"><path d="m108.81 71.664 0.445-0.035"/><path d="m109.25 71.629 0.484-0.039"/><path d="m109.74 71.59 0.446-0.035"/></g><path d="m110.18 71.555 0.449-0.035" stroke-width=".91933"/><path d="m110.63 71.52h0.445" stroke-width=".91968"/><g stroke-width=".92381"><path d="m111.08 71.52h0.445"/><path d="m111.52 71.52h0.403"/><path d="m111.93 71.52h0.406"/></g><g stroke-width=".92794"><path d="m112.33 71.52h0.406"/><path d="m112.74 71.52 0.364 0.035"/><path d="m113.1 71.555 0.324 0.035"/></g><path d="m113.43 71.59 0.609 0.109" stroke-width=".92931"/><path d="m114.04 71.699 0.324 0.074" stroke-width=".92966"/><path d="m114.36 71.773 0.364 0.075" stroke-width=".92966"/><path d="m114.72 71.848 0.367 0.07" stroke-width=".93"/><g stroke-width=".93482"><path d="m115.09 71.918 0.363 0.074"/><path d="m115.45 71.992 0.406 0.074"/><path d="m115.86 72.066 0.446 0.071"/><path d="m116.3 72.137 0.445 0.074"/></g><path d="m116.75 72.211 0.445 0.109" stroke-width=".93861"/><path d="m117.2 72.32 0.485 0.184" stroke-width=".94274"/><path d="m117.68 72.504 0.445 0.144" stroke-width=".94308"/><path d="m118.12 72.648 0.449 0.145" stroke-width=".94308"/><path d="m118.57 72.793 0.403 0.148" stroke-width=".94962"/><path d="m118.98 72.941 0.406 0.145" stroke-width=".94962"/><g stroke-width=".94928"><path d="m119.38 73.086 0.363 0.144"/><path d="m119.75 73.23 0.367 0.149"/><path d="m120.11 73.379 0.403 0.144"/></g><g stroke-width=".95169"><path d="m120.52 73.523 0.367 0.145"/><path d="m120.88 73.668 0.406 0.148"/><path d="m121.29 73.816 0.402 0.145"/></g><g stroke-width=".95444"><path d="m121.69 73.961 0.407 0.219"/><path d="m122.1 74.18 0.406 0.144"/><path d="m122.5 74.324 0.402 0.219"/><path d="m122.91 74.543 0.449 0.219"/></g><path d="m123.36 74.762 0.403 0.218" stroke-width=".95479"/><g stroke-width=".95754"><path d="m123.76 74.98 0.367 0.184"/><path d="m124.12 75.164 0.281 0.145"/><path d="m124.41 75.309 0.324 0.148"/></g><path d="m124.73 75.457 0.489 0.289" stroke-width=".95926"/><path d="m125.22 75.746 0.484 0.293" stroke-width=".9572"/><path d="m125.7 76.039 0.445 0.254" stroke-width=".95926"/><path d="m126.15 76.293 0.286 0.219" stroke-width=".95926"/><path d="m126.43 76.512 0.566 0.328" stroke-width=".95892"/><path d="m127 76.84 0.242 0.183" stroke-width=".95892"/><g stroke-width=".95858"><path d="m127.24 77.023 0.324 0.184"/><path d="m127.57 77.207 0.246 0.184"/><path d="m127.81 77.391 0.282 0.179"/></g><path d="m128.09 77.57 0.285 0.184" stroke-width=".96064"/><path d="m128.38 77.754 0.484 0.363" stroke-width=".96064"/><path d="m128.86 78.117 0.489 0.328" stroke-width=".9603"/><g stroke-width=".95995"><path d="m129.35 78.445 0.242 0.184"/><path d="m129.59 78.629 0.242 0.183"/><path d="m129.84 78.812 0.242 0.18"/></g><g stroke-width=".96202"><path d="m130.08 78.992 0.285 0.184"/><path d="m130.36 79.176 0.242 0.219"/><path d="m130.6 79.395 0.325 0.218"/></g><path d="m130.93 79.613 0.285 0.219" stroke-width=".96236"/><path d="m131.22 79.832 0.324 0.254" stroke-width=".96236"/><g stroke-width=".96202"><path d="m131.54 80.086 0.242 0.328"/><path d="m131.78 80.414 0.285 0.219"/><path d="m132.07 80.633 0.282 0.328"/></g><g stroke-width=".96305"><path d="m132.35 80.961 0.246 0.293"/><path d="m132.59 81.254 0.281 0.293"/><path d="m132.88 81.547 0.242 0.328"/></g><path d="m133.12 81.875 0.285 0.254" stroke-width=".96374"/><path d="m133.4 82.129 0.243 0.293" stroke-width=".96374"/><path d="m133.64 82.422 0.242 0.289" stroke-width=".96339"/><path d="m133.89 82.711 0.246 0.293" stroke-width=".96305"/><path d="m134.13 83.004 0.281 0.328" stroke-width=".96305"/><g stroke-width=".96374"><path d="m134.41 83.332 0.246 0.328"/><path d="m134.66 83.66 0.281 0.363"/><path d="m134.94 84.023 0.243 0.368"/></g><path d="m135.18 84.391 0.285 0.363" stroke-width=".96477"/><path d="m135.47 84.754 0.242 0.367" stroke-width=".96477"/><g stroke-width=".96408"><path d="m135.71 85.121 0.324 0.328"/><path d="m136.04 85.449 0.285 0.363"/><path d="m136.32 85.812 0.325 0.329"/></g><path d="m136.64 86.141 0.242 0.328" stroke-width=".96512"/><path d="m136.89 86.469 0.242 0.328" stroke-width=".96512"/><path d="m137.13 86.797 0.285 0.363" stroke-width=".96202"/><path d="m137.41 87.16 0.242 0.367" stroke-width=".95926"/><path d="m137.66 87.527 0.285 0.364" stroke-width=".95892"/><path d="m137.94 87.891 0.243 0.402" stroke-width=".95858"/><path d="m138.18 88.293 0.324 0.398" stroke-width=".95548"/><path d="m138.51 88.691 0.324 0.438" stroke-width=".95479"/><path d="m138.83 89.129 0.285 0.437" stroke-width=".95135"/><path d="m139.12 89.566 0.321 0.438" stroke-width=".94962"/><path d="m139.44 90.004 0.246 0.402" stroke-width=".94308"/><path d="m139.68 90.406 0.281 0.364" stroke-width=".9424"/><path d="m139.96 90.77 0.285 0.402" stroke-width=".93689"/><path d="m140.25 91.172 0.242 0.367" stroke-width=".93482"/><path d="m140.49 91.539 0.242 0.399" stroke-width=".93448"/><path d="m140.73 91.938 0.246 0.367" stroke-width=".93035"/><path d="m140.98 92.305 0.204 0.363" stroke-width=".93"/><path d="m141.18 92.668 0.242 0.402" stroke-width=".9269"/><path d="m141.43 93.07 0.203 0.364" stroke-width=".92518"/><path d="m141.63 93.434 0.121 0.363" stroke-width=".92484"/><path d="m141.75 93.797 0.16 0.367" stroke-width=".92484"/><g stroke-width=".9245"><path d="m141.91 94.164 0.164 0.328"/><path d="m142.07 94.492 0.16 0.363"/><path d="m142.23 94.855 0.164 0.329"/></g><g stroke-width=".92243"><path d="m142.4 95.184 0.243 0.363"/><path d="m142.64 95.547 0.121 0.328"/><path d="m142.76 95.875 0.164 0.367"/></g><path d="m142.93 96.242 0.16 0.328" stroke-width=".92381"/><path d="m143.09 96.57 0.121 0.328" stroke-width=".92381"/><path d="m143.21 96.898 0.121 0.329" stroke-width=".92312"/><path d="m143.33 97.227 0.121 0.363" stroke-width=".92071"/><path d="m143.45 97.59 0.121 0.363" stroke-width=".91795"/><path d="m143.57 97.953 0.125 0.367" stroke-width=".91486"/><path d="m143.7 98.32 0.121 0.438" stroke-width=".91486"/><path d="m143.82 98.758 0.122 0.402" stroke-width=".91245"/><path d="m143.94 99.16 0.082 0.399" stroke-width=".91176"/><path d="m144.02 99.559 0.121 0.367" stroke-width=".91176"/><path d="m144.14 99.926 0.078 0.363" stroke-width=".91141"/><path d="m144.22 100.29 0.082 0.293" stroke-width=".91107"/><path d="m144.3 100.58 0.043 0.328" stroke-width=".909"/><path d="m144.34 100.91 0.078 0.508" stroke-width=".90281"/><path d="m144.42 101.42 0.043 0.477" stroke-width=".89489"/><path d="m144.46 101.9 0.078 0.617" stroke-width=".89179"/><path d="m144.54 102.51 0.043 0.367" stroke-width=".89145"/><path d="m144.59 102.88 0.039 0.328" stroke-width=".88938"/><path d="m144.62 103.21 0.082 0.363" stroke-width=".88628"/><path d="m144.71 103.57 0.082 0.328" stroke-width=".88628"/><path d="m144.79 103.9 0.078 0.364" stroke-width=".87662"/><path d="m144.87 104.26 0.125 0.293" stroke-width=".87077"/><path d="m144.99 104.56 0.121 0.293" stroke-width=".86458"/><path d="m145.11 104.85 0.203 0.472" stroke-width=".86044"/><path d="m145.32 105.32 0.161 0.512" stroke-width=".85597"/><path d="m145.48 105.83 0.121 0.438" stroke-width=".85425"/><path d="m145.6 106.27 0.082 0.402" stroke-width=".85012"/><path d="m145.68 106.67 0.082 0.363" stroke-width=".84771"/><path d="m145.76 107.04 0.078 0.403" stroke-width=".84736"/><path d="m145.84 107.44v0.437" stroke-width=".84427"/><path d="m145.84 107.88 0.043 0.398" stroke-width=".84495"/><path d="m145.88 108.27 0.078 0.403" stroke-width=".84461"/><path d="m145.96 108.68 0.043 0.437" stroke-width=".84461"/><path d="m146 109.11 0.039 0.328" stroke-width=".84495"/><path d="m146.04 109.44 0.043 0.329" stroke-width=".8422"/><path d="m146.09 109.77 0.078 0.472" stroke-width=".84117"/><path d="m146.16 110.24 0.121 0.403" stroke-width=".84117"/><path d="m146.28 110.64 0.125 0.402" stroke-width=".84254"/><path d="m146.41 111.05v0.398" stroke-width=".84117"/><path d="m146.41 111.44 0.078 0.293" stroke-width=".84358"/><path d="m146.49 111.74 0.082 0.328" stroke-width=".8718"/><path d="m212.33 85.996 58.793 74.789" stroke-width=".78607"/><path d="m340.23 155.6h56.414" stroke-width=".98052"/></g><g stroke="#00c0ff"><path d="m270.59 116.04v41.61" stroke-dasharray="0.5, 3" stroke-width=".90951"/><g><path d="m265.7 103.13-0.246-0.184" stroke-width=".96961"/><path d="m265.45 102.95 0.449-0.289" stroke-width=".96961"/><path d="m265.9 102.66 0.325-0.148" stroke-width=".96996"/><path d="m266.22 102.51 0.324-0.145" stroke-width=".96996"/><path d="m266.55 102.37 0.281-0.144" stroke-width=".9703"/><path d="m266.83 102.22 0.363-0.11" stroke-width=".9703"/><path d="m267.19 102.11 0.286 0.219" stroke-width=".97581"/><path d="m267.48 102.33 0.039 0.617" stroke-width=".97822"/><g stroke-width=".98338"><path d="m267.52 102.95v0.477"/><path d="m267.52 103.43-0.039 0.547"/><path d="m267.48 103.97-0.082 0.582"/></g><path d="m267.4 104.56-0.122 0.582" stroke-width=".98545"/><path d="m267.27 105.14-0.121 0.586" stroke-width=".98579"/><path d="m267.15 105.72-0.16 0.472" stroke-width=".9882"/><path d="m266.99 106.2-0.164 0.367" stroke-width=".9944"/><path d="m266.83 106.56-0.242 0.364" stroke-width="1.0298"/><path d="m266.59 106.93 0.203 0.254" stroke-width="1.046"/><path d="m266.79 107.18h0.649" stroke-width="1.046"/><path d="m267.44 107.18 0.363-0.071" stroke-width="1.0491"/><path d="m267.8 107.11 0.285-0.148" stroke-width="1.0495"/><path d="m268.09 106.96 0.363-0.289" stroke-width="1.0495"/><path d="m268.45 106.67 0.567-0.074" stroke-width=".67589"/><path d="m272.3 107.47-1.293 4.23" stroke-width=".85322"/><path d="m274.12 100.87 0.445 0.219" stroke-width=".78848"/><path d="m274.57 101.09 0.325 0.074" stroke-width=".79917"/><path d="m274.89 101.16 0.445 0.074" stroke-width=".80433"/><path d="m275.34 101.24 0.488 0.035" stroke-width=".80468"/><path d="m275.82 101.27h0.485" stroke-width=".80468"/><path d="m276.31 101.27 0.488-0.035" stroke-width=".75096"/><path d="m276.8 101.24 0.445-0.074" stroke-width=".65627"/><path d="m277.24 101.16 0.406-0.184" stroke-width=".44418"/><path d="m277.65 100.98 0.325-0.144" stroke-width=".0705"/><path d="m275.06 101.6-0.082 0.293" stroke-width=".64353"/><path d="m274.97 101.9-0.121 0.546" stroke-width=".71206"/><path d="m274.85 102.44-0.082 0.289" stroke-width=".73374"/><path d="m274.77 102.73-0.04 0.512" stroke-width=".75509"/><path d="m274.73 103.24 0.04 0.363" stroke-width=".76748"/><path d="m274.77 103.6 0.367 0.293" stroke-width=".77505"/><path d="m275.14 103.9 0.324 0.145" stroke-width=".7785"/><path d="m275.46 104.04 0.445 0.074" stroke-width=".77815"/><path d="m275.91 104.12 0.524 0.074" stroke-width=".77815"/><path d="m276.43 104.19 0.527 0.071" stroke-width=".77505"/><path d="m276.96 104.26 0.488 0.109" stroke-width=".76679"/><path d="m277.44 104.37 0.325 0.149" stroke-width=".74235"/><path d="m277.77 104.52 0.242 0.363" stroke-width=".73788"/><path d="m278.01 104.88 0.039 0.512" stroke-width=".78022"/><path d="m278.05 105.4v0.363" stroke-width=".81432"/><path d="m278.05 105.76-0.039 0.402" stroke-width=".85046"/><path d="m278.01 106.16-0.082 0.438" stroke-width=".87422"/><path d="m277.93 106.6-0.16 0.472" stroke-width=".89351"/><path d="m277.77 107.07-0.204 0.477" stroke-width=".91038"/><path d="m277.57 107.55-0.164 0.398" stroke-width=".92277"/><path d="m277.4 107.94-0.242 0.328" stroke-width=".93207"/><path d="m277.16 108.27-0.16 0.293" stroke-width=".93826"/><path d="m277 108.57-0.285 0.184" stroke-width=".93826"/><path d="m276.72 108.75-0.324 0.18" stroke-width=".86595"/><path d="m276.39 108.93-0.446 0.328" stroke-width=".52542"/><path d="m275.94 109.26-0.445 0.219" stroke-width=".0705"/><path d="m390.17 102.88 0.363-0.039" stroke-width=".93826"/><g stroke-width=".93964"><path d="m390.53 102.84 0.407 0.039"/><path d="m390.94 102.88 0.523 0.07"/><path d="m391.46 102.95 0.57 0.074"/></g><g stroke-width=".93792"><path d="m392.03 103.02 0.524 0.075"/><path d="m392.56 103.1 0.449 0.07"/><path d="m393 103.17 0.484 0.219"/></g><path d="m393.49 103.39 0.082 0.476" stroke-width=".95961"/><path d="m393.57 103.86-0.121 0.399" stroke-width=".96512"/><path d="m393.45 104.26-0.285 0.476" stroke-width=".96546"/><path d="m393.16 104.74-0.363 0.547" stroke-width=".97133"/><path d="m392.8 105.28-0.406 0.582" stroke-width=".97168"/><path d="m392.4 105.87-0.325 0.512" stroke-width=".97133"/><path d="m392.07 106.38-0.242 0.473" stroke-width=".96996"/><path d="m391.83 106.85-0.164 0.328" stroke-width=".96996"/><path d="m391.66 107.18-0.242 0.367" stroke-width=".96925"/><path d="m391.42 107.55 0.285 0.254" stroke-width=".96443"/><path d="m391.71 107.8 0.566 0.109" stroke-width=".96443"/><path d="m392.27 107.91 0.649 0.074" stroke-width=".96684"/><path d="m392.92 107.98 0.324-0.039" stroke-width=".96684"/><path d="m393.25 107.94 0.363-0.035" stroke-width=".9658"/><path d="m393.61 107.91 0.368-0.035" stroke-width=".9479"/><path d="m393.98 107.88 0.324-0.109" stroke-width=".86836"/><path d="m394.3 107.77 0.363-0.11" stroke-width=".69895"/><path d="m394.66 107.66 0.445-0.183" stroke-width=".42522"/><path d="m395.11 107.47 0.364-0.145" stroke-width=".0705"/><path d="m397.18 106.45-0.649 3.461" stroke-width=".86836"/><path d="m401.02 102.44 0.368 0.145" stroke-width=".82843"/><path d="m401.39 102.59h0.605" stroke-width=".86182"/><g stroke-width=".86492"><path d="m402 102.59 0.367-0.035"/><path d="m402.36 102.55 0.403-0.074"/><path d="m402.77 102.48 0.324-0.145"/></g><path d="m403.09 102.33 0.324-0.148" stroke-width=".86389"/><path d="m403.41 102.18 0.324-0.399" stroke-width=".8002"/><path d="m403.74 101.78 0.121-0.367" stroke-width=".54403"/><path d="m403.86 101.42 0.043-0.328" stroke-width=".0705"/><path d="m401.47 102.26-0.16 0.328" stroke-width=".66522"/><path d="m401.31 102.59-0.164 0.328" stroke-width=".73409"/><path d="m401.14 102.91-0.122 0.363" stroke-width=".7785"/><path d="m401.02 103.28-0.16 0.328" stroke-width=".80433"/><path d="m400.86 103.6-0.121 0.293" stroke-width=".82292"/><path d="m400.74 103.9-0.121 0.473" stroke-width=".84805"/><path d="m400.62 104.37-0.043 0.402" stroke-width=".85769"/><path d="m400.58 104.77 0.246 0.219" stroke-width=".85804"/><path d="m400.82 104.99 0.403 0.11" stroke-width=".85769"/><path d="m401.23 105.1 0.367 0.035" stroke-width=".85804"/><path d="m401.59 105.14 0.523-0.035" stroke-width=".8601"/><path d="m402.12 105.1 0.528-0.075" stroke-width=".85976"/><path d="m402.64 105.03 0.406-0.144" stroke-width=".85804"/><path d="m403.05 104.88 0.363-0.035" stroke-width=".85769"/><path d="m403.41 104.85 0.324 0.289" stroke-width=".85976"/><path d="m403.74 105.14 0.082 0.293" stroke-width=".86286"/><path d="m403.82 105.43 0.039 0.328" stroke-width=".87146"/><path d="m403.86 105.76v0.328" stroke-width=".89076"/><path d="m403.86 106.09-0.039 0.367" stroke-width=".91451"/><path d="m403.82 106.45-0.16 0.399" stroke-width=".94274"/><path d="m403.66 106.85-0.285 0.437" stroke-width=".9703"/><path d="m403.38 107.29-0.406 0.367" stroke-width=".9975"/><path d="m402.97 107.66-0.446 0.328" stroke-width="1.0126"/><g stroke-width="1.023"><path d="m402.52 107.98-0.484 0.254"/><path d="m402.04 108.24-0.445 0.145"/><path d="m401.59 108.38-0.449 0.109"/></g><path d="m401.14 108.49-0.321 0.074" stroke-width=".95479"/><path d="m400.82 108.57-0.285-0.109" stroke-width=".52507"/><g stroke-width="1.0367"><path d="m140.86 118.34 0.161-0.258"/><path d="m141.02 118.08 0.324-0.18"/><path d="m141.34 117.9 0.324-0.148"/></g><path d="m141.67 117.75 0.324-0.109" stroke-width="1.0364"/><path d="m141.99 117.64 0.324-0.11" stroke-width="1.036"/><path d="m142.32 117.54h0.485" stroke-width="1.0295"/><path d="m142.8 117.54 0.324 0.293" stroke-width="1.0223"/><g stroke-width="1.0195"><path d="m143.12 117.83 0.125 0.328"/><path d="m143.25 118.16v0.403"/><path d="m143.25 118.56 0.039 0.472"/><path d="m143.29 119.03-0.039 0.547"/><path d="m143.25 119.58-0.043 0.547"/><path d="m143.21 120.12-0.082 0.547"/><path d="m143.12 120.67-0.16 0.476"/></g><path d="m142.96 121.15-0.164 0.399" stroke-width="1.0271"/><path d="m142.8 121.55-0.281 0.328" stroke-width="1.0302"/><path d="m142.52 121.88-0.243 0.293" stroke-width="1.036"/><path d="m142.28 122.17-0.324 0.219" stroke-width="1.0381"/><path d="m141.95 122.39-0.285 0.254" stroke-width="1.0405"/><path d="m141.67 122.64-0.285 0.257" stroke-width="1.0429"/><path d="m141.38 122.9-0.403 0.329" stroke-width="1.0429"/><path d="m140.98 123.23 0.204 0.289" stroke-width="1.036"/><path d="m141.18 123.52 0.484 0.109" stroke-width="1.0378"/><path d="m141.67 123.62 0.527 0.074" stroke-width="1.0378"/><path d="m142.2 123.7 0.567 0.11" stroke-width="1.0295"/><path d="m142.76 123.81 0.609 0.035" stroke-width=".96649"/><path d="m143.37 123.84 0.344-0.016" stroke-width=".78486"/><path d="m143.72 123.83 0.344-0.019" stroke-width=".60324"/><path d="m144.06 123.81 0.324-0.036" stroke-width=".0705"/><path d="m147.71 123.52-0.691 3.101" stroke-width=".87938"/><path d="m150.18 119 3.89-1.133" stroke-width=".91554"/><path d="m151.59 118.05-0.242 0.254" stroke-width=".69345"/><path d="m151.35 118.3-0.161 0.258" stroke-width=".78263"/><path d="m151.19 118.56-0.203 0.328" stroke-width=".8453"/><path d="m150.99 118.89-0.203 0.437" stroke-width=".88697"/><path d="m150.78 119.32-0.121 0.438" stroke-width=".90832"/><path d="m150.66 119.76-0.121 0.402" stroke-width=".91864"/><path d="m150.54 120.16-0.082 0.438" stroke-width=".9269"/><path d="m150.46 120.6-0.043 0.328" stroke-width=".9269"/><g stroke-width=".92725"><path d="m150.42 120.93 0.043 0.472"/><path d="m150.46 121.4 0.363 0.219"/><path d="m150.82 121.62h0.324"/></g><path d="m151.15 121.62 0.325 0.035" stroke-width=".92277"/><path d="m151.47 121.66h0.324" stroke-width=".91968"/><path d="m151.8 121.66h0.406" stroke-width=".91141"/><path d="m152.2 121.66h0.324" stroke-width=".8973"/><path d="m152.53 121.66h0.567" stroke-width=".87249"/><path d="m153.09 121.66h0.445" stroke-width=".85253"/><path d="m153.54 121.66 0.367 0.184" stroke-width=".84392"/><path d="m153.91 121.84 0.242 0.402" stroke-width=".85356"/><path d="m154.15 122.24 0.122 0.473" stroke-width=".88041"/><path d="m154.27 122.72-0.165 0.547" stroke-width=".91864"/><path d="m154.1 123.26-0.242 0.254" stroke-width=".93069"/><path d="m153.86 123.52-0.324 0.218" stroke-width=".94446"/><path d="m153.54 123.73-0.484 0.219" stroke-width=".94928"/><path d="m153.06 123.95-0.571 0.184" stroke-width=".94928"/><path d="m152.48 124.14-0.605 0.144" stroke-width=".93448"/><path d="m151.88 124.28-0.649 0.149" stroke-width=".87628"/><path d="m151.23 124.43-0.851 0.218" stroke-width=".67314"/><path d="m150.38 124.65-0.344 0.071" stroke-width=".37182"/><path d="m150.04 124.72-0.344 0.074" stroke-width=".0705"/></g></g><g stroke="#ff8000"><path d="m84.559 70.949h22.867" stroke-dasharray="0.5, 3" stroke-width=".94425"/><path d="m213.05 161.41h57.461" stroke-dasharray="0.5, 3" stroke-width=".95308"/><g><path d="m317.27 155.87h3.035" stroke-width=".76202"/><path d="m324.93 152.65-0.082-0.328" stroke-width=".87008"/><path d="m324.85 152.32-0.368-0.293" stroke-width=".99061"/><path d="m324.48 152.03-0.566-0.109" stroke-width="1.0292"/><path d="m323.92 151.92-0.566-0.035" stroke-width="1.0436"/><g stroke-width="1.0478"><path d="m323.35 151.89-0.407 0.183"/><path d="m322.94 152.07-0.16 0.254"/><path d="m322.78 152.32-0.082 0.328"/></g><g stroke-width="1.0471"><path d="m322.7 152.65-0.039 0.438"/><path d="m322.66 153.09v0.437"/><path d="m322.66 153.53 0.121 0.438"/></g><path d="m322.78 153.96 0.16 0.328" stroke-width="1.0464"/><path d="m322.94 154.29 0.164 0.254" stroke-width="1.0433"/><path d="m323.11 154.55 0.364 0.258" stroke-width="1.034"/><path d="m323.47 154.8 0.363 0.035" stroke-width="1.0333"/><path d="m323.84 154.84 0.285-0.402" stroke-width="1.0336"/><path d="m324.12 154.44 0.164-0.29" stroke-width="1.0336"/><path d="m324.28 154.15 0.121-0.367" stroke-width="1.0333"/><path d="m324.41 153.78 0.121-0.289" stroke-width="1.0333"/><path d="m324.53 153.49 0.203-0.476" stroke-width="1.0309"/><path d="m324.73 153.02 0.122 0.402" stroke-width="1.0257"/><path d="m324.85 153.42v0.473" stroke-width="1.0298"/><path d="m324.85 153.89v0.547" stroke-width="1.033"/><path d="m324.85 154.44v0.621" stroke-width="1.0371"/><path d="m324.85 155.06-0.043 0.656" stroke-width="1.0371"/><path d="m324.81 155.72v0.656" stroke-width="1.0367"/><path d="m324.81 156.37-0.039 0.586" stroke-width="1.0364"/><path d="m324.77 156.96-0.04 0.547" stroke-width="1.0274"/><path d="m324.73 157.5v0.508" stroke-width=".98648"/><path d="m324.73 158.01v0.437" stroke-width=".80743"/><path d="m324.73 158.45 0.079 0.477" stroke-width=".0705"/><path d="m328.09 158.45-1.055 2.406" stroke-width=".85287"/><path d="m332.51 155.9 0.324 0.18" stroke-width=".80055"/><path d="m332.83 156.08 0.406 0.442" stroke-width=".80778"/><path d="m333.24 156.52 0.16 0.253" stroke-width=".80778"/><path d="m333.4 156.77 0.164 0.293" stroke-width=".80812"/><path d="m333.56 157.07 0.04 0.329" stroke-width=".81363"/><path d="m333.6 157.4 0.043 0.363" stroke-width=".81879"/><path d="m333.64 157.76 0.039 0.363" stroke-width=".82568"/><path d="m333.68 158.12-0.039 0.402" stroke-width=".83291"/><path d="m333.64 158.52-0.083 0.403" stroke-width=".84323"/><path d="m333.56 158.93-0.164 0.363" stroke-width=".85356"/><path d="m333.4 159.29-0.199 0.293" stroke-width=".87215"/><path d="m333.2 159.58-0.246 0.18" stroke-width=".89627"/><path d="m332.95 159.76-0.484 0.183" stroke-width=".92931"/><path d="m332.47 159.94h-0.407" stroke-width=".9479"/><path d="m332.06 159.94-0.285-0.109" stroke-width=".95203"/><path d="m331.78 159.84-0.16-0.293" stroke-width=".95203"/><path d="m331.62 159.54-0.082-0.473" stroke-width=".94515"/><path d="m331.54 159.07v-0.363" stroke-width=".94102"/><path d="m331.54 158.71v-0.367" stroke-width=".93344"/><path d="m331.54 158.34v-0.438" stroke-width=".92346"/><path d="m331.54 157.9 0.082-0.437" stroke-width=".91486"/><path d="m331.62 157.46 0.121-0.473" stroke-width=".9035"/><path d="m331.74 156.99 0.164-0.512" stroke-width=".88732"/><path d="m331.9 156.48 0.16-0.511" stroke-width=".87284"/><path d="m332.06 155.97 0.165-0.473" stroke-width=".86148"/><path d="m332.23 155.5 0.078-0.473" stroke-width=".85494"/><path d="m332.3 155.02 0.082-0.476" stroke-width=".84771"/><path d="m332.39 154.55 0.082-0.399" stroke-width=".83841"/><path d="m332.47 154.15 0.082-0.402" stroke-width=".82809"/><path d="m332.55 153.75 0.039-0.437" stroke-width=".8033"/><path d="m332.59 153.31 0.039-0.403" stroke-width=".76851"/><path d="m332.63 152.91 0.043-0.398" stroke-width=".73925"/><path d="m332.67 152.51v-0.438" stroke-width=".72617"/><path d="m332.67 152.07v-0.367" stroke-width=".72204"/><path d="m332.67 151.7-0.043-0.547" stroke-width=".72032"/><path d="m332.63 151.16-0.281-0.289" stroke-width=".74373"/><path d="m332.35 150.87h-0.407" stroke-width=".75818"/><path d="m331.94 150.87-0.285 0.328" stroke-width=".77677"/><path d="m331.66 151.2-0.16 0.289" stroke-width=".79538"/><path d="m331.5 151.48-0.121 0.328" stroke-width=".81191"/><path d="m331.38 151.81-0.121 0.329" stroke-width=".82774"/><path d="m331.25 152.14-0.121 0.402" stroke-width=".8422"/><path d="m331.13 152.54-0.082 0.437" stroke-width=".85459"/><path d="m331.05 152.98-0.082 0.473" stroke-width=".86767"/><path d="m330.97 153.45-0.082 0.477" stroke-width=".87387"/><path d="m330.89 153.93-0.039 0.472" stroke-width=".87731"/><path d="m330.85 154.4v0.403" stroke-width=".88041"/><path d="m330.85 154.8v0.398" stroke-width=".8811"/><path d="m330.85 155.2 0.203 0.547" stroke-width=".87215"/><path d="m331.05 155.75 0.445 0.328" stroke-width=".77574"/><path d="m331.5 156.08 0.484 0.149" stroke-width=".6511"/><path d="m331.98 156.23 0.407 0.109" stroke-width=".0705"/><path d="m178.82 160.09 3.688 0.656" stroke-width=".91933"/><path d="m186 160.02 0.203-0.438" stroke-width=".79779"/><path d="m186.2 159.58 0.16-0.293" stroke-width=".80192"/><path d="m186.36 159.29 0.243-0.363" stroke-width=".80192"/><path d="m186.6 158.93 0.242-0.403" stroke-width=".80227"/><path d="m186.84 158.52 0.246-0.402" stroke-width=".80261"/><path d="m187.09 158.12 0.242-0.398" stroke-width=".80261"/><path d="m187.33 157.72 0.16-0.368" stroke-width=".80296"/><path d="m187.49 157.36 0.164-0.289" stroke-width=".8033"/><path d="m187.66 157.07 0.082-0.328" stroke-width=".80365"/><path d="m187.74 156.74 0.078 0.547" stroke-width=".88628"/><path d="m187.82 157.28v0.508" stroke-width=".9066"/><path d="m187.82 157.79 0.043 0.656" stroke-width=".91795"/><path d="m187.86 158.45v0.766" stroke-width=".9214"/><path d="m187.86 159.22v0.875" stroke-width=".92174"/><path d="m187.86 160.09v0.84" stroke-width=".92174"/><path d="m187.86 160.93v0.765" stroke-width=".89007"/><path d="m187.86 161.7v0.621" stroke-width=".8095"/><path d="m187.86 162.32v0.508" stroke-width=".63252"/><path d="m187.86 162.82 0.039 0.328" stroke-width=".0705"/><path d="m190.17 160.16 0.285-0.184" stroke-width=".74373"/><path d="m190.45 159.98 0.527-0.035" stroke-width=".78538"/><path d="m190.98 159.94 0.567 0.11" stroke-width=".80296"/><path d="m191.55 160.06 0.242 0.183" stroke-width=".80571"/><path d="m191.79 160.24 0.203 0.254" stroke-width=".80571"/><path d="m191.99 160.49 0.16 0.328" stroke-width=".8095"/><path d="m192.15 160.82 0.121 0.364" stroke-width=".81191"/><path d="m192.27 161.18 0.082 0.402" stroke-width=".81225"/><path d="m192.36 161.59 0.043 0.437" stroke-width=".81432"/><path d="m192.4 162.02v0.403" stroke-width=".81673"/><path d="m192.4 162.43-0.043 0.328" stroke-width=".82051"/><path d="m192.36 162.75-0.121 0.289" stroke-width=".83118"/><path d="m192.23 163.04-0.484 0.293" stroke-width=".87834"/><path d="m191.75 163.34-0.324 0.039" stroke-width=".89592"/><path d="m191.43 163.38-0.571-0.113" stroke-width=".92622"/><path d="m190.86 163.26-0.363-0.289" stroke-width=".93"/><path d="m190.49 162.97-0.121-0.403" stroke-width=".92208"/><path d="m190.37 162.57 0.121-0.547" stroke-width=".91279"/><path d="m190.49 162.02 0.121-0.328" stroke-width=".90522"/><path d="m190.61 161.7 0.203-0.437" stroke-width=".89627"/><path d="m190.82 161.26 0.204-0.438" stroke-width=".88284"/><path d="m191.02 160.82 0.242-0.437" stroke-width=".86423"/><path d="m191.26 160.38 0.203-0.473" stroke-width=".83738"/><path d="m191.46 159.91 0.16-0.476" stroke-width=".81156"/><path d="m191.62 159.43 0.164-0.438" stroke-width=".79676"/><path d="m191.79 159 0.121-0.437" stroke-width=".7785"/><path d="m191.91 158.56 0.082-0.364" stroke-width=".76059"/><path d="m191.99 158.2 0.082-0.328" stroke-width=".7451"/><path d="m192.07 157.87 0.078-0.472" stroke-width=".73719"/><path d="m192.15 157.4-0.203-0.293" stroke-width=".74063"/><path d="m191.95 157.1-0.445-0.145" stroke-width=".79814"/><path d="m191.5 156.96-0.566-0.109" stroke-width=".87869"/><path d="m190.94 156.85-0.446 0.144" stroke-width=".90384"/><path d="m190.49 156.99-0.285 0.582" stroke-width=".90487"/><path d="m190.21 157.57-0.039 0.438" stroke-width=".90522"/><path d="m190.17 158.01-0.039 0.511" stroke-width=".90522"/><path d="m190.13 158.52 0.039 0.512" stroke-width=".90315"/><path d="m190.17 159.04 0.164 0.473" stroke-width=".87422"/><path d="m190.33 159.51 0.16 0.363" stroke-width=".81845"/><path d="m190.49 159.87 0.242 0.258" stroke-width=".74028"/><path d="m190.73 160.13 0.246 0.18" stroke-width=".63286"/><path d="m190.98 160.31 0.364 0.074" stroke-width=".40457"/><path d="m196.45 162.64-0.164 0.289" stroke-width=".87146"/><g stroke-width=".87594"><path d="m196.28 162.93-0.039 0.328"/><path d="m196.25 163.26-0.039 0.476"/><path d="m196.21 163.74-0.082 0.547"/></g><path d="m196.12 164.28-0.043 0.547" stroke-width=".87077"/><path d="m196.08 164.83-0.078 0.547" stroke-width=".8305"/><path d="m196 165.38-0.043 0.473" stroke-width=".74786"/><path d="m195.96 165.85v0.367" stroke-width=".62804"/><path d="m195.96 166.22-0.039 0.363" stroke-width=".0705"/><g stroke-width=".8825"><path d="m199.28 156.96 0.485-0.293"/><path d="m199.77 156.66 0.445-0.109"/><path d="m200.22 156.56 0.449-0.11"/></g><path d="m200.66 156.44 0.445-0.109" stroke-width=".88215"/><path d="m201.11 156.34 0.364-0.035" stroke-width=".88007"/><path d="m201.47 156.3h0.324" stroke-width=".88007"/><path d="m201.8 156.3 0.406 0.363" stroke-width=".88938"/><path d="m202.2 156.66 0.121 0.328" stroke-width=".90074"/><path d="m202.32 156.99 0.039 0.473" stroke-width=".90109"/><path d="m202.36 157.46v0.476" stroke-width=".90178"/><path d="m202.36 157.94-0.039 0.582" stroke-width=".90178"/><path d="m202.32 158.52-0.121 0.622" stroke-width=".90212"/><path d="m202.2 159.14-0.164 0.582" stroke-width=".90281"/><path d="m202.04 159.73-0.242 0.546" stroke-width=".90315"/><path d="m201.8 160.27-0.203 0.403" stroke-width=".90315"/><path d="m201.59 160.68-0.242 0.328" stroke-width=".9245"/><path d="m201.35 161-0.243 0.18" stroke-width=".94756"/><path d="m201.11 161.18-0.488 0.257" stroke-width=".98992"/><path d="m200.62 161.44-0.406 0.11" stroke-width="1.004"/><path d="m200.22 161.55 0.203 0.254" stroke-width="1.003"/><path d="m200.42 161.8 0.367 0.183" stroke-width="1.004"/><path d="m200.78 161.99 0.445 0.145" stroke-width="1.0061"/><path d="m201.23 162.13 0.567 0.074" stroke-width="1.0099"/><g stroke-width="1.0102"><path d="m201.8 162.21h0.363"/><path d="m202.16 162.21h0.324"/><path d="m202.48 162.21h0.325"/></g><path d="m202.81 162.21 0.367-0.039" stroke-width="1.0106"/><path d="m203.18 162.17 0.527-0.07" stroke-width="1.0078"/><path d="m203.7 162.1 0.445-0.184" stroke-width=".89489"/><path d="m204.15 161.91 0.243-0.184" stroke-width=".68381"/><path d="m201.76 81.109-0.446-0.074" stroke-width=".951"/><path d="m201.31 81.035-0.449 0.035" stroke-width=".98407"/><path d="m200.86 81.07-0.445 0.368" stroke-width=".9975"/><path d="m200.42 81.438-0.203 0.289" stroke-width="1.0058"/><path d="m200.22 81.727-0.242 0.402" stroke-width="1.012"/><path d="m199.97 82.129-0.203 0.512" stroke-width="1.0199"/><path d="m199.77 82.641-0.2 0.582" stroke-width="1.0264"/><path d="m199.57 83.223-0.203 0.656" stroke-width="1.0295"/><path d="m199.37 83.879-0.121 0.695" stroke-width="1.0323"/><path d="m199.25 84.574-0.125 0.727" stroke-width="1.0326"/><path d="m199.12 85.301-0.078 0.73" stroke-width="1.0347"/><path d="m199.04 86.031-0.043 0.657" stroke-width="1.0364"/><path d="m199 86.688v0.621" stroke-width="1.0364"/><path d="m199 87.309 0.043 0.546" stroke-width="1.0347"/><path d="m199.04 87.855 0.16 0.473" stroke-width="1.0343"/><path d="m199.2 88.328 0.164 0.293" stroke-width="1.034"/><path d="m199.37 88.621 0.242 0.219" stroke-width="1.0268"/><path d="m199.61 88.84 0.325 0.144" stroke-width="1.0171"/><path d="m199.93 88.984 0.324 0.036" stroke-width="1.0099"/><path d="m200.26 89.02h0.363" stroke-width="1.0071"/><path d="m200.62 89.02 0.367-0.071" stroke-width="1.004"/><path d="m200.99 88.949 0.324-0.109" stroke-width="1.0013"/><path d="m201.31 88.84 0.282-0.184" stroke-width="1.0009"/><path d="m201.59 88.656 0.242-0.218" stroke-width="1.0013"/><path d="m201.84 88.438 0.203-0.254" stroke-width="1.0009"/><path d="m202.04 88.184 0.164-0.438" stroke-width="1.0013"/><path d="m202.2 87.746-0.043-0.476" stroke-width="1.002"/><path d="m202.16 87.27-0.281-0.364" stroke-width="1.014"/><path d="m201.88 86.906-0.285-0.109" stroke-width="1.0216"/><path d="m201.59 86.797-0.324-0.035" stroke-width="1.0268"/><path d="m201.27 86.762-0.606 0.07" stroke-width="1.0274"/><path d="m200.66 86.832-0.324 0.109" stroke-width="1.0274"/><path d="m200.34 86.941-0.246 0.219" stroke-width="1.014"/><path d="m200.09 87.16-0.203 0.328" stroke-width=".96546"/><path d="m199.89 87.488-0.161 0.367" stroke-width=".80674"/><path d="m199.73 87.855v0.547" stroke-width=".48996"/><path d="m199.73 88.402v0.473" stroke-width=".0705"/><path d="m61.848 69.039 0.281-0.402" stroke-width=".90487"/><path d="m62.129 68.637 0.164-0.289" stroke-width=".9214"/><path d="m62.293 68.348 0.242-0.328" stroke-width=".92828"/><path d="m62.535 68.02 0.203-0.403" stroke-width=".93586"/><path d="m62.738 67.617 0.164-0.363" stroke-width=".94308"/><path d="m62.902 67.254 0.16-0.332" stroke-width=".94825"/><path d="m63.062 66.922 0.122-0.289" stroke-width=".94894"/><path d="m63.184 66.633 0.203-0.293" stroke-width=".95272"/><path d="m63.387 66.34 0.285 0.144" stroke-width=".96752"/><path d="m63.672 66.484 0.078 0.328" stroke-width=".98304"/><path d="m63.75 66.812 0.043 0.442" stroke-width=".99681"/><path d="m63.793 67.254 0.039 0.582" stroke-width="1.004"/><path d="m63.832 67.836 0.039 0.656" stroke-width="1.0078"/><path d="m63.871 68.492-0.039 0.692" stroke-width="1.0109"/><path d="m63.832 69.184-0.039 0.73" stroke-width="1.0113"/><path d="m63.793 69.914-0.082 0.691" stroke-width="1.0116"/><path d="m63.711 70.605-0.121 0.657" stroke-width="1.0116"/><path d="m63.59 71.262-0.121 0.621" stroke-width="1.0113"/><path d="m63.469 71.883-0.121 0.547" stroke-width=".99405"/><path d="m63.348 72.43-0.082 0.472" stroke-width=".93999"/><path d="m63.266 72.902-0.039 0.403" stroke-width=".8212"/><path d="m63.227 73.305 0.078 0.363" stroke-width=".5144"/><path d="m68.613 66.195-0.324-0.148" stroke-width=".91658"/><path d="m68.289 66.047-0.363-0.035" stroke-width="1.0075"/><path d="m67.926 66.012-0.367 0.437" stroke-width="1.0106"/><path d="m67.559 66.449-0.2 0.438" stroke-width="1.0147"/><path d="m67.359 66.887-0.164 0.656" stroke-width="1.015"/><path d="m67.195 67.543-0.16 0.73" stroke-width="1.015"/><path d="m67.035 68.273-0.082 0.84" stroke-width="1.0154"/><path d="m66.953 69.113-0.082 0.836" stroke-width="1.0157"/><g stroke-width="1.0161"><path d="m66.871 69.949v0.805"/><path d="m66.871 70.754 0.082 0.726"/><path d="m66.953 71.48 0.16 0.657"/></g><path d="m67.113 72.137 0.246 0.547" stroke-width="1.0113"/><path d="m67.359 72.684 0.243 0.402" stroke-width="1.0009"/><path d="m67.602 73.086 0.281 0.254" stroke-width=".9882"/><path d="m67.883 73.34 0.285 0.148" stroke-width=".97615"/><path d="m68.168 73.488 0.566 0.071" stroke-width=".96684"/><g stroke-width=".96477"><path d="m68.734 73.559 0.489-0.399"/><path d="m69.223 73.16 0.16-0.367"/><path d="m69.383 72.793 0.164-0.398"/><path d="m69.547 72.395 0.121-0.403"/><path d="m69.668 71.992 0.082-0.402"/><path d="m69.75 71.59 0.039-0.399"/></g><path d="m69.789 71.191-0.082-0.511" stroke-width=".98166"/><path d="m69.707 70.68-0.406-0.184" stroke-width="1.0075"/><path d="m69.301 70.496-0.363-0.035" stroke-width="1.0102"/><path d="m68.938 70.461-0.364 0.144" stroke-width="1.0102"/><path d="m68.574 70.605-0.406 0.219" stroke-width="1.0099"/><path d="m68.168 70.824-0.324 0.367" stroke-width="1.0058"/><path d="m67.844 71.191-0.242 0.438" stroke-width=".97615"/><path d="m67.602 71.629-0.164 0.473" stroke-width=".88732"/><path d="m67.438 72.102 0.042 0.546" stroke-width=".68622"/><path d="m67.48 72.648 0.079 0.438" stroke-width=".0705"/><path d="m72.664 74.145-0.324 0.511" stroke-width=".88456"/><path d="m72.34 74.656-0.242 0.438" stroke-width=".9004"/><path d="m72.098 75.094-0.282 0.508" stroke-width=".9004"/><path d="m71.816 75.602-0.246 0.586" stroke-width=".81604"/><path d="m71.57 76.188-0.058 0.363" stroke-width=".66057"/><path d="m71.512 76.551-0.063 0.363" stroke-width=".5051"/><path d="m71.449 76.914-0.082 0.547" stroke-width=".0705"/><path d="m75.906 69.148h0.324" stroke-width=".7902"/><path d="m76.23 69.148 0.286 0.145" stroke-width=".79261"/><path d="m76.516 69.293 0.281 0.219" stroke-width=".79261"/><path d="M 76.797,69.512 77,69.805" stroke-width=".78744"/><path d="m77 69.805 0.164 0.363" stroke-width=".77299"/><path d="m77.164 70.168 0.078 0.367" stroke-width=".75027"/><path d="m77.242 70.535 0.043 0.438" stroke-width=".73581"/><g stroke-width=".73065"><path d="m77.285 70.973-0.043 0.437"/><path d="m77.242 71.41-0.16 0.438"/><path d="m77.082 71.848-0.164 0.398"/></g><path d="m76.918 72.246-0.242 0.293" stroke-width=".74235"/><path d="m76.676 72.539-0.403 0.363" stroke-width=".84427"/><path d="m76.273 72.902-0.449 0.11" stroke-width=".90866"/><path d="m75.824 73.012-0.363-0.035" stroke-width=".92518"/><path d="m75.461 72.977-0.242-0.219" stroke-width=".9269"/><path d="m75.219 72.758-0.121-0.403" stroke-width=".90418"/><path d="m75.098 72.355 0.121-0.617" stroke-width=".88904"/><path d="m75.219 71.738 0.16-0.437" stroke-width=".8825"/><path d="m75.379 71.301 0.203-0.477" stroke-width=".87215"/><path d="m75.582 70.824 0.242-0.508" stroke-width=".8663"/><path d="m75.824 70.316 0.246-0.511" stroke-width=".85976"/><path d="m76.07 69.805 0.203-0.512" stroke-width=".85081"/><path d="m76.273 69.293 0.161-0.438" stroke-width=".84633"/><path d="m76.434 68.855 0.16-0.437" stroke-width=".84254"/><path d="m76.594 68.418 0.125-0.438" stroke-width=".836"/><path d="m76.719 67.98 0.121-0.398" stroke-width=".82396"/><path d="m76.84 67.582 0.121-0.367" stroke-width=".81156"/><path d="m76.961 67.215 0.082-0.403" stroke-width=".79607"/><path d="m77.043 66.812 0.078-0.328" stroke-width=".77953"/><path d="m77.121 66.484 0.043-0.328" stroke-width=".76817"/><path d="m77.164 66.156 0.039-0.508" stroke-width=".76266"/><path d="m77.203 65.648-0.082-0.437" stroke-width=".76266"/><path d="m77.121 65.211-0.203-0.367" stroke-width=".77092"/><path d="m76.918 64.844-0.402-0.254" stroke-width=".82809"/><path d="m76.516 64.59-0.489-0.184" stroke-width=".89627"/><path d="m76.027 64.406-0.484-0.07" stroke-width=".92794"/><path d="m75.543 64.336-0.406 0.144" stroke-width=".93104"/><path d="m75.137 64.48-0.16 0.254" stroke-width=".93104"/><path d="m74.977 64.734-0.125 0.328" stroke-width=".93069"/><path d="m74.852 65.062-0.079 0.403" stroke-width=".93"/><path d="m74.773 65.465-0.043 0.512" stroke-width=".93"/><path d="m74.73 65.977v0.507" stroke-width=".92966"/><path d="m74.73 66.484 0.082 0.512" stroke-width=".92897"/><path d="m74.812 66.996 0.083 0.512" stroke-width=".92656"/><path d="m74.895 67.508 0.203 0.472" stroke-width=".90935"/><path d="m75.098 67.98 0.242 0.438" stroke-width=".85872"/><path d="m75.34 68.418 0.16 0.367" stroke-width=".76679"/><path d="m75.5 68.785 0.246 0.363" stroke-width=".52817"/><path d="m75.746 69.148 0.203 0.293" stroke-width=".0705"/></g></g></g></g></svg>
