<svg width="101.47" height="115.75" xml:space="preserve" xmlns="http://www.w3.org/2000/svg"><defs><clipPath id="a"><path d="M0 0h595v841H0z"/></clipPath></defs><g clip-path="url(#a)" fill="none" stroke-linecap="round" stroke-linejoin="round" stroke-miterlimit="10" transform="translate(-205.16 -44.454) scale(1.3333)"><g stroke="#000"><path d="m169.62 99.668 28.973-43.391" stroke-width=".818"/><path d="m194.99 57.332.246-.219" stroke-width=".765"/><path d="m195.23 57.113.567-.363" stroke-width=".812"/><path d="m195.8 56.75.324-.219m-.004 0 .363-.254" stroke-width=".818"/><path d="m196.49 56.277.285-.218m-.005 0 .325-.149" stroke-width=".823"/><path d="m197.1 55.91.406-.18" stroke-width=".821"/><path d="m197.5 55.73.402-.074" stroke-width=".816"/><path d="M197.91 55.656h.324m-.004 0 .368.035" stroke-width=".815"/><path d="m198.6 55.691.281.149" stroke-width=".888"/><path d="m198.88 55.84.043.328" stroke-width=".914"/><path d="m198.92 56.168.121.508" stroke-width=".941"/><path d="m199.04 56.676.078.402" stroke-width=".954"/><path d="m199.12 57.078.125.438" stroke-width=".966"/><path d="m199.25 57.516.078.511" stroke-width=".985"/><path d="m199.32 58.027.082.582" stroke-width=".998"/><path d="m199.41 58.609.082.547" stroke-width="1.007"/><path d="m199.49 59.156.039.547m.001 0v.477" stroke-width="1.011"/><path d="m199.53 60.18.043.437m-.003 0v.328" stroke-width="1.018"/><path d="M199.57 60.945v.547" stroke-width="1.017"/><path d="M199.57 61.492v.438" stroke-width=".916"/><path d="M203.09 46.578v.473" stroke-width=".949"/><path d="m203.09 47.051.242.437" stroke-width=".956"/><path d="m203.34 47.488.242.438" stroke-width=".962"/><path d="m203.58 47.926.246.437" stroke-width=".966"/><path d="m203.82 48.363.242.473m.008 0 .161.437" stroke-width=".971"/><path d="m204.23 49.273.246.438m-.006 0 .121.402m-.001 0 .121.438" stroke-width=".98"/><path d="m204.72 50.551.16.402" stroke-width=".985"/><path d="m204.88 50.953.082.363" stroke-width=".989"/><path d="m204.96 51.316.121.329m-.001 0 .121.293" stroke-width=".991"/><path d="m205.2 51.938.246.398" stroke-width=".997"/><path d="m205.44 52.336.364.039" stroke-width="1.047"/><path d="m205.81 52.375.242-.402M206.05 51.973l.203-.364m-.003 0 .285-.437m.005 0 .324-.512m-.004 0 .282-.547m-.002 0 .367-.547m.003 0 .281-.546" stroke-width="1.055"/><path d="m207.79 49.02.242-.512m.008 0 .285-.473" stroke-width="1.052"/><path d="m208.32 48.035.16-.402" stroke-width="1.044"/><path d="m208.48 47.633.165-.363" stroke-width="1.037"/><path d="m208.64 47.27.121-.293" stroke-width="1.023"/><path d="m208.77 46.977.203-.473" stroke-width=".912"/><path d="m208.97 46.504.16-.438" stroke-width=".398"/><path d="m203.3 41.617.527.145" stroke-width=".719"/><path d="m203.82 41.762.364.039" stroke-width=".749"/><path d="m204.19 41.801.445.035" stroke-width=".77"/><path d="m204.63 41.836.527.074" stroke-width=".782"/><path d="m205.16 41.91.567.035" stroke-width=".787"/><path d="M205.73 41.945h.566" stroke-width=".798"/><path d="m206.29 41.945.57.035m0 0h.524" stroke-width=".801"/><path d="M207.39 41.98h.449m.001 0h.324" stroke-width=".804"/><path d="m208.16 41.98.32-.035m0 0 .45-.035" stroke-width=".807"/><path d="m208.93 41.91.324-.109" stroke-width=".816"/><path d="m209.25 41.801.121-.367" stroke-width=".932"/><path d="m209.38 41.434-.164-.329" stroke-width=".954"/><path d="m209.21 41.105-.363-.144" stroke-width=".965"/><path d="m208.85 40.961-.446-.109" stroke-width=".978"/><path d="m208.4 40.852-.324-.075" stroke-width=".996"/><path d="m208.08 40.777-.406-.109" stroke-width="1.023"/><path d="m207.67 40.668.488-.109" stroke-width="1.005"/><path d="m208.16 40.559.32.039" stroke-width="1.001"/><path d="m208.48 40.598.325.07" stroke-width=".993"/><path d="m208.8 40.668.406.148" stroke-width=".99"/><path d="m209.21 40.816.324.145" stroke-width=".983"/><path d="m209.54 40.961.285.144" stroke-width=".98"/><path d="m209.82 41.105.242.219" stroke-width=".979"/><path d="m210.06 41.324.286.219" stroke-width=".975"/><path d="m210.35 41.543.16.293" stroke-width=".977"/><path d="m210.51 41.836-.16.328" stroke-width=".979"/><path d="m210.35 42.164-.407.473m-.003 0-.242.258" stroke-width=".982"/><path d="m209.7 42.895-.324.289" stroke-width=".975"/><path d="m209.38 43.184-.285.293" stroke-width=".928"/><path d="m209.09 43.477-.285.363" stroke-width=".818"/><path d="m208.8 43.84-.364.437" stroke-width=".516"/><path d="m208.44 44.277-.242.368" stroke-width=".07"/></g><g stroke="#0f0"><path d="M169.86 99.59h29.758" stroke-width="1.023"/><path d="m195.52 96.898.242.219" stroke-width=".944"/><path d="m195.76 97.117.285.145m-.005 0 .406.218" stroke-width=".955"/><path d="m196.45 97.48.406.219" stroke-width=".956"/><path d="m196.86 97.699.446.11m-.006 0 .484.218m-.004 0 .406.149m.004 0 .407.219M198.6 98.395l.324.179" stroke-width=".959"/><path d="m198.92 98.574.324.184m.006 0 .242.219m-.002 0 .364.472M199.85 99.449l.121.512" stroke-width=".96"/><path d="m199.97 99.961-.121.512" stroke-width=".981"/><path d="m199.85 100.47-.204.254" stroke-width="1.002"/><path d="m199.65 100.73-.281.293" stroke-width="1.009"/><path d="m199.37 101.02-.367.289" stroke-width="1.013"/><path d="m199 101.31-.363.328" stroke-width="1.022"/><path d="m198.64 101.64-.364.258" stroke-width="1.024"/><path d="m198.27 101.9-.285.289m.005-.009-.285.183m-.005.007-.242.184" stroke-width="1.025"/><path d="m197.46 102.55-.324.328" stroke-width="1.016"/><path d="m197.14 102.88-.242.363" stroke-width=".834"/><path d="m196.9 103.24-.243.258" stroke-width=".488"/><path d="m206.13 103.02-.164-.293" stroke-width=".935"/><path d="m205.97 102.73.125.293" stroke-width=".959"/><path d="m206.09 103.02.16.329" stroke-width=".97"/><path d="m206.25 103.35.285.437" stroke-width=".979"/><path d="m206.54 103.79.281.512" stroke-width=".992"/><path d="m206.82 104.3.242.582" stroke-width=".997"/><path d="m207.06 104.88.204.547" stroke-width=".998"/><path d="m207.27 105.43.164.547" stroke-width="1.006"/><path d="m207.43 105.98.242.511m-.002-.001.164.438" stroke-width="1.008"/><path d="m207.84 106.93.16.328m0-.008.164.293" stroke-width="1.012"/><path d="m208.16 107.55.16.289" stroke-width="1.018"/><path d="m208.32 107.84.364-.145" stroke-width="1.044"/><path d="m208.68 107.69.121-.293m-.001.003.246-.437m.004-.003.281-.617M209.33 106.34l.324-.656m.006.006.367-.731" stroke-width="1.05"/><path d="m210.02 104.96.243-.766m.007-.004.324-.765m-.004.005.203-.731" stroke-width="1.049"/><path d="m210.79 102.7.203-.621m.007-.009.16-.437" stroke-width="1.048"/><path d="m211.16 101.64.082-.289" stroke-width="1.04"/><path d="m211.24 101.35-.082.289" stroke-width=".07"/><path d="m212.57 107.25.406.035" stroke-width=".69"/><path d="m212.98 107.29.485.402" stroke-width=".72"/><path d="m213.46 107.69.121.403" stroke-width=".731"/><path d="m213.59 108.09.125.472" stroke-width=".738"/><path d="M213.71 108.57v.547m0-.007v.621" stroke-width=".745"/><path d="m213.71 109.73-.043.657" stroke-width=".742"/><path d="m213.67 110.39-.121.547" stroke-width=".739"/><path d="m213.55 110.94-.16.472m0-.002-.203.367m-.007.003-.368.364" stroke-width=".737"/><path d="m212.82 112.14-.363.074" stroke-width=".716"/><path d="m212.45 112.22-.324-.039" stroke-width=".58"/><path d="m216.22 106.85-.325-.145" stroke-width=".808"/><path d="m215.9 106.71-.367-.035" stroke-width=".875"/><path d="m215.53 106.67-.363.437" stroke-width=".899"/><path d="m215.17 107.11-.203.473" stroke-width=".909"/><path d="m214.96 107.58-.16.621" stroke-width=".922"/><path d="m214.8 108.2-.164.727" stroke-width=".929"/><path d="m214.64 108.93-.121.804m.001-.004-.04.766" stroke-width=".932"/><path d="m214.48 110.5.079.691" stroke-width=".933"/><path d="m214.56 111.19.164.586m-.004.004.242.399" stroke-width=".934"/><path d="m214.96 112.18.324.258" stroke-width=".933"/><path d="m215.29 112.43.363.144" stroke-width=".93"/><path d="m215.65 112.58.407.035" stroke-width=".91"/><path d="m216.06 112.61.406-.07" stroke-width=".88"/><path d="m216.46 112.54.406-.258" stroke-width=".836"/><path d="m216.87 112.28.402-.363" stroke-width=".77"/><path d="m217.27 111.92.325-.512" stroke-width=".675"/><path d="m217.6 111.41.324-.656" stroke-width=".447"/><path d="m217.92 110.75.246-.547" stroke-width=".07"/><path d="m213.14 109.88 3.609-.84" stroke-width=".832"/><path d="m205.89 96.754.605-.039" stroke-width=".916"/><path d="M206.5 96.715h.488" stroke-width=".932"/><path d="M206.98 96.715h.528" stroke-width=".953"/><path d="m207.51 96.715.605.039" stroke-width=".962"/><path d="m208.12 96.754.649.07" stroke-width=".967"/><path d="m208.77 96.824.609.074" stroke-width=".971"/><path d="m209.38 96.898.648.075" stroke-width=".972"/><path d="m210.02 96.973.606.07m.004 0 .566.074m.004 0 .489.074m-.009 0 .484.036m.006 0 .324.035" stroke-width=".975"/><path d="m212.49 97.262.324.039" stroke-width=".972"/><path d="m212.82 97.301.325-.039m-.005 0 .164-.289" stroke-width=".971"/><path d="m213.3 96.973-.043-.438m.003 0-.16-.476" stroke-width=".973"/><path d="m213.1 96.059-.286-.329" stroke-width=".977"/><path d="m212.82 95.73-.402-.253" stroke-width=".978"/><path d="m212.41 95.477-.488-.258" stroke-width=".999"/><path d="m211.93 95.219-.485-.18" stroke-width="1.016"/><path d="m211.44 95.039-.324-.109" stroke-width="1.033"/><path d="m211.12 94.93.485.109m-.005 0 .367.109" stroke-width="1.014"/><path d="m211.97 95.148.523.29" stroke-width="1.012"/><path d="m212.49 95.438.406.292m.004 0 .243.368m-.003 0 .121.398" stroke-width="1.01"/><path d="m213.26 96.496-.039.547" stroke-width="1.021"/><path d="m213.22 97.043-.121.293" stroke-width="1.023"/><path d="m213.1 97.336-.164.293m.004 0-.321.398" stroke-width="1.025"/><path d="m212.62 98.027-.324.258" stroke-width=".995"/><path d="m212.29 98.285-.285.219" stroke-width=".818"/><path d="m212.01 98.504-.285.219" stroke-width=".641"/><path d="m211.72 98.723-.243.254" stroke-width=".07"/><path d="m219.78 112.61-1.863 3.465" stroke-width=".653"/><path d="m223.23 107.33-.324-.148" stroke-width=".868"/><path d="m222.91 107.18-.406-.035m-.004-.005-.16.402m0 .008-.082.363m.002-.003-.039.438" stroke-width=".966"/><path d="m222.22 108.35-.043.511m.003-.001v.473" stroke-width=".962"/><path d="m222.18 109.33.164.473m-.004-.003.16.441m0 .009.246.399M222.75 110.64l.281.293" stroke-width=".96"/><path d="m223.03 110.94.325.183" stroke-width=".958"/><path d="m223.35 111.12.324.109" stroke-width=".955"/><path d="m223.68 111.23.367.036" stroke-width=".947"/><path d="m224.04 111.27.363-.075" stroke-width=".943"/><path d="m224.41 111.19.364-.218" stroke-width=".938"/><path d="m224.77 110.97.324-.328" stroke-width=".935"/><path d="m225.09 110.64.246-.438m.004.008.16-.512m0 .002.121-.547M225.62 109.15l.082-.546m-.002-.004.039-.508" stroke-width=".932"/><path d="M225.74 108.09v-.477" stroke-width=".944"/><path d="m225.74 107.62-.039-.437" stroke-width=".963"/><path d="m225.7 107.18-.082-.289" stroke-width=".983"/><path d="m225.62 106.89-.16-.293" stroke-width=".999"/><path d="m225.46 106.6-.488-.403m-.002.003-.364-.144m.004-.006-.324-.11" stroke-width="1.02"/><path d="m224.28 105.94-.367-.074" stroke-width="1.015"/><path d="m223.92 105.87-.363.039" stroke-width=".982"/><path d="m223.56 105.91-.282.18" stroke-width=".912"/><path d="m223.27 106.09-.324.512" stroke-width=".717"/><path d="m222.95 106.6-.246.511" stroke-width=".07"/><path d="M169.73 98.328V55.785" stroke-width=".942"/><path d="m166.59 60.543.242-.438" stroke-width=".951"/><path d="m166.83 60.105.203-.257" stroke-width=".968"/><path d="m167.03 59.848.246-.364" stroke-width=".979"/><path d="m167.28 59.484.282-.402" stroke-width=".984"/><path d="m167.56 59.082.242-.398" stroke-width=".995"/><path d="m167.8 58.684.246-.403m.004 0 .16-.363m0 0 .164-.328m-.004 0 .121-.293" stroke-width=".998"/><path d="m168.49 57.297.203-.473" stroke-width="1.002"/><path d="m168.7 56.824.2-.293m0 0 .164-.328"/><path d="m169.06 56.203.16-.293" stroke-width=".999"/><path d="m169.22 55.91.203-.328" stroke-width=".997"/><path d="m169.42 55.582.445.402" stroke-width="1.007"/><path d="m169.87 55.984.324.403" stroke-width="1.014"/><path d="m170.19 56.387.247.254" stroke-width="1.015"/><path d="m170.44 56.641.16.254" stroke-width="1.022"/><path d="m170.6 56.895.164.257" stroke-width="1.024"/><path d="m170.76 57.152.242.254" stroke-width="1.026"/><path d="m171 57.406.363.473" stroke-width="1.029"/><path d="m171.37 57.879.203.258m-.003 0 .285.472" stroke-width="1.035"/><path d="m171.86 58.609.243.329m-.003 0 .203.253" stroke-width="1.037"/><path d="m172.3 59.191.078.512" stroke-width=".869"/><path d="M172.38 59.703v.328" stroke-width=".583"/><path d="m158.04 45.738.078.512" stroke-width=".835"/><path d="m158.12 46.25.203.363" stroke-width=".858"/><path d="m158.32 46.613.242.438" stroke-width=".88"/><path d="m158.56 47.051.325.472" stroke-width=".89"/><path d="m158.89 47.523.246.512" stroke-width=".904"/><path d="m159.13 48.035.324.473" stroke-width=".91"/><path d="m159.46 48.508.16.476" stroke-width=".913"/><path d="m159.62 48.984.121.364" stroke-width=".919"/><path d="m159.74 49.348.164.328" stroke-width=".923"/><path d="m159.9 49.676.121.328" stroke-width=".934"/><path d="m160.02 50.004.282-.109" stroke-width=".999"/><path d="m160.3 49.895.367-.583" stroke-width="1.004"/><path d="m160.67 49.312.242-.437m-.002 0 .285-.477m.005 0 .281-.507" stroke-width="1.006"/><path d="m161.48 47.891.243-.477m-.003 0 .164-.473" stroke-width="1.007"/><path d="m161.89 46.941.16-.437m0 0 .164-.402" stroke-width="1.005"/><path d="m162.21 46.102.16-.364m0 0 .125-.328" stroke-width="1.002"/><path d="m162.5 45.41.16-.293" stroke-width=".992"/><path d="m162.66 45.117.082-.363" stroke-width=".929"/><path d="m162.01 53.359.121-.402" stroke-width=".807"/><path d="m162.13 52.957.164-.293" stroke-width=".831"/><path d="m162.29 52.664.281-.398" stroke-width=".847"/><path d="m162.57 52.266.367-.438" stroke-width=".853"/><path d="m162.94 51.828.364-.476m-.004 0 .406-.473m.004 0 .363-.473" stroke-width=".861"/><path d="m164.07 50.406.324-.476m.006 0 .286-.438" stroke-width=".865"/><path d="m164.68 49.492.242-.398" stroke-width=".855"/><path d="m164.93 49.094.16-.328" stroke-width=".82"/><path d="m165.09 48.766.164-.293" stroke-width=".744"/><path d="m165.25 48.473.082-.473" stroke-width=".437"/><path d="M163.21 51.203v-2.66" stroke-width=".619"/><path d="m167.07 53.25-2.269 2.879" stroke-width=".815"/><path d="m171.16 48.508-.324-.254" stroke-width=".812"/><path d="m170.84 48.254-.363.074m.003 0-.325.508" stroke-width=".924"/><path d="m170.15 48.836-.203.512m.003 0-.16.582m0 0-.082.656" stroke-width=".925"/><path d="m169.71 50.586-.082.695" stroke-width=".924"/><path d="M169.62 51.281v.582m0 0 .082.512" stroke-width=".922"/><path d="m169.71 52.375.16.328" stroke-width=".92"/><path d="m169.87 52.703.445.363" stroke-width=".923"/><path d="m170.31 53.066.489.039" stroke-width=".928"/><path d="m170.8 53.105.285-.148" stroke-width=".933"/><path d="m171.09 52.957.242-.254" stroke-width=".937"/><path d="m171.33 52.703.281-.402m-.001 0 .246-.473" stroke-width=".942"/><path d="m171.86 51.828.161-.476" stroke-width=".944"/><path d="m172.02 51.352.164-.508m-.004 0 .078-.512m.002 0 .082-.473m-.002 0 .039-.437" stroke-width=".946"/><path d="M172.38 49.422v-.547" stroke-width=".955"/><path d="m172.38 48.875-.242-.258" stroke-width=".988"/><path d="m172.14 48.617-.567.039" stroke-width=".953"/><path d="m171.57 48.656-.363.145" stroke-width=".857"/><path d="m171.21 48.801-.445.363" stroke-width=".608"/><path d="m170.76 49.164-.324.367" stroke-width=".07"/><path d="m158.52 39.977.528-.036" stroke-width=".937"/><path d="M159.05 39.941h.445" stroke-width=".943"/><path d="M159.5 39.941h.484" stroke-width=".952"/><path d="M159.98 39.941h.528" stroke-width=".957"/><path d="M160.51 39.941h.488" stroke-width=".958"/><path d="M161 39.941h.445" stroke-width=".964"/><path d="m161.44 39.941.325-.039" stroke-width=".966"/><path d="m161.77 39.902.484-.07" stroke-width=".97"/><path d="m162.25 39.832.324-.184m-.004 0 .246-.183" stroke-width=".973"/><path d="m162.82 39.465.242-.18" stroke-width=".977"/><path d="M163.06 39.285v-.437" stroke-width=".986"/><path d="m163.06 38.848-.164-.403" stroke-width=".989"/><path d="m162.9 38.445-.242-.293" stroke-width=".995"/><path d="m162.66 38.152-.242-.254" stroke-width="1.013"/><path d="m162.41 37.898-.285-.183" stroke-width="1.02"/><path d="m162.13 37.715-.281-.11" stroke-width="1.03"/><path d="m161.85 37.605.324.036" stroke-width=".996"/><path d="m162.17 37.641.402.183m-.002 0 .285.11" stroke-width=".994"/><path d="m162.86 37.934.485.218" stroke-width=".988"/><path d="m163.34 38.152.367.293" stroke-width=".976"/><path d="m163.71 38.445.203.364" stroke-width=".974"/><path d="m163.91 38.809.078.328" stroke-width=".975"/><path d="m163.99 39.137-.039.437" stroke-width=".984"/><path d="m163.95 39.574-.121.328" stroke-width=".989"/><path d="m163.83 39.902-.242.328m.002 0-.246.403m-.004 0-.324.328" stroke-width=".99"/><path d="m163.02 40.961-.2.328" stroke-width=".989"/><path d="m162.82 41.289-.203.254" stroke-width=".937"/><path d="m162.62 41.543-.164.293" stroke-width=".768"/><path d="M162.45 41.836v.328" stroke-width=".459"/></g><g stroke="#000"><path d="m177.93 88.363.281.367" stroke-width=".96"/><path d="m178.22 88.73.242.219" stroke-width=".97"/><path d="m178.46 88.949.406.473" stroke-width=".984"/><path d="m178.86 89.422.242.258" stroke-width=".987"/><path d="m179.1 89.68.247.289"/><path d="m179.35 89.969.242.367" stroke-width="1.003"/><path d="m179.59 90.336.203.328" stroke-width="1.004"/><path d="m179.8 90.664.242.363" stroke-width="1.012"/><path d="m180.04 91.027.16.403" stroke-width="1.016"/><path d="m180.2 91.43.164.437" stroke-width="1.02"/><path d="m180.36 91.867.16.473" stroke-width="1.021"/><path d="m180.52 92.34.165.472" stroke-width="1.022"/><path d="m180.69 92.812.16.512m0 0 .121.512m-.001 0 .125.508M181.09 94.344l.078.476m.002 0 .082.473m-.002 0 .121.437" stroke-width="1.027"/><path d="m181.38 95.73.043.403m-.003 0 .039.363" stroke-width="1.03"/><path d="m181.46 96.496.039.586" stroke-width="1.044"/><path d="m181.5 97.082-.039.438" stroke-width="1.056"/><path d="m181.46 97.52-.039.472m-.001 0-.082.473" stroke-width="1.058"/><path d="m181.34 98.465-.082.367" stroke-width="1.061"/><path d="m192.27 85.848-.402-.036" stroke-width=".854"/><path d="m191.87 85.812-.488.075" stroke-width=".948"/><path d="m191.38 85.887-.445.398" stroke-width=".974"/><path d="m190.94 86.285-.204.438" stroke-width=".985"/><path d="m190.73 86.723-.203.476" stroke-width=".99"/><path d="m190.53 87.199-.16.617m0 0-.082.696"/><path d="m190.29 88.512-.039.691m-.001 0 .082.656M190.33 89.859l.121.586m-.001 0 .281.473m-.001 0 .325.328m.005 0 .324.219m-.004 0 .406.109m.004 0h.406" stroke-width="1.001"/><path d="m192.2 91.574.364-.109m-.004 0 .363-.219m-.003 0 .285-.363M193.21 90.883l.324-.477m-.004 0 .203-.508m-.003 0 .121-.546" stroke-width="1.005"/><path d="m193.86 89.352.122-.586" stroke-width="1.004"/><path d="M193.98 88.766v-.547" stroke-width="1.003"/><path d="m193.98 88.219-.039-.547m-.001 0-.043-.473m.003 0-.161-.437m-.009 0-.164-.328m.004 0-.203-.258M193.37 86.176l-.242-.18" stroke-width="1.002"/><path d="m193.12 85.996-.402-.074" stroke-width=".97"/><path d="m192.72 85.922-.407.437" stroke-width=".784"/><path d="m192.32 86.359-.164.621" stroke-width=".518"/><path d="m192.15 86.98-.078.508" stroke-width=".07"/><path d="m196.45 81.73-.285-.367" stroke-width=".802"/><path d="m196.16 81.363-.406-.035" stroke-width=".936"/><path d="m195.76 81.328-.16.293" stroke-width=".938"/><path d="m195.6 81.621-.16.617m0 0-.043.367m.003 0v.364" stroke-width=".935"/><path d="m195.4 82.969.043.511" stroke-width=".934"/><path d="m195.44 83.48.281.219m-.001 0 .324.071" stroke-width=".937"/><path d="m196.04 83.77.406-.254m.004 0 .242-.438" stroke-width=".944"/><path d="m196.69 83.078.121-.437m-.001 0 .083-.403m.007 0-.04-.437" stroke-width=".948"/><path d="m196.86 81.801-.285-.11" stroke-width=".88"/><path d="m196.57 81.691-.304.149" stroke-width=".677"/><path d="m196.27 81.84-.305.144" stroke-width=".474"/><path d="m195.96 81.984-.242.219" stroke-width=".07"/><path d="m186.28 85.812-.324-.253" stroke-width=".728"/><path d="m185.95 85.559-.445-.039" stroke-width=".869"/><path d="m185.51 85.52-.281.437" stroke-width=".874"/><path d="m185.23 85.957-.125.367" stroke-width=".883"/><path d="m185.1 86.324-.122.508m.002 0-.121.547" stroke-width=".887"/><path d="m184.86 87.379-.082.621m.002 0-.078.695m-.002 0-.043.692m.003 0v.656m0 0 .121.582" stroke-width=".89"/><path d="m184.78 90.625.125.512m-.005 0 .16.363" stroke-width=".888"/><path d="m185.06 91.5.243.258m-.003 0 .285.254" stroke-width=".885"/><path d="m185.59 92.012.285.109" stroke-width=".889"/><path d="m185.88 92.121.402-.074" stroke-width=".903"/><path d="m186.28 92.047.285-.145m-.005 0 .325-.254" stroke-width=".904"/><path d="m186.89 91.648.242-.367m-.002 0 .324-.363m-.004 0 .203-.363" stroke-width=".907"/><path d="m187.66 90.555.121-.367" stroke-width=".908"/><path d="m187.78 90.188.121-.29" stroke-width=".91"/><path d="M187.9 89.898v-.476" stroke-width=".929"/><path d="m187.9 89.422-.121-.328" stroke-width=".966"/><path d="m187.78 89.094-.445-.18" stroke-width=".99"/><path d="m187.33 88.914-.609-.109m-.001 0-.325.035" stroke-width=".993"/><path d="m186.4 88.84-.402.328" stroke-width=".924"/><path d="m186 89.168-.144.273" stroke-width=".774"/><path d="m185.85 89.441-.141.274" stroke-width=".623"/><path d="M199.85 63.711V99.18" stroke-dasharray="0.5, 3" stroke-width=".64"/><path d="M171.04 55.188h23.996" stroke-dasharray="0.5, 3" stroke-width=".861"/></g></g></svg>