<svg width="176.16" height="173.78" xml:space="preserve" xmlns="http://www.w3.org/2000/svg"><defs><clipPath id="a"><path d="M0 0h595v841H0z"/></clipPath></defs><g clip-path="url(#a)" fill="none" stroke-linecap="round" stroke-linejoin="round" stroke-miterlimit="10" transform="translate(-106.32 -45.564) scale(1.3333)"><g stroke="#000"><path d="M99.578 155.9V43.08" stroke-width=".943"/><path d="m95.719 48.105.125-.363" stroke-width=".821"/><path d="m95.844 47.742.242-.219" stroke-width=".829"/><path d="m96.086 47.523.324-.293" stroke-width=".836"/><path d="m96.41 47.23.445-.398" stroke-width=".839"/><path d="m96.855 46.832.407-.402" stroke-width=".845"/><path d="m97.262 46.43.445-.473m0 0 .402-.437" stroke-width=".848"/><path d="m98.109 45.52.286-.403m0 0 .285-.363m0 0 .199-.328" stroke-width=".851"/><path d="m98.879 44.426.164-.293" stroke-width=".854"/><path d="m99.043 44.133.242-.438" stroke-width=".864"/><path d="m99.285 43.695.164-.437" stroke-width=".869"/><path d="m99.449 43.258.121-.363" stroke-width=".873"/><path d="m99.57 42.895.121-.368" stroke-width=".875"/><path d="m99.691 42.527.243.328" stroke-width=".896"/><path d="m99.934 42.855.242.368" stroke-width=".907"/><path d="m100.18 43.223.246.328" stroke-width=".922"/><path d="m100.42 43.551.242.437" stroke-width=".945"/><path d="m100.66 43.988.121.328" stroke-width=".954"/><path d="m100.78 44.316.16.329" stroke-width=".97"/><path d="m100.94 44.645.164.398" stroke-width=".978"/><path d="m101.11 45.043.121.402" stroke-width=".982"/><path d="m101.23 45.445.165.403m.005 0 .078.437" stroke-width=".986"/><path d="m101.47 46.285.121.363m-.001 0 .082.364" stroke-width=".989"/><path d="m101.68 47.012.121.328" stroke-width=".986"/><path d="m101.8 47.34.082.328" stroke-width=".974"/><path d="m101.88 47.668.121.293" stroke-width=".932"/><path d="m102 47.961.082.367" stroke-width=".805"/><path d="m102.08 48.328.203.473" stroke-width=".558"/><path d="m102.28 48.801.16.402" stroke-width=".07"/><path d="m86.848 47.27 5.632-8.825" stroke-width="1.045"/><path d="M88.062 38.918v.328" stroke-width=".766"/><path d="M88.062 39.246v.328" stroke-width=".8"/><path d="m88.062 39.574.04.364" stroke-width=".827"/><path d="m88.102 39.938.164.402" stroke-width=".844"/><path d="m88.266 40.34.121.363" stroke-width=".855"/><path d="m88.387 40.703.16.367" stroke-width=".858"/><path d="m88.547 41.07.246.328" stroke-width=".86"/><path d="m88.793 41.398.281.547" stroke-width=".838"/><path d="m89.074 41.945.246.219" stroke-width=".754"/><path d="m89.32 42.164.242.363" stroke-width=".522"/><path d="m89.562 42.527.204.293" stroke-width=".07"/><path d="M83.91 141.66H199.2" stroke-width=".845"/><path d="m197.26 138.61-.203-.254" stroke-width=".651"/><path d="m197.06 138.36-.243-.218" stroke-width=".908"/><path d="m196.81 138.14.204.398" stroke-width=".956"/><path d="m197.02 138.54.242.219m-.002.001.246.219" stroke-width=".964"/><path d="m197.5 138.98.242.257" stroke-width=".965"/><path d="m197.75 139.23.242.289" stroke-width=".969"/><path d="m197.99 139.52.407.438m.003.002.281.293" stroke-width=".973"/><path d="m198.68 140.25.246.184" stroke-width=".978"/><path d="m198.92 140.44.199.253" stroke-width=".983"/><path d="m199.12 140.69.285.293m.005-.003.203.254" stroke-width=".986"/><path d="m199.61 141.24-.164.364m-.006-.004-.121.293" stroke-width="1.052"/><path d="m199.32 141.9-.242.328" stroke-width="1.055"/><path d="m199.08 142.22-.242.328m.002.002-.203.367m.003.003-.203.289" stroke-width="1.057"/><path d="m198.43 143.21-.161.293m.001-.003-.203.293" stroke-width="1.059"/><path d="m198.07 143.79-.203.289m.003.001-.242.328m-.008.002-.164.258M197.46 144.67l-.203.289" stroke-width="1.058"/><path d="m197.26 144.96-.324.477" stroke-width="1.047"/><path d="m196.93 145.43-.325.437" stroke-width=".962"/><path d="m196.61 145.87-.16.328" stroke-width=".384"/><path d="m202.28 151.23.246-.402" stroke-width="1.013"/><path d="m202.53 150.83.325-.254" stroke-width="1.021"/><path d="m202.85 150.57.445-.402" stroke-width="1.027"/><path d="m203.3 150.17.484-.473m-.004.003.567-.582m.003.002.527-.621" stroke-width="1.03"/><path d="m204.88 148.5.57-.621m-.01.001.524-.582m.006-.008.445-.586" stroke-width="1.031"/><path d="m206.41 146.71.367-.473" stroke-width="1.022"/><path d="m206.78 146.23.324-.363" stroke-width="1.014"/><path d="m207.1 145.87.325-.402" stroke-width=".958"/><path d="m203.98 146.12-.039.363" stroke-width=".882"/><path d="m203.94 146.49.16.293" stroke-width=".917"/><path d="m204.1 146.78.243.328" stroke-width=".939"/><path d="m204.35 147.11.285.329" stroke-width=".952"/><path d="m204.63 147.44.363.363" stroke-width=".96"/><path d="m205 147.8.367.402" stroke-width=".972"/><path d="m205.36 148.2.364.402m.006-.002.367.403" stroke-width=".974"/><path d="m206.09 149.01.363.398m.007.002.242.328" stroke-width=".976"/><path d="m206.7 149.73.324.328" stroke-width=".975"/><path d="m207.02 150.06.243.258" stroke-width=".957"/><path d="m207.27 150.32.203.254" stroke-width=".896"/><path d="m207.47 150.57.242.184" stroke-width=".791"/><path d="m207.71 150.76.324.219" stroke-width=".07"/></g><g stroke="#0f0"><path d="M99.27 141.59h13.945" stroke-width=".994"/><path d="m111.16 138.76.367.293" stroke-width=".873"/><path d="m111.52 139.05.446.293m.004-.003.484.254" stroke-width=".886"/><path d="m112.45 139.6.488.254" stroke-width=".89"/><path d="m112.94 139.85.243.183m-.003.007.242.254" stroke-width=".893"/><path d="m113.43 140.29.242.293m-.002-.003.246.328m-.006.002.242.363" stroke-width=".898"/><path d="m114.16 141.27.203.368m-.003.002.161.254" stroke-width=".899"/><path d="m114.52 141.9.203.328" stroke-width=".905"/><path d="m114.72 142.22-.364.257" stroke-width="1.029"/><path d="m114.36 142.48-.488.145" stroke-width="1.045"/><path d="m113.87 142.62-.324.184" stroke-width="1.052"/><path d="m113.55 142.81-.606.363m-.004-.003-.242.219" stroke-width="1.061"/><path d="m112.7 143.39-.285.183m-.005-.003-.242.219" stroke-width="1.066"/><path d="m112.17 143.79-.285.254" stroke-width="1.064"/><path d="m111.89 144.05-.242.473" stroke-width=".848"/><path d="m111.64 144.52-.165.476" stroke-width=".189"/><path d="M99.621 127.9v13.348" stroke-width="1.027"/><path d="m96.855 130.59.083-.328" stroke-width=".94"/><path d="m96.938 130.26.16-.254" stroke-width=".95"/><path d="m97.098 130.01.164-.293" stroke-width=".961"/><path d="m97.262 129.72.16-.254m0-.006.242-.328" stroke-width=".964"/><path d="m97.664 129.13.285-.512m0 .002.242-.219m0-.001.243-.472" stroke-width=".967"/><path d="m98.434 127.93.203-.293" stroke-width=".97"/><path d="m98.637 127.64.242-.289" stroke-width=".969"/><path d="m98.879 127.35.324-.332" stroke-width=".966"/><path d="m99.203 127.02.285-.18" stroke-width=".965"/><path d="m99.488 126.84.324.18" stroke-width=".969"/><path d="m99.812 127.02.286.218" stroke-width=".971"/><path d="m100.1 127.23.445.368" stroke-width=".984"/><path d="m100.54 127.6.242.253" stroke-width=".987"/><path d="m100.78 127.86.285.219m.005-.009.242.219" stroke-width=".989"/><path d="m101.31 128.29.364.437" stroke-width=".995"/><path d="m101.68 128.73.367.258" stroke-width="1.003"/><path d="m102.04 128.99.242.219" stroke-width="1.013"/><path d="m102.28 129.21.203.254" stroke-width="1.011"/><path d="m102.49 129.46.121.437" stroke-width=".409"/><path d="m114.8 156.48-.325-.289" stroke-width=".978"/><path d="m114.48 156.19-.363-.257" stroke-width="1.011"/><path d="m114.12 155.93-.285-.184" stroke-width="1.019"/><path d="m113.83 155.75-.324-.219" stroke-width="1.032"/><path d="m113.51 155.53-.324-.289" stroke-width="1.04"/><path d="m113.18 155.24-.407-.293" stroke-width="1.046"/><path d="m112.78 154.95-.281-.328m.001-.002-.324-.363" stroke-width="1.052"/><path d="m112.17 154.26-.246-.367m.006-.003-.199-.399m-.001-.001-.247-.367" stroke-width="1.056"/><path d="m111.48 153.12-.121-.363m.001.003-.121-.364" stroke-width="1.058"/><path d="m111.24 152.4-.082-.328m.002-.002-.078-.293m-.002.003v-.472" stroke-width="1.056"/><path d="m111.08 151.3.078-.403" stroke-width="1.037"/><path d="m111.16 150.9.367-.402" stroke-width="1.025"/><path d="m111.52 150.5.282-.145" stroke-width="1.013"/><path d="m111.8 150.36.367-.144" stroke-width=".999"/><path d="m112.17 150.21.324-.109" stroke-width=".983"/><path d="m112.5 150.1.324-.04" stroke-width=".97"/><path d="m112.82 150.06.325-.035" stroke-width=".954"/><path d="m113.14 150.03.445.184" stroke-width=".932"/><path d="m113.59 150.21.281.547m-.001.003.082.363m-.002-.003.039.438" stroke-width=".929"/><path d="M113.99 151.56v.402" stroke-width=".933"/><path d="m113.99 151.96-.039.398" stroke-width=".934"/><path d="m113.95 152.36-.16.368" stroke-width=".942"/><path d="m113.79 152.73-.164.289" stroke-width=".961"/><path d="m113.63 153.02-.242.183" stroke-width=".977"/><path d="m113.39 153.2-.407.254"/><path d="m112.98 153.45-.324.109" stroke-width="1.003"/><path d="m112.66 153.56-.324-.218" stroke-width=".453"/><path d="m116.38 159.65.203-.398" stroke-width="1.031"/><path d="m116.59 159.25.324-.293" stroke-width="1.032"/><path d="m116.91 158.96.445-.438m.005-.002.528-.546" stroke-width="1.036"/><path d="m117.88 157.98.566-.582" stroke-width="1.03"/><path d="m118.45 157.4.528-.622" stroke-width="1.027"/><path d="m118.98 156.77.488-.621" stroke-width="1.006"/><path d="m119.46 156.15.363-.547" stroke-width=".968"/><path d="m119.83 155.6.285-.511" stroke-width=".898"/><path d="m120.11 155.09.16-.438" stroke-width=".771"/><path d="m120.27 154.66.082-.363" stroke-width=".595"/><path d="M120.36 154.29v-.402" stroke-width=".3"/><path d="M120.36 153.89v-.329" stroke-width=".07"/><path d="m117.44 154.44-.04.402" stroke-width=".73"/><path d="m117.4 154.84.122.402" stroke-width=".788"/><path d="m117.52 155.24.16.547" stroke-width=".83"/><path d="m117.68 155.79.285.656" stroke-width=".853"/><path d="m117.96 156.44.363.692" stroke-width=".872"/><path d="m118.33 157.14.367.73m.003 0 .403.692" stroke-width=".885"/><path d="m119.1 158.56.367.586m-.007-.006.281.507m.009.003.285.368" stroke-width=".892"/><path d="m120.03 160.02.364.363" stroke-width=".755"/><path d="M112.21 146.86h.566" stroke-width=".943"/><path d="M112.78 146.86h.489" stroke-width=".947"/><path d="M113.27 146.86h.527m-.007 0h.648m.002 0h.606" stroke-width=".95"/><path d="M115.05 146.86h.648m.002 0h.567" stroke-width=".952"/><path d="M116.26 146.86h.527m.003 0 .406-.039" stroke-width=".95"/><path d="m117.2 146.82.485-.035" stroke-width=".954"/><path d="m117.68 146.78.082-.293" stroke-width="1.003"/><path d="m117.76 146.49-.324-.109" stroke-width="1.014"/><path d="m117.44 146.38-.407-.109" stroke-width="1.027"/><path d="m117.03 146.27-.402-.11" stroke-width="1.047"/><path d="m116.63 146.16-.367-.07" stroke-width="1.058"/><path d="m116.26 146.09.445-.039" stroke-width="1.021"/><path d="m116.71 146.05.449.074" stroke-width="1.016"/><path d="m117.16 146.12.324.109" stroke-width="1.006"/><path d="m117.48 146.23.282.254" stroke-width="1.004"/><path d="m117.76 146.49.082.367" stroke-width="1.013"/><path d="m117.84 146.86-.164.547m.004-.007-.121.289m.001.001-.243.368M117.32 148.06l-.242.363" stroke-width="1.031"/><path d="m117.07 148.42-.242.402" stroke-width="1.002"/><path d="m116.83 148.82-.203.473" stroke-width=".845"/><path d="m116.63 149.3-.102.312" stroke-width=".622"/><path d="m116.53 149.61-.101.309" stroke-width=".399"/><path d="m116.43 149.92-.164.473" stroke-width=".07"/><path d="m89.684 132.78-.446-.109" stroke-width="1.023"/><path d="m89.238 132.67-.488-.328" stroke-width="1.042"/><path d="m88.75 132.34-.402-.219" stroke-width="1.049"/><path d="m88.348 132.12-.368-.289" stroke-width="1.052"/><path d="m87.98 131.83-.406-.293" stroke-width="1.058"/><path d="m87.574 131.54-.402-.363" stroke-width="1.063"/><path d="m87.172 131.18-.324-.328m0-.002-.325-.328" stroke-width="1.065"/><path d="m86.523 130.52-.242-.258m0-.002-.164-.254" stroke-width="1.066"/><path d="m86.117 130.01-.16-.328" stroke-width="1.063"/><path d="m85.957 129.68.121-.438" stroke-width="1.054"/><path d="m86.078 129.24.203-.328" stroke-width="1.046"/><path d="m86.281 128.91.281-.363" stroke-width="1.039"/><path d="m86.562 128.55.325-.403m0 .003.324-.328" stroke-width="1.03"/><path d="m87.211 127.82.285-.293" stroke-width="1.021"/><path d="m87.496 127.53.281-.218" stroke-width="1.006"/><path d="m87.777 127.31.285-.219" stroke-width=".975"/><path d="m88.062 127.09.364.144m0-.004.203.551" stroke-width=".949"/><path d="m88.629 127.78.121.363m0 .007.082.403m0-.003.082.363" stroke-width=".948"/><path d="m88.914 128.91.039.512" stroke-width=".951"/><path d="m88.953 129.43-.16.254" stroke-width=".96"/><path d="m88.793 129.68-.367.183" stroke-width=".962"/><path d="m88.426 129.86-.446.071" stroke-width=".96"/><path d="m87.98 129.93-.324.074" stroke-width=".787"/><path d="m91.223 137.19-.039-.328" stroke-width=".969"/><path d="m91.184 136.86.16-.293m0 .003.242-.437m0-.003.285-.473m0 .003.363-.512" stroke-width=".971"/><path d="m92.234 135.15.368-.582" stroke-width=".972"/><path d="m92.602 134.57.324-.546" stroke-width=".97"/><path d="m92.926 134.02.281-.586" stroke-width=".964"/><path d="m93.207 133.43.246-.547" stroke-width=".945"/><path d="m93.453 132.89.199-.508" stroke-width=".904"/><path d="m93.652 132.38.164-.402" stroke-width=".821"/><path d="m93.816 131.98.122-.329" stroke-width=".719"/><path d="m93.938 131.65.082-.293" stroke-width=".555"/><path d="m94.02 131.36.078-.289" stroke-width=".373"/><path d="m91.707 131.14.449 2.59" stroke-width=".788"/><path d="M85.832 122.57h.367" stroke-width=".64"/><path d="M86.199 122.57h.363" stroke-width=".657"/><path d="m86.562 122.57.489-.039" stroke-width=".671"/><path d="M87.051 122.53h.523" stroke-width=".678"/><path d="m87.574 122.53.571-.035" stroke-width=".681"/><path d="m88.145 122.5.605-.074m0-.006.57-.07M89.32 122.35l.524-.075m0 .005.488-.074m0-.006.363-.07" stroke-width=".685"/><path d="m90.695 122.13.325-.074m0 .004.445-.036" stroke-width=".687"/><path d="M91.465 122.02h.367" stroke-width=".688"/><path d="m91.832 122.02.281-.109" stroke-width=".754"/><path d="m92.113 121.91-.281-.293" stroke-width=".786"/><path d="m91.832 121.62-.406-.293" stroke-width=".827"/><path d="m91.426 121.33-.406-.219" stroke-width=".863"/><path d="m91.02 121.11-.364-.144" stroke-width=".9"/><path d="m90.656 120.96-.445-.11" stroke-width=".932"/><path d="m90.211 120.86.324.036" stroke-width=".887"/><path d="m90.535 120.89.527.218" stroke-width=".884"/><path d="m91.062 121.11.446.293m0-.003.324.364" stroke-width=".87"/><path d="m91.832 121.77.121.437" stroke-width=".874"/><path d="m91.953 122.2-.043.512" stroke-width=".896"/><path d="m91.91 122.72-.281.582" stroke-width=".913"/><path d="m91.629 123.3-.242.258m0 .002-.246.254" stroke-width=".921"/><path d="m91.141 123.81-.243.218" stroke-width=".918"/><path d="m90.898 124.03-.363.403" stroke-width=".706"/><path d="m90.535 124.43-.164.289" stroke-width=".07"/></g><g stroke="#00c0ff"><path d="m100.87 141.6 54.981-69.719" stroke-width=".596"/><path d="m155.32 70.867.27-.234" stroke-width=".816"/><path d="m155.59 70.633.019-.332" stroke-width=".791"/><path d="m155.61 70.301.262-.344" stroke-width=".751"/><path d="m155.87 69.957.313-.238" stroke-width=".725"/><path d="m156.18 69.719.39-.207" stroke-width=".663"/><path d="m156.57 69.512.114.465m.006 0-.012.476" stroke-width=".66"/><path d="m156.68 70.453-.055.442" stroke-width=".661"/><path d="m156.62 70.895-.223.308" stroke-width=".75"/><path d="m156.4 71.203-.41-.047" stroke-width=".819"/><path d="m155.99 71.156-.254-.168" stroke-width=".836"/><path d="m155.73 70.988-.179-.281" stroke-width=".838"/><path d="m155.56 70.707-.067-.398" stroke-width=".819"/><path d="m155.49 70.309.102-.336" stroke-width=".775"/><path d="m155.59 69.973.344-.313" stroke-width=".728"/><path d="m155.93 69.66.355-.203" stroke-width=".676"/><path d="m156.29 69.457.402-.062" stroke-width=".597"/><path d="m156.69 69.395.254.203" stroke-width=".559"/><path d="m156.94 69.598.063.359" stroke-width=".563"/><path d="m157.01 69.957-.016.367" stroke-width=".574"/><path d="m156.99 70.324-.219.379" stroke-width=".652"/><path d="m156.77 70.703-.324.059" stroke-width=".737"/><path d="m156.45 70.762-.41-.121" stroke-width=".811"/><path d="m156.04 70.641-.07-.434" stroke-width=".733"/><path d="m155.97 70.207.277-.129" stroke-width=".696"/><path d="m156.25 70.078.359-.094" stroke-width=".628"/><path d="m156.6 69.984.106.36m.004 0-.016.402" stroke-width=".613"/><path d="m156.7 70.746-.343.348" stroke-width=".694"/><path d="m156.35 71.094-.411-.047" stroke-width=".751"/><path d="m155.94 71.047.012-.473" stroke-width=".708"/><path d="m155.95 70.574.145-.265" stroke-width=".689"/><path d="m156.1 70.309.32-.059" stroke-width=".614"/><path d="m156.42 70.25.07.434m0 0-.019.367" stroke-width=".61"/><path d="m156.47 71.051-.356.133" stroke-width=".681"/><path d="m156.11 71.184-.363.023" stroke-width=".707"/><path d="m155.75 71.207.301-.348" stroke-width=".449"/><path d="m156.05 70.859.316-.168" stroke-width=".368"/><path d="m156.37 70.691.18.321" stroke-width=".336"/><path d="m156.55 71.012-.305.273" stroke-width=".07"/><path d="m128.5 97.734.039-.328m.001 0 .082-.328" stroke-width=".83"/><path d="m128.62 97.078.082-.437" stroke-width=".838"/><path d="m128.7 96.641.078-.438" stroke-width=".846"/><path d="m128.78 96.203.082-.508" stroke-width=".854"/><path d="m128.86 95.695.043-.476" stroke-width=".863"/><path d="m128.91 95.219.039-.473" stroke-width=".87"/><path d="m128.94 94.746.039-.437" stroke-width=".887"/><path d="M128.98 94.309v-.582" stroke-width=".899"/><path d="m128.98 93.727-.039-.329" stroke-width=".907"/><path d="m128.94 93.398.243-.257" stroke-width=".897"/><path d="m129.19 93.141.324.039" stroke-width=".902"/><path d="M129.51 93.18h.406" stroke-width=".906"/><path d="m129.92 93.18.445-.039" stroke-width=".915"/><path d="m130.36 93.141.325-.18" stroke-width=".92"/><path d="m130.69 92.961.285-.149" stroke-width=".921"/><path d="m130.97 92.812.324-.218" stroke-width=".882"/><path d="m131.3 92.594.402-.18" stroke-width=".449"/><path d="m107.47 133.8.449.179" stroke-width=".845"/><path d="m107.92 133.98.324.293" stroke-width=".85"/><path d="m108.24 134.27.242.219" stroke-width=".856"/><path d="m108.48 134.49.243.403" stroke-width=".865"/><path d="m108.73 134.9.242.437" stroke-width=".869"/><path d="m108.97 135.33.242.473" stroke-width=".874"/><path d="m109.21 135.8.164.476" stroke-width=".884"/><path d="m109.38 136.28.121.438" stroke-width=".898"/><path d="m109.5 136.72.039.472" stroke-width=".902"/><path d="M109.54 137.19v.473" stroke-width=".912"/><path d="m109.54 137.66.043.438" stroke-width=".914"/><path d="m109.58 138.1.039.476m.001.004v.328" stroke-width=".915"/><path d="M109.62 138.91v.364m0-.004v.402m0-.002v.363m0 .007v.363" stroke-width=".916"/><path d="M109.62 140.4v.438" stroke-width=".918"/><path d="m113.18 131.36-.325-.179" stroke-width=".818"/><path d="m112.86 131.18-.203.328" stroke-width=".829"/><path d="m112.66 131.5-.082.617" stroke-width=".832"/><path d="m112.57 132.12-.039.328" stroke-width=".838"/><path d="m112.54 132.45-.039.438" stroke-width=".842"/><path d="M112.5 132.89v.437" stroke-width=".85"/><path d="M112.5 133.32v.403m0 .007v.402" stroke-width=".855"/><path d="m112.5 134.13.039.398m.001.002.082.293m-.002-.003.324.438" stroke-width=".861"/><path d="m112.94 135.26.364.293m-.004-.003.445.109" stroke-width=".866"/><path d="m113.75 135.66.367.074" stroke-width=".867"/><path d="m114.12 135.73.403-.074" stroke-width=".868"/><path d="m114.52 135.66.406-.363m.004.003.285-.621" stroke-width=".871"/><path d="m115.21 134.68.16-.328" stroke-width=".872"/><path d="m115.37 134.35.121-.403m-.001-.007.082-.437m-.002.007.082-.403M115.66 133.1l.078-.398" stroke-width=".873"/><path d="m115.73 132.71.043-.367m.007-.003.082-.582" stroke-width=".876"/><path d="m115.86 131.76.039-.403m.001.003v-.363m0-.007-.082-.293" stroke-width=".875"/><path d="m115.82 130.7-.363-.179" stroke-width=".867"/><path d="m115.45 130.52-.687-.075" stroke-width=".844"/><path d="M114.77 130.44h-.368" stroke-width=".818"/><path d="m114.4 130.44-.324.035" stroke-width=".76"/><path d="m114.07 130.48-.445.258" stroke-width=".543"/><path d="m113.63 130.74-.203.438" stroke-width=".07"/><path d="m113.18 133.04.324-.109" stroke-width=".842"/><path d="m113.51 132.93.445-.184" stroke-width=".876"/><path d="m113.95 132.74.488-.109" stroke-width=".879"/><path d="m114.44 132.63.649-.11" stroke-width=".855"/><path d="m115.09 132.52.32-.035" stroke-width=".773"/><path d="M115.41 132.49h.406" stroke-width=".666"/><path d="M115.82 132.49h.489" stroke-width=".406"/><path d="M116.3 132.49h.402" stroke-width=".07"/></g><g stroke="#0f0"><path d="m157.08 69.844 8.414-10.867" stroke-width=".759"/><path d="m162.1 59.188.324-.02" stroke-width=".792"/><path d="m162.42 59.168.359-.059" stroke-width=".797"/><path d="m162.78 59.109.481-.105m-.001 0 .441-.137" stroke-width=".8"/><path d="m163.7 58.867.473-.176m.007 0 .433-.207" stroke-width=".802"/><path d="m164.61 58.484.313-.203m-.003 0 .316-.129" stroke-width=".8"/><path d="m165.24 58.152.43-.285" stroke-width=".797"/><path d="m165.67 57.867.18.281m0 0-.059.372m-.001 0-.062.292" stroke-width=".782"/><path d="m165.73 58.812-.063.297" stroke-width=".781"/><path d="m165.66 59.109-.098.371" stroke-width=".782"/><path d="m165.57 59.48-.097.375m-.003 0-.063.333M165.41 60.188l-.054.367m-.006 0-.063.332m.003 0-.008.511" stroke-width=".783"/><path d="m165.28 61.398.024.403" stroke-width=".781"/><path d="m165.3 61.801.074.508" stroke-width=".65"/><path d="m173.73 57.582-.402.059" stroke-width=".887"/><path d="m173.33 57.641-.414-.082" stroke-width=".921"/><path d="m172.91 57.559-.289-.129" stroke-width=".931"/><path d="m172.62 57.43-.297-.2" stroke-width=".939"/><path d="m172.33 57.23-.301-.238" stroke-width=".942"/><path d="m172.03 56.992-.304-.308m-.006 0-.305-.348" stroke-width=".951"/><path d="m171.42 56.336-.305-.344" stroke-width=".952"/><path d="m171.11 55.992-.308-.383m-.002 0-.188-.39m.008 0-.226-.387" stroke-width=".958"/><path d="m170.39 54.832-.145-.359" stroke-width=".959"/><path d="m170.25 54.473-.101-.285" stroke-width=".962"/><path d="m170.14 54.188-.11-.469" stroke-width=".958"/><path d="m170.04 53.719.098-.407" stroke-width=".952"/><path d="m170.13 53.312.344-.351" stroke-width=".94"/><path d="m170.48 52.961.23-.195" stroke-width=".931"/><path d="m170.71 52.766.277-.129" stroke-width=".918"/><path d="m170.98 52.637.559-.145" stroke-width=".899"/><path d="m171.54 52.492.441-.062" stroke-width=".873"/><path d="m171.98 52.43.289.09" stroke-width=".85"/><path d="m172.27 52.52.223.316m.007 0 .113.504" stroke-width=".845"/><path d="m172.61 53.34-.05.476m0 0-.18.379" stroke-width=".844"/><path d="m172.38 54.195-.266.27" stroke-width=".842"/><path d="m172.11 54.465-.351.207" stroke-width=".781"/><path d="m171.76 54.672-.274.199" stroke-width=".597"/><path d="m176.32 61.363-.304.313" stroke-width=".921"/><path d="m176.02 61.676-.028-.438m-.002 0 .063-.332m-.003 0 .129-.519" stroke-width=".983"/><path d="m176.18 60.387.129-.52" stroke-width=".982"/><path d="m176.31 59.867.164-.597" stroke-width=".98"/><path d="m176.47 59.27.168-.559" stroke-width=".978"/><path d="m176.64 58.711.093-.481m-.003 0 .094-.406" stroke-width=".971"/><path d="m176.83 57.824.055-.441" stroke-width=".962"/><path d="m176.88 57.383.23-.199m0 0 .457.117" stroke-width=".912"/><path d="m177.57 57.301.328.054" stroke-width=".91"/><path d="m177.9 57.355.618.145m.002 0 .488.043" stroke-width=".914"/><path d="m179 57.543.445-.031" stroke-width=".879"/><path d="m179.45 57.512.399-.098" stroke-width=".637"/><path d="m179.85 57.414.273-.199" stroke-width=".293"/><path d="m180.12 57.215.231-.195" stroke-width=".07"/><path d="m169.72 47.969.324-.02" stroke-width=".628"/><path d="m170.04 47.949.324-.023" stroke-width=".655"/><path d="m170.36 47.926.407.012" stroke-width=".669"/><path d="m170.77 47.938.523-.032" stroke-width=".681"/><path d="m171.29 47.906.527-.035" stroke-width=".685"/><path d="m171.82 47.871.563-.07" stroke-width=".69"/><path d="m172.38 47.801.484-.067m.006 0 .438-.136" stroke-width=".695"/><path d="m173.3 47.598.355-.133m.005 0 .395-.207" stroke-width=".701"/><path d="m174.06 47.258.23-.235" stroke-width=".749"/><path d="m174.28 47.023-.066-.398" stroke-width=".758"/><path d="m174.22 46.625-.258-.238" stroke-width=".774"/><path d="m173.96 46.387-.293-.129" stroke-width=".79"/><path d="m173.67 46.258-.289-.09" stroke-width=".805"/><path d="m173.38 46.168-.293-.129" stroke-width=".826"/><path d="m173.09 46.039.328.09m-.008 0 .496.113m.004 0 .457.192" stroke-width=".825"/><path d="m174.37 46.434.34.199" stroke-width=".827"/><path d="m174.71 46.633.309.379" stroke-width=".828"/><path d="m175.02 47.012.062.363" stroke-width=".841"/><path d="m175.08 47.375-.215.453m-.005 0-.144.301" stroke-width=".849"/><path d="m174.72 48.129-.184.305" stroke-width=".847"/><path d="m174.54 48.434-.219.378" stroke-width=".828"/><path d="m174.32 48.812-.136.411" stroke-width=".718"/><path d="m174.18 49.223-.254.488" stroke-width=".295"/><path d="m173.93 49.711-.223.383" stroke-width=".07"/><path d="m155.82 69.812-8.578-7.937" stroke-width=".979"/><path d="m146.58 66.191-.102-.32" stroke-width=".871"/><path d="m146.48 65.871-.019-.328" stroke-width=".877"/><path d="m146.46 65.543-.035-.582m.005 0-.024-.328m-.006 0-.027-.438" stroke-width=".88"/><path d="m146.38 64.195-.027-.472m-.003 0-.032-.473m.002 0 .012-.438" stroke-width=".883"/><path d="m146.33 62.812-.027-.437" stroke-width=".886"/><path d="m146.3 62.375.004-.586" stroke-width=".892"/><path d="m146.3 61.789-.024-.363" stroke-width=".897"/><path d="m146.28 61.426-.019-.364" stroke-width=".909"/><path d="m146.26 61.062-.024-.328" stroke-width=".897"/><path d="m146.24 60.734.367.012" stroke-width=".882"/><path d="m146.6 60.746.583.184m.007 0 .328.09m.002 0 .414.121" stroke-width=".881"/><path d="m147.93 61.141.293.125" stroke-width=".878"/><path d="m148.22 61.266.328.054m.002 0 .418.192" stroke-width=".88"/><path d="m148.97 61.512.375.16m-.005 0 .289.09" stroke-width=".881"/><path d="m149.63 61.762.289.093" stroke-width=".885"/><path d="m149.92 61.855.414.083" stroke-width=".89"/><path d="m150.34 61.938.367.05" stroke-width=".895"/><path d="m150.7 61.988.324.016" stroke-width=".893"/><path d="m151.03 62.004.325-.02" stroke-width=".527"/><path d="m141.54 56.316-.332-.125" stroke-width=".806"/><path d="m141.2 56.191-.539-.187" stroke-width=".894"/><path d="m140.66 56.004-.293-.125" stroke-width=".924"/><path d="m140.37 55.879-.336-.199" stroke-width=".949"/><path d="m140.04 55.68-.34-.235" stroke-width=".969"/><path d="m139.7 55.445-.379-.23" stroke-width=".983"/><path d="m139.32 55.215-.343-.309" stroke-width=".999"/><path d="m138.97 54.906-.301-.273" stroke-width="1.005"/><path d="m138.67 54.633-.352-.379" stroke-width="1.01"/><path d="m138.32 54.254-.265-.352" stroke-width="1.013"/><path d="m138.06 53.902-.184-.351" stroke-width="1.016"/><path d="m137.87 53.551-.226-.352m-.004 0-.141-.32m.001 0-.102-.32M137.4 52.559l-.058-.329m-.002 0-.063-.324" stroke-width="1.018"/><path d="m137.28 51.906-.019-.328m-.001 0 .14-.336" stroke-width="1.013"/><path d="m137.4 51.242.141-.34" stroke-width="1.007"/><path d="m137.54 50.902.223-.304" stroke-width=".998"/><path d="m137.77 50.598.308-.274" stroke-width=".982"/><path d="m138.07 50.324.309-.277" stroke-width=".963"/><path d="m138.38 50.047.351-.203" stroke-width=".949"/><path d="m138.73 49.844.356-.133" stroke-width=".934"/><path d="m139.09 49.711.359-.133" stroke-width=".913"/><path d="m139.45 49.578.567-.035" stroke-width=".874"/><path d="m140.02 49.543.336.199" stroke-width=".864"/><path d="m140.35 49.742.152.5" stroke-width=".867"/><path d="m140.5 50.242.004.656" stroke-width=".87"/><path d="m140.51 50.898-.102.375" stroke-width=".873"/><path d="m140.41 51.273-.136.372" stroke-width=".876"/><path d="m140.27 51.645-.219.378" stroke-width=".88"/><path d="m140.05 52.023-.227.274" stroke-width=".887"/><path d="m139.82 52.297-.269.269" stroke-width=".891"/><path d="m139.56 52.566-.231.2" stroke-width=".899"/><path d="m139.32 52.766-.426.32" stroke-width=".897"/><path d="m138.9 53.086-.316.164" stroke-width=".772"/><path d="m144.12 54.18-.316.129" stroke-width=".755"/><path d="m143.8 54.309-.133.484" stroke-width=".772"/><path d="m143.67 54.793-.055.406" stroke-width=".788"/><path d="m143.62 55.199-.055.406" stroke-width=".795"/><path d="m143.56 55.605-.007.512" stroke-width=".801"/><path d="m143.56 56.117.031.508" stroke-width=".809"/><path d="m143.59 56.625.031.473" stroke-width=".815"/><path d="m143.62 57.098.149.429m.001 0 .14.321" stroke-width=".821"/><path d="m143.91 57.848.348.343" stroke-width=".823"/><path d="m144.25 58.191.445.008" stroke-width=".833"/><path d="m144.7 58.199.469-.32m.001 0 .223-.309m-.003 0 .218-.379" stroke-width=".842"/><path d="m145.61 57.191.223-.379m-.003 0 .172-.449" stroke-width=".841"/><path d="m146 56.363.098-.406" stroke-width=".834"/><path d="m146.1 55.957.097-.41" stroke-width=".829"/><path d="m146.2 55.547-.027-.399" stroke-width=".823"/><path d="m146.17 55.148-.024-.363" stroke-width=".821"/><path d="m146.15 54.785-.113-.543" stroke-width=".82"/><path d="m146.04 54.242-.344-.269" stroke-width=".855"/><path d="m145.69 53.973-.453-.118" stroke-width=".879"/><path d="m145.24 53.855-.406-.011" stroke-width=".883"/><path d="m144.83 53.844-.398.097" stroke-width=".788"/><path d="m144.43 53.941-.305.348" stroke-width=".421"/><path d="m143.4 56.164.484-.031" stroke-width=".761"/><path d="m143.88 56.133.363-.024" stroke-width=".773"/><path d="m144.24 56.109.406-.027m.004 0 .364-.02" stroke-width=".776"/><path d="m145.01 56.062.32-.058" stroke-width=".756"/><path d="m145.33 56.004.316-.129" stroke-width=".533"/><path d="m145.65 55.875.317-.129" stroke-width=".31"/><path d="m145.96 55.746.234-.199" stroke-width=".07"/><path d="m135.92 45.781.402-.027" stroke-width=".84"/><path d="m136.32 45.754.406-.024" stroke-width=".859"/><path d="m136.73 45.73.485-.031" stroke-width=".875"/><path d="m137.22 45.699.484-.066" stroke-width=".881"/><path d="m137.7 45.633.446-.028" stroke-width=".889"/><path d="m138.14 45.605.437-.101m.003 0 .324-.055" stroke-width=".891"/><path d="m138.91 45.449.317-.094m-.007 0 .394-.171" stroke-width=".894"/><path d="m139.62 45.184.36-.133" stroke-width=".896"/><path d="m139.98 45.051.273-.164" stroke-width=".902"/><path d="m140.25 44.887.062-.297m-.002 0-.023-.363" stroke-width=".913"/><path d="m140.29 44.227-.101-.36" stroke-width=".919"/><path d="m140.19 43.867-.262-.273" stroke-width=".928"/><path d="m139.93 43.594-.301-.239" stroke-width=".942"/><path d="m139.62 43.355-.293-.128" stroke-width=".945"/><path d="m139.33 43.227.59.293" stroke-width=".935"/><path d="m139.92 43.52.457.191" stroke-width=".925"/><path d="m140.38 43.711.379.195" stroke-width=".912"/><path d="m140.76 43.906.336.199" stroke-width=".905"/><path d="m141.09 44.105.422.266" stroke-width=".903"/><path d="m141.52 44.371.222.313" stroke-width=".939"/><path d="m141.74 44.684-.179.339" stroke-width=".959"/><path d="m141.56 45.023-.227.27m-.003 0-.305.352m.005 0-.343.347" stroke-width=".964"/><path d="m140.68 45.992-.258.383" stroke-width=".947"/><path d="m140.43 46.375-.219.414" stroke-width=".848"/><path d="m140.21 46.789-.133.484" stroke-width=".552"/><path d="m140.07 47.273-.094.411" stroke-width=".07"/></g></g></svg>