<svg width="371.16" height="354.83" xmlns="http://www.w3.org/2000/svg"><path d="M64.715 158.24h241.73a15 15 0 0 1 15 15v4.903a15 15 0 0 1-15 15H64.715a15 15 0 0 1-15-15v-4.903a15 15 0 0 1 15-15z" fill="#3d405b"/><g fill="#fff" stroke-width=".579" aria-label="Esquema Físico"><path d="M113.405 181.78h-9.234v-16.523h9.234v1.828h-7.151v5.16h6.734v1.806h-6.734v5.9h7.15zM124.835 178.36q0 1.805-1.342 2.73t-3.61.926q-1.296 0-2.245-.208-.926-.208-1.643-.578v-1.852q.74.37 1.782.695 1.064.3 2.152.3 1.55 0 2.244-.486.695-.509.695-1.342 0-.463-.255-.833t-.925-.74q-.648-.37-1.875-.834-1.203-.462-2.06-.925-.856-.463-1.319-1.111-.463-.648-.463-1.666 0-1.574 1.273-2.43 1.296-.856 3.379-.856 1.134 0 2.106.231.995.208 1.851.602l-.694 1.62q-.787-.324-1.643-.556-.856-.231-1.759-.231-1.25 0-1.92.416-.649.394-.649 1.088 0 .51.301.88.301.347.995.694.718.324 1.898.787 1.18.44 2.013.902.833.463 1.273 1.134.44.648.44 1.643zM136.105 182.04q0-.417.023-.972t.093-.949h-.14q-.532.787-1.48 1.342-.926.556-2.407.556-2.245 0-3.657-1.597-1.388-1.62-1.388-4.813 0-3.194 1.412-4.814 1.434-1.643 3.702-1.643 1.458 0 2.384.555t1.481 1.366h.093l.3-1.69h1.62v17.958h-2.036zm-3.518-1.712q1.921 0 2.708-1.042.81-1.064.833-3.24v-.416q0-2.36-.787-3.564-.787-1.227-2.8-1.227-1.666 0-2.476 1.32-.81 1.295-.81 3.494t.81 3.448q.833 1.227 2.522 1.227zM152.445 169.38v12.404h-1.666l-.301-1.643h-.093q-.602.972-1.666 1.435-1.065.44-2.268.44-2.245 0-3.379-1.065-1.134-1.088-1.134-3.448v-8.123h2.06v7.984q0 2.962 2.754 2.962 2.06 0 2.846-1.157.81-1.157.81-3.332v-6.457zM161.165 169.15q1.597 0 2.73.694 1.158.695 1.76 1.967.624 1.25.624 2.94v1.226h-8.493q.046 2.106 1.065 3.216 1.041 1.088 2.892 1.088 1.18 0 2.083-.208.926-.232 1.898-.648v1.782q-.95.416-1.875.601-.925.209-2.198.209-1.76 0-3.124-.718-1.343-.717-2.106-2.129-.74-1.434-.74-3.494 0-2.037.67-3.494.695-1.458 1.921-2.245 1.25-.787 2.893-.787zm-.023 1.666q-1.458 0-2.314.949-.834.926-.996 2.592h6.318q-.023-1.574-.74-2.546-.718-.995-2.268-.995zM183.035 169.15q2.106 0 3.147 1.088 1.042 1.064 1.042 3.471v8.076h-2.014v-7.983q0-2.94-2.522-2.94-1.805 0-2.592 1.042-.764 1.041-.764 3.032v6.85h-2.013v-7.984q0-2.94-2.546-2.94-1.874 0-2.592 1.158-.717 1.157-.717 3.332v6.433h-2.036v-12.404h1.643l.3 1.69h.116q.579-.972 1.55-1.435.996-.486 2.107-.486 2.915 0 3.795 2.083h.115q.625-1.065 1.69-1.574 1.087-.509 2.29-.509zM195.765 169.17q2.268 0 3.355.995 1.088.995 1.088 3.17v8.447h-1.481l-.393-1.759h-.093q-.81 1.019-1.713 1.505-.879.486-2.453.486-1.689 0-2.8-.88-1.11-.902-1.11-2.8 0-1.851 1.457-2.846 1.458-1.019 4.49-1.111l2.106-.07v-.74q0-1.55-.671-2.152-.671-.602-1.898-.602-.972 0-1.851.3-.88.279-1.643.649l-.625-1.528q.81-.44 1.92-.74 1.111-.324 2.315-.324zm.601 6.619q-2.314.092-3.216.74-.88.648-.88 1.828 0 1.042.625 1.528.648.486 1.643.486 1.574 0 2.615-.857 1.042-.879 1.042-2.684v-1.11zM212.425 181.78h-2.083v-16.523h9.233v1.828h-7.15v5.855h6.71v1.828h-6.71zM224.115 181.78h-2.037v-12.404h2.037zm2.406-17.495q-.277.417-.856 1.088-.578.648-1.25 1.319-.647.648-1.203 1.064h-1.342v-.277q.347-.44.74-1.042.417-.601.81-1.226.394-.648.649-1.157h2.453zM236.125 178.36q0 1.805-1.342 2.73t-3.61.926q-1.296 0-2.245-.208-.926-.208-1.643-.578v-1.852q.74.37 1.782.695 1.064.3 2.152.3 1.55 0 2.245-.486.694-.509.694-1.342 0-.463-.255-.833t-.925-.74q-.648-.37-1.875-.834-1.203-.462-2.06-.925-.856-.463-1.319-1.111-.463-.648-.463-1.666 0-1.574 1.273-2.43 1.296-.856 3.379-.856 1.134 0 2.106.231.995.208 1.851.602l-.694 1.62q-.787-.324-1.643-.556t-1.759-.231q-1.25 0-1.92.416-.649.394-.649 1.088 0 .51.301.88.301.347.995.694.718.324 1.898.787 1.18.44 2.013.902.833.463 1.273 1.134.44.648.44 1.643zM240.175 164.73q.463 0 .81.324.37.3.37.972 0 .648-.37.972-.347.324-.81.324-.51 0-.856-.324-.348-.324-.348-.972 0-.671.348-.972.347-.324.856-.324zm.995 4.652v12.404h-2.037v-12.404zM250.075 182.01q-1.643 0-2.94-.671-1.272-.671-2.013-2.083-.717-1.412-.717-3.61 0-2.291.764-3.726.763-1.435 2.06-2.106 1.318-.67 2.985-.67.948 0 1.828.207.88.186 1.435.463l-.625 1.69q-.556-.209-1.296-.394-.74-.185-1.389-.185-3.656 0-3.656 4.698 0 2.245.88 3.448.902 1.18 2.66 1.18 1.019 0 1.783-.208.786-.208 1.434-.51v1.806q-.624.324-1.388.486-.74.185-1.805.185zM266.995 175.56q0 3.078-1.574 4.767-1.55 1.69-4.212 1.69-1.643 0-2.939-.74-1.272-.765-2.013-2.2-.74-1.457-.74-3.517 0-3.078 1.55-4.744t4.212-1.666q1.69 0 2.962.764 1.296.74 2.013 2.175.74 1.411.74 3.471zm-9.373 0q0 2.199.857 3.494.879 1.273 2.777 1.273 1.874 0 2.754-1.273.879-1.295.879-3.494 0-2.199-.88-3.448-.879-1.25-2.776-1.25-1.898 0-2.754 1.25-.857 1.25-.857 3.448z"/></g><path d="M23.218 81.621h324.73a15 15 0 0 1 15 15v4.904a15 15 0 0 1-15 15H23.218a15 15 0 0 1-15-15V96.62a15 15 0 0 1 15-15z" fill="#f2cc8f"/><g stroke-width=".579" aria-label="Esquema Conceptual / Lógico"><path d="M35.97 105.161h-9.234V88.638h9.234v1.829h-7.151v5.16h6.734v1.805h-6.734v5.901h7.15zM47.402 101.731q0 1.805-1.343 2.731-1.342.926-3.61.926-1.296 0-2.244-.209-.926-.208-1.643-.578v-1.851q.74.37 1.781.694 1.065.3 2.153.3 1.55 0 2.244-.485.695-.51.695-1.342 0-.463-.255-.834-.255-.37-.926-.74-.648-.37-1.874-.833-1.204-.463-2.06-.926-.856-.463-1.319-1.11t-.463-1.667q0-1.573 1.273-2.43 1.296-.856 3.379-.856 1.134 0 2.106.231.995.209 1.851.602l-.694 1.62q-.787-.324-1.643-.555-.857-.232-1.76-.232-1.249 0-1.92.417-.648.393-.648 1.087 0 .51.3.88.302.347.996.694.717.324 1.898.787 1.18.44 2.013.902.833.463 1.273 1.134.44.648.44 1.643zM58.672 105.411q0-.416.023-.972t.092-.948h-.139q-.532.786-1.48 1.342-.926.555-2.407.555-2.245 0-3.657-1.597-1.388-1.62-1.388-4.813 0-3.194 1.411-4.814 1.435-1.643 3.703-1.643 1.458 0 2.384.556.925.555 1.48 1.365h.093l.301-1.69h1.62v17.959h-2.036zm-3.518-1.712q1.92 0 2.708-1.042.81-1.064.833-3.24v-.416q0-2.36-.787-3.564-.787-1.226-2.8-1.226-1.666 0-2.476 1.319-.81 1.296-.81 3.494t.81 3.448q.833 1.227 2.522 1.227zM75.009 92.761v12.404h-1.667l-.3-1.643h-.093q-.602.972-1.666 1.435-1.065.44-2.268.44-2.245 0-3.379-1.065-1.134-1.087-1.134-3.448v-8.123h2.06v7.984q0 2.962 2.754 2.962 2.06 0 2.846-1.157.81-1.157.81-3.332v-6.457zM83.729 92.521q1.596 0 2.73.695 1.157.694 1.76 1.967.624 1.25.624 2.939v1.226H80.35q.046 2.106 1.064 3.217 1.042 1.088 2.893 1.088 1.18 0 2.083-.209.926-.231 1.898-.648v1.782q-.95.417-1.875.602-.926.208-2.198.208-1.76 0-3.125-.717-1.342-.718-2.105-2.13-.741-1.434-.741-3.494 0-2.036.671-3.494.694-1.458 1.92-2.245 1.25-.787 2.894-.787zm-.024 1.667q-1.458 0-2.314.948-.833.926-.995 2.592h6.318q-.023-1.573-.74-2.545-.718-.995-2.269-.995zM105.599 92.521q2.106 0 3.147 1.088 1.041 1.065 1.041 3.471v8.077h-2.013v-7.984q0-2.94-2.522-2.94-1.805 0-2.592 1.042-.764 1.042-.764 3.032v6.85h-2.013v-7.984q0-2.94-2.546-2.94-1.874 0-2.592 1.158-.717 1.157-.717 3.332v6.434H91.99V92.753h1.643l.301 1.69h.116q.579-.973 1.55-1.436.996-.486 2.106-.486 2.916 0 3.796 2.083h.115q.625-1.064 1.69-1.573 1.087-.51 2.29-.51zM118.329 92.551q2.268 0 3.355.995t1.088 3.17v8.448h-1.481l-.394-1.76h-.092q-.81 1.019-1.713 1.505-.88.486-2.453.486-1.69 0-2.8-.88-1.11-.902-1.11-2.8 0-1.85 1.457-2.846 1.458-1.018 4.49-1.11l2.106-.07v-.74q0-1.551-.672-2.153-.67-.602-1.897-.602-.972 0-1.851.301-.88.278-1.644.648l-.624-1.527q.81-.44 1.92-.74 1.111-.325 2.315-.325zm.601 6.619q-2.314.092-3.216.74-.88.648-.88 1.829 0 1.041.625 1.527.648.486 1.643.486 1.574 0 2.615-.856 1.042-.88 1.042-2.685v-1.11zM139.989 90.231q-2.662 0-4.189 1.782-1.527 1.782-1.527 4.883 0 3.078 1.411 4.883 1.435 1.782 4.281 1.782 1.088 0 2.06-.185t1.898-.463v1.805q-.926.347-1.921.51-.972.161-2.338.161-2.522 0-4.211-1.041-1.69-1.042-2.546-2.962-.833-1.921-.833-4.513 0-2.5.903-4.397.925-1.92 2.707-2.985 1.782-1.088 4.328-1.088 2.615 0 4.559.972l-.834 1.759q-.763-.347-1.712-.625-.926-.278-2.037-.278zM158.039 98.931q0 3.078-1.574 4.768-1.55 1.689-4.212 1.689-1.643 0-2.939-.74-1.273-.764-2.013-2.2-.74-1.457-.74-3.517 0-3.077 1.55-4.744 1.55-1.666 4.212-1.666 1.689 0 2.962.764 1.296.74 2.013 2.175.74 1.412.74 3.471zm-9.373 0q0 2.199.856 3.495.88 1.273 2.777 1.273 1.875 0 2.754-1.273.88-1.296.88-3.495 0-2.198-.88-3.448t-2.777-1.25-2.754 1.25-.856 3.448zM167.229 92.521q2.221 0 3.355 1.088 1.134 1.065 1.134 3.471v8.077h-2.013v-7.938q0-2.985-2.777-2.985-2.06 0-2.847 1.157-.786 1.157-.786 3.332v6.434h-2.037V92.753h1.643l.301 1.69h.116q.601-.973 1.666-1.436 1.064-.486 2.245-.486zM180.539 105.391q-1.643 0-2.94-.67-1.272-.672-2.013-2.084-.717-1.411-.717-3.61 0-2.29.764-3.725.763-1.435 2.06-2.106 1.318-.671 2.984-.671.95 0 1.829.208.88.185 1.434.463l-.624 1.69q-.556-.21-1.296-.394-.74-.185-1.389-.185-3.656 0-3.656 4.697 0 2.245.88 3.448.902 1.18 2.66 1.18 1.019 0 1.782-.208.787-.208 1.435-.509v1.805q-.625.324-1.388.486-.74.185-1.805.185zM191.459 92.521q1.596 0 2.73.695 1.157.694 1.76 1.967.624 1.25.624 2.939v1.226h-8.493q.046 2.106 1.064 3.217 1.042 1.088 2.893 1.088 1.18 0 2.083-.209.926-.231 1.898-.648v1.782q-.95.417-1.875.602-.926.208-2.198.208-1.76 0-3.125-.717-1.342-.718-2.105-2.13-.741-1.434-.741-3.494 0-2.036.671-3.494.694-1.458 1.92-2.245 1.25-.787 2.894-.787zm-.024 1.667q-1.457 0-2.314.948-.833.926-.995 2.592h6.318q-.023-1.573-.74-2.545-.718-.995-2.269-.995zM205.619 92.521q2.29 0 3.68 1.597 1.41 1.597 1.41 4.814 0 3.17-1.41 4.813-1.39 1.643-3.704 1.643-1.434 0-2.383-.532-.926-.555-1.458-1.273h-.139q.046.394.093.995t.046 1.042v5.09h-2.037V92.754h1.667l.277 1.69h.093q.555-.81 1.458-1.366.902-.555 2.407-.555zm-.37 1.713q-1.898 0-2.685 1.064-.764 1.065-.81 3.24v.394q0 2.29.74 3.54.764 1.227 2.8 1.227 1.135 0 1.852-.625.74-.625 1.088-1.69.37-1.087.37-2.476 0-2.129-.833-3.401-.81-1.273-2.523-1.273zM218.099 103.721q.462 0 .948-.069.486-.093.787-.185v1.55q-.324.162-.925.255-.602.116-1.158.116-.971 0-1.805-.324-.81-.347-1.319-1.18-.509-.834-.509-2.338v-7.22h-1.759v-.972l1.782-.81.81-2.638h1.204v2.846h3.587v1.574h-3.587v7.174q0 1.134.532 1.69.555.531 1.411.531zM232.669 92.761v12.404h-1.667l-.3-1.643h-.093q-.602.972-1.666 1.435-1.065.44-2.268.44-2.245 0-3.379-1.065-1.134-1.087-1.134-3.448v-8.123h2.06v7.984q0 2.962 2.754 2.962 2.06 0 2.846-1.157.81-1.157.81-3.332v-6.457zM241.309 92.551q2.267 0 3.355.995t1.088 3.17v8.448h-1.481l-.394-1.76h-.092q-.81 1.019-1.713 1.505-.88.486-2.453.486-1.69 0-2.8-.88-1.11-.902-1.11-2.8 0-1.85 1.457-2.846 1.458-1.018 4.49-1.11l2.106-.07v-.74q0-1.551-.672-2.153-.67-.602-1.897-.602-.972 0-1.851.301-.88.278-1.644.648l-.624-1.527q.81-.44 1.92-.74 1.111-.325 2.315-.325zm.601 6.619q-2.314.092-3.216.74-.88.648-.88 1.829 0 1.041.625 1.527.648.486 1.643.486 1.574 0 2.615-.856 1.042-.88 1.042-2.685v-1.11zM251.629 105.161h-2.037V87.573h2.037zM267.989 88.641l-6.156 16.523h-1.99l6.155-16.523zM276.479 105.161V88.638h2.082v14.672h7.22v1.852zM299.109 98.931q0 3.078-1.574 4.768-1.55 1.689-4.212 1.689-1.643 0-2.939-.74-1.273-.764-2.013-2.2-.74-1.457-.74-3.517 0-3.077 1.55-4.744 1.55-1.666 4.212-1.666 1.689 0 2.962.764 1.296.74 2.013 2.175.74 1.412.74 3.471zm-9.373 0q0 2.199.856 3.495.88 1.273 2.777 1.273 1.875 0 2.754-1.273.88-1.296.88-3.495 0-2.198-.88-3.448t-2.777-1.25-2.754 1.25-.856 3.448zm7.058-11.27q-.277.417-.856 1.088-.578.648-1.25 1.32-.647.647-1.203 1.064h-1.342v-.278q.347-.44.74-1.041.417-.602.81-1.227.394-.648.648-1.157h2.453zM306.729 92.521q1.226 0 2.198.463.995.463 1.69 1.412h.115l.278-1.643h1.62v12.612q0 2.661-1.366 4.003-1.342 1.342-4.188 1.342-2.731 0-4.467-.786v-1.875q1.829.972 4.582.972 1.597 0 2.5-.949.925-.925.925-2.545v-.486q0-.278.023-.787.024-.532.047-.74h-.093q-1.25 1.874-3.841 1.874-2.407 0-3.772-1.69-1.343-1.689-1.343-4.72 0-2.962 1.343-4.698 1.365-1.759 3.749-1.759zm.277 1.713q-1.55 0-2.406 1.25-.857 1.226-.857 3.517t.833 3.518q.857 1.203 2.477 1.203 1.874 0 2.73-.995.857-1.018.857-3.263v-.486q0-2.546-.88-3.633-.88-1.111-2.754-1.111zM317.599 88.101q.462 0 .81.324.37.301.37.972 0 .648-.37.972-.348.324-.81.324-.51 0-.857-.324t-.347-.972q0-.67.347-.972.347-.324.857-.324zm.995 4.652v12.404h-2.037V92.753zM327.509 105.391q-1.644 0-2.94-.67-1.272-.672-2.013-2.084-.717-1.411-.717-3.61 0-2.29.764-3.725.763-1.435 2.06-2.106 1.318-.671 2.984-.671.95 0 1.829.208.88.185 1.434.463l-.624 1.69q-.556-.21-1.296-.394-.74-.185-1.389-.185-3.656 0-3.656 4.697 0 2.245.88 3.448.902 1.18 2.66 1.18 1.019 0 1.782-.208.787-.208 1.435-.509v1.805q-.625.324-1.388.486-.74.185-1.805.185zM344.429 98.931q0 3.078-1.574 4.768-1.55 1.689-4.212 1.689-1.643 0-2.939-.74-1.273-.764-2.013-2.2-.74-1.457-.74-3.517 0-3.077 1.55-4.744 1.55-1.666 4.212-1.666 1.689 0 2.962.764 1.296.74 2.013 2.175.74 1.412.74 3.471zm-9.373 0q0 2.199.856 3.495.88 1.273 2.777 1.273 1.875 0 2.754-1.273.88-1.296.88-3.495 0-2.198-.88-3.448t-2.777-1.25-2.754 1.25-.856 3.448z"/></g><path d="M20.001 4.998h74.177a15 15 0 0 1 15 15V24.9a15 15 0 0 1-15 15H20.001a15 15 0 0 1-15-15v-4.903a15 15 0 0 1 15-15z" fill="#81b29a"/><g stroke-width=".579" aria-label="View 1"><path d="M38.541 14.338 32.64 30.86h-2.083l-5.901-16.523h2.175l3.726 10.599q.37 1.018.625 1.92.254.88.416 1.69.162-.81.417-1.713.255-.902.625-1.944l3.703-10.553zM41.551 13.808q.463 0 .81.324.37.3.37.972 0 .648-.37.972-.347.324-.81.324-.51 0-.856-.324-.347-.324-.347-.972 0-.671.347-.972.347-.324.856-.324zm.995 4.651v12.404H40.51V18.46zM51.271 18.228q1.597 0 2.73.694 1.158.694 1.76 1.967.624 1.25.624 2.939v1.226h-8.493q.047 2.106 1.065 3.217 1.041 1.088 2.893 1.088 1.18 0 2.082-.208.926-.232 1.898-.648v1.782q-.949.416-1.875.601-.925.208-2.198.208-1.759 0-3.124-.717-1.342-.717-2.106-2.129-.74-1.435-.74-3.494 0-2.037.67-3.495.695-1.458 1.921-2.245 1.25-.786 2.893-.786zm-.023 1.666q-1.458 0-2.314.949-.833.925-.995 2.592h6.317q-.023-1.574-.74-2.546-.718-.995-2.268-.995zM67.071 23.858q-.3-.95-.532-1.852l-.324-1.434h-.093q-.092.509-.3 1.434-.209.903-.533 1.875l-2.222 6.966h-2.314l-3.402-12.404h2.106l1.713 6.618q.254.995.486 2.013.231 1.019.324 1.69h.092q.093-.394.209-.972.139-.579.3-1.204.163-.648.325-1.157l2.198-6.989h2.222l2.129 6.99q.254.786.486 1.712.254.925.347 1.597h.092q.07-.579.301-1.597.255-1.018.532-2.083l1.736-6.619h2.083l-3.448 12.404H69.2zM89.521 30.868h-1.99V19.32q0-.995.023-1.597t.07-1.25q-.371.37-.672.625l-.763.648-1.76 1.435-1.064-1.366 4.467-3.47h1.689z"/></g><path d="M148.49 4.998h74.177a15 15 0 0 1 15 15V24.9a15 15 0 0 1-15 15H148.49a15 15 0 0 1-15-15v-4.903a15 15 0 0 1 15-15z" fill="#81b29a"/><g stroke-width=".579" aria-label="View 2"><path d="m165.12 14.338-5.901 16.523h-2.083l-5.901-16.523h2.175l3.726 10.599q.37 1.018.625 1.92.254.88.416 1.69.162-.81.417-1.713.255-.902.625-1.944l3.703-10.553zM168.13 13.808q.463 0 .81.324.37.3.37.972 0 .648-.37.972-.347.324-.81.324-.51 0-.856-.324-.347-.324-.347-.972 0-.671.347-.972.347-.324.856-.324zm.995 4.651v12.404h-2.036V18.46zM177.85 18.228q1.597 0 2.73.694 1.158.694 1.76 1.967.624 1.25.624 2.939v1.226h-8.493q.047 2.106 1.065 3.217 1.041 1.088 2.893 1.088 1.18 0 2.082-.208.926-.232 1.898-.648v1.782q-.949.416-1.875.601-.925.208-2.198.208-1.759 0-3.124-.717-1.342-.717-2.106-2.129-.74-1.435-.74-3.494 0-2.037.67-3.495.695-1.458 1.921-2.245 1.25-.786 2.893-.786zm-.023 1.666q-1.458 0-2.314.949-.833.925-.995 2.592h6.317q-.023-1.574-.74-2.546-.718-.995-2.268-.995zM193.65 23.858q-.3-.95-.532-1.852l-.324-1.434h-.093q-.092.509-.3 1.434-.209.903-.533 1.875l-2.222 6.966h-2.314l-3.402-12.404h2.106l1.713 6.618q.254.995.486 2.013.231 1.019.324 1.69h.092q.093-.394.209-.972.139-.579.3-1.204.163-.648.325-1.157l2.198-6.989h2.222l2.129 6.99q.254.786.486 1.712.254.925.347 1.597h.092q.07-.579.301-1.597.255-1.018.532-2.083l1.736-6.619h2.083l-3.448 12.404h-2.384zM219.92 30.868h-10.923v-1.69l4.327-4.373q1.25-1.25 2.106-2.222.857-.972 1.296-1.898.44-.948.44-2.06 0-1.365-.81-2.059-.81-.717-2.106-.717-1.203 0-2.129.416-.902.417-1.851 1.157l-1.088-1.365q.972-.81 2.222-1.365 1.273-.579 2.846-.579 2.314 0 3.657 1.18 1.342 1.157 1.342 3.217 0 1.296-.533 2.43-.532 1.134-1.48 2.245-.95 1.087-2.222 2.337l-3.448 3.402v.092h8.354z"/></g><path d="M276.98 4.998h74.177a15 15 0 0 1 15 15V24.9a15 15 0 0 1-15 15H276.98a15 15 0 0 1-15-15v-4.903a15 15 0 0 1 15-15z" fill="#81b29a"/><g stroke-width=".579" aria-label="View 3"><path d="m293.67 14.338-5.901 16.523h-2.083l-5.901-16.523h2.175l3.726 10.599q.37 1.018.625 1.92.254.88.416 1.69.162-.81.417-1.713.255-.902.625-1.944l3.703-10.553zM296.68 13.808q.463 0 .81.324.37.3.37.972 0 .648-.37.972-.347.324-.81.324-.51 0-.856-.324-.347-.324-.347-.972 0-.671.347-.972.347-.324.856-.324zm.995 4.651v12.404h-2.036V18.46zM306.4 18.228q1.597 0 2.73.694 1.158.694 1.76 1.967.624 1.25.624 2.939v1.226h-8.493q.047 2.106 1.065 3.217 1.041 1.088 2.893 1.088 1.18 0 2.082-.208.926-.232 1.898-.648v1.782q-.949.416-1.875.601-.925.208-2.198.208-1.759 0-3.124-.717-1.342-.717-2.106-2.129-.74-1.435-.74-3.494 0-2.037.67-3.495.695-1.458 1.921-2.245 1.25-.786 2.893-.786zm-.023 1.666q-1.458 0-2.314.949-.833.925-.995 2.592h6.317q-.023-1.574-.74-2.546-.718-.995-2.268-.995zM322.2 23.858q-.3-.95-.532-1.852l-.324-1.434h-.093q-.092.509-.3 1.434-.209.903-.533 1.875l-2.222 6.966h-2.314l-3.402-12.404h2.106l1.713 6.618q.254.995.486 2.013.231 1.019.324 1.69h.092q.093-.394.209-.972.139-.579.3-1.204.163-.648.325-1.157l2.198-6.989h2.222l2.129 6.99q.254.786.486 1.712.254.925.347 1.597h.092q.07-.579.301-1.597.255-1.018.532-2.083l1.736-6.619h2.083l-3.448 12.404h-2.384zM347.84 18.208q0 1.666-.926 2.661-.925.972-2.499 1.296v.093q1.99.23 2.962 1.25.972 1.017.972 2.66 0 1.435-.671 2.57-.671 1.11-2.083 1.735-1.388.625-3.587.625-1.296 0-2.407-.209-1.11-.185-2.129-.694v-1.898q1.042.51 2.245.81 1.204.278 2.314.278 2.222 0 3.194-.856.995-.88.995-2.407 0-1.55-1.226-2.221-1.204-.695-3.402-.695h-1.597v-1.735h1.62q2.036 0 3.078-.857 1.064-.856 1.064-2.267 0-1.204-.81-1.852-.81-.67-2.198-.67-1.342 0-2.291.393t-1.875.995l-1.018-1.389q.88-.694 2.175-1.203 1.32-.51 2.986-.51 2.592 0 3.841 1.158 1.273 1.157 1.273 2.939z"/></g><g fill="none" stroke="#e07a5f"><path d="m86.351 39.908 69.96 41.718M185.576 39.908v41.718M284.8 39.908l-69.96 41.718M185.576 116.528v41.718"/></g><path d="M185.58 244.04c-25.979 0-47.02 10.521-47.02 23.51s21.042 23.51 47.02 23.51 47.02-10.521 47.02-23.51-21.042-23.51-47.02-23.51m-47.02 35.265v17.633c0 12.989 21.042 23.51 47.02 23.51s47.02-10.521 47.02-23.51v-17.633c0 12.989-21.042 23.51-47.02 23.51s-47.02-10.521-47.02-23.51m0 29.388v17.633c0 12.989 21.042 23.51 47.02 23.51s47.02-10.521 47.02-23.51v-17.633c0 12.989-21.042 23.51-47.02 23.51s-47.02-10.521-47.02-23.51z" fill="#e07a5f"/><path d="m185.79 194.47-.217 49.527" fill="none" stroke="#e07a5f" stroke-width=".923"/></svg>