<?xml version="1.0" encoding="UTF-8"?>
<svg width="154.15pt" height="83.186pt" version="1.2" viewBox="0 0 154.15 83.186" xmlns="http://www.w3.org/2000/svg" xmlns:xlink="http://www.w3.org/1999/xlink">
 <path d="m28.966 82.84c0.17187-0.1452 4.8688-1.8786 10.438-3.852 10.776-3.8188 12.843-4.884 9.4759-4.884-3.1968 0-27.565-3.6369-30.101-4.4925-2.2441-0.75717-2.2432-0.75811 0.375-0.35901 5.7346 0.87414 18.808 2.5292 26.627 3.3708 9.3591 1.0074 10.671 0.78793 20.623-3.4507 18.139-7.7256 20.25-8.48 20.25-7.2354 0 0.32076-3.1219 1.7167-6.9375 3.102-3.8156 1.3853-7.6125 2.9219-8.4375 3.4145s-4.1237 1.8449-7.3305 3.005c-3.2068 1.1601-5.738 2.196-5.625 2.302 0.11301 0.10598 9.1492 0.95718 20.08 1.8915 18.072 1.5448 24.048 2.4033 23.129 3.3227-0.30888 0.30887-13.492-0.88842-28.754-2.6114-3.7125-0.41913-9.9562-0.78899-13.875-0.82192-6.7628-0.0569-7.6572 0.13385-17.594 3.7512-8.9378 3.2537-13.573 4.5857-12.343 3.5471zm32.75-16.023c-2.2683-0.34362-2.9097-2.7272-0.9375-3.484 1.5241-0.58485 3.375 0.20441 3.375 1.4392 0 0.55412 0.59062 1.3515 1.3125 1.772 1.2001 0.69898 1.184 0.75679-0.1875 0.6749-0.825-0.0493-2.4281-0.23017-3.5625-0.40201zm0.9375-2.1503c0-1.3244-1.6146-1.0938-2.0781 0.29687-0.16329 0.48985 0.23749 0.89063 0.89062 0.89063 0.65312 0 1.1875-0.53438 1.1875-1.1875zm51.75-14.893c0-2.7173 3.5327-12.055 6.8679-18.153l2.9305-5.3581-2.8456 0.98037c-1.5651 0.5392-6.2166 1.5418-10.337 2.2281s-9.3474 1.7046-11.616 2.2629c-9.7126 2.3904-20.359 3.5256-29.145 3.1078-8.9104-0.42373-13.411-0.86311-16.424-1.6035-0.93169-0.22894-2.6298 0.0677-3.7736 0.65917-2.3738 1.2276-7.8848 6.9874-10.657 11.139-1.0312 1.5441-2.1568 2.8097-2.5012 2.8125-1.5838 0.013 7.7271-11.785 10.946-13.87 1.9106-1.2375 3.4922-2.475 3.5146-2.75 0.0224-0.27499-0.71865-0.78147-1.6468-1.1255-4.6246-1.7142-11.222-6.3166-15.948-11.126-4.9772-5.0644-10.114-13.021-10.114-15.666 0-1.5286-0.21512-1.5148-3.5924 0.2306-3.4158 1.7654-8.5465 7.0305-10.292 10.562-1.0209 2.0653-7.8497 12.711-9.1008 14.188-0.14563 0.17187-0.4373 0.13998-0.64815-0.0709-0.21086-0.21085 1.2521-2.8827 3.251-5.9375 1.9989-3.0548 4.592-7.3341 5.7624-9.5097 3.0407-5.6522 8.2206-10.23 13.434-11.874 3.1354-0.98836 4.6234-1.1394 5.5478-0.56328 2.0605 1.2844 7.7052 8.5524 7.2342 9.3146-0.65029 1.0522-1.846 0.84734-1.846-0.31627 0-1.651-5.999-7.9806-7.5637-7.9806-1.9855 0-1.8228 1.9064 0.54467 6.381 3.3662 6.3623 10.222 13.411 16.999 17.478 7.0559 4.2344 9.2276 5.0662 10.494 4.0193 0.49583-0.41001 1.8296-0.5673 2.964-0.34953 1.8724 0.35944 2.4132 1.0336 2.1458 2.675-0.14081 0.86446 2.8816 1.8403 7.4655 2.4104 4.8468 0.60277 17.046-0.61395 26.951-2.6879 3.9188-0.82056 11.681-2.3397 17.25-3.3759 8.5709-1.5948 11.074-2.3956 16.305-5.2172 3.7904-2.0443 7.1485-3.3332 8.6839-3.3332 2.8774 0 8.7507 3.5683 10.916 6.6322 1.8944 2.68 7.5942 13.951 7.5942 15.017 0 2.1645-1.3683 0.26088-4.125-5.7388-3.1517-6.8594-6.7318-11.531-10.219-13.334-2.623-1.3564-7.4061-1.4336-7.4061-0.11953 0 0.52629-1.4344 1.6232-3.1875 2.4375-2.6064 1.2107-3.717 2.4376-6.0921 6.7306-3.759 6.7944-7.2204 15.626-7.2204 18.423 0 1.2112-0.3375 2.2022-0.75 2.2022s-0.75-0.82364-0.75-1.8303zm-57.669-25.019c-0.40953-0.76522-0.87382-2.3563-1.0318-3.5357-0.21828-1.6299-0.90332-2.3816-2.8555-3.1331l-2.5684-0.98873 2.7257 0.39609c2.6604 0.38659 2.7375 0.32823 3.218-2.4341 1.0542-6.061 3.0981-8.7891 4.9307-6.581 1.325 1.5965 0.62662 5.1903-1.0713 5.5127-1.3548 0.2573-1.3668 0.19462-0.1875-0.98466 1.4165-1.4165 1.501-1.8603 0.61927-3.2503-0.86446-1.3628-2.0325 0.19129-2.7042 3.598-0.28468 1.4438-0.68389 3.2156-0.88714 3.9375-0.23903 0.84892 0.0457 1.3125 0.80599 1.3125 0.64655 0 1.1755 0.3375 1.1755 0.75s-0.52899 0.75-1.1755 0.75c-0.87237 0-1.0421 0.43521-0.65821 1.6875 0.28453 0.92812 0.82991 2.0793 1.212 2.5582 0.43107 0.54036 0.41051 1.0463-0.0542 1.3335-0.41183 0.25453-1.0838-0.16331-1.4934-0.92852zm14.544-6.083c0-5.3196 0.68776-5.6253 1.5237-0.67716 0.47388 2.8049-0.054 5.8611-1.0118 5.8576-0.28158-7.5e-4 -0.51196-2.3322-0.51196-5.1805zm-8.2801 2.1337c-0.62723-1.0149 0.23844-5.7598 1.1541-6.3257 0.37998-0.23484 0.33027 0.60747-0.11048 1.8718s-0.62757 2.9634-0.41515 3.7757c0.42375 1.6204 0.14187 1.9246-0.62844 0.67822zm2.3787-0.47772c-0.96686-0.96686-0.42338-2.4472 1.2139-3.3064l1.6875-0.88552-2.9593 3.3307 1.9103-0.47945c1.2851-0.32255 2.2289-0.0955 2.884 0.69376 0.5962 0.71839 0.66448 1.1732 0.1761 1.1732-0.43866 0-1.0067-0.33842-1.2623-0.75203-0.30338-0.49087-0.93564-0.50004-1.8207-0.0264-0.74572 0.39911-1.569 0.51252-1.8295 0.25203z" stroke-width=".75"/>
</svg>
