<?xml version="1.0" encoding="UTF-8"?>
<svg width="609.01pt" height="157.91pt" version="1.2" viewBox="0 0 609.01 157.91" xmlns="http://www.w3.org/2000/svg">
 <path d="m391.51 157.33c0-0.59989 0.52468-1.5262 1.166-2.0584 2.386-1.9802 2.7412-3.6355 1.244-5.7983-0.77771-1.1235-1.6638-2.549-1.9691-3.1677-0.68142-1.381 2.3562 2.0215 3.2876 3.6825 0.57612 1.0274 1.0075 0.88096 3.1158-1.0575l2.447-2.25-2.018 2.4918c-2.2582 2.7885-1.9876 4.1225 1.372 6.7652 1.0477 0.82411 1.5901 1.6929 1.2053 1.9307-0.38476 0.23779-1.7669-0.78324-3.0714-2.269s-2.4523-2.5815-2.5507-2.4351c-1.659 2.4689-4.2286 5.0003-4.2286 4.1656zm204.75-0.97604c0-0.31716 0.75938-1.3877 1.6875-2.379 1.5064-1.6089 1.6805-2.5339 1.6222-8.6175-0.0479-5.0022 0.12297-6.3312 0.64233-4.996 0.38918 1.0006 0.72131 4.1191 0.73807 6.9301 0.0235 3.9379-0.30655 5.5623-1.438 7.0777-1.4751 1.9758-3.2522 3.0603-3.2522 1.9847zm-21.462-1.8964c-1.7514-1.9372-1.7424-7.3507 0.0184-11.152 0.66876-1.4438 1.0109-1.95 0.76036-1.125-0.25055 0.825-0.63598 3.3976-0.85651 5.717-0.34214 3.5984-0.17092 4.447 1.1672 5.7851 0.86249 0.86249 1.2881 1.7412 0.94574 1.9528-0.34232 0.21157-1.2581-0.31851-2.0351-1.178zm-11.482 0.19007c-2.6092-0.72913-2.6255-1.7791-0.0505-3.2447 1.7007-0.96788 2.2449-1.8164 2.2449-3.5 0-1.2223-0.42187-2.373-0.9375-2.5572-0.51562-0.18415-0.69252-0.59787-0.39312-0.91938 0.93268-1.0015 2.8306 1.2139 2.8306 3.3042 0 1.0952-0.50987 2.7192-1.133 3.6089-0.71719 1.0239-0.85482 1.7896-0.375 2.0861 0.87851 0.54295 1.0272 1.9158 0.19554 1.8052-0.30937-0.0411-1.3812-0.30355-2.3819-0.58318zm-27.056-1.8508c0-1.3299 2.4306-3.4912 3.9262-3.4912 0.85111 0 1.328-1.0535 1.6995-3.7546 0.28401-2.065 1.1482-4.5119 1.9204-5.4375l1.404-1.6829-2e-3 2.625c-7.5e-4 1.4438-0.48396 3.4688-1.0735 4.5-1.5121 2.6452-1.4265 4.6439 0.1875 4.3784 1.7872-0.29401 3.1925 0.69587 3.1636 2.2284-0.0219 1.1637-0.10675 1.159-1.0297-0.0573-0.56143-0.73986-1.5115-1.1315-2.1503-0.88637-0.62944 0.24154-1.3726 0.07-1.6515-0.38133-0.33006-0.53405-1.293-0.15916-2.7584 1.0739-2.5143 2.1156-3.6362 2.3889-3.6362 0.8856zm3.3977-2.5935c-0.50396-0.50394-2.6477 1.3667-2.6477 2.3104 0 0.42592 0.67707 0.16167 1.5046-0.58724 0.82753-0.7489 1.3419-1.5243 1.1431-1.7231zm4.8293-8.3977c0-1-0.0808-1-0.72703 0-0.39987 0.61874-0.72702 1.6312-0.72702 2.25 0 0.99999 0.0808 0.99999 0.72702 0 0.39987-0.61875 0.72703-1.6313 0.72703-2.25zm10.679 11.347c-0.50891-0.31452-2.1023-0.47917-3.5408-0.36588-2.1455 0.16897-2.6155-0.0512-2.6155-1.2251 0-0.78708-0.59062-1.7751-1.3125-2.1955-1.2439-0.72449-1.2426-0.76565 0.0236-0.78727 0.73483-0.0125 1.5336 0.49206 1.7751 1.1213 0.36091 0.94055 0.64536 0.97391 1.5984 0.1875 0.88065-0.72664 1.2319-0.74138 1.4609-0.0613 0.16582 0.49246 0.76005 0.7194 1.3205 0.50433 0.56132-0.2154 1.409 0.33767 1.8873 1.2314 0.98427 1.8391 0.76227 2.4306-0.59697 1.5905zm26.094-0.0541c0-0.38912 1.351-1.5131 3.0022-2.4978l3.0021-1.7903-3.0518-2.4525c-3.5695-2.8686-3.4271-3.9948 0.19188-1.5175 2.5858 1.7701 4.3557 3.6168 4.3557 4.5448 0 0.46953-6.4527 4.4208-7.2195 4.4208-0.1543 0-0.28054-0.31837-0.28054-0.7075zm-129.25-0.54251c-1.9424-1.9424 1.5537-7.75 4.6654-7.75 1.5948 0 1.798-0.44932 3.0529-6.75 0.45185-2.2688 1.1768-4.6313 1.611-5.25 0.99802-1.4222 0.24075 8.0607-0.87887 11.006-1.1369 2.9903 0.30932 3.9666 2.6368 1.78 1.7745-1.6671 1.9416-1.6892 3.7599-0.49778 1.1894 0.77936 1.9029 1.9433 1.9029 3.1045 0 2.3793 1.1284 2.372 2.694-0.0173 1.3775-2.1023 2.556-2.4482 2.556-0.75 0 1.4558 0.67797 1.4227 2.3784-0.11625 1.2799-1.1582 1.3716-1.1521 1.3716 0.0918 0 1.1072 0.19298 1.1729 1.1391 0.38773 0.93217-0.77363 1.409-0.70109 2.625 0.39941 0.81726 0.73962 1.4784 1.8831 1.4692 2.541-0.0126 0.90674-0.33463 0.78312-1.3305-0.51078-0.94106-1.2228-1.5437-1.4772-2.1241-0.89671-1.371 1.371-5.5424 1.5658-6.0351 0.28192-0.36417-0.94903-0.71719-0.86977-2.159 0.48472-1.9782 1.8584-3.3347 1.4047-3.3347-1.1153 0-0.9564-0.59062-2.1858-1.3125-2.7321-1.1166-0.84491-1.1726-0.83623-0.375 0.0582 1.2831 1.4389 1.1961 4.5013-0.1279 4.5013-0.58598 0-1.2879-1.0128-1.5598-2.2507-0.46803-2.131-0.57983-2.1908-2.1015-1.125-0.88392 0.61913-2.207 1.1257-2.9403 1.1257-0.73321 0-1.3331 0.33749-1.3331 0.75 0 2.2149-4.7928 4.7072-6.25 3.25zm5.0865-3.4227c1.5999-2.2842 1.4665-2.8273-0.69425-2.8273-2.129 0-4.5583 3.084-3.8609 4.9015 0.55483 1.4459 2.8083 0.41971 4.5551-2.0742zm41.034 2.2427c-0.47853-0.47853-0.84867-1.5619-0.82251-2.4076 0.0429-1.388 0.11742-1.3628 0.76611 0.25889 0.39521 0.98801 0.89271 1.6223 1.1055 1.4094 0.21284-0.21283-0.0217-1.2839-0.52119-2.3802s-1.1168-1.6557-1.3717-1.2432c-0.25494 0.41251-0.82457-0.20652-1.2658-1.3756l-0.80232-2.1256 3.062 0.68799c3.599 0.80863 4.416 1.3558 2.0246 1.3558-1.3342 0-1.5852 0.28557-1.1536 1.3125 1.5876 3.777 0.97082 6.4995-1.0212 4.5076zm13.435-0.94505c0.0175-0.82501 0.31098-2.85 0.65227-4.5l0.62052-3 0.0748 3.375c0.0411 1.8562-0.2524 3.8812-0.65227 4.5-0.60053 0.92925-0.72151 0.86401-0.69529-0.375zm10.82 0.40943c-0.825-0.35306-2.175-0.50188-3-0.33072-2.3873 0.4953-3.6495-0.75777-3.0738-3.0515 0.64937-2.5873 2.3725-2.0174 2.169 0.71731-0.15476 2.0788-0.15335 2.0794 1.5 0.65433 2.0729-1.7866 4.6926-1.8368 4.5541-0.0873-0.0798 1.0076 0.18469 1.1206 1.267 0.5414 0.91794-0.49128 1.5308-0.46828 1.8634 0.0699 0.27259 0.44106 0.37676 0.92078 0.23148 1.0661-0.72244 0.72244-4.1877 0.98684-5.5111 0.4205zm70.522-3.4094c0.28843-2.475 0.86194-4.8375 1.2744-5.25 0.49999-0.50001 0.57518 0.75 0.22556 3.75-0.28844 2.475-0.86195 4.8375-1.2744 5.25-0.49999 0.5-0.57518-0.75-0.22555-3.75zm-104.54 0.1875c0.0841-2.0076 0.16292-2.1135 0.44672-0.60078l0.34458 1.8367 1.4235-1.8367 1.4235-1.8367 0.48381 1.7509c0.29253 1.0586 0.68877 1.4193 1.0022 0.91211 0.6614-1.0702 3.0235-0.19824 3.0235 1.1161 0 1.2326-3.6524 0.96731-4.45-0.32326-0.41595-0.67302-0.8017-0.6074-1.5205 0.25869-1.5141 1.8244-2.2882 1.3704-2.1773-1.277zm-4.4559-0.1875c0.0153-1.2375 0.18337-1.653 0.37353-0.92323 0.19015 0.72972 0.17765 1.7422-0.0278 2.25-0.20545 0.50777-0.36103-0.0893-0.34574-1.3268zm31.354-4.875c-0.96951-0.62656-0.94971-0.72862 0.14324-0.73852 0.69753-6e-3 1.4768 0.32601 1.7318 0.73852 0.58664 0.9492-0.40622 0.9492-1.875 0zm-104.62-1.2298c-5.3625-0.49951-9.9967-0.93338-10.298-0.96418-1.038-0.10602 0.39112-7.1874 2.1682-10.743 2.4655-4.9338 2.7636-4.4576 0.57744 0.9226-2.6648 6.5582-2.4217 7.2124 1.5531 4.1784 1.8566-1.4171 6.4972-4.4139 10.312-6.6594s11.299-7.5807 16.63-11.856c5.3309-4.2752 12.587-9.9976 16.125-12.716 9.5887-7.369 9.6126-7.429 2.9617-7.4447-11.577-0.0273-22.614-4.0132-29.719-10.733-10.936-10.343-17.871-22.482-20.109-35.2-0.27303-1.5514-0.79566-3.0057-1.1614-3.2318-0.36573-0.22604-0.65424-0.81294-0.64113-1.3042 0.0147-0.55095 0.37397-0.44678 0.9375 0.27185 1.2469 1.5901 7.4486 5.7703 10.044 6.7704 8.0698 3.109 16.699 4.5928 28.917 4.9723 6.9013 0.21434 13.78 0.15849 15.287-0.12411l2.7388-0.51381-0.35952-9.3327c-0.19774-5.133-0.5872-9.5604-0.86547-9.8386s-7.8393-0.12168-16.802 0.34799c-14.28 0.74829-17.519 1.1633-26.178 3.3542-5.4349 1.3752-9.755 2.2953-9.6001 2.0448 0.34771-0.56261 4.0535-1.6941 12.357-3.773 5.7289-1.4343 10.277-1.8896 34.276-3.431l6.1512-0.39509 0.50524-3.3692c0.47992-3.2004 0.0161-9.4195-0.80124-10.742-0.20915-0.3384-2.4646 1.3742-5.0122 3.8059-2.5475 2.4316-4.7714 4.2817-4.9418 4.1112-0.38514-0.38514 9.5414-10.177 10.317-10.177 0.98106 0 12.193 7.5631 11.797 7.9583-0.20782 0.20781-2.6674-1.1576-5.4656-3.0344-2.7983-1.8767-5.1288-3.3305-5.179-3.2306-0.0502 0.0999 0.0394 3.4163 0.19901 7.3697l0.29023 7.1881 11.744 0.92464c15.449 1.2163 21.595 2.0767 29.744 4.1639 10.274 2.6315 11.625 2.8077 11.625 1.5165 0-0.60843 0.3375-1.1062 0.75-1.1062s0.75 0.47813 0.75 1.0625c0 0.58437 0.42188 1.2594 0.9375 1.5 0.75 0.34999 0.75 0.525 0 0.87499-0.51562 0.24063-0.9375 1.0813-0.9375 1.8683 0 1.6273-6.9275 15.292-8.9073 17.569-0.71711 0.825-2.972 4.3269-5.0108 7.7819-4.499 7.6242-10.818 13.598-19.596 18.525-3.4297 1.9249-6.2356 3.5434-6.2354 3.5967 2.3e-4 0.0532 17.701 0.0969 39.336 0.0969 32.445 0 39.014-0.1684 37.5-0.96145-1.0095-0.5288-1.8303-1.5413-1.824-2.25 8e-3 -0.80642 0.21765-0.97692 0.5625-0.45569 0.30306 0.45806 1.6689 1.4057 3.0352 2.1059 2.6667 1.3666 3.0218 3.5224 0.63757 3.8712-0.75805 0.11091-2.0237 0.78573-2.8125 1.4996s-1.4342 0.92806-1.4342 0.47596c0-0.45208 0.40836-1.0744 0.90746-1.3828 0.58318-0.36042 0.11416-0.77719-1.3125-1.1663-3.965-1.0814-39.122-1.5122-63.837-0.78239l-24.117 0.7122-3.6334 3.0187c-1.9984 1.6603-6.3912 5.1666-9.7618 7.7919-3.3706 2.6253-10.29 8.1546-15.377 12.287-5.0867 4.1328-12.151 9.1437-15.7 11.135-3.548 1.9915-7.9185 4.8849-9.7121 6.4296l-3.2611 2.8086 9.1422 0.73431c8.0234 0.64444 10.931 1.2252 9.8484 1.9672-0.17188 0.1178-4.7-0.19451-10.063-0.69401zm47.93-49.958c-0.1434-1.7531-0.42769-9.0938-0.63175-16.312s-0.58851-13.875-0.85433-14.792c-0.47921-1.6531-0.6024-1.6661-14.464-1.5215-13.21 0.13779-14.412 0.0297-21.82-1.9623-9.7885-2.632-13.242-3.9562-16.397-6.2878-1.3677-1.0107-2.6427-1.6817-2.8332-1.4912-0.58331 0.58332 3.4846 12.657 5.8726 17.43 4.5212 9.0368 14.607 19.73 22.246 23.586 6.7896 3.4274 11.453 4.434 20.797 4.4893l8.3454 0.0494-0.26074-3.1875zm17.796-1.0497c7.9122-4.1456 18.054-13.33 20.853-18.884 0.8998-1.7854 3.1263-5.423 4.9477-8.0835 3.7067-5.4141 8.9796-15.914 8.3222-16.571-0.23514-0.23514-1.1974 0.0627-2.1384 0.6618-1.6366 1.042-3.3449 1.603-15.211 4.995-11.048 3.1582-16.838 4.2475-30.632 5.7628l-4.3823 0.4814 0.54986 5.3748c0.30243 2.9561 0.59057 10.606 0.64031 17 0.0497 6.3938 0.38626 12.09 0.74783 12.657 1.3446 2.1115 8.7286 0.57399 16.303-3.3946zm-0.85121-35.154c5.4728-0.90396 13.169-2.8404 25.875-6.5109 1.65-0.47663 4.3445-1.5282 5.9879-2.3369l2.9879-1.4703-7.1129-1.7669c-3.9121-0.97178-8.8004-2.1272-10.863-2.5676-4.6663-0.99639-24.76-2.9336-30.562-2.9465l-4.3125-0.01v9.25c0 5.0875 0.251 9.501 0.55777 9.8078 0.66714 0.66714 8.6402 5e-3 17.442-1.4491zm8.6356 79.765c-3.3231-3.23-3.6362-3.7998-2.8125-5.1187 1.3056-2.0907 1.2078-2.2545-1.3467-2.2545-2.681 0-3.3376-1.2024-2.2372-4.0969 1.0105-2.6577-0.59279-5.4186-3.7948-6.5348-1.207-0.42074-2.1945-1.2382-2.1945-1.8166 0-1.4932-0.67155-1.307-2.2923 0.63587-1.13 1.3546-1.4127 1.4442-1.4327 0.45432-0.0137-0.67825 0.95195-2.279 2.1459-3.5571 2.1696-2.3226 2.1728-2.3233 5.3443-1.2043 1.7454 0.6158 3.806 1.1196 4.5791 1.1196s1.4057 0.3375 1.4057 0.75c0 1.0183-1.3694 0.94329-5.5058-0.30159-3.2968-0.99218-3.4942-0.97156-3.4942 0.36493 0 0.90363 0.92861 1.8045 2.5646 2.4881 3.2219 1.3462 4.4614 3.6131 3.9717 7.264-0.35583 2.653-0.23307 2.882 1.7822 3.3246 2.6795 0.58851 3.3516 1.5751 2.1002 3.0829-0.81403 0.98084-0.48088 1.6001 2.1854 4.062 1.7302 1.5976 3.1459 3.4246 3.1459 4.0599s-0.0844 1.1006-0.1875 1.0339c-0.10312-0.0666-1.8702-1.7567-3.9268-3.7557zm68.485-20.686c0.37046-0.72187 0.90558-2.8282 1.1891-4.6807 0.28357-1.8525 1.4948-4.8941 2.6916-6.7592 1.1968-1.8651 2.6632-4.5681 3.2586-6.0068l1.0826-2.6158-4.4136-3.898c-2.4275-2.1439-4.1312-4.0725-3.7861-4.2858 0.34513-0.2133 1.6073 0.64353 2.8048 1.904 1.1975 1.2605 3.1246 2.9727 4.2824 3.8048l2.1051 1.5129 3.751-3.1628c2.063-1.7396 3.8999-3.0138 4.0821-2.8317 0.18211 0.18211-1.0188 1.4159-2.6686 2.7418-1.6526 1.3281-2.9997 3.0684-2.9997 3.8753 0 0.80557-0.30542 1.4647-0.67872 1.4647-1.1658 0-7.4325 11.472-7.9891 14.625-0.6271 3.5524-1.598 5.625-2.6349 5.625-0.47088 0-0.49933-0.48845-0.0764-1.3125zm-409.03-3.2362c-1.5647-2.5318 2.2945-8.9513 5.3812-8.9513 0.72862 0 1.0238-1.0813 1.0238-3.75 0-2.0625 0.3375-3.75 0.75-3.75s0.75 1.9141 0.75 4.2534c0 2.98 0.39297 4.7022 1.3125 5.7522 1.25 1.4274 1.25 1.4759 0 1.0201-0.96761-0.35287-1.3125-0.0907-1.3125 0.99782 0 0.81206 0.3134 1.4765 0.69643 1.4765 1.049 0 3.0536-2.2176 3.0536-3.378 0-0.56149 0.71714-1.2485 1.5936-1.5267 1.7066-0.54167 2.8749 0.58744 2.8949 2.798 0.0211 2.33 1.5753 2.283 2.4652-0.0747 1.0385-2.7512 1.6944-2.9264 2.3625-0.63104l0.4912 1.6875 1.1878-1.6875c1.5325-2.1773 2.2309-2.1307 2.8128 0.1875 0.44626 1.778 2.692 2.7166 2.692 1.125 0-1.6764 2.2179-0.59403 3.3233 1.6218 1.3943 2.795 0.7585 3.9905-0.85006 1.5984-0.85691-1.2743-1.5968-1.558-3.2175-1.2338-1.7084 0.34167-2.2036 0.10942-2.6297-1.2332-0.38201-1.2036-0.74983-1.4293-1.3505-0.82864-0.45402 0.45402-1.5656 0.82549-2.4702 0.82549-0.90462 0-1.839 0.50625-2.0765 1.125-0.48061 1.2525-2.7288 1.5562-2.7288 0.36865 0-0.45152-0.597-0.38353-1.4813 0.16872-1.1178 0.69806-1.6933 0.71306-2.3452 0.0611-0.55581-0.55581-1.4648-0.63552-2.5485-0.2235-0.98514 0.37455-1.9773 0.34769-2.3897-0.0647-0.44022-0.44022-1.3705 3e-3 -2.476 1.1798-1.8461 1.9651-4.0678 2.4562-4.9144 1.0863zm5.111-3.9227c0.81194-1.5655 1.2919-3.0307 1.0667-3.256-0.85109-0.8511-3.3286 0.57986-4.1588 2.4021-2.1879 4.802 0.63953 5.5828 3.0922 0.85391zm8.5564-0.66924c-0.23942-0.5983-0.41714-0.42059-0.45312 0.45313-0.0326 0.79062 0.14469 1.2336 0.39391 0.98437s0.27586-0.8961 0.0592-1.4375zm34.756 3.2747c-1.2478-1.2478-2.2687-1.8369-2.2687-1.3093 0 1.3622-5.126 1.0855-6.0166-0.32475-0.47145-0.74656-0.7143-0.80964-0.72192-0.1875-6e-3 0.51563-0.51774 0.9375-1.1365 0.9375s-1.125-0.3099-1.125-0.68865c0-0.37877-0.21415-1.3069-0.47589-2.0625-0.43203-1.2472-0.37166-1.2399 0.65496 0.0789 1.1096 1.4254 1.1406 1.4219 1.6514-0.1875 0.6746-2.1255 1.7448-2.1011 2.0726 0.0473 0.15964 1.0464 0.67814 1.58 1.3647 1.4046 0.60895-0.15559 1.566-0.29622 2.1267-0.3125 0.75648-0.022 0.91498-0.81964 0.6144-3.0921-0.36927-2.7917-0.3102-2.9338 0.66801-1.6066 0.59021 0.80072 1.0731 2.0208 1.0731 2.7114 0 1.4332 2.7574 5.2078 3.8044 5.2078 1.2193 0 0.74868-3.112-0.86561-5.724-0.85864-1.3893-1.2805-2.5209-0.9375-2.5145 1.2369 0.0228 2.7742 1.3964 3.0677 2.741 1.0028 4.5946 0.99077 5.2642-0.11148 6.179-0.98984 0.8215-1.5199 0.62152-3.4389-1.2975zm13.669 0.82712c-1.3766-0.49361-1.1419-3.5492 0.375-4.8812 0.72188-0.6339 2.0562-1.379 2.9652-1.6558 1.4366-0.43742 1.6818-1.1109 1.875-5.1512 0.2876-6.0144 1.7223-5.4628 1.7223 0.66222 0 5.374 1.3908 7.9796 3.0749 5.7606 0.91913-1.2111 1.0044-1.1595 1.0263 0.62129 0.0167 1.3563 0.61868 2.2131 1.9958 2.8406 1.0846 0.49415 1.8064 1.064 1.604 1.2664-0.44114 0.44113-3.0546-0.65008-6.3831-2.6652l-2.4322-1.4724-1.2366 1.8872c-1.4226 2.1711-3.2345 3.2723-4.5866 2.7875zm3.2718-2.8596c0.68414-1.0441 1.0583-2.084 0.83152-2.3108-0.81406-0.81406-3.5408 1.2926-3.5408 2.7356 0 2.0355 1.2229 1.8438 2.7093-0.42479zm19.041 1.9561c0-1.4582 4.03-6.0577 5.3077-6.0577 0.38078 0 0.69231-1.1309 0.69231-2.5131 0-2.9199 1.3596-7.2369 2.2791-7.2369 1.3403 0 1.5399 1.6798 0.68755 5.7856-0.82996 3.9979-0.78632 4.3442 0.69906 5.5469 0.87136 0.70558 1.5843 1.8607 1.5843 2.567 0 0.96015-0.24286 1.0826-0.96265 0.48518-0.57995-0.48132-1.3857-0.5375-2.0267-0.14132-0.58522 0.36169-1.3365 0.48919-1.6696 0.28336-0.33305-0.20584-1.4916 0.32268-2.5744 1.1745-2.465 1.939-4.0166 1.9801-4.0166 0.10642zm4.8782-2.9614c0.22392-0.58354 0.25856-1.2096 0.077-1.3911-0.45803-0.45803-3.4552 2.6224-3.4552 3.5512 0 1.0253 2.8568-0.80141 3.3782-2.1601zm3.3718-0.84629c0-0.4125-0.3375-0.75-0.75-0.75s-0.75 0.3375-0.75 0.75 0.3375 0.75 0.75 0.75 0.75-0.3375 0.75-0.75zm-0.10542-9c0-1.7091-0.057-1.7423-0.64458-0.375-0.35451 0.825-0.64457 2.3438-0.64457 3.375 0 1.7091 0.057 1.7423 0.64457 0.375 0.35452-0.825 0.64458-2.3438 0.64458-3.375zm31.605 10.711c0-1.6988-0.22005-3.6621-0.48901-4.363-0.42577-1.1095-0.62381-1.0447-1.5313 0.50116l-1.0423 1.7755 0.45657-1.875c0.77685-3.1903 2.0098-6 2.633-6 1.0167 0 1.7694 11.254 0.81642 12.207-0.62456 0.62457-0.84342 0.0419-0.84342-2.2452zm-24.478 0.37211c-0.85753-1.3875-1.6321-5.8355-0.94189-5.4089 0.36841 0.22768 0.67499 0.98468 0.68131 1.6822 6e-3 0.69753 0.33176 1.7745 0.7232 2.3932 0.56888 0.89922 0.88234 0.63581 1.5619-1.3125 0.9728-2.7891 2.2034-3.2289 2.2034-0.7875 0 1.2833 0.20001 1.45 0.9 0.75 1.3222-1.3222 2.1-1.1 2.1 0.6 0 0.99999 0.50001 1.5 1.5 1.5 0.825 0 1.5 0.3375 1.5 0.75 0 0.95322-2.4701 0.97989-3.4132 0.0368-0.42824-0.42824-1.8381-0.45944-3.529-0.0781-1.7858 0.40277-2.9877 0.35694-3.2858-0.1253zm-68.404-5.8335c0-1.0312 0.17024-1.4531 0.37829-0.9375 0.20806 0.51563 0.20806 1.3594 0 1.875-0.20805 0.51563-0.37829 0.0937-0.37829-0.9375zm-9.9086-1.5c-0.0347-0.20625-0.18586-1.3053-0.33583-2.4423-0.14997-1.137-0.96303-2.945-1.8068-4.0177-1.2008-1.5266-1.3635-2.2692-0.74861-3.4181 0.54263-1.0139 0.54508-1.7575 8e-3 -2.4048-0.42769-0.51534-0.57617-2.1784-0.32995-3.6957 0.58434-3.6009-0.71254-5.2579-3.616-4.6202-2.6767 0.5879-2.6844-0.16947-0.0339-3.3442 1.9619-2.3501 2.2148-2.4446 3.9375-1.4717 2.577 1.4554 4.4659 3.0398 4.4659 3.746 0 0.32938-0.99071 0.0303-2.2016-0.66465-2.6184-1.5028-3.8172-0.75933-2.0048 1.2433 0.87858 0.97081 1.2301 2.4673 1.1127 4.7364-0.0944 1.8245 0.075 3.7165 0.37662 4.2044 0.30158 0.48797 0.23604 1.4452-0.14563 2.1272-0.49886 0.89141-0.194 1.9768 1.0844 3.8606 0.9781 1.4413 1.7732 2.9954 1.7669 3.4534-0.012 0.87015-1.4186 3.3617-1.5287 2.7078zm127.21-3.1875c-1.9327-6.3229-0.76003-10.544 4.1651-14.992 2.1645-1.9547 3.791-3.6563 3.6145-3.7812s-1.7553-1.146-3.5084-2.2691c-4.6657-2.9889-3.9954-6.013 2.0226-9.125 1.2594-0.65128 2.2899-1.3147 2.2899-1.4743 0-0.15959-2.3234-1.178-5.163-2.2631-8.8534-3.3831-9.5309-6.0388-2.3933-9.3818 2.0935-0.98055 3.8063-2.0122 3.8063-2.2925s-1.6875-1.5587-3.75-2.8408c-4.5305-2.8163-4.7691-4.4439-1.0954-7.4721 2.9012-2.3914 2.729-2.8742-1.643-4.6056-3.5513-1.4064-5.7889-4.1084-5.2338-6.3199 0.25365-1.0106 2.5096-3.6121 5.0132-5.781 4.7547-4.1191 4.861-5.1789 0.52153-5.203-1.1344-6e-3 -2.0625-0.39342-2.0625-0.86024 0-1.18 5.8998-0.32286 7.2804 1.0577 0.93201 0.93201 0.44735 1.5942-3.6657 5.0082-7.4447 6.1794-7.6236 8.0059-1.0679 10.905 2.2359 0.98883 4.3132 2.1989 4.6161 2.689 0.33438 0.54104-0.66983 2.0182-2.556 3.7599-1.7087 1.5778-3.1068 3.0481-3.1068 3.2674 0 0.21927 1.873 1.4557 4.1622 2.7477 2.7304 1.541 4.0829 2.7604 3.9318 3.5451-0.12669 0.65785-2.0572 2.2193-4.2901 3.4699-2.2329 1.2506-4.193 2.6776-4.3559 3.171-0.31396 0.95129 3.6031 3.1851 8.1795 4.6646 3.0654 0.99102 4.5538 2.3622 3.7671 3.4703-0.28578 0.40252-1.9751 1.6756-3.754 2.8291-3.9426 2.5563-3.8606 3.8459 0.42741 6.7258 1.7501 1.1754 3.182 2.5775 3.182 3.1158s-1.1273 1.7512-2.5051 2.6953-3.2737 2.8383-4.2132 4.2093c-1.4558 2.1246-1.6621 3.2144-1.3968 7.3801 0.17117 2.6881 0.0315 4.8874-0.31037 4.8874s-0.75054-0.42187-0.90814-0.9375zm13.834-7.1636c0-0.79177 0.84375-2.6829 1.875-4.2026 2.2116-3.259 2.2202-3.3218 0.69023-5.0124-1.4288-1.5788-0.43171-4.0578 1.934-4.8087 2.1325-0.67682 1.8892-1.4227-1.3875-4.2543-1.5886-1.3728-3.2929-3.2646-3.7874-4.2041-0.80828-1.5355-0.58573-2.0279 2.2017-4.8715 2.7331-2.7882 2.9501-3.2527 1.8296-3.9168-7.21-4.2733-8.6126-6.7453-5.1954-9.156 5.6251-3.9682 5.5432-3.5002 1.0363-5.9196-4.992-2.6798-5.5001-4.3567-2.1488-7.0919l2.4616-2.0091-2.6324-0.86876c-3.4226-1.1296-6.0842-3.5979-5.3283-4.9414 0.31693-0.56333 2.2466-2.2987 4.288-3.8563l3.7118-2.8321-3.7118-1.717c-4.2359-1.9594-3.3949-2.3476 1.148-0.52987 1.6584 0.66354 3.0152 1.6695 3.0152 2.2355 0 0.56595-1.6875 2.2888-3.75 3.8286s-3.75 3.2064-3.75 3.7034c0 0.4971 1.6875 1.6665 3.75 2.5986 4.1889 1.8931 4.6383 3.0608 1.875 4.8714-2.9074 1.905-2.3107 3.4515 2.2518 5.8355 2.2678 1.1849 4.1232 2.6125 4.1232 3.1723s-1.2882 1.675-2.8627 2.4782c-1.5745 0.80323-3.3354 2.03-3.9131 2.7261-0.92366 1.1129-0.81681 1.459 0.88516 2.8673 1.0646 0.88087 2.9942 2.1765 4.2881 2.8792 3.0894 1.6778 3.0012 3.6746-0.27249 6.1715-1.4438 1.1012-2.625 2.46-2.625 3.0195s1.6875 2.5345 3.75 4.3889 3.75 3.6329 3.75 3.9524c0 0.31945-1.0969 1.5302-2.4375 2.6906-2.265 1.9605-2.3446 2.1826-1.125 3.1373 1.743 1.3645 1.6609 2.1571-0.5625 5.4335-1.0312 1.5196-1.875 3.2022-1.875 3.739s-0.3375 1.1847-0.75 1.4396-0.75-0.18429-0.75-0.97608zm-109.5-6.8997c0-0.41293 2.0262-2.3242 4.5026-4.2474s4.3929-3.6064 4.2587-3.7405c-0.13415-0.13415-5.9572-0.78779-12.94-1.4526-12.387-1.1792-43.813-1.3166-44.934-0.19644-0.25979 0.25981-0.57527 1.4377-0.70106 2.6175-0.30207 2.8332-1.5021 2.7515-1.7838-0.12136-0.26281-2.6799 2.5674-2.7276-26.718 0.45045-20.043 2.1752-33.941 2.6549-42.435 1.4648-2.7684-0.38783 0.80823-0.57584 10.875-0.57165 10.674 5e-3 18.894-0.45761 28.5-1.602 7.425-0.8845 17.156-1.9967 21.624-2.4715l8.1238-0.86328-5.3177-1.3504c-2.9248-0.74275-6.8225-2.0161-8.6617-2.8296-4.1476-1.8347-10.069-7.2948-13.196-12.168l-2.3649-3.6854-2.6462 1.6354c-2.5652 1.5854-2.6774 1.5927-3.6675 0.23864-0.97438-1.3326-1.1334-1.2904-3.4572 0.91604-4.3201 4.1018-5.6044 3.9809-9.0807-0.85504-1.002-1.3939-1.1352-1.4014-3.0142-0.17021-2.2443 1.4705-2.6529 0.60772-0.59437-1.2552 2.0009-1.8108 2.915-1.5495 4.809 1.3745 0.93191 1.4386 2.2926 2.6199 3.0236 2.625 0.73109 5e-3 2.7719-1.3205 4.5351-2.9458 3.0501-2.8114 3.25-2.8844 4.1146-1.5 1.0721 1.7168 1.5498 1.7642 3.4296 0.34077 1.354-1.0253 1.2868-1.3126-1.7351-7.4127-2.132-4.3039-3.3682-7.9956-3.8414-11.472-0.3837-2.8193-0.87318-5.9697-1.0877-7.001-0.33743-1.6219-0.27893-1.6916 0.43332-0.51634 0.45288 0.74726 1.1425 3.6121 1.5326 6.3662 0.44993 3.177 1.8175 7.2973 3.7411 11.272 2.7468 5.675 3.1983 6.2222 4.8008 5.82 1.3826-0.347 2.1189 0.0477 3.3719 1.8073 1.812 2.5446 3.345 2.8681 4.4494 0.93875 2.0556-3.5912 1.977-3.5681 5.6005-1.6458 3.2394 1.7185 3.4854 1.7454 4.7147 0.51606 1.0131-1.013 1.0988-1.4952 0.39166-2.2024-1.7668-1.7668-0.86065-1.9028 2.4696-0.3707 3.6826 1.6941 4.0968 2.6296 2.0034 4.5241-1.9562 1.7704-2.8798 1.5383-1.212-0.30454 1.1972-1.3229 1.241-1.6457 0.30374-2.2385-1.5993-1.0116-2.0664-0.88177-2.5732 0.71502-0.70649 2.226-2.6045 2.497-5.9375 0.84801l-3.0585-1.5132-1.7548 2.2423c-2.2136 2.8284-3.2784 2.8178-5.6971-0.0565-3.3202-3.9459-3.6972-1.6683-0.48211 2.9128 5.1923 7.3984 13.378 12.464 22.681 14.036l2.8525 0.48191v-3.1606c0-1.7383-0.70861-6.1789-1.5747-9.8679-0.8923-3.8007-2.14-13.754-2.8791-22.968l-1.3044-16.261-2.7459 5.726c-1.5102 3.1493-2.7459 6.1024-2.7459 6.5625s-0.3375 0.83651-0.75 0.83651-0.75-0.34424-0.75-0.76498c0-0.64595 6.4819-14.121 7.147-14.858 0.12308-0.13633 2.4794 1.8887 5.2364 4.5 2.7569 2.6113 6.0766 5.401 7.3771 6.1992 3.1141 1.9115 3.0557 1.8575 2.5538 2.3594-0.71457 0.71457-3.6562-1.1474-8.5545-5.4149-2.5384-2.2115-4.7346-4.0209-4.8804-4.0209-0.90804 0 2.2831 31.04 3.8729 37.671 0.818 3.4121 1.4948 7.2162 1.504 8.4537 0.0263 3.5389 0.94551 4.4102 4.1106 3.8966 3.4927-0.56679 3.8103-0.84312 10.435-9.0793 5.1487-6.4014 8.5144-11.933 9.8192-16.138 0.31076-1.0015 2.6894-5.7265 5.2858-10.5 2.5964-4.7736 4.9537-9.6073 5.2384-10.742 0.2847-1.1343 0.9873-2.0624 1.5613-2.0624 1.4319 0 1.4062 0.0976-1.7392 6.6117-1.5306 3.1698-3.3916 7.0726-4.1354 8.6728l-1.3525 2.9095 5.4957-4.1918-0.49747 1.9821c-0.41906 1.6697-0.21134 2.0539 1.3177 2.4377 0.99837 0.25058 2.5432 0.066 3.433-0.41023 1.7989-0.96272 3.7719 0.06 3.7719 1.9551 0 1.2859 0.89547 1.3252 2.1777 0.0957 0.78549-0.75321 1.1391-0.6904 1.7987 0.3195 0.75198 1.1514 1.0921 1.0981 4.0473-0.63376 3.9564-2.3186 4.3-1.0319 0.42725 1.5997-2.9574 2.0096-5.4509 2.4834-5.4509 1.0358 0-0.51828-0.55093-0.36765-1.3716 0.375-1.9771 1.7893-2.9952 1.5333-3.2661-0.82126-0.18374-1.5969-0.57594-2.0018-1.7373-1.7934-0.825 0.148-2.4724 0.27858-3.6608 0.29016-1.7016 0.0166-1.9008 0.16658-0.9375 0.70568 0.67282 0.37653 1.2233 1.1377 1.2233 1.6915 0 0.76846-0.65913 0.67084-2.7836-0.41227-4.201-2.1418-5.9497-1.8749-6.9168 1.0555-1.7657 5.3502-5.6419 11.574-11.318 18.172-5.5031 6.397-7.8224 8.1547-11.544 8.7489-0.79089 0.12626 7.6466 0.25455 18.75 0.2851 19.786 0.0545 33.468 1.0471 36.454 2.6448 1.2131 0.64923 1.8487 0.47618 3.3168-0.90299l1.8161-1.7062-3.1994-1.2869c-1.7596-0.70782-4.874-1.9552-6.9207-2.772-3.6128-1.4418-5.3642-3.1573-3.2233-3.1573 0.58049 0 3.7813 1.1812 7.1128 2.625s6.766 2.625 7.632 2.625c2.5043 0 1.8433 1.9564-1.6128 4.7736-11.762 9.5871-13.312 10.604-13.312 8.7257zm22.5-4.1242c0-0.61875 0.31452-1.125 0.69894-1.125 0.3844 0 1.4281-1.0241 2.3194-2.2757 1.505-2.1136 1.5357-2.3941 0.43125-3.9375-3.51-4.9047-3.6187-5.304-0.69336-2.5467l3.0397 2.865 2.0432-3.4864c1.1238-1.9175 2.2119-3.3177 2.4182-3.1114s-0.54343 1.9422-1.666 3.8576l-2.041 3.4827 2.4861 2.565c3.0471 3.1438 2.3306 4.4487-0.79725 1.452l-2.2452-2.1511-2.5356 2.7682c-2.7716 3.0259-3.4583 3.3522-3.4583 1.6432zm290.25-8.4848c-4.4701-0.31106-5.2054-1.1676-3.0093-3.5052 1.9441-2.0694 3.4053-2.4987 2.7574-0.81012-0.27931 0.72787 0.23951 1.192 1.6073 1.4379 2.9018 0.52163 7.8478 0.22267 9.041-0.54648 0.64427-0.41529 1.2344-0.31365 1.5984 0.27531 0.43076 0.69698 1.3092 0.43614 3.4652-1.0289 2.9406-1.9982 5.54-2.5671 5.54-1.2126 0 0.4125-0.59665 0.75-1.3259 0.75-0.72924 0-2.5154 0.80829-3.9692 1.7962-2.1759 1.4786-3.3995 1.7542-6.9196 1.5586-2.6897-0.14948-4.4866 0.0885-4.8433 0.64131-0.33654 0.52169-1.9388 0.78349-3.942 0.6441zm54.78 0.0962c-0.0165-0.48878 0.35085-1.8388 0.81636-3 0.46552-1.1612 1.111-5.1488 1.4343-8.8613l0.58794-6.75-0.16119 7.5c-0.1146 5.332-0.52054 8.1504-1.4043 9.75-0.68371 1.2375-1.2566 1.8501-1.2731 1.3613zm-24.968-3.8926c-0.30937-1.3922-0.5625-3.4848-0.5625-4.6502 0-1.2269-0.55258-2.4408-1.3125-2.8834-1.1587-0.67486-1.1686-0.76714-0.0851-0.78727 0.88845-0.0165 1.3662-1.0065 1.7302-3.5853 0.74629-5.2869 1.1302-6.1875 2.6377-6.1875 2.8012 0 3.0773 4.5137 0.4047 6.616-2.6328 2.0709-2.4577 3.884 0.375 3.884 1.2375 0 2.25 0.37969 2.25 0.84375 0 0.53453-0.81172 0.68141-2.2149 0.40078l-2.2149-0.44298-0.22261 4.6617c-0.19496 4.0824-0.29253 4.3472-0.78513 2.1305zm3.1875-15.186c0-1.187-0.30139-2.1582-0.66975-2.1582-0.8788 0-1.5802 1.899-1.5802 4.2782 0 1.6087 0.17521 1.7601 1.125 0.97182 0.61875-0.51351 1.125-1.9048 1.125-3.0918zm14.673 14.872c0.28165-0.73967 0.70102-1.1559 0.93194-0.925 0.23091 0.23092 4.8e-4 0.83609-0.51209 1.3448-0.74071 0.73519-0.82686 0.64905-0.41985-0.41985zm3.6118-0.11924c-0.58155-1.5155 0.28335-2.6609 2.0093-2.6609 1.1246 0 1.4557-0.52332 1.4557-2.3005 0-1.957-0.22334-2.2296-1.4957-1.8258-1.2429 0.39448-1.4695 0.15866-1.3409-1.3954 0.0851-1.0286 0.42618-1.7024 0.7579-1.4973 0.33173 0.20501 0.38661 0.72309 0.12197 1.1513-0.30741 0.4974 0.0944 0.59584 1.1128 0.27264 1.4687-0.46614 1.5939-0.23284 1.5939 2.969 0 1.9112-0.34937 4.1277-0.77638 4.9255-0.91456 1.7089-2.8438 1.9117-3.4386 0.36161zm-14.106-0.83949c-1.5128-1.5127-1.4986-6.8381 0.0248-9.3214 0.78449-1.2788 0.99101-1.398 0.64952-0.375-1.4495 4.3424-1.3161 7.1764 0.42509 9.0298 1.8723 1.993 0.84802 2.6141-1.0994 0.66664zm51.459-1.6339c1.0553-1.1344 2.1395-2.9992 2.4094-4.1441 0.4552-1.931 0.35368-2.0472-1.4034-1.6062-1.7086 0.42884-1.8841 0.26546-1.7919-1.6684 0.0843-1.7688 0.15898-1.8487 0.42716-0.45631 0.38323 1.9897 1.3637 2.1997 2.04 0.43709 0.86476-2.2535 2.1659 0.13606 1.6299 2.9933-0.52521 2.7996-3.0288 6.5071-4.394 6.5071-0.45973 0 0.0275-0.92812 1.0828-2.0625zm-44.763-1.6875c-0.51426-1.6203-1.5075-1.9514-2.25-0.75-0.25494 0.4125-0.86548 0.73878-1.3568 0.72505-0.49128-0.0137-0.10812-0.67929 0.85146-1.479 1.2656-1.0548 1.6174-1.9233 1.2812-3.1626l-0.46349-1.7085 0.96878 1.6355c0.80088 1.352 1.2288 1.494 2.4688 0.81888 1.4353-0.7814 1.4446-0.75368 0.21592 0.64213-0.79044 0.89797-1.1172 2.0969-0.85003 3.1186 0.54085 2.0682-0.21586 2.2079-0.86589 0.15984zm18.75 0c-1.4462-0.62144-1.441-0.64646 0.14324-0.69728 0.90378-0.029 1.8518 0.28478 2.1068 0.69728 0.54825 0.88709-0.18564 0.88709-2.25 0zm6.6244-0.49112c0.34343-0.51525 0.51007-1.5306 0.37029-2.2564-0.13977-0.7258 0.46168-2.092 1.3366-3.036 2.0993-2.2652 2.8901-2.1923 1.3709 0.12634-1.1037 1.6844-1.1052 1.9887-0.0173 3.5419 0.65457 0.93452 1.1901 2.0366 1.1901 2.4491s-0.53055-8e-3 -1.179-0.93327c-1.136-1.6218-1.2249-1.6335-2.4375-0.31903-0.69217 0.75033-0.9775 0.94267-0.63406 0.42742zm10.251-0.22161c0-0.8045-0.59062-1.8067-1.3125-2.2272-1.1932-0.69497-1.17-0.76654 0.25461-0.78727 0.95099-0.0139 1.9204-0.7981 2.4656-1.9947 0.49415-1.0846 1.0819-1.7885 1.3062-1.5642s0.0509 1.0743-0.38516 1.8891c-0.6608 1.2347-0.51477 1.5736 0.87673 2.0344l1.6696 0.553-1.6875 0.33195c-1.0526 0.20706-1.6875 0.87668-1.6875 1.7798 0 0.79631-0.3375 1.4478-0.75 1.4478s-0.75-0.65823-0.75-1.4627zm-15-3.0373c0-0.4125 0.3375-0.75 0.75-0.75s0.75 0.3375 0.75 0.75-0.3375 0.75-0.75 0.75-0.75-0.3375-0.75-0.75zm-514.5-2.2993c0-2.8513 1.1978-5.2007 2.6514-5.2007 0.77366 0 1.1341-0.94281 1.2186-3.1875 0.1125-2.9875 0.13785-3.0228 0.4039-0.5625 0.15614 1.4438 0.49286 3.1312 0.74827 3.75s0.39724 1.5431 0.31516 2.054c-0.237 1.4756 1.4265 4.0666 2.4009 3.7395 0.84472-0.28354 0.9753-0.69813 1.1752-3.731 0.0476-0.72188 0.46232-1.3125 0.92164-1.3125 0.5013 0 0.70312 0.89939 0.50489 2.25-0.42123 2.87 1.072 2.9871 2.3908 0.1875l0.9716-2.0625 0.92734 2.1934c0.92215 2.1811 0.9323 2.1842 1.8114 0.5415 1.0274-1.9198 2.3088-1.4755 2.3088 0.8006 0 1.4754 0.0843 1.4957 1.3716 0.33075 1.81-1.638 2.3784-1.5656 2.3784 0.30302 0 0.84934-0.31418 1.3501-0.69817 1.1128-0.384-0.23733-0.91017-0.0885-1.1693 0.33073-0.67107 1.0858-3.3803 0.94591-3.394-0.17527-8e-3 -0.67888-0.19207-0.65238-0.66615 0.0961-0.78772 1.2437-2.3224 0.47072-2.3224-1.1697 0-0.97004-0.1992-1.0072-1.1533-0.21541-0.63432 0.52644-2.4707 1.0889-4.0809 1.2499-2.424 0.2424-3.0809 6e-3 -3.8189-1.3727l-0.89131-1.6654-1.0518 2.0073c-1.457 2.7809-3.2538 2.6197-3.2538-0.29197zm2.9762-3.2815c-0.0235-1.519-0.0418-1.5204-1.125-0.0883-0.60563 0.80072-1.0904 2.1507-1.0773 3 0.0235 1.519 0.0418 1.5204 1.125 0.0883 0.60564-0.80072 1.0904-2.1507 1.0773-3zm-8.4656 0.80175c-1.4818-3.4139-1.4899-3.4709-0.49201-3.4709 0.97084 0 2.3804 3.6183 2.0223 5.1909-0.16699 0.73323-0.74965 0.0783-1.5303-1.72zm552.11 1.513c-4.0658-1.2693-4.2593-1.8744-1.3691-4.2821 2.1804-1.8164 2.4314-2.3084 1.4952-2.9308-0.96446-0.64121-0.9377-0.74959 0.1875-0.75943 2.0202-0.0177 1.5907 2.6607-0.69339 4.3246l-2.0059 1.4612 2.7559 0.90952c1.5157 0.50025 2.7559 1.2209 2.7559 1.6014s-0.0844 0.65645-0.1875 0.6132c-0.10312-0.0433-1.4255-0.46513-2.9386-0.9375zm-22.028-1.2811c-0.27101-0.4385 0.0117-1.3666 0.6283-2.0625 0.61658-0.69589 1.2855-1.9402 1.4865-2.7652l0.36543-1.5 0.0755 1.5c0.0416 0.825-0.23751 1.9949-0.6201 2.5998-0.44097 0.69723-0.40315 1.4522 0.10332 2.0625 0.59234 0.71373 0.49572 0.96265-0.37364 0.96265-0.64491 0-1.3943-0.35877-1.6653-0.79725zm-371.46-4.0717c-0.91139-1.1586-1.8625-3.3913-2.1136-4.9616-0.34998-2.1886-0.9167-3.0237-2.4283-3.578-1.7138-0.62844-1.7647-0.73081-0.38877-0.78226 1.324-0.0495 1.6541-0.65902 2.0172-3.7248 0.65623-5.5408 2.3268-8.9434 4.6809-9.5342 1.345-0.33757 2.2215-0.16122 2.6629 0.53581 1.1057 1.7459 0.75697 4.8628-0.69057 6.1728-2.1272 1.9251-2.5895 1.466-0.8682-0.86221 1.6256-2.1988 1.3906-4.6466-0.44623-4.6466-1.6299 0-3.4963 4.4547-3.5968 8.5845l-0.0922 3.7905 3.1875 0.23063c1.7531 0.12684 3.1875 0.5527 3.1875 0.94636 0 0.41499-1.2606 0.51416-3 0.23602-2.7939-0.44676-2.9998-0.35719-2.9972 1.3036 2e-3 0.98085 0.69295 2.9154 1.5365 4.299 1.9847 3.2554 1.5032 4.7285-0.65055 1.9904zm19.729-2.5969c0.27311-1.2434-0.0357-4.2549-0.70354-6.8619-1.2693-4.9547-1.157-6.5757 0.21718-3.1338 1.5602 3.9079 2.2731 8.6158 1.5804 10.438-0.95081 2.5008-1.676 2.2078-1.094-0.442zm-12.784-1.0584c-0.47542-1.8942 0.64473-6.8666 1.9657-8.7257 0.60348-0.84934 0.64947-0.66558 0.18771 0.75-0.3364 1.0312-0.61164 3.6469-0.61164 5.8125 0 4.1128-0.77832 5.2049-1.5417 2.1632zm-167.57-2.1632c9e-3 -1.3646 0.15061-1.4722 0.73851-0.5625 0.93969 1.4541 0.93969 2.25 0 2.25-0.4125 0-0.74483-0.75937-0.73851-1.6875zm175.86 0.1875c-0.825-0.35451-1.188-0.66829-0.80676-0.69728 0.38128-0.029-0.12497-0.94513-1.125-2.0359l-1.8182-1.9832 2.0122 1.2865c1.6639 1.0638 2.313 1.1285 3.75 0.37403 1.6854-0.88493 1.6985-0.86814 0.43553 0.55693-1.0045 1.1334-1.0988 1.6728-0.4125 2.3591 1.0192 1.0192 0.15011 1.0788-2.0352 0.13976zm25.892 0.35439c-9e-3 -0.42385 0.52566-1.5449 1.1885-2.4913 1.1335-1.6183 1.1-1.8402-0.5625-3.7294l-1.7677-2.0087 2.0405 1.7976c1.793 1.5795 2.2024 1.6705 3.375 0.75 1.2174-0.95565 1.2431-0.93116 0.29349 0.27899-0.90104 1.1482-0.86019 1.5264 0.30374 2.8125 1.4513 1.6037 0.52566 2.0974-1.0282 0.54844-0.75285-0.75045-1.2284-0.56341-2.3833 0.9375-0.79355 1.0312-1.4503 1.5282-1.4595 1.1044zm-8.4542-3.8511c0.51563-0.20805 1.3594-0.20805 1.875 0 0.51563 0.20806 0.0937 0.3783-0.9375 0.3783-1.0312 0-1.4531-0.17024-0.9375-0.3783zm-1.5-2.2826c0.92813-0.17877 2.4469-0.17877 3.375 0 0.92813 0.17876 0.16875 0.32502-1.6875 0.32502s-2.6156-0.14626-1.6875-0.32502zm20.812-2.2555c-2.6171-0.6295-2.9965-1.5968-1.3308-3.3928 0.86587-0.93358 1.7267-2.5412 1.9129-3.5724 0.29495-1.6332 0.35178-1.5725 0.44075 0.47067 0.0562 1.2901-0.4004 2.7627-1.0146 3.2725-1.544 1.2814-0.71803 2.2568 1.911 2.2568 1.2132 0 2.2057 0.3375 2.2057 0.75 0 0.77126-1.49 0.849-4.125 0.2152zm59.25-9.5918c-4.2083-1.488-7.875-5.6458-7.875-8.9298 0-3.8623 2.9604-6.9832 7.2317-7.6238 3.9019-0.58512 8.8946 0.6246 9.5422 2.3121 0.5384 1.403-0.22381 1.3919-2.1047-0.0307-2.8192-2.1323-10.935-0.87362-12.435 1.9284-1.5154 2.8315-0.85012 5.7132 1.8703 8.1018 2.3445 2.0585 6.6416 3.8533 9.2523 3.8644 0.53997 2e-3 0.77317 0.34168 0.51823 0.75418-0.62323 1.0084-2.398 0.89702-6-0.37661zm15.375 0.15528c-1.8049-0.91375-1.875-1.2197-1.875-8.1883 0-4.5727 0.2253-6.6362 0.61169-5.6022 0.33642 0.90026 0.50517 4.0541 0.375 7.0085l-0.23669 5.3717 2.599 0.41987c4.6544 0.75195 7.1495-3.1896 6.2525-9.8773-0.5523-4.1177-3.115-6.911-6.3406-6.911-1.7821 0-2.2128-0.22301-1.6049-0.83095 0.60793-0.60794 1.5696-0.58718 3.583 0.0773 3.9186 1.2933 5.6297 4.4443 5.6332 10.374 2e-3 4.2466-0.22757 4.9756-2.1895 6.9375-2.3946 2.3946-3.9415 2.672-6.8077 1.221zm-309.95-0.23191c-1.2073-1.2073-0.34798-1.6308 3.9375-1.9408 2.4663-0.1784 4.7444-0.58604 5.0625-0.90587s0.54174-2.552 0.49707-4.9604c-0.11307-6.0974-2.7274-11.294-6.2938-12.51-2.0616-0.70302-2.2522-0.90425-0.88819-0.9375 3.8796-0.0946 6.2474 2.7037 8.0389 9.5005 1.3013 4.9371 0.84477 9.6455-1.0308 10.631-1.7902 0.94024-8.6765 1.77-9.3232 1.1233zm-22.393-1.8012c-6.6189-3.4975-8.5863-9.5831-4.6214-14.295 2.0313-2.4141 8.4609-5.9292 10.87-5.9431 1.9808-0.0114 5.0978 1.6277 5.0978 2.6806 0 0.74206-0.44841 0.72343-2.0711-0.0861-3.0274-1.5102-7.8563-0.0865-11.517 3.3955-4.9142 4.6747-3.5087 9.4049 3.9117 13.165 2.0218 1.0245 3.676 2.0258 3.676 2.2251 0 0.80619-2.7858 0.21112-5.3467-1.1421zm38.054-3.1996c-1.8156-6.2453-2.851-11.645-2.5103-13.091 0.22302-0.94656 0.47066-0.6813 0.85885 0.91992 0.30001 1.2375 1.3665 4.9994 2.37 8.3598 2.0086 6.726 2.1595 7.7652 1.1278 7.7652-0.38322 0-1.214-1.7793-1.8463-3.954zm23.264 2.6416c-0.20883-0.72187-0.61472-3.6498-0.902-6.5064-0.47871-4.7603-0.61366-5.0734-1.6165-3.75-0.98558 1.3006-1.0424 1.0344-0.57218-2.6811 0.55931-4.4195 1.3462-5.9531 2.2797-4.4427 0.68732 1.1121 2.5249 12.767 2.563 16.255 0.0283 2.5894-1.1158 3.3241-1.752 1.125zm287.13-1.9846c-0.28327-1.889-0.33286-3.9093-0.1102-4.4895s0.14622-2.9607-0.16987-5.29c-0.56261-4.146 0.12829-6.5551 0.92654-3.2308 0.6048 2.5187 0.87798 15.435 0.33786 15.975-0.25811 0.25811-0.70106-1.0762-0.98433-2.9652zm-326.62-0.26548c-0.0404-2.2892-1.3734-11.786-1.871-13.329-0.45838-1.4217-0.43157-1.4264 0.64558-0.11281 0.61811 0.75378 1.3347 3.1163 1.5925 5.25s0.65301 5.1451 0.87833 6.692c0.2589 1.7775 0.1094 2.8125-0.40627 2.8125-0.44876 0-0.82634-0.59062-0.83909-1.3125zm349.71 0.48594c-1.3406-0.37039-3.5344-0.93919-4.875-1.264-1.3406-0.32481-2.4375-0.97909-2.4375-1.454s2.0995-2.2204 4.6656-3.8789c6.5494-4.2331 7.4017-8.4173 1.7558-8.6195-2.9649-0.10618-3.0072-1.2071-0.0463-1.2071 2.0494 0 5.2541 2.1757 5.2472 3.5625-9e-3 1.7123-3.349 5.5804-6.3254 7.3247-3.6976 2.1669-3.8492 3.3628-0.4264 3.3628 2.7176 0 6.0046 1.2215 6.0046 2.2314 0 0.87329-0.20366 0.86998-3.5625-0.058zm-227.92-6.4859c-0.88097-2.3719-1.7968-4.9031-2.0352-5.625-0.23837-0.72187-0.77579-1.3125-1.1943-1.3125-0.77616 0-4.5362-6.8177-4.5362-8.2251 0-0.42622 0.3375-0.77493 0.75-0.77493s0.75126 0.59062 0.75281 1.3125c4e-3 1.7743 2.7259 6.1305 4.1794 6.6882 0.74765 0.28691 2.2383-0.58923 4.1069-2.4139 1.6133-1.5754 3.1021-2.6956 3.3083-2.4893s-0.9688 1.6872-2.6112 3.291c-3.4151 3.3348-3.5526 4.166-1.4862 8.9866 1.6127 3.7623 1.8258 4.875 0.93369 4.875-0.31148 0-1.2871-1.9406-2.1681-4.3125zm297.11 0.52008c-1.65-0.33591-5.7844-0.41398-9.1875-0.17351-5.2966 0.37427-6.1875 0.2685-6.1875-0.73468 0-1.3339 4.9638-5.9014 10.48-9.643 2.0524-1.3923 3.7404-2.735 3.7511-2.984 0.0219-0.51259-9.3855-2.1724-12.313-2.1724-1.0549 0-1.918-0.28537-1.918-0.63416 0-0.73557 13.757 1.0336 15.463 1.9887 0.8881 0.497-0.2582 1.6626-5.0963 5.1818-6.0892 4.4293-9.421 7.4536-8.8 7.9877 0.16935 0.14567 2.274 0.0386 4.6771-0.23787 2.4031-0.27648 6.0634-0.28536 8.1341-0.0197 3.8952 0.4997 3.7702 0.57437 4.8133-2.8765 0.61158-2.0233 1.6049-0.0717 1.1344 2.2288-0.56609 2.7679-0.9076 2.912-4.9511 2.0888z" stroke-width=".75"/>
</svg>
