<?xml version="1.0" encoding="UTF-8"?>
<svg width="311.93" height="310.8" version="1.1" xmlns="http://www.w3.org/2000/svg">
 <g fill="none" stroke="#000" stroke-miterlimit="10">
  <path d="m157.01-256.7v867" paint-order="fill stroke markers"/>
  <path d="m157.01-257.7-4 4" paint-order="fill stroke markers"/>
  <path d="m157.01-257.7 4 4" paint-order="fill stroke markers"/>
  <path d="m-388.99 154.3h1488" paint-order="fill stroke markers"/>
 </g>
 <g fill="#000000" font-family="geogebra-sans-serif, sans-serif" font-size="12px" text-decoration="normal">
  <text x="14.508" y="169.8" dominant-baseline="alphabetic">–2</text>
  <text x="14.508" y="169.8" dominant-baseline="alphabetic">–2</text>
  <text x="83.508003" y="169.8" dominant-baseline="alphabetic">–1</text>
  <text x="83.508003" y="169.8" dominant-baseline="alphabetic">–1</text>
  <text x="223.508" y="169.8" dominant-baseline="alphabetic">1</text>
  <text x="223.508" y="169.8" dominant-baseline="alphabetic">1</text>
  <text x="291.508" y="169.8" dominant-baseline="alphabetic">2</text>
  <text x="291.508" y="169.8" dominant-baseline="alphabetic">2</text>
  <text x="137.50801" y="295.79999" dominant-baseline="alphabetic">–2</text>
  <text x="137.50801" y="295.79999" dominant-baseline="alphabetic">–2</text>
  <text x="137.50801" y="227.8" dominant-baseline="alphabetic">–1</text>
  <text x="137.50801" y="227.8" dominant-baseline="alphabetic">–1</text>
  <text x="143.508" y="90.800003" dominant-baseline="alphabetic">1</text>
  <text x="143.508" y="90.800003" dominant-baseline="alphabetic">1</text>
  <text x="143.508" y="22.799999" dominant-baseline="alphabetic">2</text>
  <text x="143.508" y="22.799999" dominant-baseline="alphabetic">2</text>
  <text x="143.508" y="169.8" dominant-baseline="alphabetic">0</text>
  <text x="143.508" y="169.8" dominant-baseline="alphabetic">0</text>
 </g>
 <path d="m-267.27-264.27 5.8203 5.8986 5.8203 5.9008 5.8203 5.9032 5.8203 5.9056 5.8203 5.9082 5.8203 5.9109 5.8203 5.9137 5.8203 5.9166 5.8203 5.9198 5.8203 5.923 5.8203 5.9264 5.8203 5.93 5.8203 5.9337 5.8203 5.9377 5.8203 5.9419 5.8203 5.9463 5.8203 5.951 5.8203 5.9559 5.8203 5.9611 5.8203 5.9666 5.8203 5.9725 5.8203 5.9787 5.8203 5.9853 5.8203 5.9924 5.8203 5.9999 5.8203 6.0079 5.8203 6.0165 5.8203 6.0257 5.8203 6.0355 5.8203 6.0462 5.8203 6.0576 5.8203 6.0699 5.8203 6.0833 5.8203 6.0978 5.8203 6.1136 5.8203 6.1307 5.8203 6.1495 5.8203 6.1701 5.8203 6.1927 5.8203 6.2177 5.8203 6.2453 5.8203 6.2761 5.8203 6.3105m0 0 4.3652 4.758 4.3652 4.7818 4.3652 4.8079 4.3652 4.8367 4.3652 4.8685 4.3652 4.9039 4.3652 4.9434 4.3652 4.9878 4.3652 5.0378 4.3652 5.0946 4.3652 5.1597 4.3652 5.2347 4.3652 5.322 4.3652 5.4249 4.3652 5.5475 4.3652 5.696m0 0 4.3652 5.8793 4.3652 6.1109 4.3652 6.4128 4.3652 6.8228 4.3652 7.4142 4.3652 8.3515 2.1826 4.7451 2.1826 5.3782 2.1826 6.4869 2.1826 9.2813m0 0 0.51821 3.5179 0.51821 8.4387m136.9 0 0.43768-7.753 0.43767-3.2289 0.87534-4.5981m0 0 2.1826-7.956 2.1826-6.039 4.3652-9.7281 4.3652-8.1616 4.3652-7.3 4.3652-6.7459 4.3652-6.3573 4.3652-6.069 4.3652-5.8464m0 0 4.3652-5.6696 4.3652-5.5259 4.3652-5.4068 4.3652-5.3068 4.3652-5.2216 4.3652-5.1484 4.3652-5.0848 4.3652-5.0292 4.3652-4.9801 4.3652-4.9366 4.3652-4.8978 4.3652-4.8631 4.3652-4.8318 4.3652-4.8034 4.3652-4.7777 4.3652-4.7543 4.3652-4.7329 4.3652-4.7133 4.3652-4.6952 4.3652-4.6786 4.3652-4.6632 4.3652-4.649 4.3652-4.6358 4.3652-4.6236 4.3652-4.6121 4.3652-4.6014 4.3652-4.5915 4.3652-4.5821 4.3652-4.5734 4.3652-4.5651 4.3652-4.5574 4.3652-4.5501 4.3652-4.5432 4.3652-4.5367 4.3652-4.5306 4.3652-4.5248 4.3652-4.5193 4.3652-4.514 4.3652-4.5091 4.3652-4.5044 4.3652-4.4999 4.3652-4.4956 4.3652-4.4916 4.3652-4.4877 4.3652-4.484 4.3652-4.4805 4.3652-4.4771 4.3652-4.4739 4.3652-4.4708 4.3652-4.4679 4.3652-4.465 4.3652-4.4623 4.3652-4.4597 4.3652-4.4572 4.3652-4.4548 4.3652-4.4525 4.3652-4.4503 4.3652-4.4482 4.3652-4.4461 4.3652-4.4442 4.3652-4.4422 4.3652-4.4404 4.3652-4.4386 4.3652-4.4369m0 0 4.3652-4.4353 4.3652-4.4337 4.3652-4.4322 4.3652-4.4307 4.3652-4.4292 4.3652-4.4278 4.3652-4.4265 4.3652-4.4252 4.3652-4.4239 4.3652-4.4227" fill="none" stroke="#2e7d32" stroke-linecap="round" stroke-linejoin="round" stroke-miterlimit="10" stroke-opacity=".8" stroke-width="2.5" paint-order="fill stroke markers"/>
 <text x="-251.492" y="-243.20001" dominant-baseline="alphabetic" fill="#2e7d32" font-family="geogebra-sans-serif, sans-serif" font-size="16px" text-decoration="normal">f</text>
 <text x="-251.492" y="-243.20001" dominant-baseline="alphabetic" fill="#2e7d32" font-family="geogebra-sans-serif, sans-serif" font-size="16px" text-decoration="normal">f</text>
 <path d="m-308.01 614.91 5.8203-5.8852 5.8203-5.8869 5.8203-5.8886 5.8203-5.8904 5.8203-5.8924 5.8203-5.8943 5.8203-5.8964 5.8203-5.8986 5.8203-5.9008 5.8203-5.9032 5.8203-5.9056 5.8203-5.9082 5.8203-5.9109 5.8203-5.9137 5.8203-5.9166 5.8203-5.9198 5.8203-5.923 5.8203-5.9264 5.8203-5.93 5.8203-5.9337 5.8203-5.9377 5.8203-5.9419 5.8203-5.9463 5.8203-5.951 5.8203-5.9559 5.8203-5.9611 5.8203-5.9666 5.8203-5.9725 5.8203-5.9787 5.8203-5.9853 5.8203-5.9923 5.8203-5.9999 5.8203-6.0079 5.8203-6.0165 5.8203-6.0257 5.8203-6.0355 5.8203-6.0462 5.8203-6.0576 5.8203-6.0699 5.8203-6.0833 5.8203-6.0978 5.8203-6.1135 5.8203-6.1307 5.8203-6.1495 5.8203-6.17 5.8203-6.1927 5.8203-6.2177 5.8203-6.2453 5.8203-6.2761 5.8203-6.3105m0 0 4.3652-4.758 4.3652-4.7818 4.3652-4.8079 4.3652-4.8367 4.3652-4.8685 4.3652-4.9039 4.3652-4.9434 4.3652-4.9878 4.3652-5.0378 4.3652-5.0946 4.3652-5.1597 4.3652-5.2347 4.3652-5.322 4.3652-5.4249 4.3652-5.5475 4.3652-5.696m0 0 4.3652-5.8793 4.3652-6.1109 4.3652-6.4128 4.3652-6.8228 4.3652-7.4142 4.3652-8.3515 2.1826-4.7451 2.1826-5.3782 2.1826-6.4869 2.1826-9.2813m0 0 0.51821-3.5179 0.51821-8.4387m136.9 0 0.43768 7.753 0.43767 3.2289 0.87534 4.5981m0 0 2.1826 7.956 2.1826 6.039 4.3652 9.7281 4.3652 8.1616 4.3652 7.3 4.3652 6.7459 4.3652 6.3573 4.3652 6.069 4.3652 5.8464m0 0 4.3652 5.6696 4.3652 5.5259 4.3652 5.4068 4.3652 5.3068 4.3652 5.2216 4.3652 5.1484 4.3652 5.0848 4.3652 5.0292 4.3652 4.9801 4.3652 4.9366 4.3652 4.8978 4.3652 4.8631 4.3652 4.8318 4.3652 4.8034 4.3652 4.7777 4.3652 4.7543 4.3652 4.7329 4.3652 4.7133 4.3652 4.6952 4.3652 4.6786 4.3652 4.6633 4.3652 4.649 4.3652 4.6358 4.3652 4.6236 4.3652 4.6121 4.3652 4.6014 4.3652 4.5915 4.3652 4.5821 4.3652 4.5734 4.3652 4.5651 4.3652 4.5574 4.3652 4.5501 4.3652 4.5432 4.3652 4.5367 4.3652 4.5306 4.3652 4.5248 4.3652 4.5192 4.3652 4.514 4.3652 4.5091 4.3652 4.5044 4.3652 4.4999 4.3652 4.4956 4.3652 4.4916 4.3652 4.4877 4.3652 4.484 4.3652 4.4805 4.3652 4.4771 4.3652 4.4739 4.3652 4.4708 4.3652 4.4679 4.3652 4.465 4.3652 4.4623 4.3652 4.4597 4.3652 4.4572 4.3652 4.4548 4.3652 4.4525 4.3652 4.4503 4.3652 4.4482 4.3652 4.4461 4.3652 4.4442 4.3652 4.4422 4.3652 4.4404 4.3652 4.4386 4.3652 4.4369m0 0 4.3652 4.4353 4.3652 4.4337 4.3652 4.4322 4.3652 4.4307 4.3652 4.4292 4.3652 4.4278 4.3652 4.4265 4.3652 4.4252 4.3652 4.4239 4.3652 4.4227 4.3652 4.4215 4.3652 4.4204 4.3652 4.4193 4.3652 4.4182 4.3652 4.4172 4.3652 4.4161 4.3653 4.4152 4.3652 4.4142 4.3653 4.4133" fill="none" stroke="#2e7d32" stroke-linecap="round" stroke-linejoin="round" stroke-miterlimit="10" stroke-opacity=".8" stroke-width="2.5" paint-order="fill stroke markers"/>
 <text x="-292.492" y="604.79999" dominant-baseline="alphabetic" fill="#d32f2f" font-family="geogebra-sans-serif, sans-serif" font-size="16px" text-decoration="normal">g</text>
 <text x="-292.492" y="604.79999" dominant-baseline="alphabetic" fill="#d32f2f" font-family="geogebra-sans-serif, sans-serif" font-size="16px" text-decoration="normal">g</text>
 <path d="m-261.45-269.56 5.8203 5.743 5.8203 5.7408 5.8203 5.7386 5.8203 5.7362 5.8203 5.7338 5.8203 5.7312 5.8203 5.7285 5.8203 5.7257 5.8203 5.7228 5.8203 5.7197 5.8203 5.7165 5.8203 5.7131 5.8203 5.7096 5.8203 5.7059 5.8203 5.702 5.8203 5.6979 5.8203 5.6936 5.8203 5.6891 5.8203 5.6843 5.8203 5.6792 5.8203 5.6739 5.8203 5.6683 5.8203 5.6623 5.8203 5.656 5.8203 5.6493 5.8203 5.6422 5.8203 5.6346 5.8203 5.6266 5.8203 5.618 5.8203 5.6089 5.8203 5.5992 5.8203 5.5887 5.8203 5.5776 5.8203 5.5656 5.8203 5.5528 5.8203 5.5389 5.8203 5.524 5.8203 5.5079 5.8203 5.4906 5.8203 5.4717 5.8203 5.4513 5.8203 5.4291 5.8203 5.4049 5.8203 5.3784 5.8203 5.3495 5.8203 5.3178 5.8203 5.2829 5.8203 5.2445 5.8203 5.202 5.8203 5.1549 5.8203 5.1027 5.8203 5.0445 5.8203 4.9795 5.8203 4.9068 5.8203 4.8251 5.8203 4.7332 5.8203 4.6294 5.8203 4.5121 5.8203 4.3792 5.8203 4.2284 5.8203 4.0571 5.8203 3.8626 5.8203 3.6418 5.8203 3.3918 5.8203 3.1098 5.8203 2.7935 5.8203 2.4415 5.8203 2.0538 5.8203 1.6321 5.8203 1.1808 5.8203 0.70609 5.8203 0.21674 5.8203-0.27725 5.8203-0.76533 5.8203-1.2376 5.8203-1.6856 5.8203-2.1032 5.8203-2.4866 5.8203-2.8342 5.8203-3.1462 5.8203-3.4242 5.8203-3.6704 5.8203-3.8878 5.8203-4.0793 5.8203-4.248 5.8203-4.3964 5.8203-4.5273 5.8203-4.6428 5.8203-4.745 5.8203-4.8356 5.8203-4.9162 5.8203-4.9879 5.8203-5.052 5.8203-5.1094 5.8203-5.161 5.8203-5.2074 5.8203-5.2494 5.8203-5.2874 5.8203-5.3218 5.8203-5.3532 5.8203-5.3818 5.8203-5.408 5.8203-5.4319 5.8203-5.4539 5.8203-5.4741 5.8203-5.4928 5.8203-5.51 5.8203-5.5259 5.8203-5.5407 5.8203-5.5544 5.8203-5.5671 5.8203-5.579 5.8203-5.59 5.8203-5.6004 5.8203-5.61 5.8203-5.6191 5.8203-5.6276 5.8203-5.6356 5.8203-5.6431 5.8203-5.6501 5.8203-5.6568 5.8203-5.663 5.8203-5.669 5.8203-5.6746 5.8203-5.6799 5.8203-5.6849 5.8203-5.6896 5.8203-5.6941 5.8203-5.6984 5.8203-5.7025 5.8203-5.7064 5.8203-5.7101 5.8203-5.7136 5.8203-5.7169 5.8203-5.7201 5.8203-5.7232 5.8203-5.7261 5.8203-5.7289 5.8203-5.7315 5.8203-5.7341 5.8203-5.7365 5.8203-5.7389 5.8203-5.7411" fill="none" stroke="#1565c0" stroke-linecap="round" stroke-linejoin="round" stroke-miterlimit="10" stroke-opacity=".8" stroke-width="2.5" paint-order="fill stroke markers"/>
 <text x="-240.492" y="-243.20001" dominant-baseline="alphabetic" fill="#2e7d32" font-family="geogebra-sans-serif, sans-serif" font-size="16px" text-decoration="normal">q</text>
 <text x="-240.492" y="-243.20001" dominant-baseline="alphabetic" fill="#2e7d32" font-family="geogebra-sans-serif, sans-serif" font-size="16px" text-decoration="normal">q</text>
 <path d="m-302.19 619.22 5.8203-5.756 5.8203-5.7543 5.8203-5.7526 5.8203-5.7508 5.8203-5.749 5.8203-5.7471 5.8203-5.7451 5.8203-5.743 5.8203-5.7408 5.8203-5.7386 5.8203-5.7362 5.8203-5.7338 5.8203-5.7312 5.8203-5.7285 5.8203-5.7257 5.8203-5.7228 5.8203-5.7197 5.8203-5.7165 5.8203-5.7132 5.8203-5.7096 5.8203-5.7059 5.8203-5.702 5.8203-5.6979 5.8203-5.6936 5.8203-5.6891 5.8203-5.6843 5.8203-5.6792 5.8203-5.6739 5.8203-5.6683 5.8203-5.6623 5.8203-5.656 5.8203-5.6493 5.8203-5.6422 5.8203-5.6346 5.8203-5.6266 5.8203-5.618 5.8203-5.6089 5.8203-5.5992 5.8203-5.5887 5.8203-5.5776 5.8203-5.5656 5.8203-5.5528 5.8203-5.5389 5.8203-5.524 5.8203-5.5079 5.8203-5.4906 5.8203-5.4717 5.8203-5.4513 5.8203-5.4291 5.8203-5.4049 5.8203-5.3784 5.8203-5.3495 5.8203-5.3178 5.8203-5.2829 5.8203-5.2445 5.8203-5.202 5.8203-5.1549 5.8203-5.1027 5.8203-5.0445 5.8203-4.9795 5.8203-4.9068 5.8203-4.8251 5.8203-4.7332 5.8203-4.6294 5.8203-4.5121 5.8203-4.3792 5.8203-4.2284 5.8203-4.0571 5.8203-3.8626 5.8203-3.6418 5.8203-3.3918 5.8203-3.1098 5.8203-2.7935 5.8203-2.4415 5.8203-2.0538 5.8203-1.6322 5.8203-1.1808 5.8203-0.7061 5.8203-0.21673 5.8203 0.27725 5.8203 0.76533 5.8203 1.2376 5.8203 1.6856 5.8203 2.1032 5.8203 2.4866 5.8203 2.8342 5.8203 3.1462 5.8203 3.4242 5.8203 3.6704 5.8203 3.8878 5.8203 4.0793 5.8203 4.2479 5.8203 4.3964 5.8203 4.5273 5.8203 4.6428 5.8203 4.745 5.8203 4.8356 5.8203 4.9161 5.8203 4.9879 5.8203 5.052 5.8203 5.1094 5.8203 5.161 5.8203 5.2074 5.8203 5.2494 5.8203 5.2874 5.8203 5.3218 5.8203 5.3532 5.8203 5.3818 5.8203 5.408 5.8203 5.4319 5.8203 5.4539 5.8203 5.4741 5.8203 5.4928 5.8203 5.51 5.8203 5.5259 5.8203 5.5407 5.8203 5.5544 5.8203 5.5671 5.8203 5.579 5.8203 5.59 5.8203 5.6004 5.8203 5.6101 5.8203 5.6191 5.8203 5.6276 5.8203 5.6356 5.8203 5.6431 5.8203 5.6501 5.8203 5.6568 5.8203 5.663 5.8203 5.669 5.8203 5.6746 5.8203 5.6799 5.8203 5.6849 5.8203 5.6896 5.8203 5.6941 5.8203 5.6984 5.8203 5.7025 5.8203 5.7064 5.8203 5.7101 5.8203 5.7136 5.8203 5.7169 5.8203 5.7201 5.8203 5.7232 5.8203 5.7261 5.8203 5.7289 5.8203 5.7315 5.8203 5.7341 5.8203 5.7365 5.8203 5.7389 5.8203 5.7411 5.8203 5.7433 5.8203 5.7453 5.8203 5.7473 5.8203 5.7492 5.8203 5.7511 5.8203 5.7528 5.8203 5.7545 5.8204 5.7562" fill="none" stroke="#1565c0" stroke-linecap="round" stroke-linejoin="round" stroke-miterlimit="10" stroke-opacity=".8" stroke-width="2.5" paint-order="fill stroke markers"/>
 <text x="-281.492" y="604.79999" dominant-baseline="alphabetic" fill="#1565c0" font-family="geogebra-sans-serif, sans-serif" font-size="16px" text-decoration="normal">r</text>
 <text x="-281.492" y="604.79999" dominant-baseline="alphabetic" fill="#1565c0" font-family="geogebra-sans-serif, sans-serif" font-size="16px" text-decoration="normal">r</text>
 <path d="m-302.84 614.8 879-879" fill="none" stroke="#db6114" stroke-linecap="round" stroke-linejoin="round" stroke-miterlimit="10" stroke-opacity=".8" stroke-width="2.5" paint-order="fill stroke markers"/>
 <text x="-279.492" y="604.79999" dominant-baseline="alphabetic" fill="#db6114" font-family="geogebra-sans-serif, sans-serif" font-size="16px" text-decoration="normal">h</text>
 <text x="-279.492" y="604.79999" dominant-baseline="alphabetic" fill="#db6114" font-family="geogebra-sans-serif, sans-serif" font-size="16px" text-decoration="normal">h</text>
 <path d="m617.36 614.8-879-879" fill="none" stroke="#db6114" stroke-linecap="round" stroke-linejoin="round" stroke-miterlimit="10" stroke-opacity=".8" stroke-width="2.5" paint-order="fill stroke markers"/>
 <text x="-238.492" y="-243.20001" dominant-baseline="alphabetic" fill="#6557d2" font-family="geogebra-sans-serif, sans-serif" font-size="16px" text-decoration="normal">p</text>
 <text x="-238.492" y="-243.20001" dominant-baseline="alphabetic" fill="#6557d2" font-family="geogebra-sans-serif, sans-serif" font-size="16px" text-decoration="normal">p</text>
</svg>
