<?xml version="1.0" encoding="UTF-8"?>
<svg width="275.19" height="266.09" version="1.1" viewBox="0 0 275.19 266.09" xml:space="preserve" xmlns="http://www.w3.org/2000/svg" xmlns:cc="http://creativecommons.org/ns#" xmlns:dc="http://purl.org/dc/elements/1.1/" xmlns:rdf="http://www.w3.org/1999/02/22-rdf-syntax-ns#"><metadata><rdf:RDF><cc:Work rdf:about=""><dc:format>image/svg+xml</dc:format><dc:type rdf:resource="http://purl.org/dc/dcmitype/StillImage"/><dc:title/></cc:Work></rdf:RDF></metadata><g transform="matrix(1.3333 0 0 -1.3333 -168 589.05)"><g transform="matrix(.54545 0 0 -.54545 -4.9065 572.47)" fill="none" stroke="#000" stroke-linecap="round" stroke-linejoin="round" stroke-miterlimit="10" stroke-width="1.8189"><path d="m264.79 241.27v338.61"/><path d="m264.79 579.88c115.86 1.2064 231.73 2.4129 347.59 3.6193"/></g><path d="m137.02 436.47c5.4712 6.6216-1.6306 3.5126 2e-4 0zm2.16 3.5527c3.2224 4.6348-3.6844-0.84509 0 0zm0.3659 0.6137c5.0183-1.5946-2.7162 3.4916 0 0zm0.4034-0.3032c6.5841-10.134 1.079 4.2589 0 0z"/><path d="m325.99 255.52c7.2199-3.9693 2.7388 2.3473 0 0zm3.2671-1.2736c5.2645-3.0475 0.0234 3.2622 0 0zm1.7915-0.8039c3.3127-1.551-0.99556 2.8858 0 0zm-0.0919-1.0336c5.3145 2.7203-3.1974 1.2308 0 0zm-1.3584-0.5866c6.4524 2.3636-3.943 1.347 0 0zm-1.7951-1.4982c5.5196 3.5862-1.6844 2.4931 0 0z"/><g transform="matrix(.54545 0 0 -.54545 -4.9065 572.47)" fill="none" stroke-linecap="round" stroke-linejoin="round" stroke-miterlimit="10" stroke-width="1.8189"><path d="m264.79 579.88c76.656-9.8414 150.37-47.442 198.62-108.58 6.1502-7.5563 11.956-15.392 17.426-23.454" stroke="#55e1ff"/><path d="m264.79 579.88c87.039-43.797 161.03-114.44 204.55-202.02 4.4724-8.8108 8.6697-17.761 12.598-26.828" stroke="#ff58c4"/><path d="m282.02 353.6h9.9833m9.9833 0h9.9832m9.9833 0h9.9833m9.9832 0h9.9833m29.95 0h9.9832m9.9833 0h9.9833m9.9832 0h9.9833m9.9833 0h9.9832m9.9833 0h9.9833" stroke="#000"/></g><g><path d="m139.57 378.92c5.7303-0.78899 0.43427 1.852 0 0z"/><path d="m139.82 378.86c4.393-0.95748-0.24383 2.2254 0 0zm1.5611-0.1039c5.5554-0.51695-1.391 2.175 0 0z"/><path d="m128.55 380.73c3.4631 4.1799-2.4263-0.85467 0 0zm0.4479 0.5793c3.8212 1.4395-1.6174 1.4438 0 0zm1.1023 0.4851c4.7553 0.87074-2.4012 2.1578 0 0zm0.8865 0.1555c4.1342-0.35074-1.8655 2.6186 0 0zm0.5088-0.1289c3.9303-2.4817-1.0333 3.6292 0 0zm0.3624-0.351c2.5588-3.9159 0.62269 3.2361 0 0zm0.2988-0.6813c1.16-5.3326 1.7877 3.2996 0 0zm-0.5944-3.477c5.324 5.7264-3.0848 1.2542 0 3e-4zm-2.0758-2.2641c8.7294 5.9603-3.3453 1.917 0 0zm-0.377-0.4824c1.5778 3.4607-2.5206-0.98014 0 0zm0.7008-0.7324c1.8516 2.0424-4.2756 0.5139 0 0zm0 0c7.3532-0.66983-1.7278 3.2246 0 0zm2.1728-2e-3c6.7183 0.58899 0.0294 3.1512-0.40571 0.11633z"/><path d="m259.45 370.58c0.52976 10.966-1.3384 3.5002 0 0z"/><path d="m258.42 359.15c1.5735 1.8566-0.23636 8.8983-0.0541 1.749z"/><path d="m258.31 346.47c0.94151 5.9882-1.0859 5.0514-0.2161-0.1963z"/><path d="m258.11 335.32c1.1461 1.2669-0.10292 7.2974-0.0972 1.2136z"/><path d="m256.8 324.1c1.6072 1.275-0.21128 8.7059-0.0136 1.3727l0.0133-1.3727z"/><path d="m256.95 310.4c1.3639 8.1236-0.92935 7.1816 0 0z"/><path d="m255.44 301.13c-0.41537-8.4814 1.5497-3.5442 0 0z"/><path d="m255.54 282.83c0.98143 1.4303-0.7422 8.6363-0.3917 2.0389z"/><path d="m255.65 270.43c0.43734 6.4022-1.3935 4.3559 0 0z"/><path d="m255.42 260.6c0.37362 6.3978-0.96172 6.3128 0 0z"/><path d="m255.17 248.56c0.85481 2.0568-1.5449-0.22316 0 0zm0.0577 0.2981c1.0621 1.1877-1.9148 0.43088 0 0zm-0.2724-0.2908c1.7713 1.9272-2.3363 0.0892 0 0zm-0.6645-0.8271c2.9262 3.4467-2.905-0.29278 0 0zm-1.0947-0.5636c2.1507-0.68871 0.6442 3.4437 0 0zm0.6173-0.0967c1.6997 1.3778-2.1095 0.70942 0 0zm0.3308 0.2245c4.9115 4.8275-2.6506 0.48811 0 0zm1.3604 1.4971c4.5349 4.6318-3.3532-0.014 0 0zm0.4652 1.2888c-0.16437-4.0472 0.96048-12.029 0.97925-3.1481 0.0903 0.41038 0.10135 5.6629-0.97925 3.1481z"/></g><g transform="matrix(.54545 0 0 -.54545 -4.9065 572.47)"><path d="m483.32 353.42c-0.16642 3.8165-0.49209 14.574-0.4812 20.616 0.0615 13.661-0.15818-2.2958-0.2731-6.7671 0.56393-6.4919 0.81507-16.437-1.5759-4.7596-0.86332 5.2456-6.0913 9.7714-6.3997 14.561 2.6734 4.5636 4.9876-8.6508 4.6794-1.5896-1.0993 3.93-2.325 2.2762 0.5154 2.5696 0.48265-5.9046-5.6067-2.9946-7.2808-1.8105 2.2016-1.7444 9.7165-16.201 6.4861-10.602-3.7213 7.1497 2.5921-9.7098 3.1075-7.6009-0.3483 3.5115-1.7791 20.402-0.1702 7.8071 2.4974-7.9049 0.35081 3.7691 0.5161 5.727" fill="none" stroke="#ffffb5" stroke-linecap="round" stroke-linejoin="round" stroke-miterlimit="10" stroke-opacity=".5" stroke-width="5.1968" style="mix-blend-mode:multiply"/></g><g fill="#55e1ff"><path d="m262.1 327.67c1.5587-1.4463 0.66789 1.4596 0 0zm5e-3 -0.0176c1.3278-1.1942 0.74171 3.1717 0 0zm0.8111 0.2387c2.4924 2.5393-2.6469 0.26604 0 0zm0.46 0.3702c3.8172 1.8275-2.9002 1.1889 0 0zm0.4626 0.1361c3.6319-0.10442-1.7522 2.2859 0 0zm0.3381-0.0798c3.3685-1.7194-0.5227 3.318 0 0zm0.3149-0.2482c3.072-2.0848-0.19181 3.061 0 0zm0.2432-0.296c2.6446-2.6241 0.36188 3.0897 0 0zm0.1912-0.3477c1.4228-3.2094 1.2445 2.8438 3e-4 1e-4zm1.1272-1.5921c1.4573 5.9158-3.2924-2.0279 0 0zm-0.5617-1.2633c2.7174 5.021-3.5618-0.70452 0 0zm-0.5767-0.8323c4.053 4.4085-3.6558-0.35482 0 0zm-0.6376-0.4797c2.4856 1.6412-2.0755 1.3735 0 0zm0 0c1.8781 2.891-2.8918-0.55121 0 0zm-9e-4 0.6497c-1.1544 1.6108-0.64918-2.0017 0 0zm0 1e-4c3.2518 3.5198-2.8255-1.0106 0 0zm0.3984 0.6144c3.0166 2.9822-2.0405 0.57356 0 0zm0.8595 1.0227c3.1136 2.5954-2.0725 0.76621 0 0zm0.8781 0.8432c4.0575 2.8189-2.3614 0.94152 0 0zm1.179 0.9826c3.3008 2.5162-2.0854 0.9916 0 0zm0.987 0.9081c1.2436 2.9218-2.3451-0.56111 0 0zm-0.5466 0.4948c2.3101-0.55572-1.0214 2.0156 0 0zm-0.2405-0.1064c2.5924 1.4404-2.4025 0.67754 0 0zm-0.4867-0.5084c2.5472 2.9209-3.0629-0.0505 0 0zm-0.3616-0.6223c1.434 4.0303-2.8805-1.4453 0 0zm-0.1132-0.6925c0.18925 4.5351-2.4415-2.4255 0 0zm-1.0103-1.0622c2.6319-1.8059-0.17456 4.3466 0 0zm0 0c0.61568-5.5469 2.2838 2.879 0 0zm0.2352-1.0656c2.8039-4.2354 0.87941 3.3297 0 0zm0.4364-0.8364c3.4213-2.7129-0.0699 3.3697 0 0zm0.5432-0.5161c5.0985-0.44332-0.80257 2.5496 0 0z"/><path d="m271.84 327.1c4.7169-2.3156-0.15309 4.1481 0 0zm1.6657-0.1493c4.2274-0.12658-1.3434 2.1185 0 0z"/><path d="m271.79 324.7c3.3568-0.92297-0.10615 2.0861 0-4e-4zm1.154-0.1663c5.1598 0.0397-1.4875 2.1179 0 0z"/><path d="m278.1 327.77c0.53533-1.7281 0.87399 1.327 0 0zm-6e-4 -0.0155c1.5312-1.066-9e-3 1.3186 0 0zm1e-4 -1e-4c0.33527-3.4621 1.76 0.83171 0 0zm0.163-1.0443c0.39526-5.5829 2.681 1.8468 0 0zm0.2531-1.4453c0.99135-6.4404 2.486 3.1554 0 0zm0.3277-1.5314c0.49667-4.9792 2.9659 1.4352 0.0778 0.44271zm0.3806-1.5176c1.9894-2.6867 0.97178 2.8055 0 0zm0.4616-0.6804c3.1401 0.20055-1.0458 2.5482 0 0zm1.0635 0.5247c0.50301 5.4035-2.8319-2.209 0 0zm0.1635 1.0333c1.1988 4.9787-3.1079-2.0056 0 0zm0.0981 1.3726c1.3942 7.1182-3.1159 1.1639-0.19087-0.38736l0.18827 0.35396 2e-3 0.0334zm7e-3 3.4172c1.0007 7.216-3.0128-0.42964-1e-4 -4e-4h1e-4zm-0.0133 2.9984c-1e-3 3.2385-2.3244-2.1597 0 0zm0.0548 0.2857c0.87 2.932-2.5952-1.0257 0 0zm0.1529 0.2713c1.5401 2.1321-2.4283-0.16573 0 0zm0.0611 0.0238c3.444 0.50562-2.2672 2.0387 0 0zm0.2823-0.0296c4.1486-0.61812-1.5067 2.7244 0 0zm0.7341-0.156c6.9383-1.0534-0.85553 2.9875 0 0zm2.2889-0.1414c8.5727-1.9231-1.5204 3.9192 0 0zm2.7675-0.1895c6.5011-1.5577-1.9877 3.2063 0 0zm1.7944-0.1954c7.7892-0.50392-2.5565 2.8132 0 0z"/><path d="m284.56 328.27c0.91838-2.3463 0.78135 1.8694 0 0zm0.6717 0.2191c-1.6548 0.98794 0.0575-2.0981 0 0zm0.2316-1.0575c-0.83818 4.4376-1.7212-2.7504 0 0zm-1.0342-1.2309c2.5126-2.0481-0.0305 4.6674 0 0zm0-1e-4c1.3364-4.2249 1.8312 2.245 0 0zm0.3093-1.0752c3.4236-2.1502 0.21654 2.9067 0 0zm0.9888-0.525c4.5352 2.5927-2.7841 1.3746 0 0zm1.0552 0.5191c2.468 3.3619-3.1328-0.13119 0 0zm0.618 0.9247c3.9034 4.6995-4.0874-1.364 0 0zm0.3936 1.0264c1.1382 3.7598-2.4564-1.137 0 0zm0.302 1.0058c0.43885 2.8711-2.409-1.3105 0 0zm0.1009 0.4286c-0.34575 1.7592-1.6457-1.1501 0 0zm-0.1023-0.3149c0.75175 2.5849-2.7662-1.2415 0 0zm-0.1945-0.7677c0.62814 3.4377-2.2678-1.407 1e-4 0zm-0.2469-1.3422c1.6583 4.8204-3.2037-1.7518 0 0zm-0.2564-1.845c1.9873 6.7776-3.4454-2.1902 0 0zm-0.3111-2.0486c1.3471 7.9659-3.3381-2.4672 0 0zm-0.3925-1.6853c1.6355 6.4498-3.4142-1.5313 0 0zm-0.4979-1.2354c2.4561 5.0125-3.5054-0.92271 0 0zm-0.4589-0.7489c1.8925 3.1612-2.7645-0.0442-5e-4 0zm-0.6019-0.3276c3.1862 2.3079-2.7624 0.8298 0 0zm-0.8733 0.3084c2.6964-1.2928 0.0144 2.3591 0 0zm-0.3301 0.6626c1.2534-2.6906 1.4658 1.9819 0 0zm-0.1803 0.7492c0.76294-3.049 1.666 1.5982 0 0zm0 0c2.3276-1.2013-0.51747 2.9053 0 0zm0.7978 0.7764c0.43949 4.3429-2.1805-1.8658 0 0zm0.1966 0.7779c2.3915 3.5013-2.5766-0.058 0 0zm0.6062 0.8937c3.493 2.3918-2.6428 1.0548 0 0zm0.8404 0.6357c5.1158 1.8355-3.3411 1.5308 0 0zm0.94 0.2738c7.0155 0.0736-2.9243 2.4544 0 0z"/></g><g fill="#ff58c4"><path d="m257.67 389.04c0.65994-1.9701 0.88821 1.0039 0 0zm0.5637-0.0911c0.62712 2.0436-1.4959-0.55921 0 0zm0.0825 0.1588c2.4481 1.4213-2.1091 0.83269 0 0zm0.4024 0.1489c3.6113 0.77634-2.0271 1.7322 0 0zm0.6101 0.0595c2.9875-0.67039-1.0518 2.3841 0 0zm0.3241-0.1064c2.552-2.8447 0.23529 3.0577 0 0zm0.1992-0.3973c0.76727-4.0977 1.9046 2.3857 0 0zm0.7948-2.5544c2.1172 4.6538-3.0825 0.39477-0.30106-0.31137zm-0.5848-1.2323c2.3974 4.2772-3.0248 0.14287 0 0zm-0.1371-0.1563c1.0173 2.0646-2.3423-7e-3 0 0zm-0.8351 0.1804c1.524-1.9521 0.67704 2.5921 0 0zm0.8679 0.3433c-1.5953 1.1531-0.20818-1.8827 0 0zm-0.0125-0.0187c0.31069 2.8428-1.8906-1.7524 0 0zm0.1399 0.4113c1.8263 3.3466-2.1124-0.56885 0 0zm0.435 0.874c2.5643 2.4138-2.2781 0.51758 0 0zm0.5871 0.8518c2.3926 2.8185-1.9834 0.4706 0 0zm0.6671 0.9165c2.0103 2.9215-2.2374 0.18766-5e-4 0zm0.5343 0.8989c1.3325 2.9997-2.2712-0.30984 0 0zm0.3362 0.753c0.78092 2.758-2.5829-0.95688 0 0zm-0.7167 0.3543c1.6864-1.0793 0.28582 2.0358 0 0zm0.6515-0.2931c0.98308 2.358-2.6279-0.4641 0 0zm-0.2525-0.5693c0.93509 3.8264-2.6053-1.4661 0 0zm-0.2522-0.9445c1.1075 3.8297-2.5216-1.4047 2e-4 0zm-0.0902-0.9877c0.46156 4.0535-2.3691-1.8512-8e-4 -0.0299zm-1.1033-0.8864c2.3878-2.0112 0.10174 3.9198 0 0zm0 0c0.99298-3.8612 2.0564 2.0409 0 0zm0.2297-0.9344c2.6247-2.996 0.75551 2.795 0 0zm0.5165-0.6984c3.7713-1.8652-0.68387 3.2291 0 0zm0.5399-0.3813c5.229 0.5013-1.0772 2.4055 0 0z"/><path d="m266.45 388.88c5.6952-0.24553-1.0822 2.1604 0 0z"/><path d="m266.79 387.03c5.4978-1.2428-0.96902 2.2737 0 0z"/><path d="m275.03 397.08c0.14557 2.7052-1.4577-1.2183 0 0zm0.0543-1.0813c1.8428 5.2867-2.6003-2.1041 0 0zm0.0398-1.2525c0.0341 4.8128-2.1746-1.875 0 0zm0.013-1.6631c0.23236 6.0079-2.5351-1.9607 0 0zm-7e-3 -2.0315c0.66536 6.4579-2.7845-2.1507 0 0zm-0.0173-1.8793c1.0402 6.7299-2.9805-2.3223 0 0zm-0.0122-1.7093c0.79916 6.0994-2.7454-2.0509 0 0zm-1.0164-1.2121c2.6179-1.7473-0.1289 4.7661 0 0zm0-1e-4c-1.1628-5.9694 2.6923 2.7926 0 0zm0.0516-1.0355c0.19242-4.1171 1.9536 1.9461 0 0zm0.0683-1.61c2.1094-1.3011 0.0258 2.8877 0 0zm-0.1696 0.3279c1.5963-2.3918 1.0144 2.6086 0 0zm-0.2456 0.3425c2.5329-2.2664 0.0575 2.8282 0 0zm-0.4614 0.5283c2.5626-2.7802 0.25721 2.963 0 0zm-0.4809 0.7371c2.1752-3.3826 0.93695 2.7798 0 0zm-0.455 1.6501c0.78637-4.8321 2.276 1.0064 0 0z"/><path d="m275.1 397.8c3.6954-0.6726-0.23861 2.3433 0 0zm1.2562-0.0625c4.9141-2.358-0.99971 3.6967 0 0zm1.2415-0.0465c5.8948-0.42843-2.1726 2.8809 0 0zm1.4303 2e-3c7.0803-1.1108 0.51237 3.0401-0.37974 0.14971z"/><path d="m278.53 396.5c0.84787-1.4607 0.77343 1.4307 0 0zm0.6334 0.1055c-0.0929 0.063-0.50846-0.58749 4e-3 -0.0414l-3e-3 0.0409zm0.077-0.5237c-0.40875 2.3192-1.4346-1.5764 0 0zm-0.8602-0.9915c2.2738-2.2022 0.0379 4.278 0 0zm0 0c1.5215-3.4127 1.614 2.1266 0 0zm0.4144-0.8957c3.1576-1.304-0.41707 2.5232 0 0zm0.7158-0.3434c3.2511 0.42961-1.7027 1.9331 0 5e-4zm0.8543 0.1565c2.6042 2.0253-2.441 0.71759 0 3e-4zm0.7086 0.5413c1.7662 3.2184-2.7792-0.45165 0 0zm0.3704 0.6807c1.0193 3.2922-2.4853-0.98786 0 0zm0.2147 0.7008c-0.0316 2.3652-1.9858-1.4188 0 0zm0.0419 0.2887c-0.29941 1.5817-1.5293-1.1478 0 0zm-0.0969-0.1757c-0.0748 2.188-1.6076-0.83993 0 0zm-0.0335-0.1547c0.34165 2.4447-2.3122-1.2504 0 0zm-0.1089-0.6764c0.49555 3.5488-2.3396-1.6022 0 0zm-0.1285-1.1115c0.63573 4.7177-2.5416-1.8214 0 0zm-0.1838-1.3244c1.1189 4.62-2.8169-1.6751 0 0zm-0.2251-1.2788c1.354 3.9926-2.7538-0.0965-0.21331-0.32261zm-0.2954-1.023c1.2717 4.1996-2.696-0.81297 0 0zm-0.4574-0.6309c1.8822 2.5133-2.2508 0.53668 0 0zm-0.5132-0.1666c2.7168 0.80457-1.8842 1.6398 0 0zm-0.5999 0.3396c2.172-1.2712 0.0804 1.9988 0 0zm-0.3949 0.6449c1.5387-2.5162 0.9999 1.8693 0 0zm-0.2591 0.9475c0.62498-3.1824 1.597 1.2289 0 0zm0 0c1.7318-1.0608-0.24374 2.8839 0 0zm0.6854 0.7393c1.2419 2.6572-1.9486-0.61293 0 0zm0.3199 0.5667c2.653 2.384-2.1037 0.54379 0 0zm0.6703 0.6073c3.232 1.746-2.4072 1.2767 0 0zm0.6839 0.3749c2.4815 0.98325-1.9118 1.2735 0 0zm0.5248 0.1956c3.6974 0.75172-2.4418 1.5789 0 0z"/><path d="m278.24 389.33c2.2691 0.7058-1.0942 0.93043 0 0zm0.5337 0.1487c2.59 0.32482-0.98653 1.4431 0 0zm0.5977 0.0426c3.9807 0.34174-1.6678 2.0214 0 0zm0.8352 0.0162c3.8247-0.0557-1.2701 2.4404 0-5e-4zm1.0169 0.0419c3.4142 0.70183-2.0495 1.9708 0 0zm0.778 0.1569c2.3597 1.4947-2.3775 0.95165 0 0z"/><path d="m278.48 387.41c0.95929-0.91709 0.52471 1.8266 0 0zm0.5626 0.1096c1.8686 1.64-1.7198 0.3798 0 0zm0.3536 0.253c2.3111 1.433-1.8491 0.89991 0 0zm0.3967 0.1816c2.9428 1.2978-2.1487 1.168 0 0zm0.3569 0.041c3.235 0.4124-1.8646 2.0416 0 0zm0.3457-0.019c2.6478 0.11768-1.4541 2.0203 0 0zm0.0276-0.0137c2.2827-1.0885-0.41285 2.5538 0 0zm0.0798-0.0783c2.1143-1.8841 0.24243 2.5596 0 0zm1.0636-0.5317c-0.50174 3.8797-2.1047-2.1621 0 0zm-0.3987-0.7858c1.6677 4.3553-2.919-1.0861 0 0zm-0.4951-0.5616c2.2897 2.9587-2.7764 0.1775 0 0zm-0.4931-0.587c2.2398 2.5972-2.6607 0.41851 0 0zm-0.5953-0.6992c2.3155 2.6927-2.3611 0.46633 0 0zm-0.1509-0.1704c0.70425 2.2998-2.0315-0.79975 0 0zm-0.2353-0.4313c1.783 1.2088-1.9667 0.9802 0 0zm0 0c3.7762 0.0944-1.3283 2.2642 0 0zm0.8308-2e-3c7.9174 1.0011-2.1241 2.612 0 0z"/></g><path d="m256.35 327.67c0.39215 1.6704 0.28509 0.0771 0 0zm0.2011-0.0832c0.0823 3.5709-2.2498-2.6536 0 0zm-0.4989-1.0126c2.4542 0.40639-1.8706 2.8719 0 0zm0 0c4.579-0.90331-1.7185 2.6222 0 0zm0.8069-0.2152c3.2504 1.9821-1.9818 1.5705 0 0zm0.888 0.6777c0.93511 3.4408-2.5024-0.51902 4e-4 5e-4zm-0.9775 1.0892c2.7036-2.0978-0.33052 2.9092 0 0zm-7e-3 6e-3c0.77168 2.1998-0.14693 0.39473 0 0zm0.2758 0.0268c0.66742 2.9406-2.4685-1.1896 0 0zm-1.1678-0.5343c2.296-1.8159 0.2968 3.465 0 0zm-1e-4 0c2.0415-3.3469 1.6197 1.9323 0 0zm0.9372-1.0346c3.7879-0.15523-1.601 2.3302 0 0zm1.0975 0.0205c2.3218 2.9703-2.4484 0.70014 0 0zm0.614 0.9892c0.22541 4.2353-2.3238-1.5705 0 0zm-0.9415 0.7728c2.7352-1.1455-1.07 2.5225 0 0zm-0.54 0.0124c3.5221 0.18933-2.1363 1.991 0 1e-4zm-0.4005-0.0857c3.8903 2.1289-3.8514 0.69076 0 0zm-0.0904-0.2847c0.71336 3.5298-2.484-1.5599 0 0zm-1.1343-0.6541c2.5035-1.392-0.0122 3.3378 0 0zm0 1e-4c2.0559-2.5681 1.3056 2.2097 0 0zm0.776-0.7088c5.5193-0.45247-2.3995 2.5877 0 0zm0.9834-0.116c3.4363 0.99831-2.109 1.6783-0.0166-5e-4zm0.9761 0.3612c1.5018 4.0102-2.6979-0.72105 0 0zm-0.6579 1.1105c2.0716-2.5253 0.63984 2.6036 0 0zm-0.1802-0.0512c3.1516-0.0349-1.8879 2.0175 0 0zm-0.349-0.0986c2.8674 1.6436-2.9118 0.57923 4e-4 -2e-4zm-0.0896-0.155c0.66283 3.7954-2.7042-2.1424 0 0zm-0.4014-0.9523c2.4236 0.94715-2.3995 2.287 0 0zm0 0c3.5575-0.55534-1.2609 2.4444-4e-4 -2e-4zm1.0149-0.0965c2.7949 1.9577-2.3285 0.93734 0 0zm0.7723 0.5929c1.4456 3.0893-2.4982-0.0752-1e-4 -3e-4zm-0.7317 1.0134c2.418-2.2138-0.19474 3.2384 0 0zm-0.3078 0.088c3.5738-0.32209-2.282 2.5724 0 0zm-0.0818-0.0592c2.4853 2.4473-3.3531-0.22385 0 0zm-0.8701-1.3115c2.4167 0.32499-0.87958 4.3392 0 0z"/><path d="m138.65 326.82c1.8516-0.78093-1.1869 1.8811 0 0zm-0.0362-0.0884c-0.85279 1.6788-0.0396 0.27351 0 0zm-0.9841-0.5404c1.9666-1.2261 0.10403 3.0924 0 0zm0 0c2.4395-2.5077 1.0013 2.1638 0 0zm0.8322-0.6898c3.3138-1.1103 7.3e-4 2.3737-0.26661 0.27095zm1.1715-0.1551c2.8642 1.7276-2.1827 1.0293 0 4e-4zm0.8359 0.5844c0.82007 3.8805-2.5231-0.95942 0 0zm-0.9697 1.1759c2.242-3.1187 0.24439 3.4766 0 0zm-0.3508 0.1729c4.6439-1.0157-2.5252 2.9512 0 0zm-0.2525-0.1372c2.8091 2.3407-3.0321 0.0977 0 0zm-1.152-0.4573c2.2048-1.8324 0.6079 3.9242 0 0zm0 0c1.7257-3.4805 1.53 2.0684 0 0zm0.6493-1.0284c4.8459-1.0512-1.57 2.7784 0 0zm0.929-0.2778c3.891 1.3133-2.1924 1.6552 0 0zm0.9853 0.3005c2.1753 4.7383-2.9334-0.83232 0 0zm-0.4478 1.5489c1.1335-3.3965 1.1724 2.8612 0 0zm-0.482 0.0536c6.1812-2.617-2.0743 3.1395 0 0zm-0.609-0.0461c3.8376 1.238-2.849 1.0215 0 0zm-0.2196-0.239c2.0481 3.7505-3.2491-1.3697 0 0zm-0.1008-0.5635c2.1588 6.9467-2.8958-2.3284 0 0zm-0.5735-1.0815c2.3715 0.64489-1.8384 2.8248 0 0zm0 0c4.8788-1.401-0.98425 2.8266 0 0zm1.2743-0.2438c4.2776 0.78136-2.0049 2.0066 0 0zm1.3162 0.3487c2.053 5.4105-2.8062-1.274 0 0zm-0.6038 1.7114c1.4905-4.2901 1.1828 3.4449 0 0zm-0.3867 0.2005c3.0793-1.2872-1.1815 2.4975-3e-4 0zm-0.7225 0.0958c4.242-0.0291-2.1848 2.3036 0 0zm-0.2672-0.0653c3.5593 2.0987-3.4731 0.39952 0 0zm-0.1144-0.3657c0.89245 3.5036-2.3845-1.4671 0 0zm0.4126-1.9606c1.6335 0.52269-2.5456 4.6057-1.0831 0.9475z"/><g transform="matrix(.54545 0 0 -.54545 0 587.52)"><path d="m467.14 477.36h-51.903" fill="none" stroke="#000" stroke-linecap="round" stroke-linejoin="round" stroke-miterlimit="10" stroke-width="1.8189"/></g><g><path d="m255.9 327.14c1.0268 0.9067-1.1514 0.37094 0 0zm-0.0679 0.0449c1.2103 0.16883-1.1403 1.1518 0 0zm-0.5462-0.059c2.5131 0.25809-1.4687 1.3374 0 0zm-0.565-0.038c2.758 0.13009-1.5219 1.6694 0 0zm-0.1162 7e-3c1.7744 0.64391-1.3983 1.3567 0 0zm0.0248-6e-4c1.5652 0.95053-1.538 1.1223 0 0zm0.0244 6e-4c2.957 0.0946-1.6449 1.749 0 0zm0.543 4e-3c3.2367 0.0159-1.6191 1.7806 0 0zm0.6475-5e-3c1.9241 0.33-1.4408 1.5901 0 0zm0.2187-0.0138c0.0571 1.318 0.0415 0.61516 0 0zm-0.3404-0.0323c2.3233 0.48157-1.6998 1.5411 0 0zm-0.5982-0.0105c3.0848 0.0472-1.6426 1.9184 0 0zm-0.4379 0.0105c2.8707 0.17687-1.7973 1.8943 0 0zm-0.6329 0.2213c1.5465-1.1741 0.83197 2.1196 0 0zm0.3317-0.2282c2.0122 0.5625-1.4558 1.6358 0 0zm0.1233-0.0144c3.1778 0.0349-1.5006 1.9412 0 0zm0.6597 0.0119c2.7994 0.25637-1.6521 1.6857 0 0zm0.4941 0.0267c1.3681 0.73446-1.2115 1.0584 0 0zm-0.2028-0.0281c2.1045 0.43188-1.7625 1.5924 0 0zm-0.7553-0.0163c3.4601 0.0596-1.7084 1.9927 0 0zm-0.8481 0.0188c3.9182-0.0923-1.7515 2.1373 0 0zm-0.4364 4e-3c3.0062 0.0907-1.8935 2.0833 0 0zm-0.2989 0.1209c1.823-0.44824-0.34877 1.9511 0 0zm0.3583-0.1142c2.3072 0.73186-1.895 1.5011 0 0zm0.324 0.0455c3.516 0.25137-1.9398 1.7239 0 0zm0.7455 0.0532c3.7193 0.2392-1.9035 1.7174 0 0zm0.7359 0.0342c3.0554 0.29353-1.8086 1.6569 0 0zm0.5219 0.0252c2.5134 0.30339-1.5547 1.6985 0 0zm0.4065 0.0181c1.6011 1.1595-1.8189 0.9542 0 0zm-0.0114 4e-3c1.5381 1.2947-1.5232 0.79653 0 0zm-0.3585-7e-3c2.4418 0.30308-1.7008 1.7537 0 0zm-1.1912-0.0122c4.7604-0.0705-1.9109 2.1274 0 0zm-1.9311-0.0252c6.9625-0.26099-2.0876 2.5638 0 0zm-1.2941-2e-4c4.2108-0.31945-0.98649 2.1942 0 0zm-0.1933 0.0176c2.0465 0.41122-1.2826 1.5492 0 0zm0.0989 3e-3c1.1483 1.1479-1.383 0.52917 0 0zm-0.0559-4e-3c2.063 0.25971-1.1832 1.4524 0 0zm0.3734-1e-3c3.5797 0.1616-1.6633 1.7167 0 0zm0.7501 8e-3c3.605 0.1384-1.5308 1.7474 0 0zm0.8542 0.047c3.2814 0.0622-1.244 1.7642 3e-4 0zm0.9049 0.0577c5.9543-1.5244-2.1033 2.4622 0 0zm1.0588 5e-3c2.7876 0.0639-1.1634 1.7482 0 0zm-0.1276 0.0295c3.7093-0.21432-2.1252 2.3642 0 0zm-1.4247 0.0141c5.5389-0.20973-2.0341 2.3999 0 0zm-1.5383-0.0472c4.9761-0.41196-1.6342 2.5828 0 0zm-1.1165-0.0765c4.7327 0.24884-2.062 2.1913 0 0zm-0.7519-5e-3c3.806 0.23734-1.7314 2.0306 0 0zm-0.3075 0.0284c2.5033 0.14336-1.4747 1.8876 0 0zm-0.3922 0.362c1.9834-1.6479 0.19543 1.6104 0 0zm0.6589-0.2524c0.5177 2.1844-1.7261-0.6233 0 0zm-0.0852-0.0377c3.198 0.59106-2.1549 1.3976 0 0zm0.5764 0.0256c4.1068-0.54933-0.92096 2.4584 0 0zm1.3584 0.0448c4.2 0.0828-1.5593 1.8358 0 0zm1.0866 0.0562c4.3073-0.55735-0.92473 2.5632 0 0zm1.4332 0.0329c4.3206-0.698-0.8641 2.6607 0 0zm1.4466 0.0177c2.5463 0.18132-1.2512 1.6708 0 0zm0.5608 0.0126c2.13 0.55231-1.7543 1.6189 0 0zm0.051 5e-3c2.0069 0.43375-1.6988 1.7996 0 0zm-2.428-0.0206c7.663-0.31691-1.7428 2.5126 0 0zm-3.0657-0.0198c6.9328-0.91165 0.0891 2.7478 0 0zm-2.2122 2e-3c6.4671-1.1308-1.1381 3.3026 0 0zm-2.1957-7e-3c6.6188-0.8003-1.2921 2.8131 0 0zm-1.5815 0.0895c5.8162-0.56906-1.7319 2.4628 0 0zm-1.1314 0.162c4.6791-0.76896-1.5576 2.498 0 0zm-0.5845 0.0675c3.4802-0.18366-1.8708 2.3107 0 0zm-1.3229 0.011c5.2386-0.19997-1.8864 2.4296 0 0zm-1.7525-1e-4c6.2629-0.292-1.8488 2.6126 0 0zm-1.0185-0.0207c4.7323 0.28406-2.1937 2.1353 0 0zm-2.4931-0.0201c6.0465-0.85346-0.2236 2.8743 0 5e-4zm-2.5931-9e-3c6.2423-0.73699-0.12839 2.7176 3e-4 5e-4zm-0.8181-0.0178c3.3798 0.11605-1.3811 1.9502 0 0zm-0.8505-0.0119c4.1213 0.22235-1.9517 1.9924 0 0zm-0.862-0.0563c3.9274 0.20559-1.8282 2.1708 0 0zm-0.8306-0.0956c3.79 0.425-1.9125 1.8546 0 0zm-0.7172-0.0927c3.6756 0.73765-2.1218 1.6513 0 0zm-0.5872-0.1043c3.3569 0.72996-2.2101 1.5794 0 0zm-0.4663-0.0637c2.2978 0.50366-1.469 1.542 0 0zm-0.5325 0.0992c2.7874-0.49644-1.0574 2.2257 0 0zm-0.2261 0.0601c3.0446 0.0958-1.8815 2.0621 0 0zm-0.1558-0.0545c2.2451 1.3672-2.1905 0.76111 0 0zm-0.5375-0.2112c2.8606 1.1632-2.1824 1.3783 0 0zm-0.3111-0.0473c2.0138 0.68557-1.5038 1.4907 0 0zm-0.0612-1e-3c1.8895 1.0484-1.8088 1.3204 0 0zm0.0565 5e-3c1.7519 1.4127-2.0654 0.96682 0 0zm4e-4 3e-4c2.2044 0.66599-2.0141 1.6712 0 0zm0.2005 0.0218c3.7603 0.36425-2.1255 1.9279 0 0zm0.6851 9e-3c4.4493 0.15947-1.9939 2.1209 0 0zm0.9436-2e-4c3.9757 0.0242-1.4568 2.1733 0 0zm1.106 0.0595c4.6864 0.29085-2.0319 2.1577 0 0zm1.1213 0.0897c4.064 0.36205-2.1736 2.06 0 0zm0.7761 0.0504c6.0031-0.14223-2.0685 2.4084 0 0zm1.6169 0.0155c6.3186-0.25569-1.8738 2.5763 0 0zm1.774 0.0125c4.4837 0.2676-2.1322 2.1161 0 0zm0.9401 0.0226c4.3741 0.18239-1.9177 2.1553 0 0zm1.015 0.0564c4.7816 0.17674-2.0305 2.1838 0 0zm1.1507 0.0669c4.6064 0.0227-2.0613 2.1769 0 0zm1.0493 0.0147c3.9549-0.34829-1.2886 2.285 0 0zm1.0871-0.0513c5.9693-0.44108-1.665 2.5757 0 0zm1.6671-0.0449c6.8569-0.32339-2.1118 2.4882 0 0zm1.9086-5e-3c5.0026-0.0703-1.9499 2.2466 0 0zm1.2478 0.01c5.0934-0.0639-1.905 2.2716 0 0zm1.2997 0.0224c2.4724 0.65176 0.44498 1.2424 0 0zm0.5121 0.0146c2.849 0.11764-1.8861 2.0975 0 0zm-0.5919 0.0189c2.7255 0.0585-1.2683 1.8977 0 0zm-0.7884 0.0142c3.8445-0.0356-1.8562 2.0818 0 0zm-1.1713-0.0293c4.7488-2e-3 -1.8623 2.1646 0 0zm-1.2996-0.0591c4.9901 0.0654-1.7912 2.1681 0 0zm-1.1819-0.023c4.0252-0.17833-1.1215 2.1049 0 0zm-0.9125 0.0226c3.3183-0.22106-1.088 1.9718 0-4e-4zm-0.767 0.0819c2.8868-0.39889-0.89322 1.9612 0 0zm-0.6098 0.136c3.0563-0.65214-1.0964 2.1848 0 0zm-0.4483 0.1931c2.3948-1.0663-0.32876 2.2514 0 0zm-0.1302 0.3997c1.5824-2.2726 2.9635 1.7822 0 0zm1.4918-0.4607c4.5709-0.72882-1.0797 2.773 0 0zm1.4772 0.0215c5.3312-0.57236-0.94845 3.0134 0 0zm1.8303 0.0759c5.8886-0.43355-1.219 2.9924 0 0zm1.9141 0.0716c4.9216-0.11924-1.7849 2.2476 0 0zm1.2525 6e-3c4.6752-0.16403-1.7781 2.2388 0 0zm1.1418-0.0127c3.5037-0.45-1.0231 2.3132-1e-4 0zm1.0742-0.0219c7.5297-0.34539-2.6303 2.2936 0 0zm1.9332-7e-3c5.5435-0.68261-1.2264 2.5686 0 0zm1.7717-0.0269c4.0464-0.21003-1.6548 2.1967 0 0zm0.9093-0.0406c5.2892-0.2624-1.6543 2.3527 0 0zm1.4303-0.0126c4.8651-0.75765-1.0542 2.9242 0 0zm1.6101 0.011c3.1534 0.0499-1.9033 2.0291 0 0zm0.3373-0.0232c1.948 1.058-1.6755 1.0384 0 0zm-0.5698-0.0574c2.6005 0.43816-1.2754 1.4881 0 0zm-0.7303-0.0286c3.3226 0.26463-1.3227 1.5769 0 0zm-0.4053-0.0519c2.0818 0.56211-1.4561 0.9929 0 0zm-0.4155-0.1878c2.259 1.1484-2.0917 0.89641 0 0zm-0.5153-0.1843c2.6936 0.92391-2.0063 1.3041 0 0zm-1.4087-0.0369c3.8262-0.40194-0.81351 2.1793-2e-4 1e-4zm-1.4215 0.5178c1.1419-2.3186 3.3199 1.5956 0 0zm0.3693-0.5404c3.2211-0.16849-1.5355 2.0052 0 0zm0.6252-0.0373c3.4468-0.3434-1.0943 2.048-7e-3 3e-4zm0.9437-0.0554c3.568-0.37337-1.0597 2.1068 2e-4 0zm1.0114-0.0526c3.8525-0.35536-1.182 2.1668-3e-4 0zm1.0932-0.042c3.1784-0.12174-1.2201 1.9181 0 0zm0.511 0.0262c1.9064-0.92534-0.61778 2.761 0 0zm0.1139-0.1228c2.054 0.74002-1.8601 1.4648 0 0zm-0.9075-0.0117c3.9971 0.019-1.8235 1.9944 0 0zm-0.9677 0.01c4.16-0.10173-1.7114 2.1028 0 0zm-0.5448-9e-3c3.1043 0.18326-1.763 1.9227 0 0zm-0.6272-0.0405c3.4843 0.43584-2.0282 1.8015 0 0zm-0.393-0.0342c2.8052 0.35971-2.0177 1.8365 0 0zm-0.4653 0.3789c1.3561-1.5299 0.76736 1.6858 0 0zm0.4173-0.3833c3.1279-0.0443-1.6961 2.0068 0 0zm0.5466-0.0259c3.8645-0.42701-1.1369 2.1786 0 0zm1.1141-0.0535c3.513-0.37162-1.1242 2.114 0-3e-4zm0.9412-0.0694c2.4404-0.0416-1.0668 2.1282 0 0zm0.1993-0.0251c2.0893 0.75205-1.4871 1.4788 0 0zm-0.2264 0.0137c2.5188 0.50551-1.821 1.8624 0 0zm-0.6546 0.0488c2.9018-0.0989-1.2631 2.0624 0 0zm-0.9622 0.0857c4.3587-0.41004-1.8068 2.3912 0 0zm-2.2998 0.3088c5.2393-1.3836 1.9992 2.3256 0 0z"/><path d="m226.46 327.86c1.5455 0.32701-1.128 0.97759 0 0zm-0.2822 0.2425c0.72296-0.88255 0.4222 0.87903 0 0zm0.2546-0.2499c2.2061-0.22619-0.55068 1.3535 0 0zm0.5363-0.0693c4.245-1.4444-0.17906 3.124 0 0zm1.5746-0.0693c4.5834-0.23855-1.4804 2.0215 0 0zm1.2192-0.015c2.3952 4e-3 -1.0688 1.6694 0 0zm0.5275-0.0233c2.5015 0.0784-1.5946 1.8362 0 0zm0.103 0.0741c1.4868-0.23448-0.32576 1.567 0 0zm-0.1853-0.0376c2.5792-0.11765-1.4631 1.957 0 0zm-0.8652 0.036c3.8969-0.20425-1.6821 2.065 0 0zm-0.7153-0.0163c3.561 0.13172-1.8841 1.946 0 0zm-0.4659-0.0663c2.8857 0.61613-1.9915 1.645 0 0zm-0.722 0.2124c1.5254-1.2 0.83904 1.976 0 0zm0.3694-0.28c2.665-0.0587-1.5778 2.0411 0 0zm0.3747-0.0374c2.886-0.27791-1.0872 1.9911 0 0zm0.6677-0.0833c3.712-0.24776-1.6176 2.135 0 0zm0.7219-0.0783c4.5953-0.97014-0.91495 2.8936 0 0zm1.4995-0.0283c5.4645-0.16165-1.733 2.319 0 0zm1.502 0.0152c2.8159 0.20031-1.5143 1.725 0 0zm0.6394 0.0304c2.7832 0.20283-1.9289 1.911 0 0zm0.1926-0.0104c1.8441 0.91904-1.5574 1.0566 0 0zm-0.8084 0.0347c2.956-0.22929-1.017 1.9209 1e-4 -3e-4zm-1.2458 0.0969c4.6848-0.54015-1.4292 2.2033 0 0zm-1.1136 0.0636c4.4909-0.34974-1.6372 2.0861 0 0zm-0.7044 0.0264c2.837-0.14013-1.1936 1.8055 0 0zm-0.3021 0.0121c2.3864 0.15814-1.6121 1.8212 0 0zm-0.3972 0.2415c1.0553-0.97062 0.45866 1.6099 0 0zm0.3474-0.2412c1.9981 0.42402-1.3986 1.5983 0 0zm0.184-0.0171c4.5651-0.58178-0.65365 2.0837 0 3e-4zm1.7051-0.0105c5.5778-0.73797-1.1684 2.2924 4e-4 -4e-4zm1.8752 5e-3c2.6657 0.37435-1.7448 1.4916 0 0zm0.0522 0.1096c1.767-0.44185-0.62074 2.0714 0 0zm-0.1584 0.0261c1.9064 0.0256-1.07 1.5094 0 0zm-0.5982 0.0457c3.1155-0.16982-1.5166 1.8829 0 0zm-0.7501 0.0351c3.4506-0.17174-1.4914 1.9296 0 0zm-0.6839 0.012c3.3853-0.0216-1.6828 1.8619 0 0zm-0.6333-0.0748c3.3143 0.49677-1.9768 1.6073 0 0zm-1.1312-0.0808c4.2886 0.18231-1.5307 1.866 0 0zm-0.6808-8e-3c3.3474 0.39236-1.8011 1.5301 0 0zm-0.4835-0.0295c1.3723-0.25467-0.12961 1.6341 0 0z"/><path d="m225.52 325.69c2.5417 1.8076-1.6477 0.66109 0 0zm0.5907 0.4494c1.974 2.1165-1.7399 0.45112 0 0zm0.5324 0.6215c3.1888 2.5253-2.619 0.97188 0 0zm0.7627 0.9829c3.9325 3.1621-3.0114 0.13284 0 0zm0.6954 0.8671c2.1463 2.3528-2.5222 0.0831 0 0zm0.4101 0.4176c1.7727 2.0862-2.3824 0.13534 0 0zm5e-3 0.1382c2.5623 0.54728-2.2796 1.4469 0 0zm0.1386-0.1365c1.6976 1.8838-2.1257 0.0286 0 0zm-0.3387-0.4346c1.5898 2.5122-2.0555-0.29563 0 0zm-0.4054-0.6411c1.8073 2.792-2.171-0.38648 0 0zm-0.4704-0.6909c1.9873 2.7881-2.1465-0.13352 0 0zm-0.5505-0.6594c2.2778 2.5949-2.1174 0.13137 0 0zm-0.5582-0.4659c2.5113 2.1694-2.031 0.36029 0 0zm-0.3952-0.3275c1.7681 1.6487-1.6421 0.34705 0 0zm-0.3036-0.3042c1.6276 1.7505-1.7765 0.10051 0 0zm-0.4474-7e-3c1.3393-0.18691-0.25564 1.1061 0 0zm0.4801 0.1394c-0.29011 1.1814-0.88047-0.84345 0 0z" fill="#ff58c4"/><path d="m225.33 325.38c1.3229 1.5524-1.922-0.16851 0 0zm-0.4848 0.0532c1.09-0.83311 0.16515 1.485 0 0zm0.4898-0.0483c1.2656 1.7785-1.7965-0.063 0 0zm0.2274 0.2774c1.8046 2.0908-1.7498 0.30532 0 1e-4zm0.4821 0.6197c3.2383 3.5007-2.1988 0.43303 0 0zm0.9215 1.2356c2.9584 3.694-2.4369 0.0396 0 0zm0.7776 1.06c1.4178 2.161-2.2611-0.31889 0 0zm0.254 0.345c1.132 1.8587-2.0299-0.18736 0 0zm0.2105 0.2812c-0.0199 1.8408-1.294-0.87242 0 0zm7e-3 0.0124c0.24172 1.5181-1.5173-0.51824 0 0zm-0.2184-0.3384c1.2684 2.0814-1.9956-0.38895 0 0zm-0.4322-0.6147c1.6493 2.0806-1.7562 0.16114 0 0zm-0.6485-0.8134c2.5474 2.9708-2.1531-0.0619 0 0zm-1.0011-1.2389c3.5054 3.3326-2.2553 0.41782 3e-4 -3e-4zm-0.7037-0.9008c2.7712 3.2935-2.3665-0.0538 0 0zm-0.1699-0.2427c1.0608 1.8728-2.0811-0.2546 0 0zm-0.5647-0.0846c1.5586-0.30596-0.31858 1.6224 0 0zm0.5892 0.2474c-0.68554 1.6262-1.0738-1.246 0 0zm-3e-3 0.0716c2.1188 2.6802-2.3654-0.46731 0 0zm0.444 0.6881c3.1312 3.4018-2.1413 0.56896 0 0zm0.8946 1.2097c3.7023 3.1488-2.6715 1.3424 0 0zm1.068 1.2708c3.3136 3.592-2.6252 0.22497 0 0zm0.8597 1.0043c1.978 2.9714-2.1744-0.10166 0 0z" fill="#ff58c4"/><path d="m192.89 379.25c2.7389-0.81951-0.39767 2.3935 0 0zm0.5326-0.1384c3.7646-0.15803-1.2816 2.5605 0 0zm0.7359-0.0749c4.2253 0.52374-2.3563 2.2958 0 0zm0.6695 1e-3c4.6028 0.58131-2.5919 2.4022 0 0zm0.7593 0.012c4.9252 0.58797-2.6729 2.4058 0 0zm0.9022 0.0119c3.6197 0.75058-2.6302 2.1672 0 0z"/></g><g transform="matrix(.54545 0 0 -.54545 0 587.52)"><path d="m461.01 413.17c-0.38575-0.56616-1.7199 1.4121 1.1988-4.6183 2.4707 4.5003 11.904-1.1524 8.9839 6.812-0.71353 10.852 1.9434-12.519-0.1213 4.1484-1.3018 8.1571-1.2187 16.669 0.5445 2.7728 0.51805-12.237-0.98693 15.045-1.2833 17.174 0.89919-8.8038 1.5762-26.765-1.1224-5.9927-6.0323 22.345 3.2446-30.075-2.7449-6.8073-5.5514 17.875 5.3672-22.836-1.1535-4.1366-8.7672 18.388 5.405-3.5914 1.55-8.0242-5.9704 3.1335-7.7659 15.469-2.8432 2.0121 2.5997-11.992-12.195 21.722-5.2453 4.8666 7.0871-18.463-5.4308 7.6847-4.2295 4.9774 4.3393-6.596 7.7992-19.641 1.3836-5.3991-3.7031 6.1633-14.452 30.002-3.3036 11.112 4.7646-7.7603 8.7607-11.716 1.7543-1.127-4.9521 7.1509-11.599 28.336-2.2868 9.5712 2.1768-5.0033 14.492-25.427 6.0098-8.5345-2.7494 5.5594-12.785 27.991-3.4846 11.387 2.8694-6.4489 11.865-22.057 4.3102-5.9777-4.6073 8.6224-8.6697 20.743-0.18723 5.821 3.5216-6.7566 9.1972-19.794 3.2422-4.1374-2.4614 7.3346-8.3932 25.029-0.85496 7.956 6.9784-20.306 4.8979 3.9659 1.9119 11.328 1.7794-6.7523 6.9195-28.789 2.3644-8.871-1.6704 24.798 4.6625-16.801 4.0126-8.7915-2.0637 6.2824 0.86754 25.162 1.0746 7.7839 2.3035-19.388-0.0751 3.3271 0.7971 6.3893 0.39374-7.8804-0.63334-18.277 0.1574-3.6235 1.1102 7.3464-0.43774 33.838-2.118 12.447-0.0921-6.5153-2.7835 22.497-2.0552 2.9368-0.12964-5.7535 1.9312-19.423-0.61258-4.7168-3.3185 17.214-4.0771 2.0168-1.8518-5.5714-0.25942 8.1726-8.9009 28.042-2.7145 8.5842 2.5202-9.215 5.1572-18.146-0.30931-2.5122-1.776 6.924-9.7803 16.775-3.6697 3.532 2.7443-8.2719 5.8861-17.386 0.0862-2.944-3.3405 8.3732-11.321 14.629-3.6295 2.1777 2.147-4.5646 11.328-25.11 3.4332-9.1883-3.7374 8.0981-17.044 26.701-5.9358 7.1811 4.9135-9.0797 3.5891-13.268-2.2437-2.3807-2.705 5.078-13.974 18.275-5.2512 4.5551 3.6126-6.2768 12.422-23.203 2.6753-7.439-5.1282 7.9178-14.357 17.701-4.4019 2.8263 3.2746-6.8871 13.139-25.347 3.7373-7.5049-2.5378 5.6834-17.67 20.521-6.4787 6.3173 4.9923-5.844 16.095-22.907 3.6435-7.5532-5.8239 6.4399-13.411 13.839-3.3265 0.9513 2.5933-2.9404 12.953-28.429 4.0728-11.873-5.132 7.7156-12.526 17.535-2.6941 3.0121 4.1965-5.0637 15.283-25.463 5.6315-8.3813-5.9636 14.854-16.609 26.731-25.571 39.696 3.3699-3.878 18.717-31.385 14.38-22.251-4.2411 8.6586-17.941 25.442-17.407 29.391 3.3451-6.557 28.73-30.767 13.795-12.04-5.4723 5.3631-13.76 20.927-2.36 6.634 5.4316-8.3147 10.721-10.567 2.2138-0.7628-3.8774 4.0474-13.86 16.972-2.9356 5.6458 5.7692-7.0347 22.172-20.306 8.5677-4.7954-4.3982 4.0317-17.707 19.234-4.285 6.3216 4.156-4.7713 22.009-19.361 9.2862-5.9216-3.9901 3.5186-19.56 20.553-5.6817 7.8198 4.3557-4.1019 22.134-20.698 9.3561-5.4304-3.3236 3.5765-20.121 19.871-6.7439 7.6212 4.2601-4.2408 20.609-20.391 8.7153-5.775-3.8116 3.8585-17.955 19.723-5.4508 7.7931 4.9416-5.2668 25.232-26.158 10.711-7.3918-3.945 5.1611-18.894 22.054-4.9858 7.2441 5.4982-7.0819 19.467-19.32 6.5108-4.1962-15.836 17.748 6.4764-8.0534 9.2394-10.791-4.8496 7.4637-16.168 21.563-4.1395 5.9147 6.2555-8.3519 9.1264-9.9887 2.3431-0.2162-4.6225 6.6241-11.221 13.651-1.242 2.4168 14.072-18.244-3.1572 7.4852-7.9012 11.746-4.172 5.2668-26.796 28.483-11.186 9.3728 2.358-3.7079 17.022-18.938 5.3262-7.095-6.6933 6.4393-17.287 17.186-23.314 19.684 2.9662-4.4774 22.031-25.654 18.58-19.824-5.7575 5.5375-20.206 17.888-23.885 18.507 3.7874-4.4469 21.27-22.404 19.97-19.715-6.5804 6.2771-19.883 14.569-23.91 19.02 5.1384-5.4774 21.521-23.642 20.124-21.696-4.4901 4.5628-20.564 17.713-19.326 16.401 4.3417-5.0923 23.046-20.101 18.772-17.985-6.6746 4.6549-20.982 15.984-23.402 17.732 3.1225-4.1468 16.966-17.494 17.515-18.552-5.8988 5.3478-17.719 14.894-20.912 17.958 5.1174-5.6718 24.359-30.528 8.7859-12.694-4.0843 4.3991-18.091 18.146-6.1172 5.1799 5.0276-5.2705 21.53-25.858 6.438-9.6863-7.2124 6.7932-16.067 17.285-4.6364 3.0284 3.4283-4.2042 13.28-18.894 3.53-6.4876-4.0802 5.0584-15.37 15.307-4.1282 3.4014 3.7432-3.5634 13.505-18.132 3.372-5.8453-13.934 17.022 6.1258-9.1909 7.2414-12.706-10.361 10.895-16.247 25.74-27.036 36.57-13.429 15.553 10.324-15.827 15.034-19.028 9.9761-12.123-10.215 9.3565-12.472 12.798-5.6438 5.306-22.274 27.208-6.4535 10.423 6.2993-7.0832 20.336-8.4948 6.3457 0.72435-8.5568 7.0719-8.2754 13.52 0.4456 3.239 6.517-6.5448 18.559-15.444 5.5114-2.5507-4.2286 4.2294-16.318 18.094-4.0376 6.8173 5.0745-4.2344 24.1-18.273 9.0636-4.8884-5.8563 5.6678-25.63 20.72-7.0403 7.4678 4.7729-3.2605 26.496-16.99 11.378-4.8474-5.7403 3.998-32.087 22.012-12.027 9.7436 7.2149-3.7966 28.353-19.526 10.456-5.2281-5.6661 3.8042-24.586 18.727-8.3425 7.7891 3.9893-1.8979 25.187-17.929 11.451-5.3038-7.3256 6.187-19.784 15.505-4.3062 4.5504 4.8979-3.124 30.796-26.47 13.363-11.39-7.5017 5.5593-12.047 12.659-1.1416 3.4082 5.2796-4.1904 26.174-22.762 10.05-7.2231-5.1742 5.4767-27.618 27.152-9.7117 11.071 3.9575-5.1493 29.291-27.108 11.07-9.9252-6.1014 8.0129-27.695 23.566-30.278 23.945 5.2814-4.8877 29.766-23.062 11.521-8.8959-11.968 9.5253-25.107 17.618-39.002 23.697 13.445-7.9365 26.952-16.608 40.612-23.976-10.452 15.614-29.768 20.411-44.278 30.382 16.866-5.7181 27.911-22.367 42.261-30.704-14.35 16.122-33.889 25.868-51.737 37.154-8.9731 6.453 14.109-6.3321 17.477-8.4017 5.611-4.6591 25.162-18.639 8.6414-4.7365-6.5831 2.6234-27.587 17.268-27.328 14.458 11.403-6.9953 23.35-20.441 33.617-24.786-10.067 5.0314-28.201 19.409-33.682 21.166 7.707-6.8727 28.013-22.74 30.794-22.755-6.8838 3.017-33.974 16.898-29.778 17.129 10.141-7.3027 30.196-23.416 36.63-21.339-8.4508 5.6506-27.807 14.975-32.601 14.738 8.2025-5.3191 26.98-15.516 30.472-17.973-7.8022 3.7309-32.352 19.111-31.014 17.283 5.5126-4.308 25.361-21.904 24.984-18.819-5.71 4.3621-27.741 21.719-24.836 17.856 4.4326-4.2481 30.426-27.497 25.138-22.329-7.9982 6.1689-20.011 19.99-25.971 22.964 7.3434-8.9127 17.527-23.583 25.563-27.663-7.1422 6.6347-17.146 20.642-22.478 23.235 4.3338-9.6767 19.365-24.916 23.567-27.486-9.4015 7.4885-18.934 20.912-27.515 26.054 2.0706-5.8374 25.425-29.135 21.422-23.928-5.1493 5.1387-20.943 22.558-22.238 22.792 8.1886-9.2118 22.593-24.434 29.59-28.611-6.9773 5.5179-18.931 18.888-23.387 20.302 4.6077-6.2948 16.027-18.882 18.676-21.032-3.0309 2.9072-21.868 21.039-18.194 15.304 4.6371-6.3813 20.754-20.08 6.3795-6.0869-7.4627 6.2671 19.364-20.114 4.2129-4.9331-14.25 14.579 14.648-15.653 0.8715-1.0274-6.4918 8.3963-22.036 21.75-25.93 26.188 3.377-3.8583 26.473-23.978 10.56-11.176-5.9585 4.8096-15.726 13.23-19.51 16.952 3.4098-5.7879 28.833-26.479 14.555-10.097-3.5972 3.3943-25.813 26.628-19.737 20.846 5.3814-5.4001 18.113-18.868 21.535-18.791-6.8282 7.2318-23.807 23.687-26.619 25.862 7.0571-6.6186 19.149-19.607 25.283-20.558-4.0474 4.8275-24.455 22.482-22.207 20.968 6.9095-5.6614 17.916-17.031 24.016-17.812-7.037 6.7668-19.302 15.881-24.81 20.569 5.0758-4.4758 32.416-21.411 14.153-7.1039-5.5439 4.3224-21.593 15.011-6.8744 5.5415 3.7302-3.1344 23.616-11.646 8.7811-3.1483-3.489 2.7004-23.449 12.407-8.4398 4.6364 5.4649-3.4738 20.201-6.4888 5.9529 0.29567-8.43 4.1568-18.317 8.6617-2.8406 1.539 10.442-3.9938 11.558-2.7989 0.565 1.6412-15.906 7.3451 4.8927-2.4874 9.4361-4.088-12.716 5.8082-25.371 12.258-38.504 16.852 6.3372-3.4801 28.772-15.261 9.3952-5.9617-7.6352 4.2095-18.505 8.3415-5.0598-0.20601 3.8532-3.3511 24.696-14.372 7.7147-5.2384-5.2612 3.4266-24.357 13.258-10.232 2.6047 3.0737-3.4828 28.663-18.705 11.644-7.8974-6.6052 5.0707-27.523 16.339-9.6944 3.0766 2.9269-3.5092 27.174-18.697 22.04-15.672-6.3022 3.4322-25.211 17.887-24.901 15.777 5.5341-5.9454 27.023-21.866 26.266-22.665-6.3367 4.1465-30.692 23.575-12.366 7.8835 7.2583-5.13 18.633-15.101 4.1483-4.6397-13.956 11.414-28.377 22.963-43.346 32.585 5.8816-4.3836 34.903-24.439 14.172-8.9267-5.3465 3.3301-21.985 18.427-6.6786 7.1457 4.2237-3.3897 22.673-11.643 7.7553-2.4065-7.2991 3.9724-16.519 12.774-3.1111 5.2522 7.2779-3.5767 21.384-8.6152 4.7751-0.9475-4.8775 4.4312-28.824 4.3479-9.5824 0.41746 8.7214-2.9387 16.702-3.2611 3.4419 0.94894-9.9533 2.989-15.416 6.6289-1.0204 1.8196 9.2528-2.9644 12.986-3.061 1.8915 0.7312-21.76 8.1455 9.2293-2.8622 14.252-4.6122-14.485 4.0781-28.116 11.832-43.506 11.708-6.5277-0.62069 16.78-6.6493 19.963-11.62-6.263 4.468-20.554 11.174-6.1488 1.9803 19.545-9.5991-7.108 2.1808-11.432 6.2241-4.5764 5.2876-12.118 5.2776-17.614 8.879" fill="none" stroke="#ffffb5" stroke-linecap="round" stroke-linejoin="round" stroke-miterlimit="10" stroke-opacity=".5" stroke-width="5.1968" style="mix-blend-mode:multiply"/></g><g><path d="m144.6 326.46c5.9916-0.88704-0.80525 2.299 0 0z"/><path d="m151.18 327.01c6.9172-0.75743 0.87499 2.3307 0 0z"/><path d="m160.6 327.09c7.7736-1.6397 2.8237 3.2707 0 0z"/><path d="m170.3 327.47c8.9719-0.70034 3.5588 1.9133 0 0z"/><path d="m180.1 327.78c3.0822-0.76642-0.54807 1.6184 0 0zm0.7305-0.1869c3.7619-0.43538-0.97847 2.1227 0 0zm0.8454-0.1045c3.8428-0.1044-1.1998 2.1715 0 0zm1.0217-0.015c5.3681-0.93669-2.1846 2.6062 0 0z"/><path d="m189.57 327.84c9.3724-1.3004 2.6449 2.2622 0 0z"/><path d="m197.52 327.86c6.8711-1.0294 0.63012 1.946 0 0z"/><path d="m206.01 327.15c5.4123-0.86297 2.218 2.5965 0 0z"/><path d="m211.91 327.11c3.7641-0.70296-0.50737 1.7087 0 0zm0.8975-0.1763c3.9107-0.0562-1.5526 1.784 0 0z"/><path d="m216.89 327c5.4062-0.32923-0.82346 1.917 0 0z"/><path d="m222.44 327.31c4.1201-0.55046 0.11801 1.4514 0 0z"/><path d="m127.05 327.81c0.30098 5.7406-2.4638-2.5338 0 0zm-0.9916-1.0613c2.5467-1.8148-0.1671 4.2249 0 0zm0 0c2.5751-5.2974 1.251 3.2218 0 0zm0.4484-1.1274c4.4911-2.0951-0.60781 3.0552 0 0zm0.9714-0.5358c3.9679 1.2379-1.6809 2.0976 0 0zm1.2438 0.5947c3.2162 4.6997-3.5208-0.2444 0 0zm0.7735 1.3285c2.1759 4.7558-3.2691-0.97101 0 0zm0.494 1.4847c3.3453 4.6551-3.1756 0.16516 0 0zm-0.7878 1.2204c0.77629-2.6346 1.734 2.2294 0 0zm0.9993-0.0993c-1.1613-1.0937 0.19829-0.0658 0 0zm-0.0915-1.7082c2.7157 8.9738-3.1945-2.8362 0 0zm-0.185-2.6015c1.2797 7.7961-3.1701-1.1764 0 0zm-0.2373-1.9165c2.1014 7.1949-3.6449-2.2705 0 0zm-0.327-1.6216c1.7934 5.4619-3.6205-1.3302 0 0zm-0.4411-1.2c2.0237 3.7407-2.9789 0.48289-0.33216-0.30061zm-0.914-0.8625c3.5139 3.2826-2.4763 1.0408 0 0zm-1.1022 0.7708c2.3123-2.6777 1.0023 2.4541 0 0zm-0.3407 1.2698c1.1191-4.8405 2.0542 2.0491 0 0zm0 1e-4c2.4908-1.7817-0.3837 4.4584 0 0zm0.968 1.2177c1.4629 3.7724-2.727-0.79954 0-1e-4zm0.3044 0.8491c5.3424 4.2648-3.9954-0.0673 0 0zm1.0054 0.9263c10.827 2.9087-3.7236 2.0606 0 0z"/></g></g></svg>
