<?xml version="1.0" encoding="UTF-8"?>
<svg width="490.93" height="135.86" version="1.1" viewBox="0 0 490.93 135.86" xml:space="preserve" xmlns="http://www.w3.org/2000/svg"><defs><clipPath id="clipPath26"><path d="m0 0v1056h816v-1056z" clip-rule="evenodd"/></clipPath></defs><g transform="translate(-62.519 -614.92)"><g transform="translate(-189.52 -1.33)" clip-path="url(#clipPath26)"><g transform="matrix(.81527 0 0 .81527 84.61 153.26)" aria-label="Partição em 4 subintervalos"><path d="m445.62 648.81q0 3.1797-2.1771 4.8984-2.1628 1.7044-6.2018 1.7044h-2.4635v8.2357h-2.4349v-20.94h5.4284q7.849 0 7.849 6.1016zm-10.842 4.5117h2.1914q3.237 0 4.6836-1.0456 1.4466-1.0456 1.4466-3.3516 0-2.0768-1.3607-3.0938-1.3607-1.0169-4.2396-1.0169h-2.7214z"/><path d="m459.3 663.65-0.47266-2.2344h-0.11458q-1.1745 1.4753-2.349 2.0052-1.1602 0.51563-2.9075 0.51563-2.3346 0-3.6667-1.2031-1.3177-1.2031-1.3177-3.4232 0-4.7552 7.6055-4.9844l2.6641-0.0859v-0.97396q0-1.8476-0.80209-2.7214-0.78776-0.88802-2.5352-0.88802-1.9622 0-4.4401 1.2031l-0.73047-1.819q1.1602-0.63021 2.5352-0.98828 1.3893-0.35807 2.7786-0.35807 2.8073 0 4.1536 1.2461 1.3607 1.2461 1.3607 3.9961v10.714zm-5.3711-1.6758q2.22 0 3.4805-1.2174 1.2747-1.2174 1.2747-3.4088v-1.418l-2.3776 0.10026q-2.8359 0.10026-4.0964 0.88802-1.2461 0.77344-1.2461 2.4206 0 1.2891 0.77344 1.9622 0.78776 0.67318 2.1914 0.67318z"/><path d="m473.12 647.66q1.0456 0 1.8763 0.17188l-0.32943 2.2057q-0.97396-0.21484-1.7188-0.21484-1.9049 0-3.2656 1.5469-1.3464 1.5469-1.3464 3.8529v8.4219h-2.3776v-15.698h1.9622l0.27213 2.9076h0.11458q0.8737-1.5326 2.1055-2.3633t2.707-0.83073z"/><path d="m483.01 661.97q0.63021 0 1.2174-0.0859 0.58724-0.10026 0.93099-0.20052v1.819q-0.38672 0.1862-1.1458 0.30078-0.74479 0.12891-1.3464 0.12891-4.5547 0-4.5547-4.7982v-9.3385h-2.2487v-1.1459l2.2487-0.98828 1.0026-3.3516h1.375v3.638h4.5547v1.8476h-4.5547v9.2383q0 1.418 0.67318 2.1771 0.67317 0.75912 1.8476 0.75912z"/><path d="m490.67 663.65h-2.3776v-15.698h2.3776zm-2.5781-19.952q0-0.81641 0.40104-1.1888 0.40104-0.38672 1.0026-0.38672 0.57292 0 0.98828 0.38672 0.41537 0.38671 0.41537 1.1888 0 0.80208-0.41537 1.2031-0.41536 0.38672-0.98828 0.38672-0.60156 0-1.0026-0.38672-0.40104-0.40104-0.40104-1.2031z"/><path d="m501.98 663.93q-3.4088 0-5.2852-2.0912-1.862-2.1055-1.862-5.944 0-3.9388 1.8906-6.0872 1.9049-2.1484 5.4141-2.1484 1.1315 0 2.263 0.24349t1.776 0.57292l-0.73046 2.0195q-0.78776-0.3151-1.7188-0.51562-0.93099-0.21484-1.6471-0.21484-4.7838 0-4.7838 6.1016 0 2.8932 1.1602 4.4401 1.1745 1.5469 3.4661 1.5469 1.9622 0 4.0247-0.84505v2.1055q-1.5755 0.81641-3.9674 0.81641zm2.1198 3.8529q0 1.3893-1.1029 2.1484-1.0885 0.75911-3.237 0.75911-0.73046 0-1.375-0.1289v-1.5182q0.64453 0.11458 1.4896 0.11458 1.1315 0 1.7044-0.28645 0.58724-0.28646 0.58724-1.0599 0-0.61588-0.57292-1.0026-0.55859-0.3724-2.1198-0.61589l1.2604-2.5495h1.5755l-0.78776 1.6471q2.5781 0.55859 2.5781 2.4922z"/><path d="m519.33 663.65-0.47265-2.2344h-0.11459q-1.1745 1.4753-2.349 2.0052-1.1602 0.51563-2.9076 0.51563-2.3346 0-3.6667-1.2031-1.3177-1.2031-1.3177-3.4232 0-4.7552 7.6055-4.9844l2.6641-0.0859v-0.97396q0-1.8476-0.80208-2.7214-0.78776-0.88802-2.5352-0.88802-1.9622 0-4.4401 1.2031l-0.73046-1.819q1.1602-0.63021 2.5352-0.98828 1.3893-0.35807 2.7786-0.35807 2.8073 0 4.1536 1.2461 1.3607 1.2461 1.3607 3.9961v10.714zm-5.3711-1.6758q2.22 0 3.4805-1.2174 1.2747-1.2174 1.2747-3.4088v-1.418l-2.3776 0.10026q-2.8359 0.10026-4.0964 0.88802-1.2461 0.77344-1.2461 2.4206 0 1.2891 0.77344 1.9622 0.78776 0.67318 2.1914 0.67318zm3.5234-16.128q-0.61589 0-1.2031-0.25781-0.58723-0.27214-1.1602-0.58724-0.55859-0.32943-1.0885-0.58724-0.51563-0.27213-1.0026-0.27213-0.71615 0-1.0885 0.42968-0.35808 0.42969-0.5586 1.3034h-1.4036q0.1862-1.7331 1.0026-2.707 0.83073-0.98828 2.1341-0.98828 0.65886 0 1.2747 0.27213 0.61589 0.25782 1.1745 0.58724 0.55859 0.31511 1.0742 0.58724 0.51562 0.25781 0.97395 0.25781 0.70183 0 1.0456-0.41536 0.34375-0.42969 0.55859-1.3177h1.418q-0.1862 1.7331-1.0026 2.7214-0.80208 0.97396-2.1484 0.97396z"/><path d="m539.54 655.78q0 3.8385-1.9336 6.0013-1.9336 2.1484-5.3424 2.1484-2.1055 0-3.7383-0.98828-1.6328-0.98829-2.5208-2.8359t-0.88802-4.3255q0-3.8385 1.9193-5.9726 1.9193-2.1484 5.3281-2.1484 3.2943 0 5.2279 2.1914 1.9479 2.1914 1.9479 5.9297zm-11.96 0q0 3.0078 1.2031 4.5833 1.2031 1.5755 3.5378 1.5755t3.5378-1.5612q1.2174-1.5755 1.2174-4.5977 0-2.9935-1.2174-4.5404-1.2031-1.5612-3.5664-1.5612-2.3346 0-3.5234 1.5326t-1.1888 4.569z"/><path d="m557.96 663.93q-3.4805 0-5.5-2.1198-2.0052-2.1198-2.0052-5.8867 0-3.7956 1.862-6.0299 1.8763-2.2344 5.0273-2.2344 2.9505 0 4.6693 1.9479 1.7188 1.9336 1.7188 5.1133v1.5039h-10.814q0.0716 2.7643 1.3893 4.1966 1.332 1.4323 3.7383 1.4323 2.5352 0 5.013-1.0599v2.1198q-1.2604 0.54427-2.3919 0.77344-1.1172 0.24349-2.707 0.24349zm-0.64453-14.28q-1.8906 0-3.0221 1.2318-1.1172 1.2318-1.3177 3.4088h8.207q0-2.2487-1.0026-3.4375-1.0026-1.2031-2.8646-1.2031z"/><path d="m587.79 663.65v-10.212q0-1.8763-0.80208-2.8073-0.80208-0.94531-2.4922-0.94531-2.22 0-3.2799 1.2747t-1.0599 3.9245v8.7656h-2.3776v-10.212q0-1.8763-0.80208-2.8073-0.80208-0.94531-2.5065-0.94531-2.2344 0-3.2799 1.3464-1.0312 1.332-1.0312 4.3828v8.2357h-2.3776v-15.698h1.9336l0.38672 2.1484h0.11458q0.67318-1.1458 1.8906-1.7904 1.2318-0.64453 2.75-0.64453 3.681 0 4.8125 2.6641h0.11458q0.70182-1.2318 2.0338-1.9479 1.332-0.71615 3.0365-0.71615 2.6641 0 3.9818 1.375 1.332 1.3607 1.332 4.3685v10.241z"/><path d="m616.35 658.83h-3.1081v4.8125h-2.2773v-4.8125h-10.184v-2.0768l9.9401-14.165h2.5208v14.079h3.1081zm-5.3854-2.1628v-6.9609q0-2.0482 0.14323-4.6263h-0.11459q-0.6875 1.375-1.2891 2.2773l-6.5456 9.3099z"/><path d="m637.21 659.36q0 2.1914-1.6328 3.3802-1.6328 1.1888-4.5833 1.1888-3.1224 0-4.8698-0.98828v-2.2057q1.1315 0.57291 2.4206 0.90234 1.3034 0.32943 2.5065 0.32943 1.862 0 2.8646-0.58724 1.0026-0.60156 1.0026-1.819 0-0.91667-0.80208-1.5612-0.78776-0.65885-3.0938-1.5469-2.1914-0.8164-3.1224-1.418-0.91667-0.61588-1.375-1.3893-0.44401-0.77343-0.44401-1.8476 0-1.9193 1.5612-3.0221 1.5612-1.1172 4.2825-1.1172 2.5352 0 4.9557 1.0312l-0.84505 1.9336q-2.3633-0.97396-4.2826-0.97396-1.6901 0-2.5495 0.52995-0.85937 0.52995-0.85937 1.4609 0 0.6302 0.3151 1.0742 0.32943 0.44401 1.0456 0.84506 0.71615 0.40104 2.75 1.1602 2.793 1.0169 3.7669 2.0482 0.98828 1.0312 0.98828 2.5924z"/><path d="m643.31 647.95v10.184q0 1.9193 0.87369 2.8646 0.8737 0.94531 2.7357 0.94531 2.4635 0 3.595-1.3464 1.1458-1.3464 1.1458-4.3971v-8.25h2.3776v15.698h-1.9622l-0.34375-2.1055h-0.12891q-0.73046 1.1602-2.0338 1.776-1.2891 0.61589-2.9505 0.61589-2.8646 0-4.2969-1.3607-1.418-1.3607-1.418-4.3542v-10.27z"/><path d="m666.38 647.69q3.0938 0 4.7982 2.1198 1.7188 2.1055 1.7188 5.9726 0 3.8672-1.7331 6.0156-1.7188 2.1341-4.7838 2.1341-1.5326 0-2.8073-0.5586-1.2604-0.57291-2.1198-1.7474h-0.17188l-0.5013 2.0195h-1.7044v-22.286h2.3776v5.4141q0 1.819-0.11459 3.2656h0.11459q1.6614-2.349 4.9271-2.349zm-0.34375 1.9909q-2.4349 0-3.5091 1.4036-1.0742 1.3893-1.0742 4.6979t1.1029 4.7409q1.1029 1.418 3.5378 1.418 2.1914 0 3.2656-1.5898 1.0742-1.6042 1.0742-4.5976 0-3.0651-1.0742-4.569-1.0742-1.5039-3.3229-1.5039z"/><path d="m679.43 663.65h-2.3776v-15.698h2.3776zm-2.5781-19.952q0-0.81641 0.40104-1.1888 0.40104-0.38672 1.0026-0.38672 0.57292 0 0.98828 0.38672 0.41537 0.38671 0.41537 1.1888 0 0.80208-0.41537 1.2031-0.41536 0.38672-0.98828 0.38672-0.60156 0-1.0026-0.38672-0.40104-0.40104-0.40104-1.2031z"/><path d="m695.22 663.65v-10.155q0-1.9193-0.8737-2.8646-0.87369-0.94531-2.7357-0.94531-2.4635 0-3.6094 1.332t-1.1458 4.3971v8.2357h-2.3776v-15.698h1.9336l0.38671 2.1484h0.11459q0.73047-1.1602 2.0482-1.7904 1.3177-0.64453 2.9362-0.64453 2.8359 0 4.2682 1.375 1.4323 1.3607 1.4323 4.3685v10.241z"/><path d="m707.55 661.97q0.63021 0 1.2174-0.0859 0.58724-0.10026 0.93099-0.20052v1.819q-0.38672 0.1862-1.1458 0.30078-0.74479 0.12891-1.3464 0.12891-4.5547 0-4.5547-4.7982v-9.3385h-2.2487v-1.1459l2.2487-0.98828 1.0026-3.3516h1.375v3.638h4.5547v1.8476h-4.5547v9.2383q0 1.418 0.67318 2.1771 0.67317 0.75912 1.8476 0.75912z"/><path d="m719.46 663.93q-3.4805 0-5.5-2.1198-2.0052-2.1198-2.0052-5.8867 0-3.7956 1.862-6.0299 1.8763-2.2344 5.0273-2.2344 2.9505 0 4.6693 1.9479 1.7188 1.9336 1.7188 5.1133v1.5039h-10.814q0.0716 2.7643 1.3893 4.1966 1.332 1.4323 3.7383 1.4323 2.5352 0 5.013-1.0599v2.1198q-1.2604 0.54427-2.3919 0.77344-1.1172 0.24349-2.707 0.24349zm-0.64453-14.28q-1.8906 0-3.0221 1.2318-1.1172 1.2318-1.3177 3.4088h8.207q0-2.2487-1.0026-3.4375-1.0026-1.2031-2.8646-1.2031z"/><path d="m736.45 647.66q1.0456 0 1.8763 0.17188l-0.32942 2.2057q-0.97396-0.21484-1.7188-0.21484-1.905 0-3.2656 1.5469-1.3464 1.5469-1.3464 3.8529v8.4219h-2.3776v-15.698h1.9622l0.27214 2.9076h0.11458q0.8737-1.5326 2.1055-2.3633t2.707-0.83073z"/><path d="m744.7 663.65-5.9583-15.698h2.5495l3.3802 9.3099q1.1458 3.2656 1.3464 4.2396h0.11458q0.15755-0.75911 0.98828-3.1367 0.84505-2.3919 3.7669-10.413h2.5495l-5.9583 15.698z"/><path d="m765.61 663.65-0.47266-2.2344h-0.11458q-1.1745 1.4753-2.349 2.0052-1.1602 0.51563-2.9076 0.51563-2.3346 0-3.6667-1.2031-1.3177-1.2031-1.3177-3.4232 0-4.7552 7.6055-4.9844l2.6641-0.0859v-0.97396q0-1.8476-0.80209-2.7214-0.78776-0.88802-2.5352-0.88802-1.9622 0-4.4401 1.2031l-0.73047-1.819q1.1602-0.63021 2.5352-0.98828 1.3893-0.35807 2.7786-0.35807 2.8073 0 4.1536 1.2461 1.3607 1.2461 1.3607 3.9961v10.714zm-5.3711-1.6758q2.22 0 3.4805-1.2174 1.2747-1.2174 1.2747-3.4088v-1.418l-2.3776 0.10026q-2.8359 0.10026-4.0964 0.88802-1.2461 0.77344-1.2461 2.4206 0 1.2891 0.77344 1.9622 0.78776 0.67318 2.1914 0.67318z"/><path d="m774.65 663.65h-2.3776v-22.286h2.3776z"/><path d="m793.24 655.78q0 3.8385-1.9336 6.0013-1.9336 2.1484-5.3424 2.1484-2.1055 0-3.7383-0.98828-1.6328-0.98829-2.5208-2.8359t-0.88802-4.3255q0-3.8385 1.9193-5.9726 1.9193-2.1484 5.3281-2.1484 3.2943 0 5.2279 2.1914 1.9479 2.1914 1.9479 5.9297zm-11.96 0q0 3.0078 1.2031 4.5833 1.2031 1.5755 3.5378 1.5755t3.5378-1.5612q1.2174-1.5755 1.2174-4.5977 0-2.9935-1.2174-4.5404-1.2031-1.5612-3.5664-1.5612-2.3346 0-3.5234 1.5326t-1.1888 4.569z"/><path d="m807.54 659.36q0 2.1914-1.6328 3.3802-1.6328 1.1888-4.5833 1.1888-3.1224 0-4.8698-0.98828v-2.2057q1.1315 0.57291 2.4206 0.90234 1.3034 0.32943 2.5065 0.32943 1.862 0 2.8646-0.58724 1.0026-0.60156 1.0026-1.819 0-0.91667-0.80208-1.5612-0.78776-0.65885-3.0938-1.5469-2.1914-0.8164-3.1224-1.418-0.91667-0.61588-1.375-1.3893-0.44401-0.77343-0.44401-1.8476 0-1.9193 1.5612-3.0221 1.5612-1.1172 4.2826-1.1172 2.5352 0 4.9557 1.0312l-0.84505 1.9336q-2.3633-0.97396-4.2826-0.97396-1.6901 0-2.5495 0.52995-0.85937 0.52995-0.85937 1.4609 0 0.6302 0.3151 1.0742 0.32943 0.44401 1.0456 0.84506 0.71614 0.40104 2.75 1.1602 2.793 1.0169 3.7669 2.0482 0.98828 1.0312 0.98828 2.5924z"/></g><path d="m341.19 747.67c0-4.2871-0.0505-4.3683-1.4638-2.3507-0.80506 1.1494-2.1686 2.0898-3.0301 2.0898-1.2374 0-1.1275-0.30737 0.52346-1.4637 1.1494-0.80508 2.0898-2.2014 2.0898-3.103 0-1.6996 1.6963-3.8959 3.0089-3.8959 0.41373 0 0.75223 2.9619 0.75223 6.582 0 3.7612-0.40299 6.582-0.94029 6.582-0.51716 0-0.94029-1.9982-0.94029-4.4405zm-74.683-2.4444c-1.6498-1.2064-1.6419-1.411 0.216-5.6111 1.4161-3.2013 2.6094-4.53 4.4929-5.0027 3.4726-0.87165 5.6112 0.70033 5.3629 3.9421-0.37202 4.8574-6.7632 9.091-10.072 6.6717zm6.6868-2.6819c2.1376-2.0082 2.928-5.8426 1.3991-6.7874-2.6364-1.6294-7.6855 3.2155-7.6855 7.3747 0 2.1512 3.7437 1.8014 6.2864-0.58732zm142.99-4.429c2.1977-2.0088 3.9958-4.1394 3.9958-4.7345 0-2.5754-3.2553-5.7634-6.9196-6.7765-2.1416-0.59209-3.3434-1.2732-2.6706-1.5134 1.7465-0.6237 6.9531 1.7 8.8537 3.9514 2.5875 3.0652 2.0318 5.9134-1.8493 9.478-1.9394 1.7812-3.949 3.2406-4.466 3.2431-0.51693 0 0.85825-1.6391 3.0559-3.648zm-19.982-6.3998c-2.0686-0.18336-9.3474-0.95854-16.175-1.7225-14.738-1.6493-37.981-1.8638-39.481-0.36445-1.3063 1.3063-26.945 1.4649-49.187 0.30418l-16.455-0.85878 0.0169-5.1716c9e-3 -2.8444 0.64395-13.211 1.4104-23.037 1.7166-22.006 1.6075-45.343-0.29896-63.94-0.79525-7.7574-1.4802-14.291-1.5222-14.519-0.0419-0.22821-0.6975 0.40648-1.4568 1.4104-2.0118 2.6599-1.7747 0.0555 0.3794-4.1674 2.2798-4.4687 4.3891-4.5318 6.6122-0.19756 0.95052 1.8531 2.8272 4.3951 4.1704 5.6489 1.3432 1.2538 2.4422 2.7081 2.4422 3.2319 0 1.8049-5.8822-4.5784-7.5172-8.1575-1.2442-2.7236-1.7812-3.214-2.2322-2.0387-0.85014 2.2155-0.60777 15.055 0.39909 21.14 0.47061 2.8444 1.1307 8.3906 1.467 12.325l0.61132 7.1533 11.393 0.62764c6.2664 0.34528 14.778 1.0403 18.916 1.5447 4.1373 0.50436 12.66 1.2343 18.94 1.622l11.418 0.70492 0.55087-4.7014c0.60724-5.1826-0.13355-11.509-1.4423-12.318-0.76656-0.47381-18.706-1.0594-48.507-1.5835-6.3352-0.11136-11.519-0.52966-11.519-0.92939 0-0.69101 67.748 0.14989 68.557 0.85088 0.58531 0.50728-2.8931 4.1073-3.9685 4.1073-0.51716 0-0.17444-0.84626 0.76162-1.8806 1.6583-1.8324 1.6423-1.8806-0.62416-1.8806h-2.3261l0.19542 9.638c0.10754 5.3009-0.37456 14.292-1.0712 19.981-0.69663 5.6888-1.5639 19.774-1.9273 31.302-0.62281 19.757-1.1906 23.178-2.7799 16.748-0.48023-1.9427-0.36426-2.5347 0.4036-2.0601 0.78667 0.48613 1.0774-2.3574 1.0774-10.537v-11.203l-7.2872-0.67447c-14.887-1.3777-25.162-2.1441-25.46-1.8992-0.40786 0.33511-1.9148 31.831-1.5424 32.238 0.15919 0.17432 3.1792 0.69666 6.7112 1.1609 7.3182 0.96164 30.924 0.0432 28.023-1.0907-1.836-0.71744-1.8357-0.72627 0.025-0.83375 9.0412-0.52251 34.483 0.28114 45.134 1.4257 7.2402 0.77809 17.71 1.5108 23.266 1.6282 5.5563 0.11754 10.105 0.53097 10.108 0.91884 6e-3 0.68754-12.686 0.72261-20.21 0.0555zm-96.045-8.9885c0.84609-10.267 2.7493-40.315 3.177-50.16l0.41239-9.4923-7.8388-0.61016c-4.3113-0.33559-9.8487-0.61269-12.305-0.6158l-4.4664-6e-3 -6e-3 9.1678c-6e-3 8.6741-2.1274 41.134-3.3734 51.628-0.69794 5.8781-1.0951 5.7048 13.413 5.8555l10.503 0.10901 0.48429-5.8768zm37.658-31.03c0.27312-2.1979 0.74581-7.3813 1.0504-11.519 0.30461-4.1373 0.80034-8.9587 1.1016-10.714 0.39816-2.32 0.24413-3.0041-0.56385-2.5048-0.61139 0.37791-1.6256 0.26057-2.2537-0.26074-0.62812-0.52128-5.3698-1.2042-10.537-1.5174-5.1673-0.31331-11.828-0.79051-14.802-1.0605l-5.4067-0.49074-0.0413 7.3339c-0.0228 4.0337-0.40916 10.507-0.85881 14.386-0.44962 3.8787-0.64257 7.2285-0.42876 7.4441 0.2138 0.2155 5.3299 0.74912 11.369 1.1857 6.0392 0.43667 11.187 1.0008 11.44 1.2537 0.25287 0.25283 2.4789 0.4597 4.9468 0.4597h4.4871zm84.245 6.2852c0-0.80978 0.47114-2.3526 1.047-3.4286 0.95073-1.7765 0.84267-1.8985-1.1754-1.3276-16.583 4.6919-22.301 4.4636-31.971-1.2767-14.775-8.7705-15.214-8.9189-27.416-9.265-7.9204-0.22454-11.005-0.62942-10.746-1.4104 0.49828-1.5044 16.889-1.9503 22.308-0.60704 2.3272 0.57687 7.8316 3.281 12.232 6.0093 10.263 6.363 13.839 7.5234 21.062 6.8338 8.2833-0.79079 13.07-2.659 13.255-5.1734 0.10402-1.412-0.38342-2.0463-1.5727-2.0463-1.882 0-2.3123-1.4056-0.72969-2.3837 3.7358-2.3089 9.0154 3.925 8.1003 9.5642-0.27921 1.7206-0.10549 3.3768 0.38608 3.6806 1.474 0.91095-0.0272 2.303-2.4835 2.303-1.4562 0-2.2952-0.53822-2.2952-1.4722zm-59.367-39.504c4.325-1.2785 8.6343-2.7369 9.5761-3.241 2.1006-1.1242 2.7764-1.1545 2.7764-0.12444 0 0.94038-15.623 5.8412-18.336 5.7518-1.0343-0.0338 1.6581-1.1079 5.9831-2.3864zm-0.22633-4.9676c0.32842-1.6421-0.0742-3.8748-1.0331-5.7291-0.8642-1.6712-1.3597-3.2501-1.1011-3.5087 0.73376-0.7337 3.1096 4.4964 3.8168 8.4023 0.50848 2.8084 0.34744 3.5261-0.79111 3.5261-1.0715 0-1.2948-0.6739-0.8914-2.6906zm-9.3948-9.4708c1.3052-1.4174 12.904-5.7041 15.434-5.7041 1.1289 0 1.8323 0.6347 1.8234 1.6455-0.0118 1.3338-0.17394 1.3935-0.85655 0.3151-0.81771-1.2919-4.0143-0.44025-15.584 4.1518-1.4589 0.57903-1.6421 0.48744-0.81723-0.40837zm-96.933-0.93879c-0.32393-0.52412 0.48672-3.2267 1.8014-6.0058 2.0764-4.389 3.1302-9.1027 2.0351-9.1027-0.19542 0-1.9337 0.65953-3.8628 1.4656-1.9291 0.80602-3.7383 1.2347-4.0204 0.9526-0.61719-0.6172 5.6988-3.3584 7.7381-3.3584 2.0876 0 1.8424 4.863-0.50512 10.016-1.0702 2.3492-1.7265 4.4906-1.4584 4.7586 0.26804 0.26798 1.847 0.0132 3.5087-0.56595 3.4886-1.2161 5.0449-0.57922 1.6714 0.68395-4.8736 1.8249-6.3427 2.0708-6.908 1.156z" stroke-width=".94029"/></g></g></svg>
