<?xml version="1.0" encoding="UTF-8"?>
<svg width="266.28" height="233.52" version="1.1" viewBox="0 0 266.28 233.52" xml:space="preserve" xmlns="http://www.w3.org/2000/svg" xmlns:cc="http://creativecommons.org/ns#" xmlns:dc="http://purl.org/dc/elements/1.1/" xmlns:rdf="http://www.w3.org/1999/02/22-rdf-syntax-ns#"><metadata><rdf:RDF><cc:Work rdf:about=""><dc:format>image/svg+xml</dc:format><dc:type rdf:resource="http://purl.org/dc/dcmitype/StillImage"/><dc:title/></cc:Work></rdf:RDF></metadata><g transform="matrix(1.3333 0 0 -1.3333 -165.63 571.58)"><g transform="matrix(.54545 0 0 -.54545 0 587.52)"><path d="m258.81 297.83v278.47h322.83" fill="none" stroke="#000" stroke-linecap="round" stroke-linejoin="round" stroke-miterlimit="10" stroke-width="1.8189"/></g><g><path d="m140.97 423.86c1.3631-0.68358-0.77152 1.4766 0 0zm-0.361-0.3759c1.8431 1.6381-1.9814 0.23083 0 0zm-0.6351-1.2069c2.6113 4.5055-2.7585-0.82107 0 0zm-0.3784-0.9732c1.5774 3.4911-2.5231-0.75051-0.0107-0.041zm-0.0604-0.287c-0.28128 2.5786-1.8722-1.5532 0 0zm-0.6611-0.3201c2.2975 0.64331-1.1542 1.5741 0 0zm0.6733 0.3296c2.4345 4.6524-3.0381-0.86862 0 0zm0.5533 1.4822c3.396 5.792-3.407-0.96521 0 0zm0.6665 1.655c1.871 2.5697-2.5762-0.34832 0 0zm0.0559 0.1263c4.6876-1.0961-2.7056 2.9617 0 0zm0.2829-0.1814c4.6848-8.0128-0.0942 5.3659 0 0zm0.9953-1.4481c5.0202-10.384 2.6019 2.668 0 0z"/><path d="m314.7 274.49c5.3966-1.3504 0.27333 2.3322 0 0zm1.9984-0.2976c3.3003-2.511 0.43924 2.515 0 0zm1.0067-0.6249c2.4572-2.6378 0.38456 2.6625 0 0zm0.7225-1.8093c2.6432 3.6711-2.7544 0.48937 0 3e-4zm-1.5735-1.3184c5.5967 3.9297-3.5514 0.92746 1e-4 3e-4zm-1.567-1.0981c5.1339 2.5752-2.1893 2.2667 0 0z"/><path d="m316.07 265.6c1.2768-3.0517 1.0776 2.0876 0 0zm0.0415-0.6991c-0.17816-5.754 2.7218 0.33126 0 0zm0.1865-2.111c2.338-3.9071 1.5649 2.2345 0 0zm0.8893-1.1707c4.954-0.4367-0.75011 2.7091 0 0zm1.6369 0.0745c6.096 5.0034-3.7942 0.49328 0 0zm1.0496 1.5268c2.0084 5.704-3.1137-0.70826 0 0zm0.4704 1.898c0.86402 5.6072-2.8849-1.937 0 0zm0.1392 1.4223c-0.42076 3.594-2.1072-2.1105 0 0zm0.0253 0.4772c-1.3449 2.1219-1.3881-2.0174 0 0zm0.0165-1.8812c0.95134 6.8688-3.0189-2.5035 0 0zm-0.0345-3.3249c1.1864 9.5167-3.6306-1.7251 0 0zm-0.1985-2.9903c1.9207 8.8395-3.8038-1.5037 0 0zm-0.4056-2.6089c2.0456 8.787-3.5358-1.7862 0 0zm-0.6018-1.8237c2.6999 4.8555-3.1295 0.85622-0.32702-0.27715zm-1.2041-0.8362c4.83 2.4863-2.0955 1.5804 0 0zm-1.0789 0.9466c3.8471-4.1562 0.28939 2.9319 0 0zm-0.5654 1.5398c1.0646-4.9297 2.2649 1.703 0 0zm0 0c2.451-0.8664-1.0288 3.9247 0 0zm0.7294 1.2928c1.0555 3.1965-2.2552-1.1208 0 0zm0.2006 0.3992c4.8192 1.1551-2.9501 1.842 0 0zm1.0658 0.4982c3.4986 0.65289 8.3927 3.5359 1.6336 1.5084-0.38656 1.3367-3.5908-1.5939-1.6336-1.5084z"/><path d="m125.32 427.91c7.6537-1.1652 1.0728 2.5331 0 0zm2.8046-0.2115c2.7508-2.2232-0.2474 2.7142 0 0zm-0.0782-2.5865c6.0409 6.9016-4.0009-0.23809 0 0zm-1.7382-2.3528c5.7657 6.6099-3.3631 0.64785 0 0zm-0.6572-0.9063c2.7367 3.9198-2.9331 6e-3 0 0zm-0.9637 0.0451c2.3171-1.148 0.34193 2.6827 0 0zm0.8789-0.1174c1.5976 2.577-3.0012-0.21768 0 0zm0.1525 0.1695c5.3611-0.034 6.0989 1.3847 0.0844 0.9917-1.0206 0.27987-1.1623-1.4298-0.0844-0.9917z"/><path d="m124.28 425.7c2.8714-1.473 1.1231 1.349 0 0zm1.4859-0.4479c6.9714-0.21714-0.33227 2.3488 0 0zm2.5123 0.0651c5.1771 9e-3 2.2454 2.6195-0.4697 0.3678z"/></g><g transform="matrix(.54545 0 0 -.54545 0 587.52)"><path d="m259.18 499.54c66.986-0.79026 134.81-24.422 183.08-71.851 15.02-14.368 28.328-30.478 40.006-47.659" fill="none" stroke="#000" stroke-linecap="round" stroke-linejoin="round" stroke-miterlimit="10" stroke-width="3.1181"/></g><path d="m126.06 314.81c1.563 2.321-1.6705-0.41936 0 0zm0.2468 0.246c3.0824-0.0943-0.95431 1.9653 0 0zm0.6553-0.0174c4.242-1.7333-1.334 3.0669 0 0zm0.4627-0.2916c2.8016-4.1727 0.66355 3.6093 0 0zm0.2997-0.6722c-0.10617-4.5688 2.9293 1.3711 0.0692 0.43102zm0.8245-2.9208c2.2769 4.513-3.1004 0.71958-0.35813-0.28036zm-1.4534-0.5951c3.3425-0.71888 0.34421 3.6748 0 0zm0 1e-4c2.1676-0.58355-0.13593 2.5348 0 0zm0.9812 0.5287c3.2825 3.0253-2.3236 0.50336 0 0zm1.0229 1.0691c5.0225 4.7038-2.2764 1.0223 0 0zm1.6213 1.7003c3.1169 3.5686-2.1408 1.0418 0 0zm0.0576 1.5735c2.212-2.3979 0.073 3.487 0 0zm0.426-0.2469c1.3995 2.8346-2.6924-0.82847 0 0zm-0.2662-1.0283c1.187 4.4049-2.8054-1.4974-4e-3 -0.0243l4e-3 0.0243zm-0.1021-1.7408c1.1281 6.5248-3.077-2.396 0 0zm-0.9039-1.8669c3.2496-0.6932-1.567 5.3951 0 0zm0-1e-4c2.931-3.4466 1.0522 2.858 0 0zm0.985-0.9691c6.1477 0.58404-2.5856 2.4802 0 0zm1.2668 0.0463c6.899 3.7855-3.496 1.406 0 0z"/><path d="m132.23 322.31c4.8348 2.2908-3.1767 0.65045 0 0zm0.7081 0.2353c3.6606-0.84967-1.1638 2.6674 0 0zm0.2586 1e-3c0.98315-3.9797 1.5905 2.7231 0 0zm0.3698-2.4699c3.0463 5.1289-3.2493 0.13418 0 0zm-1.4631-0.7586c2.9359-0.37699 0.2876 3.6816 0 0zm0-1e-4c4.6137-1.7657 1.0012 2.4564 0 0zm1.7316-0.4434c6.9206-0.0993 0.94804 3.0844-0.34493 0.15701z"/><g transform="matrix(.54545 0 0 -.54545 0 587.52)"><path d="m364.1 482.7v92.459" fill="none" stroke="#55e1ff" stroke-linecap="round" stroke-linejoin="round" stroke-miterlimit="10" stroke-width="3.1181"/></g><path d="m198.07 325.87c1.6006 0.21367-1.38 1.1712 0 0zm-0.0999-0.0428c1.6582 1.6334-2.1233 0.75639 0 0zm0.1366 0.0474c0.64537 2.3433-2.2998-0.8175 0 0zm-0.0852-0.1694c0.29035 3.4361-2.6683-1.9126 0 0zm-0.0143-0.1088c-0.81531 2.8037-1.7206-2.0447 0 0zm-0.7792-0.6709c2.4825 0.0461-1.1679 2.5294 0 0zm1e-4 0c2.7569-0.70415-0.63256 2.4555 0 0zm0.4997-0.1958c3.1866 0.53813-1.9787 2.1624 0 0zm0.4389-0.0155c2.7105 1.5131-2.2078 1.318 0 0zm0.5789 0.2372c1.4867 2.7021-2.5318-0.0983 0 0zm0.3513 0.4737c0.53285 3.6049-2.5614-1.2884 0 0zm-0.9 0.9304c1.5641-3.1404 1.0308 3.0587 0 0zm0.0581-0.0687c3.2356-0.4247-2.0037 2.6297 0 0zm-0.1387 0.0151c3.2145 1.052-2.7587 1.6804 0 0zm0.0419-6e-3c1.6406 2.2127-2.6165 0.13813 0 0zm5e-3 -0.0233c0.51062 2.8648-2.4623-1.1001 0 0zm-0.0436-0.139c-0.32214 3.0142-2.0878-1.7856 0 0zm-1.1521-0.3142c2.069-2.6641 0.80781 3.6769 0 0zm0 0c1.555-3.782 1.5547 2.6932 0 0zm0.1804-0.6855c2.6228-1.7042 0.16335 2.6684 0 0zm0.4003-0.3731c3.6445-0.78979-1.332 2.8493 0 0zm0.5169-0.1818c3.5115 0.36981-2.0985 2.3062 0 0zm0.517-0.0219c2.9799 1.8776-2.3859 1.3333 0 0zm0.7045 0.4117c1.5236 3.6359-2.9639-0.86154 0 0zm0.3226 0.5498c0.41222 3.6567-2.5303-1.5804 0 0zm0.148 0.5519c-0.46582 3.3853-2.0104-2.1434 0 0zm-1.022 0.3299c2.5837-2.0765-0.4281 3.1579 0 0zm-0.2463 0.1354c3.1236-0.6779-1.2815 2.4005 0 0zm-0.2675 0.0557c3.7166 0.31237-2.503 2.1662 0 0zm-0.1095-0.0356c2.3825 1.8377-2.6641 0.73449 0 0zm-7e-3 -0.0476c1.6018 3.3385-3.3563-1.0881 0 0zm-0.1228-0.2577c0.64066 3.5036-2.9775-1.529 0 0zm-0.0739-0.3314c-0.27119 3.5276-2.211-2.0104 0 0zm-1.1848-0.4282c2.1899-2.1065 0.61941 3.2432 0 0zm0 0c1.1837-3.2613 1.7298 2.1722 0 0zm0.1683-0.6918c2.6554-2.7744 0.66916 3.1572 0 0zm0.4408-0.5228c3.918-1.3529-1.0314 3.0472 0 0zm0.6054-0.309c3.5084 0.11893-1.9136 2.5209 0 0zm0.4937-0.0651c3.4499 1.0518-2.5601 1.859 0 0zm0.523 0.0845c2.2385 2.1956-2.5413 0.70858 0 0zm0.4586 0.3302c1.6668 3.1442-3.0361-0.53868 0 0zm0.3035 0.4289c0.79538 3.6674-2.7292-1.3491 0 0zm0.1791 0.5713c0.0236 3.5986-2.3498-1.9258 0 0zm-0.9469 0.8139c1.3704-3.2192 1.1819 2.8254 0 0zm-0.0863 0.0982c2.4039-1.6303-0.23055 2.5647 0 0zm-0.3603 0.2663c3.5736-1.6101-1.1607 3.1269 0 0zm-0.2459 0.0845c3.2863-0.0584-1.8304 2.2254 0 0zm-0.032-0.0258c2.4391 1.8588-2.7539 0.72459 0 0zm-0.0985-0.089c1.908 3.251-3.4159-0.78335 0 0zm-0.1372-0.2491c0.91495 3.519-3.1444-1.395 0 0zm-0.8764-1.0371c2.6507 0.28229-1.2639 3.5975 0 0z" fill="#55e1ff"/><path d="m198.4 272.71c2.1741 2.7901-1.8062 0.38729 0 0zm-0.4179 0.6901c2.2889-1.9377-0.0761 2.9024 0 0zm-0.0308 0.01c2.894-0.68012-1.1766 2.6617 0 0zm-0.035 7e-4c3.0212 0.37934-2.0944 2.1425 0 0zm0.222 9e-3c1.9187 2.4495-3.1656-0.0758 0 0zm7e-3 -0.0122c0.58135 3.2636-2.7927-1.6129 0 0zm-0.0314-0.1608c-0.58213 3.0254-1.9312-1.9795 0 0zm-0.8472-0.6922c2.6247-0.46315-1.0678 2.9701 1e-4 4e-4zm0 0c3.8183-2.1074-0.62644 3.1014 0 0zm0.6428-0.4286c4.0041 0.50102-2.1939 2.1524 0 0zm0.6869 0.023c2.5181 1.9851-2.4736 0.92079 0 0zm0.5324 0.3198c1.9974 3.0064-3.0976-0.26512 0 0zm0.3462 0.408c0.86556 3.0461-2.7272-0.97735 0 0zm-0.8246 0.5038c2.3335-1.5331-0.28126 2.5946 0 0zm-0.2124 0.1452c3.0874-0.69327-1.309 2.4686 0 0zm-0.1573 0.031c2.8279 0.61307-1.9909 1.8026 0 0zm-0.078-0.0269c2.8729 1.9021-3.1186 0.90183 0 0zm0.0236-0.0801c1.4385 3.5628-3.2663-1.2526 0 0zm-0.1074-0.2762c0.0182 3.5815-2.3606-2.0035 0 0zm-1.1897-0.312c2.1635-2.2658 0.81256 3.246 0 0zm0 0c1.6744-2.9287 1.4401 2.2375 0 0zm0.3256-0.6735c3.9352-2.1576-0.70381 3.2596 0 0zm0.635-0.4192c3.9302-0.16722-1.9844 2.6488 0 0zm0.5706-0.0939c3.1789 1.5838-2.3224 1.5864 0 0zm0.7477 0.327c1.8218 3.1046-3.1403-0.41932 0 0zm0.3238 0.4513c0.72177 3.1481-2.6806-1.0846 0 0zm0.1807 0.412c0.24487 3.2905-2.4717-1.599 0 0zm-0.9487 0.6265c1.4438-2.3605 1.037 2.306 0 0zm-0.0587 0.0388c2.9138-1.9927-0.40468 3.2086 0 0zm-0.164 0.125c2.9759-0.88915-0.99539 2.5656 0 0zm-0.1502 0.0377c3.0797 0.43283-2.0268 1.9331 0 0zm-0.4616-0.3408c3.5451 2.2775-2.5104 1.2764 0 0z" fill="#55e1ff"/><g transform="matrix(.54545 0 0 -.54545 0 587.52)" fill="none" stroke="#55e1ff" stroke-linecap="round" stroke-linejoin="round" stroke-miterlimit="10" stroke-width="3.1181"><path d="m409.15 457.25v117.74"/><path d="m339.73 489.71v85.211"/></g><path d="m194.46 267.38c0.20843-3.162 1.2531 1.8626 0 0zm0.8757-0.7816c-0.74256 3.3462-1.3516-2.1632 0 0zm-0.8277-1.4351c2.8342-1.645-0.7148 4.7048 0 0zm0-1e-4c3.1485-4.9799 0.9629 3.4166 0 0zm0.5668-1.0511c5.1616-2.4451-0.79456 3.2506 0 0zm1.1229-0.6122c5.2662 1.1141-2.6618 1.9826 0 0zm1.162 0.1951c4.7215 4.5017-3.0441 1.1551 0 0zm1.2568 1.7301c2.4424 3.8624-3.0812-0.25886-2e-4 0zm0.3453-0.4558c2.1999 7.3218-3.4513-2.4338 0 0zm-0.2066-2.5817c1.7646 8.1774-3.7648-1.9469 0 0zm-0.0977-2.0883c0.89465 6.9294-3.1424-1.9887 0 1e-4zm-0.2737-1.9582c1.7276 6.4343-3.6854-1.6641 0 0zm-0.4594-1.5574c1.9017 6.2376-3.5337-1.4665 0 0zm-0.6516-1.0107c2.5074 3.3808-2.9238 0.49952 0 0zm-0.948-0.3236c3.8063 1.4244-2.1349 1.8666 0 0zm-1.028 0.8031c2.6934-2.6966 0.76902 2.6065 0-5e-4zm-0.5403 1.6189c1.5356-6.0239 2.0628 2.7007 0 0zm0 0c2.7309-1.5629-0.54508 4.9259 0 0zm0.9213 1.3619c3.3698 5.7248-3.5927-1.9863 0 0zm0.5169 0.9733c4.4729 3.2945-2.7032 1.768-0.32494-0.2008l0.32534 0.2012zm1.2273 1.2487c12.272 2.997-3.7497 2.0141 0 0z" fill="#55e1ff"/><g><path d="m263.5 368.67c0.51087 7.6508-1.9357 5.6533 0 0z"/><path d="m262.29 357.95c1.5041 3.082-0.50157 6.3218 0 0z"/><path d="m262.32 346.59c1.4885 3.8192-0.0282 10.076 0 0z"/><path d="m262.95 336.16c0.71575 9.2273-1.6353 3.5921 0 0z"/><path d="m262.99 327.48c1.0781 4.4345-1.5705 0.34954 0-1e-4zm-0.1343-2.0905c1.1497 1.5036-1.3998 3.7352 0 0z"/><path d="m262.62 314.08c0.70429 4.7439-0.024 9.1437-0.26232 1.548l-0.0536-1.5321h1e-4l0.1533-0.1628z"/><path d="m261.82 298.05c1.2774 1.3871 0.72078 12.191 0.0724 3.5054l-0.0768-1.7524z"/><path d="m261.63 285.29c1.4852 1.6185-0.75405 8.3756-0.18439 1.6287l0.18479-1.6287z"/><path d="m261.91 280.56c-0.31858-5.5329 1.3966-2.4833 0 3e-4z"/><path d="m261.85 267.88c2.545 3.4434-2.4878 0.0805 0 0zm-0.3119-0.7528c1.1598 3.2175-2.3842-0.96713 0 0zm-0.2663-0.2796c1.3755 1.9651-2.2327 0.3657 0 0zm0.2614 0.2632c4.2054 4.472-3.7857-1.2594 0 0zm0.4058 0.8602c1.8496 3.1232-2.5317-0.15637 2e-4 -5e-4zm-0.2594 0.888c-0.39486-7.7203 2.2233 3.8467 0 0zm0.0122-6.415c2.6898 8e-3 -0.1824 10.741-2e-3 2.702l5.1e-4 -1.351 1e-3 -1.351z"/></g></g></svg>
