<?xml version="1.0" encoding="UTF-8"?>
<svg width="359.17" height="239.07" version="1.1" viewBox="0 0 359.17 239.07" xml:space="preserve" xmlns="http://www.w3.org/2000/svg" xmlns:cc="http://creativecommons.org/ns#" xmlns:dc="http://purl.org/dc/elements/1.1/" xmlns:rdf="http://www.w3.org/1999/02/22-rdf-syntax-ns#"><metadata><rdf:RDF><cc:Work rdf:about=""><dc:format>image/svg+xml</dc:format><dc:type rdf:resource="http://purl.org/dc/dcmitype/StillImage"/><dc:title/></cc:Work></rdf:RDF></metadata><g transform="matrix(1.3333 0 0 -1.3333 -112.68 637.41)"><g transform="matrix(.54545 0 0 -.54545 0 587.52)" fill="none" stroke="#000" stroke-linecap="round" stroke-linejoin="round" stroke-miterlimit="10" stroke-width="1.8189"><path d="m383.28 201.59v326.91"/><path d="m155.84 423.84h487.21"/></g><path d="m346.94 358.55c1.7845-2.89 1.59 0.83659 0 0zm0.9644-1.0399c3.9156-2.4476-0.0381 3.4436 0 0zm1.3293-0.3195c4.5784-2.0964-0.34748 2.7017 0 0zm1.3868-0.5379c4.4342-3.0276 0.15002 2.9776 0 0zm1.3204-0.8004c3.3955-3.4195 0.47819 3.1028 0 0zm0.7604-0.7425c1.7785-2.8694 0.69077 2.8958 0 0zm0.064-1.3101c4.2514 3.3845-3.393 0.45235 0 0zm-1.2551-0.7931c5.0011 2.9383-3.277 0.96828 0 0zm-1.7684-1.5723c5.7392 3.7966-2.3698 1.9872 0 0z"/><g transform="matrix(.54545 0 0 -.54545 -2.7341 587.52)"><path d="m226.73 461.51c26.494-53.511 56.037-109.37 106.08-144.51 29.04-20.943 69.672-22.411 100.03-3.3431 51.767 31.482 84.72 85.829 113.97 137.15" fill="none" stroke="#000" stroke-linecap="round" stroke-linejoin="round" stroke-miterlimit="10" stroke-width="1.8189"/></g><g><path d="m300.47 345.29c0.20651-2.1796 1.0846 1.1833 0 0zm0.5088 6e-3c-0.62967 1.1053-0.66868-1.0508 0 0zm0.1028-1.0127c0.87974 4.0305-2.0116-1.7959 0 0zm-0.6334-1.6741c2.6783-1.0776-1.2235 4.9118 0 0zm0 1e-4c1.8249-3.5117 1.5029 2.1512 0 0zm0.7133-1.0494c3.96-1.7112-0.72488 2.9094 0 0zm0.9009-0.3762c4.2146 1.0554-2.2201 1.8801 0 0zm0.9353 0.2599c2.7156 3.0326-2.421 0.70949 0 0zm0.7544 0.9857c1.8984 6.2657-2.9652-1.3868 0 0zm0.4181 1.6911c0.79786 4.687-2.5815-1.6836 0 0zm-0.1457 0.7319c1.4447 1.8204-2.0389 0.55416 0 0zm0.3039-0.6024c0.18192 4.4925-2.4117-1.9431 0 0zm0.0205-4.0576c1.4354 8.2324-3.4974 1.6134-0.16415-0.40234l0.16425 0.39264-1e-4 0.01zm0.0284-4.0304c1.5453 8.5656-3.6002 1.4365-0.17806-0.40959l0.17796 0.40959zm-0.3611-1.578c1.6946 4.5901-2.9645-0.0139 0 0zm-1.1974-0.5597c3.6783 1.0029-1.3899 2.2135 0 0zm-1.2215 0.6945c3.3782-2.5672 0.45035 2.6481 0 0zm-0.8551 1.327c1.8879-4.213 1.7208 2.1776 0 0zm0 0c2.6055-0.55081-1.662 5.0226 0 0zm0.5474 1.738c2.4779 4.3288-3.2504-0.76039 0 0zm0.4729 1.3671c4.0652 3.0656-3.138 0.69267 0 0zm0.9193 0.9885c6.1712 0.89863-2.4126 1.7902 0 0z"/><path d="m308.07 342.18c1.8342-0.70834 1.5008 2.3677 0 0zm1.0184 0.0827c6.2094-1.8006-1.3658 2.5983 0 0z"/><path d="m308.06 339.34c8.3419 0.25249-0.40982 2.2182 0 0z"/><path d="m314.65 339.93c2.2414 3.6963-1.9045 0.14547 0 0zm0.615 1.2659c2.9171 4.2474-2.3162 0.70969 0 0zm0.8234 1.61c0.95785 2.8484-2.2108-0.55369 0 0zm-0.673 0.5881c0.60375-5.0429 2.1927 2.3218 0 0zm0.0887-1.103c-0.42745-7.24 1.8272-5.5675 1.0334 0.1136l-0.5828 0.4483z"/><path d="m319.97 339.5c8.0056 0.45425-2.1443 1.5174 0 0z"/><path d="m324.82 341.55c1.1488 0.0162 0.27785 2.2816 0 0zm0.5385 0.4427c2.6021-0.55001-0.56508 1.8526 0 0zm0.6186-0.1395c3.4394-2.9236-0.60998 3.0742 0 0zm0.369-0.4953c0.32052-4.733 2.3634 1.7643 0 0zm1.3081-3.0248c0.43066 5.4893-2.8307-2.0409 0 0zm-0.3771-1.1654c1.6702 3.9971-2.993-0.50587 0 0zm-0.8179-0.8005c2.9989 2.3183-2.429 1.337 4e-4 0zm0 0c1.7474 2.6948-3.5746-0.43409 0 0zm-0.1644 0.7008c0.13363 2.9441-1.8599-2.1762 0 0zm0.1082 0.4427c2.8855 2.9401-2.3286 0.24944 0 0zm0.7674 0.9842c3.5971 2.0799-2.3304 1.6671 0 0zm1.0086 0.9943c2.5842 3.5308-2.3664 0.05 0 0zm0.6596 0.9733c1.3972 3.8323-2.2759-0.76536 0 0zm0.33 0.9819c0.10514 2.5535-1.8813-1.4406 0 0zm-0.0684 0.1631c0.4757 1.5104-1.5958-0.32101 0 0zm-0.0464-0.3281c0.68658 2.8891-2.3271-1.256 0 0zm-0.1675-1.0286c0.82776 4.5633-2.5989-1.8496 0 0zm-0.0499-1.4962c0.41321 5.8951-2.684-2.2051 0 0zm-0.9829-1.2835c2.6785-1.1136-0.65062 4.2834 0 0zm0 0c2.2025-3.5553 1.1939 2.7839 0 0zm0.4897-0.7604c6.4082-0.66981 0.49016 2.8154 0 0z"/><path d="m329.81 346.67c3.2691-0.93004-0.44248 1.8564 0 0zm0.7522-0.1617c1.0986-3.3138 1.4102 2.0156 0 0zm0.3217-2.5112c2.851 3.9591-2.6759 0.72514 0 0zm-0.6818-1.2602c2.8434 2.7199-2.6222 2.3325 0 0zm-3e-3 4e-4c7.4933 0.51608-1.1136 2.5234 0 0z"/></g><g transform="matrix(.54545 0 0 -.54545 -4.8606 574.46)"><path d="m265.96 243.12c20.073 48.873 41.302 100.03 80.886 136.51 20.388 19.712 53.6 25.412 77.461 8.3685 40.764-27.554 63.613-73.516 85.197-116.21 6.4304-13.432 12.469-27.05 18.227-40.783" fill="none" stroke="#000" stroke-linecap="round" stroke-linejoin="round" stroke-miterlimit="10" stroke-width="1.8189"/></g><g><path d="m216.02 433.63c0.41761 2.854-1.6448-0.85771 0 0zm0.0407 0.438c0.57637 1.3084-2.0106-0.2841 0 0zm-0.4499-0.7589c2.011 3.1505-2.5552-0.46163 0 0zm-0.5231-0.9232c2.3621 3.917-3.1407-0.77408 0 0zm-0.1273-0.2631c0.69941 2.6245-2.7438-0.93014 0 0zm-0.1586-0.1914c0.75136 2.0221-2.1647 0.0249 0 0zm0.1657 0.2035c1.9832 3.8181-3.0856-0.81712 0 0zm0.4117 0.7862c2.4749 3.5837-2.8378-0.0724 0 0zm8e-3 0.8779c1.1131-4.4008 1.1893 3.2086-2e-4 -3e-4zm-6e-3 -4.1415c3.3983-1.4505-0.68188 7.9836 0 0zm0 0c-0.41394-5.2508 2.9353 0.47113 0.16349 0.40873z"/><path d="m266.13 441.48c4.0925-3.8355 1.4373 3.2988 0 0zm1.867-0.8941c4.4841-0.43596-1.556 2.2954 0 0zm0.9757-0.1142c3.5921 1.6794-1.8228 1.5474 0 0zm1.0186 0.5824c1.5596 3.3261-2.5527-0.13973 0 0zm-0.7044 1.8527c1.2194-4.6374 1.6689 2.9345 0 0zm-0.4517 0.7646c2.7624-3.9057 0.5249 3.2675 0 0zm-0.6324 0.442c3.1738-1.883-0.46463 2.6707 0 0zm-0.5706 0.1994c2.9911-0.88337-0.53777 2.2782 0 0zm0 0c2.2795-2.6952 0.81315 2.8824 0 0zm0.4076-0.4989c5.3378-8.3495 1.5009 3.6426 0 0zm1.7805-1.5591c5.7402-6.8754 1.2806 4.1143 0 0zm2.1399-1.7994c3.5836-6.198 1.7834 4.2279 0 0zm1.4292-1.4921c2.737-4.842 0.89221 3.376-3e-4 3e-4zm1.1354-2.314c2.6409 3.3886-2.2988 1.1325 0 0zm-1.2215-0.1458c4.2357 0.10383-1.429 2.5648 0 0zm-1.321 0.3379c4.0603-1.4608-0.22762 2.6227 0 0zm-0.8922 0.7766c2.6319-2.7389 0.88785 2.1934 0 0zm-0.4109 1.5359c0.61959-4.6878 1.9703 1.52 0 0zm0 0c2.9096-1.0758-1.1578 4.8775 0 0zm0.9224 1.5332c3.8956 5.1358-2.9895-0.33289 0 0z"/><path d="m272.04 445.87c4.139 3.6968-2.5232 1.9733 0 0zm1.2234 1.8226c2.7956 3.2427-2.4257-0.12738 0 0z"/><path d="m274.03 444.71c5.3433 5.6383-1.2098 1.6623 0 0z"/><path d="m274.69 451.68c0.95705-2.0294 0.81212 0.92141 0 0zm0 0c1.3166-0.81305 0.28633 2.3336 0 0zm0.7217 0.3184c3.2216 1.6519-2.3071 0.75594 0 0zm0.4899 0.118c3.8349-0.23076-1.5637 2.2551 0 0zm0.6122-0.1047c3.4318-2.0691-0.52229 3.1054 0 0zm0.4514-0.3823c2.6099-3.9508 0.76924 3.4088 0 0zm0.4538-0.7642c1.3616-6.1908 1.8432 3.609 0 0zm0.3182-1.3207c0.4279-3.871 2.1673 1.9465 0 0zm0.1353-0.9877c1.7049-1.8599 0.89967 2.1847 0 0zm1.046 0.1557c0.31034 4.8433-2.5146-1.1533 0 0zm-1.0041 4.2831c-0.4502-5.6072 2.2964-0.28027 5e-4 0zm-0.3638 0.8935c1.5066-4.2648 0.69752 2.8005 0 0zm-0.0731 0.09c0.69407 1.3069 0.35781 0.24549 0 0zm-0.5851-0.0336c1.7373-1.2544 0.49023 2.6498 0 0zm0 0c2.5968-4.273 1.6153 1.7144 0 0zm0.897-1.3151c3.0811-4.5452 1.1884 3.2981 0 0zm1.1445-1.0824c3.663-2.3526-0.25361 3.0435 0 0zm0.831-0.5245c4.2533-0.90538-1.6262 2.781 0 0zm0.8163-0.1588c3.8012 4.1564-1.4903 2.3009 0 0z"/><path d="m273.25 460.25c2.058-8e-3 -1.4211 3.6613 0 0zm0.5383 1.1738c1.7698 2.618-2.3763-0.49015 0 0zm0.214 0.1775c3.9392 1.6663-2.9714 1.1843 0 0zm0.3752 0.0625c4.0004-0.63699-2.3911 2.8882 0 0zm0.1231-0.0933c2.8006-2.7013 0.15286 3.3631 0 0zm0.2416-0.3527c0.37816-7.8626 2.2257 3.6897 0 0zm0.1223-1.5126c1.5374-6.6209 1.9187 2.9354 0 0zm1.1891-1.6696c5.4211 2.6544-3.4678 1.2217 0 0zm0.9805 0.9541c5.8016 4.7802-3.9823 0.1575 0 0z"/><path d="m160.38 398.45c1.3141 0.0179 0.38206-0.25985 0 0zm-0.1117-6e-4c2.7794 0.52781-2.1736 1.7538 0 0zm0.051-9e-3c2.5712 2.8636-4.1283-0.84501 0 0zm-0.0857-0.3943c0.47709 5.2697-2.7111-3.0217 0 0zm-0.9879-0.8226c2.5702-0.72174-0.58429 3.2124 0 0zm0 0c4.0669-2.7357-0.0689 2.9812 0 0zm0.8912-0.5543c4.1906-0.71109-1.5727 2.8778 0 0zm0.8733-0.1513c2.8099 0.8421-1.855 1.8671 0 0zm0.786 0.3058c1.5674 3.2033-2.8534-0.43584 0 0zm0.3108 0.6431c0.13546 4.0975-2.413-1.7708 0 0zm-1.1676 1.2697c1.6555-2.9321 0.89973 2.619 0 0zm-0.2841 0.2461c2.9384-1.4253-0.81806 2.6194 0 0zm-0.3518 0.0667c3.8238 0.20993-2.4369 2.3207 0 0zm0.0177-0.0448c-0.94387 2.199-0.16868 0.25262 0 0zm-0.1574-0.8265c0.39707 5.0846-2.7187-2.2873 0 0zm-0.9301-1.172c2.5644-0.61765-0.89296 3.9698 0 0zm0 0c3.4442-2.2341-0.14028 2.9368 0 0zm0.6396-0.4839c4.2187-0.20407-1.8563 2.549 0 0zm0.6881-0.127c3.4523 0.81045-2.2866 1.9452 0 0zm0.6273 0.0627c3.4137 2.2811-3.0753 0.90108 0 0zm0.624 0.4727c1.4395 4.0641-2.869-1.0196 0 0zm0.2791 0.8191c0.25137 2.8312-2.3139-1.2361 0 0zm-1.0326 0.7154c3.1803-3.017-0.88276 4.1708 0 0zm-0.3802 0.0639c3.4417-0.21306-1.7774 2.1487 0 0zm-1.2047-0.2048c2.1625-0.99328 1.2605 3.1682 0 0z"/><path d="m257.02 396.85c-1.0476 0.7495-0.35574 0.34008 0 0zm-0.6681-0.7847c1.1206 1.3011 0.54785 0.591 0 0zm0 0c2.6073-1.4111 0.313 2.1768 0 0zm0.8957-0.3483c3.1688 0.83785-1.4122 1.8571 0 0zm1.041 0.5019c1.1963 3.5378-2.816-0.90859 0 0zm-0.8197 1.1252c0.94359-2.7212 1.5676 2.1184 0 0zm-0.0766 0.1614c2.1746-1.9821 0.0908 2.7323 0 0zm-0.0634 0.0353c4.5066-0.84401-3.1308 3.3194 0 0zm-0.1992-0.0285c3.6159 1.9511-3.3643 0.98612 0 0zm-0.1818-0.1503c2.8648 3.8154-3.9085-0.92783 0 0zm-0.2058-0.4241c2.8087 5.3071-3.4238-0.3744 0 0zm-1.2369-0.5474c2.2676-2.0468 0.59607 3.6822 0 0zm0 0c2.0543-4.3212 1.3518 2.9528 0 0zm0.297-0.8395c4.0771-2.1761-0.57426 3.1921 0 0zm0.6776-0.4599c4.6504-0.4904-1.891 2.7954 0 0zm0.7984-0.1798c4.2784 0.88531-2.6158 2.0276 0 0zm0.8249 0.1405c2.2607 2.3221-2.5531 0.56447 0 0zm0.6186 0.6307c0.9253 3.7348-2.8964-1.1944 0 0zm-0.9026 1.3182c0.94821-3.7884 1.9509 2.815 0 0zm-0.1856 0.2251c3.2821-3.0738-0.58019 4.0597 0 0zm-0.3876 0.1459c4.3316-0.27533-2.6255 2.6268 0 0zm-0.0737-5e-3c-0.66508 2.1981-0.0608 0.37213 0 0zm-0.848-0.9483c2.3941 0.0385-0.73374 4.181 0 0z"/><path d="m257.59 389.27c1.4177 5.3912-1.9685 2.3371 0 0z"/><path d="m258.05 383.96c0.56285 6.1866-2.132-1.5036 3e-4 0z"/><path d="m257.46 380.08c-0.53207-7.2864 2.1024 0.10944 0 0z"/><path d="m258.16 371.66c0.94493 5.685-2.2706-1.0446 0 0z"/><path d="m258.39 366.3c0.64663 4.544-1.8931 1.0585-2e-4 -0.0234z"/><path d="m258.36 361.08c0.711 5.4315-1.6684 1.3797 0 0z"/><path d="m258.06 358.76c0.0849-4.658 1.7095 0.87236 0 0z"/><path d="m255.37 352.37c1.6565-6.2201 2.4272 1.4328 0 0zm0.8998-2.1673c2.5107-3.9198 0.48815 3.2972 0 0zm0.4628-0.657c2.4078-0.41303-0.0266 2.5636 0 0zm0.1334 2.181c-0.28695-4.6026 2.1759 1.0393 0 0zm-0.1475 1.2192c-0.38333-3.9751 2.4433 1.1856 0 0zm-0.118 0.9037c-0.26391-3.4771 1.9367 1.4927 0 0zm0 0c1.9449-0.75635 1.1688 2.7369 0 0zm0.9904 0.2094c4.8401-0.59514-1.2723 3.2429 0 0zm1.5409 0.2496c6.9471 0.5291-2.238 2.2011 0 0z"/><path d="m258.93 352.16c2.0842 2.211-1.7914 0.0799 0 0zm0.4692 0.4179c3.199 1.0967-2.0341 1.3538 0 0zm0.5247 0.1049c2.863 0.1619-1.4558 1.7138 0 0zm0.1858 0.0391c3.7578-2.2932-0.62304 2.7885 0 0zm0.871-1.0581c0.53752 4.0289-2.3673-1.2212 0 0zm-0.3632-0.6505c1.8401 3.455-2.8234-0.61867 0 0zm-0.767-0.8398c2.8239 2.8059-2.4374 0.5922 0 0zm-0.7926-0.7824c2.881 2.6069-2.18 0.75216 0 0zm-0.2695-0.3192c1.2381 2.0106-1.903-0.14553 0 0zm0.3688-0.3281c1.0724 1.7143-2.7125 0.095 0 0zm7e-3 4e-4c6.0837 0.29674-1.4934 2.2833 0 0z"/><path d="m256.76 347.4c3.8611-1.31-0.0179 2.7712 0 0zm1.4888 8e-3c4.3165-0.72298-1.3229 2.7687 0 0zm1.2098 0.186c5.341-0.22526-1.6633 2.0385 0 0z"/><path d="m258.11 345.69c3.9714 0.81285-2.0586 1.6821 0 0zm0.8949 0.4763c2.7787 0.7147-1.5383 1.3257 0 0zm0.4229 0.0454c2.2126-0.36039-1.0476 1.6938 0 0zm0.0225-0.0166c1.9871-3.764 0.34195 3.5484 0 0zm0.469-1.3586c1.7877 3.3032-2.4651-0.2208 0 0zm-0.8746-1.2583c3.3598 4.4284-2.905 0.0428 0 0zm-1.2003-0.5821c1.6787-1.0316 1.1524 3.2665 0 0zm0 0c1.0269-1.9209 1.0961 1.3956 0 0zm0.3563-0.5383c2.8112-1.4335-2e-3 2.3275 0 0zm0.7029-0.3186c4.9393-0.38615-1.0208 2.2285 0 0z"/><path d="m160.68 393.16c-0.023-5.2811 2.2855-0.68018 0 0z"/><path d="m161.03 387.02c-0.34866-7.2559 2.1222 0.17976 0 0z"/><path d="m161.45 378.46c2.4477 1.2289-1.8369 4.2947 0 0z"/><path d="m161.26 375c-0.93527-7.7443 1.935-1.5729 0 0z"/><path d="m162.09 365.75c0.97633 6.4057-1.8407 1.1274 0 0z"/><path d="m161.59 364.09c-0.0645-3.3661 1.4324 0.76033 0 0zm0.3254-2.2187c1.8518 0.14192-1.5928 3.0492 0 0z"/><path d="m161.77 359.37c-0.3155-2.8434 1.6894 0.63825 0 0z"/><path d="m154.28 348.71c5.8922-0.031-1.4722 1.7598 0 0z"/><path d="m158.07 350.99c1.0644-0.61375 0.17337 1.4114 0 0zm0.1154-0.01c1.163-1.666 0.61801 1.6139 0 0zm0.1748-0.3573c1.7311-4.0645 1.4908 1.8377 0 0zm0.697-1.2357c1.9069-2.7815 1.0376 1.91 0 0zm1.2851-0.674c0.67635 2.8148-1.8739-0.33735 0 0zm0.1261 0.8699c-0.24159 3.6449-1.5794-1.7108 0 0zm-0.8779 1.739c0.30776-3.1692 1.4592 1.1965 0 0zm-0.1868 1.137c0.50341-4.1895 1.4117 1.5945 0 0zm-0.0783 0.9675c0.16032-3.6831 1.5763 1.4019 0 0zm0 0c1.5488-0.96093 0.0551 2.4857 0 0zm0.7557 0.4382c1.4281 2.0205-1.9408-0.1527 0 0zm0.2256 0.2095c3.2116 1.1381-2.2643 1.2107 0 0zm0.5818 0.131c6.2952-0.20057-1.7643 2.3545 0 0z"/><path d="m161.63 351.88c1.1519 2.1737-1.4491-0.39107 0 0zm0.2804 0.4628c1.8525 1.5264-1.7026 0.4528 0 0zm0.3063 0.195c3.5854 1.7328-2.7216 0.38565 0 0zm0.2091 0.0235c2.822-0.287-1.4616 2.0152 0 0zm-0.0272 0.0407c2.3505-3.5619 0.20431 3.4082 0 0zm0.9129-1.0316c0.39 3.8576-2.3619-1.4287 0 0zm-0.3743-0.8396c1.6559 3.6345-2.6604-0.55176 0 0zm-0.612-0.8038c2.2886 2.7953-2.2737 0.41681 0 0zm-0.4339-0.5918c1.6113 0.92127-1.345 1.8402 0 0zm-2e-3 6e-4c6.4308-1.2228-0.80508 2.179 0 0z"/><path d="m158.93 347.05c3.2384-0.59398-0.39914 2.1203 0 0zm1.1534 0.0918c4.0041-0.33352-1.5754 1.7381 0 0zm0.9077 0.1175c8.1256-0.53687-0.76389 2.146 0 0z"/><path d="m160.79 345.47c2.6675 1.4161-1.6794 0.70221 0-1e-4zm0.67 0.2863c2.987 0.15637-1.3417 1.5902 0 0zm0.4082-4e-3c2.1054-1.4941-0.30385 2.221 0 0zm0.0573-0.1152c0.69589-3.1744 1.725 2.2534 0 0zm0.5552-1.4828c1.5714 3.0502-2.4046-0.16436 0 2e-4zm-0.7584-0.9067c2.9946 3.3943-2.5725 0.3243 0 0zm-0.4181-0.5132c1.685 2.4555-2.0846-0.1478 0 0zm0.2411-0.5482c-0.50012 1.5089-0.2019 0.74407 0 0zm8e-3 -1e-3c6.9641-0.60304-1.0785 2.5599 0 0z"/><path d="m208.43 475.07c2.377 3.1952-2.6315 0.15766 4e-4 -3e-4zm-0.8949-2.1006c3.1694 5.2646-2.4903 1.2355 0 0zm-0.21-0.7155c0.81608 3.0976-2.3925-0.80338 0 0zm-0.8664-0.1125c2.1876-0.9914-0.13184 2.2691 0 0zm0.8894 0.1539c2.467 5.7324-3.024-1.0028 0 0zm0.6163 1.6085c3.6666 6.4135-3.2398-0.1002 0 0zm0.9336 2.2775c2.1091 3.7606-2.7494-0.30462 0 0zm-0.0959 0.6914c2.9999-3.9682-0.0833 3.8761 0 0zm0.2085-0.6245c1.5065-6.7486 4.4352-3.1596 0 0z"/></g><g fill="#55e1ff"><path d="m229.42 350.2c1.0593 1.0092-1.4827 1.2901 0 0zm0.185 0.5196c1.7298 2.8998-2.3226-0.33646 0 0zm0.2641 0.251c2.5346 1.8771-2.5212 0.88511 0 0zm0.3469 0.1628c3.3353 1.5676-2.7273 1.325 0 0zm0.3606 0.0484c3.3565-0.26439-1.5192 2.517 0 0zm0.5045-0.1043c3.6846-1.7556-0.98875 3.1338 0 0zm0.3086-0.2349c2.8008-4.9064 0.68234 4.0726 0 0zm1.2563-1.6861c0.64464 4.3299-2.874-1.1904 0-1e-4zm-0.5581-1.2108c2.8376 5.2033-3.8603-1.0096 0 0zm-1.3624-0.7671c3.3352-0.11965-0.0471 3.5949 0 0zm0.9441 0.4183c-0.30596 2.9958-2.0943-2.2906 0 0zm0.09 0.2074c2.049 3.4617-2.7695-0.68037 0 0zm0.44 0.5604c3.4352 2.4159-2.4009 0.933 2e-4 0zm0.9402 0.729c3.3852 1.9536-2.3353 1.3627 0 0zm0.9815 0.7265c3.0122 2.9132-3.0401 0.27951 0 0zm0.6002 0.5392c2.114 2.8482-2.9044-0.0478 0 0zm0.4175 0.5497c0.89496 2.977-2.6959-0.95779 0 0zm-0.81 0.4873c2.7378-2.694-0.41206 3.7867 0 0zm-0.1656-0.0548c3.5866-0.0393-2.2856 2.3957 0 0zm-0.3128-0.134c2.791 2.286-3.1722 0.64441 0 0zm-0.2366-0.3237c1.1139 3.7641-3.0292-1.6262 0 0zm-0.0632-0.4341c-0.39123 5.1578-2.3064-3.2412 0 0zm5e-4 -0.9192c-0.30847 4.9938-2.468-2.8586 0 0zm-0.9713-1.3169c3.2271-1.2855-0.95101 4.6225 0 0zm0 0c2.1376-6.2714 1.6568 3.7875 0 0zm0.5291-1.0398c4.2751-3.0637-0.16266 3.4803 0 0zm0.8662-0.7039c5.42 0.16358-2.3706 2.6844 0 0zm1.0187-0.0646c6.9261 3.7317-3.5766 1.2715 0 0z"/><path d="m232.98 362.95c0.21128 3.7676-1.2677-1.4808 0 0z"/><path d="m232.9 358.75c1.0767 7.263-2.039-1.7918 0 0z"/><path d="m232.44 355.31c2.358-0.55874-1.0268 6.0678 0 0z"/><path d="m232.41 367.45c2.8624-1.1704-1.8649 2.4575 0 0zm0.2005 0.0335c0.10388 2.1801-1.9717-1.4834 0 0zm-0.6525-0.8585c2.5154 0.22147-1.5732 2.9143 0 0zm0-1e-4c3.3986-0.83645-1.114 2.7609 0 0zm0.6746-0.1456c2.3336 1.4367-1.9855 1.2982 0 0zm0.6375 0.4891c0.93263 2.6005-2.4283-0.44099 0 0zm-0.8127 0.7217c1.9191-1.8562 0.17428 2.623 0 0zm-0.1539 0.0631c4.8581-1.0986-3.1655 3.3279 0 0zm-0.0978-2e-3c-0.83405 2.7025 0.0651 0.23328 0 0zm-0.011-0.0729c0.87309 2.578-2.5472-0.95887 0 0zm-0.0726-0.2501c-0.22016 3.3653-2.1341-1.9742 0 0zm-1.0206-0.5807c2.608-1.7075-0.16478 3.8283 0 0zm0 0c2.6229-2.5217 0.56861 2.7973 0 0zm0.6352-0.6059c3.9477-0.1992-1.8427 2.5587 0 0zm0.7281-0.0845c3.9344 1.8978-2.7583 1.2711 0 0zm0.8939 0.4077c1.2675 3.9413-2.87-0.82546 0 0zm-0.7795 1.2494c1.3248-2.7453 1.0244 2.637 0 0zm0.0429-0.1419c2.8264 0.13368-1.8371 2.0782 0 0zm0.0211-5e-4c1.945 2.4669-2.9264-0.18776 0 0zm4e-3 -0.2233c0.0671 4.6482-2.5549-2.6573 0 0zm-0.8971-0.8868c2.6397-0.38214-1.065 3.3689 4e-4 0zm0-1e-4c3.7996-1.7777-0.68273 3.0117 0 0zm0.6752-0.3958c3.3649 0.59708-2.2321 2.1838 0 0zm0.5605 0.043c3.1303 2.4922-2.8967 0.76557 0 0zm0.6655 0.4839c1.4605 3.6666-2.9958-0.7502 0 0zm-0.7624 1.1358c1.6215-4.7346 1.2424 4.2476 0 0zm-0.2363 0.2275c2.5163-2.137 0.59654 2.5114 0 0z"/><path d="m232.41 417.23c1.4881-0.36969-0.75744 1.7279 0 0zm0.2827 0.0103c0.6678 2.073-2.3397-0.85434 0 0zm-0.0201-0.239c-0.10019 3.0224-2.473-1.8673 0 0zm-1.0004-0.5059c2.3286-1.0337-0.0906 2.5679 0 0zm0-1e-4c2.6413-2.9996 0.45726 3.1149 0 0zm0.5229-0.5127c3.1511-0.81733-1.1157 2.8387 0 0zm0.5135-0.1542c3.4668 0.0483-1.9195 2.4108 0 0zm0.6051 9e-3c3.687 2.1925-2.6543 0.97695 0 0zm0.7548 0.5057c1.2209 3.6432-2.7875-0.96909 0 0zm-0.8159 0.9808c2.1644-3.3959 0.50815 3.7114 0 0zm-0.0946-0.031c4.7873-0.70551-3.1727 2.9669 0 0zm-0.1743-0.065c2.5626 1.942-2.8738 0.41313 0 0zm-0.1647-0.2105c1.0256 3.9654-3.0102-2.004 0 0zm-0.051-0.3321c-0.62041 4.7491-2.121-3.2028 0 0zm-0.9504-0.6891c2.4336-0.78569-0.5903 3.0376 0 0zm0-1e-4c2.4501-2.1112 0.41944 2.5613 0 0zm0.6115-0.5567c3.5845-1.349-1.0876 3.1459 0 0zm0.6567-0.2438c3.4023 0.15727-2.0421 2.4633 0 0zm0.5735 0.0258c2.4652 1.5958-2.1722 1.2997 0 0zm0.6709 0.5345c1.9214 4.9931-3.4522-1.9219 0 0zm-0.8262 1.1825c1.3773-3.5178 1.4255 3.3581 0 0zm6e-3 -0.0881c2.8164-0.35692-1.5936 2.2831 0 0zm-0.1485-0.0251c2.7075 2.1493-3.2195 0.8499 0 0zm-0.0689-0.1019c1.092 3.4638-3.01-1.3639 0 0zm-0.0478-0.2488c-0.26708 4.6437-2.3555-3.0224 0 0zm-0.6251-0.8524c2.7119 0.60275-2.0534 2.8361 0 0zm0 0c3.5962 7e-3 -1.734 2.4247 0 0zm0.6822-0.0633c3.0349 1.5346-2.6376 1.4447 0 0zm0.567 0.2746c2.0815 2.996-3.0384-0.0856 0 0zm0.3866 0.6111c0.0522 2.421-2.2427-1.0499 0 0zm-1.1125-0.1753c3.422 1.1021-1.8823 1.7312 0 0z"/><path d="m232.29 409.84c2.586 0.56714-0.99948 6.7548 0 0z"/><path d="m232.65 407.13c-0.48632-6.9934 2.0262 0.48248 0 0z"/><path d="m232.98 396.71c1.6214 7.5284-2.2291 1.2164 0 0z"/><path d="m232.85 388.94c1.488 6.7009-2.0064 1.0291 0 0z"/><path d="m233.19 382.03c0.68765 7.3922-2.5183-0.0515 7e-4 -0.0595z"/><path d="m232.94 376.06c1.5882 6.7144-2.1192 0.98019 0 0z"/><path d="m232.62 371.27c3.5261 2.1648-1.8848 3.843 0 0z"/></g><g transform="matrix(.54545 0 0 -.54545 0 587.52)"><path d="m426.33 315.97v85.835" fill="none" stroke="#55e1ff" stroke-linecap="round" stroke-linejoin="round" stroke-miterlimit="10" stroke-width="3.1181"/></g></g></svg>
