<?xml version="1.0" encoding="UTF-8"?>
<svg width="214.95" height="188.7" version="1.1" viewBox="0 0 214.95 188.7" xml:space="preserve" xmlns="http://www.w3.org/2000/svg" xmlns:cc="http://creativecommons.org/ns#" xmlns:dc="http://purl.org/dc/elements/1.1/" xmlns:rdf="http://www.w3.org/1999/02/22-rdf-syntax-ns#"><metadata><rdf:RDF><cc:Work rdf:about=""><dc:format>image/svg+xml</dc:format><dc:type rdf:resource="http://purl.org/dc/dcmitype/StillImage"/><dc:title/></cc:Work></rdf:RDF></metadata><g transform="matrix(1.3333 0 0 -1.3333 -161.48 633.48)"><g transform="matrix(.54545 0 0 -.54545 0 587.52)"><path d="m262.9 211.14v231.89h236.5" fill="none" stroke="#000" stroke-linecap="round" stroke-linejoin="round" stroke-miterlimit="10" stroke-width="1.8189"/></g><g><path d="m142.39 471.33c1.0893 1.7869-1.6515-0.29842 0 0zm0.2024 0.2879c0.12031 1.4916-1.3915-0.82409 0 0zm-0.4104-1.0662c1.6758 3.735-2.0852-0.71347 0 0zm-0.6345-1.65c2.4989 5.9632-2.7392-1.4091 0 0zm-0.2842-0.863c2.2 4.0815-2.8456-1.4925 0 0zm-0.0564-0.296c-0.15151 2.6303-1.8944-1.4925 0 0zm-0.8746 0.025c1.7216-1.7012 0.61732 2.1363 0 0zm0.8883-0.0137c3.5037 6.2857-3.2374-0.87381 0 0zm0.7333 1.963c3.7383 6.1572-3.4999-0.27383 0 0zm0.7741 2.0002c2.2445 1.8363-2.6833 0.39161 0 0zm-0.115 0.0421c1.9988-3.6529 4.8951-5.5707 1.5402-0.4732 0.14219 0.83622-2.4919 2.267-1.5402 0.4732z"/><path d="m270.51 347.31c1.7495 0.39385-1.3016 1.1576 0 0zm-0.3443 0.2703c0.88882-1.0105 0.512 1.2192 0 0zm0.2062-0.2558c2.1489-0.90387-0.11487 1.8916 0 0zm0.4478-0.2034c5.3166-3.1066-0.25126 3.2237 0 0zm1.4732-0.6705c4.0593-2.9764 0.8865 2.9697-0.27546 0.28519zm1.3403-0.7093c3.6587-2.7175-0.74855 3.7561 0 0zm0.279-1.1293c3.5528 3.0839-2.888 0.71275 0 0zm-2.6428-0.8828c6.9142 1.2704-0.31416 3.0261 0 0z"/><path d="m274.3 338.46c1.6803 0.75336-0.80859 2.2791 0 0zm0.5568 0.6409c3.3251 1.8669-2.2753 0.98052 0 0zm0.6991 0.3529c4.5435 1.216-2.8002 1.5612 0 0zm0.8041 0.128c4.6918-0.8426-2.2286 2.7277 0 0zm0.4547-0.1288c2.3906-3.4681 0.60065 3.0444 0 0zm0.2481-0.567c0.65392-5.3626 2.2586 2.9975 0 0zm0.2295-3.0047c3.6152 6.3332-3.5175-0.50536 0 0zm-1.0749-1.2493c3.8628 3.8084-2.7885 1.059 0 0zm-0.236-0.1727c1.8923 2.1972-2.6807 0.44866 0 0zm-0.6796 0.0872c2.1743-0.5078-0.32093 1.9191 0 0zm0.8046 0.0646c1.4387 2.8497-2.7738-0.75287 0 0zm0.2739 0.4245c4.2095 3.2537-3.2369-0.2703 0 0zm1.0171 0.9502c5.0613 3.1502-1.125 2.0274 0 0zm1.8283 1.4725c4.967 2.8858-2.984 1.7125 0 0zm1.3317 1.2845c2.5096 3.9825-2.793-0.57651 0 0zm-0.4258 0.9898c1.95-1.3063-0.47448 2.4508 0 0zm0.0105-0.3377c2.9069 2.9878-3.5847-0.23262 0 0zm-0.3814-0.7524c1.6414 4.0064-2.868-1.2298 0 0zm-0.1264-1.1562c0.61993 4.7712-2.6627-1.8745-1e-3 -0.0198zm-1.1748-1.5738c2.9526-2.1301-0.0713 5.7437 0 0zm0 0c1.1383-4.9552 2.3311 2.1199 0 0zm0.4748-1.4836c4.2694-2.9032 4.744 2.8531 0 0z"/><path d="m126 473.99c0.86442-1.952 0.93848 1.8015 0 0zm0.6911 0.1195c-0.79565 1.4229-1.0086-1.4578 0 0zm0.1196-0.998c1.3564 5.3472-2.582-2.82 0 0zm-0.6726-1.7721c2.9377-0.70868-1.4144 4.8246 0 0zm0 0c3.394-3.772 0.87758 2.9802 0 0zm0.9127-0.9729c5.8617-1.1434-1.8846 3.178 0 0zm1.1454-0.3121c4.4202 0.75271-1.812 2.471 0 0zm1.4031 0.455c3.9118 3.5418-3.5455 0.70471 0 0zm0.9576 1.2378c2.4161 4.8417-3.3538-0.63697 0 0zm0.5679 1.5337c0.8621 3.8627-2.477-1.1345 1e-4 0zm0.2211 1.0241c-0.72985 2.5388-1.7228-1.8977 0 0zm-0.0338 0.0211c-0.27569 2.1288-1.9892-1.3095 0 0zm-0.1427-0.5759c0.43638 3.6794-2.5927-1.7144 0 0zm-0.1005-3.4105c1.2408 5.333-2.3257 4.2196-1.0441-0.42184 0.34146-0.40067 1.0776-0.10448 1.0441 0.42184zm-0.0529-4.2374c1.132 4.0431-1.7775 6.8722-1.2308 1.108-0.66134-0.8598 0.71516-2.7148 1.2308-1.108zm-0.2556-1.9168c1.2987 6.3988-3.4006-1.2399 0 0zm-0.5265-1.2003c3.3177 5.5554-3.8556-0.88095 0 0zm-1.4933-0.025c3.3429-1.6536 0.44549 2.9749 0 0zm-0.4691 1.7654c0.94283-5.5312 2.3439 1.867 0 0zm0 0c2.8742-1.3738-0.87909 6.1571-2e-4 0zm0.9461 2.1126c1.2806 4.3675-2.8319-0.39265-0.15584-0.37955l0.15594 0.35945zm0.1738 1.3081c3.4228 4.4899-3.5708-0.91023 0 0zm0.7057 0.8054c3.0893 0.47554 7.3226 1.323 1.3243 1.2976-0.78306 0.49891-3.4321-1.3587-1.3243-1.2976z"/></g><g transform="matrix(.54545 0 0 -.54545 0 587.52)"><path d="m263.67 300.57c53.336 46.897 106.67 93.795 160.01 140.69" fill="none" stroke="#55e1ff" stroke-linecap="round" stroke-linejoin="round" stroke-miterlimit="10" stroke-width="1.8189"/></g><g><path d="m121.13 424.52c2.948-0.99313 1.5166 4.8978 0 0zm0.8828 0.021c2.136 3.0345-2.5047 0.5977-0.28366-0.23886zm0.4985 0.9616c2.6549 4.2877-3.2625-0.92591 0 0zm0.0666 0.7034c2.8115-0.29586-1.3069 2.405 0 0zm-0.0669 0.1706c-0.26685-3.1788 0.94227-9.9435 1.0058-2.8544 0.0555 0.53928 0.25871 4.9581-1.0058 2.8544z"/><path d="m126.71 422.77c7.8742 0.47834-0.94649 2.3961 0 0z"/><path d="m132.79 425.49c7.6255-1.5687 1.755 2.369 0 0zm2.9612-0.3554c2.4623-2.8398 0.22297 2.7571 0 0zm0.2548-2.1744c5.7707 6.064-3.9859-0.39119 0 0zm-1.2086-1.5872c5.1103 6.5049-3.7875-0.77252 0 0zm-0.2893-0.7245c1.1474 4.5954-2.788-1.7827 0 0zm-0.544-0.8351c2.1948 0.30846-1.5272 2.4298 0 0zm-1e-3 1e-3c6.3168-1.5451 3.8512 2.3534 0 0z"/><path d="m132.33 421.87c3.7206-0.22468 5.6075 0.85233 0.74094 0.71447-0.24989 0.52584-1.732-0.59809-0.74094-0.71447z"/><path d="m224.16 340.76c2.324 1.1868-2.1076 0.3036 0 0zm-0.1337-0.2614c0.69944 1.9663-1.9283-0.54828 0 0zm-0.6557 0.035c1.4261-0.97858 0.19609 1.6727 0 0zm0.6553-0.0461c2.6134 3.3942-2.3633-0.0573 0 0zm0.6617 0.9293c2.7883 2.8937-2.0611 0.9022 0 0zm0.1661 1.0656c-0.72398-7.2608 2.7018 1.534 0 0zm0.5615-5.6891c2.079 3.2699-1.8372 5.5274-0.3658 0.45z"/><path d="m228.61 339.24c6.4144-0.22281-2.1838 1.9777 0 0z"/><path d="m233.55 341.37c3.7488-0.49445 0.35629 2.5924-0.3773 0.0936zm1.3608 0.1329c4.2948-0.66612-1.703 2.4847 0 0zm0.5111-0.0721c2.1674-3.0198 0.38735 3.3359 0 0zm0.9124-1.1686c0.45686 5.0969-2.5333-2.0072 0 0zm-0.5571-1.0635c2.2719 3.0783-2.5188 0.84149-0.32794-0.20837zm-0.5109-0.8365c5.047 6.0101-3.8298-1.2457 0 0zm-0.2398-0.8606c1.0434 4.8202-2.7347-1.8903 0 0zm0.3895-1.037c1.2956 1.788-3.5539 1.397-4e-4 0zm-4e-3 3e-4c5.6021 0.11938-0.90623 2.095-0.0149 1e-3z"/><path d="m234.09 338.75c5.178-0.24961 2.9561 1.9854-0.3521 0.2281z"/></g><path d="m143.18 423.8c1.4428-2.6988 0.144 3.1638-4e-4 -6e-4zm0.5158-0.0987c0.86854 3.6469-3.0932-1.8597 0 0zm-0.2384-1.0822c2.1949 1.4995-3.0392 2.569 0 0zm0 0c3.8631 1.2194-1.8067 1.929 0 0zm1.1933 0.5654c1.4714 4.2931-2.7394-0.66918 0 0zm-0.7433 1.4237c2.0823-2.531-0.15908 3.1707 0 4e-4zm-0.2289 0.0699c3.4 0.71469-2.6477 1.5219 0 0zm-0.1613-0.2254c2.2913 3.6424-3.6307-1.0624 0 0zm-1.2196-0.6014c2.452-1.8874 0.44567 3.8286 0 0zm0-1e-4c1.8599-3.4812 1.6149 2.0926 0 0zm0.7302-1.0353c5.1705-0.91786-2.0536 2.8164 0 0zm0.9176-0.2213c4.0002 2.1103-2.8536 1.2067 0 0zm0.7781 0.3237c1.9199 3.7225-2.7047-5e-3 0 0zm-0.6445 1.6788c1.2922-3.4631 1.0942 2.8929-1e-4 3e-4zm-0.4609 0.2941c3.8114-1.6128-1.2782 2.864 0 0zm-1.0428-0.5046c2.3478-0.60023 1.0724 3.7312 0 0z" fill="#55e1ff"/><path d="m231.37 346.16c3.4407-0.53616-2.1995 2.2862 0 0zm-0.1261-0.1139c2.8754 2.8999-3.952-0.43862 0 0zm-0.1319-0.3267c0.40836 4.4613-2.7572-2.5258 0 0zm-0.3878-0.9573c2.4974 1.1832-2.7186 2.2843 0 0zm0 0c5.7292-0.50605-2.5311 2.7548 0 0zm1.0077-0.1286c3.539 2.9497-1.9898 1.6986 0 0zm-0.0389 1.7143c1.9307-2.9868-0.017 3.2374-5e-4 5e-4zm-0.4621-6e-3c3.6605 0.38334-2.5005 1.887 0-5e-4zm-0.1565-0.076c1.9186 3.0444-3.1525-0.88377 0 0zm-0.0886-0.3692c-0.29262 4.5951-2.429-2.8542 0 0zm-1.2071 0.0132c1.8223-3.4483 1.819 2.0131 0 0zm0.7752-1.0451c4.6515-0.95481-0.89238 2.9127 0 0zm1.367-0.1952c4.1503 2.0795-2.3354 1.7356 0 0zm1.2563 0.8528c0.27785 3.8681-2.5485-1.2255 0 0zm-1.316 0.4177c5.1498-0.47062-2.8241 2.8942 0 0zm-0.4369-0.0597c3.5295 1.8176-3.2815 0.71153 0 0zm-1.0876-0.6472c2.9872-0.66253-0.13055 4.193 0 0z" fill="#55e1ff"/><g fill="#ff58c4"><path d="m183.5 340.8c1.1806 1.1732-1.3887 1.072 0 0zm0.214 0.3077c3.7429 1.4006-2.1833 1.0906 0 0zm0.7239 0.1682c5.3291-0.80377-2.2145 2.8328 0 0zm0.8888-0.1552c4.645-2.6253-1.3783 3.5713 0 0zm0.4545-0.3922c2.6838-4.5487 0.61189 3.8201 0 0zm1.1373-1.6332c0.71176 4.4006-2.6711-1.1358 0 0zm-0.5509-0.9221c2.1747 3.8969-2.8603-0.20373 0 0zm-0.718-0.5257c2.9563 2.3746-2.3864 0.93322 0 0zm-0.3329-0.1252c2.6246 1.7279-2.5538 1.0093 0 0zm-0.6579 0.3772c1.5374-1.4826 1.0023 2.3981 0 0zm1.0611 0.0423c3.9459 3.4935-2.6016 0.67252-2e-4 -2e-4zm1.2052 1.2914c4.7697 4.0516-2.9376 0.81311 0 0zm1.3206 1.5021c2.8294 3.909-2.8373-0.15487 0 0zm-0.1686 1.3045c2.5132-1.3577-0.47605 2.8 0 0zm-0.3624-0.1208c3.044 1.3288-2.7498 0.85697-0.0188-0.015zm-0.1857-0.3472c1.12 3.0382-2.503-1.2824-2e-4 0zm-0.0728-0.8155c-0.0233 4.5759-2.4329-2.366 0 0zm-1.0287-1.1749c2.8031-1.7916-0.31843 4.5894 0 0zm0 0c1.3484-6.03 2.0556 3.097 0 0zm0.4335-1.24c3.2649-3.3346 0.59421 2.9891 0 0zm0.7877-0.8499c3.9713-1.0763-0.89923 2.826 0 0zm0.8987-0.3028c6.026 2.3337-2.0031 2.2146 0 0z"/><path d="m186.04 385.99c0.87391 1.874-2.222-0.57405 0 0zm-0.4209-0.7356c2.4153 0.1382-1.6727 2.6232 0 0zm0 0c4.0175-1.5335-0.88568 2.6421 0 0zm0.8239-0.4117c2.6697 2.1338-1.831 1.3356 0 0zm-0.3514 1.2827c2.1825-4.3444 0.33969 4.2579 0 0zm-0.0212 0.0236c2.8498 0.10721-2.3216 1.8123 0 3e-4zm0.0662-0.0326c0.76862 2.9616-2.6595-1.6667 3e-4 0zm-0.6677-1.1022c2.8397 0.20551-1.8934 3.2674 0 0zm0 0c4.7622-2.2115-0.41604 3.247 0 0zm1.2609-0.5277c4.552 0.95832-2.1651 2.2398 0 0zm0.246 1.3153c1.3269-3.3399 1.1836 2.7119 0 0zm-0.2335 0.1031c3.381-1.2973-1.126 2.7561 0 0zm-0.5102 0.1201c4.0622 0.10388-2.3075 2.202 0 0zm0.0703-0.013c1.8959 3.0134-3.4797-0.5781 0 0zm-1.1965-0.5653c2.6432-1.8162 0.18348 3.8556 0 0zm0 0c2.969-3.5365 1.3649 2.3793 0 0zm1.091-1.0026c5.4472-0.0336-2.4896 2.6685 0 0zm1.0422-0.1019c3.2356 1.5803-2.1794 1.5898 0 0zm0.9115 0.5335c1.191 3.9807-2.7476-0.57905-0.0216-0.0317zm-0.8745 1.4108c2.4496-2.408-0.68882 3.1815 0 7e-4zm-0.133-0.0802c2.7861 1.9368-3.2412 0.26617-0.0151-0.0187zm-0.1964-0.4413c0.74661 3.9564-2.7558-1.9357 0 0zm-0.3316-1.0475c2.4363 1.3259-2.8803 2.2909 0 0zm-2e-3 6e-4c5.4857 2.2735-1.734 2.1207 0 0z"/><path d="m186.11 385.88c3.8225-0.13218-2.5669 1.5349 0 0zm0.12 7e-4c-0.26307 2.3547-1.4558-1.7047 0 0zm-0.412-0.9482c2.2333 0.3376-1.7558 2.4263 0 0zm0 0c3.842-0.93076-0.71716 2.205 0 0zm1.0072-0.2589c3.0587 1.4943-1.727 1.3301 0 0zm0.9154 0.5854c0.88706 3.2805-2.1599-0.74348 0 0zm-0.7118 0.9092c2.0703-1.8709-0.18511 2.4754 0 0zm-0.4326 0.108c3.284-0.42885-1.6307 2.0462 0 0zm-0.2825-0.0385c2.7309 1.7353-2.7591 0.43537 0 0zm-0.9975-1.3581c1.6764-0.88568 0.95438 4.2841-0.0187 1.2145z"/><path d="m186.23 377.99c2.1831 0.47461-0.62991 6.8268-0.20559 1.045z"/><path d="m186.66 369.69c2.1924 0.25185-0.51544 8.8136-0.2503 1.9286l0.0759-0.97098z"/><path d="m186.41 365.12c0.82383-1.5557 0.7958 1.5067 0 0zm0.6089 0.0536c-0.56487 1.2665-1.0358-1.122 0 0zm-4e-3 -0.7419c1.1572 3.9255-2.2401-2.023 0 0zm-0.6734-2.3516c2.2814 0.9617-1.0769 5.1328 0 0z"/><path d="m186.63 353.8c0.4493 8.569-2.7981-0.40977 0 0z"/><path d="m185.65 346.24c2.5119 1.8731-0.6982 6.4572 0 0z"/></g><g fill="#55e1ff"><path d="m156.18 426.34c1.1373-1.2534 0.46465 1.7849 0 0zm0.3265-0.3376c1.5387 2.0361-2.4439-0.0913 0 0zm-0.3031-0.4462c1.7067 3.3988-2.9618-1.1278 0 0zm-0.1743-0.7196c0.67159 4.9528-2.6719-2.5092 0 0zm-0.503-1.1907c2.5536 0.77477-2.2461 3.0297 1e-4 0zm0 0c4.725-0.70653-1.8038 2.8412 0 0zm0.845-0.2286c4.7962 1.2382-2.818 1.9407 0 0zm0.8854 0.1485c5.0072 1.7878-3.2039 1.5728 0 0zm1.0683 0.4661c3.3604 3.4585-3.3872 0.0991 0 0zm0.6673 0.558c1.6964 2.8705-2.9659-0.22676 0 0zm0.2745 0.2758c0.67764 2.1208-2.3973-0.24816 0 0zm-0.2671-0.1779c1.8621 2.3457-2.9328 0.32123 0 0zm-0.6061-0.5386c3.3649 3.3446-3.6331 0.12943 0 0zm-0.729-0.763c3.4242 4.2332-3.8384-0.38912 0 0zm-0.8774-1.3218c3.4884 4.7366-3.574-0.22104 4e-4 -5e-4zm-1.4427-1.9256c5.589 6.4158-4.0893 0.0975 0 0zm-1.2948-1.2222c4.7135 3.9644-3.3431 1.0314 0 0zm-1.0019-0.5808c4.6884 3.0582-3.3619 1.1489 0 0zm-0.9172-0.1199c3.8707 0.65549-1.7431 2.1906 0 0zm-0.7597 0.8156c2.2176-3.0387 1.2715 2.5207 0 0zm-0.1029 0.886c0.76528-4.0064 1.9481 1.9766 0 0zm1.0489 0.0265c0.29244 5.1895-2.4126-2.8444 0 0zm0.1684 0.6422c2.2679 4.1899-3.2708-0.96868 0 0zm0.4531 0.6971c2.9828 3.2772-3.3057-0.0527 0 0zm0.5285 0.4576c3.2026 1.6245-2.6822 0.97222 0 2e-4zm0.4746 0.1462c3.7823-0.37007-1.9406 2.3895 0 0zm0.2658-0.1042c3.6933-3.3397 0.0409 3.7647 0 0zm0.537-0.6091c4.4648-4.6988 0.34502 3.767 0 0z"/><path d="m160.03 420.65c2.9145-1.4281-0.57567 2.25 0 0zm0.4624-0.258c2.9301-3.1816 0.36381 2.3274 0 0z"/><path d="m159.7 418.18c2.212 0.57893-2.3346 1.9615 0 0zm0.0251-0.0124c4.2023-2.4715-0.55495 2.7887 0 0z"/><path d="m163.62 415.97c4.7388-0.0754-0.12693 2.6767 0 0zm1.751 0.2808c4.6586 1.5581-2.3908 1.6803 0 0zm0.518 0.4626c2.8484-1.3908-0.12455 2.9253 0 0zm-0.1323-1.5021c4.1635 4.1119-3.4792 0.64862 3e-4 1e-4zm-1.3423-1.4742c4.6404 4.4736-3.6209 0.60005 4e-4 5e-4zm-1.005-1.2375c3.5232 2.9482-2.1748 2.339-0.3627-0.1555z"/><path d="m166.46 412c5.9862-4.2643 0.36893 2.7774 0 0z"/><path d="m172.1 410.92c2.1858-2.0636 1.2711 1.4348 0 0zm0.9297-0.639c4.7377-2.094-1.0203 3.0987 0 0zm1.0374-0.3516c3.747-1.6183-0.94696 2.7648 0 0zm0.383-0.2377c1.9909-4.4232 1.2125 4.3755 0 0zm0.6049-1.4847c2.6052 3.736-3.1476 0.22528 0 0zm-1.2372-0.8678c4.4346 2.2384-2.4816 2.3065-0.47415-0.0837zm-1.0478-0.6546c6.1325 2.9981-4.1581 1.1194 0 0zm-0.4529-0.361c2.8524 3.2775-3.3424 0.0597 0 0zm-0.1748-0.2876c0.799 3.3-2.3846-1.2984 0 0zm-0.7218-0.69c2.387 0.0284-1.1943 2.5921 0 0zm0 0c5.9295-3.4301-0.2704 3.0274 0 0z"/><path d="m171.54 408.82c6.6248-5.2718 2.6979 1.0183 0 0z"/><path d="m176.74 403.5c3.0706-3.9873 2.7851 1.1379-0.1258 0.4605l0.1257-0.4605z"/><path d="m181.67 400.04c2.0078 1.6603-1.5893 0.33242 0 0zm0.3434 0.2844c2.125-0.0796-0.92503 1.6 0 0zm0.2034-0.0265c2.4188-1.8817-0.15503 2.3364 0 0zm0.153-0.2425c1.5778-3.5896 1.3621 2.538 0 0zm1.2758-1.1134c-0.54324 4.4426-2.2896-2.7554 0 0zm-0.4698-1.0235c1.8744 5.077-3.2924-1.2542 0 0zm-0.9822-0.7392c3.5155 1.9152-2.174 2.0853-0.45784-0.0293zm-1.1194-0.2602c4.4984 1.0362-1.952 2.2594 0 0zm-0.7067 0.6369c1.0769-2.304 2.0981 1.8016 0 0zm0.7043-0.5114c2.7214 1.6146-2.676 0.77926 0 0zm0.5215 0.2644c4.7287 0.90775-1.7938 1.4451 0 0zm1.3781 0.3328c5.1719 0.25351-0.7737 2.202 0 0zm1.7315 0.2463c4.3382 0.58669-2.3915 1.8264 0 0zm0.9223 0.1857c1.7464 1.7825-2.3024 0.55157 0 0zm-0.133 0.0379c1.964 0.80686-1.6396 1.5048 0 0zm-0.36-0.0281c3.1061 0.7185-2.2359 1.7471 0 0zm-0.3761-0.0791c3.0192 1.6143-2.7497 0.88426 0 0zm-0.3835-0.3204c2.5215 3.0189-3.0952-0.17637 0 0zm-0.5025-0.6528c2.7438 4.1591-3.7556-0.84167 0 0zm-0.313-0.5924c1.3661 4.3557-3.381-1.5721 0 0zm-0.0874-0.4c-0.16898 4.6986-2.7065-2.874 0 0zm-1.2422-0.6622c2.8427-1.7307-0.0324 3.6593 0 0zm2e-3 -7e-3c3.6043-2.6746 4.9267 2.9421 0 0z"/></g></g></svg>
