<svg width="340.44" height="145.9" xml:space="preserve" xmlns="http://www.w3.org/2000/svg"><path d="M57.538 12.521c.475-.106.97-.137 1.454-.16a33.576 33.576 0 0 1 2.364-.018.568.568 0 0 0 .043-1.135 33.378 33.378 0 0 0-2.447-.06c-.559.01-1.125.034-1.674.144a.628.628 0 0 0 .247 1.232c.004 0 .009-.001.013-.003zm-2.447.76c.805-.279 1.618-.57 2.45-.76a.628.628 0 0 0-.26-1.229c-.888.173-1.756.476-2.61.766a.647.647 0 0 0 .416 1.225l.004-.001zm-4.018 1.4 4.018-1.4a.647.647 0 0 0-.42-1.223c-1.336.454-2.683.872-4.035 1.276a.708.708 0 1 0 .406 1.358l.03-.01zm-3.684 1.47c1.194-.568 2.437-1.033 3.684-1.47a.709.709 0 0 0-.437-1.347c-1.325.396-2.646.835-3.903 1.415a.773.773 0 1 0 .648 1.405l.008-.004zm-3.634 1.848a92.556 92.556 0 0 1 3.634-1.849.773.773 0 0 0-.656-1.4 84.312 84.312 0 0 0-3.715 1.849.791.791 0 0 0 .733 1.402l.004-.003zm-4.648 2.591A139.17 139.17 0 0 1 43.755 18a.79.79 0 0 0-.737-1.4 120.327 120.327 0 0 0-4.714 2.61.799.799 0 1 0 .803 1.381zm-5.038 3.274a63.549 63.549 0 0 1 5.038-3.274.8.8 0 0 0-.803-1.381 61.108 61.108 0 0 0-5.157 3.375.789.789 0 0 0 .922 1.28zm-4.78 3.92a45.828 45.828 0 0 1 4.78-3.92.789.789 0 0 0-.918-1.283l-.004.002a47.885 47.885 0 0 0-4.918 4.081.771.771 0 0 0 1.061 1.12zm-4.158 4.372a55.138 55.138 0 0 1 4.159-4.372.771.771 0 1 0-1.058-1.122l-.003.003a62.472 62.472 0 0 0-4.271 4.487.772.772 0 0 0 1.17 1.007s.001-.002.003-.002zm-3.981 5.025a96.124 96.124 0 0 1 3.98-5.025.772.772 0 0 0-1.172-1.004 94.515 94.515 0 0 0-4.068 5.09.786.786 0 1 0 1.26.938zm-3.885 5.628a99.879 99.879 0 0 1 3.885-5.628.785.785 0 0 0-1.26-.939 99.533 99.533 0 0 0-3.96 5.709.794.794 0 0 0 1.335.86v-.002zm-2.87 4.66c.909-1.582 1.886-3.125 2.87-4.66a.794.794 0 0 0-1.336-.858c-1.001 1.555-1.995 3.118-2.919 4.72a.8.8 0 1 0 1.386.797zm-2.06 3.907a66.888 66.888 0 0 1 2.06-3.908.799.799 0 0 0-1.385-.797 69.635 69.635 0 0 0-2.118 3.996.804.804 0 1 0 1.443.71zm-1.778 3.728a166.389 166.389 0 0 1 1.778-3.728.804.804 0 0 0-1.443-.71c-.615 1.248-1.222 2.5-1.802 3.764a.807.807 0 0 0 1.467.674zm-2.065 4.89c.665-1.64 1.327-3.283 2.065-4.89a.807.807 0 0 0-1.467-.674c-.748 1.63-1.422 3.294-2.098 4.954a.81.81 0 1 0 1.5.61zm-2 5.083c.632-1.707 1.316-3.396 2-5.084a.81.81 0 0 0-1.5-.609 192.215 192.215 0 0 0-2.027 5.125.814.814 0 1 0 1.525.57l.001-.002zm-1.738 5.218c.55-1.748 1.1-3.5 1.737-5.218a.814.814 0 0 0-1.526-.568c-.652 1.743-1.215 3.52-1.776 5.292a.82.82 0 0 0 1.564.496l.001-.002zm-1.56 5.2c.472-1.746 1.017-3.474 1.56-5.2a.82.82 0 0 0-1.565-.494c-.553 1.746-1.108 3.495-1.59 5.262a.826.826 0 0 0 1.595.434v-.001zm-.64 2.61c.175-.878.407-1.745.64-2.61a.826.826 0 0 0-1.595-.432c-.244.899-.486 1.801-.671 2.715a.829.829 0 1 0 1.625.329v-.001zm-.511 3.625c.146-1.208.27-2.43.51-3.625a.83.83 0 0 0-1.625-.327c-.25 1.236-.385 2.5-.538 3.75a.833.833 0 1 0 1.653.203v-.001zm-.355 5.49c.02-1.835.135-3.669.355-5.49a.833.833 0 0 0-1.653-.202A52.266 52.266 0 0 0 .01 87.2a.84.84 0 1 0 1.678.022v-.003zM.043 92.358a.844.844 0 0 0 1.687-.053 123.484 123.484 0 0 1-.042-5.087.84.84 0 0 0-1.679-.02c-.023 1.72-.02 3.44.034 5.16zm0 0c.04 1.317.112 2.637.278 3.945a.84.84 0 0 0 1.666-.207c-.153-1.257-.218-2.525-.257-3.79a.844.844 0 0 0-1.687.052zm.278 3.945c.2 1.562.46 3.117.72 4.67a.834.834 0 1 0 1.647-.277c-.257-1.529-.514-3.06-.701-4.6a.84.84 0 1 0-1.666.202v.006zm.72 4.67c.252 1.49.496 2.991.86 4.46a.834.834 0 0 0 1.618-.4c-.35-1.428-.587-2.888-.83-4.337a.835.835 0 0 0-1.647.277zm.86 4.46c.221.897.458 1.79.71 2.68a.832.832 0 0 0 1.6-.452 80.372 80.372 0 0 1-.692-2.628.833.833 0 1 0-1.619.398v.001zm.71 2.68a38.024 38.024 0 0 0 1.08 3.182.83.83 0 0 0 1.553-.592c-.38-1-.741-2.011-1.032-3.042a.832.832 0 1 0-1.601.452zm1.08 3.182c.47 1.231.999 2.439 1.583 3.62a.83.83 0 0 0 1.489-.737 39.707 39.707 0 0 1-1.519-3.475.83.83 0 1 0-1.552.592zm1.583 3.62c.758 1.53 1.647 2.995 2.556 4.439a.834.834 0 1 0 1.41-.891c-.882-1.392-1.746-2.806-2.477-4.285a.83.83 0 0 0-1.489.737zm2.556 4.439a63.022 63.022 0 0 0 3.402 4.894.838.838 0 0 0 1.327-1.024 62.67 62.67 0 0 1-3.319-4.761.834.834 0 0 0-1.41.89zm3.402 4.894c1.013 1.314 2.069 2.6 3.212 3.803a.839.839 0 0 0 1.216-1.155c-1.104-1.162-2.122-2.404-3.101-3.672a.838.838 0 0 0-1.327 1.024zm3.212 3.803c1.212 1.274 2.518 2.46 3.844 3.613a.836.836 0 0 0 1.099-1.26c-1.285-1.122-2.552-2.272-3.727-3.508a.839.839 0 0 0-1.216 1.155zm3.844 3.613c1.332 1.159 2.703 2.286 4.171 3.268a.834.834 0 1 0 .927-1.386c-1.41-.942-2.724-2.028-4-3.142a.836.836 0 1 0-1.099 1.259l.001.001zm4.171 3.268c.924.618 1.86 1.233 2.84 1.759a.835.835 0 0 0 .789-1.472c-.934-.5-1.822-1.086-2.702-1.674a.834.834 0 0 0-.927 1.387zm2.84 1.759c.73.391 1.473.76 2.224 1.11a.835.835 0 1 0 .707-1.513 43.06 43.06 0 0 1-2.142-1.069.835.835 0 0 0-.789 1.472zm2.224 1.11c.807.377 1.638.701 2.487.97a.836.836 0 1 0 .505-1.593 18.93 18.93 0 0 1-2.285-.89.835.835 0 0 0-.707 1.513zm2.487.97c1.052.334 2.13.584 3.208.812a.836.836 0 1 0 .346-1.635c-1.025-.217-2.05-.453-3.049-.77a.836.836 0 0 0-.505 1.593zm3.208.812c1.602.34 3.223.585 4.844.806a.834.834 0 0 0 .226-1.652c-1.581-.218-3.162-.459-4.724-.79a.836.836 0 0 0-.346 1.636zm4.844.806c1.958.266 3.926.464 5.897.598a.831.831 0 0 0 .113-1.658 84.61 84.61 0 0 1-5.784-.592.834.834 0 0 0-.227 1.652zm5.897.598c2.045.139 4.095.207 6.145.213a.83.83 0 0 0 .005-1.66 94.212 94.212 0 0 1-6.037-.211.831.831 0 0 0-.113 1.658zm6.145.213c2.138.007 4.277-.09 6.407-.284a.827.827 0 0 0-.15-1.648c-2.078.187-4.165.28-6.252.273a.83.83 0 0 0-.006 1.66zm6.407-.284c3.066-.279 6.112-.838 9.135-1.41a.82.82 0 0 0-.304-1.612c-2.972.557-5.966 1.103-8.98 1.374a.828.828 0 0 0 .148 1.648zm9.135-1.41c3.642-.69 7.28-1.403 10.91-2.151a.811.811 0 0 0-.327-1.59 642.358 642.358 0 0 1-10.887 2.13.82.82 0 0 0 .302 1.611h.002zm10.91-2.151c2.794-.576 5.59-1.144 8.392-1.68a.812.812 0 1 0-.305-1.594c-2.81.541-5.612 1.11-8.414 1.684a.812.812 0 0 0 .326 1.59h.001zm8.392-1.68c1.658-.316 3.316-.632 4.971-.96a.817.817 0 1 0-.319-1.602c-1.65.331-3.304.65-4.957.968a.812.812 0 0 0 .306 1.595zm4.971-.96c1.713-.34 3.439-.619 5.162-.901a.82.82 0 0 0-.265-1.618c-1.742.287-3.486.57-5.216.917a.816.816 0 0 0 .32 1.601zm5.162-.901c2.2-.36 4.408-.677 6.624-.924a.827.827 0 1 0-.186-1.643c-2.242.258-4.476.583-6.703.95a.82.82 0 0 0 .266 1.617zm6.624-.924a99.518 99.518 0 0 1 5.342-.47.835.835 0 1 0-.095-1.669h-.001a97.869 97.869 0 0 0-5.432.496.827.827 0 0 0 .186 1.643zm5.342-.47c1.882-.107 3.768-.142 5.653-.156a.844.844 0 0 0-.013-1.688h-.003c-1.911.021-3.824.063-5.733.176a.835.835 0 0 0 .097 1.668zm5.653-.156c2.056-.016 4.115.057 6.16.277a.852.852 0 1 0 .181-1.694c-2.111-.224-4.236-.294-6.357-.27a.844.844 0 0 0 .016 1.687zm6.16.277a62.65 62.65 0 0 1 5.51.835.857.857 0 0 0 .333-1.68h-.001a64.508 64.508 0 0 0-5.662-.85.852.852 0 0 0-.18 1.695zm5.51.835c2.06.409 4.111.855 6.159 1.32a.864.864 0 1 0 .379-1.686 245.589 245.589 0 0 0-6.206-1.314.856.856 0 0 0-.332 1.68zm6.159 1.32c2.713.614 5.414 1.278 8.11 1.96a.873.873 0 1 0 .429-1.692h-.001a321.093 321.093 0 0 0-8.159-1.954.863.863 0 0 0-.379 1.685zm8.11 1.96c2.06.522 4.118 1.048 6.182 1.552a.878.878 0 0 0 .416-1.706c-2.06-.502-4.115-1.022-6.17-1.539a.873.873 0 0 0-.428 1.693zm6.182 1.552c1.818.443 3.661.788 5.497 1.146a.88.88 0 1 0 .337-1.726c-1.81-.352-3.627-.69-5.418-1.126a.878.878 0 0 0-.416 1.706zm5.497 1.146c3.148.614 6.306 1.175 9.466 1.717a.881.881 0 0 0 .298-1.737 438.528 438.528 0 0 1-9.428-1.706.88.88 0 0 0-.336 1.726zm9.466 1.717c3.852.661 7.718 1.238 11.592 1.75a.875.875 0 0 0 .231-1.733 322.383 322.383 0 0 1-11.525-1.754.881.881 0 0 0-.298 1.737zm11.592 1.75c3.095.41 6.19.819 9.29 1.188a.867.867 0 0 0 .206-1.723c-3.092-.37-6.178-.783-9.265-1.198a.875.875 0 1 0-.231 1.734zm9.29 1.188c1.823.216 3.65.409 5.481.516a.868.868 0 0 0 .102-1.733h-.002c-1.796-.102-3.588-.292-5.374-.506a.867.867 0 0 0-.207 1.723h.001zm5.481.516c2.377.14 4.764.153 7.145.174a.871.871 0 0 0 .015-1.743c-2.353-.02-4.71-.031-7.06-.164a.868.868 0 0 0-.1 1.733zm7.145.174c1.419.012 2.838.01 4.257-.035.99-.031 1.984-.077 2.969-.194a.873.873 0 1 0-.206-1.733c-.935.112-1.878.154-2.818.184-1.395.044-2.792.047-4.188.035a.871.871 0 0 0-.014 1.743zm7.226-.229c1.794-.213 3.583-.464 5.37-.726a.874.874 0 1 0-.254-1.73c-1.771.262-3.545.511-5.323.723a.872.872 0 1 0 .207 1.733zm5.37-.726c1.827-.269 3.655-.528 5.486-.768a.874.874 0 0 0-.226-1.734c-1.84.24-3.678.502-5.514.773a.874.874 0 0 0 .254 1.729zm5.486-.768c2.003-.262 4.003-.545 6.003-.833a.867.867 0 0 0-.244-1.717c-1.994.28-3.989.555-5.985.816a.874.874 0 0 0 .226 1.734zm6.003-.833c2.244-.324 4.477-.744 6.669-1.325a.854.854 0 0 0-.435-1.652c-2.13.556-4.299.955-6.478 1.26a.867.867 0 0 0 .24 1.717h.004zm6.669-1.325a49.589 49.589 0 0 0 5.74-1.89.842.842 0 0 0-.622-1.565 48.647 48.647 0 0 1-5.553 1.803.854.854 0 1 0 .432 1.652h.003zm5.74-1.89a71.77 71.77 0 0 0 5.248-2.347.831.831 0 0 0-.737-1.49 68.03 68.03 0 0 1-5.133 2.272.842.842 0 1 0 .618 1.566l.004-.001zm5.248-2.347a95.327 95.327 0 0 0 4.46-2.346.827.827 0 0 0-.813-1.44 90.346 90.346 0 0 1-4.384 2.297.831.831 0 1 0 .735 1.49h.002zm4.46-2.346a100.693 100.693 0 0 0 3.116-1.817.826.826 0 0 0-.862-1.408 98.781 98.781 0 0 1-3.067 1.785.827.827 0 1 0 .813 1.44zm3.116-1.817a49.098 49.098 0 0 0 2.788-1.863.824.824 0 0 0-.954-1.345 48.035 48.035 0 0 1-2.696 1.8.826.826 0 0 0 .862 1.409zm2.788-1.863a62.857 62.857 0 0 0 3.472-2.678.822.822 0 0 0-1.043-1.27c-1.1.902-2.222 1.78-3.383 2.603a.824.824 0 0 0 .953 1.345zm3.472-2.678a48.881 48.881 0 0 0 3.213-2.85.814.814 0 0 0-1.138-1.167 50.667 50.667 0 0 1-3.118 2.746.822.822 0 1 0 1.043 1.271zm3.213-2.85c1.094-1.073 2.104-2.232 3.087-3.407a.806.806 0 0 0-1.235-1.035c-.95 1.13-1.927 2.247-2.99 3.275a.815.815 0 1 0 1.134 1.171l.004-.004zm3.087-3.407c1.063-1.27 2.074-2.59 2.966-3.988a.804.804 0 0 0-1.355-.866v.001c-.854 1.34-1.825 2.602-2.846 3.818a.806.806 0 0 0 1.234 1.036h.001zm2.966-3.988a36.874 36.874 0 0 0 2.055-3.629.81.81 0 0 0-1.456-.712l-.002.004a33.718 33.718 0 0 1-1.953 3.472.804.804 0 0 0 1.356.865zm2.055-3.629a45.516 45.516 0 0 0 1.531-3.477.817.817 0 1 0-1.523-.594v.001a46.452 46.452 0 0 1-1.466 3.362.81.81 0 0 0 1.458.708zm1.531-3.477c.39-1 .757-2.009 1.062-3.037a.819.819 0 1 0-1.569-.466 37.932 37.932 0 0 1-1.016 2.91.817.817 0 0 0 1.523.593zm1.062-3.037c.348-1.168.61-2.363.859-3.555a.82.82 0 1 0-1.606-.335c-.238 1.149-.488 2.3-.822 3.424a.818.818 0 1 0 1.57.466zm.859-3.555a52.39 52.39 0 0 0 .695-4.004.826.826 0 0 0-1.64-.211v.004a48.272 48.272 0 0 1-.661 3.876.82.82 0 0 0 1.606.334zm.695-4.004a73.19 73.19 0 0 0 .361-3.42.838.838 0 1 0-1.67-.137l-.001.007a66.507 66.507 0 0 1-.33 3.342.826.826 0 0 0 1.64.207zm.361-3.42c.08-.98.145-1.962.176-2.945a.848.848 0 1 0-1.696-.052v.004c-.025.955-.082 1.91-.151 2.864a.838.838 0 0 0 1.671.128zm-1.536-6.111a60.16 60.16 0 0 1 .016 3.118.849.849 0 0 0 1.696.048 64.2 64.2 0 0 0 .002-3.205.858.858 0 1 0-1.714.039zm-.336-3.384c.209 1.116.307 2.25.336 3.384a.857.857 0 0 0 1.714-.039 23.06 23.06 0 0 0-.341-3.659.868.868 0 1 0-1.709.314zm-.682-3.177c.256 1.053.483 2.112.682 3.177a.869.869 0 0 0 1.709-.314 56.626 56.626 0 0 0-.693-3.275.873.873 0 1 0-1.698.412zm-.89-3.217c.33 1.062.628 2.135.89 3.217a.874.874 0 0 0 1.698-.412 48.767 48.767 0 0 0-.935-3.325.866.866 0 0 0-1.653.52zm-1.292-3.652a55.31 55.31 0 0 1 1.292 3.652.867.867 0 0 0 1.655-.514l-.002-.007a64.333 64.333 0 0 0-1.343-3.754.86.86 0 0 0-1.603.623zm-1.55-3.514a37.906 37.906 0 0 1 1.55 3.514.86.86 0 0 0 1.603-.623 41.208 41.208 0 0 0-1.613-3.673.863.863 0 1 0-1.541.779l.001.003zm-1.155-2.173c.412.709.783 1.443 1.155 2.173a.863.863 0 0 0 1.54-.782c-.384-.76-.767-1.522-1.19-2.26a.868.868 0 1 0-1.507.865l.002.003zm-.87-1.347c.308.436.602.884.87 1.347a.869.869 0 0 0 1.504-.869c-.292-.508-.612-1-.948-1.48a.87.87 0 1 0-1.427 1l.002.001zm-1.253-1.916c.403.648.814 1.292 1.254 1.916a.871.871 0 0 0 1.425-1.002 34.793 34.793 0 0 1-1.187-1.834.877.877 0 1 0-1.493.92zm-1.651-2.548c.562.841 1.117 1.688 1.651 2.548a.877.877 0 0 0 1.492-.92 86.976 86.976 0 0 0-1.668-2.61.886.886 0 1 0-1.478.979l.003.004zm-1.988-2.893c.674.957 1.337 1.921 1.988 2.893a.886.886 0 0 0 1.475-.981 123.544 123.544 0 0 0-2.007-2.937.89.89 0 1 0-1.456 1.025zm-2.106-2.739a40.15 40.15 0 0 1 2.106 2.74.89.89 0 1 0 1.456-1.026 41.247 41.247 0 0 0-2.202-2.86.89.89 0 0 0-1.36 1.146zm-2.308-2.516a40.155 40.155 0 0 1 2.308 2.516.89.89 0 1 0 1.36-1.145 42.71 42.71 0 0 0-2.411-2.625.888.888 0 1 0-1.257 1.254zm-3.677-3.35c1.252 1.084 2.506 2.177 3.677 3.35a.888.888 0 1 0 1.257-1.254c-1.201-1.204-2.485-2.326-3.768-3.44a.89.89 0 1 0-1.166 1.343zm-3.882-3.325a310.985 310.985 0 0 1 3.882 3.324.89.89 0 0 0 1.166-1.343 300.35 300.35 0 0 0-3.904-3.346.89.89 0 1 0-1.144 1.365zm-2.923-2.324c.993.75 1.97 1.524 2.923 2.324a.89.89 0 0 0 1.144-1.365 75.916 75.916 0 0 0-2.993-2.38.89.89 0 1 0-1.074 1.421zm-3.292-2.268a48.182 48.182 0 0 1 3.292 2.268.89.89 0 0 0 1.074-1.421 49.477 49.477 0 0 0-3.414-2.353.89.89 0 0 0-.952 1.506zm-3.366-1.878c1.16.553 2.28 1.191 3.366 1.878a.89.89 0 1 0 .952-1.506 34.16 34.16 0 0 0-3.553-1.98.89.89 0 0 0-.765 1.608zm-3.358-1.472c1.134.457 2.255.947 3.358 1.472a.89.89 0 0 0 .766-1.607 63.643 63.643 0 0 0-3.456-1.519.892.892 0 1 0-.668 1.654zm-3.556-1.283c1.2.385 2.387.812 3.556 1.283a.892.892 0 0 0 .668-1.654 55.625 55.625 0 0 0-3.672-1.337.898.898 0 0 0-.556 1.707h.003zm-3.667-1.075c1.231.326 2.454.685 3.667 1.075a.898.898 0 0 0 .552-1.708 74.7 74.7 0 0 0-3.754-1.115.905.905 0 0 0-.469 1.747l.003.001zm-3.729-.938c1.247.298 2.49.61 3.729.938a.905.905 0 0 0 .465-1.748 156.324 156.324 0 0 0-3.768-.96.91.91 0 1 0-.425 1.77zm-4.421-.824c1.483.22 2.963.475 4.421.824a.91.91 0 0 0 .426-1.77c-1.51-.366-3.043-.633-4.58-.861a.913.913 0 1 0-.267 1.807zm-6.214-.884c2.072.287 4.144.578 6.214.884a.913.913 0 0 0 .267-1.807c-2.075-.307-4.153-.6-6.23-.887a.914.914 0 0 0-.251 1.81zm-7.594-1.109c2.528.387 5.06.759 7.594 1.109a.914.914 0 0 0 .25-1.81c-2.525-.35-5.048-.719-7.57-1.103a.912.912 0 0 0-.274 1.804zm-6.054-.957c2.015.338 4.034.648 6.054.957a.912.912 0 0 0 .276-1.804h-.001a453.28 453.28 0 0 1-6.03-.947.91.91 0 0 0-.3 1.794zM185.3 34.56c2.014.37 4.028.74 6.048 1.077a.91.91 0 1 0 .3-1.794h-.001c-2.01-.334-4.015-.701-6.018-1.07a.908.908 0 1 0-.329 1.787zm-7.46-1.404c2.485.48 4.971.947 7.46 1.404a.908.908 0 1 0 .329-1.787c-2.484-.456-4.966-.92-7.446-1.396a.906.906 0 0 0-.343 1.779zm-5.996-1.244c1.99.452 3.992.856 5.996 1.244a.906.906 0 1 0 .343-1.779c-1.986-.38-3.97-.776-5.944-1.218a.899.899 0 0 0-.395 1.753zm-4.897-1.18c1.627.415 3.26.809 4.897 1.18a.899.899 0 0 0 .398-1.753h-.003c-1.622-.363-3.24-.749-4.85-1.159a.893.893 0 0 0-.442 1.732zm-3.669-1.064c1.198.43 2.437.749 3.669 1.064A.894.894 0 0 0 167.39 29c-1.177-.299-2.363-.6-3.506-1.013a.893.893 0 0 0-.607 1.68h.001zm-2.758-1.06c.913.369 1.83.727 2.758 1.06a.893.893 0 0 0 .605-1.681c-.904-.327-1.8-.679-2.691-1.04a.895.895 0 1 0-.673 1.66zm-3.079-1.476c.994.557 2.023 1.05 3.079 1.476a.895.895 0 0 0 .672-1.66 23.926 23.926 0 0 1-2.863-1.388.903.903 0 1 0-.888 1.571zm-4.143-2.54c1.363.875 2.73 1.748 4.143 2.54a.903.903 0 0 0 .888-1.572c-1.377-.785-2.715-1.641-4.049-2.498a.91.91 0 1 0-.982 1.53zm-5.51-3.618a318.02 318.02 0 0 0 5.51 3.619.91.91 0 0 0 .982-1.53 392.1 392.1 0 0 1-5.488-3.592.904.904 0 0 0-1.005 1.503zm-4.808-3.302a223.951 223.951 0 0 0 4.807 3.302.904.904 0 1 0 1.008-1.502h-.003a251.464 251.464 0 0 1-4.787-3.255.89.89 0 0 0-1.025 1.455zm-4.153-3.003a300.626 300.626 0 0 0 4.153 3.003.89.89 0 1 0 1.03-1.452c-.001-.001-.003-.003-.005-.003a215.05 215.05 0 0 1-4.133-2.97.882.882 0 0 0-1.046 1.422zm-4.406-2.975a65.695 65.695 0 0 1 4.406 2.975.882.882 0 0 0 1.045-1.422 68.779 68.779 0 0 0-4.52-3.058.884.884 0 1 0-.931 1.505zm-4.464-2.6a97.114 97.114 0 0 1 4.464 2.6.884.884 0 0 0 .93-1.505 99.01 99.01 0 0 0-4.54-2.653.888.888 0 0 0-.855 1.557l.001.001zm-4.191-2.143a80.41 80.41 0 0 1 4.191 2.143.888.888 0 0 0 .853-1.558 80.389 80.389 0 0 0-4.283-2.195.89.89 0 1 0-.761 1.61zm-3.088-1.463c1.028.49 2.058.976 3.088 1.463a.89.89 0 0 0 .76-1.61 2097.34 2097.34 0 0 1-3.084-1.46.89.89 0 0 0-.764 1.607zm-2.266-.965c.767.294 1.524.612 2.266.965a.89.89 0 1 0 .764-1.608 32.116 32.116 0 0 0-2.399-1.014.887.887 0 0 0-.631 1.657zm-2.292-.802c.773.241 1.536.513 2.292.802a.887.887 0 0 0 .634-1.656l-.002-.001a41.33 41.33 0 0 0-2.4-.832.884.884 0 0 0-.524 1.687zm-3.022-.656c1.014.17 2.039.35 3.022.656a.883.883 0 1 0 .525-1.687h-.001c-1.06-.328-2.161-.526-3.253-.71a.882.882 0 0 0-.293 1.741zm-4.994-.641c1.67.169 3.34.362 4.994.641a.883.883 0 0 0 .294-1.74c-1.694-.285-3.402-.484-5.11-.657a.882.882 0 1 0-.178 1.756zm-5.444-.47c1.817.124 3.632.286 5.444.47a.882.882 0 0 0 .178-1.756 165.91 165.91 0 0 0-5.503-.475.882.882 0 1 0-.12 1.761zm-6.782-.166c2.26 0 4.526.013 6.782.166a.883.883 0 1 0 .12-1.76c-2.296-.157-4.601-.173-6.9-.175a.884.884 0 1 0-.003 1.769h.001zm-5.893.15c.742-.071 1.49-.093 2.236-.112 1.218-.032 2.438-.039 3.657-.038a.884.884 0 0 0 .001-1.77c-1.234 0-2.47.005-3.704.036-.787.02-1.577.043-2.362.12a.887.887 0 1 0 .171 1.765zm-3.69.588c1.22-.25 2.45-.467 3.69-.587a.887.887 0 0 0-.172-1.765C90.513.3 89.221.525 87.94.786a.888.888 0 1 0 .355 1.74zm-3.588.745c1.195-.254 2.391-.5 3.588-.745a.888.888 0 0 0-.356-1.74c-1.201.245-2.402.491-3.601.746a.89.89 0 0 0 .37 1.74zm-2.793.588c.932-.194 1.863-.39 2.793-.588a.89.89 0 0 0-.37-1.739c-.928.198-1.857.394-2.786.588a.888.888 0 0 0 .363 1.74zm-3.094.835a32 32 0 0 1 3.094-.835.888.888 0 1 0-.362-1.739h-.001a34.05 34.05 0 0 0-3.266.881.888.888 0 1 0 .535 1.693zm-4.595 1.552a147.806 147.806 0 0 1 4.595-1.552.888.888 0 1 0-.535-1.693 167.284 167.284 0 0 0-4.65 1.56.892.892 0 0 0 .587 1.686h.003zm-4.39 1.74c1.424-.671 2.907-1.218 4.39-1.74a.893.893 0 0 0-.59-1.685c-1.543.538-3.086 1.103-4.566 1.8a.899.899 0 0 0 .765 1.626h.002zm-2.445 1.121c.824-.352 1.635-.737 2.446-1.12a.9.9 0 0 0-.767-1.627c-.792.373-1.584.748-2.388 1.095a.9.9 0 0 0 .709 1.652zm-1.79 1.087c.564-.401 1.15-.813 1.79-1.087a.9.9 0 1 0-.707-1.653h-.003c-.757.328-1.453.802-2.122 1.28a.897.897 0 0 0 1.042 1.46zm-2.535 1.536c.885-.442 1.73-.961 2.536-1.536a.898.898 0 1 0-1.043-1.46 17.6 17.6 0 0 1-2.295 1.398.894.894 0 0 0 .802 1.598zm-4.688 1.913c1.592-.556 3.178-1.158 4.688-1.913a.894.894 0 0 0-.8-1.6l-.002.001c-1.497.754-2.946 1.6-4.378 2.47a.58.58 0 0 0 .491 1.042z"/><path d="M57.711 13.841a1.266 1.266 0 1 0 1.062-2.286c-.487-.174-1.088-.396-1.592-.167a1 1 0 0 0-.404.336c-.347.494-.172 1.12.197 1.538.207.236.467.422.737.58zm0 0c.568.33 1.157.62 1.764.87a1.379 1.379 0 1 0 .96-2.583 77.56 77.56 0 0 1-1.662-.573 1.265 1.265 0 0 0-1.062 2.286zm1.764.87c.484.2.972.393 1.47.555a1.41 1.41 0 1 0 .872-2.682c-.462-.15-.922-.303-1.382-.456a1.378 1.378 0 0 0-.96 2.583zm1.47.555c.433.14.851.334 1.264.527a1.41 1.41 0 0 0 1.198-2.552 13.809 13.809 0 0 0-1.59-.657 1.41 1.41 0 0 0-.872 2.682zm1.264.527c.523.246 1.053.483 1.598.677a1.409 1.409 0 0 0 .95-2.652c-.46-.166-.908-.37-1.35-.577a1.41 1.41 0 1 0-1.2 2.552h.002zm1.598.677c.355.126.706.261 1.054.406a1.405 1.405 0 0 0 1.094-2.589 21.913 21.913 0 0 0-1.198-.47 1.409 1.409 0 1 0-.953 2.652h.004zm1.054.406c.351.147.7.302 1.045.462a1.399 1.399 0 0 0 1.197-2.529 27.88 27.88 0 0 0-1.148-.522 1.406 1.406 0 0 0-1.104 2.585l.01.004zm1.045.462c.595.277 1.213.506 1.829.733a1.391 1.391 0 0 0 .969-2.608c-.538-.202-1.082-.404-1.6-.654a1.4 1.4 0 0 0-1.215 2.521l.017.008zm1.829.733c.633.233 1.269.463 1.917.652a1.367 1.367 0 0 0 .844-2.598c-.6-.216-1.196-.439-1.792-.662a1.391 1.391 0 0 0-.977 2.605l.008.003zm1.917.652c.497.144.997.279 1.498.407a1.333 1.333 0 0 0 .7-2.572 22.28 22.28 0 0 1-1.354-.433 1.367 1.367 0 1 0-.844 2.598zm1.498.407c.503.129 1.01.248 1.519.35a1.314 1.314 0 0 0 .54-2.572c-.457-.1-.91-.22-1.359-.35a1.333 1.333 0 0 0-.74 2.561c.014.004.027.008.04.01zm1.519.35c.483.097.97.176 1.458.242a1.298 1.298 0 0 0 .38-2.568c-.435-.07-.868-.151-1.299-.246a1.314 1.314 0 1 0-.54 2.573zm1.458.242c.443.06.886.13 1.326.213a1.274 1.274 0 0 0 .523-2.494 23.107 23.107 0 0 0-1.47-.287 1.298 1.298 0 1 0-.416 2.562c.012.003.024.004.037.006zm1.326.213c.473.09.947.17 1.423.245a1.259 1.259 0 0 0 .394-2.486c-.434-.07-.866-.154-1.294-.253a1.274 1.274 0 0 0-.571 2.484l.048.01zm1.423.245c.487.075.976.141 1.466.197a1.253 1.253 0 0 0 .296-2.489c-.457-.056-.913-.12-1.368-.194a1.259 1.259 0 1 0-.402 2.484l.008.002zm1.466.197c.44.05.878.109 1.315.176a1.246 1.246 0 0 0 .4-2.459c-.472-.08-.945-.148-1.42-.206a1.253 1.253 0 1 0-.294 2.49zm1.315.176c.44.068.882.127 1.325.173a1.241 1.241 0 1 0 .258-2.468 18.51 18.51 0 0 1-1.184-.164 1.246 1.246 0 1 0-.417 2.456l.018.003zm1.325.173c.513.054 1.028.095 1.542.132a1.243 1.243 0 1 0 .18-2.479H82.7a43.178 43.178 0 0 1-1.461-.122 1.241 1.241 0 0 0-.258 2.47zm1.542.132c.595.043 1.19.089 1.783.137a1.244 1.244 0 1 0 .2-2.48c-.601-.049-1.204-.094-1.807-.136a1.243 1.243 0 0 0-.176 2.48zm1.783.137c.586.047 1.174.081 1.762.096a1.24 1.24 0 0 0 .075-2.478 36.452 36.452 0 0 1-1.636-.098 1.244 1.244 0 0 0-.2 2.48zm1.762.096c.492.012.984.02 1.476.02a1.235 1.235 0 0 0 .005-2.469 44.942 44.942 0 0 1-1.406-.03 1.24 1.24 0 1 0-.088 2.479h.013zm1.476.02c.456.001.912.014 1.367.034a1.237 1.237 0 1 0 .1-2.472c-.487-.018-.975-.03-1.462-.03a1.234 1.234 0 1 0-.008 2.469h.003zm1.367.034c.871.04 1.744.048 2.616.06a1.252 1.252 0 1 0 .032-2.504h-.016c-.843 0-1.688.002-2.532-.028a1.237 1.237 0 0 0-.1 2.472zm2.616.06c.96.012 1.934.02 2.887-.112a1.262 1.262 0 0 0-.342-2.5c-.834.112-1.689.108-2.529.107a1.252 1.252 0 0 0-.016 2.505zm2.887-.112c.71-.098 1.422-.181 2.135-.26a1.268 1.268 0 1 0-.291-2.518c-.73.089-1.459.179-2.187.277a1.262 1.262 0 1 0 .342 2.501zm2.135-.26c.74-.081 1.481-.174 2.214-.307a1.276 1.276 0 0 0-.456-2.511H98.3c-.676.127-1.36.218-2.042.3a1.267 1.267 0 0 0 .29 2.518zm2.214-.307c.564-.103 1.128-.202 1.692-.298a1.278 1.278 0 0 0-.429-2.52c-.576.098-1.151.2-1.726.308a1.276 1.276 0 0 0 .463 2.51zm1.692-.298a122.92 122.92 0 0 1 1.634-.268 1.273 1.273 0 0 0-.378-2.518c-.563.08-1.124.17-1.685.266a1.278 1.278 0 1 0 .43 2.52zm1.634-.268c.496-.078.991-.161 1.485-.256a1.27 1.27 0 1 0-.487-2.494c-.457.09-.916.166-1.376.232a1.273 1.273 0 0 0 .361 2.52c.006 0 .011-.001.017-.003zm1.485-.256c.485-.093.969-.197 1.45-.31a1.273 1.273 0 1 0-.576-2.48h-.003c-.451.106-.904.206-1.358.296a1.27 1.27 0 0 0 .486 2.494zm1.45-.31a28.086 28.086 0 0 0 1.687-.452 1.274 1.274 0 0 0-.73-2.441c-.508.152-1.02.292-1.536.413a1.274 1.274 0 0 0 .58 2.48zm1.687-.452a66.196 66.196 0 0 1 2.436-.663 1.274 1.274 0 1 0-.637-2.467c-.846.218-1.692.439-2.53.689a1.274 1.274 0 0 0 .731 2.441zm2.436-.663a58.272 58.272 0 0 0 2.797-.784 1.268 1.268 0 0 0-.742-2.424c-.891.268-1.79.508-2.692.741a1.274 1.274 0 0 0 .637 2.467zm2.797-.784c.88-.275 1.767-.532 2.654-.783a1.262 1.262 0 1 0-.687-2.429c-.905.257-1.809.517-2.709.788a1.268 1.268 0 1 0 .73 2.428l.013-.004zm2.654-.783c.87-.246 1.747-.473 2.635-.64a1.258 1.258 0 0 0-.457-2.474 30.08 30.08 0 0 0-2.866.685 1.262 1.262 0 0 0 .688 2.429zm2.635-.64 2.199-.415a1.253 1.253 0 0 0-.463-2.462c-.73.137-1.461.271-2.192.403a1.258 1.258 0 1 0 .456 2.474zm2.199-.415a30.027 30.027 0 0 1 1.51-.257 1.252 1.252 0 0 0-.336-2.482c-.548.075-1.093.175-1.637.277a1.252 1.252 0 1 0 .462 2.462zm1.51-.257c.536-.072 1.078-.105 1.617-.14a1.253 1.253 0 0 0-.16-2.5c-.599.04-1.199.078-1.793.158a1.252 1.252 0 0 0 .337 2.482zm1.617-.14a41.933 41.933 0 0 1 2.119-.085 1.252 1.252 0 0 0-.032-2.503c-.75.009-1.5.04-2.248.089a1.252 1.252 0 1 0 .16 2.5zm2.119-.085c.63-.008 1.26-.015 1.889-.018a1.247 1.247 0 0 0 0-2.494c-.64-.003-1.28 0-1.921.009a1.251 1.251 0 1 0 .03 2.503h.001zm1.889-.018c.655-.002 1.31.021 1.964.054a1.24 1.24 0 0 0 .133-2.477 39.594 39.594 0 0 0-2.097-.071 1.247 1.247 0 1 0-.01 2.494h.01zm1.964.054c.57.03 1.14.06 1.71.074a1.231 1.231 0 0 0 .095-2.46c-.557-.027-1.114-.06-1.672-.091a1.24 1.24 0 0 0-.14 2.477h.007zm1.71.074c.373.01.744.043 1.114.084a1.218 1.218 0 0 0 .29-2.419 16.438 16.438 0 0 0-1.309-.124 1.23 1.23 0 1 0-.094 2.46zm1.114.084c.402.044.803.103 1.2.182a1.209 1.209 0 0 0 .484-2.369 18.71 18.71 0 0 0-1.394-.232 1.218 1.218 0 1 0-.314 2.416l.024.002zm1.2.182c.391.079.783.152 1.177.216a1.207 1.207 0 1 0 .39-2.382 25.7 25.7 0 0 1-1.083-.203 1.209 1.209 0 1 0-.484 2.37zm1.177.216c.48.079.952.213 1.42.343a1.208 1.208 0 0 0 .646-2.328h-.001c-.552-.153-1.11-.304-1.675-.397a1.207 1.207 0 1 0-.39 2.382zm1.42.343c.484.134.97.268 1.45.42a1.202 1.202 0 0 0 .756-2.282c-.514-.177-1.039-.321-1.562-.466a1.208 1.208 0 0 0-.645 2.328zm1.45.42c.321.103.634.232.942.37a1.19 1.19 0 0 0 .991-2.166c-.384-.18-.776-.348-1.178-.486a1.202 1.202 0 1 0-.783 2.273l.027.01zm.942.37c.37.166.743.326 1.123.47a1.185 1.185 0 0 0 .839-2.218c-.33-.125-.652-.268-.97-.418a1.191 1.191 0 0 0-1.01 2.158l.018.008zm1.123.47c.252.094.5.2.742.32a1.183 1.183 0 0 0 1.058-2.117 10.11 10.11 0 0 0-.961-.42 1.185 1.185 0 0 0-.842 2.215l.003.001zm.742.32c.288.142.579.278.872.408a1.182 1.182 0 0 0 .958-2.162l-.003-.001a16.16 16.16 0 0 1-.77-.362 1.183 1.183 0 0 0-1.064 2.113l.008.004zm.872.408c.303.134.594.297.88.466a1.182 1.182 0 0 0 1.205-2.034c-.366-.217-.74-.423-1.13-.595a1.182 1.182 0 0 0-.955 2.163zm.88.466c.372.22.754.428 1.153.598a1.172 1.172 0 0 0 .964-2.136c-.312-.148-.614-.32-.912-.496a1.182 1.182 0 1 0-1.207 2.033h.001zm1.146.595c.554.241 1.132.43 1.714.592a.753.753 0 0 0 .869-1.074c-.362-.69-.902-1.318-1.618-1.654a1.172 1.172 0 0 0-.994 2.123l.029.013z" fill="#ad15ff"/><path d="M260.48 113.172c.294-.058.566-.201.784-.407a.867.867 0 1 0-1.456-.735.421.421 0 0 1-.048.153.674.674 0 0 0 .72.989zm.784-.407a.622.622 0 0 1 .133-.099.99.99 0 1 0-1.236-1.5 1.658 1.658 0 0 0-.353.864.867.867 0 0 0 1.456.735zm-.016-.032c.266-.093-.07-.01.134-.04a1.045 1.045 0 1 0-.43-2.04c-.309.085-.586.265-.791.512a.99.99 0 0 0 1.087 1.568zm.047-.031c.161-.01.323-.008.484-.007a1.072 1.072 0 1 0-.038-2.142 3.48 3.48 0 0 0-.788.1 1.045 1.045 0 0 0 .342 2.049zm.484-.007c.362.002.724-.014 1.085-.032a1.078 1.078 0 0 0-.106-2.155l-1.017.045a1.072 1.072 0 0 0 .038 2.142zm1.085-.032c.319-.017.639-.032.959-.032a1.078 1.078 0 1 0 0-2.155h-.005c-.353.001-.706.016-1.06.032a1.078 1.078 0 1 0 .105 2.155zm.959-.032c.167 0 .334 0 .501.01a1.08 1.08 0 0 0 .146-2.155h-.016c-.212-.011-.424-.011-.636-.011a1.078 1.078 0 0 0 .005 2.155zm.501.01c.199.014.442.085.648.132a1.085 1.085 0 1 0 .49-2.114c-.005 0-.008 0-.012-.002-.326-.072-.661-.154-.997-.172a1.08 1.08 0 0 0-.129 2.157zm.648.132 1.135.265a1.096 1.096 0 0 0 .5-2.134l-.031-.007c-.376-.076-.75-.157-1.125-.24a1.085 1.085 0 0 0-.48 2.117zm1.135.265c.392.092.78.208 1.164.33a1.116 1.116 0 1 0 .676-2.126l-.033-.01a18.12 18.12 0 0 0-1.338-.336 1.096 1.096 0 0 0-.47 2.141zm1.164.33c.506.162 1.01.333 1.511.511a1.13 1.13 0 0 0 .757-2.13l-.007-.003a29.367 29.367 0 0 0-1.618-.514 1.116 1.116 0 0 0-.643 2.136zm1.511.511c.47.167.938.344 1.398.54a1.129 1.129 0 0 0 .896-2.073 20.67 20.67 0 0 0-1.544-.6 1.13 1.13 0 0 0-.75 2.133zm1.398.54c.45.19.902.377 1.356.559a1.126 1.126 0 1 0 .838-2.091l-.006-.003c-.434-.171-.865-.35-1.292-.538a1.128 1.128 0 1 0-.91 2.066l.013.007zm1.356.559c.34.136.68.273 1.015.422a1.128 1.128 0 1 0 .92-2.061 27.165 27.165 0 0 0-1.103-.455 1.126 1.126 0 0 0-.832 2.094zm1.015.422c.278.124.552.255.824.389a1.128 1.128 0 0 0 .995-2.025c-.297-.146-.596-.29-.9-.425a1.128 1.128 0 1 0-.919 2.061zm.824.389c.367.18.727.37 1.085.565a1.127 1.127 0 0 0 1.08-1.98c-.387-.21-.776-.415-1.17-.61a1.128 1.128 0 1 0-.997 2.023l.002.002zm1.085.565c.406.221.8.463 1.184.72a1.136 1.136 0 0 0 1.262-1.89l-.02-.013c-.44-.28-.889-.547-1.347-.797a1.128 1.128 0 0 0-1.079 1.98zm1.184.72c.579.386 1.14.8 1.699 1.215a1.149 1.149 0 0 0 1.37-1.845 34.5 34.5 0 0 0-1.828-1.274 1.136 1.136 0 0 0-1.241 1.903zm1.699 1.215c.57.424 1.139.85 1.687 1.302a1.161 1.161 0 0 0 1.475-1.794l-.016-.013a57.606 57.606 0 0 0-1.782-1.345 1.149 1.149 0 0 0-1.364 1.85zm1.687 1.302c.452.372.9.75 1.346 1.13a1.185 1.185 0 1 0 1.508-1.827l-1.395-1.11a1.161 1.161 0 0 0-1.459 1.807zm1.346 1.13c.408.348.816.695 1.228 1.038a1.206 1.206 0 1 0 1.543-1.853l-.014-.012a248.63 248.63 0 0 0-1.249-1 1.185 1.185 0 0 0-1.508 1.826zm1.228 1.038c.289.24.575.484.858.732a1.212 1.212 0 0 0 1.601-1.82l-.006-.007a34.614 34.614 0 0 0-.923-.77 1.206 1.206 0 0 0-1.53 1.865zm.858.732c.268.236.532.476.794.719a1.216 1.216 0 0 0 1.655-1.783l-.006-.006a41.49 41.49 0 0 0-.848-.756 1.212 1.212 0 0 0-1.595 1.826zm.794.719c.382.354.743.73 1.102 1.106a1.218 1.218 0 0 0 1.76-1.684 25.806 25.806 0 0 0-1.213-1.21 1.217 1.217 0 0 0-1.649 1.788zm1.102 1.106a56.042 56.042 0 0 0 1.558 1.566 1.223 1.223 0 1 0 1.7-1.76l-.007-.007a42.777 42.777 0 0 1-1.49-1.483 1.218 1.218 0 1 0-1.76 1.684zm1.558 1.566c.405.39.809.781 1.217 1.167a1.234 1.234 0 0 0 1.696-1.793l-.017-.016a82.73 82.73 0 0 1-1.204-1.125 1.223 1.223 0 0 0-1.692 1.767zm1.217 1.167c.305.288.599.587.888.89a1.245 1.245 0 1 0 1.787-1.735 25.56 25.56 0 0 0-.996-.964 1.234 1.234 0 0 0-1.68 1.81zm.888.89c.254.265.508.531.757.802a1.254 1.254 0 0 0 1.848-1.694c-.004-.006-.01-.01-.014-.015-.264-.28-.534-.554-.803-.828a1.245 1.245 0 0 0-1.788 1.735zm.757.802c.231.252.471.497.714.738a1.26 1.26 0 0 0 1.78-1.783l-.01-.01c-.22-.214-.438-.43-.65-.654a1.254 1.254 0 0 0-1.834 1.71zm.714.738c.248.248.496.497.742.747a1.266 1.266 0 0 0 1.804-1.776l-.01-.01c-.255-.253-.51-.504-.766-.754a1.26 1.26 0 0 0-1.771 1.793zm.742.747c.428.434.849.875 1.27 1.314a1.268 1.268 0 1 0 1.83-1.758c-.433-.45-.863-.902-1.306-1.342a1.266 1.266 0 0 0-1.794 1.787zm1.27 1.314c.464.482.927.965 1.4 1.437a1.266 1.266 0 0 0 1.795-1.785c-.46-.466-.912-.938-1.365-1.41a1.268 1.268 0 1 0-1.83 1.758zm1.4 1.437c.327.325.665.64 1.008.947a1.263 1.263 0 1 0 1.683-1.884 19.293 19.293 0 0 1-.896-.848 1.265 1.265 0 0 0-1.803 1.777.058.058 0 0 1 .008.01zm1.008.947c.484.433.979.854 1.473 1.275a1.264 1.264 0 1 0 1.637-1.928h-.002a72.257 72.257 0 0 1-1.425-1.231 1.263 1.263 0 0 0-1.683 1.884zm1.473 1.275c.543.46 1.084.923 1.62 1.39a1.265 1.265 0 0 0 1.661-1.908c-.545-.475-1.094-.944-1.646-1.41a1.264 1.264 0 0 0-1.635 1.928zm1.62 1.39c.44.382.888.756 1.351 1.11a1.26 1.26 0 0 0 1.542-1.995c-.42-.329-.83-.673-1.232-1.023a1.265 1.265 0 1 0-1.661 1.907zm1.351 1.11c.415.317.839.622 1.27.916a1.255 1.255 0 0 0 1.418-2.072c-.39-.269-.773-.548-1.146-.84a1.26 1.26 0 1 0-1.542 1.995zm1.271.916c.423.287.849.569 1.279.845a1.25 1.25 0 0 0 1.36-2.096 62.325 62.325 0 0 1-1.222-.822 1.255 1.255 0 0 0-1.423 2.068l.006.004zm1.279.845c.424.274.85.543 1.278.81a1.247 1.247 0 0 0 1.317-2.119 64.42 64.42 0 0 1-1.234-.787 1.25 1.25 0 1 0-1.361 2.097zm1.278.81c.436.27.874.534 1.316.794a1.246 1.246 0 0 0 1.263-2.149c-.424-.25-.844-.504-1.262-.764a1.247 1.247 0 0 0-1.318 2.118h.001zm1.316.794c.446.262.899.51 1.36.744a1.246 1.246 0 1 0 1.126-2.223c-.415-.21-.822-.434-1.223-.67a1.246 1.246 0 1 0-1.264 2.148zm1.36.744c.455.23.916.447 1.383.652a1.245 1.245 0 0 0 1.002-2.28 26.413 26.413 0 0 1-1.26-.595 1.246 1.246 0 0 0-1.125 2.223zm1.383.652c.524.23 1.052.45 1.582.666a1.243 1.243 0 0 0 .94-2.301 62.63 62.63 0 0 1-1.52-.645 1.245 1.245 0 1 0-1.005 2.278l.002.002zm1.582.666c.46.187.92.373 1.382.555a1.241 1.241 0 0 0 .908-2.31c-.451-.178-.9-.362-1.35-.546a1.243 1.243 0 1 0-.943 2.3h.003zm1.382.555c.396.156.797.302 1.199.444a1.242 1.242 0 1 0 .829-2.343 29.538 29.538 0 0 1-1.12-.412 1.241 1.241 0 0 0-.91 2.31h.002zm1.199.444c.475.168.954.32 1.438.46a1.246 1.246 0 1 0 .681-2.397 22.62 22.62 0 0 1-1.296-.408 1.243 1.243 0 0 0-.824 2.345zm1.438.46c.49.14.983.265 1.48.374a1.248 1.248 0 1 0 .535-2.438 22.755 22.755 0 0 1-1.332-.333 1.246 1.246 0 0 0-.682 2.396zm1.48.374c.423.093.845.183 1.27.267a1.248 1.248 0 0 0 .487-2.448 69.377 69.377 0 0 1-1.223-.257 1.248 1.248 0 0 0-.534 2.438zm1.27.267c.499.1 1 .184 1.503.267a1.248 1.248 0 0 0 .404-2.464 42.216 42.216 0 0 1-1.42-.25 1.248 1.248 0 1 0-.488 2.447zm1.503.267c.586.096 1.173.182 1.762.254a1.247 1.247 0 0 0 .304-2.476c-.555-.068-1.11-.15-1.662-.242a1.248 1.248 0 0 0-.404 2.464zm1.762.254c.64.078 1.284.117 1.927.137a1.244 1.244 0 0 0 .084-2.486 19.91 19.91 0 0 1-1.707-.127 1.247 1.247 0 1 0-.305 2.476h.001zm1.927.137c.54.017 1.08.032 1.62.03a1.239 1.239 0 0 0 .004-2.476c-.513-.003-1.027-.021-1.54-.04a1.244 1.244 0 0 0-.091 2.486h.007zm1.62.03c.454 0 .908-.019 1.36-.044a1.235 1.235 0 0 0-.133-2.466c-.407.022-.815.037-1.223.034a1.239 1.239 0 1 0-.004 2.477zm1.36-.044a31.833 31.833 0 0 0 1.701-.145 1.233 1.233 0 0 0-.269-2.452c-.52.057-1.042.104-1.565.131a1.235 1.235 0 1 0 .13 2.466h.004zm1.701-.145c.64-.07 1.277-.152 1.914-.242a1.243 1.243 0 0 0-.35-2.46c-.008 0-.015.002-.023.004-.601.096-1.204.18-1.81.246a1.233 1.233 0 0 0 .269 2.453zm1.913-.242a39.18 39.18 0 0 0 2.156-.373 1.262 1.262 0 1 0-.517-2.469c-.666.146-1.337.277-2.01.386a1.242 1.242 0 0 0 .371 2.456zm2.156-.373a18.283 18.283 0 0 0 2.49-.693 1.272 1.272 0 1 0-.845-2.4c-.708.248-1.429.463-2.162.624a1.262 1.262 0 0 0 .517 2.47zm2.49-.693a17.872 17.872 0 0 0 2.644-1.193 1.253 1.253 0 0 0-1.173-2.214c-.75.385-1.522.727-2.316 1.006a1.272 1.272 0 1 0 .844 2.4zm2.64-1.19c.946-.514 1.812-1.183 2.656-1.847 1.326-1.044 2.605-2.148 3.868-3.265a.746.746 0 0 0-.892-1.19 232.597 232.597 0 0 1-4.241 2.62c-.844.507-1.69 1.015-2.565 1.468a1.253 1.253 0 1 0 1.173 2.214z" fill="#ffa511"/><path d="M120.71 87.013c.025-.186.06-.37.091-.555a.392.392 0 0 0-.757-.193c-.06.175-.119.36-.184.53a.441.441 0 1 0 .85.218zm-.895-.16c.007.195.044.38.235.488a.444.444 0 0 0 .606-.165c.054-.096.057-.194.066-.298a.455.455 0 1 0-.906-.024zm-.062-1.658.062 1.659a.455.455 0 0 0 .907.024l.15-1.654a.56.56 0 1 0-1.118-.03zm0 0a.56.56 0 0 0 1.118.029c.1-1.099.274-2.19.487-3.272a.698.698 0 0 0-1.37-.27c0 .01-.004.02-.005.03-.175 1.15-.274 2.318-.23 3.483zm1.605-3.243c.241-1.225.524-2.442.843-3.65a.77.77 0 0 0-1.49-.394c-.002.008-.003.017-.006.025-.286 1.25-.53 2.511-.722 3.78a.698.698 0 0 0 1.374.24zm.843-3.65c.266-1.004.543-2.007.876-2.992a.815.815 0 1 0-1.544-.521l-.005.015c-.325 1.028-.582 2.078-.823 3.13a.77.77 0 0 0 1.496.368zm.876-2.992c.312-.922.72-1.813 1.149-2.686a.827.827 0 0 0-1.485-.73c-.463.942-.896 1.907-1.213 2.91a.815.815 0 0 0 1.549.506zm1.149-2.686c.198-.404.403-.808.642-1.19a2.92 2.92 0 0 1 .194-.28c.022-.027.06-.063.047-.053a.811.811 0 0 0-.84-1.384c-.342.18-.583.515-.789.832-.278.43-.513.887-.739 1.345a.827.827 0 1 0 1.485.73zm.257-1.395c.15.261.262.543.367.825a.782.782 0 0 0 1.47-.537c-.158-.444-.33-.901-.595-1.295a1.492 1.492 0 0 0-.502-.49 1.008 1.008 0 0 0-.953-.015.81.81 0 0 0 .212 1.513zm.367.825c.502 1.343.877 2.736 1.23 4.124a.771.771 0 1 0 1.495-.38c-.368-1.44-.756-2.88-1.255-4.281a.782.782 0 1 0-1.474.525l.004.011zm1.23 4.124c.36 1.416.727 2.832 1.14 4.233a.772.772 0 0 0 1.481-.435c-.407-1.384-.77-2.781-1.126-4.178a.77.77 0 0 0-1.495.38zm1.14 4.233c.28.958.591 1.907.956 2.836a.771.771 0 0 0 1.436-.562 33.218 33.218 0 0 1-.91-2.709.772.772 0 1 0-1.483.435zm.956 2.836c.48 1.223 1.168 2.377 2.1 3.31a.492.492 0 0 0 .787-.567 40.256 40.256 0 0 1-1.452-3.305.77.77 0 1 0-1.436.56v.002z"/><path d="M122.616 81.173a.36.36 0 0 0 .659-.265c-.01-.045-.043-.165-.006-.208.056-.064.202-.076.278-.087a.559.559 0 1 0-.254-1.084c-.353.115-.696.337-.826.702-.115.322-.022.659.15.942zm.932-.56c.62-.092 1.244-.16 1.866-.234 1.306-.155 2.613-.305 3.92-.453a.463.463 0 0 0-.073-.924c-1.322.06-2.645.128-3.963.241-.424.037-.847.077-1.268.137a4.418 4.418 0 0 0-.736.149.559.559 0 0 0 .254 1.084z"/></svg>