<svg width="272.01" height="218.99" xml:space="preserve" xmlns="http://www.w3.org/2000/svg"><path d="M24.602 4.797v190.4h240.56" fill="none" stroke="#000" stroke-linecap="round" stroke-linejoin="round" stroke-miterlimit="10" stroke-width="1.32286775"/><path d="M24.271 5.062c.054-.105.106-.21.161-.312a.374.374 0 1 0-.683-.299c-.038.111-.08.22-.12.331a.35.35 0 0 0 .642.28zm.119-.249a.328.328 0 0 0 .037-.052.398.398 0 0 0 .045-.3.325.325 0 0 0-.025-.067c-.093-.196-.307-.254-.501-.204a.41.41 0 1 0 .444.624zm-.234.353.234-.353a.41.41 0 0 0-.445-.623l-.409.106a.572.572 0 1 0 .62.87zm-1.2 2.607c.276-.627.553-1.254.84-1.876.112-.24.212-.509.36-.731a.572.572 0 0 0-.62-.87c-.438.114-.719.608-.935.966-.37.61-.68 1.257-.984 1.902a.736.736 0 1 0 1.332.625l.008-.016zm-1.124 2.557 1.125-2.557a.736.736 0 0 0-1.34-.61l-1.188 2.53a.77.77 0 0 0 1.395.655l.008-.018zm-1.483-.02a.772.772 0 0 0 1.06.487c.216-.098.334-.265.423-.467a.77.77 0 0 0-1.34-.747.768.768 0 0 0-.108.193.817.817 0 0 0-.035.535zm1.48.001.683-1.918a.745.745 0 0 0-1.398-.517l-.73 1.9a.77.77 0 1 0 1.439.553l.007-.018zm.683-1.918c.39-1.098.733-2.218.955-3.364a.694.694 0 0 0-1.357-.29c-.248 1.07-.602 2.114-.996 3.137a.745.745 0 0 0 1.391.535l.007-.018zm.955-3.364c.067-.344.14-.69.247-1.025.028-.086.058-.172.097-.253.027-.057.014-.028.016-.03a.706.706 0 1 0-1.057-.932c-.172.222-.264.502-.347.766-.123.39-.22.787-.313 1.185a.694.694 0 0 0 1.352.314l.005-.025zm-.188-1.103c.06.077.117.158.17.24a.778.778 0 0 0 1.302-.853c-.01-.015-.02-.03-.032-.045-.199-.261-.426-.521-.715-.684-.411-.232-.934-.181-1.234.205a.706.706 0 0 0 .509 1.137zm.17.24c.302.46.554.95.747 1.465a.844.844 0 1 0 1.557-.65 9.108 9.108 0 0 0-1.034-1.713.778.778 0 0 0-1.27.899zm.75 1.474c.26.672.72 1.269 1.171 1.822.682.835 1.434 1.612 2.2 2.368a.57.57 0 0 0 .862-.742 58.035 58.035 0 0 1-1.783-2.559c-.322-.494-.65-.999-.892-1.538a.844.844 0 0 0-1.558.649zM260.812 193.123c.093-.1.266-.012.368.031a.563.563 0 1 0 .368-1.062c-.292-.082-.613-.1-.896.026a.945.945 0 0 0-.524.628.402.402 0 0 0 .684.377zm.368.031c.4.166.762.412 1.093.69a.63.63 0 1 0 .81-.967c-.01-.009-.022-.017-.033-.025a4.743 4.743 0 0 0-1.502-.76.563.563 0 0 0-.368 1.062zm1.093.69c.432.362.874.713 1.325 1.052a.702.702 0 1 0 .783-1.163 17.186 17.186 0 0 1-1.33-.881.63.63 0 0 0-.778.992zm1.325 1.052a5.714 5.714 0 0 0 1.712.881.779.779 0 1 0 .415-1.5 4.743 4.743 0 0 1-1.344-.544.702.702 0 0 0-.783 1.163zm1.712.881c.433.137.899.296 1.358.297a.809.809 0 0 0 .015-1.617c-.318-.006-.651-.108-.958-.18a.78.78 0 0 0-.415 1.5zm1.358.297h.367a.806.806 0 0 0 .015-1.611l-.367-.007a.808.808 0 1 0-.028 1.618h.014zm.546.043c.072-.037.143-.074.212-.116.29-.18.476-.496.421-.85a.807.807 0 0 0-.17-.385.826.826 0 0 0-.627-.303.803.803 0 0 0-.551.206.807.807 0 0 0 .7 1.455l.015-.007zm-1.356.686 1.356-.686a.807.807 0 0 0-.719-1.446l-1.365.667a.818.818 0 1 0 .718 1.47l.01-.005zm-1.836.984c.601-.348 1.217-.67 1.836-.984a.818.818 0 0 0-.728-1.465c-.655.32-1.305.653-1.936 1.018a.827.827 0 0 0 .828 1.431zm-2.962 2.138c.946-.76 1.91-1.53 2.962-2.138a.827.827 0 1 0-.828-1.431c-.518.3-.977.697-1.401 1.116a17.174 17.174 0 0 0-1.488 1.71.533.533 0 0 0 .755.742zM257.545 210.363a.384.384 0 0 0 .766.04c.054-.426.293-.758.67-.958a.523.523 0 1 0-.563-.878 2.178 2.178 0 0 0-.873 1.796zm1.437-.918c.37-.197.765-.39 1.18-.466a.63.63 0 1 0-.295-1.221c-.532.16-1.012.474-1.449.81a.523.523 0 0 0 .564.877zm1.18-.466a7.01 7.01 0 0 1 1.264-.092.699.699 0 1 0-.064-1.394 7.597 7.597 0 0 0-1.495.265.63.63 0 0 0 .295 1.221zm1.264-.092c.378 0 .747.098 1.061.31a.765.765 0 1 0 .806-1.3 3.28 3.28 0 0 0-1.931-.404.698.698 0 0 0 .064 1.394zm1.061.31c.246.164.447.387.535.674a.8.8 0 1 0 1.529-.467l-.004-.014c-.21-.643-.67-1.16-1.254-1.493a.765.765 0 0 0-.805 1.3zm2.086 2.543c.127-.762.217-1.6-.027-2.35a.8.8 0 0 0-1.524.481c.057.187.064.39.062.584-.003.34-.048.68-.105 1.016a.808.808 0 1 0 1.594.272v-.002zm-1.372 3.157c.64-.954 1.181-2.014 1.372-3.157a.808.808 0 0 0-1.594-.269c-.156.914-.615 1.762-1.126 2.524a.811.811 0 1 0 1.348.902zm-1.426 1.92c.222-.194.396-.447.569-.683.296-.405.578-.82.857-1.237a.811.811 0 0 0-1.348-.902c-.413.616-.847 1.227-1.226 1.865a.756.756 0 0 0 1.148.956zm-1.247.056a.706.706 0 0 0 .201.173c.263.151.569.11.813-.05a2.07 2.07 0 0 0 .233-.18.756.756 0 1 0-1.148-.955c-.01.014-.018.03-.027.044a.692.692 0 0 0-.206.357.728.728 0 0 0 .134.611zm1.233-.436.017-.491a.646.646 0 0 0-1.276-.164l-.108.48a.692.692 0 1 0 1.367.175zm.017-.491c.01-.27.152-.55.27-.786a.549.549 0 0 0-.936-.567c-.26.358-.512.752-.61 1.19a.646.646 0 1 0 1.276.163zm.27-.786c.243-.49.64-.906 1.035-1.278a.471.471 0 0 0-.636-.695c-.483.428-.955.883-1.335 1.406a.549.549 0 1 0 .935.567zm1.035-1.278c.761-.718 1.606-1.35 2.446-1.972a.528.528 0 1 0-.657-.826c-.813.696-1.626 1.392-2.425 2.103a.471.471 0 1 0 .626.705l.01-.01zm2.446-1.972c.475-.351.947-.71 1.4-1.089.301-.25.603-.509.86-.806a.62.62 0 0 0-.936-.81l-.019.022c-.204.26-.446.49-.685.717-.414.394-.844.77-1.277 1.14a.528.528 0 0 0 .657.826zm2.26-1.895c.364-.421.66-.902.856-1.425a.647.647 0 0 0-1.21-.454l-.007.018c-.133.39-.34.75-.594 1.073a.619.619 0 0 0 .954.788zm.856-1.425a5.71 5.71 0 0 0 .347-1.39.66.66 0 1 0-1.314-.14v.009a4.7 4.7 0 0 1-.25 1.084.647.647 0 0 0 1.217.437zm-.97-1.432a.66.66 0 0 0 1.317.042c.027-.25.026-.514-.077-.748a.858.858 0 0 0-.925-.503.68.68 0 0 0-.315 1.21zm.229.485c.09-.11.187-.22.298-.312.023-.02.086-.057.077-.055a.68.68 0 0 0-.289-1.327c-.48.074-.86.44-1.16.795a.7.7 0 0 0 1.067.907l.006-.008zm-.827 1.345c.237-.467.492-.94.827-1.345a.7.7 0 0 0-1.075-.9c-.405.477-.732 1.02-1.034 1.566a.726.726 0 1 0 1.283.679zm-.677 1.937a8.22 8.22 0 0 1 .677-1.937.726.726 0 0 0-1.282-.68 9.18 9.18 0 0 0-.873 2.273.759.759 0 0 0 1.474.36l.004-.016zm-.237 2.409c0-.808.062-1.62.237-2.409a.759.759 0 0 0-1.478-.344 13.644 13.644 0 0 0-.356 2.723.798.798 0 1 0 1.597.03zm-1.533 2.753a.852.852 0 1 0 1.697-.154l-.004-.036c-.114-.85-.16-1.707-.16-2.563a.798.798 0 0 0-1.596-.03c-.036.927-.02 1.858.063 2.783zm0 0c.08.869.333 1.762.943 2.412a.879.879 0 1 0 1.281-1.203c-.345-.368-.466-.916-.531-1.4a.852.852 0 0 0-1.693.19zm.943 2.412c.688.733 1.796.518 2.635.218 1.25-.449 2.41-1.164 3.522-1.878a.57.57 0 0 0-.555-.994c-1.095.525-2.233 1.058-3.421 1.337-.262.061-.54.118-.81.101-.136-.008-.112-.014-.17-.062a.879.879 0 0 0-1.201 1.278zM.712 1.528c.096-.302.187-.607.292-.907A.457.457 0 1 0 .117.43c-.027.315-.075.63-.113.943a.364.364 0 0 0 .708.154zM1.054.6a3 3 0 0 0-.012-.154.598.598 0 0 0-.021-.103C.89-.102.05-.147.118.516a.457.457 0 0 0 .818.232C.658 1.111.1.83.116.452L.115.48.109.61A.473.473 0 1 0 1.053.6zm.143 2.611L1.054.601A.473.473 0 0 0 .11.609L.015 3.222a.591.591 0 1 0 1.182-.011zM.22 6.809a.738.738 0 1 0 1.404-.45c-.134-.37-.195-.769-.25-1.157a23.645 23.645 0 0 1-.177-1.991.592.592 0 0 0-1.182.01c-.026.704-.037 1.41 0 2.112.027.494.07.998.205 1.476zm0 0a3.634 3.634 0 0 0 1.32 1.935.773.773 0 1 0 .924-1.24 2.461 2.461 0 0 1-.84-1.146.738.738 0 0 0-1.404.451zm1.32 1.935c.603.45 1.332.722 2.092.663a.771.771 0 0 0-.116-1.538c-.387.028-.747-.138-1.052-.364a.773.773 0 1 0-.925 1.239zm2.092.663c.918-.071 1.602-.758 2.063-1.501a.753.753 0 0 0-1.269-.81c-.198.3-.508.744-.91.773a.771.771 0 0 0 .112 1.539h.004zm2.063-1.501a8.553 8.553 0 0 0 1.058-2.573.723.723 0 0 0-1.405-.343 6.979 6.979 0 0 1-.922 2.105.753.753 0 0 0 1.26.827l.01-.016zm1.058-2.573a18.42 18.42 0 0 0 .418-2.68.707.707 0 0 0-1.408-.118c-.071.828-.21 1.65-.415 2.455a.723.723 0 1 0 1.401.357l.004-.014zm.418-2.68.113-1.386A.704.704 0 0 0 5.88 1.15l-.118 1.385a.707.707 0 1 0 1.408.12v-.002zm.116-1.39a.954.954 0 0 0-.01-.222h.001A.704.704 0 0 0 5.907.99a1.02 1.02 0 0 0-.027.174.706.706 0 0 0 1.405.132l.003-.032zm-.083 1.711.083-1.71a.706.706 0 0 0-1.408-.101l-.16 1.705a.745.745 0 1 0 1.483.14l.002-.034zm-.047 3.722a59.324 59.324 0 0 1 .047-3.722.745.745 0 0 0-1.485-.106 42.118 42.118 0 0 0-.16 3.837.799.799 0 1 0 1.598.004v-.013zm-1.414 4.35a.832.832 0 0 0 1.658-.147l-.001-.012a47.17 47.17 0 0 1-.243-4.19.798.798 0 0 0-1.598.008 47.75 47.75 0 0 0 .184 4.341zm0 0a56.79 56.79 0 0 1 .222 3.743.848.848 0 0 0 1.695-.038c-.03-1.291-.128-2.58-.26-3.864a.832.832 0 0 0-1.657.16zm1.75 6.585c.18-.945.19-1.922.167-2.88a.848.848 0 0 0-1.695.038c.019.84.018 1.7-.139 2.527a.849.849 0 0 0 1.668.315zm-1.25 1.888c.747-.34 1.106-1.122 1.25-1.888a.849.849 0 0 0-1.667-.315c-.036.191-.084.39-.182.56a.338.338 0 0 1-.124.138.835.835 0 0 0 .723 1.505zm-2.165-.337c.636.428 1.432.67 2.165.336a.835.835 0 1 0-.723-1.504c-.178.09-.464-.086-.608-.168a.788.788 0 0 0-.834 1.336zm-1.475-1.586a4.684 4.684 0 0 0 1.475 1.586.788.788 0 1 0 .88-1.308c-.015-.01-.03-.02-.046-.028A3.501 3.501 0 0 1 3.8 16.84a.708.708 0 0 0-1.196.755zm-.659-1.553c.135.547.384 1.064.659 1.553a.708.708 0 1 0 1.196-.755c-.251-.356-.495-.736-.634-1.152a.636.636 0 0 0-1.22.354zm-.168-1.872c.003.622.018 1.265.168 1.872a.636.636 0 0 0 1.236-.305l-.015-.049c-.159-.476-.153-1.018-.147-1.513a.62.62 0 1 0-1.242-.015v.01zm0 0a.62.62 0 0 0 1.242.005c.005-.415.018-.948.274-1.3a.652.652 0 1 0-1.053-.767l-.025.037c-.374.593-.44 1.34-.438 2.025zm1.516-1.295a4.02 4.02 0 0 1 .8-.812.689.689 0 0 0-.841-1.09c-.008.006-.016.011-.023.018-.393.331-.74.718-1.014 1.154a.652.652 0 0 0 1.078.73zm.8-.812a8.592 8.592 0 0 1 1.165-.747.705.705 0 1 0-.672-1.239 8.1 8.1 0 0 0-1.357.914.689.689 0 0 0 .864 1.072zm1.165-.747c.575-.311 1.17-.588 1.76-.87a276.526 276.526 0 0 1 3.338-1.554.459.459 0 0 0-.336-.852c-1.173.392-2.345.79-3.503 1.223-.65.242-1.319.482-1.93.814a.705.705 0 0 0 .671 1.24z"/><path d="M24.93 82.518h115.807V195.3" fill="none" stroke="#000" stroke-linecap="round" stroke-linejoin="round" stroke-miterlimit="10" stroke-width="1.32286775"/><path d="M2.885 79.766c.755-.48 1.45-1.053 2.085-1.681a.722.722 0 1 0-1.08-.953 20.116 20.116 0 0 1-1.62 1.872.494.494 0 0 0 .614.762zm2.085-1.681c.236-.234.48-.466.745-.667.07-.052.142-.104.219-.145.021-.012.06-.023.014-.012a.837.837 0 1 0-.448-1.61c-.32.108-.587.332-.823.565a8.867 8.867 0 0 0-.787.916.722.722 0 0 0 1.08.953zm.526-.852a.862.862 0 0 0 1.688-.35l-.002-.015c-.077-.34-.21-.678-.459-.93a1.182 1.182 0 0 0-1.223-.287.836.836 0 0 0-.004 1.583v-.001zm.001.01c.159.725.201 1.482.251 2.22a.872.872 0 0 0 1.74-.118v-.008c-.063-.823-.125-1.66-.307-2.468a.862.862 0 0 0-1.684.373zm.251 2.22c.092 1.347.121 2.698.136 4.046a.884.884 0 0 0 1.767-.02v-.002c-.02-1.384-.056-2.77-.163-4.15a.872.872 0 0 0-1.74.127zm.136 4.047c.027 2.318.308 4.665 1.07 6.864a.577.577 0 0 0 1.117-.261c-.278-2.197-.39-4.413-.42-6.625a.884.884 0 0 0-1.767.022zM138.522 205.483c.154-.234.36-.505.534-.748a.41.41 0 0 0-.619-.534c-.22.211-.439.436-.663.637a.498.498 0 1 0 .748.645zm-.911-.18a.5.5 0 0 0 .5.41.577.577 0 0 0 .375-.164.511.511 0 1 0-.741-.697c-.101.132-.167.274-.134.451zm.875.246 1.274-1.106a.683.683 0 1 0-.99-.931l-1.025 1.34a.511.511 0 0 0 .74.697zm1.274-1.106c.544-.471 1.086-.944 1.634-1.41a.862.862 0 1 0-1.117-1.313l-.037.033c-.55.525-1.01 1.157-1.47 1.759a.683.683 0 0 0 .99.931zm1.634-1.41c.124-.105.275-.253.428-.31a.878.878 0 1 0-.619-1.644c-.369.138-.681.405-.963.674a.862.862 0 0 0 1.154 1.28zm-.587-.612c.088.677.066 1.375.06 2.055a.885.885 0 0 0 1.77.015v-.005c.004-.69.005-1.385-.06-2.072a3.033 3.033 0 0 0-.125-.681c-.173-.515-.706-.86-1.249-.655a.878.878 0 0 0-.397 1.344l.001-.001zm1.663 6.38c.143-1.432.164-2.877.168-4.315a.885.885 0 0 0-1.77-.01c-.013 1.382-.036 2.77-.176 4.146a.894.894 0 1 0 1.778.18zm-1.663 6.178a.58.58 0 0 0 1.156-.01c.148-2.057.302-4.115.507-6.168a.894.894 0 0 0-1.778-.179c-.214 2.107-.07 4.254.115 6.357z"/><g fill="#55e1ff"><path d="M43.75 113.299c.03.217.115.424.246.6l.351.328a1.306 1.306 0 0 0 1.658-.212c.396-.233.81-.437 1.221-.643a1.277 1.277 0 1 0-1.142-2.284c-.422.211-.844.422-1.26.645-.438.233-.855.47-1.022.984a1.3 1.3 0 0 0-.05.582zm.601.931c.544.343 1.178.22 1.74.007a.944.944 0 0 0 .454-1.4c-.33-.502-.771-.974-1.413-1.015a1.306 1.306 0 0 0-.78 2.408zM67.723 117.899a1.277 1.277 0 0 0-.759-2.38 3.18 3.18 0 0 1-.039-.126.877.877 0 0 0-1.703.066c-.12.598-.19 1.259.085 1.826.232.478.691.812 1.22.88.417.054.835-.06 1.196-.266zM75.67 100.446l.683-1.575a1.277 1.277 0 0 0-2.33-1.043l-.72 1.56a1.296 1.296 0 0 0 2.355 1.084l.012-.026zM96.523 134.152l.32 1.072a1.18 1.18 0 1 0 2.261-.675l-.32-1.072a1.18 1.18 0 1 0-2.261.675zM107.149 101.286l.165 1.718a1.277 1.277 0 0 0 2.542-.244l-.165-1.718a1.277 1.277 0 1 0-2.542.244zM128.615 124.525l.804 1.347a.958.958 0 1 0 1.646-.982l-.804-1.347a.958.958 0 1 0-1.646.982zM89.31 109.806l.267-.22a.898.898 0 0 0-1.138-1.388l-.268.22a.898.898 0 1 0 1.138 1.388zM87.883 129.885l1.01-1.156a1.483 1.483 0 1 0-2.45-1.624l-.67 1.382a1.277 1.277 0 0 0 2.11 1.398zM114.295 114.659l.195.076a1.436 1.436 0 1 0-.787-1.918l-.085.19a1.235 1.235 0 0 0 .628 1.631l.05.02zM130.175 88.393l.701-.165a1.277 1.277 0 1 0-.585-2.486l-.7.165a1.277 1.277 0 0 0 .584 2.486zM93.843 167.097a.942.942 0 0 0-.198-1.708h.001a1.387 1.387 0 0 0-2.5-.81c-.288.388-.553.817-.659 1.294-.169.759.17 1.583.932 1.862.842.308 1.72-.221 2.423-.638zM110.096 167.044c.07.184.104.383.133.576a1.277 1.277 0 1 0 2.525-.384c-.126-.828-.38-1.76-1.139-2.23a1.277 1.277 0 0 0-1.521 2.04l.001-.001zm.133.576c.04.257.073.515.087.775.004.072.005.145.003.218 0 .01-.01.082-.003.052a1.277 1.277 0 1 0 2.489.574c.15-.649.047-1.354-.052-2.003a1.277 1.277 0 1 0-2.525.384zm2.473 2.07.104-.45a1.277 1.277 0 0 0-2.49-.575l-.103.45a1.277 1.277 0 1 0 2.489.575zm-.113.305c.14-.268.185-.583.122-.88a1.269 1.269 0 0 0-1.73-.906c-.28.117-.514.332-.655.6a1.277 1.277 0 1 0 2.263 1.186zm.113-.313c.055-.227.051-.47.06-.702.016-.404.028-.808.04-1.212a.733.733 0 0 0-1.306-.48c-.252.317-.504.633-.754.95-.143.183-.304.366-.408.575a1.269 1.269 0 1 0 2.368.869zM119.829 148.418l.187-.32a1.277 1.277 0 1 0-2.203-1.291l-.188.319a1.277 1.277 0 1 0 2.204 1.292zm.41-.907a3.826 3.826 0 0 0-.047-.275c-.1-.453-.401-.84-.853-.995a1.302 1.302 0 0 0-.68-.043 1.293 1.293 0 0 0-.846.608c-.13.223-.19.48-.173.737v.027a1.309 1.309 0 1 0 2.6-.059zm-2.167 2.711a.947.947 0 0 0 1.855-.041c.095-.514.187-1.03.257-1.548.047-.353.098-.72.06-1.076a1.309 1.309 0 0 0-2.608.058c-.02.358.046.722.11 1.073.093.514.208 1.025.326 1.534zM126.455 176.537c.188.267.476.455.8.512a1.204 1.204 0 0 0 .685-.08c.403-.172.657-.534.743-.95a3.42 3.42 0 0 0 .053-.38c.03-.323.04-.647.051-.97a1.187 1.187 0 0 0-2.374-.075c-.006.227-.015.454-.034.68l-.001-.001c-.216.402-.186.891.077 1.264zm-.582-1.762c.073.325.15.65.243.97.08.275.172.555.338.791a1.205 1.205 0 0 0 2.063-1.233c-.13-.257-.333-.47-.536-.671a15.733 15.733 0 0 0-.74-.675.84.84 0 0 0-1.368.818zM127.215 145.338c.413-.7.825-1.402 1.237-2.103a1.212 1.212 0 0 0-2.089-1.229l-1.237 2.103a1.212 1.212 0 1 0 2.09 1.229zM71.683 150.685l-.089-1.714a.826.826 0 0 0-1.65 0l-.088 1.714a.915.915 0 1 0 1.827 0zM75.336 182.817a1.37 1.37 0 0 0 .424-2.7c-.086-.02-.105-.045-.142-.126-.106-.228-.149-.488-.18-.735a.95.95 0 0 0-1.813-.264c-.298.674-.485 1.433-.301 2.164.236.94 1.057 1.584 2.012 1.661zM38.59 187.697l.918.206a1.277 1.277 0 1 0 .56-2.492l-.917-.206a1.277 1.277 0 0 0-.56 2.492zM56.297 191.19l.804-1.072a1.277 1.277 0 1 0-2.043-1.532l-.804 1.072a1.277 1.277 0 0 0 2.043 1.532zM51.87 168.697l.268-.22a1.212 1.212 0 0 0-1.537-1.873l-.268.22a1.212 1.212 0 0 0 1.537 1.873zM81.296 188.017l1.176-.371a1.253 1.253 0 0 0-.755-2.39l-1.175.371a1.253 1.253 0 1 0 .754 2.39zM104.056 185.71c.04.668.287 1.563 1.075 1.67.119.016.24.008.356-.022.769-.203.904-1.121.863-1.789a1.15 1.15 0 0 0-2.294.141zM89.11 157.951l.649-1.182a1.277 1.277 0 1 0-2.239-1.23l-.65 1.182a1.277 1.277 0 0 0 2.24 1.23zM63.51 170.83l.696-1.453a1.277 1.277 0 0 0-2.21-1.267c-.3.445-.602.89-.903 1.334a1.397 1.397 0 1 0 2.417 1.387zM47.457 136.658a.735.735 0 0 0 .828-1.185 2.212 2.212 0 0 1-.413-.543.561.561 0 0 1-.071-.23c-.004-.205.203-.412.328-.546a1.132 1.132 0 0 0-1.649-1.55c-.613.652-.988 1.558-.691 2.446.26.778.948 1.284 1.668 1.608zM44.604 161.03l1.175-.92a.86.86 0 0 0-1.06-1.353l-1.175.92a.86.86 0 0 0 1.06 1.354zM27.578 149.391c.354.514 1.046.58 1.617.58.574.001 1.147-.067 1.714-.148a1.31 1.31 0 0 0-.334-2.597c-.59.067-1.187.15-1.761.307-.533.147-1.147.389-1.353.953a.994.994 0 0 0 .117.905zM51.284 150.951l1.02-.33a1.123 1.123 0 1 0-.69-2.136l-.51.165c-.212.068-.441.122-.642.216a1.123 1.123 0 0 0 .822 2.085zM66.363 149.245a.804.804 0 0 0 .64-1.465c.087-.371.29-.721.482-1.047a.57.57 0 0 0-.91-.678c-.416.448-.858.955-1.046 1.549-.104.33-.106.692.052 1.007.157.314.45.532.782.634zM67.283 133.005l.764-.394a1.06 1.06 0 1 0-1.277-1.646l-.571.643a.9.9 0 0 0 1.084 1.397zM59.163 109.086l.364-.967a1.159 1.159 0 0 0-2.035-1.07l-.59.847a1.288 1.288 0 1 0 2.261 1.19zM54.284 97.54c.44-.057.879-.113 1.319-.168a1.277 1.277 0 0 0 0-2.534l-1.32-.168a1.446 1.446 0 1 0 0 2.87zM34.537 97.206l.856 1.127a1.277 1.277 0 0 0 2.034-1.544l-.855-1.127a1.277 1.277 0 1 0-2.035 1.544zM41.497 125.005a1.37 1.37 0 0 0-1.248-2.153h.001a.95.95 0 0 0-1.44.381c-.254.581-.51 1.232-.256 1.86.347.855 1.381 1.114 2.15.678.323-.185.58-.464.793-.766zM34.484 103.086l.485-1.883a1.277 1.277 0 0 0-2.474-.637l-.484 1.883a1.277 1.277 0 0 0 2.473.637zM36.337 132.872l.114.7a1.212 1.212 0 1 0 2.392-.386c-.045-.28-.067-.579-.147-.85a1.212 1.212 0 0 0-2.359.536zM56.737 94.1a1.277 1.277 0 0 0 2.29-1.032v.001a.83.83 0 0 0 .088-1.508c-.683-.36-1.53-.743-2.272-.304-.6.356-.802 1.078-.646 1.73.097.403.305.773.54 1.112zM93.363 97.073l.707.408a1.268 1.268 0 1 0 1.011-2.307l-.78-.243a1.177 1.177 0 0 0-.938 2.142zM99.216 116.085c.186.537.66.931 1.225 1.004.29.037.583-.012.858-.106.472-.163.91-.432 1.33-.697a1.246 1.246 0 0 0-1.332-2.106 6.54 6.54 0 0 1-.355.21 1.338 1.338 0 0 0-1.726 1.695zm-.001-.004a1.338 1.338 0 0 0 2.602-.373c-.007.157 0 .048.028-.04.06-.184.131-.366.203-.546.285-.714.605-1.414.926-2.113a.896.896 0 0 0-1.45-1.005c-.592.597-1.18 1.21-1.682 1.887-.46.62-.9 1.397-.627 2.19zM102.59 92.18a.966.966 0 0 0 .072.199c.22.442.711.616 1.175.596.257-.01.51-.074.751-.162a1.175 1.175 0 1 0-.806-2.207c-.24.088-.474.203-.678.36-.367.284-.632.734-.515 1.213zM120.989 97.393l.325.87a.957.957 0 1 0 1.617-.966l-.612-.7a.788.788 0 0 0-1.33.796zM130.788 110.339c.05.364.25.692.547.904.38.271.877.319 1.302.124.276-.026.554-.039.832-.05a1.291 1.291 0 0 0-.103-2.58c-.35.014-.702.029-1.05.06-.125.011-.25.025-.373.048-.4.073-.761.283-.978.64a1.3 1.3 0 0 0-.177.854zm.549.905c.47.334 1.113.377 1.67.43a.893.893 0 0 0 .833-1.376c-.305-.468-.642-1.02-1.156-1.28a1.305 1.305 0 0 0-1.347 2.226zM119.322 132.952l1.413-1.433a.872.872 0 0 0-1.215-1.25l-1.472 1.37a.915.915 0 0 0 1.246 1.34l.028-.027zM108.802 145.711l.804.152a1.113 1.113 0 1 0 .412-2.19l-.804-.15a1.113 1.113 0 1 0-.412 2.188zM104.562 165.604h.052a1.277 1.277 0 1 0 0-2.554h-.052a1.277 1.277 0 0 0 0 2.554zM79.096 125.845a.729.729 0 0 0 1.349-.135c.096-.337.421-.524.715-.673a1.062 1.062 0 1 0-.96-1.895c-.508.258-.957.66-1.175 1.195-.198.49-.17 1.04.071 1.508zM84.403 145.485l.32.316a1.077 1.077 0 0 0 1.514-1.53l-.32-.316a1.077 1.077 0 0 0-1.514 1.53zM129.042 180.404a.964.964 0 0 0 1.749-.048c.02-.046.03-.102.083-.11.083-.012.167-.016.25-.017a1.373 1.373 0 0 0 .186-2.732c-.84-.123-1.75.14-2.229.884-.398.62-.357 1.38-.04 2.023zM133.668 157.978l-.205-2.568a1.277 1.277 0 0 0-2.546 0l-.206 2.568a1.483 1.483 0 1 0 2.957 0zM137.575 192.39l.33.261a1.075 1.075 0 0 0 1.334-1.685l-.33-.262a1.075 1.075 0 1 0-1.334 1.686zM106.936 179.684c.02.16.04.32.062.48a1.277 1.277 0 1 0 2.533-.325l-.062-.481a1.277 1.277 0 0 0-2.533.326zM125.602 190.457c.506-.302 1.1-.647 1.329-1.222a1.087 1.087 0 1 0-2.097-.427c-.05.036-.103.07-.156.101a.901.901 0 0 0 .924 1.548zm.347-.296c.11-.103.219-.205.331-.303.293-.102.527-.323.645-.61a1.19 1.19 0 0 0-.25-1.306 1.14 1.14 0 0 0-.55-.3c-.55-.125-1.095.162-1.345.653-.07.139-.117.288-.148.44-.055.262-.07.531-.078.798a.827.827 0 0 0 1.395.627zM94.963 178.457l1.943-.36a1.232 1.232 0 0 0-.204-2.444l-1.976-.033a1.43 1.43 0 1 0 .237 2.837zM83.11 169.47l.043-.61a1.277 1.277 0 0 0-2.047-1.107l-.487.371a1.554 1.554 0 1 0 2.49 1.347zM36.057 173.83l.77.904a1.557 1.557 0 1 0 1.524-2.53l-1.158-.258a1.16 1.16 0 0 0-1.136 1.885zM63.07 186.964l.32-.646a1.277 1.277 0 1 0-2.29-1.133l-.32.646a1.277 1.277 0 0 0 2.29 1.133zM61.083 182.67a.99.99 0 0 0 .048.065c.363.449.968.446 1.456.252.255-.102.49-.248.71-.411a1.202 1.202 0 0 0-1.43-1.931 3.104 3.104 0 0 0-.63.597c-.31.406-.466.968-.154 1.428zM52.817 139.018l.165.536a1.277 1.277 0 0 0 2.441-.75l-.165-.537a1.277 1.277 0 1 0-2.441.751zM59.697 127.098a1.277 1.277 0 0 0 2.554 0v-1.292a1.277 1.277 0 1 0-2.554 0v1.292zM89.683 104.859l.907.701a1.277 1.277 0 1 0 1.562-2.021 5374.2 5374.2 0 0 0-.908-.701 1.277 1.277 0 0 0-1.561 2.021zM84.496 94.473l.32-2.46a1.069 1.069 0 0 0-2.12-.276l-.32 2.46a1.07 1.07 0 0 0 2.12.276z"/></g></svg>