<svg width="282.33" height="277.41" xml:space="preserve" xmlns="http://www.w3.org/2000/svg"><g fill="none" stroke="#000" stroke-linecap="round" stroke-linejoin="round" stroke-miterlimit="10" stroke-width="1.819"><path d="M102.193 16.4v153.772H268.39M102.193 170.169 1.753 261.046" stroke-width="1.32286775"/></g><path d="M101.72 19.629c.22-.695.44-1.39.648-2.088.05-.169.102-.338.144-.509.095-.388-.35-.828-.666-.42a.382.382 0 0 0-.077.284c-.19.852-.47 1.69-.721 2.525a.352.352 0 0 0 .672.208zm.393-1.988.362-.596a.382.382 0 0 0-.624-.438l-.438.542a.429.429 0 1 0 .7.492zm-.642 1.33c.19-.452.387-.91.642-1.33a.428.428 0 0 0-.7-.492c-.346.429-.596.935-.826 1.433a.483.483 0 0 0 .877.404l.007-.015zm-.47 1.417c.093-.488.278-.96.47-1.417a.482.482 0 0 0-.884-.389c-.235.51-.458 1.035-.596 1.58a.517.517 0 1 0 1.01.226zm-.133.688.132-.688a.517.517 0 0 0-1.01-.225l-.172.68a.538.538 0 0 0 1.043.264l.007-.03zm-.84.382a.54.54 0 0 0 .302.097c.243.002.42-.147.524-.346a.54.54 0 0 0-.777-.703.538.538 0 0 0-.259.337c-.057.228.006.473.21.615zm.826-.25.435-.824a.54.54 0 1 0-.956-.504l-.435.825a.54.54 0 0 0 .956.504zm.435-.824c.189-.357.328-.74.46-1.121.197-.571.368-1.15.531-1.732a.537.537 0 0 0-1.033-.292c-.16.56-.327 1.12-.519 1.67a7.04 7.04 0 0 1-.395.97.54.54 0 0 0 .956.505zm.991-2.853c.148-.528.299-1.056.466-1.578.066-.203.12-.442.228-.627a.533.533 0 1 0-.92-.54c-.15.256-.234.558-.325.839-.173.534-.329 1.074-.482 1.614a.537.537 0 1 0 1.033.293zm.694-2.205c.026-.043.041-.067.09-.074a.56.56 0 1 0-.247-1.091c-.33.097-.59.332-.762.625a.533.533 0 0 0 .92.54zm-.241-.123c.151.183.273.393.394.597.257.433.496.877.73 1.323.756 1.433 1.466 2.89 2.17 4.349a.399.399 0 0 0 .726-.328c-.716-1.703-1.435-3.41-2.247-5.069-.221-.451-.445-.906-.718-1.329-.21-.324-.512-.706-.956-.59a.56.56 0 0 0-.1 1.048zM1.723 258.836c.34-.578.677-1.16 1.025-1.733a.477.477 0 1 0-.84-.452c-.288.606-.588 1.206-.884 1.808a.397.397 0 0 0 .699.377zm.581-1.505a.504.504 0 0 0 .589-.413c.037-.226-.03-.46-.244-.582a.49.49 0 0 0-.145-.055.47.47 0 0 0-.167-.005c-.233.032-.348.195-.434.385a.478.478 0 0 0 .4.671zm.446.467.144-.88a.504.504 0 0 0-.977-.235l-.272.85a.57.57 0 1 0 1.105.265zm-.747 2.285c.304-.733.619-1.497.747-2.285a.57.57 0 0 0-1.105-.265c-.223.7-.524 1.377-.819 2.048a.64.64 0 0 0 1.172.514c0-.004.004-.008.005-.012zm-.697 2.155c.125-.743.41-1.463.697-2.155a.64.64 0 0 0-1.177-.502c-.342.78-.67 1.595-.812 2.44a.655.655 0 0 0 1.292.217zm6.524.759a.407.407 0 0 0-.085-.809c-1.472.105-2.954.19-4.43.142a10.485 10.485 0 0 1-1.4-.12 2.494 2.494 0 0 1-.606-.163h.001a.655.655 0 0 0-1.296-.026c-.098.582.313 1.025.827 1.214.467.172.983.205 1.476.22.807.025 1.616-.028 2.42-.097a60.045 60.045 0 0 0 3.093-.361zM111.947 2.269c.709-.487 1.615-.706 2.44-.896a.492.492 0 0 0-.221-.96l-.026.007c-.923.267-1.937.605-2.655 1.273a.37.37 0 0 0 .462.576zm2.433-.895c.518-.111 1.063-.235 1.597-.226a.564.564 0 1 0-.023-1.126c-.618.035-1.233.22-1.822.4a.492.492 0 0 0 .248.952zm1.597-.226c.166.003.387.007.531.107a.599.599 0 1 0 .645-1.008c-.36-.21-.791-.248-1.199-.225a.564.564 0 0 0 .023 1.126zm.472.06c.079.071-.003-.054.008.008.018.104.004.214-.01.317a.64.64 0 1 0 1.273.129c.032-.527-.073-1.126-.567-1.415a.599.599 0 0 0-.704.961zm-.175 3.45a18.1 18.1 0 0 0 1.023-1.737c.194-.39.397-.818.423-1.26a.64.64 0 0 0-1.273-.128c-.039.272-.202.547-.327.786-.29.555-.625 1.087-.966 1.612a.668.668 0 0 0 1.12.727zm-1.488 2.532c.12-.312.3-.606.467-.894.325-.555.671-1.098 1.021-1.638a.668.668 0 0 0-1.12-.727 35.6 35.6 0 0 0-1.05 1.7c-.205.357-.414.724-.546 1.114a.653.653 0 0 0 1.228.445zm-1.453 1.056a.633.633 0 0 0 1.265-.057 2.545 2.545 0 0 1 .188-.999.653.653 0 1 0-1.22-.47l-.009.025a3.997 3.997 0 0 0-.224 1.501zm0 0c.032.57.314 1.099.86 1.321a.62.62 0 0 0 .483-1.143c-.079-.034-.076-.166-.078-.235a.633.633 0 1 0-1.265.058zm.858 1.32c.495.204 1.116.137 1.636.102.96-.066 1.917-.201 2.868-.346a.396.396 0 0 0-.071-.786c-.937.027-1.876.048-2.813.012a8.734 8.734 0 0 1-.835-.063c-.098-.013-.21-.022-.302-.061a.62.62 0 1 0-.494 1.138l.01.004z"/><path d="m112.587 6.642 5.573.142a.473.473 0 1 0 0-.945l-5.573.141a.331.331 0 0 0 0 .662zM2.603 271.129c.053.478.283.92.752 1.1a.3.3 0 0 0 .213-.56c-.234-.09-.28-.341-.272-.567a.347.347 0 1 0-.694.027zm0 0a.348.348 0 0 0 .693-.027c.009-.309.11-.608.332-.828a.46.46 0 1 0-.712-.576c-.275.425-.37.93-.313 1.431zm1.024-.855c.228-.226.54-.326.852-.364a.568.568 0 1 0-.2-1.115c-.546.13-1.054.424-1.363.903a.46.46 0 0 0 .711.576zm.852-.364c.332-.04.682-.04 1.002.07a.632.632 0 0 0 .412-1.196l-.046-.014c-.514-.134-1.056-.098-1.568.024a.568.568 0 0 0 .2 1.116zm1.002.07c.252.086.403.372.505.597a.682.682 0 1 0 1.222-.606c-.295-.547-.742-1.04-1.361-1.201a.632.632 0 0 0-.366 1.21zm.505.597c.238.521.326 1.105.367 1.672a.71.71 0 0 0 1.415-.102c-.054-.748-.202-1.51-.56-2.176a.682.682 0 0 0-1.222.606zm1.593 4.044c.188-.81.25-1.646.19-2.474a.71.71 0 1 0-1.416.102c.05.698.014 1.402-.116 2.09a.686.686 0 0 0 1.342.282zm-.546 1.776c.256-.563.408-1.176.546-1.776a.686.686 0 1 0-1.341-.281c-.1.533-.203 1.075-.38 1.589a.633.633 0 0 0 1.175.468zm-.29.634.29-.634a.633.633 0 1 0-1.175-.468l-.226.659a.599.599 0 0 0 1.112.443zm-1.019.176a.594.594 0 0 0 .426.21c.27.012.488-.153.594-.386a.6.6 0 0 0-.346-.814.585.585 0 0 0-.783.4c-.053.206-.04.414.11.59zm1.04-.39.077-.802a.523.523 0 0 0-1.027-.179l-.2.78a.585.585 0 1 0 1.15.201zm.077-.802c.027-.274.145-.547.251-.798.205-.483.453-.949.709-1.406a.463.463 0 0 0-.808-.455c-.273.48-.539.966-.777 1.465-.157.327-.311.663-.402 1.015a.523.523 0 1 0 1.027.18zm.96-2.204c.455-.813.907-1.63 1.407-2.416a.472.472 0 1 0-.797-.507l-.008.013c-.48.813-.945 1.634-1.41 2.455a.464.464 0 0 0 .806.458l.002-.003zm1.407-2.416c.28-.44.542-.897.735-1.383a.505.505 0 1 0-.939-.373l-.01.03c-.142.433-.36.841-.59 1.232a.472.472 0 0 0 .804.494zm-.191-1.8-.024.074a.505.505 0 0 0 .95.343 2.07 2.07 0 0 0 .158-.54c.045-.438-.35-.792-.782-.65a.54.54 0 0 0-.303.774zm.57.812a5.89 5.89 0 0 1 .144-.439c.024-.063.05-.174.104-.219a.54.54 0 0 0-.516-.926c-.488.161-.68.808-.824 1.242a.572.572 0 1 0 1.085.362l.007-.02zm-.28 2.904c.016-.61.042-1.221.102-1.829.036-.36.076-.727.178-1.075a.572.572 0 0 0-1.092-.342c-.139.415-.204.854-.258 1.286-.078.636-.12 1.277-.148 1.917a.61.61 0 0 0 1.217.055v-.012zm-1.192 2.803a.64.64 0 1 0 1.246-.302l-.008-.028c-.066-.227-.052-.497-.058-.73-.016-.58-.004-1.162.01-1.743a.609.609 0 0 0-1.217-.043c-.028.601-.051 1.203-.049 1.806.001.342-.007.705.075 1.04zm0 0c.138.568.608.942 1.138 1.131A.66.66 0 0 0 9.697 276l-.018-.007c-.1-.033-.29-.09-.326-.21a.64.64 0 0 0-1.238.33zm1.14 1.132c.701.246 1.45-.223 1.995-.617.902-.65 1.695-1.454 2.46-2.255a.435.435 0 0 0-.595-.635c-.757.633-1.533 1.26-2.375 1.778a4.6 4.6 0 0 1-.771.399c-.116.044-.232.087-.355.06a.66.66 0 0 0-.358 1.27z"/><g fill="none" stroke="#55e1ff" stroke-linecap="round" stroke-linejoin="round" stroke-miterlimit="10" stroke-width="1.819"><path d="m102.193 170.169 40.54 59.193M103.328 57.642l40.539 59.193M143.865 116.832l-1.133 112.528" stroke-width="1.32286775"/></g><path d="M144.093 116.986c.232.11.453.244.667.389a.718.718 0 0 0 1.067-.867 2.704 2.704 0 0 0-.75-1.061.921.921 0 1 0-.984 1.54zm-.249-.04c.102.009.205.025.3.063a.921.921 0 0 0 .976-1.525 2.75 2.75 0 0 0-.77-.504 1.03 1.03 0 1 0-.506 1.967zm-.454.024c.15-.024.303-.036.454-.023a1.03 1.03 0 0 0 .506-1.967 3.73 3.73 0 0 0-.963-.275 1.146 1.146 0 1 0 .003 2.265zm-.24.108a.59.59 0 0 1 .24-.108 1.146 1.146 0 0 0-.003-2.265 2.432 2.432 0 0 0-1.527.286 1.229 1.229 0 1 0 1.29 2.087zm-.2.207a.666.666 0 0 1 .2-.207 1.228 1.228 0 0 0-1.29-2.088c-.404.221-.76.524-1.034.895a1.274 1.274 0 1 0 2.123 1.4zm-.068.268a.622.622 0 0 1 .067-.268 1.274 1.274 0 0 0-2.123-1.4 2.953 2.953 0 0 0-.541 1.423 1.304 1.304 0 1 0 2.592.296l.005-.051zm-2.373 1.246a1.314 1.314 0 0 0 2.394-1.068c-.088-.238-.02-.006-.024-.046a.933.933 0 0 1 .003-.132 1.304 1.304 0 0 0-2.597-.245c-.058.506-.016 1.034.224 1.491zm0 0c.16.307.375.584.62.827a1.314 1.314 0 1 0 1.85-1.868l-.003-.002a.732.732 0 0 1-.14-.176 1.314 1.314 0 0 0-2.327 1.22zm.62.827c.216.214.45.413.716.562a1.312 1.312 0 0 0 1.313-2.273c-.055-.033-.129-.107-.182-.16a1.314 1.314 0 0 0-1.846 1.871zm.716.562c.246.138.513.235.784.31a1.305 1.305 0 0 0 .731-2.505 1.15 1.15 0 0 1-.229-.093 1.313 1.313 0 0 0-1.286 2.288zm.784.31c.363.1.742.129 1.118.123a1.293 1.293 0 0 0 0-2.587 1.386 1.386 0 0 1-.387-.041 1.305 1.305 0 1 0-.768 2.494l.037.011zm1.118.123a3 3 0 0 0 1.448-.395 1.265 1.265 0 0 0-1.147-2.25.704.704 0 0 1-.301.058 1.294 1.294 0 1 0 0 2.587zm1.448-.395c.37-.213.707-.49.965-.833a1.214 1.214 0 0 0-1.815-1.602 1.026 1.026 0 0 1-.297.185 1.265 1.265 0 1 0 1.147 2.25zm.965-.833a2.63 2.63 0 0 0 .486-1.067 1.16 1.16 0 0 0-2.224-.63c-.014.036-.05.069-.077.095a1.214 1.214 0 1 0 1.815 1.602zm.486-1.067c.052-.265.08-.534.088-.804a1.136 1.136 0 0 0-2.27-.064v.006a.691.691 0 0 1-.042.232 1.16 1.16 0 1 0 2.224.63zm-2.202-1.023c.019.05.02.108.02.16a1.136 1.136 0 0 0 2.27.06c.01-.33-.032-.662-.135-.977a1.142 1.142 0 0 0-2.17.715l.015.042zm-.168-.285c.065.088.13.182.168.285a1.142 1.142 0 0 0 2.155-.757 3.982 3.982 0 0 0-.391-.821 1.163 1.163 0 1 0-1.932 1.293zm-.346-.33c.127.095.252.201.346.33a1.163 1.163 0 0 0 1.932-1.293 4.003 4.003 0 0 0-.76-.891 1.2 1.2 0 1 0-1.518 1.854zm-.274-.177c.065.02.2.122.274.177a1.199 1.199 0 0 0 1.518-1.854c-.268-.24-.556-.464-.882-.618a1.237 1.237 0 1 0-.91 2.295zm-.263-.032c.086.002.18.006.263.032a1.237 1.237 0 0 0 .91-2.295 3.02 3.02 0 0 0-1.035-.265 1.267 1.267 0 1 0-.138 2.528zm-.203.049c.097-.03.116-.05.203-.049a1.266 1.266 0 0 0 .138-2.528 3.096 3.096 0 0 0-1.062.077 1.301 1.301 0 0 0 .667 2.516l.054-.016zm.068.025c.03-.026.05-.067.085-.083a1.301 1.301 0 0 0-.874-2.442 2.282 2.282 0 0 0-1.026.577 1.332 1.332 0 0 0 1.815 1.948zm.071.033c.021-.057.043-.114.07-.169.032-.064-.018.017.032-.047a1.332 1.332 0 0 0-1.988-1.765c-.288.286-.48.654-.628 1.029a1.344 1.344 0 1 0 2.502.983l.012-.03zm-.11.477c.015-.163.054-.323.11-.476a1.345 1.345 0 0 0-2.514-.953 4.53 4.53 0 0 0-.289 1.155 1.354 1.354 0 0 0 2.69.299c.002-.008.002-.016.003-.025zm-2.68.862a1.36 1.36 0 1 0 2.695-.37 1.953 1.953 0 0 1-.015-.492 1.354 1.354 0 0 0-2.693-.274c-.041.378-.038.76.014 1.136zm0 0c.061.446.211.88.471 1.25a1.364 1.364 0 0 0 2.316-1.434c-.054-.1-.08-.111-.095-.205a1.36 1.36 0 0 0-2.692.39zm.471 1.25c.233.33.537.606.869.836a1.363 1.363 0 0 0 1.563-2.234c-.072-.051-.154-.108-.207-.181a1.364 1.364 0 0 0-2.225 1.579zm.869.836c.26.18.531.35.827.466a1.358 1.358 0 0 0 1.015-2.52 2.48 2.48 0 0 1-.279-.18 1.363 1.363 0 0 0-1.576 2.225l.014.009zm.826.466c.301.117.624.17.944.21a1.35 1.35 0 0 0 .359-2.677c-.105-.015-.22-.027-.32-.065a1.358 1.358 0 1 0-.983 2.532zm.944.21c.347.043.705.061 1.051 0a1.32 1.32 0 0 0-.182-2.62c-.17-.007-.341-.032-.51-.057a1.35 1.35 0 0 0-.39 2.673l.03.004zm1.051 0c.497-.09.922-.388 1.223-.786a1.28 1.28 0 0 0-1.799-1.79h.001a1.32 1.32 0 0 0 .575 2.575zm1.223-.786a2.81 2.81 0 0 0 .502-1.159 1.252 1.252 0 0 0-2.439-.567c-.022.084-.046.104-.102.178a1.28 1.28 0 0 0 2.04 1.548zm.502-1.159a4.97 4.97 0 0 0 .083-1.136 1.214 1.214 0 0 0-2.424-.047 3.31 3.31 0 0 1-.098.616 1.252 1.252 0 1 0 2.42.649l.019-.082zm-2.353-1.63c.031.145.022.3.012.447a1.214 1.214 0 1 0 2.424.047 4.815 4.815 0 0 0-.137-1.042 1.182 1.182 0 0 0-2.3.548zm-.05-.124c.026.036.04.08.05.124a1.182 1.182 0 1 0 2.3-.548 2.894 2.894 0 0 0-.442-.957 1.178 1.178 0 1 0-1.917 1.37l.008.011zm.044.05c.043.015-.15-.153.04.053a1.178 1.178 0 0 0 1.824-1.484 2.495 2.495 0 0 0-.928-.775 1.2 1.2 0 1 0-.936 2.206zm-.192-.049c.064 0 .133.028.192.049a1.2 1.2 0 0 0 .936-2.206 2.64 2.64 0 0 0-1.083-.29 1.224 1.224 0 1 0-.077 2.447h.032zm-.11.007a.816.816 0 0 1 .11-.007 1.224 1.224 0 0 0 .045-2.448c-.229-.006-.459.001-.686.035a1.242 1.242 0 1 0 .532 2.42zm.349-.164a1.242 1.242 0 0 0-.88-2.256 1.75 1.75 0 0 0-1.222.835 1.27 1.27 0 0 0 2.102 1.42zm.134-.19c0-.015 0-.031.004-.046 0-.002-.016.036 0 0a1.27 1.27 0 0 0-2.24-1.185c-.197.32-.31.686-.349 1.059a1.296 1.296 0 1 0 2.584.173zm-2.607.587a1.308 1.308 0 1 0 2.61-.159 4.568 4.568 0 0 1-.003-.427 1.296 1.296 0 0 0-2.585-.173 4.566 4.566 0 0 0-.022.759zm0 0c.024.398.162.783.39 1.11a1.313 1.313 0 0 0 2.215-1.405c-.112-.193-.044-.065-.026-.016.016.044.047.18.012-.01a1.308 1.308 0 0 0-2.591.321zm.39 1.11c.28.403.702.684 1.177.8a1.318 1.318 0 0 0 .796-2.507h.002a1.313 1.313 0 0 0-1.976 1.708zm1.177.8c.303.074.62.11.93.064a1.296 1.296 0 0 0-.036-2.57c-.09-.01-.18-.034-.27-.055a1.318 1.318 0 0 0-.624 2.561zm.93.064c.41-.062.78-.276 1.054-.583a1.256 1.256 0 0 0-1.465-1.978 1.296 1.296 0 0 0 .412 2.56zm1.054-.583c.328-.367.448-.855.44-1.337a1.217 1.217 0 0 0-2.408-.221h.001a1.256 1.256 0 0 0 1.967 1.558zm-1.987-1.424a1.216 1.216 0 1 0 2.427.087c-.006-.464-.129-.934-.454-1.28a1.18 1.18 0 0 0-1.973 1.194zm.17.326.013.008h-.002a1.179 1.179 0 1 0 1.793-1.527 2.822 2.822 0 0 0-.576-.457 1.163 1.163 0 0 0-1.228 1.975zm.009.024c.202.03.016-.008-.006-.021a1.163 1.163 0 0 0 1.224-1.979 2.432 2.432 0 0 0-.832-.328 1.18 1.18 0 0 0-.43 2.32c.014.003.028.006.043.007zm.122.036c.263-.08-.128-.01.13-.026a1.18 1.18 0 0 0 .135-2.338 2.265 2.265 0 0 0-.862.002 1.22 1.22 0 1 0 .597 2.362zm.386-.197a1.22 1.22 0 0 0-.983-2.165 1.717 1.717 0 0 0-1.115.799 1.252 1.252 0 0 0 2.098 1.365zm.114.027c.005-.136.018-.25.057-.379a1.253 1.253 0 0 0-2.27-1.014c-.223.369-.3.808-.338 1.232a1.278 1.278 0 1 0 2.55.16zm-2.464 1.05a1.295 1.295 0 0 0 2.484-.69 1.667 1.667 0 0 1-.02-.36 1.278 1.278 0 0 0-2.55-.161c-.037.402-.063.827.086 1.211zm0 0c.129.33.365.603.637.825a1.299 1.299 0 0 0 1.763-1.901l-.14-.148a1.295 1.295 0 0 0-2.26 1.224zm.637.825c.714.583 1.722.422 2.375-.163a.843.843 0 0 0-.035-1.284c-.233-.188-.466-.376-.697-.565a1.299 1.299 0 0 0-1.643 2.012z" fill="#55e1ff"/><g><path d="M88.128 184.416c7.128 7.562 15.334 8.661 24.62 3.299" fill="none" stroke="#ff58c4" stroke-linecap="round" stroke-linejoin="round" stroke-miterlimit="10" stroke-width="1.32286775"/></g><g fill="#ff58c4"><path d="M98.707 196.638a.317.317 0 0 0 .529-.286.571.571 0 0 0-.407-.445.375.375 0 1 0-.122.73zm.154.027a.617.617 0 0 1 .051-.083.375.375 0 0 0-.032-.655c-.27-.133-.57 0-.76.205a.46.46 0 1 0 .74.533zm-.262.737c.074-.243.14-.512.262-.737a.46.46 0 0 0-.742-.533c-.23.249-.373.59-.511.894a.531.531 0 1 0 .99.376zm-.211 1.252c.023-.423.086-.846.21-1.252a.53.53 0 0 0-.99-.376c-.22.48-.35 1-.414 1.523a.6.6 0 1 0 1.19.145l.004-.04zm-1.233 1.575a.649.649 0 0 0 1.294-.089l-.004-.037a8.044 8.044 0 0 1-.057-1.449.6.6 0 0 0-1.194-.104 8.883 8.883 0 0 0-.04 1.68zm0 0c.036.528.123 1.063.329 1.553a.68.68 0 0 0 1.254-.527l-.008-.019c-.161-.355-.236-.748-.285-1.133a.648.648 0 0 0-1.29.126zm.329 1.553c.144.342.313.686.558.97a.698.698 0 0 0 1.057-.913c-.008-.011-.018-.02-.027-.03-.153-.158-.252-.375-.341-.573a.68.68 0 0 0-1.247.546zm.558.97c.23.267.531.465.86.591a.71.71 0 0 0 .51-1.326l-.009-.003a.88.88 0 0 1-.33-.204.698.698 0 0 0-1.031.942zm.86.591c.332.128.689.184 1.044.183a.712.712 0 1 0-.006-1.426c-.182.001-.365-.022-.537-.086a.71.71 0 0 0-.501 1.33zm1.044.183c.39-.001.784-.094 1.106-.321a.702.702 0 0 0-.77-1.173c-.099.06-.229.068-.342.068a.713.713 0 1 0 .006 1.426zm1.106-.321c.25-.177.466-.4.642-.651a.679.679 0 0 0-1.083-.816 1.29 1.29 0 0 1-.328.294.702.702 0 1 0 .769 1.173zm.642-.651c.184-.263.325-.554.437-.854a.65.65 0 0 0-1.201-.497 2.494 2.494 0 0 1-.32.535.679.679 0 1 0 1.056.853c.01-.012.02-.024.028-.037zm.437-.854c.12-.32.206-.652.263-.988a.63.63 0 0 0-1.237-.227 3.226 3.226 0 0 1-.227.718.65.65 0 1 0 1.184.54l.017-.043zm.263-.988c.045-.26.087-.523.097-.787a.616.616 0 0 0-1.229-.084c-.021.216-.064.43-.105.644a.63.63 0 0 0 1.235.242l.002-.015zm-1.18-1.905c.027.336.082.697.048 1.034a.616.616 0 1 0 1.229.084c.015-.404-.036-.815-.07-1.217a.605.605 0 0 0-1.206.1zm-.382-1.498c.215.472.343.981.383 1.498a.605.605 0 1 0 1.205-.094v-.005a5.98 5.98 0 0 0-.482-1.895.606.606 0 0 0-1.109.49l.003.006zm-.697-1.032c.31.28.526.656.697 1.032a.606.606 0 0 0 1.106-.495c-.236-.536-.548-1.052-.987-1.446a.611.611 0 0 0-.816.91zm-.677-.362c.258.04.486.19.677.362a.611.611 0 0 0 .816-.909c-.368-.331-.814-.584-1.308-.658a.61.61 0 0 0-.185 1.205zm-.404.039c.114-.075.277-.058.404-.039a.61.61 0 1 0 .187-1.205h-.003c-.437-.067-.899-.011-1.267.25a.602.602 0 0 0 .679.994zm-.322.28c.083-.115.205-.203.322-.28a.601.601 0 1 0-.66-1.006l-.019.013c-.259.184-.49.42-.62.715a.566.566 0 0 0 .977.558zm-1.16.795a.334.334 0 0 0 .63.139c.168-.322.338-.647.54-.95a.566.566 0 1 0-.98-.56c-.2.419-.21.916-.19 1.371z"/><path d="M98.24 199.917c.271.295.677.435 1.058.514a.492.492 0 0 0 .2-.964c-.019-.004-.039-.006-.059-.009-.242-.02-.51-.045-.73-.158a.393.393 0 0 0-.469.617zm1.056.514c.315.066.648.044.965.013.46-.046.916-.13 1.368-.223a.344.344 0 0 0-.061-.68c-.71-.018-1.423-.027-2.13-.082a.492.492 0 0 0-.142.972zM124.64 222.277a33.376 33.376 0 0 0-.154-2.677.463.463 0 0 0-.923.007c-.063.878-.126 1.756-.181 2.635a.63.63 0 1 0 1.258.035zm.027 1.206-.027-1.217a.63.63 0 0 0-1.258-.035c-.033.416-.058.832-.07 1.249a.678.678 0 1 0 1.355.003zm-1.21.938a.69.69 0 0 0 1.224-.55c-.007-.129-.01-.259-.013-.388a.677.677 0 0 0-1.355-.003c-.008.31-.06.68.144.941zm1.213-.259.056-.223a.683.683 0 0 0-1.314-.372l-.069.22a.69.69 0 1 0 1.327.375zm.056-.223c.05-.2.043-.416.043-.62 0-.34-.012-.68-.025-1.018a.58.58 0 0 0-1.157-.045c-.038.325-.076.65-.121.973-.014.092-.027.185-.043.276-.001.01-.02.094-.01.062a.683.683 0 0 0 1.303.408l.01-.036zm.018-1.638c-.021-.552-.057-1.115-.01-1.666a.442.442 0 0 0-.867-.154c-.155.576-.211 1.185-.28 1.775a.58.58 0 1 0 1.158.045zm-.01-1.666c.015-.174.03-.375.11-.534a.411.411 0 0 0-.735-.37c-.006.01-.01.021-.015.032a6.385 6.385 0 0 0-.227.718.442.442 0 1 0 .867.154zm.11-.534c.065-.13.152-.248.248-.358a.43.43 0 0 0-.648-.563c-.004.005-.01.01-.013.016a2.315 2.315 0 0 0-.337.567.411.411 0 0 0 .75.338zm.247-.358a.92.92 0 0 1 .293-.23.469.469 0 1 0-.5-.785 3.093 3.093 0 0 0-.453.468.429.429 0 0 0 .66.547zm.293-.23c.09-.043.184-.087.282-.104a.528.528 0 1 0-.332-.99c-.162.083-.31.193-.45.309a.469.469 0 0 0 .5.784zm.282-.104a.804.804 0 0 1 .218-.008.575.575 0 1 0-.034-1.142c-.18.025-.355.078-.516.16a.528.528 0 0 0 .332.99zm.218-.008c.15.012.307.08.448.13a.624.624 0 1 0 .34-1.198c-.265-.058-.55-.113-.822-.074a.575.575 0 0 0 .034 1.142zm.448.13c.09.031.188.078.236.165a.665.665 0 1 0 1.139-.686c-.236-.362-.618-.587-1.034-.677a.624.624 0 0 0-.341 1.198zm.236.165c.063.112.07.247.06.373a.679.679 0 0 0 1.353.1c.03-.404-.05-.817-.274-1.16a.665.665 0 0 0-1.139.687zm.936 1.699c.26-.36.444-.78.477-1.225a.678.678 0 1 0-1.353-.1c-.016.213-.11.416-.22.597a.658.658 0 0 0 1.096.728zm-.845.849c.333-.226.612-.524.845-.849a.658.658 0 1 0-1.096-.728c-.14.23-.302.45-.5.634a.604.604 0 0 0 .751.943zm-.95.4c.343-.059.664-.206.95-.4a.604.604 0 1 0-.75-.943c-.16.149-.334.285-.527.387a.511.511 0 0 0 .328.956zm-.397.069.398-.069a.512.512 0 1 0-.328-.956l-.356.19a.447.447 0 0 0 .286.835zm-.277-.019a.443.443 0 0 0 .493-.084.447.447 0 0 0-.502-.732c-.323.172-.34.656.01.816zm0 0 .206.095a.465.465 0 1 0 .304-.874l-.22-.054a.443.443 0 0 0-.29.833zm.206.095c-.034-.016.037.029.045.035.06.046.116.096.173.146.21.187.41.384.61.581a.62.62 0 1 0 .752-.975 19.343 19.343 0 0 0-.78-.444c-.158-.083-.322-.175-.496-.217a.465.465 0 0 0-.304.873zm.846.78c.826.753 1.972 1.277 3.098.958a.494.494 0 0 0-.059-.964c-.826-.13-1.588-.524-2.282-.974a.62.62 0 0 0-.757.98z"/></g><path d="M263.556 169.012a.414.414 0 1 0 .423-.711c-.137-.075-.286-.162-.386-.285-.024-.03-.05-.068-.043-.11a.353.353 0 0 0-.681-.176c-.188.551.263 1.009.687 1.282zm-.005-.004c.53.353 1.16.571 1.755.786a.497.497 0 1 0 .297-.949c-.545-.145-1.127-.284-1.63-.548a.414.414 0 0 0-.422.71zm1.755.786c.872.314 1.73.665 2.579 1.037a.602.602 0 1 0 .446-1.118 33.285 33.285 0 0 0-2.728-.867.497.497 0 0 0-.297.948zm2.579 1.037c.323.142.67.288.948.51h-.001a.653.653 0 0 0 1.276.014c.106-.472-.214-.855-.584-1.095-.367-.238-.784-.399-1.193-.547a.602.602 0 0 0-.446 1.118zm.372 2.243c.413-.264.825-.537 1.202-.853.273-.229.568-.505.65-.866a.653.653 0 0 0-1.252-.365c.008-.022-.005.01-.049.055a2.572 2.572 0 0 1-.242.212c-.322.254-.67.476-1.018.692a.664.664 0 1 0 .71 1.124zm-3.006 2.413c.323-.411.72-.763 1.126-1.09.596-.48 1.232-.912 1.878-1.323a.664.664 0 0 0-.708-1.124c-.711.444-1.4.94-1.992 1.537-.448.452-.857.978-1.065 1.586a.44.44 0 0 0 .761.414zM273.81 174.811c.105-.293.208-.588.317-.88a.386.386 0 1 0-.724-.27l-.01.03c-.084.301-.175.6-.262.899a.357.357 0 0 0 .679.221zm-.427-.957a.399.399 0 1 0 .796-.006c-.014-.187-.082-.367-.283-.434a.38.38 0 0 0-.227-.006.4.4 0 0 0-.286.446zm.894 1.262-.098-1.268a.399.399 0 0 0-.796.004l-.085 1.269a.49.49 0 1 0 .979-.005zm-.374 2.145a.596.596 0 1 0 .876-.81l-.025-.024c-.344-.332-.442-.855-.477-1.311a.491.491 0 0 0-.98.005c-.05.755.074 1.565.606 2.14zm0 0c.406.44.92.775 1.506.91a.635.635 0 0 0 .284-1.238c-.01-.003-.019-.004-.028-.005-.35-.064-.657-.257-.91-.501a.596.596 0 0 0-.852.835zm1.506.91c.557.127 1.14.08 1.663-.151a.647.647 0 0 0-.515-1.187c-.283.121-.59.15-.892.094a.635.635 0 0 0-.256 1.243zm1.663-.151c.611-.268 1.017-.823 1.248-1.433a.619.619 0 0 0-1.144-.471c-.129.288-.317.588-.619.717a.647.647 0 0 0 .51 1.19l.005-.003zm1.248-1.433c.283-.752.41-1.562.501-2.356a.575.575 0 0 0-1.141-.146c-.097.685-.22 1.395-.504 2.031a.618.618 0 1 0 1.13.504l.014-.033zm.501-2.356.17-1.48h.001a.557.557 0 0 0-1.104-.141l-.208 1.475a.575.575 0 1 0 1.14.16v-.014zm.161-1.322c.012-.153.035-.304-.027-.452a.556.556 0 0 0-1.067.153.726.726 0 0 0-.005.054c-.004.047-.008.094-.014.14a.559.559 0 1 0 1.111.119l.002-.014zm-.406 5.008.406-5.008a.559.559 0 0 0-1.113-.104l-.53 4.996a.621.621 0 1 0 1.237.116zm-.638 6.095c.139-.724.21-1.463.287-2.196.135-1.298.246-2.599.351-3.9a.621.621 0 0 0-1.237-.115 213.567 213.567 0 0 1-.438 3.864c-.087.697-.169 1.399-.303 2.089a.682.682 0 1 0 1.34.26v-.002zm-.452 1.828c.23-.58.335-1.218.452-1.828a.682.682 0 0 0-1.34-.258c-.101.524-.186 1.083-.383 1.583a.684.684 0 0 0 1.271.503zm-.846.987c.394-.215.683-.573.846-.987a.684.684 0 1 0-1.271-.503.693.693 0 0 1-.256.34.668.668 0 0 0 .68 1.15zm-1.683-.321c.476.361 1.108.633 1.683.32a.669.669 0 0 0-.608-1.19c-.111.054.057.021.003.003a1.058 1.058 0 0 1-.3-.172.649.649 0 0 0-.778 1.038zm-1.233-1.646c.285.628.679 1.225 1.233 1.646a.649.649 0 0 0 .784-1.033l-.007-.006c-.404-.299-.708-.718-.958-1.15a.592.592 0 0 0-1.052.542zm-.54-1.958c.057.679.26 1.339.54 1.958a.592.592 0 1 0 1.052-.542c-.275-.473-.491-.99-.571-1.535a.515.515 0 0 0-1.022.119zm0 0a.515.515 0 0 0 1.025-.088l-.004-.03c-.05-.338-.056-.725.135-1.023a.492.492 0 0 0-.827-.533c-.001.001-.003.003-.003.005-.31.496-.375 1.097-.327 1.67zm1.157-1.141c.097-.151.247-.269.393-.37.257-.18.54-.32.827-.446a.522.522 0 0 0-.42-.955l-.02.01c-.594.291-1.25.657-1.611 1.233a.492.492 0 0 0 .83.528zm1.223-.817c.764-.342 1.573-.59 2.372-.834 1.359-.416 2.732-.787 4.107-1.145a.372.372 0 0 0-.163-.727c-1.412.268-2.823.554-4.214.915-.86.222-1.74.457-2.542.845a.522.522 0 0 0 .44.946z"/></svg>