<svg width="293.44" height="288.82" xml:space="preserve" xmlns="http://www.w3.org/2000/svg"><g fill="none" stroke="#000" stroke-linecap="round" stroke-linejoin="round" stroke-miterlimit="10" stroke-width="1.819"><path d="M92.076 2.054V187.192H284.188M92.076 187.19l-5.061 5.038-5.06 5.039-5.061 5.039-5.061 5.039-5.06 5.038-5.062 5.04-5.06 5.038-5.06 5.039-5.062 5.038-5.06 5.04-5.06 5.038a329871.637 329871.637 0 0 0-10.122 10.078l-5.06 5.038-5.062 5.04-5.06 5.038-5.061 5.039" stroke-width="1.32286775"/></g><path d="M166.68 64.8c-.326 12.67-33.476 22.1-74.042 21.06-40.568-1.04-73.19-12.156-72.87-24.827s33.475-22.1 74.04-21.06S167 52.13 166.68 64.8z" fill="none" stroke="#000" stroke-miterlimit="10" stroke-width="1.361412"/><g fill="none" stroke="#000" stroke-linecap="round" stroke-linejoin="round" stroke-miterlimit="10" stroke-width="1.819"><path d="m19.729 63.58 72.352 123.61M92.076 187.19l74.557-119.844" stroke-width="1.32286775"/></g><path d="M91.037 63.107a.368.368 0 0 0 .635-.308c-.017-.106-.033-.213-.06-.317a.503.503 0 1 0-.575.626zm-.643-.53a.63.63 0 1 0 1.261 0 .63.63 0 0 0-1.261 0zm.051.315a.685.685 0 0 0 .65.333.671.671 0 1 0-.351-1.27.68.68 0 0 0-.299.937zm.65.333.18-.014a.707.707 0 1 0-.369-1.337 92.16 92.16 0 0 1-.162.08.671.671 0 0 0 .35 1.27zm.18-.014s.112.005.144.008c.15.01.298.024.447.04a.78.78 0 1 0 .034-1.555c-.324.018-.697.022-.994.17a.707.707 0 0 0 .37 1.337zm.59.047c.4.04.801.074 1.203.103a.846.846 0 1 0 .063-1.69c-.41-.002-.821.009-1.231.032a.78.78 0 0 0-.034 1.554zm1.203.103c.364.026.776.066 1.122-.078a.866.866 0 0 0-.563-1.634c-.153.042-.34.023-.496.022a.846.846 0 0 0-.063 1.69zm1.122-.078a1.01 1.01 0 0 0 .53-.485.933.933 0 0 0-.169-1.038.863.863 0 0 0-1.422.255.866.866 0 0 0 1.061 1.268zm-.816-.193c.046.005.091.01.136.018v.001a.863.863 0 0 0 1.041-1.35c-.266-.281-.657-.343-1.024-.37a.853.853 0 0 0-.153 1.7zm-1.729-.052c.573.006 1.158-.01 1.729.052a.853.853 0 1 0 .183-1.697l-.03-.003c-.62-.045-1.247-.035-1.868-.039a.843.843 0 0 0-.014 1.687zm-1.572-.016c.524.003 1.048.01 1.572.016a.844.844 0 0 0 .018-1.687h-.004c-.548-.003-1.113-.04-1.66.01a.833.833 0 0 0 .074 1.661zm.3-.054A.833.833 0 0 0 90 61.361c-.469.043-.874.384-.909.872a.82.82 0 0 0 1.282.736zm-.29.317a.825.825 0 1 0 .443-1.589c-.012-.002-.023-.006-.034-.009l-.04-.01a.82.82 0 0 0-1.36.556c-.028.384.204.713.534.883.145.075.3.125.456.169zm0 0c.465.13.952.19 1.43.248a.856.856 0 1 0 .209-1.7l-.042-.003c-.395-.029-.801-.052-1.188-.142a.825.825 0 0 0-.41 1.597zm1.43.248c.57.07 1.145.12 1.72.127a.884.884 0 1 0 .022-1.769h-.015c-.52.003-1.04-.023-1.56-.061a.856.856 0 0 0-.166 1.703zm1.72.127.76.009a.89.89 0 1 0 .022-1.781H94l-.76.003a.885.885 0 0 0-.008 1.768zm.932-.006a.89.89 0 1 0-.42-1.728.89.89 0 0 0 .42 1.728zm-.792-.057.539.063a.89.89 0 1 0 .207-1.769c-.007 0-.014-.001-.02-.003l-.54-.05a.885.885 0 0 0-.186 1.759zm-.965-.101c.322.03.644.064.965.101a.884.884 0 0 0 .205-1.757l-.02-.002c-.354-.034-.71-.053-1.066-.055a.858.858 0 0 0-.084 1.713zm-1.144-.054c.381.006.763.02 1.144.054a.858.858 0 0 0 .156-1.71l-.072-.003c-.409-.003-.817.001-1.226.008a.825.825 0 0 0-.002 1.65zm-.708.005c-.039.008.022 0 .032 0a6.19 6.19 0 0 1 .158-.007c.172-.004.345-.002.518.002a.826.826 0 1 0 .002-1.65c-.392.007-.848-.01-1.213.16a.794.794 0 0 0 .503 1.495zm-.54.03c.223.08.47.054.67-.07a.793.793 0 1 0-.633-1.455c-.106.049-.209.107-.296.185a.8.8 0 0 0 .26 1.34zm0 0 .285.102a.787.787 0 1 0 .476-1.5l-.292-.08a.776.776 0 0 0-.469 1.479zm.285.102c.338.121.714.118 1.068.1a.828.828 0 1 0-.185-1.644c-.14.024-.307.065-.448.033a.787.787 0 0 0-.435 1.51zm1.083.1c.474-.034.945-.166 1.4-.293a41.844 41.844 0 0 0 2.203-.692.56.56 0 0 0-.24-1.086c-1.183.13-2.372.242-3.548.425a.828.828 0 0 0 .185 1.645zM99.09 58.667c-.026-.067.024.087.029.105l.116.41a.453.453 0 0 0 .883-.055l.061-.397c.004-.026.032-.182.02-.132a.582.582 0 1 0-1.11.07zm1.133-.252a.611.611 0 0 0-.369-.499.585.585 0 0 0-.58.079.627.627 0 0 0-.232.45.595.595 0 1 0 1.18-.03zm.156 1.064-.156-1.064a.595.595 0 0 0-1.181.03l-.102 1.07a.725.725 0 1 0 1.44-.036zm-1.493 2.132a.867.867 0 1 0 1.73-.117 34.665 34.665 0 0 0-.238-2.015.725.725 0 0 0-1.439.036 14.721 14.721 0 0 0-.053 2.096zm0 0c.03.617.063 1.234.103 1.85a.9.9 0 1 0 1.793-.143c-.058-.608-.114-1.216-.167-1.824a.867.867 0 0 0-1.73.117zm.103 1.85c.031.49.07.983.154 1.467a.914.914 0 0 0 1.8-.315 16.818 16.818 0 0 1-.16-1.295.9.9 0 0 0-1.794.144zm.154 1.467c.064.367.16.73.299 1.076a.914.914 0 0 0 1.697-.679 3.584 3.584 0 0 1-.196-.712.914.914 0 1 0-1.8.315zm.299 1.076c.044.11.09.22.141.327.158.324.432.573.812.601a.912.912 0 0 0 .95-.673.91.91 0 0 0-.139-.773 3.73 3.73 0 0 1-.067-.16.914.914 0 1 0-1.697.678zm1.904.256.068-.248a.892.892 0 0 0-1.68-.59l-.101.236a.91.91 0 1 0 1.713.602zm.068-.248c.07-.257.082-.528.07-.793a.826.826 0 0 0-1.62-.188 3.047 3.047 0 0 1-.13.392.892.892 0 1 0 1.68.59zm.07-.793c-.007-.176.047-.358.1-.523a.758.758 0 0 0-1.426-.512c-.11.278-.214.56-.294.847a.826.826 0 1 0 1.62.188zm.1-.523c.081-.25.18-.494.306-.724a.73.73 0 0 0-1.26-.736c-.187.3-.343.62-.472.948a.758.758 0 1 0 1.41.557l.017-.045zm.306-.724c.12-.218.249-.43.392-.632a.726.726 0 1 0-1.183-.84c-.007.007-.012.017-.018.026-.152.235-.302.472-.45.71a.73.73 0 0 0 1.238.773c.008-.012.014-.024.021-.037zm.392-.632c.114-.16.242-.313.386-.448a.757.757 0 1 0-1.1-1.036 7.127 7.127 0 0 0-.487.67.726.726 0 0 0 1.201.814zm.386-.448c.037-.034.145-.123.162-.128a.794.794 0 1 0-.56-1.482c-.28.126-.509.34-.702.574a.757.757 0 0 0 1.1 1.036zm.162-.128c.013-.004.03-.01.042-.01-.025.002-.107 0-.01.006a.816.816 0 0 0 .121-1.627 1.48 1.48 0 0 0-.712.149.794.794 0 0 0 .56 1.482zm-.481-.24c.023.06.043.121.062.183a.848.848 0 1 0 1.594-.573c-.188-.458-.468-.96-1.022-1.002a.816.816 0 0 0-.636 1.394zm.062.183c.128.411.211.837.289 1.26a.904.904 0 1 0 1.764-.394 11.53 11.53 0 0 0-.46-1.44.848.848 0 0 0-1.593.574zm.289 1.26c.102.558.217 1.114.35 1.666a.96.96 0 0 0 1.867-.447l-.015-.054c-.155-.517-.3-1.037-.438-1.56a.904.904 0 0 0-1.764.395zm.35 1.666c.091.384.17.805.359 1.156a.983.983 0 0 0 1.73-.934c.02.038-.009-.024-.013-.034a4.548 4.548 0 0 1-.057-.16c-.06-.175-.113-.352-.167-.528a.96.96 0 0 0-1.853.5zm.359 1.156a1.12 1.12 0 0 0 1.529.438c.224-.127.395-.324.523-.545a.618.618 0 0 0-.307-.885c-.033-.014-.083-.032-.108-.05.038.027.128.145.027.004a.982.982 0 0 0-1.664 1.038z" fill="#55e1ff"/><path d="M126.783 129.721c.02.87-.501 1.73-1.567 2.584-1.065.853-2.621 1.657-4.669 2.41-2.048.754-4.486 1.422-7.316 2.002-2.83.58-5.912 1.046-9.246 1.397-3.335.35-6.759.569-10.272.655-3.513.086-6.943.036-10.291-.151s-6.45-.5-9.304-.942c-2.855-.441-5.323-.988-7.405-1.64-2.082-.653-3.676-1.38-4.782-2.18s-1.67-1.634-1.69-2.504.5-1.73 1.566-2.583c1.065-.854 2.621-1.657 4.669-2.411m7.316-2.002c2.83-.58 5.912-1.046 9.246-1.396m10.271-.655c3.513-.086 6.944-.036 10.292.15m9.303.943c2.855.44 5.323.988 7.405 1.64m4.782 2.18c1.106.8 1.67 1.634 1.69 2.503" fill="none" stroke="#000" stroke-linecap="round" stroke-linejoin="round" stroke-miterlimit="10" stroke-width="1.32286775"/><path d="M91.837 3.949c.165-.356.418-.694.846-.678a.409.409 0 0 0 .105-.807 1.57 1.57 0 0 0-1.072.13c-.36.187-.634.502-.84.845a.544.544 0 1 0 .96.51zm-.87 2.155c.259-.73.543-1.452.87-2.155a.545.545 0 0 0-.96-.51 17.368 17.368 0 0 0-1.104 2.202.64.64 0 1 0 1.194.463zm-1.33 1.29a.676.676 0 0 0 .931-.221c.003-.004.006-.008.007-.012.064-.11.1-.239.142-.357l.25-.7a.64.64 0 0 0-1.194-.462 45.48 45.48 0 0 1-.292.68V6.32a.679.679 0 0 0-.107.198.859.859 0 0 0-.056.36c.02.212.138.402.32.514h-.001zm1.023-.442.605-1.794a.678.678 0 1 0-1.286-.433l-.604 1.794a.678.678 0 0 0 1.285.433zm.605-1.794c.261-.776.52-1.553.76-2.337a.62.62 0 0 0-1.16-.435c-.341.76-.62 1.55-.886 2.34a.678.678 0 1 0 1.286.432zm.76-2.337c.039-.13.086-.26.158-.376a.628.628 0 1 0-.034-1.255h-.017c-.657.036-1.025.66-1.266 1.196a.62.62 0 1 0 1.158.435zm-.026-.398c.019.006.035.025.048.038.072.078.123.178.167.274a.725.725 0 1 0 1.284-.671c-.287-.49-.765-.906-1.366-.874A.628.628 0 0 0 92 2.423zm.215.312c.107.23.17.483.232.728.113.45.202.908.284 1.365a.783.783 0 1 0 1.542-.278l-.006-.024c-.105-.493-.22-.985-.367-1.468-.104-.34-.221-.686-.402-.994a.725.725 0 0 0-1.284.67zm.517 2.097c.152.817.376 1.637.764 2.376.301.573.72 1.121 1.3 1.434a.526.526 0 0 0 .668-.784c-.283-.369-.473-.807-.631-1.242-.247-.677-.418-1.38-.564-2.086a.783.783 0 0 0-1.537.302zM99.53 1.975c.228-.547.832-.714 1.374-.762a.53.53 0 0 0-.093-1.054c-.016 0-.032.004-.048.006-.884.161-1.74.633-1.985 1.554a.398.398 0 0 0 .752.256zm1.363-.76c.441-.03.903-.047 1.339.046a.625.625 0 1 0 .193-1.233c-.558-.057-1.127.027-1.673.14a.53.53 0 0 0 .14 1.046zm1.339.046c.248.053.44.234.587.433A.695.695 0 1 0 103.89.81c-.386-.418-.891-.723-1.465-.782a.625.625 0 0 0-.193 1.233zm.587.433c.192.262.288.571.3.894a.755.755 0 1 0 1.505-.09A2.838 2.838 0 0 0 103.89.81a.696.696 0 0 0-1.071.883zm.797 3.282c.527-.694 1.087-1.566 1.008-2.479a.755.755 0 0 0-1.506.091c.005.174-.07.354-.14.508-.156.338-.371.649-.596.944a.774.774 0 1 0 1.234.936zm-1.113 1.677c.278-.604.714-1.15 1.113-1.677a.774.774 0 1 0-1.234-.936c-.474.626-.98 1.29-1.264 2.029a.752.752 0 0 0 1.385.584zm-1.642.782a.72.72 0 0 0 1.438-.068c-.006-.245.104-.498.204-.714a.752.752 0 1 0-1.366-.63l-.019.046c-.166.432-.29.899-.257 1.366zm0 0c.049.7.656 1.084 1.287 1.204a.698.698 0 0 0 .285-1.367 1.133 1.133 0 0 1-.153-.045h.001a.72.72 0 0 0-1.42.208zm1.283 1.203c.649.127 1.329.133 1.987.155 1.231.042 2.464.047 3.695.047a.444.444 0 0 0 .047-.885c-1.215-.128-2.43-.26-3.642-.413-.6-.076-1.21-.14-1.802-.27a.698.698 0 1 0-.301 1.363c.005 0 .01.002.016.004z"/><path d="M99.85 5.109a.375.375 0 0 0 .733-.146c-.004-.031.114-.04.137-.042.12-.015.24-.012.36-.006a.517.517 0 1 0-.036-1.028c-.334.045-.693.13-.951.36a.83.83 0 0 0-.243.862zm1.246-.193c1.704.053 3.406.17 5.107.28a.414.414 0 0 0 .098-.821 40.027 40.027 0 0 0-3.124-.444c-.7-.067-1.416-.118-2.118-.046a.517.517 0 0 0 .037 1.031zM281.725 185.597a.53.53 0 1 0 .644-.837.648.648 0 0 1-.186-.154.405.405 0 0 0-.719-.336c-.332.448-.109.986.261 1.327zm0 0c.358.33.766.603 1.188.844a.61.61 0 1 0 .564-1.082 10.27 10.27 0 0 1-1.108-.6.53.53 0 0 0-.644.838zm1.188.844c.372.213.734.445 1.071.711a.657.657 0 1 0 .814-1.03 8.747 8.747 0 0 0-1.32-.762.61.61 0 0 0-.565 1.081zm1.071.711c.32.253.565.598.772.946a.715.715 0 1 0 1.192-.788c-.333-.455-.716-.885-1.18-1.21a.657.657 0 0 0-.784 1.052zm2.005 2.312c.26-.311.401-.705.375-1.112-.026-.382-.193-.737-.416-1.042a.715.715 0 0 0-1.192.788c.058.097.163.247.07.35a.773.773 0 1 0 1.138 1.044l.025-.028zm-4.579 2.027c.983-.282 1.966-.585 2.908-.984.588-.249 1.246-.54 1.667-1.039a.773.773 0 0 0-1.163-1.017c-.11.123-.253.22-.388.314-.24.165-.492.314-.746.457-.854.48-1.743.898-2.634 1.304a.516.516 0 0 0 .356.965zM284.898 194.17c.213.653.452 1.302.762 1.916.23.456.502.91.877 1.26a.636.636 0 0 0 .868-.929l-.028-.025c-.293-.242-.52-.564-.727-.879a14.58 14.58 0 0 1-.925-1.675.447.447 0 0 0-.827.333zm1.633 3.17c.422.405.95.685 1.529.782a.684.684 0 1 0 .191-1.354 1.72 1.72 0 0 1-.881-.381.635.635 0 0 0-.839.953zm1.529.782c.455.077.951.108 1.389-.067a.704.704 0 1 0-.523-1.308c-.003 0-.005.003-.008.003-.197.08-.464.04-.667.018a.684.684 0 0 0-.192 1.354zm1.389-.067c.471-.189.815-.612 1.091-1.02a.707.707 0 0 0-1.17-.792 2.64 2.64 0 0 1-.315.397c-.038.038-.086.089-.137.11a.704.704 0 0 0 .531 1.305zm1.091-1.02c.365-.54.612-1.154.794-1.777a.681.681 0 0 0-1.296-.417c-.17.488-.377.972-.668 1.402a.706.706 0 1 0 1.17.792zm.794-1.777c.155-.527.305-1.07.345-1.62a.638.638 0 0 0-1.268-.133c-.064.456-.221.903-.373 1.336a.68.68 0 1 0 1.296.417zm.345-1.62.04-.554a.62.62 0 0 0-1.231-.13l-.077.55a.638.638 0 0 0 1.263.177c.002-.014.004-.028.004-.042zm.006-.393.004-.014c.002-.005.003-.012.006-.017a.641.641 0 0 0-.106-.569.618.618 0 0 0-.797-.154.641.641 0 0 0-.3.415.62.62 0 0 0 1.194.34zm-.102.739.126-.836a.62.62 0 0 0-1.216-.242l-.205.82a.66.66 0 1 0 1.295.258zm-.114 4.61c0-1.041.005-2.082.032-3.123.014-.492.01-.999.082-1.487a.66.66 0 0 0-1.295-.258c-.135.545-.151 1.128-.184 1.686a84.358 84.358 0 0 0-.114 3.164.739.739 0 1 0 1.479.032v-.015zm-.269 5.089c.15-.604.173-1.245.204-1.863.054-1.075.063-2.151.065-3.227a.74.74 0 0 0-1.479-.017 70.285 70.285 0 0 1-.122 3.154c-.035.522-.055 1.069-.181 1.58a.78.78 0 0 0 1.513.373zm-1.02 1.842c.545-.472.85-1.154 1.02-1.842a.78.78 0 1 0-1.513-.374c-.094.38-.236.797-.531 1.07a.769.769 0 0 0 1.024 1.146zm-1.822.31c.617.35 1.316.127 1.822-.31a.769.769 0 0 0-1.006-1.163l-.018.016a.704.704 0 0 1-.22.155.716.716 0 0 0-.578 1.303zm-1.178-1.945c.134.398.283.796.485 1.165.168.306.383.606.693.78a.716.716 0 0 0 .703-1.247l-.03-.015c-.134-.068-.213-.215-.287-.342a5.588 5.588 0 0 1-.36-.778.64.64 0 0 0-1.204.437zm-.513-2.54c.028.866.239 1.721.513 2.54a.64.64 0 1 0 1.204-.437c-.278-.713-.52-1.45-.641-2.207a.542.542 0 0 0-1.077.103zm0 0a.541.541 0 1 0 1.076-.104c-.07-.43-.138-.929-.003-1.354a.494.494 0 0 0-.94-.301l-.008.027c-.145.56-.145 1.157-.126 1.731zm1.074-1.458c.069-.214.319-.268.516-.29a.556.556 0 1 0-.186-1.093c-.592.136-1.12.496-1.279 1.11a.494.494 0 0 0 .95.273zm.526-.29c1.59-.207 3.202-.288 4.8-.4a.39.39 0 0 0-.01-.78 53.964 53.964 0 0 0-3.11-.061c-.619.009-1.258.017-1.867.146a.555.555 0 0 0 .187 1.094zM6.799 271.275c.27-.979.389-2.005.273-3.018a.384.384 0 0 0-.764.058c.033.917-.118 1.832-.381 2.709a.454.454 0 1 0 .869.261l.003-.01zm-.408 1.963c.004-.242.053-.486.102-.722.085-.418.192-.83.306-1.24a.454.454 0 0 0-.872-.252c-.211.7-.461 1.445-.497 2.182a.48.48 0 1 0 .96.032zm-.591 1.143a.499.499 0 0 0 .686-.723c-.105-.106-.098-.277-.095-.42a.48.48 0 0 0-.96-.032c-.02.417.04.883.369 1.175zm0 0c.404.358 1.017.214 1.476.064a.508.508 0 1 0-.317-.966c-.17.056-.374.131-.556.112a.498.498 0 0 0-.603.79zm1.476.064c.617-.202 1.202-.496 1.763-.82a.51.51 0 0 0-.51-.882c-.5.29-1.021.555-1.57.736a.508.508 0 0 0 .317.966zm1.763-.82c1.054-.61 2.34-.773 3.536-.835a.33.33 0 0 0 .014-.66c-1.354-.129-2.851-.086-4.06.613a.509.509 0 1 0 .51.882zM.066 283.315a.352.352 0 0 0 .66-.243c-.093-.256.14-.4.348-.493a.403.403 0 1 0-.378-.711c-.251.154-.487.357-.613.63-.12.26-.115.55-.017.817zm.998-.732c.354-.15.743-.203 1.124-.217a.496.496 0 1 0-.092-.986c-.494.074-.987.22-1.409.494a.403.403 0 0 0 .377.71zm1.124-.217c.296-.012.639-.011.91.127a.571.571 0 1 0 .444-1.05c-.463-.157-.97-.134-1.446-.063a.496.496 0 0 0 .092.986zm.91.127c.035.018.1.15.126.203.113.24.18.503.238.761a.633.633 0 1 0 1.235-.275l-.007-.029c-.173-.635-.457-1.474-1.148-1.71a.571.571 0 0 0-.444 1.05zm.364.964c.15.677.236 1.37.224 2.063a.66.66 0 1 0 1.32.022 8.554 8.554 0 0 0-.316-2.389.633.633 0 0 0-1.228.304zm1.138 4.14c.29-.643.395-1.355.407-2.055a.66.66 0 1 0-1.32-.022c-.01.521-.075 1.059-.288 1.539a.658.658 0 0 0 1.2.538zm-.37.818.37-.818a.658.658 0 1 0-1.201-.538l-.365.82a.656.656 0 0 0 1.196.536zm-.207.272a.653.653 0 0 0 .207-.272.58.58 0 0 0 .032-.086l.023-.06a.647.647 0 0 0-1.18-.526l-.03.058a.695.695 0 0 0-.108.398.654.654 0 0 0 1.056.488zm.262-.417.797-1.972a.57.57 0 0 0-1.041-.465l-.936 1.91a.647.647 0 1 0 1.18.527zm.797-1.972c.509-1.26 1.046-2.507 1.602-3.747a.485.485 0 0 0-.883-.403 215.882 215.882 0 0 1-1.76 3.685.57.57 0 0 0 1.024.503l.017-.038zm1.602-3.747c.234-.523.46-1.06.745-1.56v.001a.49.49 0 0 0 .22-.487c-.08-.514-.705-.533-.954-.153-.071.11-.132.226-.191.342-.248.477-.475.966-.703 1.454a.486.486 0 0 0 .88.41l.002-.006zm1.133-.963-.168-1.083a.49.49 0 0 0-.973.055l-.046 1.094a.598.598 0 1 0 1.187-.066zm.078 2.442c.036-.811.048-1.638-.078-2.442a.598.598 0 0 0-1.187.066c-.032.76-.098 1.52-.168 2.278a.718.718 0 0 0 1.43.132l.003-.034zm-.032 2.442a31.86 31.86 0 0 1 .032-2.442.718.718 0 0 0-1.433-.098c-.078.85-.137 1.704-.142 2.56a.772.772 0 1 0 1.543-.02zm-.504 2.091a.792.792 0 0 0 .7-1.42c-.046-.023-.073-.068-.095-.113-.08-.17-.095-.373-.101-.558a.772.772 0 0 0-1.543.02c-.005.816.255 1.685 1.04 2.071zm0 0c.658.324 1.413.06 2.012-.267.815-.444 1.538-1.056 2.225-1.674a.512.512 0 0 0-.616-.812c-.699.444-1.425.887-2.204 1.176-.194.071-.4.14-.607.156-.021.001-.127-.007-.11 0a.792.792 0 1 0-.7 1.421z"/></svg>