<svg width="277.7" height="257.13" xml:space="preserve" xmlns="http://www.w3.org/2000/svg"><g fill="none" stroke="#000" stroke-linecap="round" stroke-linejoin="round" stroke-miterlimit="10" stroke-width="1.819"><path d="M96.117 4.89v147.4h162.11M96.117 152.297 2.003 242.396" stroke-width="1.32286775"/></g><path d="M93.51 8.312c.395-.955.851-1.884 1.366-2.78a.397.397 0 0 0-.667-.43 15.575 15.575 0 0 0-1.61 2.82.496.496 0 0 0 .906.4l.004-.011zm-.425 1.04.425-1.043a.495.495 0 0 0-.91-.389l-.46 1.03a.514.514 0 1 0 .938.418l.007-.015zm-.995-.108a.514.514 0 0 0 .942.215c.034-.052.056-.112.08-.17a.515.515 0 1 0-.95-.398l-.002.003c-.024.06-.051.12-.064.184a.532.532 0 0 0-.007.165zm1.022.046.895-2.135a.523.523 0 0 0-.965-.404l-.001.002-.88 2.141a.515.515 0 0 0 .951.395zm.895-2.135c.222-.529.445-1.058.679-1.582.107-.241.21-.492.344-.72a.53.53 0 1 0-.914-.54c-.156.263-.274.552-.397.832-.234.533-.457 1.07-.678 1.609a.523.523 0 0 0 .966.401zm1.023-2.302c.052-.09.125-.227.223-.277a.555.555 0 1 0-.596-.93c-.226.178-.395.42-.54.667a.53.53 0 0 0 .913.54zm-.08-.22c.134.13.246.284.354.435a.631.631 0 1 0 .983-.789c-.197-.22-.408-.441-.658-.603-.294-.19-.676-.263-.972-.03a.555.555 0 0 0 .293.989zm.36.443c.42.567.791 1.173 1.162 1.772.657 1.063 1.291 2.139 1.92 3.217a.45.45 0 0 0 .799-.412c-.523-1.153-1.06-2.3-1.66-3.416-.36-.672-.735-1.37-1.237-1.95a.631.631 0 0 0-.984.79zM103.576 1.778c1.083-.13 2.167-.256 3.253-.363.507-.05 1.026-.118 1.537-.11A.64.64 0 1 0 108.34.03c-.557.031-1.115.14-1.665.232-1.083.182-2.163.383-3.243.588a.47.47 0 0 0 .144.93zm4.78-.473c.142.004.289.005.411.08a.686.686 0 0 0 .707-1.176c-.339-.204-.762-.207-1.144-.18a.638.638 0 0 0 .026 1.276zm.192-.133a1.345 1.345 0 0 1-.022.153.705.705 0 1 0 1.384.268c.097-.502.047-1.094-.436-1.384a.686.686 0 0 0-.927.964zm.288 2.26c.436-.53.94-1.147 1.074-1.84a.705.705 0 0 0-1.384-.267c-.028.146-.117.287-.192.412a7.049 7.049 0 0 1-.585.804.703.703 0 0 0 1.087.891zm-1.343 1.8c.41-.627.868-1.222 1.343-1.8a.703.703 0 0 0-1.086-.893l-.001.002a18.691 18.691 0 0 0-1.416 1.95.688.688 0 0 0 1.16.74zm-.775 1.437c.2-.507.477-.983.775-1.438a.688.688 0 1 0-1.15-.755l-.01.014c-.339.545-.643 1.12-.849 1.729a.657.657 0 0 0 1.234.45zm-1.23 1.384a.625.625 0 0 0 1.188-.389 1.495 1.495 0 0 1 .042-.995.657.657 0 0 0-1.222-.48 2.835 2.835 0 0 0-.008 1.864zm0 0c.299.864 1.238 1.152 2.064 1.222a.618.618 0 1 0 .104-1.232h-.005c-.263-.02-.548-.056-.784-.182-.082-.044-.162-.104-.19-.197a.625.625 0 0 0-1.196.368l.007.02zm2.065 1.222c.63.052 1.27.057 1.895-.049.484-.082.977-.234 1.376-.531a.405.405 0 0 0-.334-.72c-.917.212-1.91.138-2.838.067a.618.618 0 0 0-.099 1.233z"/><path d="M103.71 5.832c.279.137.607.161.913.161a7.54 7.54 0 0 0 1.162-.105c1.218-.19 2.415-.52 3.596-.866a.338.338 0 0 0-.166-.655c-1.176.255-2.359.499-3.553.65-.37.046-.742.085-1.115.088-.176.002-.365.003-.536-.047a.417.417 0 0 0-.302.774zM255.545 151.228c.64.088 1.26.302 1.858.537a.57.57 0 1 0 .417-1.063l-.025-.01c-.72-.244-1.515-.409-2.272-.261a.404.404 0 0 0 .022.797zm1.85.534c.476.193.942.408 1.396.646a.622.622 0 0 0 .578-1.102l-.032-.015a14.874 14.874 0 0 0-1.55-.6.571.571 0 0 0-.391 1.071zm1.396.646a5.51 5.51 0 0 1 1.054.697.644.644 0 1 0 .842-.974 5.58 5.58 0 0 0-1.35-.84.622.622 0 0 0-.546 1.117zm1.054.697c.203.176.372.395.45.655a.642.642 0 0 0 1.23-.365 2.685 2.685 0 0 0-.838-1.264.644.644 0 1 0-.842.974zm1.562 1.617c.297-.382.246-.892.118-1.327a.642.642 0 1 0-1.23.366 1.1 1.1 0 0 1 .05.24.643.643 0 0 0 1.061.72zm-1.566.697c.305-.074.611-.155.904-.269.245-.094.497-.217.662-.428a.643.643 0 0 0-.949-.863c-.03.029.033-.01-.038.022-.06.026-.12.047-.182.066a6.5 6.5 0 0 1-.685.166.669.669 0 0 0 .26 1.313l.028-.007zm-2.963.448c.997-.044 1.988-.218 2.958-.446a.669.669 0 0 0-.288-1.307c-.983.203-1.96.475-2.876.89a.451.451 0 0 0 .206.863zM267.665 150.175l.144-.924a.331.331 0 1 0-.655-.102l-.143.924a.331.331 0 1 0 .654.102zm-.513-.942a.337.337 0 1 0 .667-.087c-.033-.173-.18-.31-.369-.29a.336.336 0 0 0-.224.123.35.35 0 0 0-.074.254zm.789.535-.122-.622a.337.337 0 0 0-.666.032l-.06.632a.43.43 0 1 0 .847-.042zm-.489 1.548a.532.532 0 1 0 .922-.53l-.013-.02a2.922 2.922 0 0 1-.42-.998.43.43 0 0 0-.85.042c-.05.527.1 1.051.36 1.506zm0 0c.301.525.764.935 1.284 1.237a.555.555 0 1 0 .557-.961l-.01-.005c-.361-.202-.697-.469-.922-.822a.532.532 0 0 0-.91.55zm1.284 1.237a4.46 4.46 0 0 0 1.668.588.563.563 0 0 0 .141-1.117 3.518 3.518 0 0 1-1.26-.437.555.555 0 0 0-.55.966zm1.668.588c.605.077 1.214-.093 1.63-.556a.54.54 0 0 0-.775-.75c-.195.187-.455.222-.714.189a.563.563 0 0 0-.141 1.117zm1.63-.556c.388-.433.572-1.003.634-1.573a.488.488 0 0 0-.965-.139c-.062.348-.183.712-.444.963a.54.54 0 1 0 .746.779l.028-.03zm.634-1.573c.071-.645.11-1.293.136-1.94a.49.49 0 1 0-.981-.012 9.406 9.406 0 0 1-.12 1.813.488.488 0 0 0 .96.171c.002-.01.005-.021.006-.032zm-.865-3.11.02 1.158a.49.49 0 0 0 .981.012l.046-1.158a.523.523 0 1 0-1.047-.04v.029zm.726.474.022-.009c.012-.005.023-.012.034-.018a.523.523 0 0 0 .265-.434c0-.04.002-.079-.002-.118a.526.526 0 0 0-.735-.42.544.544 0 0 0-.315.443.528.528 0 0 0 .732.557zm.268.654.052-1.114a.528.528 0 0 0-1.051-.097l-.152 1.105a.578.578 0 1 0 1.15.106zm-.02 5.175c-.008-1.126-.014-2.25-.01-3.376.003-.6.002-1.2.03-1.8a.578.578 0 0 0-1.15-.105c-.086.621-.1 1.254-.123 1.88a133.7 133.7 0 0 0-.067 3.399.66.66 0 1 0 1.32.013v-.01zm-.174 5.276c.12-.616.128-1.26.148-1.884.035-1.13.034-2.262.026-3.392a.66.66 0 0 0-1.32-.002 94.348 94.348 0 0 1-.078 3.341c-.025.554-.034 1.126-.14 1.672a.695.695 0 1 0 1.364.265zm-.616 1.686c.346-.49.503-1.105.616-1.686a.695.695 0 0 0-1.365-.265c-.08.415-.168.867-.377 1.24a.667.667 0 0 0 1.126.711zm-.998.748c.43-.074.756-.406.998-.748a.667.667 0 1 0-1.127-.71c-.056.1-.155.258-.228.29a.615.615 0 0 0 .357 1.168zm-1.236-.552c.326.32.752.636 1.236.552a.615.615 0 0 0-.204-1.213 1.146 1.146 0 0 1-.25-.18.575.575 0 0 0-.782.841zm-.928-1.404c.233.51.525 1.009.928 1.404a.574.574 0 1 0 .805-.82l-.023-.021c-.33-.29-.586-.66-.809-1.035a.51.51 0 0 0-.901.472zm-.466-1.94c.041.668.188 1.33.466 1.94a.51.51 0 1 0 .901-.472 3.63 3.63 0 0 1-.474-1.536.448.448 0 0 0-.893.068zm0 0a.448.448 0 0 0 .894-.056l-.001-.012c-.037-.408.07-.806.427-1.04a.493.493 0 1 0-.596-.783c-.55.481-.77 1.174-.724 1.89zm1.32-1.108a4.435 4.435 0 0 1 1.428-.6.585.585 0 0 0-.268-1.14l-.041.01a4.756 4.756 0 0 0-1.715.946.493.493 0 0 0 .596.783zm1.434-.602c.697-.172 1.424-.246 2.135-.33 1.346-.16 2.696-.282 4.046-.397a.417.417 0 0 0-.038-.832c-1.37.007-2.742.026-4.11.114-.775.05-1.592.09-2.342.316a.585.585 0 0 0 .31 1.129zM1.192 237.48a.364.364 0 0 0 .726-.011c.003-.051.008-.102.018-.152a.491.491 0 1 0-.383-.892c-.365.224-.39.67-.361 1.054zm1.276.582c.031-.34.06-.691.01-1.03a.96.96 0 0 0-.183-.47c-.197-.245-.563-.3-.806-.09a.49.49 0 0 0-.146.52c-.025.303-.082.603-.135.9a.636.636 0 1 0 1.26.17zm-.53 2.31c.3-.735.458-1.522.53-2.31a.637.637 0 0 0-1.26-.17 8.98 8.98 0 0 1-.552 1.945.695.695 0 0 0 1.278.544l.004-.01zm-.516 1.56c.126-.534.309-1.053.516-1.56a.695.695 0 0 0-1.282-.535 10.934 10.934 0 0 0-.6 1.774.702.702 0 1 0 1.366.321zm-.13 1.215a.681.681 0 0 0 .146-1.32.702.702 0 0 0-1.382-.216c-.088.376-.087.791.146 1.117.25.35.679.467 1.09.419zm0 0c.357-.042.707-.152 1.046-.267.502-.17.994-.367 1.481-.572a.656.656 0 0 0-.505-1.21c-.456.188-.917.37-1.388.518-.24.076-.496.16-.75.174a.681.681 0 0 0 .074 1.36c.014 0 .028-.002.042-.004zm2.527-.839a32.439 32.439 0 0 1 2.261-.87c.464-.155.942-.306 1.428-.37a.413.413 0 0 0 .06-.806c-.579-.164-1.215-.085-1.794.034-.846.173-1.665.471-2.46.801a.656.656 0 1 0 .503 1.212l.002-.001zM-.008 251.879c-.004.72.248 1.416.592 2.04a.331.331 0 1 0 .58-.32c-.28-.51-.492-1.094-.438-1.684a.368.368 0 1 0-.734-.036zm0 .008a.368.368 0 0 0 .734.036c.033-.296.151-.57.35-.792a.433.433 0 1 0-.671-.545c-.278.377-.42.833-.413 1.3zm1.084-.756c.283-.316.713-.498 1.101-.645a.504.504 0 0 0-.356-.943l-.042.018c-.51.247-1.032.56-1.374 1.025a.433.433 0 0 0 .671.545zm1.101-.645c.347-.13.754-.3 1.133-.287a.587.587 0 1 0-.06-1.167c-.514.07-1.009.305-1.471.53a.504.504 0 0 0 .398.925zm.945-.326c.092.25.114.53.134.795a.683.683 0 1 0 1.357-.163c-.067-.4-.156-.817-.355-1.175-.205-.366-.569-.646-1.008-.585a.587.587 0 0 0-.127 1.129zm1.494 2.96c.207-.75.121-1.571-.004-2.328a.684.684 0 0 0-1.356.163c.044.577.085 1.206-.07 1.77a.742.742 0 0 0 1.43.395zm-.568 1.578c.225-.512.42-1.038.568-1.578a.742.742 0 1 0-1.43-.394c-.132.476-.299.941-.488 1.397a.734.734 0 0 0 1.35.575zm-.422 1.017c.122-.345.275-.681.422-1.017a.734.734 0 1 0-1.344-.588c-.003.004-.004.009-.005.013-.163.393-.34.798-.426 1.217a.704.704 0 0 0 1.353.375zm-.133.378.133-.378a.704.704 0 1 0-1.353-.375l-.08.393a.676.676 0 0 0 1.3.36zm-.053.2a.66.66 0 0 0-.67-1.096h.001a.676.676 0 0 0-.578.536c-.114.554.469 1.026.985.763.1-.051.183-.125.262-.203zm0 0 .618-.615a.615.615 0 0 0-.82-.914l-.677.547a.66.66 0 1 0 .88.982zm.618-.615c.426-.423.803-.896 1.165-1.376a.538.538 0 0 0-.834-.68c-.357.404-.73.803-1.15 1.142a.615.615 0 1 0 .819.914zm1.165-1.376a52.1 52.1 0 0 0 1.257-1.745.538.538 0 1 0-.907-.577 10.433 10.433 0 0 1-1.184 1.642.538.538 0 1 0 .834.68zm1.257-1.745.781-1.132a.59.59 0 0 0-.97-.67l-.023.038-.695 1.187a.538.538 0 0 0 .907.577zm-.155-1.089a.609.609 0 0 0 1.056-.13c.094-.233.135-.477-.021-.704a.6.6 0 0 0-.492-.26c-.307-.002-.467.191-.6.419a.59.59 0 0 0 .056.675zm.543 1.137.513-1.267a.608.608 0 0 0-1.115-.488l-.583 1.236a.647.647 0 1 0 1.185.52zm-.567 1.689c.143-.577.345-1.139.567-1.689a.647.647 0 0 0-1.185-.519c-.284.6-.538 1.219-.714 1.86a.689.689 0 1 0 1.331.348zm-.184 1.185c.008-.4.088-.798.184-1.186a.689.689 0 0 0-1.332-.347c-.133.483-.24.98-.266 1.482a.707.707 0 1 0 1.414.051zm-.498 1.493a.716.716 0 1 0 .697-1.25c-.098-.055-.202-.121-.2-.243a.707.707 0 0 0-1.413-.051c-.034.666.346 1.227.916 1.544zm0 0c.644.36 1.447.082 2.067-.194.964-.428 1.854-1.026 2.715-1.629a.46.46 0 0 0-.476-.785c-.846.441-1.712.875-2.62 1.171a3.78 3.78 0 0 1-.755.181.583.583 0 0 1-.316-.034.716.716 0 0 0-.615 1.29z"/><path d="m96.117 152.297 48.425 46.32M96.802 46.661l4.843 4.632m4.842 4.633 4.843 4.632m4.843 4.632 4.842 4.632m4.843 4.632 4.842 4.632m4.843 4.632 4.842 4.632" fill="none" stroke="#55e1ff" stroke-linecap="round" stroke-linejoin="round" stroke-miterlimit="10" stroke-width="1.32286775"/><g fill="none" stroke-linecap="round" stroke-linejoin="round" stroke-miterlimit="10" stroke-width="1.819"><path d="m145.228 92.975-.046 7.043m-.046 7.043-.046 7.042m-.046 7.043-.045 7.043m-.046 7.042-.046 7.043m-.046 7.043-.046 7.043m-.046 7.042-.045 7.043m-.046 7.043-.046 7.043m-.046 7.042-.046 7.043" stroke="#55e1ff" stroke-width="1.32286775"/><path d="m96.117 152.297 49.112-59.32" stroke="#ff58c4" stroke-width="1.32286775"/></g><path d="M116.922 110.109c.388 1.24.75 2.488 1.109 3.736a.664.664 0 1 0 1.265-.4c-.431-1.255-.883-2.53-1.522-3.698a.465.465 0 0 0-.853.362zm1.106 3.727c.115.42.231.84.358 1.256.07.23.135.473.247.688a.728.728 0 1 0 1.292-.67c-.078-.15-.133-.32-.193-.478-.15-.397-.295-.796-.439-1.196a.664.664 0 0 0-1.265.4zm.605 1.944.15.29a.728.728 0 0 0 1.292-.67l-.15-.29a.728.728 0 1 0-1.292.67zm.15.29c.122.236.35.403.62.422.443.031.798-.344.783-.773a.72.72 0 0 0-.473-.653v-.001a.728.728 0 0 0-.93 1.005zm1.403-.351-.008-.25a.694.694 0 0 0-1.376-.105l-.046.245a.722.722 0 1 0 1.43.11zm-1.496-.82c.045.164.118.359.102.531a.694.694 0 1 0 1.386.04c-.01-.322-.122-.644-.217-.948a.663.663 0 0 0-1.271.377zm-.392-1.25c.14.413.274.83.392 1.25a.663.663 0 1 0 1.277-.358l-.006-.02a7.596 7.596 0 0 0-.585-1.344.59.59 0 0 0-1.078.472zm-.41-1.251c.13.419.268.835.41 1.25a.59.59 0 1 0 1.078-.471 8.264 8.264 0 0 1-.515-1.107.513.513 0 0 0-.973.328zm-.238-1.265c.037.428.111.854.238 1.265a.513.513 0 1 0 .981-.304l-.008-.024a3.474 3.474 0 0 1-.193-1.007.51.51 0 1 0-1.018.07zm0 0a.51.51 0 0 0 1.018-.07c-.016-.293-.031-.59-.003-.883a.532.532 0 0 0-1.058-.103c-.001.012-.001.023-.003.034-.01.341.016.683.045 1.022zm1.015-.953c.014-.145.055-.287.122-.416a.556.556 0 1 0-1.007-.472c-.108.26-.166.539-.175.82a.532.532 0 0 0 1.06.068zm.122-.416c.125-.24.342-.444.53-.634a.605.605 0 1 0-.9-.806c-.24.297-.489.613-.637.968a.557.557 0 0 0 1.007.472zm.53-.634c.205-.206.445-.4.726-.49a.675.675 0 1 0-.504-1.25c-.443.214-.814.554-1.122.934a.605.605 0 0 0 .9.806zm.726-.49c.146-.049.323-.098.478-.06a.728.728 0 0 0 .341-1.416c-.021-.006-.043-.01-.065-.014-.433-.063-.869.05-1.258.239a.675.675 0 0 0 .504 1.25zm.39-.088c.163.062.066.026.04-.001.011.012.027.053.034.074a.752.752 0 1 0 1.422-.49l-.008-.021c-.187-.496-.589-.884-1.125-.963a.728.728 0 0 0-.363 1.401zm.074.073c.086.25.119.516.126.779a.76.76 0 0 0 1.518-.042 3.83 3.83 0 0 0-.23-1.249.752.752 0 0 0-1.414.512zm1.454 2.12c.135-.447.203-.915.19-1.383a.76.76 0 0 0-1.518.042c.01.32-.03.641-.105.952a.743.743 0 0 0 1.433.39zm-.612 1.33c.259-.415.47-.86.612-1.33a.743.743 0 1 0-1.423-.427c-.004.013-.008.025-.01.038-.088.361-.225.709-.391 1.04a.696.696 0 0 0 1.212.68zm-.851.9c.396-.119.647-.571.851-.9a.695.695 0 1 0-1.212-.679c-.124.247-.253.492-.367.743a.609.609 0 0 0 .728.835zm-.165.048.165-.049a.609.609 0 1 0-.728-.835l-.071.157a.531.531 0 0 0 .634.727zm-.17.044a.52.52 0 0 0 .4-.919h.001a.53.53 0 0 0-.865.148c-.167.366.098.72.464.771zm0 0 .327.047a.564.564 0 1 0 .012-1.118l-.328.04a.52.52 0 0 0-.01 1.031zm.327.047c.232.033.468.04.702.043a.682.682 0 1 0-.274-1.302c-.13.059-.272.124-.416.141a.563.563 0 0 0-.012 1.118zm.702.043a2.63 2.63 0 0 0 1.164-.277.801.801 0 1 0-.787-1.391 4.793 4.793 0 0 1-.65.366.682.682 0 0 0 .273 1.302zm1.179-.284c.66-.335 1.288-.74 1.91-1.14a.542.542 0 0 0-.389-.99c-.781.139-1.628.308-2.31.737a.801.801 0 0 0 .789 1.393z" fill="#ff58c4"/><g fill="#ad15ff"><path d="M83.896 165.561c.246-.016.493-.014.74-.017a.346.346 0 0 0 .116-.67c-.231-.086-.465-.167-.69-.264a.497.497 0 1 0-.166.951zm-.567-.182a.573.573 0 0 0 .913.01c0-.002.002-.004.005-.006l.012-.017a.497.497 0 0 0 .102-.285.573.573 0 1 0-1.032.298zm0 0 .04.054a.715.715 0 1 0-.119-.6l-.016.065a.574.574 0 0 0 .095.481zm.04.054.32.425a.845.845 0 1 0 1.293-1.087 1.804 1.804 0 0 0-.535-.414c-.453-.213-1.061-.06-1.196.475a.713.713 0 0 0 .118.6zm.32.425c.3.397.703.707 1.122.967a.873.873 0 1 0 .916-1.487c-.265-.161-.532-.34-.745-.566a.846.846 0 0 0-1.292 1.087zm1.122.967c.335.208.664.43.975.672a.878.878 0 1 0 1.081-1.384l-.005-.004a12.952 12.952 0 0 0-1.135-.77.873.873 0 0 0-.916 1.486zm.976.672c.314.246.65.471 1.01.644a.88.88 0 0 0 .76-1.59 3.97 3.97 0 0 1-.696-.443.878.878 0 0 0-1.074 1.39zm1.01.644c.547.261 1.139.442 1.713.631a.879.879 0 0 0 .554-1.667c-.504-.168-1.027-.324-1.507-.553a.88.88 0 0 0-.76 1.589zm1.713.631c.672.222 1.347.438 2.033.613a.877.877 0 1 0 .434-1.7h-.002a26.853 26.853 0 0 1-1.91-.58.879.879 0 0 0-.557 1.667h.002zm2.033.613c.4.102.802.203 1.208.278a.873.873 0 0 0 .334-1.715c-.372-.077-.741-.17-1.11-.264a.877.877 0 0 0-.432 1.7zm1.208.278c.574.105 1.177.095 1.757.103a.863.863 0 0 0 .034-1.726c-.477-.012-.987.005-1.457-.092a.873.873 0 1 0-.334 1.715zm1.757.103c.712.011 1.425.01 2.136-.03a.855.855 0 0 0-.089-1.707c-.67.033-1.342.027-2.013.01a.863.863 0 1 0-.042 1.727h.008zm2.136-.03c.484-.027.971-.062 1.45-.146a.848.848 0 0 0-.28-1.672c-.416.066-.839.09-1.259.11a.855.855 0 1 0 .089 1.708zm1.45-.146c.44-.077.875-.19 1.306-.311a.842.842 0 0 0-.452-1.621c-.374.103-.751.2-1.134.26a.848.848 0 0 0 .265 1.675l.014-.003zm1.306-.311c.457-.129.912-.265 1.363-.414a.836.836 0 0 0-.515-1.59c-.43.136-.864.262-1.3.383a.842.842 0 0 0 .448 1.622l.004-.001zm1.363-.414c.694-.23 1.355-.568 2.006-.895a.83.83 0 0 0-.74-1.483c-.577.286-1.165.593-1.78.788a.835.835 0 1 0 .504 1.593l.01-.003zm2.006-.895c.626-.313 1.276-.623 1.848-1.03a.814.814 0 0 0-.908-1.349c-.533.34-1.115.614-1.68.896a.83.83 0 1 0 .74 1.483zm1.848-1.03c.24-.17.496-.318.766-.437a.802.802 0 1 0-.647-1.466 7.784 7.784 0 0 0-1.027.555.814.814 0 1 0 .909 1.35zm.766-.437c.464-.202.883-.504 1.275-.82a.804.804 0 0 0-1.01-1.251c-.281.227-.58.456-.912.604a.802.802 0 0 0 .647 1.467zm1.275-.82c.684-.552 1.245-1.307 1.412-2.184a.508.508 0 0 0-.858-.455 19.77 19.77 0 0 1-1.564 1.388.804.804 0 0 0 1.01 1.25zM93.763 173.307c.062-.087.129-.051.221-.009a.42.42 0 0 0 .464-.685c-.192-.182-.427-.327-.693-.363-.31-.043-.614.07-.85.268a.587.587 0 1 0 .858.79zm-.26.806c.062-.275.123-.59.277-.832a.587.587 0 0 0-.85-.782c-.392.298-.604.79-.755 1.243a.69.69 0 1 0 1.328.37zm-.162 1.389c.01-.467.058-.934.162-1.389a.69.69 0 0 0-1.328-.371 7.538 7.538 0 0 0-.346 1.674.758.758 0 1 0 1.511.086zm-1.535 1.631a.81.81 0 0 0 1.615-.112l-.004-.043a10.42 10.42 0 0 1-.076-1.476.757.757 0 0 0-1.511-.086 10.52 10.52 0 0 0-.024 1.717zm0 0c.042.605.193 1.2.467 1.742a.835.835 0 0 0 1.49-.754l-.005-.01a3.333 3.333 0 0 1-.342-1.133.81.81 0 0 0-1.61.156zm.467 1.742c.22.436.48.859.811 1.22a.84.84 0 0 0 1.239-1.136 3.936 3.936 0 0 1-.564-.848.835.835 0 0 0-1.486.764zm.811 1.22c.234.254.482.5.764.701a.837.837 0 0 0 .985-1.354 3.718 3.718 0 0 1-.51-.483.84.84 0 1 0-1.239 1.136zm.764.701c.262.188.552.335.85.457a.832.832 0 0 0 .639-1.536 2.42 2.42 0 0 1-.504-.275.837.837 0 0 0-.997 1.345l.012.008zm.85.457c.432.176.904.245 1.365.282a.827.827 0 0 0 .14-1.648c-.289-.025-.597-.057-.866-.17a.832.832 0 0 0-.647 1.533l.008.002zm1.365.282c.449.037.949.063 1.37-.124a.817.817 0 0 0-.621-1.51c.05-.019-.093.006-.113.006a3.908 3.908 0 0 1-.497-.02.827.827 0 0 0-.144 1.648h.005zm1.37-.124c.273-.121.517-.3.718-.521a.803.803 0 0 0-1.167-1.104.48.48 0 0 1-.172.115.816.816 0 1 0 .577 1.528c.015-.005.03-.012.044-.018zm.718-.521c.253-.278.42-.63.567-.973a.79.79 0 0 0-1.445-.64c-.077.167-.158.375-.29.51a.803.803 0 1 0 1.168 1.103zm.567-.973c.23-.534.34-1.117.421-1.69a.777.777 0 0 0-1.536-.229c-.067.43-.147.88-.33 1.279a.79.79 0 1 0 1.437.658l.008-.018zm.421-1.69c.102-.718.128-1.446.097-2.17a.761.761 0 0 0-1.522.052 10.44 10.44 0 0 1-.111 1.89.777.777 0 1 0 1.535.24l.001-.011zm-1.847-3.876c.26.55.406 1.15.422 1.758a.76.76 0 1 0 1.522-.04v-.012a5.916 5.916 0 0 0-.603-2.352.744.744 0 0 0-1.34.647zm-.877-1.332c.378.376.65.854.877 1.332a.744.744 0 1 0 1.346-.637l-.006-.009c-.307-.626-.682-1.235-1.179-1.73a.736.736 0 1 0-1.039 1.044zm-.673-.493c.26.074.488.31.673.493a.736.736 0 1 0 1.038-1.045c-.37-.368-.803-.722-1.316-.862a.734.734 0 0 0-.395 1.413zm-.572-.12c.194.015.386.066.572.12a.734.734 0 1 0 .404-1.41l-.01-.004a3.51 3.51 0 0 0-.905-.145.72.72 0 0 0-.062 1.438zm-.392.03c.129-.028.26-.042.392-.03a.72.72 0 0 0 .117-1.436c-.018-.001-.037-.003-.056-.003-.267 0-.534.042-.79.116a.698.698 0 0 0 .337 1.352zm-1.008 1.29c.217-.326.441-.648.695-.946.107-.127.222-.264.361-.357a.697.697 0 0 0-.378-1.342c-.426.118-.7.502-.893.875-.233.447-.394.932-.54 1.413a.422.422 0 0 0 .755.356z"/><path d="M92.75 177.84c.804-.062 1.61-.105 2.415-.143a.68.68 0 0 0-.064-1.359c-.016 0-.032.003-.048.004-.856.102-1.721.265-2.52.597a.47.47 0 0 0 .216.902zm2.415-.143c.979-.046 1.966-.306 2.784-.858a.484.484 0 0 0-.36-.877c-.84.156-1.687.278-2.537.38a.68.68 0 0 0 .113 1.355z"/></g><path d="M96.87 133.202c.737.06 1.495.107 2.22.272a.743.743 0 1 0 .3-1.454c-.359-.068-.73-.061-1.094-.04-.491.029-.98.094-1.466.17a.53.53 0 0 0 .04 1.052zm2.213.27c.362.086.714.22 1.059.358a.756.756 0 1 0 .56-1.404c-.425-.17-.865-.328-1.318-.408a.743.743 0 0 0-.301 1.454zm1.059.358c.438.175.848.416 1.227.695a.752.752 0 0 0 .898-1.207 6.854 6.854 0 0 0-1.564-.892.756.756 0 1 0-.561 1.404zm1.227.695c.431.318.87.626 1.318.918a.737.737 0 0 0 .823-1.223c-.42-.293-.834-.595-1.243-.902a.752.752 0 1 0-.903 1.203l.005.004zm1.318.918c.21.136.465.286.62.49a.714.714 0 0 0 1.168-.818c-.24-.369-.61-.648-.965-.895a.737.737 0 1 0-.823 1.223zm.62.49c.15.202.311.396.48.583a.7.7 0 0 0 1.046-.928c-.13-.15-.25-.307-.358-.473a.714.714 0 1 0-1.197.779l.028.04zm.48.583c.174.193.301.434.422.662a.689.689 0 0 0 1.227-.627c-.168-.338-.353-.678-.603-.963a.7.7 0 1 0-1.046.929zm.42.66c.379.726.692 1.487.999 2.246a.437.437 0 0 0 .84-.202c-.077-.899-.203-1.854-.611-2.671a.69.69 0 0 0-1.233.616l.005.011zM101.016 123.509c-.015-.151-.03-.325.023-.47a.358.358 0 0 0-.53-.425c-.298.192-.429.55-.466.888a.49.49 0 1 0 .973.007zm-.953 1.033a.56.56 0 1 0 1.1-.21 5.643 5.643 0 0 1-.147-.823.49.49 0 0 0-.973-.007c-.039.345-.026.696.02 1.04zm0 0c.058.439.219.859.426 1.248a.612.612 0 1 0 1.058-.616c-.165-.26-.31-.54-.384-.841a.56.56 0 0 0-1.1.21zm.426 1.248c.221.415.506.797.857 1.112a.667.667 0 1 0 .836-1.035 2.5 2.5 0 0 1-.635-.693.612.612 0 0 0-1.058.616zm.857 1.112c.32.288.687.53 1.098.662a.699.699 0 1 0 .43-1.33c-.002 0-.005 0-.006-.002a2.414 2.414 0 0 1-.685-.365.667.667 0 0 0-.837 1.035zm1.098.662c.378.123.776.17 1.173.164a.707.707 0 1 0-.035-1.413 2.15 2.15 0 0 1-.715-.083.699.699 0 0 0-.423 1.332zm1.173.164c.472-.006.948-.148 1.292-.484a.688.688 0 0 0-.902-1.039c-.116.09-.283.105-.425.11a.707.707 0 0 0 .034 1.413zm1.292-.484c.25-.246.447-.541.58-.866a.65.65 0 0 0-1.185-.535 1.03 1.03 0 0 1-.296.362.689.689 0 1 0 .9 1.039zm.58-.866c.174-.428.206-.912.22-1.37a.598.598 0 0 0-1.192-.092c-.038.305-.075.648-.213.927a.65.65 0 1 0 1.185.535zm.22-1.37c.01-.358.056-.78-.058-1.127a.532.532 0 0 0-1.037.155c-.005.293-.06.59-.097.88a.598.598 0 1 0 1.19.093zm-1.165-.846a.942.942 0 0 1 .098.053.531.531 0 0 0 1.01-.334c-.095-.29-.353-.486-.6-.643a.528.528 0 1 0-.508.924zm-.308-.132c-.05-.004.035.015.048.02.089.032.175.071.26.112a.528.528 0 0 0 .508-.924c-.2-.126-.417-.265-.652-.316a.561.561 0 1 0-.164 1.109zm.368.052c.012-.062.026-.124.042-.185h.001a.561.561 0 0 0-.247-.975c-.302-.064-.577.102-.737.349-.1.155-.168.332-.225.507a.604.604 0 1 0 1.166.304zm-.144.935c.034-.314.084-.625.144-.935a.604.604 0 0 0-1.166-.304 9.909 9.909 0 0 0-.283 1.03.662.662 0 1 0 1.305.21zm-.044 1.763c0-.585-.018-1.18.044-1.763a.662.662 0 0 0-1.305-.21c-.135.63-.153 1.294-.188 1.934a.725.725 0 1 0 1.45.039zm-.622 3.313a.496.496 0 0 0 .805-.503c-.09-.338-.12-.694-.144-1.042a22.933 22.933 0 0 1-.039-1.76.725.725 0 0 0-1.45-.04c-.029.666-.014 1.345.133 1.998.111.49.307 1.007.695 1.347z" fill="#ff7f1a"/><g fill="#55e1ff"><path d="M127.575 185.334c.126-.155.274-.32.46-.402a.385.385 0 0 0-.19-.736c-.363.033-.69.229-.964.46a.487.487 0 1 0 .694.678zm-.587.922c.17-.322.358-.639.587-.922a.487.487 0 0 0-.694-.679c-.342.291-.623.65-.868 1.026a.566.566 0 1 0 .975.575zm-.578 1.534c.151-.523.322-1.051.578-1.534a.567.567 0 0 0-.975-.575c-.347.532-.59 1.129-.801 1.725a.63.63 0 0 0 1.187.42c.004-.013.008-.024.01-.035zm-.403 2.302c.071-.775.187-1.552.403-2.301a.63.63 0 0 0-1.198-.385c-.289.817-.462 1.673-.579 2.53a.691.691 0 0 0 1.37.186l.004-.03zm-.14 2.777c.01-.927.055-1.854.14-2.777a.691.691 0 0 0-1.374-.156c-.131.966-.2 1.942-.21 2.917a.722.722 0 0 0 1.443.016zm-1.26 2.626a.718.718 0 0 0 1.415-.246c-.134-.784-.164-1.585-.156-2.38a.722.722 0 0 0-1.443-.016c-.01.883.03 1.772.185 2.642zm0 0c.117.656.278 1.313.55 1.923a.709.709 0 0 0 1.299-.568c-.219-.509-.342-1.058-.434-1.601a.718.718 0 0 0-1.415.241v.006zm.55 1.923c.187.42.394.838.66 1.215a.69.69 0 0 0 1.15-.758 7.83 7.83 0 0 1-.511-1.025.709.709 0 0 0-1.303.56l.004.008zm.66 1.215c.195.28.407.548.635.801a.667.667 0 0 0 1.006-.875 5.79 5.79 0 0 1-.491-.684.69.69 0 0 0-1.174.724l.023.034zm.635.801c.252.279.694.604 1.087.416a.46.46 0 0 0 .193-.173c.224-.364-.036-.834-.274-1.118a.666.666 0 1 0-1.022.857l.016.018z"/><path d="M124.762 199.16c.138.265.402.454.708.35a.331.331 0 0 0-.04-.638.365.365 0 1 0-.668.288zm-.103-.175.112.191a.365.365 0 0 0 .673-.254l-.043-.218a.403.403 0 1 0-.742.281zm.157.151a.402.402 0 0 0 .343.018l.06-.031a.412.412 0 1 0-.482-.04zm-.212-.272c.01.038.018.077.027.116a.468.468 0 1 0 .673-.52l-.107-.057a.413.413 0 0 0-.593.46zm.027.116c.063.273.313.482.519.654a.565.565 0 1 0 .62-.937c-.156-.078-.312-.157-.466-.238a.468.468 0 0 0-.673.52zm.519.654c.437.367.948.658 1.435.953a.648.648 0 0 0 .67-1.109c-.01-.007-.02-.012-.032-.018-.483-.256-.966-.514-1.454-.763a.565.565 0 0 0-.62.937zm1.435.953c.279.169.56.337.845.494.179.098.365.207.565.255a.683.683 0 0 0 .32-1.326c.05.012-.056-.027-.07-.033a7.226 7.226 0 0 1-.243-.116c-.262-.129-.52-.264-.779-.401a.648.648 0 0 0-.638 1.127zm1.41.75c.4.096.774-.14.935-.5.09-.2.125-.422.148-.638a.674.674 0 0 0-1.338-.161c-.006.036-.01.072-.017.108h-.001a.682.682 0 0 0 .273 1.19zm1.083-1.138c.037-.352.067-.705.071-1.06a.649.649 0 0 0-1.295-.068c-.03.323-.07.645-.114.966a.674.674 0 1 0 1.336.181c0-.006 0-.013.002-.02zm.07-1.051c.008-.292.058-.585.102-.873.086-.56.189-1.117.294-1.674a.41.41 0 0 0-.78-.236c-.227.539-.448 1.081-.637 1.634-.12.348-.243.711-.273 1.08a.649.649 0 1 0 1.294.069zM122.975 208.813c.103.076.198.17.293.256a.528.528 0 0 0 .872-.49c-.024-.123-.057-.262-.067-.381a.69.69 0 1 0-1.098.615zm1.094-.233c.006-.142.022-.293.001-.434a.706.706 0 0 0-.597-.595c-.396-.058-.714.212-.828.567a2.09 2.09 0 0 0-.07.32.752.752 0 1 0 1.494.142zm-.052 1.434.052-1.434a.752.752 0 0 0-1.495-.143l-.22 1.418a.837.837 0 1 0 1.663.159zm-.082 2.442c.026-.814.053-1.628.082-2.442a.837.837 0 0 0-1.663-.159 47.597 47.597 0 0 0-.31 2.475.949.949 0 1 0 1.89.126zm-.013 2.616c-.02-.872-.014-1.744.013-2.616a.949.949 0 0 0-1.892-.126 32.68 32.68 0 0 0-.167 2.747 1.023 1.023 0 1 0 2.046-.005zm-1.783 2.057a1.027 1.027 0 0 0 1.834-.794c-.072-.407-.042-.852-.051-1.263a1.023 1.023 0 0 0-2.046.005c-.006.356-.01.712.004 1.067.014.344.045.699.26.985zm0 0c.375.502 1.125.617 1.589.144.215-.22.303-.511.293-.81a.995.995 0 0 0-.848-.954 1.027 1.027 0 0 0-1.034 1.62zm1.882-.667c-.006-.228-.014-.455-.021-.683a.946.946 0 0 0-1.886-.076l-.076.68a.995.995 0 1 0 1.983.08zm-.021-.683c-.023-.71-.05-1.418-.076-2.127a.84.84 0 0 0-1.677-.01c-.033.687-.056 1.378-.133 2.06a.946.946 0 0 0 1.88.212c.006-.045.007-.09.006-.135zm-.076-2.127c-.026-.694-.069-1.407.006-2.1a.722.722 0 0 0-1.415-.265c-.203.759-.23 1.575-.268 2.355a.84.84 0 1 0 1.676.01zm.006-2.1c.052-.47.245-.927.443-1.352a.692.692 0 1 0-1.255-.585l-.011.023a12.726 12.726 0 0 0-.593 1.649.722.722 0 1 0 1.416.265zm.443-1.352c.218-.467.474-.93.816-1.32a.722.722 0 1 0-1.085-.952c-.004.005-.01.01-.013.015-.42.505-.73 1.093-.984 1.695a.692.692 0 0 0 1.265.562zm.816-1.32c.21-.239.454-.472.748-.602a.76.76 0 1 0-.683-1.356c-.452.257-.833.623-1.163 1.021a.722.722 0 0 0 1.098.937zm.748-.602c.282-.125.6-.154.904-.151a.825.825 0 1 0-.072-1.647c-.526.051-1.053.18-1.515.443a.76.76 0 0 0 .683 1.355zm.904-.151c.189.001.444-.015.617.076a.871.871 0 0 0 .813-1.54c-.455-.24-1.004-.231-1.502-.183a.825.825 0 0 0 .072 1.647zm.581.056c.123.073.22.194.305.307a.879.879 0 0 0 1.41-1.05v-.001c-.234-.313-.52-.594-.867-.777a.871.871 0 0 0-.848 1.521zm.305.307c.116.156.156.364.177.551a.878.878 0 0 0 1.744-.198c-.056-.5-.208-.997-.512-1.404a.88.88 0 1 0-1.41 1.051zm1.724 1.967a3.623 3.623 0 0 0 .197-1.614.877.877 0 1 0-1.744.194v.004c.033.28-.009.563-.104.828a.876.876 0 0 0 1.65.588zm-.792 1.4c.34-.418.61-.892.792-1.4a.876.876 0 1 0-1.651-.588c-.115.321-.286.62-.5.885a.875.875 0 0 0 1.359 1.103zm-1.186 1.04c.455-.271.852-.63 1.186-1.04a.875.875 0 1 0-1.36-1.103 3.99 3.99 0 0 1-.757.728.848.848 0 0 0 .931 1.415zm-1.197.553c.42-.134.82-.327 1.197-.553a.848.848 0 1 0-.932-1.415l-.92.662a.74.74 0 0 0 .655 1.306zm-.928.255c.314-.068.623-.157.928-.255a.74.74 0 1 0-.655-1.306c-.225.161-.455.317-.695.454a.6.6 0 0 0 .422 1.107zm-.606.109a6.05 6.05 0 0 0 .607-.109.6.6 0 1 0-.423-1.107c-.101.057-.22.135-.337.156a.536.536 0 0 0 .153 1.06zm-.216.024.216-.024a.535.535 0 1 0-.153-1.06l-.215.039a.528.528 0 0 0 .152 1.045zm-.602-.536c-.002.1.024.2.076.286a.568.568 0 0 0 .362.254.553.553 0 1 0-.19-.985.578.578 0 0 0-.23.316.564.564 0 0 0-.018.129zm.438.54.355.088a.723.723 0 1 0-.25-1.287l-.296.214a.553.553 0 0 0 .19.985zm.355.088c.13.033.252.143.352.225a.9.9 0 1 0 1.045-1.46c-.492-.306-1.15-.41-1.646-.052a.723.723 0 0 0 .249 1.287zm.352.225c.144.117.261.274.377.417.25.312.481.637.71.965a1.03 1.03 0 1 0 1.609-1.28c-.497-.548-1.016-1.167-1.65-1.562a.9.9 0 0 0-1.046 1.46zm1.099 1.4c.987 1.357 2.378 2.401 3.985 2.901a.733.733 0 0 0 .668-1.277 21.735 21.735 0 0 1-3.042-2.905 1.03 1.03 0 0 0-1.611 1.28zM136.268 207.8c.328.124.696.255.97.483a.412.412 0 0 0 .527-.634c-.34-.283-.756-.48-1.155-.664a.443.443 0 0 0-.371.803l.03.012zm-.91-.093c.307-.027.626-.007.919.096a.442.442 0 0 0 .341-.814 8.264 8.264 0 0 0-1.132-.445.596.596 0 1 0-.129 1.163zm-1.013.257a3.344 3.344 0 0 1 1.012-.257.596.596 0 0 0 .129-1.163 2.997 2.997 0 0 0-1.63-.04.772.772 0 1 0 .489 1.46zm-.73.603c.192-.255.433-.477.73-.603a.772.772 0 0 0-.489-1.46c-.614.154-1.15.518-1.563.992a.852.852 0 1 0 1.323 1.071zm-.475.95c.089-.346.262-.665.476-.95a.852.852 0 0 0-1.323-1.071 4.65 4.65 0 0 0-.892 1.49.91.91 0 1 0 1.739.532zm-.117.754c-.015-.25.055-.513.117-.753a.91.91 0 0 0-1.739-.531c-.152.427-.279.878-.28 1.335a.952.952 0 1 0 1.902-.05zm-1.366 1.354a.968.968 0 0 0 1.365-1.368.951.951 0 0 0-1.901.065c-.002.488.165.973.536 1.303zm0 0c.26.232.574.395.906.498a.976.976 0 0 0 .58-1.865c-.006 0-.012-.004-.017-.005a.574.574 0 0 1-.207-.095.968.968 0 0 0-1.262 1.467zm.906.498c.488.151 1.008.218 1.511.296a.98.98 0 0 0 .299-1.936c-.414-.064-.844-.112-1.247-.23a.976.976 0 0 0-.563 1.87zm1.511.296a8.364 8.364 0 0 1 1.68.426.966.966 0 0 0 .71-1.796 9.126 9.126 0 0 0-2.091-.566.98.98 0 1 0-.3 1.936h.001zm1.681.426c.377.143.708.38.953.702a.952.952 0 0 0 1.514-1.154 4.24 4.24 0 0 0-1.757-1.344.966.966 0 1 0-.737 1.785l.027.011zm.953.702c.261.343.44.74.525 1.164a.961.961 0 1 0 1.882-.393 4.922 4.922 0 0 0-.893-1.925.952.952 0 0 0-1.514 1.154zm.525 1.164c.084.425.127.863.083 1.294a.97.97 0 0 0 1.931.196 5.992 5.992 0 0 0-.133-1.883.961.961 0 0 0-1.881.393zm1.377 3.144c.39-.464.577-1.059.637-1.654a.97.97 0 0 0-1.93-.196c-.023.22-.064.472-.201.653a.957.957 0 0 0 1.494 1.197zm-1.291.802c.514-.099.957-.406 1.29-.802a.957.957 0 1 0-1.464-1.233l-.03.036c-.07.094-.16.202-.275.243a.913.913 0 0 0 .479 1.756zm-1.251-.179c.369.243.828.26 1.25.18a.913.913 0 1 0-.478-1.757.978.978 0 0 1-.156.044.843.843 0 0 0-.616 1.533zm-.593-1.477c.028.533.107 1.157.593 1.477a.843.843 0 0 0 .974-1.375 2.033 2.033 0 0 1-.072-.285.755.755 0 0 0-1.495.183zm0 0a.755.755 0 1 0 1.494-.183c-.037-.191-.103-.468-.017-.658a.623.623 0 0 0-.995-.708c-.417.394-.51 1.002-.482 1.55zm1.477-.84c-.022.05.108-.125.133-.152a9.03 9.03 0 0 1 .446-.452 44.718 44.718 0 0 1 1.748-1.566.665.665 0 1 0-.908-.97c-.8.813-1.585 1.648-2.414 2.431a.623.623 0 1 0 .995.708zm2.327-2.17c.57-.49 1.14-.98 1.719-1.46.161-.133.323-.266.489-.394.036-.028.256-.162.12-.103a.819.819 0 1 0-.825-1.4c-.276.21-.515.479-.76.723a218.38 218.38 0 0 0-1.651 1.664.665.665 0 0 0 .907.97zm1.394-2.156a.892.892 0 1 0 1.768-.207c-.05-.28-.129-.565-.302-.795a.963.963 0 0 0-1.357-.2.819.819 0 0 0-.11 1.202zm1.944 2.3c-.024-.831-.03-1.686-.176-2.507a.892.892 0 0 0-1.77.19c.03.774.005 1.552-.01 2.326a.979.979 0 1 0 1.957-.01zm-1.787 2.645a1.036 1.036 0 1 0 1.994-.566l-.014-.046c-.07-.207-.088-.436-.11-.651-.049-.46-.07-.921-.083-1.382a.979.979 0 0 0-1.957.009c-.017.859-.068 1.8.17 2.636zm0 0c.145.51.389.993.748 1.386a1.065 1.065 0 1 0 1.53-1.483 1.27 1.27 0 0 1-.298-.515 1.036 1.036 0 0 0-1.98.612zm.748 1.386c.361.395.827.685 1.348.816a1.08 1.08 0 0 0 .529-2.095.775.775 0 0 1-.348-.204 1.065 1.065 0 0 0-1.53 1.483zm1.348.816c.54.137 1.11.083 1.631-.107a1.068 1.068 0 0 0-.687-2.022.767.767 0 0 1-.415.034 1.08 1.08 0 0 0-.53 2.095zm1.624-.105c1.112-.396 1.645-1.663 1.976-2.699a.634.634 0 0 0-1.064-.63 9.304 9.304 0 0 1-1.037.967c-.169.13-.356.274-.562.34a1.068 1.068 0 1 0 .657 2.033l.03-.01zM142.508 207.093c.064.309.184.666.394.908a.503.503 0 0 0 .797-.609.5.5 0 0 1-.074-.344.566.566 0 1 0-1.116.045zm.001.007a.566.566 0 0 0 1.099.032l.037-.01a.443.443 0 0 0 .127-.812c-.232-.137-.508-.211-.773-.125-.384.126-.573.533-.49.915zM147.108 211.253a.421.421 0 0 0 .843-.004c-.002-.218-.002-.436-.003-.655a.421.421 0 0 0-.843.004l.003.655zm.832-.766a.46.46 0 0 0-.216-.268.422.422 0 0 0-.59.218.539.539 0 0 0-.032.162.432.432 0 1 0 .838-.112zm.337.955-.337-.955a.432.432 0 0 0-.838.112l-.075 1.009a.644.644 0 1 0 1.25-.166zm-1.225 3.436a.939.939 0 0 0 1.876-.083c-.001-.026-.004-.053-.007-.079-.14-1.091-.276-2.23-.644-3.274a.644.644 0 0 0-1.25.166c-.08 1.085-.022 2.185.026 3.27zm0 0c.041.926.052 1.866.166 2.787a1.032 1.032 0 1 0 2.049-.253c-.111-.9-.23-1.797-.346-2.696a.939.939 0 0 0-1.869.162zm.166 2.787c.015.123.032.247.055.37.077.397.303.747.712.885a1.022 1.022 0 0 0 .844-.083 1.044 1.044 0 0 0 .464-1.222c-.01-.068-.018-.135-.026-.203a1.032 1.032 0 0 0-2.049.253zm2.123.36.045-.504a.964.964 0 0 0-1.877-.383l-.156.48a1.02 1.02 0 1 0 1.988.407zm.045-.504c.042-.47.088-.942.133-1.412a.811.811 0 0 0-1.58-.322c-.142.45-.284.902-.43 1.35a.964.964 0 1 0 1.877.385zm.133-1.412c.065-.672.22-1.333.428-1.973a.698.698 0 0 0-1.324-.44c-.235.694-.464 1.391-.685 2.091a.811.811 0 1 0 1.581.322zm.428-1.973c.196-.598.408-1.195.677-1.764a.691.691 0 1 0-1.251-.589 18.21 18.21 0 0 0-.75 1.912.698.698 0 0 0 1.322.448c0-.003.001-.005.003-.008zm.677-1.764c.169-.36.406-.693.719-.942a.748.748 0 1 0-1.016-1.091c-.393.427-.708.92-.954 1.444a.691.691 0 0 0 1.25.589zm.719-.942a.868.868 0 0 1 .247-.15c.062-.022-.046-.019.081.011a.86.86 0 1 0 .295-1.69c-.647-.071-1.216.277-1.64.737a.748.748 0 0 0 1.017 1.092zm.239-.165c.15.054.268.296.338.42a.953.953 0 1 0 1.606-1.021c-.371-.525-.897-.99-1.56-1.063a.86.86 0 0 0-.384 1.664zm.338.42c.219.383.376.797.482 1.225a1.038 1.038 0 1 0 1.98-.617 7.254 7.254 0 0 0-.856-1.63.952.952 0 0 0-1.606 1.022zm.482 1.225c.12.48.201.97.243 1.464a1.099 1.099 0 0 0 2.19-.188c-.001-.01-.003-.02-.003-.031a7.8 7.8 0 0 0-.45-1.862 1.038 1.038 0 0 0-1.98.617zm.244 1.468c.13 1.448.526 2.887.887 4.29a.726.726 0 0 0 1.43-.179c.003-1.438.027-2.898-.13-4.33a1.099 1.099 0 0 0-2.187.22zM158.348 207.92c.033.07.063.143.094.214a.522.522 0 0 0 .988-.324c-.017-.076-.036-.152-.051-.229a.547.547 0 1 0-1.031.339zm1.061-.056a4.613 4.613 0 0 0-.02-.195.548.548 0 0 0-.214-.418.548.548 0 0 0-.395-.111c-.282.03-.446.247-.496.5a3.603 3.603 0 0 0-.033.202.584.584 0 1 0 1.158.022zm.14 1.34-.14-1.34a.584.584 0 0 0-1.158-.022l-.19 1.333a.75.75 0 1 0 1.488.03zm-1.562 2.09a.925.925 0 1 0 1.827-.28 18.695 18.695 0 0 1-.266-1.81.75.75 0 0 0-1.488-.029c-.1.7-.145 1.414-.073 2.118zm0 0c.057.558.165 1.128.413 1.636a.99.99 0 1 0 1.739-.941c-.175-.293-.258-.644-.325-.975a.925.925 0 0 0-1.827.28zm.413 1.636c.172.354.375.698.64.991a1.03 1.03 0 1 0 1.463-1.444 2.167 2.167 0 0 1-.364-.488.99.99 0 0 0-1.739.941zm.64.991c.22.244.47.46.748.633a1.06 1.06 0 1 0 1.041-1.843 1.479 1.479 0 0 1-.326-.234 1.03 1.03 0 0 0-1.464 1.444zm.748.633c.268.166.558.295.859.386a1.073 1.073 0 0 0 .619-2.054 2.626 2.626 0 0 1-.437-.175 1.06 1.06 0 0 0-1.04 1.843zm.859.386c.408.123.842.16 1.265.19a1.07 1.07 0 0 0 .162-2.132c-.266-.021-.55-.035-.808-.113a1.073 1.073 0 0 0-.619 2.055zm1.264.19c.477.035.963.039 1.434-.053a1.035 1.035 0 0 0-.258-2.05 7.266 7.266 0 0 1-1.013-.029 1.07 1.07 0 0 0-.173 2.132h.01zm1.433-.053c.472-.09.912-.301 1.31-.567a.96.96 0 0 0-.942-1.668c-.195.092-.407.173-.625.185a1.035 1.035 0 1 0 .257 2.05zm1.31-.567a4.831 4.831 0 0 0 1.048-.944.875.875 0 0 0-1.265-1.202 2.898 2.898 0 0 1-.725.478.96.96 0 1 0 .941 1.668zm1.048-.944c.247-.3.475-.623.63-.98a.782.782 0 0 0-1.323-.807 5.658 5.658 0 0 1-.572.585.875.875 0 1 0 1.265 1.202zm.63-.98c.133-.309.246-.627.351-.946a.725.725 0 0 0-1.374-.465c-.072.209-.158.431-.3.604a.782.782 0 1 0 1.323.807zm.351-.946c.176-.53.238-1.099.273-1.654a.721.721 0 1 0-1.44-.092c-.027.427-.066.873-.207 1.28a.725.725 0 0 0 1.371.475l.003-.01zm.273-1.654c.03-.473.078-.982-.022-1.45a.695.695 0 0 0-1.374.178c.018.391-.02.79-.044 1.18a.721.721 0 1 0 1.44.092zm-1.43-1.297c.023.016.034.024.036.052a.695.695 0 1 0 1.371-.205 2.02 2.02 0 0 0-.452-.89.712.712 0 1 0-.955 1.043zm-.265-.022c.075-.008.198-.027.265.022a.712.712 0 0 0 .955-1.042c-.317-.37-.79-.54-1.268-.564a.794.794 0 1 0 .048 1.583zm-.217.172c.052-.077.119-.162.217-.172a.795.795 0 0 0-.048-1.584c-.596-.029-1.145.242-1.54.68a.874.874 0 1 0 1.371 1.076zm-.394.842c.091-.297.22-.584.394-.842a.874.874 0 0 0-1.37-1.077 4.108 4.108 0 0 0-.79 1.32.933.933 0 1 0 1.766.6zm-.215.932c.041-.316.122-.627.215-.932a.933.933 0 0 0-1.766-.6c-.15.402-.278.815-.353 1.237a.964.964 0 1 0 1.904.295zm-.028 1.973c-.01-.648-.057-1.327.028-1.973a.964.964 0 0 0-1.904-.295c-.132.736-.131 1.505-.157 2.249a1.017 1.017 0 1 0 2.033.02zm-1.902 3.856a1.067 1.067 0 1 0 2.125-.187l-.001-.008a46.527 46.527 0 0 1-.222-3.661 1.017 1.017 0 0 0-2.033-.02c-.046 1.293.018 2.588.13 3.876zm0 0a11.898 11.898 0 0 0 1.211 4.31.692.692 0 0 0 1.308-.378c-.133-1.375-.264-2.751-.395-4.127a1.067 1.067 0 0 0-2.124.195zM145.281 93.056c.129-.091.289-.101.445-.112a.698.698 0 0 0 .183-1.354c-.432-.152-.908-.27-1.364-.163a.91.91 0 1 0 .736 1.63zm.126-.054c.02-.045.016-.07.04-.097a.911.911 0 0 0-.793-1.496 1.616 1.616 0 0 0-.885.376 1.045 1.045 0 1 0 1.638 1.217zm.067-.064c.001-.376-.035.013-.003-.128a1.045 1.045 0 0 0-1.703-1.025 1.96 1.96 0 0 0-.497.676 1.152 1.152 0 1 0 2.202.477zm.022-.012a.64.64 0 0 1-.03-.133 1.152 1.152 0 0 0-2.194-.333c-.111.246-.179.51-.2.78a1.25 1.25 0 1 0 2.424-.314zm-1.766 1.78a1.293 1.293 0 0 0 1.703-1.94c-.164-.163-.047-.037-.015.01.02.028.086.157.04.055a1.25 1.25 0 0 0-2.387.41 1.69 1.69 0 0 0 .66 1.465zm0 0c.32.246.707.386 1.106.428a1.293 1.293 0 0 0 .43-2.546c-.284-.066-.15-.03-.094-.009.041.016.16.08.005-.012a1.293 1.293 0 0 0-1.446 2.138zm1.106.428c.34.035.684.008 1.014-.082a1.283 1.283 0 0 0-.582-2.498.507.507 0 0 1-.162.007 1.293 1.293 0 0 0-.27 2.572zm1.014-.082a2.45 2.45 0 0 0 .945-.49 1.25 1.25 0 0 0-1.417-2.044.372.372 0 0 1-.11.036 1.283 1.283 0 0 0 .492 2.519c.03-.005.06-.013.09-.02zm.945-.49c.247-.21.463-.463.584-.767a1.211 1.211 0 0 0-2.015-1.27h.002a1.25 1.25 0 1 0 1.43 2.037zm.583-.767c.101-.253.135-.527.138-.798a1.184 1.184 0 0 0-2.334-.298l-.055.201a1.211 1.211 0 0 0 2.251.895zm-2.223-.674a1.184 1.184 0 0 0 2.36-.124 1.815 1.815 0 0 0-.421-1.185 1.176 1.176 0 0 0-1.939 1.31zm.11.201c.02.01.045.023.06.04a1.176 1.176 0 0 0 1.769-1.55 2.695 2.695 0 0 0-.662-.563 1.19 1.19 0 1 0-1.167 2.073zm-.147-.02c.046.009.103-.003.147.02a1.19 1.19 0 0 0 1.167-2.073 2.48 2.48 0 0 0-.913-.336 1.212 1.212 0 0 0-.401 2.39zm-.103.022c.084-.009.17-.008.254-.004a1.212 1.212 0 0 0 .25-2.407 4.407 4.407 0 0 0-.63-.054 1.236 1.236 0 1 0 .126 2.464zm.035.02c.293-.148-.192.03.124-.048a1.236 1.236 0 0 0-.284-2.437 2.229 2.229 0 0 0-.923.193 1.267 1.267 0 1 0 1.083 2.291zm.39-.305a1.267 1.267 0 0 0-1.473-1.987c-.496.221-.842.67-.988 1.187a1.295 1.295 0 0 0 2.46.799zm-2.585.04a1.306 1.306 0 1 0 2.613-.035l-.001-.035c-.001-.017.015-.108.024-.146a1.295 1.295 0 0 0-2.512-.624 2.965 2.965 0 0 0-.124.84zm0 0c.004.28.052.561.164.82a1.31 1.31 0 0 0 2.455-.895c-.045-.153-.008.007-.008.005a1.306 1.306 0 0 0-2.61.07zm.164.82c.105.243.264.461.45.65a1.31 1.31 0 0 0 1.864-1.842l-.003-.003c.021.022.088.128.015.006a1.31 1.31 0 0 0-2.327 1.188zm.45.65c.218.22.482.388.768.503a1.31 1.31 0 0 0 1.126-2.36c-.366-.204.084.092-.153-.095a1.31 1.31 0 0 0-1.74 1.952zm.768.503c.26.104.535.166.814.184a1.308 1.308 0 0 0 .191-2.608.086.086 0 0 1-.028-.007 1.31 1.31 0 0 0-.977 2.431zm.814.184c.38.023.764-.062 1.098-.247a1.292 1.292 0 0 0-.95-2.38c-.207.053-.077.024-.027.02.015-.002.083 0 .039-.003a1.308 1.308 0 0 0-.16 2.61zm1.098-.247c.32-.177.587-.44.767-.758a1.26 1.26 0 0 0-1.944-1.554c-.21.192.196-.098-.076.052a1.292 1.292 0 0 0 1.253 2.26zm.767-.758c.135-.239.23-.501.271-.773a1.22 1.22 0 0 0-2.278-.772l-.1.171a1.26 1.26 0 1 0 2.107 1.374zm.271-.773c.032-.206.043-.416.024-.624a1.182 1.182 0 0 0-2.345-.075.417.417 0 0 1-.022.066 1.22 1.22 0 1 0 2.343.633zm-2.21.015a1.182 1.182 0 0 0 2.234-.639c-.048-.505-.374-.896-.768-1.184a1.171 1.171 0 0 0-1.467 1.823zm-.073.002a.613.613 0 0 1 .197.094 1.171 1.171 0 0 0 1.342-1.92 3.226 3.226 0 0 0-.904-.471 1.193 1.193 0 1 0-.635 2.297zm-.253-.043c.085.003.171.025.253.043a1.193 1.193 0 0 0 .635-2.297 3.309 3.309 0 0 0-.761-.166 1.212 1.212 0 1 0-.127 2.42zm.054.004c.181-.055-.186.006.034-.005a1.212 1.212 0 0 0 .039-2.42 2.738 2.738 0 0 0-.614.017 1.238 1.238 0 1 0 .541 2.408zm.407-.212a1.238 1.238 0 0 0-.948-2.196 1.607 1.607 0 0 0-1.067.645 1.271 1.271 0 0 0 2.014 1.55zm.217-.26a.996.996 0 0 1 .032-.235 1.271 1.271 0 0 0-2.264-1.056c-.236.328-.318.731-.357 1.125a1.298 1.298 0 1 0 2.588.167zm-2.552.837a1.314 1.314 0 1 0 2.549-.639l-.01-.039c.002.012.017.106.014.052a2.613 2.613 0 0 1-.002-.21 1.298 1.298 0 0 0-2.589-.167c-.033.333-.045.676.037 1.003zm0 0c.08.318.241.61.447.864a1.317 1.317 0 0 0 2.045-1.66v-.001c-.023-.028.068.157.007 0a1.314 1.314 0 0 0-2.5.797zm.447.863c.183.226.4.424.643.585a1.319 1.319 0 1 0 1.458-2.199l-.019-.012a.163.163 0 0 1-.038-.034 1.317 1.317 0 0 0-2.044 1.66zm.643.585c.272.18.579.306.898.377a1.318 1.318 0 0 0 .605-2.565c-.02-.006-.045-.01-.064-.023a1.319 1.319 0 0 0-1.44 2.21zm.898.377c.277.062.564.096.848.064a1.297 1.297 0 0 0 .015-2.575c-.087-.01-.173-.033-.258-.054a1.318 1.318 0 1 0-.605 2.565zm.848.064c.295-.032.58-.132.83-.29a1.265 1.265 0 0 0-.997-2.294 1.296 1.296 0 1 0 .167 2.584zm.83-.29c.295-.186.525-.458.678-.77a1.245 1.245 0 0 0-2.089-1.327v-.001a1.265 1.265 0 0 0 1.411 2.098zm.678-.77c.103-.209.18-.43.232-.657a1.224 1.224 0 0 0-2.348-.683.859.859 0 0 1-.07.154 1.245 1.245 0 1 0 2.186 1.186zm.232-.658c.05-.214.078-.433.084-.652a1.205 1.205 0 0 0-2.403-.154.52.52 0 0 1-.029.124 1.224 1.224 0 1 0 2.348.682zm-2.313-.83c-.01-.048-.004.001-.006.024a1.205 1.205 0 1 0 2.402.153 2.843 2.843 0 0 0-.044-.614 1.196 1.196 0 0 0-2.352.437zm.096.3a1.196 1.196 0 0 0 2.257-.737c-.076-.391-.308-.722-.587-.996a1.195 1.195 0 0 0-1.774 1.596zm-.082-.076c.038.018.051.024.078.051a1.196 1.196 0 0 0 1.674-1.708 2.379 2.379 0 0 0-.813-.547 1.199 1.199 0 0 0-.94 2.204zm-.566-.111c.233.046.473.088.698.165a1.2 1.2 0 0 0 .8-2.26c-.49-.182-1.03-.057-1.438.253a2.483 2.483 0 0 0-.569.634.792.792 0 0 0 .509 1.208zM84.056 42.47c.1-.017.22-.03.326-.045a.365.365 0 0 0-.017-.725c-.106-.009-.233-.017-.328-.03a.405.405 0 1 0 .02.801zm-.485-.35a.429.429 0 0 0 .272.345.417.417 0 1 0 .146-.803.438.438 0 0 0-.285.108.41.41 0 0 0-.133.35zm.272.345.344.143a.497.497 0 1 0 .175-.957l-.372.012a.417.417 0 0 0-.147.803zm.344.143c.332.137.687.219 1.036.295a.638.638 0 1 0 .138-1.262c-.333 0-.666 0-1 .01a.497.497 0 0 0-.174.957zm1.036.295c.333.073.665.147.996.227a.735.735 0 1 0 .246-1.445 11.419 11.419 0 0 0-1.104-.044.638.638 0 0 0-.138 1.262zm.996.227c.273.066.544.141.814.22a.772.772 0 0 0 .433-1.481l-.03-.008a6.788 6.788 0 0 0-.971-.176.735.735 0 0 0-.246 1.445zm.814.22c.21.062.421.132.614.237a.781.781 0 1 0 .746-1.373c-.3-.163-.627-.27-.956-.353a.772.772 0 0 0-.404 1.489zm.614.237.047.027-.001.001a.779.779 0 0 0 1.435-.592c-.116-.364-.407-.63-.735-.81a.781.781 0 1 0-.746 1.374zm.415 1.419c.265-.284.529-.573.759-.886.232-.316.434-.693.306-1.097a.779.779 0 0 0-1.51.11c-.196.297-.447.562-.687.822a.772.772 0 0 0 1.132 1.051zm-1.477 1.562c.498-.515.988-1.038 1.477-1.562a.772.772 0 0 0-1.129-1.054l-.003.003c-.484.524-.968 1.05-1.448 1.579a.756.756 0 0 0 1.103 1.033zm-.717.744c.237-.25.477-.497.717-.744a.756.756 0 0 0-1.085-1.052l-.018.019c-.247.272-.498.545-.72.839a.726.726 0 0 0 1.106.938zm-.38.453c.119-.157.244-.31.38-.453a.726.726 0 1 0-1.106-.938 9.57 9.57 0 0 0-.413.596.695.695 0 0 0 1.139.795zm-.262.454c.066-.162.156-.314.262-.454a.695.695 0 1 0-1.14-.795c-.152.237-.282.49-.382.753a.677.677 0 0 0 1.26.496zm-1.422.326a.68.68 0 1 0 1.36-.054.63.63 0 0 1 .062-.272.677.677 0 0 0-1.254-.512l-.006.016c-.1.262-.165.54-.162.822zm0 0c.004.358.16.692.404.95a.695.695 0 0 0 1.011-.952l-.02-.021c-.047-.045-.035-.033-.04-.076a.68.68 0 0 0-1.355.099zm.404.95c.245.26.568.431.909.528a.713.713 0 1 0 .348-1.382.548.548 0 0 1-.267-.12.694.694 0 0 0-.99.975zm.909.528c.331.095.675.142 1.019.163a.732.732 0 1 0 .064-1.463 3.919 3.919 0 0 1-.735-.082.713.713 0 0 0-.348 1.382zm1.019.163c.325.019.652.03.978.032a.74.74 0 1 0 .007-1.48 36.594 36.594 0 0 1-.921-.015.732.732 0 0 0-.064 1.463zm.978.032c.273.001.547-.003.82-.019a.732.732 0 0 0-.052-1.463c-.254.003-.507.003-.761.002a.74.74 0 0 0-.007 1.48zm.814-.018c.475-.025 1.064-.25 1.21-.753a.462.462 0 0 0-.229-.539c-.309-.16-.693-.178-1.033-.171a.732.732 0 1 0 .052 1.463z"/><path d="M83.176 45.95c.199.098.42.153.634.204a.383.383 0 1 0 .09-.755c-.13 0-.307.012-.428-.048a.334.334 0 0 0-.296.6zm.634.204c.347.084.701.142 1.055.194a.505.505 0 1 0 .028-1.003c-.33.029-.662.053-.994.054a.383.383 0 0 0-.089.756zm1.055.194c.307.045.614.09.92.138a.61.61 0 1 0 .192-1.205c-.04-.006-.08-.009-.12-.006-.322.013-.643.041-.964.07a.506.506 0 0 0-.028 1.003zm.938.14c.838.109 1.697.112 2.54.146a.434.434 0 0 0 .122-.854c-.54-.134-1.08-.265-1.625-.374-.315-.063-.642-.136-.965-.132a.61.61 0 0 0-.072 1.215z"/></g></svg>