<svg width="271.83" height="251.78" xmlns="http://www.w3.org/2000/svg"><g fill="none" stroke-miterlimit="10" paint-order="fill stroke markers"><g stroke="#000"><path d="M135.5.354v251.43" stroke-width=".532"/><path d="m135.5.354-4 4M135.5.354l4 4"/><path d="M0 172.81h271.47" stroke-width=".42"/><path d="m271.47 172.81-4-4M271.47 172.81l-4 4"/></g><path d="M175.85 172.66c0 22.155-17.96 40.114-40.114 40.114-22.155 0-40.114-17.96-40.114-40.114 0-22.155 17.96-40.114 40.114-40.114 22.155 0 40.114 17.96 40.114 40.114z" stroke="#616161" stroke-linecap="round" stroke-linejoin="round" stroke-opacity=".8" stroke-width="2.5"/><path d="M29 30.658v0l1 2.648v0l1 2.624v0l1 2.598v0l1 2.574v0l1 2.548v0l1 2.524v0l1 2.499v0l1 2.474v0l1 2.449v0l1 2.424v0l1 2.398v0l1 2.375v0l1 2.349v0l1 2.324v0l1 2.3v0l1 2.274v0l1 2.25v0l1 2.224v0l1 2.2v0l1 2.174v0l1 2.15v0l1 2.125v0l1 2.1v0l1 2.075v0l1 2.05v0l1 2.025v0l1 2v0l1 1.975v0l1 1.95v0l1 1.926v0l1 1.9v0l1 1.876v0l1 1.85v0l1 1.826v0l1 1.8v0l1 1.777v0l1 1.75v0l1 1.727v0l1 1.7v0l1 1.677v0l1 1.65v0l1 1.627v0l1 1.601v0l1 1.577v0l1 1.551v0l1 1.527v0l1 1.501v0l1 1.477v0l1 1.452v0l1 1.427v0l1 1.402v0l1 1.377v0l1 1.352v0l1 1.327v0l1 1.302v0l1 1.277v0l1 1.252v0l1 1.228v0l1 1.202v0l1 1.178v0l1 1.152v0l1 1.128v0l1 1.103v0l1 1.078v0l1 1.053v0l1 1.028v0l1 1.003v0l1 .978v0l1 .953v0l1 .928v0l1 .904v0l1 .878v0l1 .853v0l1 .829v0l1 .804v0l1 .778v0l1 .754v0l1 .729v0l1 .704v0l1 .679v0l1 .654v0l1 .629v0l1 .604v0l1 .58v0l1 .554v0l1 .529v0l1 .504v0l1 .48v0l1 .454v0l1 .43v0l1 .405v0l1 .38v0l1 .355v0l1 .33v0l1 .305v0l1 .28v0l1 .255v0l1 .23v0l1 .205v0l1 .18v0l1 .156v0l1 .13v0l1 .106v0l1 .081v0l1 .056v0l1 .03v0l1 .008v-.001l1-.02v0l1-.043v0l1-.07v0l1-.093v0l1-.119v0l1-.143v0l1-.169v0l1-.194v0l1-.218v0l1-.243v0l1-.269v0l1-.293v0l1-.318v0l1-.343v0l1-.368v0l1-.393v0l1-.418v0l1-.443v0l1-.468v0l1-.492v0l1-.518v0l1-.543v0l1-.567v0l1-.592v0l1-.618v0l1-.642v0l1-.667v0l1-.692v0l1-.717v0l1-.742v0l1-.767v0l1-.792v0l1-.817v0l1-.842v0l1-.866v0l1-.892v0l1-.916v0l1-.942v0l1-.966v0l1-.991v0l1-1.016v0l1-1.042v0l1-1.066v0l1-1.09v0l1-1.116v0l1-1.141v0l1-1.166v0l1-1.19v0l1-1.216v0l1-1.24v0l1-1.266v0l1-1.29v0l1-1.316v0l1-1.34v0l1-1.366v0l1-1.39v0l1-1.415v0l1-1.44v0l1-1.465v0l1-1.49v0l1-1.514v0l1-1.54v0l1-1.564v0l1-1.59v0l1-1.614v0l1-1.64v0l1-1.664v0l1-1.69v0l1-1.714v0l1-1.739v0l1-1.764v0l1-1.789v0l1-1.814v0l1-1.838v0l1-1.864v0l1-1.889v0l1-1.914v0l1-1.938v0l1-1.964v0l1-1.988v0l1-2.013v0l1-2.039v0l1-2.063v0l1-2.088v0l1-2.113v0l1-2.138v0l1-2.163v0l1-2.188v0l1-2.212v0l1-2.238v0l1-2.263v0l1-2.287v0l1-2.313v0l1-2.337v0l1-2.362v0l1-2.388v0l1-2.412v0l1-2.437v0l1-2.462v0l1-2.487v0l1-2.512v0l1-2.537v0l1-2.562v0l1-2.586v0l1-2.612v0l1-2.637v0" stroke="#2e7d32" stroke-linecap="round" stroke-linejoin="round" stroke-opacity=".698" stroke-width="2.5"/></g><path d="M140.74 172.66a5 5 0 1 1-10 0 5 5 0 0 1 10 0z" fill="#1565c0" paint-order="stroke fill markers"/><path d="M140.74 172.66a5 5 0 1 1-10 0 5 5 0 0 1 10 0z" fill="none" stroke="#000" stroke-linecap="round" stroke-linejoin="round" stroke-miterlimit="10" paint-order="fill stroke markers"/><text x="140" y="162.314" dominant-baseline="alphabetic" fill="#1565c0" font-family="geogebra-sans-serif, sans-serif" font-size="16" text-decoration="normal">A</text></svg>