<svg width="360.67" height="248.72" xml:space="preserve" xmlns="http://www.w3.org/2000/svg"><path d="M166.68 5.457v242.6M.65 132.927h353.83" fill="none" stroke="#000" stroke-linecap="round" stroke-linejoin="round" stroke-miterlimit="10" stroke-width="1.323"/><path d="M165.843 6.964c.008.12.008.242.008.363a.284.284 0 0 0 .566.031c.022-.2.047-.403.042-.604-.003-.12-.03-.24-.12-.326-.175-.165-.433-.095-.557.088a.34.34 0 0 0 .061.448zm.17.637.357-.749a.34.34 0 0 0-.583-.343l-.482.675a.412.412 0 1 0 .708.417zm-.477 1.496c.115-.508.252-1.023.477-1.496a.412.412 0 0 0-.708-.417c-.353.495-.571 1.081-.742 1.66a.503.503 0 1 0 .965.284l.008-.03zm-.24 1.058.24-1.058a.503.503 0 0 0-.973-.253l-.306 1.041a.537.537 0 0 0 1.031.303c.003-.01.007-.022.008-.033zm-.978.206a.538.538 0 0 0 .792.118.605.605 0 0 0 .187-.297.538.538 0 0 0-1.003-.388.532.532 0 0 0-.037.091.547.547 0 0 0 .06.476zm.979-.179.448-1.389a.525.525 0 0 0-.996-.331l-.474 1.38a.539.539 0 1 0 1.021.34zm.448-1.389c.247-.765.507-1.527.796-2.278a.489.489 0 0 0-.904-.37c-.33.758-.62 1.534-.888 2.317a.525.525 0 1 0 .995.331zm.796-2.278c.184-.48.38-.972.663-1.403a.49.49 0 1 0-.838-.504 19.233 19.233 0 0 0-.73 1.537.489.489 0 1 0 .905.37zm.663-1.403a1.16 1.16 0 0 1 .25-.3v.001a.54.54 0 1 0-.264-1.043c-.39.12-.638.497-.824.838a.49.49 0 0 0 .838.504zm-.135-.368c.277.514.429 1.113.596 1.669a.61.61 0 1 0 1.168-.352l-.008-.025c-.183-.522-.37-1.049-.618-1.544-.191-.381-.508-.879-1.016-.722a.539.539 0 0 0-.122.975zm.598 1.673c.535 1.73 1.378 3.545 2.88 4.641a.426.426 0 0 0 .572-.626c-1.096-1.244-1.763-2.84-2.293-4.392a.61.61 0 0 0-1.16.377zm-15.357-6c.011.155.017.322.024.48a.354.354 0 0 0 .708 0l.025-.485a.379.379 0 1 0-.757.005zm.76-.065a.382.382 0 0 0-.629-.253.398.398 0 0 0-.134.281.384.384 0 1 0 .763-.028zm.093.613-.094-.613a.384.384 0 0 0-.762.028l-.048.618a.455.455 0 1 0 .903-.033zm-.714 1.606a.548.548 0 1 0 1.059-.286l-.01-.032a7.676 7.676 0 0 1-.335-1.288.455.455 0 0 0-.903.033c-.041.53.052 1.064.19 1.573zm0 0a4.55 4.55 0 0 0 .89 1.704.6.6 0 1 0 .927-.765l-.024-.027c-.33-.354-.59-.77-.744-1.23a.548.548 0 0 0-1.049.318zm.89 1.704c.429.518.986.92 1.625 1.136a.633.633 0 0 0 .404-1.198l-.008-.003a2.652 2.652 0 0 1-1.118-.728.6.6 0 0 0-.903.793zm1.625 1.136a3.961 3.961 0 0 0 1.77.2.638.638 0 0 0-.164-1.265 2.79 2.79 0 0 1-1.21-.136.633.633 0 0 0-.396 1.201zm1.77.2c.609-.08 1.162-.385 1.504-.902a.627.627 0 0 0-1.034-.708c-.15.211-.382.312-.634.345a.638.638 0 0 0 .164 1.265zm1.504-.902c.34-.516.481-1.142.543-1.75a.59.59 0 0 0-1.17-.15c-.064.408-.163.849-.407 1.192a.627.627 0 1 0 1.021.726l.012-.018zm.543-1.75c.053-.528.095-1.065.055-1.596a.545.545 0 0 0-1.088.044c.001.468-.065.94-.138 1.401a.59.59 0 0 0 1.167.182l.004-.031zM157.748 1.4a.545.545 0 1 0 1.088-.037c-.015-.193-.038-.394-.121-.571a.64.64 0 0 0-.878-.308.547.547 0 0 0-.09.917h.001zm.475 2.289c.055-.563.112-1.126.189-1.686.033-.243.061-.495.13-.731h.001a.547.547 0 0 0-.706-.788c-.377.192-.45.728-.524 1.099-.13.651-.217 1.312-.302 1.97a.61.61 0 1 0 1.21.155l.003-.019zm-.373 5.304c.083-1.77.203-3.54.373-5.304a.61.61 0 0 0-1.212-.136 76.42 76.42 0 0 0-.488 5.371.664.664 0 1 0 1.327.076v-.007zm-.334 4.16c.208-1.374.269-2.774.334-4.16a.664.664 0 0 0-1.327-.069c-.076 1.342-.147 2.696-.348 4.027a.678.678 0 1 0 1.341.202zm-.46 1.91c.284-.58.365-1.279.46-1.91a.678.678 0 1 0-1.341-.202c-.052.346-.11.693-.184 1.036-.038.176-.076.36-.146.526a.665.665 0 0 0 1.21.55zm-1.28.731c.553.06 1.039-.238 1.28-.73a.665.665 0 0 0-1.195-.586l-.016.035-.01.02a.632.632 0 0 0-.058 1.261zm-1.33-1.4c.243.582.623 1.324 1.33 1.4a.632.632 0 0 0 .156-1.254c-.104-.015-.014 0 .004.01-.03-.018-.054-.046-.077-.071-.144-.164-.246-.368-.339-.564a.588.588 0 0 0-1.073.478zm-.545-2.53c.059.862.211 1.73.545 2.53a.587.587 0 1 0 1.085-.453l-.011-.025c-.315-.666-.455-1.405-.515-2.134a.553.553 0 0 0-1.104.083zm0 0a.553.553 0 1 0 1.103-.082c-.051-.632-.048-1.329.23-1.913a.553.553 0 1 0-1.005-.465c-.344.764-.385 1.636-.329 2.46zm1.334-1.996c.068-.145.205-.254.334-.341.242-.164.516-.28.79-.377 1.001-.359 2.078-.515 3.129-.642a.38.38 0 0 0-.058-.755c-1.13.036-2.29.11-3.383.416-.698.196-1.497.53-1.817 1.234a.554.554 0 0 0 1.005.465zM352.559 131.24a.3.3 0 0 0 .217-.56 4.98 4.98 0 0 1-.279-.116.32.32 0 0 0-.361-.151c-.247.066-.343.383-.147.561a.589.589 0 0 0 .144.09c.138.067.283.121.426.177zm-.374-.2.458.049a.42.42 0 1 0-.09-.817l-.436.146a.32.32 0 0 0 .068.623zm.458.049c.12.013.244.084.35.138.262.133.513.29.76.452a.546.546 0 1 0 .56-.938 5.23 5.23 0 0 0-.954-.423c-.256-.079-.545-.133-.806-.046a.42.42 0 0 0 .09.817zm1.11.59c.563.368 1.151.716 1.781.957a.623.623 0 1 0 .446-1.165l-.048-.016c-.566-.165-1.103-.433-1.62-.714a.547.547 0 0 0-.56.938zm1.76.947a.678.678 0 0 0 1.21.405c.272-.344.284-.826-.018-1.157-.201-.221-.492-.336-.773-.419a.624.624 0 0 0-.419 1.172zm-.08 1.188c.48-.15.972-.379 1.29-.783a.679.679 0 0 0-1.013-.9c-.173.174-.458.253-.686.317a.713.713 0 0 0 .39 1.372l.019-.006zm-2.358 1.744a12.91 12.91 0 0 1 1.412-1.22c.288-.208.6-.417.943-.523a.713.713 0 0 0-.409-1.366c-.532.154-.99.505-1.38.888-.493.486-.908 1.05-1.287 1.628a.47.47 0 0 0 .72.593zm-1.943 10.562a.366.366 0 0 0 .689-.245c-.175-.54-.15-1.11.207-1.57a.442.442 0 1 0-.698-.543l-.021.03c-.464.708-.479 1.553-.177 2.328zm.891-1.809c.25-.309.546-.58.886-.788a.517.517 0 1 0-.582-.853 4.24 4.24 0 0 0-1.022 1.128.442.442 0 0 0 .718.513zm.886-.788c.238-.146.508-.282.791-.305a.573.573 0 1 0-.15-1.135c-.451.084-.862.314-1.223.588a.517.517 0 0 0 .582.852zm.791-.305c.159-.013.305.16.393.267a.631.631 0 1 0 .927-.854c-.39-.383-.912-.65-1.47-.548a.573.573 0 0 0 .15 1.135zm.393.267c.113.135.162.327.202.493.086.362.113.738.125 1.108a.69.69 0 1 0 1.377-.068c-.052-.805-.167-1.79-.777-2.387a.631.631 0 0 0-.927.854zm1.32 4.483c.35-.939.449-1.954.384-2.95a.69.69 0 0 0-1.377.068c.027.805-.06 1.624-.344 2.382a.713.713 0 0 0 1.336.5zm-.92 2.067a15.97 15.97 0 0 0 .92-2.067.713.713 0 0 0-1.337-.5 19.318 19.318 0 0 1-.82 1.92.698.698 0 0 0 1.236.647zm-.544 1.058c.154-.364.354-.711.543-1.058a.698.698 0 1 0-1.235-.648c-.205.409-.429.83-.551 1.273a.66.66 0 0 0 1.244.433zm-.138.408a.634.634 0 0 0 .19-.68.66.66 0 0 0-1.296-.16c-.06.216-.086.446.014.657.209.442.752.473 1.092.183zm0 0 .835-.715a.614.614 0 0 0-.78-.947l-.861.684a.634.634 0 0 0 .788.992l.018-.014zm.835-.715c.56-.479 1.043-1.044 1.486-1.631a.546.546 0 0 0-.842-.694c-.441.49-.907.967-1.424 1.378a.614.614 0 1 0 .78.947zm1.486-1.631a27.458 27.458 0 0 0 1.484-2.195.512.512 0 1 0-.874-.535c-.003.004-.006.008-.007.012a11.906 11.906 0 0 1-1.444 2.024.546.546 0 1 0 .841.694zm1.484-2.195c.377-.616.773-1.272.96-1.977a.544.544 0 0 0-1.052-.279.065.065 0 0 1-.005.02c-.136.606-.479 1.181-.785 1.713a.513.513 0 0 0 .881.523zm.96-1.977.186-.702a.558.558 0 0 0-1.078-.286l-.006.02-.159.71a.544.544 0 0 0 1.057.258zm-.248-.297c.21-.04.38-.198.434-.405a.56.56 0 0 0-.57-.73.579.579 0 0 0-.487.349.56.56 0 0 0 .623.786zm.128.362.278-.705a.56.56 0 0 0-1.03-.444c-.106.23-.213.458-.32.687a.584.584 0 0 0 1.058.495l.014-.033zm-.588 2.36c.1-.5.205-1 .329-1.494a6.96 6.96 0 0 1 .259-.866.584.584 0 0 0-1.073-.462c-.373.797-.562 1.697-.765 2.548a.64.64 0 1 0 1.245.297c0-.008.004-.015.005-.023zm-.405 2.637c.052-.886.231-1.769.405-2.637a.64.64 0 0 0-1.25-.274c-.22.922-.442 1.86-.531 2.806a.69.69 0 1 0 1.374.129l.001-.024zm-1.298 1.453a.72.72 0 1 0 1.33-.548c-.03-.064-.032-.176-.037-.252a4.986 4.986 0 0 1 .005-.653.69.69 0 0 0-1.376-.105c-.047.504-.1 1.072.078 1.558zm.002.008c.175.46.667.617 1.115.525.276-.056.539-.174.789-.3.837-.418 1.617-.957 2.385-1.488a.477.477 0 0 0-.486-.819c-.6.301-1.206.596-1.826.855a5.99 5.99 0 0 1-.968.336l.001-.001a.72.72 0 0 0-1.01.892z"/><path d="M179.85 48.42c45.709 7.057 77.045 49.832 69.987 95.539s-49.833 77.044-95.539 69.986-77.045-49.832-69.987-95.538 49.833-77.045 95.539-69.987z" fill="none" stroke="#55e1ff" stroke-miterlimit="10" stroke-width="1.323"/><path d="M255.38 139.6c.053-.192.144-.378.227-.558.17-.37.353-.732.54-1.093.244-.474-.428-.875-.73-.436-.24.347-.472.7-.693 1.06-.137.225-.278.458-.367.707-.24.674.772 1.033 1.011.359zm-.08.316.082-.325c.175-.66-.789-.962-1.022-.32l-.117.314c-.254.722.855 1.068 1.057.33zm-1.006.176a.555.555 0 0 0 .316.233c.29.083.518-.072.67-.292.423-.615-.5-1.249-.922-.634a.568.568 0 0 0-.065.692zm.986-.06.55-.799c.395-.624-.506-1.245-.948-.653-.004.006-.008.01-.011.017l-.523.818c-.412.621.52 1.24.932.618zm.55-.799c.315-.458.594-.944.8-1.461.256-.686-.74-1.11-1.057-.45-.2.443-.442.866-.703 1.275-.395.634.53 1.247.96.636zm.8-1.461.334-.84c.289-.68-.73-1.112-1.019-.433l-.372.824c-.322.7.733 1.177 1.046.473l.01-.024zm-.604-.69.014.138c.065.752 1.193.654 1.128-.098 0-.011-.003-.021-.004-.032-.026-.182-.052-.37-.117-.543-.084-.22-.268-.393-.511-.414a.598.598 0 0 0-.59.366.553.553 0 0 0 .079.583zm.014.138.243 2.781c.085.843 1.345.733 1.283-.112l-.004-.035-.397-2.764c-.087-.75-1.212-.62-1.125.13zm.243 2.787c.256 2.657.18 5.346.042 8.007-.018.574.819.659.917.093.227-1.505.396-3.022.457-4.543.048-1.235.028-2.479-.137-3.705-.118-.827-1.353-.685-1.279.148z"/></svg>