<svg width="225.16" height="189.68" version="1.2" viewBox="0 0 168.87 142.26" xmlns="http://www.w3.org/2000/svg"><g fill="none" stroke-linecap="round" stroke-linejoin="round" stroke-miterlimit="10"><g stroke="#000"><path d="M.269 73.61h159.16" stroke-width=".537"/><path d="m154.62 70.208.324.258M154.95 70.466l.285.145M155.23 70.61l.445.219" stroke-width=".682"/><g stroke-width=".681"><path d="m155.68 70.829.566.293M156.25 71.122l.566.363M156.81 71.485l.61.363"/></g><g stroke-width=".683"><path d="m157.42 71.848.605.367M158.03 72.216l.57.328M158.6 72.544l.484.29M159.08 72.833l.406.258"/></g><path d="m159.49 73.091.363.219" stroke-width=".684"/><path d="m159.85 73.309.406.254" stroke-width=".689"/><path d="m160.26 73.563-.203.438" stroke-width=".83"/><path d="m160.05 74.001-.363.293M159.69 74.294l-.527.473" stroke-width=".831"/><path d="m159.16 74.766-.688.621M158.48 75.388l-.773.691M157.7 76.079l-.848.766" stroke-width=".832"/><path d="m156.85 76.845-.813.766M156.04 77.61l-.727.695" stroke-width=".836"/><path d="m155.32 78.306-.57.656" stroke-width=".832"/><path d="m154.75 78.962-.445.508M154.3 79.47l-.281.367" stroke-width=".831"/><path d="m154.02 79.837-.246.328" stroke-width=".828"/><path d="M80.163 5.208v136.77" stroke-width=".564"/><path d="m74.788 9.4.363-.364" stroke-width=".701"/><path d="m75.151 9.036.164-.254" stroke-width=".717"/><path d="m75.315 8.782.242-.258M75.558 8.524l.324-.328" stroke-width=".718"/><path d="m75.882 8.196.363-.398" stroke-width=".733"/><path d="m76.245 7.798.445-.403" stroke-width=".738"/><path d="m76.69 7.395.45-.472" stroke-width=".741"/><path d="m77.14 6.923.484-.438M77.624 6.485l.406-.437" stroke-width=".748"/><path d="m78.03 6.048.363-.328M78.394 5.72l.242-.258" stroke-width=".76"/><path d="m78.636 5.462.285-.29" stroke-width=".765"/><path d="m78.921 5.173.285-.328" stroke-width=".763"/><path d="m79.206 4.845.402-.329" stroke-width=".765"/><path d="m79.608 4.516.285-.218" stroke-width=".766"/><path d="m79.894 4.298.121.289" stroke-width=".723"/><path d="m80.015 4.587.285.586M80.3 5.173l.203.328" stroke-width=".724"/><path d="m80.503 5.5.2.364" stroke-width=".727"/><path d="m80.702 5.864.125.363M80.827 6.227l.242.368" stroke-width=".732"/><g stroke-width=".73"><path d="m81.069 6.595.121.363M81.19 6.958l.281.473M81.472 7.43l.164.329"/></g><path d="m81.636 7.759.285.293" stroke-width=".729"/><path d="m81.921 8.052.16.254" stroke-width=".73"/><path d="m82.081 8.306.203.328" stroke-width=".731"/><path d="m82.284 8.634.203.367M82.487 9l.203.29" stroke-width=".738"/><path d="m82.69 9.29.324.183" stroke-width=".504"/></g><g stroke="#33c" stroke-width=".85"><path d="m45.995 58.138.68-1.422.742-1.394.797-1.36.855-1.324M54.144 46.618l1.164-1.066M23.909 56.473l.477-1.496.52-1.484M26.694 49.13l.676-1.418.71-1.402.75-1.383.786-1.363.82-1.34.86-1.317.894-1.293M39.366 31.294l1.148-1.074 1.176-1.043 1.203-1.012 1.23-.976M46.663 25.333l1.305-.875 1.332-.84 1.347-.805 1.375-.77 1.39-.73 1.411-.69 1.43-.657M42.698 73.446l.031-1.578.102-1.574.168-1.57.234-1.56M21.374 73.516l.023-1.57.063-1.57.105-1.57.145-1.563.191-1.563.23-1.555M77.702 57.087l1.578-.117 1.582.039 1.57.191 1.547.34 1.504.488 1.45.633M93.792 65.04l.734 1.398.598 1.465.45 1.516.304 1.555.152 1.574v1.582l-.152 1.574M73.577 36.821l1.559-.234 1.57-.168 1.574-.102 1.578-.031 1.574.031 1.575.102 1.57.168 1.559.234M93.714 38.966l1.45.617M101.95 43.567l1.25.965 1.207 1.02 1.16 1.066 1.117 1.113 1.067 1.164M113.04 56.716l.68 1.422.62 1.453.555 1.477M116.72 68.723l.164 1.57.102 1.574.035 1.579-.035 1.574-.102 1.574-.164 1.57-.234 1.559M66.675 16.485l1.54-.332 1.542-.293 1.55-.254 1.56-.21 1.562-.169 1.566-.125 1.57-.086 1.571-.043h1.574l1.57.043 1.57.086 1.567.125 1.563.168M94.698 16.864l1.516.418 1.504.457 1.488.496M107.83 22.044l1.371.77M116.95 28.165l1.203 1.012 1.18 1.043 1.148 1.074M127.66 39.614l.895 1.293.859 1.316M133.79 50.567l.594 1.457.558 1.469.52 1.484.476 1.496M137.94 65.681l.191 1.563.149 1.562.105 1.57.063 1.57.02 1.57-.02 1.575-.063 1.57-.105 1.567-.149 1.566-.191 1.563-.23 1.554-.274 1.547-.312 1.54-.356 1.53-.398 1.524-.438 1.508M69.12 60.825l1.258-.96M63.128 40.263l1.422-.68 1.453-.617 1.477-.558M63.304 73.337l.078-1.578.227-1.567.379-1.535M107.75 97.997l-1.066 1.16-1.118 1.117-1.16 1.067-1.207 1.015M95.163 107.31l-1.45.621M86.136 110.07l-1.559.23-1.57.168-1.574.102-1.574.035-1.578-.035-1.575-.102-1.57-.168-1.559-.23-1.546-.3-1.536-.364-1.52-.43M60.374 105.09l-1.324-.855-1.29-.91-1.25-.965-1.202-1.016M49.069 94.255l-.855-1.328-.797-1.36-.743-1.394-.68-1.422M43.233 79.723l-.234-1.559-.168-1.57-.102-1.574-.031-1.574M133.15 97.903l-.676 1.422-.71 1.402-.75 1.383-.786 1.36-.82 1.34-.86 1.316-.894 1.297M122.69 113.5l-1.09 1.133-1.117 1.105-1.148 1.075-1.18 1.043-1.203 1.007-1.23.98-1.258.946M105.02 126.41l-1.43.652-1.445.618-1.46.578-1.481.535-1.489.5M85.417 131.81l-1.566.125-1.57.086-1.571.039h-1.574l-1.57-.04-1.57-.085-1.567-.125-1.563-.172-1.558-.207-1.551-.254-1.543-.293-1.54-.336-1.523-.375M56.253 127.07l-1.43-.652-1.41-.696M45.382 120.79l-1.258-.945-1.23-.98-1.203-1.009-1.176-1.043-1.149-1.074-1.12-1.105-1.09-1.133M32.19 107.42l-.895-1.297-.859-1.316-.82-1.34-.785-1.36-.75-1.382-.711-1.403M24.905 93.544l-.52-1.484-.476-1.5-.438-1.508-.394-1.524-.356-1.53-.316-1.54M21.397 75.091l-.023-1.574M92.925 82.962l-.992 1.234M83.98 89.138l-1.547.34-1.57.191-1.582.04-1.578-.118-1.559-.265-1.527-.415-1.477-.562-1.418-.7-1.344-.835-1.258-.961M113.72 88.751l-.68 1.422M63.608 76.485l-.227-1.566-.078-1.582"/></g><g stroke="#ff7f00"><path d="m48.495 23.52.184-.285M48.679 23.235l.371-.406" stroke-width=".803"/><g stroke-width=".806"><path d="m49.05 22.829.262-.215M49.312 22.614l.266-.238M49.577 22.376l.293-.234"/></g><path d="m49.87 22.141.29-.238M50.159 21.903l.29-.238" stroke-width=".811"/><g stroke-width=".811"><path d="m50.448 21.665.293-.238M50.741 21.427l.316-.285M51.058 21.141l.293-.262"/></g><g stroke-width=".815"><path d="m51.351 20.88.344-.285M51.694 20.595l.316-.285M52.011 20.309l.344-.29"/></g><g stroke-width=".818"><path d="m52.355 20.02.344-.285M52.698 19.735l.316-.262M53.015 19.473l.316-.262"/></g><path d="m53.331 19.212.316-.262M53.647 18.95l.32-.238" stroke-width=".818"/><g stroke-width=".825"><path d="m53.968 18.712.316-.262M54.284 18.45l.344-.238M54.628 18.212l.344-.262M54.972 17.95l.344-.262M55.315 17.688l.371-.285M55.687 17.403l.395-.285M56.081 17.118l.371-.262M56.452 16.856l.344-.262"/></g><path d="m56.796 16.595.316-.262M57.112 16.333l.266-.215" stroke-width=".828"/><path d="m57.378 16.118.395-.355" stroke-width=".827"/><path d="m57.772 15.763.32-.285M58.093 15.477l.316-.215" stroke-width=".826"/><path d="m58.409 15.263.422-.262" stroke-width=".827"/><g stroke-width=".826"><path d="m58.831 15.001.266-.164M59.097 14.837l.262-.168M59.358 14.669l.266-.168M59.624 14.501l.266-.188M59.89 14.313l.371-.29"/></g><path d="m60.261 14.024.316-.262M60.577 13.763l.316-.14" stroke-width=".825"/><path d="m60.894 13.622.316-.168M61.21 13.454l.266-.215" stroke-width=".828"/><path d="m61.476 13.239-.344-.047" stroke-width=".832"/><path d="m61.132 13.192-.398.023" stroke-width=".828"/><path d="m60.733 13.216-.473.05" stroke-width=".822"/><path d="m60.261 13.266-.477.07" stroke-width=".815"/><path d="m59.784 13.337-.477.07M59.308 13.407l-.398.07" stroke-width=".816"/><path d="m58.909 13.477-.395.098" stroke-width=".781"/><path d="m58.515 13.575-.398.023" stroke-width=".551"/><path d="m61.077 13.528-.156.285" stroke-width=".559"/><path d="m60.921 13.813-.133.285" stroke-width=".592"/><path d="m60.788 14.098-.184.309" stroke-width=".622"/><path d="m60.605 14.407-.215.332" stroke-width=".632"/><path d="m60.39 14.739-.184.285" stroke-width=".653"/><path d="m60.206 15.024-.21.262" stroke-width=".679"/><path d="m59.995 15.286-.266.262" stroke-width=".701"/><path d="m48.413 24.399-.238-.215" stroke-width=".489"/><path d="m48.175 24.184.293-.262" stroke-width=".49"/><path d="M48.468 23.923h.316" stroke-width=".447"/><path d="m48.784 23.923-.266.29" stroke-width=".465"/><path d="m48.519 24.212-.29.14" stroke-width=".506"/><path d="m48.23 24.352.266-.262" stroke-width=".533"/><path d="m48.495 24.091.21-.215" stroke-width=".532"/><path d="m48.706 23.876.238-.188" stroke-width=".514"/><path d="m48.944 23.688-.16.355" stroke-width=".392"/><path d="m48.784 24.044-.316.332" stroke-width=".411"/><path d="m48.468 24.376-.293.332" stroke-width=".414"/><path d="m48.175 24.708-.316.215" stroke-width=".521"/><path d="m47.858 24.923-.078-.379" stroke-width=".542"/><path d="M47.78 24.544v-.332" stroke-width=".529"/><path d="m47.78 24.212.078-.313" stroke-width=".511"/><path d="m47.858 23.899.238-.238" stroke-width=".488"/><path d="m48.097 23.661.238.215" stroke-width=".428"/><path d="m48.335 23.876-.078.36" stroke-width=".445"/><path d="m48.257 24.235-.316.164" stroke-width=".588"/><path d="m47.94 24.399-.238-.262" stroke-width=".601"/><path d="m47.702 24.138-.133-.285" stroke-width=".535"/><path d="m108.48 22.852.133-.355" stroke-width=".675"/><path d="m108.62 22.497.16-.383" stroke-width=".752"/><path d="m108.78 22.114.238-.188" stroke-width=".734"/><path d="m109.01 21.927.395.117" stroke-width=".518"/><path d="m109.41 22.044-.184.332" stroke-width=".582"/><path d="m109.23 22.376-.371.027" stroke-width=".608"/><path d="m108.85 22.403-.21.285" stroke-width=".618"/><path d="m108.8 22.235.32-.023" stroke-width=".607"/><path d="m109.12 22.212.344.14" stroke-width=".612"/><path d="m109.46 22.352.473.238" stroke-width=".632"/><path d="m109.94 22.591.266.145" stroke-width=".657"/><path d="m110.2 22.735.293.14M110.5 22.876l.29.168" stroke-width=".664"/><path d="m110.78 23.044.29.145" stroke-width=".688"/><path d="m111.07 23.188.293.164" stroke-width=".705"/><path d="m111.37 23.352.316.145" stroke-width=".717"/><path d="m111.68 23.497.316.14" stroke-width=".731"/><path d="m112 23.638.32.145" stroke-width=".735"/><path d="m112.32 23.782.29.14" stroke-width=".76"/><path d="m112.61 23.923.316.074" stroke-width=".765"/><path d="m112.92 23.997.531.164" stroke-width=".778"/><path d="m113.46 24.161.367.121" stroke-width=".781"/><path d="m113.82 24.282.398.164M114.22 24.446l.371.215" stroke-width=".798"/><path d="m114.59 24.661.262.145" stroke-width=".803"/><path d="m114.85 24.806.531.309M115.39 25.114l.29.168" stroke-width=".807"/><path d="m115.67 25.282.316.164" stroke-width=".811"/><path d="m115.99 25.446.266.145M116.26 25.591l.293.094" stroke-width=".816"/><path d="m116.55 25.684.422.168" stroke-width=".818"/><path d="m116.97 25.852.371.14" stroke-width=".826"/><path d="m117.34 25.993.422.145" stroke-width=".832"/><path d="m117.76 26.138.477.168" stroke-width=".85"/><path d="m118.24 26.306.45.188" stroke-width=".847"/><path d="m118.69 26.493.371.238" stroke-width=".848"/><path d="m119.06 26.731.29.262" stroke-width=".849"/><path d="m119.35 26.993.29.215M119.64 27.208l.293.215" stroke-width=".857"/><path d="m119.93 27.423.344.262" stroke-width=".858"/><path d="m120.28 27.684.395.332" stroke-width=".859"/><path d="m120.67 28.016.371.332M121.04 28.348l.316.313" stroke-width=".865"/><path d="m121.36 28.661.293.238" stroke-width=".866"/><path d="m121.65 28.899.29.234" stroke-width=".868"/><path d="M121.94 29.134v-.379M121.94 28.755l-.105-.43" stroke-width="1.025"/><path d="m121.84 28.325-.133-.523M121.7 27.802l-.184-.379" stroke-width="1.023"/><path d="m121.52 27.423-.266-.262" stroke-width="1.041"/><path d="m121.2 28.848-.398.023M120.8 28.872l-.395-.07" stroke-width=".862"/><path d="m120.41 28.802-.504-.117" stroke-width=".874"/><path d="m119.91 28.684-.582-.121" stroke-width=".877"/><path d="m119.32 28.563-.633-.14M118.69 28.423l-.344-.074" stroke-width=".884"/><path d="m118.35 28.348-.316-.047M118.03 28.302l-.453-.047" stroke-width=".88"/><path d="M117.58 28.255h-.316" stroke-width=".864"/><path d="m137.78 81.743.21-.355" stroke-width=".597"/><path d="m137.99 81.388.344.094" stroke-width=".531"/><path d="m138.34 81.481-.293.168" stroke-width=".733"/><path d="m138.04 81.649.027-.309" stroke-width=".714"/><path d="m138.07 81.341.266-.168" stroke-width=".687"/><path d="m138.34 81.173.344-.215" stroke-width=".666"/><path d="m138.68 80.958-.16.336" stroke-width=".578"/><path d="m138.52 81.294-.316.14" stroke-width=".593"/><path d="M138.2 81.434h-.316" stroke-width=".647"/><path d="m137.89 81.434-.105-.285" stroke-width=".629"/><path d="m137.78 81.149.21-.215" stroke-width=".593"/><path d="m137.99 80.934.316-.215" stroke-width=".565"/><path d="m138.31 80.72.316-.14" stroke-width=".467"/><path d="m138.62 80.579-.027.355" stroke-width=".431"/><path d="m138.6 80.934-.184.238" stroke-width=".446"/><path d="m138.41 81.173-.316.047" stroke-width=".529"/><path d="m138.1 81.22-.293-.262" stroke-width=".603"/><path d="m138.41 80.556-.027.477" stroke-width=".678"/><path d="M138.39 81.032v.402" stroke-width=".698"/><path d="m138.39 81.434-.027.43" stroke-width=".705"/><path d="m138.36 81.864-.023.426" stroke-width=".722"/><path d="m138.34 82.29-.027.43" stroke-width=".728"/><path d="m138.31 82.72-.027.43" stroke-width=".74"/><path d="m138.28 83.149-.027.426" stroke-width=".743"/><path d="m138.25 83.575-.023.36" stroke-width=".752"/><path d="m138.23 83.934-.027.379" stroke-width=".761"/><path d="m138.2 84.313-.027.406" stroke-width=".773"/><path d="m138.17 84.72-.05.45" stroke-width=".778"/><path d="m138.12 85.169-.055.5" stroke-width=".791"/><path d="m138.07 85.669-.055.5" stroke-width=".797"/><path d="m138.01 86.169-.05.547M137.96 86.716l-.078.55" stroke-width=".805"/><path d="m137.89 87.266-.105.496" stroke-width=".81"/><path d="m137.78 87.763-.055.5" stroke-width=".811"/><path d="m137.73 88.263-.055.547" stroke-width=".815"/><path d="m137.67 88.809-.023.313M137.65 89.122l-.027.309" stroke-width=".822"/><path d="m137.62 89.431-.055.309M137.57 89.739l-.023.332" stroke-width=".842"/><path d="m137.54 90.071-.082.57" stroke-width=".844"/><path d="m137.46 90.641-.05.5" stroke-width=".849"/><path d="m137.41 91.141-.055.477" stroke-width=".85"/><path d="m137.35 91.618-.05.453" stroke-width=".862"/><path d="m137.3 92.071-.055.547" stroke-width=".874"/><path d="m137.25 92.618-.078.594M137.17 93.212l-.055.313M137.12 93.524l-.023.332" stroke-width=".88"/><path d="m137.09 93.856-.027.355M137.07 94.212l-.027.36" stroke-width=".887"/><path d="M137.04 94.571v.379M137.04 94.95v.332" stroke-width=".885"/><path d="M137.04 95.282v.5M137.04 95.782v.309" stroke-width=".886"/><path d="M137.04 96.091v.313" stroke-width=".889"/><path d="M137.04 96.403v.355" stroke-width=".89"/><path d="m137.04 96.759.027.547" stroke-width=".897"/><path d="m137.07 97.306.027.57M137.09 97.876v.523" stroke-width=".911"/><path d="m137.09 98.399.023.383" stroke-width=".919"/><path d="m137.12 98.782.027.332" stroke-width=".92"/><path d="M137.14 99.114v.43" stroke-width=".936"/><path d="M137.14 99.544v.45" stroke-width=".945"/><path d="M137.14 99.993v.313" stroke-width=".951"/><path d="m137.14 100.31-.344-.168" stroke-width="1.121"/><path d="m136.8 100.14-.21-.285" stroke-width="1.113"/><path d="m136.59 99.852-.266-.36" stroke-width="1.103"/><path d="m136.32 99.493-.238-.355" stroke-width="1.099"/><path d="m136.08 99.138-.184-.309" stroke-width="1.095"/><path d="m135.9 98.829-.21-.215" stroke-width=".892"/><path d="m137.07 99.97.29-.379" stroke-width=".828"/><path d="m137.35 99.591.188-.262" stroke-width=".834"/><path d="m137.54 99.329.238-.285" stroke-width=".841"/><path d="m137.78 99.044.234-.336M138.01 98.708l.266-.332" stroke-width=".842"/><path d="m138.28 98.376.238-.355" stroke-width=".847"/><path d="m138.52 98.02.238-.332" stroke-width=".852"/><path d="m138.76 97.688.21-.336" stroke-width=".87"/><path d="m138.97 97.352.266-.477" stroke-width=".893"/><path d="m101.48 128.62.234-.238" stroke-width=".325"/><path d="m101.71 128.38-.05.313" stroke-width=".74"/><path d="m101.66 128.69.344.047" stroke-width=".622"/><path d="m102.01 128.74.078.355" stroke-width=".629"/><path d="m102.08 129.09-.078.43" stroke-width=".688"/><path d="m102.01 129.52-.238.238" stroke-width=".784"/><path d="m101.77 129.76-.266-.215" stroke-width=".806"/><path d="m101.5 129.55-.105-.453" stroke-width=".751"/><path d="m101.4 129.09.082-.309" stroke-width=".663"/><path d="m101.48 128.79.156-.285" stroke-width=".579"/><path d="m101.64 128.5.238-.215" stroke-width=".552"/><path d="m101.87 128.29.21.285" stroke-width=".518"/><path d="m102.08 128.57-.027.332" stroke-width=".533"/><path d="m102.06 128.9-.156.262" stroke-width=".708"/><path d="m101.9 129.16-.316-.21" stroke-width=".791"/><path d="m101.58 128.95-.293-.238" stroke-width=".812"/><path d="m101.29 128.72.316-.023" stroke-width=".511"/><path d="M101.77 129.24h-.316" stroke-width=".625"/><path d="m101.45 129.24-.344.047" stroke-width=".65"/><path d="m101.11 129.29-.344.191" stroke-width=".662"/><path d="m100.76 129.48-.316.188" stroke-width=".711"/><path d="m100.45 129.66-.344.215" stroke-width=".72"/><path d="m100.1 129.88-.344.309" stroke-width=".738"/><path d="m99.761 130.19-.371.309" stroke-width=".748"/><path d="m99.39 130.5-.316.262" stroke-width=".752"/><path d="m99.073 130.76-.266.238" stroke-width=".758"/><path d="m98.808 131-.293.215" stroke-width=".778"/><path d="m98.515 131.21-.29.191" stroke-width=".793"/><path d="m98.226 131.4-.29.215" stroke-width=".803"/><path d="m97.937 131.62-.344.238" stroke-width=".804"/><path d="m97.593 131.86-.371.188" stroke-width=".817"/><path d="m97.222 132.04-.371.238" stroke-width=".824"/><path d="m96.851 132.28-.371.262M96.48 132.54l-.367.215" stroke-width=".826"/><path d="m96.112 132.76-.426.215" stroke-width=".832"/><path d="m95.687 132.97-.422.262" stroke-width=".831"/><path d="m95.265 133.24-.422.285M94.843 133.52l-.398.285" stroke-width=".83"/><path d="m94.444 133.81-.371.215" stroke-width=".834"/><path d="m94.073 134.02-.316.191" stroke-width=".838"/><path d="m93.757 134.21-.29.117" stroke-width=".849"/><path d="m93.468 134.33-.293.121" stroke-width=".847"/><path d="m93.175 134.45-.395.164" stroke-width=".853"/><path d="m92.78 134.61-.371.121M92.409 134.74l-.422.14" stroke-width=".868"/><path d="m91.987 134.88-.531.215M91.456 135.09l-.262.145" stroke-width=".869"/><path d="m91.194 135.24-.426.164" stroke-width=".873"/><path d="m90.769 135.4-.316.168" stroke-width=".882"/><g stroke-width=".992"><path d="m90.452 135.57.316-.43M90.769 135.14l.21-.262M90.98 134.88l.215-.262"/></g><g stroke-width=".998"><path d="m91.194 134.61.29-.285M91.483 134.33l.293-.285M91.776 134.04l.29-.332"/></g><path d="m92.065 133.71.29-.309" stroke-width=".998"/><path d="m92.355 133.4.293-.313" stroke-width=".999"/><path d="m92.647 133.09.238-.262" stroke-width=".998"/><path d="m92.886 132.83.29-.355" stroke-width=".98"/><path d="m91.062 135.95-.344.215" stroke-width=".265"/><path d="m90.718 136.16-.316.023" stroke-width=".482"/><path d="m90.401 136.18.316-.047" stroke-width=".826"/><path d="M90.718 136.14h.422" stroke-width=".844"/><path d="M91.14 136.14h.422" stroke-width=".856"/><path d="m91.562 136.14.477.023" stroke-width=".875"/><path d="m92.038 136.16.504.023" stroke-width=".895"/><path d="m92.542 136.18.527.023" stroke-width=".907"/><path d="m93.069 136.21.504.023" stroke-width=".908"/><path d="M93.573 136.23h.45" stroke-width=".911"/><path d="M94.022 136.23h.344" stroke-width=".917"/><path d="m94.366 136.23.395.05" stroke-width=".918"/><path d="m94.761 136.28.32.094" stroke-width=".951"/><path d="m95.081 136.38.367.094" stroke-width=".963"/><path d="m40.589 118.24.29-.094" stroke-width=".292"/><path d="m40.878 118.15.32-.023" stroke-width=".301"/><path d="m41.198 118.13.367-.023" stroke-width=".303"/><path d="m41.565 118.1.188.262" stroke-width=".331"/><path d="m41.753 118.36-.105.355" stroke-width=".39"/><path d="m41.647 118.72-.32.145" stroke-width=".626"/><path d="m41.327 118.86-.344-.023" stroke-width=".8"/><path d="m40.983 118.84.344-.168" stroke-width=".704"/><path d="m41.327 118.67.133.332" stroke-width=".657"/><path d="m41.46 119-.133.36" stroke-width=".68"/><path d="m41.327 119.36-.344-.074" stroke-width=".831"/><path d="m40.983 119.29-.105-.285" stroke-width=".848"/><path d="M40.878 119v-.379" stroke-width=".84"/><path d="m40.878 118.63.21-.215" stroke-width=".747"/><path d="m41.089 118.41.371.07" stroke-width=".664"/><path d="m41.46 118.48.266.262" stroke-width=".63"/><path d="m41.671 119.27-.395-.07" stroke-width=".911"/><path d="m41.276 119.2-.293-.168" stroke-width=".939"/><path d="m40.983 119.03-.316-.14" stroke-width=".943"/><path d="m40.667 118.89-.344-.215" stroke-width=".949"/><path d="m40.323 118.67-.344-.215" stroke-width=".971"/><path d="m39.98 118.46-.316-.238" stroke-width=".98"/><path d="m39.663 118.22-.266-.14" stroke-width=".989"/><path d="m39.397 118.08-.344-.168" stroke-width=".996"/><path d="m39.054 117.91-.316-.14" stroke-width=".992"/><path d="m38.737 117.77-.344-.168M38.394 117.6l-.29-.168" stroke-width=".998"/><path d="m38.105 117.43-.266-.164" stroke-width="1.006"/><path d="m37.839 117.27-.29-.168" stroke-width="1.005"/><path d="m37.55 117.1-.426-.215M37.124 116.89l-.422-.191" stroke-width="1.007"/><path d="m36.702 116.7-.371-.14" stroke-width="1.019"/><path d="m36.331 116.56-.29-.121" stroke-width="1.023"/><path d="m36.042 116.43-.266-.14M35.776 116.29l-.316-.121" stroke-width="1.028"/><path d="m35.46 116.17-.316-.14" stroke-width="1.029"/><path d="m35.144 116.03-.293-.145" stroke-width="1.026"/><path d="m34.851 115.89-.371-.164M34.48 115.72l-.395-.191" stroke-width="1.035"/><path d="m34.085 115.53-.316-.145" stroke-width="1.054"/><path d="m33.769 115.39-.32-.164" stroke-width="1.065"/><path d="m33.448 115.22-.29-.145" stroke-width="1.068"/><path d="m33.159 115.08-.266-.164M32.894 114.91l-.238-.191" stroke-width="1.067"/><path d="m32.655 114.72-.262-.238M32.394 114.49l-.293-.285" stroke-width="1.081"/><path d="m32.101 114.2-.29-.262M31.812 113.94l-.293-.262" stroke-width="1.092"/><path d="m31.519 113.68-.29-.262M31.23 113.41l-.266-.215" stroke-width="1.105"/><path d="m30.964 113.2-.29-.285" stroke-width="1.107"/><path d="m30.675 112.91-.371-.355M30.304 112.56l-.21-.215" stroke-width="1.106"/><path d="m30.093 112.34-.344-.36" stroke-width="1.109"/><path d="m29.749 111.99-.344-.285M29.405 111.7l-.293-.285" stroke-width="1.115"/><path d="m29.112 111.41-.367-.262" stroke-width="1.119"/><path d="m28.745 111.15-.371-.215M28.374 110.94l-.344-.188M28.03 110.75l-.266-.191" stroke-width="1.126"/><path d="m27.765 110.56-.371-.262" stroke-width="1.128"/><path d="m27.394 110.3-.344-.285M27.05 110.01l-.234-.191" stroke-width="1.129"/><path d="m26.815 109.82-.266-.238" stroke-width="1.123"/><path d="m26.55 109.58-.105.36" stroke-width="1.078"/><path d="m26.444 109.94-.082.496M26.362 110.44l-.05.313" stroke-width="1.074"/><path d="m26.312 110.75-.055.332" stroke-width="1.072"/><path d="m26.257 111.08-.023.309M26.233 111.39l-.027.309" stroke-width="1.067"/><path d="M26.206 111.7v.336" stroke-width="1.06"/><path d="M26.206 112.04v.309" stroke-width="1.054"/><path d="M26.206 112.34v.309" stroke-width="1.036"/><path d="M26.206 112.65v.309" stroke-width="1.021"/><path d="M26.206 112.96v.309" stroke-width=".966"/><path d="m26.206 113.27-.027.523" stroke-width=".78"/><path d="m27.476 109.87-.266-.309" stroke-width=".933"/><path d="m27.21 109.56.45-.023" stroke-width="1.003"/><path d="m27.659 109.54.371.07" stroke-width="1.012"/><path d="m28.03 109.61.422.047" stroke-width="1.01"/><path d="m28.452 109.65.398.074M28.851 109.73l.316.07" stroke-width="1.012"/><path d="m29.167 109.8.316.07" stroke-width="1.019"/><path d="m29.483 109.87.344.074M29.827 109.94l.371.047" stroke-width="1.064"/><path d="m30.198 109.99.344.07" stroke-width="1.062"/><path d="m30.542 110.06.29.117" stroke-width="1.063"/><path d="m25.069 56.333-.344.094" stroke-width=".72"/><path d="m24.726 56.427-.16-.402" stroke-width=".839"/><path d="M24.565 56.024v-.336" stroke-width=".845"/><path d="m24.565 55.688.082-.355" stroke-width=".815"/><path d="m24.647 55.333.29-.117" stroke-width=".767"/><path d="M24.937 55.216v.309" stroke-width=".75"/><path d="m24.937 55.524-.133-.309" stroke-width=".822"/><path d="m24.804 55.216.21-.406" stroke-width=".795"/><path d="m25.015 54.809.238-.238" stroke-width=".729"/><path d="m25.253 54.571-.027.43" stroke-width=".568"/><path d="m25.226 55.001-.05.332" stroke-width=".559"/><path d="m25.175 55.333-.184.285" stroke-width=".687"/><path d="m24.991 55.618-.371-.285" stroke-width=".826"/><path d="m24.62 55.333-.266-.285" stroke-width=".852"/><path d="m24.355 55.048-.184-.309" stroke-width=".857"/><path d="m24.171 54.739.395.047" stroke-width=".589"/><path d="m24.565 54.786.082.332" stroke-width=".46"/><path d="m23.456 55.165-.027-.402M23.429 54.763l.078-.406" stroke-width=".983"/><path d="m23.507 54.356.215-.5" stroke-width="1.008"/><path d="m23.722 53.856.21-.45" stroke-width="1.013"/><path d="m23.933 53.407.133-.36" stroke-width="1.032"/><path d="m24.065 53.048.129-.355" stroke-width="1.031"/><path d="m24.194 52.692.16-.406" stroke-width="1.032"/><path d="m24.355 52.286.16-.477" stroke-width="1.04"/><path d="m24.515 51.809.133-.473" stroke-width="1.057"/><path d="m24.647 51.337.105-.43" stroke-width="1.058"/><path d="m24.753 50.907.078-.406" stroke-width="1.067"/><path d="m24.831 50.501.05-.45" stroke-width="1.074"/><path d="m24.882 50.052.055-.477M24.937 49.575l.055-.5" stroke-width="1.087"/><path d="m24.991 49.075.023-.523" stroke-width="1.088"/><path d="M25.015 48.552v-.5" stroke-width="1.097"/><g stroke-width="1.101"><path d="m25.015 48.052.027-.453M25.042 47.598l.027-.45M25.069 47.149l.05-.406"/></g><path d="m25.12 46.743.055-.43" stroke-width="1.102"/><path d="m25.175 46.313.05-.402" stroke-width="1.103"/><path d="m25.226 45.911.082-.43M25.308 45.481l.078-.402" stroke-width="1.1"/><path d="m25.386 45.079.055-.336M25.44 44.743l.05-.332" stroke-width="1.104"/><path d="m25.491 44.411.055-.43" stroke-width="1.102"/><path d="m25.546 43.981.078-.379" stroke-width="1.103"/><path d="m25.624 43.602.105-.453" stroke-width="1.105"/><path d="m25.73 43.149.078-.402" stroke-width="1.102"/><path d="m25.808 42.747.027-.336" stroke-width="1.103"/><path d="m25.835 42.411.055-.355" stroke-width="1.11"/><path d="m25.89 42.056.078-.332" stroke-width="1.105"/><path d="m25.968 41.723.078-.36" stroke-width="1.108"/><path d="m26.046 41.364.105-.379" stroke-width="1.114"/><path d="m26.151 40.985.027-.355" stroke-width="1.115"/><path d="M26.179 40.63h-.371" stroke-width="1.103"/><path d="m25.808 40.63-.422.188M25.386 40.817l-.266.145" stroke-width="1.098"/><g stroke-width="1.099"><path d="m25.12 40.962-.29.14M24.831 41.102l-.344.168M24.487 41.27l-.398.191"/></g><path d="m24.089 41.462-.45.188M23.64 41.649l-.5.238" stroke-width="1.097"/><path d="m23.14 41.888-.45.168" stroke-width="1.082"/><path d="m22.69 42.056-.32.145" stroke-width="1.036"/><path d="m22.37 42.2-.29.117" stroke-width=".785"/><path d="m25.94 40.294.16.285" stroke-width=".891"/><path d="m26.101 40.579.156.285" stroke-width=".898"/><path d="m26.257 40.864.16.313" stroke-width=".909"/><path d="m26.417 41.177.16.285" stroke-width=".911"/><path d="m26.577 41.462.156.309" stroke-width=".919"/><path d="m26.733 41.77.188.402M26.921 42.173l.129.29" stroke-width=".921"/><path d="m27.05 42.462.133.332" stroke-width=".943"/><path d="m27.183 42.794.133.379M27.315 43.173l.105.285" stroke-width=".955"/><path d="m65.651 37.438.238.262" stroke-width=".363"/><path d="m65.89 37.7.105.406" stroke-width=".366"/><path d="m65.995 38.106-.105.355" stroke-width=".428"/><path d="m65.89 38.462-.21.215" stroke-width=".481"/><path d="m65.679 38.677-.29.191" stroke-width=".539"/><path d="m65.39 38.868-.32.238" stroke-width=".597"/><path d="m65.069 39.106.45-.05" stroke-width=".804"/><path d="M65.519 39.056h.32" stroke-width=".74"/><path d="m65.839 39.056.262.191" stroke-width=".627"/><path d="m66.101 39.247-.238.336" stroke-width=".656"/><path d="m65.862 39.583-.262.21" stroke-width=".68"/><path d="m65.601 39.794-.266.145" stroke-width=".768"/><path d="M65.335 39.938h-.316" stroke-width=".905"/><path d="m65.019 39.938-.293-.168" stroke-width=".945"/><path d="m64.726 39.77.133-.355" stroke-width=".857"/><path d="m64.858 39.415.344-.191" stroke-width=".794"/><path d="m65.202 39.223.371-.023" stroke-width=".746"/><path d="m65.573 39.2-.29.168" stroke-width=".861"/><path d="m65.284 39.368-.238-.215" stroke-width=".926"/><path d="m65.046 39.153.316-.121" stroke-width=".736"/><path d="m65.362 39.032.238.238" stroke-width=".663"/><path d="m65.601 39.27.027.313" stroke-width=".665"/><path d="m65.628 39.583-.426.14" stroke-width=".441"/><path d="m65.23 38.13.371-.094M65.601 38.036l.477-.191M66.077 37.845l.29-.145" stroke-width=".942"/><path d="m66.366 37.7.293-.14M66.659 37.559l.29-.145M66.948 37.415l.29-.164" stroke-width=".943"/><path d="m67.237 37.251.477-.262M67.714 36.989l.45-.238" stroke-width=".948"/><path d="m68.163 36.751.504-.215M68.667 36.536l.266-.145" stroke-width=".947"/><path d="m68.933 36.391.527-.238" stroke-width=".948"/><path d="m69.46 36.153.477-.21" stroke-width=".951"/><path d="m69.937 35.942.422-.238M70.358 35.704l.398-.191M70.757 35.513l.316-.168" stroke-width=".95"/><path d="m71.073 35.345.344-.14" stroke-width=".951"/><path d="m71.417 35.204.344-.145M71.761 35.059l.45-.14M72.21 34.919l.395-.121" stroke-width=".949"/><path d="m72.605 34.798.293-.094" stroke-width=".947"/><path d="m72.897 34.704.344-.07M73.241 34.634l.395-.074" stroke-width=".948"/><path d="m73.636 34.559.344-.117" stroke-width=".951"/><path d="m73.98 34.442.293-.191" stroke-width=".959"/><path d="m74.272 34.251-.398-.215" stroke-width=".986"/><path d="m73.874 34.036-.422-.215" stroke-width=".984"/><g stroke-width=".977"><path d="m73.452 33.821-.504-.188M72.948 33.634l-.29-.098M72.659 33.536l-.316-.047M72.343 33.489l-.344-.047"/></g><path d="m71.999 33.442-.398-.047M71.601 33.395h-.422" stroke-width=".974"/><path d="M71.179 33.395h-.422M70.757 33.395l-.426.047" stroke-width=".97"/><path d="m70.331 33.442-.344.047" stroke-width=".957"/><path d="m69.987 33.489-.555.145" stroke-width=".918"/><path d="m69.433 33.634-.395.14" stroke-width=".823"/><path d="m69.038 33.774-.344.145" stroke-width=".584"/><path d="m73.769 34.513-.316.215" stroke-width=".731"/><path d="m73.452 34.727-.29.238" stroke-width=".783"/><path d="m73.163 34.966-.371.285" stroke-width=".822"/><path d="m72.792 35.251-.371.262" stroke-width=".834"/><path d="m72.421 35.513-.238.191" stroke-width=".845"/><path d="m72.183 35.704-.238.21" stroke-width=".843"/><path d="m71.944 35.915-.184.262" stroke-width=".83"/><path d="m104.76 46.79-.105-.355" stroke-width=".831"/><path d="m104.65 46.434-.082-.332" stroke-width=".925"/><path d="m104.57 46.102.32-.121" stroke-width=".882"/><path d="M104.89 45.981h.395" stroke-width=".879"/><path d="M105.28 45.981h.316" stroke-width=".874"/><path d="m105.6 45.981-.129.332" stroke-width=".758"/><path d="m105.47 46.313-.188-.262" stroke-width=".858"/><path d="m105.28 46.052.133-.332" stroke-width=".855"/><path d="m105.42 45.72.266-.191" stroke-width=".841"/><path d="m105.68 45.528.316-.094" stroke-width=".832"/><path d="m106 45.434.422-.047" stroke-width=".812"/><path d="M106.42 45.388v.332" stroke-width=".739"/><path d="m106.42 45.72-.262.285" stroke-width=".733"/><path d="m106.16 46.005-.371.098" stroke-width=".862"/><path d="m105.5 45.79.398.168" stroke-width=".857"/><path d="m105.89 45.958.29.191" stroke-width=".859"/><path d="m106.18 46.149.426.262" stroke-width=".876"/><path d="m106.61 46.411.527.285" stroke-width=".879"/><path d="m107.14 46.696.527.262" stroke-width=".908"/><path d="m107.66 46.958.531.164" stroke-width=".922"/><path d="m108.19 47.122.5.145M108.69 47.266l.582.145" stroke-width=".938"/><path d="m109.28 47.411.61.164" stroke-width=".939"/><path d="m109.89 47.575.527.191" stroke-width=".936"/><path d="m110.41 47.766.398.215M110.81 47.981l.344.164" stroke-width=".938"/><path d="m111.16 48.145.29.098" stroke-width=".939"/><path d="m111.44 48.243.266.164" stroke-width=".938"/><path d="m111.71 48.407.266.191M111.98 48.598l.262.238" stroke-width=".93"/><path d="m112.24 48.837.316.285" stroke-width=".931"/><path d="m112.55 49.122.371.238M112.92 49.36l.316.215" stroke-width=".942"/><path d="m113.24 49.575.398.191" stroke-width=".944"/><path d="m113.64 49.766.422.188" stroke-width=".953"/><path d="m114.06 49.954.293.145" stroke-width=".95"/><path d="m114.35 50.098.29.215" stroke-width=".951"/><path d="m114.64 50.313.371.238" stroke-width=".952"/><path d="m115.01 50.552.238.21" stroke-width=".945"/><path d="m115.25 50.763.21.215" stroke-width=".95"/><path d="m115.46 50.977-.105-.285" stroke-width="1.05"/><path d="m115.36 50.692-.105-.285" stroke-width="1.062"/><path d="m115.25 50.407-.078-.355M115.17 50.052l-.055-.336" stroke-width="1.067"/><path d="m115.12 49.716-.078-.355M115.04 49.36l-.082-.355" stroke-width="1.062"/><path d="m114.72 50.716.344.168" stroke-width=".625"/><path d="m115.07 50.884-.316.14M114.75 51.024h-.395" stroke-width=".914"/><path d="m114.35 51.024-.477-.023M113.88 51.001l-.422-.023" stroke-width=".92"/><path d="m113.46 50.977-.344-.047M113.11 50.931l-.32-.047" stroke-width=".921"/><path d="m112.79 50.884-.367-.094" stroke-width=".93"/><path d="m112.42 50.79-.32-.121" stroke-width=".928"/><path d="m113.51 89.595.133-.379" stroke-width=".922"/><path d="m113.64 89.216.29-.191" stroke-width=".913"/><path d="m113.93 89.024.344-.047" stroke-width=".845"/><path d="m114.27 88.977-.05.383" stroke-width=".761"/><path d="m114.22 89.36-.344.21" stroke-width=".762"/><path d="m113.88 89.571-.133-.309" stroke-width=".804"/><path d="m113.75 89.263.238-.238" stroke-width=".799"/><path d="m113.88 89.192.16.332" stroke-width=".474"/><path d="M114.04 89.524v.332" stroke-width=".673"/><path d="m114.04 89.856-.055.383" stroke-width=".72"/><path d="m113.98 90.239-.133.402" stroke-width=".765"/><path d="m113.85 90.641-.133.36" stroke-width=".785"/><path d="m113.72 91.001-.156.355" stroke-width=".786"/><path d="m113.56 91.356-.133.406" stroke-width=".791"/><path d="m113.43 91.763-.133.402" stroke-width=".794"/><path d="m113.3 92.165-.133.383" stroke-width=".799"/><path d="m113.16 92.548-.133.379" stroke-width=".803"/><path d="m113.03 92.927-.105.309" stroke-width=".807"/><path d="m112.92 93.235-.105.313" stroke-width=".808"/><path d="m112.82 93.548-.133.379M112.69 93.927l-.078.332" stroke-width=".817"/><path d="m112.61 94.259-.133.5M112.48 94.759l-.156.383" stroke-width=".821"/><path d="m112.32 95.141-.133.355M112.19 95.497l-.105.309" stroke-width=".823"/><path d="m112.08 95.806-.133.383" stroke-width=".826"/><path d="m111.95 96.188-.133.402M111.82 96.591l-.105.285" stroke-width=".825"/><path d="m111.71 96.876-.133.313M111.58 97.188l-.16.332" stroke-width=".826"/><path d="m111.42 97.52-.129.332" stroke-width=".827"/><path d="m111.29 97.852-.16.332" stroke-width=".826"/><path d="m111.13 98.184-.133.29" stroke-width=".827"/><path d="m111 98.473-.156.355" stroke-width=".826"/><path d="m110.84 98.829-.188.402" stroke-width=".829"/><path d="m110.65 99.231-.184.36" stroke-width=".827"/><path d="m110.47 99.591-.133.285" stroke-width=".83"/><path d="m110.34 99.876-.105.309M110.23 100.18l-.105.285" stroke-width=".828"/><path d="m110.12 100.47-.16.309" stroke-width=".835"/><path d="m109.96 100.78-.05-.309M109.91 100.47l.023-.477" stroke-width=".988"/><path d="m109.94 99.993.133-.523" stroke-width=".98"/><path d="m110.07 99.47.16-.547" stroke-width=".967"/><path d="m110.23 98.923.156-.477" stroke-width=".956"/><path d="m110.39 98.446.133-.332" stroke-width=".928"/><path d="m110.52 98.114.105-.332" stroke-width=".695"/><path d="m109.78 100.75.316.098" stroke-width=".626"/><path d="m110.1 100.85.422-.023" stroke-width=".684"/><path d="m110.52 100.83.45-.098" stroke-width=".741"/><path d="m110.97 100.73.504-.164" stroke-width=".782"/><path d="m111.47 100.57.371-.191" stroke-width=".81"/><path d="m111.84 100.38.344-.191" stroke-width=".849"/><path d="m112.19 100.18.29-.14" stroke-width=".878"/><path d="m112.48 100.04.422-.168" stroke-width=".895"/><path d="m112.9 99.876.453-.191" stroke-width=".925"/><path d="m113.35 99.684.316-.164" stroke-width=".948"/><path d="m113.67 99.52.29-.215" stroke-width=".975"/><path d="m113.96 99.306.293-.191" stroke-width=".593"/><path d="m74.323 109.87-.129-.285" stroke-width=".716"/><path d="m74.194 109.58.316.121" stroke-width=".639"/><path d="m74.511 109.7-.293.094" stroke-width=".756"/><path d="m74.218 109.8.293.238M74.511 110.04l.078.453" stroke-width=".712"/><path d="M74.589 110.49v.309" stroke-width=".717"/><path d="m74.589 110.8-.395.094" stroke-width=".77"/><path d="m74.194 110.89-.371-.023" stroke-width=".803"/><path d="m73.823 110.87.156-.309" stroke-width=".789"/><path d="m73.98 110.56.293-.168" stroke-width=".759"/><path d="m74.272 110.39.21.309" stroke-width=".704"/><path d="m74.483 110.7.055.313" stroke-width=".693"/><path d="m74.538 111.01.023.332" stroke-width=".634"/><path d="m74.562 111.34.188-.332" stroke-width=".384"/><path d="m74.351 111.41-.344-.07" stroke-width=".845"/><path d="m74.007 111.34-.395-.094M73.612 111.25l-.398-.027" stroke-width=".851"/><path d="M73.214 111.22h-.527" stroke-width=".852"/><path d="M72.687 111.22h-.637" stroke-width=".853"/><path d="m72.05 111.22-.344-.023" stroke-width=".854"/><path d="m71.706 111.2-.555-.023" stroke-width=".885"/><path d="m71.151 111.18-.395-.047M70.757 111.13l-.344-.047" stroke-width=".9"/><path d="m70.413 111.08-.398-.07" stroke-width=".903"/><path d="m70.015 111.01-.527-.074" stroke-width=".905"/><path d="m69.487 110.94-.61-.117" stroke-width=".906"/><path d="m68.878 110.82-.344-.047" stroke-width=".916"/><path d="m68.534 110.77-.344-.074" stroke-width=".919"/><path d="m68.19 110.7-.344-.07M67.847 110.63l-.316-.07" stroke-width=".933"/><g stroke-width=".938"><path d="m67.53 110.56-.504-.094M67.026 110.47l-.316-.027M66.71 110.44l-.316-.023"/></g><path d="m66.394 110.41-.371-.047" stroke-width=".945"/><path d="m66.022 110.37-.45-.094" stroke-width=".946"/><path d="m65.573 110.27-.477-.121M65.097 110.15l-.422-.094" stroke-width=".948"/><path d="m64.675 110.06-.422-.07" stroke-width=".951"/><path d="m64.253 109.99-.398-.023" stroke-width=".955"/><path d="m63.855 109.97-.422-.023" stroke-width=".96"/><path d="m63.433 109.94-.371-.074" stroke-width=".976"/><path d="m63.062 109.87-.344-.14" stroke-width=".985"/><path d="m62.718 109.73-.371-.098" stroke-width=".981"/><path d="m62.347 109.63-.316-.14" stroke-width=".991"/><path d="m62.03 109.49-.29-.121" stroke-width=".992"/><path d="m61.741 109.37.21-.21" stroke-width="1.021"/><path d="m61.952 109.16.262-.215M62.214 108.94l.398-.336" stroke-width="1.027"/><path d="m62.612 108.61.266-.188M62.878 108.42l.262-.215" stroke-width="1.029"/><g stroke-width="1.029"><path d="m63.14 108.2.266-.238M63.405 107.97l.29-.238M63.694 107.73l.293-.238"/></g><path d="m63.987 107.49.395-.355" stroke-width="1.018"/><path d="m64.382 107.13.238-.215" stroke-width=".642"/><path d="m62.214 109.49-.21.309" stroke-width=".444"/><path d="m62.003 109.8-.184.285" stroke-width=".687"/><path d="m61.819 110.08.133.406" stroke-width=".756"/><path d="m61.952 110.49.262.309" stroke-width=".794"/><path d="m62.214 110.8.32.355" stroke-width=".846"/><path d="m62.534 111.15.344.36" stroke-width=".882"/><path d="m62.878 111.51.344.355" stroke-width=".897"/><path d="m63.222 111.87.316.285" stroke-width=".903"/><path d="m63.538 112.15.238.285" stroke-width=".918"/><path d="m63.776 112.44.21.238" stroke-width=".922"/><path d="m63.987 112.68.238.215" stroke-width=".921"/><path d="m64.226 112.89.29.191" stroke-width=".931"/><path d="m64.515 113.08.344.188" stroke-width=".939"/><path d="m64.858 113.27.32.215" stroke-width=".949"/><path d="m65.179 113.49.234.191" stroke-width=".964"/><path d="m73.741 89.286.371-.07" stroke-width=".709"/><path d="m74.112 89.216-.262-.145" stroke-width=".943"/><path d="m74.167 89.454-.398.047" stroke-width=".702"/><path d="m73.769 89.501-.5-.047" stroke-width=".733"/><path d="m73.269 89.454-.477-.047" stroke-width=".743"/><path d="m72.792 89.407-.637-.074" stroke-width=".765"/><path d="m72.155 89.333-.367-.047" stroke-width=".777"/><path d="m71.788 89.286-.426-.047" stroke-width=".796"/><path d="m71.362 89.239-.422-.023" stroke-width=".818"/><path d="m70.94 89.216-.422-.047" stroke-width=".838"/><path d="m70.519 89.169-.344-.047M70.175 89.122l-.555-.074" stroke-width=".853"/><path d="m69.62 89.048-.477-.023M69.144 89.024l-.504-.023" stroke-width=".855"/><path d="m68.64 89.001-.45-.047" stroke-width=".883"/><path d="m68.19 88.954-.395-.094" stroke-width=".894"/><path d="m67.796 88.86-.344-.145" stroke-width=".921"/><path d="m67.452 88.716-.371-.14" stroke-width=".928"/><path d="m67.081 88.575-.45-.145M66.632 88.431l-.504-.117" stroke-width=".93"/><path d="m66.128 88.313-.371-.074M65.757 88.239h-.344" stroke-width=".927"/><path d="m65.413 88.239-.344-.07" stroke-width=".938"/><path d="m65.069 88.169-.316-.094" stroke-width=".958"/><path d="m64.753 88.075-.262-.145" stroke-width=".914"/><path d="m64.597 87.954.316-.215" stroke-width=".999"/><path d="m64.913 87.739.5-.379M65.413 87.36l.293-.262" stroke-width="1.004"/><path d="m65.706 87.098.29-.262M65.995 86.837l.293-.262" stroke-width="1.007"/><path d="m66.288 86.575.238-.238M66.526 86.337l.344-.332" stroke-width="1.004"/><path d="m66.87 86.005.316-.191" stroke-width=".971"/><path d="m67.187 85.813.371-.094" stroke-width=".771"/><path d="m64.12 88.501.262.262" stroke-width=".671"/><path d="m64.382 88.763.238.215" stroke-width=".728"/><path d="m64.62 88.977.344.285" stroke-width=".759"/><path d="m64.964 89.263.426.36" stroke-width=".788"/><path d="m65.39 89.622.367.355" stroke-width=".804"/><path d="m65.757 89.977.371.285M66.128 90.263l.344.238" stroke-width=".822"/><path d="m66.472 90.501.266.168" stroke-width=".835"/><path d="m66.737 90.669.266.164" stroke-width=".845"/><path d="m67.003 90.833.21.215" stroke-width=".891"/><path d="m67.214 91.048.238.215" stroke-width=".93"/><path d="m68.507 60.591.238-.332" stroke-width=".424"/><path d="m68.745 60.259.293-.121" stroke-width=".348"/><path d="m69.038 60.138.395-.07" stroke-width=".328"/><path d="m69.433 60.067.188-.262" stroke-width=".796"/><path d="m69.62 59.806.316-.117" stroke-width=".725"/><path d="m69.937 59.688.184.262" stroke-width=".623"/><path d="m69.46 59.782.316-.285" stroke-width=".845"/><path d="m69.776 59.497.45-.383" stroke-width=".868"/><path d="m70.226 59.114.266-.234M70.491 58.88l.29-.313" stroke-width=".876"/><g stroke-width=".89"><path d="m70.78 58.567.32-.309M71.101 58.259l.316-.332M71.417 57.927l.29-.309M71.706 57.618l.32-.285"/></g><path d="m72.026 57.333.29-.262" stroke-width=".891"/><path d="m72.315 57.071.266-.191M72.581 56.88l.21-.215" stroke-width=".894"/><path d="m72.792 56.665.371-.285" stroke-width=".902"/><path d="m73.163 56.38.316-.285" stroke-width=".9"/><g stroke-width=".9"><path d="m73.48 56.095.344-.262M73.823 55.833l.45-.262M74.272 55.571l.266-.168"/></g><path d="m74.538 55.403.262-.14M74.8 55.263l.266-.168M75.065 55.095l.29-.168M75.355 54.927l.45-.238M75.804 54.688l.344-.188" stroke-width=".9"/><path d="m76.147 54.501.32-.262M76.468 54.239l.21-.215" stroke-width=".908"/><path d="m76.679 54.024.29-.191" stroke-width=".906"/><path d="m76.968 53.833.316-.215" stroke-width=".901"/><path d="m77.284 53.618.293-.164" stroke-width=".902"/><path d="m77.577 53.454.266-.168" stroke-width=".908"/><path d="m77.843 53.286-.32-.117" stroke-width=".907"/><path d="m77.522 53.169-.582.07M76.94 53.239l-.367.047" stroke-width=".903"/><path d="m76.573 53.286-.371.047" stroke-width=".907"/><path d="m76.202 53.333-.398.047M75.804 53.38l-.422.05" stroke-width=".908"/><path d="m75.382 53.431-.45.047" stroke-width=".909"/><path d="m74.933 53.477-.477.07" stroke-width=".911"/><g stroke-width=".912"><path d="m74.456 53.548-.477.094M73.98 53.641l-.5.098M73.48 53.739l-.45.07M73.03 53.809l-.398.094M72.632 53.903l-.477.121"/></g><path d="m72.155 54.024-.129.285" stroke-width=".417"/><path d="m77.921 53.524-.266.309" stroke-width=".774"/><path d="m77.655 53.833-.238.36" stroke-width=".806"/><path d="m77.417 54.192-.238.402" stroke-width=".825"/><path d="m77.179 54.595-.156.36" stroke-width=".829"/><path d="m77.022 54.954-.16.332" stroke-width=".841"/><path d="m76.862 55.286-.133.285" stroke-width=".864"/><path d="m76.73 55.571-.184.332" stroke-width=".899"/><path d="m76.546 55.903-.293.406" stroke-width=".934"/><path d="m76.253 56.309-.234.332" stroke-width=".953"/><path d="m76.019 56.641-.215.309" stroke-width=".965"/><path d="m95.425 68.802.234-.191" stroke-width=".652"/><path d="m95.659 68.61.344-.07" stroke-width=".64"/><path d="m96.003 68.54.16.285" stroke-width=".566"/><path d="m96.163 68.825-.027.309" stroke-width=".561"/><path d="m96.136 69.134-.262-.145" stroke-width=".81"/><path d="m95.874 68.989.184-.262" stroke-width=".806"/><path d="m96.058 68.727.29-.188" stroke-width=".796"/><path d="m96.347 68.54-.367.094" stroke-width=".699"/><path d="m95.98 68.634.05.355" stroke-width=".761"/><path d="m96.03 68.989.266.43" stroke-width=".781"/><path d="m96.296 69.419.184.262" stroke-width=".784"/><path d="m96.48 69.681.188.262" stroke-width=".801"/><path d="m96.667 69.942.21.285" stroke-width=".802"/><path d="m96.878 70.227.156.285" stroke-width=".806"/><path d="m97.034 70.513.32.477" stroke-width=".823"/><path d="m97.355 70.989.21.383" stroke-width=".843"/><path d="m97.565 71.372.156.309" stroke-width=".865"/><path d="m97.722 71.681.16.262" stroke-width=".87"/><path d="m97.882 71.942.16.332" stroke-width=".887"/><path d="m98.042 72.274.129.332" stroke-width=".892"/><path d="m98.171 72.606.11.285" stroke-width=".891"/><path d="m98.28 72.891.105.313" stroke-width=".898"/><path d="m98.386 73.204.105.379" stroke-width=".899"/><path d="m98.491 73.583.105.355" stroke-width=".9"/><path d="m98.597 73.938.078.43" stroke-width=".907"/><path d="m98.675 74.368.078.332" stroke-width=".904"/><path d="m98.753 74.7.105.336" stroke-width=".903"/><path d="m98.858 75.036.11.332" stroke-width=".908"/><path d="m98.968 75.368.156.43" stroke-width=".919"/><path d="m99.124 75.798.133.309" stroke-width=".926"/><path d="m99.257 76.106.16.355" stroke-width=".938"/><path d="m99.417 76.462.156.332" stroke-width=".947"/><path d="m99.573 76.794.105.313" stroke-width=".948"/><path d="m99.679 77.106-.367-.074M99.312 77.032l-.398-.188" stroke-width="1.055"/><path d="m98.913 76.845-.45-.262" stroke-width="1.06"/><path d="m98.464 76.583-.422-.29M98.042 76.294l-.344-.309" stroke-width="1.058"/><path d="m97.698 75.985-.293-.332" stroke-width="1.04"/><path d="m97.405 75.653-.184-.383" stroke-width=".992"/><path d="m97.222 75.27-.133-.355" stroke-width=".894"/><path d="m99.655 76.556.129-.426" stroke-width=".923"/><path d="m99.784 76.13.188-.43" stroke-width=".981"/><path d="m99.972 75.7.21-.477" stroke-width="1.03"/><path d="m100.18 75.223.156-.285" stroke-width="1.044"/><path d="m100.34 74.938.188-.523" stroke-width="1.067"/><path d="m100.53 74.415.238-.402" stroke-width="1.068"/><path d="m100.76 74.013.156-.262" stroke-width="1.077"/><path d="m100.92 73.751.133-.36" stroke-width="1.076"/><path d="m101.05 73.391.188-.355" stroke-width="1.078"/><path d="m101.24 73.036.156-.332" stroke-width="1.075"/></g><g stroke="#000"><path d="m83.897 6.673.023-.309" stroke-width=".98"/><g stroke-width=".992"><path d="m83.921 6.364.398-.453M84.319 5.911l.344-.355M84.663 5.556l.422-.43"/></g><path d="m85.085 5.126.45-.477M85.534 4.65l.477-.497" stroke-width=".992"/><g stroke-width=".997"><path d="m86.011 4.153.45-.5M86.46 3.653l.422-.5M86.882 3.153l.371-.43"/></g><g stroke-width="1.003"><path d="m87.253 2.724.238-.38M87.491 2.345l.184-.29M87.675 2.055l.133-.308"/></g><path d="m87.808 1.747.188-.309" stroke-width=".373"/><path d="m84.901.25.023.31" stroke-width=".502"/><path d="m84.925.56.11.378" stroke-width=".53"/><path d="m85.034.938.129.524" stroke-width=".565"/><path d="m85.163 1.462.16.57" stroke-width=".568"/><path d="m85.323 2.032.16.5" stroke-width=".583"/><path d="m85.483 2.532.129.36" stroke-width=".594"/><path d="m85.612 2.892.133.332" stroke-width=".651"/><path d="M85.745 3.224v.332" stroke-width=".764"/><path d="m161.63 81.911.473-.238" stroke-width="1.001"/><path d="m162.1 81.673.398-.262" stroke-width="1.011"/><g stroke-width="1.028"><path d="m162.5 81.411.504-.355M163 81.056l.582-.406M163.58 80.649l.605-.477"/></g><path d="m164.19 80.173.637-.477M164.83 79.696l.633-.496M165.46 79.2l.61-.453" stroke-width="1.042"/><path d="m166.07 78.747.605-.453" stroke-width="1.041"/><path d="m166.67 78.294.559-.43" stroke-width="1.042"/><g stroke-width="1.046"><path d="m167.23 77.864.473-.379M167.71 77.485l.371-.332M168.08 77.153l.266-.238"/></g><path d="m163.11 76.321-.055.309" stroke-width=".692"/><path d="m163.05 76.63.055.45" stroke-width=".751"/><path d="m163.11 77.079.184.406" stroke-width=".792"/><path d="m163.29 77.485.238.43" stroke-width=".823"/><path d="m163.53 77.915.29.45" stroke-width=".866"/><path d="m163.82 78.364.32.453" stroke-width=".873"/><path d="m164.14 78.817.316.43" stroke-width=".895"/><path d="m164.46 79.247.29.379" stroke-width=".903"/><path d="m164.75 79.626.32.36M165.07 79.985l.234.355" stroke-width=".925"/><path d="m165.3 80.341.266.332" stroke-width=".939"/><path d="m165.57 80.673.316.336" stroke-width=".945"/><path d="m165.88 81.009.266.309M166.15 81.317l.238.215" stroke-width=".962"/><path d="m166.39 81.532.266.188" stroke-width=".974"/><path d="m166.65 81.72.29.215" stroke-width=".995"/><path d="m166.94 81.934.293.238" stroke-width="1.018"/></g></g></svg>