<svg width="168.227" height="184.413" version="1.2" viewBox="0 0 126.17 138.31" xmlns="http://www.w3.org/2000/svg"><g fill="none" stroke-linecap="round" stroke-linejoin="round" stroke-miterlimit="10"><path d="M58.79 137.968V7.448" stroke="#000" stroke-width=".686"/><path d="M.34 81.358h114.75" stroke="#000" stroke-width=".675"/><g stroke="#00bfff"><g stroke-width="1.41"><path d="m15.91 80.888 42.512-42.512M58.42 38.378l42.508 42.512M100.93 80.888l-42.508 42.508M58.42 123.398 15.908 80.89"/></g><path d="m52.04 24.37.496-.04" stroke-width=".87"/><path d="M52.53 24.331h.5" stroke-width=".871"/><path d="M53.03 24.331h.453" stroke-width=".873"/><path d="m53.49 24.331.543.121M54.03 24.452l.5.164" stroke-width=".875"/><path d="m54.53 24.616.363.164" stroke-width=".876"/><path d="m54.89 24.78.316.367" stroke-width=".875"/><path d="m55.21 25.147.18.242M55.39 25.389l.32.45" stroke-width=".874"/><path d="m55.71 25.838.227.367" stroke-width=".873"/><path d="m55.94 26.206.09.367" stroke-width=".866"/><path d="m56.03 26.573.09.328" stroke-width=".859"/><path d="M56.12 26.901v.367" stroke-width=".865"/><path d="m56.12 27.268-.18.324" stroke-width=".881"/><path d="m55.94 27.592-.184.29" stroke-width=".896"/><path d="m55.75 27.881-.406.324" stroke-width=".903"/><path d="m55.35 28.206-.316.164" stroke-width=".907"/><path d="m55.03 28.37-.32.164" stroke-width=".913"/><path d="M54.71 28.534h-.406" stroke-width=".927"/><path d="m54.3 28.534.453-.043" stroke-width=".895"/><path d="M54.76 28.491h.363" stroke-width=".894"/><path d="m55.12 28.491.363.043" stroke-width=".893"/><path d="m55.48 28.534.27.164" stroke-width=".89"/><path d="m55.75 28.698.273.16" stroke-width=".883"/><path d="m56.03 28.858.227.207" stroke-width=".868"/><path d="m56.25 29.065.227.367" stroke-width=".853"/><path d="m56.48 29.432.137.445M56.62 29.878l.137.41" stroke-width=".849"/><g stroke-width=".848"><path d="m56.75 30.288.043.406M56.8 30.694l.047.45M56.84 31.143l.043.45"/></g><path d="m56.89 31.592-.133.328" stroke-width=".857"/><path d="m56.75 31.92-.227.324" stroke-width=".87"/><path d="m56.53 32.245-.273.246" stroke-width=".873"/><path d="m56.25 32.491-.316.246M55.94 32.737l-.227.203" stroke-width=".874"/><path d="m55.71 32.94-.32.246" stroke-width=".887"/><path d="m55.39 33.186-.453.04M54.94 33.225l-.36.04" stroke-width=".892"/><path d="M54.58 33.264h-.32" stroke-width=".895"/><path d="m42.92 131.768.32-.04" stroke-width=".948"/><path d="m43.24 131.728.496-.043" stroke-width=".953"/><path d="m43.74 131.688.5-.078" stroke-width=".956"/><path d="m44.24 131.608.543-.043" stroke-width=".958"/><path d="m44.78 131.568.547-.082" stroke-width=".959"/><path d="M45.33 131.478h.543" stroke-width=".951"/><path d="M45.87 131.478h.5" stroke-width=".805"/><path d="M46.37 131.478h.34" stroke-width=".602"/><path d="M46.71 131.478h.34" stroke-width=".4"/><path d="m51.9 129.238.363-.043M52.26 129.198l.453-.082" stroke-width="1.037"/><path d="m52.72 129.118.496-.04" stroke-width="1.036"/><path d="M53.21 129.078h.32" stroke-width="1.035"/><path d="M53.53 129.078h.68" stroke-width="1.034"/><path d="M54.21 129.078h.496" stroke-width="1.024"/><path d="m54.71 129.078.32.04" stroke-width="1.012"/><path d="m55.03 129.118.406.285" stroke-width=".962"/><path d="m55.44 129.398.137.29" stroke-width=".928"/><path d="m55.57 129.688.09.445" stroke-width=".903"/><path d="M55.66 130.138v.45" stroke-width=".91"/><path d="m55.66 130.588-.043.41" stroke-width=".919"/><path d="m55.62 130.998-.137.406" stroke-width=".923"/><path d="m55.48 131.398-.137.328" stroke-width=".924"/><path d="m55.35 131.728-.316.203" stroke-width=".959"/><path d="m55.03 131.928-.41.203" stroke-width=".961"/><path d="m54.62 132.138-.316.125" stroke-width=".971"/><path d="m54.3 132.258-.41.04" stroke-width="1.017"/><path d="m53.89 132.298.273-.203M54.17 132.098h.41" stroke-width=".983"/><path d="m54.58 132.098.36.121" stroke-width=".979"/><path d="m54.94 132.218.273.164" stroke-width=".975"/><path d="m55.21 132.378.273.164M55.48 132.548l.227.324" stroke-width=".964"/><path d="m55.71 132.868.227.285" stroke-width=".966"/><path d="m55.94 133.158.18.246" stroke-width=".967"/><path d="m56.12 133.398.137.285" stroke-width=".971"/><path d="m56.25 133.688.09.367" stroke-width=".978"/><path d="m56.34 134.058.047.492" stroke-width=".982"/><path d="m56.39 134.548.043.324M56.43 134.868v.367" stroke-width=".983"/><path d="m56.43 135.238-.043.45" stroke-width=".986"/><path d="m56.39 135.688-.047.41" stroke-width=".99"/><path d="m56.34 136.098-.137.285" stroke-width=".991"/><path d="m56.21 136.378-.133.324" stroke-width=".999"/><path d="m56.07 136.708-.32.328" stroke-width="1.004"/><path d="m55.75 137.038-.363.285" stroke-width="1.007"/><path d="m55.39 137.318-.36.246" stroke-width="1.008"/><path d="m55.03 137.568-.32.203" stroke-width="1.013"/><path d="m102.32 88.188.09-.328M102.41 87.858l.453-.367" stroke-width="1.018"/><path d="m102.86 87.498.363-.203" stroke-width="1.013"/><path d="m103.23 87.288.316-.121" stroke-width="1.004"/><path d="M103.54 87.168h.32" stroke-width=".993"/><path d="m103.86 87.168.36.082" stroke-width=".975"/><path d="m104.22 87.248.32.324" stroke-width=".929"/><g stroke-width=".913"><path d="m104.54 87.578.137.285M104.68 87.858l.18.328M104.86 88.188l.137.324M104.99 88.518l.09.41"/></g><path d="m105.08 88.928.047.367" stroke-width=".917"/><path d="M105.13 89.288v.367" stroke-width=".921"/><path d="M105.13 89.658v.613" stroke-width=".926"/><path d="m105.13 90.268-.094.367" stroke-width=".934"/><path d="m105.04 90.638-.18.324" stroke-width=".958"/><path d="m104.86 90.968-.273.203" stroke-width=".987"/><path d="m104.58 91.168-.363.164" stroke-width=".999"/><path d="m104.22 91.328-.36.082" stroke-width="1.001"/><path d="M103.86 91.408h.36" stroke-width=".978"/><path d="m104.22 91.408.32.121" stroke-width=".975"/><path d="m104.54 91.538.363.246M104.91 91.778l.36.246" stroke-width=".974"/><path d="m105.26 92.028.184.242" stroke-width=".973"/><path d="m105.45 92.268.18.246" stroke-width=".959"/><path d="m105.63 92.518.184.41M105.81 92.928l.09.406M105.9 93.328v.328" stroke-width=".953"/><path d="m105.9 93.658.047.324" stroke-width=".954"/><path d="M105.95 93.978v.41M105.95 94.398l.043.406" stroke-width=".955"/><path d="M105.99 94.798v.328M105.99 95.128l-.043.324" stroke-width=".956"/><path d="m105.95 95.448-.047.41" stroke-width=".958"/><path d="m105.9 95.858-.184.367" stroke-width=".973"/><path d="m105.72 96.228-.316.242" stroke-width=".975"/><path d="m105.4 96.468-.27.246" stroke-width=".98"/><path d="m105.13 96.718-.41.043" stroke-width=".212"/><path d="m3.48 87.858.316.043" stroke-width="1.036"/><path d="m3.79 87.908.637-.082" stroke-width="1.06"/><path d="m4.43 87.818.406-.121" stroke-width="1.068"/><path d="m4.83 87.698.41-.164M5.25 87.538l.363-.125" stroke-width="1.073"/><path d="m5.61 87.408.316-.16M5.92 87.248l.316-.164" stroke-width="1.074"/><path d="m6.24 87.088.59-.164M6.83 86.928l.316-.082" stroke-width="1.073"/><path d="m7.15 86.838.32-.04" stroke-width="1.07"/><path d="M7.47 86.808h.453" stroke-width="1.044"/><path d="M7.92 86.808h.316" stroke-width=".914"/><path d="m11.32 85.618.363-.203M11.68 85.418l.59-.043M12.27 85.378h.316" stroke-width=".9"/><path d="M12.59 85.378h.363" stroke-width=".899"/><path d="m12.95 85.378.41.043" stroke-width=".898"/><path d="m13.36 85.418.68.242" stroke-width=".894"/><g stroke-width=".893"><path d="m14.04 85.658.27.164M14.31 85.818l.273.164M14.58 85.988l.273.242"/></g><path d="m14.86 86.228.36.29M15.22 86.518l.184.367" stroke-width=".893"/><path d="m15.4 86.888.09.45" stroke-width=".905"/><path d="M15.49 87.338v.488" stroke-width=".914"/><path d="m15.49 87.818-.043.531" stroke-width=".921"/><path d="m15.45 88.358-.094.45" stroke-width=".922"/><path d="m15.35 88.808-.09.324" stroke-width=".926"/><path d="m15.26 89.128-.227.367" stroke-width=".935"/><path d="m15.04 89.498-.18.246" stroke-width=".947"/><path d="m14.86 89.738-.32.285" stroke-width=".974"/><g stroke-width="1.048"><path d="m14.54 90.028.41-.121M14.95 89.908l.453.04M15.4 89.948l.543.164"/></g><path d="m15.94 90.108.453.203" stroke-width="1.044"/><path d="m16.4 90.308.32.285" stroke-width="1.033"/><path d="m16.72 90.598.27.41" stroke-width="1.034"/><path d="m16.99 91.008.137.324" stroke-width="1.038"/><path d="m17.12 91.328.137.285" stroke-width="1.041"/><path d="m17.26 91.618.137.367" stroke-width="1.042"/><path d="m17.4 91.978.227.574" stroke-width="1.043"/><path d="m17.62 92.558.133.45M17.76 93.008l.047.367" stroke-width="1.045"/><path d="M17.8 93.378v.406" stroke-width="1.05"/><path d="m17.8 93.778-.047.367" stroke-width="1.061"/><path d="m17.76 94.148-.18.285" stroke-width="1.067"/><path d="m17.58 94.428-.273.285" stroke-width="1.073"/><path d="m17.3 94.718-.27.246M17.03 94.968l-.273.203" stroke-width="1.077"/><path d="m16.76 95.168-.316.246" stroke-width="1.083"/></g><g stroke="#0f0"><path d="m44.25 66.718.09-1.586.265-1.566.442-1.528.61-1.468.765-1.391.922-1.297 1.058-1.184 1.184-1.058 1.297-.918 1.39-.77 1.47-.609 1.527-.437 1.566-.27 1.586-.086 1.586.086 1.566.27 1.528.437 1.468.61 1.391.769 1.297.918 1.184 1.058 1.058 1.184.918 1.297.77 1.39.609 1.47.437 1.527.27 1.566.086 1.586-.086 1.586-.27 1.566-.437 1.528-.61 1.468-.769 1.391-.918 1.297-1.058 1.183-1.184 1.06-1.297.921-1.39.766-1.47.609-1.527.441-1.566.266-1.586.09-1.586-.09-1.566-.266-1.528-.441-1.469-.61-1.39-.765-1.297-.922-1.184-1.059-1.058-1.183-.922-1.297-.766-1.39-.61-1.47-.44-1.527-.266-1.566-.09-1.586" stroke-width="1.41"/><path d="m51.63 65.018.227-.207" stroke-width=".981"/><path d="m51.85 64.808.41-.324" stroke-width="1.016"/><path d="m52.26 64.478.27-.246" stroke-width="1.034"/><path d="m52.53 64.238.363-.328" stroke-width="1.049"/><path d="m52.9 63.908.316-.324" stroke-width="1.058"/><path d="m53.21 63.588.32-.41" stroke-width="1.063"/><path d="m53.53 63.178.316-.367M53.85 62.808l.27-.406" stroke-width="1.067"/><path d="m54.12 62.398.23-.367" stroke-width="1.068"/><path d="m54.35 62.038.227-.285M54.58 61.748l.133-.328" stroke-width="1.071"/><path d="m54.71 61.418.184-.242" stroke-width="1.072"/><path d="m54.89 61.178.18-.367" stroke-width="1.073"/><path d="m55.07 60.808.184-.367" stroke-width="1.076"/><path d="m55.26 60.448.18-.41" stroke-width="1.077"/><path d="m55.44 60.038.047.367" stroke-width="1.056"/><path d="m55.48 60.398.043.45M55.53 60.848l.094.488" stroke-width="1.057"/><path d="m55.62 61.338.09.531" stroke-width="1.059"/><path d="m55.71 61.868.043.328M55.75 62.198v.324" stroke-width="1.06"/><path d="M55.75 62.518v.367" stroke-width="1.061"/><path d="M55.75 62.888v.367" stroke-width="1.064"/><g stroke-width="1.067"><path d="m55.75 63.258.047.367M55.8 63.628v.328M55.8 63.948l.047.367M55.85 64.318v.367M55.85 64.688v.328"/></g><path d="M55.85 65.018v.527M55.85 65.538v.367" stroke-width="1.068"/><g stroke-width="1.069"><path d="m55.85 65.908.043.328M55.89 66.238l.047.406M55.94 66.648v.328M55.94 66.968l.043.406"/></g><path d="m55.98 67.378.047.328" stroke-width="1.07"/><path d="m56.03 67.708.09.367" stroke-width="1.071"/><path d="m46.28 73.828-.36-.164" stroke-width="1.062"/><path d="m45.92 73.658-.227-.285" stroke-width="1.077"/><path d="m45.69 73.378-.23-.246M45.46 73.128l-.27-.203" stroke-width="1.082"/><path d="m45.19 72.928-.316-.246" stroke-width="1.081"/><path d="m44.87 72.678-.363-.285" stroke-width="1.082"/><path d="m44.51 72.398-.41-.285" stroke-width="1.086"/><path d="m44.1 72.108-.27-.285" stroke-width="1.087"/><path d="m43.83 71.828-.273-.246" stroke-width="1.09"/><path d="m43.56 71.578-.18-.242" stroke-width="1.097"/><path d="m43.38 71.338-.273-.328" stroke-width="1.103"/><path d="m43.1 71.008-.227-.203" stroke-width="1.107"/><path d="m42.88 70.808-.273-.285" stroke-width="1.111"/><path d="m42.6 70.518-.27-.328" stroke-width="1.118"/><path d="m42.33 70.198-.273-.324" stroke-width="1.124"/><path d="m42.06 69.868-.273-.29" stroke-width="1.132"/><path d="m41.79 69.578-.27-.285" stroke-width="1.133"/><path d="m41.52 69.298-.184-.242" stroke-width="1.06"/><path d="m46.82 73.578-.137-.324" stroke-width=".954"/><path d="M46.69 73.258v-.492" stroke-width=".967"/><path d="m46.69 72.768.043-.61" stroke-width=".983"/><path d="m46.73 72.158.137-.613" stroke-width=".991"/><path d="m46.87 71.538.137-.488" stroke-width="1.002"/><path d="m47 71.058.137-.367" stroke-width="1.003"/><g stroke-width="1.009"><path d="m47.14 70.688.09-.328M47.23 70.358l.137-.285M47.37 70.068l.09-.367"/></g><path d="m47.46 69.708.137-.328" stroke-width="1.01"/><path d="m47.59 69.378.137-.367" stroke-width="1.016"/><path d="m47.73 69.008.09-.406" stroke-width="1.02"/><path d="m47.82 68.608.047-.328" stroke-width="1.025"/><path d="m72.21 65.708-.32.367" stroke-width="1.052"/><path d="m71.89 66.068-.36.164M71.53 66.238l-.273.203" stroke-width="1.045"/><path d="m71.26 66.438-.453.367M70.81 66.808l-.273.246" stroke-width="1.04"/><path d="m70.53 67.058-.453.406" stroke-width="1.039"/><path d="m70.08 67.458-.227.246M69.85 67.708l-.227.246" stroke-width="1.034"/><path d="m69.63 67.948-.227.242" stroke-width="1.033"/><path d="m69.4 68.198-.316.367" stroke-width="1.028"/><path d="m69.08 68.558-.184.246" stroke-width="1.027"/><path d="m68.9 68.808-.36.406" stroke-width="1.026"/><g stroke-width="1.026"><path d="m68.54 69.218-.227.246M68.32 69.458l-.273.246M68.04 69.708l-.184.285"/></g><path d="m67.86 69.988-.36.367" stroke-width="1.026"/><path d="m67.5 70.358-.184.246" stroke-width="1.028"/><path d="m72.76 66.358-.09.367" stroke-width=".9"/><path d="m72.67 66.728.18.41" stroke-width=".904"/><path d="m72.85 67.138.227.324" stroke-width=".912"/><path d="m73.07 67.458.273.367" stroke-width=".916"/><path d="m73.35 67.828.227.328" stroke-width=".918"/><path d="m73.57 68.158.18.246" stroke-width=".919"/><path d="m73.75 68.398.184.367" stroke-width=".928"/><path d="m73.94 68.768.18.324" stroke-width=".938"/><path d="m74.12 69.088.273.41" stroke-width=".943"/><path d="m74.39 69.498.227.285" stroke-width=".947"/><path d="m74.62 69.788.227.203" stroke-width=".951"/><path d="m74.84 69.988.18.246" stroke-width=".956"/><path d="m75.02 70.238.273.242" stroke-width=".959"/><path d="m75.3 70.478.18.246" stroke-width="1.001"/></g><g stroke="#00bfff"><path d="m34.94 62.358-.137-.367" stroke-width=".926"/><path d="m34.81 61.998.043-.41M34.85 61.588l.094-.328" stroke-width=".93"/><g stroke-width=".93"><path d="m34.94 61.258.227-.652M35.17 60.608l.133-.367M35.3 60.238l.137-.324"/></g><path d="m35.44 59.908.227-.45" stroke-width=".931"/><path d="m35.67 59.468.184-.328M35.85 59.138l.137-.367" stroke-width=".93"/><g stroke-width=".931"><path d="m35.99 58.768.18-.324M36.17 58.448l.18-.492M36.35 57.948l.184-.488"/></g><path d="m36.53 57.468.18-.531" stroke-width=".927"/><g stroke-width=".927"><path d="m36.71 56.928.184-.45M36.89 56.478l.09-.324M36.98 56.158l.09-.45"/></g><path d="m37.07 55.708.137-.367" stroke-width=".922"/><path d="m37.21 55.338.09-.41" stroke-width=".918"/><path d="m37.3 54.928.09-.45" stroke-width=".917"/><path d="m37.39 54.478.137-.367" stroke-width=".916"/><path d="m37.53 54.118.09-.324" stroke-width=".907"/><path d="m36.48 61.668-.27-.328" stroke-width=".62"/><path d="m36.21 61.338-.32-.242" stroke-width=".623"/><path d="m35.89 61.098.547-.125" stroke-width=".914"/><path d="m36.44 60.968.363-.082" stroke-width=".928"/><path d="m36.8 60.888.406-.04" stroke-width=".934"/><path d="m37.21 60.848.5-.04" stroke-width=".945"/><path d="m37.71 60.808.453-.125" stroke-width=".953"/><path d="m38.16 60.688.316-.164" stroke-width=".958"/><path d="m38.48 60.518.5-.203" stroke-width=".96"/><g stroke-width=".96"><path d="m38.98 60.318.363-.121M39.34 60.198l.406-.043M39.75 60.158l.406-.04"/></g><path d="m40.16 60.118.41-.04" stroke-width=".961"/><path d="m40.57 60.078.5-.043" stroke-width=".966"/><path d="m41.07 60.038.406-.082" stroke-width=".967"/><path d="m41.47 59.948.316-.121" stroke-width=".969"/><path d="m39.07 104.108-.227-.328" stroke-width=".94"/><path d="m38.84 103.778-.137-.324" stroke-width=".969"/><path d="m38.71 103.448-.18-.367" stroke-width=".978"/><path d="m38.53 103.088-.227-.613" stroke-width=".997"/><path d="m38.3 102.468-.184-.367" stroke-width="1.005"/><path d="m38.12 102.108-.18-.45" stroke-width="1.012"/><path d="m37.94 101.658-.184-.45" stroke-width="1.026"/><path d="m37.75 101.208-.18-.45" stroke-width="1.038"/><path d="m37.57 100.758-.09-.45" stroke-width="1.047"/><path d="m37.48 100.308-.184-.406" stroke-width="1.053"/><path d="m37.3 99.898-.137-.367" stroke-width="1.061"/><path d="m37.16 99.538-.133-.367" stroke-width="1.071"/><path d="m37.03 99.168-.137-.328" stroke-width="1.08"/><path d="m36.89 98.838-.137-.367" stroke-width="1.086"/><path d="m36.76 98.468-.137-.324" stroke-width="1.09"/><path d="m36.62 98.148-.137-.41" stroke-width="1.096"/><path d="m36.48 97.738-.137-.406" stroke-width="1.101"/><path d="m36.35 97.328-.09-.367" stroke-width="1.105"/><path d="m36.26 96.968-.09-.328" stroke-width="1.108"/><path d="m36.17 96.638-.137-.367" stroke-width="1.112"/><path d="m36.03 96.268-.137-.367" stroke-width="1.09"/><path d="m38.25 103.288-.137-.328" stroke-width=".813"/><path d="m38.12 102.958-.273-.285" stroke-width=".852"/><path d="m37.84 102.678-.316-.203" stroke-width=".872"/><path d="m37.53 102.468-.453-.246" stroke-width=".903"/><path d="m37.07 102.228-.5-.242" stroke-width=".945"/><path d="m36.57 101.978-.586-.246" stroke-width=".959"/><path d="m35.99 101.738-.32-.121M35.67 101.618l-.363-.164" stroke-width=".964"/><g stroke-width=".965"><path d="m35.3 101.448-.406-.121M34.9 101.328l-.363-.164M34.53 101.168l-.363-.164"/></g><path d="m34.17 100.998-.27-.164M33.9 100.838l-.453-.203" stroke-width=".966"/><path d="m33.45 100.638-.41-.164" stroke-width=".971"/><path d="m33.04 100.468-.453-.121" stroke-width=".979"/><path d="m32.58 100.348-.5-.125" stroke-width=".985"/><path d="m32.08 100.228-.406-.16" stroke-width=".989"/><path d="m31.68 100.068-.316-.125" stroke-width=".996"/><path d="m31.36 99.938-.363-.082" stroke-width="1.011"/><path d="m31 99.858-.316-.078" stroke-width="1.018"/><path d="m30.68 99.778-.41-.125" stroke-width="1.022"/><path d="m82.19 99.938-.453-.121" stroke-width=".944"/><path d="m81.73 99.818-.453-.121" stroke-width=".953"/><path d="m81.28 99.698-.363-.082" stroke-width=".962"/><path d="m80.92 99.618-.316-.082" stroke-width=".978"/><path d="m80.6 99.538-.363-.082" stroke-width=".995"/><path d="m80.24 99.448-.363-.04" stroke-width="1.006"/><path d="m79.87 99.408-.36-.082" stroke-width="1.014"/><path d="m79.51 99.328-.363-.043M79.15 99.288l-.363-.04" stroke-width="1.019"/><path d="M78.79 99.248h-.363" stroke-width="1.023"/><path d="M78.42 99.248h-.363" stroke-width="1.028"/><path d="M78.06 99.248h-.316" stroke-width="1.031"/><path d="M77.75 99.248h-.316" stroke-width="1.035"/><path d="M77.43 99.248h-.547" stroke-width="1.042"/><path d="M76.88 99.248h-.316" stroke-width="1.044"/><path d="m76.57 99.248-.633.04" stroke-width="1.049"/><path d="M75.93 99.288h-.363" stroke-width="1.052"/><path d="m75.57 99.288-.363.043" stroke-width="1.058"/><path d="m75.21 99.328-.363.04" stroke-width="1.059"/><path d="m74.84 99.368-.363.043" stroke-width="1.06"/><path d="m74.48 99.408-.316.078M74.16 99.488l-.453.082" stroke-width="1.063"/><path d="m73.71 99.568-.41.082" stroke-width="1.061"/><path d="m73.3 99.658.32-.082" stroke-width=".267"/><path d="m82.14 100.268-.09.45" stroke-width=".868"/><path d="m82.05 100.718-.047.367" stroke-width=".873"/><path d="m82.01 101.088-.047.45" stroke-width=".877"/><path d="M81.96 101.538v.488" stroke-width=".882"/><path d="m81.96 102.018-.043.531" stroke-width=".887"/><path d="M81.92 102.558v.57M81.92 103.128l-.047.328" stroke-width=".891"/><path d="M81.87 103.448v.57" stroke-width=".892"/><path d="m81.87 104.018-.09.57" stroke-width=".896"/><path d="m81.78 104.588-.047.367" stroke-width=".902"/><path d="M81.73 104.958v.328" stroke-width=".906"/><path d="m81.73 105.288-.043.367M81.69 105.658l-.047.367M81.64 106.018v.367" stroke-width=".909"/><path d="m81.64 106.388-.047.367" stroke-width=".91"/><path d="m81.6 106.758-.043.367" stroke-width=".911"/><path d="m81.55 107.128-.047.57" stroke-width=".915"/><path d="m81.51 107.698-.043.45" stroke-width=".93"/><path d="M81.46 108.148v.406" stroke-width=".945"/><path d="M81.46 108.548v.41" stroke-width=".982"/><path d="m81.46 108.958.133-.285" stroke-width=".403"/><path d="m80.46 60.808-.18.406" stroke-width="1.066"/><path d="M80.28 61.218v.328" stroke-width="1.07"/><g stroke-width="1.073"><path d="m80.28 61.548.043.367M80.33 61.908l.094.367M80.42 62.278l.09.406"/></g><path d="m80.51 62.688.137.367" stroke-width="1.074"/><g stroke-width="1.077"><path d="m80.65 63.058.18.613M80.83 63.668l.137.285M80.96 63.948l.047.324"/></g><path d="m81.01 64.278.09.371M81.1 64.648l.043.324M81.14 64.968v.367" stroke-width="1.081"/><path d="m81.14 65.338.047.613" stroke-width="1.082"/><path d="M81.19 65.948v.406" stroke-width="1.083"/><path d="m81.19 66.358.047.328M81.24 66.688l.043.324M81.28 67.008v.328" stroke-width="1.084"/><path d="M81.28 67.338v.406" stroke-width="1.081"/><path d="M81.28 67.748v.367" stroke-width="1.079"/><path d="M81.28 68.108v.367" stroke-width="1.067"/><path d="m81.28 68.478.273.164" stroke-width=".505"/><path d="m80.6 60.478.363.082" stroke-width="1.026"/><path d="M80.96 60.568h.5" stroke-width="1.045"/><path d="M81.46 60.568h.36" stroke-width="1.049"/><path d="M81.82 60.568h.32M82.14 60.568h.316" stroke-width="1.052"/><path d="M82.46 60.568h.363" stroke-width="1.058"/><path d="M82.82 60.568h.59" stroke-width="1.068"/><path d="M83.41 60.568h.316" stroke-width="1.074"/><path d="M83.73 60.568h.316" stroke-width="1.077"/><path d="M84.05 60.568h.363" stroke-width="1.082"/><path d="m84.41 60.568.637-.043" stroke-width="1.083"/><path d="m85.05 60.518.543-.04" stroke-width="1.084"/><path d="M85.59 60.478h.316" stroke-width="1.085"/><path d="M85.91 60.478h.543M86.45 60.478h.547" stroke-width="1.086"/><path d="m86.99 60.478.363.04" stroke-width="1.087"/><path d="m87.36 60.518.406.043" stroke-width="1.092"/><path d="M87.76 60.568h.363" stroke-width="1.091"/><path d="M88.13 60.568h.316" stroke-width="1.092"/></g><g stroke="#000"><path d="M58.61 7.6h-.41" stroke-width=".952"/><path d="m58.2 7.6-.227.285" stroke-width=".953"/><path d="m57.98 7.885-.227.367" stroke-width=".958"/><g stroke-width=".958"><path d="m57.75 8.253-.316.406M57.43 8.659l-.227.328M57.21 8.987l-.273.45"/></g><path d="m56.93 9.436-.273.45M56.66 9.885l-.133.285M56.53 10.17l-.137.285" stroke-width=".959"/><path d="m56.39 10.456-.273.45" stroke-width=".96"/><path d="m56.12 10.905-.27.367" stroke-width=".97"/><path d="m55.85 11.272-.273.328" stroke-width=".983"/><path d="m55.57 11.6-.227.242" stroke-width=".99"/><path d="m55.35 11.842-.227.207"/><path d="m55.12 12.049-.316.324" stroke-width="1.007"/><path d="m54.8 12.374-.32.328" stroke-width="1.008"/><path d="m54.48 12.702-.316.203" stroke-width="1.01"/><path d="m58.88 7.233.09.488" stroke-width=".887"/><path d="m58.97 7.721.363.328" stroke-width=".889"/><path d="m59.33 8.049.41.285M59.75 8.335l.453.324" stroke-width=".893"/><path d="m60.2 8.659.5.328M60.7 8.987l.27.164" stroke-width=".897"/><path d="m60.97 9.151.363.285" stroke-width=".901"/><path d="m61.33 9.436.273.203" stroke-width=".903"/><path d="m61.6 9.639.27.203" stroke-width=".908"/><path d="m61.87 9.842.32.367" stroke-width=".915"/><path d="m62.19 10.21.27.246" stroke-width=".916"/><path d="m62.46 10.456.316.246" stroke-width=".923"/><path d="m62.78 10.702.273.242M63.05 10.944l.363.29" stroke-width=".928"/><path d="m63.42 11.233.273.242M63.69 11.475l.27.246" stroke-width=".929"/><path d="m63.96 11.721.363.328" stroke-width=".934"/><path d="m64.32 12.049.273.203" stroke-width=".957"/><path d="m47.55 11.354-.133-.41" stroke-width=".997"/><path d="m47.41 10.944.18-.367"/><path d="m47.59 10.577.18-.527" stroke-width="1.005"/><path d="m47.77 10.049.273-.531M48.05 9.518l.273-.57" stroke-width="1.01"/><path d="m48.32 8.948.316-.656" stroke-width="1.014"/><g stroke-width="1.017"><path d="m48.64 8.292.406-.61M49.04 7.682l.363-.652M49.41 7.03l.453-.652M49.86 6.378l.41-.613"/></g><path d="m50.27 5.764.316-.57M50.58 5.194l.363-.492" stroke-width="1.018"/><path d="m50.95 4.702.227-.406M51.17 4.296l.227-.328M51.4 3.967l.18-.242" stroke-width="1.019"/><g stroke-width="1.02"><path d="m51.58 3.725.363-.371M51.94 3.354l.32-.285M52.26 3.069l.27-.406M52.53 2.663l.227-.285"/></g><path d="m52.76 2.378.184-.246" stroke-width="1.02"/><path d="m52.94 2.131.227-.285" stroke-width="1.021"/><path d="m53.17 1.846.316-.406" stroke-width="1.022"/><path d="m47.96.378-.227.285" stroke-width=".756"/><path d="m47.73.663.137.531" stroke-width=".789"/><path d="m47.87 1.194.18.406" stroke-width=".797"/><path d="m48.05 1.6.227.41" stroke-width=".812"/><path d="m48.27 2.01.184.242" stroke-width=".823"/><path d="m48.46 2.253.18.246" stroke-width=".83"/><path d="m48.64 2.499.137.285" stroke-width=".831"/><path d="m48.77 2.784.18.246" stroke-width=".835"/><path d="m48.95 3.03.227.45" stroke-width=".843"/><path d="m49.18 3.479.227.367" stroke-width=".854"/><path d="m49.41 3.846.184.246" stroke-width=".862"/><path d="m49.59 4.092.18.285" stroke-width=".868"/><path d="m49.77 4.378.184.324" stroke-width=".879"/><path d="m49.95 4.702.227.328" stroke-width=".892"/><path d="m50.18 5.03.18.406" stroke-width=".901"/><path d="m115.01 81.498-.41-.082" stroke-width=".95"/><path d="m114.6 81.418-.227-.203" stroke-width=".994"/><path d="m114.38 81.218-.316-.367" stroke-width="1.017"/><path d="m114.06 80.848-.27-.41" stroke-width="1.03"/><path d="m113.79 80.438-.184-.45M113.61 79.988l-.227-.45" stroke-width="1.034"/><path d="m113.38 79.538-.137-.367" stroke-width="1.035"/><path d="m113.25 79.168-.137-.285" stroke-width="1.036"/><path d="m113.11 78.888-.27-.45" stroke-width="1.041"/><path d="m112.84 78.438-.227-.367" stroke-width="1.052"/><path d="m112.61 78.068-.273-.45" stroke-width="1.071"/><path d="m112.34 77.618-.18-.367" stroke-width="1.075"/><path d="m112.16 77.248-.227-.285" stroke-width="1.048"/><path d="m111.93 76.968.27-.367" stroke-width=".345"/><path d="m114.56 81.338-.41-.082" stroke-width=".917"/><path d="m114.15 81.248-.227.41" stroke-width=".918"/><path d="m113.92 81.658-.27.488" stroke-width=".927"/><path d="m113.66 82.148-.273.488" stroke-width=".934"/><path d="m113.38 82.638-.18.285" stroke-width=".942"/><path d="m113.2 82.928-.227.328" stroke-width=".948"/><path d="m112.98 83.248-.227.324" stroke-width=".96"/><path d="m112.75 83.578-.184.246" stroke-width=".964"/><path d="m112.57 83.818-.137.285" stroke-width=".966"/><path d="m112.43 84.108-.227.41" stroke-width=".967"/><path d="m112.2 84.518-.137.285" stroke-width=".969"/><path d="m112.07 84.808-.227.203" stroke-width=".95"/><path d="m117.87 87.778.184-.324" stroke-width="1.04"/><path d="m118.05 87.458.36-.45" stroke-width="1.05"/><path d="m118.41 87.008.5-.652" stroke-width="1.058"/><path d="m118.91 86.358.59-.734" stroke-width="1.064"/><path d="m119.5 85.618.637-.777" stroke-width="1.065"/><path d="m120.14 84.838.633-.816M120.77 84.028l.637-.773" stroke-width="1.068"/><path d="m121.41 83.248.543-.695M121.95 82.558l.406-.57" stroke-width="1.069"/><g stroke-width="1.07"><path d="m122.36 81.988.41-.531M122.77 81.458l.27-.367M123.04 81.088l.227-.285"/></g><path d="m123.26 80.808.184-.246" stroke-width="1.07"/><g stroke-width="1.071"><path d="m123.45 80.558.18-.285M123.63 80.268l.184-.242M123.81 80.028l.18-.285"/></g><path d="m123.99 79.748.184-.367" stroke-width="1.072"/><path d="m118.51 81.418.363.285" stroke-width=".843"/><path d="m118.87 81.698.27.164" stroke-width=".877"/><path d="m119.14 81.868.273.242" stroke-width=".901"/><path d="m119.41 82.108.273.207" stroke-width=".921"/><path d="m119.69 82.318.27.242" stroke-width=".934"/><path d="m119.96 82.558.273.207" stroke-width=".941"/><path d="m120.23 82.768.27.242M120.5 83.008l.273.203" stroke-width=".946"/><path d="m120.77 83.208.316.246M121.09 83.458l.32.203" stroke-width=".948"/><path d="m121.41 83.658.316.246M121.73 83.908l.27.246" stroke-width=".949"/><path d="m121.99 84.148.32.203" stroke-width=".95"/><path d="m122.32 84.358.27.246" stroke-width=".951"/><path d="m122.58 84.598.41.285" stroke-width=".952"/><path d="m122.99 84.888.27.203" stroke-width=".953"/><path d="m123.26 85.088.363.285M123.63 85.378l.32.164" stroke-width=".955"/><path d="m123.95 85.538.27.285" stroke-width=".956"/><path d="m124.22 85.818.273.285" stroke-width=".958"/><path d="m124.49 86.108.363.367" stroke-width=".96"/><path d="m124.85 86.478.316.246" stroke-width=".961"/><path d="m125.17 86.718.227.285" stroke-width=".98"/><path d="m125.4 87.008.273.328" stroke-width=".993"/></g></g></svg>