<svg width="99.791" height="171.093" version="1.2" viewBox="0 0 74.843 128.32" xmlns="http://www.w3.org/2000/svg"><g fill="none" stroke-linecap="round" stroke-linejoin="round" stroke-miterlimit="10"><path d="M11.283 17.52v93.688" stroke="#00bfff" stroke-width=".802"/><path d="M53.289 17.508v92.473" stroke="#00bfff" stroke-width=".756"/><g stroke="red"><path d="m11.373 18.27.352.316" stroke-width=".855"/><path d="m11.725 18.586.441.555" stroke-width=".876"/><path d="m12.166 19.141.219.277" stroke-width=".881"/><path d="m12.389 19.418.266.355" stroke-width=".885"/><path d="m12.649 19.774.219.316" stroke-width=".888"/><path d="m12.869 20.09.309.355" stroke-width=".889"/><path d="m13.179 20.446.262.395" stroke-width=".893"/><path d="m13.439 20.84.355.398" stroke-width=".898"/><path d="m13.799 21.239.352.395" stroke-width=".905"/><g stroke-width=".909"><path d="m14.149 21.633.395.395M14.539 22.028l.395.438M14.939 22.465l.398.355"/></g><path d="m15.329 22.821.395.395" stroke-width=".913"/><path d="m15.729 23.215.395.355" stroke-width=".914"/><path d="m16.119 23.571.441.398" stroke-width=".918"/><path d="m16.569 23.969.438.355" stroke-width=".923"/><path d="m16.999 24.324.484.355" stroke-width=".926"/><path d="m17.489 24.68.527.355" stroke-width=".929"/><path d="m18.009 25.035.527.36" stroke-width=".93"/><path d="m18.539 25.395.574.316" stroke-width=".934"/><path d="m19.119 25.711.613.316" stroke-width=".935"/><path d="m19.729 26.028.66.355" stroke-width=".936"/><path d="m20.389 26.383.707.316" stroke-width=".94"/><path d="m21.099 26.699.746.238" stroke-width=".944"/><path d="m21.839 26.938.793.316M22.639 27.254l.836.238" stroke-width=".949"/><path d="m23.469 27.492.79.277" stroke-width=".953"/><path d="m24.259 27.77.793.234" stroke-width=".959"/><path d="m25.049 28.004.79.238" stroke-width=".967"/><path d="m25.839 28.242.75.238" stroke-width=".975"/><path d="m26.589 28.481.793.156" stroke-width=".982"/><path d="m27.389 28.637.79.238M28.169 28.875l.75.121" stroke-width=".987"/><path d="m28.919 28.996.79.117" stroke-width=".992"/><path d="m29.709 29.113.75.16" stroke-width=".995"/><path d="m30.459 29.274.703.04"/><path d="m31.169 29.313.746.117" stroke-width="1.004"/><path d="m31.909 29.43.75.04" stroke-width="1.01"/><path d="m32.659 29.469.746.04" stroke-width="1.015"/><path d="m33.409 29.508.746.043" stroke-width="1.022"/><path d="M34.159 29.551h.707" stroke-width="1.027"/><path d="M34.859 29.551h.703" stroke-width="1.032"/><path d="m35.569 29.551.613-.043" stroke-width="1.036"/><path d="M36.179 29.508h.617" stroke-width="1.041"/><path d="m36.799 29.508.527-.078" stroke-width="1.049"/><path d="m37.319 29.43.527-.078" stroke-width="1.054"/><path d="m37.849 29.352.527-.121" stroke-width="1.058"/><path d="m38.379 29.231.484-.117" stroke-width="1.063"/><path d="m38.859 29.113.441-.156" stroke-width="1.067"/><path d="m39.299 28.957.484-.121" stroke-width="1.07"/><path d="m39.789 28.836.527-.156" stroke-width="1.073"/><path d="m40.319 28.68.484-.16" stroke-width="1.074"/><path d="m40.799 28.52.438-.2" stroke-width="1.081"/><path d="m41.239 28.321.441-.195" stroke-width="1.085"/><path d="m41.679 28.125.438-.238" stroke-width="1.086"/><path d="m42.119 27.887.398-.238" stroke-width="1.094"/><path d="m42.509 27.649.438-.277" stroke-width="1.097"/><path d="m42.949 27.371.398-.277M43.349 27.094l.352-.277" stroke-width="1.102"/><path d="m43.699 26.817.305-.316" stroke-width="1.105"/><path d="m44.009 26.5.355-.234M44.359 26.266l.305-.32" stroke-width="1.107"/><g stroke-width="1.107"><path d="m44.669 25.946.309-.316M44.979 25.629l.398-.316M45.369 25.313l.305-.277M45.679 25.035l.398-.316"/></g><path d="m46.079 24.719.305-.234M46.379 24.485l.309-.277M46.689 24.207l.398-.238M47.089 23.969l.305-.277M47.389 23.692l.441-.316" stroke-width="1.108"/><path d="m47.829 23.375.441-.355" stroke-width="1.109"/><path d="m48.279 23.02.527-.398" stroke-width="1.112"/><path d="m48.799 22.621.527-.395" stroke-width="1.113"/><path d="m49.329 22.227.484-.434M49.819 21.793l.484-.398" stroke-width="1.114"/><path d="m50.299 21.395.438-.395M50.739 21l.352-.316" stroke-width="1.118"/><path d="m51.089 20.684.352-.316" stroke-width="1.119"/><path d="m51.439 20.367.223-.238" stroke-width="1.123"/><path d="m51.659 20.129.262-.316" stroke-width="1.126"/><path d="m51.919 19.813.219-.277" stroke-width="1.135"/><path d="m52.139 19.535.223-.316" stroke-width="1.137"/><path d="m52.369 19.219.176-.316" stroke-width="1.139"/><path d="m52.539 18.903.176-.438" stroke-width="1.14"/><path d="m52.719 18.465.133-.316" stroke-width="1.143"/><path d="m52.849 18.149.129-.355" stroke-width="1.145"/><path d="m52.979 17.793.047-.316" stroke-width="1.149"/><path d="M53.029 17.477 52.896 17" stroke-width=".42"/><path d="m11.463 18.071-.043-.395" stroke-width="1.085"/><path d="m11.42 17.676-.09-.398" stroke-width="1.116"/><path d="M11.33 17.278v-.316M11.33 16.961v-.473M11.33 16.489v-.594M11.33 15.895l.047-.355" stroke-width="1.128"/><path d="m11.377 15.539.086-.36M11.463 15.18l.227-.434M11.689 14.746l.223-.437M11.912 14.309l.27-.434" stroke-width="1.127"/><path d="m12.182 13.875.36-.477M12.539 13.399l.316-.473" stroke-width="1.126"/><path d="m12.859 12.926.402-.516M13.259 12.41l.36-.477" stroke-width="1.125"/><path d="m13.619 11.934.406-.473M14.029 11.461l.45-.477" stroke-width="1.124"/><path d="m14.479 10.985.45-.473M14.919 10.512l.402-.477" stroke-width="1.123"/><g stroke-width="1.124"><path d="m15.329 10.035.45-.473M15.779 9.563l.45-.437M16.229 9.125l.45-.434"/></g><path d="m16.669 8.692.54-.477" stroke-width="1.124"/><path d="m17.209 8.215.54-.477M17.749 7.739l.629-.473" stroke-width="1.125"/><path d="m18.379 7.266.676-.516" stroke-width="1.126"/><path d="m19.059 6.75.719-.516" stroke-width="1.127"/><g stroke-width="1.127"><path d="m19.779 6.235.719-.512M20.499 5.723l.715-.477M21.209 5.246l.676-.395"/></g><path d="m21.889 4.852.672-.316" stroke-width="1.127"/><path d="m22.559 4.535.629-.316" stroke-width="1.126"/><path d="m23.189 4.219.629-.238M23.819 3.981l.586-.16" stroke-width="1.123"/><path d="m24.399 3.821.629-.195" stroke-width="1.122"/><path d="m25.029 3.625.582-.121" stroke-width="1.121"/><g stroke-width="1.12"><path d="m25.609 3.504.629-.117M26.239 3.387l.676-.078M26.919 3.309l.672-.121"/></g><path d="m27.589 3.188.719-.078" stroke-width="1.116"/><path d="m28.309 3.11.676-.078M28.979 3.031l.719-.043" stroke-width="1.115"/><g stroke-width="1.115"><path d="M29.699 2.989h.715M30.419 2.989h.719M31.139 2.989h.676"/></g><path d="m31.809 2.989.719.043" stroke-width="1.118"/><path d="m32.529 3.031.672.078M33.199 3.11l.719.078" stroke-width="1.119"/><path d="m33.919 3.188.719.078M34.639 3.266l.719.082" stroke-width="1.125"/><path d="m35.359 3.348.766.117" stroke-width="1.129"/><path d="m36.119 3.465.719.16M36.839 3.625l.719.156" stroke-width="1.13"/><path d="m37.559 3.781.672.16" stroke-width="1.131"/><path d="m38.229 3.942.676.234" stroke-width="1.132"/><g stroke-width="1.135"><path d="m38.909 4.176.672.16M39.579 4.336l.672.238M40.249 4.574l.676.195M40.929 4.77l.672.277"/></g><path d="m41.599 5.047.586.238M42.189 5.285l.582.277" stroke-width="1.136"/><path d="m42.769 5.563.496.277" stroke-width="1.137"/><path d="m43.259 5.84.36.238M43.619 6.078l.402.238" stroke-width="1.136"/><path d="m44.029 6.317.316.234" stroke-width="1.135"/><path d="m44.339 6.551.313.238" stroke-width="1.132"/><path d="m44.659 6.789.36.238" stroke-width="1.131"/><path d="m45.009 7.028.316.238" stroke-width="1.13"/><g stroke-width="1.13"><path d="m45.329 7.266.36.277M45.689 7.543l.27.316M45.959 7.86l.27.277"/></g><path d="m46.229 8.137.313.277" stroke-width="1.13"/><g stroke-width="1.134"><path d="m46.539 8.414.27.234M46.809 8.649l.27.277M47.079 8.926l.27.238"/></g><path d="m47.349 9.164.27.277" stroke-width="1.134"/><path d="m47.619 9.442.27.238" stroke-width="1.135"/><g stroke-width="1.138"><path d="m47.889 9.68.27.277M48.159 9.957l.223.238M48.379 10.196l.227.234"/></g><path d="m48.609 10.43.223.238M48.829 10.668l.227.277" stroke-width="1.139"/><path d="m49.059 10.946.402.516" stroke-width="1.143"/><path d="m49.459 11.461.137.277M49.599 11.739l.45.473M50.049 12.211l.133.316" stroke-width="1.144"/><path d="m50.179 12.528.36.555" stroke-width="1.146"/><g stroke-width="1.147"><path d="m50.539 13.082.316.516M50.849 13.598l.27.395M51.119 13.992l.18.277M51.299 14.27l.18.316M51.479 14.586l.223.398M51.709 14.985l.27.316"/></g><path d="m51.979 15.301.227.277" stroke-width="1.148"/><path d="m52.199 15.578.18.395" stroke-width="1.149"/><path d="m52.379 15.973.133.277" stroke-width="1.151"/><path d="m52.509 16.25.09.395" stroke-width=".992"/><path d="M52.599 16.645v.477" stroke-width=".842"/><path d="M52.599 17.121v.516" stroke-width=".62"/><path d="m52.599 17.637.09.395" stroke-width=".409"/><path d="m11.643 110.921-.047.398" stroke-width="1.029"/><path d="m11.596 111.321.324.395" stroke-width="1.055"/><path d="m11.92 111.721.375.477" stroke-width="1.075"/><path d="m12.299 112.191.281.277" stroke-width="1.087"/><path d="m12.579 112.471.188.277" stroke-width="1.092"/><path d="m12.759 112.751.234.277" stroke-width="1.096"/><path d="m12.999 113.031.281.273" stroke-width="1.102"/><path d="m13.279 113.301.234.36" stroke-width="1.109"/><path d="m13.509 113.661.281.234" stroke-width="1.112"/><path d="m13.799 113.891.328.36" stroke-width="1.113"/><path d="m14.119 114.251.328.316" stroke-width="1.114"/><path d="m14.449 114.571.375.355" stroke-width="1.119"/><path d="m14.829 114.921.465.395" stroke-width="1.122"/><path d="m15.289 115.321.469.355" stroke-width="1.123"/><path d="m15.759 115.681.469.398" stroke-width="1.127"/><path d="m16.229 116.071.516.395M16.749 116.471l.516.395" stroke-width="1.128"/><path d="m17.259 116.861.563.398" stroke-width="1.129"/><path d="m17.819 117.261.516.395" stroke-width="1.133"/><path d="m18.339 117.661.559.316" stroke-width="1.134"/><path d="m18.899 117.971.61.277M19.509 118.251l.61.277" stroke-width="1.139"/><path d="m20.119 118.531.656.238" stroke-width="1.146"/><path d="m20.769 118.761.703.277" stroke-width="1.151"/><path d="m21.479 119.041.746.234" stroke-width="1.154"/><path d="m22.219 119.281.797.238" stroke-width="1.155"/><path d="m23.019 119.511.89.238" stroke-width="1.16"/><path d="m23.909 119.751.938.16" stroke-width="1.165"/><path d="m24.849 119.911.934.156M25.779 120.071l.984.121" stroke-width="1.17"/><path d="m26.759 120.191.984.117M27.749 120.311l1.027.117" stroke-width="1.171"/><path d="m28.779 120.421.984.082" stroke-width="1.176"/><path d="m29.759 120.511.984.04" stroke-width="1.183"/><path d="m30.749 120.551.984.04" stroke-width="1.192"/><path d="m31.729 120.591.934-.04" stroke-width="1.202"/><path d="M32.659 120.551h.984" stroke-width="1.209"/><path d="m33.649 120.551.938-.082" stroke-width="1.215"/><path d="m34.589 120.461.934-.078" stroke-width="1.216"/><path d="m35.519 120.391.938-.117M36.459 120.271l.844-.121" stroke-width="1.22"/><path d="m37.299 120.151.797-.117" stroke-width="1.221"/><path d="m38.099 120.031.75-.117" stroke-width="1.222"/><path d="m38.849 119.911.7-.121M39.549 119.791l.703-.117" stroke-width="1.227"/><path d="m40.249 119.681.61-.121" stroke-width="1.228"/><path d="m40.859 119.551.656-.078" stroke-width="1.234"/><path d="m41.509 119.481.703-.117" stroke-width="1.24"/><path d="m42.219 119.361.652-.121" stroke-width="1.243"/><path d="m42.869 119.241.656-.195" stroke-width="1.244"/><path d="m43.529 119.041.656-.16" stroke-width="1.253"/><path d="m44.179 118.881.656-.238" stroke-width="1.261"/><path d="m44.839 118.641.656-.316" stroke-width="1.27"/><path d="m45.499 118.331.7-.277" stroke-width="1.275"/><path d="m46.189 118.051.703-.355" stroke-width="1.278"/><path d="m46.899 117.691.656-.277" stroke-width="1.279"/><path d="m47.549 117.421.563-.277M48.119 117.141l.422-.277M48.539 116.861l.375-.156" stroke-width="1.28"/><path d="m48.909 116.711.277-.2" stroke-width="1.281"/><path d="m49.189 116.511.422-.195M49.609 116.311l.422-.277" stroke-width="1.284"/><path d="m50.029 116.031.422-.277" stroke-width="1.288"/><path d="m50.459 115.761.563-.516M51.019 115.241l.281-.355" stroke-width="1.292"/><path d="m51.299 114.891.328-.355" stroke-width="1.295"/><path d="m51.629 114.531.328-.398" stroke-width="1.296"/><path d="m51.959 114.131.234-.355M52.189 113.781l.277-.277" stroke-width="1.297"/><path d="m52.469 113.501.187-.316" stroke-width="1.298"/><path d="m52.659 113.181.281-.477" stroke-width="1.307"/><g stroke-width="1.31"><path d="m52.939 112.711.187-.434M53.119 112.271l.188-.434M53.309 111.841l.14-.477"/></g><path d="m53.449 111.361.14-.316M53.589 111.051l.14-.395" stroke-width="1.311"/><path d="m53.729 110.651.188-.398" stroke-width="1.316"/><path d="m53.919 110.251.094-.434" stroke-width="1.341"/><g stroke-dasharray="6, 3"><path d="m10.803 110.141.262-.355" stroke-width="1.075"/><path d="m11.064 109.781.223-.316" stroke-dashoffset=".443" stroke-width="1.078"/><path d="m11.287 109.461.309-.36" stroke-dashoffset=".829" stroke-width="1.081"/><path d="m11.596 109.101.352-.395" stroke-dashoffset="1.3" stroke-width="1.084"/><path d="m11.947 108.711.352-.434" stroke-dashoffset="1.829" stroke-width="1.085"/><g stroke-width="1.088"><path d="m12.299 108.281.438-.438" stroke-dashoffset="2.389"/><path d="m12.739 107.841.441-.434" stroke-dashoffset="3.008"/><path d="m13.179 107.411.438-.477" stroke-dashoffset="3.627"/><path d="m13.619 106.931.441-.434" stroke-dashoffset="4.274"/><path d="m14.059 106.501.484-.438" stroke-dashoffset="4.893"/><path d="m14.539 106.061.527-.434" stroke-dashoffset="5.544"/></g><path d="m15.069 105.621.527-.398" stroke-dashoffset="6.228" stroke-width="1.089"/><path d="m15.599 105.231.527-.395" stroke-dashoffset="6.888" stroke-width="1.094"/><path d="m16.119 104.831.574-.395" stroke-dashoffset="7.547" stroke-width="1.099"/><path d="m16.699 104.441.57-.398" stroke-dashoffset="8.243" stroke-width="1.109"/><path d="m17.269 104.041.617-.395" stroke-dashoffset="8.938" stroke-width="1.119"/><path d="m17.889 103.641.613-.395" stroke-dashoffset=".67" stroke-width="1.126"/><path d="m18.499 103.251.66-.438" stroke-dashoffset="1.402" stroke-width="1.132"/><path d="m19.159 102.811.66-.434" stroke-dashoffset="2.193" stroke-width="1.137"/><path d="m19.819 102.381.66-.398" stroke-dashoffset="2.983" stroke-width="1.142"/><path d="m20.479 101.981.617-.395" stroke-dashoffset="3.752" stroke-width="1.145"/><path d="m21.099 101.591.613-.316" stroke-dashoffset="4.484" stroke-width="1.146"/><path d="m21.709 101.271.527-.316" stroke-dashoffset="5.177" stroke-width="1.146"/><path d="m22.239 100.951.527-.238" stroke-dashoffset="5.792" stroke-width="1.149"/><path d="m22.759 100.711.441-.156" stroke-dashoffset="6.371" stroke-width="1.15"/><path d="m23.209 100.561.484-.16" stroke-dashoffset="6.838" stroke-width="1.153"/><path d="m23.689 100.401.484-.117" stroke-dashoffset="7.347" stroke-width="1.153"/><path d="m24.169 100.281.48-.121" stroke-dashoffset="7.846" stroke-width="1.153"/><path d="m24.659 100.161.574-.117" stroke-dashoffset="8.344" stroke-width="1.158"/><path d="m25.229 100.041.527-.117" stroke-dashoffset="8.928" stroke-width="1.158"/><path d="m25.759 99.921.617-.082" stroke-dashoffset=".469" stroke-width="1.162"/><path d="m26.369 99.841.656-.117" stroke-dashoffset="1.089" stroke-width="1.162"/><path d="m27.029 99.731.66-.117" stroke-dashoffset="1.76" stroke-width="1.163"/><path d="m27.689 99.611.707-.082" stroke-dashoffset="2.43" stroke-width="1.163"/><path d="m28.399 99.531.703-.117" stroke-dashoffset="3.138" stroke-width="1.165"/><path d="m29.099 99.411.703-.078" stroke-dashoffset="3.852" stroke-width="1.168"/><path d="m29.799 99.331.746-.082" stroke-dashoffset="4.56" stroke-width="1.173"/><path d="m30.549 99.251.703-.04" stroke-dashoffset="5.312" stroke-width="1.176"/><path d="M31.249 99.211h.66" stroke-dashoffset="6.017" stroke-width="1.177"/><path d="M31.909 99.211h.617" stroke-dashoffset="6.676" stroke-width="1.177"/><path d="M32.529 99.211h.57" stroke-dashoffset="7.292" stroke-width="1.177"/><path d="m33.099 99.211.527.04" stroke-dashoffset="7.864" stroke-width="1.182"/><path d="m33.629 99.251.527.082" stroke-dashoffset="8.393" stroke-width="1.182"/><path d="m34.159 99.331.484.156" stroke-dashoffset="8.927" stroke-width="1.185"/><path d="m34.639 99.491.484.16" stroke-dashoffset=".436" stroke-width="1.189"/><path d="m35.119 99.651.441.156" stroke-dashoffset=".945" stroke-width="1.19"/><path d="m35.569 99.801.484.238" stroke-dashoffset="1.412" stroke-width="1.19"/><path d="m36.049 100.041.438.117" stroke-dashoffset="1.951" stroke-width="1.19"/><path d="m36.489 100.161.484.238" stroke-dashoffset="2.407" stroke-width="1.191"/><path d="m36.969 100.401.484.2" stroke-dashoffset="2.946" stroke-width="1.196"/><path d="m37.459 100.601.527.2" stroke-dashoffset="3.468" stroke-width="1.196"/><path d="m37.979 100.801.484.195" stroke-dashoffset="4.032" stroke-width="1.197"/><path d="m38.469 100.991.484.121" stroke-dashoffset="4.555" stroke-width="1.201"/><path d="m38.949 101.111.438.156" stroke-dashoffset="5.053" stroke-width="1.201"/><path d="m39.389 101.271.441.117" stroke-dashoffset="5.52" stroke-width="1.202"/><path d="m39.829 101.391.438.121" stroke-dashoffset="5.976" stroke-width="1.206"/><path d="m40.269 101.511.441.117" stroke-dashoffset="6.431" stroke-width="1.21"/><path d="m40.709 101.621.484.121" stroke-dashoffset="6.887" stroke-width="1.21"/><path d="m41.189 101.751.484.117" stroke-dashoffset="7.385" stroke-width="1.214"/><path d="m41.679 101.861.438.16" stroke-dashoffset="7.883" stroke-width="1.215"/><path d="m42.119 102.021.441.156" stroke-dashoffset="8.351" stroke-width="1.219"/><path d="m42.559 102.181.395.121" stroke-dashoffset="8.818" stroke-width="1.219"/><path d="m42.949 102.301.352.156" stroke-dashoffset=".231" stroke-width="1.22"/><path d="m43.299 102.461.398.078" stroke-dashoffset=".617" stroke-width="1.22"/><path d="m43.699 102.531.262.16" stroke-dashoffset="1.021" stroke-width="1.221"/><path d="m43.959 102.691.352.156" stroke-dashoffset="1.329" stroke-width="1.221"/><path d="m44.319 102.851.574.277" stroke-dashoffset="1.714" stroke-width="1.222"/><path d="m44.889 103.131.305.082" stroke-dashoffset="2.35" stroke-width="1.224"/><path d="m45.189 103.211.309.156" stroke-dashoffset="2.668" stroke-width="1.224"/><path d="m45.499 103.371.309.16" stroke-dashoffset="3.014" stroke-width="1.225"/><path d="m45.809 103.531.309.156" stroke-dashoffset="3.36" stroke-width="1.228"/><path d="m46.119 103.681.309.16" stroke-dashoffset="3.706" stroke-width="1.228"/><path d="m46.429 103.841.262.156" stroke-dashoffset="4.052" stroke-width="1.229"/><path d="m46.689 104.001.527.277" stroke-dashoffset="4.36" stroke-width="1.231"/><path d="m47.219 104.281.398.238" stroke-dashoffset="4.956" stroke-width="1.231"/><path d="m47.619 104.511.438.277" stroke-dashoffset="5.418" stroke-width="1.231"/><path d="m48.049 104.791.266.156" stroke-dashoffset="5.938" stroke-width="1.235"/><path d="m48.319 104.951.484.32" stroke-dashoffset="6.245" stroke-width="1.239"/><path d="m48.799 105.271.262.156" stroke-dashoffset="6.824" stroke-width="1.242"/><path d="m49.069 105.421.441.316" stroke-dashoffset="7.131" stroke-width="1.243"/><g stroke-width="1.251"><path d="m49.509 105.741.352.355" stroke-dashoffset="7.673"/><path d="m49.859 106.101.309.316" stroke-dashoffset="8.174"/><path d="m50.169 106.411.262.16" stroke-dashoffset="8.616"/></g><path d="m50.429 106.571.266.238" stroke-dashoffset="8.923" stroke-width="1.252"/><path d="m50.689 106.811.352.277" stroke-dashoffset=".278" stroke-width="1.253"/><path d="m51.049 107.091.309.277" stroke-dashoffset=".726" stroke-width="1.254"/><path d="m51.349 107.371.219.234" stroke-dashoffset="1.14" stroke-width="1.254"/><path d="m51.569 107.601.219.277" stroke-dashoffset="1.464" stroke-width="1.255"/><path d="m51.789 107.881.176.277" stroke-dashoffset="1.818" stroke-width="1.257"/><path d="m51.969 108.161.266.316" stroke-dashoffset="2.146" stroke-width="1.257"/><path d="m52.229 108.471.309.316" stroke-dashoffset="2.558" stroke-width="1.257"/><path d="m52.539 108.791.262.398" stroke-dashoffset="3" stroke-width="1.261"/><path d="m52.799 109.191.223.277" stroke-dashoffset="3.475" stroke-width="1.262"/><path d="m53.029 109.461.219.234" stroke-dashoffset="3.829" stroke-width="1.266"/><path d="M53.249 109.701v.36" stroke-dashoffset="4.153" stroke-width=".862"/></g></g><g stroke="#0f0"><path d="M54.509 62.731h9.676" stroke-width="1.069"/><path d="m62.079 59.781.129.355" stroke-width=".957"/><path d="m62.209 60.137.266.238" stroke-width=".965"/><path d="m62.479 60.375.352.277" stroke-width=".969"/><path d="m62.829 60.653.441.316" stroke-width=".972"/><path d="m63.269 60.969.438.355" stroke-width=".975"/><path d="m63.709 61.321.441.316M64.149 61.641l.438.316" stroke-width=".976"/><path d="m64.589 61.961.398.277" stroke-width=".977"/><path d="m64.979 62.231.305.316M65.289 62.551l.309.2" stroke-width=".978"/><path d="m65.599 62.751.352.355" stroke-width=".982"/><path d="m65.949 63.101-.129.316M65.819 63.421l-.398.316M65.419 63.741l-.309.238M65.109 63.981l-.262.316M64.849 64.291l-.266.277M64.589 64.571l-.305.355" stroke-width="1.094"/><path d="m64.279 64.921-.18.316M64.099 65.241l-.219.277" stroke-width="1.095"/><path d="m63.879 65.521-.133.277" stroke-width="1.096"/><path d="m63.749 65.801-.176.355" stroke-width="1.097"/><path d="m63.569 66.151-.352.316" stroke-width=".769"/><path d="m63.219 66.471-.305.277" stroke-width=".363"/><path d="M.99 49.883h9.89" stroke-width="1.075"/><path d="m2.443 47.59-.219.395" stroke-width=".876"/><path d="m2.225 47.985-.223.238" stroke-width=".882"/><path d="m2.002 48.223-.352.477" stroke-width=".891"/><path d="m1.65 48.699-.176.277" stroke-width=".897"/><path d="m1.475 48.977-.309.434" stroke-width=".902"/><path d="m1.166 49.41-.262.316" stroke-width=".907"/><path d="m.904 49.727-.219.316" stroke-width=".908"/><path d="m.686 50.043-.18.277" stroke-width=".91"/><path d="m.506 50.321.047.316" stroke-width="1.013"/><path d="m.553 50.637.437.316" stroke-width="1.022"/><path d="m.99 50.953.352.238" stroke-width="1.031"/><path d="m1.342 51.192.352.2" stroke-width="1.038"/><path d="m1.693 51.391.441.238" stroke-width="1.046"/><path d="m2.135 51.629.395.234" stroke-width="1.056"/><path d="m2.529 51.863.352.2M2.881 52.063l.309.16" stroke-width="1.06"/><path d="m3.189 52.223.398.234" stroke-width="1.063"/><path d="m3.588 52.457.48.238" stroke-width=".391"/><path d="m16.249 9.078-.262-.195" stroke-width="1.029"/><path d="m15.989 8.883-.484-.2" stroke-width="1.129"/><path d="m15.509 8.684-.309-.2" stroke-width="1.142"/><path d="m15.199 8.485-.441-.355" stroke-width="1.155"/><path d="m14.759 8.129-.262-.277" stroke-width="1.162"/><path d="m14.499 7.852-.309-.355" stroke-width="1.171"/><path d="m14.189 7.496-.352-.316" stroke-width="1.179"/><path d="m13.829 7.18-.352-.438" stroke-width="1.187"/><path d="m13.479 6.742-.398-.395" stroke-width="1.195"/><path d="m13.089 6.348-.395-.434" stroke-width="1.202"/><path d="m12.689 5.914-.352-.398" stroke-width="1.215"/><path d="m12.339 5.516-.352-.395" stroke-width="1.227"/><path d="m11.986 5.121-.352-.316" stroke-width="1.233"/><path d="m11.635 4.805-.266-.277" stroke-width="1.241"/><path d="m11.369 4.528-.305-.277" stroke-width="1.245"/><path d="m11.064 4.25-.266-.238" stroke-width="1.248"/><path d="m10.799 4.012-.266-.195" stroke-width="1.25"/><path d="m10.533 3.817-.262-.238" stroke-width="1.253"/><path d="m10.271 3.578-.484-.398" stroke-width="1.259"/><path d="m9.787 3.18-.352-.316" stroke-width="1.263"/><path d="m9.436 2.863-.309-.277" stroke-width="1.268"/><path d="m9.127 2.586-.262-.273" stroke-width="1.269"/><path d="m8.865 2.313-.266-.316" stroke-width="1.283"/><path d="m8.6 1.996-.309-.277" stroke-width=".988"/><path d="m6.666 4.328.219-.355" stroke-width="1.151"/><path d="m6.885 3.973.086-.316" stroke-width="1.156"/><path d="m6.971 3.656.09-.355" stroke-width="1.161"/><path d="m7.061 3.301.09-.355M7.15 2.946l.086-.398" stroke-width="1.166"/><path d="m7.236 2.547.09-.395" stroke-width="1.169"/><g stroke-width="1.17"><path d="m7.326 2.153.086-.395M7.412 1.758l.09-.316M7.502 1.442l.086-.316"/></g><path d="m7.588 1.125.043-.36" stroke-width="1.171"/><path d="m7.631.766.352-.04M7.982.727l.309.082" stroke-width="1.133"/><path d="M8.291.809 8.6.965M8.6.965l.309.16M8.908 1.125l.352.156" stroke-width="1.134"/><path d="m9.26 1.281.262.16M9.521 1.442l.531.156" stroke-width="1.135"/><path d="m10.053 1.598.352.16M10.404 1.758l.395.156" stroke-width="1.136"/><path d="m10.799 1.914.352.082" stroke-width="1.138"/><path d="m26.509 37.043 2.914-8.293" stroke-width=".973"/><path d="m25.929 37.258-.176-.395" stroke-width=".965"/><path d="m25.749 36.863-.309-.473" stroke-width=".993"/><path d="m25.439 36.391-.176-.277" stroke-width="1.012"/><path d="m25.269 36.113-.309-.36" stroke-width="1.03"/><path d="m24.959 35.754-.309-.355" stroke-width="1.05"/><path d="m24.649 35.399-.352-.395" stroke-width="1.068"/><path d="m24.299 35.004-.305-.395" stroke-width="1.089"/><path d="m23.999 34.61-.309-.316" stroke-width="1.103"/><path d="m23.689 34.293-.266-.32" stroke-width="1.111"/><path d="m23.419 33.973-.309-.355" stroke-width="1.123"/><g stroke-width="1.035"><path d="m23.109 33.617.309.355M23.419 33.973l.484.36M23.909 34.332l.266.195"/></g><path d="m24.169 34.528.305.238" stroke-width="1.034"/><path d="m24.479 34.766.309.277" stroke-width="1.028"/><path d="m24.779 35.043.309.277" stroke-width="1.022"/><path d="m25.089 35.321.352.316" stroke-width="1.012"/><path d="m25.439 35.637.266.316" stroke-width="1.003"/><path d="m25.709 35.953.262.277" stroke-width=".997"/><path d="m25.969 36.231.223.277" stroke-width=".989"/><g stroke-width=".986"><path d="m26.189 36.508.352.434M26.549 36.942l.219.36M26.759 37.301l.219.234"/></g><path d="m26.979 37.535.398.043" stroke-width="1.045"/><path d="m27.379 37.578.527-.2" stroke-width="1.073"/><path d="m27.909 37.379.438-.2" stroke-width="1.077"/><path d="m28.349 37.18.441-.238" stroke-width="1.081"/><path d="m28.789 36.942.527-.277M29.319 36.664l.57-.234" stroke-width="1.084"/><path d="m29.889 36.43.527-.277" stroke-width="1.085"/><path d="m30.409 36.153.527-.277" stroke-width="1.086"/><path d="m30.939 35.875.484-.277M31.419 35.598l.352-.238" stroke-width="1.087"/><path d="m31.779 35.36.309-.2M32.089 35.16l.309-.234" stroke-width="1.092"/><path d="m22.769 127.451 1.563-7.418" stroke-width="1.007"/><path d="m19.909 124.891.305.355" stroke-width=".903"/><path d="m20.209 125.251.398.473" stroke-width=".924"/><path d="m20.609 125.721.219.238" stroke-width=".928"/><path d="m20.829 125.961.395.395" stroke-width=".932"/><path d="m21.219 126.351.309.36" stroke-width=".933"/><path d="m21.529 126.711.266.316" stroke-width=".937"/><path d="m21.799 127.031.262.238" stroke-width=".999"/><path d="m22.059 127.261.352.355" stroke-width="1.022"/><path d="m22.409 127.621.352.156" stroke-width="1.055"/><path d="m22.759 127.781.352-.04" stroke-width="1.092"/><path d="m23.109 127.741.617-.117" stroke-width="1.107"/><path d="m23.729 127.621.441-.082" stroke-width="1.11"/><path d="m24.169 127.541.437-.156" stroke-width="1.111"/><path d="m24.609 127.381.484-.117" stroke-width="1.114"/><g stroke-width="1.115"><path d="m25.089 127.261.441-.16M25.529 127.101l.395-.16M25.929 126.941l.309-.156"/></g><path d="m26.239 126.791.309-.117" stroke-width="1.115"/><path d="m26.549 126.671.305-.16M26.849 126.511l.309-.117" stroke-width="1.116"/><path d="m27.159 126.391.309-.043" stroke-width="1.115"/><path d="m36.369 99.621 6.05-5.695" stroke-width="1.041"/><path d="m40.219 92.711.484.2" stroke-width=".969"/><path d="m40.709 92.911.57.195" stroke-width=".986"/><path d="m41.279 93.101.309.121" stroke-width=".989"/><path d="m41.589 93.231.309.117" stroke-width=".99"/><path d="m41.889 93.341.309.117" stroke-width=".994"/><path d="m42.199 93.461.484.238" stroke-width=".998"/><path d="m42.689 93.701.352.238" stroke-width="1.004"/><path d="m43.039 93.941.262.2" stroke-width="1.009"/><path d="m43.299 94.141.266.156" stroke-width="1.014"/><path d="m43.569 94.291.262.238" stroke-width="1.051"/><path d="m43.829 94.531-.043.555" stroke-width="1.061"/><path d="m43.779 95.091-.09.633" stroke-width="1.065"/><path d="m43.689 95.721-.043.316" stroke-width="1.066"/><path d="m43.649 96.031-.133.555" stroke-width="1.067"/><path d="m43.519 96.591-.086.355" stroke-width="1.068"/><path d="M2.428 109.351h8.2" stroke-width="1.062"/><path d="m3.588 107.751-.309.2" stroke-width="1.124"/><path d="m3.279 107.951-.398.277" stroke-width="1.123"/><path d="m2.881 108.231-.437.355M2.443 108.581l-.309.355" stroke-width="1.122"/><path d="m2.135 108.941-.309.277" stroke-width="1.123"/><path d="m1.826 109.211-.309.316" stroke-width="1.128"/><path d="m1.518 109.531-.305.355" stroke-width="1.129"/><path d="m1.213 109.891.086.316" stroke-width="1.14"/><path d="m1.299 110.201.176.398" stroke-width="1.141"/><path d="m1.475 110.601.395.355" stroke-width="1.142"/><path d="m1.869 110.961.441.277" stroke-width="1.146"/><path d="m2.311 111.231.266.238" stroke-width="1.154"/><path d="m2.576 111.471.305.195" stroke-width="1.165"/><path d="m2.881 111.671.309.2" stroke-width="1.168"/><path d="m3.189 111.871.309.16" stroke-width="1.17"/><path d="m3.498 112.031.309.04" stroke-width=".873"/><path d="m3.807 112.071.309.04" stroke-width=".577"/></g><g stroke="#f0f"><path d="m51.439 119.781.441-.16" stroke-width="1.068"/><path d="m51.879 119.621.305-.238" stroke-width="1.07"/><path d="m52.179 119.391.352-.277" stroke-width="1.075"/><path d="m52.529 119.111.398-.395" stroke-width="1.078"/><path d="m52.929 118.711.395-.316" stroke-width="1.08"/><path d="m53.329 118.401.352-.355" stroke-width="1.083"/><path d="m53.679 118.041.309-.316" stroke-width="1.085"/><path d="m53.989 117.731.219-.36" stroke-width="1.09"/><path d="m54.209 117.371.176-.273" stroke-width="1.093"/><path d="m54.379 117.091.176-.32" stroke-width="1.094"/><path d="m54.559 116.771.266-.395" stroke-width="1.095"/><path d="m54.819 116.381.086-.355" stroke-width="1.097"/><path d="m54.909 116.021.09-.316" stroke-width="1.098"/><path d="m54.999 115.711.086-.395M55.089 115.311v-.32" stroke-width="1.1"/><path d="m55.089 114.991.047-.355" stroke-width="1.101"/><path d="m55.129 114.641.043-.395" stroke-width="1.102"/><path d="M55.169 114.241v-.355M55.169 113.891l.043-.355M55.219 113.531l.043-.316M55.259 113.211v-.36M55.259 112.851l.047-.316" stroke-width="1.103"/><path d="m55.309 112.541.086-.316M55.389 112.221l.09-.434" stroke-width="1.102"/><path d="m55.479 111.791.043-.316" stroke-width="1.103"/><path d="m55.529 111.471.043-.316" stroke-width="1.104"/><path d="m55.569 111.161.133-.398" stroke-width="1.103"/><path d="M55.699 110.761v-.355" stroke-width="1.118"/><path d="m55.699 110.401.09-.355M55.789 110.051v-.395" stroke-width="1.12"/><path d="M55.789 109.651v-.398" stroke-width=".683"/><path d="M55.439 109.531v-.473" stroke-width="1.036"/><path d="m55.439 109.061.086-.398" stroke-width="1.048"/><path d="m55.529 108.661.043-.473" stroke-width="1.066"/><path d="m55.569 108.191.09-.516" stroke-width="1.076"/><path d="m55.659 107.671.043-.477" stroke-width="1.077"/><path d="m55.699 107.191.09-.473" stroke-width="1.078"/><path d="m55.789 106.721.129-.438" stroke-width="1.079"/><path d="m55.919 106.281.176-.473" stroke-width="1.08"/><path d="m56.099 105.811.176-.477M56.269 105.341l.133-.355" stroke-width="1.087"/><path d="m56.409 104.981.133-.277" stroke-width="1.088"/><path d="m56.539 104.701.352-.395" stroke-width="1.087"/><path d="m56.889 104.311.309-.2" stroke-width="1.079"/><path d="m57.199 104.111.395-.04" stroke-width="1.062"/><path d="m57.589 104.071.398.117" stroke-width="1.056"/><path d="m57.989 104.191.395.121" stroke-width="1.055"/><path d="m58.389 104.311.352.117" stroke-width="1.05"/><path d="m58.739 104.421.262.238" stroke-width="1.004"/><path d="m58.999 104.661.133.316M59.129 104.981l.09.316" stroke-width="1.002"/><path d="m59.219 105.301.086.355" stroke-width="1.001"/><path d="M59.309 105.651v.316" stroke-width="1.003"/><path d="m59.309 105.971-.129.355" stroke-width="1.006"/><path d="m59.179 106.321-.223.438" stroke-width="1.016"/><path d="m58.959 106.761-.176.355" stroke-width="1.028"/><path d="m58.779 107.121.09-.473" stroke-width="1.175"/><path d="m58.869 106.641.129-.36" stroke-width="1.172"/><path d="m58.999 106.281.18-.355" stroke-width="1.166"/><path d="m59.179 105.931.176-.316" stroke-width="1.16"/><path d="m59.349 105.611.176-.277" stroke-width="1.15"/><path d="m59.529 105.341.352-.238" stroke-width="1.114"/><path d="m59.879 105.101.395-.156" stroke-width="1.11"/><path d="m60.279 104.941.441-.04" stroke-width="1.097"/><path d="m60.719 104.901.305.195" stroke-width="1.092"/><path d="m61.019 105.101.266.36" stroke-width="1.09"/><path d="m61.289 105.461.176.316" stroke-width="1.088"/><path d="m61.459 105.771.133.277M61.599 106.051l.043.355M61.639 106.411l-.043.434" stroke-width="1.087"/><path d="m61.599 106.841-.047.398M61.549 107.241l-.129.316" stroke-width="1.088"/><path d="m61.419 107.551-.176.277" stroke-width="1.089"/><path d="m61.249 107.831-.176.273" stroke-width="1.097"/><path d="M61.069 108.101v-.316M61.069 107.791l.176-.434" stroke-width="1.182"/><path d="m61.249 107.351.129-.355" stroke-width="1.179"/><path d="m61.369 107.001.133-.277" stroke-width="1.171"/><path d="m61.509 106.721.309-.398" stroke-width="1.143"/><path d="m61.819 106.321.266-.234" stroke-width="1.134"/><path d="m62.079 106.091.395-.121" stroke-width="1.091"/><path d="M62.479 105.971h.309" stroke-width="1.088"/><path d="m62.779 105.971.352.238" stroke-width="1.079"/><path d="m63.139 106.211.219.355M63.349 106.561l.133.355" stroke-width="1.073"/><path d="m63.489 106.921.043.398" stroke-width="1.077"/><path d="m63.529 107.321-.043.395" stroke-width="1.084"/><path d="m63.489 107.711-.09.477" stroke-width="1.085"/><path d="m63.399 108.191-.176.555" stroke-width="1.086"/><path d="m63.219 108.741-.129.395" stroke-width="1.089"/><path d="m63.089 109.141-.133.277" stroke-width="1.094"/><path d="m62.959 109.411-.223.316" stroke-width="1.119"/><path d="M62.739 109.731v-.316" stroke-width="1.188"/><path d="m62.739 109.411.09-.398" stroke-width="1.187"/><path d="m62.829 109.011.133-.473" stroke-width="1.181"/><path d="m62.959 108.541.133-.437" stroke-width="1.174"/><path d="m63.089 108.101.129-.316" stroke-width="1.166"/><path d="m63.219 107.791.133-.316" stroke-width="1.155"/><path d="m63.349 107.471.133-.434" stroke-width="1.142"/><path d="m63.489 107.041.133-.277" stroke-width="1.141"/><path d="m63.619 106.761.219-.238" stroke-width="1.135"/><path d="m63.839 106.521.309-.156" stroke-width="1.115"/><path d="M64.149 106.371h.438" stroke-width="1.111"/><path d="m64.589 106.371.352.277" stroke-width="1.083"/><path d="m64.939 106.641.223.473M65.159 107.121v.316" stroke-width="1.084"/><path d="m65.159 107.431.043.316M65.199 107.751l.043.355" stroke-width="1.085"/><path d="M65.249 108.101v.36" stroke-width="1.087"/><path d="M65.249 108.461v.473" stroke-width="1.095"/><path d="m65.249 108.941-.043.355" stroke-width="1.096"/><path d="m65.199 109.291-.133.438" stroke-width="1.099"/><path d="m65.069 109.731-.043.355M65.029 110.091l.395.16" stroke-width="1.115"/><path d="m65.419 110.251.309.078" stroke-width="1.116"/><path d="m65.729 110.321.309.04" stroke-width="1.119"/><path d="m66.039 110.361.395-.078M66.429 110.281l.309-.04M66.739 110.251h.309" stroke-width="1.129"/><path d="M67.049 110.251h.309" stroke-width="1.13"/><path d="M67.359 110.251h.305" stroke-width="1.126"/><path d="M67.659 110.251h.398M68.059 110.251l.309.04" stroke-width="1.127"/><path d="m68.369 110.281.352.156M68.719 110.441l.352.16M69.069 110.601l.352.238" stroke-width="1.126"/><path d="m69.419 110.841.219.473M69.639 111.311l.043.316" stroke-width="1.121"/><path d="m69.689 111.631.047.398" stroke-width="1.12"/><path d="m69.729 112.031.086.316M69.819 112.341v.434" stroke-width="1.119"/><path d="m69.819 112.781-.043.316M69.779 113.091l-.09.316" stroke-width="1.12"/><path d="m69.689 113.411-.395.277" stroke-width="1.131"/><path d="m69.289 113.691-.352.078" stroke-width="1.136"/><path d="M68.939 113.761h-.309" stroke-width="1.138"/><path d="m68.629 113.761-.395-.078" stroke-width="1.141"/><path d="m68.239 113.691-.309-.078" stroke-width="1.145"/><path d="m67.929 113.611-.309-.04" stroke-width="1.147"/><path d="m67.619 113.571-.309-.121" stroke-width="1.148"/><path d="m67.309 113.451-.305-.078" stroke-width="1.149"/><path d="m67.009 113.371-.398-.156" stroke-width="1.165"/><path d="m66.609 113.211-.262-.16" stroke-width="1.173"/><path d="m66.349 113.051-.266-.16" stroke-width="1.175"/><path d="m66.079 112.891-.395-.234" stroke-width="1.189"/><path d="m65.689 112.661-.398-.2" stroke-width="1.194"/><path d="m65.289 112.461-.262-.16" stroke-width="1.195"/><path d="m65.029 112.301-.395-.078M64.629 112.221h-.398M64.229 112.221h-.395M63.839 112.221h-.309M63.529 112.221h-.352" stroke-width="1.193"/><path d="M63.179 112.221h-.395" stroke-width="1.192"/><path d="m62.779 112.221-.398.121" stroke-width="1.187"/><path d="m62.389 112.341-.305.195M62.079 112.541l-.309.121M61.769 112.661l-.309.156" stroke-width="1.188"/><path d="m61.459 112.821-.309.316" stroke-width="1.182"/><path d="m61.159 113.131-.219.316" stroke-width="1.181"/><path d="m60.939 113.451-.219.398" stroke-width="1.179"/><path d="m60.719 113.851-.176.316M60.539 114.161l-.133.277" stroke-width="1.178"/><path d="m60.409 114.441-.133.355" stroke-width="1.177"/><path d="m60.279 114.801-.176.473" stroke-width="1.176"/><path d="m60.099 115.271-.09.438" stroke-width="1.172"/><path d="m60.009 115.711-.086.316" stroke-width="1.171"/><path d="m59.919 116.021-.09.316" stroke-width="1.172"/><g stroke-width="1.172"><path d="m59.829 116.341-.086.395M59.749 116.731l-.133.36M59.619 117.091l-.086.355"/></g><path d="m59.529 117.451-.133.355M59.399 117.801l-.09.316" stroke-width="1.172"/><path d="m59.309 118.121-.129.316" stroke-width="1.173"/><path d="m59.179 118.441-.133.316M59.049 118.751l-.223.516M58.819 119.271l-.262.516M58.559 119.781l-.266.395" stroke-width="1.174"/><path d="m58.299 120.181-.219.277" stroke-width="1.176"/><path d="m58.079 120.461-.309.195M57.769 120.651l-.262.16M57.509 120.811l-.309.156M57.199 120.971l-.309.238" stroke-width="1.182"/><path d="m56.889 121.211-.262.277M56.629 121.481l-.266.2" stroke-width="1.181"/><path d="m56.359 121.681-.266.316" stroke-width="1.18"/><path d="m56.099 122.001-.305.395" stroke-width="1.179"/><path d="m55.789 122.391-.266.16" stroke-width="1.177"/><path d="m55.529 122.551-.309.04" stroke-width=".501"/></g><g stroke="#ff7f00"><path d="M58.269 93.621v17.863" stroke-width="1.043"/><path d="m57.939 93.821-.176.355" stroke-width=".88"/><path d="m57.769 94.181-.309.672" stroke-width=".94"/><path d="m57.459 94.851-.219.477" stroke-width=".949"/><path d="m57.239 95.321-.262.473" stroke-width=".954"/><path d="m56.979 95.801-.223.477M56.759 96.271l-.129.355" stroke-width=".958"/><path d="m56.629 96.631-.18.355" stroke-width=".959"/><path d="m56.449 96.981-.129.316" stroke-width=".96"/><path d="M56.319 97.301v-.316" stroke-width="1.01"/><path d="m56.319 96.981.309-.555" stroke-width="1.001"/><path d="m56.629 96.431.219-.316" stroke-width=".996"/><path d="m56.849 96.111.262-.316" stroke-width=".991"/><path d="m57.109 95.801.266-.277M57.369 95.521l.176-.316" stroke-width=".986"/><path d="m57.549 95.201.266-.234" stroke-width=".982"/><path d="m57.819 94.971.262-.477" stroke-width=".983"/><path d="m58.079 94.491.133-.316" stroke-width=".984"/><path d="m58.209 94.181.133-.438" stroke-width=".997"/><path d="m58.339 93.741.219.36" stroke-width=".958"/><path d="m58.559 94.101.219.316" stroke-width=".959"/><path d="m58.779 94.411.309.355M59.089 94.771l.309.395M59.399 95.161l.309.277" stroke-width=".962"/><path d="m59.709 95.441.305.277M60.009 95.721l.266.238" stroke-width=".963"/><path d="m60.279 95.961.266.156M60.539 96.111l.352.238" stroke-width=".964"/><path d="m60.889 96.351.305.16" stroke-width=".968"/><path d="m61.199 96.511.441.195" stroke-width=".792"/><path d="m61.639 96.711.285.121" stroke-width=".468"/><path d="m61.919 96.831.285.117" stroke-width=".144"/></g><g stroke="red"><path d="m30.239.571.09.355" stroke-width="1.14"/><path d="m30.329.926.309.156" stroke-width="1.141"/><path d="m30.639 1.082.352.2M30.989 1.281l.352.238M31.339 1.52l.352.238" stroke-width="1.142"/><path d="m31.689 1.758.309.238" stroke-width="1.143"/><g stroke-width="1.143"><path d="m31.999 1.996.352.355M32.349 2.352l.352.277M32.699 2.629l.262.234"/></g><path d="m32.959 2.863.266.316" stroke-width="1.145"/><path d="m33.229 3.18-.309.277" stroke-width="1.213"/><path d="m32.919 3.457-.176.277M32.749 3.735l-.219.277" stroke-width="1.216"/><path d="m32.529 4.012-.223.398M32.299 4.41l-.262.277M32.039 4.688l-.176.316" stroke-width="1.217"/><path d="m31.869 5.004-.309.434" stroke-width="1.219"/><path d="m31.559 5.438-.262.316" stroke-width="1.221"/><path d="m31.299 5.754-.355.117" stroke-width="1.046"/><g stroke-width="1.125"><path d="m37.279 117.091.219.316M37.499 117.411l.484.395M37.979 117.801l.438.277"/></g><path d="m38.419 118.081.309.156" stroke-width="1.126"/><path d="m38.729 118.241.266.2" stroke-width="1.153"/><path d="m38.989 118.441.262.2" stroke-width="1.158"/><path d="m39.249 118.641.352.234" stroke-width="1.16"/><path d="m39.599 118.871.266.16" stroke-width="1.162"/><path d="m39.869 119.031.086.355" stroke-width="1.218"/><path d="m39.959 119.391-.129.516" stroke-width="1.228"/><path d="m39.829 119.901-.09.355" stroke-width="1.232"/><path d="m39.739 120.261-.133.355M39.599 120.611l-.129.398" stroke-width="1.233"/><path d="m39.479 121.011-.176.55" stroke-width="1.235"/><path d="m39.299 121.561-.133.32" stroke-width="1.239"/><path d="m39.169 121.881-.133.273" stroke-width="1.263"/><path d="m39.029 122.161-.262.238" stroke-width="1.28"/><path d="m38.769 122.391-.223.238" stroke-width="1.281"/><path d="m38.549 122.631-.262-.2" stroke-width=".208"/><path d="m16.029 112.071-.266.277" stroke-width="1.095"/><path d="m15.769 112.341-.043.512M15.729 112.851v.477" stroke-width="1.1"/><path d="M15.729 113.331v.516M15.729 113.851v.473M15.729 114.321v.477" stroke-width="1.102"/><path d="M15.729 114.801v.434" stroke-width="1.107"/><path d="M15.729 115.231v.516" stroke-width="1.111"/><path d="M15.729 115.751v.395" stroke-width="1.118"/><path d="M15.729 116.141v.398" stroke-width="1.123"/><path d="M15.729 116.541v.395" stroke-width="1.129"/><path d="m15.729 116.931-.352.078" stroke-width="1.255"/><path d="m15.369 117.011-.395-.078" stroke-width="1.256"/><path d="m14.979 116.931-.309-.078M14.669 116.851l-.309-.04" stroke-width="1.257"/><path d="m14.359 116.821-.395-.082" stroke-width="1.258"/><path d="m13.969 116.731-.309-.04" stroke-width="1.259"/><path d="m13.659 116.691-.352-.195" stroke-width=".61"/></g><g stroke="#f0f"><path d="m69.029 18.778-.129.277" stroke-width=".695"/><path d="M68.899 19.055v.434" stroke-width=".721"/><path d="M68.899 19.489v.477" stroke-width=".751"/><path d="M68.899 19.965v.316" stroke-width=".782"/><path d="M68.899 20.281v.316" stroke-width=".801"/><path d="M68.899 20.598v.316" stroke-width=".813"/><path d="M68.899 20.914v.355" stroke-width=".827"/><path d="m68.899 21.27-.047.316" stroke-width=".841"/><path d="m68.849 21.586-.129.316" stroke-width=".885"/><path d="m68.719 21.903-.133.355" stroke-width=".89"/><path d="m68.589 22.258-.176.277" stroke-width=".912"/><path d="m68.409 22.535-.176.277" stroke-width=".943"/><path d="m68.239 22.813-.266.16" stroke-width=".969"/><path d="m67.969 22.973-.262.234" stroke-width=".997"/><path d="m67.709 23.207-.398-.04" stroke-width="1.016"/><path d="m67.309 23.168-.262-.195" stroke-width="1.024"/><path d="m67.049 22.973-.398-.238" stroke-width="1.033"/><path d="m66.649 22.735-.305-.238" stroke-width="1.05"/><path d="m66.349 22.496-.309-.117" stroke-width="1.068"/><path d="M66.039 22.379v-.355" stroke-width="1.059"/><path d="M66.039 22.024v-.36" stroke-width="1.068"/><path d="m66.039 21.664.043-.355" stroke-width="1.07"/><path d="m66.079 21.309.043-.316M66.119 20.992v-.395" stroke-width="1.071"/><path d="m66.119 20.598.09-.398M66.209 20.199l.133-.316M66.349 19.883l.129-.277" stroke-width="1.07"/><path d="m66.479 19.606-.086.398" stroke-width=".975"/><path d="m66.389 20.004-.043.395M66.349 20.399l-.047.355" stroke-width=".979"/><path d="m66.299 20.754-.043.398" stroke-width=".984"/><path d="m66.259 21.153-.176.355" stroke-width="1.007"/><path d="m66.079 21.508-.262.156" stroke-width="1.051"/><path d="m65.819 21.664-.309.16" stroke-width="1.053"/><path d="m65.509 21.824-.352.156" stroke-width="1.055"/><path d="m65.159 21.981-.309.082M64.849 22.063l-.441.156" stroke-width="1.057"/><path d="m64.409 22.219-.262.16" stroke-width="1.062"/><path d="m64.149 22.379-.309.117M63.839 22.496l-.309.117" stroke-width="1.063"/><path d="m63.529 22.613-.395.121" stroke-width="1.079"/><path d="m63.139 22.735-.219-.355" stroke-width="1.025"/><path d="m62.919 22.379-.18-.398" stroke-width="1.013"/><path d="M62.739 21.981v-.355" stroke-width="1.004"/><path d="m62.739 21.625-.043-.395" stroke-width=".999"/><path d="M62.689 21.231v-.395" stroke-width=".995"/><path d="M62.689 20.836v-.477M62.689 20.36v-.395" stroke-width=".999"/><path d="m62.689 19.965.09-.36M62.779 19.606v-.395" stroke-width="1.002"/><path d="M62.779 19.211v-.355" stroke-width="1.005"/><path d="m62.779 18.856-.133.434" stroke-width=".911"/><path d="m62.649 19.289-.043.477" stroke-width=".922"/><path d="m62.609 19.766-.09.355" stroke-width=".933"/><path d="m62.519 20.121-.043.355" stroke-width=".937"/><path d="m62.479 20.477-.09.316" stroke-width=".939"/><path d="m62.389 20.793-.176.398" stroke-width=".948"/><path d="m62.209 21.192-.176.277" stroke-width=".966"/><path d="m62.029 21.469-.129.277" stroke-width=".97"/><path d="m61.909 21.746-.266.355" stroke-width=".982"/><path d="m61.639 22.102-.266.316" stroke-width=".995"/><path d="m61.369 22.418-.262.156" stroke-width="1.019"/><path d="m61.109 22.574-.352-.117" stroke-width="1.07"/><path d="m60.759 22.457-.395-.04" stroke-width="1.071"/><path d="m60.369 22.418-.531-.04" stroke-width="1.089"/><path d="M59.829 22.379h-.395" stroke-width="1.093"/><path d="m59.439 22.379-.309-.121" stroke-width="1.097"/><path d="m59.129 22.258-.262-.277" stroke-width="1.07"/><path d="m58.869 21.981-.133-.316" stroke-width="1.067"/><path d="m58.739 21.664-.133-.316" stroke-width="1.065"/><path d="M58.599 21.348v-.355" stroke-width="1.052"/><path d="M58.599 20.992v-.355" stroke-width="1.039"/><path d="M58.599 20.637v-.316M58.599 20.321v-.437M58.599 19.883v-.395M58.599 19.489l.043-.395" stroke-width="1.035"/><path d="m58.649 19.094.09.434" stroke-width=".882"/><path d="M58.739 19.528v.438" stroke-width=".891"/><path d="M58.739 19.965v.395" stroke-width=".914"/><path d="m58.739 20.36-.043.434" stroke-width=".932"/><path d="m58.689 20.793-.09.36" stroke-width=".936"/><path d="m58.599 21.153-.043.434" stroke-width=".937"/><path d="M58.559 21.586v.395" stroke-width=".939"/><path d="m58.559 21.981-.176.316" stroke-width=".951"/><path d="m58.389 22.297-.133.277" stroke-width=".956"/><path d="m58.249 22.574-.219.36" stroke-width=".991"/><path d="m58.029 22.934-.309.234" stroke-width="1.002"/><path d="m57.729 23.168-.484.277" stroke-width="1.014"/><path d="m57.239 23.446-.309.121" stroke-width="1.031"/><path d="m56.929 23.567-.262.156" stroke-width="1.042"/><path d="m56.669 23.723-.352.078" stroke-width="1.053"/><path d="m56.319 23.801-.266-.355" stroke-width="1.071"/><path d="m56.049 23.446-.176-.316" stroke-width="1.07"/><path d="m55.879 23.129-.133-.395" stroke-width="1.062"/><path d="M55.749 22.735v-.316" stroke-width="1.058"/><path d="m55.749 22.418-.043-.438M55.699 21.981l-.043-.355" stroke-width="1.059"/><path d="M55.659 21.625v-.316" stroke-width="1.06"/><path d="m55.659 21.309-.043-.316" stroke-width="1.061"/><path d="m55.619 20.992-.047-.395" stroke-width="1.062"/><path d="M55.569 20.598v-.355" stroke-width="1.065"/><path d="m55.569 20.242-.043-.398" stroke-width="1.064"/><path d="m55.529 19.844-.043-.434M55.479 19.41l-.09-.398M55.389 19.012v-.316" stroke-width="1.066"/><path d="M55.389 18.696v-.355M55.389 18.34v-.395" stroke-width="1.067"/><path d="M55.389 17.946v-.316" stroke-width="1.066"/><path d="M55.389 17.629v-.398" stroke-width="1.067"/><path d="M55.389 17.231v-.355" stroke-width="1.065"/><path d="m55.389 16.875.223-.395" stroke-width="1.051"/><path d="m55.619 16.481.262-.355" stroke-width="1.05"/><path d="m55.879 16.125.176-.277" stroke-width="1.051"/><path d="m56.049 15.848.266-.316" stroke-width="1.013"/><path d="m56.319 15.531.262-.2" stroke-width="1.014"/><path d="m56.579 15.332.309-.238" stroke-width="1.011"/><path d="m56.889 15.094.266-.195" stroke-width="1.012"/><path d="m57.159 14.899.262-.238" stroke-width="1.014"/><path d="m57.419 14.66.266-.16M57.679 14.5l.395-.117" stroke-width="1.008"/><path d="m58.079 14.383.395-.117" stroke-width="1.004"/><path d="m58.469 14.266.398-.082" stroke-width="1.003"/><path d="m58.869 14.184.395-.078" stroke-width=".999"/><path d="M59.259 14.106h.352" stroke-width=".992"/><path d="M59.619 14.106h.395" stroke-width=".991"/><path d="m60.009 14.106.441-.078" stroke-width=".992"/><path d="m60.449 14.028.309-.04" stroke-width=".993"/><path d="m60.759 13.989.438-.043" stroke-width=".994"/><g stroke-width=".995"><path d="m61.199 13.946.352-.04M61.549 13.906l.355-.04M61.909 13.867h.437"/></g><path d="M62.339 13.867h.352" stroke-width=".995"/><path d="m62.689 13.867.398-.04" stroke-width=".997"/><path d="m63.089 13.828.395-.078M63.489 13.75h.352" stroke-width="1.001"/><path d="m63.839 13.75.352-.04" stroke-width="1.002"/><path d="M64.189 13.711h.395" stroke-width="1.003"/><path d="M64.589 13.711h.398" stroke-width="1.004"/><path d="m64.979 13.711.395-.04" stroke-width="1.006"/><path d="M65.379 13.672h.395" stroke-width="1.007"/><path d="M65.769 13.672h.398M66.169 13.672h.352M66.519 13.672h.309M66.829 13.672h.438" stroke-width="1.006"/><path d="M67.269 13.672h.352M67.619 13.672l.352.04M67.969 13.711l.398.04" stroke-width="1.007"/><path d="m68.369 13.75.395.04" stroke-width=".997"/><path d="m68.759 13.789.395.2" stroke-width="1.009"/><path d="m69.159 13.989.352.395" stroke-width=".475"/><path d="m69.029 14.739.309-.04" stroke-width=".855"/><path d="m69.329 14.699.398-.078" stroke-width=".868"/><path d="m69.729 14.621.352-.04" stroke-width=".87"/><path d="m70.089 14.582.395-.043" stroke-width=".871"/><path d="m70.479 14.539.484-.04" stroke-width=".872"/><path d="M70.959 14.5h.352" stroke-width=".874"/><path d="M71.319 14.5h.438" stroke-width=".88"/><path d="M71.749 14.5h.398" stroke-width=".884"/><path d="m72.149 14.5.484-.078" stroke-width=".885"/><path d="M72.639 14.422h.484" stroke-width=".881"/><path d="M73.119 14.422h.438" stroke-width=".863"/><path d="m73.559 14.422.352.078" stroke-width=".867"/><path d="m73.909 14.5.266.238M74.169 14.739l.129.355" stroke-width=".859"/><path d="m74.299 15.094.09.438" stroke-width=".86"/><path d="M74.389 15.531v.395" stroke-width=".892"/><path d="m74.389 15.926-.09.395" stroke-width=".899"/><path d="m74.299 16.321-.176.36" stroke-width=".908"/><path d="m74.129 16.68-.219.395" stroke-width=".938"/><path d="m73.909 17.074-.309.2" stroke-width=".987"/><path d="m73.599 17.274-.262.277" stroke-width=".996"/><path d="m73.339 17.551-.309.195" stroke-width=".998"/><path d="m73.029 17.746-.266.16" stroke-width="1.007"/><path d="m72.759 17.906-.437.238M72.329 18.145l-.309.117M72.019 18.262l-.395.277" stroke-width="1.008"/><path d="m71.619 18.539-.398.238" stroke-width="1.009"/><path d="m71.229 18.778-.437.117" stroke-width="1.029"/><path d="m70.789 18.895-.398.078" stroke-width="1.04"/><path d="M70.389 18.973h-.305" stroke-width="1.039"/><path d="M70.089 18.973h-.309" stroke-width="1.032"/><path d="m69.779 18.973-.352-.078" stroke-width="1.03"/><path d="m69.419 18.895-.309-.078" stroke-width="1.042"/><path d="m69.119 18.817-.395-.078" stroke-width="1.061"/><path d="m68.719 18.739-.09-.36" stroke-width=".263"/><path d="M56.829 3.68v11.562" stroke-width=".918"/><path d="m69.509 13.551-.352-.238" stroke-width="1.046"/><path d="m69.159 13.313-.219-.395" stroke-width="1.058"/><path d="m68.939 12.918-.176-.316" stroke-width="1.061"/><path d="m68.759 12.602-.176-.277" stroke-width="1.069"/><path d="m68.589 12.324-.133-.277" stroke-width="1.078"/><path d="m68.459 12.047-.176-.355" stroke-width="1.081"/><path d="m68.279 11.692-.176-.277" stroke-width="1.088"/><path d="m68.099 11.414-.266-.277" stroke-width="1.097"/><path d="m67.839 11.137-.219-.238" stroke-width="1.1"/><path d="m67.619 10.899-.133-.277" stroke-width="1.102"/><path d="m67.489 10.621-.176-.277" stroke-width="1.107"/><path d="m67.309 10.344-.176-.316" stroke-width="1.109"/><path d="m67.139 10.028-.219-.434" stroke-width="1.108"/><path d="m66.919 9.594-.133-.355M66.779 9.239l-.133-.355" stroke-width="1.107"/><path d="m66.649 8.883-.129-.32M66.519 8.563l-.133-.316M66.389 8.246l-.133-.355" stroke-width="1.108"/><g stroke-width="1.107"><path d="m66.259 7.891-.086-.434M66.169 7.457l-.09-.398M66.079 7.059l-.086-.395"/></g><path d="m65.999 6.664-.09-.316" stroke-width="1.106"/><path d="m65.909 6.348-.086-.355" stroke-width="1.104"/><path d="m65.819 5.992-.133-.395" stroke-width="1.103"/><path d="m65.689 5.598-.043-.398" stroke-width="1.102"/><path d="m65.639 5.199-.133-.316" stroke-width="1.101"/><g stroke-width="1.102"><path d="m65.509 4.883-.043-.395M65.469 4.489l-.133-.355M65.329 4.133l-.133-.398"/></g><path d="m65.199 3.735-.133-.316M65.069 3.418l-.133-.355" stroke-width="1.103"/><path d="m64.939 3.063-.176-.395" stroke-width="1.094"/></g><g stroke="#ff7f00"><path d="M62.029 33.145V23.083" stroke-width=".974"/><path d="m61.299 31.781.09.348" stroke-width=".745"/><path d="m61.389 32.129.148.348" stroke-width=".785"/><path d="m61.539 32.477.164.367" stroke-width=".803"/><path d="m61.699 32.844.148.297" stroke-width=".81"/><path d="m61.849 33.141.148.297" stroke-width=".817"/><path d="m61.999 33.438.164.332" stroke-width=".826"/><path d="m62.159 33.77.184.25" stroke-width=".976"/><path d="m62.349 34.02.258-.348" stroke-width="1.008"/><path d="m62.599 33.672.312-.434" stroke-width="1.009"/><path d="m62.919 33.239.168-.281" stroke-width="1.013"/><g stroke-width="1.016"><path d="m63.089 32.957.184-.297M63.269 32.66l.203-.297M63.469 32.363l.184-.3M63.659 32.063l.148-.266"/></g><path d="m63.799 31.797.238-.328" stroke-width="1.017"/></g><g stroke="red"><path d="m29.359 97.081-.395.156" stroke-width=".982"/><path d="m28.959 97.231-.352.277M28.609 97.511l-.441.355" stroke-width="1.045"/><path d="m28.169 97.871-.395.316" stroke-width="1.046"/><path d="m27.779 98.181-.309.238" stroke-width="1.047"/><path d="m27.469 98.421-.266.238M27.199 98.661l-.262.2" stroke-width="1.048"/><path d="m26.939 98.861-.352.434" stroke-width="1.047"/><path d="m26.589 99.291-.176.277" stroke-width="1.046"/><path d="m26.409 99.571.262.238M26.669 99.811l.398.277" stroke-width="1.009"/><path d="m27.069 100.091.262.156M27.329 100.241l.223.238" stroke-width="1.01"/><path d="m27.559 100.481.48.355" stroke-width="1.011"/><path d="m28.039 100.841.223.238M28.259 101.071l.484.277" stroke-width="1.012"/><path d="m28.749 101.351.48.238M29.229 101.591l.309.195" stroke-width="1.011"/><path d="m29.529 101.781.266.16" stroke-width="1.009"/><path d="m29.799 101.941.309.2" stroke-width="1.01"/><path d="m30.109 102.141-.047-.32" stroke-width=".703"/><path d="m42.379 25.199-.352.2" stroke-width=".85"/><path d="m42.029 25.399-.133.355" stroke-width=".862"/><path d="m41.889 25.754-.266.434M41.629 26.188l-.219.438" stroke-width=".866"/><path d="m41.409 26.625-.176.434M41.229 27.059l-.176.277" stroke-width=".868"/><path d="m41.059 27.336-.219.355" stroke-width=".869"/><path d="m40.839 27.692-.09.36" stroke-width=".87"/><path d="m40.749 28.051-.176.277" stroke-width=".88"/><path d="m40.569 28.328.395.156" stroke-width=".925"/><path d="M40.969 28.485h.398" stroke-width=".927"/><path d="m41.369 28.485.484.121M41.849 28.606l.352.156" stroke-width=".928"/><path d="m42.199 28.762.395.16M42.599 28.922l.309.117" stroke-width=".929"/><path d="m42.909 29.039.395.117" stroke-width=".93"/><path d="m43.299 29.156.395.121" stroke-width=".932"/><path d="m43.689 29.278.309.156" stroke-width=".933"/><path d="m43.999 29.434.352.2M44.349 29.633l.309.16" stroke-width=".938"/></g></g></svg>