<svg width="945.05" height="447.06" xml:space="preserve" xmlns="http://www.w3.org/2000/svg"><defs><clipPath id="a"><path d="M58.92 109.8h574.32v241.08H58.92z" clip-rule="evenodd"/></clipPath><clipPath id="b"><path d="M2.76 71.64h640.68v294.84H2.76z" clip-rule="evenodd"/></clipPath><clipPath id="c"><path d="M2.76 71.64h640.68v294.84H2.76z" clip-rule="evenodd"/></clipPath><clipPath id="d"><path d="M2.76 71.64h640.68v294.84H2.76z" clip-rule="evenodd"/></clipPath><clipPath id="e"><path d="M2.76 71.64h640.68v294.84H2.76z" clip-rule="evenodd"/></clipPath><clipPath id="f"><path d="M2.76 71.64h640.68v294.84H2.76z" clip-rule="evenodd"/></clipPath><clipPath id="g"><path d="M2.76 71.64h640.68v294.84H2.76z" clip-rule="evenodd"/></clipPath><clipPath id="h"><path d="M2.76 71.64h640.68v294.84H2.76z" clip-rule="evenodd"/></clipPath><clipPath id="i"><path d="M2.76 71.64h640.68v294.84H2.76z" clip-rule="evenodd"/></clipPath><clipPath id="j"><path d="M2.76 71.64h640.68v294.84H2.76z" clip-rule="evenodd"/></clipPath><clipPath id="k"><path d="M2.76 71.64h640.68v294.84H2.76z" clip-rule="evenodd"/></clipPath><clipPath id="l"><path d="M2.76 71.64h640.68v294.84H2.76z" clip-rule="evenodd"/></clipPath><clipPath id="m"><path d="M2.76 71.64h640.68v294.84H2.76z" clip-rule="evenodd"/></clipPath><clipPath id="n"><path d="M2.76 71.52h640.8v294.96H2.76z" clip-rule="evenodd"/></clipPath><clipPath id="o"><path d="M2.76 71.52h640.8v294.96H2.76z" clip-rule="evenodd"/></clipPath><clipPath id="p"><path d="M0 0h720v540H0z" clip-rule="evenodd"/></clipPath><clipPath id="q"><path d="M0 0h720v540H0z" clip-rule="evenodd"/></clipPath><clipPath id="r"><path d="M0 0h720v540H0z" clip-rule="evenodd"/></clipPath><clipPath id="s"><path d="M0 0h720v540H0z" clip-rule="evenodd"/></clipPath><clipPath id="t"><path d="M0 0h720v540H0z" clip-rule="evenodd"/></clipPath></defs><g fill="none" stroke="#868686" stroke-linejoin="round" stroke-miterlimit="10" stroke-width=".75"><path d="M70.093 403.994V83.522M62.573 403.994h7.52m-7.52-53.279h7.52m-7.52-53.439h7.52m-7.52-53.438h7.52m-7.52-53.439h7.52m-7.52-53.439h7.52m-7.52-53.438h7.52M70.093 403.994h764.78M70.093 403.994v7.52m152.956-7.52v7.52m152.956-7.52v7.52m152.956-7.52v7.52m152.956-7.52v7.52m152.957-7.52v7.52" stroke-width=".999975"/></g><g clip-path="url(#a)" transform="matrix(1.3333 0 0 -1.3333 -8.465 551.35)"><path d="m116.34 350.82 114.72-144.24 114.72-56.04L460.5 132.9l114.6-9.6" fill="none" stroke="#3e50b4" stroke-linecap="round" stroke-linejoin="round" stroke-miterlimit="10" stroke-width="3.75"/></g><g clip-path="url(#b)" transform="matrix(1.3333 0 0 -1.3333 -8.465 551.35)"><g fill="#7f7f7f" aria-label="0%"><path d="M28.326 111.224q0-2.07-.432-3.564-.432-1.476-1.368-2.268t-2.484-.792q-2.178 0-3.222 1.746-1.026 1.764-1.026 4.878 0 2.088.414 3.564.432 1.476 1.368 2.25.936.792 2.466.792 2.16 0 3.222-1.746 1.062-1.728 1.062-4.86zm-6.948 0q0-2.646.594-3.96.612-1.314 2.07-1.314 1.44 0 2.052 1.296.63 1.314.63 3.978 0 2.628-.63 3.942-.612 1.314-2.052 1.314-1.458 0-2.07-1.314-.594-1.314-.594-3.942zM33.462 117.812q1.332 0 2.016-1.062.684-1.044.684-2.952t-.666-2.988q-.648-1.062-2.034-1.062-1.278 0-1.962 1.062-.666 1.08-.666 2.988t.63 2.952q.63 1.062 1.998 1.062zm8.226-.18L34.56 104.78h-1.386l7.128 12.852zm-8.226-.936q-.684 0-1.008-.738-.306-.72-.306-2.16t.306-2.178q.324-.738 1.008-.738 1.386 0 1.386 2.916 0 2.898-1.386 2.898zm7.866-4.032q1.314 0 1.998-1.062.702-1.044.702-2.952t-.666-2.988q-.648-1.062-2.034-1.062-1.278 0-1.962 1.062-.666 1.08-.666 2.988t.63 2.952q.63 1.062 1.998 1.062zm0-1.134q-.684 0-1.008-.72-.306-.72-.306-2.16 0-1.458.306-2.196.324-.72 1.008-.72 1.386 0 1.386 2.916 0 2.88-1.386 2.88z"/></g></g><g clip-path="url(#c)" transform="matrix(1.3333 0 0 -1.3333 -8.465 551.35)"><g fill="#7f7f7f" aria-label="5%"><path d="M25.062 152.744q1.98 0 3.15-.99t1.17-2.79q0-1.998-1.278-3.15-1.26-1.134-3.528-1.134-.99 0-1.872.18-.864.18-1.458.522v1.494q.648-.396 1.566-.63.936-.216 1.782-.216 1.422 0 2.286.666.882.684.882 2.106 0 1.26-.774 1.926-.774.684-2.448.684-.504 0-1.152-.09t-1.044-.18l-.792.504.486 6.066h6.444v-1.44h-5.094l-.306-3.726q.306.054.828.126t1.152.072zM33.462 157.892q1.332 0 2.016-1.062.684-1.044.684-2.952t-.666-2.988q-.648-1.062-2.034-1.062-1.278 0-1.962 1.062-.666 1.08-.666 2.988t.63 2.952q.63 1.062 1.998 1.062zm8.226-.18L34.56 144.86h-1.386l7.128 12.852zm-8.226-.936q-.684 0-1.008-.738-.306-.72-.306-2.16t.306-2.178q.324-.738 1.008-.738 1.386 0 1.386 2.916 0 2.898-1.386 2.898zm7.866-4.032q1.314 0 1.998-1.062.702-1.044.702-2.952t-.666-2.988q-.648-1.062-2.034-1.062-1.278 0-1.962 1.062-.666 1.08-.666 2.988t.63 2.952q.63 1.062 1.998 1.062zm0-1.134q-.684 0-1.008-.72-.306-.72-.306-2.16 0-1.458.306-2.196.324-.72 1.008-.72 1.386 0 1.386 2.916 0 2.88-1.386 2.88z"/></g></g><g clip-path="url(#d)" transform="matrix(1.3333 0 0 -1.3333 -8.465 551.35)"><g fill="#7f7f7f" aria-label="10%"><path d="M17.598 184.92H16.05v8.982q0 .774.018 1.242t.054.972q-.288-.288-.522-.486t-.594-.504l-1.368-1.116-.828 1.062 3.474 2.7h1.314zM28.326 191.364q0-2.07-.432-3.564-.432-1.476-1.368-2.268t-2.484-.792q-2.178 0-3.222 1.746-1.026 1.764-1.026 4.878 0 2.088.414 3.564.432 1.476 1.368 2.25.936.792 2.466.792 2.16 0 3.222-1.746 1.062-1.728 1.062-4.86zm-6.948 0q0-2.646.594-3.96.612-1.314 2.07-1.314 1.44 0 2.052 1.296.63 1.314.63 3.978 0 2.628-.63 3.942-.612 1.314-2.052 1.314-1.458 0-2.07-1.314-.594-1.314-.594-3.942zM33.438 197.952q1.332 0 2.016-1.062.684-1.044.684-2.952t-.666-2.988q-.648-1.062-2.034-1.062-1.278 0-1.962 1.062-.666 1.08-.666 2.988t.63 2.952q.63 1.062 1.998 1.062zm8.226-.18-7.128-12.852H33.15l7.128 12.852zm-8.226-.936q-.684 0-1.008-.738-.306-.72-.306-2.16t.306-2.178q.324-.738 1.008-.738 1.386 0 1.386 2.916 0 2.898-1.386 2.898zm7.866-4.032q1.314 0 1.998-1.062.702-1.044.702-2.952t-.666-2.988q-.648-1.062-2.034-1.062-1.278 0-1.962 1.062-.666 1.08-.666 2.988t.63 2.952q.63 1.062 1.998 1.062zm0-1.134q-.684 0-1.008-.72-.306-.72-.306-2.16 0-1.458.306-2.196.324-.72 1.008-.72 1.386 0 1.386 2.916 0 2.88-1.386 2.88z"/></g></g><g clip-path="url(#e)" transform="matrix(1.3333 0 0 -1.3333 -8.465 551.35)"><g fill="#7f7f7f" aria-label="15%"><path d="M18.798 225H17.25v8.982q0 .774.018 1.242t.054.972q-.288-.288-.522-.486t-.594-.504l-1.368-1.116-.828 1.062 3.474 2.7h1.314zM25.062 232.884q1.98 0 3.15-.99t1.17-2.79q0-1.998-1.278-3.15-1.26-1.134-3.528-1.134-.99 0-1.872.18-.864.18-1.458.522v1.494q.648-.396 1.566-.63.936-.216 1.782-.216 1.422 0 2.286.666.882.684.882 2.106 0 1.26-.774 1.926-.774.684-2.448.684-.504 0-1.152-.09t-1.044-.18l-.792.504.486 6.066h6.444v-1.44h-5.094l-.306-3.726q.306.054.828.126t1.152.072zM33.432 238.032q1.332 0 2.016-1.062.684-1.044.684-2.952t-.666-2.988q-.648-1.062-2.034-1.062-1.278 0-1.962 1.062-.666 1.08-.666 2.988t.63 2.952q.63 1.062 1.998 1.062zm8.226-.18L34.53 225h-1.386l7.128 12.852zm-8.226-.936q-.684 0-1.008-.738-.306-.72-.306-2.16t.306-2.178q.324-.738 1.008-.738 1.386 0 1.386 2.916 0 2.898-1.386 2.898zm7.866-4.032q1.314 0 1.998-1.062.702-1.044.702-2.952t-.666-2.988q-.648-1.062-2.034-1.062-1.278 0-1.962 1.062-.666 1.08-.666 2.988t.63 2.952q.63 1.062 1.998 1.062zm0-1.134q-.684 0-1.008-.72-.306-.72-.306-2.16 0-1.458.306-2.196.324-.72 1.008-.72 1.386 0 1.386 2.916 0 2.88-1.386 2.88z"/></g></g><g clip-path="url(#f)" transform="matrix(1.3333 0 0 -1.3333 -8.465 551.35)"><g fill="#7f7f7f" aria-label="20%"><path d="M18.888 265.06h-8.496v1.314l3.366 3.402q.972.972 1.638 1.728t1.008 1.476q.342.738.342 1.602 0 1.062-.63 1.602-.63.558-1.638.558-.936 0-1.656-.324-.702-.324-1.44-.9l-.846 1.062q.756.63 1.728 1.062.99.45 2.214.45 1.8 0 2.844-.918 1.044-.9 1.044-2.502 0-1.008-.414-1.89t-1.152-1.746q-.738-.846-1.728-1.818l-2.682-2.646v-.072h6.498zM28.32 271.504q0-2.07-.432-3.564-.432-1.476-1.368-2.268t-2.484-.792q-2.178 0-3.222 1.746-1.026 1.764-1.026 4.878 0 2.088.414 3.564.432 1.476 1.368 2.25.936.792 2.466.792 2.16 0 3.222-1.746 1.062-1.728 1.062-4.86zm-6.948 0q0-2.646.594-3.96.612-1.314 2.07-1.314 1.44 0 2.052 1.296.63 1.314.63 3.978 0 2.628-.63 3.942-.612 1.314-2.052 1.314-1.458 0-2.07-1.314-.594-1.314-.594-3.942zM33.432 278.092q1.332 0 2.016-1.062.684-1.044.684-2.952t-.666-2.988q-.648-1.062-2.034-1.062-1.278 0-1.962 1.062-.666 1.08-.666 2.988t.63 2.952q.63 1.062 1.998 1.062zm8.226-.18L34.53 265.06h-1.386l7.128 12.852zm-8.226-.936q-.684 0-1.008-.738-.306-.72-.306-2.16t.306-2.178q.324-.738 1.008-.738 1.386 0 1.386 2.916 0 2.898-1.386 2.898zm7.866-4.032q1.314 0 1.998-1.062.702-1.044.702-2.952t-.666-2.988q-.648-1.062-2.034-1.062-1.278 0-1.962 1.062-.666 1.08-.666 2.988t.63 2.952q.63 1.062 1.998 1.062zm0-1.134q-.684 0-1.008-.72-.306-.72-.306-2.16 0-1.458.306-2.196.324-.72 1.008-.72 1.386 0 1.386 2.916 0 2.88-1.386 2.88z"/></g></g><g clip-path="url(#g)" transform="matrix(1.3333 0 0 -1.3333 -8.465 551.35)"><g fill="#7f7f7f" aria-label="25%"><path d="M20.088 305.14h-8.496v1.314l3.366 3.402q.972.972 1.638 1.728t1.008 1.476q.342.738.342 1.602 0 1.062-.63 1.602-.63.558-1.638.558-.936 0-1.656-.324-.702-.324-1.44-.9l-.846 1.062q.756.63 1.728 1.062.99.45 2.214.45 1.8 0 2.844-.918 1.044-.9 1.044-2.502 0-1.008-.414-1.89T18 311.116q-.738-.846-1.728-1.818l-2.682-2.646v-.072h6.498zM25.056 313.024q1.98 0 3.15-.99t1.17-2.79q0-1.998-1.278-3.15-1.26-1.134-3.528-1.134-.99 0-1.872.18-.864.18-1.458.522v1.494q.648-.396 1.566-.63.936-.216 1.782-.216 1.422 0 2.286.666.882.684.882 2.106 0 1.26-.774 1.926-.774.684-2.448.684-.504 0-1.152-.09t-1.044-.18l-.792.504.486 6.066h6.444v-1.44h-5.094l-.306-3.726q.306.054.828.126t1.152.072zM33.426 318.172q1.332 0 2.016-1.062.684-1.044.684-2.952t-.666-2.988q-.648-1.062-2.034-1.062-1.278 0-1.962 1.062-.666 1.08-.666 2.988t.63 2.952q.63 1.062 1.998 1.062zm8.226-.18-7.128-12.852h-1.386l7.128 12.852zm-8.226-.936q-.684 0-1.008-.738-.306-.72-.306-2.16t.306-2.178q.324-.738 1.008-.738 1.386 0 1.386 2.916 0 2.898-1.386 2.898zm7.866-4.032q1.314 0 1.998-1.062.702-1.044.702-2.952t-.666-2.988q-.648-1.062-2.034-1.062-1.278 0-1.962 1.062-.666 1.08-.666 2.988t.63 2.952q.63 1.062 1.998 1.062zm0-1.134q-.684 0-1.008-.72-.306-.72-.306-2.16 0-1.458.306-2.196.324-.72 1.008-.72 1.386 0 1.386 2.916 0 2.88-1.386 2.88z"/></g></g><g clip-path="url(#h)" transform="matrix(1.3333 0 0 -1.3333 -8.465 551.35)"><g fill="#7f7f7f" aria-label="30%"><path d="M18.174 355.08q0-1.299-.721-2.074-.721-.757-1.947-1.009v-.072q1.55-.18 2.307-.973.757-.793.757-2.073 0-1.118-.522-2-.523-.866-1.623-1.353-1.081-.486-2.793-.486-1.01 0-1.875.162-.865.144-1.658.54v1.479q.811-.397 1.748-.631.938-.217 1.803-.217 1.73 0 2.487.667.775.685.775 1.875 0 1.207-.955 1.73-.937.54-2.65.54h-1.243v1.353h1.261q1.586 0 2.398.667.829.666.829 1.766 0 .937-.631 1.442-.631.523-1.713.523-1.045 0-1.784-.307t-1.46-.775l-.793 1.082q.685.54 1.694.937 1.028.396 2.326.396 2.018 0 2.992-.9.99-.902.99-2.29zM28.339 351.673q0-2.073-.433-3.57-.432-1.477-1.37-2.27-.937-.793-2.487-.793-2.18 0-3.226 1.748-1.027 1.766-1.027 4.885 0 2.09.414 3.568.433 1.478 1.37 2.253.937.793 2.47.793 2.162 0 3.226-1.748 1.063-1.73 1.063-4.866zm-6.957 0q0-2.65.594-3.966.613-1.315 2.073-1.315 1.442 0 2.055 1.297.63 1.316.63 3.984 0 2.631-.63 3.947-.613 1.316-2.055 1.316-1.46 0-2.073-1.316-.594-1.316-.594-3.948zM33.458 358.269q1.334 0 2.019-1.063.685-1.046.685-2.956t-.667-2.992q-.65-1.064-2.037-1.064-1.28 0-1.965 1.064-.666 1.081-.666 2.992 0 1.91.63 2.956.631 1.063 2.001 1.063zm8.237-.18-7.138-12.87H33.17l7.137 12.87zm-8.237-.937q-.685 0-1.01-.74-.306-.72-.306-2.162t.307-2.181q.324-.74 1.009-.74 1.388 0 1.388 2.92 0 2.903-1.388 2.903zm7.877-4.038q1.315 0 2-1.063.703-1.046.703-2.956t-.667-2.992q-.649-1.064-2.036-1.064-1.28 0-1.965 1.064-.667 1.081-.667 2.992 0 1.91.63 2.956.632 1.063 2.002 1.063zm0-1.135q-.685 0-1.01-.721-.306-.721-.306-2.163 0-1.46.306-2.2.325-.72 1.01-.72 1.387 0 1.387 2.92 0 2.884-1.388 2.884z"/></g></g><g clip-path="url(#i)" transform="matrix(1.3333 0 0 -1.3333 -8.465 551.35)"><g fill="#7f7f7f" aria-label="4mm"><path d="M104.832 85.068h-1.872v-2.916h-1.53v2.916h-6.156v1.35l6.048 8.658h1.638V86.49h1.872zm-3.402 5.472q0 .936.036 1.584.036.666.054 1.26h-.072q-.144-.342-.36-.738t-.414-.666l-3.852-5.49h4.608zM116.85 91.98q1.638 0 2.448-.846.81-.828.81-2.7v-6.282h-1.566v6.21q0 2.286-1.962 2.286-1.404 0-2.016-.81-.594-.81-.594-2.358v-5.328h-1.566v6.21q0 2.286-1.98 2.286-1.458 0-2.016-.9t-.558-2.592v-5.004h-1.584V91.8h1.278l.234-1.314h.09q.45.756 1.206 1.116.774.378 1.638.378 2.268 0 2.952-1.62h.09q.486.828 1.314 1.224.846.396 1.782.396zM133.404 91.98q1.638 0 2.448-.846.81-.828.81-2.7v-6.282h-1.566v6.21q0 2.286-1.962 2.286-1.404 0-2.016-.81-.594-.81-.594-2.358v-5.328h-1.566v6.21q0 2.286-1.98 2.286-1.458 0-2.016-.9t-.558-2.592v-5.004h-1.584V91.8h1.278l.234-1.314h.09q.45.756 1.206 1.116.774.378 1.638.378 2.268 0 2.952-1.62h.09q.486.828 1.314 1.224.846.396 1.782.396z"/></g></g><g clip-path="url(#j)" transform="matrix(1.3333 0 0 -1.3333 -8.465 551.35)"><g fill="#7f7f7f" aria-label="6mm"><path d="M210.08 87.642q0 1.386.234 2.718.252 1.35.882 2.43.648 1.098 1.8 1.746t2.97.648q.378 0 .828-.036.468-.036.756-.126v-1.35q-.324.108-.738.162-.396.054-.81.054-1.242 0-2.07-.414t-1.314-1.134q-.468-.72-.684-1.656t-.27-1.998h.108q.414.63 1.152 1.062.738.45 1.89.45 1.674 0 2.7-1.026 1.026-1.008 1.026-2.88 0-2.016-1.116-3.168-1.098-1.152-2.97-1.152-1.224 0-2.214.612t-1.584 1.872q-.576 1.26-.576 3.186zm4.356-4.338q1.134 0 1.836.72.702.738.702 2.268 0 1.224-.63 1.944-.612.72-1.854.72-.846 0-1.476-.36-.63-.342-.99-.882-.342-.54-.342-1.116 0-.774.306-1.548.306-.756.918-1.26.612-.486 1.53-.486zM232.058 91.98q1.638 0 2.448-.846.81-.828.81-2.7v-6.282h-1.566v6.21q0 2.286-1.962 2.286-1.404 0-2.016-.81-.594-.81-.594-2.358v-5.328h-1.566v6.21q0 2.286-1.98 2.286-1.458 0-2.016-.9t-.558-2.592v-5.004h-1.584V91.8h1.278l.234-1.314h.09q.45.756 1.206 1.116.774.378 1.638.378 2.268 0 2.952-1.62h.09q.486.828 1.314 1.224.846.396 1.782.396zM248.6 91.98q1.638 0 2.448-.846.81-.828.81-2.7v-6.282h-1.566v6.21q0 2.286-1.962 2.286-1.404 0-2.016-.81-.594-.81-.594-2.358v-5.328h-1.566v6.21q0 2.286-1.98 2.286-1.458 0-2.016-.9t-.558-2.592v-5.004h-1.584V91.8h1.278l.234-1.314h.09q.45.756 1.206 1.116.774.378 1.638.378 2.268 0 2.952-1.62h.09q.486.828 1.314 1.224.846.396 1.782.396z"/></g></g><g clip-path="url(#k)" transform="matrix(1.3333 0 0 -1.3333 -8.465 551.35)"><g fill="#7f7f7f" aria-label="8mm"><path d="M329.03 95.184q1.692 0 2.772-.792t1.08-2.286q0-.774-.342-1.35-.324-.576-.882-1.026-.558-.432-1.224-.774.792-.378 1.44-.864.648-.468 1.026-1.098.396-.63.396-1.512 0-1.62-1.152-2.574-1.134-.936-3.06-.936-2.07 0-3.186.9-1.116.918-1.116 2.556 0 .882.36 1.53.378.648.99 1.116t1.314.792q-.936.54-1.602 1.296-.648.774-.648 1.962 0 .99.504 1.656.504.684 1.368 1.044t1.962.36zm-.018-1.278q-.99 0-1.638-.486-.63-.468-.63-1.368 0-.666.306-1.116.324-.45.864-.774.54-.306 1.188-.594.936.396 1.566.954.648.558.648 1.53 0 .9-.63 1.368-.63.486-1.674.486zm-2.682-8.496q0-.936.666-1.566.666-.612 2.052-.612 1.314 0 1.998.612.702.63.702 1.62 0 .936-.738 1.548-.738.63-1.962 1.098l-.288.108q-1.188-.504-1.818-1.17-.612-.648-.612-1.638zM346.688 91.98q1.638 0 2.448-.846.81-.828.81-2.7v-6.282h-1.566v6.21q0 2.286-1.962 2.286-1.404 0-2.016-.81-.594-.81-.594-2.358v-5.328h-1.566v6.21q0 2.286-1.98 2.286-1.458 0-2.016-.9t-.558-2.592v-5.004h-1.584V91.8h1.278l.234-1.314h.09q.45.756 1.206 1.116.774.378 1.638.378 2.268 0 2.952-1.62h.09q.486.828 1.314 1.224.846.396 1.782.396zM363.23 91.98q1.638 0 2.448-.846.81-.828.81-2.7v-6.282h-1.566v6.21q0 2.286-1.962 2.286-1.404 0-2.016-.81-.594-.81-.594-2.358v-5.328h-1.566v6.21q0 2.286-1.98 2.286-1.458 0-2.016-.9t-.558-2.592v-5.004h-1.584V91.8h1.278l.234-1.314h.09q.45.756 1.206 1.116.774.378 1.638.378 2.268 0 2.952-1.62h.09q.486.828 1.314 1.224.846.396 1.782.396z"/></g></g><g clip-path="url(#l)" transform="matrix(1.3333 0 0 -1.3333 -8.465 551.35)"><g fill="#7f7f7f" aria-label="10mm"><path d="M441.01 82.152h-1.548v8.982q0 .774.018 1.242t.054.972q-.288-.288-.522-.486t-.594-.504l-1.368-1.116-.828 1.062 3.474 2.7h1.314zM451.738 88.596q0-2.07-.432-3.564-.432-1.476-1.368-2.268t-2.484-.792q-2.178 0-3.222 1.746-1.026 1.764-1.026 4.878 0 2.088.414 3.564.432 1.476 1.368 2.25.936.792 2.466.792 2.16 0 3.222-1.746 1.062-1.728 1.062-4.86zm-6.948 0q0-2.646.594-3.96.612-1.314 2.07-1.314 1.44 0 2.052 1.296.63 1.314.63 3.978 0 2.628-.63 3.942-.612 1.314-2.052 1.314-1.458 0-2.07-1.314-.594-1.314-.594-3.942zM465.454 91.98q1.638 0 2.448-.846.81-.828.81-2.7v-6.282h-1.566v6.21q0 2.286-1.962 2.286-1.404 0-2.016-.81-.594-.81-.594-2.358v-5.328h-1.566v6.21q0 2.286-1.98 2.286-1.458 0-2.016-.9t-.558-2.592v-5.004h-1.584V91.8h1.278l.234-1.314h.09q.45.756 1.206 1.116.774.378 1.638.378 2.268 0 2.952-1.62h.09q.486.828 1.314 1.224.846.396 1.782.396zM481.996 91.98q1.638 0 2.448-.846.81-.828.81-2.7v-6.282h-1.566v6.21q0 2.286-1.962 2.286-1.404 0-2.016-.81-.594-.81-.594-2.358v-5.328h-1.566v6.21q0 2.286-1.98 2.286-1.458 0-2.016-.9t-.558-2.592v-5.004h-1.584V91.8h1.278l.234-1.314h.09q.45.756 1.206 1.116.774.378 1.638.378 2.268 0 2.952-1.62h.09q.486.828 1.314 1.224.846.396 1.782.396z"/></g></g><g clip-path="url(#m)" transform="matrix(1.3333 0 0 -1.3333 -8.465 551.35)"><g fill="#7f7f7f" aria-label="12mm"><path d="M556.54 82.152h-1.548v8.982q0 .774.018 1.242t.054.972q-.288-.288-.522-.486t-.594-.504l-1.368-1.116-.828 1.062 3.474 2.7h1.314zM567.214 82.152h-8.496v1.314l3.366 3.402q.972.972 1.638 1.728t1.008 1.476q.342.738.342 1.602 0 1.062-.63 1.602-.63.558-1.638.558-.936 0-1.656-.324-.702-.324-1.44-.9l-.846 1.062q.756.63 1.728 1.062.99.45 2.214.45 1.8 0 2.844-.918 1.044-.9 1.044-2.502 0-1.008-.414-1.89t-1.152-1.746q-.738-.846-1.728-1.818l-2.682-2.646v-.072h6.498zM579.346 91.98q1.638 0 2.448-.846.81-.828.81-2.7v-6.282h-1.566v6.21q0 2.286-1.962 2.286-1.404 0-2.016-.81-.594-.81-.594-2.358v-5.328H574.9v6.21q0 2.286-1.98 2.286-1.458 0-2.016-.9t-.558-2.592v-5.004h-1.584V91.8h1.278l.234-1.314h.09q.45.756 1.206 1.116.774.378 1.638.378 2.268 0 2.952-1.62h.09q.486.828 1.314 1.224.846.396 1.782.396zM595.888 91.98q1.638 0 2.448-.846.81-.828.81-2.7v-6.282h-1.566v6.21q0 2.286-1.962 2.286-1.404 0-2.016-.81-.594-.81-.594-2.358v-5.328h-1.566v6.21q0 2.286-1.98 2.286-1.458 0-2.016-.9t-.558-2.592v-5.004h-1.584V91.8h1.278l.234-1.314h.09q.45.756 1.206 1.116.774.378 1.638.378 2.268 0 2.952-1.62h.09q.486.828 1.314 1.224.846.396 1.782.396z"/></g></g><g clip-path="url(#n)" transform="matrix(1.3333 0 0 -1.3333 -8.465 551.35)"><g aria-label="1 in 20 taps (5%)"><path d="M359.29 169.66h-1.548v8.982q0 .774.018 1.242t.054.972q-.288-.288-.522-.486t-.594-.504l-1.368-1.116-.828 1.062 3.474 2.7h1.314zM367.588 182.926q.36 0 .63-.252.288-.234.288-.756 0-.504-.288-.756-.27-.252-.63-.252-.396 0-.666.252t-.27.756q0 .522.27.756.27.252.666.252zm.774-3.618v-9.648h-1.584v9.648zM375.346 179.488q1.728 0 2.61-.846.882-.828.882-2.7v-6.282h-1.566v6.174q0 2.322-2.16 2.322-1.602 0-2.214-.9t-.612-2.592v-5.004h-1.584v9.648h1.278l.234-1.314h.09q.468.756 1.296 1.116.828.378 1.746.378zM393.616 169.66h-8.496v1.314l3.366 3.402q.972.972 1.638 1.728t1.008 1.476q.342.738.342 1.602 0 1.062-.63 1.602-.63.558-1.638.558-.936 0-1.656-.324-.702-.324-1.44-.9l-.846 1.062q.756.63 1.728 1.062.99.45 2.214.45 1.8 0 2.844-.918 1.044-.9 1.044-2.502 0-1.008-.414-1.89t-1.152-1.746q-.738-.846-1.728-1.818l-2.682-2.646v-.072h6.498zM402.976 176.104q0-2.07-.432-3.564-.432-1.476-1.368-2.268t-2.484-.792q-2.178 0-3.222 1.746-1.026 1.764-1.026 4.878 0 2.088.414 3.564.432 1.476 1.368 2.25.936.792 2.466.792 2.16 0 3.222-1.746 1.062-1.728 1.062-4.86zm-6.948 0q0-2.646.594-3.96.612-1.314 2.07-1.314 1.44 0 2.052 1.296.63 1.314.63 3.978 0 2.628-.63 3.942-.612 1.314-2.052 1.314-1.458 0-2.07-1.314-.594-1.314-.594-3.942zM414.01 170.776q.36 0 .738.054.378.072.612.144v-1.206q-.252-.126-.72-.198-.468-.09-.9-.09-.756 0-1.404.252-.63.27-1.026.918t-.396 1.818v5.616h-1.368v.756l1.386.63.63 2.052h.936v-2.214h2.79v-1.224h-2.79v-5.58q0-.882.414-1.314.432-.414 1.098-.414zM420.472 179.47q1.764 0 2.61-.774t.846-2.466v-6.57h-1.152l-.306 1.368h-.072q-.63-.792-1.332-1.17-.684-.378-1.908-.378-1.314 0-2.178.684-.864.702-.864 2.178 0 1.44 1.134 2.214 1.134.792 3.492.864l1.638.054v.576q0 1.206-.522 1.674t-1.476.468q-.756 0-1.44-.234-.684-.216-1.278-.504l-.486 1.188q.63.342 1.494.576.864.252 1.8.252zm.468-5.148q-1.8-.072-2.502-.576-.684-.504-.684-1.422 0-.81.486-1.188.504-.378 1.278-.378 1.224 0 2.034.666.81.684.81 2.088v.864zM431.218 179.488q1.782 0 2.862-1.242 1.098-1.242 1.098-3.744 0-2.466-1.098-3.744-1.08-1.278-2.88-1.278-1.116 0-1.854.414-.72.432-1.134.99h-.108q.036-.306.072-.774t.036-.81v-3.96h-1.584v13.968h1.296l.216-1.314h.072q.432.63 1.134 1.062t1.872.432zm-.288-1.332q-1.476 0-2.088-.828-.594-.828-.63-2.52v-.306q0-1.782.576-2.754.594-.954 2.178-.954.882 0 1.44.486.576.486.846 1.314.288.846.288 1.926 0 1.656-.648 2.646-.63.99-1.962.99zM444.052 172.324q0-1.404-1.044-2.124t-2.808-.72q-1.008 0-1.746.162-.72.162-1.278.45v1.44q.576-.288 1.386-.54.828-.234 1.674-.234 1.206 0 1.746.378.54.396.54 1.044 0 .36-.198.648t-.72.576q-.504.288-1.458.648-.936.36-1.602.72t-1.026.864-.36 1.296q0 1.224.99 1.89 1.008.666 2.628.666.882 0 1.638-.18.774-.162 1.44-.468l-.54-1.26q-.612.252-1.278.432t-1.368.18q-.972 0-1.494-.324-.504-.306-.504-.846 0-.396.234-.684.234-.27.774-.54.558-.252 1.476-.612.918-.342 1.566-.702t.99-.882q.342-.504.342-1.278zM450.19 174.592q0 2.196.63 4.23.648 2.052 2.016 3.69h1.494q-1.26-1.692-1.908-3.726-.63-2.034-.63-4.176 0-2.088.63-4.104.648-1.998 1.89-3.69h-1.476q-1.368 1.584-2.016 3.582-.63 2.016-.63 4.194zM459.19 177.544q1.98 0 3.15-.99t1.17-2.79q0-1.998-1.278-3.15-1.26-1.134-3.528-1.134-.99 0-1.872.18-.864.18-1.458.522v1.494q.648-.396 1.566-.63.936-.216 1.782-.216 1.422 0 2.286.666.882.684.882 2.106 0 1.26-.774 1.926-.774.684-2.448.684-.504 0-1.152-.09t-1.044-.18l-.792.504.486 6.066h6.444v-1.44h-5.094l-.306-3.726q.306.054.828.126t1.152.072zM467.56 182.692q1.332 0 2.016-1.062.684-1.044.684-2.952t-.666-2.988q-.648-1.062-2.034-1.062-1.278 0-1.962 1.062-.666 1.08-.666 2.988t.63 2.952q.63 1.062 1.998 1.062zm8.226-.18-7.128-12.852h-1.386l7.128 12.852zm-8.226-.936q-.684 0-1.008-.738-.306-.72-.306-2.16t.306-2.178q.324-.738 1.008-.738 1.386 0 1.386 2.916 0 2.898-1.386 2.898zm7.866-4.032q1.314 0 1.998-1.062.702-1.044.702-2.952t-.666-2.988q-.648-1.062-2.034-1.062-1.278 0-1.962 1.062-.666 1.08-.666 2.988t.63 2.952q.63 1.062 1.998 1.062zm0-1.134q-.684 0-1.008-.72-.306-.72-.306-2.16 0-1.458.306-2.196.324-.72 1.008-.72 1.386 0 1.386 2.916 0 2.88-1.386 2.88z"/><path d="M481.58 174.592q0-2.178-.648-4.194-.63-1.998-1.998-3.582h-1.476q1.242 1.692 1.872 3.69.648 2.016.648 4.104 0 2.142-.648 4.176-.63 2.034-1.89 3.726h1.494q1.368-1.638 1.998-3.69.648-2.034.648-4.23z"/></g></g><g clip-path="url(#o)" transform="matrix(1.3333 0 0 -1.3333 -8.465 551.35)"><g aria-label="1 in 30 taps (3%)"><path d="M471.7 141.29h-1.548v8.982q0 .774.018 1.242t.054.972q-.288-.288-.522-.486t-.594-.504l-1.368-1.116-.828 1.062 3.474 2.7h1.314zM479.998 154.556q.36 0 .63-.252.288-.234.288-.756 0-.504-.288-.756-.27-.252-.63-.252-.396 0-.666.252t-.27.756q0 .522.27.756.27.252.666.252zm.774-3.618v-9.648h-1.584v9.648zM487.756 151.118q1.728 0 2.61-.846.882-.828.882-2.7v-6.282h-1.566v6.174q0 2.322-2.16 2.322-1.602 0-2.214-.9t-.612-2.592v-5.004h-1.584v9.648h1.278l.234-1.314h.09q.468.756 1.296 1.116.828.378 1.746.378zM505.54 151.136q0-1.296-.72-2.07-.72-.756-1.944-1.008v-.072q1.548-.18 2.304-.972t.756-2.07q0-1.116-.522-1.998-.522-.864-1.62-1.35-1.08-.486-2.79-.486-1.008 0-1.872.162-.864.144-1.656.54v1.476q.81-.396 1.746-.63.936-.216 1.8-.216 1.728 0 2.484.666.774.684.774 1.872 0 1.206-.954 1.728-.936.54-2.646.54h-1.242v1.35h1.26q1.584 0 2.394.666.828.666.828 1.764 0 .936-.63 1.44-.63.522-1.71.522-1.044 0-1.782-.306t-1.458-.774l-.792 1.08q.684.54 1.692.936 1.026.396 2.322.396 2.016 0 2.988-.9.99-.9.99-2.286zM515.638 147.734q0-2.07-.432-3.564-.432-1.476-1.368-2.268t-2.484-.792q-2.178 0-3.222 1.746-1.026 1.764-1.026 4.878 0 2.088.414 3.564.432 1.476 1.368 2.25.936.792 2.466.792 2.16 0 3.222-1.746 1.062-1.728 1.062-4.86zm-6.948 0q0-2.646.594-3.96.612-1.314 2.07-1.314 1.44 0 2.052 1.296.63 1.314.63 3.978 0 2.628-.63 3.942-.612 1.314-2.052 1.314-1.458 0-2.07-1.314-.594-1.314-.594-3.942zM526.672 142.406q.36 0 .738.054.378.072.612.144v-1.206q-.252-.126-.72-.198-.468-.09-.9-.09-.756 0-1.404.252-.63.27-1.026.918t-.396 1.818v5.616h-1.368v.756l1.386.63.63 2.052h.936v-2.214h2.79v-1.224h-2.79v-5.58q0-.882.414-1.314.432-.414 1.098-.414zM533.134 151.1q1.764 0 2.61-.774t.846-2.466v-6.57h-1.152l-.306 1.368h-.072q-.63-.792-1.332-1.17-.684-.378-1.908-.378-1.314 0-2.178.684-.864.702-.864 2.178 0 1.44 1.134 2.214 1.134.792 3.492.864l1.638.054v.576q0 1.206-.522 1.674t-1.476.468q-.756 0-1.44-.234-.684-.216-1.278-.504l-.486 1.188q.63.342 1.494.576.864.252 1.8.252zm.468-5.148q-1.8-.072-2.502-.576-.684-.504-.684-1.422 0-.81.486-1.188.504-.378 1.278-.378 1.224 0 2.034.666.81.684.81 2.088v.864zM543.88 151.118q1.782 0 2.862-1.242 1.098-1.242 1.098-3.744 0-2.466-1.098-3.744-1.08-1.278-2.88-1.278-1.116 0-1.854.414-.72.432-1.134.99h-.108q.036-.306.072-.774t.036-.81v-3.96h-1.584v13.968h1.296l.216-1.314h.072q.432.63 1.134 1.062t1.872.432zm-.288-1.332q-1.476 0-2.088-.828-.594-.828-.63-2.52v-.306q0-1.782.576-2.754.594-.954 2.178-.954.882 0 1.44.486.576.486.846 1.314.288.846.288 1.926 0 1.656-.648 2.646-.63.99-1.962.99zM556.714 143.954q0-1.404-1.044-2.124t-2.808-.72q-1.008 0-1.746.162-.72.162-1.278.45v1.44q.576-.288 1.386-.54.828-.234 1.674-.234 1.206 0 1.746.378.54.396.54 1.044 0 .36-.198.648t-.72.576q-.504.288-1.458.648-.936.36-1.602.72t-1.026.864-.36 1.296q0 1.224.99 1.89 1.008.666 2.628.666.882 0 1.638-.18.774-.162 1.44-.468l-.54-1.26q-.612.252-1.278.432t-1.368.18q-.972 0-1.494-.324-.504-.306-.504-.846 0-.396.234-.684.234-.27.774-.54.558-.252 1.476-.612.918-.342 1.566-.702t.99-.882q.342-.504.342-1.278zM562.852 146.222q0 2.196.63 4.23.648 2.052 2.016 3.69h1.494q-1.26-1.692-1.908-3.726-.63-2.034-.63-4.176 0-2.088.63-4.104.648-1.998 1.89-3.69h-1.476q-1.368 1.584-2.016 3.582-.63 2.016-.63 4.194zM575.78 151.136q0-1.296-.72-2.07-.72-.756-1.944-1.008v-.072q1.548-.18 2.304-.972t.756-2.07q0-1.116-.522-1.998-.522-.864-1.62-1.35-1.08-.486-2.79-.486-1.008 0-1.872.162-.864.144-1.656.54v1.476q.81-.396 1.746-.63.936-.216 1.8-.216 1.728 0 2.484.666.774.684.774 1.872 0 1.206-.954 1.728-.936.54-2.646.54h-1.242v1.35h1.26q1.584 0 2.394.666.828.666.828 1.764 0 .936-.63 1.44-.63.522-1.71.522-1.044 0-1.782-.306t-1.458-.774l-.792 1.08q.684.54 1.692.936 1.026.396 2.322.396 2.016 0 2.988-.9.99-.9.99-2.286zM580.02 154.322q1.332 0 2.016-1.062.684-1.044.684-2.952t-.666-2.988q-.648-1.062-2.034-1.062-1.278 0-1.962 1.062-.666 1.08-.666 2.988t.63 2.952q.63 1.062 1.998 1.062zm8.226-.18-7.128-12.852h-1.386l7.128 12.852zm-8.226-.936q-.684 0-1.008-.738-.306-.72-.306-2.16t.306-2.178q.324-.738 1.008-.738 1.386 0 1.386 2.916 0 2.898-1.386 2.898zm7.866-4.032q1.314 0 1.998-1.062.702-1.044.702-2.952t-.666-2.988q-.648-1.062-2.034-1.062-1.278 0-1.962 1.062-.666 1.08-.666 2.988t.63 2.952q.63 1.062 1.998 1.062zm0-1.134q-.684 0-1.008-.72-.306-.72-.306-2.16 0-1.458.306-2.196.324-.72 1.008-.72 1.386 0 1.386 2.916 0 2.88-1.386 2.88z"/><path d="M594.05 146.222q0-2.178-.648-4.194-.63-1.998-1.998-3.582h-1.476q1.242 1.692 1.872 3.69.648 2.016.648 4.104 0 2.142-.648 4.176-.63 2.034-1.89 3.726h1.494q1.368-1.638 1.998-3.69.648-2.034.648-4.23z"/></g></g><g clip-path="url(#p)" transform="matrix(1.3333 0 0 -1.3333 -8.465 551.35)"><g aria-label="1 in 3 taps (30%)"><path d="M135.49 396.5h-1.548v8.982q0 .774.018 1.242t.054.972q-.288-.288-.522-.486t-.594-.504l-1.368-1.116-.828 1.062 3.474 2.7h1.314zM143.788 409.766q.36 0 .63-.252.288-.234.288-.756 0-.504-.288-.756-.27-.252-.63-.252-.396 0-.666.252t-.27.756q0 .522.27.756.27.252.666.252zm.774-3.618V396.5h-1.584v9.648zM151.546 406.328q1.728 0 2.61-.846.882-.828.882-2.7V396.5h-1.566v6.174q0 2.322-2.16 2.322-1.602 0-2.214-.9t-.612-2.592V396.5h-1.584v9.648h1.278l.234-1.314h.09q.468.756 1.296 1.116.828.378 1.746.378zM169.33 406.346q0-1.296-.72-2.07-.72-.756-1.944-1.008v-.072q1.548-.18 2.304-.972t.756-2.07q0-1.116-.522-1.998-.522-.864-1.62-1.35-1.08-.486-2.79-.486-1.008 0-1.872.162-.864.144-1.656.54v1.476q.81-.396 1.746-.63.936-.216 1.8-.216 1.728 0 2.484.666.774.684.774 1.872 0 1.206-.954 1.728-.936.54-2.646.54h-1.242v1.35h1.26q1.584 0 2.394.666.828.666.828 1.764 0 .936-.63 1.44-.63.522-1.71.522-1.044 0-1.782-.306t-1.458-.774l-.792 1.08q.684.54 1.692.936 1.026.396 2.322.396 2.016 0 2.988-.9.99-.9.99-2.286zM179.428 397.616q.36 0 .738.054.378.072.612.144v-1.206q-.252-.126-.72-.198-.468-.09-.9-.09-.756 0-1.404.252-.63.27-1.026.918t-.396 1.818v5.616h-1.368v.756l1.386.63.63 2.052h.936v-2.214h2.79v-1.224h-2.79v-5.58q0-.882.414-1.314.432-.414 1.098-.414zM185.89 406.31q1.764 0 2.61-.774t.846-2.466v-6.57h-1.152l-.306 1.368h-.072q-.63-.792-1.332-1.17-.684-.378-1.908-.378-1.314 0-2.178.684-.864.702-.864 2.178 0 1.44 1.134 2.214 1.134.792 3.492.864l1.638.054v.576q0 1.206-.522 1.674t-1.476.468q-.756 0-1.44-.234-.684-.216-1.278-.504l-.486 1.188q.63.342 1.494.576.864.252 1.8.252zm.468-5.148q-1.8-.072-2.502-.576-.684-.504-.684-1.422 0-.81.486-1.188.504-.378 1.278-.378 1.224 0 2.034.666.81.684.81 2.088v.864zM196.636 406.328q1.782 0 2.862-1.242 1.098-1.242 1.098-3.744 0-2.466-1.098-3.744-1.08-1.278-2.88-1.278-1.116 0-1.854.414-.72.432-1.134.99h-.108q.036-.306.072-.774t.036-.81v-3.96h-1.584v13.968h1.296l.216-1.314h.072q.432.63 1.134 1.062t1.872.432zm-.288-1.332q-1.476 0-2.088-.828-.594-.828-.63-2.52v-.306q0-1.782.576-2.754.594-.954 2.178-.954.882 0 1.44.486.576.486.846 1.314.288.846.288 1.926 0 1.656-.648 2.646-.63.99-1.962.99zM209.47 399.164q0-1.404-1.044-2.124t-2.808-.72q-1.008 0-1.746.162-.72.162-1.278.45v1.44q.576-.288 1.386-.54.828-.234 1.674-.234 1.206 0 1.746.378.54.396.54 1.044 0 .36-.198.648t-.72.576q-.504.288-1.458.648-.936.36-1.602.72t-1.026.864-.36 1.296q0 1.224.99 1.89 1.008.666 2.628.666.882 0 1.638-.18.774-.162 1.44-.468l-.54-1.26q-.612.252-1.278.432t-1.368.18q-.972 0-1.494-.324-.504-.306-.504-.846 0-.396.234-.684.234-.27.774-.54.558-.252 1.476-.612.918-.342 1.566-.702t.99-.882q.342-.504.342-1.278zM215.68 401.432q0 2.196.63 4.23.648 2.052 2.016 3.69h1.494q-1.26-1.692-1.908-3.726-.63-2.034-.63-4.176 0-2.088.63-4.104.648-1.998 1.89-3.69h-1.476q-1.368 1.584-2.016 3.582-.63 2.016-.63 4.194zM228.676 406.346q0-1.296-.72-2.07-.72-.756-1.944-1.008v-.072q1.548-.18 2.304-.972t.756-2.07q0-1.116-.522-1.998-.522-.864-1.62-1.35-1.08-.486-2.79-.486-1.008 0-1.872.162-.864.144-1.656.54v1.476q.81-.396 1.746-.63.936-.216 1.8-.216 1.728 0 2.484.666.774.684.774 1.872 0 1.206-.954 1.728-.936.54-2.646.54h-1.242v1.35h1.26q1.584 0 2.394.666.828.666.828 1.764 0 .936-.63 1.44-.63.522-1.71.522-1.044 0-1.782-.306t-1.458-.774l-.792 1.08q.684.54 1.692.936 1.026.396 2.322.396 2.016 0 2.988-.9.99-.9.99-2.286zM238.83 402.944q0-2.07-.432-3.564-.432-1.476-1.368-2.268t-2.484-.792q-2.178 0-3.222 1.746-1.026 1.764-1.026 4.878 0 2.088.414 3.564.432 1.476 1.368 2.25.936.792 2.466.792 2.16 0 3.222-1.746 1.062-1.728 1.062-4.86zm-6.948 0q0-2.646.594-3.96.612-1.314 2.07-1.314 1.44 0 2.052 1.296.63 1.314.63 3.978 0 2.628-.63 3.942-.612 1.314-2.052 1.314-1.458 0-2.07-1.314-.594-1.314-.594-3.942zM243.94 409.532q1.332 0 2.016-1.062.684-1.044.684-2.952t-.666-2.988q-.648-1.062-2.034-1.062-1.278 0-1.962 1.062-.666 1.08-.666 2.988t.63 2.952q.63 1.062 1.998 1.062zm8.226-.18-7.128-12.852h-1.386l7.128 12.852zm-8.226-.936q-.684 0-1.008-.738-.306-.72-.306-2.16t.306-2.178q.324-.738 1.008-.738 1.386 0 1.386 2.916 0 2.898-1.386 2.898zm7.866-4.032q1.314 0 1.998-1.062.702-1.044.702-2.952t-.666-2.988q-.648-1.062-2.034-1.062-1.278 0-1.962 1.062-.666 1.08-.666 2.988t.63 2.952q.63 1.062 1.998 1.062zm0-1.134q-.684 0-1.008-.72-.306-.72-.306-2.16 0-1.458.306-2.196.324-.72 1.008-.72 1.386 0 1.386 2.916 0 2.88-1.386 2.88z"/><path d="M257.96 401.432q0-2.178-.648-4.194-.63-1.998-1.998-3.582h-1.476q1.242 1.692 1.872 3.69.648 2.016.648 4.104 0 2.142-.648 4.176-.63 2.034-1.89 3.726h1.494q1.368-1.638 1.998-3.69.648-2.034.648-4.23z"/></g></g><g clip-path="url(#q)" transform="matrix(1.3333 0 0 -1.3333 -8.465 551.35)"><g aria-label="will miss the"><path d="M136.858 380.354q-.234.738-.414 1.44l-.252 1.116h-.072q-.072-.396-.234-1.116-.162-.702-.414-1.458l-1.728-5.418h-1.8l-2.646 9.648h1.638l1.332-5.148q.198-.774.378-1.566t.252-1.314h.072q.072.306.162.756.108.45.234.936.126.504.252.9l1.71 5.436h1.728l1.656-5.436q.198-.612.378-1.332.198-.72.27-1.242h.072q.054.45.234 1.242.198.792.414 1.62l1.35 5.148h1.62l-2.682-9.648h-1.854zM146.074 388.166q.36 0 .63-.252.288-.234.288-.756 0-.504-.288-.756-.27-.252-.63-.252-.396 0-.666.252t-.27.756q0 .522.27.756.27.252.666.252zm.774-3.618V374.9h-1.584v9.648zM150.772 374.9h-1.584v13.68h1.584zM155.722 374.9h-1.584v13.68h1.584zM174.082 384.728q1.638 0 2.448-.846.81-.828.81-2.7V374.9h-1.566v6.21q0 2.286-1.962 2.286-1.404 0-2.016-.81-.594-.81-.594-2.358V374.9h-1.566v6.21q0 2.286-1.98 2.286-1.458 0-2.016-.9t-.558-2.592V374.9h-1.584v9.648h1.278l.234-1.314h.09q.45.756 1.206 1.116.774.378 1.638.378 2.268 0 2.952-1.62h.09q.486.828 1.314 1.224.846.396 1.782.396zM180.85 388.166q.36 0 .63-.252.288-.234.288-.756 0-.504-.288-.756-.27-.252-.63-.252-.396 0-.666.252t-.27.756q0 .522.27.756.27.252.666.252zm.774-3.618V374.9h-1.584v9.648zM190.246 377.564q0-1.404-1.044-2.124t-2.808-.72q-1.008 0-1.746.162-.72.162-1.278.45v1.44q.576-.288 1.386-.54.828-.234 1.674-.234 1.206 0 1.746.378.54.396.54 1.044 0 .36-.198.648t-.72.576q-.504.288-1.458.648-.936.36-1.602.72t-1.026.864-.36 1.296q0 1.224.99 1.89 1.008.666 2.628.666.882 0 1.638-.18.774-.162 1.44-.468l-.54-1.26q-.612.252-1.278.432t-1.368.18q-.972 0-1.494-.324-.504-.306-.504-.846 0-.396.234-.684.234-.27.774-.54.558-.252 1.476-.612.918-.342 1.566-.702t.99-.882q.342-.504.342-1.278zM198.94 377.564q0-1.404-1.044-2.124t-2.808-.72q-1.008 0-1.746.162-.72.162-1.278.45v1.44q.576-.288 1.386-.54.828-.234 1.674-.234 1.206 0 1.746.378.54.396.54 1.044 0 .36-.198.648t-.72.576q-.504.288-1.458.648-.936.36-1.602.72t-1.026.864-.36 1.296q0 1.224.99 1.89 1.008.666 2.628.666.882 0 1.638-.18.774-.162 1.44-.468l-.54-1.26q-.612.252-1.278.432t-1.368.18q-.972 0-1.494-.324-.504-.306-.504-.846 0-.396.234-.684.234-.27.774-.54.558-.252 1.476-.612.918-.342 1.566-.702t.99-.882q.342-.504.342-1.278zM209.182 376.016q.36 0 .738.054.378.072.612.144v-1.206q-.252-.126-.72-.198-.468-.09-.9-.09-.756 0-1.404.252-.63.27-1.026.918t-.396 1.818v5.616h-1.368v.756l1.386.63.63 2.052h.936v-2.214h2.79v-1.224h-2.79v-5.58q0-.882.414-1.314.432-.414 1.098-.414zM213.574 384.566q0-.72-.09-1.35h.108q.468.738 1.26 1.116.81.378 1.746.378 1.764 0 2.646-.846.882-.828.882-2.682V374.9h-1.566v6.174q0 2.322-2.16 2.322-1.62 0-2.232-.918-.594-.9-.594-2.592V374.9h-1.584v13.68h1.584zM226.12 384.728q1.242 0 2.124-.54.9-.54 1.368-1.53.486-.972.486-2.286v-.954h-6.606q.036-1.638.828-2.502.81-.846 2.25-.846.918 0 1.62.162.72.18 1.476.504v-1.386q-.738-.324-1.458-.468-.72-.162-1.71-.162-1.368 0-2.43.558-1.044.558-1.638 1.656-.576 1.116-.576 2.718 0 1.584.522 2.718.54 1.134 1.494 1.746.972.612 2.25.612zm-.018-1.296q-1.134 0-1.8-.738-.648-.72-.774-2.016h4.914q-.018 1.224-.576 1.98-.558.774-1.764.774z"/></g></g><g clip-path="url(#r)" transform="matrix(1.3333 0 0 -1.3333 -8.465 551.35)"><g aria-label="target"><path d="M133.858 354.418q.36 0 .74.054.378.072.612.144v-1.208q-.252-.126-.72-.198-.47-.09-.902-.09-.757 0-1.406.252-.63.27-1.027.92-.397.648-.397 1.82v5.623h-1.37v.757l1.388.631.63 2.055h.938v-2.217h2.794v-1.226h-2.794v-5.587q0-.883.415-1.316.432-.415 1.1-.415zM140.329 363.123q1.766 0 2.614-.775t.847-2.47V353.3h-1.154l-.306 1.37h-.072q-.631-.793-1.334-1.172-.685-.378-1.91-.378-1.316 0-2.182.685-.865.703-.865 2.18 0 1.442 1.136 2.217 1.135.794 3.496.866l1.64.054v.576q0 1.208-.522 1.677t-1.478.468q-.757 0-1.442-.234-.685-.216-1.28-.505l-.486 1.19q.63.342 1.496.577.865.252 1.802.252zm.469-5.155q-1.803-.072-2.506-.577-.685-.504-.685-1.423 0-.812.487-1.19.505-.379 1.28-.379 1.225 0 2.036.667.812.685.812 2.091v.865zM150.999 363.141q.27 0 .577-.036.324-.018.559-.072l-.199-1.46q-.234.054-.522.09-.27.036-.523.036-.74 0-1.388-.414-.649-.397-1.045-1.136-.379-.72-.379-1.694V353.3h-1.586v9.66h1.298l.18-1.766h.072q.469.794 1.208 1.37t1.748.577zM156.244 363.141q.955 0 1.712-.36.775-.36 1.316-1.1h.09l.217 1.28h1.261v-9.823q0-2.073-1.063-3.118-1.046-1.046-3.262-1.046-2.127 0-3.48.613v1.46q1.425-.757 3.57-.757 1.243 0 1.946.739.721.72.721 1.982v.379q0 .216.018.613.018.414.036.577h-.072q-.973-1.46-2.992-1.46-1.874 0-2.938 1.315-1.045 1.316-1.045 3.677 0 2.307 1.045 3.66 1.064 1.369 2.92 1.369zm.216-1.334q-1.207 0-1.874-.973-.667-.955-.667-2.74 0-1.784.649-2.74.667-.936 1.928-.936 1.46 0 2.127.775.667.793.667 2.541v.378q0 1.983-.685 2.83-.685.865-2.145.865zM167.689 363.141q1.244 0 2.127-.54.901-.541 1.37-1.533.486-.973.486-2.289v-.955h-6.615q.037-1.64.83-2.505.81-.847 2.253-.847.919 0 1.622.162.72.18 1.478.505v-1.388q-.74-.325-1.46-.469-.721-.162-1.712-.162-1.37 0-2.434.559-1.045.558-1.64 1.658-.577 1.117-.577 2.721 0 1.587.523 2.722.54 1.136 1.496 1.748.973.613 2.253.613zm-.018-1.298q-1.136 0-1.802-.739-.65-.72-.775-2.018h4.92q-.018 1.225-.577 1.982-.558.775-1.766.775zM177.765 354.418q.36 0 .739.054.378.072.613.144v-1.208q-.253-.126-.721-.198-.469-.09-.901-.09-.757 0-1.406.252-.631.27-1.028.92-.396.648-.396 1.82v5.623h-1.37v.757l1.388.631.63 2.055h.938v-2.217h2.794v-1.226h-2.794v-5.587q0-.883.414-1.316.433-.415 1.1-.415z"/></g></g><g clip-path="url(#s)" transform="matrix(1.3333 0 0 -1.3333 -8.465 551.35)"><g aria-label="1 in 10 taps (10%)"><path d="M248.89 220.7h-1.548v8.982q0 .774.018 1.242t.054.972q-.288-.288-.522-.486t-.594-.504l-1.368-1.116-.828 1.062 3.474 2.7h1.314zM257.188 233.966q.36 0 .63-.252.288-.234.288-.756 0-.504-.288-.756-.27-.252-.63-.252-.396 0-.666.252t-.27.756q0 .522.27.756.27.252.666.252zm.774-3.618V220.7h-1.584v9.648zM264.946 230.528q1.728 0 2.61-.846.882-.828.882-2.7V220.7h-1.566v6.174q0 2.322-2.16 2.322-1.602 0-2.214-.9t-.612-2.592V220.7h-1.584v9.648h1.278l.234-1.314h.09q.468.756 1.296 1.116.828.378 1.746.378zM280.246 220.7h-1.548v8.982q0 .774.018 1.242t.054.972q-.288-.288-.522-.486t-.594-.504l-1.368-1.116-.828 1.062 3.474 2.7h1.314zM290.902 227.144q0-2.07-.432-3.564-.432-1.476-1.368-2.268t-2.484-.792q-2.178 0-3.222 1.746-1.026 1.764-1.026 4.878 0 2.088.414 3.564.432 1.476 1.368 2.25.936.792 2.466.792 2.16 0 3.222-1.746 1.062-1.728 1.062-4.86zm-6.948 0q0-2.646.594-3.96.612-1.314 2.07-1.314 1.44 0 2.052 1.296.63 1.314.63 3.978 0 2.628-.63 3.942-.612 1.314-2.052 1.314-1.458 0-2.07-1.314-.594-1.314-.594-3.942zM301.936 221.816q.36 0 .738.054.378.072.612.144v-1.206q-.252-.126-.72-.198-.468-.09-.9-.09-.756 0-1.404.252-.63.27-1.026.918t-.396 1.818v5.616h-1.368v.756l1.386.63.63 2.052h.936v-2.214h2.79v-1.224h-2.79v-5.58q0-.882.414-1.314.432-.414 1.098-.414zM308.398 230.51q1.764 0 2.61-.774t.846-2.466v-6.57h-1.152l-.306 1.368h-.072q-.63-.792-1.332-1.17-.684-.378-1.908-.378-1.314 0-2.178.684-.864.702-.864 2.178 0 1.44 1.134 2.214 1.134.792 3.492.864l1.638.054v.576q0 1.206-.522 1.674t-1.476.468q-.756 0-1.44-.234-.684-.216-1.278-.504l-.486 1.188q.63.342 1.494.576.864.252 1.8.252zm.468-5.148q-1.8-.072-2.502-.576-.684-.504-.684-1.422 0-.81.486-1.188.504-.378 1.278-.378 1.224 0 2.034.666.81.684.81 2.088v.864zM319.144 230.528q1.782 0 2.862-1.242 1.098-1.242 1.098-3.744 0-2.466-1.098-3.744-1.08-1.278-2.88-1.278-1.116 0-1.854.414-.72.432-1.134.99h-.108q.036-.306.072-.774t.036-.81v-3.96h-1.584v13.968h1.296l.216-1.314h.072q.432.63 1.134 1.062t1.872.432zm-.288-1.332q-1.476 0-2.088-.828-.594-.828-.63-2.52v-.306q0-1.782.576-2.754.594-.954 2.178-.954.882 0 1.44.486.576.486.846 1.314.288.846.288 1.926 0 1.656-.648 2.646-.63.99-1.962.99zM331.978 223.364q0-1.404-1.044-2.124t-2.808-.72q-1.008 0-1.746.162-.72.162-1.278.45v1.44q.576-.288 1.386-.54.828-.234 1.674-.234 1.206 0 1.746.378.54.396.54 1.044 0 .36-.198.648t-.72.576q-.504.288-1.458.648-.936.36-1.602.72t-1.026.864-.36 1.296q0 1.224.99 1.89 1.008.666 2.628.666.882 0 1.638-.18.774-.162 1.44-.468l-.54-1.26q-.612.252-1.278.432t-1.368.18q-.972 0-1.494-.324-.504-.306-.504-.846 0-.396.234-.684.234-.27.774-.54.558-.252 1.476-.612.918-.342 1.566-.702t.99-.882q.342-.504.342-1.278zM338.188 225.632q0 2.196.63 4.23.648 2.052 2.016 3.69h1.494q-1.26-1.692-1.908-3.726-.63-2.034-.63-4.176 0-2.088.63-4.104.648-1.998 1.89-3.69h-1.476q-1.368 1.584-2.016 3.582-.63 2.016-.63 4.194zM348.7 220.7h-1.548v8.982q0 .774.018 1.242t.054.972q-.288-.288-.522-.486t-.594-.504l-1.368-1.116-.828 1.062 3.474 2.7h1.314zM359.36 227.144q0-2.07-.432-3.564-.432-1.476-1.368-2.268t-2.484-.792q-2.178 0-3.222 1.746-1.026 1.764-1.026 4.878 0 2.088.414 3.564.432 1.476 1.368 2.25.936.792 2.466.792 2.16 0 3.222-1.746 1.062-1.728 1.062-4.86zm-6.948 0q0-2.646.594-3.96.612-1.314 2.07-1.314 1.44 0 2.052 1.296.63 1.314.63 3.978 0 2.628-.63 3.942-.612 1.314-2.052 1.314-1.458 0-2.07-1.314-.594-1.314-.594-3.942zM364.47 233.732q1.332 0 2.016-1.062.684-1.044.684-2.952t-.666-2.988q-.648-1.062-2.034-1.062-1.278 0-1.962 1.062-.666 1.08-.666 2.988t.63 2.952q.63 1.062 1.998 1.062zm8.226-.18-7.128-12.852h-1.386l7.128 12.852zm-8.226-.936q-.684 0-1.008-.738-.306-.72-.306-2.16t.306-2.178q.324-.738 1.008-.738 1.386 0 1.386 2.916 0 2.898-1.386 2.898zm7.866-4.032q1.314 0 1.998-1.062.702-1.044.702-2.952t-.666-2.988q-.648-1.062-2.034-1.062-1.278 0-1.962 1.062-.666 1.08-.666 2.988t.63 2.952q.63 1.062 1.998 1.062zm0-1.134q-.684 0-1.008-.72-.306-.72-.306-2.16 0-1.458.306-2.196.324-.72 1.008-.72 1.386 0 1.386 2.916 0 2.88-1.386 2.88z"/><path d="M378.49 225.632q0-2.178-.648-4.194-.63-1.998-1.998-3.582h-1.476q1.242 1.692 1.872 3.69.648 2.016.648 4.104 0 2.142-.648 4.176-.63 2.034-1.89 3.726h1.494q1.368-1.638 1.998-3.69.648-2.034.648-4.23z"/></g></g><g clip-path="url(#t)" transform="matrix(1.3333 0 0 -1.3333 -8.465 551.35)"><g aria-label="1 in 50 taps (2%)"><path d="M589.13 118.61h-1.548v8.982q0 .774.018 1.242t.054.972q-.288-.288-.522-.486t-.594-.504l-1.368-1.116-.828 1.062 3.474 2.7h1.314zM597.428 131.876q.36 0 .63-.252.288-.234.288-.756 0-.504-.288-.756-.27-.252-.63-.252-.396 0-.666.252t-.27.756q0 .522.27.756.27.252.666.252zm.774-3.618v-9.648h-1.584v9.648zM605.186 128.438q1.728 0 2.61-.846.882-.828.882-2.7v-6.282h-1.566v6.174q0 2.322-2.16 2.322-1.602 0-2.214-.9t-.612-2.592v-5.004h-1.584v9.648h1.278l.234-1.314h.09q.468.756 1.296 1.116.828.378 1.746.378zM619.046 126.494q1.98 0 3.15-.99t1.17-2.79q0-1.998-1.278-3.15-1.26-1.134-3.528-1.134-.99 0-1.872.18-.864.18-1.458.522v1.494q.648-.396 1.566-.63.936-.216 1.782-.216 1.422 0 2.286.666.882.684.882 2.106 0 1.26-.774 1.926-.774.684-2.448.684-.504 0-1.152-.09t-1.044-.18l-.792.504.486 6.066h6.444v-1.44h-5.094l-.306-3.726q.306.054.828.126t1.152.072zM633.32 125.054q0-2.07-.432-3.564-.432-1.476-1.368-2.268t-2.484-.792q-2.178 0-3.222 1.746-1.026 1.764-1.026 4.878 0 2.088.414 3.564.432 1.476 1.368 2.25.936.792 2.466.792 2.16 0 3.222-1.746 1.062-1.728 1.062-4.86zm-6.948 0q0-2.646.594-3.96.612-1.314 2.07-1.314 1.44 0 2.052 1.296.63 1.314.63 3.978 0 2.628-.63 3.942-.612 1.314-2.052 1.314-1.458 0-2.07-1.314-.594-1.314-.594-3.942zM644.264 119.726q.36 0 .738.054.378.072.612.144v-1.206q-.252-.126-.72-.198-.468-.09-.9-.09-.756 0-1.404.252-.63.27-1.026.918t-.396 1.818v5.616H639.8v.756l1.386.63.63 2.052h.936v-2.214h2.79v-1.224h-2.79v-5.58q0-.882.414-1.314.432-.414 1.098-.414zM650.672 128.42q1.764 0 2.61-.774t.846-2.466v-6.57h-1.152l-.306 1.368h-.072q-.63-.792-1.332-1.17-.684-.378-1.908-.378-1.314 0-2.178.684-.864.702-.864 2.178 0 1.44 1.134 2.214 1.134.792 3.492.864l1.638.054V125q0 1.206-.522 1.674t-1.476.468q-.756 0-1.44-.234-.684-.216-1.278-.504l-.486 1.188q.63.342 1.494.576.864.252 1.8.252zm.468-5.148q-1.8-.072-2.502-.576-.684-.504-.684-1.422 0-.81.486-1.188.504-.378 1.278-.378 1.224 0 2.034.666.81.684.81 2.088v.864zM661.418 128.438q1.782 0 2.862-1.242 1.098-1.242 1.098-3.744 0-2.466-1.098-3.744-1.08-1.278-2.88-1.278-1.116 0-1.854.414-.72.432-1.134.99h-.108q.036-.306.072-.774t.036-.81v-3.96h-1.584v13.968h1.296l.216-1.314h.072q.432.63 1.134 1.062t1.872.432zm-.288-1.332q-1.476 0-2.088-.828-.594-.828-.63-2.52v-.306q0-1.782.576-2.754.594-.954 2.178-.954.882 0 1.44.486.576.486.846 1.314.288.846.288 1.926 0 1.656-.648 2.646-.63.99-1.962.99zM674.288 121.274q0-1.404-1.044-2.124t-2.808-.72q-1.008 0-1.746.162-.72.162-1.278.45v1.44q.576-.288 1.386-.54.828-.234 1.674-.234 1.206 0 1.746.378.54.396.54 1.044 0 .36-.198.648t-.72.576q-.504.288-1.458.648-.936.36-1.602.72t-1.026.864-.36 1.296q0 1.224.99 1.89 1.008.666 2.628.666.882 0 1.638-.18.774-.162 1.44-.468l-.54-1.26q-.612.252-1.278.432t-1.368.18q-.972 0-1.494-.324-.504-.306-.504-.846 0-.396.234-.684.234-.27.774-.54.558-.252 1.476-.612.918-.342 1.566-.702t.99-.882q.342-.504.342-1.278zM680.426 123.542q0 2.196.63 4.23.648 2.052 2.016 3.69h1.494q-1.26-1.692-1.908-3.726-.63-2.034-.63-4.176 0-2.088.63-4.104.648-1.998 1.89-3.69h-1.476q-1.368 1.584-2.016 3.582-.63 2.016-.63 4.194zM693.84 118.61h-8.496v1.314l3.366 3.402q.972.972 1.638 1.728t1.008 1.476q.342.738.342 1.602 0 1.062-.63 1.602-.63.558-1.638.558-.936 0-1.656-.324-.702-.324-1.44-.9l-.846 1.062q.756.63 1.728 1.062.99.45 2.214.45 1.8 0 2.844-.918 1.044-.9 1.044-2.502 0-1.008-.414-1.89t-1.152-1.746q-.738-.846-1.728-1.818l-2.682-2.646v-.072h6.498zM697.36 131.642q1.332 0 2.016-1.062.684-1.044.684-2.952t-.666-2.988q-.648-1.062-2.034-1.062-1.278 0-1.962 1.062-.666 1.08-.666 2.988t.63 2.952q.63 1.062 1.998 1.062zm8.226-.18-7.128-12.852h-1.386l7.128 12.852zm-8.226-.936q-.684 0-1.008-.738-.306-.72-.306-2.16t.306-2.178q.324-.738 1.008-.738 1.386 0 1.386 2.916 0 2.898-1.386 2.898zm7.866-4.032q1.314 0 1.998-1.062.702-1.044.702-2.952t-.666-2.988q-.648-1.062-2.034-1.062-1.278 0-1.962 1.062-.666 1.08-.666 2.988t.63 2.952q.63 1.062 1.998 1.062zm0-1.134q-.684 0-1.008-.72-.306-.72-.306-2.16 0-1.458.306-2.196.324-.72 1.008-.72 1.386 0 1.386 2.916 0 2.88-1.386 2.88z"/><path d="M711.39 123.542q0-2.178-.648-4.194-.63-1.998-1.998-3.582h-1.476q1.242 1.692 1.872 3.69.648 2.016.648 4.104 0 2.142-.648 4.176-.63 2.034-1.89 3.726h1.494q1.368-1.638 1.998-3.69.648-2.034.648-4.23z"/></g></g></svg>