<?xml version="1.0" encoding="UTF-8"?>
<!-- Created with Inkscape (http://www.inkscape.org/) -->
<svg width="832.13" height="437.68" version="1.1" viewBox="0 0 832.13 437.68" xml:space="preserve" xmlns="http://www.w3.org/2000/svg"><defs><clipPath><path d="m0 1.207e-5h720v540h-720z"/></clipPath></defs><g transform="matrix(1.3333 0 0 -1.3333 -61.328 455.72)"><path d="m78.174 43.203 8e-5 287.34h-3l-8e-5 -287.34zm3.0001 285.84-4.5 9-4.5-9z" fill="#3f6ec3"/><path d="m76.674 44.703 582.17-8e-5v-3l-582.17 8e-5zm580.67 2.9999 9-4.5-9-4.5z" fill="#3f6ec3"/><g transform="matrix(7.874e-5 0 0 -7.874e-5 59.494 233.44)"><path d="m321211 2304266c786171-1368402 2877826-2288784 5236230-2304077" fill="none" stroke="#ff4081" stroke-linejoin="round" stroke-miterlimit="10" stroke-width="38100"/></g><g transform="matrix(0 .24 -.24 0 603.43 113.28)"><g transform="matrix(1,0,0,-1,0,2250)" aria-label="Tempo de resposta"><path d="m24.225 0h-6.75v-47.625h-16.725v-5.925h40.125v5.925h-16.65z"/><path d="m59.422-40.95q5.175 0 8.85 2.25 3.75 2.25 5.7 6.375 2.025 4.05 2.025 9.525v3.975h-27.525q0.15 6.825 3.45 10.425 3.375 3.525 9.375 3.525 3.825 0 6.75-0.675 3-0.75 6.15-2.1v5.775q-3.075 1.35-6.075 1.95-3 0.675-7.125 0.675-5.7 0-10.125-2.325-4.35-2.325-6.825-6.9-2.4-4.65-2.4-11.325 0-6.6 2.175-11.325 2.25-4.725 6.225-7.275 4.05-2.55 9.375-2.55zm-0.075 5.4q-4.725 0-7.5 3.075-2.7 3-3.225 8.4h20.475q-0.075-5.1-2.4-8.25-2.325-3.225-7.35-3.225z"/><path d="m129.67-40.95q6.825 0 10.2 3.525 3.375 3.45 3.375 11.25v26.175h-6.525v-25.875q0-9.525-8.175-9.525-5.85 0-8.4 3.375-2.475 3.375-2.475 9.825v22.2h-6.525v-25.875q0-9.525-8.25-9.525-6.075 0-8.4 3.75t-2.325 10.8v20.85h-6.6v-40.2h5.325l0.975 5.475h0.375q1.875-3.15 5.025-4.65 3.225-1.575 6.825-1.575 9.45 0 12.3 6.75h0.375q2.025-3.45 5.475-5.1 3.525-1.65 7.425-1.65z"/><path d="m167.19-40.95q7.425 0 11.925 5.175 4.575 5.175 4.575 15.6 0 10.275-4.575 15.6-4.5 5.325-12 5.325-4.65 0-7.725-1.725-3-1.8-4.725-4.125h-0.45q0.15 1.275 0.3 3.225t0.15 3.375v16.5h-6.6v-58.2h5.4l0.9 5.475h0.3q1.8-2.625 4.725-4.425t7.8-1.8zm-1.2 5.55q-6.15 0-8.7 3.45-2.475 3.45-2.625 10.5v1.275q0 7.425 2.4 11.475 2.475 3.975 9.075 3.975 3.675 0 6-2.025 2.4-2.025 3.525-5.475 1.2-3.525 1.2-8.025 0-6.9-2.7-11.025-2.625-4.125-8.175-4.125z"/><path d="m224.68-20.175q0 9.975-5.1 15.45-5.025 5.475-13.65 5.475-5.325 0-9.525-2.4-4.125-2.475-6.525-7.125-2.4-4.725-2.4-11.4 0-9.975 5.025-15.375t13.65-5.4q5.475 0 9.6 2.475 4.2 2.4 6.525 7.05 2.4 4.575 2.4 11.25zm-30.375 0q0 7.125 2.775 11.325 2.85 4.125 9 4.125 6.075 0 8.925-4.125 2.85-4.2 2.85-11.325t-2.85-11.175-9-4.05-8.925 4.05-2.775 11.175z"/><path d="m266.49 0.75q-7.5 0-12-5.175-4.5-5.25-4.5-15.6t4.5-15.6q4.575-5.325 12.075-5.325 4.65 0 7.575 1.725 3 1.725 4.875 4.2h0.45q-0.075-0.975-0.3-2.85-0.15-1.95-0.15-3.075v-16.05h6.6v57h-5.325l-0.975-5.4h-0.3q-1.8 2.55-4.8 4.35t-7.725 1.8zm1.05-5.475q6.375 0 8.925-3.45 2.625-3.525 2.625-10.575v-1.2q0-7.5-2.475-11.475-2.475-4.05-9.15-4.05-5.325 0-8.025 4.275-2.625 4.2-2.625 11.325 0 7.2 2.625 11.175 2.7 3.975 8.1 3.975z"/><path d="m309.44-40.95q5.175 0 8.85 2.25 3.75 2.25 5.7 6.375 2.025 4.05 2.025 9.525v3.975h-27.525q0.15 6.825 3.45 10.425 3.375 3.525 9.375 3.525 3.825 0 6.75-0.675 3-0.75 6.15-2.1v5.775q-3.075 1.35-6.075 1.95-3 0.675-7.125 0.675-5.7 0-10.125-2.325-4.35-2.325-6.825-6.9-2.4-4.65-2.4-11.325 0-6.6 2.175-11.325 2.25-4.725 6.225-7.275 4.05-2.55 9.375-2.55zm-0.075 5.4q-4.725 0-7.5 3.075-2.7 3-3.225 8.4h20.475q-0.075-5.1-2.4-8.25-2.325-3.225-7.35-3.225z"/><path d="m375.17-40.95q1.125 0 2.4 0.15 1.35 0.075 2.325 0.3l-0.825 6.075q-0.975-0.225-2.175-0.375-1.125-0.15-2.175-0.15-3.075 0-5.775 1.725-2.7 1.65-4.35 4.725-1.575 3-1.575 7.05v21.45h-6.6v-40.2h5.4l0.75 7.35h0.3q1.95-3.3 5.025-5.7t7.275-2.4z"/><path d="m396.94-40.95q5.175 0 8.85 2.25 3.75 2.25 5.7 6.375 2.025 4.05 2.025 9.525v3.975h-27.525q0.15 6.825 3.45 10.425 3.375 3.525 9.375 3.525 3.825 0 6.75-0.675 3-0.75 6.15-2.1v5.775q-3.075 1.35-6.075 1.95-3 0.675-7.125 0.675-5.7 0-10.125-2.325-4.35-2.325-6.825-6.9-2.4-4.65-2.4-11.325 0-6.6 2.175-11.325 2.25-4.725 6.225-7.275 4.05-2.55 9.375-2.55zm-0.075 5.4q-4.725 0-7.5 3.075-2.7 3-3.225 8.4h20.475q-0.075-5.1-2.4-8.25-2.325-3.225-7.35-3.225z"/><path d="m449.26-11.1q0 5.85-4.35 8.85t-11.7 3q-4.2 0-7.275-0.675-3-0.675-5.325-1.875v-6q2.4 1.2 5.775 2.25 3.45 0.975 6.975 0.975 5.025 0 7.275-1.575 2.25-1.65 2.25-4.35 0-1.5-0.825-2.7t-3-2.4q-2.1-1.2-6.075-2.7-3.9-1.5-6.675-3t-4.275-3.6-1.5-5.4q0-5.1 4.125-7.875 4.2-2.775 10.95-2.775 3.675 0 6.825 0.75 3.225 0.675 6 1.95l-2.25 5.25q-2.55-1.05-5.325-1.8t-5.7-0.75q-4.05 0-6.225 1.35-2.1 1.275-2.1 3.525 0 1.65 0.975 2.85 0.975 1.125 3.225 2.25 2.325 1.05 6.15 2.55 3.825 1.425 6.525 2.925t4.125 3.675q1.425 2.1 1.425 5.325z"/><path d="m479.71-40.95q7.425 0 11.925 5.175 4.575 5.175 4.575 15.6 0 10.275-4.575 15.6-4.5 5.325-12 5.325-4.65 0-7.725-1.725-3-1.8-4.725-4.125h-0.45q0.15 1.275 0.3 3.225t0.15 3.375v16.5h-6.6v-58.2h5.4l0.9 5.475h0.3q1.8-2.625 4.725-4.425t7.8-1.8zm-1.2 5.55q-6.15 0-8.7 3.45-2.475 3.45-2.625 10.5v1.275q0 7.425 2.4 11.475 2.475 3.975 9.075 3.975 3.675 0 6-2.025 2.4-2.025 3.525-5.475 1.2-3.525 1.2-8.025 0-6.9-2.7-11.025-2.625-4.125-8.175-4.125z"/><path d="m537.2-20.175q0 9.975-5.1 15.45-5.025 5.475-13.65 5.475-5.325 0-9.525-2.4-4.125-2.475-6.525-7.125-2.4-4.725-2.4-11.4 0-9.975 5.025-15.375t13.65-5.4q5.475 0 9.6 2.475 4.2 2.4 6.525 7.05 2.4 4.575 2.4 11.25zm-30.375 0q0 7.125 2.775 11.325 2.85 4.125 9 4.125 6.075 0 8.925-4.125 2.85-4.2 2.85-11.325t-2.85-11.175-9-4.05-8.925 4.05-2.775 11.175z"/><path d="m570.1-11.1q0 5.85-4.35 8.85t-11.7 3q-4.2 0-7.275-0.675-3-0.675-5.325-1.875v-6q2.4 1.2 5.775 2.25 3.45 0.975 6.975 0.975 5.025 0 7.275-1.575 2.25-1.65 2.25-4.35 0-1.5-0.825-2.7t-3-2.4q-2.1-1.2-6.075-2.7-3.9-1.5-6.675-3t-4.275-3.6-1.5-5.4q0-5.1 4.125-7.875 4.2-2.775 10.95-2.775 3.675 0 6.825 0.75 3.225 0.675 6 1.95l-2.25 5.25q-2.55-1.05-5.325-1.8t-5.7-0.75q-4.05 0-6.225 1.35-2.1 1.275-2.1 3.525 0 1.65 0.975 2.85 0.975 1.125 3.225 2.25 2.325 1.05 6.15 2.55 3.825 1.425 6.525 2.925t4.125 3.675q1.425 2.1 1.425 5.325z"/><path d="m594.85-4.65q1.5 0 3.075-0.225 1.575-0.3 2.55-0.6v5.025q-1.05 0.525-3 0.825-1.95 0.375-3.75 0.375-3.15 0-5.85-1.05-2.625-1.125-4.275-3.825t-1.65-7.575v-23.4h-5.7v-3.15l5.775-2.625 2.625-8.55h3.9v9.225h11.625v5.1h-11.625v23.25q0 3.675 1.725 5.475 1.8 1.725 4.575 1.725z"/><path d="m617.48-40.875q7.35 0 10.875 3.225t3.525 10.275v27.375h-4.8l-1.275-5.7h-0.3q-2.625 3.3-5.55 4.875-2.85 1.575-7.95 1.575-5.475 0-9.075-2.85-3.6-2.925-3.6-9.075 0-6 4.725-9.225 4.725-3.3 14.55-3.6l6.825-0.225v-2.4q0-5.025-2.175-6.975t-6.15-1.95q-3.15 0-6 0.975-2.85 0.9-5.325 2.1l-2.025-4.95q2.625-1.425 6.225-2.4 3.6-1.05 7.5-1.05zm1.95 21.45q-7.5 0.3-10.425 2.4-2.85 2.1-2.85 5.925 0 3.375 2.025 4.95 2.1 1.575 5.325 1.575 5.1 0 8.475-2.775 3.375-2.85 3.375-8.7v-3.6z"/></g></g><g transform="matrix(.24 0 0 .24 225.45 -518.4)"><g transform="matrix(1,0,0,-1,0,2250)" aria-label="Número de opções"><path d="m49.725 0h-7.875l-28.65-44.475h-0.3q0.15 2.625 0.375 6.525t0.225 8.025v29.925h-6.225v-53.55h7.8l28.575 44.325h0.3q-0.075-1.2-0.225-3.6-0.075-2.4-0.225-5.25-0.075-2.85-0.075-5.25v-30.225h6.3z"/><path d="m94.14-40.2v40.2h-5.4l-0.975-5.325h-0.3q-1.95 3.15-5.4 4.65-3.45 1.425-7.35 1.425-7.275 0-10.95-3.45-3.675-3.525-3.675-11.175v-26.325h6.675v25.875q0 9.6 8.925 9.6 6.675 0 9.225-3.75 2.625-3.75 2.625-10.8v-20.925zm-6.225-16.5q-0.9 1.35-2.775 3.525-1.875 2.1-4.05 4.275-2.1 2.1-3.9 3.45h-4.35v-0.9q1.125-1.425 2.4-3.375 1.35-1.95 2.625-3.975 1.275-2.1 2.1-3.75h7.95z"/><path d="m146.31-40.95q6.825 0 10.2 3.525 3.375 3.45 3.375 11.25v26.175h-6.525v-25.875q0-9.525-8.175-9.525-5.85 0-8.4 3.375-2.475 3.375-2.475 9.825v22.2h-6.525v-25.875q0-9.525-8.25-9.525-6.075 0-8.4 3.75t-2.325 10.8v20.85h-6.6v-40.2h5.325l0.975 5.475h0.375q1.875-3.15 5.025-4.65 3.225-1.575 6.825-1.575 9.45 0 12.3 6.75h0.375q2.025-3.45 5.475-5.1 3.525-1.65 7.425-1.65z"/><path d="m180.23-40.95q5.175 0 8.85 2.25 3.75 2.25 5.7 6.375 2.025 4.05 2.025 9.525v3.975h-27.525q0.15 6.825 3.45 10.425 3.375 3.525 9.375 3.525 3.825 0 6.75-0.675 3-0.75 6.15-2.1v5.775q-3.075 1.35-6.075 1.95-3 0.675-7.125 0.675-5.7 0-10.125-2.325-4.35-2.325-6.825-6.9-2.4-4.65-2.4-11.325 0-6.6 2.175-11.325 2.25-4.725 6.225-7.275 4.05-2.55 9.375-2.55zm-0.075 5.4q-4.725 0-7.5 3.075-2.7 3-3.225 8.4h20.475q-0.075-5.1-2.4-8.25-2.325-3.225-7.35-3.225z"/><path d="m225.13-40.95q1.125 0 2.4 0.15 1.35 0.075 2.325 0.3l-0.825 6.075q-0.975-0.225-2.175-0.375-1.125-0.15-2.175-0.15-3.075 0-5.775 1.725-2.7 1.65-4.35 4.725-1.575 3-1.575 7.05v21.45h-6.6v-40.2h5.4l0.75 7.35h0.3q1.95-3.3 5.025-5.7t7.275-2.4z"/><path d="m266.32-20.175q0 9.975-5.1 15.45-5.025 5.475-13.65 5.475-5.325 0-9.525-2.4-4.125-2.475-6.525-7.125-2.4-4.725-2.4-11.4 0-9.975 5.025-15.375t13.65-5.4q5.475 0 9.6 2.475 4.2 2.4 6.525 7.05 2.4 4.575 2.4 11.25zm-30.375 0q0 7.125 2.775 11.325 2.85 4.125 9 4.125 6.075 0 8.925-4.125 2.85-4.2 2.85-11.325t-2.85-11.175-9-4.05-8.925 4.05-2.775 11.175z"/><path d="m308.13 0.75q-7.5 0-12-5.175-4.5-5.25-4.5-15.6t4.5-15.6q4.575-5.325 12.075-5.325 4.65 0 7.575 1.725 3 1.725 4.875 4.2h0.45q-0.075-0.975-0.3-2.85-0.15-1.95-0.15-3.075v-16.05h6.6v57h-5.325l-0.975-5.4h-0.3q-1.8 2.55-4.8 4.35t-7.725 1.8zm1.05-5.475q6.375 0 8.925-3.45 2.625-3.525 2.625-10.575v-1.2q0-7.5-2.475-11.475-2.475-4.05-9.15-4.05-5.325 0-8.025 4.275-2.625 4.2-2.625 11.325 0 7.2 2.625 11.175 2.7 3.975 8.1 3.975z"/><path d="m351.07-40.95q5.175 0 8.85 2.25 3.75 2.25 5.7 6.375 2.025 4.05 2.025 9.525v3.975h-27.525q0.15 6.825 3.45 10.425 3.375 3.525 9.375 3.525 3.825 0 6.75-0.675 3-0.75 6.15-2.1v5.775q-3.075 1.35-6.075 1.95-3 0.675-7.125 0.675-5.7 0-10.125-2.325-4.35-2.325-6.825-6.9-2.4-4.65-2.4-11.325 0-6.6 2.175-11.325 2.25-4.725 6.225-7.275 4.05-2.55 9.375-2.55zm-0.075 5.4q-4.725 0-7.5 3.075-2.7 3-3.225 8.4h20.475q-0.075-5.1-2.4-8.25-2.325-3.225-7.35-3.225z"/><path d="m433-20.175q0 9.975-5.1 15.45-5.025 5.475-13.65 5.475-5.325 0-9.525-2.4-4.125-2.475-6.525-7.125-2.4-4.725-2.4-11.4 0-9.975 5.025-15.375t13.65-5.4q5.475 0 9.6 2.475 4.2 2.4 6.525 7.05 2.4 4.575 2.4 11.25zm-30.375 0q0 7.125 2.775 11.325 2.85 4.125 9 4.125 6.075 0 8.925-4.125 2.85-4.2 2.85-11.325t-2.85-11.175-9-4.05-8.925 4.05-2.775 11.175z"/><path d="m458.85-40.95q7.425 0 11.925 5.175 4.575 5.175 4.575 15.6 0 10.275-4.575 15.6-4.5 5.325-12 5.325-4.65 0-7.725-1.725-3-1.8-4.725-4.125h-0.45q0.15 1.275 0.3 3.225t0.15 3.375v16.5h-6.6v-58.2h5.4l0.9 5.475h0.3q1.8-2.625 4.725-4.425t7.8-1.8zm-1.2 5.55q-6.15 0-8.7 3.45-2.475 3.45-2.625 10.5v1.275q0 7.425 2.4 11.475 2.475 3.975 9.075 3.975 3.675 0 6-2.025 2.4-2.025 3.525-5.475 1.2-3.525 1.2-8.025 0-6.9-2.7-11.025-2.625-4.125-8.175-4.125z"/><path d="m497.52 0.75q-5.325 0-9.525-2.175-4.125-2.175-6.525-6.75-2.325-4.575-2.325-11.7 0-7.425 2.475-12.075t6.675-6.825q4.275-2.175 9.675-2.175 3.075 0 5.925 0.675 2.85 0.6 4.65 1.5l-2.025 5.475q-1.8-0.675-4.2-1.275t-4.5-0.6q-11.85 0-11.85 15.225 0 7.275 2.85 11.175 2.925 3.825 8.625 3.825 3.3 0 5.775-0.675 2.55-0.675 4.65-1.65v5.85q-2.025 1.05-4.5 1.575-2.4 0.6-5.85 0.6zm6.15 9.675q0 3.6-2.775 5.55-2.775 2.025-8.325 2.025-2.4 0-3.75-0.375v-4.125q0.675 0.15 1.8 0.225 1.125 0.15 2.175 0.15 2.7 0 4.125-0.75 1.425-0.675 1.425-2.55 0-1.95-2.025-2.85-1.95-0.9-4.8-1.275l3.225-6.45h4.35l-1.95 3.975q2.7 0.6 4.575 2.1 1.95 1.5 1.95 4.35z"/><path d="m553.85-20.175q0 9.975-5.1 15.45-5.025 5.475-13.65 5.475-5.325 0-9.525-2.4-4.125-2.475-6.525-7.125-2.4-4.725-2.4-11.4 0-9.975 5.025-15.375t13.65-5.4q5.475 0 9.6 2.475 4.2 2.4 6.525 7.05 2.4 4.575 2.4 11.25zm-30.375 0q0 7.125 2.775 11.325 2.85 4.125 9 4.125 6.075 0 8.925-4.125 2.85-4.2 2.85-11.325t-2.85-11.175-9-4.05-8.925 4.05-2.775 11.175zm-2.025-25.275q0.45-4.425 2.55-6.975 2.175-2.625 5.7-2.625 2.25 0 4.2 1.125 2.025 1.05 3.825 2.1t3.375 1.05q1.725 0 2.625-1.05 0.975-1.125 1.5-3.3h3.75q-0.45 4.35-2.55 6.975t-5.625 2.625q-2.1 0-4.125-1.05-1.95-1.05-3.825-2.1-1.8-1.125-3.45-1.125-1.8 0-2.7 1.125-0.9 1.05-1.425 3.225z"/><path d="m576.09-40.95q5.175 0 8.85 2.25 3.75 2.25 5.7 6.375 2.025 4.05 2.025 9.525v3.975h-27.525q0.15 6.825 3.45 10.425 3.375 3.525 9.375 3.525 3.825 0 6.75-0.675 3-0.75 6.15-2.1v5.775q-3.075 1.35-6.075 1.95-3 0.675-7.125 0.675-5.7 0-10.125-2.325-4.35-2.325-6.825-6.9-2.4-4.65-2.4-11.325 0-6.6 2.175-11.325 2.25-4.725 6.225-7.275 4.05-2.55 9.375-2.55zm-0.075 5.4q-4.725 0-7.5 3.075-2.7 3-3.225 8.4h20.475q-0.075-5.1-2.4-8.25-2.325-3.225-7.35-3.225z"/><path d="m628.41-11.1q0 5.85-4.35 8.85t-11.7 3q-4.2 0-7.275-0.675-3-0.675-5.325-1.875v-6q2.4 1.2 5.775 2.25 3.45 0.975 6.975 0.975 5.025 0 7.275-1.575 2.25-1.65 2.25-4.35 0-1.5-0.825-2.7t-3-2.4q-2.1-1.2-6.075-2.7-3.9-1.5-6.675-3t-4.275-3.6-1.5-5.4q0-5.1 4.125-7.875 4.2-2.775 10.95-2.775 3.675 0 6.825 0.75 3.225 0.675 6 1.95l-2.25 5.25q-2.55-1.05-5.325-1.8t-5.7-0.75q-4.05 0-6.225 1.35-2.1 1.275-2.1 3.525 0 1.65 0.975 2.85 0.975 1.125 3.225 2.25 2.325 1.05 6.15 2.55 3.825 1.425 6.525 2.925t4.125 3.675q1.425 2.1 1.425 5.325z"/></g></g></g></svg>
