<?xml version="1.0" standalone="no"?>
<!DOCTYPE svg PUBLIC "-//W3C//DTD SVG 20010904//EN"
 "http://www.w3.org/TR/2001/REC-SVG-20010904/DTD/svg10.dtd">
<svg version="1.0" xmlns="http://www.w3.org/2000/svg"
 width="892.000000pt" height="588.000000pt" viewBox="0 0 892.000000 588.000000"
 preserveAspectRatio="xMidYMid meet">

<g transform="translate(0.000000,588.000000) scale(0.100000,-0.100000)"
fill="#000000" stroke="none">
<path d="M1290 5202 l0 -79 -137 -241 -137 -241 -45 -3 -46 -3 -1 -95 -1 -95
-98 -228 -99 -227 -43 0 -43 0 0 -85 0 -85 29 0 c29 0 30 -1 35 -62 3 -35 8
-142 11 -239 l5 -175 -34 4 c-26 3 -37 -1 -44 -15 -6 -11 -7 -25 -2 -33 5 -8
3 -21 -3 -32 -18 -28 3 -53 46 -53 34 0 36 -2 41 -35 3 -19 8 -144 12 -277 l6
-243 -26 0 -26 0 0 -90 0 -90 85 0 c71 0 85 3 85 16 0 9 4 14 8 12 5 -1 120
-50 255 -107 216 -90 276 -121 237 -121 -5 0 -10 -7 -10 -15 0 -13 4 -14 20
-5 19 10 20 8 20 -40 0 -38 4 -50 15 -50 11 0 15 12 15 50 0 28 4 50 9 50 4 0
98 -38 207 -84 l199 -83 3 -67 3 -66 33 0 33 0 12 -162 c6 -90 14 -196 18
-235 l6 -73 -27 0 -26 0 0 -85 c0 -84 0 -85 25 -85 30 0 30 10 10 -235 -8 -99
-15 -192 -15 -207 0 -23 -5 -27 -32 -30 l-33 -3 0 -85 0 -85 88 -3 87 -3 0 26
c0 25 2 26 43 20 23 -3 283 -30 577 -60 294 -30 556 -57 583 -61 l47 -6 0 -54
0 -54 85 0 85 0 0 58 0 57 486 593 486 592 74 0 74 0 0 30 c0 17 2 30 5 30 15
0 525 -273 525 -281 0 -4 -9 -13 -20 -19 -23 -12 -28 -42 -5 -34 12 5 15 -3
15 -40 0 -34 4 -46 15 -46 12 0 15 14 15 65 0 36 3 65 8 65 4 0 131 -65 282
-144 l275 -144 3 -66 c3 -66 3 -66 32 -66 17 0 30 -2 30 -5 0 -3 -83 -172
-185 -375 l-185 -370 -55 0 -55 0 0 -85 0 -85 85 0 85 0 0 85 c0 78 -2 85 -20
85 -17 0 8 56 167 375 l188 375 42 0 42 0 3 62 3 62 370 136 c265 98 371 133
373 123 3 -9 26 -13 88 -13 83 0 84 0 84 25 l0 25 540 0 540 0 0 -25 c0 -24 3
-25 54 -25 l54 0 190 -372 c140 -273 187 -374 176 -376 -12 -3 -14 -20 -12
-90 l3 -87 85 0 85 0 0 85 0 85 -63 5 -63 5 -190 368 c-104 203 -189 371 -189
373 0 2 9 4 20 4 18 0 20 7 20 85 l0 85 -85 0 -85 0 0 -50 0 -50 -539 0 -539
0 -4 58 -4 57 381 677 380 678 48 0 47 0 0 85 0 85 -44 0 -43 0 -267 410
c-146 225 -266 412 -266 415 0 3 9 5 20 5 19 0 20 7 20 90 l0 90 -84 0 c-64 0
-85 -3 -88 -14 -2 -10 -131 41 -465 186 l-463 200 0 64 0 64 -85 0 -85 0 0
-90 0 -90 85 0 c69 0 85 3 85 15 0 8 3 15 8 14 4 0 212 -89 462 -198 l455
-197 3 -67 3 -67 52 0 52 -1 267 -412 c267 -412 267 -412 238 -415 l-30 -3 0
-85 c0 -83 0 -84 25 -84 14 0 25 -3 25 -6 0 -3 -172 -311 -382 -685 l-383
-679 -67 0 -68 0 0 -62 0 -63 -373 -136 c-275 -101 -373 -133 -375 -123 -2 10
-20 14 -57 14 l-54 0 -716 907 c-394 499 -712 909 -706 911 7 2 11 36 11 88
l0 84 -90 0 c-89 0 -90 0 -90 -25 0 -14 -6 -25 -12 -25 -7 0 -321 18 -698 40
-377 22 -695 40 -707 40 -21 0 -23 5 -23 50 l0 50 -68 0 -69 0 -556 835 -557
835 0 90 0 90 -85 0 -85 0 0 -78z m140 -2 l0 -50 -55 0 -55 0 0 50 0 50 55 0
55 0 0 -50z m560 -925 c490 -737 564 -854 546 -872 -1 -1 -386 114 -856 255
l-855 257 -3 38 c-3 35 -5 37 -38 37 -19 0 -34 3 -34 6 0 3 46 111 101 240
l102 234 73 0 74 0 0 85 0 85 -30 0 c-16 0 -30 2 -30 5 0 3 59 109 131 235
l132 230 66 0 66 -1 555 -834z m3910 365 l0 -50 -50 0 -50 0 0 50 0 50 50 0
50 0 0 -50z m-4840 -90 l0 -50 -50 0 -50 0 0 50 0 50 50 0 50 0 0 -50z m5950
-410 l0 -50 -50 0 -50 0 0 50 0 50 50 0 50 0 0 -50z m-6230 -240 l0 -50 -50 0
-50 0 0 50 0 50 50 0 50 0 0 -50z m930 -269 l825 -248 3 -61 3 -62 59 0 58 0
166 -297 c144 -260 163 -298 145 -301 -18 -3 -20 -10 -17 -90 l3 -87 52 -3
c47 -3 52 -5 57 -30 3 -15 60 -409 126 -877 66 -467 123 -865 126 -882 4 -30
3 -33 -21 -33 -18 0 -25 -5 -25 -20 0 -14 -7 -20 -22 -20 -13 1 -293 29 -623
63 l-600 62 -5 55 -5 55 -45 3 -45 3 17 222 c9 122 17 228 17 235 1 8 19 12
56 12 l55 0 0 85 0 85 -54 0 -55 0 -5 53 c-3 28 -11 122 -16 207 -6 85 -13
167 -15 183 -4 26 -3 27 45 27 l50 0 0 85 0 85 -89 0 c-49 0 -91 -4 -93 -9 -3
-11 -411 156 -416 170 -2 5 -11 9 -20 9 -10 0 -134 49 -277 109 l-260 109 -3
66 -3 66 -49 0 c-45 0 -50 2 -50 23 0 12 -9 265 -20 562 -11 297 -20 548 -20
558 0 14 9 17 50 17 l50 0 0 39 0 39 33 -9 c17 -5 403 -121 857 -258z m970
-281 l0 -50 -55 0 -55 0 0 50 0 50 55 0 55 0 0 -50z m-1990 -35 c0 -8 -7 -15
-15 -15 -16 0 -20 12 -8 23 11 12 23 8 23 -8z m2730 -40 c344 -19 649 -38 678
-41 l52 -5 0 -50 0 -49 63 0 c37 0 68 -5 76 -12 20 -20 1416 -1788 1419 -1799
2 -5 -3 -9 -11 -9 -9 0 -17 -4 -19 -10 -1 -5 -254 122 -560 283 l-557 292 -3
40 -3 40 -87 3 c-78 2 -87 1 -90 -16 -3 -16 -89 22 -613 274 -335 161 -618
298 -627 304 -14 8 -18 24 -18 75 l0 64 -56 3 -56 3 -164 295 c-118 213 -159
296 -149 298 8 2 15 14 15 28 0 31 -47 32 710 -11z m-2725 -25 c0 -22 -29 -18
-33 3 -3 14 1 18 15 15 10 -2 18 -10 18 -18z m3595 -40 l0 -50 -50 0 -50 0 0
50 0 50 50 0 50 0 0 -50z m3298 -77 l3 -53 -50 0 -51 0 0 56 0 55 48 -3 47 -3
3 -52z m-6758 -563 l0 -50 -55 0 -55 0 0 50 0 50 55 0 55 0 0 -50z m2260 0 l0
-50 -50 0 -50 0 0 50 0 50 50 0 50 0 0 -50z m666 -368 l619 -298 0 -66 0 -66
-465 -567 c-255 -312 -466 -562 -468 -556 -2 6 -26 11 -53 11 -42 0 -49 3 -54
23 -5 23 -255 1776 -255 1790 0 4 9 7 20 7 11 0 20 5 20 10 0 6 4 10 8 10 5 0
287 -134 628 -298z m-1776 -142 l0 -50 -50 0 -50 0 0 50 0 50 50 0 50 0 0 -50z
m2540 -190 l0 -50 -50 0 -50 0 0 50 0 50 50 0 50 0 0 -50z m2218 -277 l3 -53
-50 0 -51 0 0 56 0 55 48 -3 47 -3 3 -52z m1242 2 l0 -55 -50 0 -50 0 0 48 c0
27 3 52 7 55 3 4 26 7 50 7 l43 0 0 -55z m-5950 -175 l0 -50 -50 0 -50 0 0 50
0 50 50 0 50 0 0 -50z m3780 -190 l0 -50 -50 0 -50 0 0 50 0 50 50 0 50 0 0
-50z m-3830 -460 l0 -50 -50 0 -50 0 0 50 0 50 50 0 50 0 0 -50z m6470 -100
l0 -50 -50 0 -50 0 0 50 0 50 50 0 50 0 0 -50z m-5040 -90 l0 -50 -50 0 -50 0
0 50 0 50 50 0 50 0 0 -50z m1980 -280 l0 -50 -50 0 -50 0 0 50 0 50 50 0 50
0 0 -50z"/>
<path d="M1180 4530 c0 -5 12 -10 26 -10 l26 0 -31 -39 c-17 -21 -31 -44 -31
-50 0 -7 20 -11 50 -11 28 0 50 5 50 10 0 6 -16 10 -36 10 l-35 0 35 44 c20
23 36 46 36 50 0 3 -20 6 -45 6 -25 0 -45 -4 -45 -10z"/>
<path d="M1440 4530 c0 -5 7 -10 15 -10 8 0 15 5 15 10 0 6 -7 10 -15 10 -8 0
-15 -4 -15 -10z"/>
<path d="M1650 4521 c0 -14 -5 -18 -18 -14 -25 6 -44 -20 -40 -54 3 -24 8 -28
41 -31 l37 -3 0 60 c0 34 -4 61 -10 61 -5 0 -10 -9 -10 -19z m-3 -47 c8 -21
-13 -42 -28 -27 -13 13 -5 43 11 43 6 0 13 -7 17 -16z"/>
<path d="M1291 4496 c-7 -8 -11 -27 -9 -43 2 -24 8 -28 32 -28 16 0 31 6 34
13 3 9 -3 11 -22 6 -16 -4 -26 -2 -26 5 0 6 14 11 30 11 33 0 35 3 20 31 -13
22 -43 25 -59 5z m39 -16 c0 -5 -7 -10 -16 -10 -8 0 -12 5 -9 10 3 6 10 10 16
10 5 0 9 -4 9 -10z"/>
<path d="M1377 4503 c-4 -3 -7 -24 -7 -45 0 -27 4 -38 15 -38 10 0 15 10 15
30 0 18 6 33 15 36 8 4 15 10 15 15 0 10 -43 12 -53 2z"/>
<path d="M1440 4465 c0 -33 4 -45 15 -45 11 0 15 12 15 45 0 33 -4 45 -15 45
-11 0 -15 -12 -15 -45z"/>
<path d="M1490 4464 c0 -24 5 -44 10 -44 6 0 10 13 10 29 0 17 5 33 11 37 14
8 29 -14 29 -43 0 -13 5 -23 11 -23 6 0 9 17 7 43 -3 41 -4 42 -40 44 l-38 1
0 -44z"/>
<path d="M1573 3933 c-26 -17 -32 -46 -8 -37 12 5 15 -3 15 -40 0 -34 4 -46
15 -46 12 0 15 14 15 70 0 39 -3 70 -7 69 -5 0 -18 -7 -30 -16z"/>
<path d="M1678 3906 c-34 -53 -35 -66 -3 -66 16 0 25 -6 25 -15 0 -8 7 -15 15
-15 8 0 15 6 15 14 0 8 6 17 13 20 10 5 10 7 0 12 -8 3 -13 24 -13 50 0 57
-17 57 -52 0z m18 -43 c-10 -10 -19 5 -10 18 6 11 8 11 12 0 2 -7 1 -15 -2
-18z"/>
<path d="M1770 3924 c-22 -57 -5 -114 33 -114 34 0 47 19 47 70 0 51 -13 70
-47 70 -16 0 -27 -8 -33 -26z m50 -45 c0 -36 -4 -49 -12 -47 -14 5 -23 61 -14
84 12 31 26 11 26 -37z"/>
<path d="M900 2720 c0 -5 9 -10 20 -10 17 0 20 -7 20 -50 0 -27 5 -50 10 -50
6 0 10 23 10 50 0 43 3 50 20 50 11 0 20 5 20 10 0 6 -22 10 -50 10 -27 0 -50
-4 -50 -10z"/>
<path d="M1010 2720 c0 -5 7 -10 15 -10 8 0 15 5 15 10 0 6 -7 10 -15 10 -8 0
-15 -4 -15 -10z"/>
<path d="M1210 2720 c0 -5 5 -10 10 -10 6 0 10 5 10 10 0 6 -4 10 -10 10 -5 0
-10 -4 -10 -10z"/>
<path d="M1010 2655 c0 -33 4 -45 15 -45 11 0 15 12 15 45 0 33 -4 45 -15 45
-11 0 -15 -12 -15 -45z"/>
<path d="M1060 2653 c0 -50 17 -59 22 -11 4 46 28 49 28 4 0 -20 5 -36 10 -36
6 0 10 9 10 19 0 26 10 51 21 51 5 0 9 -16 9 -35 0 -24 5 -35 15 -35 10 0 15
10 15 33 0 48 -9 54 -72 54 l-58 0 0 -44z"/>
<path d="M1210 2655 c0 -25 5 -45 10 -45 6 0 10 20 10 45 0 25 -4 45 -10 45
-5 0 -10 -20 -10 -45z"/>
<path d="M1257 2694 c-15 -16 -5 -36 26 -50 l32 -15 -33 5 c-24 4 -32 2 -29
-7 2 -6 19 -12 38 -12 48 0 52 30 7 51 -31 14 -31 15 -5 9 21 -4 28 -2 25 7
-5 14 -50 23 -61 12z"/>
<path d="M1356 2684 c-19 -18 -20 -28 -6 -55 11 -19 45 -25 66 -11 19 13 23
39 8 61 -18 25 -46 27 -68 5z m49 -30 c0 -10 -8 -20 -17 -22 -18 -3 -26 27
-11 42 12 11 28 0 28 -20z"/>
<path d="M1467 2694 c-14 -14 -7 -25 13 -19 29 9 24 -4 -6 -15 -39 -15 -28
-44 19 -48 l38 -3 -3 43 c-3 38 -6 43 -28 46 -14 2 -29 0 -33 -4z m33 -54 c0
-5 -7 -10 -16 -10 -8 0 -12 5 -9 10 3 6 10 10 16 10 5 0 9 -4 9 -10z"/>
<path d="M1550 2654 c0 -24 5 -44 10 -44 6 0 10 14 10 30 0 18 6 33 15 36 23
9 18 22 -10 22 -23 0 -25 -4 -25 -44z"/>
<path d="M1627 2694 c-14 -14 -7 -25 13 -19 29 9 24 -4 -6 -15 -39 -15 -28
-44 19 -48 l38 -3 -3 43 c-3 38 -6 43 -28 46 -14 2 -29 0 -33 -4z m33 -54 c0
-5 -7 -10 -16 -10 -8 0 -12 5 -9 10 3 6 10 10 16 10 5 0 9 -4 9 -10z"/>
<path d="M2110 2070 l0 -60 45 0 c25 0 45 5 45 10 0 6 -13 10 -30 10 -29 0
-30 1 -30 50 0 38 -4 50 -15 50 -12 0 -15 -13 -15 -60z"/>
<path d="M2520 2120 c0 -5 7 -10 15 -10 8 0 15 5 15 10 0 6 -7 10 -15 10 -8 0
-15 -4 -15 -10z"/>
<path d="M2212 2058 c3 -42 4 -43 41 -45 l37 -1 0 44 c0 50 -17 60 -22 12 -4
-46 -28 -49 -28 -4 0 26 -4 36 -16 36 -12 0 -14 -9 -12 -42z"/>
<path d="M2321 2087 c-28 -28 0 -86 35 -73 10 4 14 1 11 -6 -2 -8 -16 -12 -33
-10 -28 2 -28 2 -10 -13 43 -33 76 -5 76 65 0 48 0 48 -34 48 -19 0 -39 -5
-45 -11z m49 -32 c0 -16 -6 -25 -15 -25 -9 0 -15 9 -15 25 0 16 6 25 15 25 9
0 15 -9 15 -25z"/>
<path d="M2426 2084 c-19 -18 -20 -28 -6 -55 11 -19 45 -25 66 -11 19 13 23
39 8 61 -18 25 -46 27 -68 5z m49 -30 c0 -10 -8 -20 -17 -22 -18 -3 -26 27
-11 42 12 11 28 0 28 -20z"/>
<path d="M2520 2052 c0 -26 -5 -53 -11 -59 -16 -16 8 -28 26 -13 21 18 21 120
0 120 -11 0 -15 -12 -15 -48z"/>
<path d="M2150 1430 c0 -47 3 -60 15 -60 9 0 15 10 16 28 l1 27 7 -25 c10 -36
33 -31 45 10 l10 35 4 -37 c5 -61 22 -44 22 22 0 53 -2 60 -19 60 -13 0 -21
-9 -26 -30 -4 -16 -10 -30 -15 -30 -4 0 -10 14 -13 30 -5 21 -12 30 -27 30
-18 0 -20 -6 -20 -60z"/>
<path d="M2390 1430 c0 -63 16 -84 22 -27 2 20 8 32 18 32 10 0 16 -12 18 -32
5 -49 24 -40 20 10 -3 39 -5 42 -30 42 -20 -1 -28 4 -28 17 0 10 -4 18 -10 18
-6 0 -10 -27 -10 -60z"/>
<path d="M2640 1475 c0 -8 -8 -15 -18 -15 -24 0 -42 -19 -42 -45 0 -30 19 -45
57 -45 l33 0 0 60 c0 47 -3 60 -15 60 -8 0 -15 -7 -15 -15z m0 -60 c0 -16 -6
-25 -15 -25 -9 0 -15 9 -15 25 0 16 6 25 15 25 9 0 15 -9 15 -25z"/>
<path d="M2690 1480 c0 -5 7 -10 15 -10 8 0 15 5 15 10 0 6 -7 10 -15 10 -8 0
-15 -4 -15 -10z"/>
<path d="M2302 1448 c-16 -16 -15 -53 2 -68 17 -13 63 -10 57 5 -2 6 -12 9
-23 7 -10 -2 -18 2 -18 7 0 6 11 11 25 11 14 0 25 6 25 13 0 18 -21 37 -40 37
-9 0 -21 -5 -28 -12z m43 -18 c3 -5 -1 -10 -9 -10 -9 0 -16 5 -16 10 0 6 4 10
9 10 6 0 13 -4 16 -10z"/>
<path d="M2497 1453 c-15 -14 -6 -23 18 -17 14 3 25 3 25 0 0 -4 -11 -11 -25
-16 -15 -6 -25 -17 -25 -30 0 -17 7 -20 40 -20 39 0 39 0 34 33 -3 17 -7 38
-10 45 -4 13 -46 17 -57 5z m43 -53 c0 -5 -7 -10 -16 -10 -8 0 -12 5 -9 10 3
6 10 10 16 10 5 0 9 -4 9 -10z"/>
<path d="M2690 1415 c0 -33 4 -45 15 -45 11 0 15 12 15 45 0 33 -4 45 -15 45
-11 0 -15 -12 -15 -45z"/>
<path d="M2747 1454 c-15 -16 -6 -24 19 -18 19 5 25 4 20 -5 -4 -6 -15 -11
-26 -11 -19 0 -34 -25 -24 -41 3 -5 21 -9 40 -9 35 0 35 0 32 43 -3 37 -6 42
-28 45 -14 2 -29 0 -33 -4z m43 -54 c0 -5 -7 -10 -15 -10 -8 0 -15 5 -15 10 0
6 7 10 15 10 8 0 15 -4 15 -10z"/>
<path d="M2543 931 c-29 -25 -31 -46 -3 -31 19 10 20 8 20 -40 0 -38 4 -50 15
-50 12 0 15 14 15 70 0 76 -7 84 -47 51z"/>
<path d="M2633 935 c-8 -22 4 -30 21 -16 15 13 36 7 36 -9 0 -5 -16 -26 -35
-47 -19 -21 -35 -41 -35 -45 0 -5 23 -8 51 -8 36 0 49 4 47 13 -3 6 -14 13
-27 15 l-22 3 26 30 c28 34 31 49 13 67 -17 17 -67 15 -75 -3z"/>
<path d="M2750 935 c-7 -8 -13 -33 -13 -55 0 -49 18 -72 52 -68 32 4 49 52 35
101 -7 24 -16 33 -35 35 -14 2 -31 -4 -39 -13z m45 -55 c0 -24 -5 -45 -11 -47
-15 -5 -26 40 -18 72 10 40 29 23 29 -25z"/>
<path d="M2934 3106 c-3 -9 -3 -23 0 -32 3 -8 1 -24 -4 -35 -17 -31 5 -61 42
-57 36 3 55 27 43 54 -4 11 -8 33 -9 49 -1 26 -5 30 -34 33 -22 2 -34 -2 -38
-12z m54 -24 c2 -7 -3 -12 -12 -12 -9 0 -16 7 -16 16 0 17 22 14 28 -4z m2
-56 c0 -20 -19 -31 -32 -18 -6 6 -7 15 -4 21 10 16 36 13 36 -3z"/>
<path d="M3050 3105 c-7 -8 -13 -33 -13 -55 0 -49 18 -72 52 -68 32 4 49 52
35 101 -7 24 -16 33 -35 35 -14 2 -31 -4 -39 -13z m45 -55 c0 -48 -19 -65 -29
-25 -8 32 3 77 18 72 6 -2 11 -23 11 -47z"/>
<path d="M3160 2760 c0 -33 4 -60 10 -60 6 0 10 11 10 25 0 15 6 25 14 25 7 0
21 -11 30 -25 9 -14 23 -25 31 -25 14 0 13 3 0 24 -13 20 -14 28 -4 44 21 34
5 52 -46 52 l-45 0 0 -60z m70 25 c0 -9 -9 -15 -25 -15 -16 0 -25 6 -25 15 0
9 9 15 25 15 16 0 25 -6 25 -15z"/>
<path d="M3280 2810 c0 -5 7 -10 15 -10 8 0 15 5 15 10 0 6 -7 10 -15 10 -8 0
-15 -4 -15 -10z"/>
<path d="M3580 2810 c0 -5 7 -10 15 -10 8 0 15 5 15 10 0 6 -7 10 -15 10 -8 0
-15 -4 -15 -10z"/>
<path d="M3870 2814 c0 -4 8 -31 17 -61 23 -72 42 -70 69 7 19 53 19 61 6 58
-9 -2 -20 -18 -26 -36 -11 -40 -21 -41 -32 0 -8 28 -34 52 -34 32z"/>
<path d="M3990 2810 c0 -5 5 -10 10 -10 6 0 10 5 10 10 0 6 -4 10 -10 10 -5 0
-10 -4 -10 -10z"/>
<path d="M4040 2760 c0 -33 4 -60 10 -60 6 0 10 27 10 60 0 33 -4 60 -10 60
-6 0 -10 -27 -10 -60z"/>
<path d="M3280 2745 c0 -33 4 -45 15 -45 11 0 15 12 15 45 0 33 -4 45 -15 45
-11 0 -15 -12 -15 -45z"/>
<path d="M3330 2743 c0 -50 17 -59 22 -11 4 46 28 49 28 4 0 -20 5 -36 10 -36
6 0 10 9 10 19 0 26 10 51 21 51 5 0 9 -16 9 -35 0 -24 5 -35 15 -35 10 0 15
10 15 33 0 48 -9 54 -72 54 l-58 0 0 -44z"/>
<path d="M3480 2744 c0 -24 5 -44 10 -44 6 0 10 13 10 29 0 17 5 33 11 37 14
8 29 -14 29 -43 0 -13 5 -23 11 -23 6 0 9 17 7 43 -3 41 -4 42 -40 44 l-38 1
0 -44z"/>
<path d="M3580 2745 c0 -33 4 -45 15 -45 11 0 15 12 15 45 0 33 -4 45 -15 45
-11 0 -15 -12 -15 -45z"/>
<path d="M3641 2776 c-7 -8 -11 -27 -9 -43 3 -25 7 -28 37 -28 19 0 36 6 39
13 3 9 -5 12 -24 10 -23 -2 -29 1 -29 17 0 16 6 19 29 17 26 -3 28 -1 17 12
-17 20 -45 21 -60 2z"/>
<path d="M3725 2779 c-4 -6 -4 -26 -1 -45 7 -32 9 -34 46 -34 l40 0 0 45 c0
33 -4 45 -15 45 -10 0 -15 -11 -15 -35 0 -24 -5 -35 -15 -35 -10 0 -15 11 -15
35 0 34 -12 46 -25 24z"/>
<path d="M3990 2745 c0 -25 5 -45 10 -45 6 0 10 20 10 45 0 25 -4 45 -10 45
-5 0 -10 -20 -10 -45z"/>
<path d="M4091 2776 c-7 -8 -11 -27 -9 -43 3 -25 7 -28 37 -28 19 0 36 6 39
13 3 9 -5 12 -24 10 -23 -2 -29 1 -29 17 0 16 6 19 29 17 26 -3 28 -1 17 12
-17 20 -45 21 -60 2z"/>
<path d="M4178 2764 c-9 -18 -9 -30 -1 -42 12 -20 64 -23 71 -4 3 9 -3 11 -22
6 -16 -4 -26 -2 -26 5 0 6 11 11 25 11 29 0 36 34 9 44 -29 11 -44 6 -56 -20z
m52 -4 c0 -5 -7 -10 -15 -10 -8 0 -15 5 -15 10 0 6 7 10 15 10 8 0 15 -4 15
-10z"/>
<path d="M4277 2783 c-15 -14 -6 -23 18 -17 14 3 25 3 25 0 0 -4 -11 -11 -25
-16 -15 -6 -25 -17 -25 -30 0 -17 7 -20 40 -20 39 0 39 0 34 33 -3 17 -7 38
-10 45 -4 13 -46 17 -57 5z m43 -53 c0 -5 -7 -10 -16 -10 -8 0 -12 5 -9 10 3
6 10 10 16 10 5 0 9 -4 9 -10z"/>
<path d="M4270 2150 c0 -47 3 -60 15 -60 9 0 15 9 15 24 0 19 6 25 26 28 66 8
51 68 -17 68 l-39 0 0 -60z m68 23 c2 -8 -5 -13 -17 -13 -12 0 -21 6 -21 16 0
18 31 15 38 -3z"/>
<path d="M4390 2200 c0 -5 5 -10 10 -10 6 0 10 5 10 10 0 6 -4 10 -10 10 -5 0
-10 -4 -10 -10z"/>
<path d="M4740 2200 c0 -5 5 -10 10 -10 6 0 10 5 10 10 0 6 -4 10 -10 10 -5 0
-10 -4 -10 -10z"/>
<path d="M4427 2187 c-9 -23 8 -92 23 -95 12 -2 15 7 14 45 -1 26 -3 51 -3 56
-2 12 -29 8 -34 -6z"/>
<path d="M4678 2188 c-3 -7 -3 -32 0 -55 3 -34 8 -43 23 -43 10 0 19 5 19 10
0 6 -4 10 -10 10 -14 0 -12 48 2 52 9 3 8 9 -4 21 -20 20 -24 21 -30 5z"/>
<path d="M4390 2135 c0 -25 5 -45 10 -45 6 0 10 20 10 45 0 25 -4 45 -10 45
-5 0 -10 -20 -10 -45z"/>
<path d="M4488 2154 c-9 -18 -9 -30 -1 -42 12 -20 64 -23 71 -4 3 9 -3 11 -22
6 -16 -4 -26 -2 -26 5 0 6 11 11 25 11 29 0 36 34 9 44 -29 11 -44 6 -56 -20z
m52 -4 c0 -5 -7 -10 -15 -10 -8 0 -15 5 -15 10 0 6 7 10 15 10 8 0 15 -4 15
-10z"/>
<path d="M4587 2174 c-15 -16 -5 -36 26 -50 l32 -15 -33 5 c-24 4 -32 2 -29
-7 2 -6 19 -12 38 -12 48 0 52 30 7 51 -31 14 -31 15 -5 9 21 -4 28 -2 25 7
-5 14 -50 23 -61 12z"/>
<path d="M4740 2135 c0 -25 5 -45 10 -45 6 0 10 20 10 45 0 25 -4 45 -10 45
-5 0 -10 -20 -10 -45z"/>
<path d="M3602 2158 c-26 -26 -10 -78 24 -78 25 0 32 -14 14 -25 -6 -4 -17 -2
-24 4 -16 13 -27 4 -19 -15 3 -8 18 -14 34 -14 33 0 49 23 49 70 0 17 -5 40
-10 51 -12 21 -50 25 -68 7z m46 -36 c2 -14 -2 -22 -11 -22 -17 0 -26 19 -19
38 7 19 27 9 30 -16z"/>
<path d="M3700 2155 c0 -9 9 -15 25 -15 29 0 30 -5 10 -40 -18 -31 -20 -73 -3
-68 7 3 15 19 19 36 3 17 14 43 23 56 25 38 20 46 -29 46 -33 0 -45 -4 -45
-15z"/>
<path d="M3333 1613 c-26 -17 -32 -46 -8 -37 12 5 15 -3 15 -40 0 -34 4 -46
15 -46 12 0 15 14 15 70 0 39 -3 70 -7 69 -5 0 -18 -7 -30 -16z"/>
<path d="M3438 1586 c-34 -53 -35 -66 -3 -66 16 0 25 -6 25 -15 0 -8 7 -15 15
-15 8 0 15 6 15 14 0 8 6 17 13 20 10 5 10 7 0 12 -8 3 -13 24 -13 50 0 57
-17 57 -52 0z m18 -43 c-10 -10 -19 5 -10 18 6 11 8 11 12 0 2 -7 1 -15 -2
-18z"/>
<path d="M3536 1608 c-32 -46 -8 -118 39 -118 54 0 55 85 1 92 -19 2 -23 6
-17 17 8 12 12 12 24 2 10 -8 17 -9 22 -1 21 33 -46 41 -69 8z m49 -73 c0 -10
-5 -20 -11 -22 -13 -4 -27 24 -18 38 9 15 29 4 29 -16z"/>
<path d="M1562 5258 c-17 -17 -15 -74 4 -93 46 -46 125 17 93 74 -17 29 -75
41 -97 19z m74 -33 c11 -46 -35 -75 -56 -35 -8 14 -8 26 0 40 15 29 48 26 56
-5z"/>
<path d="M1900 5255 c0 -8 -8 -15 -18 -15 -24 0 -42 -19 -42 -45 0 -30 19 -45
57 -45 l33 0 0 60 c0 47 -3 60 -15 60 -8 0 -15 -7 -15 -15z m0 -60 c0 -16 -6
-25 -15 -25 -9 0 -15 9 -15 25 0 16 6 25 15 25 9 0 15 -9 15 -25z"/>
<path d="M1687 5233 c-4 -3 -7 -24 -7 -45 0 -27 4 -38 15 -38 10 0 15 10 15
30 0 18 6 33 15 36 8 4 15 10 15 15 0 10 -43 12 -53 2z"/>
<path d="M1757 5233 c-15 -14 -6 -23 18 -17 14 3 25 3 25 0 0 -4 -11 -11 -25
-16 -15 -6 -25 -17 -25 -30 0 -17 7 -20 40 -20 39 0 39 0 34 33 -3 17 -7 38
-10 45 -4 13 -46 17 -57 5z m43 -53 c0 -5 -7 -10 -16 -10 -8 0 -12 5 -9 10 3
6 10 10 16 10 5 0 9 -4 9 -10z"/>
<path d="M1948 5214 c-9 -18 -9 -30 -1 -42 12 -20 64 -23 71 -4 3 9 -3 11 -22
6 -16 -4 -26 -2 -26 5 0 6 11 11 25 11 29 0 36 34 9 44 -29 11 -44 6 -56 -20z
m52 -4 c0 -5 -7 -10 -15 -10 -8 0 -15 5 -15 10 0 6 7 10 15 10 8 0 15 -4 15
-10z"/>
<path d="M2047 5233 c-15 -14 -6 -23 18 -17 14 3 25 3 25 0 0 -4 -11 -11 -25
-16 -15 -6 -25 -17 -25 -30 0 -17 7 -20 40 -20 39 0 39 0 34 33 -3 17 -7 38
-10 45 -4 13 -46 17 -57 5z m43 -53 c0 -5 -7 -10 -16 -10 -8 0 -12 5 -9 10 3
6 10 10 16 10 5 0 9 -4 9 -10z"/>
<path d="M977 5114 c-11 -12 4 -24 29 -24 23 0 24 -1 11 -27 -8 -16 -17 -40
-21 -55 -11 -47 19 -33 34 14 7 24 18 52 26 63 8 11 14 23 14 27 0 10 -84 11
-93 2z"/>
<path d="M1113 5101 c-29 -25 -31 -46 -3 -31 19 10 20 8 20 -40 0 -38 4 -50
15 -50 12 0 15 14 15 70 0 76 -7 84 -47 51z"/>
<path d="M5620 4900 c0 -45 3 -60 14 -60 9 0 16 12 18 33 l3 32 18 -32 c29
-54 47 -43 47 27 0 66 -17 83 -22 23 l-3 -38 -23 38 c-36 56 -52 49 -52 -23z"/>
<path d="M6093 4945 c-5 -11 -8 -39 -5 -62 3 -34 8 -43 23 -43 10 0 19 5 19
10 0 6 -4 10 -10 10 -15 0 -12 47 3 53 8 4 9 8 1 14 -6 4 -13 15 -16 23 -4 12
-7 11 -15 -5z"/>
<path d="M5752 4918 c-16 -16 -15 -53 2 -68 17 -13 63 -10 57 5 -2 6 -12 9
-23 7 -10 -2 -18 2 -18 7 0 6 11 11 25 11 14 0 25 6 25 13 0 18 -21 37 -40 37
-9 0 -21 -5 -28 -12z m43 -18 c3 -5 -1 -10 -9 -10 -9 0 -16 5 -16 10 0 6 4 10
9 10 6 0 13 -4 16 -10z"/>
<path d="M5847 4924 c-15 -16 -6 -24 19 -18 19 5 25 4 20 -5 -4 -6 -15 -11
-26 -11 -19 0 -34 -25 -24 -41 3 -5 21 -9 40 -9 35 0 35 0 32 43 -3 37 -6 42
-28 45 -14 2 -29 0 -33 -4z m43 -54 c0 -5 -7 -10 -15 -10 -8 0 -15 5 -15 10 0
6 7 10 15 10 8 0 15 -4 15 -10z"/>
<path d="M5930 4884 c0 -24 5 -44 10 -44 6 0 10 9 10 19 0 26 10 51 21 51 5 0
9 -16 9 -35 0 -24 5 -35 15 -35 11 0 15 11 15 36 0 45 24 42 28 -4 5 -48 24
-38 20 11 l-3 42 -62 1 -63 2 0 -44z"/>
<path d="M6451 4623 c-5 -11 -6 -25 -1 -33 5 -8 3 -21 -3 -32 -17 -26 3 -52
42 -56 25 -3 33 1 40 20 5 13 6 27 3 33 -4 5 -6 26 -7 45 0 32 -3 35 -32 38
-23 2 -34 -2 -42 -15z m49 -18 c0 -8 -7 -15 -15 -15 -16 0 -20 12 -8 23 11 12
23 8 23 -8z m5 -65 c0 -22 -29 -18 -33 3 -3 14 1 18 15 15 10 -2 18 -10 18
-18z"/>
<path d="M6552 4628 c3 -7 16 -14 31 -16 25 -3 26 -5 13 -25 -8 -12 -17 -37
-21 -54 -5 -26 -3 -33 9 -33 9 0 16 8 16 18 0 10 11 41 25 68 14 27 25 50 25
52 0 1 -23 2 -51 2 -36 0 -49 -4 -47 -12z"/>
<path d="M2113 4491 c-29 -25 -31 -46 -3 -31 19 10 20 8 20 -40 0 -38 4 -50
15 -50 12 0 15 14 15 70 0 76 -7 84 -47 51z"/>
<path d="M2206 4479 c-9 -47 -8 -49 24 -42 26 5 30 2 30 -15 0 -27 -17 -37
-36 -21 -18 14 -29 6 -20 -16 8 -21 65 -16 79 6 5 9 7 28 3 42 -5 20 -13 27
-31 27 -34 0 -32 18 2 22 44 5 40 28 -5 28 -36 0 -40 -3 -46 -31z"/>
<path d="M2333 4491 c-29 -25 -31 -46 -3 -31 19 10 20 8 20 -40 0 -38 4 -50
15 -50 12 0 15 14 15 70 0 76 -7 84 -47 51z"/>
<path d="M630 4405 c0 -9 9 -15 25 -15 29 0 30 -5 10 -40 -18 -31 -20 -73 -3
-68 7 3 15 19 19 36 3 17 14 43 23 56 25 38 20 46 -29 46 -33 0 -45 -4 -45
-15z"/>
<path d="M750 4390 c0 -41 2 -45 24 -42 22 3 37 -15 29 -35 -6 -15 -33 -18
-33 -3 0 6 -7 10 -15 10 -18 0 -19 -12 -3 -28 16 -16 53 -15 67 2 20 24 10 70
-16 74 -29 4 -30 20 -1 24 41 6 32 28 -11 28 -39 0 -41 -2 -41 -30z"/>
<path d="M7140 4150 c0 -33 4 -60 10 -60 6 0 10 27 10 60 0 33 -4 60 -10 60
-6 0 -10 -27 -10 -60z"/>
<path d="M7380 4200 c0 -5 5 -10 10 -10 6 0 10 5 10 10 0 6 -4 10 -10 10 -5 0
-10 -4 -10 -10z"/>
<path d="M7197 4174 c-14 -14 -7 -25 13 -19 29 9 24 -4 -6 -15 -39 -15 -28
-44 19 -48 l38 -3 -3 43 c-3 38 -6 43 -28 46 -14 2 -29 0 -33 -4z m33 -54 c0
-5 -7 -10 -16 -10 -8 0 -12 5 -9 10 3 6 10 10 16 10 5 0 9 -4 9 -10z"/>
<path d="M7282 4168 c-14 -17 -4 -34 28 -48 23 -9 22 -10 -7 -4 -28 5 -32 3
-27 -11 5 -11 16 -15 38 -13 43 4 48 39 9 55 -21 9 -23 11 -7 10 11 -1 22 3
23 8 3 15 -44 18 -57 3z"/>
<path d="M7380 4135 c0 -25 5 -45 10 -45 6 0 10 20 10 45 0 25 -4 45 -10 45
-5 0 -10 -20 -10 -45z"/>
<path d="M223 3920 c-16 -46 -18 -60 -8 -60 7 0 15 7 19 15 3 8 15 15 26 15
11 0 23 -7 26 -15 4 -8 13 -15 21 -15 8 0 13 4 11 8 -1 4 -12 31 -22 60 -27
70 -45 68 -73 -8z m47 5 c0 -8 -4 -15 -10 -15 -5 0 -10 7 -10 15 0 8 5 15 10
15 6 0 10 -7 10 -15z"/>
<path d="M550 3961 c0 -14 -5 -18 -18 -14 -25 6 -44 -20 -40 -54 3 -24 8 -28
41 -31 l37 -3 0 60 c0 34 -4 61 -10 61 -5 0 -10 -9 -10 -19z m-3 -47 c8 -21
-13 -42 -28 -27 -13 13 -5 43 11 43 6 0 13 -7 17 -16z"/>
<path d="M330 3903 c0 -32 4 -43 15 -43 10 0 15 11 15 35 0 24 5 35 15 35 8 0
15 4 15 9 0 5 -13 9 -30 9 -29 -1 -30 -3 -30 -45z"/>
<path d="M407 3944 c-15 -16 -6 -24 19 -18 19 5 25 4 20 -5 -4 -6 -15 -11 -26
-11 -19 0 -34 -25 -24 -41 3 -5 21 -9 40 -9 35 0 35 0 32 43 -3 37 -6 42 -28
45 -14 2 -29 0 -33 -4z m43 -54 c0 -5 -7 -10 -15 -10 -8 0 -15 5 -15 10 0 6 7
10 15 10 8 0 15 -4 15 -10z"/>
<path d="M7372 3798 c-26 -26 -10 -78 24 -78 25 0 32 -14 14 -25 -6 -4 -17 -2
-24 4 -16 13 -27 4 -19 -15 3 -8 18 -14 34 -14 33 0 49 23 49 70 0 17 -5 40
-10 51 -12 21 -50 25 -68 7z m46 -36 c2 -14 -2 -22 -11 -22 -17 0 -26 19 -19
38 7 19 27 9 30 -16z"/>
<path d="M7482 3798 c-16 -16 -15 -28 3 -28 8 0 15 5 15 10 0 6 7 10 15 10 25
0 17 -34 -15 -65 -43 -41 -39 -55 15 -55 33 0 45 4 45 15 0 9 -9 15 -21 15
l-20 0 20 26 c34 43 22 84 -24 84 -12 0 -26 -5 -33 -12z"/>
<path d="M2760 3585 c-11 -13 -10 -19 5 -35 10 -11 26 -20 37 -20 10 0 18 -7
18 -15 0 -8 -9 -15 -20 -15 -11 0 -20 5 -20 10 0 6 -7 10 -15 10 -18 0 -19
-12 -3 -28 17 -17 63 -15 78 3 17 21 5 45 -30 58 -39 15 -39 31 1 23 22 -4 29
-2 27 7 -7 19 -63 21 -78 2z"/>
<path d="M2870 3590 c0 -5 5 -10 10 -10 6 0 10 5 10 10 0 6 -4 10 -10 10 -5 0
-10 -4 -10 -10z"/>
<path d="M2910 3540 l0 -60 40 0 c35 0 40 3 46 27 9 33 -7 58 -35 57 -14 0
-21 5 -21 18 0 10 -7 18 -15 18 -12 0 -15 -13 -15 -60z m64 -6 c8 -20 -1 -34
-20 -34 -8 0 -14 10 -14 25 0 28 24 34 34 9z"/>
<path d="M3020 3590 c0 -5 5 -10 10 -10 6 0 10 5 10 10 0 6 -4 10 -10 10 -5 0
-10 -4 -10 -10z"/>
<path d="M2870 3525 c0 -25 5 -45 10 -45 6 0 10 20 10 45 0 25 -4 45 -10 45
-5 0 -10 -20 -10 -45z"/>
<path d="M3020 3525 c0 -25 5 -45 10 -45 6 0 10 20 10 45 0 25 -4 45 -10 45
-5 0 -10 -20 -10 -45z"/>
<path d="M3065 3559 c-4 -6 -4 -26 -1 -45 7 -32 9 -34 46 -34 l40 0 0 45 c0
33 -4 45 -15 45 -10 0 -15 -11 -15 -35 0 -24 -5 -35 -15 -35 -10 0 -15 11 -15
35 0 34 -12 46 -25 24z"/>
<path d="M4040 3510 c0 -33 4 -60 10 -60 6 0 10 11 10 25 0 20 5 25 24 25 35
0 42 18 9 22 -39 4 -42 28 -4 28 17 0 31 5 31 10 0 6 -18 10 -40 10 l-40 0 0
-60z"/>
<path d="M3472 3528 c-26 -26 -10 -78 24 -78 25 0 32 -14 14 -25 -6 -4 -17 -2
-24 4 -16 13 -27 4 -19 -15 3 -8 18 -14 34 -14 33 0 49 23 49 70 0 17 -5 40
-10 51 -12 21 -50 25 -68 7z m46 -36 c2 -14 -2 -22 -11 -22 -17 0 -26 19 -19
38 7 19 27 9 30 -16z"/>
<path d="M3582 3528 c-26 -26 -10 -78 24 -78 25 0 32 -14 14 -25 -6 -4 -17 -2
-24 4 -16 13 -27 4 -19 -15 3 -8 18 -14 34 -14 33 0 49 23 49 70 0 17 -5 40
-10 51 -12 21 -50 25 -68 7z m46 -36 c2 -14 -2 -22 -11 -22 -17 0 -26 19 -19
38 7 19 27 9 30 -16z"/>
<path d="M4147 3533 c-15 -14 -6 -23 18 -17 14 3 25 3 25 0 0 -4 -11 -11 -25
-16 -15 -6 -25 -17 -25 -30 0 -17 7 -20 40 -20 39 0 39 0 34 33 -3 17 -7 38
-10 45 -4 13 -46 17 -57 5z m43 -53 c0 -5 -7 -10 -16 -10 -8 0 -12 5 -9 10 3
6 10 10 16 10 5 0 9 -4 9 -10z"/>
<path d="M4241 3527 c-28 -28 0 -86 35 -73 10 4 14 1 11 -6 -2 -8 -16 -12 -33
-10 -28 2 -28 2 -10 -13 43 -33 76 -5 76 65 0 48 0 48 -34 48 -19 0 -39 -5
-45 -11z m49 -32 c0 -16 -6 -25 -15 -25 -9 0 -15 9 -15 25 0 16 6 25 15 25 9
0 15 -9 15 -25z"/>
<path d="M4347 3534 c-15 -16 -6 -24 19 -18 19 5 25 4 20 -5 -4 -6 -15 -11
-26 -11 -19 0 -34 -25 -24 -41 3 -5 21 -9 40 -9 35 0 35 0 32 43 -3 37 -6 42
-28 45 -14 2 -29 0 -33 -4z m43 -54 c0 -5 -7 -10 -15 -10 -8 0 -15 5 -15 10 0
6 7 10 15 10 8 0 15 -4 15 -10z"/>
<path d="M4437 3533 c-4 -3 -7 -24 -7 -45 0 -27 4 -38 15 -38 10 0 15 10 15
30 0 18 6 33 15 36 8 4 15 10 15 15 0 10 -43 12 -53 2z"/>
<path d="M4507 3534 c-15 -16 -6 -24 19 -18 19 5 25 4 20 -5 -4 -6 -15 -11
-26 -11 -19 0 -34 -25 -24 -41 3 -5 21 -9 40 -9 35 0 35 0 32 43 -3 37 -6 42
-28 45 -14 2 -29 0 -33 -4z m43 -54 c0 -5 -7 -10 -15 -10 -8 0 -15 5 -15 10 0
6 7 10 15 10 8 0 15 -4 15 -10z"/>
<path d="M4597 3534 c-15 -16 -5 -36 26 -50 l32 -15 -33 5 c-24 4 -32 2 -29
-7 2 -6 19 -12 38 -12 48 0 52 30 7 51 -31 14 -31 15 -5 9 21 -4 28 -2 25 7
-5 14 -50 23 -61 12z"/>
<path d="M443 3333 c-26 -17 -32 -46 -8 -37 12 5 15 -3 15 -40 0 -34 4 -46 15
-46 12 0 15 14 15 70 0 39 -3 70 -7 69 -5 0 -18 -7 -30 -16z"/>
<path d="M553 3333 c-26 -17 -32 -46 -8 -37 12 5 15 -3 15 -40 0 -34 4 -46 15
-46 12 0 15 14 15 70 0 39 -3 70 -7 69 -5 0 -18 -7 -30 -16z"/>
<path d="M7690 3194 c0 -4 8 -31 17 -61 23 -72 42 -70 69 7 19 53 19 61 6 58
-9 -2 -20 -18 -26 -36 -11 -40 -21 -41 -32 0 -8 28 -34 52 -34 32z"/>
<path d="M8000 3140 c0 -33 4 -60 10 -60 6 0 10 27 10 60 0 33 -4 60 -10 60
-6 0 -10 -27 -10 -60z"/>
<path d="M8150 3190 c0 -5 5 -10 10 -10 6 0 10 5 10 10 0 6 -4 10 -10 10 -5 0
-10 -4 -10 -10z"/>
<path d="M7817 3164 c-15 -16 -6 -24 19 -18 19 5 25 4 20 -5 -4 -6 -15 -11
-26 -11 -19 0 -34 -25 -24 -41 3 -5 21 -9 40 -9 35 0 35 0 32 43 -3 37 -6 42
-28 45 -14 2 -29 0 -33 -4z m43 -54 c0 -5 -7 -10 -15 -10 -8 0 -15 5 -15 10 0
6 7 10 15 10 8 0 15 -4 15 -10z"/>
<path d="M7907 3164 c-14 -15 -6 -34 21 -49 l27 -16 -28 6 c-21 4 -28 2 -25
-7 6 -18 46 -22 64 -8 21 19 17 29 -18 46 -32 14 -32 15 -5 9 21 -4 28 -2 25
7 -5 14 -50 23 -61 12z"/>
<path d="M8042 3128 c3 -42 4 -43 41 -45 l37 -1 0 44 c0 50 -17 60 -22 12 -4
-46 -28 -49 -28 -4 0 26 -4 36 -16 36 -12 0 -14 -9 -12 -42z"/>
<path d="M8150 3125 c0 -25 5 -45 10 -45 6 0 10 20 10 45 0 25 -4 45 -10 45
-5 0 -10 -20 -10 -45z"/>
<path d="M7263 2441 c-29 -25 -31 -46 -3 -31 19 10 20 8 20 -40 0 -38 4 -50
15 -50 12 0 15 14 15 70 0 76 -7 84 -47 51z"/>
<path d="M7370 2416 c-38 -56 -38 -66 0 -66 20 0 30 -5 30 -15 0 -21 27 -19
32 3 2 9 2 41 0 70 -5 65 -20 67 -62 8z m30 -26 c0 -11 -7 -20 -15 -20 -13 0
-14 4 -5 20 6 11 13 20 15 20 3 0 5 -9 5 -20z"/>
<path d="M7463 2445 c-8 -22 4 -30 21 -16 15 13 36 7 36 -9 0 -5 -16 -26 -35
-47 -19 -21 -35 -41 -35 -45 0 -5 23 -8 51 -8 36 0 49 4 47 13 -3 6 -14 13
-27 15 l-22 3 26 30 c28 34 31 49 13 67 -17 17 -67 15 -75 -3z"/>
<path d="M5162 2338 c-16 -16 -15 -28 3 -28 8 0 15 5 15 10 0 6 7 10 15 10 25
0 17 -34 -15 -65 -43 -41 -39 -55 15 -55 33 0 45 4 45 15 0 9 -9 15 -21 15
l-20 0 20 26 c34 43 22 84 -24 84 -12 0 -26 -5 -33 -12z"/>
<path d="M5287 2332 c-22 -24 -24 -50 -2 -32 13 11 15 6 15 -39 0 -39 4 -51
15 -51 12 0 15 14 15 70 0 75 -11 88 -43 52z"/>
<path d="M5397 2332 c-22 -24 -24 -50 -2 -32 13 11 15 6 15 -39 0 -39 4 -51
15 -51 12 0 15 14 15 70 0 75 -11 88 -43 52z"/>
<path d="M1153 2291 c-29 -25 -31 -46 -3 -31 19 10 20 8 20 -40 0 -38 4 -50
15 -50 12 0 15 14 15 70 0 76 -7 84 -47 51z"/>
<path d="M1263 2291 c-29 -25 -31 -46 -3 -31 19 10 20 8 20 -40 0 -38 4 -50
15 -50 12 0 15 14 15 70 0 76 -7 84 -47 51z"/>
<path d="M1710 1855 c0 -9 9 -15 25 -15 29 0 30 -5 10 -40 -18 -31 -20 -73 -3
-68 7 3 15 19 19 36 3 17 14 43 23 56 25 38 20 46 -29 46 -33 0 -45 -4 -45
-15z"/>
<path d="M1832 1858 c-7 -7 -12 -33 -12 -58 0 -51 13 -70 47 -70 26 0 43 27
43 70 0 17 -5 40 -10 51 -12 21 -50 25 -68 7z m46 -64 c-2 -22 -7 -39 -13 -39
-12 0 -19 60 -10 83 10 28 27 -3 23 -44z"/>
<path d="M7289 1819 c-16 -31 3 -69 36 -69 25 0 33 -14 15 -25 -6 -4 -17 -2
-25 5 -15 12 -31 -3 -20 -20 12 -19 54 -10 71 15 19 29 14 93 -8 107 -24 15
-57 8 -69 -13z m55 -16 c9 -22 -10 -41 -25 -26 -13 13 -5 43 10 43 5 0 12 -8
15 -17z"/>
<path d="M7404 1826 c-3 -9 -3 -23 0 -32 3 -8 1 -24 -4 -35 -17 -31 5 -61 42
-57 36 3 55 27 43 54 -4 11 -8 33 -9 49 -1 26 -5 30 -34 33 -22 2 -34 -2 -38
-12z m54 -24 c2 -7 -3 -12 -12 -12 -9 0 -16 7 -16 16 0 17 22 14 28 -4z m2
-56 c0 -8 -5 -18 -11 -22 -14 -8 -33 11 -25 25 10 16 36 13 36 -3z"/>
<path d="M8110 1610 c0 -33 4 -60 10 -60 6 0 10 11 10 25 0 20 5 25 25 25 20
0 25 -5 25 -25 0 -16 6 -25 15 -25 12 0 15 13 15 60 0 47 -3 60 -15 60 -9 0
-15 -10 -15 -26 0 -21 -4 -25 -22 -22 -15 2 -24 11 -26 26 -7 46 -22 20 -22
-38z"/>
<path d="M8230 1660 c0 -5 5 -10 10 -10 6 0 10 5 10 10 0 6 -4 10 -10 10 -5 0
-10 -4 -10 -10z"/>
<path d="M6111 1633 c-5 -11 -6 -25 -1 -33 5 -8 3 -21 -3 -32 -17 -26 3 -52
42 -56 25 -3 33 1 40 20 5 13 6 27 3 33 -4 5 -6 26 -7 45 0 32 -3 35 -32 38
-23 2 -34 -2 -42 -15z m49 -18 c0 -8 -7 -15 -15 -15 -16 0 -20 12 -8 23 11 12
23 8 23 -8z m5 -65 c0 -22 -29 -18 -33 3 -3 14 1 18 15 15 10 -2 18 -10 18
-18z"/>
<path d="M6226 1634 c-3 -9 -6 -27 -6 -40 0 -21 3 -24 25 -18 18 4 27 1 31
-11 10 -25 -10 -39 -34 -24 -26 16 -40 5 -22 -16 8 -10 25 -15 44 -13 23 2 33
10 41 32 8 24 6 31 -14 47 -13 10 -27 16 -32 13 -5 -3 -9 0 -9 5 0 6 11 11 25
11 16 0 25 6 25 15 0 21 -66 21 -74 -1z"/>
<path d="M8230 1595 c0 -25 5 -45 10 -45 6 0 10 20 10 45 0 25 -4 45 -10 45
-5 0 -10 -20 -10 -45z"/>
<path d="M8277 1633 c-4 -3 -7 -24 -7 -45 0 -27 4 -38 15 -38 10 0 15 10 15
30 0 18 6 33 15 36 8 4 15 10 15 15 0 10 -43 12 -53 2z"/>
<path d="M8347 1634 c-14 -15 -6 -34 21 -49 l27 -16 -28 6 c-21 4 -28 2 -25
-7 6 -18 46 -22 64 -8 21 19 17 29 -18 46 -32 14 -32 15 -5 9 21 -4 28 -2 25
7 -5 14 -50 23 -61 12z"/>
<path d="M8442 1628 c-28 -28 -7 -78 33 -78 27 0 45 18 45 45 0 27 -18 45 -45
45 -12 0 -26 -5 -33 -12z m52 -24 c8 -20 -1 -34 -20 -34 -8 0 -14 10 -14 25 0
28 24 34 34 9z"/>
<path d="M8548 1595 c9 -25 22 -45 28 -45 10 0 44 67 44 85 0 17 -22 0 -31
-22 l-11 -28 -10 28 c-5 15 -16 27 -23 27 -11 0 -11 -8 3 -45z"/>
<path d="M8647 1634 c-14 -14 -7 -25 13 -19 29 9 24 -4 -6 -15 -39 -15 -28
-44 19 -48 l38 -3 -3 43 c-3 38 -6 43 -28 46 -14 2 -29 0 -33 -4z m33 -54 c0
-5 -7 -10 -16 -10 -8 0 -12 5 -9 10 3 6 10 10 16 10 5 0 9 -4 9 -10z"/>
<path d="M4853 1553 c-26 -17 -32 -46 -8 -37 12 5 15 -3 15 -40 0 -34 4 -46
15 -46 12 0 15 14 15 70 0 39 -3 70 -7 69 -5 0 -18 -7 -30 -16z"/>
<path d="M4940 1544 c-13 -33 -13 -70 0 -95 12 -21 50 -25 68 -7 16 16 16 100
0 116 -21 21 -58 14 -68 -14z m50 -45 c0 -36 -4 -49 -12 -47 -14 5 -23 61 -14
84 12 31 26 11 26 -37z"/>
<path d="M6620 1432 c0 -54 12 -72 50 -72 38 0 50 18 50 72 0 36 -4 48 -15 48
-11 0 -15 -12 -15 -51 0 -43 -3 -50 -17 -47 -14 2 -19 15 -21 51 -2 33 -7 47
-18 47 -10 0 -14 -13 -14 -48z"/>
<path d="M6900 1470 c0 -5 5 -10 10 -10 6 0 10 5 10 10 0 6 -4 10 -10 10 -5 0
-10 -4 -10 -10z"/>
<path d="M7230 1470 c0 -5 7 -10 15 -10 8 0 15 5 15 10 0 6 -7 10 -15 10 -8 0
-15 -4 -15 -10z"/>
<path d="M6740 1404 c0 -32 4 -44 15 -44 10 0 15 11 15 35 0 33 2 35 36 35
l35 0 -20 -26 c-29 -37 -27 -44 19 -44 42 0 56 16 19 22 l-21 3 21 27 c12 14
21 29 21 32 0 4 -31 6 -70 5 l-70 -2 0 -43z"/>
<path d="M6900 1405 c0 -25 5 -45 10 -45 6 0 10 20 10 45 0 25 -4 45 -10 45
-5 0 -10 -20 -10 -45z"/>
<path d="M6951 1436 c-7 -8 -11 -27 -9 -43 3 -25 7 -28 37 -28 19 0 36 6 39
13 3 9 -5 12 -24 10 -23 -2 -29 1 -29 17 0 16 6 19 29 17 26 -3 28 -1 17 12
-17 20 -45 21 -60 2z"/>
<path d="M7042 1438 c-16 -16 -15 -53 2 -68 17 -13 63 -10 57 5 -2 6 -12 9
-23 7 -10 -2 -18 2 -18 7 0 6 11 11 25 11 14 0 25 6 25 13 0 18 -21 37 -40 37
-9 0 -21 -5 -28 -12z m43 -18 c3 -5 -1 -10 -9 -10 -9 0 -16 5 -16 10 0 6 4 10
9 10 6 0 13 -4 16 -10z"/>
<path d="M7130 1404 c0 -24 5 -44 10 -44 6 0 10 13 10 29 0 17 5 33 11 37 14
8 29 -14 29 -43 0 -13 5 -23 11 -23 6 0 9 17 7 43 -3 41 -4 42 -40 44 l-38 1
0 -44z"/>
<path d="M7230 1405 c0 -33 4 -45 15 -45 11 0 15 12 15 45 0 33 -4 45 -15 45
-11 0 -15 -12 -15 -45z"/>
<path d="M8279 1284 c-9 -11 -10 -20 -2 -32 7 -12 7 -22 -1 -34 -16 -26 4 -53
39 -53 35 0 55 27 39 52 -8 13 -8 23 -1 35 24 37 -45 67 -74 32z m51 -19 c0
-8 -7 -15 -15 -15 -8 0 -15 7 -15 15 0 8 7 15 15 15 8 0 15 -7 15 -15z m0 -65
c0 -11 -7 -20 -15 -20 -8 0 -15 9 -15 20 0 11 7 20 15 20 8 0 15 -9 15 -20z"/>
<path d="M8390 1281 c-5 -11 -10 -34 -10 -51 0 -43 17 -70 43 -70 31 0 47 18
47 52 0 24 -5 30 -30 35 -31 6 -38 17 -20 28 6 4 17 2 24 -4 16 -13 27 -4 19
15 -8 21 -60 17 -73 -5z m57 -67 c1 -5 -2 -16 -7 -24 -12 -20 -35 2 -26 25 6
17 27 16 33 -1z"/>
<path d="M1702 1218 c3 -7 16 -14 31 -16 25 -3 26 -5 13 -25 -8 -12 -17 -37
-21 -54 -5 -26 -3 -33 9 -33 9 0 16 8 16 18 0 10 11 41 25 68 14 27 25 50 25
52 0 1 -23 2 -51 2 -36 0 -49 -4 -47 -12z"/>
<path d="M1826 1214 c-3 -9 -6 -27 -6 -40 0 -21 3 -24 25 -18 18 4 27 1 31
-11 10 -25 -10 -39 -34 -24 -26 16 -40 5 -22 -16 8 -10 25 -15 44 -13 23 2 33
10 41 32 8 24 6 31 -14 47 -13 10 -27 16 -32 13 -5 -3 -9 0 -9 5 0 6 11 11 25
11 16 0 25 6 25 15 0 21 -66 21 -74 -1z"/>
<path d="M3983 1191 c-29 -25 -31 -46 -3 -31 19 10 20 8 20 -40 0 -38 4 -50
15 -50 12 0 15 14 15 70 0 76 -7 84 -47 51z"/>
<path d="M4074 1195 c-8 -21 3 -32 18 -17 7 7 16 12 20 12 13 0 9 -28 -4 -34
-10 -3 -8 -9 5 -19 9 -8 17 -19 17 -25 0 -18 -20 -24 -36 -11 -18 14 -29 6
-20 -16 4 -11 16 -15 37 -13 37 4 56 27 44 54 -5 11 -9 33 -9 49 -1 26 -5 30
-34 33 -22 2 -34 -2 -38 -13z"/>
<path d="M4184 1196 c-3 -9 -3 -23 0 -32 3 -8 1 -24 -4 -35 -17 -31 5 -61 42
-57 36 3 55 27 43 54 -4 11 -8 33 -9 49 -1 26 -5 30 -34 33 -22 2 -34 -2 -38
-12z m54 -24 c2 -7 -3 -12 -12 -12 -9 0 -16 7 -16 16 0 17 22 14 28 -4z m2
-56 c0 -8 -5 -18 -11 -22 -14 -8 -33 11 -25 25 10 16 36 13 36 -3z"/>
<path d="M5800 1021 l0 -61 45 0 c33 0 47 5 54 19 6 10 7 21 3 25 -3 4 -6 21
-7 39 0 31 -1 32 -47 35 l-48 3 0 -60z m68 27 c-7 -19 -38 -22 -38 -4 0 10 9
16 21 16 12 0 19 -5 17 -12z m10 -50 c-7 -20 -48 -23 -48 -4 0 11 9 16 26 16
16 0 24 -5 22 -12z"/>
<path d="M6120 1020 c0 -47 3 -60 15 -60 10 0 15 11 15 35 0 24 5 35 15 35 10
0 15 -11 15 -35 0 -19 5 -35 11 -35 6 0 9 17 7 43 -2 35 -7 43 -25 45 -13 2
-23 10 -23 18 0 8 -7 14 -15 14 -12 0 -15 -13 -15 -60z"/>
<path d="M6583 1065 c-5 -11 -8 -39 -5 -62 3 -34 8 -43 23 -43 10 0 19 5 19
10 0 6 -4 10 -10 10 -15 0 -12 47 3 53 8 4 9 8 1 14 -6 4 -13 15 -16 23 -4 12
-7 11 -15 -5z"/>
<path d="M5925 1039 c-4 -6 -4 -26 -1 -45 7 -32 9 -34 46 -34 l40 0 0 45 c0
33 -4 45 -15 45 -10 0 -15 -11 -15 -35 0 -24 -5 -35 -15 -35 -10 0 -15 11 -15
35 0 34 -12 46 -25 24z"/>
<path d="M6030 1029 c-27 -49 36 -95 71 -53 12 15 10 16 -19 10 -30 -7 -32 -6
-32 19 0 24 3 26 26 21 19 -5 25 -3 22 6 -8 23 -55 21 -68 -3z"/>
<path d="M6237 1044 c-14 -14 -7 -25 13 -19 29 9 24 -4 -6 -15 -39 -15 -28
-44 19 -48 l38 -3 -3 43 c-3 38 -6 43 -28 46 -14 2 -29 0 -33 -4z m33 -54 c0
-5 -7 -10 -16 -10 -8 0 -12 5 -9 10 3 6 10 10 16 10 5 0 9 -4 9 -10z"/>
<path d="M6320 1003 c0 -32 4 -43 15 -43 10 0 15 11 15 35 0 24 5 35 15 35 8
0 15 4 15 9 0 5 -13 9 -30 9 -29 -1 -30 -3 -30 -45z"/>
<path d="M6392 1038 c-16 -16 -15 -53 2 -68 17 -13 63 -10 57 5 -2 6 -12 9
-23 7 -10 -2 -18 2 -18 7 0 6 11 11 25 11 14 0 25 6 25 13 0 18 -21 37 -40 37
-9 0 -21 -5 -28 -12z m43 -18 c3 -5 -1 -10 -9 -10 -9 0 -16 5 -16 10 0 6 4 10
9 10 6 0 13 -4 16 -10z"/>
<path d="M6487 1044 c-14 -15 -6 -34 21 -49 l27 -16 -28 6 c-21 4 -28 2 -25
-7 6 -18 46 -22 64 -8 21 19 17 29 -18 46 -32 14 -32 15 -5 9 21 -4 28 -2 25
7 -5 14 -50 23 -61 12z"/>
<path d="M1110 780 l0 -60 39 0 c45 0 64 18 63 61 -1 43 -18 59 -63 59 l-39 0
0 -60z m75 20 c9 -30 -4 -60 -26 -60 -16 0 -19 7 -19 40 0 33 3 40 19 40 11 0
23 -9 26 -20z"/>
<path d="M1340 781 l0 -59 38 1 c36 2 37 3 37 42 0 37 -2 40 -27 40 -20 -1
-28 4 -28 17 0 10 -4 18 -10 18 -6 0 -10 -26 -10 -59z m58 -19 c2 -14 -2 -22
-12 -22 -19 0 -29 17 -22 36 8 22 30 12 34 -14z"/>
<path d="M1597 817 c-9 -23 8 -92 23 -95 12 -2 15 7 14 45 -1 26 -3 51 -3 56
-2 12 -29 8 -34 -6z"/>
<path d="M1242 798 c-28 -28 -7 -78 33 -78 12 0 26 5 33 12 7 7 12 21 12 33 0
12 -5 26 -12 33 -7 7 -21 12 -33 12 -12 0 -26 -5 -33 -12z m52 -24 c8 -20 -1
-34 -20 -34 -8 0 -14 10 -14 25 0 28 24 34 34 9z"/>
<path d="M1440 763 c0 -32 4 -43 15 -43 10 0 15 11 15 35 0 24 5 35 15 35 8 0
15 4 15 9 0 5 -13 9 -30 9 -29 -1 -30 -3 -30 -45z"/>
<path d="M1508 784 c-9 -18 -9 -30 -1 -42 12 -20 64 -23 71 -4 3 9 -3 11 -22
6 -16 -4 -26 -2 -26 5 0 6 11 11 25 11 29 0 36 34 9 44 -29 11 -44 6 -56 -20z
m52 -4 c0 -5 -7 -10 -15 -10 -8 0 -15 5 -15 10 0 6 7 10 15 10 8 0 15 -4 15
-10z"/>
<path d="M1667 804 c-15 -16 -6 -24 19 -18 19 5 25 4 20 -5 -4 -6 -15 -11 -26
-11 -19 0 -34 -25 -24 -41 3 -5 21 -9 40 -9 35 0 35 0 32 43 -3 37 -6 42 -28
45 -14 2 -29 0 -33 -4z m43 -54 c0 -5 -7 -10 -15 -10 -8 0 -15 5 -15 10 0 6 7
10 15 10 8 0 15 -4 15 -10z"/>
<path d="M5629 749 c-16 -31 3 -69 36 -69 25 0 33 -14 15 -25 -6 -4 -17 -2
-25 5 -15 12 -31 -3 -20 -20 12 -19 54 -10 71 15 19 29 14 93 -8 107 -24 15
-57 8 -69 -13z m55 -16 c9 -22 -10 -41 -25 -26 -13 13 -5 43 10 43 5 0 12 -8
15 -17z"/>
<path d="M5750 755 c-7 -8 -13 -33 -13 -55 0 -49 18 -72 52 -68 32 4 49 52 35
101 -7 24 -16 33 -35 35 -14 2 -31 -4 -39 -13z m45 -55 c0 -24 -5 -45 -11 -47
-15 -5 -26 40 -18 72 10 40 29 23 29 -25z"/>
<path d="M3500 544 c-8 -8 -13 -28 -13 -44 0 -16 5 -36 13 -44 16 -20 64 -21
80 -1 17 21 4 32 -20 17 -11 -7 -24 -12 -29 -12 -14 0 -23 37 -16 60 7 21 39
27 50 10 4 -6 11 -8 16 -4 17 10 -12 34 -41 34 -15 0 -33 -7 -40 -16z"/>
<path d="M3770 550 c0 -5 7 -10 15 -10 8 0 15 5 15 10 0 6 -7 10 -15 10 -8 0
-15 -4 -15 -10z"/>
<path d="M3610 483 c0 -32 4 -43 15 -43 10 0 15 11 15 35 0 24 5 35 15 35 8 0
15 4 15 9 0 5 -13 9 -30 9 -29 -1 -30 -3 -30 -45z"/>
<path d="M3687 524 c-15 -16 -6 -24 19 -18 19 5 25 4 20 -5 -4 -6 -15 -11 -26
-11 -19 0 -34 -25 -24 -41 3 -5 21 -9 40 -9 35 0 35 0 32 43 -3 37 -6 42 -28
45 -14 2 -29 0 -33 -4z m43 -54 c0 -5 -7 -10 -15 -10 -8 0 -15 5 -15 10 0 6 7
10 15 10 8 0 15 -4 15 -10z"/>
<path d="M3770 485 c0 -33 4 -45 15 -45 11 0 15 12 15 45 0 33 -4 45 -15 45
-11 0 -15 -12 -15 -45z"/>
<path d="M3826 514 c-19 -18 -20 -28 -6 -55 11 -19 45 -25 66 -11 19 13 23 39
8 61 -18 25 -46 27 -68 5z m49 -30 c0 -10 -8 -20 -17 -22 -18 -3 -26 27 -11
42 12 11 28 0 28 -20z"/>
<path d="M3928 485 c9 -25 22 -45 28 -45 10 0 44 67 44 85 0 17 -22 0 -31 -22
l-11 -28 -10 28 c-5 15 -16 27 -23 27 -11 0 -11 -8 3 -45z"/>
<path d="M4027 524 c-15 -16 -6 -24 19 -18 19 5 25 4 20 -5 -4 -6 -15 -11 -26
-11 -19 0 -34 -25 -24 -41 3 -5 21 -9 40 -9 35 0 35 0 32 43 -3 37 -6 42 -28
45 -14 2 -29 0 -33 -4z m43 -54 c0 -5 -7 -10 -15 -10 -8 0 -15 5 -15 10 0 6 7
10 15 10 8 0 15 -4 15 -10z"/>
<path d="M8250 450 l0 -60 45 0 c51 0 62 17 13 22 -42 4 -50 28 -9 28 41 0 49
18 9 22 -46 4 -49 28 -4 28 20 0 36 5 36 10 0 6 -20 10 -45 10 l-45 0 0 -60z"/>
<path d="M8364 493 c-15 -25 -6 -103 12 -103 9 0 14 12 14 34 0 19 6 37 13 39
9 4 8 8 -3 16 -10 7 -11 11 -2 11 6 0 12 5 12 10 0 17 -35 11 -46 -7z"/>
<path d="M8590 500 c0 -5 5 -10 10 -10 6 0 10 5 10 10 0 6 -4 10 -10 10 -5 0
-10 -4 -10 -10z"/>
<path d="M8426 464 c-19 -18 -20 -28 -6 -55 11 -19 45 -25 66 -11 19 13 23 39
8 61 -18 25 -46 27 -68 5z m49 -30 c0 -10 -8 -20 -17 -22 -18 -3 -26 27 -11
42 12 11 28 0 28 -20z"/>
<path d="M8520 433 c0 -32 4 -43 15 -43 10 0 15 11 15 35 0 24 5 35 15 35 8 0
15 4 15 9 0 5 -13 9 -30 9 -29 -1 -30 -3 -30 -45z"/>
<path d="M8590 435 c0 -25 5 -45 10 -45 6 0 10 20 10 45 0 25 -4 45 -10 45 -5
0 -10 -20 -10 -45z"/>
<path d="M8642 468 c-16 -16 -15 -53 2 -68 17 -13 63 -10 57 5 -2 6 -12 9 -23
7 -10 -2 -18 2 -18 7 0 6 11 11 25 11 14 0 25 6 25 13 0 18 -21 37 -40 37 -9
0 -21 -5 -28 -12z m43 -18 c3 -5 -1 -10 -9 -10 -9 0 -16 5 -16 10 0 6 4 10 9
10 6 0 13 -4 16 -10z"/>
<path d="M5526 358 c-32 -45 -6 -98 48 -98 36 0 56 15 56 42 0 22 -23 33 -47
23 -17 -6 -17 -7 1 -20 17 -13 17 -15 3 -21 -29 -11 -47 3 -47 36 0 35 23 49
51 32 11 -7 20 -8 24 -2 22 35 -65 43 -89 8z"/>
<path d="M5650 370 c0 -5 5 -10 10 -10 6 0 10 5 10 10 0 6 -4 10 -10 10 -5 0
-10 -4 -10 -10z"/>
<path d="M5970 370 c0 -5 5 -10 10 -10 6 0 10 5 10 10 0 6 -4 10 -10 10 -5 0
-10 -4 -10 -10z"/>
<path d="M5650 305 c0 -25 5 -45 10 -45 6 0 10 20 10 45 0 25 -4 45 -10 45 -5
0 -10 -20 -10 -45z"/>
<path d="M5695 339 c-4 -6 -4 -26 -1 -45 7 -32 9 -34 46 -34 l40 0 0 45 c0 33
-4 45 -15 45 -10 0 -15 -11 -15 -35 0 -24 -5 -35 -15 -35 -10 0 -15 11 -15 35
0 34 -12 46 -25 24z"/>
<path d="M5800 304 c0 -24 5 -44 10 -44 6 0 10 14 10 30 0 18 6 33 15 36 23 9
18 22 -10 22 -23 0 -25 -4 -25 -44z"/>
<path d="M5871 337 c-28 -28 0 -86 35 -73 10 4 14 1 11 -6 -2 -8 -16 -12 -33
-10 -28 2 -28 2 -10 -13 43 -33 76 -5 76 65 0 48 0 48 -34 48 -19 0 -39 -5
-45 -11z m49 -32 c0 -16 -6 -25 -15 -25 -9 0 -15 9 -15 25 0 16 6 25 15 25 9
0 15 -9 15 -25z"/>
<path d="M5970 305 c0 -25 5 -45 10 -45 6 0 10 20 10 45 0 25 -4 45 -10 45 -5
0 -10 -20 -10 -45z"/>
<path d="M6015 339 c-4 -6 -4 -26 -1 -45 7 -32 9 -34 46 -34 l40 0 0 45 c0 33
-4 45 -15 45 -10 0 -15 -11 -15 -35 0 -24 -5 -35 -15 -35 -10 0 -15 11 -15 35
0 34 -12 46 -25 24z"/>
</g>
</svg>
