<svg version="1.0" width="1189.333" height="784" viewBox="0 0 892 588" xmlns="http://www.w3.org/2000/svg"><path d="M129 67.8v7.9l-13.7 24.1-13.7 24.1-4.5.3-4.6.3-.1 9.5-.1 9.5-9.8 22.8-9.9 22.7H64v17h2.9c2.9 0 3 .1 3.5 6.2.3 3.5.8 14.2 1.1 23.9l.5 17.5-3.4-.4c-2.6-.3-3.7.1-4.4 1.5-.6 1.1-.7 2.5-.2 3.3.5.8.3 2.1-.3 3.2-1.8 2.8.3 5.3 4.6 5.3 3.4 0 3.6.2 4.1 3.5.3 1.9.8 14.4 1.2 27.7l.6 24.3H69v18h8.5c7.1 0 8.5-.3 8.5-1.6 0-.9.4-1.4.8-1.2.5.1 12 5 25.5 10.7 21.6 9 27.6 12.1 23.7 12.1-.5 0-1 .7-1 1.5 0 1.3.4 1.4 2 .5 1.9-1 2-.8 2 4 0 3.8.4 5 1.5 5s1.5-1.2 1.5-5c0-2.8.4-5 .9-5 .4 0 9.8 3.8 20.7 8.4l19.9 8.3.3 6.7.3 6.6h6.6l1.2 16.2c.6 9 1.4 19.6 1.8 23.5l.6 7.3H189v8.5c0 8.4 0 8.5 2.5 8.5 3 0 3-1 1 23.5-.8 9.9-1.5 19.2-1.5 20.7 0 2.3-.5 2.7-3.2 3l-3.3.3v17l8.8.3 8.7.3v-2.6c0-2.5.2-2.6 4.3-2 2.3.3 28.3 3 57.7 6 29.4 3 55.6 5.7 58.3 6.1l4.7.6V539h17v-11.5l48.6-59.3 48.6-59.2H456v-3c0-1.7.2-3 .5-3 1.5 0 52.5 27.3 52.5 28.1 0 .4-.9 1.3-2 1.9-2.3 1.2-2.8 4.2-.5 3.4 1.2-.5 1.5.3 1.5 4 0 3.4.4 4.6 1.5 4.6 1.2 0 1.5-1.4 1.5-6.5 0-3.6.3-6.5.8-6.5.4 0 13.1 6.5 28.2 14.4l27.5 14.4.3 6.6c.3 6.6.3 6.6 3.2 6.6 1.7 0 3 .2 3 .5s-8.3 17.2-18.5 37.5L537 549h-11v17h17v-8.5c0-7.8-.2-8.5-2-8.5-1.7 0 .8-5.6 16.7-37.5l18.8-37.5h8.4l.3-6.2.3-6.2 37-13.6c26.5-9.8 37.1-13.3 37.3-12.3.3.9 2.6 1.3 8.8 1.3 8.3 0 8.4 0 8.4-2.5V432h108v2.5c0 2.4.3 2.5 5.4 2.5h5.4l19 37.2c14 27.3 18.7 37.4 17.6 37.6-1.2.3-1.4 2-1.2 9l.3 8.7h17v-17l-6.3-.5-6.3-.5-19-36.8c-10.4-20.3-18.9-37.1-18.9-37.3 0-.2.9-.4 2-.4 1.8 0 2-.7 2-8.5V420h-17v10H677.2l-.4-5.8-.4-5.7 38.1-67.7 38-67.8h9.5v-17h-8.7l-26.7-41C712 202.5 700 183.8 700 183.5c0-.3.9-.5 2-.5 1.9 0 2-.7 2-9v-9h-8.4c-6.4 0-8.5.3-8.8 1.4-.2 1-13.1-4.1-46.5-18.6l-46.3-20V115h-17v18h8.5c6.9 0 8.5-.3 8.5-1.5 0-.8.3-1.5.8-1.4.4 0 21.2 8.9 46.2 19.8l45.5 19.7.3 6.7.3 6.7h5.2l5.2.1 26.7 41.2c26.7 41.2 26.7 41.2 23.8 41.5l-3 .3v8.5c0 8.3 0 8.4 2.5 8.4 1.4 0 2.5.3 2.5.6s-17.2 31.1-38.2 68.5L673.5 420H660v12.5l-37.3 13.6c-27.5 10.1-37.3 13.3-37.5 12.3-.2-1-2-1.4-5.7-1.4h-5.4l-71.6-90.7c-39.4-49.9-71.2-90.9-70.6-91.1.7-.2 1.1-3.6 1.1-8.8V258h-9c-8.9 0-9 0-9 2.5 0 1.4-.6 2.5-1.2 2.5-.7 0-32.1-1.8-69.8-4-37.7-2.2-69.5-4-70.7-4-2.1 0-2.3-.5-2.3-5v-5h-13.7l-55.6-83.5L146 78V60h-17zm14 .2v5h-11V63h11zm56 92.5c49 73.7 56.4 85.4 54.6 87.2-.1.1-38.6-11.4-85.6-25.5l-85.5-25.7-.3-3.8c-.3-3.5-.5-3.7-3.8-3.7-1.9 0-3.4-.3-3.4-.6s4.6-11.1 10.1-24L95.3 141H110v-17h-3c-1.6 0-3-.2-3-.5s5.9-10.9 13.1-23.5l13.2-23h6.6l6.6.1zM590 124v5h-10v-10h10zm-484 9v5H96v-10h10zm595 41v5h-10v-10h10zM78 198v5H68v-10h10zm93 26.9 82.5 24.8.3 6.1.3 6.2h11.7l16.6 29.7c14.4 26 16.3 29.8 14.5 30.1-1.8.3-2 1-1.7 9l.3 8.7 5.2.3c4.7.3 5.2.5 5.7 3 .3 1.5 6 40.9 12.6 87.7 6.6 46.7 12.3 86.5 12.6 88.2.4 3 .3 3.3-2.1 3.3-1.8 0-2.5.5-2.5 2 0 1.4-.7 2-2.2 2-1.3-.1-29.3-2.9-62.3-6.3l-60-6.2-.5-5.5-.5-5.5-4.5-.3-4.5-.3 1.7-22.2c.9-12.2 1.7-22.8 1.7-23.5.1-.8 1.9-1.2 5.6-1.2h5.5v-17h-10.9l-.5-5.3c-.3-2.8-1.1-12.2-1.6-20.7-.6-8.5-1.3-16.7-1.5-18.3-.4-2.6-.3-2.7 4.5-2.7h5v-17h-8.9c-4.9 0-9.1.4-9.3.9-.3 1.1-41.1-15.6-41.6-17-.2-.5-1.1-.9-2-.9-1 0-13.4-4.9-27.7-10.9l-26-10.9-.3-6.6-.3-6.6H81c-4.5 0-5-.2-5-2.3 0-1.2-.9-26.5-2-56.2-1.1-29.7-2-54.8-2-55.8 0-1.4.9-1.7 5-1.7h5v-7.8l3.3.9c1.7.5 40.3 12.1 85.7 25.8zm97 28.1v5h-11v-10h11zm-199 3.5c0 .8-.7 1.5-1.5 1.5-1.6 0-2-1.2-.8-2.3 1.1-1.2 2.3-.8 2.3.8zm273 4c34.4 1.9 64.9 3.8 67.8 4.1l5.2.5v9.9h6.3c3.7 0 6.8.5 7.6 1.2 2 2 141.6 178.8 141.9 179.9.2.5-.3.9-1.1.9-.9 0-1.7.4-1.9 1-.1.5-25.4-12.2-56-28.3l-55.7-29.2-.3-4-.3-4-8.7-.3c-7.8-.2-8.7-.1-9 1.6-.3 1.6-8.9-2.2-61.3-27.4-33.5-16.1-61.8-29.8-62.7-30.4-1.4-.8-1.8-2.4-1.8-7.5v-6.4l-5.6-.3-5.6-.3-16.4-29.5c-11.8-21.3-15.9-29.6-14.9-29.8.8-.2 1.5-1.4 1.5-2.8 0-3.1-4.7-3.2 71 1.1zM69.5 263c0 2.2-2.9 1.8-3.3-.3-.3-1.4.1-1.8 1.5-1.5 1 .2 1.8 1 1.8 1.8zm359.5 4v5h-10v-10h10zm329.8 7.7.3 5.3H749v-11.1l4.8.3 4.7.3zM83 331v5H72v-10h11zm226 0v5h-10v-10h10zm66.6 36.8 61.9 29.8v13.2L391 467.5c-25.5 31.2-46.6 56.2-46.8 55.6-.2-.6-2.6-1.1-5.3-1.1-4.2 0-4.9-.3-5.4-2.3-.5-2.3-25.5-177.6-25.5-179 0-.4.9-.7 2-.7s2-.5 2-1c0-.6.4-1 .8-1 .5 0 28.7 13.4 62.8 29.8zM198 382v5h-10v-10h10zm254 19v5h-10v-10h10zm221.8 27.7.3 5.3H664v-11.1l4.8.3 4.7.3zm124.2-.2v5.5h-10v-4.8c0-2.7.3-5.2.7-5.5.3-.4 2.6-.7 5-.7h4.3zM203 446v5h-10v-10h10zm378 19v5h-10v-10h10zm-383 46v5h-10v-10h10zm647 10v5h-10v-10h10zm-504 9v5h-10v-10h10zm198 28v5h-10v-10h10z"/><path d="M118 135c0 .5 1.2 1 2.6 1h2.6l-3.1 3.9c-1.7 2.1-3.1 4.4-3.1 5 0 .7 2 1.1 5 1.1 2.8 0 5-.5 5-1 0-.6-1.6-1-3.6-1h-3.5l3.5-4.4c2-2.3 3.6-4.6 3.6-5 0-.3-2-.6-4.5-.6s-4.5.4-4.5 1zM144 135c0 .5.7 1 1.5 1s1.5-.5 1.5-1c0-.6-.7-1-1.5-1s-1.5.4-1.5 1zM165 135.9c0 1.4-.5 1.8-1.8 1.4-2.5-.6-4.4 2-4 5.4.3 2.4.8 2.8 4.1 3.1l3.7.3v-6c0-3.4-.4-6.1-1-6.1-.5 0-1 .9-1 1.9zm-.3 4.7c.8 2.1-1.3 4.2-2.8 2.7-1.3-1.3-.5-4.3 1.1-4.3.6 0 1.3.7 1.7 1.6zM129.1 138.4c-.7.8-1.1 2.7-.9 4.3.2 2.4.8 2.8 3.2 2.8 1.6 0 3.1-.6 3.4-1.3.3-.9-.3-1.1-2.2-.6-1.6.4-2.6.2-2.6-.5 0-.6 1.4-1.1 3-1.1 3.3 0 3.5-.3 2-3.1-1.3-2.2-4.3-2.5-5.9-.5zm3.9 1.6c0 .5-.7 1-1.6 1-.8 0-1.2-.5-.9-1 .3-.6 1-1 1.6-1 .5 0 .9.4.9 1zM137.7 137.7c-.4.3-.7 2.4-.7 4.5 0 2.7.4 3.8 1.5 3.8 1 0 1.5-1 1.5-3 0-1.8.6-3.3 1.5-3.6.8-.4 1.5-1 1.5-1.5 0-1-4.3-1.2-5.3-.2zM144 141.5c0 3.3.4 4.5 1.5 4.5s1.5-1.2 1.5-4.5-.4-4.5-1.5-4.5-1.5 1.2-1.5 4.5zM149 141.6c0 2.4.5 4.4 1 4.4.6 0 1-1.3 1-2.9 0-1.7.5-3.3 1.1-3.7 1.4-.8 2.9 1.4 2.9 4.3 0 1.3.5 2.3 1.1 2.3.6 0 .9-1.7.7-4.3-.3-4.1-.4-4.2-4-4.4l-3.8-.1zM157.3 194.7c-2.6 1.7-3.2 4.6-.8 3.7 1.2-.5 1.5.3 1.5 4 0 3.4.4 4.6 1.5 4.6 1.2 0 1.5-1.4 1.5-7 0-3.9-.3-7-.7-6.9-.5 0-1.8.7-3 1.6zM167.8 197.4c-3.4 5.3-3.5 6.6-.3 6.6 1.6 0 2.5.6 2.5 1.5 0 .8.7 1.5 1.5 1.5s1.5-.6 1.5-1.4c0-.8.6-1.7 1.3-2 1-.5 1-.7 0-1.2-.8-.3-1.3-2.4-1.3-5 0-5.7-1.7-5.7-5.2 0zm1.8 4.3c-1 1-1.9-.5-1-1.8.6-1.1.8-1.1 1.2 0 .2.7.1 1.5-.2 1.8zM177 195.6c-2.2 5.7-.5 11.4 3.3 11.4 3.4 0 4.7-1.9 4.7-7s-1.3-7-4.7-7c-1.6 0-2.7.8-3.3 2.6zm5 4.5c0 3.6-.4 4.9-1.2 4.7-1.4-.5-2.3-6.1-1.4-8.4 1.2-3.1 2.6-1.1 2.6 3.7zM90 316c0 .5.9 1 2 1 1.7 0 2 .7 2 5 0 2.7.5 5 1 5 .6 0 1-2.3 1-5 0-4.3.3-5 2-5 1.1 0 2-.5 2-1 0-.6-2.2-1-5-1-2.7 0-5 .4-5 1zM101 316c0 .5.7 1 1.5 1s1.5-.5 1.5-1c0-.6-.7-1-1.5-1s-1.5.4-1.5 1zM121 316c0 .5.5 1 1 1 .6 0 1-.5 1-1 0-.6-.4-1-1-1-.5 0-1 .4-1 1zM101 322.5c0 3.3.4 4.5 1.5 4.5s1.5-1.2 1.5-4.5-.4-4.5-1.5-4.5-1.5 1.2-1.5 4.5zM106 322.7c0 5 1.7 5.9 2.2 1.1.4-4.6 2.8-4.9 2.8-.4 0 2 .5 3.6 1 3.6.6 0 1-.9 1-1.9 0-2.6 1-5.1 2.1-5.1.5 0 .9 1.6.9 3.5 0 2.4.5 3.5 1.5 3.5s1.5-1 1.5-3.3c0-4.8-.9-5.4-7.2-5.4H106zM121 322.5c0 2.5.5 4.5 1 4.5.6 0 1-2 1-4.5s-.4-4.5-1-4.5c-.5 0-1 2-1 4.5zM125.7 318.6c-1.5 1.6-.5 3.6 2.6 5l3.2 1.5-3.3-.5c-2.4-.4-3.2-.2-2.9.7.2.6 1.9 1.2 3.8 1.2 4.8 0 5.2-3 .7-5.1-3.1-1.4-3.1-1.5-.5-.9 2.1.4 2.8.2 2.5-.7-.5-1.4-5-2.3-6.1-1.2zM135.6 319.6c-1.9 1.8-2 2.8-.6 5.5 1.1 1.9 4.5 2.5 6.6 1.1 1.9-1.3 2.3-3.9.8-6.1-1.8-2.5-4.6-2.7-6.8-.5zm4.9 3c0 1-.8 2-1.7 2.2-1.8.3-2.6-2.7-1.1-4.2 1.2-1.1 2.8 0 2.8 2zM146.7 318.6c-1.4 1.4-.7 2.5 1.3 1.9 2.9-.9 2.4.4-.6 1.5-3.9 1.5-2.8 4.4 1.9 4.8l3.8.3-.3-4.3c-.3-3.8-.6-4.3-2.8-4.6-1.4-.2-2.9 0-3.3.4zm3.3 5.4c0 .5-.7 1-1.6 1-.8 0-1.2-.5-.9-1 .3-.6 1-1 1.6-1 .5 0 .9.4.9 1zM155 322.6c0 2.4.5 4.4 1 4.4.6 0 1-1.4 1-3 0-1.8.6-3.3 1.5-3.6 2.3-.9 1.8-2.2-1-2.2-2.3 0-2.5.4-2.5 4.4zM162.7 318.6c-1.4 1.4-.7 2.5 1.3 1.9 2.9-.9 2.4.4-.6 1.5-3.9 1.5-2.8 4.4 1.9 4.8l3.8.3-.3-4.3c-.3-3.8-.6-4.3-2.8-4.6-1.4-.2-2.9 0-3.3.4zm3.3 5.4c0 .5-.7 1-1.6 1-.8 0-1.2-.5-.9-1 .3-.6 1-1 1.6-1 .5 0 .9.4.9 1zM211 381v6h4.5c2.5 0 4.5-.5 4.5-1 0-.6-1.3-1-3-1-2.9 0-3-.1-3-5 0-3.8-.4-5-1.5-5-1.2 0-1.5 1.3-1.5 6zM252 376c0 .5.7 1 1.5 1s1.5-.5 1.5-1c0-.6-.7-1-1.5-1s-1.5.4-1.5 1zM221.2 382.2c.3 4.2.4 4.3 4.1 4.5l3.7.1v-4.4c0-5-1.7-6-2.2-1.2-.4 4.6-2.8 4.9-2.8.4 0-2.6-.4-3.6-1.6-3.6-1.2 0-1.4.9-1.2 4.2zM232.1 379.3c-2.8 2.8 0 8.6 3.5 7.3 1-.4 1.4-.1 1.1.6-.2.8-1.6 1.2-3.3 1-2.8-.2-2.8-.2-1 1.3 4.3 3.3 7.6.5 7.6-6.5 0-4.8 0-4.8-3.4-4.8-1.9 0-3.9.5-4.5 1.1zm4.9 3.2c0 1.6-.6 2.5-1.5 2.5s-1.5-.9-1.5-2.5.6-2.5 1.5-2.5 1.5.9 1.5 2.5zM242.6 379.6c-1.9 1.8-2 2.8-.6 5.5 1.1 1.9 4.5 2.5 6.6 1.1 1.9-1.3 2.3-3.9.8-6.1-1.8-2.5-4.6-2.7-6.8-.5zm4.9 3c0 1-.8 2-1.7 2.2-1.8.3-2.6-2.7-1.1-4.2 1.2-1.1 2.8 0 2.8 2zM252 382.8c0 2.6-.5 5.3-1.1 5.9-1.6 1.6.8 2.8 2.6 1.3 2.1-1.8 2.1-12 0-12-1.1 0-1.5 1.2-1.5 4.8zM215 445c0 4.7.3 6 1.5 6 .9 0 1.5-1 1.6-2.8l.1-2.7.7 2.5c1 3.6 3.3 3.1 4.5-1l1-3.5.4 3.7c.5 6.1 2.2 4.4 2.2-2.2 0-5.3-.2-6-1.9-6-1.3 0-2.1.9-2.6 3-.4 1.6-1 3-1.5 3-.4 0-1-1.4-1.3-3-.5-2.1-1.2-3-2.7-3-1.8 0-2 .6-2 6zM239 445c0 6.3 1.6 8.4 2.2 2.7.2-2 .8-3.2 1.8-3.2s1.6 1.2 1.8 3.2c.5 4.9 2.4 4 2-1-.3-3.9-.5-4.2-3-4.2-2 .1-2.8-.4-2.8-1.7 0-1-.4-1.8-1-1.8s-1 2.7-1 6zM264 440.5c0 .8-.8 1.5-1.8 1.5-2.4 0-4.2 1.9-4.2 4.5 0 3 1.9 4.5 5.7 4.5h3.3v-6c0-4.7-.3-6-1.5-6-.8 0-1.5.7-1.5 1.5zm0 6c0 1.6-.6 2.5-1.5 2.5s-1.5-.9-1.5-2.5.6-2.5 1.5-2.5 1.5.9 1.5 2.5zM269 440c0 .5.7 1 1.5 1s1.5-.5 1.5-1c0-.6-.7-1-1.5-1s-1.5.4-1.5 1zM230.2 443.2c-1.6 1.6-1.5 5.3.2 6.8 1.7 1.3 6.3 1 5.7-.5-.2-.6-1.2-.9-2.3-.7-1 .2-1.8-.2-1.8-.7 0-.6 1.1-1.1 2.5-1.1s2.5-.6 2.5-1.3c0-1.8-2.1-3.7-4-3.7-.9 0-2.1.5-2.8 1.2zm4.3 1.8c.3.5-.1 1-.9 1-.9 0-1.6-.5-1.6-1 0-.6.4-1 .9-1 .6 0 1.3.4 1.6 1zM249.7 442.7c-1.5 1.4-.6 2.3 1.8 1.7 1.4-.3 2.5-.3 2.5 0 0 .4-1.1 1.1-2.5 1.6-1.5.6-2.5 1.7-2.5 3 0 1.7.7 2 4 2 3.9 0 3.9 0 3.4-3.3-.3-1.7-.7-3.8-1-4.5-.4-1.3-4.6-1.7-5.7-.5zm4.3 5.3c0 .5-.7 1-1.6 1-.8 0-1.2-.5-.9-1 .3-.6 1-1 1.6-1 .5 0 .9.4.9 1zM269 446.5c0 3.3.4 4.5 1.5 4.5s1.5-1.2 1.5-4.5-.4-4.5-1.5-4.5-1.5 1.2-1.5 4.5zM274.7 442.6c-1.5 1.6-.6 2.4 1.9 1.8 1.9-.5 2.5-.4 2 .5-.4.6-1.5 1.1-2.6 1.1-1.9 0-3.4 2.5-2.4 4.1.3.5 2.1.9 4 .9 3.5 0 3.5 0 3.2-4.3-.3-3.7-.6-4.2-2.8-4.5-1.4-.2-2.9 0-3.3.4zm4.3 5.4c0 .5-.7 1-1.5 1s-1.5-.5-1.5-1c0-.6.7-1 1.5-1s1.5.4 1.5 1zM254.3 494.9c-2.9 2.5-3.1 4.6-.3 3.1 1.9-1 2-.8 2 4 0 3.8.4 5 1.5 5 1.2 0 1.5-1.4 1.5-7 0-7.6-.7-8.4-4.7-5.1zM263.3 494.5c-.8 2.2.4 3 2.1 1.6 1.5-1.3 3.6-.7 3.6.9 0 .5-1.6 2.6-3.5 4.7s-3.5 4.1-3.5 4.5c0 .5 2.3.8 5.1.8 3.6 0 4.9-.4 4.7-1.3-.3-.6-1.4-1.3-2.7-1.5l-2.2-.3 2.6-3c2.8-3.4 3.1-4.9 1.3-6.7-1.7-1.7-6.7-1.5-7.5.3zM275 494.5c-.7.8-1.3 3.3-1.3 5.5 0 4.9 1.8 7.2 5.2 6.8 3.2-.4 4.9-5.2 3.5-10.1-.7-2.4-1.6-3.3-3.5-3.5-1.4-.2-3.1.4-3.9 1.3zm4.5 5.5c0 2.4-.5 4.5-1.1 4.7-1.5.5-2.6-4-1.8-7.2 1-4 2.9-2.3 2.9 2.5zM293.4 277.4c-.3.9-.3 2.3 0 3.2.3.8.1 2.4-.4 3.5-1.7 3.1.5 6.1 4.2 5.7 3.6-.3 5.5-2.7 4.3-5.4-.4-1.1-.8-3.3-.9-4.9-.1-2.6-.5-3-3.4-3.3-2.2-.2-3.4.2-3.8 1.2zm5.4 2.4c.2.7-.3 1.2-1.2 1.2-.9 0-1.6-.7-1.6-1.6 0-1.7 2.2-1.4 2.8.4zm.2 5.6c0 2-1.9 3.1-3.2 1.8-.6-.6-.7-1.5-.4-2.1 1-1.6 3.6-1.3 3.6.3zM305 277.5c-.7.8-1.3 3.3-1.3 5.5 0 4.9 1.8 7.2 5.2 6.8 3.2-.4 4.9-5.2 3.5-10.1-.7-2.4-1.6-3.3-3.5-3.5-1.4-.2-3.1.4-3.9 1.3zm4.5 5.5c0 4.8-1.9 6.5-2.9 2.5-.8-3.2.3-7.7 1.8-7.2.6.2 1.1 2.3 1.1 4.7zM316 312c0 3.3.4 6 1 6s1-1.1 1-2.5c0-1.5.6-2.5 1.4-2.5.7 0 2.1 1.1 3 2.5.9 1.4 2.3 2.5 3.1 2.5 1.4 0 1.3-.3 0-2.4-1.3-2-1.4-2.8-.4-4.4 2.1-3.4.5-5.2-4.6-5.2H316zm7-2.5c0 .9-.9 1.5-2.5 1.5s-2.5-.6-2.5-1.5.9-1.5 2.5-1.5 2.5.6 2.5 1.5zM328 307c0 .5.7 1 1.5 1s1.5-.5 1.5-1c0-.6-.7-1-1.5-1s-1.5.4-1.5 1zM358 307c0 .5.7 1 1.5 1s1.5-.5 1.5-1c0-.6-.7-1-1.5-1s-1.5.4-1.5 1zM387 306.6c0 .4.8 3.1 1.7 6.1 2.3 7.2 4.2 7 6.9-.7 1.9-5.3 1.9-6.1.6-5.8-.9.2-2 1.8-2.6 3.6-1.1 4-2.1 4.1-3.2 0-.8-2.8-3.4-5.2-3.4-3.2zM399 307c0 .5.5 1 1 1 .6 0 1-.5 1-1 0-.6-.4-1-1-1-.5 0-1 .4-1 1zM404 312c0 3.3.4 6 1 6s1-2.7 1-6-.4-6-1-6-1 2.7-1 6zM328 313.5c0 3.3.4 4.5 1.5 4.5s1.5-1.2 1.5-4.5-.4-4.5-1.5-4.5-1.5 1.2-1.5 4.5zM333 313.7c0 5 1.7 5.9 2.2 1.1.4-4.6 2.8-4.9 2.8-.4 0 2 .5 3.6 1 3.6.6 0 1-.9 1-1.9 0-2.6 1-5.1 2.1-5.1.5 0 .9 1.6.9 3.5 0 2.4.5 3.5 1.5 3.5s1.5-1 1.5-3.3c0-4.8-.9-5.4-7.2-5.4H333zM348 313.6c0 2.4.5 4.4 1 4.4.6 0 1-1.3 1-2.9 0-1.7.5-3.3 1.1-3.7 1.4-.8 2.9 1.4 2.9 4.3 0 1.3.5 2.3 1.1 2.3.6 0 .9-1.7.7-4.3-.3-4.1-.4-4.2-4-4.4l-3.8-.1zM358 313.5c0 3.3.4 4.5 1.5 4.5s1.5-1.2 1.5-4.5-.4-4.5-1.5-4.5-1.5 1.2-1.5 4.5zM364.1 310.4c-.7.8-1.1 2.7-.9 4.3.3 2.5.7 2.8 3.7 2.8 1.9 0 3.6-.6 3.9-1.3.3-.9-.5-1.2-2.4-1-2.3.2-2.9-.1-2.9-1.7 0-1.6.6-1.9 2.9-1.7 2.6.3 2.8.1 1.7-1.2-1.7-2-4.5-2.1-6-.2zM372.5 310.1c-.4.6-.4 2.6-.1 4.5.7 3.2.9 3.4 4.6 3.4h4v-4.5c0-3.3-.4-4.5-1.5-4.5-1 0-1.5 1.1-1.5 3.5s-.5 3.5-1.5 3.5-1.5-1.1-1.5-3.5c0-3.4-1.2-4.6-2.5-2.4zM399 313.5c0 2.5.5 4.5 1 4.5.6 0 1-2 1-4.5s-.4-4.5-1-4.5c-.5 0-1 2-1 4.5zM409.1 310.4c-.7.8-1.1 2.7-.9 4.3.3 2.5.7 2.8 3.7 2.8 1.9 0 3.6-.6 3.9-1.3.3-.9-.5-1.2-2.4-1-2.3.2-2.9-.1-2.9-1.7 0-1.6.6-1.9 2.9-1.7 2.6.3 2.8.1 1.7-1.2-1.7-2-4.5-2.1-6-.2zM417.8 311.6c-.9 1.8-.9 3-.1 4.2 1.2 2 6.4 2.3 7.1.4.3-.9-.3-1.1-2.2-.6-1.6.4-2.6.2-2.6-.5 0-.6 1.1-1.1 2.5-1.1 2.9 0 3.6-3.4.9-4.4-2.9-1.1-4.4-.6-5.6 2zm5.2.4c0 .5-.7 1-1.5 1s-1.5-.5-1.5-1c0-.6.7-1 1.5-1s1.5.4 1.5 1zM427.7 309.7c-1.5 1.4-.6 2.3 1.8 1.7 1.4-.3 2.5-.3 2.5 0 0 .4-1.1 1.1-2.5 1.6-1.5.6-2.5 1.7-2.5 3 0 1.7.7 2 4 2 3.9 0 3.9 0 3.4-3.3-.3-1.7-.7-3.8-1-4.5-.4-1.3-4.6-1.7-5.7-.5zm4.3 5.3c0 .5-.7 1-1.6 1-.8 0-1.2-.5-.9-1 .3-.6 1-1 1.6-1 .5 0 .9.4.9 1zM427 373c0 4.7.3 6 1.5 6 .9 0 1.5-.9 1.5-2.4 0-1.9.6-2.5 2.6-2.8 6.6-.8 5.1-6.8-1.7-6.8H427zm6.8-2.3c.2.8-.5 1.3-1.7 1.3s-2.1-.6-2.1-1.6c0-1.8 3.1-1.5 3.8.3zM439 368c0 .5.5 1 1 1 .6 0 1-.5 1-1 0-.6-.4-1-1-1-.5 0-1 .4-1 1zM474 368c0 .5.5 1 1 1 .6 0 1-.5 1-1 0-.6-.4-1-1-1-.5 0-1 .4-1 1zM442.7 369.3c-.9 2.3.8 9.2 2.3 9.5 1.2.2 1.5-.7 1.4-4.5-.1-2.6-.3-5.1-.3-5.6-.2-1.2-2.9-.8-3.4.6zM467.8 369.2c-.3.7-.3 3.2 0 5.5.3 3.4.8 4.3 2.3 4.3 1 0 1.9-.5 1.9-1 0-.6-.4-1-1-1-1.4 0-1.2-4.8.2-5.2.9-.3.8-.9-.4-2.1-2-2-2.4-2.1-3-.5zM439 374.5c0 2.5.5 4.5 1 4.5.6 0 1-2 1-4.5s-.4-4.5-1-4.5c-.5 0-1 2-1 4.5zM448.8 372.6c-.9 1.8-.9 3-.1 4.2 1.2 2 6.4 2.3 7.1.4.3-.9-.3-1.1-2.2-.6-1.6.4-2.6.2-2.6-.5 0-.6 1.1-1.1 2.5-1.1 2.9 0 3.6-3.4.9-4.4-2.9-1.1-4.4-.6-5.6 2zm5.2.4c0 .5-.7 1-1.5 1s-1.5-.5-1.5-1c0-.6.7-1 1.5-1s1.5.4 1.5 1zM458.7 370.6c-1.5 1.6-.5 3.6 2.6 5l3.2 1.5-3.3-.5c-2.4-.4-3.2-.2-2.9.7.2.6 1.9 1.2 3.8 1.2 4.8 0 5.2-3 .7-5.1-3.1-1.4-3.1-1.5-.5-.9 2.1.4 2.8.2 2.5-.7-.5-1.4-5-2.3-6.1-1.2zM474 374.5c0 2.5.5 4.5 1 4.5.6 0 1-2 1-4.5s-.4-4.5-1-4.5c-.5 0-1 2-1 4.5zM360.2 372.2c-2.6 2.6-1 7.8 2.4 7.8 2.5 0 3.2 1.4 1.4 2.5-.6.4-1.7.2-2.4-.4-1.6-1.3-2.7-.4-1.9 1.5.3.8 1.8 1.4 3.4 1.4 3.3 0 4.9-2.3 4.9-7 0-1.7-.5-4-1-5.1-1.2-2.1-5-2.5-6.8-.7zm4.6 3.6c.2 1.4-.2 2.2-1.1 2.2-1.7 0-2.6-1.9-1.9-3.8.7-1.9 2.7-.9 3 1.6zM370 372.5c0 .9.9 1.5 2.5 1.5 2.9 0 3 .5 1 4-1.8 3.1-2 7.3-.3 6.8.7-.3 1.5-1.9 1.9-3.6.3-1.7 1.4-4.3 2.3-5.6 2.5-3.8 2-4.6-2.9-4.6-3.3 0-4.5.4-4.5 1.5zM333.3 426.7c-2.6 1.7-3.2 4.6-.8 3.7 1.2-.5 1.5.3 1.5 4 0 3.4.4 4.6 1.5 4.6 1.2 0 1.5-1.4 1.5-7 0-3.9-.3-7-.7-6.9-.5 0-1.8.7-3 1.6zM343.8 429.4c-3.4 5.3-3.5 6.6-.3 6.6 1.6 0 2.5.6 2.5 1.5 0 .8.7 1.5 1.5 1.5s1.5-.6 1.5-1.4c0-.8.6-1.7 1.3-2 1-.5 1-.7 0-1.2-.8-.3-1.3-2.4-1.3-5 0-5.7-1.7-5.7-5.2 0zm1.8 4.3c-1 1-1.9-.5-1-1.8.6-1.1.8-1.1 1.2 0 .2.7.1 1.5-.2 1.8zM353.6 427.2c-3.2 4.6-.8 11.8 3.9 11.8 5.4 0 5.5-8.5.1-9.2-1.9-.2-2.3-.6-1.7-1.7.8-1.2 1.2-1.2 2.4-.2 1 .8 1.7.9 2.2.1 2.1-3.3-4.6-4.1-6.9-.8zm4.9 7.3c0 1-.5 2-1.1 2.2-1.3.4-2.7-2.4-1.8-3.8.9-1.5 2.9-.4 2.9 1.6zM156.2 62.2c-1.7 1.7-1.5 7.4.4 9.3 4.6 4.6 12.5-1.7 9.3-7.4-1.7-2.9-7.5-4.1-9.7-1.9zm7.4 3.3c1.1 4.6-3.5 7.5-5.6 3.5-.8-1.4-.8-2.6 0-4 1.5-2.9 4.8-2.6 5.6.5zM190 62.5c0 .8-.8 1.5-1.8 1.5-2.4 0-4.2 1.9-4.2 4.5 0 3 1.9 4.5 5.7 4.5h3.3v-6c0-4.7-.3-6-1.5-6-.8 0-1.5.7-1.5 1.5zm0 6c0 1.6-.6 2.5-1.5 2.5s-1.5-.9-1.5-2.5.6-2.5 1.5-2.5 1.5.9 1.5 2.5zM168.7 64.7c-.4.3-.7 2.4-.7 4.5 0 2.7.4 3.8 1.5 3.8 1 0 1.5-1 1.5-3 0-1.8.6-3.3 1.5-3.6.8-.4 1.5-1 1.5-1.5 0-1-4.3-1.2-5.3-.2zM175.7 64.7c-1.5 1.4-.6 2.3 1.8 1.7 1.4-.3 2.5-.3 2.5 0 0 .4-1.1 1.1-2.5 1.6-1.5.6-2.5 1.7-2.5 3 0 1.7.7 2 4 2 3.9 0 3.9 0 3.4-3.3-.3-1.7-.7-3.8-1-4.5-.4-1.3-4.6-1.7-5.7-.5zM180 70c0 .5-.7 1-1.6 1-.8 0-1.2-.5-.9-1 .3-.6 1-1 1.6-1 .5 0 .9.4.9 1zM194.8 66.6c-.9 1.8-.9 3-.1 4.2 1.2 2 6.4 2.3 7.1.4.3-.9-.3-1.1-2.2-.6-1.6.4-2.6.2-2.6-.5 0-.6 1.1-1.1 2.5-1.1 2.9 0 3.6-3.4.9-4.4-2.9-1.1-4.4-.6-5.6 2zm5.2.4c0 .5-.7 1-1.5 1s-1.5-.5-1.5-1c0-.6.7-1 1.5-1s1.5.4 1.5 1zM204.7 64.7c-1.5 1.4-.6 2.3 1.8 1.7 1.4-.3 2.5-.3 2.5 0 0 .4-1.1 1.1-2.5 1.6-1.5.6-2.5 1.7-2.5 3 0 1.7.7 2 4 2 3.9 0 3.9 0 3.4-3.3-.3-1.7-.7-3.8-1-4.5-.4-1.3-4.6-1.7-5.7-.5zM209 70c0 .5-.7 1-1.6 1-.8 0-1.2-.5-.9-1 .3-.6 1-1 1.6-1 .5 0 .9.4.9 1zM97.7 76.6c-1.1 1.2.4 2.4 2.9 2.4 2.3 0 2.4.1 1.1 2.7-.8 1.6-1.7 4-2.1 5.5-1.1 4.7 1.9 3.3 3.4-1.4.7-2.4 1.8-5.2 2.6-6.3.8-1.1 1.4-2.3 1.4-2.7 0-1-8.4-1.1-9.3-.2zM111.3 77.9c-2.9 2.5-3.1 4.6-.3 3.1 1.9-1 2-.8 2 4 0 3.8.4 5 1.5 5 1.2 0 1.5-1.4 1.5-7 0-7.6-.7-8.4-4.7-5.1zM562 98c0 4.5.3 6 1.4 6 .9 0 1.6-1.2 1.8-3.3l.3-3.2 1.8 3.2c2.9 5.4 4.7 4.3 4.7-2.7 0-6.6-1.7-8.3-2.2-2.3l-.3 3.8-2.3-3.8c-3.6-5.6-5.2-4.9-5.2 2.3zM609.3 93.5c-.5 1.1-.8 3.9-.5 6.2.3 3.4.8 4.3 2.3 4.3 1 0 1.9-.5 1.9-1 0-.6-.4-1-1-1-1.5 0-1.2-4.7.3-5.3.8-.4.9-.8.1-1.4-.6-.4-1.3-1.5-1.6-2.3-.4-1.2-.7-1.1-1.5.5zM575.2 96.2c-1.6 1.6-1.5 5.3.2 6.8 1.7 1.3 6.3 1 5.7-.5-.2-.6-1.2-.9-2.3-.7-1 .2-1.8-.2-1.8-.7 0-.6 1.1-1.1 2.5-1.1s2.5-.6 2.5-1.3c0-1.8-2.1-3.7-4-3.7-.9 0-2.1.5-2.8 1.2zm4.3 1.8c.3.5-.1 1-.9 1-.9 0-1.6-.5-1.6-1 0-.6.4-1 .9-1 .6 0 1.3.4 1.6 1zM584.7 95.6c-1.5 1.6-.6 2.4 1.9 1.8 1.9-.5 2.5-.4 2 .5-.4.6-1.5 1.1-2.6 1.1-1.9 0-3.4 2.5-2.4 4.1.3.5 2.1.9 4 .9 3.5 0 3.5 0 3.2-4.3-.3-3.7-.6-4.2-2.8-4.5-1.4-.2-2.9 0-3.3.4zm4.3 5.4c0 .5-.7 1-1.5 1s-1.5-.5-1.5-1c0-.6.7-1 1.5-1s1.5.4 1.5 1zM593 99.6c0 2.4.5 4.4 1 4.4.6 0 1-.9 1-1.9 0-2.6 1-5.1 2.1-5.1.5 0 .9 1.6.9 3.5 0 2.4.5 3.5 1.5 3.5 1.1 0 1.5-1.1 1.5-3.6 0-4.5 2.4-4.2 2.8.4.5 4.8 2.4 3.8 2-1.1l-.3-4.2-6.2-.1-6.3-.2zM645.1 125.7c-.5 1.1-.6 2.5-.1 3.3.5.8.3 2.1-.3 3.2-1.7 2.6.3 5.2 4.2 5.6 2.5.3 3.3-.1 4-2 .5-1.3.6-2.7.3-3.3-.4-.5-.6-2.6-.7-4.5 0-3.2-.3-3.5-3.2-3.8-2.3-.2-3.4.2-4.2 1.5zm4.9 1.8c0 .8-.7 1.5-1.5 1.5-1.6 0-2-1.2-.8-2.3 1.1-1.2 2.3-.8 2.3.8zm.5 6.5c0 2.2-2.9 1.8-3.3-.3-.3-1.4.1-1.8 1.5-1.5 1 .2 1.8 1 1.8 1.8zM655.2 125.2c.3.7 1.6 1.4 3.1 1.6 2.5.3 2.6.5 1.3 2.5-.8 1.2-1.7 3.7-2.1 5.4-.5 2.6-.3 3.3.9 3.3.9 0 1.6-.8 1.6-1.8s1.1-4.1 2.5-6.8 2.5-5 2.5-5.2c0-.1-2.3-.2-5.1-.2-3.6 0-4.9.4-4.7 1.2zM211.3 138.9c-2.9 2.5-3.1 4.6-.3 3.1 1.9-1 2-.8 2 4 0 3.8.4 5 1.5 5 1.2 0 1.5-1.4 1.5-7 0-7.6-.7-8.4-4.7-5.1zM220.6 140.1c-.9 4.7-.8 4.9 2.4 4.2 2.6-.5 3-.2 3 1.5 0 2.7-1.7 3.7-3.6 2.1-1.8-1.4-2.9-.6-2 1.6.8 2.1 6.5 1.6 7.9-.6.5-.9.7-2.8.3-4.2-.5-2-1.3-2.7-3.1-2.7-3.4 0-3.2-1.8.2-2.2 4.4-.5 4-2.8-.5-2.8-3.6 0-4 .3-4.6 3.1zM233.3 138.9c-2.9 2.5-3.1 4.6-.3 3.1 1.9-1 2-.8 2 4 0 3.8.4 5 1.5 5 1.2 0 1.5-1.4 1.5-7 0-7.6-.7-8.4-4.7-5.1zM63 147.5c0 .9.9 1.5 2.5 1.5 2.9 0 3 .5 1 4-1.8 3.1-2 7.3-.3 6.8.7-.3 1.5-1.9 1.9-3.6.3-1.7 1.4-4.3 2.3-5.6 2.5-3.8 2-4.6-2.9-4.6-3.3 0-4.5.4-4.5 1.5zM75 149c0 4.1.2 4.5 2.4 4.2 2.2-.3 3.7 1.5 2.9 3.5-.6 1.5-3.3 1.8-3.3.3 0-.6-.7-1-1.5-1-1.8 0-1.9 1.2-.3 2.8 1.6 1.6 5.3 1.5 6.7-.2 2-2.4 1-7-1.6-7.4-2.9-.4-3-2-.1-2.4 4.1-.6 3.2-2.8-1.1-2.8-3.9 0-4.1.2-4.1 3zM714 173c0 3.3.4 6 1 6s1-2.7 1-6-.4-6-1-6-1 2.7-1 6zM738 168c0 .5.5 1 1 1 .6 0 1-.5 1-1 0-.6-.4-1-1-1-.5 0-1 .4-1 1zM719.7 170.6c-1.4 1.4-.7 2.5 1.3 1.9 2.9-.9 2.4.4-.6 1.5-3.9 1.5-2.8 4.4 1.9 4.8l3.8.3-.3-4.3c-.3-3.8-.6-4.3-2.8-4.6-1.4-.2-2.9 0-3.3.4zm3.3 5.4c0 .5-.7 1-1.6 1-.8 0-1.2-.5-.9-1 .3-.6 1-1 1.6-1 .5 0 .9.4.9 1zM728.2 171.2c-1.4 1.7-.4 3.4 2.8 4.8 2.3.9 2.2 1-.7.4-2.8-.5-3.2-.3-2.7 1.1.5 1.1 1.6 1.5 3.8 1.3 4.3-.4 4.8-3.9.9-5.5-2.1-.9-2.3-1.1-.7-1 1.1.1 2.2-.3 2.3-.8.3-1.5-4.4-1.8-5.7-.3zM738 174.5c0 2.5.5 4.5 1 4.5.6 0 1-2 1-4.5s-.4-4.5-1-4.5c-.5 0-1 2-1 4.5zM22.3 196c-1.6 4.6-1.8 6-.8 6 .7 0 1.5-.7 1.9-1.5.3-.8 1.5-1.5 2.6-1.5s2.3.7 2.6 1.5c.4.8 1.3 1.5 2.1 1.5s1.3-.4 1.1-.8c-.1-.4-1.2-3.1-2.2-6-2.7-7-4.5-6.8-7.3.8zm4.7-.5c0 .8-.4 1.5-1 1.5-.5 0-1-.7-1-1.5s.5-1.5 1-1.5c.6 0 1 .7 1 1.5zM55 191.9c0 1.4-.5 1.8-1.8 1.4-2.5-.6-4.4 2-4 5.4.3 2.4.8 2.8 4.1 3.1l3.7.3v-6c0-3.4-.4-6.1-1-6.1-.5 0-1 .9-1 1.9zm-.3 4.7c.8 2.1-1.3 4.2-2.8 2.7-1.3-1.3-.5-4.3 1.1-4.3.6 0 1.3.7 1.7 1.6zM33 197.7c0 3.2.4 4.3 1.5 4.3 1 0 1.5-1.1 1.5-3.5s.5-3.5 1.5-3.5c.8 0 1.5-.4 1.5-.9s-1.3-.9-3-.9c-2.9.1-3 .3-3 4.5zM40.7 193.6c-1.5 1.6-.6 2.4 1.9 1.8 1.9-.5 2.5-.4 2 .5-.4.6-1.5 1.1-2.6 1.1-1.9 0-3.4 2.5-2.4 4.1.3.5 2.1.9 4 .9 3.5 0 3.5 0 3.2-4.3-.3-3.7-.6-4.2-2.8-4.5-1.4-.2-2.9 0-3.3.4zM45 199c0 .5-.7 1-1.5 1s-1.5-.5-1.5-1c0-.6.7-1 1.5-1s1.5.4 1.5 1zM737.2 208.2c-2.6 2.6-1 7.8 2.4 7.8 2.5 0 3.2 1.4 1.4 2.5-.6.4-1.7.2-2.4-.4-1.6-1.3-2.7-.4-1.9 1.5.3.8 1.8 1.4 3.4 1.4 3.3 0 4.9-2.3 4.9-7 0-1.7-.5-4-1-5.1-1.2-2.1-5-2.5-6.8-.7zm4.6 3.6c.2 1.4-.2 2.2-1.1 2.2-1.7 0-2.6-1.9-1.9-3.8.7-1.9 2.7-.9 3 1.6zM748.2 208.2c-1.6 1.6-1.5 2.8.3 2.8.8 0 1.5-.5 1.5-1 0-.6.7-1 1.5-1 2.5 0 1.7 3.4-1.5 6.5-4.3 4.1-3.9 5.5 1.5 5.5 3.3 0 4.5-.4 4.5-1.5 0-.9-.9-1.5-2.1-1.5h-2l2-2.6c3.4-4.3 2.2-8.4-2.4-8.4-1.2 0-2.6.5-3.3 1.2zM276 229.5c-1.1 1.3-1 1.9.5 3.5 1 1.1 2.6 2 3.7 2 1 0 1.8.7 1.8 1.5s-.9 1.5-2 1.5-2-.5-2-1c0-.6-.7-1-1.5-1-1.8 0-1.9 1.2-.3 2.8 1.7 1.7 6.3 1.5 7.8-.3 1.7-2.1.5-4.5-3-5.8-3.9-1.5-3.9-3.1.1-2.3 2.2.4 2.9.2 2.7-.7-.7-1.9-6.3-2.1-7.8-.2zM287 229c0 .5.5 1 1 1 .6 0 1-.5 1-1 0-.6-.4-1-1-1-.5 0-1 .4-1 1zM291 234v6h4c3.5 0 4-.3 4.6-2.7.9-3.3-.7-5.8-3.5-5.7-1.4 0-2.1-.5-2.1-1.8 0-1-.7-1.8-1.5-1.8-1.2 0-1.5 1.3-1.5 6zm6.4.6c.8 2-.1 3.4-2 3.4-.8 0-1.4-1-1.4-2.5 0-2.8 2.4-3.4 3.4-.9zM302 229c0 .5.5 1 1 1 .6 0 1-.5 1-1 0-.6-.4-1-1-1-.5 0-1 .4-1 1zM287 235.5c0 2.5.5 4.5 1 4.5.6 0 1-2 1-4.5s-.4-4.5-1-4.5c-.5 0-1 2-1 4.5zM302 235.5c0 2.5.5 4.5 1 4.5.6 0 1-2 1-4.5s-.4-4.5-1-4.5c-.5 0-1 2-1 4.5zM306.5 232.1c-.4.6-.4 2.6-.1 4.5.7 3.2.9 3.4 4.6 3.4h4v-4.5c0-3.3-.4-4.5-1.5-4.5-1 0-1.5 1.1-1.5 3.5s-.5 3.5-1.5 3.5-1.5-1.1-1.5-3.5c0-3.4-1.2-4.6-2.5-2.4zM404 237c0 3.3.4 6 1 6s1-1.1 1-2.5c0-2 .5-2.5 2.4-2.5 3.5 0 4.2-1.8.9-2.2-3.9-.4-4.2-2.8-.4-2.8 1.7 0 3.1-.5 3.1-1 0-.6-1.8-1-4-1h-4zM347.2 235.2c-2.6 2.6-1 7.8 2.4 7.8 2.5 0 3.2 1.4 1.4 2.5-.6.4-1.7.2-2.4-.4-1.6-1.3-2.7-.4-1.9 1.5.3.8 1.8 1.4 3.4 1.4 3.3 0 4.9-2.3 4.9-7 0-1.7-.5-4-1-5.1-1.2-2.1-5-2.5-6.8-.7zm4.6 3.6c.2 1.4-.2 2.2-1.1 2.2-1.7 0-2.6-1.9-1.9-3.8.7-1.9 2.7-.9 3 1.6zM358.2 235.2c-2.6 2.6-1 7.8 2.4 7.8 2.5 0 3.2 1.4 1.4 2.5-.6.4-1.7.2-2.4-.4-1.6-1.3-2.7-.4-1.9 1.5.3.8 1.8 1.4 3.4 1.4 3.3 0 4.9-2.3 4.9-7 0-1.7-.5-4-1-5.1-1.2-2.1-5-2.5-6.8-.7zm4.6 3.6c.2 1.4-.2 2.2-1.1 2.2-1.7 0-2.6-1.9-1.9-3.8.7-1.9 2.7-.9 3 1.6zM414.7 234.7c-1.5 1.4-.6 2.3 1.8 1.7 1.4-.3 2.5-.3 2.5 0 0 .4-1.1 1.1-2.5 1.6-1.5.6-2.5 1.7-2.5 3 0 1.7.7 2 4 2 3.9 0 3.9 0 3.4-3.3-.3-1.7-.7-3.8-1-4.5-.4-1.3-4.6-1.7-5.7-.5zm4.3 5.3c0 .5-.7 1-1.6 1-.8 0-1.2-.5-.9-1 .3-.6 1-1 1.6-1 .5 0 .9.4.9 1zM424.1 235.3c-2.8 2.8 0 8.6 3.5 7.3 1-.4 1.4-.1 1.1.6-.2.8-1.6 1.2-3.3 1-2.8-.2-2.8-.2-1 1.3 4.3 3.3 7.6.5 7.6-6.5 0-4.8 0-4.8-3.4-4.8-1.9 0-3.9.5-4.5 1.1zm4.9 3.2c0 1.6-.6 2.5-1.5 2.5s-1.5-.9-1.5-2.5.6-2.5 1.5-2.5 1.5.9 1.5 2.5zM434.7 234.6c-1.5 1.6-.6 2.4 1.9 1.8 1.9-.5 2.5-.4 2 .5-.4.6-1.5 1.1-2.6 1.1-1.9 0-3.4 2.5-2.4 4.1.3.5 2.1.9 4 .9 3.5 0 3.5 0 3.2-4.3-.3-3.7-.6-4.2-2.8-4.5-1.4-.2-2.9 0-3.3.4zm4.3 5.4c0 .5-.7 1-1.5 1s-1.5-.5-1.5-1c0-.6.7-1 1.5-1s1.5.4 1.5 1zM443.7 234.7c-.4.3-.7 2.4-.7 4.5 0 2.7.4 3.8 1.5 3.8 1 0 1.5-1 1.5-3 0-1.8.6-3.3 1.5-3.6.8-.4 1.5-1 1.5-1.5 0-1-4.3-1.2-5.3-.2zM450.7 234.6c-1.5 1.6-.6 2.4 1.9 1.8 1.9-.5 2.5-.4 2 .5-.4.6-1.5 1.1-2.6 1.1-1.9 0-3.4 2.5-2.4 4.1.3.5 2.1.9 4 .9 3.5 0 3.5 0 3.2-4.3-.3-3.7-.6-4.2-2.8-4.5-1.4-.2-2.9 0-3.3.4zm4.3 5.4c0 .5-.7 1-1.5 1s-1.5-.5-1.5-1c0-.6.7-1 1.5-1s1.5.4 1.5 1zM459.7 234.6c-1.5 1.6-.5 3.6 2.6 5l3.2 1.5-3.3-.5c-2.4-.4-3.2-.2-2.9.7.2.6 1.9 1.2 3.8 1.2 4.8 0 5.2-3 .7-5.1-3.1-1.4-3.1-1.5-.5-.9 2.1.4 2.8.2 2.5-.7-.5-1.4-5-2.3-6.1-1.2zM44.3 254.7c-2.6 1.7-3.2 4.6-.8 3.7 1.2-.5 1.5.3 1.5 4 0 3.4.4 4.6 1.5 4.6 1.2 0 1.5-1.4 1.5-7 0-3.9-.3-7-.7-6.9-.5 0-1.8.7-3 1.6zM55.3 254.7c-2.6 1.7-3.2 4.6-.8 3.7 1.2-.5 1.5.3 1.5 4 0 3.4.4 4.6 1.5 4.6 1.2 0 1.5-1.4 1.5-7 0-3.9-.3-7-.7-6.9-.5 0-1.8.7-3 1.6zM769 268.6c0 .4.8 3.1 1.7 6.1 2.3 7.2 4.2 7 6.9-.7 1.9-5.3 1.9-6.1.6-5.8-.9.2-2 1.8-2.6 3.6-1.1 4-2.1 4.1-3.2 0-.8-2.8-3.4-5.2-3.4-3.2zM800 274c0 3.3.4 6 1 6s1-2.7 1-6-.4-6-1-6-1 2.7-1 6zM815 269c0 .5.5 1 1 1 .6 0 1-.5 1-1 0-.6-.4-1-1-1-.5 0-1 .4-1 1zM781.7 271.6c-1.5 1.6-.6 2.4 1.9 1.8 1.9-.5 2.5-.4 2 .5-.4.6-1.5 1.1-2.6 1.1-1.9 0-3.4 2.5-2.4 4.1.3.5 2.1.9 4 .9 3.5 0 3.5 0 3.2-4.3-.3-3.7-.6-4.2-2.8-4.5-1.4-.2-2.9 0-3.3.4zm4.3 5.4c0 .5-.7 1-1.5 1s-1.5-.5-1.5-1c0-.6.7-1 1.5-1s1.5.4 1.5 1zM790.7 271.6c-1.4 1.5-.6 3.4 2.1 4.9l2.7 1.6-2.8-.6c-2.1-.4-2.8-.2-2.5.7.6 1.8 4.6 2.2 6.4.8 2.1-1.9 1.7-2.9-1.8-4.6-3.2-1.4-3.2-1.5-.5-.9 2.1.4 2.8.2 2.5-.7-.5-1.4-5-2.3-6.1-1.2zM804.2 275.2c.3 4.2.4 4.3 4.1 4.5l3.7.1v-4.4c0-5-1.7-6-2.2-1.2-.4 4.6-2.8 4.9-2.8.4 0-2.6-.4-3.6-1.6-3.6-1.2 0-1.4.9-1.2 4.2zM815 275.5c0 2.5.5 4.5 1 4.5.6 0 1-2 1-4.5s-.4-4.5-1-4.5c-.5 0-1 2-1 4.5zM726.3 343.9c-2.9 2.5-3.1 4.6-.3 3.1 1.9-1 2-.8 2 4 0 3.8.4 5 1.5 5 1.2 0 1.5-1.4 1.5-7 0-7.6-.7-8.4-4.7-5.1zM737 346.4c-3.8 5.6-3.8 6.6 0 6.6 2 0 3 .5 3 1.5 0 2.1 2.7 1.9 3.2-.3.2-.9.2-4.1 0-7-.5-6.5-2-6.7-6.2-.8zm3 2.6c0 1.1-.7 2-1.5 2-1.3 0-1.4-.4-.5-2 .6-1.1 1.3-2 1.5-2 .3 0 .5.9.5 2zM746.3 343.5c-.8 2.2.4 3 2.1 1.6 1.5-1.3 3.6-.7 3.6.9 0 .5-1.6 2.6-3.5 4.7s-3.5 4.1-3.5 4.5c0 .5 2.3.8 5.1.8 3.6 0 4.9-.4 4.7-1.3-.3-.6-1.4-1.3-2.7-1.5l-2.2-.3 2.6-3c2.8-3.4 3.1-4.9 1.3-6.7-1.7-1.7-6.7-1.5-7.5.3zM516.2 354.2c-1.6 1.6-1.5 2.8.3 2.8.8 0 1.5-.5 1.5-1 0-.6.7-1 1.5-1 2.5 0 1.7 3.4-1.5 6.5-4.3 4.1-3.9 5.5 1.5 5.5 3.3 0 4.5-.4 4.5-1.5 0-.9-.9-1.5-2.1-1.5h-2l2-2.6c3.4-4.3 2.2-8.4-2.4-8.4-1.2 0-2.6.5-3.3 1.2zM528.7 354.8c-2.2 2.4-2.4 5-.2 3.2 1.3-1.1 1.5-.6 1.5 3.9 0 3.9.4 5.1 1.5 5.1 1.2 0 1.5-1.4 1.5-7 0-7.5-1.1-8.8-4.3-5.2zM539.7 354.8c-2.2 2.4-2.4 5-.2 3.2 1.3-1.1 1.5-.6 1.5 3.9 0 3.9.4 5.1 1.5 5.1 1.2 0 1.5-1.4 1.5-7 0-7.5-1.1-8.8-4.3-5.2zM115.3 358.9c-2.9 2.5-3.1 4.6-.3 3.1 1.9-1 2-.8 2 4 0 3.8.4 5 1.5 5 1.2 0 1.5-1.4 1.5-7 0-7.6-.7-8.4-4.7-5.1zM126.3 358.9c-2.9 2.5-3.1 4.6-.3 3.1 1.9-1 2-.8 2 4 0 3.8.4 5 1.5 5 1.2 0 1.5-1.4 1.5-7 0-7.6-.7-8.4-4.7-5.1zM171 402.5c0 .9.9 1.5 2.5 1.5 2.9 0 3 .5 1 4-1.8 3.1-2 7.3-.3 6.8.7-.3 1.5-1.9 1.9-3.6.3-1.7 1.4-4.3 2.3-5.6 2.5-3.8 2-4.6-2.9-4.6-3.3 0-4.5.4-4.5 1.5zM183.2 402.2c-.7.7-1.2 3.3-1.2 5.8 0 5.1 1.3 7 4.7 7 2.6 0 4.3-2.7 4.3-7 0-1.7-.5-4-1-5.1-1.2-2.1-5-2.5-6.8-.7zm4.6 6.4c-.2 2.2-.7 3.9-1.3 3.9-1.2 0-1.9-6-1-8.3 1-2.8 2.7.3 2.3 4.4zM728.9 406.1c-1.6 3.1.3 6.9 3.6 6.9 2.5 0 3.3 1.4 1.5 2.5-.6.4-1.7.2-2.5-.5-1.5-1.2-3.1.3-2 2 1.2 1.9 5.4 1 7.1-1.5 1.9-2.9 1.4-9.3-.8-10.7-2.4-1.5-5.7-.8-6.9 1.3zm5.5 1.6c.9 2.2-1 4.1-2.5 2.6-1.3-1.3-.5-4.3 1-4.3.5 0 1.2.8 1.5 1.7zM740.4 405.4c-.3.9-.3 2.3 0 3.2.3.8.1 2.4-.4 3.5-1.7 3.1.5 6.1 4.2 5.7 3.6-.3 5.5-2.7 4.3-5.4-.4-1.1-.8-3.3-.9-4.9-.1-2.6-.5-3-3.4-3.3-2.2-.2-3.4.2-3.8 1.2zm5.4 2.4c.2.7-.3 1.2-1.2 1.2-.9 0-1.6-.7-1.6-1.6 0-1.7 2.2-1.4 2.8.4zm.2 5.6c0 .8-.5 1.8-1.1 2.2-1.4.8-3.3-1.1-2.5-2.5 1-1.6 3.6-1.3 3.6.3zM811 427c0 3.3.4 6 1 6s1-1.1 1-2.5c0-2 .5-2.5 2.5-2.5s2.5.5 2.5 2.5c0 1.6.6 2.5 1.5 2.5 1.2 0 1.5-1.3 1.5-6s-.3-6-1.5-6c-.9 0-1.5 1-1.5 2.6 0 2.1-.4 2.5-2.2 2.2-1.5-.2-2.4-1.1-2.6-2.6-.7-4.6-2.2-2-2.2 3.8zM823 422c0 .5.5 1 1 1 .6 0 1-.5 1-1 0-.6-.4-1-1-1-.5 0-1 .4-1 1zM611.1 424.7c-.5 1.1-.6 2.5-.1 3.3.5.8.3 2.1-.3 3.2-1.7 2.6.3 5.2 4.2 5.6 2.5.3 3.3-.1 4-2 .5-1.3.6-2.7.3-3.3-.4-.5-.6-2.6-.7-4.5 0-3.2-.3-3.5-3.2-3.8-2.3-.2-3.4.2-4.2 1.5zm4.9 1.8c0 .8-.7 1.5-1.5 1.5-1.6 0-2-1.2-.8-2.3 1.1-1.2 2.3-.8 2.3.8zm.5 6.5c0 2.2-2.9 1.8-3.3-.3-.3-1.4.1-1.8 1.5-1.5 1 .2 1.8 1 1.8 1.8zM622.6 424.6c-.3.9-.6 2.7-.6 4 0 2.1.3 2.4 2.5 1.8 1.8-.4 2.7-.1 3.1 1.1 1 2.5-1 3.9-3.4 2.4-2.6-1.6-4-.5-2.2 1.6.8 1 2.5 1.5 4.4 1.3 2.3-.2 3.3-1 4.1-3.2.8-2.4.6-3.1-1.4-4.7-1.3-1-2.7-1.6-3.2-1.3-.5.3-.9 0-.9-.5 0-.6 1.1-1.1 2.5-1.1 1.6 0 2.5-.6 2.5-1.5 0-2.1-6.6-2.1-7.4.1zM823 428.5c0 2.5.5 4.5 1 4.5.6 0 1-2 1-4.5s-.4-4.5-1-4.5c-.5 0-1 2-1 4.5zM827.7 424.7c-.4.3-.7 2.4-.7 4.5 0 2.7.4 3.8 1.5 3.8 1 0 1.5-1 1.5-3 0-1.8.6-3.3 1.5-3.6.8-.4 1.5-1 1.5-1.5 0-1-4.3-1.2-5.3-.2zM834.7 424.6c-1.4 1.5-.6 3.4 2.1 4.9l2.7 1.6-2.8-.6c-2.1-.4-2.8-.2-2.5.7.6 1.8 4.6 2.2 6.4.8 2.1-1.9 1.7-2.9-1.8-4.6-3.2-1.4-3.2-1.5-.5-.9 2.1.4 2.8.2 2.5-.7-.5-1.4-5-2.3-6.1-1.2zM844.2 425.2c-2.8 2.8-.7 7.8 3.3 7.8 2.7 0 4.5-1.8 4.5-4.5s-1.8-4.5-4.5-4.5c-1.2 0-2.6.5-3.3 1.2zm5.2 2.4c.8 2-.1 3.4-2 3.4-.8 0-1.4-1-1.4-2.5 0-2.8 2.4-3.4 3.4-.9zM854.8 428.5c.9 2.5 2.2 4.5 2.8 4.5 1 0 4.4-6.7 4.4-8.5 0-1.7-2.2 0-3.1 2.2l-1.1 2.8-1-2.8c-.5-1.5-1.6-2.7-2.3-2.7-1.1 0-1.1.8.3 4.5zM864.7 424.6c-1.4 1.4-.7 2.5 1.3 1.9 2.9-.9 2.4.4-.6 1.5-3.9 1.5-2.8 4.4 1.9 4.8l3.8.3-.3-4.3c-.3-3.8-.6-4.3-2.8-4.6-1.4-.2-2.9 0-3.3.4zm3.3 5.4c0 .5-.7 1-1.6 1-.8 0-1.2-.5-.9-1 .3-.6 1-1 1.6-1 .5 0 .9.4.9 1zM485.3 432.7c-2.6 1.7-3.2 4.6-.8 3.7 1.2-.5 1.5.3 1.5 4 0 3.4.4 4.6 1.5 4.6 1.2 0 1.5-1.4 1.5-7 0-3.9-.3-7-.7-6.9-.5 0-1.8.7-3 1.6zM494 433.6c-1.3 3.3-1.3 7 0 9.5 1.2 2.1 5 2.5 6.8.7 1.6-1.6 1.6-10 0-11.6-2.1-2.1-5.8-1.4-6.8 1.4zm5 4.5c0 3.6-.4 4.9-1.2 4.7-1.4-.5-2.3-6.1-1.4-8.4 1.2-3.1 2.6-1.1 2.6 3.7zM662 444.8c0 5.4 1.2 7.2 5 7.2s5-1.8 5-7.2c0-3.6-.4-4.8-1.5-4.8s-1.5 1.2-1.5 5.1c0 4.3-.3 5-1.7 4.7-1.4-.2-1.9-1.5-2.1-5.1-.2-3.3-.7-4.7-1.8-4.7-1 0-1.4 1.3-1.4 4.8zM690 441c0 .5.5 1 1 1 .6 0 1-.5 1-1 0-.6-.4-1-1-1-.5 0-1 .4-1 1zM723 441c0 .5.7 1 1.5 1s1.5-.5 1.5-1c0-.6-.7-1-1.5-1s-1.5.4-1.5 1zM674 447.6c0 3.2.4 4.4 1.5 4.4 1 0 1.5-1.1 1.5-3.5 0-3.3.2-3.5 3.6-3.5h3.5l-2 2.6c-2.9 3.7-2.7 4.4 1.9 4.4 4.2 0 5.6-1.6 1.9-2.2l-2.1-.3 2.1-2.7c1.2-1.4 2.1-2.9 2.1-3.2 0-.4-3.1-.6-7-.5l-7 .2zM690 447.5c0 2.5.5 4.5 1 4.5.6 0 1-2 1-4.5s-.4-4.5-1-4.5c-.5 0-1 2-1 4.5zM695.1 444.4c-.7.8-1.1 2.7-.9 4.3.3 2.5.7 2.8 3.7 2.8 1.9 0 3.6-.6 3.9-1.3.3-.9-.5-1.2-2.4-1-2.3.2-2.9-.1-2.9-1.7 0-1.6.6-1.9 2.9-1.7 2.6.3 2.8.1 1.7-1.2-1.7-2-4.5-2.1-6-.2zM704.2 444.2c-1.6 1.6-1.5 5.3.2 6.8 1.7 1.3 6.3 1 5.7-.5-.2-.6-1.2-.9-2.3-.7-1 .2-1.8-.2-1.8-.7 0-.6 1.1-1.1 2.5-1.1s2.5-.6 2.5-1.3c0-1.8-2.1-3.7-4-3.7-.9 0-2.1.5-2.8 1.2zm4.3 1.8c.3.5-.1 1-.9 1-.9 0-1.6-.5-1.6-1 0-.6.4-1 .9-1 .6 0 1.3.4 1.6 1zM713 447.6c0 2.4.5 4.4 1 4.4.6 0 1-1.3 1-2.9 0-1.7.5-3.3 1.1-3.7 1.4-.8 2.9 1.4 2.9 4.3 0 1.3.5 2.3 1.1 2.3.6 0 .9-1.7.7-4.3-.3-4.1-.4-4.2-4-4.4l-3.8-.1zM723 447.5c0 3.3.4 4.5 1.5 4.5s1.5-1.2 1.5-4.5-.4-4.5-1.5-4.5-1.5 1.2-1.5 4.5zM827.9 459.6c-.9 1.1-1 2-.2 3.2.7 1.2.7 2.2-.1 3.4-1.6 2.6.4 5.3 3.9 5.3s5.5-2.7 3.9-5.2c-.8-1.3-.8-2.3-.1-3.5 2.4-3.7-4.5-6.7-7.4-3.2zm5.1 1.9c0 .8-.7 1.5-1.5 1.5s-1.5-.7-1.5-1.5.7-1.5 1.5-1.5 1.5.7 1.5 1.5zm0 6.5c0 1.1-.7 2-1.5 2s-1.5-.9-1.5-2 .7-2 1.5-2 1.5.9 1.5 2zM839 459.9c-.5 1.1-1 3.4-1 5.1 0 4.3 1.7 7 4.3 7 3.1 0 4.7-1.8 4.7-5.2 0-2.4-.5-3-3-3.5-3.1-.6-3.8-1.7-2-2.8.6-.4 1.7-.2 2.4.4 1.6 1.3 2.7.4 1.9-1.5-.8-2.1-6-1.7-7.3.5zm5.7 6.7c.1.5-.2 1.6-.7 2.4-1.2 2-3.5-.2-2.6-2.5.6-1.7 2.7-1.6 3.3.1zM170.2 466.2c.3.7 1.6 1.4 3.1 1.6 2.5.3 2.6.5 1.3 2.5-.8 1.2-1.7 3.7-2.1 5.4-.5 2.6-.3 3.3.9 3.3.9 0 1.6-.8 1.6-1.8s1.1-4.1 2.5-6.8 2.5-5 2.5-5.2c0-.1-2.3-.2-5.1-.2-3.6 0-4.9.4-4.7 1.2zM182.6 466.6c-.3.9-.6 2.7-.6 4 0 2.1.3 2.4 2.5 1.8 1.8-.4 2.7-.1 3.1 1.1 1 2.5-1 3.9-3.4 2.4-2.6-1.6-4-.5-2.2 1.6.8 1 2.5 1.5 4.4 1.3 2.3-.2 3.3-1 4.1-3.2.8-2.4.6-3.1-1.4-4.7-1.3-1-2.7-1.6-3.2-1.3-.5.3-.9 0-.9-.5 0-.6 1.1-1.1 2.5-1.1 1.6 0 2.5-.6 2.5-1.5 0-2.1-6.6-2.1-7.4.1zM398.3 468.9c-2.9 2.5-3.1 4.6-.3 3.1 1.9-1 2-.8 2 4 0 3.8.4 5 1.5 5 1.2 0 1.5-1.4 1.5-7 0-7.6-.7-8.4-4.7-5.1zM407.4 468.5c-.8 2.1.3 3.2 1.8 1.7.7-.7 1.6-1.2 2-1.2 1.3 0 .9 2.8-.4 3.4-1 .3-.8.9.5 1.9.9.8 1.7 1.9 1.7 2.5 0 1.8-2 2.4-3.6 1.1-1.8-1.4-2.9-.6-2 1.6.4 1.1 1.6 1.5 3.7 1.3 3.7-.4 5.6-2.7 4.4-5.4-.5-1.1-.9-3.3-.9-4.9-.1-2.6-.5-3-3.4-3.3-2.2-.2-3.4.2-3.8 1.3zM418.4 468.4c-.3.9-.3 2.3 0 3.2.3.8.1 2.4-.4 3.5-1.7 3.1.5 6.1 4.2 5.7 3.6-.3 5.5-2.7 4.3-5.4-.4-1.1-.8-3.3-.9-4.9-.1-2.6-.5-3-3.4-3.3-2.2-.2-3.4.2-3.8 1.2zm5.4 2.4c.2.7-.3 1.2-1.2 1.2-.9 0-1.6-.7-1.6-1.6 0-1.7 2.2-1.4 2.8.4zm.2 5.6c0 .8-.5 1.8-1.1 2.2-1.4.8-3.3-1.1-2.5-2.5 1-1.6 3.6-1.3 3.6.3zM580 485.9v6.1h4.5c3.3 0 4.7-.5 5.4-1.9.6-1 .7-2.1.3-2.5-.3-.4-.6-2.1-.7-3.9 0-3.1-.1-3.2-4.7-3.5l-4.8-.3zm6.8-2.7c-.7 1.9-3.8 2.2-3.8.4 0-1 .9-1.6 2.1-1.6 1.2 0 1.9.5 1.7 1.2zm1 5c-.7 2-4.8 2.3-4.8.4 0-1.1.9-1.6 2.6-1.6 1.6 0 2.4.5 2.2 1.2zM612 486c0 4.7.3 6 1.5 6 1 0 1.5-1.1 1.5-3.5s.5-3.5 1.5-3.5 1.5 1.1 1.5 3.5c0 1.9.5 3.5 1.1 3.5.6 0 .9-1.7.7-4.3-.2-3.5-.7-4.3-2.5-4.5-1.3-.2-2.3-1-2.3-1.8s-.7-1.4-1.5-1.4c-1.2 0-1.5 1.3-1.5 6zM658.3 481.5c-.5 1.1-.8 3.9-.5 6.2.3 3.4.8 4.3 2.3 4.3 1 0 1.9-.5 1.9-1 0-.6-.4-1-1-1-1.5 0-1.2-4.7.3-5.3.8-.4.9-.8.1-1.4-.6-.4-1.3-1.5-1.6-2.3-.4-1.2-.7-1.1-1.5.5zM592.5 484.1c-.4.6-.4 2.6-.1 4.5.7 3.2.9 3.4 4.6 3.4h4v-4.5c0-3.3-.4-4.5-1.5-4.5-1 0-1.5 1.1-1.5 3.5s-.5 3.5-1.5 3.5-1.5-1.1-1.5-3.5c0-3.4-1.2-4.6-2.5-2.4zM603 485.1c-2.7 4.9 3.6 9.5 7.1 5.3 1.2-1.5 1-1.6-1.9-1-3 .7-3.2.6-3.2-1.9 0-2.4.3-2.6 2.6-2.1 1.9.5 2.5.3 2.2-.6-.8-2.3-5.5-2.1-6.8.3zM623.7 483.6c-1.4 1.4-.7 2.5 1.3 1.9 2.9-.9 2.4.4-.6 1.5-3.9 1.5-2.8 4.4 1.9 4.8l3.8.3-.3-4.3c-.3-3.8-.6-4.3-2.8-4.6-1.4-.2-2.9 0-3.3.4zm3.3 5.4c0 .5-.7 1-1.6 1-.8 0-1.2-.5-.9-1 .3-.6 1-1 1.6-1 .5 0 .9.4.9 1zM632 487.7c0 3.2.4 4.3 1.5 4.3 1 0 1.5-1.1 1.5-3.5s.5-3.5 1.5-3.5c.8 0 1.5-.4 1.5-.9s-1.3-.9-3-.9c-2.9.1-3 .3-3 4.5zM639.2 484.2c-1.6 1.6-1.5 5.3.2 6.8 1.7 1.3 6.3 1 5.7-.5-.2-.6-1.2-.9-2.3-.7-1 .2-1.8-.2-1.8-.7 0-.6 1.1-1.1 2.5-1.1s2.5-.6 2.5-1.3c0-1.8-2.1-3.7-4-3.7-.9 0-2.1.5-2.8 1.2zm4.3 1.8c.3.5-.1 1-.9 1-.9 0-1.6-.5-1.6-1 0-.6.4-1 .9-1 .6 0 1.3.4 1.6 1zM648.7 483.6c-1.4 1.5-.6 3.4 2.1 4.9l2.7 1.6-2.8-.6c-2.1-.4-2.8-.2-2.5.7.6 1.8 4.6 2.2 6.4.8 2.1-1.9 1.7-2.9-1.8-4.6-3.2-1.4-3.2-1.5-.5-.9 2.1.4 2.8.2 2.5-.7-.5-1.4-5-2.3-6.1-1.2zM111 510v6h3.9c4.5 0 6.4-1.8 6.3-6.1-.1-4.3-1.8-5.9-6.3-5.9H111zm7.5-2c.9 3-.4 6-2.6 6-1.6 0-1.9-.7-1.9-4s.3-4 1.9-4c1.1 0 2.3.9 2.6 2zM134 509.9v5.9l3.8-.1c3.6-.2 3.7-.3 3.7-4.2 0-3.7-.2-4-2.7-4-2 .1-2.8-.4-2.8-1.7 0-1-.4-1.8-1-1.8s-1 2.6-1 5.9zm5.8 1.9c.2 1.4-.2 2.2-1.2 2.2-1.9 0-2.9-1.7-2.2-3.6.8-2.2 3-1.2 3.4 1.4zM159.7 506.3c-.9 2.3.8 9.2 2.3 9.5 1.2.2 1.5-.7 1.4-4.5-.1-2.6-.3-5.1-.3-5.6-.2-1.2-2.9-.8-3.4.6zM124.2 508.2c-2.8 2.8-.7 7.8 3.3 7.8 1.2 0 2.6-.5 3.3-1.2.7-.7 1.2-2.1 1.2-3.3 0-1.2-.5-2.6-1.2-3.3-.7-.7-2.1-1.2-3.3-1.2-1.2 0-2.6.5-3.3 1.2zm5.2 2.4c.8 2-.1 3.4-2 3.4-.8 0-1.4-1-1.4-2.5 0-2.8 2.4-3.4 3.4-.9zM144 511.7c0 3.2.4 4.3 1.5 4.3 1 0 1.5-1.1 1.5-3.5s.5-3.5 1.5-3.5c.8 0 1.5-.4 1.5-.9s-1.3-.9-3-.9c-2.9.1-3 .3-3 4.5zM150.8 509.6c-.9 1.8-.9 3-.1 4.2 1.2 2 6.4 2.3 7.1.4.3-.9-.3-1.1-2.2-.6-1.6.4-2.6.2-2.6-.5 0-.6 1.1-1.1 2.5-1.1 2.9 0 3.6-3.4.9-4.4-2.9-1.1-4.4-.6-5.6 2zm5.2.4c0 .5-.7 1-1.5 1s-1.5-.5-1.5-1c0-.6.7-1 1.5-1s1.5.4 1.5 1zM166.7 507.6c-1.5 1.6-.6 2.4 1.9 1.8 1.9-.5 2.5-.4 2 .5-.4.6-1.5 1.1-2.6 1.1-1.9 0-3.4 2.5-2.4 4.1.3.5 2.1.9 4 .9 3.5 0 3.5 0 3.2-4.3-.3-3.7-.6-4.2-2.8-4.5-1.4-.2-2.9 0-3.3.4zm4.3 5.4c0 .5-.7 1-1.5 1s-1.5-.5-1.5-1c0-.6.7-1 1.5-1s1.5.4 1.5 1zM562.9 513.1c-1.6 3.1.3 6.9 3.6 6.9 2.5 0 3.3 1.4 1.5 2.5-.6.4-1.7.2-2.5-.5-1.5-1.2-3.1.3-2 2 1.2 1.9 5.4 1 7.1-1.5 1.9-2.9 1.4-9.3-.8-10.7-2.4-1.5-5.7-.8-6.9 1.3zm5.5 1.6c.9 2.2-1 4.1-2.5 2.6-1.3-1.3-.5-4.3 1-4.3.5 0 1.2.8 1.5 1.7zM575 512.5c-.7.8-1.3 3.3-1.3 5.5 0 4.9 1.8 7.2 5.2 6.8 3.2-.4 4.9-5.2 3.5-10.1-.7-2.4-1.6-3.3-3.5-3.5-1.4-.2-3.1.4-3.9 1.3zm4.5 5.5c0 2.4-.5 4.5-1.1 4.7-1.5.5-2.6-4-1.8-7.2 1-4 2.9-2.3 2.9 2.5zM350 533.6c-.8.8-1.3 2.8-1.3 4.4 0 1.6.5 3.6 1.3 4.4 1.6 2 6.4 2.1 8 .1 1.7-2.1.4-3.2-2-1.7-1.1.7-2.4 1.2-2.9 1.2-1.4 0-2.3-3.7-1.6-6 .7-2.1 3.9-2.7 5-1 .4.6 1.1.8 1.6.4 1.7-1-1.2-3.4-4.1-3.4-1.5 0-3.3.7-4 1.6zM377 533c0 .5.7 1 1.5 1s1.5-.5 1.5-1c0-.6-.7-1-1.5-1s-1.5.4-1.5 1zM361 539.7c0 3.2.4 4.3 1.5 4.3 1 0 1.5-1.1 1.5-3.5s.5-3.5 1.5-3.5c.8 0 1.5-.4 1.5-.9s-1.3-.9-3-.9c-2.9.1-3 .3-3 4.5zM368.7 535.6c-1.5 1.6-.6 2.4 1.9 1.8 1.9-.5 2.5-.4 2 .5-.4.6-1.5 1.1-2.6 1.1-1.9 0-3.4 2.5-2.4 4.1.3.5 2.1.9 4 .9 3.5 0 3.5 0 3.2-4.3-.3-3.7-.6-4.2-2.8-4.5-1.4-.2-2.9 0-3.3.4zm4.3 5.4c0 .5-.7 1-1.5 1s-1.5-.5-1.5-1c0-.6.7-1 1.5-1s1.5.4 1.5 1zM377 539.5c0 3.3.4 4.5 1.5 4.5s1.5-1.2 1.5-4.5-.4-4.5-1.5-4.5-1.5 1.2-1.5 4.5zM382.6 536.6c-1.9 1.8-2 2.8-.6 5.5 1.1 1.9 4.5 2.5 6.6 1.1 1.9-1.3 2.3-3.9.8-6.1-1.8-2.5-4.6-2.7-6.8-.5zm4.9 3c0 1-.8 2-1.7 2.2-1.8.3-2.6-2.7-1.1-4.2 1.2-1.1 2.8 0 2.8 2zM392.8 539.5c.9 2.5 2.2 4.5 2.8 4.5 1 0 4.4-6.7 4.4-8.5 0-1.7-2.2 0-3.1 2.2l-1.1 2.8-1-2.8c-.5-1.5-1.6-2.7-2.3-2.7-1.1 0-1.1.8.3 4.5zM402.7 535.6c-1.5 1.6-.6 2.4 1.9 1.8 1.9-.5 2.5-.4 2 .5-.4.6-1.5 1.1-2.6 1.1-1.9 0-3.4 2.5-2.4 4.1.3.5 2.1.9 4 .9 3.5 0 3.5 0 3.2-4.3-.3-3.7-.6-4.2-2.8-4.5-1.4-.2-2.9 0-3.3.4zm4.3 5.4c0 .5-.7 1-1.5 1s-1.5-.5-1.5-1c0-.6.7-1 1.5-1s1.5.4 1.5 1zM825 543v6h4.5c5.1 0 6.2-1.7 1.3-2.2-4.2-.4-5-2.8-.9-2.8s4.9-1.8.9-2.2c-4.6-.4-4.9-2.8-.4-2.8 2 0 3.6-.5 3.6-1 0-.6-2-1-4.5-1H825zM836.4 538.7c-1.5 2.5-.6 10.3 1.2 10.3.9 0 1.4-1.2 1.4-3.4 0-1.9.6-3.7 1.3-3.9.9-.4.8-.8-.3-1.6-1-.7-1.1-1.1-.2-1.1.6 0 1.2-.5 1.2-1 0-1.7-3.5-1.1-4.6.7zM859 538c0 .5.5 1 1 1 .6 0 1-.5 1-1 0-.6-.4-1-1-1-.5 0-1 .4-1 1zM842.6 541.6c-1.9 1.8-2 2.8-.6 5.5 1.1 1.9 4.5 2.5 6.6 1.1 1.9-1.3 2.3-3.9.8-6.1-1.8-2.5-4.6-2.7-6.8-.5zm4.9 3c0 1-.8 2-1.7 2.2-1.8.3-2.6-2.7-1.1-4.2 1.2-1.1 2.8 0 2.8 2zM852 544.7c0 3.2.4 4.3 1.5 4.3 1 0 1.5-1.1 1.5-3.5s.5-3.5 1.5-3.5c.8 0 1.5-.4 1.5-.9s-1.3-.9-3-.9c-2.9.1-3 .3-3 4.5zM859 544.5c0 2.5.5 4.5 1 4.5.6 0 1-2 1-4.5s-.4-4.5-1-4.5c-.5 0-1 2-1 4.5zM864.2 541.2c-1.6 1.6-1.5 5.3.2 6.8 1.7 1.3 6.3 1 5.7-.5-.2-.6-1.2-.9-2.3-.7-1 .2-1.8-.2-1.8-.7 0-.6 1.1-1.1 2.5-1.1s2.5-.6 2.5-1.3c0-1.8-2.1-3.7-4-3.7-.9 0-2.1.5-2.8 1.2zm4.3 1.8c.3.5-.1 1-.9 1-.9 0-1.6-.5-1.6-1 0-.6.4-1 .9-1 .6 0 1.3.4 1.6 1zM552.6 552.2c-3.2 4.5-.6 9.8 4.8 9.8 3.6 0 5.6-1.5 5.6-4.2 0-2.2-2.3-3.3-4.7-2.3-1.7.6-1.7.7.1 2 1.7 1.3 1.7 1.5.3 2.1-2.9 1.1-4.7-.3-4.7-3.6 0-3.5 2.3-4.9 5.1-3.2 1.1.7 2 .8 2.4.2 2.2-3.5-6.5-4.3-8.9-.8zM565 551c0 .5.5 1 1 1 .6 0 1-.5 1-1 0-.6-.4-1-1-1-.5 0-1 .4-1 1zM597 551c0 .5.5 1 1 1 .6 0 1-.5 1-1 0-.6-.4-1-1-1-.5 0-1 .4-1 1zM565 557.5c0 2.5.5 4.5 1 4.5.6 0 1-2 1-4.5s-.4-4.5-1-4.5c-.5 0-1 2-1 4.5zM569.5 554.1c-.4.6-.4 2.6-.1 4.5.7 3.2.9 3.4 4.6 3.4h4v-4.5c0-3.3-.4-4.5-1.5-4.5-1 0-1.5 1.1-1.5 3.5s-.5 3.5-1.5 3.5-1.5-1.1-1.5-3.5c0-3.4-1.2-4.6-2.5-2.4zM580 557.6c0 2.4.5 4.4 1 4.4.6 0 1-1.4 1-3 0-1.8.6-3.3 1.5-3.6 2.3-.9 1.8-2.2-1-2.2-2.3 0-2.5.4-2.5 4.4zM587.1 554.3c-2.8 2.8 0 8.6 3.5 7.3 1-.4 1.4-.1 1.1.6-.2.8-1.6 1.2-3.3 1-2.8-.2-2.8-.2-1 1.3 4.3 3.3 7.6.5 7.6-6.5 0-4.8 0-4.8-3.4-4.8-1.9 0-3.9.5-4.5 1.1zm4.9 3.2c0 1.6-.6 2.5-1.5 2.5s-1.5-.9-1.5-2.5.6-2.5 1.5-2.5 1.5.9 1.5 2.5zM597 557.5c0 2.5.5 4.5 1 4.5.6 0 1-2 1-4.5s-.4-4.5-1-4.5c-.5 0-1 2-1 4.5zM601.5 554.1c-.4.6-.4 2.6-.1 4.5.7 3.2.9 3.4 4.6 3.4h4v-4.5c0-3.3-.4-4.5-1.5-4.5-1 0-1.5 1.1-1.5 3.5s-.5 3.5-1.5 3.5-1.5-1.1-1.5-3.5c0-3.4-1.2-4.6-2.5-2.4z"/><path style="fill:#0f0;fill-rule:evenodd;stroke-width:7.5" transform="matrix(.1 0 0 .1 0 588)" d="M680-3950h100v100H680z"/><path style="fill:red;stroke-width:7.5" transform="matrix(.1 0 0 .1 0 588)" d="M5710-1280h100v100h-100z"/></svg>