<?xml version="1.0" standalone="yes"?>

<svg version="1.1" viewBox="0.0 0.0 772.0 394.0" fill="none" stroke="none" stroke-linecap="square" stroke-miterlimit="10" clip-path="url(#clip0)" xmlns="http://www.w3.org/2000/svg" xmlns:xlink="http://www.w3.org/1999/xlink"><clipPath id="clip0"><path d="M0 0L772.0 0L772.0 394.0L0 394.0L0 0Z" clip-rule="nonzero"></path></clipPath><path d="M24.33071 22.897638L353.87402 22.897638L353.87402 351.1811L24.33071 351.1811Z" fill-rule="nonzero" fill="#cfe2f3" stroke="#073763" stroke-width="2.0" stroke-linejoin="round" stroke-linecap="butt"></path><path d="M132.69029 22.897638L132.69029 351.1811" fill-rule="nonzero" stroke="#073763" stroke-width="2.0" stroke-linejoin="round" stroke-linecap="butt"></path><path d="M243.03412 22.897638L243.03412 351.1811" fill-rule="nonzero" stroke="#073763" stroke-width="2.0" stroke-linejoin="round" stroke-linecap="butt"></path><path d="M25.102362 130.48294L354.99213 130.51443" fill-rule="nonzero" stroke="#073763" stroke-width="2.0" stroke-linejoin="round" stroke-linecap="butt"></path><path d="M198.67076 89.4375L198.67076 93.5L175.95201 93.5Q175.90514 91.96875 176.45201 90.5625Q177.31139 88.25 179.22545 86.0Q181.13951 83.75 184.74889 80.796875Q190.34264 76.203125 192.31139 73.515625Q194.28014 70.828125 194.28014 68.4375Q194.28014 65.9375 192.49107 64.21094Q190.70201 62.484375 187.81139 62.484375Q184.76451 62.484375 182.93639 64.3125Q181.10826 66.140625 181.09264 69.375L176.74889 68.9375Q177.20201 64.078125 180.10826 61.539062Q183.01451 59.0 187.90514 59.0Q192.85826 59.0 195.74107 61.742188Q198.62389 64.484375 198.62389 68.53125Q198.62389 70.59375 197.78014 72.58594Q196.93639 74.578125 194.97545 76.78125Q193.01451 78.984375 188.46764 82.828125Q184.67076 86.015625 183.59264 87.15625Q182.51451 88.296875 181.81139 89.4375L198.67076 89.4375Z" fill-rule="nonzero" fill="#000000"></path><path d="M300.80453 93.5L300.80453 85.265625L285.8983 85.265625L285.8983 81.40625L301.5858 59.140625L305.0233 59.140625L305.0233 81.40625L309.6639 81.40625L309.6639 85.265625L305.0233 85.265625L305.0233 93.5L300.80453 93.5ZM300.80453 81.40625L300.80453 65.90625L290.05453 81.40625L300.80453 81.40625Z" fill-rule="nonzero" fill="#000000"></path><path d="M66.735115 192.5L71.15699 192.125Q71.65699 195.35938 73.44605 196.98438Q75.235115 198.60938 77.766365 198.60938Q80.81324 198.60938 82.922615 196.3125Q85.03199 194.01562 85.03199 190.21875Q85.03199 186.60938 83.00855 184.52344Q80.985115 182.4375 77.703865 182.4375Q75.65699 182.4375 74.016365 183.36719Q72.37574 184.29688 71.43824 185.76562L67.485115 185.25L70.81324 167.60938L87.891365 167.60938L87.891365 171.64062L74.18824 171.64062L72.328865 180.875Q75.422615 178.71875 78.828865 178.71875Q83.328865 178.71875 86.422615 181.83594Q89.516365 184.95312 89.516365 189.84375Q89.516365 194.51562 86.797615 197.90625Q83.485115 202.09375 77.766365 202.09375Q73.078865 202.09375 70.11793 199.46094Q67.15699 196.82812 66.735115 192.5Z" fill-rule="nonzero" fill="#000000"></path><path d="M309.17953 175.54688L304.9764 175.875Q304.4139 173.39062 303.38266 172.26562Q301.67953 170.46875 299.1639 170.46875Q297.1483 170.46875 295.63266 171.59375Q293.63266 173.04688 292.48422 175.83594Q291.3358 178.625 291.2889 183.78125Q292.82016 181.45312 295.0233 180.32812Q297.2264 179.20312 299.63266 179.20312Q303.8514 179.20312 306.82016 182.3125Q309.7889 185.42188 309.7889 190.34375Q309.7889 193.57812 308.39047 196.35156Q306.99203 199.125 304.55453 200.60938Q302.11703 202.09375 299.0233 202.09375Q293.75766 202.09375 290.42953 198.21094Q287.1014 194.32812 287.1014 185.42188Q287.1014 175.45312 290.7733 170.9375Q293.99203 167.0 299.42953 167.0Q303.4764 167.0 306.07016 169.27344Q308.6639 171.54688 309.17953 175.54688ZM291.94516 190.35938Q291.94516 192.54688 292.87485 194.53906Q293.80453 196.53125 295.4686 197.57031Q297.13266 198.60938 298.9608 198.60938Q301.63266 198.60938 303.55453 196.45312Q305.4764 194.29688 305.4764 190.59375Q305.4764 187.03125 303.57797 184.98438Q301.67953 182.9375 298.7889 182.9375Q295.92953 182.9375 293.93735 184.98438Q291.94516 187.03125 291.94516 190.35938Z" fill-rule="nonzero" fill="#000000"></path><path d="M67.016365 63.640625L67.016365 59.578125L89.25074 59.578125L89.25074 62.859375Q85.96949 66.359375 82.75074 72.14844Q79.53199 77.9375 77.766365 84.046875Q76.50074 88.359375 76.15699 93.5L71.81324 93.5Q71.891365 89.4375 73.4148 83.69531Q74.93824 77.953125 77.78199 72.625Q80.62574 67.296875 83.84449 63.640625L67.016365 63.640625Z" fill-rule="nonzero" fill="#000000"></path><path d="M73.21949 292.85938Q70.59449 291.90625 69.328865 290.125Q68.06324 288.34375 68.06324 285.85938Q68.06324 282.10938 70.75855 279.5547Q73.453865 277.0 77.93824 277.0Q82.43824 277.0 85.18043 279.60938Q87.922615 282.21875 87.922615 285.96875Q87.922615 288.35938 86.6648 290.1328Q85.40699 291.90625 82.860115 292.85938Q86.016365 293.89062 87.672615 296.1875Q89.328865 298.48438 89.328865 301.67188Q89.328865 306.07812 86.21168 309.08594Q83.09449 312.09375 78.00074 312.09375Q72.922615 312.09375 69.80543 309.07812Q66.68824 306.0625 66.68824 301.5625Q66.68824 298.20312 68.38355 295.9453Q70.078865 293.6875 73.21949 292.85938ZM72.37574 285.71875Q72.37574 288.15625 73.94605 289.70312Q75.516365 291.25 78.03199 291.25Q80.46949 291.25 82.02418 289.71094Q83.578865 288.17188 83.578865 285.95312Q83.578865 283.625 81.9773 282.04688Q80.37574 280.46875 77.985115 280.46875Q75.56324 280.46875 73.96949 282.01562Q72.37574 283.5625 72.37574 285.71875ZM71.016365 301.57812Q71.016365 303.39062 71.87574 305.07812Q72.735115 306.76562 74.422615 307.6875Q76.110115 308.60938 78.047615 308.60938Q81.078865 308.60938 83.047615 306.66406Q85.016365 304.71875 85.016365 301.71875Q85.016365 298.67188 82.985115 296.6797Q80.953865 294.6875 77.90699 294.6875Q74.93824 294.6875 72.9773 296.65625Q71.016365 298.625 71.016365 301.57812Z" fill-rule="nonzero" fill="#000000"></path><path d="M176.51451 302.42188L180.73326 301.85938Q181.46764 305.45312 183.20982 307.03125Q184.95201 308.60938 187.46764 308.60938Q190.43639 308.60938 192.49107 306.54688Q194.54576 304.48438 194.54576 301.4375Q194.54576 298.53125 192.64732 296.64844Q190.74889 294.76562 187.81139 294.76562Q186.62389 294.76562 184.84264 295.23438L185.31139 291.53125Q185.73326 291.57812 185.98326 291.57812Q188.68639 291.57812 190.84264 290.17188Q192.99889 288.76562 192.99889 285.82812Q192.99889 283.51562 191.42857 281.9922Q189.85826 280.46875 187.37389 280.46875Q184.90514 280.46875 183.26451 282.01562Q181.62389 283.5625 181.15514 286.65625L176.93639 285.90625Q177.71764 281.65625 180.45982 279.32812Q183.20201 277.0 187.28014 277.0Q190.09264 277.0 192.45982 278.20312Q194.82701 279.40625 196.07701 281.4922Q197.32701 283.57812 197.32701 285.92188Q197.32701 288.15625 196.1317 289.98438Q194.93639 291.8125 192.59264 292.89062Q195.63951 293.59375 197.32701 295.8047Q199.01451 298.01562 199.01451 301.34375Q199.01451 305.84375 195.73326 308.97656Q192.45201 312.10938 187.43639 312.10938Q182.92076 312.10938 179.92857 309.41406Q176.93639 306.71875 176.51451 302.42188Z" fill-rule="nonzero" fill="#000000"></path><path d="M303.17953 311.5L298.9608 311.5L298.9608 284.60938Q297.42953 286.0625 294.9608 287.51562Q292.49203 288.96875 290.5233 289.70312L290.5233 285.625Q294.05453 283.95312 296.70297 281.58594Q299.3514 279.21875 300.4608 277.0L303.17953 277.0L303.17953 311.5Z" fill-rule="nonzero" fill="#000000"></path><path d="M24.110237 240.50131L354.09448 240.50131" fill-rule="nonzero" stroke="#073763" stroke-width="2.0" stroke-linejoin="round" stroke-linecap="butt"></path><path d="M422.33072 22.897638L751.874 22.897638L751.874 351.1811L422.33072 351.1811Z" fill-rule="nonzero" fill="#cfe2f3" stroke="#073763" stroke-width="2.0" stroke-linejoin="round" stroke-linecap="butt"></path><path d="M530.6903 22.897638L530.6903 351.1811" fill-rule="nonzero" stroke="#073763" stroke-width="2.0" stroke-linejoin="round" stroke-linecap="butt"></path><path d="M641.0341 22.897638L641.0341 351.1811" fill-rule="nonzero" stroke="#073763" stroke-width="2.0" stroke-linejoin="round" stroke-linecap="butt"></path><path d="M423.10236 130.48294L752.9921 130.51443" fill-rule="nonzero" stroke="#073763" stroke-width="2.0" stroke-linejoin="round" stroke-linecap="butt"></path><path d="M590.3895 93.5L586.1708 93.5L586.1708 66.609375Q584.6395 68.0625 582.1708 69.515625Q579.702 70.96875 577.7333 71.703125L577.7333 67.625Q581.2645 65.953125 583.91296 63.585938Q586.5614 61.21875 587.6708 59.0L590.3895 59.0L590.3895 93.5Z" fill-rule="nonzero" fill="#000000"></path><path d="M707.4608 89.4375L707.4608 93.5L684.74207 93.5Q684.6952 91.96875 685.24207 90.5625Q686.10144 88.25 688.0155 86.0Q689.92957 83.75 693.53894 80.796875Q699.1327 76.203125 701.10144 73.515625Q703.0702 70.828125 703.0702 68.4375Q703.0702 65.9375 701.2811 64.21094Q699.49207 62.484375 696.60144 62.484375Q693.55457 62.484375 691.72644 64.3125Q689.8983 66.140625 689.8827 69.375L685.53894 68.9375Q685.99207 64.078125 688.8983 61.539062Q691.80457 59.0 696.6952 59.0Q701.6483 59.0 704.5311 61.742188Q707.41394 64.484375 707.41394 68.53125Q707.41394 70.59375 706.5702 72.58594Q705.72644 74.578125 703.7655 76.78125Q701.80457 78.984375 697.2577 82.828125Q693.4608 86.015625 692.3827 87.15625Q691.30457 88.296875 690.60144 89.4375L707.4608 89.4375Z" fill-rule="nonzero" fill="#000000"></path><path d="M464.75073 192.42188L468.96948 191.85938Q469.70386 195.45312 471.44604 197.03125Q473.18823 198.60938 475.70386 198.60938Q478.6726 198.60938 480.7273 196.54688Q482.78198 194.48438 482.78198 191.4375Q482.78198 188.53125 480.88354 186.64844Q478.9851 184.76562 476.0476 184.76562Q474.8601 184.76562 473.07886 185.23438L473.5476 181.53125Q473.96948 181.57812 474.21948 181.57812Q476.9226 181.57812 479.07886 180.17188Q481.2351 178.76562 481.2351 175.82812Q481.2351 173.51562 479.6648 171.99219Q478.09448 170.46875 475.6101 170.46875Q473.14136 170.46875 471.50073 172.01562Q469.8601 173.5625 469.39136 176.65625L465.1726 175.90625Q465.95386 171.65625 468.69604 169.32812Q471.43823 167.0 475.51636 167.0Q478.32886 167.0 480.69604 168.20312Q483.06323 169.40625 484.31323 171.49219Q485.56323 173.57812 485.56323 175.92188Q485.56323 178.15625 484.36792 179.98438Q483.1726 181.8125 480.82886 182.89062Q483.87573 183.59375 485.56323 185.80469Q487.25073 188.01562 487.25073 191.34375Q487.25073 195.84375 483.96948 198.97656Q480.68823 202.10938 475.6726 202.10938Q471.15698 202.10938 468.1648 199.41406Q465.1726 196.71875 464.75073 192.42188Z" fill-rule="nonzero" fill="#000000"></path><path d="M588.0145 201.5L588.0145 193.26562L573.1083 193.26562L573.1083 189.40625L588.7958 167.14062L592.2333 167.14062L592.2333 189.40625L596.8739 189.40625L596.8739 193.26562L592.2333 193.26562L592.2333 201.5L588.0145 201.5ZM588.0145 189.40625L588.0145 173.90625L577.2645 189.40625L588.0145 189.40625Z" fill-rule="nonzero" fill="#000000"></path><path d="M685.28894 192.5L689.7108 192.125Q690.2108 195.35938 691.9999 196.98438Q693.78894 198.60938 696.3202 198.60938Q699.36707 198.60938 701.47644 196.3125Q703.5858 194.01562 703.5858 190.21875Q703.5858 186.60938 701.5624 184.52344Q699.53894 182.4375 696.2577 182.4375Q694.2108 182.4375 692.5702 183.36719Q690.92957 184.29688 689.99207 185.76562L686.03894 185.25L689.36707 167.60938L706.4452 167.60938L706.4452 171.64062L692.74207 171.64062L690.8827 180.875Q693.97644 178.71875 697.3827 178.71875Q701.8827 178.71875 704.97644 181.83594Q708.0702 184.95312 708.0702 189.84375Q708.0702 194.51562 705.35144 197.90625Q702.03894 202.09375 696.3202 202.09375Q691.6327 202.09375 688.67175 199.46094Q685.7108 196.82812 685.28894 192.5Z" fill-rule="nonzero" fill="#000000"></path><path d="M486.62573 285.54688L482.4226 285.875Q481.8601 283.39062 480.82886 282.26562Q479.12573 280.46875 476.6101 280.46875Q474.59448 280.46875 473.07886 281.59375Q471.07886 283.04688 469.93042 285.83594Q468.78198 288.625 468.7351 293.78125Q470.26636 291.45312 472.46948 290.32812Q474.6726 289.20312 477.07886 289.20312Q481.2976 289.20312 484.26636 292.3125Q487.2351 295.42188 487.2351 300.34375Q487.2351 303.57812 485.83667 306.35156Q484.43823 309.125 482.00073 310.60938Q479.56323 312.09375 476.46948 312.09375Q471.20386 312.09375 467.87573 308.21094Q464.5476 304.32812 464.5476 295.42188Q464.5476 285.45312 468.21948 280.9375Q471.43823 277.0 476.87573 277.0Q480.9226 277.0 483.51636 279.27344Q486.1101 281.54688 486.62573 285.54688ZM469.39136 300.35938Q469.39136 302.54688 470.32104 304.53906Q471.25073 306.53125 472.9148 307.5703Q474.57886 308.60938 476.40698 308.60938Q479.07886 308.60938 481.00073 306.45312Q482.9226 304.29688 482.9226 300.59375Q482.9226 297.03125 481.02417 294.98438Q479.12573 292.9375 476.2351 292.9375Q473.37573 292.9375 471.38354 294.98438Q469.39136 297.03125 469.39136 300.35938Z" fill-rule="nonzero" fill="#000000"></path><path d="M574.78015 281.64062L574.78015 277.57812L597.0145 277.57812L597.0145 280.85938Q593.7333 284.35938 590.5145 290.14844Q587.2958 295.9375 585.53015 302.04688Q584.2645 306.35938 583.9208 311.5L579.577 311.5Q579.65515 307.4375 581.1786 301.6953Q582.702 295.95312 585.5458 290.625Q588.3895 285.29688 591.6083 281.64062L574.78015 281.64062Z" fill-rule="nonzero" fill="#000000"></path><path d="M691.7733 292.85938Q689.1483 291.90625 687.8827 290.125Q686.61707 288.34375 686.61707 285.85938Q686.61707 282.10938 689.3124 279.5547Q692.0077 277.0 696.49207 277.0Q700.99207 277.0 703.73425 279.60938Q706.47644 282.21875 706.47644 285.96875Q706.47644 288.35938 705.2186 290.1328Q703.9608 291.90625 701.41394 292.85938Q704.5702 293.89062 706.22644 296.1875Q707.8827 298.48438 707.8827 301.67188Q707.8827 306.07812 704.7655 309.08594Q701.6483 312.09375 696.55457 312.09375Q691.47644 312.09375 688.35925 309.07812Q685.24207 306.0625 685.24207 301.5625Q685.24207 298.20312 686.9374 295.9453Q688.6327 293.6875 691.7733 292.85938ZM690.92957 285.71875Q690.92957 288.15625 692.4999 289.70312Q694.0702 291.25 696.5858 291.25Q699.0233 291.25 700.578 289.71094Q702.1327 288.17188 702.1327 285.95312Q702.1327 283.625 700.5311 282.04688Q698.92957 280.46875 696.53894 280.46875Q694.11707 280.46875 692.5233 282.01562Q690.92957 283.5625 690.92957 285.71875ZM689.5702 301.57812Q689.5702 303.39062 690.42957 305.07812Q691.28894 306.76562 692.97644 307.6875Q694.66394 308.60938 696.60144 308.60938Q699.6327 308.60938 701.60144 306.66406Q703.5702 304.71875 703.5702 301.71875Q703.5702 298.67188 701.53894 296.6797Q699.5077 294.6875 696.4608 294.6875Q693.49207 294.6875 691.5311 296.65625Q689.5702 298.625 689.5702 301.57812Z" fill-rule="nonzero" fill="#000000"></path><path d="M422.11023 240.50131L752.0945 240.50131" fill-rule="nonzero" stroke="#073763" stroke-width="2.0" stroke-linejoin="round" stroke-linecap="butt"></path><path d="M131.35938 381.46875L133.5 381.28125Q133.65625 382.5625 134.21094 383.39062Q134.76562 384.21875 135.9375 384.72656Q137.10938 385.23438 138.57812 385.23438Q139.875 385.23438 140.875 384.85156Q141.875 384.46875 142.35938 383.78906Q142.84375 383.10938 142.84375 382.3125Q142.84375 381.51562 142.375 380.90625Q141.90625 380.29688 140.82812 379.89062Q140.14062 379.625 137.77344 379.0547Q135.40625 378.48438 134.45312 377.98438Q133.21875 377.34375 132.61719 376.3828Q132.01562 375.42188 132.01562 374.25Q132.01562 372.9375 132.75781 371.8125Q133.5 370.6875 134.91406 370.10156Q136.32812 369.51562 138.0625 369.51562Q139.96875 369.51562 141.42969 370.125Q142.89062 370.73438 143.67969 371.9297Q144.46875 373.125 144.51562 374.64062L142.34375 374.8125Q142.17188 373.17188 141.15625 372.34375Q140.14062 371.51562 138.15625 371.51562Q136.09375 371.51562 135.14844 372.27344Q134.20312 373.03125 134.20312 374.09375Q134.20312 375.01562 134.875 375.60938Q135.53125 376.21875 138.30469 376.84375Q141.07812 377.46875 142.10938 377.9375Q143.60938 378.625 144.32031 379.6875Q145.03125 380.75 145.03125 382.125Q145.03125 383.5 144.25 384.71094Q143.46875 385.92188 142.0 386.60156Q140.53125 387.28125 138.6875 387.28125Q136.35938 387.28125 134.78125 386.60156Q133.20312 385.92188 132.30469 384.5547Q131.40625 383.1875 131.35938 381.46875ZM152.48438 385.09375L152.79688 386.95312Q151.90625 387.15625 151.20312 387.15625Q150.04688 387.15625 149.41406 386.78906Q148.78125 386.42188 148.52344 385.82812Q148.26562 385.23438 148.26562 383.34375L148.26562 376.17188L146.71875 376.17188L146.71875 374.53125L148.26562 374.53125L148.26562 371.45312L150.35938 370.1875L150.35938 374.53125L152.48438 374.53125L152.48438 376.17188L150.35938 376.17188L150.35938 383.45312Q150.35938 384.35938 150.47656 384.6172Q150.59375 384.875 150.84375 385.02344Q151.09375 385.17188 151.5625 385.17188Q151.90625 385.17188 152.48438 385.09375ZM162.67188 385.45312Q161.5 386.4375 160.41406 386.85156Q159.32812 387.26562 158.09375 387.26562Q156.04688 387.26562 154.94531 386.26562Q153.84375 385.26562 153.84375 383.70312Q153.84375 382.78125 154.25781 382.03125Q154.67188 381.28125 155.34375 380.8203Q156.01562 380.35938 156.85938 380.125Q157.48438 379.96875 158.73438 379.8125Q161.29688 379.5 162.5 379.07812Q162.51562 378.65625 162.51562 378.53125Q162.51562 377.25 161.90625 376.71875Q161.10938 376.0 159.51562 376.0Q158.01562 376.0 157.3125 376.52344Q156.60938 377.04688 156.26562 378.375L154.20312 378.09375Q154.48438 376.76562 155.125 375.95312Q155.76562 375.14062 156.98438 374.6953Q158.20312 374.25 159.8125 374.25Q161.40625 374.25 162.40625 374.625Q163.40625 375.0 163.875 375.5703Q164.34375 376.14062 164.53125 377.01562Q164.625 377.54688 164.625 378.95312L164.625 381.76562Q164.625 384.70312 164.76562 385.48438Q164.90625 386.26562 165.29688 386.98438L163.09375 386.98438Q162.76562 386.32812 162.67188 385.45312ZM162.5 380.73438Q161.34375 381.20312 159.04688 381.53125Q157.75 381.71875 157.21094 381.95312Q156.67188 382.1875 156.38281 382.64062Q156.09375 383.09375 156.09375 383.64062Q156.09375 384.48438 156.72656 385.04688Q157.35938 385.60938 158.59375 385.60938Q159.8125 385.60938 160.76562 385.07812Q161.71875 384.54688 162.15625 383.625Q162.5 382.90625 162.5 381.51562L162.5 380.73438ZM167.875 386.98438L167.875 374.53125L169.76562 374.53125L169.76562 376.42188Q170.5 375.09375 171.11719 374.67188Q171.73438 374.25 172.46875 374.25Q173.53125 374.25 174.64062 374.9375L173.90625 376.89062Q173.14062 376.4375 172.35938 376.4375Q171.67188 376.4375 171.11719 376.85156Q170.5625 377.26562 170.32812 378.0Q169.98438 379.125 169.98438 380.46875L169.98438 386.98438L167.875 386.98438ZM180.48438 385.09375L180.79688 386.95312Q179.90625 387.15625 179.20312 387.15625Q178.04688 387.15625 177.41406 386.78906Q176.78125 386.42188 176.52344 385.82812Q176.26562 385.23438 176.26562 383.34375L176.26562 376.17188L174.71875 376.17188L174.71875 374.53125L176.26562 374.53125L176.26562 371.45312L178.35938 370.1875L178.35938 374.53125L180.48438 374.53125L180.48438 376.17188L178.35938 376.17188L178.35938 383.45312Q178.35938 384.35938 178.47656 384.6172Q178.59375 384.875 178.84375 385.02344Q179.09375 385.17188 179.5625 385.17188Q179.90625 385.17188 180.48438 385.09375ZM188.71875 381.46875L190.85938 381.28125Q191.01562 382.5625 191.57031 383.39062Q192.125 384.21875 193.29688 384.72656Q194.46875 385.23438 195.9375 385.23438Q197.23438 385.23438 198.23438 384.85156Q199.23438 384.46875 199.71875 383.78906Q200.20312 383.10938 200.20312 382.3125Q200.20312 381.51562 199.73438 380.90625Q199.26562 380.29688 198.1875 379.89062Q197.5 379.625 195.13281 379.0547Q192.76562 378.48438 191.8125 377.98438Q190.57812 377.34375 189.97656 376.3828Q189.375 375.42188 189.375 374.25Q189.375 372.9375 190.11719 371.8125Q190.85938 370.6875 192.27344 370.10156Q193.6875 369.51562 195.42188 369.51562Q197.32812 369.51562 198.78906 370.125Q200.25 370.73438 201.03906 371.9297Q201.82812 373.125 201.875 374.64062L199.70312 374.8125Q199.53125 373.17188 198.51562 372.34375Q197.5 371.51562 195.51562 371.51562Q193.45312 371.51562 192.50781 372.27344Q191.5625 373.03125 191.5625 374.09375Q191.5625 375.01562 192.23438 375.60938Q192.89062 376.21875 195.66406 376.84375Q198.4375 377.46875 199.46875 377.9375Q200.96875 378.625 201.67969 379.6875Q202.39062 380.75 202.39062 382.125Q202.39062 383.5 201.60938 384.71094Q200.82812 385.92188 199.35938 386.60156Q197.89062 387.28125 196.04688 387.28125Q193.71875 387.28125 192.14062 386.60156Q190.5625 385.92188 189.66406 384.5547Q188.76562 383.1875 188.71875 381.46875ZM209.82812 385.09375L210.14062 386.95312Q209.25 387.15625 208.54688 387.15625Q207.39062 387.15625 206.75781 386.78906Q206.125 386.42188 205.86719 385.82812Q205.60938 385.23438 205.60938 383.34375L205.60938 376.17188L204.0625 376.17188L204.0625 374.53125L205.60938 374.53125L205.60938 371.45312L207.70312 370.1875L207.70312 374.53125L209.82812 374.53125L209.82812 376.17188L207.70312 376.17188L207.70312 383.45312Q207.70312 384.35938 207.82031 384.6172Q207.9375 384.875 208.1875 385.02344Q208.4375 385.17188 208.90625 385.17188Q209.25 385.17188 209.82812 385.09375ZM220.01562 385.45312Q218.84375 386.4375 217.75781 386.85156Q216.67188 387.26562 215.4375 387.26562Q213.39062 387.26562 212.28906 386.26562Q211.1875 385.26562 211.1875 383.70312Q211.1875 382.78125 211.60156 382.03125Q212.01562 381.28125 212.6875 380.8203Q213.35938 380.35938 214.20312 380.125Q214.82812 379.96875 216.07812 379.8125Q218.64062 379.5 219.84375 379.07812Q219.85938 378.65625 219.85938 378.53125Q219.85938 377.25 219.25 376.71875Q218.45312 376.0 216.85938 376.0Q215.35938 376.0 214.65625 376.52344Q213.95312 377.04688 213.60938 378.375L211.54688 378.09375Q211.82812 376.76562 212.46875 375.95312Q213.10938 375.14062 214.32812 374.6953Q215.54688 374.25 217.15625 374.25Q218.75 374.25 219.75 374.625Q220.75 375.0 221.21875 375.5703Q221.6875 376.14062 221.875 377.01562Q221.96875 377.54688 221.96875 378.95312L221.96875 381.76562Q221.96875 384.70312 222.10938 385.48438Q222.25 386.26562 222.64062 386.98438L220.4375 386.98438Q220.10938 386.32812 220.01562 385.45312ZM219.84375 380.73438Q218.6875 381.20312 216.39062 381.53125Q215.09375 381.71875 214.55469 381.95312Q214.01562 382.1875 213.72656 382.64062Q213.4375 383.09375 213.4375 383.64062Q213.4375 384.48438 214.07031 385.04688Q214.70312 385.60938 215.9375 385.60938Q217.15625 385.60938 218.10938 385.07812Q219.0625 384.54688 219.5 383.625Q219.84375 382.90625 219.84375 381.51562L219.84375 380.73438ZM229.84375 385.09375L230.15625 386.95312Q229.26562 387.15625 228.5625 387.15625Q227.40625 387.15625 226.77344 386.78906Q226.14062 386.42188 225.88281 385.82812Q225.625 385.23438 225.625 383.34375L225.625 376.17188L224.07812 376.17188L224.07812 374.53125L225.625 374.53125L225.625 371.45312L227.71875 370.1875L227.71875 374.53125L229.84375 374.53125L229.84375 376.17188L227.71875 376.17188L227.71875 383.45312Q227.71875 384.35938 227.83594 384.6172Q227.95312 384.875 228.20312 385.02344Q228.45312 385.17188 228.92188 385.17188Q229.26562 385.17188 229.84375 385.09375ZM240.4375 382.96875L242.60938 383.25Q242.09375 385.15625 240.70312 386.21094Q239.3125 387.26562 237.14062 387.26562Q234.40625 387.26562 232.80469 385.58594Q231.20312 383.90625 231.20312 380.85938Q231.20312 377.71875 232.82031 375.98438Q234.4375 374.25 237.01562 374.25Q239.51562 374.25 241.10156 375.95312Q242.6875 377.65625 242.6875 380.73438Q242.6875 380.92188 242.67188 381.29688L233.39062 381.29688Q233.5 383.34375 234.54688 384.4375Q235.59375 385.53125 237.15625 385.53125Q238.3125 385.53125 239.13281 384.92188Q239.95312 384.3125 240.4375 382.96875ZM233.5 379.5625L240.45312 379.5625Q240.3125 378.0 239.65625 377.20312Q238.65625 375.98438 237.04688 375.98438Q235.59375 375.98438 234.60156 376.96094Q233.60938 377.9375 233.5 379.5625Z" fill-rule="nonzero" fill="#000000"></path><path d="M541.1875 380.25L541.1875 378.23438L548.46875 378.21875L548.46875 384.59375Q546.7969 385.92188 545.0156 386.60156Q543.2344 387.28125 541.3594 387.28125Q538.8281 387.28125 536.7578 386.1953Q534.6875 385.10938 533.6328 383.0547Q532.5781 381.0 532.5781 378.46875Q532.5781 375.96875 533.625 373.79688Q534.6719 371.625 536.6406 370.5703Q538.6094 369.51562 541.1719 369.51562Q543.0469 369.51562 544.5469 370.1172Q546.0469 370.71875 546.90625 371.79688Q547.7656 372.875 548.2031 374.60938L546.15625 375.17188Q545.7656 373.85938 545.1953 373.10938Q544.625 372.35938 543.5547 371.90625Q542.4844 371.45312 541.1875 371.45312Q539.625 371.45312 538.4922 371.9297Q537.3594 372.40625 536.66406 373.1797Q535.96875 373.95312 535.5781 374.875Q534.9219 376.46875 534.9219 378.32812Q534.9219 380.625 535.71094 382.17188Q536.5 383.71875 538.0156 384.46875Q539.53125 385.21875 541.21875 385.21875Q542.7031 385.21875 544.1094 384.65625Q545.5156 384.09375 546.2344 383.4375L546.2344 380.25L541.1875 380.25ZM550.75 380.76562Q550.75 377.29688 552.6719 375.64062Q554.28125 374.25 556.59375 374.25Q559.15625 374.25 560.78125 375.9375Q562.40625 377.625 562.40625 380.57812Q562.40625 382.98438 561.6875 384.35938Q560.96875 385.73438 559.59375 386.5Q558.21875 387.26562 556.59375 387.26562Q553.96875 387.26562 552.3594 385.58594Q550.75 383.90625 550.75 380.76562ZM552.9219 380.76562Q552.9219 383.15625 553.96094 384.34375Q555.0 385.53125 556.59375 385.53125Q558.15625 385.53125 559.2031 384.33594Q560.25 383.14062 560.25 380.6875Q560.25 378.375 559.1953 377.1875Q558.1406 376.0 556.59375 376.0Q555.0 376.0 553.96094 377.1875Q552.9219 378.375 552.9219 380.76562ZM573.0156 385.45312Q571.84375 386.4375 570.7578 386.85156Q569.6719 387.26562 568.4375 387.26562Q566.3906 387.26562 565.28906 386.26562Q564.1875 385.26562 564.1875 383.70312Q564.1875 382.78125 564.60156 382.03125Q565.0156 381.28125 565.6875 380.8203Q566.3594 380.35938 567.2031 380.125Q567.8281 379.96875 569.0781 379.8125Q571.6406 379.5 572.84375 379.07812Q572.8594 378.65625 572.8594 378.53125Q572.8594 377.25 572.25 376.71875Q571.4531 376.0 569.8594 376.0Q568.3594 376.0 567.65625 376.52344Q566.9531 377.04688 566.6094 378.375L564.5469 378.09375Q564.8281 376.76562 565.46875 375.95312Q566.1094 375.14062 567.3281 374.6953Q568.5469 374.25 570.15625 374.25Q571.75 374.25 572.75 374.625Q573.75 375.0 574.21875 375.5703Q574.6875 376.14062 574.875 377.01562Q574.96875 377.54688 574.96875 378.95312L574.96875 381.76562Q574.96875 384.70312 575.1094 385.48438Q575.25 386.26562 575.6406 386.98438L573.4375 386.98438Q573.1094 386.32812 573.0156 385.45312ZM572.84375 380.73438Q571.6875 381.20312 569.3906 381.53125Q568.09375 381.71875 567.5547 381.95312Q567.0156 382.1875 566.72656 382.64062Q566.4375 383.09375 566.4375 383.64062Q566.4375 384.48438 567.0703 385.04688Q567.7031 385.60938 568.9375 385.60938Q570.15625 385.60938 571.1094 385.07812Q572.0625 384.54688 572.5 383.625Q572.84375 382.90625 572.84375 381.51562L572.84375 380.73438ZM578.1875 386.98438L578.1875 369.79688L580.2969 369.79688L580.2969 386.98438L578.1875 386.98438ZM589.7344 381.46875L591.875 381.28125Q592.03125 382.5625 592.58594 383.39062Q593.1406 384.21875 594.3125 384.72656Q595.4844 385.23438 596.9531 385.23438Q598.25 385.23438 599.25 384.85156Q600.25 384.46875 600.7344 383.78906Q601.21875 383.10938 601.21875 382.3125Q601.21875 381.51562 600.75 380.90625Q600.28125 380.29688 599.2031 379.89062Q598.5156 379.625 596.14844 379.0547Q593.78125 378.48438 592.8281 377.98438Q591.59375 377.34375 590.9922 376.3828Q590.3906 375.42188 590.3906 374.25Q590.3906 372.9375 591.1328 371.8125Q591.875 370.6875 593.28906 370.10156Q594.7031 369.51562 596.4375 369.51562Q598.34375 369.51562 599.8047 370.125Q601.2656 370.73438 602.0547 371.9297Q602.84375 373.125 602.8906 374.64062L600.71875 374.8125Q600.5469 373.17188 599.53125 372.34375Q598.5156 371.51562 596.53125 371.51562Q594.46875 371.51562 593.52344 372.27344Q592.5781 373.03125 592.5781 374.09375Q592.5781 375.01562 593.25 375.60938Q593.90625 376.21875 596.6797 376.84375Q599.4531 377.46875 600.4844 377.9375Q601.9844 378.625 602.6953 379.6875Q603.40625 380.75 603.40625 382.125Q603.40625 383.5 602.625 384.71094Q601.84375 385.92188 600.375 386.60156Q598.90625 387.28125 597.0625 387.28125Q594.7344 387.28125 593.15625 386.60156Q591.5781 385.92188 590.6797 384.5547Q589.78125 383.1875 589.7344 381.46875ZM610.84375 385.09375L611.15625 386.95312Q610.2656 387.15625 609.5625 387.15625Q608.40625 387.15625 607.77344 386.78906Q607.1406 386.42188 606.8828 385.82812Q606.625 385.23438 606.625 383.34375L606.625 376.17188L605.0781 376.17188L605.0781 374.53125L606.625 374.53125L606.625 371.45312L608.71875 370.1875L608.71875 374.53125L610.84375 374.53125L610.84375 376.17188L608.71875 376.17188L608.71875 383.45312Q608.71875 384.35938 608.83594 384.6172Q608.9531 384.875 609.2031 385.02344Q609.4531 385.17188 609.9219 385.17188Q610.2656 385.17188 610.84375 385.09375ZM621.03125 385.45312Q619.8594 386.4375 618.77344 386.85156Q617.6875 387.26562 616.4531 387.26562Q614.40625 387.26562 613.3047 386.26562Q612.2031 385.26562 612.2031 383.70312Q612.2031 382.78125 612.6172 382.03125Q613.03125 381.28125 613.7031 380.8203Q614.375 380.35938 615.21875 380.125Q615.84375 379.96875 617.09375 379.8125Q619.65625 379.5 620.8594 379.07812Q620.875 378.65625 620.875 378.53125Q620.875 377.25 620.2656 376.71875Q619.46875 376.0 617.875 376.0Q616.375 376.0 615.6719 376.52344Q614.96875 377.04688 614.625 378.375L612.5625 378.09375Q612.84375 376.76562 613.4844 375.95312Q614.125 375.14062 615.34375 374.6953Q616.5625 374.25 618.1719 374.25Q619.7656 374.25 620.7656 374.625Q621.7656 375.0 622.2344 375.5703Q622.7031 376.14062 622.8906 377.01562Q622.9844 377.54688 622.9844 378.95312L622.9844 381.76562Q622.9844 384.70312 623.125 385.48438Q623.2656 386.26562 623.65625 386.98438L621.4531 386.98438Q621.125 386.32812 621.03125 385.45312ZM620.8594 380.73438Q619.7031 381.20312 617.40625 381.53125Q616.1094 381.71875 615.5703 381.95312Q615.03125 382.1875 614.7422 382.64062Q614.4531 383.09375 614.4531 383.64062Q614.4531 384.48438 615.08594 385.04688Q615.71875 385.60938 616.9531 385.60938Q618.1719 385.60938 619.125 385.07812Q620.0781 384.54688 620.5156 383.625Q620.8594 382.90625 620.8594 381.51562L620.8594 380.73438ZM630.8594 385.09375L631.1719 386.95312Q630.28125 387.15625 629.5781 387.15625Q628.4219 387.15625 627.78906 386.78906Q627.15625 386.42188 626.89844 385.82812Q626.6406 385.23438 626.6406 383.34375L626.6406 376.17188L625.09375 376.17188L625.09375 374.53125L626.6406 374.53125L626.6406 371.45312L628.7344 370.1875L628.7344 374.53125L630.8594 374.53125L630.8594 376.17188L628.7344 376.17188L628.7344 383.45312Q628.7344 384.35938 628.85156 384.6172Q628.96875 384.875 629.21875 385.02344Q629.46875 385.17188 629.9375 385.17188Q630.28125 385.17188 630.8594 385.09375ZM641.4531 382.96875L643.625 383.25Q643.1094 385.15625 641.71875 386.21094Q640.3281 387.26562 638.15625 387.26562Q635.4219 387.26562 633.8203 385.58594Q632.21875 383.90625 632.21875 380.85938Q632.21875 377.71875 633.83594 375.98438Q635.4531 374.25 638.03125 374.25Q640.53125 374.25 642.1172 375.95312Q643.7031 377.65625 643.7031 380.73438Q643.7031 380.92188 643.6875 381.29688L634.40625 381.29688Q634.5156 383.34375 635.5625 384.4375Q636.6094 385.53125 638.1719 385.53125Q639.3281 385.53125 640.14844 384.92188Q640.96875 384.3125 641.4531 382.96875ZM634.5156 379.5625L641.46875 379.5625Q641.3281 378.0 640.6719 377.20312Q639.6719 375.98438 638.0625 375.98438Q636.6094 375.98438 635.6172 376.96094Q634.625 377.9375 634.5156 379.5625Z" fill-rule="nonzero" fill="#000000"></path></svg>

