<svg version="1.1" xmlns="http://www.w3.org/2000/svg" viewBox="0 0 766.9628491963915 201.00000000000006" width="766.9628491963915" height="201.00000000000006">
  <!-- svg-source:excalidraw -->
  
  <defs>
    <style class="style-fonts">
      @font-face {
        font-family: "Virgil";
        src: url("https://excalidraw.com/Virgil.woff2");
      }
      @font-face {
        font-family: "Cascadia";
        src: url("https://excalidraw.com/Cascadia.woff2");
      }
      @font-face {
        font-family: "Assistant";
        src: url("https://excalidraw.com/Assistant-Regular.woff2");
      }
    </style>
    
  </defs>
  <g stroke-linecap="round" transform="translate(10 47.46284919639186) rotate(0 132.5 54)"><path d="M4.1 10.19 C4.1 10.19, 4.1 10.19, 4.1 10.19 M4.1 10.19 C4.1 10.19, 4.1 10.19, 4.1 10.19 M0.56 20.36 C4.81 16.05, 7.35 10.89, 16.96 1.5 M0.56 20.36 C3.67 16.32, 6.94 12.78, 16.96 1.5 M0.96 26.01 C11.12 15.89, 19.61 8, 22.61 1.1 M0.96 26.01 C6.67 21.4, 10.18 14.98, 22.61 1.1 M1.35 31.65 C12.78 19.39, 20.78 10.93, 28.91 -0.05 M1.35 31.65 C11.21 20.76, 20.92 9.97, 28.91 -0.05 M1.09 38.05 C10.39 28.41, 19.94 16.88, 33.89 0.31 M1.09 38.05 C9.84 27.5, 19.39 17.83, 33.89 0.31 M0.83 44.45 C7.63 35.48, 20.06 21.92, 39.54 -0.08 M0.83 44.45 C14.73 27.31, 30.42 9.46, 39.54 -0.08 M1.22 50.09 C16.45 35.27, 29.87 17.14, 44.52 0.28 M1.22 50.09 C11.89 37.3, 24.1 24.48, 44.52 0.28 M0.96 56.49 C19.18 34.85, 37.68 13.92, 49.51 0.64 M0.96 56.49 C19.16 36.12, 37.06 14.51, 49.51 0.64 M1.36 62.13 C19.73 39.06, 43.54 16.92, 55.15 0.24 M1.36 62.13 C17.36 44.45, 31.38 27.09, 55.15 0.24 M1.1 68.53 C23.09 40.2, 48.78 12.94, 60.14 0.6 M1.1 68.53 C24.69 40.52, 49.13 13.34, 60.14 0.6 M0.83 74.93 C19.79 50.16, 39.83 29.16, 65.78 0.21 M0.83 74.93 C21.06 50.68, 43.21 25.91, 65.78 0.21 M1.23 80.57 C24.48 52.65, 48.72 26.84, 70.77 0.57 M1.23 80.57 C19.91 60.69, 36.61 40.39, 70.77 0.57 M0.31 87.72 C25.71 54.94, 51.67 26.92, 76.41 0.17 M0.31 87.72 C25.11 59.34, 49.6 30.59, 76.41 0.17 M2.02 91.85 C26.73 62.4, 51.73 30.55, 81.4 0.53 M2.02 91.85 C29.4 59.21, 59.09 26.66, 81.4 0.53 M3.72 95.99 C23.04 73.79, 42.13 53.27, 87.04 0.14 M3.72 95.99 C28.24 68.75, 52.44 42.16, 87.04 0.14 M6.09 99.37 C32.15 69.71, 57.35 36.56, 92.03 0.5 M6.09 99.37 C26.15 75.38, 48.77 51.05, 92.03 0.5 M8.45 102.75 C43.22 61.58, 76.12 24.64, 97.67 0.11 M8.45 102.75 C26.8 81.43, 46.03 60.91, 97.67 0.11 M12.12 104.62 C42.51 68.77, 72.61 33.88, 102.66 0.47 M12.12 104.62 C37.57 73.99, 64.4 44.25, 102.66 0.47 M15.8 106.49 C44.18 69.19, 75.82 34.76, 108.3 0.07 M15.8 106.49 C47.87 69.92, 79.91 33.09, 108.3 0.07 M20.13 107.6 C40.22 85.62, 62.12 61.17, 113.29 0.43 M20.13 107.6 C52.01 71.09, 83.42 34.27, 113.29 0.43 M25.12 107.96 C55.46 73.06, 87.32 36.79, 118.93 0.04 M25.12 107.96 C56.27 74.21, 85.24 39.06, 118.93 0.04 M30.1 108.32 C63.26 72.2, 95.62 30.43, 123.92 0.4 M30.1 108.32 C58.13 75.2, 89.99 39.24, 123.92 0.4 M35.09 108.68 C62.94 75.59, 89.91 45.51, 129.56 0 M35.09 108.68 C55.08 83.53, 76.26 59.14, 129.56 0 M40.73 108.29 C66.16 77.73, 92.73 44.68, 134.55 0.36 M40.73 108.29 C61.75 84.31, 85.62 56.74, 134.55 0.36 M45.72 108.65 C74.01 76.54, 105.3 42.1, 140.19 -0.03 M45.72 108.65 C75.89 72.37, 106.72 37.54, 140.19 -0.03 M51.36 108.25 C78.58 79.51, 100.81 48.51, 145.18 0.33 M51.36 108.25 C84.23 73.25, 114.49 37.03, 145.18 0.33 M56.35 108.61 C82.9 76.01, 111.52 44.59, 150.82 -0.07 M56.35 108.61 C92 66.87, 126.7 26.94, 150.82 -0.07 M61.99 108.22 C97.83 67.52, 135.46 25.45, 155.81 0.29 M61.99 108.22 C96.7 67.71, 131.84 28.69, 155.81 0.29 M66.98 108.58 C97.51 71.92, 129.65 37.28, 161.45 -0.1 M66.98 108.58 C91.65 79.49, 117.56 49.6, 161.45 -0.1 M72.63 108.18 C106.42 65.76, 144.71 21.93, 166.44 0.26 M72.63 108.18 C104.01 73.05, 133.78 37.73, 166.44 0.26 M77.61 108.54 C112.45 70.24, 144.55 33.6, 171.43 0.62 M77.61 108.54 C112.04 67.47, 148.33 27.25, 171.43 0.62 M83.26 108.15 C107.88 81.48, 131.84 50.51, 177.07 0.22 M83.26 108.15 C110.15 75.22, 139.36 43.25, 177.07 0.22 M88.24 108.51 C113.4 78.07, 135.62 53.13, 182.06 0.58 M88.24 108.51 C111.18 80.86, 135.78 53.14, 182.06 0.58 M93.89 108.11 C124.7 76.17, 150.68 42.15, 187.7 0.19 M93.89 108.11 C113.3 84.89, 133.47 61.98, 187.7 0.19 M98.87 108.47 C135.25 66.18, 172.43 23.85, 192.69 0.55 M98.87 108.47 C130.88 73.58, 160.19 38.47, 192.69 0.55 M104.52 108.08 C140.12 67.09, 173.72 27.19, 198.33 0.16 M104.52 108.08 C134.06 75.85, 161.95 42.68, 198.33 0.16 M109.5 108.44 C133.55 81.35, 157.17 49.71, 203.32 0.52 M109.5 108.44 C146.29 66.99, 180.78 27.15, 203.32 0.52 M115.15 108.04 C139.16 76.4, 165.26 48.21, 208.96 0.12 M115.15 108.04 C138.71 82.05, 160.44 56.33, 208.96 0.12 M120.13 108.4 C139.88 86.39, 159.19 63.46, 213.95 0.48 M120.13 108.4 C143.77 80.25, 169.05 52.8, 213.95 0.48 M125.78 108.01 C144.75 84.19, 164.53 63.01, 219.59 0.09 M125.78 108.01 C164.1 64.87, 199.25 23.14, 219.59 0.09 M130.76 108.37 C164.42 69.5, 198.46 30.7, 224.58 0.45 M130.76 108.37 C149.09 86.14, 169.2 66.19, 224.58 0.45 M135.75 108.73 C162.69 78.14, 187.82 48.06, 230.22 0.05 M135.75 108.73 C169.75 69.92, 204.93 28.86, 230.22 0.05 M141.39 108.34 C167.87 79.57, 193.31 49.6, 235.21 0.41 M141.39 108.34 C170.34 74.95, 200.03 41.1, 235.21 0.41 M146.38 108.7 C179.46 68.55, 216.08 29.39, 240.2 0.77 M146.38 108.7 C176.02 77.3, 203.21 44.24, 240.2 0.77 M152.02 108.3 C177.32 81.58, 202.09 54.14, 245.18 1.13 M152.02 108.3 C177.34 82.83, 200.11 55.25, 245.18 1.13 M157.01 108.66 C184.75 78.48, 216.41 44.03, 250.17 1.49 M157.01 108.66 C186.01 74.86, 214.25 41.62, 250.17 1.49 M162.65 108.27 C190.69 78.08, 220.22 46.52, 253.19 4.12 M162.65 108.27 C194.89 70.01, 229.86 32.19, 253.19 4.12 M167.64 108.63 C194.49 77.15, 221.81 49.99, 256.86 5.99 M167.64 108.63 C191.17 81.15, 215.39 53.37, 256.86 5.99 M173.28 108.23 C202.3 72.99, 230.91 39.53, 259.88 8.61 M173.28 108.23 C204.69 72.64, 237.17 35.51, 259.88 8.61 M178.27 108.59 C200.07 82.19, 221.89 56.43, 262.25 11.99 M178.27 108.59 C201.12 82.77, 222.66 58.01, 262.25 11.99 M183.91 108.2 C210.34 76.84, 236.87 48.22, 263.3 16.88 M183.91 108.2 C202.51 86.75, 220.58 64.21, 263.3 16.88 M188.9 108.56 C214.59 80.41, 239.32 47.92, 265 21.01 M188.9 108.56 C211.12 82.61, 235.36 56.17, 265 21.01 M194.54 108.16 C213.82 88.08, 227.33 70.05, 264.74 27.41 M194.54 108.16 C216.6 84.49, 239.09 58.94, 264.74 27.41 M199.53 108.52 C220.22 83.2, 241.03 57.92, 265.14 33.05 M199.53 108.52 C226.07 77.28, 251.91 48.46, 265.14 33.05 M205.17 108.13 C219.26 90.4, 235.93 76.12, 264.87 39.45 M205.17 108.13 C219.65 92.44, 233.24 76.4, 264.87 39.45 M210.16 108.49 C225.98 91.76, 242.78 72.96, 265.27 45.09 M210.16 108.49 C227.09 88.63, 243.81 70.3, 265.27 45.09 M215.8 108.09 C228.94 93.38, 243.1 75.41, 265.01 51.49 M215.8 108.09 C233.27 87.66, 252.28 65.89, 265.01 51.49 M220.79 108.45 C235.35 89.94, 252.35 72.24, 265.4 57.13 M220.79 108.45 C238.29 89.07, 253.73 71.8, 265.4 57.13 M226.43 108.06 C243.74 89.89, 258.74 72.73, 265.14 63.53 M226.43 108.06 C242.84 90.24, 256.73 73.05, 265.14 63.53 M231.42 108.42 C239.02 97.2, 248.45 89.69, 265.54 69.17 M231.42 108.42 C240.57 97.51, 251.17 85.31, 265.54 69.17 M237.06 108.03 C245.37 99.82, 253.55 88.99, 265.27 75.57 M237.06 108.03 C247.24 96.38, 257.77 84.72, 265.27 75.57 M242.71 107.63 C245.92 101.67, 253.63 94.98, 265.67 81.22 M242.71 107.63 C250.79 98.56, 259.74 88.57, 265.67 81.22 M249.01 106.48 C251.87 102.32, 255.34 96.94, 264.75 88.37 M249.01 106.48 C253.38 99.55, 260.36 95.42, 264.75 88.37" stroke="#a5d8ff" stroke-width="0.5" fill="none"></path><path d="M27 0 C100.19 -2.41, 176.17 -2.86, 238 0 M27 0 C110.75 -0.26, 195.67 -1.3, 238 0 M238 0 C256.64 1.92, 265.7 9.81, 265 27 M238 0 C257.31 0.05, 265.72 9.01, 265 27 M265 27 C265.14 39.46, 265.57 51.73, 265 81 M265 27 C265.41 42.54, 264.32 60.17, 265 81 M265 81 C264.87 98.81, 257.27 106.99, 238 108 M265 81 C266.41 100.04, 256.35 108.28, 238 108 M238 108 C186.01 108.78, 129.8 110.13, 27 108 M238 108 C165.33 107.9, 92.54 108.85, 27 108 M27 108 C7.11 109.32, -1.22 97, 0 81 M27 108 C8.5 110.1, -1.59 100.27, 0 81 M0 81 C0.53 67.4, -1.13 54.68, 0 27 M0 81 C0.56 70.3, 0.73 57.17, 0 27 M0 27 C-0.82 10.53, 8.1 -0.64, 27 0 M0 27 C-1.57 10.37, 8.1 -1.97, 27 0" stroke="#1e1e1e" stroke-width="1" fill="none"></path></g><g transform="translate(104 14) rotate(0 32.51996612548828 12.5)"><text x="0" y="0" font-family="Virgil, Segoe UI Emoji" font-size="20px" fill="#1e1e1e" text-anchor="start" style="white-space: pre;" direction="ltr" dominant-baseline="text-before-edge">Cliente</text></g><g transform="translate(15 72.66284919639185) rotate(0 121.875 28.80000000000001)"><text x="0" y="0" font-family="Cascadia, Segoe UI Emoji" font-size="16px" fill="#1e1e1e" text-anchor="start" style="white-space: pre;" direction="ltr" dominant-baseline="text-before-edge">...</text><text x="0" y="19.2" font-family="Cascadia, Segoe UI Emoji" font-size="16px" fill="#1e1e1e" text-anchor="start" style="white-space: pre;" direction="ltr" dominant-baseline="text-before-edge"> r = serverFunc( p1, p2 );</text><text x="0" y="38.4" font-family="Cascadia, Segoe UI Emoji" font-size="16px" fill="#1e1e1e" text-anchor="start" style="white-space: pre;" direction="ltr" dominant-baseline="text-before-edge">...</text></g><g transform="translate(518.3000488281248 10) rotate(0 38.799957275390625 12.5)"><text x="0" y="0" font-family="Virgil, Segoe UI Emoji" font-size="20px" fill="#1e1e1e" text-anchor="start" style="white-space: pre;" direction="ltr" dominant-baseline="text-before-edge">Servidor</text></g><g stroke-linecap="round" transform="translate(387.9628491963915 42) rotate(0 184.5 74.50000000000003)"><path d="M7.86 8.16 C7.86 8.16, 7.86 8.16, 7.86 8.16 M7.86 8.16 C7.86 8.16, 7.86 8.16, 7.86 8.16 M3.66 19.09 C9.54 11.32, 16.38 8.08, 18.1 2.48 M3.66 19.09 C6.91 15.75, 11.32 10.09, 18.1 2.48 M2.75 26.24 C9.94 19.23, 13.34 14.51, 24.4 1.33 M2.75 26.24 C9.63 17.49, 18.48 9.34, 24.4 1.33 M2.48 32.64 C9.52 24.97, 16.88 17, 30.7 0.18 M2.48 32.64 C13.41 20.72, 23.54 8.13, 30.7 0.18 M2.88 38.28 C11.14 28.94, 21.18 16.75, 34.37 2.05 M2.88 38.28 C15.44 25.58, 25.83 11.79, 34.37 2.05 M2.62 44.68 C15.22 30.48, 26.46 16.28, 39.36 2.41 M2.62 44.68 C11.74 34.79, 19.23 25.42, 39.36 2.41 M2.36 51.07 C14.38 38.41, 26.21 26.68, 45 2.02 M2.36 51.07 C17.35 33.78, 32.62 16.36, 45 2.02 M2.75 56.72 C15.69 42.03, 26.29 30.46, 49.99 2.38 M2.75 56.72 C21.08 37.26, 39.8 15.35, 49.99 2.38 M2.49 63.11 C21.87 39.04, 42.31 19.87, 55.63 1.98 M2.49 63.11 C13.5 50.25, 25.1 37.56, 55.63 1.98 M2.88 68.76 C12.93 56.3, 24.42 41.91, 60.62 2.34 M2.88 68.76 C16.87 51.22, 32.92 34.21, 60.62 2.34 M2.62 75.16 C27.16 48.47, 50.79 20.23, 66.26 1.95 M2.62 75.16 C26.14 48.26, 50.5 19.98, 66.26 1.95 M2.36 81.55 C19.92 61.62, 36.22 44.62, 71.25 2.31 M2.36 81.55 C28.43 49.48, 57.28 18.86, 71.25 2.31 M2.76 87.2 C23.41 63.85, 42.68 40.62, 76.89 1.91 M2.76 87.2 C32.26 52.88, 60.65 20.74, 76.89 1.91 M2.49 93.59 C27.19 67.17, 51.61 37.35, 81.88 2.27 M2.49 93.59 C28.64 62.95, 56.05 31.76, 81.88 2.27 M2.89 99.24 C25.47 74.4, 49.62 48.08, 87.52 1.88 M2.89 99.24 C31.98 65.81, 59.15 33.68, 87.52 1.88 M2.63 105.64 C35.7 70.02, 68.67 33.24, 92.51 2.24 M2.63 105.64 C33.47 68.67, 66.3 31.68, 92.51 2.24 M2.37 112.03 C32.49 78.39, 64.44 43.92, 98.15 1.85 M2.37 112.03 C21.44 88.69, 41.53 64.78, 98.15 1.85 M2.76 117.68 C27.84 88.53, 54.28 57.05, 103.14 2.21 M2.76 117.68 C34.83 79.64, 68.71 41.75, 103.14 2.21 M1.19 125.58 C27.8 94.88, 54.19 62.71, 108.78 1.81 M1.19 125.58 C37.64 86.24, 72.11 46.7, 108.78 1.81 M2.89 129.72 C35.05 92.31, 66.38 56.99, 113.77 2.17 M2.89 129.72 C36.25 92.2, 68.9 53.8, 113.77 2.17 M4.6 133.85 C34.69 99.88, 61.67 67.31, 119.41 1.78 M4.6 133.85 C43.17 91.14, 78.24 50.12, 119.41 1.78 M6.31 137.98 C54.75 87.95, 97.85 33.13, 124.4 2.14 M6.31 137.98 C38.69 99.85, 72.46 61.91, 124.4 2.14 M9.33 140.61 C50.69 91.06, 93.33 42.2, 130.04 1.74 M9.33 140.61 C49.16 94.06, 88.54 47.73, 130.04 1.74 M11.69 143.99 C57.75 96.94, 97.04 46.13, 135.03 2.1 M11.69 143.99 C39.76 113.58, 66.79 81.69, 135.03 2.1 M14.71 146.61 C57.85 95.09, 103.79 46.03, 140.67 1.71 M14.71 146.61 C50.13 105.47, 83.48 67.47, 140.67 1.71 M19.04 147.73 C51.85 110.47, 82.59 75.94, 145.66 2.07 M19.04 147.73 C58.1 103.17, 97.46 58.29, 145.66 2.07 M23.37 148.84 C56.36 107.46, 92.64 71.14, 150.65 2.43 M23.37 148.84 C62.37 105.91, 100.03 61.78, 150.65 2.43 M28.36 149.2 C72.7 97.85, 120.24 45.03, 156.29 2.03 M28.36 149.2 C57.9 115.75, 88.06 80.88, 156.29 2.03 M33.34 149.56 C74.59 103.32, 114.05 55.68, 161.28 2.39 M33.34 149.56 C78.27 97.69, 123.4 44.71, 161.28 2.39 M38.33 149.92 C73.36 108.34, 108.1 70.22, 166.92 2 M38.33 149.92 C77.44 104.23, 117.2 59.56, 166.92 2 M43.32 150.28 C88.93 98.41, 136.39 42.94, 171.91 2.36 M43.32 150.28 C79.31 110.34, 112.53 71.53, 171.91 2.36 M48.96 149.89 C97.75 94.65, 148.25 35.22, 177.55 1.96 M48.96 149.89 C93.46 95.53, 141.17 42.54, 177.55 1.96 M53.95 150.25 C104.51 93.2, 154.83 36, 182.54 2.32 M53.95 150.25 C79.91 119.24, 104.87 88.75, 182.54 2.32 M59.59 149.85 C109.98 92.07, 160.99 33.71, 188.18 1.93 M59.59 149.85 C91.62 112.78, 124.28 76.69, 188.18 1.93 M64.58 150.21 C99.96 108.37, 134.91 72.01, 193.17 2.29 M64.58 150.21 C91.13 117.85, 118.87 87.04, 193.17 2.29 M70.22 149.82 C97.3 118.28, 122.88 88.71, 198.81 1.9 M70.22 149.82 C117.46 96.28, 161.97 44.8, 198.81 1.9 M75.21 150.18 C100.63 117.78, 129.25 86.14, 203.8 2.26 M75.21 150.18 C116.4 101.59, 159.79 53.11, 203.8 2.26 M80.85 149.78 C107.74 117.24, 135.14 83.87, 209.44 1.86 M80.85 149.78 C117.32 108.96, 152.72 69.1, 209.44 1.86 M85.84 150.14 C123.25 107.99, 162.2 60.68, 214.43 2.22 M85.84 150.14 C116.96 114.62, 148.85 80.77, 214.43 2.22 M91.48 149.75 C121.02 111.5, 153.16 78.5, 220.07 1.83 M91.48 149.75 C131.58 103.37, 172.17 56.4, 220.07 1.83 M96.47 150.11 C140.63 100.29, 189.61 46, 225.06 2.19 M96.47 150.11 C122.22 118.48, 149.23 88.29, 225.06 2.19 M102.11 149.71 C155.94 91.24, 205.53 31.46, 230.7 1.79 M102.11 149.71 C130.01 117.97, 157.31 86.64, 230.7 1.79 M107.1 150.07 C139.74 113.32, 171.53 78.72, 235.69 2.15 M107.1 150.07 C155.93 95.92, 204.28 39.86, 235.69 2.15 M112.74 149.68 C140.19 118.92, 164.24 86.97, 241.33 1.76 M112.74 149.68 C143.82 115.51, 174 80.65, 241.33 1.76 M117.73 150.04 C150.67 114.62, 179.75 80.87, 246.32 2.12 M117.73 150.04 C149.84 117.41, 178.89 82.02, 246.32 2.12 M123.37 149.65 C159.23 106, 196.06 63.81, 251.96 1.72 M123.37 149.65 C156.38 114.55, 187.91 78.65, 251.96 1.72 M128.36 150.01 C178.04 95.8, 228.9 37.06, 256.95 2.08 M128.36 150.01 C175.39 96.52, 223.78 41.59, 256.95 2.08 M134 149.61 C170.95 107.43, 207.22 68.49, 262.59 1.69 M134 149.61 C165.01 113.11, 196.62 78.08, 262.59 1.69 M138.99 149.97 C186.73 98.52, 231.61 44.82, 267.58 2.05 M138.99 149.97 C179.39 104.04, 219.11 58.44, 267.58 2.05 M144.63 149.58 C184.76 101.8, 227.16 57.78, 272.56 2.41 M144.63 149.58 C176.4 111.99, 210.08 73.84, 272.56 2.41 M149.62 149.94 C180.25 113.23, 208.6 80.21, 278.21 2.01 M149.62 149.94 C186.11 107.31, 221.2 65.31, 278.21 2.01 M155.26 149.54 C198 103.61, 239.75 53.49, 283.19 2.37 M155.26 149.54 C182.99 116.48, 210.69 85.99, 283.19 2.37 M160.25 149.9 C201.45 107.37, 238.84 62.4, 288.84 1.98 M160.25 149.9 C195.88 108.52, 231.43 69.28, 288.84 1.98 M165.24 150.26 C209.16 96.88, 258.08 40.93, 293.82 2.34 M165.24 150.26 C199.57 111.26, 235.67 69.4, 293.82 2.34 M170.88 149.87 C200.43 115.94, 229.39 79.8, 299.47 1.94 M170.88 149.87 C214.48 99.76, 258.12 48.43, 299.47 1.94 M175.87 150.23 C208.52 111.02, 244.46 69.23, 304.45 2.3 M175.87 150.23 C217.06 103.91, 256.67 58.91, 304.45 2.3 M181.51 149.83 C222.93 104.93, 261.32 58.72, 310.1 1.91 M181.51 149.83 C220.71 105.97, 259.59 61.17, 310.1 1.91 M186.5 150.19 C212.11 118.28, 241.78 89.52, 315.08 2.27 M186.5 150.19 C215.5 114.97, 245.99 80.37, 315.08 2.27 M192.14 149.8 C224.91 109.59, 258.77 72.44, 320.73 1.88 M192.14 149.8 C224.53 112.39, 258.6 73.72, 320.73 1.88 M197.13 150.16 C240.33 102.81, 280.71 53.41, 325.71 2.24 M197.13 150.16 C231.04 112.01, 263.6 74.93, 325.71 2.24 M202.77 149.76 C245.09 102.46, 286.99 50.43, 331.36 1.84 M202.77 149.76 C237.66 110.98, 272.34 70.89, 331.36 1.84 M207.76 150.12 C248.15 106.55, 286.15 60.1, 337.66 0.69 M207.76 150.12 C235.34 117.76, 262.94 86.24, 337.66 0.69 M213.4 149.73 C245.45 113.12, 283.52 72.71, 342.64 1.05 M213.4 149.73 C248.62 106.92, 286.8 63.22, 342.64 1.05 M218.39 150.09 C267.07 94.31, 314.73 37, 346.97 2.17 M218.39 150.09 C252.58 109.28, 288.48 67.72, 346.97 2.17 M224.03 149.7 C270.86 96.62, 314.2 48.76, 351.96 2.53 M224.03 149.7 C250.93 120.87, 276.79 91.59, 351.96 2.53 M229.02 150.06 C271.15 97.82, 318.4 47.1, 354.98 5.15 M229.02 150.06 C256.12 120.65, 282.75 90.13, 354.98 5.15 M234.66 149.66 C271.96 108.1, 308.06 61.19, 358.65 7.02 M234.66 149.66 C283.77 94.62, 331.57 36.19, 358.65 7.02 M239.65 150.02 C286.65 97.27, 336.18 43.15, 362.33 8.89 M239.65 150.02 C279.1 104.12, 318.61 59.9, 362.33 8.89 M245.29 149.63 C275.51 115.57, 304.24 80.46, 364.69 12.27 M245.29 149.63 C270.14 119.02, 298.01 87.8, 364.69 12.27 M250.28 149.99 C293.77 101.5, 337.94 51.34, 367.71 14.89 M250.28 149.99 C290.63 105.33, 329.71 61.11, 367.71 14.89 M255.92 149.59 C291.59 112.69, 324.05 71.18, 368.76 19.78 M255.92 149.59 C289.95 110.22, 323.06 69.78, 368.76 19.78 M260.91 149.95 C302.76 102.64, 343.57 53.43, 369.16 25.42 M260.91 149.95 C291.03 113.28, 322.49 77.44, 369.16 25.42 M266.55 149.56 C302.99 107.24, 342.24 59.99, 369.55 31.07 M266.55 149.56 C287.64 124.86, 310.55 100.31, 369.55 31.07 M271.54 149.92 C291.41 125.96, 313.48 103.92, 369.29 37.47 M271.54 149.92 C296.54 123.73, 319.05 97.12, 369.29 37.47 M276.52 150.28 C297.25 125.16, 320.21 103.07, 369.68 43.11 M276.52 150.28 C297.69 127.12, 317.05 102.63, 369.68 43.11 M282.17 149.88 C305.26 123.64, 327.7 99.14, 369.42 49.51 M282.17 149.88 C313.59 112.32, 345.74 75.04, 369.42 49.51 M287.15 150.24 C318.1 114.71, 346.02 81.78, 369.82 55.15 M287.15 150.24 C317.08 117.74, 343.88 84.86, 369.82 55.15 M292.8 149.85 C313.06 130.12, 330.01 107.71, 369.56 61.55 M292.8 149.85 C313.7 123.39, 335.96 98.75, 369.56 61.55 M297.78 150.21 C324.03 121.34, 348.19 94.33, 369.29 67.95 M297.78 150.21 C318.53 127.47, 339.5 101.49, 369.29 67.95 M303.43 149.81 C317.57 131.52, 332.65 113.62, 369.69 73.59 M303.43 149.81 C324.49 125.77, 344.14 101.64, 369.69 73.59 M308.41 150.17 C325.15 127.71, 346.82 108.28, 369.43 79.99 M308.41 150.17 C329.18 125.81, 349.56 101.76, 369.43 79.99 M314.06 149.78 C329.2 135.49, 340.75 118.58, 369.82 85.63 M314.06 149.78 C336.08 124.36, 357.05 100.59, 369.82 85.63 M319.04 150.14 C329.3 137.9, 341.55 124.74, 369.56 92.03 M319.04 150.14 C330.81 138.25, 339.95 125.1, 369.56 92.03 M324.69 149.75 C339.64 134.65, 355.52 114.48, 369.96 97.67 M324.69 149.75 C342.03 130.8, 358.2 112.08, 369.96 97.67 M329.67 150.11 C344.07 131.41, 362.26 115.44, 369.69 104.07 M329.67 150.11 C337.75 139.4, 347.6 128.47, 369.69 104.07 M335.32 149.71 C346.59 135.95, 359.29 121.04, 370.09 109.71 M335.32 149.71 C347.46 136.62, 358.57 122.52, 370.09 109.71 M339.65 150.83 C345.98 144.65, 353.06 133.99, 369.17 116.86 M339.65 150.83 C351.32 137.57, 362.2 124.24, 369.17 116.86 M345.29 150.43 C350.75 141.75, 359.49 134.82, 368.25 124.02 M345.29 150.43 C351.19 142.74, 359.57 133.89, 368.25 124.02 M352.25 148.53 C355.5 142.57, 359.77 137.72, 367.34 131.17 M352.25 148.53 C359.06 141.54, 365.01 134.59, 367.34 131.17" stroke="#a5d8ff" stroke-width="0.5" fill="none"></path><path d="M32 0 C149.77 1.47, 264.9 1.88, 337 0 M32 0 C153.18 -0.88, 273.77 -0.89, 337 0 M337 0 C357.12 0.78, 370.38 10.59, 369 32 M337 0 C357.8 0.41, 367.72 10.78, 369 32 M369 32 C367.2 51.63, 369.54 72.53, 369 117 M369 32 C370.16 57.16, 369.69 81.55, 369 117 M369 117 C368.09 139.67, 359.73 150.95, 337 149 M369 117 C368.33 137.32, 359.42 150.06, 337 149 M337 149 C266.81 150.8, 198.87 148.49, 32 149 M337 149 C225.22 147.45, 113.25 147.19, 32 149 M32 149 C9.85 150.74, -1.22 139.33, 0 117 M32 149 C11.12 148.24, 1.91 136.31, 0 117 M0 117 C1.51 100.19, -1.85 81.76, 0 32 M0 117 C-0.3 85.57, -0.01 52.1, 0 32 M0 32 C-1.56 12.08, 11.88 0.66, 32 0 M0 32 C1.16 9.79, 9.5 1.51, 32 0" stroke="#1e1e1e" stroke-width="1" fill="none"></path></g><g transform="translate(392.9628491963915 58.900000000000034) rotate(0 168.75 57.599999999999994)"><text x="0" y="0" font-family="Cascadia, Segoe UI Emoji" font-size="16px" fill="#1e1e1e" text-anchor="start" style="white-space: pre;" direction="ltr" dominant-baseline="text-before-edge"> r_type</text><text x="0" y="19.2" font-family="Cascadia, Segoe UI Emoji" font-size="16px" fill="#1e1e1e" text-anchor="start" style="white-space: pre;" direction="ltr" dominant-baseline="text-before-edge"> serverFunc ( p_type p1, p_type p2 )</text><text x="0" y="38.4" font-family="Cascadia, Segoe UI Emoji" font-size="16px" fill="#1e1e1e" text-anchor="start" style="white-space: pre;" direction="ltr" dominant-baseline="text-before-edge"> {</text><text x="0" y="57.599999999999994" font-family="Cascadia, Segoe UI Emoji" font-size="16px" fill="#1e1e1e" text-anchor="start" style="white-space: pre;" direction="ltr" dominant-baseline="text-before-edge"> …</text><text x="0" y="76.8" font-family="Cascadia, Segoe UI Emoji" font-size="16px" fill="#1e1e1e" text-anchor="start" style="white-space: pre;" direction="ltr" dominant-baseline="text-before-edge"> return</text><text x="0" y="96" font-family="Cascadia, Segoe UI Emoji" font-size="16px" fill="#1e1e1e" text-anchor="start" style="white-space: pre;" direction="ltr" dominant-baseline="text-before-edge"> }</text></g><g stroke-linecap="round"><g transform="translate(263 99) rotate(0 64.50000000000011 -3.38379530916842)"><path d="M0.39 1.15 C21.95 0.22, 107.87 -4.97, 129.42 -6.28 M-0.87 0.71 C20.57 -0.53, 107 -7.13, 128.69 -8.15" stroke="#228be6" stroke-width="2" fill="none"></path></g><g transform="translate(263 99) rotate(0 64.50000000000011 -3.38379530916842)"><path d="M127.47 -7.15 L115.92 -1.62 L116.38 -15.37 L126.74 -8.16" stroke="none" stroke-width="0" fill="#228be6" fill-rule="evenodd"></path><path d="M128.69 -8.15 C126.09 -5.4, 121.25 -2.88, 115.53 -0.96 M128.69 -8.15 C124.28 -5.68, 121.28 -3.83, 115.53 -0.96 M115.53 -0.96 C115.35 -5.24, 115.14 -7.04, 114.72 -13.61 M115.53 -0.96 C115.37 -3.64, 115.64 -6.53, 114.72 -13.61 M114.72 -13.61 C119.98 -12.34, 125.85 -8.64, 128.69 -8.15 M114.72 -13.61 C120.62 -11.03, 125.28 -9.08, 128.69 -8.15 M128.69 -8.15 C128.69 -8.15, 128.69 -8.15, 128.69 -8.15 M128.69 -8.15 C128.69 -8.15, 128.69 -8.15, 128.69 -8.15" stroke="#228be6" stroke-width="2" fill="none"></path></g></g><mask></mask><g stroke-linecap="round"><g transform="translate(396.0000000000002 147.10643947776055) rotate(0 -69 -17.053219738880273)"><path d="M0.42 0.49 C-22.53 -5.39, -114.31 -28.31, -137.31 -34.08" stroke="#228be6" stroke-width="2.5" fill="none" stroke-dasharray="1.5 8"></path></g><g transform="translate(396.0000000000002 147.10643947776055) rotate(0 -69 -17.053219738880273)"><path d="M-137.01 -33.83 L-123.5 -35.59 L-124.27 -22.68 L-137.9 -34.96" stroke="none" stroke-width="0" fill="#228be6" fill-rule="evenodd"></path><path d="M-137.31 -34.08 C-131.84 -34.22, -127.52 -35.55, -122.59 -36.93 M-122.59 -36.93 C-122.71 -33.27, -124.8 -29.3, -125.66 -24.63 M-125.66 -24.63 C-128.43 -25.91, -132.75 -29.85, -137.31 -34.08 M-137.31 -34.08 C-137.31 -34.08, -137.31 -34.08, -137.31 -34.08" stroke="#228be6" stroke-width="2.5" fill="none"></path></g></g><mask></mask></svg>