<svg version="1.1" xmlns="http://www.w3.org/2000/svg" viewBox="0 0 620.0756841730381 239.89302321514356" width="620.0756841730381" height="239.89302321514356">
  <!-- svg-source:excalidraw -->
  
  <defs>
    <style class="style-fonts">
      @font-face {
        font-family: "Virgil";
        src: url("https://excalidraw.com/Virgil.woff2");
      }
      @font-face {
        font-family: "Cascadia";
        src: url("https://excalidraw.com/Cascadia.woff2");
      }
      @font-face {
        font-family: "Assistant";
        src: url("https://excalidraw.com/Assistant-Regular.woff2");
      }
    </style>
    
  </defs>
  <g stroke-linecap="round"><g transform="translate(121.76689725097367 65.19896505812585) rotate(0 241.3428685000847 0)"><path d="M0.32 0.42 C80.58 0.29, 401.7 -0.24, 481.91 -0.43 M-0.97 -0.4 C79.65 -0.39, 403.4 0.77, 484.22 0.89" stroke="#1e1e1e" stroke-width="2" fill="none"></path></g></g><mask></mask><g stroke-linecap="round"><g transform="translate(121.97469964786615 176.03531133963543) rotate(0 243.51563912450524 0)"><path d="M-0.77 -0.43 C80.16 -0.61, 404.52 -0.56, 485.95 -0.67 M1.02 -1.7 C82.29 -1.77, 407.02 0.28, 488.1 0.51" stroke="#1e1e1e" stroke-width="2" fill="none"></path></g></g><mask></mask><g transform="translate(14.224165848809662 52.88191926760419) rotate(0 41.959983825683594 12.5)"><text x="0" y="0" font-family="Virgil, Segoe UI Emoji" font-size="20px" fill="#1971c2" text-anchor="start" style="white-space: pre;" direction="ltr" dominant-baseline="text-before-edge">P1 = 100</text></g><g transform="translate(10 163.23551775795613) rotate(0 46.36997985839844 12.5)"><text x="0" y="0" font-family="Virgil, Segoe UI Emoji" font-size="20px" fill="#f08c00" text-anchor="start" style="white-space: pre;" direction="ltr" dominant-baseline="text-before-edge">P2 = 100</text></g><g mask="url(#mask-39y3PQOYwwF1ilGGHUYm9)" stroke-linecap="round"><g transform="translate(185.6393845563225 66.5768406563534) rotate(0 97.46459712444585 52.92871038108797)"><path d="M1.17 -1.17 C15.18 6.4, 52.6 26.49, 84.88 44.33 C117.15 62.17, 176.63 95.73, 194.83 105.89 M0.33 0.83 C14.17 8.65, 52.01 27.86, 84.29 45.6 C116.57 63.33, 175.75 97.14, 194.01 107.22" stroke="#1971c2" stroke-width="2" fill="none"></path></g><g transform="translate(185.6393845563225 66.5768406563534) rotate(0 97.46459712444585 52.92871038108797)"><path d="M169.34 103.17 C176.45 105.59, 186.65 105.75, 194.01 107.22 M169.34 103.17 C177.69 104.42, 183.27 106.59, 194.01 107.22" stroke="#1971c2" stroke-width="2" fill="none"></path></g><g transform="translate(185.6393845563225 66.5768406563534) rotate(0 97.46459712444585 52.92871038108797)"><path d="M177.72 88.26 C181.6 96.26, 188.72 101.93, 194.01 107.22 M177.72 88.26 C183.42 93.97, 186.47 100.65, 194.01 107.22" stroke="#1971c2" stroke-width="2" fill="none"></path></g></g><mask id="mask-39y3PQOYwwF1ilGGHUYm9"><rect x="0" y="0" fill="#fff" width="480.56857880521426" height="272.4342614185292"></rect><rect x="255.81799870511122" y="98.9192149261587" fill="#000" width="27.999984741210938" height="25" opacity="1"></rect></mask><g stroke-linecap="round" transform="translate(137.56358628792395 59.99999949984158) rotate(0 5.463509437625362 5.397143514239929)"><path d="M5.43 0.23 C6.55 0.2, 7.74 0.36, 8.6 1.06 C9.46 1.77, 10.34 3.37, 10.6 4.46 C10.87 5.54, 10.76 6.59, 10.2 7.56 C9.65 8.52, 8.28 9.68, 7.26 10.24 C6.24 10.81, 5.08 11.28, 4.08 10.96 C3.08 10.63, 1.88 9.28, 1.26 8.28 C0.63 7.28, 0.26 6.1, 0.31 4.97 C0.37 3.85, 0.68 2.29, 1.56 1.5 C2.44 0.72, 4.86 0.54, 5.6 0.27 C6.34 0, 6.09 -0.16, 6.01 -0.14 M4.51 0.54 C5.5 0.38, 6.58 0.29, 7.67 0.86 C8.76 1.43, 10.67 2.87, 11.06 3.94 C11.45 5.01, 10.6 6.23, 10.03 7.29 C9.46 8.34, 8.62 9.64, 7.65 10.28 C6.67 10.92, 5.27 11.47, 4.19 11.14 C3.1 10.8, 1.76 9.2, 1.15 8.27 C0.53 7.35, 0.52 6.58, 0.5 5.58 C0.49 4.57, 0.44 3.14, 1.04 2.23 C1.65 1.32, 3.57 0.46, 4.14 0.12 C4.71 -0.22, 4.4 -0.01, 4.48 0.18" stroke="none" stroke-width="0" fill="#d0bfff"></path><path d="M5.1 0.46 C6.2 0.35, 7.81 0.07, 8.84 0.71 C9.86 1.35, 10.96 3.1, 11.25 4.32 C11.53 5.54, 11.27 7, 10.56 8.01 C9.85 9.02, 8.08 9.93, 6.99 10.38 C5.91 10.83, 5.15 11.02, 4.06 10.71 C2.97 10.41, 1.18 9.54, 0.45 8.55 C-0.28 7.55, -0.56 6, -0.32 4.74 C-0.08 3.47, 0.94 1.75, 1.9 0.96 C2.85 0.16, 4.82 0.15, 5.41 -0.05 C6 -0.25, 5.37 -0.25, 5.42 -0.22 M6.93 0.11 C8.1 0.47, 9.35 1.89, 10.14 2.95 C10.92 4.02, 11.79 5.49, 11.64 6.5 C11.49 7.51, 10.23 8.29, 9.23 9.04 C8.23 9.79, 6.8 10.77, 5.64 10.99 C4.48 11.2, 3.22 11.04, 2.27 10.32 C1.32 9.59, 0.37 7.83, -0.04 6.63 C-0.45 5.44, -0.64 4.13, -0.2 3.16 C0.25 2.19, 1.58 1.41, 2.66 0.81 C3.74 0.21, 5.5 -0.24, 6.27 -0.43 C7.05 -0.63, 7.35 -0.56, 7.29 -0.35" stroke="#6741d9" stroke-width="2" fill="none"></path></g><g stroke-linecap="round" transform="translate(291.7983628146476 169.09873595585032) rotate(0 5.463509437625362 5.397143514239929)"><path d="M3.88 0.02 C4.89 -0.33, 6.57 0.2, 7.66 0.66 C8.76 1.12, 9.94 1.77, 10.42 2.78 C10.9 3.79, 10.8 5.46, 10.54 6.72 C10.29 7.98, 9.75 9.65, 8.89 10.34 C8.02 11.03, 6.52 10.99, 5.34 10.86 C4.15 10.72, 2.7 10.36, 1.76 9.54 C0.82 8.72, -0.19 7.1, -0.3 5.92 C-0.41 4.74, 0.29 3.48, 1.1 2.47 C1.91 1.46, 4.07 0.27, 4.55 -0.13 C5.03 -0.54, 4.05 -0.09, 3.98 0.04 M4.18 0.11 C5.37 -0.13, 7.87 0.53, 8.87 1.14 C9.87 1.75, 9.98 2.67, 10.18 3.76 C10.37 4.85, 10.46 6.52, 10.06 7.67 C9.65 8.82, 8.71 10.25, 7.73 10.67 C6.75 11.08, 5.19 10.45, 4.17 10.16 C3.14 9.87, 2.34 9.72, 1.59 8.94 C0.84 8.16, -0.21 6.69, -0.32 5.5 C-0.42 4.3, 0.15 2.67, 0.97 1.76 C1.8 0.85, 4.01 0.21, 4.64 0.05 C5.26 -0.12, 4.7 0.75, 4.74 0.78" stroke="none" stroke-width="0" fill="#d0bfff"></path><path d="M4.44 -0.4 C5.64 -0.74, 7.52 0.02, 8.6 0.68 C9.68 1.34, 10.64 2.46, 10.9 3.54 C11.16 4.63, 10.55 6.05, 10.16 7.17 C9.77 8.29, 9.57 9.62, 8.57 10.27 C7.58 10.92, 5.48 11.28, 4.2 11.07 C2.92 10.87, 1.6 10.06, 0.91 9.05 C0.21 8.04, -0.01 6.23, 0.03 5.04 C0.07 3.85, 0.41 2.78, 1.14 1.89 C1.86 1.01, 3.75 0.08, 4.41 -0.28 C5.07 -0.65, 4.96 -0.41, 5.1 -0.28 M5.31 0.74 C6.52 0.72, 8.5 1.21, 9.38 1.75 C10.26 2.28, 10.5 2.93, 10.6 3.97 C10.7 5, 10.5 6.83, 9.99 7.97 C9.49 9.1, 8.61 10.37, 7.56 10.77 C6.52 11.16, 4.94 10.73, 3.73 10.34 C2.51 9.94, 0.96 9.26, 0.28 8.39 C-0.41 7.52, -0.53 6.36, -0.38 5.12 C-0.24 3.88, 0.15 1.89, 1.14 0.94 C2.14 -0.02, 5.06 -0.49, 5.6 -0.6 C6.13 -0.71, 4.54 0.03, 4.37 0.28" stroke="#6741d9" stroke-width="2" fill="none"></path></g><g mask="url(#mask-HkSr-2YbE9wjJeJf-qXEw)" stroke-linecap="round"><g transform="translate(248.36993045173176 174.92393296297269) rotate(0 98.21056490181059 -54.660928328113755)"><path d="M0.36 -0.48 C33.08 -18.45, 163.07 -90.24, 195.81 -108.34 M-0.91 -1.78 C32.25 -20.02, 165.34 -92.3, 198.2 -109.95" stroke="#f08c00" stroke-width="2" fill="none"></path></g><g transform="translate(248.36993045173176 174.92393296297269) rotate(0 98.21056490181059 -54.660928328113755)"><path d="M181.6 -91.25 C185.2 -97.19, 191.95 -100.4, 198.2 -109.95 M181.6 -91.25 C185.98 -97.67, 191.82 -103.01, 198.2 -109.95" stroke="#f08c00" stroke-width="2" fill="none"></path></g><g transform="translate(248.36993045173176 174.92393296297269) rotate(0 98.21056490181059 -54.660928328113755)"><path d="M173.47 -106.3 C179.11 -108.34, 187.98 -107.65, 198.2 -109.95 M173.47 -106.3 C180.38 -107.97, 188.82 -108.52, 198.2 -109.95" stroke="#f08c00" stroke-width="2" fill="none"></path></g></g><mask id="mask-HkSr-2YbE9wjJeJf-qXEw"><rect x="0" y="0" fill="#fff" width="544.7910602553529" height="384.2457896192002"></rect><rect x="333.3005042036398" y="107.76300463485904" fill="#000" width="26.559982299804688" height="25" opacity="1"></rect></mask><g transform="translate(333.3005042036398 107.76300463485904) rotate(0 13.715411559259564 11.94736972924784)"><text x="13.279991149902344" y="0" font-family="Virgil, Segoe UI Emoji" font-size="20px" fill="#f08c00" text-anchor="middle" style="white-space: pre;" direction="ltr" dominant-baseline="text-before-edge">60</text></g><g transform="translate(255.81799870511122 98.9192149261587) rotate(0 27.40237287846412 20.6802956155974)"><text x="13.999992370605469" y="0" font-family="Virgil, Segoe UI Emoji" font-size="20px" fill="#1971c2" text-anchor="middle" style="white-space: pre;" direction="ltr" dominant-baseline="text-before-edge">20</text></g><g stroke-linecap="round" transform="translate(516.8961664775984 60.40663320666454) rotate(0 5.463509437625362 5.397143514239929)"><path d="M6.01 0.4 C7.15 0.45, 8.55 1.01, 9.35 1.78 C10.15 2.56, 10.67 3.88, 10.82 5.05 C10.96 6.23, 10.96 7.97, 10.22 8.84 C9.48 9.71, 7.52 10.12, 6.39 10.28 C5.26 10.45, 4.41 10.26, 3.41 9.82 C2.42 9.39, 0.95 8.69, 0.4 7.69 C-0.14 6.68, -0.12 4.88, 0.15 3.8 C0.43 2.73, 0.95 1.79, 2.06 1.23 C3.17 0.68, 6.11 0.65, 6.8 0.45 C7.49 0.25, 6.23 -0.04, 6.21 0.03 M3.66 0.25 C4.69 -0.02, 6.71 0.31, 7.87 0.85 C9.04 1.38, 10.18 2.53, 10.67 3.48 C11.15 4.43, 11.22 5.45, 10.77 6.53 C10.33 7.61, 8.99 9.24, 7.98 9.97 C6.96 10.71, 5.85 11.01, 4.7 10.92 C3.55 10.84, 1.83 10.44, 1.08 9.46 C0.33 8.48, 0.15 6.15, 0.21 5.05 C0.28 3.94, 0.72 3.65, 1.46 2.85 C2.21 2.04, 4.3 0.72, 4.7 0.21 C5.1 -0.29, 3.89 -0.38, 3.85 -0.2" stroke="none" stroke-width="0" fill="#d0bfff"></path><path d="M5.53 0.48 C6.68 0.36, 8.6 0.72, 9.45 1.33 C10.31 1.94, 10.59 2.93, 10.66 4.15 C10.73 5.36, 10.37 7.49, 9.88 8.61 C9.39 9.74, 8.69 10.59, 7.71 10.91 C6.72 11.23, 5.16 11.04, 3.95 10.53 C2.74 10.01, 1.16 8.9, 0.46 7.82 C-0.23 6.74, -0.47 5.2, -0.22 4.03 C0.04 2.86, 1.07 1.41, 1.99 0.8 C2.91 0.2, 4.69 0.56, 5.31 0.4 C5.92 0.25, 5.65 -0.17, 5.65 -0.12 M6.41 0 C7.4 0, 8.19 1.01, 8.97 1.86 C9.75 2.71, 10.94 4.03, 11.1 5.1 C11.27 6.17, 10.64 7.41, 9.96 8.27 C9.28 9.13, 8.12 9.93, 7.04 10.27 C5.96 10.61, 4.5 10.76, 3.47 10.31 C2.44 9.86, 1.34 8.74, 0.86 7.57 C0.37 6.4, 0.17 4.41, 0.55 3.3 C0.92 2.18, 2.06 1.46, 3.11 0.87 C4.16 0.29, 6.28 -0.08, 6.84 -0.23 C7.4 -0.38, 6.64 -0.06, 6.49 -0.04" stroke="#6741d9" stroke-width="2" fill="none"></path></g><g mask="url(#mask-D2NLx-aJ5d0zspthakqqS)" stroke-linecap="round"><g transform="translate(147.9481379178028 70.27981941981352) rotate(0 71.92643304037597 49.71214630945644)"><path d="M0.23 0.58 C24.26 17.37, 120.84 83.03, 144.81 99.55 M-1.11 -0.16 C22.8 16.94, 120.28 84.26, 144.37 101.16" stroke="#6741d9" stroke-width="2" fill="none"></path></g><g transform="translate(147.9481379178028 70.27981941981352) rotate(0 71.92643304037597 49.71214630945644)"><path d="M120.2 94.76 C129.58 98.56, 137.3 99.6, 144.37 101.16 M120.2 94.76 C128.94 97.49, 136.78 99.29, 144.37 101.16" stroke="#6741d9" stroke-width="2" fill="none"></path></g><g transform="translate(147.9481379178028 70.27981941981352) rotate(0 71.92643304037597 49.71214630945644)"><path d="M129.97 80.72 C135.78 89.46, 140.08 95.42, 144.37 101.16 M129.97 80.72 C135.42 87.94, 140.07 94.31, 144.37 101.16" stroke="#6741d9" stroke-width="2" fill="none"></path></g></g><mask id="mask-D2NLx-aJ5d0zspthakqqS"><rect x="0" y="0" fill="#fff" width="391.80100399855473" height="269.7041120387264"></rect><rect x="194.32259189323713" y="109.99196572926985" fill="#000" width="51.10395812988281" height="20" opacity="1"></rect></mask><g mask="url(#mask-RFdcLtjHJ_H0vLk0piDtf)" stroke-linecap="round"><g transform="translate(303.6571454234695 171.1056396988256) rotate(0 106.27566806646519 -49.96133066209791)"><path d="M-0.76 -0.34 C34.66 -16.69, 176.54 -82.42, 211.94 -98.99 M1.04 -1.57 C36.9 -18.15, 178.82 -84.5, 214.33 -100.62" stroke="#6741d9" stroke-width="2" fill="none"></path></g><g transform="translate(303.6571454234695 171.1056396988256) rotate(0 106.27566806646519 -49.96133066209791)"><path d="M196.59 -83.01 C200.67 -88.39, 207.31 -93.31, 214.33 -100.62 M196.59 -83.01 C202.89 -87.98, 208.9 -93.43, 214.33 -100.62" stroke="#6741d9" stroke-width="2" fill="none"></path></g><g transform="translate(303.6571454234695 171.1056396988256) rotate(0 106.27566806646519 -49.96133066209791)"><path d="M189.42 -98.54 C195.2 -99.92, 203.67 -100.9, 214.33 -100.62 M189.42 -98.54 C197.89 -98.53, 206.17 -99.06, 214.33 -100.62" stroke="#6741d9" stroke-width="2" fill="none"></path></g></g><mask id="mask-RFdcLtjHJ_H0vLk0piDtf"><rect x="0" y="0" fill="#fff" width="616.2084815563999" height="371.0283010230214"></rect><rect x="384.3808344249933" y="111.14430903672769" fill="#000" width="51.10395812988281" height="20" opacity="1"></rect></mask><g transform="translate(384.3808344249933 111.14430903672769) rotate(0 26.06320507492387 9.480727871921886)"><text x="25.551979064941406" y="0" font-family="Virgil, Segoe UI Emoji" font-size="16px" fill="#6741d9" text-anchor="middle" style="white-space: pre;" direction="ltr" dominant-baseline="text-before-edge">marker</text></g><g transform="translate(194.32259189323713 109.99196572926985) rotate(0 25.47679817627659 10.785592102343344)"><text x="25.551979064941406" y="0" font-family="Virgil, Segoe UI Emoji" font-size="16px" fill="#6741d9" text-anchor="middle" style="white-space: pre;" direction="ltr" dominant-baseline="text-before-edge">marker</text></g><g transform="translate(163.90006936055033 10) rotate(0 22.069992065429688 25)"><text x="22.069992065429688" y="0" font-family="Virgil, Segoe UI Emoji" font-size="20px" fill="#1e1e1e" text-anchor="middle" style="white-space: pre;" direction="ltr" dominant-baseline="text-before-edge">[1,0]</text><text x="22.069992065429688" y="25" font-family="Virgil, Segoe UI Emoji" font-size="20px" fill="#1e1e1e" text-anchor="middle" style="white-space: pre;" direction="ltr" dominant-baseline="text-before-edge">e1</text></g><g transform="translate(229.80488751250323 179.89302295566176) rotate(0 22.069992065429688 25)"><text x="22.069992065429688" y="0" font-family="Virgil, Segoe UI Emoji" font-size="20px" fill="#1e1e1e" text-anchor="middle" style="white-space: pre;" direction="ltr" dominant-baseline="text-before-edge">e2</text><text x="22.069992065429688" y="25" font-family="Virgil, Segoe UI Emoji" font-size="20px" fill="#1e1e1e" text-anchor="middle" style="white-space: pre;" direction="ltr" dominant-baseline="text-before-edge">[0,1]</text></g><g transform="translate(357.850694320573 179.89302321514356) rotate(0 22.30998992919922 25)"><text x="22.30998992919922" y="0" font-family="Virgil, Segoe UI Emoji" font-size="20px" fill="#1e1e1e" text-anchor="middle" style="white-space: pre;" direction="ltr" dominant-baseline="text-before-edge">e3</text><text x="22.30998992919922" y="25" font-family="Virgil, Segoe UI Emoji" font-size="20px" fill="#1e1e1e" text-anchor="middle" style="white-space: pre;" direction="ltr" dominant-baseline="text-before-edge">[1,2]</text></g><g transform="translate(424.25695776835346 10.40663278810166) rotate(0 22.30998992919922 25)"><text x="22.30998992919922" y="0" font-family="Virgil, Segoe UI Emoji" font-size="20px" fill="#1e1e1e" text-anchor="middle" style="white-space: pre;" direction="ltr" dominant-baseline="text-before-edge">[2,1]</text><text x="22.30998992919922" y="25" font-family="Virgil, Segoe UI Emoji" font-size="20px" fill="#1e1e1e" text-anchor="middle" style="white-space: pre;" direction="ltr" dominant-baseline="text-before-edge">e4</text></g><g transform="translate(56.36998035233182 22.90663322430214) rotate(0 26.239990234375 12.5)"><text x="26.239990234375" y="0" font-family="Virgil, Segoe UI Emoji" font-size="20px" fill="#1e1e1e" text-anchor="middle" style="white-space: pre;" direction="ltr" dominant-baseline="text-before-edge">[0,0]</text></g><g transform="translate(56.18414976183112 192.39302287119813) rotate(0 26.239990234375 12.5)"><text x="26.239990234375" y="0" font-family="Virgil, Segoe UI Emoji" font-size="20px" fill="#1e1e1e" text-anchor="middle" style="white-space: pre;" direction="ltr" dominant-baseline="text-before-edge">[0,0]</text></g></svg>