<svg version="1.1" xmlns="http://www.w3.org/2000/svg" viewBox="0 0 948.128220235184 265.35006018211357" width="948.128220235184" height="265.35006018211357">
  <!-- svg-source:excalidraw -->
  
  <defs>
    <style class="style-fonts">
      @font-face {
        font-family: "Virgil";
        src: url("https://excalidraw.com/Virgil.woff2");
      }
      @font-face {
        font-family: "Cascadia";
        src: url("https://excalidraw.com/Cascadia.woff2");
      }
      @font-face {
        font-family: "Assistant";
        src: url("https://excalidraw.com/Assistant-Regular.woff2");
      }
    </style>
    
  </defs>
  <g stroke-linecap="round"><g transform="translate(136.85505951170762 25.025610685735728) rotate(0 400 -0.7142857142856656)"><path d="M0.46 0.22 C134.02 0.2, 667.5 -0.8, 800.94 -0.89 M-0.76 -0.71 C132.77 -1.02, 666.88 -2.5, 800.48 -2.73" stroke="#1e1e1e" stroke-width="2" fill="none"></path></g></g><mask></mask><g stroke-linecap="round"><g transform="translate(137.0628619086001 135.86195696724485) rotate(0 400 -0.7142857142856656)"><path d="M0.94 0.54 C134.37 0.45, 667.81 -0.08, 801.07 -0.32 M-0.03 -0.22 C133.3 -0.64, 667.35 -1.41, 800.68 -1.86" stroke="#1e1e1e" stroke-width="2" fill="none"></path></g></g><mask></mask><g stroke-linecap="round"><g transform="translate(136.24375139439053 240.6320212352964) rotate(0 400 -0.7142857142856656)"><path d="M1.07 1.11 C134.32 0.88, 667.18 -0.64, 800.46 -0.86 M0.17 0.65 C133.22 0.01, 666.38 -2.25, 799.75 -2.69" stroke="#1e1e1e" stroke-width="2" fill="none"></path></g></g><mask></mask><g transform="translate(16.312328109543614 12.708564895214067) rotate(0 48.83998107910156 12.5)"><text x="0" y="0" font-family="Virgil, Segoe UI Emoji" font-size="20px" fill="#1971c2" text-anchor="start" style="white-space: pre;" direction="ltr" dominant-baseline="text-before-edge">P1 = 1000</text></g><g transform="translate(12.088162260733952 123.06216338556601) rotate(0 50.46997833251953 12.5)"><text x="0" y="0" font-family="Virgil, Segoe UI Emoji" font-size="20px" fill="#f08c00" text-anchor="start" style="white-space: pre;" direction="ltr" dominant-baseline="text-before-edge">P2 = 300</text></g><g transform="translate(10 228.07042111302303) rotate(0 48.72998046875 12.5)"><text x="0" y="0" font-family="Virgil, Segoe UI Emoji" font-size="20px" fill="#e03131" text-anchor="start" style="white-space: pre;" direction="ltr" dominant-baseline="text-before-edge">P3 = 700</text></g><g stroke-linecap="round"><g transform="translate(191.1407737974223 23.914499574624642) rotate(0 17.81855883420633 107.52473525903622)"><path d="M-0.48 -0.88 C5.33 34.98, 29.53 179.74, 35.71 215.57 M1.48 1.27 C7.06 36.74, 28.99 178.11, 34.81 213.73" stroke="#1971c2" stroke-width="2" fill="none"></path></g><g transform="translate(191.1407737974223 23.914499574624642) rotate(0 17.81855883420633 107.52473525903622)"><path d="M22.68 191.86 C25.8 200.18, 32.65 209.85, 34.81 213.73 M22.68 191.86 C25.8 197.53, 28.88 202.41, 34.81 213.73" stroke="#1971c2" stroke-width="2" fill="none"></path></g><g transform="translate(191.1407737974223 23.914499574624642) rotate(0 17.81855883420633 107.52473525903622)"><path d="M39.57 189.18 C36.41 198.43, 36.98 209.09, 34.81 213.73 M39.57 189.18 C38.93 195.58, 38.24 201.06, 34.81 213.73" stroke="#1971c2" stroke-width="2" fill="none"></path></g></g><mask></mask><g stroke-linecap="round"><g transform="translate(281.10735846324724 26.1107075357711) rotate(0 68.99859283877299 54.20165518098963)"><path d="M0.08 0.52 C23.32 18.59, 115.88 89.35, 139 107.49 M-1.34 -0.25 C21.88 18.02, 115.28 90.58, 138.57 108.54" stroke="#1971c2" stroke-width="2" fill="none"></path></g><g transform="translate(281.10735846324724 26.1107075357711) rotate(0 68.99859283877299 54.20165518098963)"><path d="M114.77 100.92 C121.78 104.55, 125.58 106.15, 138.57 108.54 M114.77 100.92 C124.44 104.47, 133.66 107.17, 138.57 108.54" stroke="#1971c2" stroke-width="2" fill="none"></path></g><g transform="translate(281.10735846324724 26.1107075357711) rotate(0 68.99859283877299 54.20165518098963)"><path d="M125.24 87.4 C129.43 94.56, 130.5 99.68, 138.57 108.54 M125.24 87.4 C130.98 96.16, 136.24 103.98, 138.57 108.54" stroke="#1971c2" stroke-width="2" fill="none"></path></g></g><mask></mask><g stroke-linecap="round"><g transform="translate(191.1407737974223 24.914499574624642) rotate(0 142.53154115023563 107.39608235233095)"><path d="M1 -0.92 C48.63 34.95, 238.43 179.61, 285.83 215.74 M0.07 1.22 C47.59 36.72, 237.83 178.64, 285.28 214.11" stroke="#1971c2" stroke-width="2" fill="none"></path></g><g transform="translate(191.1407737974223 24.914499574624642) rotate(0 142.53154115023563 107.39608235233095)"><path d="M261.34 206.91 C267.18 210.19, 277.62 211.66, 285.28 214.11 M261.34 206.91 C271.5 210.18, 280.16 211.99, 285.28 214.11" stroke="#1971c2" stroke-width="2" fill="none"></path></g><g transform="translate(191.1407737974223 24.914499574624642) rotate(0 142.53154115023563 107.39608235233095)"><path d="M271.58 193.2 C274.34 200.77, 281.64 206.44, 285.28 214.11 M271.58 193.2 C277.86 201.87, 282.55 208.99, 285.28 214.11" stroke="#1971c2" stroke-width="2" fill="none"></path></g></g><mask></mask><g stroke-linecap="round"><g transform="translate(403.1407737974223 238.91449957462441) rotate(0 165 -104)"><path d="M0.77 0.94 C34.15 -19.06, 146.32 -86.3, 201.32 -120.95 C256.32 -155.6, 309.15 -192.59, 330.77 -206.96 M-0.29 0.39 C32.88 -19.85, 145.43 -87.67, 200.54 -122.53 C255.66 -157.38, 308.53 -194.29, 330.4 -208.75" stroke="#e03131" stroke-width="2" fill="none"></path></g><g transform="translate(403.1407737974223 238.91449957462441) rotate(0 165 -104)"><path d="M315.71 -188.52 C323.07 -195.83, 328.87 -202.85, 330.4 -208.75 M315.71 -188.52 C321.46 -196.73, 327.36 -204.54, 330.4 -208.75" stroke="#e03131" stroke-width="2" fill="none"></path></g><g transform="translate(403.1407737974223 238.91449957462441) rotate(0 165 -104)"><path d="M306.15 -202.69 C317.06 -204.63, 326.53 -206.22, 330.4 -208.75 M306.15 -202.69 C315.71 -205.49, 325.32 -207.81, 330.4 -208.75" stroke="#e03131" stroke-width="2" fill="none"></path></g></g><mask></mask><g stroke-linecap="round"><g transform="translate(497.30611487505485 25.48853494256582) rotate(0 43.56486973400206 106.33953260604073)"><path d="M0.32 1.05 C14.84 36.51, 73.26 178.31, 87.9 213.72 M-0.97 0.55 C13.4 35.62, 72.54 176.97, 87.35 212.15" stroke="#1971c2" stroke-width="2" fill="none"></path></g><g transform="translate(497.30611487505485 25.48853494256582) rotate(0 43.56486973400206 106.33953260604073)"><path d="M70.38 193.79 C78.44 201.7, 84.61 208.79, 87.35 212.15 M70.38 193.79 C77.13 200.35, 82.49 207.28, 87.35 212.15" stroke="#1971c2" stroke-width="2" fill="none"></path></g><g transform="translate(497.30611487505485 25.48853494256582) rotate(0 43.56486973400206 106.33953260604073)"><path d="M86.15 187.18 C88.53 197.54, 88.96 207.03, 87.35 212.15 M86.15 187.18 C87.1 196.14, 86.63 205.5, 87.35 212.15" stroke="#1971c2" stroke-width="2" fill="none"></path></g></g><mask></mask><g stroke-linecap="round"><g transform="translate(619.7081736833306 238.01841722229324) rotate(0 81.58432940932425 -104.60906466836047)"><path d="M0.77 1.04 C28.07 -33.86, 137.07 -173.29, 164.18 -208.39 M-0.29 0.55 C26.92 -34.17, 136.58 -175.25, 163.76 -210.08" stroke="#e03131" stroke-width="2" fill="none"></path></g><g transform="translate(619.7081736833306 238.01841722229324) rotate(0 81.58432940932425 -104.60906466836047)"><path d="M156.07 -186.29 C160.12 -192.43, 162.27 -201.44, 163.76 -210.08 M156.07 -186.29 C157.6 -192.84, 160.11 -199.6, 163.76 -210.08" stroke="#e03131" stroke-width="2" fill="none"></path></g><g transform="translate(619.7081736833306 238.01841722229324) rotate(0 81.58432940932425 -104.60906466836047)"><path d="M142.58 -196.8 C151.13 -199.59, 157.7 -205.16, 163.76 -210.08 M142.58 -196.8 C147.82 -200.46, 153.99 -204.36, 163.76 -210.08" stroke="#e03131" stroke-width="2" fill="none"></path></g></g><mask></mask><g stroke-linecap="round"><g transform="translate(440.35416296121366 135.3715827694266) rotate(0 52.16588188442188 51.71463060719077)"><path d="M1.01 0.83 C18.32 17.84, 87.29 86.04, 104.6 103.09 M0.08 0.22 C17.19 17.92, 86.42 87.11, 103.8 104.45" stroke="#f08c00" stroke-width="2" fill="none"></path></g><g transform="translate(440.35416296121366 135.3715827694266) rotate(0 52.16588188442188 51.71463060719077)"><path d="M81.14 93.89 C90.86 98, 97.15 102.28, 103.8 104.45 M81.14 93.89 C87.26 96.4, 94.18 99.18, 103.8 104.45" stroke="#f08c00" stroke-width="2" fill="none"></path></g><g transform="translate(440.35416296121366 135.3715827694266) rotate(0 52.16588188442188 51.71463060719077)"><path d="M93.23 81.8 C98.65 90.4, 100.55 99.09, 103.8 104.45 M93.23 81.8 C95.98 87.6, 99.59 93.7, 103.8 104.45" stroke="#f08c00" stroke-width="2" fill="none"></path></g></g><mask></mask><g stroke-linecap="round"><g transform="translate(160.13959032182652 10.364524767948296) rotate(0 68.98523812445058 121.93365059738164)"><path d="M-0.58 0.45 C1.81 14.01, 1.26 60.17, 13.98 81.38 C26.69 102.6, 54.95 100.48, 75.73 127.75 C96.51 155.02, 128.3 225.63, 138.66 244.99 M1.31 -0.36 C4.11 13.39, 3.91 61.43, 16.2 82.91 C28.49 104.39, 54.54 101.85, 75.05 128.54 C95.56 155.22, 129.05 223.73, 139.27 243.02" stroke="#2f9e44" stroke-width="2" fill="none"></path></g></g><mask></mask><g stroke-linecap="round" transform="translate(157.0871036464955 18.66950100736335) rotate(0 5.463509437625476 5.397143514239929)"><path d="M5.29 -0.44 C6.28 -0.6, 7.34 0.59, 8.27 1.25 C9.2 1.9, 10.48 2.45, 10.87 3.49 C11.26 4.53, 11.17 6.28, 10.59 7.47 C10 8.67, 8.45 10.13, 7.35 10.66 C6.24 11.19, 5.02 10.97, 3.95 10.64 C2.89 10.32, 1.56 9.65, 0.94 8.72 C0.32 7.78, 0.07 6.13, 0.25 5.02 C0.44 3.92, 1.25 2.91, 2.04 2.09 C2.83 1.28, 4.45 0.4, 4.99 0.12 C5.52 -0.16, 5.24 0.31, 5.24 0.43 M6.52 0.18 C7.61 0.18, 9.41 0.65, 10.12 1.58 C10.83 2.5, 10.95 4.58, 10.78 5.72 C10.61 6.87, 9.76 7.49, 9.11 8.45 C8.46 9.4, 8.01 11.15, 6.88 11.45 C5.75 11.74, 3.48 10.93, 2.31 10.2 C1.14 9.47, 0.16 8.3, -0.15 7.07 C-0.47 5.83, -0.02 3.79, 0.44 2.79 C0.89 1.79, 1.5 1.63, 2.56 1.07 C3.63 0.52, 6.28 -0.29, 6.84 -0.54 C7.41 -0.8, 6.1 -0.56, 5.96 -0.44" stroke="none" stroke-width="0" fill="#d0bfff"></path><path d="M4.84 0.38 C6.04 0.06, 7.94 0.09, 8.86 0.62 C9.79 1.15, 10.06 2.4, 10.39 3.55 C10.71 4.69, 11.24 6.4, 10.82 7.49 C10.4 8.59, 9 9.66, 7.87 10.14 C6.73 10.61, 5.08 10.57, 3.99 10.35 C2.9 10.13, 1.93 9.67, 1.32 8.82 C0.7 7.96, 0.27 6.39, 0.31 5.22 C0.34 4.04, 0.74 2.55, 1.53 1.77 C2.31 0.99, 4.45 0.82, 5.02 0.52 C5.59 0.23, 4.9 -0.08, 4.95 0.01 M4.68 -0.34 C5.91 -0.48, 7.09 0.51, 8.16 1.07 C9.24 1.63, 10.81 2.09, 11.12 3.01 C11.43 3.92, 10.44 5.32, 10.02 6.56 C9.6 7.79, 9.53 9.69, 8.62 10.42 C7.71 11.15, 5.85 11.09, 4.57 10.93 C3.28 10.76, 1.77 10.31, 0.92 9.42 C0.07 8.53, -0.62 6.77, -0.53 5.61 C-0.43 4.45, 0.66 3.37, 1.51 2.45 C2.35 1.54, 3.97 0.5, 4.53 0.1 C5.09 -0.31, 4.85 -0.17, 4.87 0.01" stroke="#6741d9" stroke-width="2" fill="none"></path></g><g stroke-linecap="round" transform="translate(228.81022582425499 131.6457411658157) rotate(0 5.463509437625476 5.397143514239929)"><path d="M3.86 -0.22 C5.04 -0.5, 6.98 -0.22, 8.16 0.37 C9.34 0.95, 10.56 2.2, 10.95 3.28 C11.34 4.35, 10.9 5.72, 10.48 6.81 C10.06 7.9, 9.35 9.13, 8.45 9.83 C7.55 10.53, 6.22 11.16, 5.08 11.03 C3.95 10.9, 2.54 9.87, 1.65 9.06 C0.76 8.24, -0.25 7.28, -0.28 6.14 C-0.32 5, 0.63 3.31, 1.44 2.22 C2.25 1.13, 3.96 -0.12, 4.58 -0.41 C5.2 -0.71, 5.12 0.22, 5.17 0.44 M4.74 -0.3 C5.77 -0.67, 6.71 0.2, 7.73 0.83 C8.76 1.46, 10.43 2.53, 10.9 3.47 C11.36 4.42, 10.9 5.51, 10.54 6.52 C10.18 7.53, 9.64 8.85, 8.72 9.54 C7.81 10.23, 6.27 10.8, 5.04 10.68 C3.81 10.55, 2.15 9.7, 1.32 8.79 C0.48 7.88, 0.04 6.36, 0.03 5.24 C0.03 4.12, 0.51 2.97, 1.28 2.06 C2.05 1.15, 4.29 -0.03, 4.64 -0.23 C5 -0.42, 3.49 0.7, 3.43 0.88" stroke="none" stroke-width="0" fill="#d0bfff"></path><path d="M5.61 0.35 C6.7 0.21, 8.4 -0.01, 9.23 0.73 C10.07 1.46, 10.43 3.48, 10.63 4.75 C10.84 6.02, 11.06 7.45, 10.45 8.35 C9.84 9.25, 8.04 9.76, 6.96 10.14 C5.89 10.52, 5.1 10.94, 3.99 10.64 C2.88 10.34, 1 9.43, 0.32 8.34 C-0.37 7.25, -0.43 5.29, -0.1 4.1 C0.22 2.91, 1.3 1.89, 2.26 1.19 C3.23 0.5, 5.04 0.07, 5.69 -0.07 C6.33 -0.21, 6.15 0.19, 6.15 0.37 M6.89 0.63 C7.97 0.89, 8.94 1.81, 9.72 2.72 C10.5 3.63, 11.56 5.05, 11.59 6.09 C11.61 7.13, 10.78 8.15, 9.86 8.98 C8.95 9.81, 7.42 10.94, 6.09 11.06 C4.76 11.19, 2.83 10.5, 1.86 9.74 C0.89 8.99, 0.61 7.5, 0.27 6.54 C-0.06 5.57, -0.73 4.98, -0.15 3.95 C0.43 2.92, 2.55 1.06, 3.75 0.36 C4.95 -0.34, 6.53 -0.23, 7.04 -0.24 C7.55 -0.25, 6.97 0.18, 6.82 0.27" stroke="#6741d9" stroke-width="2" fill="none"></path></g><g stroke-linecap="round" transform="translate(287.59038973192855 236.84011134779075) rotate(0 5.463509437625476 5.397143514239929)"><path d="M5.37 -0.48 C6.51 -0.63, 8.3 0.21, 9.29 1.01 C10.29 1.81, 11.18 3.09, 11.33 4.33 C11.47 5.56, 10.85 7.3, 10.15 8.4 C9.45 9.5, 8.3 10.56, 7.12 10.93 C5.94 11.3, 4.14 11.09, 3.07 10.62 C2 10.15, 1.25 9.14, 0.72 8.12 C0.19 7.1, -0.31 5.66, -0.11 4.49 C0.08 3.31, 0.9 1.78, 1.89 1.06 C2.89 0.34, 5.04 0.26, 5.85 0.17 C6.65 0.08, 6.6 0.4, 6.71 0.52 M6.15 0.74 C7.12 0.76, 8.11 0.56, 8.98 1.12 C9.85 1.67, 11.13 2.94, 11.39 4.06 C11.64 5.18, 11.13 6.79, 10.5 7.85 C9.87 8.92, 8.91 10.04, 7.62 10.46 C6.32 10.88, 3.89 10.67, 2.72 10.37 C1.54 10.08, 1 9.65, 0.55 8.68 C0.1 7.71, -0.19 5.87, 0 4.55 C0.19 3.23, 0.76 1.52, 1.68 0.75 C2.61 -0.03, 4.91 0.09, 5.55 -0.11 C6.19 -0.31, 5.43 -0.52, 5.53 -0.46" stroke="none" stroke-width="0" fill="#d0bfff"></path><path d="M5.76 0.07 C6.93 -0.16, 8.09 -0.03, 8.99 0.74 C9.89 1.51, 10.92 3.45, 11.17 4.71 C11.42 5.97, 11.2 7.36, 10.49 8.33 C9.78 9.29, 7.97 10.05, 6.89 10.48 C5.8 10.91, 5.05 11.29, 3.98 10.88 C2.9 10.48, 1.06 9.07, 0.45 8.05 C-0.17 7.04, -0.01 5.95, 0.27 4.8 C0.54 3.65, 1.23 1.95, 2.1 1.17 C2.97 0.4, 4.87 0.3, 5.49 0.14 C6.1 -0.01, 5.78 0.19, 5.81 0.24 M5.05 -0.13 C6.23 -0.3, 8.14 -0.27, 8.96 0.49 C9.77 1.26, 9.69 3.25, 9.96 4.45 C10.23 5.65, 10.85 6.7, 10.55 7.67 C10.25 8.64, 9.11 9.9, 8.15 10.29 C7.19 10.68, 5.94 10.27, 4.78 10 C3.62 9.73, 2.03 9.5, 1.2 8.68 C0.36 7.86, -0.28 6.2, -0.22 5.05 C-0.17 3.9, 0.65 2.58, 1.55 1.78 C2.44 0.98, 4.7 0.43, 5.15 0.23 C5.59 0.03, 4.38 0.56, 4.22 0.58" stroke="#6741d9" stroke-width="2" fill="none"></path></g></svg>