<svg version="1.1" xmlns="http://www.w3.org/2000/svg" viewBox="0 0 650.0111982085969 259.0392026119699" width="650.0111982085969" height="259.0392026119699">
  <!-- svg-source:excalidraw -->
  
  <defs>
    <style class="style-fonts">
      @font-face {
        font-family: "Virgil";
        src: url("https://excalidraw.com/Virgil.woff2");
      }
      @font-face {
        font-family: "Cascadia";
        src: url("https://excalidraw.com/Cascadia.woff2");
      }
      @font-face {
        font-family: "Assistant";
        src: url("https://excalidraw.com/Assistant-Regular.woff2");
      }
    </style>
    
  </defs>
  <g mask="url(#mask-RKCE2_GmaKqfOlnyRYOe1)" stroke-linecap="round"><g transform="translate(491.52714370494095 48.41399909023028) rotate(0 21.43746798572397 64.31240395717197)"><path d="M1.18 0.37 C5.56 14.35, 18.71 63.3, 25.77 84.74 C32.83 106.19, 40.82 121.75, 43.54 129.05 M0.35 -0.48 C5.14 13.13, 20.85 62, 27.98 83.23 C35.11 104.47, 40.8 119.2, 43.13 126.92" stroke="#1971c2" stroke-width="2" fill="none"></path></g><g transform="translate(491.52714370494095 48.41399909023028) rotate(0 21.43746798572397 64.31240395717197)"><path d="M28.24 108.19 C32.82 111.27, 37.98 118.81, 43.13 126.92 M28.24 108.19 C33.91 113.56, 38.06 119.83, 43.13 126.92" stroke="#1971c2" stroke-width="2" fill="none"></path></g><g transform="translate(491.52714370494095 48.41399909023028) rotate(0 21.43746798572397 64.31240395717197)"><path d="M43.76 103.01 C44.38 107.58, 45.54 116.45, 43.13 126.92 M43.76 103.01 C44.19 110.1, 43.14 118.11, 43.13 126.92" stroke="#1971c2" stroke-width="2" fill="none"></path></g></g><mask id="mask-RKCE2_GmaKqfOlnyRYOe1"><rect x="0" y="0" fill="#fff" width="634.4020796763889" height="277.0388070045742"></rect><rect x="505.7428620288083" y="119.49466845463547" fill="#000" width="25.019973754882812" height="25" opacity="1"></rect></mask><g stroke-linecap="round"><g transform="translate(478.4753367559706 35.13261926841761) rotate(0 44.55944557864177 80.36160165622707)"><path d="M0.12 -0.09 C0.73 8.02, -9.85 34.19, 3.67 49.22 C17.19 64.26, 67 71.69, 81.22 90.12 C95.44 108.55, 87.64 148.05, 88.99 159.81 M-1.28 -1.18 C-0.86 7.08, -11.18 35.91, 2.5 50.78 C16.18 65.65, 66.35 69.78, 80.79 88.05 C95.24 106.33, 87.98 148.27, 89.17 160.43" stroke="#2f9e44" stroke-width="2" fill="none"></path></g></g><mask></mask><g stroke-linecap="round"><g transform="translate(46.53922990975116 47.94721328748153) rotate(0 296.4304901438172 0)"><path d="M-1.07 0.45 C97.74 0.24, 494.37 -0.62, 593.47 -0.6 M0.56 -0.36 C99.23 -0.48, 494.08 0.81, 592.84 0.63" stroke="#1e1e1e" stroke-width="2" fill="none"></path></g></g><mask></mask><g stroke-linecap="round"><g transform="translate(46.78583219134316 179.4784000547229) rotate(0 294.8307262746323 0)"><path d="M0.61 -0.6 C99.18 -0.57, 492.32 0.57, 590.36 0.59 M-0.53 1.7 C98.04 1.33, 491.14 -1.03, 589.78 -1.23" stroke="#1e1e1e" stroke-width="2" fill="none"></path></g></g><mask></mask><g transform="translate(505.7428620288083 119.49466845463547) rotate(0 7.72745202134206 -6.799670685561097)"><text x="12.509986877441406" y="0" font-family="Virgil, Segoe UI Emoji" font-size="20px" fill="#1971c2" text-anchor="middle" style="white-space: pre;" direction="ltr" dominant-baseline="text-before-edge">m5</text></g><g mask="url(#mask-wzghX75vMAF6G7rkG5sJG)" stroke-linecap="round"><g transform="translate(329.8880824707335 177.76228431116135) rotate(0 43.996111289848386 -64.17781371638455)"><path d="M-0.08 -0.71 C3.74 -5.94, 7.43 -10.08, 22.26 -31.53 C37.09 -52.98, 78.02 -113.32, 88.9 -129.38 M-1.58 1.54 C2.17 -3.56, 6.48 -8.77, 21.51 -30.46 C36.54 -52.15, 77.61 -112.59, 88.61 -128.6" stroke="#1971c2" stroke-width="2" fill="none"></path></g><g transform="translate(329.8880824707335 177.76228431116135) rotate(0 43.996111289848386 -64.17781371638455)"><path d="M82.42 -104.38 C82.8 -109.74, 84.02 -114.86, 88.61 -128.6 M82.42 -104.38 C84.24 -109.67, 85.91 -114.44, 88.61 -128.6" stroke="#1971c2" stroke-width="2" fill="none"></path></g><g transform="translate(329.8880824707335 177.76228431116135) rotate(0 43.996111289848386 -64.17781371638455)"><path d="M68.3 -114.03 C72.17 -116.99, 76.88 -119.72, 88.61 -128.6 M68.3 -114.03 C73.11 -117.31, 77.81 -120, 88.61 -128.6" stroke="#1971c2" stroke-width="2" fill="none"></path></g></g><mask id="mask-wzghX75vMAF6G7rkG5sJG"><rect x="0" y="0" fill="#fff" width="517.8803050504305" height="406.11791174393045"></rect><rect x="339.036298715007" y="134.62970873783865" fill="#000" width="25.459976196289062" height="25" opacity="1"></rect></mask><g transform="translate(339.036298715007 134.62970873783854) rotate(0 34.51411420951695 -20.789975491501934)"><text x="12.729988098144531" y="0" font-family="Virgil, Segoe UI Emoji" font-size="20px" fill="#1971c2" text-anchor="middle" style="white-space: pre;" direction="ltr" dominant-baseline="text-before-edge">m4</text></g><g stroke-linecap="round"><g transform="translate(202.32594066278625 28.456941269074036) rotate(0 1.1899513412356555 86.86644791019563)"><path d="M-0.93 -1.19 C-0.74 27.85, 1.47 145.34, 2.02 174.5 M0.78 0.8 C0.71 29.47, 0.74 143.73, 0.88 172.78" stroke="#2f9e44" stroke-width="2" fill="none"></path></g></g><mask></mask><g stroke-linecap="round"><g transform="translate(353.17908874400837 32.670844443670774) rotate(0 13.199099798268207 79.32663302132153)"><path d="M0.07 1.08 C-0.17 11.36, -6.39 46.42, -1.62 61.77 C3.16 77.13, 23.73 77.06, 28.73 93.19 C33.73 109.32, 28.41 147.56, 28.39 158.57 M-1.35 0.6 C-1.75 11.02, -7.6 47.3, -2.64 62.95 C2.32 78.6, 23.13 78.39, 28.42 94.5 C33.71 110.61, 29.23 148.72, 29.1 159.63" stroke="#2f9e44" stroke-width="2" fill="none"></path></g></g><mask></mask><g mask="url(#mask-M6YrrPP_Uu2ncUMT6l6S9)" stroke-linecap="round"><g transform="translate(98.3313363872162 50.080808151529084) rotate(0 15.697194780804693 64.140488393672)"><path d="M0.99 -0.17 C6.39 21.24, 27.17 106.35, 32.19 127.73 M0.04 -1.3 C5.39 20.33, 26.63 107.21, 31.66 128.98" stroke="#1971c2" stroke-width="2" fill="none"></path></g><g transform="translate(98.3313363872162 50.080808151529084) rotate(0 15.697194780804693 64.140488393672)"><path d="M17.89 108.11 C21.31 115.14, 24.5 119.17, 31.66 128.98 M17.89 108.11 C21.82 115.09, 24.73 120.54, 31.66 128.98" stroke="#1971c2" stroke-width="2" fill="none"></path></g><g transform="translate(98.3313363872162 50.080808151529084) rotate(0 15.697194780804693 64.140488393672)"><path d="M34.52 104.14 C33.28 112.41, 31.85 117.54, 31.66 128.98 M34.52 104.14 C33.71 112.14, 31.9 118.71, 31.66 128.98" stroke="#1971c2" stroke-width="2" fill="none"></path></g></g><mask id="mask-M6YrrPP_Uu2ncUMT6l6S9"><rect x="0" y="0" fill="#fff" width="229.7257259488254" height="278.3617849388731"></rect><rect x="104.98853788188808" y="101.72129654520108" fill="#000" width="18.079986572265625" height="25" opacity="1"></rect></mask><g transform="translate(104.98853788188808 101.72129654520108) rotate(0 9.460016325092738 12.196020461218438)"><text x="9.039993286132812" y="0" font-family="Virgil, Segoe UI Emoji" font-size="20px" fill="#1971c2" text-anchor="middle" style="white-space: pre;" direction="ltr" dominant-baseline="text-before-edge">m1</text></g><g mask="url(#mask-mPkPtT3EUlcPkoAYDWqOF)" stroke-linecap="round"><g transform="translate(147.4221485982207 179.16616778657317) rotate(0 10.456977020096929 -65.15501066368108)"><path d="M0.16 0.7 C3.78 -21.03, 17.8 -107.42, 21.44 -129.18 M-1.21 0.02 C2.31 -21.51, 16.93 -108.72, 20.76 -130.71" stroke="#1971c2" stroke-width="2" fill="none"></path></g><g transform="translate(147.4221485982207 179.16616778657317) rotate(0 10.456977020096929 -65.15501066368108)"><path d="M25.25 -106.11 C24.91 -112.1, 24.38 -118.08, 20.76 -130.71 M25.25 -106.11 C22.77 -115.34, 22.07 -123.66, 20.76 -130.71" stroke="#1971c2" stroke-width="2" fill="none"></path></g><g transform="translate(147.4221485982207 179.16616778657317) rotate(0 10.456977020096929 -65.15501066368108)"><path d="M8.39 -108.98 C12.79 -114.2, 16.97 -119.37, 20.76 -130.71 M8.39 -108.98 C11.66 -117.19, 16.69 -124.54, 20.76 -130.71" stroke="#1971c2" stroke-width="2" fill="none"></path></g></g><mask id="mask-mPkPtT3EUlcPkoAYDWqOF"><rect x="0" y="0" fill="#fff" width="268.3361026384145" height="409.47618911393533"></rect><rect x="144.42913629946997" y="101.51115712289209" fill="#000" width="26.899978637695312" height="25" opacity="1"></rect></mask><g stroke-linecap="round" transform="translate(58.89240000264681 40.474411252546474) rotate(0 6.4836301840887245 6.404872728103783)"><path d="M7.62 0.31 C8.98 0.43, 10.85 0.91, 11.76 1.86 C12.66 2.8, 13.15 4.5, 13.07 5.98 C12.99 7.47, 12.26 9.68, 11.27 10.76 C10.29 11.83, 8.41 12.16, 7.16 12.44 C5.9 12.72, 4.95 13.04, 3.75 12.45 C2.55 11.85, 0.57 10.22, -0.05 8.85 C-0.67 7.49, -0.56 5.55, 0.03 4.26 C0.62 2.97, 2.22 1.86, 3.49 1.11 C4.77 0.36, 7.01 -0.17, 7.67 -0.24 C8.32 -0.31, 7.43 0.5, 7.44 0.68 M6.69 -0.19 C8.1 -0.39, 9.99 0.4, 10.91 1.4 C11.83 2.4, 12.13 4.52, 12.22 5.78 C12.31 7.04, 12.02 7.75, 11.44 8.94 C10.86 10.14, 9.82 12.34, 8.74 12.97 C7.66 13.59, 6.25 13.35, 4.97 12.68 C3.69 12.02, 1.88 10.25, 1.04 8.98 C0.21 7.71, -0.13 6.23, -0.03 5.06 C0.07 3.89, 0.68 2.83, 1.65 1.97 C2.62 1.12, 4.94 0.29, 5.77 -0.07 C6.6 -0.43, 6.41 -0.38, 6.62 -0.18" stroke="none" stroke-width="0" fill="#d0bfff"></path><path d="M5.08 0.37 C6.39 0.11, 8.14 0.38, 9.45 0.95 C10.76 1.53, 12.51 2.47, 12.96 3.81 C13.41 5.14, 12.73 7.54, 12.14 8.95 C11.55 10.35, 10.51 11.66, 9.41 12.24 C8.31 12.81, 6.86 12.64, 5.54 12.38 C4.23 12.12, 2.43 11.7, 1.52 10.69 C0.61 9.67, 0.11 7.61, 0.06 6.28 C0.01 4.94, 0.27 3.74, 1.23 2.67 C2.2 1.6, 5.04 0.29, 5.85 -0.15 C6.66 -0.6, 6.12 -0.09, 6.07 0 M7.67 0.44 C8.91 0.44, 9.86 1.4, 10.7 2.28 C11.55 3.16, 12.5 4.32, 12.73 5.74 C12.96 7.15, 12.85 9.58, 12.09 10.78 C11.33 11.97, 9.48 12.66, 8.16 12.93 C6.83 13.2, 5.45 13, 4.14 12.4 C2.83 11.8, 0.9 10.67, 0.31 9.34 C-0.28 8, 0.16 5.91, 0.6 4.41 C1.04 2.92, 1.93 1.07, 2.96 0.38 C4 -0.31, 6.21 0.4, 6.84 0.27 C7.47 0.14, 6.64 -0.5, 6.74 -0.39" stroke="#6741d9" stroke-width="2" fill="none"></path></g><g stroke-linecap="round" transform="translate(55.428052212902 171.19263664249343) rotate(0 6.4836301840887245 6.404872728103783)"><path d="M5.2 -0.36 C6.56 -0.68, 8.84 0.23, 10.12 1.05 C11.39 1.87, 12.42 3.19, 12.85 4.57 C13.28 5.95, 13.22 8.16, 12.68 9.33 C12.14 10.5, 10.92 11.04, 9.59 11.61 C8.26 12.19, 6.13 13.04, 4.72 12.79 C3.31 12.53, 1.86 11.25, 1.14 10.07 C0.42 8.88, 0.22 6.96, 0.38 5.66 C0.53 4.36, 1.09 3.18, 2.07 2.28 C3.05 1.37, 5.69 0.65, 6.27 0.23 C6.85 -0.19, 5.58 -0.37, 5.58 -0.23 M6.92 -0.2 C8.16 0.1, 10.17 1.68, 11.26 2.85 C12.35 4.02, 13.44 5.61, 13.48 6.84 C13.52 8.06, 12.49 9.22, 11.49 10.21 C10.5 11.19, 8.88 12.33, 7.52 12.74 C6.17 13.16, 4.43 13.24, 3.36 12.69 C2.29 12.14, 1.55 10.86, 1.1 9.43 C0.66 8.01, 0.49 5.51, 0.7 4.12 C0.92 2.73, 1.39 1.75, 2.39 1.08 C3.39 0.42, 5.99 0.23, 6.7 0.14 C7.41 0.06, 6.56 0.37, 6.66 0.57" stroke="none" stroke-width="0" fill="#d0bfff"></path><path d="M6.68 0.15 C8.01 0.05, 9.76 0.74, 10.74 1.58 C11.72 2.43, 12.37 3.84, 12.58 5.23 C12.79 6.62, 12.68 8.64, 11.98 9.92 C11.27 11.2, 9.67 12.58, 8.34 12.91 C7.01 13.24, 5.24 12.45, 4 11.91 C2.75 11.37, 1.54 10.83, 0.88 9.68 C0.23 8.53, -0.2 6.43, 0.05 5 C0.31 3.58, 1.22 1.99, 2.42 1.13 C3.61 0.27, 6.56 0.01, 7.24 -0.16 C7.92 -0.32, 6.57 0.01, 6.5 0.14 M5.66 0.67 C6.88 0.47, 8.92 0.39, 10.21 1.02 C11.49 1.66, 13.1 3.15, 13.35 4.47 C13.61 5.79, 12.38 7.74, 11.72 8.92 C11.06 10.11, 10.62 11.05, 9.39 11.58 C8.17 12.11, 5.69 12.2, 4.38 12.11 C3.07 12.01, 2.33 12.03, 1.54 11 C0.75 9.97, -0.29 7.36, -0.37 5.93 C-0.45 4.51, 0.06 3.4, 1.06 2.44 C2.06 1.49, 4.95 0.7, 5.65 0.2 C6.35 -0.29, 5.32 -0.55, 5.26 -0.52" stroke="#6741d9" stroke-width="2" fill="none"></path></g><g stroke-linecap="round" transform="translate(195.84231047869753 40.29798910658201) rotate(0 6.4836301840887245 6.404872728103783)"><path d="M5.79 0.07 C7.18 -0.18, 9.53 0.09, 10.72 0.87 C11.91 1.65, 12.75 3.4, 12.94 4.74 C13.14 6.09, 12.5 7.67, 11.88 8.96 C11.26 10.24, 10.33 11.81, 9.22 12.46 C8.11 13.11, 6.5 13.25, 5.23 12.86 C3.95 12.48, 2.48 11.33, 1.57 10.16 C0.67 8.98, -0.28 7.12, -0.2 5.79 C-0.12 4.47, 0.94 3.19, 2.03 2.18 C3.12 1.18, 5.7 0.1, 6.35 -0.22 C6.99 -0.55, 5.95 0, 5.89 0.21 M6.12 -0.32 C7.49 -0.33, 9.96 0.4, 11.14 1.5 C12.32 2.59, 12.97 4.9, 13.21 6.25 C13.44 7.6, 13.34 8.62, 12.53 9.6 C11.73 10.58, 9.91 11.72, 8.4 12.12 C6.89 12.53, 4.86 12.48, 3.49 12.01 C2.12 11.54, 0.82 10.46, 0.16 9.32 C-0.5 8.17, -0.83 6.42, -0.47 5.14 C-0.11 3.87, 1.04 2.46, 2.32 1.68 C3.6 0.91, 6.37 0.63, 7.22 0.49 C8.06 0.35, 7.38 0.68, 7.4 0.82" stroke="none" stroke-width="0" fill="#d0bfff"></path><path d="M7.03 0.53 C8.3 0.56, 10.12 0.74, 11.16 1.66 C12.21 2.58, 13.25 4.57, 13.3 6.07 C13.35 7.58, 12.37 9.62, 11.45 10.69 C10.53 11.76, 9.05 12.19, 7.77 12.5 C6.49 12.8, 4.91 13.04, 3.77 12.5 C2.63 11.97, 1.52 10.56, 0.94 9.31 C0.36 8.06, -0.07 6.3, 0.3 5 C0.67 3.7, 1.93 2.4, 3.17 1.52 C4.41 0.64, 6.99 0.01, 7.73 -0.28 C8.48 -0.57, 7.65 -0.4, 7.65 -0.22 M4.94 0.25 C6.29 -0.13, 8.29 -0.21, 9.46 0.35 C10.63 0.92, 11.36 2.32, 11.94 3.63 C12.52 4.93, 13.4 6.77, 12.93 8.18 C12.47 9.59, 10.38 11.44, 9.14 12.08 C7.91 12.72, 6.85 12.25, 5.51 12.03 C4.18 11.81, 1.99 11.78, 1.13 10.78 C0.26 9.77, 0.28 7.38, 0.32 6.01 C0.37 4.65, 0.56 3.54, 1.38 2.61 C2.2 1.67, 4.55 0.68, 5.24 0.38 C5.93 0.09, 5.48 0.74, 5.53 0.83" stroke="#6741d9" stroke-width="2" fill="none"></path></g><g stroke-linecap="round" transform="translate(196.63561137285478 172.77923843080754) rotate(0 6.4836301840887245 6.404872728103783)"><path d="M5.14 0.16 C6.31 -0.16, 8.2 0.19, 9.42 0.92 C10.63 1.65, 11.91 3.34, 12.4 4.55 C12.9 5.76, 12.91 6.93, 12.41 8.16 C11.92 9.38, 10.57 11.09, 9.44 11.88 C8.31 12.67, 7.02 13.18, 5.65 12.89 C4.29 12.61, 2.19 11.2, 1.24 10.17 C0.28 9.14, -0.14 8.06, -0.1 6.7 C-0.05 5.34, 0.58 3.08, 1.52 2.02 C2.46 0.96, 4.87 0.65, 5.54 0.34 C6.21 0.03, 5.55 0.16, 5.53 0.16 M6.55 -0.15 C7.9 -0.26, 9.69 0.17, 10.81 1.19 C11.93 2.2, 13.16 4.49, 13.27 5.93 C13.38 7.36, 12.22 8.66, 11.46 9.79 C10.7 10.92, 10.04 12.18, 8.71 12.7 C7.39 13.21, 4.84 13.38, 3.51 12.89 C2.19 12.4, 1.29 11.16, 0.78 9.75 C0.27 8.34, 0.11 5.82, 0.43 4.45 C0.76 3.07, 1.69 2.32, 2.74 1.5 C3.78 0.68, 6.07 -0.24, 6.7 -0.48 C7.34 -0.71, 6.5 -0.05, 6.55 0.1" stroke="none" stroke-width="0" fill="#d0bfff"></path><path d="M5.28 -0.31 C6.61 -0.58, 8.51 -0.09, 9.76 0.71 C11.02 1.51, 12.27 3.12, 12.79 4.5 C13.32 5.88, 13.34 7.7, 12.91 9.01 C12.48 10.31, 11.39 11.71, 10.21 12.33 C9.03 12.95, 7.24 13.06, 5.84 12.74 C4.45 12.43, 2.87 11.43, 1.84 10.43 C0.8 9.43, -0.35 8.03, -0.38 6.73 C-0.41 5.43, 0.64 3.77, 1.66 2.64 C2.69 1.52, 5.05 0.43, 5.76 -0.02 C6.48 -0.48, 5.97 -0.11, 5.96 -0.07 M4.53 -0.3 C5.89 -0.63, 8.12 0.3, 9.48 1.04 C10.83 1.78, 12.03 2.85, 12.68 4.14 C13.33 5.42, 13.71 7.39, 13.39 8.75 C13.07 10.1, 12.09 11.58, 10.76 12.27 C9.43 12.96, 6.89 13.09, 5.43 12.88 C3.97 12.68, 2.8 11.96, 2.02 11.05 C1.23 10.14, 0.89 8.75, 0.72 7.43 C0.55 6.12, 0.16 4.45, 0.99 3.16 C1.81 1.86, 5.01 0.25, 5.68 -0.34 C6.35 -0.92, 5.05 -0.66, 5.01 -0.38" stroke="#6741d9" stroke-width="2" fill="none"></path></g><g transform="translate(154.74811342417524 201.57059103101068) rotate(0 51.52116394042969 23.734305790479624)"><text x="51.52116394042969" y="0" font-family="Virgil, Segoe UI Emoji" font-size="18.9874446323837px" fill="#2f9e44" text-anchor="middle" style="white-space: pre;" direction="ltr" dominant-baseline="text-before-edge">Fortemente</text><text x="51.52116394042969" y="23.734305790479624" font-family="Virgil, Segoe UI Emoji" font-size="18.9874446323837px" fill="#2f9e44" text-anchor="middle" style="white-space: pre;" direction="ltr" dominant-baseline="text-before-edge">coerente</text></g><g transform="translate(144.42913629946997 101.51115712289209) rotate(0 13.106662763929762 12.649531854488913)"><text x="13.449989318847656" y="0" font-family="Virgil, Segoe UI Emoji" font-size="20px" fill="#1971c2" text-anchor="middle" style="white-space: pre;" direction="ltr" dominant-baseline="text-before-edge">m2</text></g><g mask="url(#mask-67P1eCwWx0vDJ8pjOSYHG)" stroke-linecap="round"><g transform="translate(229.6935055487902 47.09500797951864) rotate(0 30.033083461395563 66.16340433596014)"><path d="M0.04 0.62 C9.99 22.42, 49.16 109.29, 58.98 131.23 M-1.4 -0.1 C8.97 21.76, 50.68 109.91, 61.12 132.2" stroke="#1971c2" stroke-width="2" fill="none"></path></g><g transform="translate(229.6935055487902 47.09500797951864) rotate(0 30.033083461395563 66.16340433596014)"><path d="M43.37 114.59 C48.73 117.01, 50.14 121.21, 61.12 132.2 M43.37 114.59 C48.03 120.27, 54.35 125.58, 61.12 132.2" stroke="#1971c2" stroke-width="2" fill="none"></path></g><g transform="translate(229.6935055487902 47.09500797951864) rotate(0 30.033083461395563 66.16340433596014)"><path d="M58.84 107.3 C60.51 111.47, 58.21 117.42, 61.12 132.2 M58.84 107.3 C58.89 115.05, 60.6 122.53, 61.12 132.2" stroke="#1971c2" stroke-width="2" fill="none"></path></g></g><mask id="mask-67P1eCwWx0vDJ8pjOSYHG"><rect x="0" y="0" fill="#fff" width="389.7596724715813" height="279.4218166514389"></rect><rect x="246.5866048793264" y="100.75841231547878" fill="#000" width="26.27996826171875" height="25" opacity="1"></rect></mask><g stroke-linecap="round" transform="translate(376.6841466927003 171.3574115830578) rotate(0 6.4836301840887245 6.404872728103783)"><path d="M5.42 -0.04 C6.75 -0.3, 8.35 0.39, 9.61 1.1 C10.86 1.8, 12.44 2.93, 12.96 4.2 C13.48 5.48, 13.35 7.46, 12.73 8.74 C12.11 10.02, 10.46 11.27, 9.23 11.88 C8 12.5, 6.65 12.64, 5.32 12.44 C3.99 12.23, 2.11 11.66, 1.25 10.66 C0.38 9.66, 0.07 7.92, 0.13 6.45 C0.2 4.98, 0.76 2.9, 1.63 1.86 C2.49 0.82, 4.54 0.57, 5.32 0.22 C6.11 -0.13, 6.31 -0.33, 6.36 -0.24 M6.87 -0.1 C8.04 -0.12, 9.35 1.17, 10.43 2.08 C11.52 2.99, 13.26 4.01, 13.37 5.36 C13.48 6.7, 12.11 8.92, 11.1 10.16 C10.09 11.39, 8.62 12.54, 7.31 12.75 C6 12.96, 4.47 12.02, 3.22 11.41 C1.97 10.8, 0.36 10.15, -0.2 9.1 C-0.75 8.05, -0.64 6.45, -0.09 5.11 C0.46 3.76, 1.9 1.8, 3.11 1.04 C4.32 0.29, 6.4 0.74, 7.17 0.58 C7.94 0.42, 7.7 0.12, 7.74 0.08" stroke="none" stroke-width="0" fill="#d0bfff"></path><path d="M5.99 0.08 C7.19 0.03, 8.95 0.91, 10.16 1.71 C11.38 2.5, 12.88 3.61, 13.28 4.85 C13.68 6.09, 13.4 7.92, 12.57 9.15 C11.74 10.38, 9.72 11.63, 8.3 12.23 C6.87 12.83, 5.18 13.12, 4.02 12.75 C2.86 12.38, 1.94 11.29, 1.35 10 C0.75 8.7, 0.38 6.34, 0.45 4.97 C0.52 3.59, 0.72 2.64, 1.76 1.77 C2.8 0.9, 5.79 -0.01, 6.67 -0.25 C7.54 -0.49, 7.06 0.19, 7.03 0.34 M6.59 0.62 C7.87 0.82, 10.37 1.77, 11.34 2.59 C12.32 3.4, 12.46 4.32, 12.44 5.51 C12.43 6.71, 11.9 8.54, 11.28 9.77 C10.65 11.01, 10.02 12.41, 8.67 12.91 C7.33 13.42, 4.5 13.48, 3.18 12.8 C1.87 12.11, 1.24 10.28, 0.8 8.8 C0.36 7.33, 0.2 5.35, 0.55 3.94 C0.89 2.53, 1.85 0.92, 2.86 0.35 C3.86 -0.22, 5.87 0.42, 6.58 0.51 C7.29 0.61, 7.04 0.86, 7.11 0.9" stroke="#6741d9" stroke-width="2" fill="none"></path></g><g stroke-linecap="round" transform="translate(344.3934228102421 41.7908820046963) rotate(0 6.4836301840887245 6.404872728103783)"><path d="M5.74 -0.45 C7.05 -0.64, 9.5 0.64, 10.62 1.6 C11.73 2.56, 12.09 4.05, 12.44 5.32 C12.79 6.59, 13.2 8, 12.69 9.23 C12.18 10.47, 10.67 12.18, 9.39 12.72 C8.11 13.26, 6.43 12.99, 5 12.46 C3.57 11.93, 1.64 10.62, 0.79 9.55 C-0.06 8.47, -0.22 7.32, -0.1 6.03 C0.03 4.74, 0.53 2.79, 1.57 1.83 C2.61 0.87, 5.29 0.46, 6.13 0.26 C6.97 0.05, 6.56 0.58, 6.61 0.59 M6.58 0.45 C7.93 0.37, 9.46 1.33, 10.45 2.05 C11.44 2.77, 12.18 3.55, 12.5 4.75 C12.82 5.95, 13.03 7.98, 12.37 9.25 C11.72 10.53, 10.06 11.83, 8.57 12.41 C7.08 12.99, 4.84 13.22, 3.44 12.75 C2.04 12.28, 0.83 10.95, 0.18 9.59 C-0.48 8.23, -0.91 6, -0.49 4.6 C-0.07 3.21, 1.6 1.86, 2.69 1.21 C3.78 0.57, 5.32 0.91, 6.04 0.71 C6.76 0.52, 6.9 0.17, 7.01 0.04" stroke="none" stroke-width="0" fill="#d0bfff"></path><path d="M5.2 -0.04 C6.43 -0.55, 7.87 -0.36, 9.11 0.34 C10.35 1.04, 12.1 2.92, 12.63 4.17 C13.16 5.41, 12.7 6.48, 12.29 7.8 C11.89 9.11, 11.23 11.24, 10.21 12.08 C9.19 12.91, 7.53 12.99, 6.18 12.8 C4.84 12.61, 3.13 11.85, 2.13 10.93 C1.14 10.02, 0.41 8.68, 0.22 7.32 C0.03 5.95, 0.14 3.88, 0.98 2.73 C1.82 1.58, 4.53 0.79, 5.24 0.41 C5.95 0.03, 5.23 0.47, 5.23 0.46 M7.64 -0.7 C8.99 -0.66, 10 0.31, 10.87 1.53 C11.74 2.75, 12.68 5.08, 12.85 6.63 C13.03 8.18, 12.71 9.8, 11.9 10.84 C11.09 11.89, 9.43 12.71, 7.98 12.91 C6.53 13.11, 4.5 12.78, 3.18 12.04 C1.86 11.29, 0.6 9.65, 0.05 8.46 C-0.49 7.27, -0.56 6.07, -0.11 4.88 C0.35 3.7, 1.64 2.11, 2.76 1.34 C3.88 0.57, 5.8 0.33, 6.62 0.25 C7.44 0.17, 7.6 0.91, 7.69 0.87" stroke="#6741d9" stroke-width="2" fill="none"></path></g><g transform="translate(342.3513252725884 201.570590958485) rotate(0 40.81645202636719 11.867152895239826)"><text x="40.81645202636719" y="0" font-family="Virgil, Segoe UI Emoji" font-size="18.9874446323837px" fill="#2f9e44" text-anchor="middle" style="white-space: pre;" direction="ltr" dominant-baseline="text-before-edge">Coerente</text></g><g stroke-linecap="round" transform="translate(469.7426344593805 40.29798832856591) rotate(0 6.4836301840887245 6.404872728103783)"><path d="M5.25 0.51 C6.51 0.18, 7.97 0, 9.11 0.63 C10.26 1.25, 11.44 2.95, 12.11 4.26 C12.78 5.57, 13.55 7.28, 13.13 8.49 C12.71 9.7, 10.79 10.82, 9.6 11.51 C8.41 12.2, 7.31 12.71, 6.01 12.64 C4.7 12.57, 2.81 12.16, 1.78 11.09 C0.74 10.03, -0.08 7.72, -0.21 6.22 C-0.35 4.73, -0.02 3.21, 0.98 2.11 C1.97 1.01, 4.99 -0.07, 5.73 -0.36 C6.47 -0.65, 5.45 0.15, 5.41 0.38 M5.21 0.32 C6.37 -0.1, 8.05 -0.17, 9.36 0.46 C10.67 1.09, 12.5 2.74, 13.07 4.09 C13.64 5.44, 13.41 7.27, 12.77 8.56 C12.14 9.86, 10.34 11.16, 9.28 11.88 C8.22 12.59, 7.72 12.98, 6.4 12.85 C5.09 12.72, 2.38 12.16, 1.42 11.08 C0.46 10, 0.77 7.89, 0.64 6.37 C0.51 4.85, 0.01 3.05, 0.63 1.97 C1.25 0.9, 3.6 0.19, 4.35 -0.08 C5.1 -0.34, 5.01 0.24, 5.15 0.4" stroke="none" stroke-width="0" fill="#d0bfff"></path><path d="M7.33 0.05 C8.61 0.1, 10.43 1, 11.42 2.06 C12.4 3.11, 13.29 5.05, 13.23 6.39 C13.17 7.72, 11.97 8.99, 11.04 10.07 C10.11 11.15, 8.9 12.5, 7.65 12.87 C6.4 13.24, 4.73 12.92, 3.54 12.27 C2.34 11.62, 1.06 10.23, 0.49 8.98 C-0.08 7.73, -0.24 6.13, 0.13 4.78 C0.5 3.43, 1.41 1.67, 2.73 0.87 C4.05 0.08, 7.09 0.06, 8.03 0.01 C8.97 -0.05, 8.47 0.42, 8.35 0.55 M6.77 0.52 C7.89 0.71, 9.74 0.93, 10.78 1.92 C11.82 2.91, 12.8 4.94, 12.99 6.46 C13.18 7.98, 12.79 10.12, 11.92 11.05 C11.05 11.98, 9.15 11.99, 7.79 12.06 C6.43 12.14, 4.95 11.98, 3.75 11.47 C2.56 10.97, 1.17 10.23, 0.61 9.04 C0.06 7.86, 0.05 5.65, 0.42 4.37 C0.79 3.1, 1.79 2.03, 2.85 1.41 C3.9 0.79, 6.08 0.87, 6.76 0.66 C7.44 0.46, 6.8 0.22, 6.93 0.19" stroke="#6741d9" stroke-width="2" fill="none"></path></g><g stroke-linecap="round" transform="translate(562.195593047205 171.7909055127924) rotate(0 6.4836301840887245 6.404872728103783)"><path d="M5.93 0.18 C7.25 -0.05, 9.65 0.3, 10.85 1.1 C12.04 1.9, 12.93 3.52, 13.1 5 C13.27 6.48, 12.52 8.76, 11.86 9.98 C11.19 11.2, 10.32 11.84, 9.1 12.32 C7.88 12.8, 5.9 13.23, 4.53 12.87 C3.16 12.5, 1.64 11.31, 0.86 10.13 C0.08 8.95, -0.44 7.21, -0.15 5.77 C0.15 4.34, 1.47 2.54, 2.62 1.49 C3.77 0.45, 6.07 -0.22, 6.76 -0.48 C7.46 -0.74, 6.77 -0.26, 6.79 -0.04 M8.21 -0.52 C9.48 -0.32, 11.07 0.71, 11.9 1.97 C12.73 3.22, 13.27 5.43, 13.18 7 C13.09 8.57, 12.48 10.33, 11.37 11.38 C10.25 12.43, 7.95 13.23, 6.48 13.31 C5 13.39, 3.63 12.59, 2.53 11.84 C1.42 11.1, 0.13 10.09, -0.14 8.82 C-0.41 7.54, 0.16 5.44, 0.91 4.19 C1.66 2.93, 3.02 2, 4.34 1.3 C5.65 0.59, 8.25 0.01, 8.79 -0.04 C9.33 -0.09, 7.66 0.78, 7.58 1" stroke="none" stroke-width="0" fill="#d0bfff"></path><path d="M5.07 0.18 C6.24 -0.18, 8.01 -0.24, 9.18 0.41 C10.35 1.06, 11.43 2.82, 12.08 4.08 C12.74 5.34, 13.55 6.7, 13.11 7.97 C12.68 9.24, 10.78 10.85, 9.48 11.69 C8.17 12.54, 6.7 13.28, 5.31 13.05 C3.92 12.81, 2.03 11.33, 1.12 10.28 C0.21 9.22, -0.14 7.96, -0.14 6.71 C-0.15 5.47, 0.06 3.82, 1.08 2.79 C2.1 1.77, 5.1 1.05, 5.98 0.56 C6.86 0.08, 6.45 -0.13, 6.37 -0.11 M7.18 -0.07 C8.39 0.1, 10.09 1.02, 11.16 2.18 C12.23 3.34, 13.46 5.39, 13.6 6.89 C13.75 8.39, 13.05 10.29, 12.03 11.19 C11.01 12.09, 8.94 12.26, 7.49 12.29 C6.05 12.32, 4.5 12.06, 3.37 11.36 C2.24 10.66, 1.11 9.4, 0.73 8.07 C0.35 6.75, 0.62 4.68, 1.08 3.42 C1.53 2.16, 2.27 0.97, 3.47 0.51 C4.66 0.04, 7.64 0.65, 8.25 0.64 C8.86 0.63, 7.25 0.3, 7.13 0.45" stroke="#6741d9" stroke-width="2" fill="none"></path></g><g transform="translate(519.4221791575173 203.10343470978768) rotate(0 49.07273864746094 11.867152895239798)"><text x="49.07273864746094" y="0" font-family="Virgil, Segoe UI Emoji" font-size="18.9874446323837px" fill="#2f9e44" text-anchor="middle" style="white-space: pre;" direction="ltr" dominant-baseline="text-before-edge">Incoerente</text></g><g transform="translate(23.70547503290163 10) rotate(0 41.670555114746094 11.867152895239826)"><text x="41.670555114746094" y="0" font-family="Virgil, Segoe UI Emoji" font-size="18.9874446323837px" fill="#6741d9" text-anchor="middle" style="white-space: pre;" direction="ltr" dominant-baseline="text-before-edge">Snapshot</text></g><g transform="translate(246.5866048793264 100.75841231547878) rotate(0 12.971088382555081 12.38333360780959)"><text x="13.139984130859375" y="0" font-family="Virgil, Segoe UI Emoji" font-size="20px" fill="#1971c2" text-anchor="middle" style="white-space: pre;" direction="ltr" dominant-baseline="text-before-edge">m3</text></g><g transform="translate(14.469050688476273 38.30093523930344) rotate(0 9.319992065429688 12.5)"><text x="0" y="0" font-family="Virgil, Segoe UI Emoji" font-size="20px" fill="#1e1e1e" text-anchor="start" style="white-space: pre;" direction="ltr" dominant-baseline="text-before-edge">P1</text></g><g transform="translate(10 168.68128623930323) rotate(0 13.729988098144531 12.5)"><text x="0" y="0" font-family="Virgil, Segoe UI Emoji" font-size="20px" fill="#1e1e1e" text-anchor="start" style="white-space: pre;" direction="ltr" dominant-baseline="text-before-edge">P2</text></g></svg>