<svg version="1.1" xmlns="http://www.w3.org/2000/svg" viewBox="0 0 947.9918190324593 281.78826516070023" width="947.9918190324593" height="281.78826516070023">
  <!-- svg-source:excalidraw -->
  
  <defs>
    <style class="style-fonts">
      @font-face {
        font-family: "Virgil";
        src: url("https://excalidraw.com/Virgil.woff2");
      }
      @font-face {
        font-family: "Cascadia";
        src: url("https://excalidraw.com/Cascadia.woff2");
      }
      @font-face {
        font-family: "Assistant";
        src: url("https://excalidraw.com/Assistant-Regular.woff2");
      }
    </style>
    
  </defs>
  <g stroke-linecap="round"><g transform="translate(136.85505951170808 43.743454733412705) rotate(0 400 -0.7142857142856656)"><path d="M-0.95 0.13 C132.51 -0.25, 667.09 -2.01, 800.39 -2.1 M0.75 -0.84 C134.12 -1.1, 666.25 -0.68, 799.64 -0.92" stroke="#1e1e1e" stroke-width="2" fill="none"></path></g></g><mask></mask><g stroke-linecap="round"><g transform="translate(137.06286190860055 154.57980101492183) rotate(0 400 -0.7142857142856656)"><path d="M0.39 -0.68 C133.68 -0.77, 665.41 -0.36, 798.83 -0.45 M-0.87 1.58 C132.86 1.16, 667.35 -1.84, 800.93 -2.06" stroke="#1e1e1e" stroke-width="2" fill="none"></path></g></g><mask></mask><g stroke-linecap="round"><g transform="translate(136.24375139439053 259.3498652829734) rotate(0 400 -0.7142857142856656)"><path d="M-1.17 0.98 C132.25 0.89, 667.29 -0.74, 800.9 -1.19 M0.42 0.45 C133.72 0.03, 667.16 -3.02, 800.42 -3.19" stroke="#1e1e1e" stroke-width="2" fill="none"></path></g></g><mask></mask><g transform="translate(16.31232810954384 31.426408942891044) rotate(0 48.83998107910156 12.5)"><text x="0" y="0" font-family="Virgil, Segoe UI Emoji" font-size="20px" fill="#1971c2" text-anchor="start" style="white-space: pre;" direction="ltr" dominant-baseline="text-before-edge">P1 = 1000</text></g><g transform="translate(12.088162260733952 141.78000743324287) rotate(0 50.46997833251953 12.5)"><text x="0" y="0" font-family="Virgil, Segoe UI Emoji" font-size="20px" fill="#f08c00" text-anchor="start" style="white-space: pre;" direction="ltr" dominant-baseline="text-before-edge">P2 = 300</text></g><g transform="translate(10 246.78826516070023) rotate(0 48.72998046875 12.5)"><text x="0" y="0" font-family="Virgil, Segoe UI Emoji" font-size="20px" fill="#e03131" text-anchor="start" style="white-space: pre;" direction="ltr" dominant-baseline="text-before-edge">P3 = 700</text></g><g stroke-linecap="round"><g transform="translate(191.1407737974223 42.63234362230162) rotate(0 17.81855883420633 107.52473525903622)"><path d="M-0.94 -0.81 C4.83 34.94, 28.83 178.6, 34.95 214.64 M0.76 1.39 C6.9 37.28, 31.58 180.64, 37.31 215.96" stroke="#1971c2" stroke-width="2" fill="none"></path></g><g transform="translate(191.1407737974223 42.63234362230162) rotate(0 17.81855883420633 107.52473525903622)"><path d="M24.98 194.21 C27.69 200.26, 32.37 208.8, 37.31 215.96 M24.98 194.21 C28.95 201.74, 32.33 208.23, 37.31 215.96" stroke="#1971c2" stroke-width="2" fill="none"></path></g><g transform="translate(191.1407737974223 42.63234362230162) rotate(0 17.81855883420633 107.52473525903622)"><path d="M41.85 191.38 C39.06 198.22, 38.23 207.68, 37.31 215.96 M41.85 191.38 C40.23 199.72, 38.01 207.15, 37.31 215.96" stroke="#1971c2" stroke-width="2" fill="none"></path></g></g><mask></mask><g stroke-linecap="round"><g transform="translate(281.10735846324746 44.82855158344819) rotate(0 68.99859283877288 54.201655180989576)"><path d="M-0.68 -0.41 C22.5 17.85, 114.96 90.79, 138.18 108.79 M1.16 -1.67 C24.29 16.29, 114.48 88.52, 137.32 106.86" stroke="#1971c2" stroke-width="2" fill="none"></path></g><g transform="translate(281.10735846324746 44.82855158344819) rotate(0 68.99859283877288 54.201655180989576)"><path d="M113.64 98.84 C118.14 101.05, 124.7 103.6, 137.32 106.86 M113.64 98.84 C118.06 100.11, 124.15 101.48, 137.32 106.86" stroke="#1971c2" stroke-width="2" fill="none"></path></g><g transform="translate(281.10735846324746 44.82855158344819) rotate(0 68.99859283877288 54.201655180989576)"><path d="M124.34 85.5 C126.38 90.6, 130.58 96.1, 137.32 106.86 M124.34 85.5 C126.29 89.83, 129.94 94.24, 137.32 106.86" stroke="#1971c2" stroke-width="2" fill="none"></path></g></g><mask></mask><g stroke-linecap="round"><g transform="translate(191.1407737974223 43.63234362230162) rotate(0 142.53154115023563 107.39608235233095)"><path d="M0.65 -0.87 C48.08 34.91, 237.56 179.22, 284.78 215.06 M-0.48 1.29 C46.76 36.66, 235.9 177.43, 283.68 213.08" stroke="#1971c2" stroke-width="2" fill="none"></path></g><g transform="translate(191.1407737974223 43.63234362230162) rotate(0 142.53154115023563 107.39608235233095)"><path d="M259.73 205.9 C265.85 207.55, 275.28 208.38, 283.68 213.08 M259.73 205.9 C265.08 207.24, 271.42 210.01, 283.68 213.08" stroke="#1971c2" stroke-width="2" fill="none"></path></g><g transform="translate(191.1407737974223 43.63234362230162) rotate(0 142.53154115023563 107.39608235233095)"><path d="M269.95 192.18 C272.89 198.21, 279.11 203.36, 283.68 213.08 M269.95 192.18 C272.71 196.85, 276.51 203.04, 283.68 213.08" stroke="#1971c2" stroke-width="2" fill="none"></path></g></g><mask></mask><g stroke-linecap="round"><g transform="translate(403.1407737974223 257.6323436223016) rotate(0 165 -104)"><path d="M-0.29 0.27 C32.92 -20.02, 144.86 -87.7, 199.86 -122.61 C254.85 -157.51, 308.12 -194.79, 329.69 -209.15 M1.76 -0.64 C35.26 -20.7, 147.47 -86.75, 201.97 -121.39 C256.47 -156.02, 307.57 -193.98, 328.77 -208.44" stroke="#e03131" stroke-width="2" fill="none"></path></g><g transform="translate(403.1407737974223 257.6323436223016) rotate(0 165 -104)"><path d="M314.49 -187.92 C320.13 -197.05, 323.73 -202.92, 328.77 -208.44 M314.49 -187.92 C317.29 -191.71, 321.4 -195.88, 328.77 -208.44" stroke="#e03131" stroke-width="2" fill="none"></path></g><g transform="translate(403.1407737974223 257.6323436223016) rotate(0 165 -104)"><path d="M304.64 -201.9 C313.66 -206.06, 320.75 -206.98, 328.77 -208.44 M304.64 -201.9 C309.36 -202.77, 315.47 -204.09, 328.77 -208.44" stroke="#e03131" stroke-width="2" fill="none"></path></g></g><mask></mask><g stroke-linecap="round"><g transform="translate(497.30611487505485 44.2063789902428) rotate(0 43.56486973400206 106.33953260604073)"><path d="M-0.31 -1.15 C14.28 34.26, 71.87 176.17, 86.4 211.87 M1.73 0.85 C16.81 36.45, 74.69 177.98, 88.72 212.98" stroke="#1971c2" stroke-width="2" fill="none"></path></g><g transform="translate(497.30611487505485 44.2063789902428) rotate(0 43.56486973400206 106.33953260604073)"><path d="M71.96 194.43 C73.38 197.04, 77.38 201.59, 88.72 212.98 M71.96 194.43 C77.12 199.56, 83.33 207.15, 88.72 212.98" stroke="#1971c2" stroke-width="2" fill="none"></path></g><g transform="translate(497.30611487505485 44.2063789902428) rotate(0 43.56486973400206 106.33953260604073)"><path d="M87.81 188 C85.95 191.89, 86.71 197.75, 88.72 212.98 M87.81 188 C87.8 195.3, 88.78 205.02, 88.72 212.98" stroke="#1971c2" stroke-width="2" fill="none"></path></g></g><mask></mask><g stroke-linecap="round"><g transform="translate(619.7081736833311 256.73626126997044) rotate(0 81.58432940932425 -104.60906466836042)"><path d="M0.16 0.65 C27.54 -34.05, 136.44 -174.44, 163.66 -209.3 M-1.22 -0.06 C26.11 -34.46, 135.62 -172.74, 162.96 -207.81" stroke="#e03131" stroke-width="2" fill="none"></path></g><g transform="translate(619.7081736833311 256.73626126997044) rotate(0 81.58432940932425 -104.60906466836042)"><path d="M155.16 -184.06 C158.37 -189.07, 159.06 -195.22, 162.96 -207.81 M155.16 -184.06 C157.51 -192.88, 161.13 -201.12, 162.96 -207.81" stroke="#e03131" stroke-width="2" fill="none"></path></g><g transform="translate(619.7081736833311 256.73626126997044) rotate(0 81.58432940932425 -104.60906466836042)"><path d="M141.72 -194.63 C148.12 -197.07, 152.11 -200.64, 162.96 -207.81 M141.72 -194.63 C148.94 -199.51, 157.4 -203.94, 162.96 -207.81" stroke="#e03131" stroke-width="2" fill="none"></path></g></g><mask></mask><g stroke-linecap="round"><g transform="translate(440.35416296121366 154.08942681710369) rotate(0 52.16588188442188 51.71463060719083)"><path d="M0.28 0.73 C17.63 17.78, 87.32 85.21, 104.58 102.25 M-1.03 0.07 C16.14 17.23, 86.45 85.83, 103.76 103.18" stroke="#f08c00" stroke-width="2" fill="none"></path></g><g transform="translate(440.35416296121366 154.08942681710369) rotate(0 52.16588188442188 51.71463060719083)"><path d="M81.03 92.76 C89.98 96.66, 94.55 98.96, 103.76 103.18 M81.03 92.76 C86.57 94.9, 93.63 98.33, 103.76 103.18" stroke="#f08c00" stroke-width="2" fill="none"></path></g><g transform="translate(440.35416296121366 154.08942681710369) rotate(0 52.16588188442188 51.71463060719083)"><path d="M93.05 80.59 C97.9 88.66, 98.37 95.11, 103.76 103.18 M93.05 80.59 C95.43 85.97, 99.29 92.64, 103.76 103.18" stroke="#f08c00" stroke-width="2" fill="none"></path></g></g><mask></mask><g transform="translate(231.92918004161788 10) rotate(0 14.736247426504065 30.80321478876806)"><text x="14.736247426504105" y="0" font-family="Virgil, Segoe UI Emoji" font-size="49.28514366202894px" fill="#6741d9" text-anchor="middle" style="white-space: pre;" direction="ltr" dominant-baseline="text-before-edge">X</text></g></svg>