<svg version="1.1" xmlns="http://www.w3.org/2000/svg" viewBox="0 0 539.4473854673427 221.4292768637489" width="539.4473854673427" height="221.4292768637489">
  <!-- svg-source:excalidraw -->
  
  <defs>
    <style class="style-fonts">
      @font-face {
        font-family: "Virgil";
        src: url("https://excalidraw.com/Virgil.woff2");
      }
      @font-face {
        font-family: "Cascadia";
        src: url("https://excalidraw.com/Cascadia.woff2");
      }
      @font-face {
        font-family: "Assistant";
        src: url("https://excalidraw.com/Assistant-Regular.woff2");
      }
    </style>
    
  </defs>
  <g stroke-linecap="round"><g transform="translate(404.2293684595131 42.37002120840543) rotate(0 18.064541828160827 54.193625484482595)"><path d="M1.18 0.37 C7.13 18.49, 29.24 91.48, 35.17 109.55 M0.35 -0.48 C6.7 17.26, 31.37 90.18, 37.38 108.04" stroke="#1971c2" stroke-width="2" fill="none"></path></g><g transform="translate(404.2293684595131 42.37002120840543) rotate(0 18.064541828160827 54.193625484482595)"><path d="M21.76 88.52 C26.53 91.8, 31.88 99.53, 37.38 108.04 M21.76 88.52 C27.67 94.15, 32.06 100.68, 37.38 108.04" stroke="#1971c2" stroke-width="2" fill="none"></path></g><g transform="translate(404.2293684595131 42.37002120840543) rotate(0 18.064541828160827 54.193625484482595)"><path d="M37.96 83.05 C38.6 87.89, 39.77 97.04, 37.38 108.04 M37.96 83.05 C38.41 90.5, 37.37 98.87, 37.38 108.04" stroke="#1971c2" stroke-width="2" fill="none"></path></g></g><mask></mask><g stroke-linecap="round"><g transform="translate(393.2311053847991 31.178305774166688) rotate(0 37.54855606226806 67.71767614830509)"><path d="M0.12 -0.09 C0.62 6.73, -8.38 28.8, 3.03 41.48 C14.43 54.17, 56.55 60.52, 68.54 76.02 C80.53 91.53, 73.84 124.63, 74.97 134.52 M-1.28 -1.18 C-0.97 5.79, -9.71 30.52, 1.86 43.04 C13.42 55.56, 55.9 58.6, 68.11 73.95 C80.33 89.3, 74.18 124.85, 75.15 135.14" stroke="#2f9e44" stroke-width="2" fill="none"></path></g></g><mask></mask><g stroke-linecap="round"><g transform="translate(29.254917785936186 41.976678502813456) rotate(0 249.7907398350976 0)"><path d="M-1.07 0.45 C82.2 0.24, 416.63 -0.62, 500.19 -0.6 M0.56 -0.36 C83.68 -0.48, 416.35 0.81, 499.57 0.63" stroke="#1e1e1e" stroke-width="2" fill="none"></path></g></g><mask></mask><g stroke-linecap="round"><g transform="translate(29.46272018282866 152.81302478432258) rotate(0 248.44267945085267 0)"><path d="M0.61 -0.6 C83.72 -0.57, 415.01 0.57, 497.59 0.59 M-0.53 1.7 C82.58 1.33, 413.83 -1.03, 497.01 -1.23" stroke="#1e1e1e" stroke-width="2" fill="none"></path></g></g><mask></mask><g stroke-linecap="round"><g transform="translate(268.02225740169183 151.36691908507783) rotate(0 37.073855606508914 -54.080211389311216)"><path d="M-0.08 -0.71 C12.45 -18.86, 62.01 -90.98, 74.53 -109.06 M-1.58 1.54 C10.88 -16.48, 61.06 -89.67, 73.78 -107.99" stroke="#1971c2" stroke-width="2" fill="none"></path></g><g transform="translate(268.02225740169183 151.36691908507783) rotate(0 37.073855606508914 -54.080211389311216)"><path d="M67.49 -83.8 C67.9 -89.15, 69.14 -94.27, 73.78 -107.99 M67.49 -83.8 C69.33 -89.08, 71.02 -93.84, 73.78 -107.99" stroke="#1971c2" stroke-width="2" fill="none"></path></g><g transform="translate(268.02225740169183 151.36691908507783) rotate(0 37.073855606508914 -54.080211389311216)"><path d="M53.41 -93.5 C57.29 -96.44, 62.02 -99.16, 73.78 -107.99 M53.41 -93.5 C58.23 -96.76, 62.94 -99.44, 73.78 -107.99" stroke="#1971c2" stroke-width="2" fill="none"></path></g></g><mask></mask><g stroke-linecap="round"><g transform="translate(160.5304748873573 25.55296492090997) rotate(0 1.0027268981365296 73.19906356396552)"><path d="M-0.93 -1.19 C-0.8 23.29, 1.15 122.56, 1.65 147.17 M0.78 0.8 C0.65 24.92, 0.43 120.95, 0.51 145.45" stroke="#2f9e44" stroke-width="2" fill="none"></path></g></g><mask></mask><g stroke-linecap="round"><g transform="translate(287.64870569883783 29.10386142641221) rotate(0 11.12238117667016 66.8455473032131)"><path d="M0.07 1.08 C-0.14 9.73, -5.43 39.04, -1.39 51.95 C2.66 64.85, 20.11 64.92, 24.35 78.53 C28.59 92.14, 24.08 124.31, 24.06 133.61 M-1.35 0.6 C-1.72 9.38, -6.64 39.91, -2.41 53.12 C1.82 66.32, 19.5 66.24, 24.03 79.83 C28.57 93.43, 24.89 125.47, 24.77 134.66" stroke="#2f9e44" stroke-width="2" fill="none"></path></g></g><mask></mask><g stroke-linecap="round"><g transform="translate(72.898163082152 43.77457803514642) rotate(0 13.22743114492198 54.0487587544273)"><path d="M0.99 -0.17 C5.57 17.88, 23.05 89.53, 27.25 107.55 M0.04 -1.3 C4.56 16.97, 22.52 90.39, 26.72 108.79" stroke="#1971c2" stroke-width="2" fill="none"></path></g><g transform="translate(72.898163082152 43.77457803514642) rotate(0 13.22743114492198 54.0487587544273)"><path d="M12.97 87.92 C16.38 94.94, 19.57 98.98, 26.72 108.79 M12.97 87.92 C16.9 94.89, 19.8 100.35, 26.72 108.79" stroke="#1971c2" stroke-width="2" fill="none"></path></g><g transform="translate(72.898163082152 43.77457803514642) rotate(0 13.22743114492198 54.0487587544273)"><path d="M29.61 83.96 C28.36 92.22, 26.92 97.36, 26.72 108.79 M29.61 83.96 C28.79 91.96, 26.97 98.53, 26.72 108.79" stroke="#1971c2" stroke-width="2" fill="none"></path></g></g><mask></mask><g stroke-linecap="round"><g transform="translate(114.26513007445897 152.54991848502232) rotate(0 8.811698233273319 -54.903658222703314)"><path d="M0.16 0.7 C3.23 -17.61, 15.06 -90.34, 18.15 -108.68 M-1.21 0.02 C1.77 -18.1, 14.19 -91.63, 17.47 -110.2" stroke="#1971c2" stroke-width="2" fill="none"></path></g><g transform="translate(114.26513007445897 152.54991848502232) rotate(0 8.811698233273319 -54.903658222703314)"><path d="M21.91 -85.6 C21.59 -91.6, 21.07 -97.58, 17.47 -110.2 M21.91 -85.6 C19.45 -94.83, 18.76 -103.16, 17.47 -110.2" stroke="#1971c2" stroke-width="2" fill="none"></path></g><g transform="translate(114.26513007445897 152.54991848502232) rotate(0 8.811698233273319 -54.903658222703314)"><path d="M5.06 -88.5 C9.47 -93.71, 13.66 -98.88, 17.47 -110.2 M5.06 -88.5 C8.35 -96.7, 13.39 -104.04, 17.47 -110.2" stroke="#1971c2" stroke-width="2" fill="none"></path></g></g><mask></mask><g stroke-linecap="round" transform="translate(39.664466059179404 35.679631434402836) rotate(0 5.463509437625476 5.3971435142399855)"><path d="M6.43 0.29 C7.59 0.4, 9.19 0.72, 9.96 1.5 C10.73 2.28, 11.11 3.72, 11.03 4.98 C10.95 6.25, 10.31 8.2, 9.47 9.11 C8.62 10.01, 6.99 10.2, 5.95 10.44 C4.91 10.68, 4.24 11.05, 3.23 10.56 C2.22 10.07, 0.43 8.66, -0.11 7.49 C-0.66 6.33, -0.54 4.68, -0.02 3.59 C0.49 2.51, 1.91 1.61, 2.99 0.97 C4.07 0.33, 5.91 -0.21, 6.45 -0.26 C6.98 -0.32, 6.19 0.47, 6.2 0.64 M5.69 -0.19 C6.88 -0.37, 8.49 0.31, 9.24 1.17 C9.99 2.03, 10.14 3.92, 10.19 4.96 C10.24 6.01, 10.01 6.43, 9.53 7.44 C9.06 8.45, 8.23 10.47, 7.36 11.02 C6.48 11.56, 5.36 11.32, 4.29 10.72 C3.21 10.13, 1.62 8.55, 0.9 7.46 C0.18 6.38, -0.11 5.17, -0.05 4.22 C0.02 3.26, 0.49 2.44, 1.29 1.73 C2.09 1.01, 4.04 0.25, 4.76 -0.07 C5.48 -0.4, 5.4 -0.39, 5.62 -0.2" stroke="none" stroke-width="0" fill="#d0bfff"></path><path d="M4.25 0.35 C5.37 0.14, 6.81 0.36, 7.94 0.83 C9.06 1.3, 10.62 2.03, 10.99 3.16 C11.36 4.29, 10.68 6.41, 10.16 7.61 C9.64 8.81, 8.78 9.9, 7.87 10.37 C6.96 10.83, 5.78 10.6, 4.68 10.38 C3.58 10.15, 2.04 9.87, 1.27 9.02 C0.5 8.16, 0.11 6.37, 0.06 5.25 C0.02 4.13, 0.18 3.2, 1 2.29 C1.82 1.39, 4.29 0.22, 4.98 -0.16 C5.67 -0.55, 5.2 -0.1, 5.16 -0.03 M6.55 0.43 C7.59 0.43, 8.27 1.25, 8.96 1.98 C9.65 2.71, 10.48 3.61, 10.69 4.81 C10.91 6.01, 10.87 8.16, 10.24 9.18 C9.6 10.21, 8 10.73, 6.88 10.94 C5.77 11.16, 4.67 10.99, 3.56 10.48 C2.45 9.98, 0.72 9.04, 0.22 7.91 C-0.28 6.78, 0.18 4.96, 0.57 3.68 C0.95 2.39, 1.66 0.77, 2.52 0.2 C3.38 -0.37, 5.2 0.37, 5.72 0.27 C6.24 0.16, 5.52 -0.5, 5.63 -0.42" stroke="#6741d9" stroke-width="2" fill="none"></path></g><g stroke-linecap="round" transform="translate(36.74519146962325 145.83092597311315) rotate(0 5.463509437625476 5.3971435142399855)"><path d="M4.31 -0.37 C5.46 -0.65, 7.45 0.19, 8.54 0.89 C9.63 1.6, 10.49 2.68, 10.86 3.86 C11.22 5.03, 11.18 6.96, 10.72 7.93 C10.26 8.91, 9.24 9.23, 8.11 9.71 C6.97 10.18, 5.12 11, 3.93 10.79 C2.73 10.59, 1.52 9.47, 0.93 8.45 C0.34 7.43, 0.23 5.79, 0.38 4.7 C0.52 3.62, 0.97 2.7, 1.8 1.96 C2.63 1.21, 4.88 0.59, 5.35 0.22 C5.83 -0.14, 4.65 -0.38, 4.64 -0.25 M5.76 -0.21 C6.79 0.08, 8.53 1.5, 9.48 2.51 C10.43 3.52, 11.41 4.85, 11.44 5.86 C11.47 6.87, 10.53 7.76, 9.67 8.58 C8.81 9.39, 7.43 10.38, 6.29 10.75 C5.15 11.12, 3.7 11.24, 2.82 10.79 C1.95 10.34, 1.39 9.28, 1.03 8.05 C0.67 6.82, 0.5 4.61, 0.65 3.42 C0.8 2.24, 1.1 1.48, 1.91 0.93 C2.72 0.38, 4.94 0.2, 5.53 0.13 C6.13 0.07, 5.39 0.36, 5.5 0.54" stroke="none" stroke-width="0" fill="#d0bfff"></path><path d="M5.63 0.15 C6.75 0.05, 8.22 0.62, 9.04 1.33 C9.86 2.03, 10.37 3.19, 10.55 4.37 C10.73 5.54, 10.68 7.28, 10.09 8.38 C9.5 9.47, 8.13 10.68, 7 10.94 C5.88 11.21, 4.4 10.43, 3.36 9.97 C2.32 9.51, 1.32 9.16, 0.76 8.19 C0.21 7.23, -0.18 5.41, 0.03 4.2 C0.24 2.99, 1 1.64, 2.03 0.92 C3.05 0.19, 5.6 -0.03, 6.16 -0.16 C6.72 -0.29, 5.46 0, 5.4 0.11 M4.76 0.66 C5.78 0.5, 7.53 0.35, 8.63 0.86 C9.73 1.38, 11.17 2.65, 11.36 3.76 C11.55 4.87, 10.34 6.53, 9.77 7.52 C9.19 8.51, 8.94 9.24, 7.91 9.68 C6.88 10.11, 4.69 10.16, 3.59 10.12 C2.5 10.07, 1.99 10.24, 1.33 9.38 C0.67 8.53, -0.28 6.19, -0.37 4.98 C-0.46 3.77, -0.07 2.92, 0.79 2.12 C1.64 1.33, 4.16 0.64, 4.76 0.19 C5.35 -0.25, 4.43 -0.56, 4.36 -0.55" stroke="#6741d9" stroke-width="2" fill="none"></path></g><g stroke-linecap="round" transform="translate(155.0669654497317 35.53096717809649) rotate(0 5.463509437625476 5.3971435142399855)"><path d="M4.85 0.07 C6.03 -0.15, 8.09 0.03, 9.11 0.68 C10.12 1.34, 10.79 2.85, 10.93 3.99 C11.07 5.13, 10.47 6.42, 9.94 7.52 C9.42 8.61, 8.69 9.97, 7.78 10.53 C6.87 11.1, 5.55 11.21, 4.48 10.89 C3.42 10.56, 2.17 9.58, 1.39 8.58 C0.61 7.58, -0.26 6, -0.2 4.88 C-0.15 3.77, 0.79 2.75, 1.72 1.9 C2.65 1.05, 4.85 0.06, 5.38 -0.23 C5.9 -0.51, 4.95 0, 4.89 0.19 M5.06 -0.32 C6.23 -0.33, 8.41 0.29, 9.43 1.24 C10.45 2.19, 10.97 4.25, 11.18 5.38 C11.38 6.52, 11.34 7.26, 10.65 8.05 C9.97 8.85, 8.37 9.82, 7.07 10.16 C5.77 10.49, 4.03 10.46, 2.86 10.07 C1.68 9.69, 0.6 8.8, 0.04 7.84 C-0.51 6.89, -0.8 5.41, -0.49 4.35 C-0.18 3.29, 0.81 2.12, 1.92 1.47 C3.03 0.83, 5.42 0.6, 6.16 0.49 C6.89 0.38, 6.32 0.68, 6.34 0.8" stroke="none" stroke-width="0" fill="#d0bfff"></path><path d="M5.89 0.52 C6.95 0.55, 8.5 0.58, 9.4 1.34 C10.29 2.11, 11.23 3.84, 11.26 5.13 C11.3 6.42, 10.4 8.18, 9.61 9.08 C8.82 9.98, 7.58 10.26, 6.52 10.51 C5.45 10.76, 4.15 11.03, 3.2 10.59 C2.26 10.16, 1.35 8.95, 0.86 7.9 C0.37 6.85, -0.05 5.37, 0.26 4.28 C0.57 3.19, 1.66 2.11, 2.71 1.35 C3.76 0.59, 5.94 -0.02, 6.57 -0.29 C7.2 -0.55, 6.46 -0.41, 6.47 -0.25 M4.11 0.24 C5.25 -0.1, 6.96 -0.23, 7.93 0.22 C8.91 0.68, 9.46 1.87, 9.97 2.97 C10.47 4.07, 11.35 5.62, 10.95 6.83 C10.56 8.04, 8.66 9.67, 7.61 10.2 C6.56 10.74, 5.78 10.21, 4.66 10.03 C3.54 9.85, 1.61 9.95, 0.89 9.12 C0.16 8.28, 0.28 6.15, 0.32 5 C0.37 3.86, 0.47 3.01, 1.15 2.24 C1.83 1.47, 3.82 0.61, 4.41 0.37 C5 0.12, 4.64 0.72, 4.68 0.79" stroke="#6741d9" stroke-width="2" fill="none"></path></g><g stroke-linecap="round" transform="translate(155.73545004848984 147.16789517062853) rotate(0 5.463509437625476 5.3971435142399855)"><path d="M4.3 0.15 C5.28 -0.13, 6.87 0.16, 7.89 0.79 C8.91 1.41, 10.01 2.89, 10.43 3.89 C10.85 4.9, 10.85 5.79, 10.43 6.81 C10.01 7.83, 8.84 9.32, 7.9 10 C6.96 10.68, 5.95 11.14, 4.8 10.89 C3.65 10.64, 1.81 9.38, 0.99 8.51 C0.18 7.64, -0.15 6.83, -0.1 5.68 C-0.05 4.54, 0.49 2.55, 1.28 1.66 C2.08 0.76, 4.1 0.58, 4.66 0.33 C5.21 0.07, 4.62 0.15, 4.6 0.14 M5.49 -0.15 C6.63 -0.26, 8.14 0.06, 9.1 0.92 C10.06 1.79, 11.16 3.83, 11.24 5.05 C11.32 6.28, 10.22 7.3, 9.58 8.25 C8.93 9.19, 8.5 10.28, 7.38 10.73 C6.27 11.18, 4 11.36, 2.88 10.95 C1.76 10.54, 1.07 9.49, 0.66 8.27 C0.25 7.06, 0.13 4.82, 0.41 3.65 C0.69 2.49, 1.47 1.98, 2.34 1.29 C3.22 0.6, 5.12 -0.28, 5.64 -0.48 C6.17 -0.68, 5.44 -0.06, 5.49 0.08" stroke="none" stroke-width="0" fill="#d0bfff"></path><path d="M4.44 -0.32 C5.57 -0.54, 7.18 -0.12, 8.24 0.58 C9.3 1.27, 10.37 2.66, 10.82 3.84 C11.27 5.02, 11.29 6.56, 10.93 7.66 C10.57 8.76, 9.67 9.94, 8.68 10.45 C7.69 10.97, 6.18 11.02, 4.99 10.74 C3.81 10.46, 2.49 9.61, 1.59 8.77 C0.7 7.93, -0.35 6.8, -0.38 5.71 C-0.41 4.63, 0.55 3.24, 1.43 2.28 C2.31 1.32, 4.29 0.36, 4.9 -0.04 C5.5 -0.43, 5.08 -0.12, 5.06 -0.1 M3.75 -0.33 C4.92 -0.59, 6.84 0.29, 8 0.93 C9.17 1.58, 10.16 2.45, 10.73 3.53 C11.29 4.62, 11.65 6.31, 11.39 7.46 C11.14 8.61, 10.32 9.85, 9.17 10.42 C8.03 10.99, 5.76 11.05, 4.52 10.87 C3.28 10.7, 2.37 10.1, 1.73 9.35 C1.1 8.6, 0.87 7.46, 0.72 6.36 C0.56 5.26, 0.09 3.87, 0.79 2.75 C1.49 1.63, 4.33 0.16, 4.9 -0.36 C5.47 -0.89, 4.27 -0.69, 4.23 -0.43" stroke="#6741d9" stroke-width="2" fill="none"></path></g><g transform="translate(120.42139896189678 171.4292768637489) rotate(0 43.431976318359375 20)"><text x="43.431976318359375" y="0" font-family="Virgil, Segoe UI Emoji" font-size="16px" fill="#2f9e44" text-anchor="middle" style="white-space: pre;" direction="ltr" dominant-baseline="text-before-edge">Fortemente</text><text x="43.431976318359375" y="20" font-family="Virgil, Segoe UI Emoji" font-size="16px" fill="#2f9e44" text-anchor="middle" style="white-space: pre;" direction="ltr" dominant-baseline="text-before-edge">coerente</text></g><g stroke-linecap="round"><g transform="translate(183.5920846328438 41.258557386918255) rotate(0 25.307741230369174 55.75339335393562)"><path d="M0.04 0.62 C8.42 18.95, 41.29 91.94, 49.53 110.41 M-1.4 -0.1 C7.4 18.29, 42.8 92.56, 51.67 111.38" stroke="#1971c2" stroke-width="2" fill="none"></path></g><g transform="translate(183.5920846328438 41.258557386918255) rotate(0 25.307741230369174 55.75339335393562)"><path d="M33.88 93.82 C39.24 96.22, 40.67 100.41, 51.67 111.38 M33.88 93.82 C38.55 99.49, 44.88 104.78, 51.67 111.38" stroke="#1971c2" stroke-width="2" fill="none"></path></g><g transform="translate(183.5920846328438 41.258557386918255) rotate(0 25.307741230369174 55.75339335393562)"><path d="M49.33 86.49 C51.01 90.66, 48.73 96.61, 51.67 111.38 M49.33 86.49 C49.39 94.23, 51.12 101.71, 51.67 111.38" stroke="#1971c2" stroke-width="2" fill="none"></path></g></g><mask></mask><g stroke-linecap="round" transform="translate(307.45552723066453 145.969775570838) rotate(0 5.463509437625362 5.3971435142399855)"><path d="M4.57 -0.06 C5.7 -0.26, 7.01 0.36, 8.08 0.96 C9.14 1.56, 10.54 2.46, 10.98 3.54 C11.43 4.61, 11.3 6.31, 10.75 7.39 C10.2 8.47, 8.75 9.49, 7.7 10 C6.66 10.51, 5.6 10.6, 4.48 10.44 C3.37 10.27, 1.74 9.84, 1.01 9.01 C0.29 8.18, 0.07 6.69, 0.13 5.44 C0.2 4.19, 0.67 2.37, 1.39 1.5 C2.1 0.63, 3.76 0.51, 4.43 0.21 C5.11 -0.08, 5.37 -0.34, 5.42 -0.26 M5.74 -0.1 C6.7 -0.14, 7.74 1.01, 8.68 1.77 C9.61 2.52, 11.23 3.28, 11.33 4.41 C11.43 5.54, 10.14 7.49, 9.26 8.55 C8.38 9.61, 7.15 10.61, 6.05 10.77 C4.95 10.92, 3.7 10.01, 2.65 9.5 C1.59 8.99, 0.18 8.54, -0.28 7.69 C-0.74 6.83, -0.62 5.52, -0.13 4.38 C0.36 3.25, 1.62 1.51, 2.65 0.87 C3.68 0.24, 5.38 0.71, 6.04 0.58 C6.7 0.44, 6.57 0.12, 6.6 0.05" stroke="none" stroke-width="0" fill="#d0bfff"></path><path d="M4.98 0.08 C5.97 0.04, 7.45 0.82, 8.5 1.48 C9.54 2.14, 10.89 3.01, 11.26 4.03 C11.62 5.06, 11.39 6.61, 10.66 7.65 C9.94 8.69, 8.14 9.76, 6.92 10.28 C5.7 10.81, 4.29 11.09, 3.33 10.79 C2.38 10.49, 1.69 9.59, 1.2 8.47 C0.72 7.36, 0.41 5.28, 0.44 4.12 C0.47 2.96, 0.55 2.26, 1.41 1.53 C2.26 0.8, 4.85 -0.05, 5.59 -0.25 C6.34 -0.45, 5.92 0.18, 5.9 0.31 M5.45 0.61 C6.52 0.8, 8.76 1.61, 9.58 2.27 C10.41 2.93, 10.43 3.58, 10.41 4.56 C10.38 5.55, 9.94 7.1, 9.44 8.16 C8.94 9.22, 8.56 10.47, 7.42 10.93 C6.29 11.38, 3.74 11.48, 2.62 10.89 C1.51 10.3, 1.07 8.68, 0.72 7.4 C0.36 6.12, 0.22 4.43, 0.5 3.23 C0.78 2.02, 1.57 0.64, 2.4 0.18 C3.22 -0.27, 4.84 0.39, 5.44 0.51 C6.03 0.62, 5.9 0.85, 5.97 0.88" stroke="#6741d9" stroke-width="2" fill="none"></path></g><g stroke-linecap="round" transform="translate(280.24535797818066 36.788971445247284) rotate(0 5.463509437625362 5.3971435142399855)"><path d="M4.8 -0.46 C5.9 -0.61, 8.06 0.57, 9 1.41 C9.94 2.24, 10.14 3.5, 10.43 4.56 C10.72 5.62, 11.17 6.74, 10.76 7.78 C10.34 8.82, 9.03 10.34, 7.95 10.79 C6.87 11.24, 5.48 10.95, 4.26 10.48 C3.03 10.01, 1.34 8.87, 0.62 7.97 C-0.11 7.08, -0.21 6.2, -0.1 5.13 C0.01 4.05, 0.38 2.36, 1.26 1.55 C2.13 0.73, 4.43 0.42, 5.15 0.26 C5.87 0.09, 5.55 0.58, 5.59 0.57 M5.55 0.45 C6.69 0.38, 7.94 1.23, 8.76 1.81 C9.58 2.38, 10.19 2.92, 10.47 3.91 C10.76 4.89, 11.02 6.64, 10.48 7.73 C9.93 8.82, 8.49 9.94, 7.21 10.45 C5.93 10.96, 3.98 11.19, 2.78 10.8 C1.59 10.4, 0.6 9.26, 0.05 8.09 C-0.5 6.92, -0.89 4.97, -0.51 3.78 C-0.13 2.6, 1.39 1.5, 2.31 0.99 C3.23 0.48, 4.4 0.87, 5.01 0.71 C5.62 0.55, 5.86 0.17, 5.97 0.02" stroke="none" stroke-width="0" fill="#d0bfff"></path><path d="M4.42 -0.07 C5.45 -0.52, 6.6 -0.37, 7.65 0.24 C8.69 0.84, 10.24 2.52, 10.68 3.57 C11.12 4.62, 10.64 5.4, 10.29 6.51 C9.95 7.62, 9.46 9.52, 8.62 10.24 C7.78 10.95, 6.4 10.96, 5.27 10.79 C4.14 10.62, 2.69 9.98, 1.85 9.22 C1 8.46, 0.39 7.39, 0.22 6.24 C0.04 5.09, 0.08 3.29, 0.78 2.31 C1.49 1.34, 3.83 0.7, 4.43 0.39 C5.02 0.07, 4.37 0.45, 4.37 0.43 M6.5 -0.71 C7.64 -0.68, 8.39 0.15, 9.11 1.21 C9.82 2.27, 10.66 4.34, 10.82 5.68 C10.97 7.01, 10.74 8.36, 10.06 9.23 C9.38 10.11, 7.97 10.77, 6.73 10.92 C5.49 11.07, 3.74 10.77, 2.62 10.13 C1.49 9.48, 0.43 8.05, -0.03 7.05 C-0.49 6.06, -0.54 5.15, -0.15 4.17 C0.24 3.19, 1.36 1.83, 2.3 1.18 C3.24 0.52, 4.77 0.3, 5.48 0.24 C6.19 0.19, 6.46 0.9, 6.54 0.84" stroke="#6741d9" stroke-width="2" fill="none"></path></g><g transform="translate(278.51105515147515 171.42927680263426) rotate(0 34.407981872558594 10)"><text x="34.407981872558594" y="0" font-family="Virgil, Segoe UI Emoji" font-size="16px" fill="#2f9e44" text-anchor="middle" style="white-space: pre;" direction="ltr" dominant-baseline="text-before-edge">Coerente</text></g><g stroke-linecap="round" transform="translate(385.8723881139588 35.53096652249178) rotate(0 5.463509437625362 5.3971435142399855)"><path d="M4.45 0.49 C5.51 0.22, 6.67 -0.01, 7.62 0.51 C8.57 1.04, 9.56 2.53, 10.15 3.64 C10.74 4.75, 11.49 6.17, 11.14 7.17 C10.79 8.18, 9.04 9.07, 8.03 9.65 C7.03 10.23, 6.21 10.67, 5.12 10.63 C4.03 10.59, 2.4 10.32, 1.51 9.41 C0.62 8.5, -0.09 6.46, -0.21 5.17 C-0.34 3.89, -0.09 2.64, 0.76 1.72 C1.61 0.79, 4.26 -0.14, 4.88 -0.37 C5.51 -0.6, 4.55 0.14, 4.52 0.35 M4.42 0.29 C5.37 -0.07, 6.76 -0.18, 7.87 0.35 C8.99 0.88, 10.63 2.32, 11.11 3.47 C11.6 4.63, 11.35 6.17, 10.78 7.26 C10.21 8.35, 8.59 9.43, 7.71 10.02 C6.83 10.62, 6.61 10.95, 5.51 10.84 C4.42 10.74, 1.96 10.31, 1.15 9.39 C0.33 8.47, 0.76 6.62, 0.64 5.31 C0.52 4.01, -0.07 2.48, 0.42 1.57 C0.9 0.67, 2.9 0.1, 3.55 -0.1 C4.21 -0.3, 4.21 0.21, 4.35 0.36" stroke="none" stroke-width="0" fill="#d0bfff"></path><path d="M6.15 0.04 C7.22 0.07, 8.78 0.81, 9.63 1.71 C10.47 2.6, 11.26 4.28, 11.19 5.4 C11.12 6.51, 10.02 7.51, 9.23 8.42 C8.44 9.33, 7.48 10.54, 6.44 10.87 C5.4 11.2, 4.02 10.93, 3.01 10.39 C2.01 9.84, 0.92 8.66, 0.43 7.61 C-0.06 6.57, -0.23 5.25, 0.07 4.1 C0.38 2.96, 1.11 1.42, 2.23 0.73 C3.35 0.05, 5.99 0.02, 6.79 -0.02 C7.6 -0.06, 7.18 0.38, 7.06 0.49 M5.59 0.51 C6.51 0.67, 8.1 0.74, 8.99 1.57 C9.89 2.4, 10.77 4.17, 10.95 5.47 C11.14 6.78, 10.83 8.64, 10.1 9.41 C9.37 10.18, 7.72 10.04, 6.57 10.07 C5.42 10.1, 4.23 9.98, 3.22 9.58 C2.22 9.18, 1.02 8.65, 0.55 7.67 C0.07 6.69, 0.06 4.76, 0.36 3.69 C0.66 2.62, 1.49 1.77, 2.36 1.27 C3.23 0.76, 5.02 0.84, 5.58 0.65 C6.15 0.47, 5.63 0.21, 5.75 0.16" stroke="#6741d9" stroke-width="2" fill="none"></path></g><g stroke-linecap="round" transform="translate(463.7789925067525 146.33506447674608) rotate(0 5.463509437625362 5.3971435142399855)"><path d="M4.92 0.18 C6.04 -0.03, 8.16 0.21, 9.18 0.87 C10.21 1.54, 10.95 2.91, 11.08 4.18 C11.21 5.45, 10.51 7.45, 9.94 8.48 C9.38 9.52, 8.73 9.97, 7.71 10.37 C6.7 10.78, 5.01 11.2, 3.85 10.91 C2.68 10.61, 1.38 9.6, 0.71 8.6 C0.05 7.61, -0.42 6.15, -0.16 4.93 C0.1 3.7, 1.29 2.15, 2.27 1.25 C3.25 0.35, 5.14 -0.26, 5.71 -0.48 C6.28 -0.7, 5.68 -0.27, 5.69 -0.06 M6.94 -0.55 C8.01 -0.39, 9.36 0.47, 10.06 1.55 C10.76 2.63, 11.22 4.57, 11.14 5.92 C11.07 7.27, 10.58 8.77, 9.61 9.67 C8.65 10.57, 6.61 11.25, 5.35 11.3 C4.09 11.36, 3 10.63, 2.08 10 C1.16 9.37, 0.03 8.6, -0.18 7.53 C-0.39 6.46, 0.16 4.65, 0.82 3.59 C1.48 2.53, 2.65 1.8, 3.76 1.19 C4.88 0.58, 7.09 -0.03, 7.52 -0.07 C7.95 -0.11, 6.39 0.75, 6.32 0.95" stroke="none" stroke-width="0" fill="#d0bfff"></path><path d="M4.25 0.16 C5.22 -0.15, 6.69 -0.26, 7.67 0.29 C8.64 0.84, 9.54 2.38, 10.11 3.44 C10.69 4.49, 11.49 5.58, 11.13 6.64 C10.76 7.71, 9.04 9.09, 7.93 9.82 C6.81 10.56, 5.62 11.25, 4.44 11.04 C3.27 10.84, 1.63 9.5, 0.87 8.6 C0.1 7.71, -0.14 6.72, -0.14 5.68 C-0.14 4.65, -0.02 3.27, 0.86 2.42 C1.73 1.56, 4.35 0.98, 5.11 0.55 C5.87 0.13, 5.52 -0.13, 5.44 -0.13 M5.94 -0.09 C6.94 0.05, 8.4 0.8, 9.34 1.79 C10.27 2.78, 11.41 4.56, 11.56 5.84 C11.72 7.13, 11.13 8.77, 10.26 9.51 C9.38 10.25, 7.56 10.28, 6.33 10.28 C5.11 10.28, 3.84 10.09, 2.89 9.5 C1.95 8.91, 0.99 7.88, 0.68 6.76 C0.36 5.64, 0.63 3.86, 1 2.8 C1.37 1.73, 1.92 0.75, 2.92 0.39 C3.92 0.03, 6.52 0.61, 7.01 0.62 C7.51 0.62, 6.02 0.28, 5.89 0.4" stroke="#6741d9" stroke-width="2" fill="none"></path></g><g transform="translate(427.7192137894515 172.72094613969784) rotate(0 41.36798095703125 10)"><text x="41.36798095703125" y="0" font-family="Virgil, Segoe UI Emoji" font-size="16px" fill="#2f9e44" text-anchor="middle" style="white-space: pre;" direction="ltr" dominant-baseline="text-before-edge">Incoerente</text></g><g transform="translate(10 10) rotate(0 35.12797546386719 10)"><text x="35.12797546386719" y="0" font-family="Virgil, Segoe UI Emoji" font-size="16px" fill="#6741d9" text-anchor="middle" style="white-space: pre;" direction="ltr" dominant-baseline="text-before-edge">Snapshot</text></g></svg>