<svg version="1.1" xmlns="http://www.w3.org/2000/svg" viewBox="0 0 947.9918190324593 326.71493019467187" width="947.9918190324593" height="326.71493019467187">
  <!-- svg-source:excalidraw -->
  
  <defs>
    <style class="style-fonts">
      @font-face {
        font-family: "Virgil";
        src: url("https://excalidraw.com/Virgil.woff2");
      }
      @font-face {
        font-family: "Cascadia";
        src: url("https://excalidraw.com/Cascadia.woff2");
      }
      @font-face {
        font-family: "Assistant";
        src: url("https://excalidraw.com/Assistant-Regular.woff2");
      }
    </style>
    
  </defs>
  <g stroke-linecap="round"><g transform="translate(287.00884344124415 48.84283741620743) rotate(0 62.69924018144229 49.986253765553386)"><path d="M-0.68 -0.41 C20.4 16.45, 104.46 83.77, 125.58 100.35" stroke="#1971c2" stroke-width="2.5" fill="none" stroke-dasharray="8 10"></path></g><g transform="translate(287.00884344124415 48.84283741620743) rotate(0 62.69924018144229 49.986253765553386)"><path d="M101.86 92.44 C106.37 94.62, 112.94 97.15, 125.58 100.35" stroke="#1971c2" stroke-width="2.5" fill="none"></path></g><g transform="translate(287.00884344124415 48.84283741620743) rotate(0 62.69924018144229 49.986253765553386)"><path d="M112.5 79.05 C114.56 84.14, 118.78 89.63, 125.58 100.35" stroke="#1971c2" stroke-width="2.5" fill="none"></path></g></g><mask></mask><g stroke-linecap="round"><g transform="translate(287.22735998883354 47.89972092479991) rotate(0 169.3630143598507 104.28573186087556)"><path d="M-1.12 0.02 C55.23 34.54, 282.4 173.24, 339.06 208.03" stroke="#1971c2" stroke-width="2.5" fill="none" stroke-dasharray="8 10"></path></g><g transform="translate(287.22735998883354 47.89972092479991) rotate(0 169.3630143598507 104.28573186087556)"><path d="M314.56 203.06 C323.94 205.74, 332.33 207.31, 339.06 208.03" stroke="#1971c2" stroke-width="2.5" fill="none"></path></g><g transform="translate(287.22735998883354 47.89972092479991) rotate(0 169.3630143598507 104.28573186087556)"><path d="M323.49 188.48 C329.58 196.62, 334.58 203.73, 339.06 208.03" stroke="#1971c2" stroke-width="2.5" fill="none"></path></g></g><mask></mask><g stroke-linecap="round"><g transform="translate(136.85505951170808 44.63817406253497) rotate(0 400 -0.7142857142856656)"><path d="M-0.95 0.13 C132.51 -0.25, 667.09 -2.01, 800.39 -2.1 M0.75 -0.84 C134.12 -1.1, 666.25 -0.68, 799.64 -0.92" stroke="#1e1e1e" stroke-width="2" fill="none"></path></g></g><mask></mask><g stroke-linecap="round"><g transform="translate(137.06286190860055 155.4745203440441) rotate(0 400 -0.7142857142856656)"><path d="M0.39 -0.68 C133.68 -0.77, 665.41 -0.36, 798.83 -0.45 M-0.87 1.58 C132.86 1.16, 667.35 -1.84, 800.93 -2.06" stroke="#1e1e1e" stroke-width="2" fill="none"></path></g></g><mask></mask><g stroke-linecap="round"><g transform="translate(136.24375139439053 260.24458461209565) rotate(0 400.0000000000002 -0.7142857142856656)"><path d="M-1.17 0.98 C132.25 0.89, 667.29 -0.74, 800.9 -1.19 M0.42 0.45 C133.72 0.03, 667.16 -3.02, 800.42 -3.19" stroke="#1e1e1e" stroke-width="2" fill="none"></path></g></g><mask></mask><g transform="translate(16.31232810954407 32.32112827201331) rotate(0 48.83998107910156 12.5)"><text x="0" y="0" font-family="Virgil, Segoe UI Emoji" font-size="20px" fill="#1971c2" text-anchor="start" style="white-space: pre;" direction="ltr" dominant-baseline="text-before-edge">P1 = 1000</text></g><g transform="translate(12.088162260733952 142.67472676236514) rotate(0 50.46997833251953 12.5)"><text x="0" y="0" font-family="Virgil, Segoe UI Emoji" font-size="20px" fill="#f08c00" text-anchor="start" style="white-space: pre;" direction="ltr" dominant-baseline="text-before-edge">P2 = 300</text></g><g transform="translate(10 247.6829844898225) rotate(0 48.72998046875 12.5)"><text x="0" y="0" font-family="Virgil, Segoe UI Emoji" font-size="20px" fill="#e03131" text-anchor="start" style="white-space: pre;" direction="ltr" dominant-baseline="text-before-edge">P3 = 700</text></g><g stroke-linecap="round"><g transform="translate(191.1407737974223 43.527062951423886) rotate(0 17.818558834206442 107.52473525903622)"><path d="M-0.94 -0.81 C4.83 34.94, 28.83 178.6, 34.95 214.64 M0.76 1.39 C6.9 37.28, 31.58 180.64, 37.31 215.96" stroke="#1971c2" stroke-width="2" fill="none"></path></g><g transform="translate(191.1407737974223 43.527062951423886) rotate(0 17.818558834206442 107.52473525903622)"><path d="M24.98 194.21 C27.69 200.26, 32.37 208.8, 37.31 215.96 M24.98 194.21 C28.95 201.74, 32.33 208.23, 37.31 215.96" stroke="#1971c2" stroke-width="2" fill="none"></path></g><g transform="translate(191.1407737974223 43.527062951423886) rotate(0 17.818558834206442 107.52473525903622)"><path d="M41.85 191.38 C39.06 198.22, 38.23 207.68, 37.31 215.96 M41.85 191.38 C40.23 199.72, 38.01 207.15, 37.31 215.96" stroke="#1971c2" stroke-width="2" fill="none"></path></g></g><mask></mask><g stroke-linecap="round"><g transform="translate(191.1407737974223 44.527062951423886) rotate(0 142.53154115023585 107.39608235233095)"><path d="M0.65 -0.87 C48.08 34.91, 237.56 179.22, 284.78 215.06 M-0.48 1.29 C46.76 36.66, 235.9 177.43, 283.68 213.08" stroke="#1971c2" stroke-width="2" fill="none"></path></g><g transform="translate(191.1407737974223 44.527062951423886) rotate(0 142.53154115023585 107.39608235233095)"><path d="M259.73 205.9 C265.85 207.55, 275.28 208.38, 283.68 213.08 M259.73 205.9 C265.08 207.24, 271.42 210.01, 283.68 213.08" stroke="#1971c2" stroke-width="2" fill="none"></path></g><g transform="translate(191.1407737974223 44.527062951423886) rotate(0 142.53154115023585 107.39608235233095)"><path d="M269.95 192.18 C272.89 198.21, 279.11 203.36, 283.68 213.08 M269.95 192.18 C272.71 196.85, 276.51 203.04, 283.68 213.08" stroke="#1971c2" stroke-width="2" fill="none"></path></g></g><mask></mask><g stroke-linecap="round"><g transform="translate(403.14077379742184 258.5270629514239) rotate(0 125.50076813819487 -105.38593695479841)"><path d="M-0.29 0.27 C24.9 -20.29, 109.91 -88.87, 151.74 -124.23 C193.57 -159.6, 234.27 -197.37, 250.69 -211.93 M1.76 -0.64 C27.24 -20.97, 112.52 -87.92, 153.85 -123.01 C195.18 -158.11, 233.72 -196.57, 249.77 -211.21" stroke="#e03131" stroke-width="2" fill="none"></path></g><g transform="translate(403.14077379742184 258.5270629514239) rotate(0 125.50076813819487 -105.38593695479841)"><path d="M238.56 -188.87 C243.13 -198.65, 245.64 -205.16, 249.77 -211.21 M238.56 -188.87 C240.74 -193.05, 244.23 -197.59, 249.77 -211.21" stroke="#e03131" stroke-width="2" fill="none"></path></g><g transform="translate(403.14077379742184 258.5270629514239) rotate(0 125.50076813819487 -105.38593695479841)"><path d="M226.82 -201.3 C235.45 -206.66, 242.12 -208.77, 249.77 -211.21 M226.82 -201.3 C231.32 -202.86, 237.19 -204.87, 249.77 -211.21" stroke="#e03131" stroke-width="2" fill="none"></path></g></g><mask></mask><g stroke-linecap="round"><g transform="translate(549.8160368870772 254.8591066894959) rotate(0 146.0303978074512 -103.22312771356201)"><path d="M0.16 0.65 C49.02 -33.59, 243.85 -172.13, 292.55 -206.53" stroke="#e03131" stroke-width="2.5" fill="none" stroke-dasharray="8 10"></path></g><g transform="translate(549.8160368870772 254.8591066894959) rotate(0 146.0303978074512 -103.22312771356201)"><path d="M278.33 -185.97 C283.08 -190.21, 285.35 -195.58, 292.55 -206.53" stroke="#e03131" stroke-width="2.5" fill="none"></path></g><g transform="translate(549.8160368870772 254.8591066894959) rotate(0 146.0303978074512 -103.22312771356201)"><path d="M268.44 -199.92 C275.48 -200.76, 280.17 -202.71, 292.55 -206.53" stroke="#e03131" stroke-width="2.5" fill="none"></path></g></g><mask></mask><g stroke-linecap="round"><g transform="translate(426.8815380653664 159.29445863891283) rotate(0 57.39202070501051 47.63307172204287)"><path d="M0.28 0.73 C19.37 16.42, 96.03 78.4, 115.03 94.09" stroke="#f08c00" stroke-width="2.5" fill="none" stroke-dasharray="8 10"></path></g><g transform="translate(426.8815380653664 159.29445863891283) rotate(0 57.39202070501051 47.63307172204287)"><path d="M91.42 85.86 C100.67 89.02, 105.54 90.58, 115.03 94.09" stroke="#f08c00" stroke-width="2.5" fill="none"></path></g><g transform="translate(426.8815380653664 159.29445863891283) rotate(0 57.39202070501051 47.63307172204287)"><path d="M102.23 72.61 C107.79 80.31, 108.98 86.38, 115.03 94.09" stroke="#f08c00" stroke-width="2.5" fill="none"></path></g></g><mask></mask><g transform="translate(269.8091741443559 10) rotate(0 14.734718322754134 30.80321478876806)"><text x="14.734718322753906" y="0" font-family="Virgil, Segoe UI Emoji" font-size="49.28514366202894px" fill="#6741d9" text-anchor="middle" style="white-space: pre;" direction="ltr" dominant-baseline="text-before-edge">X</text></g><g stroke-linecap="round" transform="translate(538.4483829193664 254.81800693186187) rotate(0 6.4836301840887245 6.404872728103783)"><path d="M6.32 -0.49 C7.54 -0.51, 9.29 0.81, 10.45 1.87 C11.61 2.93, 13.01 4.61, 13.31 5.87 C13.6 7.13, 12.99 8.23, 12.22 9.4 C11.45 10.57, 10.01 12.47, 8.7 12.88 C7.39 13.3, 5.69 12.56, 4.35 11.89 C3 11.21, 1.35 10.05, 0.65 8.83 C-0.04 7.61, -0.12 5.89, 0.18 4.57 C0.48 3.25, 1.27 1.62, 2.44 0.89 C3.61 0.17, 6.34 0.33, 7.2 0.24 C8.05 0.15, 7.65 0.31, 7.56 0.37 M5.24 0 C6.62 -0.32, 9.04 0.51, 10.26 1.29 C11.49 2.07, 12.19 3.43, 12.58 4.68 C12.97 5.93, 13.17 7.66, 12.59 8.78 C12.01 9.91, 10.28 10.84, 9.11 11.42 C7.94 12, 6.86 12.51, 5.58 12.28 C4.3 12.05, 2.31 11.14, 1.44 10.05 C0.56 8.97, 0.35 7.15, 0.32 5.76 C0.28 4.37, 0.3 2.55, 1.23 1.71 C2.16 0.87, 5.23 1.09, 5.89 0.74 C6.55 0.39, 5.27 -0.32, 5.18 -0.39" stroke="none" stroke-width="0" fill="#d0bfff"></path><path d="M7.24 -0.41 C8.66 -0.43, 10 0.42, 11 1.35 C11.99 2.27, 13.07 3.78, 13.2 5.14 C13.33 6.51, 12.52 8.27, 11.78 9.52 C11.05 10.76, 10.04 12.07, 8.79 12.61 C7.55 13.14, 5.73 13.32, 4.31 12.74 C2.9 12.17, 1.07 10.52, 0.29 9.16 C-0.48 7.81, -0.66 6, -0.32 4.61 C0.01 3.23, 1.03 1.56, 2.31 0.85 C3.58 0.14, 6.4 0.49, 7.33 0.36 C8.27 0.23, 7.95 0.06, 7.91 0.06 M8.16 -0.16 C9.3 0.07, 10.38 0.9, 11.24 2.05 C12.11 3.2, 13.26 5.38, 13.35 6.76 C13.44 8.14, 12.85 9.24, 11.78 10.31 C10.71 11.39, 8.29 12.91, 6.94 13.23 C5.59 13.56, 4.69 13.18, 3.68 12.26 C2.67 11.34, 1.54 9.19, 0.89 7.74 C0.24 6.28, -0.78 4.62, -0.24 3.54 C0.31 2.46, 2.89 1.7, 4.16 1.26 C5.43 0.81, 6.74 1.04, 7.38 0.88 C8.01 0.72, 7.85 0.36, 7.96 0.3" stroke="#6741d9" stroke-width="2" fill="none"></path></g><g stroke-linecap="round" transform="translate(412.93670418141346 148.83195634807817) rotate(0 6.4836301840887245 6.404872728103783)"><path d="M4.67 -0.2 C5.98 -0.59, 7.96 -0.33, 9.27 0.25 C10.57 0.84, 11.95 2, 12.49 3.3 C13.02 4.61, 12.8 6.65, 12.46 8.09 C12.12 9.53, 11.6 11.13, 10.47 11.94 C9.33 12.76, 7.13 13.14, 5.65 12.96 C4.16 12.78, 2.52 11.87, 1.56 10.86 C0.61 9.84, 0.04 8.28, -0.08 6.86 C-0.2 5.44, -0.06 3.4, 0.82 2.35 C1.69 1.31, 4.42 0.87, 5.15 0.6 C5.87 0.33, 5.08 0.76, 5.16 0.71 M5.83 -0.74 C7.01 -0.87, 8.47 1.05, 9.75 1.94 C11.02 2.83, 13.18 3.31, 13.47 4.62 C13.76 5.94, 12.12 8.47, 11.49 9.83 C10.85 11.19, 10.86 12.37, 9.68 12.77 C8.49 13.18, 5.9 12.71, 4.38 12.26 C2.86 11.8, 1.21 11.12, 0.57 10.05 C-0.07 8.99, 0.21 7.3, 0.56 5.88 C0.9 4.46, 1.8 2.61, 2.63 1.54 C3.46 0.46, 5.03 -0.44, 5.52 -0.59 C6 -0.73, 5.43 0.57, 5.54 0.66" stroke="none" stroke-width="0" fill="#d0bfff"></path><path d="M6.7 -0.45 C8.03 -0.39, 9.57 0.71, 10.65 1.74 C11.73 2.77, 12.93 4.28, 13.18 5.7 C13.42 7.12, 12.87 9.08, 12.09 10.27 C11.32 11.46, 9.99 12.56, 8.54 12.83 C7.09 13.09, 4.71 12.39, 3.39 11.85 C2.06 11.31, 1.18 10.8, 0.61 9.6 C0.03 8.39, -0.35 6.01, -0.06 4.61 C0.22 3.21, 1.02 1.95, 2.31 1.2 C3.61 0.45, 6.79 0.29, 7.72 0.12 C8.65 -0.06, 7.93 0.07, 7.88 0.14 M7.24 0.52 C8.7 0.56, 11.05 0.89, 11.93 1.95 C12.82 3, 12.56 5.49, 12.53 6.86 C12.49 8.22, 12.63 9.08, 11.72 10.14 C10.81 11.2, 8.55 12.84, 7.07 13.23 C5.59 13.62, 3.83 13.21, 2.83 12.48 C1.82 11.75, 1.39 10.22, 1.05 8.85 C0.7 7.49, 0.47 5.57, 0.77 4.28 C1.06 2.99, 1.79 1.71, 2.81 1.1 C3.83 0.5, 6.07 0.72, 6.89 0.63 C7.71 0.54, 7.7 0.65, 7.75 0.57" stroke="#6741d9" stroke-width="2" fill="none"></path></g><g stroke-linecap="round" transform="translate(274.68423081241826 38.36556278773469) rotate(0 6.4836301840887245 6.404872728103783)"><path d="M6.93 0.41 C8.12 0.37, 9.83 0.62, 10.82 1.5 C11.82 2.37, 12.66 4.19, 12.89 5.67 C13.11 7.15, 12.91 9.26, 12.17 10.38 C11.42 11.49, 9.86 12.06, 8.41 12.33 C6.95 12.61, 4.76 12.52, 3.43 12.02 C2.11 11.51, 1.08 10.48, 0.48 9.3 C-0.11 8.13, -0.47 6.34, -0.14 4.98 C0.18 3.63, 1.18 2.01, 2.43 1.17 C3.67 0.33, 6.51 0.17, 7.32 -0.05 C8.12 -0.26, 7.24 -0.31, 7.26 -0.11 M4.89 -0.62 C6.34 -0.79, 8.56 0.61, 9.89 1.44 C11.21 2.28, 12.4 3.2, 12.84 4.38 C13.29 5.56, 13.11 7.28, 12.56 8.53 C12 9.78, 10.59 11.06, 9.5 11.88 C8.42 12.71, 7.26 13.81, 6.05 13.48 C4.84 13.14, 3.33 10.99, 2.23 9.87 C1.14 8.76, -0.51 8.05, -0.53 6.8 C-0.54 5.55, 1.16 3.39, 2.16 2.37 C3.15 1.35, 4.86 1.07, 5.43 0.68 C6 0.29, 5.63 0.09, 5.59 0.04" stroke="none" stroke-width="0" fill="#d0bfff"></path><path d="M4.54 0.39 C5.69 -0.01, 7.68 0.34, 9 0.87 C10.33 1.41, 11.92 2.47, 12.47 3.62 C13.01 4.78, 12.61 6.53, 12.27 7.81 C11.93 9.09, 11.59 10.57, 10.42 11.32 C9.26 12.06, 6.67 12.34, 5.29 12.29 C3.9 12.24, 3.04 11.94, 2.13 11.02 C1.23 10.11, 0.01 8.21, -0.14 6.8 C-0.29 5.39, 0.31 3.77, 1.24 2.58 C2.18 1.38, 4.77 -0.04, 5.46 -0.37 C6.14 -0.71, 5.3 0.32, 5.34 0.57 M6.66 0.64 C8.05 0.42, 9.05 0.8, 9.97 1.55 C10.88 2.31, 11.66 4.04, 12.15 5.17 C12.64 6.31, 13.42 7.26, 12.91 8.38 C12.41 9.51, 10.38 11.35, 9.12 11.93 C7.87 12.51, 6.77 12.28, 5.37 11.85 C3.96 11.43, 1.61 10.37, 0.68 9.39 C-0.26 8.41, -0.56 7.29, -0.25 5.97 C0.06 4.64, 1.55 2.42, 2.54 1.43 C3.53 0.43, 5.18 0.29, 5.69 0 C6.19 -0.28, 5.44 -0.51, 5.57 -0.3" stroke="#6741d9" stroke-width="2" fill="none"></path></g><g stroke-linecap="round"><g transform="translate(503.8208634888729 311.5989115694914) rotate(0 66.37840441806065 0)"><path d="M0.8 -1.18 C22.86 -1.37, 109.61 -1.31, 131.7 -0.98" stroke="#1e1e1e" stroke-width="2.5" fill="none" stroke-dasharray="8 10"></path></g><g transform="translate(503.8208634888729 311.5989115694914) rotate(0 66.37840441806065 0)"><path d="M108.15 7.42 C112 3.42, 118.16 4.06, 131.7 -0.98" stroke="#1e1e1e" stroke-width="2.5" fill="none"></path></g><g transform="translate(503.8208634888729 311.5989115694914) rotate(0 66.37840441806065 0)"><path d="M108.26 -9.69 C112.11 -9.45, 118.24 -4.58, 131.7 -0.98" stroke="#1e1e1e" stroke-width="2.5" fill="none"></path></g></g><mask></mask><g transform="translate(528.2290660121248 281.8368080079107) rotate(0 33.26997375488281 12.5)"><text x="0" y="0" font-family="Virgil, Segoe UI Emoji" font-size="20px" fill="#1e1e1e" text-anchor="start" style="white-space: pre;" direction="ltr" dominant-baseline="text-before-edge">Marker</text></g><g stroke-linecap="round" transform="translate(358.07737632139606 297.81005660977394) rotate(0 6.4836301840887245 6.404872728103783)"><path d="M7.42 -0.12 C8.83 0.01, 10.58 0.8, 11.59 1.85 C12.6 2.9, 13.5 4.74, 13.46 6.21 C13.41 7.67, 12.21 9.55, 11.3 10.62 C10.4 11.69, 9.34 12.37, 8.04 12.63 C6.75 12.9, 4.73 12.76, 3.54 12.2 C2.35 11.64, 1.46 10.59, 0.91 9.27 C0.36 7.95, -0.11 5.73, 0.25 4.27 C0.61 2.82, 1.93 1.26, 3.08 0.54 C4.22 -0.19, 6.35 -0.03, 7.12 -0.09 C7.89 -0.15, 7.64 0.05, 7.67 0.16 M6.43 0.44 C7.56 0.52, 9.28 0.72, 10.3 1.62 C11.32 2.52, 12.23 4.45, 12.58 5.84 C12.93 7.23, 13.07 8.74, 12.39 9.97 C11.72 11.2, 9.95 12.97, 8.54 13.23 C7.13 13.5, 5.15 12.28, 3.93 11.56 C2.72 10.84, 1.8 10.05, 1.24 8.89 C0.68 7.73, 0.33 5.74, 0.58 4.6 C0.83 3.45, 1.8 2.88, 2.73 2.04 C3.67 1.2, 5.39 -0.16, 6.17 -0.44 C6.95 -0.72, 7.2 0.12, 7.41 0.36" stroke="none" stroke-width="0" fill="#d0bfff"></path><path d="M7.21 -0.07 C8.49 -0.16, 10.29 0.46, 11.21 1.41 C12.12 2.35, 12.49 4.18, 12.67 5.6 C12.84 7.02, 12.98 8.78, 12.25 9.95 C11.52 11.11, 9.63 12.26, 8.29 12.58 C6.94 12.89, 5.43 12.44, 4.19 11.85 C2.95 11.26, 1.49 10.21, 0.82 9.06 C0.15 7.91, -0.15 6.26, 0.18 4.95 C0.5 3.64, 1.57 2.01, 2.79 1.2 C4.01 0.38, 6.72 0.26, 7.49 0.08 C8.25 -0.1, 7.47 0.06, 7.36 0.12 M5.83 -0.27 C6.96 -0.39, 8.45 0.51, 9.58 1.26 C10.71 2.01, 12.21 2.88, 12.62 4.24 C13.03 5.59, 12.4 8.08, 12.03 9.39 C11.65 10.69, 11.48 11.44, 10.38 12.07 C9.27 12.7, 7 13.35, 5.41 13.19 C3.81 13.04, 1.81 12.36, 0.8 11.16 C-0.2 9.96, -0.77 7.5, -0.62 5.97 C-0.47 4.44, 0.61 2.9, 1.7 1.96 C2.78 1.02, 5.15 0.53, 5.87 0.34 C6.58 0.16, 6.17 0.81, 6 0.85" stroke="#6741d9" stroke-width="2" fill="none"></path></g><g transform="translate(380.45874544075696 291.71493019467187) rotate(0 43.90995788574219 12.5)"><text x="0" y="0" font-family="Virgil, Segoe UI Emoji" font-size="20px" fill="#1e1e1e" text-anchor="start" style="white-space: pre;" direction="ltr" dominant-baseline="text-before-edge">Snapshot</text></g><g stroke-linecap="round"><g transform="translate(426.60439574820384 149.6555564428179) rotate(0 55.407910874689605 -50.96400911052882)"><path d="M-0.98 -0.39 C17.67 -17.28, 92.51 -83.96, 111.08 -100.78" stroke="#f08c00" stroke-width="2.5" fill="none" stroke-dasharray="8 10"></path></g><g transform="translate(426.60439574820384 149.6555564428179) rotate(0 55.407910874689605 -50.96400911052882)"><path d="M99.31 -78.72 C101.26 -83.25, 106.53 -89.41, 111.08 -100.78" stroke="#f08c00" stroke-width="2.5" fill="none"></path></g><g transform="translate(426.60439574820384 149.6555564428179) rotate(0 55.407910874689605 -50.96400911052882)"><path d="M87.89 -91.45 C92.53 -92.96, 100.42 -96.19, 111.08 -100.78" stroke="#f08c00" stroke-width="2.5" fill="none"></path></g></g><mask></mask><g stroke-linecap="round"><g transform="translate(549.0707904174074 254.30669697419046) rotate(0 45.50005819040189 -48.39313718701334)"><path d="M1.04 0.4 C16.42 -15.84, 76.76 -81.76, 91.64 -97.88" stroke="#e03131" stroke-width="2.5" fill="none" stroke-dasharray="8 10"></path></g><g transform="translate(549.0707904174074 254.30669697419046) rotate(0 45.50005819040189 -48.39313718701334)"><path d="M82.03 -74.8 C85.14 -79.48, 85.01 -87.37, 91.64 -97.88" stroke="#e03131" stroke-width="2.5" fill="none"></path></g><g transform="translate(549.0707904174074 254.30669697419046) rotate(0 45.50005819040189 -48.39313718701334)"><path d="M69.44 -86.37 C75.6 -88.33, 78.55 -93.37, 91.64 -97.88" stroke="#e03131" stroke-width="2.5" fill="none"></path></g></g><mask></mask></svg>