<svg version="1.1" xmlns="http://www.w3.org/2000/svg" viewBox="0 0 994.0598602294922 308.5" width="994.0598602294922" height="308.5">
  <!-- svg-source:excalidraw -->
  
  <defs>
    <style class="style-fonts">
      @font-face {
        font-family: "Virgil";
        src: url("https://excalidraw.com/Virgil.woff2");
      }
      @font-face {
        font-family: "Cascadia";
        src: url("https://excalidraw.com/Cascadia.woff2");
      }
      @font-face {
        font-family: "Assistant";
        src: url("https://excalidraw.com/Assistant-Regular.woff2");
      }
    </style>
    
  </defs>
  <g stroke-linecap="round"><g transform="translate(79.71428571428578 73.11111111111109) rotate(0 400 -0.714285714285694)"><path d="M1.04 0.35 C134.19 -0.02, 666.68 -1.8, 800.03 -2.24 M0.13 -0.52 C133.02 -0.75, 665.62 -0.98, 799.09 -1.13" stroke="#1e1e1e" stroke-width="2" fill="none"></path></g></g><mask></mask><g stroke-linecap="round"><g transform="translate(79.92208811117803 183.94745739262024) rotate(0 400.0000000000001 -0.714285714285694)"><path d="M-0.71 0.43 C132.78 0.31, 667.05 0.12, 800.5 -0.33 M1.12 -0.38 C134.53 -0.85, 666.8 -1.71, 799.82 -1.87" stroke="#1e1e1e" stroke-width="2" fill="none"></path></g></g><mask></mask><g stroke-linecap="round"><g transform="translate(79.10297759696823 288.7175216606719) rotate(0 400 -0.714285714285694)"><path d="M-0.53 -0.02 C132.83 -0.3, 666.77 -0.96, 800.13 -1.32 M1.39 -1.08 C134.61 -1.18, 666.37 0.3, 799.25 0.28" stroke="#1e1e1e" stroke-width="2" fill="none"></path></g></g><mask></mask><g transform="translate(10 10) rotate(0 48.64994812011719 12.5)"><text x="0" y="0" font-family="Virgil, Segoe UI Emoji" font-size="20px" fill="#1e1e1e" text-anchor="start" style="white-space: pre;" direction="ltr" dominant-baseline="text-before-edge">Prioridade</text></g><g transform="translate(50 59) rotate(0 6.879997253417969 12.5)"><text x="0" y="0" font-family="Virgil, Segoe UI Emoji" font-size="20px" fill="#1971c2" text-anchor="start" style="white-space: pre;" direction="ltr" dominant-baseline="text-before-edge">0</text></g><g transform="translate(51.12000274658203 166.50000000000003) rotate(0 2.7099990844726562 12.5)"><text x="0" y="0" font-family="Virgil, Segoe UI Emoji" font-size="20px" fill="#f08c00" text-anchor="start" style="white-space: pre;" direction="ltr" dominant-baseline="text-before-edge">1</text></g><g transform="translate(50.290000915527344 273.5) rotate(0 2.7099990844726562 12.5)"><text x="0" y="0" font-family="Virgil, Segoe UI Emoji" font-size="20px" fill="#e03131" text-anchor="start" style="white-space: pre;" direction="ltr" dominant-baseline="text-before-edge">1</text></g><g stroke-linecap="round"><g transform="translate(136 52) rotate(0 0 20.5)"><path d="M0.08 0.35 C0.04 7.14, 0.1 34.57, 0.13 41.29 M-0.55 0.05 C-0.67 6.92, -0.33 33.63, -0.24 40.48" stroke="#1971c2" stroke-width="2" fill="none"></path></g></g><mask></mask><g stroke-linecap="round"><g transform="translate(134 72) rotate(0 33.5 56.000000000000014)"><path d="M0.37 0.1 C11.54 18.55, 55.25 92.37, 66.43 111.13 M-0.9 -0.9 C10.13 17.64, 53.88 93.61, 65.19 112.21" stroke="#1971c2" stroke-width="2" fill="none"></path></g><g transform="translate(134 72) rotate(0 33.5 56.000000000000014)"><path d="M45.89 96.32 C50.87 99.24, 54.02 104.85, 65.19 112.21 M45.89 96.32 C53.5 102, 60.43 107.06, 65.19 112.21" stroke="#1971c2" stroke-width="2" fill="none"></path></g><g transform="translate(134 72) rotate(0 33.5 56.000000000000014)"><path d="M60.62 87.63 C61.99 92.74, 61.51 100.5, 65.19 112.21 M60.62 87.63 C62.96 96.33, 64.66 104.46, 65.19 112.21" stroke="#1971c2" stroke-width="2" fill="none"></path></g></g><mask></mask><g mask="url(#mask-CWxa6YxWvnzeYQI_NtNRD)" stroke-linecap="round"><g transform="translate(201 182.00000000000003) rotate(0 35.5 -53.500000000000014)"><path d="M0.72 0.04 C12.51 -17.91, 59.94 -89.35, 71.53 -107.22 M-0.36 -0.99 C11.25 -18.79, 58.67 -88.31, 70.86 -105.8" stroke="#f08c00" stroke-width="2" fill="none"></path></g><g transform="translate(201 182.00000000000003) rotate(0 35.5 -53.500000000000014)"><path d="M64.59 -81.6 C66.85 -89.61, 68.72 -100.55, 70.86 -105.8 M64.59 -81.6 C65.52 -89.04, 67.5 -95.96, 70.86 -105.8" stroke="#f08c00" stroke-width="2" fill="none"></path></g><g transform="translate(201 182.00000000000003) rotate(0 35.5 -53.500000000000014)"><path d="M50.5 -91.29 C57.96 -95.84, 64.98 -103.23, 70.86 -105.8 M50.5 -91.29 C55.53 -95.91, 61.55 -100.06, 70.86 -105.8" stroke="#f08c00" stroke-width="2" fill="none"></path></g></g><mask id="mask-CWxa6YxWvnzeYQI_NtNRD"><rect x="0" y="0" fill="#fff" width="372" height="389.00000000000006"></rect><rect x="223.1100082397461" y="116" fill="#000" width="26.779983520507812" height="25" opacity="1"></rect></mask><g transform="translate(223.1100082397461 116) rotate(0 13.47501543066926 12.410030973702646)"><text x="13.389991760253906" y="0" font-family="Virgil, Segoe UI Emoji" font-size="20px" fill="#f08c00" text-anchor="middle" style="white-space: pre;" direction="ltr" dominant-baseline="text-before-edge">OK</text></g><g stroke-linecap="round"><g transform="translate(134 73) rotate(0 104 106.50000000000001)"><path d="M-0.33 0.22 C34.49 35.52, 174.29 176.96, 209.09 212.3 M1.7 -0.7 C36.44 34.69, 174.34 177.82, 208.71 213.47" stroke="#1971c2" stroke-width="2" fill="none"></path></g><g transform="translate(134 73) rotate(0 104 106.50000000000001)"><path d="M186.25 202.49 C193.7 207.8, 199.2 210.2, 208.71 213.47 M186.25 202.49 C190.61 206, 196.61 208.23, 208.71 213.47" stroke="#1971c2" stroke-width="2" fill="none"></path></g><g transform="translate(134 73) rotate(0 104 106.50000000000001)"><path d="M198.56 190.62 C202.21 199.62, 203.85 205.73, 208.71 213.47 M198.56 190.62 C199.87 196.99, 202.94 202.05, 208.71 213.47" stroke="#1971c2" stroke-width="2" fill="none"></path></g></g><mask></mask><g mask="url(#mask-NoaO7pQ8SS-N499FAydJp)" stroke-linecap="round"><g transform="translate(346 287) rotate(0 165 -104.00000000000001)"><path d="M0 0.07 C33.32 -20.25, 145.69 -86.9, 200.87 -121.5 C256.04 -156.1, 309.47 -193.02, 331.05 -207.55 M-1.46 -0.94 C31.62 -21.66, 144.47 -88.58, 199.85 -123.36 C255.23 -158.15, 309.02 -195.55, 330.84 -209.66" stroke="#e03131" stroke-width="2" fill="none"></path></g><g transform="translate(346 287) rotate(0 165 -104.00000000000001)"><path d="M316.03 -189.52 C321.63 -197.3, 327.91 -202.89, 330.84 -209.66 M316.03 -189.52 C320.99 -195.43, 326.2 -204, 330.84 -209.66" stroke="#e03131" stroke-width="2" fill="none"></path></g><g transform="translate(346 287) rotate(0 165 -104.00000000000001)"><path d="M306.55 -203.75 C315.76 -206.19, 325.6 -206.44, 330.84 -209.66 M306.55 -203.75 C314.74 -204.81, 323.16 -208.58, 330.84 -209.66" stroke="#e03131" stroke-width="2" fill="none"></path></g></g><mask id="mask-NoaO7pQ8SS-N499FAydJp"><rect x="0" y="0" fill="#fff" width="776" height="595"></rect><rect x="533.6100082397461" y="152.5" fill="#000" width="26.779983520507812" height="25" opacity="1"></rect></mask><g transform="translate(533.6100082397461 152.5) rotate(0 -22.81601034321352 29.703410305385447)"><text x="13.389991760253906" y="0" font-family="Virgil, Segoe UI Emoji" font-size="20px" fill="#e03131" text-anchor="middle" style="white-space: pre;" direction="ltr" dominant-baseline="text-before-edge">OK</text></g><g stroke-linecap="round"><g transform="translate(295 182.00000000000003) rotate(0 51.5 -54.000000000000014)"><path d="M-0.75 0.7 C16.44 -17.19, 85.98 -90.28, 103.28 -108.2 M1.05 0.02 C18.1 -17.61, 85.6 -88.67, 102.49 -106.76" stroke="#f08c00" stroke-width="2" fill="none"></path></g><g transform="translate(295 182.00000000000003) rotate(0 51.5 -54.000000000000014)"><path d="M92.59 -83.81 C96.98 -90.38, 98.56 -97.86, 102.49 -106.76 M92.59 -83.81 C96.14 -92.82, 101.09 -102.59, 102.49 -106.76" stroke="#f08c00" stroke-width="2" fill="none"></path></g><g transform="translate(295 182.00000000000003) rotate(0 51.5 -54.000000000000014)"><path d="M80.15 -95.54 C88.31 -98.4, 93.74 -102.24, 102.49 -106.76 M80.15 -95.54 C88.63 -99.98, 98.54 -105.08, 102.49 -106.76" stroke="#f08c00" stroke-width="2" fill="none"></path></g></g><mask></mask><g stroke-linecap="round"><g transform="translate(296 183.00000000000003) rotate(0 47.5 52)"><path d="M-0.96 -0.58 C14.87 16.58, 78.73 86.12, 94.62 103.47 M0.74 1.73 C16.41 19, 78.05 87.59, 93.48 104.72" stroke="#f08c00" stroke-width="2" fill="none"></path></g><g transform="translate(296 183.00000000000003) rotate(0 47.5 52)"><path d="M71.41 92.97 C76.43 95.69, 82.45 98.44, 93.48 104.72 M71.41 92.97 C77.26 96.62, 83.57 97.91, 93.48 104.72" stroke="#f08c00" stroke-width="2" fill="none"></path></g><g transform="translate(296 183.00000000000003) rotate(0 47.5 52)"><path d="M84.12 81.54 C85.77 87.23, 88.37 93.06, 93.48 104.72 M84.12 81.54 C86.64 88.19, 89.68 92.42, 93.48 104.72" stroke="#f08c00" stroke-width="2" fill="none"></path></g></g><mask></mask><g stroke-linecap="round"><g transform="translate(292 163.00000000000003) rotate(0 0.5 17.5)"><path d="M-0.14 0.36 C0.09 6.19, 1.35 29.47, 1.46 35.3 M0.79 0.07 C0.98 5.72, 1.13 28.77, 1.26 34.49" stroke="#f08c00" stroke-width="2" fill="none"></path></g></g><mask></mask><g transform="translate(105 34) rotate(0 30.03997802734375 8.724440451694434)"><text x="0" y="0" font-family="Virgil, Segoe UI Emoji" font-size="13.959104722711084px" fill="#1971c2" text-anchor="start" style="white-space: pre;" direction="ltr" dominant-baseline="text-before-edge">WANTED</text></g><g transform="translate(257.96002197265625 145.2755595483056) rotate(0 30.0203857421875 8.72444045169442)"><text x="0" y="0" font-family="Virgil, Segoe UI Emoji" font-size="13.959104722711084px" fill="#f08c00" text-anchor="start" style="white-space: pre;" direction="ltr" dominant-baseline="text-before-edge">WANTED</text></g><g mask="url(#mask-IPtkkJFKRoe6lKtS_3t54)" stroke-linecap="round"><g transform="translate(395 287) rotate(0 78 -49.5)"><path d="M0.74 1.03 C26.97 -15.61, 131.04 -82.56, 157.03 -99.39 M-0.33 0.53 C25.86 -15.98, 130.53 -81.45, 156.62 -98.06" stroke="#e03131" stroke-width="2" fill="none"></path></g><g transform="translate(395 287) rotate(0 78 -49.5)"><path d="M141.3 -78.3 C147.12 -82.06, 148.91 -88.07, 156.62 -98.06 M141.3 -78.3 C144.71 -82.45, 149.15 -87.21, 156.62 -98.06" stroke="#e03131" stroke-width="2" fill="none"></path></g><g transform="translate(395 287) rotate(0 78 -49.5)"><path d="M132.19 -92.77 C140.53 -92.65, 144.81 -94.72, 156.62 -98.06 M132.19 -92.77 C137.52 -93.76, 143.97 -95.31, 156.62 -98.06" stroke="#e03131" stroke-width="2" fill="none"></path></g></g><mask id="mask-IPtkkJFKRoe6lKtS_3t54"><rect x="0" y="0" fill="#fff" width="651" height="486"></rect><rect x="459.6100082397461" y="225" fill="#000" width="26.779983520507812" height="25" opacity="1"></rect></mask><g transform="translate(459.6100082397461 225) rotate(0 13.739218356176252 12.8192152492702)"><text x="13.389991760253906" y="0" font-family="Virgil, Segoe UI Emoji" font-size="20px" fill="#e03131" text-anchor="middle" style="white-space: pre;" direction="ltr" dominant-baseline="text-before-edge">OK</text></g><g mask="url(#mask-NLuqV-gYdHWJPoiAlckK9)" stroke-linecap="round"><g transform="translate(400 73) rotate(0 37.5 55.000000000000014)"><path d="M-0.34 -0.87 C12.28 17.4, 62.64 91.77, 75.32 110.44 M1.69 1.29 C14.21 19.12, 62.26 90.53, 74.54 108.54" stroke="#1971c2" stroke-width="2" fill="none"></path></g><g transform="translate(400 73) rotate(0 37.5 55.000000000000014)"><path d="M54.29 93.89 C58.35 98.39, 65.93 103.03, 74.54 108.54 M54.29 93.89 C62.27 99.78, 70.07 106.39, 74.54 108.54" stroke="#1971c2" stroke-width="2" fill="none"></path></g><g transform="translate(400 73) rotate(0 37.5 55.000000000000014)"><path d="M68.45 84.3 C68.79 91.32, 72.6 98.52, 74.54 108.54 M68.45 84.3 C70.76 93.85, 72.97 104.25, 74.54 108.54" stroke="#1971c2" stroke-width="2" fill="none"></path></g></g><mask id="mask-NLuqV-gYdHWJPoiAlckK9"><rect x="0" y="0" fill="#fff" width="575" height="283"></rect><rect x="424.1100082397461" y="115.50000000000003" fill="#000" width="26.779983520507812" height="25" opacity="1"></rect></mask><g transform="translate(424.1100082397461 115.5) rotate(0 13.381709016114428 12.283657645434118)"><text x="13.389991760253906" y="0" font-family="Virgil, Segoe UI Emoji" font-size="20px" fill="#1971c2" text-anchor="middle" style="white-space: pre;" direction="ltr" dominant-baseline="text-before-edge">OK</text></g><g transform="translate(678 43) rotate(0 33.5999755859375 12.5)"><text x="0" y="0" font-family="Virgil, Segoe UI Emoji" font-size="20px" fill="#1971c2" text-anchor="start" style="white-space: pre;" direction="ltr" dominant-baseline="text-before-edge">2 OK's</text></g><g transform="translate(575.4000244140625 158.50000000000003) rotate(0 33.5999755859375 12.5)"><text x="0" y="0" font-family="Virgil, Segoe UI Emoji" font-size="20px" fill="#f08c00" text-anchor="start" style="white-space: pre;" direction="ltr" dominant-baseline="text-before-edge">2 OK's</text></g><g transform="translate(732 116.00000000000003) rotate(0 126.0299301147461 12.5)"><text x="0" y="0" font-family="Virgil, Segoe UI Emoji" font-size="20px" fill="#1e1e1e" text-anchor="start" style="white-space: pre;" direction="ltr" dominant-baseline="text-before-edge">NÃO PODE ACONTECER!!</text></g><g stroke-linecap="round"><g transform="translate(718 138.40677253272335) rotate(0 -31 13.355167110336907)"><path d="M-0.39 -1.07 C-10.53 3.35, -51.62 21.22, -62.01 26.04 M1.6 0.98 C-8.6 5.59, -52.66 23.04, -62.97 27.22" stroke="#1e1e1e" stroke-width="2" fill="none"></path></g><g transform="translate(718 138.40677253272335) rotate(0 -31 13.355167110336907)"><path d="M-44.34 10.54 C-49.95 13.83, -53.05 15.97, -62.97 27.22 M-44.34 10.54 C-52.41 17.53, -58.92 22.57, -62.97 27.22" stroke="#1e1e1e" stroke-width="2" fill="none"></path></g><g transform="translate(718 138.40677253272335) rotate(0 -31 13.355167110336907)"><path d="M-37.98 26.41 C-44.81 26.47, -49.19 25.42, -62.97 27.22 M-37.98 26.41 C-48.46 27.11, -57.47 25.89, -62.97 27.22" stroke="#1e1e1e" stroke-width="2" fill="none"></path></g></g><mask></mask><g stroke-linecap="round"><g transform="translate(726.0077116400503 112.38164675422439) rotate(0 -7.486810057250295 -20.19082337711218)"><path d="M-0.38 0.21 C-2.82 -6.48, -12.33 -33.62, -14.81 -40.37 M0.43 -0.15 C-2.06 -6.74, -12.46 -33.09, -15.16 -39.66" stroke="#1e1e1e" stroke-width="2" fill="none"></path></g><g transform="translate(726.0077116400503 112.38164675422439) rotate(0 -7.486810057250295 -20.19082337711218)"><path d="M-0.79 -23.62 C-4.25 -27.71, -8.5 -32.85, -15.16 -39.66 M-0.79 -23.62 C-5.74 -28.77, -9.53 -34.34, -15.16 -39.66" stroke="#1e1e1e" stroke-width="2" fill="none"></path></g><g transform="translate(726.0077116400503 112.38164675422439) rotate(0 -7.486810057250295 -20.19082337711218)"><path d="M-14.46 -18.14 C-14.22 -23.66, -14.78 -30.28, -15.16 -39.66 M-14.46 -18.14 C-15.02 -25.03, -14.42 -32.36, -15.16 -39.66" stroke="#1e1e1e" stroke-width="2" fill="none"></path></g></g><mask></mask><g stroke-linecap="round" transform="translate(379 18.45707070707067) rotate(0 17.5 19.055555555555557)"><path d="M14.62 0.46 C17.97 -0.64, 22.57 0.1, 25.74 1.99 C28.9 3.87, 32.28 7.94, 33.59 11.76 C34.89 15.57, 34.68 20.88, 33.55 24.89 C32.43 28.89, 29.9 33.62, 26.83 35.8 C23.76 37.98, 18.83 38.61, 15.13 37.95 C11.44 37.29, 7.15 34.93, 4.67 31.85 C2.2 28.78, 0.43 23.68, 0.28 19.51 C0.12 15.34, 1.29 10.12, 3.74 6.84 C6.2 3.55, 13.06 0.91, 15.03 -0.21 C16.99 -1.33, 15.54 -0.22, 15.52 0.13 M18.27 0.22 C22.07 0.29, 27.56 2.26, 30.32 5.04 C33.08 7.81, 34.45 12.68, 34.82 16.9 C35.19 21.11, 34.72 26.97, 32.53 30.33 C30.34 33.68, 25.34 35.89, 21.7 37.03 C18.06 38.17, 13.95 38.84, 10.7 37.16 C7.44 35.48, 3.84 30.72, 2.17 26.95 C0.51 23.18, -0.21 18.37, 0.7 14.55 C1.61 10.72, 4.57 6.52, 7.64 3.99 C10.72 1.46, 17.44 0.02, 19.16 -0.65 C20.88 -1.31, 18.06 -0.56, 17.97 -0.02" stroke="#1e1e1e" stroke-width="2" fill="none"></path></g><g transform="translate(394.8478755919309 29.3351887100159) rotate(0 1.7777557373046875 8.203125)"><text x="1.7777557373046875" y="0" font-family="Virgil, Segoe UI Emoji" font-size="13.125px" fill="#1e1e1e" text-anchor="middle" style="white-space: pre;" direction="ltr" dominant-baseline="text-before-edge">1</text></g></svg>