<svg version="1.1" xmlns="http://www.w3.org/2000/svg" viewBox="0 0 381.5839580796205 215.1687660453872" width="381.5839580796205" height="215.1687660453872">
  <!-- svg-source:excalidraw -->
  
  <defs>
    <style class="style-fonts">
      @font-face {
        font-family: "Virgil";
        src: url("https://excalidraw.com/Virgil.woff2");
      }
      @font-face {
        font-family: "Cascadia";
        src: url("https://excalidraw.com/Cascadia.woff2");
      }
      @font-face {
        font-family: "Assistant";
        src: url("https://excalidraw.com/Assistant-Regular.woff2");
      }
    </style>
    
  </defs>
  <g stroke-linecap="round" transform="translate(10 10.000000000003638) rotate(0 51.440382513036866 51.440382513036866)"><path d="M25.72 0 C45.82 -2.38, 68.67 2.03, 77.16 0 C92.47 2.48, 105.39 5.59, 102.88 25.72 C102.76 38.73, 98.95 50.7, 102.88 77.16 C100.73 95.85, 93.55 103.84, 77.16 102.88 C60.65 102.33, 48.99 106.87, 25.72 102.88 C6.05 104.52, -3.3 93.09, 0 77.16 C-1.01 56.68, -4.41 38.6, 0 25.72 C-1.16 8.39, 9.15 0.68, 25.72 0" stroke="none" stroke-width="0" fill="#a5d8ff"></path><path d="M25.72 0 C38.8 -1.1, 53.52 0.13, 77.16 0 M25.72 0 C36.26 0.67, 48.23 -0.29, 77.16 0 M77.16 0 C94.51 -0.35, 101.77 8.43, 102.88 25.72 M77.16 0 C95.47 -1.52, 104.25 7.56, 102.88 25.72 M102.88 25.72 C103.47 36.72, 101.75 52.09, 102.88 77.16 M102.88 25.72 C103.43 41.37, 102.77 54.6, 102.88 77.16 M102.88 77.16 C101.22 95.36, 93.64 102.02, 77.16 102.88 M102.88 77.16 C101.65 93.84, 95.73 103.48, 77.16 102.88 M77.16 102.88 C64.29 103.25, 49.18 102.28, 25.72 102.88 M77.16 102.88 C61.76 102.19, 47.66 103.26, 25.72 102.88 M25.72 102.88 C9.71 103.29, 0.81 96.07, 0 77.16 M25.72 102.88 C10.69 101.95, -0.85 93.69, 0 77.16 M0 77.16 C-0.57 61.21, -2.42 49.53, 0 25.72 M0 77.16 C0.64 58.43, -1.13 41.34, 0 25.72 M0 25.72 C-1.18 6.7, 10.57 1.54, 25.72 0 M0 25.72 C-1.52 8.43, 6.56 0.13, 25.72 0" stroke="#1971c2" stroke-width="2" fill="none"></path></g><g transform="translate(16.985142503972384 42.24038267996093) rotate(0 46.87499999999977 19.200000000000045)"><text x="0" y="15.45" font-family="Cascadia, Segoe UI Emoji" font-size="16px" fill="#1e1e1e" text-anchor="start" style="white-space: pre;" direction="ltr" dominant-baseline="alphabetic">IN:(A,2)</text><text x="0" y="34.65" font-family="Cascadia, Segoe UI Emoji" font-size="16px" fill="#1e1e1e" text-anchor="start" style="white-space: pre;" direction="ltr" dominant-baseline="alphabetic">PEND:(C,3)</text></g><g transform="translate(51.34467938803755 15.000000000003638) rotate(0 10.095703124999773 10.342057796053723)"><text x="10.095703125" y="16.644249265523875" font-family="Cascadia, Segoe UI Emoji" font-size="17.236762993422786px" fill="#1971c2" text-anchor="middle" style="white-space: pre;" direction="ltr" dominant-baseline="alphabetic">P1</text></g><g stroke-linecap="round" transform="translate(139.35159652677385 10) rotate(0 51.44038251303709 51.440382513036866)"><path d="M25.72 0 C47.19 -3.62, 62.82 -2.48, 77.16 0 C93.58 0.35, 101.64 5.12, 102.88 25.72 C101.57 37.09, 101.58 49.58, 102.88 77.16 C104.5 92.16, 93.34 103.43, 77.16 102.88 C53.33 102.09, 38.98 106.77, 25.72 102.88 C11.65 102.76, -0.91 90.78, 0 77.16 C0.88 61.58, -0.29 45.39, 0 25.72 C2.44 7.15, 7.65 -2.5, 25.72 0" stroke="none" stroke-width="0" fill="#ffc9c9"></path><path d="M25.72 0 C42.68 -1.79, 59.21 -0.31, 77.16 0 M25.72 0 C40.71 0.02, 57.32 -0.57, 77.16 0 M77.16 0 C95.49 -0.88, 101.65 9.82, 102.88 25.72 M77.16 0 C92.87 0.31, 101.42 6.91, 102.88 25.72 M102.88 25.72 C103.53 47.16, 104.67 66.01, 102.88 77.16 M102.88 25.72 C102.12 37.87, 101.92 50.68, 102.88 77.16 M102.88 77.16 C104.12 94.83, 93.72 104.67, 77.16 102.88 M102.88 77.16 C101.24 95.53, 95.15 102.75, 77.16 102.88 M77.16 102.88 C62.46 101.24, 46.06 102.63, 25.72 102.88 M77.16 102.88 C60.33 103.87, 43.61 102.58, 25.72 102.88 M25.72 102.88 C7.83 102.35, -0.54 96.1, 0 77.16 M25.72 102.88 C9.85 102.76, -2.18 92.05, 0 77.16 M0 77.16 C-1.55 62.49, -1.09 42.3, 0 25.72 M0 77.16 C1.3 58.24, -0.36 37.72, 0 25.72 M0 25.72 C-1.75 8.69, 10.36 -1.6, 25.72 0 M0 25.72 C1.09 8.62, 7.33 1.85, 25.72 0" stroke="#e03131" stroke-width="2" fill="none"></path></g><g transform="translate(145.89389534780958 42.24038267995729) rotate(0 28.125 19.200000000000045)"><text x="0" y="15.45" font-family="Cascadia, Segoe UI Emoji" font-size="16px" fill="#1e1e1e" text-anchor="start" style="white-space: pre;" direction="ltr" dominant-baseline="alphabetic">IN:</text><text x="0" y="34.65" font-family="Cascadia, Segoe UI Emoji" font-size="16px" fill="#1e1e1e" text-anchor="start" style="white-space: pre;" direction="ltr" dominant-baseline="alphabetic">PEND: </text></g><g stroke-linecap="round" transform="translate(268.70319305354633 10.000000000003638) rotate(0 51.44038251303709 51.440382513036866)"><path d="M25.72 0 C36.16 0.82, 46.82 -2.98, 77.16 0 C90.79 -2.15, 104.42 7.82, 102.88 25.72 C104.3 40.37, 101.72 59.87, 102.88 77.16 C106.45 91.79, 95.94 99.58, 77.16 102.88 C66.54 103.65, 48.86 100.25, 25.72 102.88 C9.15 101.72, -0.19 94.89, 0 77.16 C2.6 59.34, -0.77 41.86, 0 25.72 C2.29 7.01, 8.48 -3.54, 25.72 0" stroke="none" stroke-width="0" fill="#b2f2bb"></path><path d="M25.72 0 C37.7 0.17, 49.25 -1.14, 77.16 0 M25.72 0 C41.39 -0.1, 55.25 0.97, 77.16 0 M77.16 0 C93.06 0.27, 101.61 7.12, 102.88 25.72 M77.16 0 C96.43 -0.32, 102.52 9.41, 102.88 25.72 M102.88 25.72 C102.25 42.74, 104.41 62.42, 102.88 77.16 M102.88 25.72 C103.22 39.2, 102.31 53.05, 102.88 77.16 M102.88 77.16 C101.45 95.37, 95.04 102.77, 77.16 102.88 M102.88 77.16 C102.61 94.02, 92.38 103.03, 77.16 102.88 M77.16 102.88 C65.55 104.06, 52.95 103.74, 25.72 102.88 M77.16 102.88 C56.81 102.41, 36.94 103.57, 25.72 102.88 M25.72 102.88 C9.69 102.77, -1.9 92.35, 0 77.16 M25.72 102.88 C9.12 104.17, 1.59 92.85, 0 77.16 M0 77.16 C1.86 55.44, -1.67 38.07, 0 25.72 M0 77.16 C-0.53 57.81, 1.23 37.55, 0 25.72 M0 25.72 C0.95 8.61, 7.49 1.61, 25.72 0 M0 25.72 C1.58 7.4, 10.15 1.6, 25.72 0" stroke="#2f9e44" stroke-width="2" fill="none"></path></g><g transform="translate(275.2454918745839 42.24038267996093) rotate(0 37.5 19.200000000000045)"><text x="0" y="15.45" font-family="Cascadia, Segoe UI Emoji" font-size="16px" fill="#1e1e1e" text-anchor="start" style="white-space: pre;" direction="ltr" dominant-baseline="alphabetic">IN:(C,3)</text><text x="0" y="34.65" font-family="Cascadia, Segoe UI Emoji" font-size="16px" fill="#1e1e1e" text-anchor="start" style="white-space: pre;" direction="ltr" dominant-baseline="alphabetic">PEND: </text></g><g stroke-linecap="round"><g transform="translate(13.457303009490715 150.37640717282375) rotate(0 178.31141453301484 0)"><path d="M-0.67 -0.08 C58.85 -0.18, 297.56 -0.72, 357.23 -0.79 M1.18 -1.17 C60.59 -1.12, 297.3 0.05, 356.6 0.33" stroke="#1e1e1e" stroke-width="2" fill="none"></path></g></g><mask></mask><g transform="translate(135.26561244148752 126.3211107560237) rotate(0 55.5263671875 10.342057796053723)"><text x="55.5263671875" y="16.644249265523875" font-family="Cascadia, Segoe UI Emoji" font-size="17.236762993422786px" fill="#1e1e1e" text-anchor="middle" style="white-space: pre;" direction="ltr" dominant-baseline="alphabetic">Ordem total</text></g><g transform="translate(310.0478724415839 15.000000000003638) rotate(0 10.095703125 10.342057796053723)"><text x="10.095703125" y="16.644249265523875" font-family="Cascadia, Segoe UI Emoji" font-size="17.236762993422786px" fill="#2f9e44" text-anchor="middle" style="white-space: pre;" direction="ltr" dominant-baseline="alphabetic">P3</text></g><g transform="translate(180.6962759148114 15) rotate(0 10.095703125 10.342057796053723)"><text x="10.095703125" y="16.644249265523875" font-family="Cascadia, Segoe UI Emoji" font-size="17.236762993422786px" fill="#e03131" text-anchor="middle" style="white-space: pre;" direction="ltr" dominant-baseline="alphabetic">P2</text></g><g transform="translate(165.55272227595879 159.38640478155685) rotate(0 25.2392578125 10.342057796053723)"><text x="25.2392578125" y="16.644249265523875" font-family="Cascadia, Segoe UI Emoji" font-size="17.236762993422786px" fill="#e03131" text-anchor="middle" style="white-space: pre;" direction="ltr" dominant-baseline="alphabetic">A,2,F</text></g><g transform="translate(294.90431880273127 158.95354594529908) rotate(0 25.2392578125 10.342057796053723)"><text x="25.2392578125" y="16.644249265523875" font-family="Cascadia, Segoe UI Emoji" font-size="17.236762993422786px" fill="#2f9e44" text-anchor="middle" style="white-space: pre;" direction="ltr" dominant-baseline="alphabetic">B,4,F</text></g><g transform="translate(165.5527211191561 184.48465045327976) rotate(0 25.2392578125 10.342057796053723)"><text x="25.2392578125" y="16.644249265523875" font-family="Cascadia, Segoe UI Emoji" font-size="17.236762993422786px" fill="#e03131" text-anchor="middle" style="white-space: pre;" direction="ltr" dominant-baseline="alphabetic">B,4,F</text></g></svg>