<svg version="1.1" xmlns="http://www.w3.org/2000/svg" viewBox="0 0 589.1805489373669 303.4370491315399" width="589.1805489373669" height="303.4370491315399">
  <!-- svg-source:excalidraw -->
  
  <defs>
    <style class="style-fonts">
      @font-face {
        font-family: "Virgil";
        src: url("https://excalidraw.com/Virgil.woff2");
      }
      @font-face {
        font-family: "Cascadia";
        src: url("https://excalidraw.com/Cascadia.woff2");
      }
      @font-face {
        font-family: "Assistant";
        src: url("https://excalidraw.com/Assistant-Regular.woff2");
      }
    </style>
    
  </defs>
  <g stroke-linecap="round"><g transform="translate(11.092350928112864 37.90630621240075) rotate(0 67.61051891951183 0)"><path d="M-1.09 -0.87 C21.46 -0.91, 111.39 0.51, 134.16 0.8 M0.54 1.29 C23.55 1.44, 113.92 -0.52, 136.31 -0.91" stroke="#1e1e1e" stroke-width="2" fill="none"></path></g></g><mask></mask><g transform="translate(55.26514127778819 10) rotate(0 23.4375 12)"><text x="23.4375" y="0" font-family="Cascadia, Segoe UI Emoji" font-size="20px" fill="#1e1e1e" text-anchor="middle" style="white-space: pre;" direction="ltr" dominant-baseline="text-before-edge">W(0)</text></g><g stroke-linecap="round"><g transform="translate(171.03847334475586 97.91306417723013) rotate(0 37.357412215644445 0)"><path d="M1.05 -0.05 C13.47 -0.34, 63.07 -1.37, 75.41 -1.17 M0.14 -1.13 C12.38 -1.36, 62.42 -0.34, 74.83 -0.25" stroke="#1e1e1e" stroke-width="2" fill="none"></path></g></g><mask></mask><g transform="translate(185.3746506459688 69.71561006741285) rotate(0 23.4375 12)"><text x="23.4375" y="0" font-family="Cascadia, Segoe UI Emoji" font-size="20px" fill="#1e1e1e" text-anchor="middle" style="white-space: pre;" direction="ltr" dominant-baseline="text-before-edge">R(0)</text></g><g stroke-linecap="round"><g transform="translate(10.911701894416638 291.7678107410677) rotate(0 280.14605431125347 0)"><path d="M0.68 -0.64 C93.95 -0.63, 466.84 -0.74, 560.22 -0.81 M-0.43 1.65 C92.62 1.85, 465.74 0.62, 559.24 0.3" stroke="#1e1e1e" stroke-width="2" fill="none"></path></g><g transform="translate(10.911701894416638 291.7678107410677) rotate(0 280.14605431125347 0)"><path d="M535.77 8.93 C542.99 5.66, 550.92 3.85, 559.24 0.3 M535.77 8.93 C540.53 7.86, 545.99 5.93, 559.24 0.3" stroke="#1e1e1e" stroke-width="2" fill="none"></path></g><g transform="translate(10.911701894416638 291.7678107410677) rotate(0 280.14605431125347 0)"><path d="M535.72 -8.17 C542.84 -5.45, 550.78 -1.27, 559.24 0.3 M535.72 -8.17 C540.54 -5.59, 546 -3.86, 559.24 0.3" stroke="#1e1e1e" stroke-width="2" fill="none"></path></g></g><mask></mask><g transform="translate(561.5957171136706 249.77771519187104) rotate(0 8.792415911848138 19.452251094859093)"><text x="8.792415911848067" y="0" font-family="Virgil, Segoe UI Emoji" font-size="31.12360175177456px" fill="#1e1e1e" text-anchor="middle" style="white-space: pre;" direction="ltr" dominant-baseline="text-before-edge">t</text></g><g stroke-linecap="round"><g transform="translate(256.59229743124797 142.97099926581723) rotate(0 37.357412215644445 0)"><path d="M0.85 -0.43 C13.28 -0.56, 62.36 -0.15, 74.62 -0.23 M-0.16 -1.71 C12.1 -1.69, 61.35 0.92, 73.62 1.19" stroke="#1e1e1e" stroke-width="2" fill="none"></path></g></g><mask></mask><g transform="translate(270.3831247324606 114.26407315599977) rotate(0 23.4375 12)"><text x="23.4375" y="0" font-family="Cascadia, Segoe UI Emoji" font-size="20px" fill="#1e1e1e" text-anchor="middle" style="white-space: pre;" direction="ltr" dominant-baseline="text-before-edge">R(0)</text></g><g stroke-linecap="round"><g transform="translate(290.84821200454644 37.90630647878152) rotate(0 67.61051891951183 0)"><path d="M0.93 0.29 C23.59 0.3, 112.77 0.15, 135.01 0.12 M-0.04 -0.6 C22.53 -0.38, 111.13 1.37, 133.96 1.71" stroke="#1e1e1e" stroke-width="2" fill="none"></path></g></g><mask></mask><g transform="translate(335.0210023542213 10.000000266380994) rotate(0 23.4375 12)"><text x="23.4375" y="0" font-family="Cascadia, Segoe UI Emoji" font-size="20px" fill="#1e1e1e" text-anchor="middle" style="white-space: pre;" direction="ltr" dominant-baseline="text-before-edge">W(1)</text></g><g stroke-linecap="round"><g transform="translate(359.579103870195 187.5565678720227) rotate(0 37.357412215644445 0)"><path d="M0.06 -1.12 C12.14 -0.94, 61.15 0.89, 73.58 0.9 M-1.37 0.9 C10.96 0.77, 63.16 -0.55, 75.7 -0.76" stroke="#1e1e1e" stroke-width="2" fill="none"></path></g></g><mask></mask><g transform="translate(373.36993117140764 158.849641762205) rotate(0 23.4375 12)"><text x="23.4375" y="0" font-family="Cascadia, Segoe UI Emoji" font-size="20px" fill="#1e1e1e" text-anchor="middle" style="white-space: pre;" direction="ltr" dominant-baseline="text-before-edge">R(1)</text></g><g stroke-linecap="round"><g transform="translate(459.56882315885014 229.73305880350017) rotate(0 37.357412215644445 0)"><path d="M0.75 0.65 C13.31 0.63, 62.2 1, 74.6 0.89 M-0.32 -0.06 C12.14 0.11, 61.11 -0.99, 73.59 -0.77" stroke="#1e1e1e" stroke-width="2" fill="none"></path></g></g><mask></mask><g transform="translate(473.35965046006277 201.02613269368248) rotate(0 23.4375 12)"><text x="23.4375" y="0" font-family="Cascadia, Segoe UI Emoji" font-size="20px" fill="#1e1e1e" text-anchor="middle" style="white-space: pre;" direction="ltr" dominant-baseline="text-before-edge">R(1)</text></g></svg>