<svg version="1.1" xmlns="http://www.w3.org/2000/svg" viewBox="0 0 589.6350001499636 273.9297332461956" width="589.6350001499636" height="273.9297332461956">
  <!-- svg-source:excalidraw -->
  
  <defs>
    <style class="style-fonts">
      @font-face {
        font-family: "Virgil";
        src: url("https://excalidraw.com/Virgil.woff2");
      }
      @font-face {
        font-family: "Cascadia";
        src: url("https://excalidraw.com/Cascadia.woff2");
      }
      @font-face {
        font-family: "Assistant";
        src: url("https://excalidraw.com/Assistant-Regular.woff2");
      }
    </style>
    
  </defs>
  <g stroke-linecap="round" transform="translate(10 52.22548595228773) rotate(0 284.8175000749818 81.47105234702963)"><path d="M32 0 C136.81 -1.07, 240.02 -0.3, 537.64 0 M32 0 C154.58 -0.02, 277.18 0.38, 537.64 0 M537.64 0 C560.3 -1.82, 570.5 10.41, 569.64 32 M537.64 0 C559.14 1.45, 570.08 8.88, 569.64 32 M569.64 32 C571.7 62.36, 571.56 94.78, 569.64 130.94 M569.64 32 C571 66.43, 569.35 99.59, 569.64 130.94 M569.64 130.94 C570.68 153.88, 557.41 164.06, 537.64 162.94 M569.64 130.94 C570.28 153.95, 557.45 161.79, 537.64 162.94 M537.64 162.94 C396.36 165.12, 255.79 164.93, 32 162.94 M537.64 162.94 C382.3 162.76, 227.85 163.29, 32 162.94 M32 162.94 C10.35 163.46, -0.66 152.75, 0 130.94 M32 162.94 C9.3 164.03, 0.13 153.73, 0 130.94 M0 130.94 C0.99 96.84, 1.05 63.84, 0 32 M0 130.94 C-0.52 111.1, -0.03 89.32, 0 32 M0 32 C-1.15 8.81, 10.8 1.07, 32 0 M0 32 C-0.02 8.86, 12.79 0.96, 32 0" stroke="#1e1e1e" stroke-width="2" fill="none"></path></g><g stroke-linecap="round" transform="translate(41.79358166482598 70.44055873541674) rotate(0 63.255979667815836 63.255979667815836)"><path d="M12.77 24.35 C12.77 24.35, 12.77 24.35, 12.77 24.35 M12.77 24.35 C12.77 24.35, 12.77 24.35, 12.77 24.35 M3.06 47.71 C12 36.53, 23.19 28.07, 40.46 4.69 M3.06 47.71 C18.13 30.85, 30.89 15.37, 40.46 4.69 M2.54 60.51 C15.43 44.68, 30.49 29.45, 52.4 3.15 M2.54 60.51 C16.09 45.78, 27.31 31.93, 52.4 3.15 M2.67 72.55 C24.83 46.56, 47.5 20.37, 65 0.85 M2.67 72.55 C18.37 53.97, 34.73 33.62, 65 0.85 M3.46 83.84 C16.84 66.09, 31.7 48.61, 73.66 3.08 M3.46 83.84 C22.16 61.55, 41.93 40.21, 73.66 3.08 M7.53 91.35 C36.22 58.52, 63.26 24.72, 82.32 5.31 M7.53 91.35 C27.34 68.69, 46.73 47.26, 82.32 5.31 M12.26 98.11 C36.18 69.45, 63.67 39.61, 90.33 8.3 M12.26 98.11 C35.56 70.27, 60.01 42.59, 90.33 8.3 M16.33 105.62 C48.96 68.67, 79.24 35.4, 97.68 12.04 M16.33 105.62 C37.06 81.51, 58.25 57.22, 97.68 12.04 M21.71 111.62 C43.75 86.9, 63.8 59.7, 103.72 17.28 M21.71 111.62 C45.53 84.35, 67.95 56.6, 103.72 17.28 M29.06 115.36 C49.02 93.49, 66.61 70, 109.75 22.53 M29.06 115.36 C55.66 86.68, 82.34 55.83, 109.75 22.53 M36.41 119.1 C55.05 98.07, 73.78 77.09, 115.79 27.78 M36.41 119.1 C62 91.19, 85.78 61.97, 115.79 27.78 M43.76 122.84 C71.3 93.62, 97.12 64.52, 119.21 36.05 M43.76 122.84 C71.66 91.65, 98.82 60.11, 119.21 36.05 M52.42 125.07 C69.12 106.01, 82.24 89.83, 122.62 44.32 M52.42 125.07 C66.52 108.36, 81.23 91.86, 122.62 44.32 M63.05 125.03 C76.35 109.06, 89.18 95.22, 125.38 53.34 M63.05 125.03 C75.9 110, 87.53 95.82, 125.38 53.34 M73.68 125 C93.3 99.98, 113.92 77.54, 126.17 64.62 M73.68 125 C92.62 102.25, 112.15 81.87, 126.17 64.62 M89.56 118.93 C96.1 111.18, 107.28 101.49, 123.02 80.44 M89.56 118.93 C101.73 105.5, 113 92.88, 123.02 80.44" stroke="#40c057" stroke-width="1" fill="none"></path><path d="M35.81 5.06 C43.84 0.49, 57.26 -0.09, 67.07 0.57 C76.88 1.22, 86.35 4.29, 94.69 9.01 C103.02 13.73, 111.7 20.66, 117.08 28.89 C122.47 37.13, 126.34 48.45, 126.98 58.42 C127.63 68.38, 124.9 79.71, 120.94 88.69 C116.98 97.67, 110.72 106.25, 103.24 112.31 C95.76 118.37, 85.62 123.07, 76.06 125.06 C66.5 127.04, 55.48 126.84, 45.88 124.22 C36.28 121.61, 25.66 116.18, 18.46 109.38 C11.26 102.58, 5.5 93.01, 2.68 83.41 C-0.14 73.81, -0.14 61.64, 1.55 51.79 C3.23 41.95, 5.79 32.45, 12.78 24.34 C19.78 16.23, 37.33 6.58, 43.52 3.14 C49.7 -0.31, 49.75 2.6, 49.89 3.69 M42.61 2.08 C51.49 -1.87, 64.12 -0.17, 73.78 1.36 C83.44 2.9, 92.74 5.58, 100.56 11.28 C108.37 16.97, 116.57 26.64, 120.64 35.52 C124.72 44.39, 125.36 54.56, 124.98 64.51 C124.59 74.46, 122.7 86.5, 118.34 95.22 C113.99 103.94, 107.21 111.89, 98.85 116.85 C90.49 121.8, 78.05 124.13, 68.16 124.93 C58.27 125.73, 48.56 124.98, 39.51 121.64 C30.46 118.29, 20.03 112.45, 13.86 104.87 C7.68 97.28, 4.24 85.91, 2.47 76.13 C0.7 66.35, 0.63 55.43, 3.26 46.21 C5.89 37, 11.58 28.09, 18.25 20.84 C24.91 13.59, 39.28 5.34, 43.26 2.71 C47.23 0.09, 41.76 4.16, 42.08 5.08" stroke="#1e1e1e" stroke-width="2" fill="none"></path></g><g transform="translate(93.15843749633314 114.9670315156659) rotate(0 11.662391662597656 18.50077471385589)"><text x="11.662391662597656" y="0" font-family="Virgil, Segoe UI Emoji" font-size="29.60123954216941px" fill="#1e1e1e" text-anchor="middle" style="white-space: pre;" direction="ltr" dominant-baseline="text-before-edge">V1</text></g><g stroke-linecap="round" transform="translate(231.56152064841672 70.44055904530842) rotate(0 63.255979667815836 63.255979667815836)"><path d="M15.16 22.45 C15.16 22.45, 15.16 22.45, 15.16 22.45 M15.16 22.45 C15.16 22.45, 15.16 22.45, 15.16 22.45 M2.17 49.59 C15.74 33.64, 29.27 20.95, 40.88 5.06 M2.17 49.59 C11.09 38.47, 21.1 26.67, 40.88 5.06 M2.3 61.63 C15.83 43.56, 32.95 27.15, 53.48 2.76 M2.3 61.63 C12.96 49.17, 25.5 37.17, 53.48 2.76 M2.44 73.67 C23.61 48.6, 49.89 19.13, 65.42 1.22 M2.44 73.67 C26.63 45.03, 50.91 17.79, 65.42 1.22 M4.54 83.45 C29.97 53.85, 55.76 25.98, 75.39 1.94 M4.54 83.45 C29.34 54.07, 52.95 25.24, 75.39 1.94 M8.61 90.96 C27.21 69.82, 44.23 49.15, 83.4 4.92 M8.61 90.96 C32.83 63.81, 58.58 34.83, 83.4 4.92 M12.68 98.47 C33.96 73.2, 58.89 46.23, 91.4 7.91 M12.68 98.47 C33.12 75.27, 52.91 53.3, 91.4 7.91 M16.09 106.74 C43.19 73, 72.53 37.54, 99.41 10.89 M16.09 106.74 C47.31 71.43, 76.88 38.71, 99.41 10.89 M23.44 110.48 C42.24 89.88, 59.79 66.49, 104.79 16.89 M23.44 110.48 C45.87 84.82, 68.1 60.61, 104.79 16.89 M30.13 114.97 C60.77 83.46, 87.2 50.11, 110.17 22.9 M30.13 114.97 C62.08 78.47, 91.97 43.55, 110.17 22.9 M36.83 119.46 C58.29 95.69, 82.32 68.61, 115.55 28.9 M36.83 119.46 C65.86 87.93, 92.66 55.43, 115.55 28.9 M44.18 123.2 C60.69 102.43, 81.49 82.38, 119.62 36.41 M44.18 123.2 C63.7 100.88, 82.58 78.79, 119.62 36.41 M54.15 123.92 C71.69 103.67, 87.68 83.13, 122.38 45.43 M54.15 123.92 C77.38 98.12, 98.95 73.93, 122.38 45.43 M64.13 124.64 C79.24 109.03, 90.86 91.07, 125.14 54.46 M64.13 124.64 C79.76 107.76, 95.86 89.42, 125.14 54.46 M74.76 124.61 C92.33 106.23, 105.19 88.74, 125.93 65.74 M74.76 124.61 C94.43 102.21, 112.7 79.33, 125.93 65.74 M91.29 117.78 C101.18 107.86, 112.18 93.02, 122.13 82.31 M91.29 117.78 C103.58 105.04, 113.56 90.36, 122.13 82.31" stroke="#40c057" stroke-width="1" fill="none"></path><path d="M40.35 4.15 C48.72 -0.21, 59.77 -1.49, 69.55 -0.4 C79.33 0.7, 90.79 5.07, 99.03 10.72 C107.27 16.37, 114.41 25.09, 118.97 33.52 C123.53 41.96, 126.33 51.53, 126.4 61.32 C126.48 71.1, 123.88 83.42, 119.4 92.25 C114.93 101.07, 107.34 108.79, 99.56 114.25 C91.79 119.71, 82.32 123.63, 72.77 125.02 C63.21 126.41, 51.67 125.71, 42.24 122.61 C32.81 119.51, 22.85 113.44, 16.19 106.43 C9.53 99.41, 4.74 90.08, 2.28 80.52 C-0.17 70.96, -0.7 58.75, 1.45 49.06 C3.6 39.38, 7.66 30.38, 15.2 22.41 C22.74 14.44, 39.92 4.78, 46.71 1.24 C53.5 -2.3, 55.59 -0.06, 55.96 1.16 M66.21 0.28 C75.48 -0.15, 86.77 3.69, 95.28 8.74 C103.79 13.78, 112.35 22.2, 117.27 30.55 C122.19 38.89, 124.23 49.34, 124.8 58.81 C125.38 68.28, 124.4 78.67, 120.72 87.38 C117.05 96.08, 110.23 104.9, 102.73 111.05 C95.24 117.2, 85.03 122.11, 75.75 124.27 C66.47 126.42, 56.43 126.27, 47.05 124 C37.68 121.72, 26.67 117.37, 19.5 110.61 C12.33 103.86, 7.14 93.19, 4.03 83.45 C0.93 73.71, -0.59 61.9, 0.88 52.18 C2.34 42.45, 6.86 32.5, 12.83 25.08 C18.81 17.66, 27.84 11.88, 36.73 7.66 C45.61 3.44, 61.59 0.57, 66.14 -0.24 C70.69 -1.06, 64.39 1.72, 64.05 2.76" stroke="#1e1e1e" stroke-width="2" fill="none"></path></g><g transform="translate(282.9263764799239 114.96703182555757) rotate(0 11.662391662597656 18.50077471385589)"><text x="11.662391662597656" y="0" font-family="Virgil, Segoe UI Emoji" font-size="29.60123954216941px" fill="#1e1e1e" text-anchor="middle" style="white-space: pre;" direction="ltr" dominant-baseline="text-before-edge">V1</text></g><g stroke-linecap="round" transform="translate(421.32945956288495 70.44055904530842) rotate(0 63.255979667815836 63.255979667815836)"><path d="M12.39 25.35 C12.39 25.35, 12.39 25.35, 12.39 25.35 M12.39 25.35 C12.39 25.35, 12.39 25.35, 12.39 25.35 M4 47.2 C13.11 35.02, 25.68 22.24, 38.77 7.2 M4 47.2 C15.03 35.17, 26.85 20.15, 38.77 7.2 M2.16 61.51 C12.79 48.52, 25.88 36.77, 52.68 3.39 M2.16 61.51 C21.05 40.41, 39.9 18.01, 52.68 3.39 M2.3 73.55 C23.59 50.86, 41.92 30.98, 65.93 0.34 M2.3 73.55 C21.73 52.99, 40.02 30.77, 65.93 0.34 M3.09 84.83 C23.09 58.15, 45.56 33.5, 74.6 2.57 M3.09 84.83 C29.96 54.35, 55.18 26.84, 74.6 2.57 M7.81 91.59 C24.2 73.45, 38.87 56.73, 83.26 4.8 M7.81 91.59 C38.02 58.47, 65.02 26.2, 83.26 4.8 M12.54 98.35 C30.74 75.63, 49.24 56.16, 91.92 7.03 M12.54 98.35 C30.01 79.46, 46.79 60.93, 91.92 7.03 M17.26 105.11 C35.77 84.4, 54.39 60.54, 97.96 12.28 M17.26 105.11 C41.28 77.19, 63.27 51.05, 97.96 12.28 M21.99 111.87 C51.32 81.57, 79.15 46.09, 104 17.53 M21.99 111.87 C51.54 76.41, 81.22 41.51, 104 17.53 M29.99 114.85 C55.01 84.94, 82.89 53.51, 110.03 22.78 M29.99 114.85 C52.21 90.56, 72.35 65.64, 110.03 22.78 M37.34 118.59 C64.24 88.52, 85.83 59.4, 116.07 28.02 M37.34 118.59 C65.67 86.32, 92.37 55.28, 116.07 28.02 M44.69 122.33 C65.58 97.79, 88.57 71.42, 119.48 36.29 M44.69 122.33 C70.77 92.29, 96.47 63, 119.48 36.29 M54.01 123.8 C68.44 106.93, 81.44 92.28, 122.9 44.56 M54.01 123.8 C69.05 107.14, 82.85 89.4, 122.9 44.56 M64.64 123.77 C82.96 104.21, 99.39 80.72, 125.66 53.58 M64.64 123.77 C85.28 100.77, 106.53 78.04, 125.66 53.58 M74.62 124.49 C93.69 100.98, 113.75 78.22, 125.13 66.38 M74.62 124.49 C92.01 104.92, 110.31 83.3, 125.13 66.38 M90.49 118.42 C101.93 106.06, 109.87 95.15, 122.64 81.44 M90.49 118.42 C97.68 110.36, 106.14 101.3, 122.64 81.44" stroke="#a5d8ff" stroke-width="1" fill="none"></path><path d="M34.37 7.74 C42.41 2.79, 54.94 -0.3, 64.67 -0.36 C74.41 -0.42, 84.19 2.76, 92.75 7.39 C101.31 12.02, 110.41 19.25, 116.04 27.4 C121.68 35.55, 125.71 46.46, 126.56 56.28 C127.41 66.1, 124.89 77.31, 121.14 86.33 C117.38 95.35, 111.25 104.14, 104.05 110.4 C96.85 116.67, 87.45 121.73, 77.92 123.93 C68.39 126.13, 56.49 125.84, 46.87 123.59 C37.25 121.34, 27.52 116.82, 20.19 110.44 C12.85 104.07, 6.02 94.65, 2.86 85.32 C-0.31 75.98, -0.34 64.4, 1.23 54.43 C2.8 44.46, 5.7 33.94, 12.26 25.5 C18.82 17.07, 34.68 7.58, 40.61 3.85 C46.54 0.12, 47.44 2.17, 47.84 3.13 M85.59 4.75 C94.68 7.3, 103.75 14.97, 110.11 22.15 C116.47 29.34, 121.47 38.71, 123.74 47.87 C126.02 57.02, 125.95 67.28, 123.78 77.08 C121.62 86.88, 117.3 98.94, 110.77 106.67 C104.24 114.39, 93.66 120.1, 84.6 123.43 C75.54 126.75, 65.78 127.93, 56.4 126.6 C47.03 125.28, 36.48 121.13, 28.36 115.47 C20.23 109.8, 12.19 101.52, 7.68 92.61 C3.17 83.71, 1.51 71.8, 1.29 62.06 C1.07 52.32, 2.07 42.72, 6.36 34.18 C10.65 25.63, 19.02 16.2, 27.02 10.81 C35.02 5.43, 44.76 2.88, 54.36 1.87 C63.96 0.87, 79.69 4.09, 84.61 4.77 C89.53 5.46, 84.08 5.14, 83.87 6" stroke="#1e1e1e" stroke-width="2" fill="none"></path></g><g transform="translate(466.52271505259523 114.96703182555757) rotate(0 17.83399200439453 18.50077471385589)"><text x="17.83399200439453" y="0" font-family="Virgil, Segoe UI Emoji" font-size="29.60123954216941px" fill="#1e1e1e" text-anchor="middle" style="white-space: pre;" direction="ltr" dominant-baseline="text-before-edge">V0</text></g><g stroke-linecap="round"><g transform="translate(42.07908819617023 47.604876512005376) rotate(0 155.58336613622578 -5.703170557545263)"><path d="M-0.46 0.56 C4.19 -1.4, -16.56 -8.53, 28.96 -10.56 C74.48 -12.59, 225.69 -12.94, 272.64 -11.62 C319.6 -10.3, 304.24 -4.25, 310.72 -2.63 M1.5 -0.19 C5.96 -1.97, -16.65 -10.5, 28.4 -12.23 C73.45 -13.97, 224.76 -12.4, 271.81 -10.58 C318.87 -8.77, 304.33 -2.35, 310.73 -1.35" stroke="#1e1e1e" stroke-width="2" fill="none"></path></g></g><mask></mask><g transform="translate(115.69315588708287 10) rotate(0 81.15666022892833 10.278208174364408)"><text x="0" y="0" font-family="Virgil, Segoe UI Emoji" font-size="16.445133078983005px" fill="#1e1e1e" text-anchor="start" style="white-space: pre;" direction="ltr" dominant-baseline="text-before-edge">2 escritas (maioria)</text></g><g stroke-linecap="round"><g transform="translate(228.0747932739755 239.5937724808714) rotate(180.48589456853196 155.58336613622578 -5.703170557545263)"><path d="M-0.7 -0.43 C4.26 -2.23, -16.83 -10.03, 28.93 -11.89 C74.7 -13.76, 226.72 -13.04, 273.89 -11.62 C321.05 -10.2, 305.82 -4.93, 311.94 -3.37 M1.13 -1.7 C6.07 -3.25, -17.07 -9.13, 28.36 -10.61 C73.79 -12.09, 226.33 -11.93, 273.7 -10.57 C321.08 -9.22, 306.13 -4, 312.6 -2.49" stroke="#1e1e1e" stroke-width="2" fill="none"></path></g></g><mask></mask><g transform="translate(302.96653568791817 243.3733168974668) rotate(0 79.39703149134289 10.278208174364408)"><text x="0" y="0" font-family="Virgil, Segoe UI Emoji" font-size="16.445133078983px" fill="#1e1e1e" text-anchor="start" style="white-space: pre;" direction="ltr" dominant-baseline="text-before-edge">2 leituras (maioria)</text></g></svg>