<svg version="1.1" xmlns="http://www.w3.org/2000/svg" viewBox="0 0 541.2390663396013 303.93612848173274" width="541.2390663396013" height="303.93612848173274">
  <!-- svg-source:excalidraw -->
  
  <defs>
    <style class="style-fonts">
      @font-face {
        font-family: "Virgil";
        src: url("https://excalidraw.com/Virgil.woff2");
      }
      @font-face {
        font-family: "Cascadia";
        src: url("https://excalidraw.com/Cascadia.woff2");
      }
      @font-face {
        font-family: "Assistant";
        src: url("https://excalidraw.com/Assistant-Regular.woff2");
      }
    </style>
    
  </defs>
  <g stroke-linecap="round"><g transform="translate(106.48638883593867 77.17311948737648) rotate(0 24.551731635947135 0)"><path d="M0.13 -0.43 C8.34 -0.44, 41.41 -0.16, 49.62 -0.02 M-0.46 0.54 C7.69 0.62, 41.18 0.84, 49.46 0.68" stroke="#1e1e1e" stroke-width="2" fill="none"></path></g></g><mask></mask><g stroke-linecap="round"><g transform="translate(104.60326763243393 166.4812627645096) rotate(0 207.1351623535154 0)"><path d="M1.19 -1.18 C70.01 -1.08, 344.98 0.56, 413.92 0.92 M0.36 0.81 C68.91 0.56, 343.79 -0.44, 412.79 -0.73" stroke="#1e1e1e" stroke-width="2" fill="none"></path></g></g><mask></mask><g stroke-linecap="round"><g transform="translate(105.11786863243378 254.4644267645096) rotate(0 207.1351623535154 0)"><path d="M-0.7 -0.55 C68.14 -0.62, 344.85 -0.17, 413.94 0.02 M1.14 1.77 C69.71 1.88, 344.19 2.11, 412.82 1.56" stroke="#1e1e1e" stroke-width="2" fill="none"></path></g></g><mask></mask><g transform="translate(10.000000000000455 66.64031869538422) rotate(0 37.5 9.599999999999994)"><text x="0" y="15.45" font-family="Cascadia, Segoe UI Emoji" font-size="16px" fill="#1971c2" text-anchor="start" style="white-space: pre;" direction="ltr" dominant-baseline="alphabetic">S1 = {0}</text></g><g transform="translate(10 246.77612869538416) rotate(0 37.5 9.599999999999994)"><text x="0" y="15.45" font-family="Cascadia, Segoe UI Emoji" font-size="16px" fill="#2f9e44" text-anchor="start" style="white-space: pre;" direction="ltr" dominant-baseline="alphabetic">S3 = {1}</text></g><g transform="translate(10.000000000000455 155.69714069538423) rotate(0 37.5 9.599999999999994)"><text x="0" y="15.45" font-family="Cascadia, Segoe UI Emoji" font-size="16px" fill="#e03131" text-anchor="start" style="white-space: pre;" direction="ltr" dominant-baseline="alphabetic">S2 = {1}</text></g><g transform="translate(165.76506982307865 65.3264292085837) rotate(0 5.859375 12)"><text x="0" y="19.3125" font-family="Cascadia, Segoe UI Emoji" font-size="20px" fill="#e03131" text-anchor="start" style="white-space: pre;" direction="ltr" dominant-baseline="alphabetic">X</text></g><g stroke-linecap="round"><g transform="translate(120.34796352359899 79.5481528205629) rotate(0 20.612599690755133 42.95496622721353)"><path d="M0.79 -0.39 C7.72 13.83, 33.68 71.07, 40.43 85.33 M-0.25 -1.64 C7.16 12.74, 35.93 71.95, 42.72 86.56" stroke="#1971c2" stroke-width="2" fill="none"></path></g><g transform="translate(120.34796352359899 79.5481528205629) rotate(0 20.612599690755133 42.95496622721353)"><path d="M24.88 69.05 C27.9 71.21, 31.27 76.21, 42.72 86.56 M24.88 69.05 C28.46 74.04, 33.23 77.07, 42.72 86.56" stroke="#1971c2" stroke-width="2" fill="none"></path></g><g transform="translate(120.34796352359899 79.5481528205629) rotate(0 20.612599690755133 42.95496622721353)"><path d="M40.32 61.68 C40.15 65.46, 40.33 71.98, 42.72 86.56 M40.32 61.68 C40.33 68.49, 41.47 73.25, 42.72 86.56" stroke="#1971c2" stroke-width="2" fill="none"></path></g></g><mask></mask><g stroke-linecap="round"><g transform="translate(120.41862814949991 79.85585530078117) rotate(0 16.432454427083258 59.67566935221353)"><path d="M-1.1 -0.39 C4.45 19.3, 27.68 99.31, 33.49 119.26" stroke="#1971c2" stroke-width="2.5" fill="none" stroke-dasharray="8 10"></path></g><g transform="translate(120.41862814949991 79.85585530078117) rotate(0 16.432454427083258 59.67566935221353)"><path d="M18.72 99.09 C22.88 106.56, 27.99 113.24, 33.49 119.26" stroke="#1971c2" stroke-width="2.5" fill="none"></path></g><g transform="translate(120.41862814949991 79.85585530078117) rotate(0 16.432454427083258 59.67566935221353)"><path d="M35.15 94.32 C34.21 103.13, 34.19 111.31, 33.49 119.26" stroke="#1971c2" stroke-width="2.5" fill="none"></path></g></g><mask></mask><g stroke-linecap="round"><g transform="translate(115.80587587085438 165.1891886341145) rotate(0 27.67574055989553 -33.44144694010416)"><path d="M-0.99 0.42 C8.29 -10.83, 47.17 -55.39, 56.45 -66.69" stroke="#e03131" stroke-width="2.5" fill="none" stroke-dasharray="8 10"></path></g><g transform="translate(115.80587587085438 165.1891886341145) rotate(0 27.67574055989553 -33.44144694010416)"><path d="M47.76 -43.26 C51.47 -49.87, 54.24 -61.31, 56.45 -66.69" stroke="#e03131" stroke-width="2.5" fill="none"></path></g><g transform="translate(115.80587587085438 165.1891886341145) rotate(0 27.67574055989553 -33.44144694010416)"><path d="M34.73 -54.33 C43.25 -56.81, 50.76 -64.22, 56.45 -66.69" stroke="#e03131" stroke-width="2.5" fill="none"></path></g></g><mask></mask><g stroke-linecap="round"><g transform="translate(117.24744488126998 167.4954833932291) rotate(0 23.927937825520758 43.24325561523435)"><path d="M0.21 -0.5 C8.01 13.63, 39.04 71.07, 46.86 85.51 M-1.14 -1.81 C7.01 12.38, 40.59 71.69, 49.05 86.53" stroke="#e03131" stroke-width="2" fill="none"></path></g><g transform="translate(117.24744488126998 167.4954833932291) rotate(0 23.927937825520758 43.24325561523435)"><path d="M30.01 70.32 C35.14 73.62, 40.2 79.03, 49.05 86.53 M30.01 70.32 C34.12 73.74, 40.55 78.24, 49.05 86.53" stroke="#e03131" stroke-width="2" fill="none"></path></g><g transform="translate(117.24744488126998 167.4954833932291) rotate(0 23.927937825520758 43.24325561523435)"><path d="M44.88 61.88 C45.48 67.8, 45.96 75.82, 49.05 86.53 M44.88 61.88 C44.95 67.54, 47.4 74.31, 49.05 86.53" stroke="#e03131" stroke-width="2" fill="none"></path></g></g><mask></mask><g stroke-linecap="round"><g transform="translate(299.7222799646029 252.9831350546874) rotate(0 39.846497228931185 -41.82499168069859)"><path d="M-0.35 -0.54 C13.09 -14.65, 67.12 -70.48, 80.6 -84.51 M1.66 1.79 C15.03 -12.2, 67.03 -69.13, 80.13 -83.42" stroke="#2f9e44" stroke-width="2" fill="none"></path></g><g transform="translate(299.7222799646029 252.9831350546874) rotate(0 39.846497228931185 -41.82499168069859)"><path d="M70.57 -60.32 C72.48 -65.63, 74.79 -72.55, 80.13 -83.42 M70.57 -60.32 C73.37 -64.16, 74.64 -70.39, 80.13 -83.42" stroke="#2f9e44" stroke-width="2" fill="none"></path></g><g transform="translate(299.7222799646029 252.9831350546874) rotate(0 39.846497228931185 -41.82499168069859)"><path d="M57.96 -71.87 C63.62 -73.72, 69.68 -77.21, 80.13 -83.42 M57.96 -71.87 C63.46 -73.2, 67.39 -76.99, 80.13 -83.42" stroke="#2f9e44" stroke-width="2" fill="none"></path></g></g><mask></mask><g stroke-linecap="round"><g transform="translate(124.7429689698115 256.86486815885405) rotate(0 40.07206217447924 -67.45946248372394)"><path d="M1 0.33 C14.66 -22.08, 67.99 -112.67, 81.29 -135.17" stroke="#2f9e44" stroke-width="2.5" fill="none" stroke-dasharray="8 10"></path></g><g transform="translate(124.7429689698115 256.86486815885405) rotate(0 40.07206217447924 -67.45946248372394)"><path d="M76.72 -110.6 C78.54 -114.81, 78.71 -121.67, 81.29 -135.17" stroke="#2f9e44" stroke-width="2.5" fill="none"></path></g><g transform="translate(124.7429689698115 256.86486815885405) rotate(0 40.07206217447924 -67.45946248372394)"><path d="M61.99 -119.29 C67.41 -121.47, 71.23 -126.18, 81.29 -135.17" stroke="#2f9e44" stroke-width="2.5" fill="none"></path></g></g><mask></mask><g stroke-linecap="round"><g transform="translate(272.8330568604356 58.5225117949218) rotate(0 0 116.46847025553384)"><path d="M0 -1.06 C-0.29 38.07, -0.74 194.46, -0.84 233.64" stroke="#1e1e1e" stroke-width="2.5" fill="none" stroke-dasharray="8 10"></path></g></g><mask></mask><g transform="translate(234.2905229802268 10) rotate(0 37.5 19.19999999999999)"><text x="37.5" y="15.45" font-family="Cascadia, Segoe UI Emoji" font-size="16px" fill="#1e1e1e" text-anchor="middle" style="white-space: pre;" direction="ltr" dominant-baseline="alphabetic">Fim da</text><text x="37.5" y="34.65" font-family="Cascadia, Segoe UI Emoji" font-size="16px" fill="#1e1e1e" text-anchor="middle" style="white-space: pre;" direction="ltr" dominant-baseline="alphabetic">1ª ronda</text></g><g transform="translate(395.1323607666859 258.0758001419269) rotate(0 23.4375 9.600000000000023)"><text x="23.4375" y="15.45" font-family="Cascadia, Segoe UI Emoji" font-size="16px" fill="#2f9e44" text-anchor="middle" style="white-space: pre;" direction="ltr" dominant-baseline="alphabetic">{0,1}</text></g><g stroke-linecap="round"><g transform="translate(446.3826174073097 58.5225117949218) rotate(0 0.2882893880209849 117.86489359537754)"><path d="M-0.74 0.29 C-0.73 39.35, -0.63 196.17, -0.45 235.41" stroke="#1e1e1e" stroke-width="2.5" fill="none" stroke-dasharray="8 10"></path></g></g><mask></mask><g transform="translate(407.8400835271009 10) rotate(0 37.5 19.19999999999999)"><text x="37.5" y="15.45" font-family="Cascadia, Segoe UI Emoji" font-size="16px" fill="#1e1e1e" text-anchor="middle" style="white-space: pre;" direction="ltr" dominant-baseline="alphabetic">Fim da</text><text x="37.5" y="34.65" font-family="Cascadia, Segoe UI Emoji" font-size="16px" fill="#1e1e1e" text-anchor="middle" style="white-space: pre;" direction="ltr" dominant-baseline="alphabetic">2ª ronda</text></g><g transform="translate(238.97802351147675 258.07580034895824) rotate(0 14.0625 9.600000000000023)"><text x="14.0625" y="15.45" font-family="Cascadia, Segoe UI Emoji" font-size="16px" fill="#2f9e44" text-anchor="middle" style="white-space: pre;" direction="ltr" dominant-baseline="alphabetic">{1}</text></g><g transform="translate(220.22802361564436 167.74445684114573) rotate(0 23.4375 9.599999999999994)"><text x="23.4375" y="15.45" font-family="Cascadia, Segoe UI Emoji" font-size="16px" fill="#e03131" text-anchor="middle" style="white-space: pre;" direction="ltr" dominant-baseline="alphabetic">{0,1}</text></g><g transform="translate(395.1323606156443 170.24117284114578) rotate(0 23.4375 9.599999999999994)"><text x="23.4375" y="15.45" font-family="Cascadia, Segoe UI Emoji" font-size="16px" fill="#e03131" text-anchor="middle" style="white-space: pre;" direction="ltr" dominant-baseline="alphabetic">{0,1}</text></g><g stroke-linecap="round"><g transform="translate(291.31843210635725 165.29714078034988) rotate(0 27.675740559895303 -33.44144694010416)"><path d="M0.63 -0.23 C9.98 -11.4, 46.04 -56.91, 55.27 -67.85" stroke="#e03131" stroke-width="2.5" fill="none" stroke-dasharray="8 10"></path></g><g transform="translate(291.31843210635725 165.29714078034988) rotate(0 27.675740559895303 -33.44144694010416)"><path d="M47.07 -44.23 C48.74 -49.87, 49.42 -54.08, 55.27 -67.85" stroke="#e03131" stroke-width="2.5" fill="none"></path></g><g transform="translate(291.31843210635725 165.29714078034988) rotate(0 27.675740559895303 -33.44144694010416)"><path d="M33.81 -55.03 C38.48 -58.24, 42.22 -59.95, 55.27 -67.85" stroke="#e03131" stroke-width="2.5" fill="none"></path></g></g><mask></mask><g stroke-linecap="round"><g transform="translate(298.8752287682787 253.90705814015723) rotate(0 40.07206217447947 -67.45946248372394)"><path d="M0.85 -0.82 C14.32 -22.96, 66.98 -111.65, 80.15 -133.96" stroke="#2f9e44" stroke-width="2.5" fill="none" stroke-dasharray="8 10"></path></g><g transform="translate(298.8752287682787 253.90705814015723) rotate(0 40.07206217447947 -67.45946248372394)"><path d="M75.53 -109.39 C75.52 -115.41, 79.61 -121.87, 80.15 -133.96" stroke="#2f9e44" stroke-width="2.5" fill="none"></path></g><g transform="translate(298.8752287682787 253.90705814015723) rotate(0 40.07206217447947 -67.45946248372394)"><path d="M60.82 -118.11 C64.32 -122.1, 72 -126.43, 80.15 -133.96" stroke="#2f9e44" stroke-width="2.5" fill="none"></path></g></g><mask></mask><g stroke-linecap="round"><g transform="translate(291.95130488127006 166.34699739322906) rotate(0 23.92793782552053 43.24325561523435)"><path d="M0.91 -0.75 C8.5 13.58, 38.94 71.01, 46.7 85.64 M-0.07 1.47 C7.76 15.96, 41.04 72.82, 48.8 86.73" stroke="#e03131" stroke-width="2" fill="none"></path></g><g transform="translate(291.95130488127006 166.34699739322906) rotate(0 23.92793782552053 43.24325561523435)"><path d="M29.7 70.6 C36.04 74.98, 43.52 82.72, 48.8 86.73 M29.7 70.6 C35.38 76.52, 42.93 81.28, 48.8 86.73" stroke="#e03131" stroke-width="2" fill="none"></path></g><g transform="translate(291.95130488127006 166.34699739322906) rotate(0 23.92793782552053 43.24325561523435)"><path d="M44.54 62.09 C44.92 69.99, 46.46 81.13, 48.8 86.73 M44.54 62.09 C45.12 70.96, 47.59 78.63, 48.8 86.73" stroke="#e03131" stroke-width="2" fill="none"></path></g></g><mask></mask><g stroke-linecap="round"><g transform="translate(122.43665386564498 256.28828938281237) rotate(0 40.13478661695217 -43.842997051792366)"><path d="M0.13 0.19 C13.28 -14.56, 65.93 -73.61, 79.27 -88.2 M-1.27 -0.75 C12.23 -15.37, 68.03 -72.75, 81.46 -86.93" stroke="#2f9e44" stroke-width="2" fill="none"></path></g><g transform="translate(122.43665386564498 256.28828938281237) rotate(0 40.13478661695217 -43.842997051792366)"><path d="M71.35 -64.07 C74.93 -73.23, 77.07 -79.24, 81.46 -86.93 M71.35 -64.07 C75.45 -70.83, 78.59 -78.25, 81.46 -86.93" stroke="#2f9e44" stroke-width="2" fill="none"></path></g><g transform="translate(122.43665386564498 256.28828938281237) rotate(0 40.13478661695217 -43.842997051792366)"><path d="M59.02 -75.92 C66.67 -81.21, 72.85 -83.34, 81.46 -86.93 M59.02 -75.92 C67.16 -78.74, 74.32 -82.29, 81.46 -86.93" stroke="#2f9e44" stroke-width="2" fill="none"></path></g></g><mask></mask><g transform="translate(456.2390663396013 170.24117197265616) rotate(0 37.5 9.599999999999994)"><text x="37.5" y="15.45" font-family="Cascadia, Segoe UI Emoji" font-size="16px" fill="#e03131" text-anchor="middle" style="white-space: pre;" direction="ltr" dominant-baseline="alphabetic">decide 0</text></g><g transform="translate(456.2390663396013 258.07579997265617) rotate(0 37.5 9.600000000000023)"><text x="37.5" y="15.45" font-family="Cascadia, Segoe UI Emoji" font-size="16px" fill="#2f9e44" text-anchor="middle" style="white-space: pre;" direction="ltr" dominant-baseline="alphabetic">decide 0</text></g></svg>