<svg version="1.1" xmlns="http://www.w3.org/2000/svg" viewBox="0 0 946.418272920635 363.1015889666204" width="946.418272920635" height="363.1015889666204">
  <!-- svg-source:excalidraw -->
  
  <defs>
    <style class="style-fonts">
      @font-face {
        font-family: "Virgil";
        src: url("https://excalidraw.com/Virgil.woff2");
      }
      @font-face {
        font-family: "Cascadia";
        src: url("https://excalidraw.com/Cascadia.woff2");
      }
      @font-face {
        font-family: "Assistant";
        src: url("https://excalidraw.com/Assistant-Regular.woff2");
      }
    </style>
    
  </defs>
  <g stroke-linecap="round" transform="translate(593.3166843756444 10.00000042163012) rotate(0 171.5507942724953 171.55079427249515)"><path d="M7.86 8.16 C7.86 8.16, 7.86 8.16, 7.86 8.16 M7.86 8.16 C7.86 8.16, 7.86 8.16, 7.86 8.16 M2.75 26.24 C11.33 19.17, 17.56 8.7, 21.12 5.11 M2.75 26.24 C7.06 21.14, 12.04 16.39, 21.12 5.11 M2.88 38.28 C11.96 25.47, 23.02 13.39, 34.37 2.05 M2.88 38.28 C12.94 26.16, 22.29 16.14, 34.37 2.05 M2.36 51.07 C11.46 39.9, 23.11 28.75, 45 2.02 M2.36 51.07 C19.48 32.11, 35.93 13.52, 45 2.02 M2.49 63.11 C21.06 42.47, 37.9 22.57, 55.63 1.98 M2.49 63.11 C23.49 40.45, 42.93 16.11, 55.63 1.98 M2.62 75.16 C21.22 55.94, 36.67 38.29, 66.26 1.95 M2.62 75.16 C19.9 52.92, 38.77 31.54, 66.26 1.95 M2.76 87.2 C26.62 58.45, 46.38 35.98, 76.89 1.91 M2.76 87.2 C22.26 62.65, 44.56 39.57, 76.89 1.91 M2.23 99.99 C22.66 75.18, 47.59 48.96, 87.52 1.88 M2.23 99.99 C19.39 78.61, 36.64 58.21, 87.52 1.88 M2.37 112.03 C38.21 68.64, 71.65 28.15, 98.15 1.85 M2.37 112.03 C28.89 82.08, 54.22 53.21, 98.15 1.85 M2.5 124.07 C22.85 97.68, 46.55 71.79, 108.78 1.81 M2.5 124.07 C41.85 78.71, 80.91 34.82, 108.78 1.81 M2.63 136.11 C33.94 100.73, 65.68 62.87, 119.41 1.78 M2.63 136.11 C39.11 93.58, 75.88 52.26, 119.41 1.78 M2.11 148.91 C31.81 113.22, 63.84 76.51, 130.04 1.74 M2.11 148.91 C31.49 112.5, 62.31 76.51, 130.04 1.74 M2.24 160.95 C46.42 110.29, 89.46 60.63, 140.67 1.71 M2.24 160.95 C56.04 98.3, 110 35.38, 140.67 1.71 M2.38 172.99 C49.83 123.12, 94.85 68.74, 150.65 2.43 M2.38 172.99 C44.47 124.41, 87.5 74.78, 150.65 2.43 M2.51 185.03 C47.64 133.03, 92.45 81.81, 161.28 2.39 M2.51 185.03 C65.98 112.42, 128.54 40.08, 161.28 2.39 M2.64 197.07 C43.42 149.67, 85.98 103.01, 171.91 2.36 M2.64 197.07 C41.85 154.06, 79.03 112.1, 171.91 2.36 M2.12 209.87 C56.18 146.78, 112.48 80.59, 182.54 2.32 M2.12 209.87 C43.75 162.7, 84.05 117.33, 182.54 2.32 M2.25 221.91 C61.94 157.41, 119.65 89.88, 193.17 2.29 M2.25 221.91 C62.02 155.67, 119.8 89.19, 193.17 2.29 M2.39 233.95 C46.4 184.2, 90.41 133.38, 203.8 2.26 M2.39 233.95 C62.44 167.11, 120.03 100.1, 203.8 2.26 M2.52 245.99 C60.3 181.28, 116.81 115.66, 214.43 2.22 M2.52 245.99 C56.53 181.56, 112.15 117.18, 214.43 2.22 M2 258.79 C82.16 162.6, 164.26 70.32, 225.06 2.19 M2 258.79 C49.64 203.95, 97.35 147.54, 225.06 2.19 M2.13 270.83 C78.9 182.48, 156.17 92.93, 235.69 2.15 M2.13 270.83 C93.72 164.35, 185.12 59.33, 235.69 2.15 M2.26 282.87 C100.27 172.74, 194.4 63.49, 246.32 2.12 M2.26 282.87 C85.83 188.73, 169.77 92.64, 246.32 2.12 M2.4 294.91 C101.63 178.62, 203.16 62.07, 256.95 2.08 M2.4 294.91 C66.51 222.99, 130.19 149.57, 256.95 2.08 M1.87 307.71 C80.88 216.43, 158.97 127.1, 267.58 2.05 M1.87 307.71 C57.36 246.25, 112.56 183.99, 267.58 2.05 M5.29 315.97 C105.84 197.66, 210.27 78.27, 278.21 2.01 M5.29 315.97 C97.52 211.49, 189.97 105.16, 278.21 2.01 M5.42 328.01 C100.33 218.23, 196.3 107.83, 288.84 1.98 M5.42 328.01 C80.68 241.67, 155.84 155.79, 288.84 1.98 M8.83 336.28 C97.07 232.41, 185.97 131.76, 299.47 1.94 M8.83 336.28 C77.17 256, 146.17 176.87, 299.47 1.94 M16.18 340.02 C117.25 223.15, 217.52 108.45, 311.41 0.4 M16.18 340.02 C129.8 208.88, 244.18 76.64, 311.41 0.4 M22.22 345.27 C90.83 266.65, 159.52 186.48, 320.73 1.88 M22.22 345.27 C107.13 249.48, 189.95 153.07, 320.73 1.88 M33.51 344.48 C95.56 274.85, 155.21 204.47, 328.73 4.86 M33.51 344.48 C135.72 225.35, 239.4 105.89, 328.73 4.86 M44.14 344.44 C138.7 237.48, 230.69 131, 336.08 8.6 M44.14 344.44 C121.76 257.23, 198.63 168.36, 336.08 8.6 M54.77 344.41 C161.46 221.53, 268.73 97.58, 340.15 16.11 M54.77 344.41 C152.68 230.23, 251.81 116.75, 340.15 16.11 M65.4 344.38 C156.65 238.79, 249.65 132.01, 345.53 22.11 M65.4 344.38 C159.39 234.29, 255.68 124.09, 345.53 22.11 M76.03 344.34 C178.58 227.95, 280.27 110.44, 345.67 34.16 M76.03 344.34 C146.67 262.76, 218.46 179.71, 345.67 34.16 M86.66 344.31 C183.08 237.1, 276 128.04, 345.8 46.2 M86.66 344.31 C171.92 243.08, 259.24 144.1, 345.8 46.2 M97.29 344.27 C168.77 262.46, 242.28 177.53, 345.93 58.24 M97.29 344.27 C154.25 277.96, 211.52 213.09, 345.93 58.24 M107.92 344.24 C181.66 257.66, 258.38 173.33, 345.41 71.03 M107.92 344.24 C159.16 283.17, 211.53 223.12, 345.41 71.03 M118.55 344.2 C176.88 274.2, 235.69 207.28, 345.54 83.07 M118.55 344.2 C173.61 279.17, 229.55 215.18, 345.54 83.07 M129.18 344.17 C174.22 291.97, 218.37 240.05, 345.68 95.11 M129.18 344.17 C182.44 286.34, 233.83 226.87, 345.68 95.11 M139.81 344.13 C183.09 296.39, 224.64 245.64, 345.81 107.16 M139.81 344.13 C214.4 258.18, 289.88 172.57, 345.81 107.16 M150.44 344.1 C205.51 285.23, 255.39 225.11, 345.94 119.2 M150.44 344.1 C228.17 257.86, 303.48 170.35, 345.94 119.2 M161.07 344.07 C213.55 281.59, 268.44 219.64, 345.42 131.99 M161.07 344.07 C219.83 277.04, 277.1 210.39, 345.42 131.99 M171.04 344.79 C212.81 297.49, 254.01 249.07, 345.55 144.03 M171.04 344.79 C228.68 278.21, 285.71 212, 345.55 144.03 M181.67 344.75 C222.56 293.98, 266.49 246.55, 345.69 156.07 M181.67 344.75 C221.95 296.42, 264.01 248.19, 345.69 156.07 M192.3 344.72 C233.62 294.21, 278.73 245.03, 345.82 168.11 M192.3 344.72 C238.45 293.1, 282.15 242.49, 345.82 168.11 M202.93 344.68 C247.64 292.16, 295.37 238.51, 345.95 180.16 M202.93 344.68 C237.74 303.31, 273.63 261.62, 345.95 180.16 M213.56 344.65 C246.95 302.12, 284.17 262.56, 345.43 192.95 M213.56 344.65 C259.01 290.9, 303.71 238.36, 345.43 192.95 M224.19 344.61 C252.5 310.13, 282.84 279.59, 345.56 204.99 M224.19 344.61 C271.67 291.4, 318.92 237.42, 345.56 204.99 M234.82 344.58 C267.66 308.89, 299.91 270.18, 345.7 217.03 M234.82 344.58 C274.04 300.11, 311.75 256.4, 345.7 217.03 M245.45 344.54 C269.2 315.85, 291.38 288.86, 345.83 229.07 M245.45 344.54 C269.17 318.05, 292.89 289.91, 345.83 229.07 M256.08 344.51 C284.51 311.26, 315.05 274.36, 345.31 241.87 M256.08 344.51 C291.2 302.51, 327.26 262.38, 345.31 241.87 M266.71 344.48 C288.71 315.53, 313.35 286.46, 345.44 253.91 M266.71 344.48 C282.19 327.93, 298.6 308.05, 345.44 253.91 M277.34 344.44 C291.45 326.37, 309.2 307.28, 345.57 265.95 M277.34 344.44 C302.91 316.84, 326.8 287.39, 345.57 265.95 M287.97 344.41 C307.63 324.22, 324.7 300.29, 345.71 277.99 M287.97 344.41 C309.58 319.38, 333.77 292.36, 345.71 277.99 M298.6 344.37 C312.43 326.68, 328.11 310.08, 345.84 290.03 M298.6 344.37 C315.3 324.47, 333.17 305.35, 345.84 290.03 M309.23 344.34 C320.78 332.61, 333.78 317.11, 345.32 302.83 M309.23 344.34 C320.63 331.53, 332.67 316.68, 345.32 302.83 M316.58 348.08 C326.13 339.02, 335.42 329.44, 346.1 314.11 M316.58 348.08 C325.75 337.48, 334.18 327.44, 346.1 314.11" stroke="#ffec99" stroke-width="1" fill="none"></path><path d="M32 0 C96.52 -0.9, 163.18 0.43, 311.1 0 M32 0 C120.13 2.12, 207.08 2.57, 311.1 0 M311.1 0 C334 -1.07, 344.81 12.4, 343.1 32 M311.1 0 C332.71 -1.14, 342.51 11.48, 343.1 32 M343.1 32 C345.26 134.82, 345.72 234.73, 343.1 311.1 M343.1 32 C345.4 108.88, 344.56 185.1, 343.1 311.1 M343.1 311.1 C344.65 333.66, 332.38 344.25, 311.1 343.1 M343.1 311.1 C342.54 331.82, 331.51 343.35, 311.1 343.1 M311.1 343.1 C246.77 341.22, 181.06 343.4, 32 343.1 M311.1 343.1 C199.77 344.86, 87.47 344.32, 32 343.1 M32 343.1 C11.68 342.56, 0.7 333.01, 0 311.1 M32 343.1 C8.54 343.62, -0.08 331.45, 0 311.1 M0 311.1 C2.08 219.29, 0.08 128.51, 0 32 M0 311.1 C0.56 227.73, 0.49 144.1, 0 32 M0 32 C0.68 8.93, 9.39 -1.98, 32 0 M0 32 C0.66 11.44, 12.4 -2.06, 32 0" stroke="#1e1e1e" stroke-width="2" fill="none"></path></g><g stroke-linecap="round" transform="translate(10.413420000000315 10.000000000000028) rotate(0 68.41908510574581 68.41908510574584)"><path d="M15.15 26.42 C15.15 26.42, 15.15 26.42, 15.15 26.42 M15.15 26.42 C15.15 26.42, 15.15 26.42, 15.15 26.42 M2.17 53.56 C10.22 44.36, 22.23 30.95, 42.18 7.52 M2.17 53.56 C11.63 42.66, 21.05 32, 42.18 7.52 M2.3 65.6 C16.12 49.5, 33.06 30.38, 55.44 4.47 M2.3 65.6 C19.34 45.94, 35.95 26.63, 55.44 4.47 M2.43 77.64 C29.4 47.2, 54.9 17.97, 69.35 0.66 M2.43 77.64 C17.46 60.18, 30.83 44.66, 69.35 0.66 M4.53 87.42 C25.26 65.83, 43.39 39.23, 78.01 2.89 M4.53 87.42 C19.06 69.93, 33.96 52.03, 78.01 2.89 M7.95 95.68 C35.44 63.17, 64.57 32.3, 87.33 4.36 M7.95 95.68 C27.78 72.03, 48.4 48.07, 87.33 4.36 M11.36 103.95 C30.9 81.87, 50.18 59.96, 96.65 5.84 M11.36 103.95 C34.62 78.41, 57.01 51.73, 96.65 5.84 M15.43 111.46 C38.91 85.61, 63.03 55.02, 103.34 10.33 M15.43 111.46 C49.31 73.94, 82.91 33.66, 103.34 10.33 M21.47 116.71 C54.97 81.8, 85.64 41.58, 109.38 15.58 M21.47 116.71 C48.15 86.55, 73.05 55.96, 109.38 15.58 M28.16 121.21 C53.66 89.47, 79.03 62.46, 115.42 20.83 M28.16 121.21 C57.6 86.64, 88.14 52.22, 115.42 20.83 M34.2 126.45 C51.92 102.6, 73.15 80.59, 121.45 26.08 M34.2 126.45 C50.49 107.12, 68.69 85.67, 121.45 26.08 M41.55 130.19 C65.84 101.04, 92.7 70.48, 124.87 34.35 M41.55 130.19 C73.64 93.11, 106.95 56.53, 124.87 34.35 M50.21 132.42 C68.55 108.79, 90.81 86.44, 128.94 41.86 M50.21 132.42 C74.89 104.02, 100.03 74.76, 128.94 41.86 M58.87 134.65 C72.27 114.88, 91.66 98.47, 132.35 50.12 M58.87 134.65 C80.56 109.45, 100.61 86.08, 132.35 50.12 M67.53 136.88 C95.87 107.48, 122.43 76.83, 134.45 59.9 M67.53 136.88 C83.66 117.85, 101.67 96.86, 134.45 59.9 M80.79 133.83 C101.66 110.97, 124.79 84.35, 135.24 71.19 M80.79 133.83 C97.81 115.59, 113.51 97.86, 135.24 71.19 M93.39 131.53 C105.76 115.36, 120.88 97.34, 135.37 83.23 M93.39 131.53 C106.41 116.75, 118.5 103.31, 135.37 83.23" stroke="#a5d8ff" stroke-width="1" fill="none"></path><path d="M97.59 6.02 C106.4 9.14, 115.04 18.12, 121.18 26.05 C127.32 33.98, 132.08 44.06, 134.41 53.6 C136.74 63.14, 137.38 73.69, 135.16 83.31 C132.95 92.92, 127.4 103.49, 121.12 111.31 C114.84 119.13, 106.47 125.95, 97.49 130.22 C88.51 134.49, 77.18 137.1, 67.23 136.94 C57.27 136.77, 46.53 133.6, 37.76 129.23 C28.99 124.86, 20.58 118.52, 14.6 110.72 C8.61 102.92, 3.94 92.08, 1.84 82.43 C-0.26 72.77, -0.23 62.14, 2 52.8 C4.22 43.46, 8.88 33.94, 15.19 26.38 C21.5 18.82, 30.89 11.73, 39.87 7.45 C48.85 3.16, 59.1 0.58, 69.06 0.67 C79.01 0.77, 94.12 6.47, 99.59 7.99 C105.07 9.52, 102.26 8.86, 101.9 9.84 M64.88 -0.76 C74.53 -2.34, 87.28 1.81, 96.74 5.82 C106.19 9.83, 115.33 15.74, 121.62 23.31 C127.92 30.88, 132.43 41.34, 134.51 51.25 C136.6 61.15, 136.02 73.01, 134.12 82.72 C132.22 92.42, 128.74 101.81, 123.11 109.47 C117.48 117.13, 108.85 124.24, 100.33 128.69 C91.82 133.14, 82.07 136, 72.01 136.17 C61.95 136.34, 49.45 133.49, 39.99 129.69 C30.54 125.89, 21.45 120.82, 15.29 113.37 C9.13 105.93, 5.38 94.83, 3.04 85.03 C0.71 75.23, -0.47 64.16, 1.27 54.56 C3.01 44.97, 7.64 35.28, 13.47 27.46 C19.29 19.65, 27.32 12.41, 36.23 7.69 C45.14 2.97, 62.06 0.16, 66.93 -0.83 C71.79 -1.83, 65.47 0.56, 65.4 1.72" stroke="#1e1e1e" stroke-width="2" fill="none"></path></g><g transform="translate(69.01143877973755 64.95628534537039) rotate(0 9.94146728515625 13.583200719523063)"><text x="9.94146728515625" y="0" font-family="Virgil, Segoe UI Emoji" font-size="21.733121151236922px" fill="#1e1e1e" text-anchor="middle" style="white-space: pre;" direction="ltr" dominant-baseline="text-before-edge">C1</text></g><g stroke-linecap="round" transform="translate(281.4737363794725 10.000000402465247) rotate(0 68.4190848538201 68.41908485382001)"><path d="M7.86 8.16 C7.86 8.16, 7.86 8.16, 7.86 8.16 M7.86 8.16 C7.86 8.16, 7.86 8.16, 7.86 8.16 M1.43 27.75 C6.61 21.26, 14.95 12.02, 24.4 1.33 M1.43 27.75 C9.16 19.2, 16.33 10.76, 24.4 1.33 M0.91 40.54 C15.26 23.95, 28.48 8.86, 36.34 -0.21 M0.91 40.54 C9.02 30.91, 15.75 23.04, 36.34 -0.21 M1.04 52.58 C14.23 39.86, 24.57 22.22, 46.31 0.51 M1.04 52.58 C9.77 42.02, 18.88 30.78, 46.31 0.51 M1.18 64.62 C20.21 41.89, 40.96 20.66, 56.94 0.47 M1.18 64.62 C15.03 48.1, 29.51 31.2, 56.94 0.47 M0.65 77.42 C16.25 60.11, 31.4 42.95, 67.57 0.44 M0.65 77.42 C19.01 57.5, 36.53 36.42, 67.57 0.44 M0.79 89.46 C21.34 66.93, 42.62 39.61, 78.2 0.41 M0.79 89.46 C30.55 56.51, 60.14 20.84, 78.2 0.41 M0.92 101.5 C34.43 66.59, 65.1 26.37, 88.83 0.37 M0.92 101.5 C27.61 71.34, 52.51 40.75, 88.83 0.37 M1.71 112.79 C30.25 77.4, 58.77 46.76, 99.46 0.34 M1.71 112.79 C34.68 73.98, 68.85 35.39, 99.46 0.34 M3.81 122.56 C25.69 93.61, 51.22 66.66, 110.09 0.3 M3.81 122.56 C23.86 98.81, 45.9 72.95, 110.09 0.3 M9.19 128.57 C41.64 89.85, 76.87 49.66, 118.76 2.53 M9.19 128.57 C51.57 79.81, 94.88 31.71, 118.76 2.53 M15.89 133.06 C42.14 100.4, 72.42 68.82, 126.1 6.27 M15.89 133.06 C50.52 93.01, 85.54 52.39, 126.1 6.27 M23.89 136.05 C44.33 107.52, 71.08 82.63, 131.49 12.27 M23.89 136.05 C55.46 99.56, 85.07 65.21, 131.49 12.27 M33.87 136.77 C76.21 91.51, 116.47 45.08, 135.56 19.79 M33.87 136.77 C58.8 107.51, 85.96 76, 135.56 19.79 M44.5 136.73 C80.1 96.7, 118.28 52.76, 137 30.32 M44.5 136.73 C72.87 105.77, 99.74 75.2, 137 30.32 M55.13 136.7 C80.96 104.77, 109.56 71.24, 136.48 43.11 M55.13 136.7 C79.76 108.85, 103.47 82.04, 136.48 43.11 M65.76 136.66 C85.68 115.08, 105.47 90.02, 136.61 55.15 M65.76 136.66 C83.16 117.08, 99.03 98.88, 136.61 55.15 M76.39 136.63 C91.16 117.86, 109.12 100.85, 136.74 67.19 M76.39 136.63 C97.97 112.44, 121.1 86.95, 136.74 67.19 M87.02 136.59 C106.06 114.83, 123.72 91.71, 136.88 79.24 M87.02 136.59 C106.28 114.09, 125.62 93.92, 136.88 79.24 M96.99 137.31 C107.06 124.63, 117.74 110.64, 136.35 92.03 M96.99 137.31 C105.53 125.61, 115.77 115.85, 136.35 92.03 M108.28 136.52 C117.14 127.49, 124.46 120.25, 136.49 104.07 M108.28 136.52 C118.83 126, 128.45 113.64, 136.49 104.07 M120.88 134.23 C124.89 128.31, 132.07 122.84, 135.31 117.62 M120.88 134.23 C126.8 128.42, 133.08 121.5, 135.31 117.62" stroke="#b2f2bb" stroke-width="1" fill="none"></path><path d="M32 0 C58.74 -2.2, 86.99 -0.39, 104.84 0 M32 0 C47.32 -0.64, 64.02 -0.35, 104.84 0 M104.84 0 C126.14 -1.6, 137.04 9.43, 136.84 32 M104.84 0 C124.64 -0.2, 136.72 11.15, 136.84 32 M136.84 32 C137.01 49.64, 138.54 65.26, 136.84 104.84 M136.84 32 C137.58 56.62, 137.4 79.84, 136.84 104.84 M136.84 104.84 C136.97 126.03, 124.96 138.74, 104.84 136.84 M136.84 104.84 C135.07 124.95, 127.39 136.9, 104.84 136.84 M104.84 136.84 C77.5 134.83, 51.06 136.48, 32 136.84 M104.84 136.84 C82.43 136.27, 57.81 135.78, 32 136.84 M32 136.84 C9.12 137.45, 1.01 124.93, 0 104.84 M32 136.84 C10.74 135.36, -0.01 125.89, 0 104.84 M0 104.84 C-1.09 83.88, 0.49 65.01, 0 32 M0 104.84 C0.42 85.9, 0.86 67.5, 0 32 M0 32 C1.74 11.47, 12.62 1.6, 32 0 M0 32 C0.66 11.59, 10.07 2.12, 32 0" stroke="#1e1e1e" stroke-width="2" fill="none"></path></g><g stroke-linecap="round"><g transform="translate(165.60019699690974 80.23017853501565) rotate(0 51.853436524614835 0)"><path d="M-1.11 -1.17 C16.08 -1.16, 86.21 -1.18, 103.69 -0.96 M0.51 0.83 C17.48 1.05, 85.65 -0.04, 102.73 0.08" stroke="#1e1e1e" stroke-width="2" fill="none"></path></g><g transform="translate(165.60019699690974 80.23017853501565) rotate(0 51.853436524614835 0)"><path d="M22.39 -9.7 C12.17 -6.98, 4.34 -3.94, -1.11 -1.17 M22.39 -9.7 C14.91 -7.42, 7.61 -5.29, -1.11 -1.17" stroke="#1e1e1e" stroke-width="2" fill="none"></path></g><g transform="translate(165.60019699690974 80.23017853501565) rotate(0 51.853436524614835 0)"><path d="M22.38 7.4 C12.31 4.16, 4.49 1.25, -1.11 -1.17 M22.38 7.4 C15.02 4.33, 7.73 1.11, -1.11 -1.17" stroke="#1e1e1e" stroke-width="2" fill="none"></path></g><g transform="translate(165.60019699690974 80.23017853501565) rotate(0 51.853436524614835 0)"><path d="M79.29 8.76 C85.58 5.92, 94.11 2.96, 102.73 0.08 M79.29 8.76 C86.61 5.92, 94 2.66, 102.73 0.08" stroke="#1e1e1e" stroke-width="2" fill="none"></path></g><g transform="translate(165.60019699690974 80.23017853501565) rotate(0 51.853436524614835 0)"><path d="M79.19 -8.34 C85.37 -5.22, 93.93 -2.22, 102.73 0.08 M79.19 -8.34 C86.42 -5.83, 93.84 -3.74, 102.73 0.08" stroke="#1e1e1e" stroke-width="2" fill="none"></path></g></g><mask></mask><g transform="translate(336.33331195594883 64.83588453676217) rotate(0 13.55950927734375 13.583200719523063)"><text x="13.55950927734375" y="0" font-family="Virgil, Segoe UI Emoji" font-size="21.733121151236922px" fill="#1e1e1e" text-anchor="middle" style="white-space: pre;" direction="ltr" dominant-baseline="text-before-edge">FE</text></g><g transform="translate(168.57928590196525 144.0507942222222) rotate(0 45.369956970214844 37.5)"><text x="45.369956970214844" y="0" font-family="Virgil, Segoe UI Emoji" font-size="20px" fill="#1e1e1e" text-anchor="middle" style="white-space: pre;" direction="ltr" dominant-baseline="text-before-edge">Requests</text><text x="45.369956970214844" y="25" font-family="Virgil, Segoe UI Emoji" font-size="20px" fill="#1e1e1e" text-anchor="middle" style="white-space: pre;" direction="ltr" dominant-baseline="text-before-edge">and</text><text x="45.369956970214844" y="50" font-family="Virgil, Segoe UI Emoji" font-size="20px" fill="#1e1e1e" text-anchor="middle" style="white-space: pre;" direction="ltr" dominant-baseline="text-before-edge">replies</text></g><g stroke-linecap="round"><g transform="translate(579.5425760317485 79.68493521762386) rotate(0 -74.62361088117473 0)"><path d="M-0.87 -0.66 C-25.76 -0.73, -124.6 -0.26, -149.33 -0.31 M0.88 1.61 C-24.18 1.7, -125.17 1.36, -150.33 1.07" stroke="#1e1e1e" stroke-width="2" fill="none"></path></g><g transform="translate(579.5425760317485 79.68493521762386) rotate(0 -74.62361088117473 0)"><path d="M-24.34 7.95 C-18.36 5.38, -10.69 2.9, -0.87 -0.66 M-24.34 7.95 C-19.84 6.12, -14.06 4.51, -0.87 -0.66" stroke="#1e1e1e" stroke-width="2" fill="none"></path></g><g transform="translate(579.5425760317485 79.68493521762386) rotate(0 -74.62361088117473 0)"><path d="M-24.38 -9.15 C-18.37 -6.56, -10.69 -3.88, -0.87 -0.66 M-24.38 -9.15 C-19.86 -7.22, -14.07 -5.06, -0.87 -0.66" stroke="#1e1e1e" stroke-width="2" fill="none"></path></g><g transform="translate(579.5425760317485 79.68493521762386) rotate(0 -74.62361088117473 0)"><path d="M-126.78 -7.32 C-134.97 -5.11, -141.5 -2.46, -150.33 1.07 M-126.78 -7.32 C-132.62 -5.71, -137.19 -3.57, -150.33 1.07" stroke="#1e1e1e" stroke-width="2" fill="none"></path></g><g transform="translate(579.5425760317485 79.68493521762386) rotate(0 -74.62361088117473 0)"><path d="M-126.89 9.78 C-135.07 6.83, -141.57 4.32, -150.33 1.07 M-126.89 9.78 C-132.73 7.63, -137.27 6, -150.33 1.07" stroke="#1e1e1e" stroke-width="2" fill="none"></path></g></g><mask></mask><g stroke-linecap="round" transform="translate(10 216.2634180000001) rotate(0 68.41908510574581 68.41908510574584)"><path d="M7.45 36.95 C7.45 36.95, 7.45 36.95, 7.45 36.95 M7.45 36.95 C7.45 36.95, 7.45 36.95, 7.45 36.95 M3.65 53.52 C13.62 38.49, 24.42 25.47, 44.32 6.73 M3.65 53.52 C18.22 35.95, 34.45 17.62, 44.32 6.73 M1.81 67.82 C15.29 54.87, 24.24 40.64, 59.54 1.41 M1.81 67.82 C19.43 46.51, 37.24 26.93, 59.54 1.41 M3.26 78.36 C17.82 61.4, 31.73 44.51, 69.52 2.13 M3.26 78.36 C27.21 51.86, 49.12 23.89, 69.52 2.13 M4.7 88.89 C23.76 66.81, 41.44 47.79, 80.15 2.1 M4.7 88.89 C33.44 56.34, 60.68 24.11, 80.15 2.1 M6.8 98.66 C31.62 67.49, 59.4 38.2, 88.81 4.32 M6.8 98.66 C27.81 72.49, 49.71 47.8, 88.81 4.32 M12.18 104.67 C40.22 67.06, 73.18 31.78, 96.16 8.06 M12.18 104.67 C40.94 72.85, 67.01 42.55, 96.16 8.06 M16.91 111.42 C40.52 86.87, 61.49 61.48, 103.51 11.8 M16.91 111.42 C46.61 76.48, 76.92 42.25, 103.51 11.8 M21.63 118.18 C55.87 79.42, 89.51 37.93, 110.86 15.54 M21.63 118.18 C40.27 95.09, 61.68 72.85, 110.86 15.54 M27.67 123.43 C50.62 99.84, 69.79 71.49, 116.9 20.79 M27.67 123.43 C52.99 96.22, 75.06 67.3, 116.9 20.79 M35.02 127.17 C66.08 90.72, 101.22 50.86, 121.62 27.55 M35.02 127.17 C51.25 107.78, 70.04 87.32, 121.62 27.55 M42.37 130.91 C75.29 91.37, 108.3 51.15, 127 33.55 M42.37 130.91 C67.13 102.92, 91.05 75.55, 127 33.55 M50.38 133.89 C66.6 114.85, 84.27 94.9, 131.73 40.31 M50.38 133.89 C71.52 111.06, 91.15 88.06, 131.73 40.31 M60.35 134.61 C89.42 102, 115.86 71.31, 133.83 50.09 M60.35 134.61 C82.03 109.61, 105.25 84.92, 133.83 50.09 M70.98 134.58 C92.63 108.99, 113.72 84.57, 135.93 59.86 M70.98 134.58 C85.97 116.5, 101.29 100.13, 135.93 59.86 M80.96 135.3 C101.12 113.29, 118.53 91.4, 137.38 70.39 M80.96 135.3 C103.37 110.43, 125.02 84.43, 137.38 70.39 M96.83 129.23 C107.66 115.21, 121.56 99.99, 132.26 88.47 M96.83 129.23 C105.26 117.98, 115.48 107.23, 132.26 88.47" stroke="#a5d8ff" stroke-width="1" fill="none"></path><path d="M86.94 2.82 C96.13 4.15, 104.72 9.32, 112.25 15.6 C119.78 21.88, 127.96 31.41, 132.11 40.52 C136.26 49.63, 137.72 60.25, 137.17 70.28 C136.61 80.31, 133.63 91.82, 128.8 100.71 C123.96 109.6, 116.01 117.95, 108.14 123.63 C100.27 129.31, 91.14 132.99, 81.56 134.78 C71.97 136.58, 60.42 136.79, 50.63 134.4 C40.85 132.01, 30.43 126.79, 22.86 120.43 C15.3 114.06, 8.89 105.18, 5.24 96.2 C1.59 87.23, 0.59 76.5, 0.98 66.6 C1.37 56.69, 3.02 45.59, 7.59 36.78 C12.17 27.98, 20.41 19.74, 28.46 13.77 C36.5 7.81, 46.06 2.86, 55.88 1 C65.7 -0.87, 81.82 2.03, 87.36 2.57 C92.89 3.11, 89.24 3.19, 89.08 4.24 M80.16 0.17 C89.74 1.18, 101.72 7.98, 109.87 13.8 C118.03 19.61, 124.59 26.39, 129.11 35.07 C133.62 43.76, 136.46 55.89, 136.97 65.89 C137.47 75.88, 136.17 86.01, 132.13 95.05 C128.09 104.08, 120.38 113.49, 112.73 120.11 C105.08 126.72, 95.63 132.2, 86.22 134.72 C76.81 137.25, 65.84 137.3, 56.26 135.28 C46.68 133.27, 36.92 128.21, 28.74 122.64 C20.55 117.07, 12.18 110.48, 7.15 101.85 C2.13 93.23, -1.3 81.13, -1.39 70.88 C-1.49 60.63, 2.56 49.56, 6.57 40.35 C10.58 31.13, 15.36 22.13, 22.67 15.59 C29.99 9.05, 40.88 3.57, 50.47 1.12 C60.07 -1.34, 75.43 0.44, 80.24 0.85 C85.06 1.26, 79.31 2.23, 79.35 3.59" stroke="#1e1e1e" stroke-width="2" fill="none"></path></g><g transform="translate(68.59801877973723 271.2197033453705) rotate(0 9.94146728515625 13.583200719523091)"><text x="9.94146728515625" y="0" font-family="Virgil, Segoe UI Emoji" font-size="21.733121151236922px" fill="#1e1e1e" text-anchor="middle" style="white-space: pre;" direction="ltr" dominant-baseline="text-before-edge">C1</text></g><g stroke-linecap="round" transform="translate(281.06031637947217 216.2634184024653) rotate(0 68.4190848538201 68.41908485382004)"><path d="M7.86 8.16 C7.86 8.16, 7.86 8.16, 7.86 8.16 M7.86 8.16 C7.86 8.16, 7.86 8.16, 7.86 8.16 M2.75 26.24 C7.9 19.85, 12.15 17.88, 21.12 5.11 M2.75 26.24 C6.17 20.61, 11.64 16.75, 21.12 5.11 M2.88 38.28 C15.61 24.54, 25.77 10.38, 34.37 2.05 M2.88 38.28 C10.36 31.21, 16.32 23.64, 34.37 2.05 M2.36 51.07 C15.48 34.5, 30.72 18.94, 45 2.02 M2.36 51.07 C18.73 32.06, 36.54 11.73, 45 2.02 M2.49 63.11 C19.55 41.97, 39.34 18.25, 55.63 1.98 M2.49 63.11 C22.18 39.06, 43.19 16.71, 55.63 1.98 M2.62 75.16 C24.51 49.69, 46.05 23.59, 66.26 1.95 M2.62 75.16 C21.9 52.78, 40.65 30.81, 66.26 1.95 M2.1 87.95 C28.17 57.02, 57.15 23.3, 76.23 2.67 M2.1 87.95 C18.4 67.55, 37.19 46.46, 76.23 2.67 M2.23 99.99 C35.88 62, 66.65 26.77, 86.86 2.63 M2.23 99.99 C20.92 79.12, 37.51 59.82, 86.86 2.63 M4.99 109.01 C27.29 84.16, 49.99 55.9, 97.49 2.6 M4.99 109.01 C40.71 66.33, 76.99 24.67, 97.49 2.6 M5.12 121.06 C45.8 74.95, 82.64 29.06, 108.12 2.57 M5.12 121.06 C32.53 89.9, 59.18 56.9, 108.12 2.57 M9.19 128.57 C40.67 91.44, 71.49 55.83, 116.79 4.8 M9.19 128.57 C39.61 94.12, 69.52 59.42, 116.79 4.8 M14.57 134.57 C50.35 92.72, 86.85 53.22, 126.1 6.27 M14.57 134.57 C57.71 85.84, 100.24 37.02, 126.1 6.27 M23.24 136.8 C61.49 92.51, 102.23 46.15, 132.14 11.52 M23.24 136.8 C51.26 104.26, 80.51 73.13, 132.14 11.52 M29.93 141.29 C63.66 105.8, 95.32 68.67, 136.21 19.03 M29.93 141.29 C63.67 102.94, 98.22 65.1, 136.21 19.03 M40.56 141.26 C63.76 116.31, 86.11 87.68, 137.66 29.56 M40.56 141.26 C67.08 111.12, 93.96 78.88, 137.66 29.56 M51.19 141.23 C69.59 118.74, 90.86 96.3, 142.38 36.32 M51.19 141.23 C86.53 100.37, 121.83 61.25, 142.38 36.32 M61.82 141.19 C89.09 106.99, 118.34 74.12, 141.86 49.12 M61.82 141.19 C78.11 122.08, 95.59 103.77, 141.86 49.12 M72.45 141.16 C90.39 119.16, 111.37 95.2, 141.99 61.16 M72.45 141.16 C99.49 108.74, 127.19 77.29, 141.99 61.16 M83.08 141.12 C104.43 115.07, 124.41 93.17, 142.13 73.2 M83.08 141.12 C102.68 118.82, 122.22 96.52, 142.13 73.2 M93.05 141.84 C110.75 120.84, 125.28 104.07, 141.6 85.99 M93.05 141.84 C105.93 126.26, 119.94 111.39, 141.6 85.99 M106.97 138.03 C116.41 125.09, 126.6 114.31, 141.74 98.03 M106.97 138.03 C115.78 127.76, 123.38 119.96, 141.74 98.03 M119.56 135.74 C125.66 127.85, 132.44 120.95, 138.59 113.85 M119.56 135.74 C124.2 130.17, 129.06 125.38, 138.59 113.85" stroke="#b2f2bb" stroke-width="1" fill="none"></path><path d="M32 0 C56.83 -0.88, 86.16 -1.28, 104.84 0 M32 0 C60.13 -0.74, 88.14 0.57, 104.84 0 M104.84 0 C126.07 -0.25, 138.12 11.08, 136.84 32 M104.84 0 C124.48 -2.25, 135.23 8.71, 136.84 32 M136.84 32 C138.45 54.09, 138.65 77.29, 136.84 104.84 M136.84 32 C136.24 54.56, 137.25 77.74, 136.84 104.84 M136.84 104.84 C137.12 124.84, 126.06 136.38, 104.84 136.84 M136.84 104.84 C138.6 125.47, 127.19 136.61, 104.84 136.84 M104.84 136.84 C87.52 137.57, 72.43 137.36, 32 136.84 M104.84 136.84 C89.45 137.18, 75.39 136.1, 32 136.84 M32 136.84 C12.63 135.49, -1.2 127.84, 0 104.84 M32 136.84 C9.53 135.36, -2.28 127.65, 0 104.84 M0 104.84 C0.73 86.29, -0.92 65.49, 0 32 M0 104.84 C0.32 88.38, -0.68 71.45, 0 32 M0 32 C0.82 9.76, 9.7 -1.55, 32 0 M0 32 C0.9 9.83, 8.75 -1.29, 32 0" stroke="#1e1e1e" stroke-width="2" fill="none"></path></g><g stroke-linecap="round"><g transform="translate(165.18677699690943 286.49359653501574) rotate(0 51.853436524614835 0)"><path d="M-0.37 0.56 C16.93 0.61, 86.22 -0.36, 103.39 -0.55 M1.64 -0.19 C18.79 0.09, 85.04 0.6, 102.28 0.71" stroke="#1e1e1e" stroke-width="2" fill="none"></path></g><g transform="translate(165.18677699690943 286.49359653501574) rotate(0 51.853436524614835 0)"><path d="M23.04 -8.22 C17.64 -6.46, 9.52 -5.28, -0.37 0.56 M23.04 -8.22 C16.14 -6.6, 10.36 -2.98, -0.37 0.56" stroke="#1e1e1e" stroke-width="2" fill="none"></path></g><g transform="translate(165.18677699690943 286.49359653501574) rotate(0 51.853436524614835 0)"><path d="M23.21 8.88 C17.89 6.05, 9.72 2.65, -0.37 0.56 M23.21 8.88 C16.37 6.17, 10.54 5.48, -0.37 0.56" stroke="#1e1e1e" stroke-width="2" fill="none"></path></g><g transform="translate(165.18677699690943 286.49359653501574) rotate(0 51.853436524614835 0)"><path d="M78.73 9.09 C86.04 6.39, 90.5 2.97, 102.28 0.71 M78.73 9.09 C83.79 6.5, 89.88 5.79, 102.28 0.71" stroke="#1e1e1e" stroke-width="2" fill="none"></path></g><g transform="translate(165.18677699690943 286.49359653501574) rotate(0 51.853436524614835 0)"><path d="M78.85 -8.01 C86.01 -6.13, 90.44 -4.96, 102.28 0.71 M78.85 -8.01 C83.79 -6.28, 89.84 -2.67, 102.28 0.71" stroke="#1e1e1e" stroke-width="2" fill="none"></path></g></g><mask></mask><g transform="translate(335.9198919559485 271.09930253676225) rotate(0 13.55950927734375 13.583200719523091)"><text x="13.55950927734375" y="0" font-family="Virgil, Segoe UI Emoji" font-size="21.733121151236922px" fill="#1e1e1e" text-anchor="middle" style="white-space: pre;" direction="ltr" dominant-baseline="text-before-edge">FE</text></g><g stroke-linecap="round"><g transform="translate(579.1291560317482 285.9483532176239) rotate(0 -74.62361088117473 0)"><path d="M-0.6 0.55 C-25.43 0.84, -123.5 0.64, -148.3 0.68 M1.29 -0.2 C-23.68 -0.17, -123.5 -0.93, -148.75 -1.09" stroke="#1e1e1e" stroke-width="2" fill="none"></path></g><g transform="translate(579.1291560317482 285.9483532176239) rotate(0 -74.62361088117473 0)"><path d="M-24.08 9.13 C-14.66 7.75, -6.03 2.89, -0.6 0.55 M-24.08 9.13 C-14.46 6.69, -7.11 3.73, -0.6 0.55" stroke="#1e1e1e" stroke-width="2" fill="none"></path></g><g transform="translate(579.1291560317482 285.9483532176239) rotate(0 -74.62361088117473 0)"><path d="M-24.1 -7.97 C-14.82 -3.22, -6.18 -1.94, -0.6 0.55 M-24.1 -7.97 C-14.64 -4.15, -7.29 -0.85, -0.6 0.55" stroke="#1e1e1e" stroke-width="2" fill="none"></path></g><g transform="translate(579.1291560317482 285.9483532176239) rotate(0 -74.62361088117473 0)"><path d="M-125.2 -9.48 C-132.8 -5.01, -141.04 -3.78, -148.75 -1.09 M-125.2 -9.48 C-132.96 -6.09, -142.83 -2.84, -148.75 -1.09" stroke="#1e1e1e" stroke-width="2" fill="none"></path></g><g transform="translate(579.1291560317482 285.9483532176239) rotate(0 -74.62361088117473 0)"><path d="M-125.32 7.62 C-132.72 5.96, -140.92 1.05, -148.75 -1.09 M-125.32 7.62 C-132.87 4.75, -142.7 1.74, -148.75 -1.09" stroke="#1e1e1e" stroke-width="2" fill="none"></path></g></g><mask></mask><g transform="translate(298.6228704335949 169.05079499090007) rotate(0 51.26995086669922 12.5)"><text x="51.26995086669922" y="0" font-family="Virgil, Segoe UI Emoji" font-size="20px" fill="#1e1e1e" text-anchor="middle" style="white-space: pre;" direction="ltr" dominant-baseline="text-before-edge">Front-ends</text></g><g transform="translate(45.93911992976791 169.05079455733815) rotate(0 32.47996520996094 12.5)"><text x="32.47996520996094" y="0" font-family="Virgil, Segoe UI Emoji" font-size="20px" fill="#1e1e1e" text-anchor="middle" style="white-space: pre;" direction="ltr" dominant-baseline="text-before-edge">Clients</text></g><g transform="translate(731.107514024066 22.500000410488525) rotate(0 33.75996398925781 12.5)"><text x="33.75996398925781" y="0" font-family="Virgil, Segoe UI Emoji" font-size="20px" fill="#1e1e1e" text-anchor="middle" style="white-space: pre;" direction="ltr" dominant-baseline="text-before-edge">Service</text></g><g stroke-linecap="round" transform="translate(632.6150777475714 78.94858918678531) rotate(0 41.481535751714546 41.481535751714546)"><path d="M38.87 0.38 C45.93 -0.69, 55.01 0.86, 61.53 4.52 C68.05 8.18, 74.56 15.6, 78.02 22.32 C81.47 29.05, 82.88 37.52, 82.24 44.87 C81.6 52.22, 78.69 60.49, 74.16 66.41 C69.62 72.34, 62 77.75, 55.02 80.43 C48.05 83.1, 39.38 83.99, 32.32 82.49 C25.25 80.98, 17.84 76.81, 12.63 71.41 C7.42 66.01, 2.84 57.64, 1.08 50.08 C-0.68 42.52, -0.75 33.04, 2.05 26.04 C4.85 19.05, 10.55 12.48, 17.86 8.12 C25.18 3.76, 40.52 0.8, 45.96 -0.11 C51.39 -1.02, 50.59 1.92, 50.47 2.68 M56.01 4.41 C62.53 6.77, 70.15 11.92, 74.6 18.04 C79.04 24.16, 82.42 33.92, 82.7 41.14 C82.98 48.35, 79.84 54.96, 76.26 61.34 C72.69 67.71, 67.94 75.84, 61.28 79.39 C54.61 82.94, 44.12 83.66, 36.28 82.63 C28.44 81.6, 19.74 77.85, 14.24 73.21 C8.74 68.57, 5.47 61.77, 3.28 54.76 C1.09 47.75, -0.47 38.32, 1.1 31.13 C2.68 23.95, 7.09 16.94, 12.73 11.65 C18.37 6.36, 27.3 0.94, 34.94 -0.59 C42.58 -2.12, 54.8 1.78, 58.59 2.46 C62.39 3.15, 58.23 2.83, 57.71 3.54" stroke="none" stroke-width="0" fill="#d0bfff"></path><path d="M60.07 4.02 C66.43 6.76, 72.77 15.14, 76.64 21.61 C80.51 28.07, 83.62 35.41, 83.31 42.82 C83 50.23, 79.11 59.85, 74.76 66.06 C70.41 72.27, 64.27 77.44, 57.2 80.08 C50.13 82.73, 39.65 83.43, 32.35 81.95 C25.05 80.47, 18.55 76.23, 13.37 71.19 C8.2 66.15, 3.07 59.01, 1.3 51.72 C-0.48 44.44, 0.36 34.75, 2.71 27.48 C5.06 20.2, 9.47 12.45, 15.39 8.06 C21.3 3.67, 29.9 1.38, 38.2 1.13 C46.51 0.88, 60.2 5.07, 65.21 6.53 C70.22 8, 68.87 9.38, 68.27 9.93 M41.41 1.5 C48.41 1.45, 57.41 3.6, 63.72 7.77 C70.03 11.94, 76.22 19.7, 79.27 26.49 C82.31 33.28, 83.36 41.45, 81.99 48.5 C80.63 55.55, 76.03 63.38, 71.06 68.81 C66.1 74.23, 59.51 78.8, 52.21 81.06 C44.92 83.32, 34.6 84.77, 27.28 82.37 C19.96 79.97, 12.89 72.85, 8.28 66.68 C3.67 60.51, 0.46 52.63, -0.38 45.37 C-1.22 38.1, -0.2 29.44, 3.23 23.1 C6.66 16.75, 13.53 10.98, 20.23 7.31 C26.92 3.65, 39.75 2.2, 43.39 1.1 C47.04 0, 42.2 0.24, 42.1 0.71" stroke="#1e1e1e" stroke-width="2" fill="none"></path></g><g transform="translate(659.8247434632044 108.0982497144303) rotate(0 14.439994812011719 12.5)"><text x="14.439994812011719" y="0" font-family="Virgil, Segoe UI Emoji" font-size="20px" fill="#1e1e1e" text-anchor="middle" style="white-space: pre;" direction="ltr" dominant-baseline="text-before-edge">RM</text></g><g stroke-linecap="round" transform="translate(666.3533934922993 229.94137932302593) rotate(0 41.481535751714546 41.481535751714546)"><path d="M56.62 3.87 C63.66 6.03, 71.07 11.98, 75.56 17.81 C80.06 23.64, 83.42 31.39, 83.6 38.83 C83.77 46.28, 80.43 55.86, 76.61 62.48 C72.8 69.09, 67.07 75.1, 60.72 78.51 C54.36 81.92, 45.75 83.63, 38.46 82.95 C31.16 82.26, 22.97 78.85, 16.92 74.39 C10.88 69.93, 4.86 63.2, 2.21 56.2 C-0.45 49.2, -0.63 39.85, 0.99 32.37 C2.62 24.89, 6.55 16.67, 11.96 11.31 C17.36 5.95, 25.52 1.5, 33.44 0.23 C41.35 -1.04, 54.94 2.88, 59.45 3.67 C63.96 4.47, 60.86 4.25, 60.48 4.99 M29.56 0.29 C36 -2.54, 45.07 -1.93, 52.39 0.64 C59.72 3.22, 68.63 9.76, 73.53 15.74 C78.43 21.73, 80.72 29.49, 81.82 36.57 C82.93 43.65, 83.22 51.45, 80.16 58.22 C77.11 64.99, 69.85 72.83, 63.5 77.2 C57.15 81.57, 49.33 84.43, 42.06 84.45 C34.79 84.46, 26.21 81.4, 19.89 77.27 C13.57 73.13, 7.3 66.9, 4.12 59.64 C0.95 52.38, -0.15 41.54, 0.85 33.71 C1.85 25.88, 5.3 18.02, 10.13 12.65 C14.95 7.28, 26.5 3.4, 29.79 1.51 C33.08 -0.39, 29.4 0.54, 29.85 1.3" stroke="none" stroke-width="0" fill="#d0bfff"></path><path d="M46.69 0.9 C53.82 1.11, 62.25 4.01, 67.87 8.76 C73.48 13.51, 78.08 22.14, 80.39 29.43 C82.69 36.72, 83.72 45.45, 81.72 52.52 C79.73 59.58, 73.89 66.67, 68.39 71.82 C62.89 76.96, 55.88 81.97, 48.74 83.36 C41.6 84.76, 32.57 83.24, 25.55 80.19 C18.54 77.14, 10.85 71.27, 6.65 65.04 C2.46 58.82, 0.4 50.54, 0.39 42.84 C0.38 35.15, 2.72 25.47, 6.59 18.88 C10.47 12.29, 16.87 6.33, 23.63 3.3 C30.38 0.27, 42.74 0.86, 47.11 0.72 C51.49 0.58, 49.84 1.67, 49.89 2.45 M46.76 -0.78 C53.87 -0.75, 60.76 4.04, 66.42 8.96 C72.07 13.87, 78.29 21.48, 80.68 28.7 C83.08 35.93, 82.85 45.15, 80.77 52.3 C78.7 59.45, 73.85 66.49, 68.22 71.61 C62.6 76.74, 54.24 81.62, 47.04 83.08 C39.84 84.53, 31.74 83.28, 25.03 80.36 C18.32 77.44, 10.98 71.85, 6.79 65.56 C2.61 59.28, 0.17 50.23, -0.08 42.65 C-0.32 35.07, 1.64 26.31, 5.31 20.09 C8.98 13.86, 15.22 8.55, 21.94 5.29 C28.67 2.02, 41.68 1.13, 45.66 0.51 C49.64 -0.11, 46 0.99, 45.82 1.58" stroke="#1e1e1e" stroke-width="2" fill="none"></path></g><g transform="translate(693.5630592079324 259.0910398506709) rotate(0 14.439994812011719 12.5)"><text x="14.439994812011719" y="0" font-family="Virgil, Segoe UI Emoji" font-size="20px" fill="#1e1e1e" text-anchor="middle" style="white-space: pre;" direction="ltr" dominant-baseline="text-before-edge">RM</text></g><g stroke-linecap="round" transform="translate(801.3066564712103 98.30663920425198) rotate(0 41.481535751714546 41.481535751714546)"><path d="M50.64 1.02 C57.86 1.88, 66.28 6.68, 71.47 12.05 C76.66 17.43, 80.32 25.91, 81.8 33.25 C83.28 40.59, 83 49.27, 80.35 56.09 C77.7 62.91, 71.81 69.81, 65.89 74.17 C59.97 78.54, 52.04 81.64, 44.83 82.27 C37.61 82.9, 29.19 81.48, 22.61 77.97 C16.02 74.45, 9.07 67.6, 5.32 61.19 C1.58 54.78, -0.21 46.85, 0.15 39.5 C0.51 32.16, 2.98 23.31, 7.48 17.11 C11.98 10.92, 19.98 5.12, 27.15 2.33 C34.33 -0.45, 46.41 0.36, 50.52 0.41 C54.63 0.47, 51.72 1.94, 51.82 2.66 M49.37 1.36 C56.43 2.54, 65.57 7.75, 71.17 13.01 C76.78 18.27, 81.33 25.67, 83 32.91 C84.67 40.15, 83.8 49.82, 81.2 56.45 C78.6 63.08, 73.44 68.53, 67.41 72.69 C61.39 76.86, 52.62 80.51, 45.05 81.43 C37.48 82.36, 28.67 81.64, 21.98 78.25 C15.3 74.86, 8.39 67.47, 4.94 61.09 C1.49 54.7, 0.79 47.3, 1.26 39.94 C1.74 32.57, 3.61 23.05, 7.8 16.91 C11.99 10.77, 19.49 5.74, 26.42 3.1 C33.34 0.46, 45.38 1.48, 49.36 1.05 C53.34 0.62, 50.42 0.08, 50.28 0.51" stroke="none" stroke-width="0" fill="#d0bfff"></path><path d="M46.73 1.24 C54.08 1.65, 62.62 5.37, 68.25 10.01 C73.89 14.65, 78.23 22.01, 80.52 29.09 C82.8 36.18, 83.72 45.53, 81.97 52.53 C80.21 59.54, 75.52 66.3, 69.98 71.14 C64.43 75.97, 56.26 80.07, 48.7 81.53 C41.14 82.99, 31.36 82.53, 24.6 79.9 C17.84 77.28, 12.21 71.85, 8.16 65.77 C4.1 59.69, 0.58 51.19, 0.26 43.41 C-0.06 35.63, 2.3 25.56, 6.23 19.08 C10.15 12.59, 16.18 7.59, 23.8 4.5 C31.41 1.42, 46.23 0.61, 51.94 0.58 C57.65 0.55, 58.16 3.59, 58.08 4.33 M42.11 0.75 C49.4 0.72, 59.14 4.07, 65.39 8.43 C71.65 12.78, 76.84 20.03, 79.63 26.87 C82.42 33.71, 83.6 42.25, 82.12 49.48 C80.64 56.71, 76.13 64.7, 70.76 70.27 C65.38 75.84, 57.13 81.12, 49.87 82.89 C42.61 84.66, 34.11 83.45, 27.2 80.89 C20.29 78.34, 13.14 73.55, 8.43 67.57 C3.71 61.59, -0.42 52.7, -1.1 45.01 C-1.78 37.33, 0.48 28.25, 4.32 21.44 C8.15 14.63, 15.38 7.74, 21.9 4.15 C28.42 0.55, 39.62 0.33, 43.45 -0.12 C47.28 -0.56, 44.79 0.58, 44.9 1.47" stroke="#1e1e1e" stroke-width="2" fill="none"></path></g><g transform="translate(828.5163221868434 127.45629973189696) rotate(0 14.439994812011719 12.5)"><text x="14.439994812011719" y="0" font-family="Virgil, Segoe UI Emoji" font-size="20px" fill="#1e1e1e" text-anchor="middle" style="white-space: pre;" direction="ltr" dominant-baseline="text-before-edge">RM</text></g><g stroke-linecap="round"><g transform="translate(704.5164063838765 149.74374353637805) rotate(0 48.806652108381286 38.319479755587196)"><path d="M-0.69 -0.24 C15.44 12.8, 81.25 64.84, 97.79 77.68 M1.15 -1.41 C17.04 11.36, 80.75 62.84, 96.94 76.1" stroke="#1e1e1e" stroke-width="2" fill="none"></path></g></g><mask></mask><g stroke-linecap="round"><g transform="translate(802.6878739413373 227.12835514153207) rotate(0 -28.67318176378967 12.644876289156684)"><path d="M0.67 0.48 C-9.03 4.74, -47.53 22.42, -57.14 26.37 M-0.43 -0.31 C-10.36 3.56, -48.46 20.61, -57.98 24.81" stroke="#1e1e1e" stroke-width="2" fill="none"></path></g></g><mask></mask><g stroke-linecap="round"><g transform="translate(803.370797417138 227.82192384871635) rotate(0 9.075760978622839 -24.9590843581546)"><path d="M0.28 -0.94 C3.47 -9.29, 16.2 -42.72, 19.15 -51.03 M-1.04 1.18 C2.08 -6.98, 15.7 -41.55, 18.72 -50.07" stroke="#1e1e1e" stroke-width="2" fill="none"></path></g></g><mask></mask><g transform="translate(823.5283439427094 280.40573321643467) rotate(0 45.879966735839844 25)"><text x="45.879966735839844" y="0" font-family="Virgil, Segoe UI Emoji" font-size="20px" fill="#1e1e1e" text-anchor="middle" style="white-space: pre;" direction="ltr" dominant-baseline="text-before-edge">Replica</text><text x="45.879966735839844" y="25" font-family="Virgil, Segoe UI Emoji" font-size="20px" fill="#1e1e1e" text-anchor="middle" style="white-space: pre;" direction="ltr" dominant-baseline="text-before-edge">Managers</text></g></svg>