<svg version="1.1" xmlns="http://www.w3.org/2000/svg" viewBox="0 0 555.3442635288898 312.0189478386487" width="555.3442635288898" height="312.0189478386487">
  <!-- svg-source:excalidraw -->
  
  <defs>
    <style class="style-fonts">
      @font-face {
        font-family: "Virgil";
        src: url("https://excalidraw.com/Virgil.woff2");
      }
      @font-face {
        font-family: "Cascadia";
        src: url("https://excalidraw.com/Cascadia.woff2");
      }
      @font-face {
        font-family: "Assistant";
        src: url("https://excalidraw.com/Assistant-Regular.woff2");
      }
    </style>
    
  </defs>
  <g stroke-linecap="round" transform="translate(181.4321799999998 86.07272413349756) rotate(0 65.09681714081307 65.09681714081307)"><path d="M19.85 18.58 C19.85 18.58, 19.85 18.58, 19.85 18.58 M19.85 18.58 C19.85 18.58, 19.85 18.58, 19.85 18.58 M4.24 48.73 C16.31 33.16, 27.79 18.96, 40.98 6.47 M4.24 48.73 C13.2 38.97, 22.63 28.22, 40.98 6.47 M3.06 62.28 C17.98 47.01, 31.91 28.09, 54.23 3.42 M3.06 62.28 C20.88 41.71, 37.26 22.79, 54.23 3.42 M1.88 75.83 C20.78 52.31, 42.96 26.09, 65.52 2.63 M1.88 75.83 C16.59 58.97, 31.31 41.84, 65.52 2.63 M4.64 84.86 C23.45 62.02, 44.56 37.23, 76.15 2.59 M4.64 84.86 C32.99 52.71, 60.68 21.53, 76.15 2.59 M8.05 93.12 C29.02 72.21, 47.67 48.77, 84.81 4.82 M8.05 93.12 C29.58 68.15, 51.13 44.72, 84.81 4.82 M11.46 101.39 C41.07 68.96, 65.97 37.18, 92.16 8.56 M11.46 101.39 C39.44 68.95, 67.21 35.8, 92.16 8.56 M16.19 108.15 C49.92 69.64, 80.57 31.44, 99.51 12.3 M16.19 108.15 C46.55 73.01, 77.32 37.63, 99.51 12.3 M22.23 113.4 C51.6 76.87, 83.59 44.85, 107.51 15.29 M22.23 113.4 C49.45 80.22, 78.14 47.12, 107.51 15.29 M28.92 117.89 C48.42 100.73, 64.6 80.81, 112.24 22.04 M28.92 117.89 C61.06 79.29, 95.9 40.35, 112.24 22.04 M34.96 123.14 C53.31 103.65, 69.23 87.63, 116.97 28.8 M34.96 123.14 C56.9 97.15, 80.59 70.73, 116.97 28.8 M42.96 126.12 C74.09 91.52, 104.61 56.04, 121.69 35.56 M42.96 126.12 C60.58 105.2, 80.52 83.91, 121.69 35.56 M52.28 127.6 C81.02 95.01, 109.71 58.44, 125.76 43.07 M52.28 127.6 C79.77 94.04, 109.47 60.78, 125.76 43.07 M60.94 129.83 C85.84 101.39, 112.14 72.62, 127.21 53.6 M60.94 129.83 C78.25 109.83, 96.56 89.68, 127.21 53.6 M72.23 129.04 C88.55 111.37, 101.09 97, 128.65 64.13 M72.23 129.04 C89.19 109.14, 106.55 90.44, 128.65 64.13 M86.14 125.23 C99.39 107.97, 113.74 93.06, 127.47 77.68 M86.14 125.23 C96.48 114.01, 105 104.39, 127.47 77.68 M109.24 110.86 C114.35 105.94, 115.4 103.7, 121.7 96.52 M109.24 110.86 C112.59 105.98, 116.66 102.71, 121.7 96.52" stroke="#a5d8ff" stroke-width="1" fill="none"></path><path d="M79.05 2.11 C88.79 3.24, 99.92 9.47, 107.58 15.81 C115.24 22.15, 121.43 31.09, 125 40.13 C128.58 49.18, 129.89 60.12, 129.03 70.07 C128.17 80.03, 124.99 91.24, 119.85 99.84 C114.71 108.44, 107.06 116.55, 98.17 121.66 C89.29 126.77, 76.91 130.05, 66.54 130.5 C56.16 130.96, 45.01 128.8, 35.92 124.4 C26.82 119.99, 17.75 112.17, 11.96 104.07 C6.18 95.96, 2.6 85.88, 1.22 75.77 C-0.15 65.67, 0.57 53.02, 3.69 43.46 C6.82 33.9, 12.72 25.18, 19.99 18.42 C27.26 11.65, 35.72 5.06, 47.32 2.87 C58.93 0.69, 80.68 3.83, 89.6 5.32 C98.52 6.81, 101.28 10.98, 100.82 11.81 M41.07 4.29 C49.51 -0.04, 61.06 0.3, 70.94 1.37 C80.82 2.45, 91.96 5.23, 100.36 10.77 C108.75 16.31, 116.59 25.89, 121.33 34.62 C126.07 43.35, 128.43 53.32, 128.81 63.12 C129.18 72.93, 127.97 84.13, 123.58 93.44 C119.19 102.75, 110.6 112.77, 102.47 119 C94.34 125.22, 84.37 129.4, 74.8 130.8 C65.24 132.2, 54.83 130.99, 45.08 127.39 C35.33 123.8, 23.47 116.93, 16.31 109.23 C9.15 101.54, 4.8 90.83, 2.11 81.21 C-0.58 71.59, -1.85 61.06, 0.14 51.49 C2.14 41.93, 7.39 31.64, 14.1 23.83 C20.82 16.02, 36.03 7.44, 40.44 4.62 C44.85 1.8, 40 5.74, 40.55 6.92" stroke="#1971c2" stroke-width="2" fill="none"></path></g><g transform="translate(232.7686082087389 138.63914044038097) rotate(0 13.729988098144531 12.5)"><text x="13.729988098144531" y="17.52" font-family="Virgil, Segoe UI Emoji" font-size="20px" fill="#1971c2" text-anchor="middle" style="white-space: pre;" direction="ltr" dominant-baseline="alphabetic">P2</text></g><g stroke-linecap="round" transform="translate(408.17547799999966 86.07272413349756) rotate(0 65.09681714081307 65.09681714081307)"><path d="M9.02 33.01 C9.02 33.01, 9.02 33.01, 9.02 33.01 M9.02 33.01 C9.02 33.01, 9.02 33.01, 9.02 33.01 M2.59 52.6 C16.28 37.4, 27.64 22.27, 41.95 7.32 M2.59 52.6 C14.12 38.79, 26 25.74, 41.95 7.32 M0.75 66.9 C14.28 50.3, 30.98 34.26, 57.17 2 M0.75 66.9 C20.07 45.27, 38.06 24.56, 57.17 2 M2.85 76.68 C18.97 57.92, 35.92 39.27, 67.8 1.97 M2.85 76.68 C20.55 56.57, 39.56 36.76, 67.8 1.97 M4.96 86.46 C35.28 55.56, 61.9 18.75, 77.12 3.44 M4.96 86.46 C25.4 60.76, 47.19 37.04, 77.12 3.44 M8.37 94.73 C35.98 66, 59.06 38.13, 85.78 5.67 M8.37 94.73 C36.03 62.54, 64.78 30.26, 85.78 5.67 M13.09 101.48 C36.69 72.72, 63.08 44.22, 93.79 8.65 M13.09 101.48 C34.89 77.33, 56.89 51.75, 93.79 8.65 M18.48 107.49 C43.98 78.78, 65.65 51.52, 99.83 13.9 M18.48 107.49 C34.59 87.02, 52.76 66.58, 99.83 13.9 M23.2 114.24 C42.89 92, 65 65.58, 106.52 18.4 M23.2 114.24 C50.97 81.43, 77.4 51.31, 106.52 18.4 M29.9 118.74 C55.8 90.19, 80.13 61.93, 113.21 22.89 M29.9 118.74 C47.29 98.59, 64.13 77.24, 113.21 22.89 M37.25 122.48 C60.74 95.37, 83.91 67.76, 117.94 29.65 M37.25 122.48 C54.34 102.34, 73.73 81.25, 117.94 29.65 M45.25 125.46 C66.72 98.1, 89.27 73.47, 122.01 37.16 M45.25 125.46 C66.7 101.89, 88.94 77.72, 122.01 37.16 M52.6 129.2 C78.18 101.67, 101.54 70.84, 125.42 45.43 M52.6 129.2 C74.3 102.2, 96.45 77.15, 125.42 45.43 M63.23 129.17 C78.55 112.71, 92.89 96.52, 128.18 54.45 M63.23 129.17 C81.62 109.95, 99.43 88.45, 128.18 54.45 M74.52 128.38 C88.72 110.5, 104.7 91.87, 128.31 66.49 M74.52 128.38 C96.75 103.31, 118.18 78.84, 128.31 66.49 M86.46 126.83 C97.79 113.62, 110.92 96.89, 128.45 78.53 M86.46 126.83 C93.79 116.22, 103.77 107.46, 128.45 78.53 M108.9 113.21 C109.88 112.37, 113.88 109.93, 118.08 102.65 M108.9 113.21 C112.36 109.21, 115.4 106.63, 118.08 102.65" stroke="#ffc9c9" stroke-width="1" fill="none"></path><path d="M60.74 -0.4 C70.2 -2.03, 80.7 1.94, 89.74 6.07 C98.79 10.21, 108.63 16.87, 115.01 24.39 C121.39 31.91, 125.8 41.36, 128.03 51.2 C130.26 61.03, 131.01 73.46, 128.38 83.38 C125.75 93.3, 119.28 103.5, 112.23 110.73 C105.19 117.96, 95.83 123.66, 86.11 126.75 C76.39 129.83, 64.04 130.97, 53.9 129.26 C43.75 127.55, 33.26 122.64, 25.24 116.5 C17.22 110.35, 10.08 101.28, 5.77 92.38 C1.46 83.48, -1.16 73, -0.63 63.11 C-0.09 53.22, 3.87 41.84, 8.99 33.05 C14.1 24.25, 20.84 15.8, 30.07 10.34 C39.3 4.88, 57.45 1.88, 64.36 0.3 C71.26 -1.28, 71.47 -0.07, 71.51 0.86 M59.37 1.6 C68.99 -0.12, 81.18 2.43, 90.56 6.1 C99.93 9.77, 109.44 15.69, 115.64 23.6 C121.85 31.51, 125.94 43.43, 127.78 53.56 C129.63 63.68, 129.31 75.02, 126.68 84.34 C124.06 93.66, 118.94 102.54, 112.04 109.49 C105.15 116.44, 95.04 122.68, 85.3 126.04 C75.55 129.4, 63.27 130.95, 53.55 129.65 C43.84 128.35, 34.75 124.55, 27.01 118.22 C19.26 111.9, 11.8 100.88, 7.08 91.7 C2.36 82.53, -1.47 72.91, -1.31 63.19 C-1.14 53.47, 2.99 42.3, 8.05 33.37 C13.11 24.44, 20.29 14.99, 29.05 9.62 C37.8 4.26, 55.28 2.48, 60.56 1.2 C65.83 -0.08, 60.74 1.13, 60.68 1.94" stroke="#e03131" stroke-width="2" fill="none"></path></g><g transform="translate(459.8219037673325 138.63914044038097) rotate(0 13.419990539550781 12.5)"><text x="13.419990539550781" y="17.52" font-family="Virgil, Segoe UI Emoji" font-size="20px" fill="#e03131" text-anchor="middle" style="white-space: pre;" direction="ltr" dominant-baseline="alphabetic">P3</text></g><g stroke-linecap="round" transform="translate(10 86.07272413349779) rotate(0 65.09681714081307 65.09681714081307)"><path d="M19.65 19.73 C19.65 19.73, 19.65 19.73, 19.65 19.73 M19.65 19.73 C19.65 19.73, 19.65 19.73, 19.65 19.73 M5.35 48.37 C15.61 36.82, 25.63 25.59, 44.71 3.09 M5.35 48.37 C17.05 36.2, 26.3 23.35, 44.71 3.09 M4.82 61.17 C19.64 43, 32.11 28.03, 56 2.3 M4.82 61.17 C19.35 43.8, 33.31 27.95, 56 2.3 M4.3 73.96 C18.98 53.81, 35.62 35.65, 66.63 2.27 M4.3 73.96 C17.53 58.53, 30.01 43.62, 66.63 2.27 M7.06 82.99 C31.32 55.96, 51.73 30.3, 77.26 2.23 M7.06 82.99 C22.35 66.03, 38.51 48.54, 77.26 2.23 M11.13 90.5 C36.32 60.19, 59.72 32.52, 85.26 5.22 M11.13 90.5 C36.03 61.58, 62.47 32.63, 85.26 5.22 M14.54 98.77 C46.87 64.48, 76.11 30.11, 92.61 8.96 M14.54 98.77 C31.2 78.35, 48.81 57.84, 92.61 8.96 M16.64 108.54 C45.06 74.32, 73.58 43.1, 99.96 12.69 M16.64 108.54 C33.6 87.74, 51.58 67.84, 99.96 12.69 M23.34 113.04 C47.36 85.37, 72.66 57.17, 107.31 16.43 M23.34 113.04 C52.82 79.36, 83.57 43.71, 107.31 16.43 M30.03 117.53 C50.25 93.56, 67.69 73.95, 112.69 22.44 M30.03 117.53 C52.17 91.06, 75.76 64.98, 112.69 22.44 M36.07 122.78 C58.91 95.37, 80.71 69.9, 118.08 28.44 M36.07 122.78 C62.18 89.8, 91.43 58.36, 118.08 28.44 M42.76 127.27 C62.42 101.68, 84.85 78.22, 123.46 34.44 M42.76 127.27 C70.47 95.6, 98.36 62.76, 123.46 34.44 M51.42 129.5 C69.73 108.17, 84.23 89.25, 128.84 40.45 M51.42 129.5 C76.74 101, 100.25 71.82, 128.84 40.45 M60.74 130.98 C79.53 111.41, 95.91 92.27, 130.28 50.98 M60.74 130.98 C86.3 102.52, 112.81 73.01, 130.28 50.98 M70.72 131.7 C92.12 106.98, 115.56 81.45, 131.73 61.51 M70.72 131.7 C88.44 111.94, 106.33 90.41, 131.73 61.51 M85.94 126.38 C97.17 113.57, 110.53 101.27, 133.83 71.29 M85.94 126.38 C97.41 114.31, 107.79 101.31, 133.83 71.29 M100.5 121.82 C111.27 108.85, 122.62 98.38, 129.37 88.61 M100.5 121.82 C108.87 112.45, 116.73 101.6, 129.37 88.61" stroke="#ffc9c9" stroke-width="1" fill="none"></path><path d="M44.68 2.85 C53.63 -0.69, 67.22 0.01, 77.09 1.85 C86.96 3.69, 95.93 7.94, 103.91 13.9 C111.88 19.85, 120.73 28.64, 124.94 37.59 C129.15 46.54, 129.72 57.34, 129.15 67.6 C128.57 77.85, 126.5 90.27, 121.47 99.13 C116.45 107.98, 107.53 115.41, 98.97 120.72 C90.42 126.03, 80.04 130.28, 70.14 130.99 C60.23 131.7, 48.88 129.18, 39.56 125 C30.25 120.82, 20.54 113.76, 14.22 105.92 C7.91 98.07, 3.61 87.85, 1.65 77.95 C-0.31 68.05, -0.52 56.18, 2.45 46.51 C5.42 36.84, 10.33 27.61, 19.46 19.94 C28.6 12.27, 49 3.57, 57.26 0.47 C65.52 -2.64, 69.06 0.31, 69.01 1.32 M96.75 7.04 C106.11 10.85, 114.63 20.21, 119.93 28.73 C125.23 37.26, 127.48 48.47, 128.53 58.18 C129.59 67.9, 129.41 77.56, 126.27 87.04 C123.13 96.52, 117.1 108.33, 109.68 115.08 C102.26 121.82, 91.73 125.18, 81.73 127.54 C71.72 129.89, 59.56 131.31, 49.65 129.2 C39.75 127.08, 29.86 121.88, 22.29 114.85 C14.73 107.82, 8.1 96.5, 4.26 87.01 C0.41 77.52, -1.87 67.94, -0.78 57.9 C0.31 47.87, 4.82 35.1, 10.81 26.81 C16.8 18.52, 25.91 12.67, 35.16 8.16 C44.42 3.65, 56.15 -0.28, 66.32 -0.25 C76.48 -0.21, 91.56 6.89, 96.17 8.37 C100.78 9.84, 94.68 7.58, 93.97 8.59" stroke="#e03131" stroke-width="2" fill="none"></path></g><g transform="translate(65.74642424145395 138.6391404403812) rotate(0 9.319992065429688 12.5)"><text x="9.319992065429688" y="17.52" font-family="Virgil, Segoe UI Emoji" font-size="20px" fill="#e03131" text-anchor="middle" style="white-space: pre;" direction="ltr" dominant-baseline="alphabetic">P1</text></g><g stroke-linecap="round"><g transform="translate(362.8545393026193 32.90459312954499) rotate(0 -2.533444674623979 108.2046201021617)"><path d="M-0.26 -1.09 C-2.38 2.93, -13.79 16.93, -13.03 25.1 C-12.26 33.26, 4.07 39.67, 4.33 47.91 C4.59 56.16, -12.23 64.66, -11.48 74.58 C-10.72 84.5, 8.27 99.47, 8.86 107.43 C9.46 115.38, -7.98 114.29, -7.89 122.3 C-7.8 130.32, 9.6 147.35, 9.42 155.53 C9.23 163.71, -8.64 164.92, -9.02 171.4 C-9.39 177.89, 7.64 186.8, 7.16 194.43 C6.69 202.05, -8.8 213.32, -11.84 217.15 M1.8 0.96 C-0.36 5.07, -14.34 18.96, -13.5 26.49 C-12.66 34.03, 6.46 37.97, 6.83 46.17 C7.2 54.38, -11.36 65.54, -11.27 75.71 C-11.18 85.89, 7.17 99.05, 7.39 107.2 C7.61 115.36, -10.45 116.78, -9.96 124.63 C-9.47 132.47, 10.26 146.58, 10.35 154.27 C10.43 161.95, -8.72 163.72, -9.45 170.74 C-10.19 177.76, 6.29 188.68, 5.93 196.4 C5.56 204.13, -8.83 213.95, -11.64 217.09" stroke="#1e1e1e" stroke-width="2" fill="none"></path></g></g><mask></mask><g transform="translate(38.026863927008435 50.320136028211664) rotate(0 37.06995391845703 12.5)"><text x="0" y="17.52" font-family="Virgil, Segoe UI Emoji" font-size="20px" fill="#e03131" text-anchor="start" style="white-space: pre;" direction="ltr" dominant-baseline="alphabetic">Prim치rio</text></g><g transform="translate(423.68110992700895 39.56673302821173) rotate(0 50.24994659423828 12.5)"><text x="0" y="17.52" font-family="Virgil, Segoe UI Emoji" font-size="20px" fill="#1971c2" text-anchor="start" style="white-space: pre;" direction="ltr" dominant-baseline="alphabetic">Secund치rio</text></g><g stroke-linecap="round"><g transform="translate(421.30359113538407 53.6011037566991) rotate(0 50.59570897783192 0.2818702450018691)"><path d="M0 0 C16.87 0.09, 84.33 0.47, 101.19 0.56 M0 0 C16.87 0.09, 84.33 0.47, 101.19 0.56" stroke="#e03131" stroke-width="2" fill="none"></path></g></g><mask></mask><g transform="translate(435.6723439270081 61.073539028211826) rotate(0 37.06995391845703 12.5)"><text x="0" y="17.52" font-family="Virgil, Segoe UI Emoji" font-size="20px" fill="#e03131" text-anchor="start" style="white-space: pre;" direction="ltr" dominant-baseline="alphabetic">Prim치rio</text></g><g transform="translate(196.27905092700894 50.320136028211664) rotate(0 50.24994659423828 12.5)"><text x="0" y="17.52" font-family="Virgil, Segoe UI Emoji" font-size="20px" fill="#1971c2" text-anchor="start" style="white-space: pre;" direction="ltr" dominant-baseline="alphabetic">Secund치rio</text></g><g transform="translate(67.82682119506899 227.01894783864873) rotate(0 7.269996643066406 37.5)"><text x="0" y="17.52" font-family="Virgil, Segoe UI Emoji" font-size="20px" fill="#1e1e1e" text-anchor="start" style="white-space: pre;" direction="ltr" dominant-baseline="alphabetic">A</text><text x="0" y="42.519999999999996" font-family="Virgil, Segoe UI Emoji" font-size="20px" fill="#1e1e1e" text-anchor="start" style="white-space: pre;" direction="ltr" dominant-baseline="alphabetic">B</text><text x="0" y="67.52" font-family="Virgil, Segoe UI Emoji" font-size="20px" fill="#1e1e1e" text-anchor="start" style="white-space: pre;" direction="ltr" dominant-baseline="alphabetic">C</text></g><g transform="translate(239.25900119506923 227.01894783864873) rotate(0 7.799995422363281 37.5)"><text x="0" y="17.52" font-family="Virgil, Segoe UI Emoji" font-size="20px" fill="#1e1e1e" text-anchor="start" style="white-space: pre;" direction="ltr" dominant-baseline="alphabetic">B</text><text x="0" y="42.519999999999996" font-family="Virgil, Segoe UI Emoji" font-size="20px" fill="#1e1e1e" text-anchor="start" style="white-space: pre;" direction="ltr" dominant-baseline="alphabetic">C</text><text x="0" y="67.52" font-family="Virgil, Segoe UI Emoji" font-size="20px" fill="#1e1e1e" text-anchor="start" style="white-space: pre;" direction="ltr" dominant-baseline="alphabetic">D</text></g><g transform="translate(465.47230019506924 227.01894783864873) rotate(0 7.269996643066406 37.5)"><text x="0" y="17.52" font-family="Virgil, Segoe UI Emoji" font-size="20px" fill="#1e1e1e" text-anchor="start" style="white-space: pre;" direction="ltr" dominant-baseline="alphabetic">E</text><text x="0" y="42.519999999999996" font-family="Virgil, Segoe UI Emoji" font-size="20px" fill="#1e1e1e" text-anchor="start" style="white-space: pre;" direction="ltr" dominant-baseline="alphabetic">B</text><text x="0" y="67.52" font-family="Virgil, Segoe UI Emoji" font-size="20px" fill="#1e1e1e" text-anchor="start" style="white-space: pre;" direction="ltr" dominant-baseline="alphabetic">C</text></g><g stroke-linecap="round" transform="translate(60.70062706441968 247.9267273843725) rotate(0 14.396190701614842 14.396190701614955)"><path d="M28.79 14.4 C28.79 15.23, 28.72 16.08, 28.57 16.9 C28.43 17.72, 28.21 18.54, 27.92 19.32 C27.64 20.1, 27.28 20.87, 26.86 21.59 C26.45 22.32, 25.96 23.01, 25.42 23.65 C24.89 24.29, 24.29 24.89, 23.65 25.42 C23.01 25.96, 22.32 26.45, 21.59 26.86 C20.87 27.28, 20.1 27.64, 19.32 27.92 C18.54 28.21, 17.72 28.43, 16.9 28.57 C16.08 28.72, 15.23 28.79, 14.4 28.79 C13.56 28.79, 12.72 28.72, 11.9 28.57 C11.08 28.43, 10.26 28.21, 9.47 27.92 C8.69 27.64, 7.92 27.28, 7.2 26.86 C6.48 26.45, 5.78 25.96, 5.14 25.42 C4.5 24.89, 3.9 24.29, 3.37 23.65 C2.83 23.01, 2.35 22.32, 1.93 21.59 C1.51 20.87, 1.15 20.1, 0.87 19.32 C0.58 18.54, 0.36 17.72, 0.22 16.9 C0.07 16.08, 0 15.23, 0 14.4 C0 13.56, 0.07 12.72, 0.22 11.9 C0.36 11.08, 0.58 10.26, 0.87 9.47 C1.15 8.69, 1.51 7.92, 1.93 7.2 C2.35 6.48, 2.83 5.78, 3.37 5.14 C3.9 4.5, 4.5 3.9, 5.14 3.37 C5.78 2.83, 6.48 2.35, 7.2 1.93 C7.92 1.51, 8.69 1.15, 9.47 0.87 C10.26 0.58, 11.08 0.36, 11.9 0.22 C12.72 0.07, 13.56 0, 14.4 0 C15.23 0, 16.08 0.07, 16.9 0.22 C17.72 0.36, 18.54 0.58, 19.32 0.87 C20.1 1.15, 20.87 1.51, 21.59 1.93 C22.32 2.35, 23.01 2.83, 23.65 3.37 C24.29 3.9, 24.89 4.5, 25.42 5.14 C25.96 5.78, 26.45 6.48, 26.86 7.2 C27.28 7.92, 27.64 8.69, 27.92 9.47 C28.21 10.26, 28.43 11.08, 28.57 11.9 C28.72 12.72, 28.76 13.98, 28.79 14.4 C28.83 14.81, 28.83 13.98, 28.79 14.4" stroke="#1971c2" stroke-width="2" fill="none"></path></g><g transform="translate(27.18483737166298 28.813329902855912) rotate(0 47.91197967529297 10)"><text x="0" y="14.016" font-family="Virgil, Segoe UI Emoji" font-size="16px" fill="#1971c2" text-anchor="start" style="white-space: pre;" direction="ltr" dominant-baseline="alphabetic">B = 1,127,OK</text></g><g stroke-linecap="round"><g transform="translate(117.56084096387303 51.73823743685489) rotate(0 39.3757136452557 26.267597984794634)"><path d="M0 0 C5.03 4.24, 17.05 16.66, 30.17 25.42 C43.3 34.18, 70.65 48.02, 78.75 52.54 M0 0 C5.03 4.24, 17.05 16.66, 30.17 25.42 C43.3 34.18, 70.65 48.02, 78.75 52.54" stroke="#1971c2" stroke-width="2" fill="none"></path></g><g transform="translate(117.56084096387303 51.73823743685489) rotate(0 39.3757136452557 26.267597984794634)"><path d="M54 49 C59.99 49.85, 65.98 50.71, 78.75 52.54 M54 49 C61.18 50.02, 68.35 51.05, 78.75 52.54" stroke="#1971c2" stroke-width="2" fill="none"></path></g><g transform="translate(117.56084096387303 51.73823743685489) rotate(0 39.3757136452557 26.267597984794634)"><path d="M62.07 33.92 C66.11 38.42, 70.14 42.93, 78.75 52.54 M62.07 33.92 C66.9 39.31, 71.74 44.71, 78.75 52.54" stroke="#1971c2" stroke-width="2" fill="none"></path></g></g><mask></mask><g transform="translate(199.14701737166297 28.813329902855912) rotate(0 47.91197967529297 10)"><text x="0" y="14.016" font-family="Virgil, Segoe UI Emoji" font-size="16px" fill="#1971c2" text-anchor="start" style="white-space: pre;" direction="ltr" dominant-baseline="alphabetic">B = 1,127,OK</text></g><g transform="translate(401.2003273716632 15.907039902855786) rotate(0 72.07196807861328 10)"><text x="0" y="14.016" font-family="Virgil, Segoe UI Emoji" font-size="16px" fill="#e03131" text-anchor="start" style="white-space: pre;" direction="ltr" dominant-baseline="alphabetic">E = 1,666,NOT OK</text></g><g stroke-linecap="round"><g transform="translate(130.44551390358947 29.32219346267152) rotate(0 114.73278728600962 -6.748987487412364)"><path d="M0 0 C19.28 -3.21, 77.45 -20.25, 115.7 -19.28 C153.94 -18.32, 210.5 1.61, 229.47 5.78 M0 0 C19.28 -3.21, 77.45 -20.25, 115.7 -19.28 C153.94 -18.32, 210.5 1.61, 229.47 5.78" stroke="#1971c2" stroke-width="2" fill="none"></path></g><g transform="translate(130.44551390358947 29.32219346267152) rotate(0 114.73278728600962 -6.748987487412364)"><path d="M204.55 7.8 C212.53 7.15, 220.51 6.51, 229.47 5.78 M204.55 7.8 C211.89 7.2, 219.23 6.61, 229.47 5.78" stroke="#1971c2" stroke-width="2" fill="none"></path></g><g transform="translate(130.44551390358947 29.32219346267152) rotate(0 114.73278728600962 -6.748987487412364)"><path d="M209.08 -8.69 C215.61 -4.06, 222.14 0.58, 229.47 5.78 M209.08 -8.69 C215.09 -4.43, 221.1 -0.16, 229.47 5.78" stroke="#1971c2" stroke-width="2" fill="none"></path></g></g><mask></mask><g transform="translate(365.69188705078477 25.907039572437952) rotate(0 5.3359375 9.200000000000045)"><text x="0" y="14.720312499999999" font-family="Helvetica, Segoe UI Emoji" font-size="16px" fill="#e03131" text-anchor="start" style="white-space: pre;" direction="ltr" dominant-baseline="alphabetic">X</text></g><g stroke-linecap="round" transform="translate(458.3461064895314 223.70333772458343) rotate(0 14.396190701615069 14.396190701614955)"><path d="M28.79 14.4 C28.79 15.23, 28.72 16.08, 28.57 16.9 C28.43 17.72, 28.21 18.54, 27.92 19.32 C27.64 20.1, 27.28 20.87, 26.86 21.59 C26.45 22.32, 25.96 23.01, 25.42 23.65 C24.89 24.29, 24.29 24.89, 23.65 25.42 C23.01 25.96, 22.32 26.45, 21.59 26.86 C20.87 27.28, 20.1 27.64, 19.32 27.92 C18.54 28.21, 17.72 28.43, 16.9 28.57 C16.08 28.72, 15.23 28.79, 14.4 28.79 C13.56 28.79, 12.72 28.72, 11.9 28.57 C11.08 28.43, 10.26 28.21, 9.47 27.92 C8.69 27.64, 7.92 27.28, 7.2 26.86 C6.48 26.45, 5.78 25.96, 5.14 25.42 C4.5 24.89, 3.9 24.29, 3.37 23.65 C2.83 23.01, 2.35 22.32, 1.93 21.59 C1.51 20.87, 1.15 20.1, 0.87 19.32 C0.58 18.54, 0.36 17.72, 0.22 16.9 C0.07 16.08, 0 15.23, 0 14.4 C0 13.56, 0.07 12.72, 0.22 11.9 C0.36 11.08, 0.58 10.26, 0.87 9.47 C1.15 8.69, 1.51 7.92, 1.93 7.2 C2.35 6.48, 2.83 5.78, 3.37 5.14 C3.9 4.5, 4.5 3.9, 5.14 3.37 C5.78 2.83, 6.48 2.35, 7.2 1.93 C7.92 1.51, 8.69 1.15, 9.47 0.87 C10.26 0.58, 11.08 0.36, 11.9 0.22 C12.72 0.07, 13.56 0, 14.4 0 C15.23 0, 16.08 0.07, 16.9 0.22 C17.72 0.36, 18.54 0.58, 19.32 0.87 C20.1 1.15, 20.87 1.51, 21.59 1.93 C22.32 2.35, 23.01 2.83, 23.65 3.37 C24.29 3.9, 24.89 4.5, 25.42 5.14 C25.96 5.78, 26.45 6.48, 26.86 7.2 C27.28 7.92, 27.64 8.69, 27.92 9.47 C28.21 10.26, 28.43 11.08, 28.57 11.9 C28.72 12.72, 28.76 13.98, 28.79 14.4 C28.83 14.81, 28.83 13.98, 28.79 14.4" stroke="#e03131" stroke-width="2" fill="none"></path></g></svg>