<svg version="1.1" xmlns="http://www.w3.org/2000/svg" viewBox="0 0 588.8519099938449 302.6944005595851" width="588.8519099938449" height="302.6944005595851">
  <!-- svg-source:excalidraw -->
  
  <defs>
    <style class="style-fonts">
      @font-face {
        font-family: "Virgil";
        src: url("https://excalidraw.com/Virgil.woff2");
      }
      @font-face {
        font-family: "Cascadia";
        src: url("https://excalidraw.com/Cascadia.woff2");
      }
      @font-face {
        font-family: "Assistant";
        src: url("https://excalidraw.com/Assistant-Regular.woff2");
      }
    </style>
    
  </defs>
  <g stroke-linecap="round"><g transform="translate(10.763711984590827 37.90630621240052) rotate(0 67.61051891951183 0)"><path d="M0.76 -0.01 C23.03 0.19, 111.89 0.69, 134.2 0.65 M-0.29 -1.07 C22.28 -1.16, 114.07 -1.47, 136.37 -1.13" stroke="#1e1e1e" stroke-width="2" fill="none"></path></g></g><mask></mask><g transform="translate(54.936502334266606 10) rotate(0 23.4375 12)"><text x="23.4375" y="0" font-family="Cascadia, Segoe UI Emoji" font-size="20px" fill="#1e1e1e" text-anchor="middle" style="white-space: pre;" direction="ltr" dominant-baseline="text-before-edge">W(0)</text></g><g stroke-linecap="round"><g transform="translate(170.70983440123337 97.9130641772299) rotate(0 37.357412215644445 0)"><path d="M-0.63 -0.23 C11.94 -0.29, 61.95 0.28, 74.41 0.28 M1.24 -1.39 C13.72 -1.89, 61.33 -2.08, 73.3 -1.69" stroke="#1e1e1e" stroke-width="2" fill="none"></path></g></g><mask></mask><g transform="translate(185.04601170244632 69.71561006741285) rotate(0 23.4375 12)"><text x="23.4375" y="0" font-family="Cascadia, Segoe UI Emoji" font-size="20px" fill="#1e1e1e" text-anchor="middle" style="white-space: pre;" direction="ltr" dominant-baseline="text-before-edge">R(0)</text></g><g stroke-linecap="round"><g transform="translate(10.583062950894146 291.7678107410675) rotate(0 280.14605431125347 0)"><path d="M-0.58 -0.23 C92.76 -0.13, 466.16 1.01, 559.78 0.92 M1.31 -1.4 C94.48 -1.64, 465.31 -0.97, 558.56 -0.72" stroke="#1e1e1e" stroke-width="2" fill="none"></path></g><g transform="translate(10.583062950894146 291.7678107410675) rotate(0 280.14605431125347 0)"><path d="M535.05 7.78 C541.09 4.7, 549.47 4.64, 558.56 -0.72 M535.05 7.78 C539.7 5.1, 545.13 4.41, 558.56 -0.72" stroke="#1e1e1e" stroke-width="2" fill="none"></path></g><g transform="translate(10.583062950894146 291.7678107410675) rotate(0 280.14605431125347 0)"><path d="M535.08 -9.32 C541.16 -7.7, 549.53 -3.07, 558.56 -0.72 M535.08 -9.32 C539.65 -8, 545.07 -4.68, 558.56 -0.72" stroke="#1e1e1e" stroke-width="2" fill="none"></path></g></g><mask></mask><g transform="translate(561.2670781701486 249.7777151918708) rotate(0 8.792415911848138 19.452251094859093)"><text x="8.792415911848067" y="0" font-family="Virgil, Segoe UI Emoji" font-size="31.12360175177456px" fill="#1e1e1e" text-anchor="middle" style="white-space: pre;" direction="ltr" dominant-baseline="text-before-edge">t</text></g><g stroke-linecap="round"><g transform="translate(256.263658487725 142.97099926581723) rotate(0 37.357412215644445 0)"><path d="M0.85 -0.79 C13.28 -0.86, 61.98 0.52, 74.12 0.53 M-0.17 1.41 C12.71 0.9, 63.82 -1.12, 76.52 -1.31" stroke="#1e1e1e" stroke-width="2" fill="none"></path></g></g><mask></mask><g transform="translate(270.05448578893765 114.26407315599954) rotate(0 23.4375 12)"><text x="23.4375" y="0" font-family="Cascadia, Segoe UI Emoji" font-size="20px" fill="#1e1e1e" text-anchor="middle" style="white-space: pre;" direction="ltr" dominant-baseline="text-before-edge">R(1)</text></g><g stroke-linecap="round"><g transform="translate(290.5195730610244 37.90630647878152) rotate(0 67.61051891951183 0)"><path d="M-1.06 -0.71 C21.38 -0.65, 111.37 0.8, 134.07 0.85 M0.58 1.54 C23.42 1.21, 113.89 -0.68, 136.17 -0.82" stroke="#1e1e1e" stroke-width="2" fill="none"></path></g></g><mask></mask><g transform="translate(334.69236341069836 10.000000266380994) rotate(0 23.4375 12)"><text x="23.4375" y="0" font-family="Cascadia, Segoe UI Emoji" font-size="20px" fill="#1e1e1e" text-anchor="middle" style="white-space: pre;" direction="ltr" dominant-baseline="text-before-edge">W(1)</text></g><g stroke-linecap="round"><g transform="translate(359.25046492667343 187.5565678720227) rotate(0 37.357412215644445 0)"><path d="M-0.1 -0.4 C12.4 -0.71, 61.31 -0.95, 73.85 -1.01 M-1.62 -1.66 C11.36 -1.93, 63.4 -0.31, 76.11 0" stroke="#1e1e1e" stroke-width="2" fill="none"></path></g></g><mask></mask><g transform="translate(373.04129222788606 158.849641762205) rotate(0 23.4375 12)"><text x="23.4375" y="0" font-family="Cascadia, Segoe UI Emoji" font-size="20px" fill="#1e1e1e" text-anchor="middle" style="white-space: pre;" direction="ltr" dominant-baseline="text-before-edge">R(0)</text></g><g stroke-linecap="round"><g transform="translate(459.2401842153281 229.73305880350017) rotate(0 37.357412215644445 0)"><path d="M0.47 -0.74 C13.05 -0.47, 62.09 0.4, 74.65 0.62 M-0.75 1.48 C11.75 1.49, 60.93 -0.69, 73.67 -1.18" stroke="#1e1e1e" stroke-width="2" fill="none"></path></g></g><mask></mask><g transform="translate(473.03101151654073 201.02613269368248) rotate(0 23.4375 12)"><text x="23.4375" y="0" font-family="Cascadia, Segoe UI Emoji" font-size="20px" fill="#1e1e1e" text-anchor="middle" style="white-space: pre;" direction="ltr" dominant-baseline="text-before-edge">R(1)</text></g></svg>