<svg version="1.1" xmlns="http://www.w3.org/2000/svg" viewBox="0 0 556.0890702631245 256.1634454933237" width="556.0890702631245" height="256.1634454933237">
  <!-- svg-source:excalidraw -->
  
  <defs>
    <style class="style-fonts">
      @font-face {
        font-family: "Virgil";
        src: url("https://excalidraw.com/Virgil.woff2");
      }
      @font-face {
        font-family: "Cascadia";
        src: url("https://excalidraw.com/Cascadia.woff2");
      }
      @font-face {
        font-family: "Assistant";
        src: url("https://excalidraw.com/Assistant-Regular.woff2");
      }
    </style>
    
  </defs>
  <g stroke-linecap="round"><g transform="translate(143.3672189383742 100.32472719793759) rotate(0 196.96892291952167 0)"><path d="M0.59 -0.63 C66.31 -0.85, 329.15 -0.74, 394.78 -0.75 M-0.56 1.65 C65.04 1.52, 328.54 0.62, 394.27 0.4" stroke="#1e1e1e" stroke-width="2" fill="none"></path></g></g><mask></mask><g transform="translate(103.74999960261448 87.73212283351813) rotate(0 11.71875 12)"><text x="0" y="0" font-family="Cascadia, Segoe UI Emoji" font-size="20px" fill="#1e1e1e" text-anchor="start" style="white-space: pre;" direction="ltr" dominant-baseline="text-before-edge">r2</text></g><g stroke-linecap="round"><g transform="translate(143.3672189383742 152.25268419793747) rotate(0 196.50633453018872 0)"><path d="M0.42 -0.67 C65.84 -0.43, 328.07 0.69, 393.35 0.73 M-0.82 1.59 C64.4 1.56, 326.69 -0.85, 392.58 -1.01" stroke="#1e1e1e" stroke-width="2" fill="none"></path></g></g><mask></mask><g transform="translate(103.74999960261448 139.660079833518) rotate(0 11.71875 12)"><text x="0" y="0" font-family="Cascadia, Segoe UI Emoji" font-size="20px" fill="#1e1e1e" text-anchor="start" style="white-space: pre;" direction="ltr" dominant-baseline="text-before-edge">r3</text></g><g stroke-linecap="round"><g transform="translate(144.98223573277028 38.9113089267762) rotate(0 197.78047388498908 0)"><path d="M-0.93 -0.48 C64.79 -0.6, 328.55 -0.14, 394.64 0.03 M0.79 -1.78 C66.85 -1.75, 331.19 1.54, 396.87 1.58" stroke="#1e1e1e" stroke-width="2" fill="none"></path></g></g><mask></mask><g transform="translate(103.74999914493674 27.101404562356493) rotate(0 11.71875 12)"><text x="0" y="0" font-family="Cascadia, Segoe UI Emoji" font-size="20px" fill="#1e1e1e" text-anchor="start" style="white-space: pre;" direction="ltr" dominant-baseline="text-before-edge">r1</text></g><g stroke-linecap="round"><g transform="translate(143.61590833575974 217.15881248632422) rotate(0 196.15069563682937 0)"><path d="M0.05 0.52 C65.69 0.4, 327.74 -0.54, 392.91 -0.66 M-1.38 -0.25 C64.23 -0.22, 326.49 0.32, 392.29 0.54" stroke="#1e1e1e" stroke-width="2" fill="none"></path></g></g><mask></mask><g transform="translate(10 204.59577512190617) rotate(0 58.59375 12)"><text x="0" y="0" font-family="Cascadia, Segoe UI Emoji" font-size="20px" fill="#1e1e1e" text-anchor="start" style="white-space: pre;" direction="ltr" dominant-baseline="text-before-edge">Cliente_R1</text></g><g transform="translate(143.44360452400088 69.75010493969012) rotate(0 11.71875 12)"><text x="0" y="0" font-family="Cascadia, Segoe UI Emoji" font-size="20px" fill="#1e1e1e" text-anchor="start" style="white-space: pre;" direction="ltr" dominant-baseline="text-before-edge">v0</text></g><g transform="translate(143.44360410938953 124.03878391533863) rotate(0 11.71875 12)"><text x="0" y="0" font-family="Cascadia, Segoe UI Emoji" font-size="20px" fill="#1e1e1e" text-anchor="start" style="white-space: pre;" direction="ltr" dominant-baseline="text-before-edge">v0</text></g><g transform="translate(142.487528143316 10.000000565064056) rotate(0 11.71875 12)"><text x="0" y="0" font-family="Cascadia, Segoe UI Emoji" font-size="20px" fill="#1e1e1e" text-anchor="start" style="white-space: pre;" direction="ltr" dominant-baseline="text-before-edge">v0</text></g><g stroke-linecap="round"><g transform="translate(157.56634455250833 212.49085936170104) rotate(0 12.677193581699157 -29.213676984546055)"><path d="M0.53 1.01 C4.77 -8.8, 21.32 -49.08, 25.43 -58.98 M-0.65 0.49 C3.43 -9.15, 20.35 -48.14, 24.52 -57.74" stroke="#2f9e44" stroke-width="2" fill="none"></path></g><g transform="translate(157.56634455250833 212.49085936170104) rotate(0 12.677193581699157 -29.213676984546055)"><path d="M24.42 -57.72 L25.86 -42.16 L14.64 -46.35 L23.34 -56.46" stroke="none" stroke-width="0" fill="#2f9e44" fill-rule="evenodd"></path><path d="M24.52 -57.74 C25.88 -53.13, 24.05 -48.92, 24.92 -42.74 M24.52 -57.74 C24.46 -52.71, 24.18 -48.24, 24.92 -42.74 M24.92 -42.74 C21.55 -43.9, 16.65 -45.92, 13.29 -47.79 M24.92 -42.74 C21.34 -43.79, 17.95 -46.14, 13.29 -47.79 M13.29 -47.79 C17.17 -49.36, 20.02 -53.32, 24.52 -57.74 M13.29 -47.79 C16.84 -51.06, 20.93 -54.35, 24.52 -57.74 M24.52 -57.74 C24.52 -57.74, 24.52 -57.74, 24.52 -57.74 M24.52 -57.74 C24.52 -57.74, 24.52 -57.74, 24.52 -57.74" stroke="#2f9e44" stroke-width="2" fill="none"></path></g></g><mask></mask><g stroke-linecap="round" transform="translate(154.8198823466082 214.04854656869793) rotate(0 177.5297889578069 3.108544317984979)"><path d="M1.55 0 C80.65 1.29, 158.31 -0.21, 353.51 0 C353.63 1.02, 354.94 2.08, 355.06 1.55 C354.74 2.01, 354.9 3.06, 355.06 4.66 C357 3.59, 352.1 4.21, 353.51 6.22 C249.13 9.09, 146.76 8.1, 1.55 6.22 C2.5 5.27, -2.53 7.73, 0 4.66 C-0.13 3.89, -0.18 2.31, 0 1.55 C1.57 1.81, 1.27 0.22, 1.55 0" stroke="none" stroke-width="0" fill="#b2f2bb"></path><path d="M1.55 0 C99.57 0.73, 198.32 0.7, 353.51 0 M1.55 0 C95.54 -0.24, 190.02 -0.08, 353.51 0 M353.51 0 C354.92 0.17, 355.55 0.76, 355.06 1.55 M353.51 0 C353.72 -0.21, 354.72 -0.37, 355.06 1.55 M355.06 1.55 C355.05 2.5, 354.94 3.18, 355.06 4.66 M355.06 1.55 C355.11 2.34, 355.13 3.09, 355.06 4.66 M355.06 4.66 C355.7 4.98, 353.94 6.71, 353.51 6.22 M355.06 4.66 C355.46 6.1, 355.22 7.27, 353.51 6.22 M353.51 6.22 C226.17 7.02, 99.53 6.95, 1.55 6.22 M353.51 6.22 C245.78 6.94, 137.95 7.38, 1.55 6.22 M1.55 6.22 C0.48 6.36, 0.77 5.53, 0 4.66 M1.55 6.22 C0.45 6.14, 1.08 6.36, 0 4.66 M0 4.66 C0.06 3.59, 0.05 2.71, 0 1.55 M0 4.66 C-0.04 3.76, 0.04 2.98, 0 1.55 M0 1.55 C-0.95 0.54, 0.91 0.19, 1.55 0 M0 1.55 C-0.33 0.44, 0.41 0.92, 1.55 0" stroke="#2f9e44" stroke-width="2" fill="none"></path></g><g stroke-linecap="round"><g transform="translate(325.2192982910451 212.5933906167479) rotate(0 13.848015712430879 -29.26494261206949)"><path d="M0.93 -0.64 C5.72 -10.2, 24.14 -48.4, 28.5 -58.09 M-0.04 1.64 C4.69 -8.23, 23.64 -50.1, 27.97 -59.98" stroke="#2f9e44" stroke-width="2" fill="none"></path></g><g transform="translate(325.2192982910451 212.5933906167479) rotate(0 13.848015712430879 -29.26494261206949)"><path d="M28.32 -60.89 L28.75 -45.04 L17.86 -50.19 L29.8 -61.28" stroke="none" stroke-width="0" fill="#2f9e44" fill-rule="evenodd"></path><path d="M27.97 -59.98 C27.16 -54.79, 28.57 -52.38, 28.21 -44.99 M27.97 -59.98 C28.13 -55.15, 28.47 -52.13, 28.21 -44.99 M28.21 -44.99 C24.83 -47.19, 19.77 -49.78, 16.64 -50.16 M28.21 -44.99 C25.93 -45.66, 23.23 -47.77, 16.64 -50.16 M16.64 -50.16 C19.3 -52.04, 23.63 -54.86, 27.97 -59.98 M16.64 -50.16 C19.21 -53.25, 23.01 -55.49, 27.97 -59.98 M27.97 -59.98 C27.97 -59.98, 27.97 -59.98, 27.97 -59.98 M27.97 -59.98 C27.97 -59.98, 27.97 -59.98, 27.97 -59.98" stroke="#2f9e44" stroke-width="2" fill="none"></path></g></g><mask></mask><g stroke-linecap="round"><g transform="translate(325.9842682461749 213.5069085779237) rotate(0 38.239780525412016 -54.83943745465672)"><path d="M0.8 0.44 C13.29 -17.78, 63.33 -91.63, 75.87 -109.95 M-0.23 -0.38 C12.57 -18.36, 65.72 -90.61, 78.26 -108.56" stroke="#2f9e44" stroke-width="2" fill="none"></path></g><g transform="translate(325.9842682461749 213.5069085779237) rotate(0 38.239780525412016 -54.83943745465672)"><path d="M78.8 -108.61 L76.69 -93.85 L67 -102.52 L79.54 -110.01" stroke="none" stroke-width="0" fill="#2f9e44" fill-rule="evenodd"></path><path d="M78.26 -108.56 C77.67 -103.74, 75.73 -97.98, 75.46 -93.82 M78.26 -108.56 C77.83 -104.34, 76.98 -99.93, 75.46 -93.82 M75.46 -93.82 C71.96 -97.33, 67.85 -97.6, 65.17 -101.23 M75.46 -93.82 C73.17 -95.95, 70.16 -97.54, 65.17 -101.23 M65.17 -101.23 C69.33 -102.51, 71.7 -104.29, 78.26 -108.56 M65.17 -101.23 C69.56 -103.45, 73.45 -105.48, 78.26 -108.56 M78.26 -108.56 C78.26 -108.56, 78.26 -108.56, 78.26 -108.56 M78.26 -108.56 C78.26 -108.56, 78.26 -108.56, 78.26 -108.56" stroke="#2f9e44" stroke-width="2" fill="none"></path></g></g><mask></mask><g transform="translate(123.02442863198212 226.9634451880379) rotate(0 32.8125 9.599999999999909)"><text x="32.8125" y="0" font-family="Cascadia, Segoe UI Emoji" font-size="16px" fill="#2f9e44" text-anchor="middle" style="white-space: pre;" direction="ltr" dominant-baseline="text-before-edge">Put(V1)</text></g><g stroke-linecap="round"><g transform="translate(235.30090494304386 101.30139320780336) rotate(0 13.184770841821091 55.34036244373624)"><path d="M-0.59 0.83 C3.82 19.43, 21.14 92.08, 25.71 110.41 M1.3 0.22 C6.18 19.1, 23.91 93.15, 28.07 111.8" stroke="#2f9e44" stroke-width="2" fill="none"></path></g><g transform="translate(235.30090494304386 101.30139320780336) rotate(0 13.184770841821091 55.34036244373624)"><path d="M29.5 111.1 L19.59 98.61 L31.84 97.37 L28.25 110.61" stroke="none" stroke-width="0" fill="#2f9e44" fill-rule="evenodd"></path><path d="M28.07 111.8 C27.06 108.16, 23.51 106.77, 18.82 100 M28.07 111.8 C25.2 107.58, 22.75 104.36, 18.82 100 M18.82 100 C20.67 99.55, 24.38 99.38, 31.16 97.12 M18.82 100 C22.56 99.33, 24.63 98.41, 31.16 97.12 M31.16 97.12 C31.19 101.25, 28.77 103.96, 28.07 111.8 M31.16 97.12 C30.7 100.81, 29.89 104.7, 28.07 111.8 M28.07 111.8 C28.07 111.8, 28.07 111.8, 28.07 111.8 M28.07 111.8 C28.07 111.8, 28.07 111.8, 28.07 111.8" stroke="#2f9e44" stroke-width="2" fill="none"></path></g></g><mask></mask><g transform="translate(306.0403296675586 226.9634454933239) rotate(0 23.4375 9.599999999999909)"><text x="23.4375" y="0" font-family="Cascadia, Segoe UI Emoji" font-size="16px" fill="#2f9e44" text-anchor="middle" style="white-space: pre;" direction="ltr" dominant-baseline="text-before-edge">Retry</text></g><g transform="translate(172.0062496498249 124.03878472527958) rotate(0 11.71875 12)"><text x="0" y="0" font-family="Cascadia, Segoe UI Emoji" font-size="20px" fill="#1e1e1e" text-anchor="start" style="white-space: pre;" direction="ltr" dominant-baseline="text-before-edge">v1</text></g><g stroke-linecap="round"><g transform="translate(185.5596895519284 152.45277404570197) rotate(0 6.91518901159202 30.223996486031638)"><path d="M-0.39 -1.12 C1.88 9.24, 11.78 51.33, 14.01 61.51 M1.61 0.91 C3.7 11.02, 10.85 49.92, 13.15 59.95" stroke="#2f9e44" stroke-width="2" fill="none"></path></g><g transform="translate(185.5596895519284 152.45277404570197) rotate(0 6.91518901159202 30.223996486031638)"><path d="M14.92 58.49 L3.22 47.37 L15.44 44.48 L13.39 61.25" stroke="none" stroke-width="0" fill="#2f9e44" fill-rule="evenodd"></path><path d="M13.15 59.95 C8.87 56.15, 8.65 50.87, 4.22 47.89 M13.15 59.95 C10.24 56.05, 7.81 53.39, 4.22 47.89 M4.22 47.89 C8.86 48, 14.89 45.7, 16.65 45.36 M4.22 47.89 C8.27 47.69, 11.54 46.63, 16.65 45.36 M16.65 45.36 C15.59 49.5, 13.91 53.59, 13.15 59.95 M16.65 45.36 C15.56 51.04, 13.39 56.35, 13.15 59.95 M13.15 59.95 C13.15 59.95, 13.15 59.95, 13.15 59.95 M13.15 59.95 C13.15 59.95, 13.15 59.95, 13.15 59.95" stroke="#2f9e44" stroke-width="2" fill="none"></path></g></g><mask></mask><g transform="translate(204.99291648050212 192.59577407365668) rotate(0 14.0625 9.599999999999909)"><text x="14.0625" y="0" font-family="Cascadia, Segoe UI Emoji" font-size="16px" fill="#2f9e44" text-anchor="middle" style="white-space: pre;" direction="ltr" dominant-baseline="text-before-edge">ack</text></g><g transform="translate(271.3082274805024 192.59577407365623) rotate(0 14.0625 9.599999999999909)"><text x="14.0625" y="0" font-family="Cascadia, Segoe UI Emoji" font-size="16px" fill="#2f9e44" text-anchor="middle" style="white-space: pre;" direction="ltr" dominant-baseline="text-before-edge">ack</text></g><g stroke-linecap="round"><g transform="translate(156.9873835694143 212.61196831321558) rotate(0 63.010744121479775 -71.22120898905223)"><path d="M-0.67 -0.52 C20.27 -24.39, 103.73 -118.42, 124.95 -142.24 M1.18 1.81 C22.53 -22.51, 106.26 -120.19, 127.09 -144.25" stroke="#2f9e44" stroke-width="2" fill="none"></path></g><g transform="translate(156.9873835694143 212.61196831321558) rotate(0 63.010744121479775 -71.22120898905223)"><path d="M126.85 -144.71 L122.17 -128.82 L113.41 -138.04 L128.99 -146.13" stroke="none" stroke-width="0" fill="#2f9e44" fill-rule="evenodd"></path><path d="M127.09 -144.25 C125.56 -142.1, 125.48 -136.48, 123.03 -129.82 M127.09 -144.25 C125.5 -141.81, 125.92 -137.55, 123.03 -129.82 M123.03 -129.82 C120.18 -130.75, 118.05 -133.37, 113.42 -138.09 M123.03 -129.82 C119.79 -132.92, 116.71 -135.07, 113.42 -138.09 M113.42 -138.09 C119.18 -141.3, 121.79 -142.82, 127.09 -144.25 M113.42 -138.09 C117.03 -140.01, 119.13 -141.3, 127.09 -144.25 M127.09 -144.25 C127.09 -144.25, 127.09 -144.25, 127.09 -144.25 M127.09 -144.25 C127.09 -144.25, 127.09 -144.25, 127.09 -144.25" stroke="#2f9e44" stroke-width="2" fill="none"></path></g></g><mask></mask><g transform="translate(285.3707275791703 44.357485275572344) rotate(0 5.859375 12)"><text x="0" y="0" font-family="Cascadia, Segoe UI Emoji" font-size="20px" fill="#e03131" text-anchor="start" style="white-space: pre;" direction="ltr" dominant-baseline="text-before-edge">X</text></g><g stroke-linecap="round"><g transform="translate(157.55822297512395 211.57453959392387) rotate(0 37.98167266093742 -54.835019962656816)"><path d="M0.05 -0.08 C12.66 -18.32, 62.11 -91.25, 74.86 -109.4 M-1.38 -1.16 C11.65 -19.8, 64.08 -93.09, 76.99 -111.39" stroke="#2f9e44" stroke-width="2" fill="none"></path></g><g transform="translate(157.55822297512395 211.57453959392387) rotate(0 37.98167266093742 -54.835019962656816)"><path d="M78.69 -111.5 L76.09 -96.73 L65.22 -105.77 L76.53 -113.05" stroke="none" stroke-width="0" fill="#2f9e44" fill-rule="evenodd"></path><path d="M76.99 -111.39 C76.26 -109.3, 76.06 -103.73, 74.28 -96.63 M76.99 -111.39 C76.61 -105.89, 75.08 -100.52, 74.28 -96.63 M74.28 -96.63 C70.41 -98.61, 66.54 -100.94, 63.94 -103.98 M74.28 -96.63 C70.36 -98.82, 67.28 -101.95, 63.94 -103.98 M63.94 -103.98 C67.51 -106.35, 71.53 -107.63, 76.99 -111.39 M63.94 -103.98 C67.05 -106.24, 70.81 -108.34, 76.99 -111.39 M76.99 -111.39 C76.99 -111.39, 76.99 -111.39, 76.99 -111.39 M76.99 -111.39 C76.99 -111.39, 76.99 -111.39, 76.99 -111.39" stroke="#2f9e44" stroke-width="2" fill="none"></path></g></g><mask></mask><g stroke-linecap="round"><g transform="translate(326.2694585847198 213.10056519478348) rotate(0 77.79280719759572 -85.79274325304027)"><path d="M-1.08 0.73 C24.87 -28.1, 129.72 -143.82, 155.88 -172.53 M0.56 0.06 C26.36 -28.67, 129.31 -143.11, 155.09 -171.48" stroke="#2f9e44" stroke-width="2" fill="none"></path></g><g transform="translate(326.2694585847198 213.10056519478348) rotate(0 77.79280719759572 -85.79274325304027)"><path d="M155.79 -171.51 L152.11 -158.59 L140.08 -164.67 L154.11 -169.79" stroke="none" stroke-width="0" fill="#2f9e44" fill-rule="evenodd"></path><path d="M155.09 -171.48 C154.66 -166.63, 151.18 -162.12, 150.68 -157.15 M155.09 -171.48 C154.22 -167.11, 152.28 -162.61, 150.68 -157.15 M150.68 -157.15 C148.79 -159.66, 146.58 -161.67, 141.27 -165.65 M150.68 -157.15 C147 -160.33, 143.36 -163.43, 141.27 -165.65 M141.27 -165.65 C147.88 -169.36, 153.42 -169.77, 155.09 -171.48 M141.27 -165.65 C146.73 -168.23, 151.9 -170.31, 155.09 -171.48 M155.09 -171.48 C155.09 -171.48, 155.09 -171.48, 155.09 -171.48 M155.09 -171.48 C155.09 -171.48, 155.09 -171.48, 155.09 -171.48" stroke="#2f9e44" stroke-width="2" fill="none"></path></g></g><mask></mask><g transform="translate(222.98857364167725 71.2883083439906) rotate(0 11.71875 12)"><text x="0" y="0" font-family="Cascadia, Segoe UI Emoji" font-size="20px" fill="#1e1e1e" text-anchor="start" style="white-space: pre;" direction="ltr" dominant-baseline="text-before-edge">v1</text></g><g transform="translate(470.4341723296584 10) rotate(0 11.71875 12)"><text x="0" y="0" font-family="Cascadia, Segoe UI Emoji" font-size="20px" fill="#1e1e1e" text-anchor="start" style="white-space: pre;" direction="ltr" dominant-baseline="text-before-edge">v1</text></g><g stroke-linecap="round"><g transform="translate(483.72683094304375 40.7543323132154) rotate(0 12.014375799587015 85.69076828145558)"><path d="M-0.29 -1.1 C3.4 27.67, 19.02 142.98, 23.23 171.62 M1.75 0.94 C5.73 29.41, 21.7 141.16, 25.52 169.62" stroke="#2f9e44" stroke-width="2" fill="none"></path></g><g transform="translate(483.72683094304375 40.7543323132154) rotate(0 12.014375799587015 85.69076828145558)"><path d="M25.44 171.24 L18.71 158.61 L31.57 156.79 L25.81 170.12" stroke="none" stroke-width="0" fill="#2f9e44" fill-rule="evenodd"></path><path d="M25.52 169.62 C21.08 163.7, 19.58 160.95, 17.37 157.03 M25.52 169.62 C23.57 165.9, 21.65 163.18, 17.37 157.03 M17.37 157.03 C19.8 156.35, 24.4 155.29, 29.93 155.28 M17.37 157.03 C21.55 157, 25.07 155.71, 29.93 155.28 M29.93 155.28 C28.85 160.82, 26.7 166.96, 25.52 169.62 M29.93 155.28 C28.27 160.31, 26.94 165.74, 25.52 169.62 M25.52 169.62 C25.52 169.62, 25.52 169.62, 25.52 169.62 M25.52 169.62 C25.52 169.62, 25.52 169.62, 25.52 169.62" stroke="#2f9e44" stroke-width="2" fill="none"></path></g></g><mask></mask><g transform="translate(517.9640702631245 192.59577399707769) rotate(0 14.0625 9.599999999999909)"><text x="14.0625" y="0" font-family="Cascadia, Segoe UI Emoji" font-size="16px" fill="#2f9e44" text-anchor="middle" style="white-space: pre;" direction="ltr" dominant-baseline="text-before-edge">ack</text></g></svg>