<svg version="1.1" xmlns="http://www.w3.org/2000/svg" viewBox="0 0 589.4676390542086 303.3022212592891" width="589.4676390542086" height="303.3022212592891">
  <!-- svg-source:excalidraw -->
  
  <defs>
    <style class="style-fonts">
      @font-face {
        font-family: "Virgil";
        src: url("https://excalidraw.com/Virgil.woff2");
      }
      @font-face {
        font-family: "Cascadia";
        src: url("https://excalidraw.com/Cascadia.woff2");
      }
      @font-face {
        font-family: "Assistant";
        src: url("https://excalidraw.com/Assistant-Regular.woff2");
      }
    </style>
    
  </defs>
  <g stroke-linecap="round"><g transform="translate(11.380459862076805 37.90630621240052) rotate(0 67.61051891951183 0)"><path d="M0.54 0.44 C22.93 0.44, 112.7 -0.5, 135.05 -0.66 M-0.64 -0.37 C21.52 -0.17, 111.64 0.38, 134.02 0.54" stroke="#1e1e1e" stroke-width="2" fill="none"></path></g></g><mask></mask><g transform="translate(55.553250211750765 10) rotate(0 23.4375 12)"><text x="23.4375" y="0" font-family="Cascadia, Segoe UI Emoji" font-size="20px" fill="#1e1e1e" text-anchor="middle" style="white-space: pre;" direction="ltr" dominant-baseline="text-before-edge">W(0)</text></g><g stroke-linecap="round"><g transform="translate(171.32658227871934 97.9130641772299) rotate(0 37.357412215644445 0)"><path d="M-0.55 -0.48 C12.11 -0.26, 63.22 0.52, 75.8 0.69 M1.36 -1.78 C13.97 -1.85, 63.28 -1.12, 75.42 -1.08" stroke="#1e1e1e" stroke-width="2" fill="none"></path></g></g><mask></mask><g transform="translate(185.6627595799323 69.71561006741285) rotate(0 23.4375 12)"><text x="23.4375" y="0" font-family="Cascadia, Segoe UI Emoji" font-size="20px" fill="#1e1e1e" text-anchor="middle" style="white-space: pre;" direction="ltr" dominant-baseline="text-before-edge">R(0)</text></g><g stroke-linecap="round"><g transform="translate(11.199810828380123 291.7678107410675) rotate(0 280.14605431125324 0)"><path d="M0.17 0.54 C93.24 0.42, 466.03 0.06, 559.48 0 M-1.2 -0.23 C92.15 -0.2, 468.17 1.24, 561.77 1.53" stroke="#1e1e1e" stroke-width="2" fill="none"></path></g><g transform="translate(11.199810828380123 291.7678107410675) rotate(0 280.14605431125324 0)"><path d="M538.24 10 C548.27 5.31, 556.55 4.32, 561.77 1.53 M538.24 10 C545.74 6.91, 552.39 4.63, 561.77 1.53" stroke="#1e1e1e" stroke-width="2" fill="none"></path></g><g transform="translate(11.199810828380123 291.7678107410675) rotate(0 280.14605431125324 0)"><path d="M538.3 -7.1 C548.4 -5.12, 556.66 0.56, 561.77 1.53 M538.3 -7.1 C545.9 -4.86, 552.54 -1.82, 561.77 1.53" stroke="#1e1e1e" stroke-width="2" fill="none"></path></g></g><mask></mask><g transform="translate(561.8848448647555 249.7777151918708) rotate(0 8.791397094726562 19.452251094859093)"><text x="8.791397094726562" y="0" font-family="Virgil, Segoe UI Emoji" font-size="31.12360175177456px" fill="#1e1e1e" text-anchor="middle" style="white-space: pre;" direction="ltr" dominant-baseline="text-before-edge">t</text></g><g stroke-linecap="round"><g transform="translate(256.880406365211 142.97099926581723) rotate(0 37.357412215644445 0)"><path d="M0.57 0.14 C13.3 0.18, 63.15 0.35, 75.55 0.24 M-0.58 -0.84 C12.13 -1.18, 62.55 -1.99, 75.04 -1.75" stroke="#1e1e1e" stroke-width="2" fill="none"></path></g></g><mask></mask><g transform="translate(264.81185866642363 114.26407315599954) rotate(0 29.296875 12)"><text x="29.296875" y="0" font-family="Cascadia, Segoe UI Emoji" font-size="20px" fill="#1e1e1e" text-anchor="middle" style="white-space: pre;" direction="ltr" dominant-baseline="text-before-edge">R(99)</text></g><g stroke-linecap="round"><g transform="translate(291.1363209385104 37.90630647878152) rotate(0 67.61051891951183 0)"><path d="M0.27 -0.49 C22.58 -0.54, 112.29 -0.28, 134.69 -0.06 M-1.04 -1.79 C20.99 -1.67, 111.02 1.33, 133.46 1.44" stroke="#1e1e1e" stroke-width="2" fill="none"></path></g></g><mask></mask><g transform="translate(335.30911128818434 10.000000266380994) rotate(0 23.4375 12)"><text x="23.4375" y="0" font-family="Cascadia, Segoe UI Emoji" font-size="20px" fill="#1e1e1e" text-anchor="middle" style="white-space: pre;" direction="ltr" dominant-baseline="text-before-edge">W(1)</text></g><g stroke-linecap="round"><g transform="translate(359.8672128041576 187.5565678720227) rotate(0 37.357412215644445 0)"><path d="M-0.58 0.8 C12.04 0.67, 62.63 -0.9, 75.17 -0.84 M1.32 0.18 C13.86 0.18, 62.37 0.39, 74.46 0.25" stroke="#1e1e1e" stroke-width="2" fill="none"></path></g></g><mask></mask><g transform="translate(373.6580401053702 158.849641762205) rotate(0 23.4375 12)"><text x="23.4375" y="0" font-family="Cascadia, Segoe UI Emoji" font-size="20px" fill="#1e1e1e" text-anchor="middle" style="white-space: pre;" direction="ltr" dominant-baseline="text-before-edge">R(0)</text></g><g stroke-linecap="round"><g transform="translate(459.8569320928141 229.73305880350017) rotate(0 37.357412215644445 0)"><path d="M-0.08 1.11 C12.41 1.37, 63.06 0.76, 75.43 0.73 M-1.59 0.65 C10.77 0.64, 62.42 -0.74, 74.86 -1.01" stroke="#1e1e1e" stroke-width="2" fill="none"></path></g></g><mask></mask><g transform="translate(473.6477593940267 201.02613269368248) rotate(0 23.4375 12)"><text x="23.4375" y="0" font-family="Cascadia, Segoe UI Emoji" font-size="20px" fill="#1e1e1e" text-anchor="middle" style="white-space: pre;" direction="ltr" dominant-baseline="text-before-edge">R(1)</text></g></svg>