<svg version="1.1" xmlns="http://www.w3.org/2000/svg" viewBox="0 0 381.5839580796205 215.1687652708324" width="381.5839580796205" height="215.1687652708324">
  <!-- svg-source:excalidraw -->
  
  <defs>
    <style class="style-fonts">
      @font-face {
        font-family: "Virgil";
        src: url("https://excalidraw.com/Virgil.woff2");
      }
      @font-face {
        font-family: "Cascadia";
        src: url("https://excalidraw.com/Cascadia.woff2");
      }
      @font-face {
        font-family: "Assistant";
        src: url("https://excalidraw.com/Assistant-Regular.woff2");
      }
    </style>
    
  </defs>
  <g stroke-linecap="round" transform="translate(10 10.000000000002728) rotate(0 51.440382513036866 51.440382513036866)"><path d="M25.72 0 C39.04 -3.11, 54.07 3.39, 77.16 0 C94.98 -0.52, 101.44 10.99, 102.88 25.72 C105.86 43.7, 105.39 60.76, 102.88 77.16 C105.42 90.95, 96.33 100.98, 77.16 102.88 C61.44 102.24, 45.33 100.55, 25.72 102.88 C9.48 102.74, -1.44 97.58, 0 77.16 C-1.82 63.77, 3.77 48.05, 0 25.72 C-0.42 11.01, 11.3 1.48, 25.72 0" stroke="none" stroke-width="0" fill="#a5d8ff"></path><path d="M25.72 0 C38.5 -1.74, 53.31 -0.85, 77.16 0 M25.72 0 C36.51 -0.26, 49.01 -0.16, 77.16 0 M77.16 0 C95.19 1.13, 101.53 10.05, 102.88 25.72 M77.16 0 C94.01 -1.08, 105.15 6.59, 102.88 25.72 M102.88 25.72 C101.89 38.82, 103.28 48.33, 102.88 77.16 M102.88 25.72 C104 37.48, 103.47 51.2, 102.88 77.16 M102.88 77.16 C102.63 92.85, 95.01 101.73, 77.16 102.88 M102.88 77.16 C102.13 95.54, 95.82 101.35, 77.16 102.88 M77.16 102.88 C60.35 100.69, 44.55 101.61, 25.72 102.88 M77.16 102.88 C66.94 103.37, 56.41 103.84, 25.72 102.88 M25.72 102.88 C10.38 104.73, 1.22 95.39, 0 77.16 M25.72 102.88 C7.26 102.51, 2.07 93.83, 0 77.16 M0 77.16 C0.08 62.17, 0.69 46.85, 0 25.72 M0 77.16 C1.08 65.2, 1.05 54.38, 0 25.72 M0 25.72 C1.76 9.63, 7.59 1.69, 25.72 0 M0 25.72 C0.52 8.24, 6.41 -1.15, 25.72 0" stroke="#1971c2" stroke-width="2" fill="none"></path></g><g transform="translate(16.98514250397193 42.24038267995911) rotate(0 37.5 19.200000000000045)"><text x="0" y="15.45" font-family="Cascadia, Segoe UI Emoji" font-size="16px" fill="#1e1e1e" text-anchor="start" style="white-space: pre;" direction="ltr" dominant-baseline="alphabetic">IN:(A,2)</text><text x="0" y="34.65" font-family="Cascadia, Segoe UI Emoji" font-size="16px" fill="#1e1e1e" text-anchor="start" style="white-space: pre;" direction="ltr" dominant-baseline="alphabetic">PEND: </text></g><g transform="translate(51.34467938803709 15.000000000002728) rotate(0 10.095703125 10.342057796053723)"><text x="10.095703125" y="16.644249265523875" font-family="Cascadia, Segoe UI Emoji" font-size="17.236762993422786px" fill="#1971c2" text-anchor="middle" style="white-space: pre;" direction="ltr" dominant-baseline="alphabetic">P1</text></g><g stroke-linecap="round" transform="translate(139.3515965267743 10) rotate(0 51.440382513036866 51.440382513036866)"><path d="M25.72 0 C44.11 2.55, 66.6 2.99, 77.16 0 C95.73 2.24, 103.69 10.35, 102.88 25.72 C105.56 40.25, 104.96 59.87, 102.88 77.16 C105.05 96.06, 93.1 106, 77.16 102.88 C64.43 106.12, 52.93 100.01, 25.72 102.88 C11.65 100.33, -0.3 97.35, 0 77.16 C2.83 67.4, -2.78 54.32, 0 25.72 C1.21 10.8, 7.64 -2.01, 25.72 0" stroke="none" stroke-width="0" fill="#ffc9c9"></path><path d="M25.72 0 C39.57 -1.7, 51.8 -0.05, 77.16 0 M25.72 0 C40.64 0.45, 56.78 -0.76, 77.16 0 M77.16 0 C96.28 -1.72, 101.34 7.53, 102.88 25.72 M77.16 0 C93.96 -0.83, 104.76 9.34, 102.88 25.72 M102.88 25.72 C103.11 42.16, 101.34 55.75, 102.88 77.16 M102.88 25.72 C103.17 44.32, 102.49 64.61, 102.88 77.16 M102.88 77.16 C104.2 92.98, 94.61 101.71, 77.16 102.88 M102.88 77.16 C100.6 93.61, 92.38 102.66, 77.16 102.88 M77.16 102.88 C65.23 103.02, 50.37 102.8, 25.72 102.88 M77.16 102.88 C59.48 103.9, 40.01 103.19, 25.72 102.88 M25.72 102.88 C10.38 102.47, -0.17 95.11, 0 77.16 M25.72 102.88 C7.95 103.21, 0.01 95.34, 0 77.16 M0 77.16 C-1.41 64.5, -1.04 49.81, 0 25.72 M0 77.16 C-0.94 64.26, -0.22 49.52, 0 25.72 M0 25.72 C-1.88 7.58, 8.02 -0.2, 25.72 0 M0 25.72 C-0.78 8.13, 6.39 0.2, 25.72 0" stroke="#e03131" stroke-width="2" fill="none"></path></g><g transform="translate(145.89389534781048 42.24038267995729) rotate(0 28.125 19.200000000000045)"><text x="0" y="15.45" font-family="Cascadia, Segoe UI Emoji" font-size="16px" fill="#1e1e1e" text-anchor="start" style="white-space: pre;" direction="ltr" dominant-baseline="alphabetic">IN:</text><text x="0" y="34.65" font-family="Cascadia, Segoe UI Emoji" font-size="16px" fill="#1e1e1e" text-anchor="start" style="white-space: pre;" direction="ltr" dominant-baseline="alphabetic">PEND: </text></g><g stroke-linecap="round" transform="translate(268.7031930535468 10.000000000002728) rotate(0 51.440382513036866 51.440382513036866)"><path d="M25.72 0 C46.04 1.51, 64.3 1.04, 77.16 0 C95 2.54, 99.52 10.6, 102.88 25.72 C105.42 40.19, 102.05 54.28, 102.88 77.16 C99.99 95.21, 94.16 101.44, 77.16 102.88 C60.13 99.61, 36.64 105.2, 25.72 102.88 C5.64 102.46, 2.43 97.03, 0 77.16 C1.95 61.83, -0.19 40.05, 0 25.72 C-1.97 5.53, 4.99 -0.36, 25.72 0" stroke="none" stroke-width="0" fill="#b2f2bb"></path><path d="M25.72 0 C36.66 0.92, 48.59 -1.31, 77.16 0 M25.72 0 C45.94 -0.62, 63.42 -0.28, 77.16 0 M77.16 0 C94.01 -0.73, 104.52 9.24, 102.88 25.72 M77.16 0 C93.96 -1.37, 103.89 9.19, 102.88 25.72 M102.88 25.72 C104.02 45.48, 101.1 66.46, 102.88 77.16 M102.88 25.72 C103.37 37.53, 102.86 50.08, 102.88 77.16 M102.88 77.16 C100.9 93.7, 92.63 102.69, 77.16 102.88 M102.88 77.16 C102.01 92.06, 93.23 104.67, 77.16 102.88 M77.16 102.88 C61.86 104.73, 46.18 104.14, 25.72 102.88 M77.16 102.88 C59.85 102.59, 40.65 103.2, 25.72 102.88 M25.72 102.88 C8.03 103.17, 0.01 95.21, 0 77.16 M25.72 102.88 C8.21 101, -0.43 92.2, 0 77.16 M0 77.16 C-0.28 58.41, 1.44 35.17, 0 25.72 M0 77.16 C-1.06 56.88, -0.39 37.5, 0 25.72 M0 25.72 C-0.68 8.18, 6.67 0.17, 25.72 0 M0 25.72 C1.97 9, 8.24 -0.92, 25.72 0" stroke="#2f9e44" stroke-width="2" fill="none"></path></g><g transform="translate(275.24549187458433 42.24038267995911) rotate(0 28.125 19.200000000000045)"><text x="0" y="15.45" font-family="Cascadia, Segoe UI Emoji" font-size="16px" fill="#1e1e1e" text-anchor="start" style="white-space: pre;" direction="ltr" dominant-baseline="alphabetic">IN: </text><text x="0" y="34.65" font-family="Cascadia, Segoe UI Emoji" font-size="16px" fill="#1e1e1e" text-anchor="start" style="white-space: pre;" direction="ltr" dominant-baseline="alphabetic">PEND: </text></g><g stroke-linecap="round"><g transform="translate(13.45730300949026 150.37640717282375) rotate(0 178.3114145330146 0)"><path d="M-0.81 0.89 C58.51 0.68, 296.7 -0.25, 356.47 -0.57 M0.97 0.31 C60.07 0.2, 295.99 0.77, 355.44 0.67" stroke="#1e1e1e" stroke-width="2" fill="none"></path></g></g><mask></mask><g transform="translate(135.2656124414866 126.32111075602461) rotate(0 55.5263671875 10.342057796053723)"><text x="55.5263671875" y="16.644249265523875" font-family="Cascadia, Segoe UI Emoji" font-size="17.236762993422786px" fill="#1e1e1e" text-anchor="middle" style="white-space: pre;" direction="ltr" dominant-baseline="alphabetic">Ordem total</text></g><g transform="translate(310.04787244158433 15.000000000002728) rotate(0 10.095703125 10.342057796053723)"><text x="10.095703125" y="16.644249265523875" font-family="Cascadia, Segoe UI Emoji" font-size="17.236762993422786px" fill="#2f9e44" text-anchor="middle" style="white-space: pre;" direction="ltr" dominant-baseline="alphabetic">P3</text></g><g transform="translate(180.69627591481185 15) rotate(0 10.095703125 10.342057796053723)"><text x="10.095703125" y="16.644249265523875" font-family="Cascadia, Segoe UI Emoji" font-size="17.236762993422786px" fill="#e03131" text-anchor="middle" style="white-space: pre;" direction="ltr" dominant-baseline="alphabetic">P2</text></g><g transform="translate(36.20112574918585 159.38640478155776) rotate(0 25.2392578125 10.342057796053723)"><text x="25.2392578125" y="16.644249265523875" font-family="Cascadia, Segoe UI Emoji" font-size="17.236762993422786px" fill="#1971c2" text-anchor="middle" style="white-space: pre;" direction="ltr" dominant-baseline="alphabetic">C,3,F</text></g><g transform="translate(165.55272227595833 159.38640478155776) rotate(0 25.2392578125 10.342057796053723)"><text x="25.2392578125" y="16.644249265523875" font-family="Cascadia, Segoe UI Emoji" font-size="17.236762993422786px" fill="#e03131" text-anchor="middle" style="white-space: pre;" direction="ltr" dominant-baseline="alphabetic">B,1,T</text></g><g transform="translate(294.9043188027308 159.38640478155776) rotate(0 25.2392578125 10.342057796053723)"><text x="25.2392578125" y="16.644249265523875" font-family="Cascadia, Segoe UI Emoji" font-size="17.236762993422786px" fill="#2f9e44" text-anchor="middle" style="white-space: pre;" direction="ltr" dominant-baseline="alphabetic">C,3,F</text></g><g transform="translate(294.90431807432924 184.48464878155755) rotate(0 25.2392578125 10.342057796053723)"><text x="25.2392578125" y="16.644249265523875" font-family="Cascadia, Segoe UI Emoji" font-size="17.236762993422786px" fill="#2f9e44" text-anchor="middle" style="white-space: pre;" direction="ltr" dominant-baseline="alphabetic">B,4,T</text></g><g transform="translate(166.04832939493554 184.48464967872496) rotate(0 25.2392578125 10.342057796053723)"><text x="25.2392578125" y="16.644249265523875" font-family="Cascadia, Segoe UI Emoji" font-size="17.236762993422786px" fill="#e03131" text-anchor="middle" style="white-space: pre;" direction="ltr" dominant-baseline="alphabetic">A,2,F</text></g></svg>