<svg version="1.1" xmlns="http://www.w3.org/2000/svg" viewBox="0 0 947.5391588794173 432.933410165002" width="947.5391588794173" height="432.933410165002">
  <!-- svg-source:excalidraw -->
  
  <defs>
    <style class="style-fonts">
      @font-face {
        font-family: "Virgil";
        src: url("https://excalidraw.com/Virgil.woff2");
      }
      @font-face {
        font-family: "Cascadia";
        src: url("https://excalidraw.com/Cascadia.woff2");
      }
      @font-face {
        font-family: "Assistant";
        src: url("https://excalidraw.com/Assistant-Regular.woff2");
      }
    </style>
    
  </defs>
  <g stroke-linecap="round"><g transform="translate(141.71929493597327 93.50476624740713) rotate(0 318.66049687761233 0)"><path d="M-0.45 0.96 C105.83 0.97, 530.8 -0.42, 637.09 -0.72 M1.52 0.43 C107.67 0.64, 530.19 0.5, 636.02 0.44" stroke="#1e1e1e" stroke-width="2" fill="none"></path></g></g><mask></mask><g transform="translate(20.07082560021354 80.34232688298744) rotate(0 52.734375 12)"><text x="0" y="0" font-family="Cascadia, Segoe UI Emoji" font-size="20px" fill="#1e1e1e" text-anchor="start" style="white-space: pre;" direction="ltr" dominant-baseline="text-before-edge">Cliente_w</text></g><g stroke-linecap="round"><g transform="translate(141.7192951810557 266.12432573523347) rotate(0 314.77084262359176 0)"><path d="M-0.02 -0.82 C104.85 -0.84, 523.94 -1.06, 628.99 -0.82 M-1.48 1.36 C103.2 1.54, 522.52 0.75, 627.75 0.28" stroke="#1e1e1e" stroke-width="2" fill="none"></path></g></g><mask></mask><g transform="translate(102.10207584529508 253.531721370814) rotate(0 11.71875 12)"><text x="0" y="0" font-family="Cascadia, Segoe UI Emoji" font-size="20px" fill="#1e1e1e" text-anchor="start" style="white-space: pre;" direction="ltr" dominant-baseline="text-before-edge">r2</text></g><g stroke-linecap="round"><g transform="translate(141.7192951810557 318.05228273523335) rotate(0 313.65951287174084 0)"><path d="M0.73 0.6 C105.27 0.74, 522.28 -0.03, 626.65 -0.02 M-0.34 -0.12 C104.63 0.29, 524.63 1.71, 629.01 1.51" stroke="#1e1e1e" stroke-width="2" fill="none"></path></g></g><mask></mask><g transform="translate(102.10207584529508 305.4596783708139) rotate(0 11.71875 12)"><text x="0" y="0" font-family="Cascadia, Segoe UI Emoji" font-size="20px" fill="#1e1e1e" text-anchor="start" style="white-space: pre;" direction="ltr" dominant-baseline="text-before-edge">r3</text></g><g stroke-linecap="round"><g transform="translate(141.71929472337706 204.71090746407208) rotate(0 315.6043401663196 0)"><path d="M-0.41 0.68 C104.82 0.77, 525.53 0.47, 630.73 0.52 M1.57 -0.01 C106.67 -0.28, 524.83 -1.2, 629.53 -1.32" stroke="#1e1e1e" stroke-width="2" fill="none"></path></g></g><mask></mask><g transform="translate(102.10207538761733 192.90100309965237) rotate(0 11.71875 12)"><text x="0" y="0" font-family="Cascadia, Segoe UI Emoji" font-size="20px" fill="#1e1e1e" text-anchor="start" style="white-space: pre;" direction="ltr" dominant-baseline="text-before-edge">r1</text></g><g stroke-linecap="round"><g transform="translate(541.9323176087 38.09672616883881) rotate(0 136.31203827546915 0)"><path d="M-0.44 1.03 C44.96 0.91, 226.57 0.01, 271.96 -0.19 M1.53 0.52 C47.37 0.54, 228.84 1.16, 274.32 1.25" stroke="#1e1e1e" stroke-width="2" fill="none"></path></g></g><mask></mask><g transform="translate(832.0704088794173 26.626325804421413) rotate(0 52.734375 12)"><text x="0" y="0" font-family="Cascadia, Segoe UI Emoji" font-size="20px" fill="#1e1e1e" text-anchor="start" style="white-space: pre;" direction="ltr" dominant-baseline="text-before-edge">Cliente_R</text></g><g transform="translate(163.10803676668183 175.04934447698542) rotate(0 41.015625 12)"><text x="0" y="0" font-family="Cascadia, Segoe UI Emoji" font-size="20px" fill="#1e1e1e" text-anchor="start" style="white-space: pre;" direction="ltr" dominant-baseline="text-before-edge">&lt;v0,t0&gt;</text></g><g transform="translate(163.10803676668183 235.549703476986) rotate(0 41.015625 12)"><text x="0" y="0" font-family="Cascadia, Segoe UI Emoji" font-size="20px" fill="#1e1e1e" text-anchor="start" style="white-space: pre;" direction="ltr" dominant-baseline="text-before-edge">&lt;v0,t0&gt;</text></g><g transform="translate(163.1080363520714 288.84027245263405) rotate(0 41.015625 12)"><text x="0" y="0" font-family="Cascadia, Segoe UI Emoji" font-size="20px" fill="#1e1e1e" text-anchor="start" style="white-space: pre;" direction="ltr" dominant-baseline="text-before-edge">&lt;v0,t0&gt;</text></g><g transform="translate(799.6030199782936 253.531722114054) rotate(0 11.71875 12)"><text x="0" y="0" font-family="Cascadia, Segoe UI Emoji" font-size="20px" fill="#1e1e1e" text-anchor="start" style="white-space: pre;" direction="ltr" dominant-baseline="text-before-edge">r2</text></g><g transform="translate(799.6030199782936 305.4596791140548) rotate(0 11.71875 12)"><text x="0" y="0" font-family="Cascadia, Segoe UI Emoji" font-size="20px" fill="#1e1e1e" text-anchor="start" style="white-space: pre;" direction="ltr" dominant-baseline="text-before-edge">r3</text></g><g transform="translate(799.6030195206158 192.90100384289235) rotate(0 11.71875 12)"><text x="0" y="0" font-family="Cascadia, Segoe UI Emoji" font-size="20px" fill="#1e1e1e" text-anchor="start" style="white-space: pre;" direction="ltr" dominant-baseline="text-before-edge">r1</text></g><g stroke-linecap="round"><g transform="translate(265.61971074229086 94.52121345944761) rotate(0 34.862227210842775 111.40078457842787)"><path d="M-0.26 -0.78 C11.63 36.49, 58.33 186.13, 70.17 223.39 M1.81 1.42 C13.67 38.37, 57.99 184.47, 69.45 221.57" stroke="#1971c2" stroke-width="2" fill="none"></path></g><g transform="translate(265.61971074229086 94.52121345944761) rotate(0 34.862227210842775 111.40078457842787)"><path d="M69.19 223.39 L58.9 212.16 L70.04 205.9 L68.84 220.05" stroke="none" stroke-width="0" fill="#1971c2" fill-rule="evenodd"></path><path d="M69.45 221.57 C66.46 219.83, 66.12 218.32, 59.41 210.43 M69.45 221.57 C65.93 218.3, 63.9 215.36, 59.41 210.43 M59.41 210.43 C62.41 209.45, 63.24 209.67, 71.54 206.72 M59.41 210.43 C62.58 209.58, 64.88 208.35, 71.54 206.72 M71.54 206.72 C69.44 210.35, 68.89 214.7, 69.45 221.57 M71.54 206.72 C70.72 209.12, 70.58 212.56, 69.45 221.57 M69.45 221.57 C69.45 221.57, 69.45 221.57, 69.45 221.57 M69.45 221.57 C69.45 221.57, 69.45 221.57, 69.45 221.57" stroke="#1971c2" stroke-width="2" fill="none"></path></g></g><mask></mask><g stroke-linecap="round"><g transform="translate(265.87422563974815 94.58202399548918) rotate(0 21.306797732242103 84.96403638147285)"><path d="M0.44 0.59 C7.76 29.03, 36.68 141.81, 43.66 169.88 M-0.78 -0.15 C6.49 28.56, 36.23 143.06, 43.26 171.4" stroke="#1971c2" stroke-width="2" fill="none"></path></g><g transform="translate(265.87422563974815 94.58202399548918) rotate(0 21.306797732242103 84.96403638147285)"><path d="M42.75 173.13 L32.27 158.97 L45.44 155.13 L42.3 171.24" stroke="none" stroke-width="0" fill="#1971c2" fill-rule="evenodd"></path><path d="M43.26 171.4 C41.43 169.51, 37.99 164.62, 33.77 159.79 M43.26 171.4 C41.6 169.28, 38.4 166.47, 33.77 159.79 M33.77 159.79 C36.45 159.62, 40.79 158.43, 46.05 156.66 M33.77 159.79 C35.88 158.79, 38.91 157.81, 46.05 156.66 M46.05 156.66 C43.86 160.22, 43.28 163.57, 43.26 171.4 M46.05 156.66 C45.17 160.06, 43.93 164.6, 43.26 171.4 M43.26 171.4 C43.26 171.4, 43.26 171.4, 43.26 171.4 M43.26 171.4 C43.26 171.4, 43.26 171.4, 43.26 171.4" stroke="#1971c2" stroke-width="2" fill="none"></path></g></g><mask></mask><g stroke-linecap="round"><g transform="translate(265.8610779142182 94.07179814929168) rotate(0 8.470524585324938 55.14400577139327)"><path d="M-0.28 -0.92 C2.22 17.5, 13.06 91.81, 16.03 110.46 M1.78 1.21 C4.56 19.85, 15.71 94.12, 18.26 112.09" stroke="#1971c2" stroke-width="2" fill="none"></path></g><g transform="translate(265.8610779142182 94.07179814929168) rotate(0 8.470524585324938 55.14400577139327)"><path d="M17.65 110.57 L9.05 99.4 L21.84 96.48 L19.73 113.46" stroke="none" stroke-width="0" fill="#1971c2" fill-rule="evenodd"></path><path d="M18.26 112.09 C13.92 106.08, 12.1 103.1, 10.02 99.56 M18.26 112.09 C15.49 107.89, 12.29 102.37, 10.02 99.56 M10.02 99.56 C13.53 99.16, 19.06 97.05, 22.56 97.72 M10.02 99.56 C12.74 98.64, 16.14 98.18, 22.56 97.72 M22.56 97.72 C20.56 101.38, 18.33 106.39, 18.26 112.09 M22.56 97.72 C21.06 101.36, 20.52 105.08, 18.26 112.09 M18.26 112.09 C18.26 112.09, 18.26 112.09, 18.26 112.09 M18.26 112.09 C18.26 112.09, 18.26 112.09, 18.26 112.09" stroke="#1971c2" stroke-width="2" fill="none"></path></g></g><mask></mask><g stroke-linecap="round"><g transform="translate(298.11463180896544 202.32516026037547) rotate(0 18.14153562690558 -53.5808141593111)"><path d="M0.59 0.74 C6.6 -17.08, 29.18 -88.86, 35.15 -106.76 M-0.56 0.09 C5.88 -18.12, 31.22 -90.54, 37.27 -108.68" stroke="#1971c2" stroke-width="2" fill="none"></path></g><g transform="translate(298.11463180896544 202.32516026037547) rotate(0 18.14153562690558 -53.5808141593111)"><path d="M36.55 -109.92 L40.32 -92.4 L28 -98.06 L35.88 -109.03" stroke="none" stroke-width="0" fill="#1971c2" fill-rule="evenodd"></path><path d="M37.27 -108.68 C38.58 -106.76, 38.5 -101.81, 38.85 -93.76 M37.27 -108.68 C38.25 -103.97, 38.67 -99.13, 38.85 -93.76 M38.85 -93.76 C34.31 -95.64, 29.81 -97.37, 26.86 -97.88 M38.85 -93.76 C36.43 -95.28, 33.9 -95.81, 26.86 -97.88 M26.86 -97.88 C28.67 -101.73, 32.6 -103.98, 37.27 -108.68 M26.86 -97.88 C29.62 -102.09, 34.03 -105.1, 37.27 -108.68 M37.27 -108.68 C37.27 -108.68, 37.27 -108.68, 37.27 -108.68 M37.27 -108.68 C37.27 -108.68, 37.27 -108.68, 37.27 -108.68" stroke="#1971c2" stroke-width="2" fill="none"></path></g></g><mask></mask><g stroke-linecap="round"><g transform="translate(330.0594864604318 264.7945617348587) rotate(0 21.60605766359936 -84.2586231650157)"><path d="M-1.13 0.4 C6 -27.73, 36.01 -139.7, 43.36 -168.03 M0.48 -0.44 C7.41 -29, 35.55 -141.83, 42.5 -169.9" stroke="#1971c2" stroke-width="2" fill="none"></path></g><g transform="translate(330.0594864604318 264.7945617348587) rotate(0 21.60605766359936 -84.2586231650157)"><path d="M43.96 -168.54 L46.51 -155.37 L31.68 -158.59 L44.13 -170.72" stroke="none" stroke-width="0" fill="#1971c2" fill-rule="evenodd"></path><path d="M42.5 -169.9 C44.09 -164.55, 45.2 -159.84, 45.37 -155.18 M42.5 -169.9 C43.53 -167.41, 43.98 -163.75, 45.37 -155.18 M45.37 -155.18 C41.55 -156.69, 39 -156.77, 33.07 -158.24 M45.37 -155.18 C42.82 -156.16, 39.96 -157.18, 33.07 -158.24 M33.07 -158.24 C36.3 -162.26, 38.96 -164.67, 42.5 -169.9 M33.07 -158.24 C37 -162.51, 39.66 -166.34, 42.5 -169.9 M42.5 -169.9 C42.5 -169.9, 42.5 -169.9, 42.5 -169.9 M42.5 -169.9 C42.5 -169.9, 42.5 -169.9, 42.5 -169.9" stroke="#1971c2" stroke-width="2" fill="none"></path></g></g><mask></mask><g transform="translate(10 352.3439954329192) rotate(0 115.38832636327425 32.60549975485151)"><text x="115.38832636327415" y="0" font-family="Cascadia, Segoe UI Emoji" font-size="13.585624897854759px" fill="#e03131" text-anchor="middle" style="white-space: pre;" direction="ltr" dominant-baseline="text-before-edge">* Mensagem pode demorar muito</text><text x="115.38832636327415" y="16.30274987742571" font-family="Cascadia, Segoe UI Emoji" font-size="13.585624897854759px" fill="#e03131" text-anchor="middle" style="white-space: pre;" direction="ltr" dominant-baseline="text-before-edge">ou o cliente pode falhar e</text><text x="115.38832636327415" y="32.60549975485142" font-family="Cascadia, Segoe UI Emoji" font-size="13.585624897854759px" fill="#e03131" text-anchor="middle" style="white-space: pre;" direction="ltr" dominant-baseline="text-before-edge">nunca ser recebida por R3 -</text><text x="115.38832636327415" y="48.90824963227713" font-family="Cascadia, Segoe UI Emoji" font-size="13.585624897854759px" fill="#e03131" text-anchor="middle" style="white-space: pre;" direction="ltr" dominant-baseline="text-before-edge">escrita incompleta</text></g><g stroke-linecap="round"><g transform="translate(352.1717761476948 316.8511122060668) rotate(0 29.304587577128586 -110.88337087806826)"><path d="M-0.62 0.46 C9.11 -36.79, 47.75 -185.78, 57.6 -222.81 M1.26 -0.34 C11.42 -37.54, 50.39 -185.14, 59.78 -221.82" stroke="#1971c2" stroke-width="2" fill="none"></path></g><g transform="translate(352.1717761476948 316.8511122060668) rotate(0 29.304587577128586 -110.88337087806826)"><path d="M60.68 -220.43 L63.4 -205.54 L50.85 -208.39 L59.3 -220.16" stroke="none" stroke-width="0" fill="#1971c2" fill-rule="evenodd"></path><path d="M59.78 -221.82 C61.08 -219.62, 59.83 -215.1, 62.48 -207.06 M59.78 -221.82 C61.3 -218.05, 62.04 -212.41, 62.48 -207.06 M62.48 -207.06 C58.29 -208.85, 55.83 -209.81, 50.21 -210.26 M62.48 -207.06 C58.88 -207.56, 55.74 -209.2, 50.21 -210.26 M50.21 -210.26 C51.93 -212.36, 54.6 -218.38, 59.78 -221.82 M50.21 -210.26 C53.76 -214.63, 57.98 -218.65, 59.78 -221.82 M59.78 -221.82 C59.78 -221.82, 59.78 -221.82, 59.78 -221.82 M59.78 -221.82 C59.78 -221.82, 59.78 -221.82, 59.78 -221.82" stroke="#1971c2" stroke-width="2" fill="none"></path></g></g><mask></mask><g transform="translate(265.4755222079134 331.3342367578698) rotate(0 70.3125 19.200000000000045)"><text x="70.3125" y="0" font-family="Cascadia, Segoe UI Emoji" font-size="16px" fill="#1971c2" text-anchor="middle" style="white-space: pre;" direction="ltr" dominant-baseline="text-before-edge">Fase de leitura</text><text x="70.3125" y="19.2" font-family="Cascadia, Segoe UI Emoji" font-size="16px" fill="#1971c2" text-anchor="middle" style="white-space: pre;" direction="ltr" dominant-baseline="text-before-edge">Lê &lt;v0, t0&gt;</text></g><g transform="translate(338.0498174298946 10) rotate(0 93.75 19.200000000000045)"><text x="93.75" y="0" font-family="Cascadia, Segoe UI Emoji" font-size="16px" fill="#1971c2" text-anchor="middle" style="white-space: pre;" direction="ltr" dominant-baseline="text-before-edge">Cliente calcula</text><text x="93.75" y="19.2" font-family="Cascadia, Segoe UI Emoji" font-size="16px" fill="#1971c2" text-anchor="middle" style="white-space: pre;" direction="ltr" dominant-baseline="text-before-edge">t1 = &lt;seq0 + 1, cid&gt;</text></g><g stroke-linecap="round"><g transform="translate(429.796162426368 57.085892582882025) rotate(0 0 18.28335190718235)"><path d="M-0.5 0.24 C-0.57 6.31, -0.23 30, -0.12 36.08 M0.25 -0.12 C0.06 6.03, -0.55 30.27, -0.61 36.52" stroke="#1971c2" stroke-width="2" fill="none"></path></g><g transform="translate(429.796162426368 57.085892582882025) rotate(0 0 18.28335190718235)"><path d="M-6.54 19.23 C-4.05 25.33, -3.11 32.06, -0.61 36.52 M-6.54 19.23 C-4.76 25.24, -2.99 30.25, -0.61 36.52" stroke="#1971c2" stroke-width="2" fill="none"></path></g><g transform="translate(429.796162426368 57.085892582882025) rotate(0 0 18.28335190718235)"><path d="M5.96 19.46 C3.92 25.42, 0.33 32.07, -0.61 36.52 M5.96 19.46 C3.68 25.42, 1.38 30.36, -0.61 36.52" stroke="#1971c2" stroke-width="2" fill="none"></path></g></g><mask></mask><g stroke-linecap="round"><g transform="translate(473.80198341677897 204.03954613123187) rotate(0 149.53808474711514 0)"><path d="M0.28 -0.52 C50.11 -0.8, 250.41 -1.1, 300.05 -0.98 M-1.03 1.82 C48.64 1.59, 249.35 0.07, 299.61 0.04" stroke="#2f9e44" stroke-width="4" fill="none"></path></g></g><mask></mask><g stroke-linecap="round"><g transform="translate(462.509388930991 94.7107711380686) rotate(0 7.14782010169165 54.0748129432327)"><path d="M-0.15 -0.45 C2.17 17.45, 12.41 89.46, 14.76 107.58 M-1.69 -1.73 C0.44 16.31, 11.61 90.25, 14.06 108.82" stroke="#2f9e44" stroke-width="2" fill="none"></path></g><g transform="translate(462.509388930991 94.7107711380686) rotate(0 7.14782010169165 54.0748129432327)"><path d="M13.32 110.06 L5.56 94.39 L18.37 96.15 L13.44 110.03" stroke="none" stroke-width="0" fill="#2f9e44" fill-rule="evenodd"></path><path d="M14.06 108.82 C10.44 104.74, 7.26 99.04, 5.86 96.25 M14.06 108.82 C12.26 105.18, 9.24 100.66, 5.86 96.25 M5.86 96.25 C10.31 95.59, 13.39 96.29, 18.42 94.47 M5.86 96.25 C9.42 96.52, 11.54 94.87, 18.42 94.47 M18.42 94.47 C16.35 97.92, 16.73 103.53, 14.06 108.82 M18.42 94.47 C17.69 97.59, 16.36 100.52, 14.06 108.82 M14.06 108.82 C14.06 108.82, 14.06 108.82, 14.06 108.82 M14.06 108.82 C14.06 108.82, 14.06 108.82, 14.06 108.82" stroke="#2f9e44" stroke-width="2" fill="none"></path></g></g><mask></mask><g stroke-linecap="round"><g transform="translate(490.4791197636978 202.860397024534) rotate(0 12.43099148120291 -52.83171379511259)"><path d="M-0.04 -1.12 C3.83 -18.91, 19.96 -89.27, 24.22 -106.73 M-1.51 0.9 C2.66 -16.78, 22.16 -88.15, 26.59 -105.76" stroke="#2f9e44" stroke-width="2" fill="none"></path></g><g transform="translate(490.4791197636978 202.860397024534) rotate(0 12.43099148120291 -52.83171379511259)"><path d="M25 -104.7 L28.21 -90.57 L15.82 -93.07 L25.45 -104.46" stroke="none" stroke-width="0" fill="#2f9e44" fill-rule="evenodd"></path><path d="M26.59 -105.76 C26.22 -100.89, 27.31 -93.62, 29.26 -91 M26.59 -105.76 C27.05 -101.13, 28.93 -97.21, 29.26 -91 M29.26 -91 C24.44 -91.15, 20.75 -91.6, 17 -94.23 M29.26 -91 C27.29 -91.91, 24.58 -92.78, 17 -94.23 M17 -94.23 C19.9 -96.55, 23.85 -103.22, 26.59 -105.76 M17 -94.23 C20.15 -96.71, 21.97 -99.41, 26.59 -105.76 M26.59 -105.76 C26.59 -105.76, 26.59 -105.76, 26.59 -105.76 M26.59 -105.76 C26.59 -105.76, 26.59 -105.76, 26.59 -105.76" stroke="#2f9e44" stroke-width="2" fill="none"></path></g></g><mask></mask><g stroke-linecap="round"><g transform="translate(461.8878393569312 94.7107711380686) rotate(0 35.11755093439842 98.20483270150294)"><path d="M-0.12 0.42 C11.49 32.85, 58.38 163.13, 70.23 195.7 M-1.65 -0.4 C9.76 32.68, 57.24 163.98, 69.28 196.87" stroke="#2f9e44" stroke-width="2" fill="none"></path></g><g transform="translate(461.8878393569312 94.7107711380686) rotate(0 35.11755093439842 98.20483270150294)"><path d="M68.36 196.5 L60.06 184.57 L68.91 180.81 L70.67 196.04" stroke="none" stroke-width="0" fill="#2f9e44" fill-rule="evenodd"></path><path d="M69.28 196.87 C66.06 193.2, 61.01 190.45, 58.68 186.26 M69.28 196.87 C66.86 194.37, 63.71 190.88, 58.68 186.26 M58.68 186.26 C60.72 184.57, 65.89 184.56, 70.6 181.93 M58.68 186.26 C62.8 184.92, 66.13 183.18, 70.6 181.93 M70.6 181.93 C71.32 186.4, 68.45 193.08, 69.28 196.87 M70.6 181.93 C69.83 185.91, 69.58 190.15, 69.28 196.87 M69.28 196.87 C69.28 196.87, 69.28 196.87, 69.28 196.87 M69.28 196.87 C69.28 196.87, 69.28 196.87, 69.28 196.87" stroke="#2f9e44" stroke-width="2" fill="none"></path></g></g><mask></mask><g transform="translate(529.9928636700897 292.79452717039794) rotate(0 5.859375 12)"><text x="0" y="0" font-family="Cascadia, Segoe UI Emoji" font-size="20px" fill="#e03131" text-anchor="start" style="white-space: pre;" direction="ltr" dominant-baseline="text-before-edge">X</text></g><g stroke-linecap="round"><g transform="translate(460.0231906347544 94.71077113806587) rotate(0 122.41814210889652 83.96439729003009)"><path d="M1.19 0.72 C42.18 28.87, 204.7 140.02, 245.44 167.8 M0.35 0.06 C41.29 28.49, 203.99 141.21, 244.8 169.27" stroke="#2f9e44" stroke-width="2" fill="none"></path></g><g transform="translate(460.0231906347544 94.71077113806587) rotate(0 122.41814210889652 83.96439729003009)"><path d="M244.12 168.42 L230.83 167.63 L236.09 155.49 L244.24 170.35" stroke="none" stroke-width="0" fill="#2f9e44" fill-rule="evenodd"></path><path d="M244.8 169.27 C241.97 169.53, 237.14 169.1, 230.01 166.76 M244.8 169.27 C240.67 169.04, 237.95 167.74, 230.01 166.76 M230.01 166.76 C231.46 164.9, 234.19 160.62, 237.22 156.33 M230.01 166.76 C231.5 163.66, 234.31 160.71, 237.22 156.33 M237.22 156.33 C239.64 160.44, 244.29 166.03, 244.8 169.27 M237.22 156.33 C239.74 160.67, 242.49 164.72, 244.8 169.27 M244.8 169.27 C244.8 169.27, 244.8 169.27, 244.8 169.27 M244.8 169.27 C244.8 169.27, 244.8 169.27, 244.8 169.27" stroke="#2f9e44" stroke-width="2" fill="none"></path></g></g><mask></mask><g stroke-linecap="round"><g transform="translate(722.956045468045 262.0029760570542) rotate(0 17.479419599143057 -82.45046309840404)"><path d="M1.09 0.5 C6.75 -27.12, 28.69 -137.86, 34.15 -165.57 M0.2 -0.28 C6.23 -27.77, 30.44 -136.95, 36.44 -164.38" stroke="#2f9e44" stroke-width="2" fill="none"></path></g><g transform="translate(722.956045468045 262.0029760570542) rotate(0 17.479419599143057 -82.45046309840404)"><path d="M38.07 -165.17 L38.16 -149.04 L27.07 -153.51 L36.08 -166.31" stroke="none" stroke-width="0" fill="#2f9e44" fill-rule="evenodd"></path><path d="M36.44 -164.38 C38.12 -160.79, 37.69 -156.53, 39.7 -149.74 M36.44 -164.38 C36.72 -160.69, 38.36 -157.11, 39.7 -149.74 M39.7 -149.74 C36.45 -150.88, 32.68 -150.26, 27.32 -152.47 M39.7 -149.74 C35.37 -150.72, 32.54 -152, 27.32 -152.47 M27.32 -152.47 C30.33 -156.46, 30.75 -157.3, 36.44 -164.38 M27.32 -152.47 C29.74 -155, 31.21 -157.38, 36.44 -164.38 M36.44 -164.38 C36.44 -164.38, 36.44 -164.38, 36.44 -164.38 M36.44 -164.38 C36.44 -164.38, 36.44 -164.38, 36.44 -164.38" stroke="#2f9e44" stroke-width="2" fill="none"></path></g></g><mask></mask><g stroke-linecap="round"><g transform="translate(707.2358522888044 266.55870972367484) rotate(0 32.413854807433836 0)"><path d="M-1.1 -0.46 C9.76 -0.38, 53.17 0.89, 64.32 0.96 M0.52 -1.74 C11.26 -2.03, 52.27 -1.17, 63.11 -0.66" stroke="#2f9e44" stroke-width="4" fill="none"></path></g></g><mask></mask><g transform="translate(548.3134987240983 329.4596785405324) rotate(0 75 19.200000000000045)"><text x="75" y="0" font-family="Cascadia, Segoe UI Emoji" font-size="16px" fill="#2f9e44" text-anchor="middle" style="white-space: pre;" direction="ltr" dominant-baseline="text-before-edge">Fase de escrita</text><text x="75" y="19.2" font-family="Cascadia, Segoe UI Emoji" font-size="16px" fill="#2f9e44" text-anchor="middle" style="white-space: pre;" direction="ltr" dominant-baseline="text-before-edge">Escreve &lt;v1, t1&gt;</text></g><g transform="translate(331.95669729220253 403.73341016500217) rotate(0 145.31249999999977 9.599999999999909)"><text x="145.3125" y="0" font-family="Cascadia, Segoe UI Emoji" font-size="16px" fill="#1e1e1e" text-anchor="middle" style="white-space: pre;" direction="ltr" dominant-baseline="text-before-edge">Operação de escrita do valor v1</text></g><g stroke-linecap="round"><g transform="translate(255.242733302337 373.63501440977916) rotate(0 229.48071485119726 9.132814749795898)"><path d="M0.34 -0.67 C9.02 2.37, -15.17 14.34, 51.98 17.34 C119.13 20.33, 335.49 19.72, 403.24 17.31 C470.99 14.9, 449.24 5.13, 458.49 2.87 M-0.95 1.59 C7.64 4.84, -16.45 15.55, 51.32 18.39 C119.09 21.23, 337.8 21.11, 405.67 18.63 C473.53 16.14, 449.91 5.89, 458.49 3.46" stroke="#1e1e1e" stroke-width="2" fill="none"></path></g></g><mask></mask><g stroke-linecap="round"><g transform="translate(569.6755235769169 38.608207657257026) rotate(0 0 113.50672666288142)"><path d="M0.27 0.99 C0.39 38.9, 0.59 190.65, 0.56 228.12 M-1.05 0.46 C-1.03 38.01, -0.16 188.9, -0.1 226.58" stroke="#6741d9" stroke-width="2" fill="none"></path></g></g><mask></mask><g stroke-linecap="round" transform="translate(563.7524242414556 196.62429097614677) rotate(0 6.4836301840887245 6.404872728103783)"><path d="M7.47 0.46 C8.73 0.52, 10.3 1.15, 11.23 2.09 C12.16 3.03, 12.93 4.75, 13.07 6.1 C13.2 7.46, 12.87 9.16, 12.01 10.21 C11.16 11.25, 9.26 12.01, 7.92 12.36 C6.58 12.71, 5.17 12.9, 3.99 12.32 C2.81 11.73, 1.44 10.19, 0.84 8.84 C0.23 7.5, 0.02 5.5, 0.36 4.25 C0.71 3, 1.76 2.02, 2.92 1.35 C4.08 0.67, 6.54 0.41, 7.32 0.2 C8.1 0, 7.62 0.02, 7.58 0.12 M5.76 0.11 C7.22 -0.16, 10 -0.15, 11.24 0.78 C12.49 1.7, 13.08 4.14, 13.23 5.67 C13.38 7.21, 13.01 8.95, 12.16 10 C11.32 11.06, 9.38 11.64, 8.16 12 C6.93 12.36, 6.1 12.64, 4.82 12.15 C3.55 11.67, 1.26 10.22, 0.52 9.09 C-0.23 7.95, -0.05 6.52, 0.34 5.34 C0.74 4.16, 1.78 2.8, 2.91 2 C4.04 1.19, 6.52 0.8, 7.11 0.52 C7.71 0.24, 6.5 0.35, 6.47 0.33" stroke="none" stroke-width="0" fill="#d0bfff"></path><path d="M7.35 0 C8.71 0.16, 10.44 1.53, 11.44 2.62 C12.44 3.71, 13.38 5.17, 13.35 6.54 C13.32 7.9, 12.24 9.81, 11.25 10.78 C10.27 11.76, 8.84 12.2, 7.46 12.39 C6.08 12.58, 4.15 12.56, 2.97 11.93 C1.8 11.3, 0.92 9.97, 0.42 8.6 C-0.09 7.24, -0.56 5.06, -0.03 3.74 C0.49 2.41, 2.22 1.21, 3.58 0.67 C4.94 0.13, 7.36 0.5, 8.15 0.51 C8.94 0.52, 8.3 0.7, 8.34 0.73 M8.18 0.67 C9.52 0.91, 11.27 2.13, 12.17 3.05 C13.07 3.97, 13.76 4.81, 13.56 6.21 C13.37 7.61, 12.13 10.23, 10.99 11.43 C9.86 12.63, 8.1 13.42, 6.74 13.41 C5.38 13.41, 4 12.32, 2.82 11.42 C1.63 10.52, 0.01 9.23, -0.39 7.99 C-0.8 6.76, -0.38 5.23, 0.39 4 C1.17 2.78, 2.89 1.35, 4.26 0.64 C5.63 -0.07, 7.9 -0.25, 8.62 -0.27 C9.35 -0.29, 8.7 0.45, 8.63 0.54" stroke="#6741d9" stroke-width="2" fill="none"></path></g><g stroke-linecap="round" transform="translate(563.752424303847 258.78752056962185) rotate(0 6.4836301840887245 6.404872728103783)"><path d="M5.08 -0.13 C6.35 -0.49, 8.04 0.2, 9.29 0.98 C10.53 1.76, 11.95 3.21, 12.56 4.53 C13.17 5.86, 13.33 7.72, 12.93 8.94 C12.53 10.17, 11.38 11.23, 10.15 11.91 C8.93 12.59, 7.04 13.31, 5.58 13.04 C4.12 12.76, 2.42 11.32, 1.41 10.24 C0.4 9.17, -0.5 7.89, -0.48 6.59 C-0.46 5.3, 0.52 3.52, 1.54 2.48 C2.55 1.44, 4.83 0.75, 5.61 0.34 C6.4 -0.07, 6.2 0.03, 6.24 0.01 M6.71 0.4 C8.11 0.4, 10.68 0.31, 11.64 1.31 C12.6 2.31, 12.41 4.84, 12.48 6.39 C12.55 7.94, 12.87 9.65, 12.07 10.63 C11.26 11.61, 9.06 12.04, 7.64 12.27 C6.22 12.5, 4.67 12.59, 3.55 12 C2.43 11.41, 1.4 9.85, 0.92 8.73 C0.45 7.61, 0.44 6.49, 0.69 5.26 C0.94 4.02, 1.42 2.21, 2.42 1.34 C3.42 0.46, 5.97 0.18, 6.7 -0.01 C7.42 -0.21, 6.62 0.14, 6.76 0.16" stroke="none" stroke-width="0" fill="#d0bfff"></path><path d="M5.07 -0.35 C6.25 -0.66, 8.23 -0.08, 9.49 0.76 C10.75 1.59, 12.11 3.28, 12.62 4.66 C13.13 6.03, 13.07 7.72, 12.55 9.01 C12.03 10.31, 10.64 11.75, 9.48 12.41 C8.32 13.07, 6.95 13.25, 5.58 12.98 C4.2 12.71, 2.16 11.84, 1.2 10.79 C0.24 9.73, -0.31 8.06, -0.2 6.67 C-0.08 5.27, 0.87 3.45, 1.89 2.42 C2.91 1.39, 5.22 0.83, 5.91 0.48 C6.6 0.12, 6.05 0.21, 6.04 0.27 M7.06 0.63 C8.41 0.84, 10.65 1.64, 11.6 2.6 C12.55 3.57, 12.86 5.1, 12.75 6.41 C12.65 7.72, 11.76 9.44, 11 10.47 C10.23 11.49, 9.4 12.3, 8.16 12.55 C6.92 12.81, 4.9 12.68, 3.58 11.99 C2.27 11.3, 0.8 9.68, 0.28 8.41 C-0.24 7.13, 0.03 5.53, 0.46 4.35 C0.89 3.17, 1.82 2.03, 2.87 1.34 C3.92 0.64, 5.9 0.49, 6.76 0.18 C7.62 -0.13, 7.89 -0.66, 8.05 -0.51" stroke="#6741d9" stroke-width="2" fill="none"></path></g><g stroke-linecap="round"><g transform="translate(646.757297351669 40.782547985203564) rotate(0 0 140.75256171846604)"><path d="M-1.13 -0.38 C-1.21 46.51, 0.74 234.81, 0.73 281.74 M0.48 -1.63 C0.2 44.85, 0.07 232.41, 0.17 279.73" stroke="#6741d9" stroke-width="2" fill="none"></path></g></g><mask></mask><g stroke-linecap="round" transform="translate(640.834199016208 258.78635341526206) rotate(0 6.4836301840887245 6.404872728103783)"><path d="M7.36 0.1 C8.71 0.3, 10.82 1.48, 11.77 2.53 C12.72 3.58, 13.14 5.04, 13.06 6.4 C12.98 7.76, 12.29 9.62, 11.31 10.69 C10.32 11.76, 8.51 12.54, 7.14 12.8 C5.76 13.06, 4.2 13.05, 3.06 12.27 C1.92 11.49, 0.73 9.41, 0.29 8.12 C-0.15 6.83, -0.11 5.73, 0.43 4.54 C0.98 3.35, 2.3 1.73, 3.54 0.99 C4.78 0.24, 7.15 0.15, 7.88 0.09 C8.6 0.03, 7.9 0.51, 7.9 0.65 M7.54 0.29 C8.89 0.35, 11.44 1.02, 12.31 2.03 C13.18 3.03, 12.92 4.94, 12.76 6.34 C12.61 7.73, 12.4 9.21, 11.38 10.38 C10.35 11.55, 8.03 13.02, 6.61 13.36 C5.18 13.69, 3.88 13.21, 2.8 12.39 C1.71 11.57, 0.44 9.83, 0.09 8.44 C-0.25 7.06, 0.12 5.37, 0.73 4.09 C1.33 2.81, 2.56 1.41, 3.73 0.77 C4.89 0.14, 7.08 0.43, 7.7 0.28 C8.33 0.13, 7.6 -0.29, 7.49 -0.13" stroke="none" stroke-width="0" fill="#d0bfff"></path><path d="M5.14 -0.18 C6.44 -0.62, 8.23 0.13, 9.39 0.78 C10.56 1.43, 11.63 2.49, 12.11 3.72 C12.59 4.94, 12.64 6.79, 12.28 8.13 C11.92 9.46, 11 10.87, 9.94 11.71 C8.88 12.55, 7.26 13.32, 5.92 13.18 C4.58 13.05, 2.87 11.95, 1.91 10.9 C0.95 9.86, 0.27 8.34, 0.18 6.94 C0.09 5.53, 0.56 3.68, 1.37 2.48 C2.19 1.29, 4.41 0.21, 5.09 -0.22 C5.76 -0.65, 5.38 -0.23, 5.41 -0.09 M6.31 0.31 C7.74 0.29, 9.9 0.54, 10.95 1.54 C12.01 2.53, 12.49 4.97, 12.66 6.28 C12.83 7.59, 12.59 8.27, 11.98 9.4 C11.37 10.52, 10.26 12.6, 9 13.02 C7.74 13.44, 5.66 12.65, 4.4 11.93 C3.14 11.2, 2.14 9.74, 1.45 8.65 C0.76 7.56, 0.02 6.6, 0.26 5.38 C0.51 4.15, 1.78 2.17, 2.91 1.3 C4.04 0.42, 6.42 0.39, 7.02 0.12 C7.63 -0.15, 6.59 -0.32, 6.53 -0.32" stroke="#6741d9" stroke-width="2" fill="none"></path></g><g stroke-linecap="round" transform="translate(640.0739400785988 312.3513640087381) rotate(0 6.4836301840887245 6.404872728103783)"><path d="M6.51 0.27 C7.88 0.13, 9.48 0.51, 10.5 1.33 C11.53 2.15, 12.44 3.83, 12.65 5.18 C12.85 6.53, 12.39 8.19, 11.75 9.43 C11.1 10.67, 10 12.18, 8.78 12.62 C7.57 13.05, 5.73 12.43, 4.45 12.02 C3.16 11.62, 1.76 11.22, 1.08 10.17 C0.4 9.12, 0.18 7.13, 0.37 5.71 C0.56 4.29, 1.19 2.56, 2.22 1.67 C3.25 0.78, 5.74 0.6, 6.56 0.37 C7.38 0.14, 7.05 0.2, 7.12 0.29 M7.99 -0.41 C9.34 -0.41, 10.2 0.7, 11.05 1.73 C11.89 2.76, 13.08 4.23, 13.06 5.76 C13.03 7.28, 11.79 9.64, 10.9 10.89 C10.01 12.13, 8.96 13.01, 7.7 13.23 C6.43 13.45, 4.46 12.9, 3.3 12.19 C2.14 11.49, 1.2 10.28, 0.74 9 C0.28 7.73, 0.2 5.85, 0.55 4.54 C0.89 3.23, 1.74 1.97, 2.81 1.15 C3.88 0.34, 6.32 -0.27, 6.95 -0.35 C7.58 -0.44, 6.52 0.53, 6.58 0.65" stroke="none" stroke-width="0" fill="#d0bfff"></path><path d="M7.83 0.26 C9.05 0.48, 10.47 1.28, 11.25 2.33 C12.04 3.37, 12.54 5.13, 12.53 6.52 C12.52 7.9, 12.01 9.53, 11.18 10.63 C10.35 11.74, 8.9 12.93, 7.57 13.15 C6.24 13.36, 4.38 12.69, 3.2 11.92 C2.02 11.15, 0.94 9.87, 0.51 8.53 C0.07 7.2, 0.13 5.26, 0.58 3.91 C1.03 2.57, 2.03 1.12, 3.22 0.44 C4.41 -0.23, 6.93 -0.08, 7.72 -0.12 C8.51 -0.16, 7.94 0.13, 7.96 0.22 M6.2 -0.18 C7.56 -0.27, 9.02 1.17, 10.13 1.94 C11.25 2.72, 12.41 3.16, 12.86 4.47 C13.32 5.79, 13.45 8.56, 12.88 9.81 C12.31 11.05, 10.72 11.59, 9.46 11.93 C8.2 12.28, 6.71 12.14, 5.32 11.87 C3.93 11.6, 1.96 11.35, 1.14 10.3 C0.31 9.26, 0.18 7.04, 0.37 5.62 C0.56 4.21, 1.35 2.84, 2.27 1.82 C3.18 0.81, 5.24 -0.08, 5.86 -0.45 C6.49 -0.83, 6.06 -0.57, 6.01 -0.43" stroke="#6741d9" stroke-width="2" fill="none"></path></g><g stroke-linecap="round"><g transform="translate(734.8021838453005 38.76159080186471) rotate(0 0 113.50672666288142)"><path d="M0.17 0.13 C0.08 37.82, -0.81 188.62, -1 226.53 M-1.2 -0.85 C-0.89 36.98, 0.75 190.09, 1.19 227.81" stroke="#6741d9" stroke-width="2" fill="none"></path></g></g><mask></mask><g stroke-linecap="round" transform="translate(728.8790845098392 196.777674120754) rotate(0 6.4836301840887245 6.404872728103783)"><path d="M7.49 0.5 C8.89 0.61, 10.85 1.56, 11.79 2.56 C12.72 3.56, 13.18 5.09, 13.1 6.51 C13.01 7.93, 12.11 10.12, 11.25 11.1 C10.4 12.07, 9.29 12.18, 7.96 12.36 C6.62 12.54, 4.49 12.84, 3.25 12.18 C2.02 11.52, 1.01 9.72, 0.55 8.41 C0.08 7.1, 0.04 5.63, 0.47 4.31 C0.9 2.99, 1.83 1.1, 3.13 0.5 C4.43 -0.11, 7.46 0.71, 8.27 0.67 C9.09 0.63, 8.11 0.23, 8.04 0.25 M6.31 -0.62 C7.75 -0.91, 9.17 -0.05, 10.19 0.8 C11.21 1.64, 12.1 3.01, 12.45 4.43 C12.8 5.86, 12.7 8.15, 12.26 9.35 C11.83 10.54, 11.16 11.08, 9.86 11.6 C8.55 12.12, 5.74 12.74, 4.42 12.45 C3.11 12.16, 2.65 10.95, 1.95 9.83 C1.25 8.71, 0.13 6.97, 0.23 5.73 C0.33 4.48, 1.52 3.39, 2.54 2.38 C3.56 1.37, 5.7 -0.03, 6.34 -0.33 C6.98 -0.64, 6.58 0.41, 6.37 0.57" stroke="none" stroke-width="0" fill="#d0bfff"></path><path d="M4.82 -0.09 C5.99 -0.4, 7.91 0.1, 9.16 0.87 C10.41 1.64, 11.74 3.32, 12.31 4.55 C12.88 5.77, 13.06 7.06, 12.57 8.24 C12.09 9.42, 10.62 10.93, 9.39 11.61 C8.16 12.3, 6.49 12.52, 5.21 12.32 C3.93 12.13, 2.63 11.44, 1.73 10.42 C0.83 9.39, -0.15 7.52, -0.21 6.18 C-0.28 4.83, 0.45 3.4, 1.34 2.33 C2.24 1.27, 4.36 0.19, 5.14 -0.21 C5.92 -0.61, 5.97 -0.27, 6 -0.05 M7.13 0.03 C8.58 0.35, 11.14 1.76, 12.08 2.85 C13.01 3.94, 12.73 5.27, 12.74 6.57 C12.75 7.87, 12.95 9.67, 12.13 10.65 C11.32 11.63, 9.34 12.15, 7.85 12.43 C6.35 12.72, 4.52 13.07, 3.18 12.37 C1.84 11.67, 0.2 9.66, -0.19 8.23 C-0.59 6.81, 0.19 5.11, 0.82 3.8 C1.44 2.48, 2.34 0.98, 3.54 0.34 C4.73 -0.29, 7.4 0.09, 7.99 -0.02 C8.58 -0.12, 7.25 -0.49, 7.08 -0.27" stroke="#6741d9" stroke-width="2" fill="none"></path></g><g stroke-linecap="round" transform="translate(728.8790845722306 258.94090371423) rotate(0 6.4836301840887245 6.404872728103783)"><path d="M8.32 0.36 C9.68 0.54, 11.12 1.46, 11.87 2.63 C12.62 3.79, 12.88 6.03, 12.84 7.34 C12.8 8.65, 12.54 9.53, 11.62 10.49 C10.69 11.45, 8.7 12.88, 7.27 13.08 C5.84 13.27, 4.21 12.43, 3.04 11.65 C1.88 10.86, 0.73 9.74, 0.28 8.38 C-0.17 7.02, -0.26 4.7, 0.34 3.49 C0.94 2.28, 2.62 1.69, 3.9 1.13 C5.18 0.57, 7.27 0.23, 8.02 0.12 C8.77 0, 8.43 0.38, 8.4 0.43 M6.75 -0.27 C7.93 -0.24, 9.51 0.41, 10.51 1.42 C11.5 2.44, 12.4 4.52, 12.73 5.81 C13.07 7.1, 13.3 8.11, 12.51 9.19 C11.73 10.27, 9.31 11.82, 8.03 12.29 C6.75 12.76, 5.99 12.52, 4.82 12 C3.65 11.49, 1.67 10.28, 1.02 9.21 C0.36 8.13, 0.54 6.91, 0.87 5.54 C1.21 4.18, 1.95 1.89, 3 1.03 C4.06 0.18, 6.74 0.56, 7.22 0.4 C7.71 0.24, 6.06 0.03, 5.9 0.06" stroke="none" stroke-width="0" fill="#d0bfff"></path><path d="M5.94 0.1 C7.29 0.11, 9.21 1.1, 10.35 1.91 C11.49 2.72, 12.56 3.75, 12.79 4.98 C13.01 6.2, 12.39 8.08, 11.68 9.25 C10.96 10.41, 9.7 11.47, 8.5 11.97 C7.3 12.46, 5.78 12.67, 4.49 12.23 C3.19 11.79, 1.46 10.47, 0.72 9.32 C-0.03 8.17, -0.2 6.67, 0.01 5.33 C0.23 3.99, 0.84 2.2, 2.02 1.27 C3.19 0.34, 6.29 -0.13, 7.07 -0.26 C7.84 -0.38, 6.67 0.35, 6.64 0.5 M6.08 0.8 C7.38 0.55, 8.3 0.58, 9.48 1.19 C10.65 1.8, 12.61 3.27, 13.14 4.46 C13.66 5.65, 13.25 7.03, 12.64 8.33 C12.04 9.63, 10.84 11.62, 9.52 12.27 C8.21 12.91, 5.98 12.57, 4.73 12.19 C3.48 11.8, 2.73 11.02, 2.02 9.95 C1.3 8.89, 0.44 7.11, 0.45 5.82 C0.46 4.53, 1.3 3.25, 2.06 2.22 C2.82 1.19, 4.51 -0.13, 5 -0.37 C5.49 -0.6, 4.86 0.64, 4.99 0.82" stroke="#6741d9" stroke-width="2" fill="none"></path></g><g transform="translate(546.798554408244 13.142581098595201) rotate(0 23.4375 9.599999999999909)"><text x="23.4375" y="0" font-family="Cascadia, Segoe UI Emoji" font-size="16px" fill="#6741d9" text-anchor="middle" style="white-space: pre;" direction="ltr" dominant-baseline="text-before-edge">Lê v1</text></g><g transform="translate(623.1200700090576 13.14258062079989) rotate(0 23.4375 9.599999999999909)"><text x="23.4375" y="0" font-family="Cascadia, Segoe UI Emoji" font-size="16px" fill="#6741d9" text-anchor="middle" style="white-space: pre;" direction="ltr" dominant-baseline="text-before-edge">Lê v0</text></g><g transform="translate(710.1641023663751 13.142581018451892) rotate(0 23.4375 9.599999999999909)"><text x="23.4375" y="0" font-family="Cascadia, Segoe UI Emoji" font-size="16px" fill="#6741d9" text-anchor="middle" style="white-space: pre;" direction="ltr" dominant-baseline="text-before-edge">Lê v1</text></g><g transform="translate(543.6259984841618 285.5945264125867) rotate(0 4.6875 9.599999999999909)"><text x="4.6875" y="0" font-family="Cascadia, Segoe UI Emoji" font-size="16px" fill="#e03131" text-anchor="middle" style="white-space: pre;" direction="ltr" dominant-baseline="text-before-edge">*</text></g></svg>