<svg version="1.1" xmlns="http://www.w3.org/2000/svg" viewBox="0 0 388.3704918745848 161.93526142790324" width="388.3704918745848" height="161.93526142790324">
  <!-- svg-source:excalidraw -->
  
  <defs>
    <style class="style-fonts">
      @font-face {
        font-family: "Virgil";
        src: url("https://excalidraw.com/Virgil.woff2");
      }
      @font-face {
        font-family: "Cascadia";
        src: url("https://excalidraw.com/Cascadia.woff2");
      }
      @font-face {
        font-family: "Assistant";
        src: url("https://excalidraw.com/Assistant-Regular.woff2");
      }
    </style>
    
  </defs>
  <g stroke-linecap="round" transform="translate(10 10.000000000003638) rotate(0 51.440382513036866 51.44038251303709)"><path d="M25.72 0 C41.93 3.53, 57.91 1.59, 77.16 0 C97.69 2.73, 105.85 11.3, 102.88 25.72 C104.9 41.87, 106.37 52.69, 102.88 77.16 C103.59 90.86, 93.92 103.74, 77.16 102.88 C61.14 104.93, 46.34 106.06, 25.72 102.88 C10.67 105.19, 1.93 93.59, 0 77.16 C-3.09 59.6, -1.8 46.68, 0 25.72 C-2.02 5.87, 6.1 2.39, 25.72 0" stroke="none" stroke-width="0" fill="#a5d8ff"></path><path d="M25.72 0 C38.34 1.13, 53.06 0, 77.16 0 M25.72 0 C37.33 -0.6, 50.28 -0.74, 77.16 0 M77.16 0 C95 -0.09, 102.94 7.42, 102.88 25.72 M77.16 0 C92.8 0.38, 103.77 9.88, 102.88 25.72 M102.88 25.72 C103.83 44.63, 102.4 65.63, 102.88 77.16 M102.88 25.72 C102.1 37.35, 102.69 47.95, 102.88 77.16 M102.88 77.16 C103.71 93.11, 96.16 104.83, 77.16 102.88 M102.88 77.16 C104.02 92.18, 92.06 101.9, 77.16 102.88 M77.16 102.88 C62.71 104.43, 44.72 103.24, 25.72 102.88 M77.16 102.88 C57.77 103.11, 38.75 102.53, 25.72 102.88 M25.72 102.88 C8.23 102.98, 0.1 94.57, 0 77.16 M25.72 102.88 C9.12 103.52, 1.86 95.78, 0 77.16 M0 77.16 C-0.15 66.15, 0.52 56.73, 0 25.72 M0 77.16 C-0.99 56.57, -0.61 37.2, 0 25.72 M0 25.72 C0.37 6.75, 8.15 -1.56, 25.72 0 M0 25.72 C1.48 10.51, 7.23 0.34, 25.72 0" stroke="#1971c2" stroke-width="2" fill="none"></path></g><g transform="translate(16.98514250397193 42.24038267996002) rotate(0 46.875 19.199999999999818)"><text x="0" y="15.45" font-family="Cascadia, Segoe UI Emoji" font-size="16px" fill="#1e1e1e" text-anchor="start" style="white-space: pre;" direction="ltr" dominant-baseline="alphabetic">IN:(A,2)</text><text x="0" y="34.65" font-family="Cascadia, Segoe UI Emoji" font-size="16px" fill="#1e1e1e" text-anchor="start" style="white-space: pre;" direction="ltr" dominant-baseline="alphabetic">PEND:(C,3)</text></g><g transform="translate(51.34467938803709 15.000000000003638) rotate(0 10.095703125 10.342057796053723)"><text x="10.095703125" y="16.644249265523875" font-family="Cascadia, Segoe UI Emoji" font-size="17.236762993422786px" fill="#1971c2" text-anchor="middle" style="white-space: pre;" direction="ltr" dominant-baseline="alphabetic">P1</text></g><g stroke-linecap="round" transform="translate(139.3515965267743 10) rotate(0 51.440382513036866 51.44038251303709)"><path d="M25.72 0 C46.31 2.02, 59.27 -0.54, 77.16 0 C92.59 1.98, 106.02 12.02, 102.88 25.72 C102.68 43.37, 102.53 61.46, 102.88 77.16 C104.73 92.96, 95.88 101.4, 77.16 102.88 C59.79 102.76, 39.48 103.17, 25.72 102.88 C6.6 99.71, -0.82 92.43, 0 77.16 C-1.95 59.83, -0.39 40.53, 0 25.72 C-2.97 6.44, 9.66 -1.96, 25.72 0" stroke="none" stroke-width="0" fill="#ffc9c9"></path><path d="M25.72 0 C43.69 -0.87, 58.01 0.78, 77.16 0 M25.72 0 C39.57 -0.55, 52.71 0.19, 77.16 0 M77.16 0 C95.08 1.14, 104.44 7.29, 102.88 25.72 M77.16 0 C94.73 1.48, 102.26 8.4, 102.88 25.72 M102.88 25.72 C103.9 43.2, 103.6 62.45, 102.88 77.16 M102.88 25.72 C104.02 42.8, 103.59 57.02, 102.88 77.16 M102.88 77.16 C100.92 93.46, 94.51 100.96, 77.16 102.88 M102.88 77.16 C104.04 96.03, 95.8 102.25, 77.16 102.88 M77.16 102.88 C60.57 102.96, 46.72 103.87, 25.72 102.88 M77.16 102.88 C62.37 103.04, 47.71 103.19, 25.72 102.88 M25.72 102.88 C10.19 104.17, -1.91 93.09, 0 77.16 M25.72 102.88 C7.56 102.35, -0.56 94.54, 0 77.16 M0 77.16 C0.78 58.8, -2.07 42.49, 0 25.72 M0 77.16 C-0.31 63.06, 0.55 51.37, 0 25.72 M0 25.72 C-1.17 8.87, 8.16 -0.57, 25.72 0 M0 25.72 C-0.16 9.76, 10.79 2.22, 25.72 0" stroke="#e03131" stroke-width="2" fill="none"></path></g><g transform="translate(145.89389534781048 42.24038267995638) rotate(0 46.875 19.199999999999818)"><text x="0" y="15.45" font-family="Cascadia, Segoe UI Emoji" font-size="16px" fill="#1e1e1e" text-anchor="start" style="white-space: pre;" direction="ltr" dominant-baseline="alphabetic">IN:(A,2)</text><text x="0" y="34.65" font-family="Cascadia, Segoe UI Emoji" font-size="16px" fill="#1e1e1e" text-anchor="start" style="white-space: pre;" direction="ltr" dominant-baseline="alphabetic">PEND:(B,4)</text></g><g stroke-linecap="round" transform="translate(268.70319305354633 10.000000000003638) rotate(0 51.44038251303709 51.44038251303709)"><path d="M25.72 0 C43.33 1.94, 67.5 3.41, 77.16 0 C95.26 0.71, 99.43 8.19, 102.88 25.72 C104.6 41.03, 104.32 57.56, 102.88 77.16 C105.59 96.4, 96.61 104.81, 77.16 102.88 C60.78 99.64, 47.53 100.92, 25.72 102.88 C11.58 100.86, -2.7 91.84, 0 77.16 C-2.74 56.17, 1.32 37.5, 0 25.72 C-1.54 5.01, 7.23 1.2, 25.72 0" stroke="none" stroke-width="0" fill="#b2f2bb"></path><path d="M25.72 0 C37.8 0.54, 51.05 -0.09, 77.16 0 M25.72 0 C38.57 0.48, 51.43 -0.73, 77.16 0 M77.16 0 C94.67 1.28, 102.34 8.42, 102.88 25.72 M77.16 0 C95.48 -1.96, 100.66 10.25, 102.88 25.72 M102.88 25.72 C103.44 40.52, 101.98 55.5, 102.88 77.16 M102.88 25.72 C102.16 45.73, 103.24 65.63, 102.88 77.16 M102.88 77.16 C103.89 95.8, 95.6 102.34, 77.16 102.88 M102.88 77.16 C102.99 96.12, 93.88 101.83, 77.16 102.88 M77.16 102.88 C61.04 102.82, 45.48 103.26, 25.72 102.88 M77.16 102.88 C61.87 103.67, 44 102.42, 25.72 102.88 M25.72 102.88 C7.7 102.42, -0.48 94.51, 0 77.16 M25.72 102.88 C9.3 104.82, 1.47 95.7, 0 77.16 M0 77.16 C-0.4 65.48, -1.41 52.64, 0 25.72 M0 77.16 C-0.91 65.9, -0.54 54.05, 0 25.72 M0 25.72 C-0.14 9.6, 10.5 1.93, 25.72 0 M0 25.72 C0.98 10.74, 10.32 1.9, 25.72 0" stroke="#2f9e44" stroke-width="2" fill="none"></path></g><g transform="translate(275.2454918745848 42.24038267996002) rotate(0 51.5625 19.199999999999818)"><text x="0" y="15.45" font-family="Cascadia, Segoe UI Emoji" font-size="16px" fill="#1e1e1e" text-anchor="start" style="white-space: pre;" direction="ltr" dominant-baseline="alphabetic">IN:(C,3)</text><text x="0" y="34.65" font-family="Cascadia, Segoe UI Emoji" font-size="16px" fill="#1e1e1e" text-anchor="start" style="white-space: pre;" direction="ltr" dominant-baseline="alphabetic">PEND:(B,4) </text></g><g stroke-linecap="round"><g transform="translate(13.45730300949026 150.37640717282284) rotate(0 178.3114145330146 0)"><path d="M0.03 -0.69 C59.27 -0.65, 296.33 -0.03, 355.84 0.2 M-1.41 1.56 C58.18 1.22, 298.48 -1.34, 358.14 -1.82" stroke="#1e1e1e" stroke-width="2" fill="none"></path></g></g><mask></mask><g transform="translate(135.2656124414866 126.3211107560237) rotate(0 55.5263671875 10.342057796053723)"><text x="55.5263671875" y="16.644249265523875" font-family="Cascadia, Segoe UI Emoji" font-size="17.236762993422786px" fill="#1e1e1e" text-anchor="middle" style="white-space: pre;" direction="ltr" dominant-baseline="alphabetic">Ordem total</text></g><g transform="translate(310.0478724415839 15.000000000003638) rotate(0 10.095703125 10.342057796053723)"><text x="10.095703125" y="16.644249265523875" font-family="Cascadia, Segoe UI Emoji" font-size="17.236762993422786px" fill="#2f9e44" text-anchor="middle" style="white-space: pre;" direction="ltr" dominant-baseline="alphabetic">P3</text></g><g transform="translate(180.6962759148114 15) rotate(0 10.095703125 10.342057796053723)"><text x="10.095703125" y="16.644249265523875" font-family="Cascadia, Segoe UI Emoji" font-size="17.236762993422786px" fill="#e03131" text-anchor="middle" style="white-space: pre;" direction="ltr" dominant-baseline="alphabetic">P2</text></g></svg>