<svg version="1.1" xmlns="http://www.w3.org/2000/svg" viewBox="0 0 420.4667258694867 319.5007439002818" width="420.4667258694867" height="319.5007439002818">
  <!-- svg-source:excalidraw -->
  
  <defs>
    <style class="style-fonts">
      @font-face {
        font-family: "Virgil";
        src: url("https://excalidraw.com/Virgil.woff2");
      }
      @font-face {
        font-family: "Cascadia";
        src: url("https://excalidraw.com/Cascadia.woff2");
      }
      @font-face {
        font-family: "Assistant";
        src: url("https://excalidraw.com/Assistant-Regular.woff2");
      }
    </style>
    
  </defs>
  <g stroke-linecap="round"><g transform="translate(149.49999999999955 44.78600299999994) rotate(0 0 131.83969371547744)"><path d="M-0.1 -0.43 C-0.27 43.5, -0.45 219.14, -0.32 263.35 M-1.62 -1.71 C-2.03 42.42, -1.75 220.59, -1.44 264.71" stroke="#1e1e1e" stroke-width="2" fill="none"></path></g></g><mask></mask><g transform="translate(10 71.28600299999994) rotate(0 61.416015625 23)"><text x="0" y="18.400390625" font-family="Helvetica, Segoe UI Emoji" font-size="20px" fill="#1e1e1e" text-anchor="start" style="white-space: pre;" direction="ltr" dominant-baseline="alphabetic">O = {A}</text><text x="0" y="41.400390625" font-family="Helvetica, Segoe UI Emoji" font-size="20px" fill="#1e1e1e" text-anchor="start" style="white-space: pre;" direction="ltr" dominant-baseline="alphabetic">R = {A,B,C,D}</text></g><g transform="translate(10 10) rotate(0 21.013671875 16.100000000000023)"><text x="0" y="25.760546874999996" font-family="Helvetica, Segoe UI Emoji" font-size="28px" fill="#1e1e1e" text-anchor="start" style="white-space: pre;" direction="ltr" dominant-baseline="alphabetic">P1:</text></g><g stroke-linecap="round"><g transform="translate(95.6883966906098 139.16302584806658) rotate(0 47.72515215608132 0)"><path d="M-1.18 0.04 C14.64 -0.34, 79.41 -1.04, 95.58 -1.2 M0.41 -0.98 C16.02 -0.75, 78.88 -0.44, 94.7 -0.29" stroke="#1971c2" stroke-width="2" fill="none"></path></g><g transform="translate(95.6883966906098 139.16302584806658) rotate(0 47.72515215608132 0)"><path d="M71.15 8.09 C79.51 5.56, 85.81 3.06, 94.7 -0.29 M71.15 8.09 C76.95 5.23, 81.97 3.78, 94.7 -0.29" stroke="#1971c2" stroke-width="2" fill="none"></path></g><g transform="translate(95.6883966906098 139.16302584806658) rotate(0 47.72515215608132 0)"><path d="M71.27 -9.01 C79.75 -5.46, 86 -1.88, 94.7 -0.29 M71.27 -9.01 C77.05 -8.02, 82.05 -5.64, 94.7 -0.29" stroke="#1971c2" stroke-width="2" fill="none"></path></g></g><mask></mask><g transform="translate(203.6796164944867 126.63416119889507) rotate(0 103.3935546875 11.5)"><text x="0" y="18.400390625" font-family="Helvetica, Segoe UI Emoji" font-size="20px" fill="#1971c2" text-anchor="start" style="white-space: pre;" direction="ltr" dominant-baseline="alphabetic">Consenso[1].propõe(B)</text></g><g transform="translate(35.07396966574288 177.97597458011592) rotate(0 6.1083984375 11.5)"><text x="0" y="18.400390625" font-family="Helvetica, Segoe UI Emoji" font-size="20px" fill="#6741d9" text-anchor="start" style="white-space: pre;" direction="ltr" dominant-baseline="alphabetic">Z</text></g><g stroke-linecap="round"><g transform="translate(94.5022306906094 248.54768084806665) rotate(0 47.72515215608132 0)"><path d="M0.06 1.12 C16 1.12, 80.12 -0.65, 96.07 -0.91 M-1.37 0.66 C14.43 0.86, 79.36 0.15, 95.44 0.15" stroke="#1971c2" stroke-width="2" fill="none"></path></g><g transform="translate(94.5022306906094 248.54768084806665) rotate(0 47.72515215608132 0)"><path d="M72 8.84 C81.78 6.94, 86.25 3.51, 95.44 0.15 M72 8.84 C78.19 5.47, 85.47 4.09, 95.44 0.15" stroke="#1971c2" stroke-width="2" fill="none"></path></g><g transform="translate(94.5022306906094 248.54768084806665) rotate(0 47.72515215608132 0)"><path d="M71.9 -8.26 C81.58 -4.43, 86.09 -2.14, 95.44 0.15 M71.9 -8.26 C78.15 -7.07, 85.46 -3.88, 95.44 0.15" stroke="#1971c2" stroke-width="2" fill="none"></path></g></g><mask></mask><g transform="translate(202.4934504944863 236.01881619889514) rotate(0 103.3935546875 11.5)"><text x="0" y="18.400390625" font-family="Helvetica, Segoe UI Emoji" font-size="20px" fill="#1971c2" text-anchor="start" style="white-space: pre;" direction="ltr" dominant-baseline="alphabetic">Consenso[2].propõe(B)</text></g><g stroke-linecap="round"><g transform="translate(179.99122020719142 191.41684207735398) rotate(0 -60.614426825971805 0)"><path d="M0.3 -0.4 C-19.97 -0.19, -100.73 0.46, -120.99 0.33 M-1.01 -1.65 C-21.46 -1.74, -101.64 -1.81, -121.81 -1.62" stroke="#6741d9" stroke-width="2" fill="none"></path></g><g transform="translate(179.99122020719142 191.41684207735398) rotate(0 -60.614426825971805 0)"><path d="M-98.35 -10.25 C-107.32 -6.76, -114.35 -4.21, -121.81 -1.62 M-98.35 -10.25 C-102.17 -7.9, -107.38 -6.54, -121.81 -1.62" stroke="#6741d9" stroke-width="2" fill="none"></path></g><g transform="translate(179.99122020719142 191.41684207735398) rotate(0 -60.614426825971805 0)"><path d="M-98.29 6.85 C-107.16 4.33, -114.2 0.87, -121.81 -1.62 M-98.29 6.85 C-102.29 5.76, -107.51 3.68, -121.81 -1.62" stroke="#6741d9" stroke-width="2" fill="none"></path></g></g><mask></mask></svg>