<svg version="1.1" xmlns="http://www.w3.org/2000/svg" viewBox="0 0 381.58395807961915 218.08466638551454" width="381.58395807961915" height="218.08466638551454">
  <!-- svg-source:excalidraw -->
  
  <defs>
    <style class="style-fonts">
      @font-face {
        font-family: "Virgil";
        src: url("https://excalidraw.com/Virgil.woff2");
      }
      @font-face {
        font-family: "Cascadia";
        src: url("https://excalidraw.com/Cascadia.woff2");
      }
      @font-face {
        font-family: "Assistant";
        src: url("https://excalidraw.com/Assistant-Regular.woff2");
      }
    </style>
    
  </defs>
  <g stroke-linecap="round" transform="translate(10 10.00000000000091) rotate(0 51.440382513036866 51.44038251303709)"><path d="M25.72 0 C40.51 1.02, 54.12 1.14, 77.16 0 C96.19 2.54, 100.66 5.54, 102.88 25.72 C103.44 40.39, 105.62 50.39, 102.88 77.16 C99.82 92.98, 97.81 105.28, 77.16 102.88 C59.37 103.85, 39.41 105.16, 25.72 102.88 C9.01 105.76, 1.14 96.12, 0 77.16 C-0.85 59.04, -2.82 37.57, 0 25.72 C0.31 5.11, 7.8 3.17, 25.72 0" stroke="none" stroke-width="0" fill="#a5d8ff"></path><path d="M25.72 0 C43.67 0.01, 64.53 0.25, 77.16 0 M25.72 0 C39.93 0.36, 55.54 0.82, 77.16 0 M77.16 0 C96.23 -0.11, 104.05 8.89, 102.88 25.72 M77.16 0 C93.07 1.26, 101.28 8.98, 102.88 25.72 M102.88 25.72 C105.03 36.72, 104.52 51.38, 102.88 77.16 M102.88 25.72 C102.86 41.24, 103.42 56.49, 102.88 77.16 M102.88 77.16 C103.55 94.99, 93.28 103.94, 77.16 102.88 M102.88 77.16 C104.57 93.15, 95.02 104.21, 77.16 102.88 M77.16 102.88 C64.49 103.07, 52.39 101.98, 25.72 102.88 M77.16 102.88 C58.77 102.84, 42.93 102.52, 25.72 102.88 M25.72 102.88 C6.92 102.28, 1.67 92.49, 0 77.16 M25.72 102.88 C8.15 102.3, 1.37 92.14, 0 77.16 M0 77.16 C-2.28 57.43, -1.36 40.8, 0 25.72 M0 77.16 C1.16 64.88, 0.38 53.42, 0 25.72 M0 25.72 C1.97 10.45, 8.35 0.86, 25.72 0 M0 25.72 C-0.86 8.92, 7.76 0.72, 25.72 0" stroke="#1971c2" stroke-width="2" fill="none"></path></g><g transform="translate(16.542298821037548 42.2403826799582) rotate(0 28.125 19.199999999999818)"><text x="0" y="15.45" font-family="Cascadia, Segoe UI Emoji" font-size="16px" fill="#1e1e1e" text-anchor="start" style="white-space: pre;" direction="ltr" dominant-baseline="alphabetic">IN: </text><text x="0" y="34.65" font-family="Cascadia, Segoe UI Emoji" font-size="16px" fill="#1e1e1e" text-anchor="start" style="white-space: pre;" direction="ltr" dominant-baseline="alphabetic">PEND: </text></g><g transform="translate(51.34467938803709 15.00000000000091) rotate(0 10.095703125 10.342057796053723)"><text x="10.095703125" y="16.644249265523875" font-family="Cascadia, Segoe UI Emoji" font-size="17.236762993422786px" fill="#1971c2" text-anchor="middle" style="white-space: pre;" direction="ltr" dominant-baseline="alphabetic">P1</text></g><g stroke-linecap="round" transform="translate(139.35159652677248 10) rotate(0 51.440382513036866 51.44038251303709)"><path d="M25.72 0 C37.17 -0.08, 52.28 -4.06, 77.16 0 C91.05 -1.59, 101.74 6.55, 102.88 25.72 C99.78 41.01, 106.01 59.28, 102.88 77.16 C99.29 93.99, 91.12 104.13, 77.16 102.88 C66.59 104.21, 51.69 103.15, 25.72 102.88 C8.72 100.11, -1.81 92.09, 0 77.16 C-2.88 65.51, 2.71 54.07, 0 25.72 C0.4 9.51, 8.56 2.78, 25.72 0" stroke="none" stroke-width="0" fill="#ffc9c9"></path><path d="M25.72 0 C38.29 -0.11, 56.12 -0.49, 77.16 0 M25.72 0 C41.87 -0.61, 58.13 0.92, 77.16 0 M77.16 0 C93.91 1.23, 101.98 9.19, 102.88 25.72 M77.16 0 C92.9 -1.97, 102.12 8.65, 102.88 25.72 M102.88 25.72 C102.95 43.32, 103.35 61.5, 102.88 77.16 M102.88 25.72 C102.98 43.27, 102.38 60.26, 102.88 77.16 M102.88 77.16 C102.08 95.04, 93.65 101.18, 77.16 102.88 M102.88 77.16 C103.15 95.15, 94 101.24, 77.16 102.88 M77.16 102.88 C57.1 103.19, 37.41 101.34, 25.72 102.88 M77.16 102.88 C60.49 103.52, 44.29 102.16, 25.72 102.88 M25.72 102.88 C8.66 101.6, -1.37 93.3, 0 77.16 M25.72 102.88 C9.85 100.59, -2.14 94.9, 0 77.16 M0 77.16 C1.27 64.55, 0.3 50.36, 0 25.72 M0 77.16 C0.63 60.35, 0.33 45.27, 0 25.72 M0 25.72 C-1.62 9.71, 8.59 -1.7, 25.72 0 M0 25.72 C0.72 10.02, 9.82 0.42, 25.72 0" stroke="#e03131" stroke-width="2" fill="none"></path></g><g transform="translate(145.89389534781048 42.24038267995638) rotate(0 28.125 19.199999999999818)"><text x="0" y="15.45" font-family="Cascadia, Segoe UI Emoji" font-size="16px" fill="#1e1e1e" text-anchor="start" style="white-space: pre;" direction="ltr" dominant-baseline="alphabetic">IN: </text><text x="0" y="34.65" font-family="Cascadia, Segoe UI Emoji" font-size="16px" fill="#1e1e1e" text-anchor="start" style="white-space: pre;" direction="ltr" dominant-baseline="alphabetic">PEND: </text></g><g stroke-linecap="round" transform="translate(268.7031930535454 10.00000000000091) rotate(0 51.440382513036866 51.44038251303709)"><path d="M25.72 0 C48.99 -3.71, 66.74 2.09, 77.16 0 C97.83 0.53, 105.71 11.29, 102.88 25.72 C104.5 44.49, 99.53 66.69, 102.88 77.16 C101.45 94.15, 92.99 105.78, 77.16 102.88 C68.87 104.2, 57.15 101.87, 25.72 102.88 C5.32 103.75, -0.81 92.58, 0 77.16 C-0.44 65.21, -0.57 50.39, 0 25.72 C1.99 8.25, 7.54 2.54, 25.72 0" stroke="none" stroke-width="0" fill="#b2f2bb"></path><path d="M25.72 0 C39.73 -1.15, 49.69 1.05, 77.16 0 M25.72 0 C41.48 -1.08, 57.53 0.45, 77.16 0 M77.16 0 C93.1 -0.05, 101.61 8.42, 102.88 25.72 M77.16 0 C92.59 0.38, 100.81 8.87, 102.88 25.72 M102.88 25.72 C103.6 43.35, 102.53 57.3, 102.88 77.16 M102.88 25.72 C102.38 43.74, 103.48 63.16, 102.88 77.16 M102.88 77.16 C101.11 93.86, 94.16 104.66, 77.16 102.88 M102.88 77.16 C103.92 93.21, 92.27 101.73, 77.16 102.88 M77.16 102.88 C57.12 101.3, 39.7 101.85, 25.72 102.88 M77.16 102.88 C61.55 103.16, 45.08 103.52, 25.72 102.88 M25.72 102.88 C8.55 103.75, 0.23 93.6, 0 77.16 M25.72 102.88 C10.28 104.87, 0.96 94.5, 0 77.16 M0 77.16 C0.56 61.4, 0.28 44.76, 0 25.72 M0 77.16 C-0.15 57.22, 1.3 37.68, 0 25.72 M0 25.72 C0.38 7.1, 10.01 0.62, 25.72 0 M0 25.72 C-1.26 7.86, 8.07 0.83, 25.72 0" stroke="#2f9e44" stroke-width="2" fill="none"></path></g><g transform="translate(275.24549187458297 42.2403826799582) rotate(0 28.125 19.199999999999818)"><text x="0" y="15.45" font-family="Cascadia, Segoe UI Emoji" font-size="16px" fill="#1e1e1e" text-anchor="start" style="white-space: pre;" direction="ltr" dominant-baseline="alphabetic">IN: </text><text x="0" y="34.65" font-family="Cascadia, Segoe UI Emoji" font-size="16px" fill="#1e1e1e" text-anchor="start" style="white-space: pre;" direction="ltr" dominant-baseline="alphabetic">PEND: </text></g><g stroke-linecap="round"><g transform="translate(13.457303009489806 150.37640717282193) rotate(0 178.31141453301484 0)"><path d="M0.3 0.03 C59.93 0.1, 297.4 0.61, 356.63 0.69 M-1 -1 C58.57 -1.3, 295.84 -0.97, 355.69 -1.07" stroke="#1e1e1e" stroke-width="2" fill="none"></path></g></g><mask></mask><g transform="translate(135.24381763846304 126.32111075602279) rotate(0 55.54816199052266 10.342057796053723)"><text x="55.54816199052265" y="16.644249265523875" font-family="Cascadia, Segoe UI Emoji" font-size="17.236762993422786px" fill="#1e1e1e" text-anchor="middle" style="white-space: pre;" direction="ltr" dominant-baseline="alphabetic">Ordem total</text></g><g transform="translate(310.0478724415825 15.00000000000091) rotate(0 10.095703125 10.342057796053723)"><text x="10.095703125" y="16.644249265523875" font-family="Cascadia, Segoe UI Emoji" font-size="17.236762993422786px" fill="#2f9e44" text-anchor="middle" style="white-space: pre;" direction="ltr" dominant-baseline="alphabetic">P3</text></g><g transform="translate(180.69627591480958 15) rotate(0 10.095703125 10.342057796053723)"><text x="10.095703125" y="16.644249265523875" font-family="Cascadia, Segoe UI Emoji" font-size="17.236762993422786px" fill="#e03131" text-anchor="middle" style="white-space: pre;" direction="ltr" dominant-baseline="alphabetic">P2</text></g><g transform="translate(36.191219020537574 159.38640478155594) rotate(0 25.249164541146683 10.342057796053723)"><text x="25.24916454114666" y="16.644249265523875" font-family="Cascadia, Segoe UI Emoji" font-size="17.236762993422786px" fill="#1971c2" text-anchor="middle" style="white-space: pre;" direction="ltr" dominant-baseline="alphabetic">A,1,T</text></g><g transform="translate(165.54281554731006 159.38640478155503) rotate(0 25.249164541146683 10.342057796053723)"><text x="25.24916454114666" y="16.644249265523875" font-family="Cascadia, Segoe UI Emoji" font-size="17.236762993422786px" fill="#e03131" text-anchor="middle" style="white-space: pre;" direction="ltr" dominant-baseline="alphabetic">B,1,T</text></g><g transform="translate(165.98566030754182 187.4005507934071) rotate(0 25.249164541146683 10.342057796053723)"><text x="25.24916454114666" y="16.644249265523875" font-family="Cascadia, Segoe UI Emoji" font-size="17.236762993422786px" fill="#e03131" text-anchor="middle" style="white-space: pre;" direction="ltr" dominant-baseline="alphabetic">A,2,T</text></g><g transform="translate(294.894412074083 159.38640478155594) rotate(0 25.249164541146683 10.342057796053723)"><text x="25.24916454114666" y="16.644249265523875" font-family="Cascadia, Segoe UI Emoji" font-size="17.236762993422786px" fill="#2f9e44" text-anchor="middle" style="white-space: pre;" direction="ltr" dominant-baseline="alphabetic">C,1,T</text></g></svg>