<svg version="1.1" xmlns="http://www.w3.org/2000/svg" viewBox="0 0 551.0158561064804 314.01666194938844" width="551.0158561064804" height="314.01666194938844">
  <!-- svg-source:excalidraw -->
  
  <defs>
    <style class="style-fonts">
      @font-face {
        font-family: "Virgil";
        src: url("https://excalidraw.com/Virgil.woff2");
      }
      @font-face {
        font-family: "Cascadia";
        src: url("https://excalidraw.com/Cascadia.woff2");
      }
      @font-face {
        font-family: "Assistant";
        src: url("https://excalidraw.com/Assistant-Regular.woff2");
      }
    </style>
    
  </defs>
  <g stroke-linecap="round" transform="translate(14.04371982557086 35.000000110183464) rotate(0 62.50962118196935 70.80171378774071)"><path d="M31.25 0 C44.74 -0.93, 59.45 -1.2, 93.76 0 C116.25 -3.3, 128.36 12.41, 125.02 31.25 C124.36 58.59, 122.79 85.44, 125.02 110.35 C121.54 133.27, 115.95 142.74, 93.76 141.6 C72.6 143.92, 42.65 139.98, 31.25 141.6 C11.06 141.23, 3.01 134.24, 0 110.35 C0.99 76.15, -1.96 49.16, 0 31.25 C-0.72 6.95, 10.73 3.44, 31.25 0" stroke="none" stroke-width="0" fill="#ffc9c9"></path><path d="M31.25 0 C50 2.03, 70.52 1.78, 93.76 0 M31.25 0 C44.36 -1, 57.84 0.9, 93.76 0 M93.76 0 C113.27 1.42, 125.68 10.29, 125.02 31.25 M93.76 0 C115.76 0.59, 127.05 10.36, 125.02 31.25 M125.02 31.25 C125 61.32, 123.1 95.42, 125.02 110.35 M125.02 31.25 C125.88 62.55, 125.94 92.25, 125.02 110.35 M125.02 110.35 C126.98 130.02, 115.75 142.75, 93.76 141.6 M125.02 110.35 C125.73 129.24, 116.14 140.57, 93.76 141.6 M93.76 141.6 C73.47 143.26, 51.25 142.54, 31.25 141.6 M93.76 141.6 C75.8 140.39, 58.11 140.78, 31.25 141.6 M31.25 141.6 C10.32 141.68, -0.55 129.91, 0 110.35 M31.25 141.6 C11.88 143.74, -0.4 130.07, 0 110.35 M0 110.35 C-1.27 90.86, -0.2 77.09, 0 31.25 M0 110.35 C-1.34 89.56, -0.45 66.31, 0 31.25 M0 31.25 C0.28 11.7, 10.38 0.5, 31.25 0 M0 31.25 C0.88 9.27, 8.98 1.92, 31.25 0" stroke="#e03131" stroke-width="2" fill="none"></path></g><g stroke-linecap="round" transform="translate(214.69762328405614 35.000000110183464) rotate(0 62.50962118196935 70.80171378774071)"><path d="M31.25 0 C49.74 0.28, 67.63 0.88, 93.76 0 C114.73 2.82, 127.47 7.08, 125.02 31.25 C127.67 49.45, 122.81 73.27, 125.02 110.35 C122.93 129.21, 116.46 143.92, 93.76 141.6 C70.65 138.78, 47.91 138.89, 31.25 141.6 C13.25 141.49, -0.52 132.12, 0 110.35 C-0.56 81.66, 0.44 59.65, 0 31.25 C1.63 6.85, 7.52 3.38, 31.25 0" stroke="none" stroke-width="0" fill="#a5d8ff"></path><path d="M31.25 0 C46.06 1.71, 61.31 0.2, 93.76 0 M31.25 0 C48.03 0.59, 62.32 -0.14, 93.76 0 M93.76 0 C112.83 -0.29, 123.55 12.39, 125.02 31.25 M93.76 0 C115.78 -0.47, 123.44 10.79, 125.02 31.25 M125.02 31.25 C124.37 62.86, 123.41 90.76, 125.02 110.35 M125.02 31.25 C123.38 62.31, 123.74 91.83, 125.02 110.35 M125.02 110.35 C123.43 130.8, 114.26 141.29, 93.76 141.6 M125.02 110.35 C123.38 132.99, 116.65 140.93, 93.76 141.6 M93.76 141.6 C81.05 142.59, 66.59 140.03, 31.25 141.6 M93.76 141.6 C73.99 140.99, 54.09 141.68, 31.25 141.6 M31.25 141.6 C9.62 142.67, -1.83 132.79, 0 110.35 M31.25 141.6 C9.58 143.29, -0.85 130.89, 0 110.35 M0 110.35 C0.48 82.94, 0.69 53.95, 0 31.25 M0 110.35 C0.44 89.66, 1.49 71.25, 0 31.25 M0 31.25 C-0.48 10.11, 12.31 -0.2, 31.25 0 M0 31.25 C-1.56 12.68, 9.43 -1.38, 31.25 0" stroke="#1971c2" stroke-width="2" fill="none"></path></g><g stroke-linecap="round" transform="translate(415.99661374254174 35.000000110183464) rotate(0 62.50962118196935 70.80171378774071)"><path d="M31.25 0 C57.45 -2.73, 76.88 -1.99, 93.76 0 C114.85 -2.75, 123.58 9.55, 125.02 31.25 C124.48 53.52, 125.61 72.38, 125.02 110.35 C124.33 128.32, 112.26 143.44, 93.76 141.6 C72.37 146.05, 45.9 143.42, 31.25 141.6 C8.65 139.05, -3.54 128.76, 0 110.35 C2.9 95.72, 0.88 77.71, 0 31.25 C-1.55 8.17, 11.37 -2.03, 31.25 0" stroke="none" stroke-width="0" fill="#a5d8ff"></path><path d="M31.25 0 C50.81 -1.09, 72.76 -0.22, 93.76 0 M31.25 0 C47.36 -0.24, 63.74 -0.12, 93.76 0 M93.76 0 C113.71 0.26, 123.27 8.81, 125.02 31.25 M93.76 0 C114.81 0.23, 125.5 9.5, 125.02 31.25 M125.02 31.25 C124.34 58.24, 126.19 82.09, 125.02 110.35 M125.02 31.25 C124.95 61.1, 126.36 93.47, 125.02 110.35 M125.02 110.35 C125.72 129.41, 115.06 142.19, 93.76 141.6 M125.02 110.35 C127.05 131.87, 115.5 139.53, 93.76 141.6 M93.76 141.6 C78.56 143.48, 61.62 140.04, 31.25 141.6 M93.76 141.6 C71.64 140.64, 47.81 142.07, 31.25 141.6 M31.25 141.6 C10.93 140.81, 1.33 131.58, 0 110.35 M31.25 141.6 C12.44 140.36, 1.19 133.18, 0 110.35 M0 110.35 C-0.6 82.04, 0.88 53.95, 0 31.25 M0 110.35 C0.79 86.76, 0.1 63.87, 0 31.25 M0 31.25 C-0.92 10.14, 12.18 -1.69, 31.25 0 M0 31.25 C-2.05 10.23, 9.52 0.97, 31.25 0" stroke="#1971c2" stroke-width="2" fill="none"></path></g><g transform="translate(36.42329413628249 10.000000000000455) rotate(0 37.06995391845703 12.5)"><text x="0" y="17.52" font-family="Virgil, Segoe UI Emoji" font-size="20px" fill="#e03131" text-anchor="start" style="white-space: pre;" direction="ltr" dominant-baseline="alphabetic">Primário</text></g><g transform="translate(428.2562891362827 10.000000000000455) rotate(0 50.24994659423828 12.5)"><text x="0" y="17.52" font-family="Virgil, Segoe UI Emoji" font-size="20px" fill="#1971c2" text-anchor="start" style="white-space: pre;" direction="ltr" dominant-baseline="alphabetic">Secundário</text></g><g transform="translate(226.95729813628304 10) rotate(0 50.24994659423828 12.5)"><text x="0" y="17.52" font-family="Virgil, Segoe UI Emoji" font-size="20px" fill="#1971c2" text-anchor="start" style="white-space: pre;" direction="ltr" dominant-baseline="alphabetic">Secundário</text></g><g stroke-linecap="round" transform="translate(10 250.94734964348208) rotate(0 26.534656152953403 26.534656152953403)"><path d="M34.57 0.55 C39.5 2.05, 45.29 7.93, 48.44 13.06 C51.58 18.19, 54.01 25.89, 53.44 31.32 C52.87 36.76, 49.35 42.16, 45.01 45.65 C40.67 49.14, 33.36 51.92, 27.41 52.27 C21.45 52.62, 13.76 51.06, 9.3 47.76 C4.84 44.47, 1.79 38.08, 0.64 32.51 C-0.5 26.94, -0.33 19.58, 2.42 14.35 C5.16 9.13, 10.93 2.89, 17.1 1.16 C23.27 -0.57, 35.09 3.17, 39.43 3.97 C43.76 4.76, 43.21 5.75, 43.11 5.94 M25.59 -0.06 C31.03 -0.31, 38.95 1.72, 43.71 5.48 C48.46 9.24, 53.23 16.77, 54.1 22.51 C54.97 28.26, 52.19 35.22, 48.91 39.96 C45.64 44.71, 39.53 49.28, 34.44 50.99 C29.36 52.69, 23.75 52.02, 18.42 50.19 C13.09 48.36, 5.69 44.88, 2.44 40.01 C-0.81 35.14, -2.1 26.81, -1.08 20.98 C-0.06 15.16, 4.12 8.73, 8.54 5.06 C12.96 1.39, 22.43 -0.51, 25.44 -1.03 C28.44 -1.55, 26.54 1.18, 26.57 1.94" stroke="none" stroke-width="0" fill="#b2f2bb"></path><path d="M34.55 2.36 C39.82 3.65, 46.66 7.34, 49.77 12.05 C52.88 16.76, 54.19 24.83, 53.22 30.61 C52.26 36.39, 48.34 42.84, 43.96 46.73 C39.58 50.62, 32.49 53.89, 26.95 53.96 C21.4 54.03, 15.18 50.84, 10.69 47.14 C6.19 43.44, 1.14 37.35, -0.01 31.76 C-1.15 26.17, 0.86 18.68, 3.8 13.6 C6.75 8.53, 11.87 3.16, 17.66 1.32 C23.46 -0.52, 34.82 1.9, 38.56 2.56 C42.3 3.22, 40.48 4.92, 40.11 5.27 M39.52 3.37 C44.55 5.66, 49.03 11.41, 51.26 16.67 C53.48 21.92, 54.72 29.72, 52.88 34.91 C51.03 40.09, 45.46 44.64, 40.2 47.78 C34.94 50.92, 26.68 54.29, 21.33 53.73 C15.99 53.18, 11.89 48.83, 8.14 44.42 C4.39 40.02, -0.55 32.86, -1.18 27.29 C-1.8 21.73, 0.59 15.63, 4.37 11.02 C8.16 6.41, 15.59 0.96, 21.53 -0.39 C27.46 -1.73, 37.26 2.15, 39.98 2.94 C42.7 3.73, 38.45 3.93, 37.85 4.37" stroke="#2f9e44" stroke-width="2" fill="none"></path></g><g transform="translate(27.62182695426236 265.2191704942288) rotate(0 9.149993896484375 12.5)"><text x="9.149993896484375" y="17.52" font-family="Virgil, Segoe UI Emoji" font-size="20px" fill="#2f9e44" text-anchor="middle" style="white-space: pre;" direction="ltr" dominant-baseline="alphabetic">C1</text></g><g stroke-linecap="round"><g transform="translate(48.72360319427435 253.63257501048565) rotate(0 10.350005807794105 -38.01457366241016)"><path d="M0.04 -0.96 C1.97 -4.05, 9.07 -6.38, 12.69 -18.86 C16.31 -31.35, 20.39 -66.24, 21.78 -75.84 M-1.4 1.16 C0.22 -2.23, 7.63 -7.88, 11.46 -20.47 C15.29 -33.07, 19.91 -65.23, 21.58 -74.43" stroke="#2f9e44" stroke-width="2" fill="none"></path></g><g transform="translate(48.72360319427435 253.63257501048565) rotate(0 10.350005807794105 -38.01457366241016)"><path d="M26.19 -49.86 C22.84 -60.46, 24.24 -67.46, 21.58 -74.43 M26.19 -49.86 C23.88 -57.27, 23.3 -66.07, 21.58 -74.43" stroke="#2f9e44" stroke-width="2" fill="none"></path></g><g transform="translate(48.72360319427435 253.63257501048565) rotate(0 10.350005807794105 -38.01457366241016)"><path d="M9.32 -52.64 C12.62 -62.15, 20.69 -68.05, 21.58 -74.43 M9.32 -52.64 C12.34 -59.11, 17.08 -67.03, 21.58 -74.43" stroke="#2f9e44" stroke-width="2" fill="none"></path></g></g><mask></mask><g transform="translate(26.048457941416473 210.26794383080687) rotate(0 15.839996337890625 12.5)"><text x="31.67999267578125" y="17.52" font-family="Virgil, Segoe UI Emoji" font-size="20px" fill="#2f9e44" text-anchor="end" style="white-space: pre;" direction="ltr" dominant-baseline="alphabetic">+10</text></g><g transform="translate(44.04277868027657 65.2171017136734) rotate(0 20.839996337890625 37.5)"><text x="41.67999267578125" y="17.52" font-family="Virgil, Segoe UI Emoji" font-size="20px" fill="#1e1e1e" text-anchor="end" style="white-space: pre;" direction="ltr" dominant-baseline="alphabetic">0</text><text x="41.67999267578125" y="42.519999999999996" font-family="Virgil, Segoe UI Emoji" font-size="20px" fill="#1e1e1e" text-anchor="end" style="white-space: pre;" direction="ltr" dominant-baseline="alphabetic">+ 10</text><text x="41.67999267578125" y="67.52" font-family="Virgil, Segoe UI Emoji" font-size="20px" fill="#1e1e1e" text-anchor="end" style="white-space: pre;" direction="ltr" dominant-baseline="alphabetic">10</text></g><g stroke-linecap="round"><g transform="translate(45.90121179608559 114.3554648489885) rotate(0 20.8244474686594 0)"><path d="M-0.07 0.55 C6.81 0.67, 34.42 0.45, 41.28 0.35 M-0.77 0.35 C6.28 0.36, 35.17 -0.46, 42.33 -0.43" stroke="#1e1e1e" stroke-width="2" fill="none"></path></g></g><mask></mask><g transform="translate(270.3272471862697 65.21710221167496) rotate(0 6.879997253417969 12.5)"><text x="13.759994506835938" y="17.52" font-family="Virgil, Segoe UI Emoji" font-size="20px" fill="#1e1e1e" text-anchor="end" style="white-space: pre;" direction="ltr" dominant-baseline="alphabetic">0</text></g><g transform="translate(471.62623852402567 65.21710236330091) rotate(0 6.879997253417969 12.5)"><text x="13.759994506835938" y="17.52" font-family="Virgil, Segoe UI Emoji" font-size="20px" fill="#1e1e1e" text-anchor="end" style="white-space: pre;" direction="ltr" dominant-baseline="alphabetic">0</text></g><g mask="url(#mask--2uW-quUifZwUm_9lRzok)" stroke-linecap="round"><g transform="translate(138.96302862831863 65.21710193214858) rotate(0 37.02983287565371 -3.0951336851967426)"><path d="M0.91 -0.62 C7.14 -1.42, 25.76 -4.97, 37.97 -5.47 C50.19 -5.98, 68 -3.57, 74.19 -3.65 M-0.07 1.67 C6.03 0.58, 25.26 -6.04, 37.52 -7.22 C49.78 -8.4, 67.7 -5.72, 73.49 -5.43" stroke="#e03131" stroke-width="2" fill="none"></path></g><g transform="translate(138.96302862831863 65.21710193214858) rotate(0 37.02983287565371 -3.0951336851967426)"><path d="M55.57 -0.72 C60.9 -1.04, 69.23 -3.95, 73.49 -5.43 M55.57 -0.72 C62.33 -2.78, 68.79 -4.37, 73.49 -5.43" stroke="#e03131" stroke-width="2" fill="none"></path></g><g transform="translate(138.96302862831863 65.21710193214858) rotate(0 37.02983287565371 -3.0951336851967426)"><path d="M56.74 -13.34 C61.6 -9.24, 69.52 -7.73, 73.49 -5.43 M56.74 -13.34 C63.16 -10.49, 69.16 -7.16, 73.49 -5.43" stroke="#e03131" stroke-width="2" fill="none"></path></g></g><mask id="mask--2uW-quUifZwUm_9lRzok"><rect x="0" y="0" fill="#fff" width="313.02269437962605" height="171.40736930254207"></rect><rect x="166.40286516608194" y="46.526834561755095" fill="#000" width="19.17999267578125" height="25" opacity="1"></rect></mask><g transform="translate(166.40286516608194 46.526834561755095) rotate(0 9.617162841446543 15.765470893878046)"><text x="9.589996337890625" y="17.52" font-family="Virgil, Segoe UI Emoji" font-size="20px" fill="#e03131" text-anchor="middle" style="white-space: pre;" direction="ltr" dominant-baseline="alphabetic">10</text></g><g mask="url(#mask-Yr6r-dR9-0_8TCNREr8vN)" stroke-linecap="round"><g transform="translate(139.45026327141932 119.68003241193765) rotate(0 137.8874039975001 -7.065079141323167)"><path d="M-0.04 1.11 C8.86 -0.8, 8.17 -9.09, 54.33 -11.73 C100.5 -14.37, 239.9 -14.55, 276.95 -14.76 M-1.52 0.65 C7.18 -1.11, 7.21 -8.23, 53.6 -10.64 C99.98 -13.04, 239.51 -13.06, 276.8 -13.77" stroke="#e03131" stroke-width="2" fill="none"></path></g><g transform="translate(139.45026327141932 119.68003241193765) rotate(0 137.8874039975001 -7.065079141323167)"><path d="M253.39 -4.99 C264.05 -7.6, 269.57 -9.61, 276.8 -13.77 M253.39 -4.99 C258.23 -6.63, 265.2 -8.79, 276.8 -13.77" stroke="#e03131" stroke-width="2" fill="none"></path></g><g transform="translate(139.45026327141932 119.68003241193765) rotate(0 137.8874039975001 -7.065079141323167)"><path d="M253.23 -22.09 C263.91 -18.29, 269.49 -13.88, 276.8 -13.77 M253.23 -22.09 C258.23 -19.49, 265.24 -17.42, 276.8 -13.77" stroke="#e03131" stroke-width="2" fill="none"></path></g></g><mask id="mask-Yr6r-dR9-0_8TCNREr8vN"><rect x="0" y="0" fill="#fff" width="515.2250712664195" height="233.81019069458398"></rect><rect x="183.78874757907352" y="96.29562902129601" fill="#000" width="19.17999267578125" height="25" opacity="1"></rect></mask><g transform="translate(183.78874757907352 96.29562902129601) rotate(0 93.37460347973251 16.562439941531693)"><text x="9.589996337890625" y="17.52" font-family="Virgil, Segoe UI Emoji" font-size="20px" fill="#e03131" text-anchor="middle" style="white-space: pre;" direction="ltr" dominant-baseline="alphabetic">10</text></g></svg>