<svg version="1.1" xmlns="http://www.w3.org/2000/svg" viewBox="0 0 381.5839580796196 190.0705203736652" width="381.5839580796196" height="190.0705203736652">
  <!-- svg-source:excalidraw -->
  
  <defs>
    <style class="style-fonts">
      @font-face {
        font-family: "Virgil";
        src: url("https://excalidraw.com/Virgil.woff2");
      }
      @font-face {
        font-family: "Cascadia";
        src: url("https://excalidraw.com/Cascadia.woff2");
      }
      @font-face {
        font-family: "Assistant";
        src: url("https://excalidraw.com/Assistant-Regular.woff2");
      }
    </style>
    
  </defs>
  <g stroke-linecap="round" transform="translate(10 10.000000000002728) rotate(0 51.440382513036866 51.44038251303709)"><path d="M25.72 0 C35.07 -3.09, 46.98 3.75, 77.16 0 C96.98 -1.74, 99.69 9.29, 102.88 25.72 C99.96 45.48, 98.64 66.88, 102.88 77.16 C106.17 92.27, 96.03 102.45, 77.16 102.88 C60.27 99.39, 41.37 104.88, 25.72 102.88 C10.5 99.32, 0.55 92.81, 0 77.16 C-1.7 66.33, -2.26 50.97, 0 25.72 C0.71 5, 8.45 3.02, 25.72 0" stroke="none" stroke-width="0" fill="#a5d8ff"></path><path d="M25.72 0 C42.66 1.49, 63.1 -1.17, 77.16 0 M25.72 0 C41.24 -0.08, 54.41 0.75, 77.16 0 M77.16 0 C94.21 1.14, 103.67 9.22, 102.88 25.72 M77.16 0 C93.95 2.1, 100.84 6.73, 102.88 25.72 M102.88 25.72 C101.13 37.22, 100.59 50.53, 102.88 77.16 M102.88 25.72 C103.84 38.44, 102.45 48.51, 102.88 77.16 M102.88 77.16 C102.08 95.69, 96.23 103.63, 77.16 102.88 M102.88 77.16 C103.15 95.5, 94.25 102.16, 77.16 102.88 M77.16 102.88 C57.04 102.14, 35.17 101.37, 25.72 102.88 M77.16 102.88 C57.88 102.84, 37.42 104, 25.72 102.88 M25.72 102.88 C6.8 103.78, -0.46 93.41, 0 77.16 M25.72 102.88 C9.93 103.85, 0.64 92.3, 0 77.16 M0 77.16 C-0.71 67.59, 0.5 52.73, 0 25.72 M0 77.16 C-0.03 65.55, -0.28 55.04, 0 25.72 M0 25.72 C1.42 7.1, 8.3 1.75, 25.72 0 M0 25.72 C-2.26 8.24, 7.21 1.25, 25.72 0" stroke="#1971c2" stroke-width="2" fill="none"></path></g><g transform="translate(16.985142503971474 41.41762431622465) rotate(0 37.5 19.199999999999818)"><text x="0" y="15.45" font-family="Cascadia, Segoe UI Emoji" font-size="16px" fill="#1e1e1e" text-anchor="start" style="white-space: pre;" direction="ltr" dominant-baseline="alphabetic">IN:(A,2)</text><text x="0" y="34.65" font-family="Cascadia, Segoe UI Emoji" font-size="16px" fill="#1e1e1e" text-anchor="start" style="white-space: pre;" direction="ltr" dominant-baseline="alphabetic">PEND: </text></g><g transform="translate(51.34467938803709 15.000000000002728) rotate(0 10.095703125 10.342057796053723)"><text x="10.095703125" y="16.644249265523875" font-family="Cascadia, Segoe UI Emoji" font-size="17.236762993422786px" fill="#1971c2" text-anchor="middle" style="white-space: pre;" direction="ltr" dominant-baseline="alphabetic">P1</text></g><g stroke-linecap="round" transform="translate(139.3515965267734 10) rotate(0 51.440382513036866 51.44038251303709)"><path d="M25.72 0 C42.79 1.17, 69.54 -2.83, 77.16 0 C92.01 -2.07, 102.48 5.17, 102.88 25.72 C105.45 41.91, 104.59 60.14, 102.88 77.16 C99.94 94.09, 91.57 100.43, 77.16 102.88 C58.33 100.47, 35.79 105.29, 25.72 102.88 C10.54 102.03, 0.85 92.9, 0 77.16 C-0.3 68.8, -1.86 53.11, 0 25.72 C0.57 5.34, 5.7 -1.14, 25.72 0" stroke="none" stroke-width="0" fill="#ffc9c9"></path><path d="M25.72 0 C38.49 2.18, 51.09 -0.54, 77.16 0 M25.72 0 C45.43 0.03, 64.2 0.62, 77.16 0 M77.16 0 C92.53 -1.6, 101.67 6.68, 102.88 25.72 M77.16 0 C93.75 -1.45, 101.94 6.5, 102.88 25.72 M102.88 25.72 C102.77 42.79, 104.36 55.88, 102.88 77.16 M102.88 25.72 C103.64 37.41, 102.79 48.87, 102.88 77.16 M102.88 77.16 C102.83 93.68, 96.25 104.49, 77.16 102.88 M102.88 77.16 C101.91 94.66, 93.7 101.58, 77.16 102.88 M77.16 102.88 C66.62 103.08, 52.03 101.04, 25.72 102.88 M77.16 102.88 C57.84 102.66, 39.57 103.53, 25.72 102.88 M25.72 102.88 C9.13 101.14, -1.52 95.14, 0 77.16 M25.72 102.88 C6.43 102.31, 2.26 95.12, 0 77.16 M0 77.16 C0.7 65.16, 0.01 52.73, 0 25.72 M0 77.16 C-0.5 59.02, -1.35 38.98, 0 25.72 M0 25.72 C-1.18 9.66, 6.83 -1.39, 25.72 0 M0 25.72 C-0.92 7.55, 6.36 -0.41, 25.72 0" stroke="#e03131" stroke-width="2" fill="none"></path></g><g transform="translate(145.89389534781048 41.41762431622283) rotate(0 37.5 19.199999999999818)"><text x="0" y="15.45" font-family="Cascadia, Segoe UI Emoji" font-size="16px" fill="#1e1e1e" text-anchor="start" style="white-space: pre;" direction="ltr" dominant-baseline="alphabetic">IN:(A,2)</text><text x="0" y="34.65" font-family="Cascadia, Segoe UI Emoji" font-size="16px" fill="#1e1e1e" text-anchor="start" style="white-space: pre;" direction="ltr" dominant-baseline="alphabetic">PEND: </text></g><g stroke-linecap="round" transform="translate(268.7031930535454 10.000000000002728) rotate(0 51.44038251303709 51.44038251303709)"><path d="M25.72 0 C39.88 -1.23, 58.24 -2.56, 77.16 0 C95.14 3.29, 100.84 10.29, 102.88 25.72 C100.16 40.31, 100.37 52.89, 102.88 77.16 C105.64 96.23, 90.75 103.43, 77.16 102.88 C65.83 102.89, 51.41 102.33, 25.72 102.88 C5.74 103.59, -3.58 94.19, 0 77.16 C1 54.18, -2.44 36.53, 0 25.72 C2.21 7.36, 9.96 -3.03, 25.72 0" stroke="none" stroke-width="0" fill="#b2f2bb"></path><path d="M25.72 0 C47.72 0.09, 67.83 0.98, 77.16 0 M25.72 0 C41.93 -1.27, 59.3 -1.41, 77.16 0 M77.16 0 C93.82 -1.26, 102.06 6.77, 102.88 25.72 M77.16 0 C94.5 -1.63, 104.47 8.86, 102.88 25.72 M102.88 25.72 C101.75 43.46, 104.74 64.72, 102.88 77.16 M102.88 25.72 C102.92 42.77, 103.91 61.25, 102.88 77.16 M102.88 77.16 C102.03 94.61, 93.78 101.75, 77.16 102.88 M102.88 77.16 C101.4 96.1, 93.75 104.69, 77.16 102.88 M77.16 102.88 C62.32 100.67, 45.53 101.98, 25.72 102.88 M77.16 102.88 C64.32 102.23, 50.17 103.51, 25.72 102.88 M25.72 102.88 C6.71 102.39, 1.97 95.02, 0 77.16 M25.72 102.88 C7.01 101.08, -0.02 94.65, 0 77.16 M0 77.16 C1.5 63.33, -1.37 46.38, 0 25.72 M0 77.16 C-0.09 57.78, -0.37 36.61, 0 25.72 M0 25.72 C-0.8 7.69, 6.65 -0.35, 25.72 0 M0 25.72 C2.16 10.28, 7.46 -2.04, 25.72 0" stroke="#2f9e44" stroke-width="2" fill="none"></path></g><g transform="translate(275.2454918745839 41.41762431622465) rotate(0 28.125 19.199999999999818)"><text x="0" y="15.45" font-family="Cascadia, Segoe UI Emoji" font-size="16px" fill="#1e1e1e" text-anchor="start" style="white-space: pre;" direction="ltr" dominant-baseline="alphabetic">IN: </text><text x="0" y="34.65" font-family="Cascadia, Segoe UI Emoji" font-size="16px" fill="#1e1e1e" text-anchor="start" style="white-space: pre;" direction="ltr" dominant-baseline="alphabetic">PEND: </text></g><g stroke-linecap="round"><g transform="translate(13.457303009489351 150.37640717282375) rotate(0 178.3114145330146 0)"><path d="M0.47 0.39 C59.89 0.46, 297.26 1.32, 356.44 1.09 M-0.74 -0.45 C58.51 -0.76, 295.62 -0.51, 355.39 -0.45" stroke="#1e1e1e" stroke-width="2" fill="none"></path></g></g><mask></mask><g transform="translate(135.2656124414857 126.32111075602461) rotate(0 55.5263671875 10.342057796053723)"><text x="55.5263671875" y="16.644249265523875" font-family="Cascadia, Segoe UI Emoji" font-size="17.236762993422786px" fill="#1e1e1e" text-anchor="middle" style="white-space: pre;" direction="ltr" dominant-baseline="alphabetic">Ordem total</text></g><g transform="translate(310.04787244158206 15.000000000002728) rotate(0 10.095703125 10.342057796053723)"><text x="10.095703125" y="16.644249265523875" font-family="Cascadia, Segoe UI Emoji" font-size="17.236762993422786px" fill="#2f9e44" text-anchor="middle" style="white-space: pre;" direction="ltr" dominant-baseline="alphabetic">P3</text></g><g transform="translate(180.69627591481049 15) rotate(0 10.095703125 10.342057796053723)"><text x="10.095703125" y="16.644249265523875" font-family="Cascadia, Segoe UI Emoji" font-size="17.236762993422786px" fill="#e03131" text-anchor="middle" style="white-space: pre;" direction="ltr" dominant-baseline="alphabetic">P2</text></g><g transform="translate(36.201125749185394 159.38640478155776) rotate(0 25.2392578125 10.342057796053723)"><text x="25.2392578125" y="16.644249265523875" font-family="Cascadia, Segoe UI Emoji" font-size="17.236762993422786px" fill="#1971c2" text-anchor="middle" style="white-space: pre;" direction="ltr" dominant-baseline="alphabetic">C,3,T</text></g><g transform="translate(165.55272227595697 159.38640478155776) rotate(0 25.2392578125 10.342057796053723)"><text x="25.2392578125" y="16.644249265523875" font-family="Cascadia, Segoe UI Emoji" font-size="17.236762993422786px" fill="#e03131" text-anchor="middle" style="white-space: pre;" direction="ltr" dominant-baseline="alphabetic">B,1,T</text></g><g transform="translate(294.90431880272945 159.38640478155776) rotate(0 25.2392578125 10.342057796053723)"><text x="25.2392578125" y="16.644249265523875" font-family="Cascadia, Segoe UI Emoji" font-size="17.236762993422786px" fill="#2f9e44" text-anchor="middle" style="white-space: pre;" direction="ltr" dominant-baseline="alphabetic">C,1,T</text></g></svg>