<svg version="1.1" xmlns="http://www.w3.org/2000/svg" viewBox="0 0 589.8363695450403 302.7431665908555" width="589.8363695450403" height="302.7431665908555">
  <!-- svg-source:excalidraw -->
  
  <defs>
    <style class="style-fonts">
      @font-face {
        font-family: "Virgil";
        src: url("https://excalidraw.com/Virgil.woff2");
      }
      @font-face {
        font-family: "Cascadia";
        src: url("https://excalidraw.com/Cascadia.woff2");
      }
      @font-face {
        font-family: "Assistant";
        src: url("https://excalidraw.com/Assistant-Regular.woff2");
      }
    </style>
    
  </defs>
  <g stroke-linecap="round"><g transform="translate(11.748171535786241 37.90630621240098) rotate(0 67.61051891951183 0)"><path d="M-0.19 0.01 C22.47 0.05, 113.81 0.77, 136.39 0.68 M-1.75 -1.03 C20.82 -1.37, 113.33 -1.34, 136.05 -1.08" stroke="#1e1e1e" stroke-width="2" fill="none"></path></g></g><mask></mask><g transform="translate(55.92096188546202 10) rotate(0 23.4375 12)"><text x="23.4375" y="0" font-family="Cascadia, Segoe UI Emoji" font-size="20px" fill="#1e1e1e" text-anchor="middle" style="white-space: pre;" direction="ltr" dominant-baseline="text-before-edge">W(0)</text></g><g stroke-linecap="round"><g transform="translate(171.6942939524297 97.91306417723035) rotate(0 37.357412215644445 0)"><path d="M0.06 -0.51 C12.48 -0.79, 63.21 -1.24, 75.65 -1 M-1.36 -1.82 C10.87 -2.04, 62.64 -0.14, 75.19 0.02" stroke="#1e1e1e" stroke-width="2" fill="none"></path></g></g><mask></mask><g transform="translate(186.03047125364265 69.71561006741285) rotate(0 23.4375 12)"><text x="23.4375" y="0" font-family="Cascadia, Segoe UI Emoji" font-size="20px" fill="#1e1e1e" text-anchor="middle" style="white-space: pre;" direction="ltr" dominant-baseline="text-before-edge">R(0)</text></g><g stroke-linecap="round"><g transform="translate(11.567522502090469 291.76781074106793) rotate(0 280.14605431125324 0)"><path d="M-0.01 0.98 C93.32 0.94, 467.35 -1.03, 560.89 -1.19 M-1.47 0.44 C91.67 0.6, 466.51 -0.43, 560.26 -0.28" stroke="#1e1e1e" stroke-width="2" fill="none"></path></g><g transform="translate(11.567522502090469 291.76781074106793) rotate(0 280.14605431125324 0)"><path d="M536.78 8.29 C547.34 6.06, 552.6 3.46, 560.26 -0.28 M536.78 8.29 C543.14 5.41, 550.06 3.2, 560.26 -0.28" stroke="#1e1e1e" stroke-width="2" fill="none"></path></g><g transform="translate(11.567522502090469 291.76781074106793) rotate(0 280.14605431125324 0)"><path d="M536.76 -8.81 C547.19 -4.58, 552.46 -0.73, 560.26 -0.28 M536.76 -8.81 C543.12 -6.54, 550.05 -3.6, 560.26 -0.28" stroke="#1e1e1e" stroke-width="2" fill="none"></path></g></g><mask></mask><g transform="translate(562.251537721344 249.77771519187127) rotate(0 8.792415911848138 19.452251094859093)"><text x="8.792415911848067" y="0" font-family="Virgil, Segoe UI Emoji" font-size="31.12360175177456px" fill="#1e1e1e" text-anchor="middle" style="white-space: pre;" direction="ltr" dominant-baseline="text-before-edge">t</text></g><g stroke-linecap="round"><g transform="translate(257.24811803892226 142.97099926581723) rotate(0 37.357412215644445 0)"><path d="M0.98 0.01 C13.33 0.12, 62.54 -0.44, 74.69 -0.52 M0.04 -1.03 C12.17 -0.65, 61.01 0.47, 73.72 0.74" stroke="#1e1e1e" stroke-width="2" fill="none"></path></g></g><mask></mask><g transform="translate(271.0389453401349 114.264073156) rotate(0 23.4375 12)"><text x="23.4375" y="0" font-family="Cascadia, Segoe UI Emoji" font-size="20px" fill="#1e1e1e" text-anchor="middle" style="white-space: pre;" direction="ltr" dominant-baseline="text-before-edge">R(0)</text></g><g stroke-linecap="round"><g transform="translate(291.5040326122198 37.90630647878152) rotate(0 67.61051891951183 0)"><path d="M-0.86 -0.48 C21.51 -0.4, 111.35 0.06, 134.19 -0.03 M0.89 -1.77 C23.63 -1.45, 113.86 1.23, 136.35 1.49" stroke="#1e1e1e" stroke-width="2" fill="none"></path></g></g><mask></mask><g transform="translate(335.6768229618956 11.000000266380994) rotate(0 23.4375 12)"><text x="23.4375" y="0" font-family="Cascadia, Segoe UI Emoji" font-size="20px" fill="#1e1e1e" text-anchor="middle" style="white-space: pre;" direction="ltr" dominant-baseline="text-before-edge">W(1)</text></g><g stroke-linecap="round"><g transform="translate(360.23492447786884 187.5565678720227) rotate(0 37.357412215644445 0)"><path d="M0.92 -1.01 C13.35 -1.01, 61.21 -0.25, 73.56 -0.01 M-0.06 1.07 C12.81 1.28, 63.26 1.98, 75.66 1.53" stroke="#1e1e1e" stroke-width="2" fill="none"></path></g></g><mask></mask><g transform="translate(374.0257517790815 158.849641762205) rotate(0 23.4375 12)"><text x="23.4375" y="0" font-family="Cascadia, Segoe UI Emoji" font-size="20px" fill="#1e1e1e" text-anchor="middle" style="white-space: pre;" direction="ltr" dominant-baseline="text-before-edge">R(1)</text></g><g stroke-linecap="round"><g transform="translate(460.2246437665235 229.73305880350017) rotate(0 37.357412215644445 0)"><path d="M0.28 0.47 C13.09 0.28, 63.45 -1.1, 75.71 -1.15 M-1.03 -0.33 C11.81 -0.42, 62.4 -0.54, 75.29 -0.22" stroke="#1e1e1e" stroke-width="2" fill="none"></path></g></g><mask></mask><g transform="translate(474.01547106773614 201.02613269368248) rotate(0 23.4375 12)"><text x="23.4375" y="0" font-family="Cascadia, Segoe UI Emoji" font-size="20px" fill="#1e1e1e" text-anchor="middle" style="white-space: pre;" direction="ltr" dominant-baseline="text-before-edge">R(1)</text></g><g stroke-linecap="round" transform="translate(126.48027916855972 29.555339195736906) rotate(0 6.290997091530016 6.290997091530016)"><path d="M6.77 0.19 C7.91 0.06, 9 0.17, 9.96 1 C10.92 1.84, 12.2 3.84, 12.54 5.21 C12.87 6.57, 12.59 8.07, 11.94 9.19 C11.29 10.32, 9.99 11.42, 8.63 11.94 C7.27 12.46, 5.06 12.71, 3.79 12.3 C2.53 11.9, 1.61 10.64, 1.03 9.5 C0.45 8.36, 0.04 6.86, 0.3 5.44 C0.55 4.03, 1.5 1.84, 2.57 1 C3.65 0.16, 6.02 0.59, 6.76 0.43 C7.5 0.27, 7.02 0.04, 7.01 0.05 M7.93 -0.49 C9.3 -0.26, 10.58 1.34, 11.35 2.4 C12.13 3.46, 12.66 4.5, 12.58 5.86 C12.5 7.23, 11.7 9.54, 10.87 10.6 C10.05 11.66, 8.96 11.9, 7.63 12.22 C6.29 12.53, 3.98 13.13, 2.86 12.5 C1.73 11.87, 1.33 9.86, 0.9 8.43 C0.47 7, 0 5.21, 0.3 3.91 C0.61 2.6, 1.66 1.27, 2.73 0.59 C3.81 -0.1, 6.09 -0.17, 6.76 -0.2 C7.42 -0.23, 6.69 0.14, 6.72 0.41" stroke="none" stroke-width="0" fill="#a5d8ff"></path><path d="M8.23 0.16 C9.61 0.5, 11.09 1.93, 11.8 3 C12.5 4.07, 12.56 5.31, 12.47 6.6 C12.38 7.9, 12.13 9.84, 11.26 10.76 C10.39 11.69, 8.6 12.02, 7.25 12.13 C5.9 12.25, 4.39 12.17, 3.14 11.44 C1.9 10.72, 0.29 9.07, -0.21 7.78 C-0.7 6.5, -0.4 4.96, 0.17 3.74 C0.75 2.52, 1.92 1.06, 3.24 0.49 C4.55 -0.09, 7.17 0.33, 8.07 0.27 C8.97 0.22, 8.66 0.08, 8.64 0.16 M6.82 0.72 C8.02 1, 9.42 1.82, 10.47 2.76 C11.52 3.7, 13.09 5.02, 13.11 6.35 C13.13 7.68, 11.4 9.61, 10.61 10.73 C9.82 11.84, 9.67 12.81, 8.38 13.06 C7.09 13.32, 4.13 13.02, 2.88 12.26 C1.63 11.51, 1.3 9.81, 0.86 8.52 C0.42 7.24, -0.21 5.81, 0.22 4.56 C0.64 3.31, 2.32 1.8, 3.39 1 C4.46 0.21, 5.9 -0.15, 6.62 -0.22 C7.34 -0.28, 7.67 0.56, 7.71 0.61" stroke="#1971c2" stroke-width="2" fill="none"></path></g><g stroke-linecap="round" transform="translate(234.0331029007898 91.11629220516215) rotate(0 6.290997091530016 6.290997091530016)"><path d="M6.79 0 C7.94 0.19, 9.55 1.5, 10.54 2.58 C11.53 3.66, 12.65 5.17, 12.72 6.49 C12.79 7.81, 11.75 9.57, 10.97 10.49 C10.19 11.4, 9.29 11.85, 8.05 12 C6.81 12.14, 4.81 12, 3.51 11.37 C2.21 10.73, 0.76 9.33, 0.24 8.21 C-0.27 7.09, -0.08 5.94, 0.44 4.65 C0.95 3.35, 2.17 1.14, 3.35 0.45 C4.54 -0.23, 6.78 0.61, 7.53 0.54 C8.29 0.46, 7.9 0.02, 7.9 -0.01 M5.83 -0.34 C6.94 -0.57, 7.95 0.59, 9.02 1.27 C10.08 1.94, 11.65 2.43, 12.23 3.72 C12.81 5.02, 13.08 7.6, 12.5 9.07 C11.92 10.53, 10.07 11.98, 8.73 12.51 C7.39 13.04, 5.62 12.54, 4.47 12.24 C3.32 11.94, 2.52 11.81, 1.82 10.7 C1.13 9.59, 0.43 7.04, 0.3 5.57 C0.18 4.1, 0.31 2.73, 1.09 1.87 C1.88 1.01, 4.41 0.76, 5 0.41 C5.6 0.05, 4.61 -0.21, 4.66 -0.26" stroke="none" stroke-width="0" fill="#a5d8ff"></path><path d="M6.26 -0.12 C7.51 -0.34, 9.12 0.28, 10.19 1.14 C11.27 2.01, 12.45 3.65, 12.71 5.07 C12.97 6.49, 12.46 8.46, 11.76 9.66 C11.06 10.87, 9.79 11.91, 8.51 12.31 C7.22 12.71, 5.28 12.59, 4.05 12.06 C2.81 11.52, 1.78 10.26, 1.09 9.12 C0.41 7.98, -0.23 6.43, -0.06 5.22 C0.11 4.02, 1.03 2.78, 2.11 1.9 C3.18 1.01, 5.64 0.21, 6.4 -0.11 C7.15 -0.44, 6.55 -0.19, 6.62 -0.06 M7.35 -0.66 C8.53 -0.69, 9.59 0.38, 10.34 1.45 C11.09 2.51, 11.69 4.28, 11.84 5.75 C11.99 7.21, 11.83 9.11, 11.25 10.24 C10.66 11.38, 9.5 12.24, 8.32 12.58 C7.15 12.92, 5.39 12.9, 4.19 12.27 C2.99 11.64, 1.84 10.12, 1.12 8.81 C0.39 7.5, -0.39 5.73, -0.16 4.42 C0.07 3.1, 1.41 1.63, 2.47 0.92 C3.54 0.22, 5.54 0.24, 6.23 0.19 C6.93 0.14, 6.44 0.58, 6.65 0.63" stroke="#1971c2" stroke-width="2" fill="none"></path></g><g stroke-linecap="round" transform="translate(262.0012702312297 136.32279155036758) rotate(0 6.290997091530016 6.290997091530016)"><path d="M6.7 0.12 C7.99 0.17, 10.19 0.66, 11.13 1.55 C12.06 2.44, 12.31 4.15, 12.3 5.46 C12.29 6.76, 11.72 8.26, 11.06 9.39 C10.41 10.51, 9.63 11.79, 8.38 12.22 C7.12 12.64, 4.89 12.55, 3.52 11.94 C2.16 11.33, 0.79 9.73, 0.2 8.54 C-0.38 7.36, -0.4 6.07, -0.01 4.84 C0.39 3.61, 1.35 1.92, 2.56 1.16 C3.78 0.4, 6.41 0.42, 7.27 0.28 C8.14 0.13, 7.73 0.28, 7.73 0.3 M4.86 -0.56 C6.28 -0.96, 8.71 0.08, 9.99 0.84 C11.26 1.6, 12.19 2.66, 12.51 4.02 C12.83 5.38, 12.35 7.68, 11.91 9 C11.48 10.32, 11.05 11.34, 9.9 11.93 C8.75 12.53, 6.27 12.83, 5 12.57 C3.73 12.3, 3.21 11.33, 2.28 10.36 C1.35 9.39, -0.32 7.97, -0.59 6.75 C-0.86 5.53, -0.28 4.15, 0.68 3.05 C1.64 1.95, 4.34 0.65, 5.15 0.13 C5.97 -0.4, 5.54 -0.11, 5.54 -0.11" stroke="none" stroke-width="0" fill="#a5d8ff"></path><path d="M7.53 -0.15 C8.66 0.07, 9.93 1.62, 10.73 2.7 C11.53 3.79, 12.2 5.15, 12.3 6.36 C12.4 7.56, 12.2 8.83, 11.33 9.94 C10.46 11.04, 8.45 12.61, 7.09 12.98 C5.73 13.35, 4.26 12.96, 3.15 12.15 C2.04 11.35, 0.85 9.45, 0.44 8.14 C0.03 6.82, 0.31 5.42, 0.7 4.27 C1.09 3.12, 1.68 1.95, 2.78 1.24 C3.88 0.53, 6.53 0.17, 7.33 0.02 C8.12 -0.13, 7.55 0.2, 7.57 0.34 M6.16 -0.51 C7.49 -0.73, 9.33 0.22, 10.26 1.1 C11.19 1.99, 11.52 3.51, 11.73 4.79 C11.94 6.08, 12.09 7.57, 11.53 8.83 C10.96 10.09, 9.42 11.76, 8.33 12.35 C7.24 12.95, 6.11 12.73, 4.98 12.41 C3.85 12.09, 2.47 11.6, 1.54 10.43 C0.62 9.26, -0.63 6.78, -0.56 5.38 C-0.48 3.97, 0.95 2.9, 1.99 2.01 C3.03 1.13, 5.13 0.47, 5.68 0.08 C6.24 -0.31, 5.18 -0.53, 5.32 -0.33" stroke="#1971c2" stroke-width="2" fill="none"></path></g><g stroke-linecap="round" transform="translate(384.50431734150015 31.32017974156406) rotate(0 6.290997091530016 6.290997091530016)"><path d="M6.5 -0.35 C7.84 -0.44, 9.87 0.77, 10.87 1.69 C11.88 2.61, 12.47 3.8, 12.55 5.17 C12.64 6.53, 12.17 8.68, 11.38 9.85 C10.59 11.03, 9.12 11.82, 7.82 12.22 C6.53 12.61, 4.86 12.71, 3.62 12.24 C2.39 11.77, 0.91 10.68, 0.41 9.38 C-0.1 8.08, 0.32 5.78, 0.59 4.41 C0.87 3.05, 1 2, 2.07 1.19 C3.15 0.39, 6.3 -0.3, 7.06 -0.4 C7.82 -0.5, 6.72 0.42, 6.63 0.59 M8.14 -0.19 C9.45 0.19, 10.63 1.75, 11.35 2.99 C12.08 4.22, 12.7 5.82, 12.51 7.21 C12.31 8.6, 11.19 10.46, 10.21 11.34 C9.23 12.23, 7.8 12.53, 6.63 12.53 C5.46 12.53, 4.37 12.06, 3.2 11.34 C2.03 10.62, -0.02 9.6, -0.4 8.21 C-0.78 6.83, 0.27 4.25, 0.92 3.03 C1.57 1.81, 2.39 1.33, 3.47 0.9 C4.55 0.47, 6.71 0.52, 7.41 0.46 C8.11 0.39, 7.73 0.47, 7.65 0.51" stroke="none" stroke-width="0" fill="#a5d8ff"></path><path d="M6.18 -0.11 C7.41 -0.18, 8.49 0.46, 9.58 1.35 C10.67 2.23, 12.32 3.86, 12.73 5.18 C13.14 6.51, 12.76 8.14, 12.04 9.31 C11.33 10.48, 9.76 11.63, 8.44 12.21 C7.12 12.79, 5.32 13.25, 4.14 12.79 C2.97 12.32, 2.02 10.56, 1.37 9.42 C0.72 8.28, 0.24 7.27, 0.25 5.94 C0.25 4.6, 0.46 2.38, 1.39 1.43 C2.31 0.49, 4.91 0.57, 5.79 0.28 C6.67 -0.01, 6.7 -0.45, 6.67 -0.31 M6.85 0.57 C8.1 0.78, 10.26 1.78, 11.3 2.83 C12.34 3.88, 13.22 5.68, 13.08 6.86 C12.94 8.05, 11.49 9.09, 10.44 9.92 C9.39 10.76, 7.96 11.64, 6.8 11.89 C5.63 12.15, 4.57 12.01, 3.44 11.45 C2.32 10.89, 0.58 9.78, 0.08 8.54 C-0.43 7.29, 0.02 5.28, 0.44 3.98 C0.86 2.69, 1.5 1.46, 2.6 0.78 C3.7 0.11, 6.23 0.13, 7.05 -0.06 C7.87 -0.25, 7.48 -0.35, 7.5 -0.34" stroke="#1971c2" stroke-width="2" fill="none"></path></g><g stroke-linecap="round" transform="translate(418.28422734200876 181.90532070767927) rotate(0 6.290997091530016 6.290997091530016)"><path d="M6.36 0.1 C7.72 -0.05, 9.44 0.1, 10.54 0.94 C11.64 1.78, 12.65 3.81, 12.93 5.14 C13.21 6.46, 12.92 7.66, 12.21 8.9 C11.51 10.15, 9.97 12, 8.71 12.6 C7.45 13.21, 5.88 12.98, 4.66 12.55 C3.44 12.11, 2.2 11.07, 1.4 9.97 C0.59 8.87, -0.2 7.41, -0.17 5.94 C-0.14 4.48, 0.49 2.18, 1.56 1.16 C2.63 0.15, 5.47 0.03, 6.26 -0.13 C7.06 -0.29, 6.3 0.15, 6.35 0.23 M4.75 0.63 C6 0.23, 7.54 0.1, 8.84 0.72 C10.14 1.33, 11.92 2.91, 12.55 4.32 C13.19 5.72, 13.14 7.98, 12.65 9.16 C12.16 10.34, 10.85 10.74, 9.59 11.41 C8.34 12.07, 6.48 13.22, 5.1 13.16 C3.73 13.11, 2.1 12.26, 1.33 11.07 C0.56 9.88, 0.58 7.44, 0.49 6.02 C0.4 4.61, -0.07 3.64, 0.81 2.57 C1.68 1.49, 5.06 -0.1, 5.74 -0.44 C6.43 -0.78, 4.85 0.46, 4.9 0.53" stroke="none" stroke-width="0" fill="#a5d8ff"></path><path d="M6.05 0.41 C7.36 0.34, 9.05 1.05, 10.17 1.73 C11.28 2.41, 12.5 3.2, 12.75 4.5 C13 5.79, 12.37 8.14, 11.65 9.48 C10.92 10.81, 9.58 12.04, 8.4 12.51 C7.21 12.97, 5.8 12.8, 4.52 12.27 C3.24 11.75, 1.42 10.38, 0.73 9.33 C0.04 8.29, 0.24 7.2, 0.39 6.01 C0.53 4.82, 0.73 3.15, 1.62 2.21 C2.51 1.26, 4.87 0.75, 5.71 0.34 C6.56 -0.07, 6.65 -0.27, 6.68 -0.23 M6.12 0.66 C7.37 0.41, 9.19 0.15, 10.21 0.9 C11.23 1.65, 11.98 3.72, 12.25 5.18 C12.52 6.63, 12.33 8.47, 11.81 9.63 C11.3 10.79, 10.44 11.68, 9.16 12.12 C7.87 12.55, 5.44 12.8, 4.11 12.25 C2.77 11.7, 1.83 10.04, 1.15 8.82 C0.47 7.61, -0.16 6.21, 0.03 4.97 C0.23 3.72, 1.36 2.12, 2.3 1.35 C3.24 0.58, 5.02 0.69, 5.67 0.37 C6.31 0.05, 6.08 -0.59, 6.16 -0.59" stroke="#1971c2" stroke-width="2" fill="none"></path></g><g stroke-linecap="round" transform="translate(465.08771710174733 223.82496805770575) rotate(0 6.290997091530016 6.290997091530016)"><path d="M5.29 -0.39 C6.59 -0.71, 8.65 0.1, 9.76 0.96 C10.88 1.82, 11.64 3.43, 11.99 4.75 C12.35 6.06, 12.37 7.65, 11.87 8.87 C11.37 10.08, 10.22 11.41, 9 12.01 C7.78 12.62, 5.89 12.77, 4.55 12.49 C3.21 12.21, 1.74 11.37, 0.96 10.34 C0.18 9.31, -0.25 7.73, -0.12 6.31 C0 4.9, 0.77 2.9, 1.73 1.83 C2.68 0.76, 4.95 0.2, 5.63 -0.11 C6.31 -0.41, 5.78 -0.11, 5.8 0.01 M4.7 0.11 C5.92 -0.34, 7.45 0.11, 8.73 0.73 C10.02 1.35, 11.75 2.62, 12.41 3.84 C13.06 5.06, 13.24 6.79, 12.67 8.05 C12.09 9.31, 10.18 10.72, 8.94 11.39 C7.71 12.06, 6.42 12.35, 5.26 12.07 C4.09 11.78, 2.85 10.58, 1.95 9.7 C1.05 8.82, 0.04 7.94, -0.15 6.8 C-0.34 5.65, -0.04 3.86, 0.79 2.84 C1.62 1.82, 4.18 1.22, 4.84 0.68 C5.51 0.15, 4.82 -0.3, 4.77 -0.38" stroke="none" stroke-width="0" fill="#a5d8ff"></path><path d="M5.58 -0.07 C6.82 -0.36, 8.68 0.09, 9.72 0.86 C10.76 1.62, 11.41 3.3, 11.82 4.52 C12.23 5.73, 12.69 6.93, 12.19 8.17 C11.69 9.41, 9.98 11.19, 8.8 11.94 C7.63 12.69, 6.29 13, 5.12 12.66 C3.95 12.32, 2.71 11.01, 1.8 9.93 C0.89 8.84, -0.24 7.4, -0.34 6.15 C-0.45 4.9, 0.23 3.36, 1.18 2.43 C2.12 1.49, 4.62 0.98, 5.33 0.52 C6.05 0.06, 5.46 -0.28, 5.48 -0.33 M4.95 0.37 C6.24 0.15, 8.51 0.87, 9.82 1.45 C11.13 2.03, 12.34 2.68, 12.82 3.85 C13.3 5.02, 13.29 7.01, 12.71 8.45 C12.13 9.9, 10.5 11.94, 9.35 12.5 C8.19 13.07, 7.09 12.31, 5.77 11.84 C4.44 11.37, 2.23 10.65, 1.38 9.67 C0.52 8.69, 0.6 7.23, 0.63 5.96 C0.66 4.69, 0.82 3.13, 1.55 2.06 C2.28 0.98, 4.49 -0.24, 5.01 -0.48 C5.54 -0.72, 4.58 0.53, 4.7 0.63" stroke="#1971c2" stroke-width="2" fill="none"></path></g></svg>