<svg version="1.1" xmlns="http://www.w3.org/2000/svg" viewBox="0 0 372.7148628941932 354.184066025372" width="372.7148628941932" height="354.184066025372">
  <!-- svg-source:excalidraw -->
  
  <defs>
    <style class="style-fonts">
      @font-face {
        font-family: "Virgil";
        src: url("https://excalidraw.com/Virgil.woff2");
      }
      @font-face {
        font-family: "Cascadia";
        src: url("https://excalidraw.com/Cascadia.woff2");
      }
      @font-face {
        font-family: "Assistant";
        src: url("https://excalidraw.com/Assistant-Regular.woff2");
      }
    </style>
    
  </defs>
  <g stroke-linecap="round" transform="translate(10.000000387869932 10) rotate(0 47.749459717155105 47.74945971715488)"><path d="M23.87 0 C35.68 -1.07, 47.58 1.81, 71.62 0 C86.46 0.68, 93.82 6.34, 95.5 23.87 C93 42.5, 94.81 60.89, 95.5 71.62 C97.34 88.9, 84.79 93.24, 71.62 95.5 C63.61 93.23, 53.27 93.87, 23.87 95.5 C7.8 96.1, -1.32 87.74, 0 71.62 C-2.87 52.16, 1.17 39.89, 0 23.87 C1.83 8.66, 5.57 1.34, 23.87 0" stroke="none" stroke-width="0" fill="#a5d8ff"></path><path d="M23.87 0 C40.44 -1.09, 52.57 1.19, 71.62 0 M23.87 0 C36.27 -1.16, 48.25 0.47, 71.62 0 M71.62 0 C87.99 -0.47, 95.81 9.55, 95.5 23.87 M71.62 0 C88.04 -0.69, 97.7 8.02, 95.5 23.87 M95.5 23.87 C93.13 34.09, 96.24 45.57, 95.5 71.62 M95.5 23.87 C95.84 38.65, 94.93 55.63, 95.5 71.62 M95.5 71.62 C94.94 86.25, 88.04 95.31, 71.62 95.5 M95.5 71.62 C94.42 85.76, 89.66 97.22, 71.62 95.5 M71.62 95.5 C56.09 96.14, 41.88 97.78, 23.87 95.5 M71.62 95.5 C56.5 95.45, 40.69 95.41, 23.87 95.5 M23.87 95.5 C6.09 96.45, 0.33 86.26, 0 71.62 M23.87 95.5 C8.01 97.21, 0.24 85.61, 0 71.62 M0 71.62 C1.76 52.45, 0.85 35.55, 0 23.87 M0 71.62 C-0.09 53.93, 0.57 37.43, 0 23.87 M0 23.87 C0.25 6.32, 9.13 0.9, 23.87 0 M0 23.87 C0.73 6.09, 6.02 -1.71, 23.87 0" stroke="#1971c2" stroke-width="2" fill="none"></path></g><g stroke-linecap="round" transform="translate(137.00841429123602 10) rotate(0 47.749459717155105 47.74945971715488)"><path d="M23.87 0 C35.62 2.43, 48.54 1.2, 71.62 0 C87.05 1.75, 97.05 10.38, 95.5 23.87 C95.47 36.38, 99.12 43.76, 95.5 71.62 C94.92 84.27, 85.14 92.88, 71.62 95.5 C59.89 96.44, 47.09 92.27, 23.87 95.5 C11.36 99.05, 2.61 90, 0 71.62 C0.32 59.31, -0.39 43.86, 0 23.87 C-1.6 5.41, 8.17 -1.93, 23.87 0" stroke="none" stroke-width="0" fill="#a5d8ff"></path><path d="M23.87 0 C32.21 1.12, 45.67 1.68, 71.62 0 M23.87 0 C34.86 -0.48, 44.87 -0.04, 71.62 0 M71.62 0 C86.85 -1.26, 95.21 9.93, 95.5 23.87 M71.62 0 C86.87 1.33, 96.39 8.44, 95.5 23.87 M95.5 23.87 C95.89 34.47, 96.08 44.8, 95.5 71.62 M95.5 23.87 C94.67 41.27, 95.62 58.86, 95.5 71.62 M95.5 71.62 C97.04 85.78, 86.7 96.13, 71.62 95.5 M95.5 71.62 C97.4 85.82, 85.6 94.88, 71.62 95.5 M71.62 95.5 C54.23 96.58, 41.02 94.25, 23.87 95.5 M71.62 95.5 C61.61 95.07, 51.8 96.02, 23.87 95.5 M23.87 95.5 C6.55 94.69, -0.79 86.06, 0 71.62 M23.87 95.5 C9.7 96.79, -1.97 85.79, 0 71.62 M0 71.62 C-0.73 57.85, -0.01 40.69, 0 23.87 M0 71.62 C0.46 58.92, 0.16 45.27, 0 23.87 M0 23.87 C0.71 6.44, 6.58 1.21, 23.87 0 M0 23.87 C-1.81 5.71, 6.81 -1.38, 23.87 0" stroke="#1971c2" stroke-width="2" fill="none"></path></g><g transform="translate(179.25387620565652 47.74945971715533) rotate(0 5.503997802734375 10)"><text x="5.503997802734375" y="14.016" font-family="Virgil, Segoe UI Emoji" font-size="16px" fill="#1e1e1e" text-anchor="middle" style="white-space: pre;" direction="ltr" dominant-baseline="alphabetic">0</text></g><g stroke-linecap="round" transform="translate(267.21594334794327 10.000000000000455) rotate(0 47.749459717155105 47.749459717155105)"><path d="M23.87 0 C37.39 -0.62, 44.52 -3.87, 71.62 0 C90.59 -0.12, 95.84 7.83, 95.5 23.87 C92.82 43.66, 91.76 59.59, 95.5 71.62 C93.16 85.12, 85.91 97, 71.62 95.5 C61.28 95.81, 42.61 94.79, 23.87 95.5 C9.22 92.91, 1.4 88.59, 0 71.62 C-3.69 59.16, -0.77 37.23, 0 23.87 C-1.92 10.63, 6.12 0.68, 23.87 0" stroke="none" stroke-width="0" fill="#a5d8ff"></path><path d="M23.87 0 C41.45 1.04, 57.79 0.5, 71.62 0 M23.87 0 C35.49 0.14, 45.6 0.2, 71.62 0 M71.62 0 C86.97 -1.07, 96.75 6.5, 95.5 23.87 M71.62 0 C88.83 1.74, 93.21 8.25, 95.5 23.87 M95.5 23.87 C96.79 35.98, 95.13 42.89, 95.5 71.62 M95.5 23.87 C95.7 34.83, 95.88 43.76, 95.5 71.62 M95.5 71.62 C96.42 87.16, 87.27 97.41, 71.62 95.5 M95.5 71.62 C93.37 88.49, 89.35 97.19, 71.62 95.5 M71.62 95.5 C62.99 93.57, 50.36 96.78, 23.87 95.5 M71.62 95.5 C52.55 95.22, 34.19 96.48, 23.87 95.5 M23.87 95.5 C8.47 94.72, 0.02 86.42, 0 71.62 M23.87 95.5 C7.12 94.24, 0.55 89.46, 0 71.62 M0 71.62 C-2.08 53.2, -1.32 35.73, 0 23.87 M0 71.62 C0.72 55.86, -0.2 40.27, 0 23.87 M0 23.87 C1.5 8.56, 9.49 0.55, 23.87 0 M0 23.87 C0.91 7.14, 6.55 -1.14, 23.87 0" stroke="#1971c2" stroke-width="2" fill="none"></path></g><g transform="translate(309.46140526236377 47.74945971715533) rotate(0 5.503997802734375 10)"><text x="5.503997802734375" y="14.016" font-family="Virgil, Segoe UI Emoji" font-size="16px" fill="#1e1e1e" text-anchor="middle" style="white-space: pre;" direction="ltr" dominant-baseline="alphabetic">0</text></g><g stroke-linecap="round" transform="translate(10 135.48172952138793) rotate(0 176.3574314470966 36.02673472562947)"><path d="M18.01 0 C115.94 -0.6, 215.73 -4.24, 334.7 0 C344.64 -2.01, 352.08 6.32, 352.71 18.01 C353.74 32.94, 349.79 46.83, 352.71 54.04 C354.07 66.56, 349.15 70.77, 334.7 72.05 C241.03 72.37, 144.41 74.59, 18.01 72.05 C6.75 74.63, -1.1 66.16, 0 54.04 C1.43 40.25, 2.64 28.13, 0 18.01 C-1.33 7.55, 4.82 -2.24, 18.01 0" stroke="none" stroke-width="0" fill="#ffc9c9"></path><path d="M18.01 0 C113.5 1.29, 210.13 -0.57, 334.7 0 M18.01 0 C110.16 1.1, 202.59 0.77, 334.7 0 M334.7 0 C345.45 1.77, 352.35 7.9, 352.71 18.01 M334.7 0 C348.8 -0.57, 350.83 6.86, 352.71 18.01 M352.71 18.01 C352.53 25.82, 353.58 36.97, 352.71 54.04 M352.71 18.01 C353.05 29.27, 352.63 39.68, 352.71 54.04 M352.71 54.04 C350.98 66.85, 348.04 73.34, 334.7 72.05 M352.71 54.04 C354.78 68.27, 344.69 72.58, 334.7 72.05 M334.7 72.05 C219.05 74.85, 100.22 74.68, 18.01 72.05 M334.7 72.05 C246.83 72.38, 158.33 71.97, 18.01 72.05 M18.01 72.05 C5.65 73.23, 0.28 64.4, 0 54.04 M18.01 72.05 C5.26 72.59, -0.7 67.63, 0 54.04 M0 54.04 C-0.5 44.47, 1.69 32.12, 0 18.01 M0 54.04 C-0.24 41.37, -0.78 29.46, 0 18.01 M0 18.01 C1.26 5.16, 7.09 1.46, 18.01 0 M0 18.01 C-2.16 5.74, 5.18 -1.55, 18.01 0" stroke="#e03131" stroke-width="2" fill="none"></path></g><g transform="translate(127.09420970637393 159.66854064252493) rotate(0 59.263221740722656 11.83992360449247)"><text x="59.263221740722656" y="16.59483692405644" font-family="Virgil, Segoe UI Emoji" font-size="18.94387776718772px" fill="#e03131" text-anchor="middle" style="white-space: pre;" direction="ltr" dominant-baseline="alphabetic">Ordem Total</text></g><g stroke-linecap="round" transform="translate(43.964495442691714 278.05911818287314) rotate(0 25.133464137795272 25.133464137795272)"><path d="M23.54 0.44 C28.93 -0.31, 37.27 1.46, 41.71 4.58 C46.15 7.71, 49.08 13.66, 50.16 19.17 C51.25 24.69, 50.83 32.84, 48.22 37.67 C45.61 42.49, 39.66 46.16, 34.52 48.15 C29.39 50.13, 22.48 51.3, 17.41 49.59 C12.34 47.88, 7.02 42.4, 4.09 37.88 C1.17 33.35, -0.97 27.84, -0.13 22.44 C0.7 17.04, 4.5 9.05, 9.11 5.46 C13.72 1.86, 23.83 1.5, 27.53 0.89 C31.23 0.27, 31.13 1.33, 31.32 1.77 M15.03 0.78 C19.59 -1.39, 26.28 -1.31, 31.58 0.61 C36.89 2.53, 43.99 7.62, 46.87 12.28 C49.75 16.94, 49.49 23.46, 48.87 28.57 C48.25 33.68, 46.96 39.09, 43.13 42.95 C39.3 46.8, 31.38 51.32, 25.91 51.71 C20.44 52.09, 14.45 48.53, 10.31 45.25 C6.17 41.97, 2.15 37.34, 1.06 32.04 C-0.03 26.74, 1.26 18.28, 3.77 13.46 C6.27 8.64, 14.21 4.79, 16.11 3.13 C18 1.48, 14.95 3.1, 15.12 3.53" stroke="none" stroke-width="0" fill="#b2f2bb"></path><path d="M34.43 1.98 C39.25 3.23, 43.62 6.98, 46.33 11.58 C49.03 16.17, 51.48 24.24, 50.67 29.55 C49.85 34.87, 45.74 39.95, 41.42 43.47 C37.11 46.98, 30.32 50.56, 24.8 50.64 C19.28 50.72, 12.23 47.27, 8.31 43.95 C4.38 40.63, 1.95 36.05, 1.24 30.72 C0.54 25.39, 1.53 16.97, 4.09 11.96 C6.64 6.96, 10.91 2.18, 16.57 0.68 C22.23 -0.82, 33.86 1.99, 38.06 2.98 C42.26 3.98, 41.84 6.1, 41.77 6.66 M26.38 0.18 C31.6 0.44, 38.71 2.77, 42.5 6.76 C46.29 10.74, 48.52 18.6, 49.12 24.08 C49.72 29.55, 48.87 35.55, 46.08 39.62 C43.29 43.7, 37.82 47.36, 32.37 48.52 C26.91 49.69, 18.5 48.79, 13.34 46.64 C8.18 44.48, 3.7 40.38, 1.41 35.57 C-0.88 30.76, -2.11 22.75, -0.38 17.77 C1.35 12.79, 7.29 8.4, 11.79 5.71 C16.29 3.02, 23.71 2.69, 26.6 1.63 C29.49 0.57, 28.8 -0.78, 29.12 -0.65" stroke="#2f9e44" stroke-width="2" fill="none"></path></g><g transform="translate(60.66086996204831 291.58061578963225) rotate(0 8.665046691894531 11.83992360449247)"><text x="8.665046691894531" y="16.59483692405644" font-family="Virgil, Segoe UI Emoji" font-size="18.94387776718772px" fill="#2f9e44" text-anchor="middle" style="white-space: pre;" direction="ltr" dominant-baseline="alphabetic">C1</text></g><g stroke-linecap="round"><g transform="translate(66.55724486855524 278.0591186047968) rotate(0 7.3680726646025505 -34.436490312803926)"><path d="M0.52 0.1 C3.29 -11.14, 13.72 -56.84, 15.9 -68.15 M-0.66 -0.9 C2.1 -12.41, 12.81 -58.45, 15.57 -69.89" stroke="#2f9e44" stroke-width="2" fill="none"></path></g><g transform="translate(66.55724486855524 278.0591186047968) rotate(0 7.3680726646025505 -34.436490312803926)"><path d="M18.49 -45.06 C18.09 -49.15, 18.42 -59.04, 15.57 -69.89 M18.49 -45.06 C18.28 -54.45, 15.9 -64.96, 15.57 -69.89" stroke="#2f9e44" stroke-width="2" fill="none"></path></g><g transform="translate(66.55724486855524 278.0591186047968) rotate(0 7.3680726646025505 -34.436490312803926)"><path d="M1.84 -48.99 C5.47 -52.2, 9.86 -61.13, 15.57 -69.89 M1.84 -48.99 C8.15 -56.91, 12.28 -65.87, 15.57 -69.89" stroke="#2f9e44" stroke-width="2" fill="none"></path></g></g><mask></mask><g stroke-linecap="round"><g transform="translate(79.76896137060112 278.15135160967475) rotate(0 9.146572962954906 -33.7203924016635)"><path d="M0.78 1.13 C4.11 -10.18, 16.41 -57.25, 19.36 -68.54 M-0.28 0.68 C3.05 -10.46, 15.95 -56.04, 18.98 -67.58" stroke="#2f9e44" stroke-width="2" fill="none"></path></g><g transform="translate(79.76896137060112 278.15135160967475) rotate(0 9.146572962954906 -33.7203924016635)"><path d="M21.01 -42.66 C22.54 -47.02, 18.32 -54.59, 18.98 -67.58 M21.01 -42.66 C19.35 -51.78, 19.46 -60.99, 18.98 -67.58" stroke="#2f9e44" stroke-width="2" fill="none"></path></g><g transform="translate(79.76896137060112 278.15135160967475) rotate(0 9.146572962954906 -33.7203924016635)"><path d="M4.52 -47.19 C10.09 -50.54, 9.95 -56.99, 18.98 -67.58 M4.52 -47.19 C8.94 -54.52, 15.09 -62.07, 18.98 -67.58" stroke="#2f9e44" stroke-width="2" fill="none"></path></g></g><mask></mask><g stroke-linecap="round"><g transform="translate(86.88296256401054 284.39129345237234) rotate(0 17.276860041136615 -35.5700059670462)"><path d="M1.17 -0.17 C6.81 -12.01, 29.25 -59.48, 35.01 -71.26 M0.32 -1.3 C5.75 -12.94, 28.43 -58.44, 34.3 -69.78" stroke="#2f9e44" stroke-width="2" fill="none"></path></g><g transform="translate(86.88296256401054 284.39129345237234) rotate(0 17.276860041136615 -35.5700059670462)"><path d="M31.32 -44.96 C32.26 -54.03, 33.51 -62.66, 34.3 -69.78 M31.32 -44.96 C32.08 -53.56, 32.72 -60.85, 34.3 -69.78" stroke="#2f9e44" stroke-width="2" fill="none"></path></g><g transform="translate(86.88296256401054 284.39129345237234) rotate(0 17.276860041136615 -35.5700059670462)"><path d="M16.06 -52.68 C23.01 -58.85, 30.29 -64.43, 34.3 -69.78 M16.06 -52.68 C21.83 -58.73, 27.43 -63.5, 34.3 -69.78" stroke="#2f9e44" stroke-width="2" fill="none"></path></g></g><mask></mask><g transform="translate(35.92258561934341 237.5180100681555) rotate(0 15.00354772288506 11.83992360449247)"><text x="30.00709544577011" y="16.59483692405644" font-family="Virgil, Segoe UI Emoji" font-size="18.94387776718772px" fill="#2f9e44" text-anchor="end" style="white-space: pre;" direction="ltr" dominant-baseline="alphabetic">+10</text></g><g stroke-linecap="round" transform="translate(275.25785258185124 293.91713774978143) rotate(0 25.133464137795272 25.133464137795272)"><path d="M27.18 0.91 C32.11 0.99, 38.24 3.72, 41.9 7.27 C45.56 10.82, 48.57 16.89, 49.17 22.21 C49.76 27.53, 48.36 34.54, 45.48 39.2 C42.6 43.85, 37.04 48.67, 31.9 50.16 C26.76 51.64, 19.52 50.58, 14.64 48.1 C9.75 45.62, 4.84 39.98, 2.56 35.3 C0.29 30.61, -0.17 24.91, 0.98 19.98 C2.12 15.05, 4.75 8.9, 9.42 5.7 C14.09 2.49, 25.44 1.37, 28.98 0.77 C32.52 0.17, 30.77 1.73, 30.65 2.1 M35.18 2.35 C40.06 3.73, 43.51 8.72, 45.78 13.15 C48.06 17.57, 49.39 23.53, 48.84 28.89 C48.29 34.25, 46.67 41.9, 42.48 45.32 C38.29 48.74, 29.04 49.81, 23.7 49.41 C18.35 49.02, 14.3 46.25, 10.41 42.94 C6.52 39.62, 1.5 34.57, 0.36 29.53 C-0.79 24.49, 0.64 17.23, 3.54 12.7 C6.45 8.17, 12.98 4.24, 17.79 2.36 C22.6 0.48, 29.67 1.39, 32.38 1.42 C35.09 1.45, 33.89 2.31, 34.05 2.56" stroke="none" stroke-width="0" fill="#b2f2bb"></path><path d="M14.07 2.45 C18.6 -0.03, 25.69 -1.26, 31.14 0.13 C36.58 1.51, 43.61 6.31, 46.73 10.75 C49.84 15.18, 50.59 21.32, 49.82 26.75 C49.06 32.19, 46.01 39.63, 42.15 43.38 C38.28 47.12, 31.94 48.85, 26.63 49.24 C21.33 49.63, 14.69 48.67, 10.34 45.72 C6 42.77, 2 36.87, 0.56 31.51 C-0.87 26.15, -0.81 18.39, 1.75 13.55 C4.3 8.72, 13.27 4.41, 15.87 2.51 C18.48 0.61, 17.2 1.98, 17.37 2.16 M24.03 -0.55 C29.07 -1.12, 35.22 1.53, 39.29 4.9 C43.35 8.26, 47.24 14.39, 48.44 19.64 C49.64 24.89, 48.8 31.72, 46.48 36.41 C44.17 41.1, 39.57 45.65, 34.54 47.79 C29.51 49.93, 21.62 50.64, 16.29 49.24 C10.96 47.84, 5.02 43.86, 2.57 39.39 C0.12 34.93, 0.62 27.91, 1.61 22.45 C2.6 16.99, 4.53 10.41, 8.5 6.64 C12.46 2.87, 22.73 1.1, 25.4 -0.17 C28.07 -1.43, 24.45 -1.23, 24.51 -0.94" stroke="#2f9e44" stroke-width="2" fill="none"></path></g><g transform="translate(287.77795756995783 307.43863535654054) rotate(0 12.841316223144531 11.83992360449247)"><text x="12.841316223144531" y="16.59483692405644" font-family="Virgil, Segoe UI Emoji" font-size="18.94387776718772px" fill="#2f9e44" text-anchor="middle" style="white-space: pre;" direction="ltr" dominant-baseline="alphabetic">C2</text></g><g stroke-linecap="round"><g transform="translate(286.6714572752144 296.4578528836373) rotate(0 -10.16285884772742 -43.83713474695196)"><path d="M-0.56 -0.72 C-3.74 -15.31, -16.68 -74.16, -20.13 -88.48 M1.35 1.52 C-1.88 -12.86, -17.61 -72.38, -20.97 -87.36" stroke="#2f9e44" stroke-width="2" fill="none"></path></g><g transform="translate(286.6714572752144 296.4578528836373) rotate(0 -10.16285884772742 -43.83713474695196)"><path d="M-7.04 -66.6 C-11.07 -70.78, -14.18 -77.1, -20.97 -87.36 M-7.04 -66.6 C-13.2 -75.39, -17.55 -83.38, -20.97 -87.36" stroke="#2f9e44" stroke-width="2" fill="none"></path></g><g transform="translate(286.6714572752144 296.4578528836373) rotate(0 -10.16285884772742 -43.83713474695196)"><path d="M-23.65 -62.5 C-24.08 -67.48, -23.65 -74.68, -20.97 -87.36 M-23.65 -62.5 C-23.32 -72.84, -21.18 -82.43, -20.97 -87.36" stroke="#2f9e44" stroke-width="2" fill="none"></path></g></g><mask></mask><g stroke-linecap="round"><g transform="translate(295.309887295783 294.00937117658214) rotate(0 -2.540714711931514 -42.35882242223215)"><path d="M0.2 -0.8 C-0.71 -14.62, -5.11 -69.58, -6.01 -83.63 M-1.16 1.39 C-1.65 -12.67, -2.97 -70.95, -3.79 -85.18" stroke="#2f9e44" stroke-width="2" fill="none"></path></g><g transform="translate(295.309887295783 294.00937117658214) rotate(0 -2.540714711931514 -42.35882242223215)"><path d="M5.64 -62.03 C2.05 -69.43, 2.81 -73.97, -3.79 -85.18 M5.64 -62.03 C3.64 -68.78, -0.17 -74.68, -3.79 -85.18" stroke="#2f9e44" stroke-width="2" fill="none"></path></g><g transform="translate(295.309887295783 294.00937117658214) rotate(0 -2.540714711931514 -42.35882242223215)"><path d="M-11.45 -61.39 C-10.7 -68.98, -5.61 -73.69, -3.79 -85.18 M-11.45 -61.39 C-8.88 -68.2, -8.14 -74.27, -3.79 -85.18" stroke="#2f9e44" stroke-width="2" fill="none"></path></g></g><mask></mask><g stroke-linecap="round"><g transform="translate(306.4890320282834 292.62716888348587) rotate(0 2.032571769545484 -42.42993568926204)"><path d="M-0.93 1.09 C-0.31 -12.99, 3.25 -70.81, 3.93 -85.26 M0.78 0.61 C1.22 -13.22, 2.11 -69.71, 2.91 -83.93" stroke="#2f9e44" stroke-width="2" fill="none"></path></g><g transform="translate(306.4890320282834 292.62716888348587) rotate(0 2.032571769545484 -42.42993568926204)"><path d="M10.68 -60.17 C10.19 -67.97, 5.26 -76.75, 2.91 -83.93 M10.68 -60.17 C7.81 -66.06, 7.02 -71.7, 2.91 -83.93" stroke="#2f9e44" stroke-width="2" fill="none"></path></g><g transform="translate(306.4890320282834 292.62716888348587) rotate(0 2.032571769545484 -42.42993568926204)"><path d="M-6.42 -60.74 C-1.5 -68.23, -1.02 -76.82, 2.91 -83.93 M-6.42 -60.74 C-5.24 -66.41, -1.99 -71.91, 2.91 -83.93" stroke="#2f9e44" stroke-width="2" fill="none"></path></g></g><mask></mask><g transform="translate(316.78884947398456 246.77017138404062) rotate(0 12.067240887758317 11.83992360449247)"><text x="24.13448177551652" y="16.59483692405644" font-family="Virgil, Segoe UI Emoji" font-size="18.94387776718772px" fill="#2f9e44" text-anchor="end" style="white-space: pre;" direction="ltr" dominant-baseline="alphabetic">x2</text></g><g transform="translate(42.453012216328716 108.63591197724782) rotate(0 12.860741083409948 7.719264681466029)"><text x="25.72148216681989" y="10.819321377542847" font-family="Virgil, Segoe UI Emoji" font-size="12.350823490345714px" fill="#e03131" text-anchor="end" style="white-space: pre;" direction="ltr" dominant-baseline="alphabetic">+ 10</text></g><g transform="translate(46.265619223633166 120.04319993210447) rotate(0 10.954437255859375 7.719264681466029)"><text x="21.90887451171875" y="10.819321377542847" font-family="Virgil, Segoe UI Emoji" font-size="12.350823490345714px" fill="#e03131" text-anchor="end" style="white-space: pre;" direction="ltr" dominant-baseline="alphabetic">x 2</text></g><g transform="translate(171.8971332163287 108.63591197724782) rotate(0 12.860741083409948 7.719264681466029)"><text x="25.72148216681989" y="10.819321377542847" font-family="Virgil, Segoe UI Emoji" font-size="12.350823490345714px" fill="#e03131" text-anchor="end" style="white-space: pre;" direction="ltr" dominant-baseline="alphabetic">+ 10</text></g><g transform="translate(175.70974022363316 120.04319993210447) rotate(0 10.954437255859375 7.719264681466029)"><text x="21.90887451171875" y="10.819321377542847" font-family="Virgil, Segoe UI Emoji" font-size="12.350823490345714px" fill="#e03131" text-anchor="end" style="white-space: pre;" direction="ltr" dominant-baseline="alphabetic">x 2</text></g><g transform="translate(302.10466221632896 108.63591197724782) rotate(0 12.860741083409948 7.719264681466029)"><text x="25.72148216681989" y="10.819321377542847" font-family="Virgil, Segoe UI Emoji" font-size="12.350823490345714px" fill="#e03131" text-anchor="end" style="white-space: pre;" direction="ltr" dominant-baseline="alphabetic">+ 10</text></g><g transform="translate(305.9172692236334 120.04319993210447) rotate(0 10.954437255859375 7.719264681466029)"><text x="21.90887451171875" y="10.819321377542847" font-family="Virgil, Segoe UI Emoji" font-size="12.350823490345714px" fill="#e03131" text-anchor="end" style="white-space: pre;" direction="ltr" dominant-baseline="alphabetic">x 2</text></g><g transform="translate(52.245462302290434 47.74945971715533) rotate(0 5.503997802734375 10)"><text x="5.503997802734375" y="14.016" font-family="Virgil, Segoe UI Emoji" font-size="16px" fill="#1e1e1e" text-anchor="middle" style="white-space: pre;" direction="ltr" dominant-baseline="alphabetic">0</text></g></svg>