<svg version="1.1" xmlns="http://www.w3.org/2000/svg" viewBox="0 0 280.5528132584477 268.8726957700155" width="280.5528132584477" height="268.8726957700155">
  <!-- svg-source:excalidraw -->
  
  <defs>
    <style class="style-fonts">
      @font-face {
        font-family: "Virgil";
        src: url("https://excalidraw.com/Virgil.woff2");
      }
      @font-face {
        font-family: "Cascadia";
        src: url("https://excalidraw.com/Cascadia.woff2");
      }
      @font-face {
        font-family: "Assistant";
        src: url("https://excalidraw.com/Assistant-Regular.woff2");
      }
    </style>
    
  </defs>
  <g stroke-linecap="round" transform="translate(68.8179901292242 10) rotate(0 71.2908985674585 71.2908985674585)"><path d="M26.52 15.1 C26.52 15.1, 26.52 15.1, 26.52 15.1 M26.52 15.1 C26.52 15.1, 26.52 15.1, 26.52 15.1 M6.31 50.54 C15.96 39.87, 22.11 33.74, 43.71 7.52 M6.31 50.54 C20.42 34.49, 33.25 19.32, 43.71 7.52 M1.2 68.62 C24.72 44.95, 44.47 19.35, 58.93 2.2 M1.2 68.62 C15.11 51.07, 29.53 35.21, 58.93 2.2 M1.99 79.9 C26.41 53.12, 48.87 26.71, 69.56 2.17 M1.99 79.9 C25.47 52.51, 49.61 22.86, 69.56 2.17 M4.74 88.92 C21.39 69.08, 37.51 49.25, 80.19 2.13 M4.74 88.92 C21.37 69.63, 37.72 50.68, 80.19 2.13 M6.85 98.7 C24.31 78.18, 42.09 53.68, 89.51 3.61 M6.85 98.7 C24.48 77.9, 43.37 57.32, 89.51 3.61 M10.91 106.21 C30.32 88.55, 45.04 65.67, 96.86 7.35 M10.91 106.21 C31.04 82.73, 50.2 62.14, 96.86 7.35 M15.64 112.97 C37.4 88.45, 61.35 60.07, 104.86 10.33 M15.64 112.97 C37.63 88.75, 58.19 65.1, 104.86 10.33 M21.02 118.97 C58.75 78.93, 93.49 35.44, 112.21 14.07 M21.02 118.97 C46.19 91.83, 70.73 64.73, 112.21 14.07 M25.75 125.73 C47 102.44, 68.24 74.77, 118.91 18.56 M25.75 125.73 C54.92 91.49, 83.24 58.02, 118.91 18.56 M32.44 130.23 C64.71 93.2, 99.33 55.82, 123.63 25.32 M32.44 130.23 C57.57 102.23, 79.96 74.75, 123.63 25.32 M40.45 133.21 C69.46 102.24, 95.34 70.42, 129.01 31.33 M40.45 133.21 C67.95 101.44, 94.92 70.21, 129.01 31.33 M47.8 136.95 C72.6 110.35, 98.15 80.5, 133.74 38.08 M47.8 136.95 C67.06 114.88, 85.52 93.04, 133.74 38.08 M55.15 140.69 C83.98 108.01, 112.18 74.65, 137.15 46.35 M55.15 140.69 C83.23 107.69, 111.33 75.57, 137.15 46.35 M65.78 140.65 C80.46 123.88, 96.88 105.82, 139.26 56.13 M65.78 140.65 C85.45 117.95, 104.71 97.72, 139.26 56.13 M76.41 140.62 C91.44 120.63, 111.04 99.41, 141.36 65.9 M76.41 140.62 C94.24 121.9, 111.7 101.48, 141.36 65.9 M87.04 140.59 C102.94 124.19, 114.42 109.45, 140.18 79.45 M87.04 140.59 C107.86 117.52, 125.97 95.8, 140.18 79.45 M104.23 133 C111.35 124.43, 116.03 118.28, 136.37 96.02 M104.23 133 C115.99 120.56, 127.36 105.45, 136.37 96.02" stroke="#ffec99" stroke-width="1" fill="none"></path><path d="M86.48 2.32 C96.33 3.41, 108.46 9.55, 116.7 16.04 C124.93 22.52, 131.63 32.1, 135.89 41.21 C140.16 50.31, 142.46 60.6, 142.29 70.66 C142.12 80.72, 139.15 92.23, 134.86 101.58 C130.56 110.93, 124.53 120.37, 116.52 126.76 C108.51 133.15, 96.9 137.59, 86.82 139.91 C76.74 142.23, 66 142.79, 56.06 140.68 C46.11 138.57, 35.28 133.63, 27.14 127.24 C19.01 120.86, 11.83 111.75, 7.25 102.38 C2.67 93, -0.45 81.18, -0.33 70.98 C-0.22 60.78, 3.46 50.48, 7.93 41.17 C12.41 31.86, 18.5 21.66, 26.52 15.1 C34.53 8.55, 44.72 3.6, 56.02 1.84 C67.32 0.09, 86.83 3.56, 94.32 4.59 C101.8 5.63, 101.11 6.93, 100.92 8.08 M57.39 0.72 C66.74 -1.84, 80.96 0.77, 90.89 3.67 C100.82 6.56, 109.08 11.21, 116.96 18.09 C124.84 24.97, 134 35.6, 138.18 44.95 C142.35 54.29, 142.59 64.15, 141.99 74.16 C141.39 84.17, 139.21 96.08, 134.55 105.02 C129.89 113.95, 122.73 121.73, 114.02 127.79 C105.32 133.85, 92.43 139.24, 82.33 141.38 C72.23 143.51, 62.94 143.48, 53.43 140.61 C43.92 137.74, 33.24 131.11, 25.27 124.15 C17.31 117.18, 9.99 108.11, 5.64 98.84 C1.29 89.57, -1.51 78.77, -0.85 68.53 C-0.18 58.3, 4.33 46.64, 9.63 37.45 C14.93 28.25, 22.64 19.3, 30.97 13.38 C39.29 7.45, 55.1 3.52, 59.57 1.9 C64.05 0.28, 57.73 2.4, 57.84 3.66" stroke="#f08c00" stroke-width="2" fill="none"></path></g><g stroke-linecap="round" transform="translate(127.97101612353072 116.29089863509853) rotate(0 71.2908985674585 71.2908985674585)"><path d="M12.73 29.62 C12.73 29.62, 12.73 29.62, 12.73 29.62 M12.73 29.62 C12.73 29.62, 12.73 29.62, 12.73 29.62 M5.65 49.96 C19.24 35.63, 33.77 17.84, 41.73 8.45 M5.65 49.96 C15.24 38.41, 27.1 26.52, 41.73 8.45 M2.5 65.77 C22.23 43.14, 41.95 19.77, 55.64 4.64 M2.5 65.77 C22.55 43.23, 42.98 20.41, 55.64 4.64 M2.63 77.81 C20.65 57.5, 41.55 34.2, 68.89 1.59 M2.63 77.81 C27.42 47.59, 52.28 20.36, 68.89 1.59 M2.77 89.85 C22.37 65.83, 41.25 42.83, 78.21 3.06 M2.77 89.85 C21.36 68.13, 40.46 46.97, 78.21 3.06 M6.84 97.37 C34.16 62.26, 62.36 31.61, 87.53 4.54 M6.84 97.37 C25.35 77.04, 41.4 57.17, 87.53 4.54 M10.9 104.88 C32.58 76.22, 54.67 48.95, 96.85 6.01 M10.9 104.88 C45.16 66.81, 78.12 27.18, 96.85 6.01 M14.97 112.39 C42.34 80.26, 67.17 50.84, 104.2 9.75 M14.97 112.39 C36.05 88.1, 58.75 61.74, 104.2 9.75 M19.04 119.91 C47.08 85.44, 76.99 49.25, 110.89 14.25 M19.04 119.91 C39.19 97.8, 57.09 76.26, 110.89 14.25 M25.74 124.4 C53.21 90.66, 79.92 61.49, 117.59 18.74 M25.74 124.4 C60.34 83.62, 95.68 44.5, 117.59 18.74 M32.43 128.89 C61.05 98.62, 86.4 64.11, 123.62 23.99 M32.43 128.89 C58.87 96.67, 87.36 65.12, 123.62 23.99 M39.12 133.39 C73.58 92.94, 106.58 55.9, 128.35 30.75 M39.12 133.39 C61.09 107.9, 84.36 81.39, 128.35 30.75 M45.82 137.88 C67.6 113.3, 84.66 90.36, 132.42 38.26 M45.82 137.88 C68.5 111.16, 93.25 84.54, 132.42 38.26 M55.14 139.36 C72.98 118.08, 94.65 95.75, 136.49 45.77 M55.14 139.36 C87.15 102.75, 117.03 67.59, 136.49 45.77 M64.45 140.83 C88.51 114.75, 111.25 85.8, 139.9 54.04 M64.45 140.83 C87.84 115.77, 109.51 89.29, 139.9 54.04 M73.77 142.31 C102.12 110.23, 126.17 79.8, 140.03 66.08 M73.77 142.31 C87.48 126.33, 100.22 110.69, 140.03 66.08 M87.03 139.25 C100.85 122.78, 117.45 103.93, 140.82 77.37 M87.03 139.25 C96.65 127.16, 107.45 114.6, 140.82 77.37 M101.59 134.69 C109.23 124.66, 121.04 115.1, 137.68 93.18 M101.59 134.69 C108.94 124.88, 117.3 116.23, 137.68 93.18" stroke="#a5d8ff" stroke-width="1" fill="none"></path><path d="M99.76 5.97 C109.39 8.82, 118.36 17.26, 125 24.79 C131.64 32.32, 136.94 41.47, 139.59 51.15 C142.24 60.82, 142.48 72.6, 140.9 82.83 C139.31 93.05, 136.04 104.14, 130.1 112.49 C124.16 120.84, 114.31 127.96, 105.24 132.95 C96.17 137.93, 85.88 141.67, 75.68 142.4 C65.49 143.12, 53.67 141.24, 44.08 137.3 C34.49 133.37, 25.1 126.59, 18.15 118.79 C11.19 110.99, 5.07 100.31, 2.36 90.5 C-0.35 80.69, 0.13 70.11, 1.89 59.92 C3.66 49.73, 6.99 37.89, 12.94 29.37 C18.89 20.86, 28.54 13.58, 37.6 8.81 C46.66 4.04, 55.56 0.51, 67.29 0.75 C79.03 1, 99.76 7.34, 108.02 10.28 C116.27 13.21, 117.46 17.25, 116.83 18.38 M67.24 1.15 C76.95 -0.42, 87.05 1.6, 96.74 5.55 C106.44 9.51, 118.33 17.39, 125.4 24.88 C132.47 32.38, 136.37 40.94, 139.18 50.54 C142 60.15, 143.68 72.46, 142.27 82.52 C140.86 92.57, 137 102.39, 130.74 110.87 C124.48 119.35, 113.67 128.01, 104.73 133.39 C95.78 138.76, 86.95 142.58, 77.08 143.13 C67.2 143.67, 55.26 140.71, 45.49 136.68 C35.71 132.64, 25.67 126.32, 18.42 118.9 C11.16 111.48, 4.71 101.98, 1.96 92.15 C-0.79 82.32, -0.14 70.25, 1.91 59.94 C3.96 49.63, 8.38 38.64, 14.25 30.3 C20.13 21.96, 28.61 14.72, 37.17 9.89 C45.74 5.06, 60.64 2.47, 65.63 1.3 C70.63 0.14, 66.86 2.08, 67.16 2.89" stroke="#1971c2" stroke-width="2" fill="none"></path></g><g stroke-linecap="round" transform="translate(10 116.29089863509853) rotate(0 71.2908985674585 71.2908985674585)"><path d="M28.06 15.12 C28.06 15.12, 28.06 15.12, 28.06 15.12 M28.06 15.12 C28.06 15.12, 28.06 15.12, 28.06 15.12 M3.92 55.08 C14.36 43.14, 21.98 34.01, 45.91 6.78 M3.92 55.08 C16.24 42.4, 27.5 30.17, 45.91 6.78 M0.77 70.9 C23.59 44.86, 49.87 15.97, 60.47 2.22 M0.77 70.9 C15.96 54.22, 29.99 37.33, 60.47 2.22 M2.87 80.67 C26.83 54.53, 49.73 27.11, 70.45 2.94 M2.87 80.67 C29.38 51.11, 56.59 19.82, 70.45 2.94 M4.98 90.45 C23.64 66.75, 44.34 43.64, 81.08 2.9 M4.98 90.45 C24.38 68.77, 45.06 45.64, 81.08 2.9 M7.08 100.23 C36.6 66.13, 67.11 30.31, 91.05 3.62 M7.08 100.23 C24.28 78.94, 43.76 58.53, 91.05 3.62 M11.8 106.99 C44.6 66.42, 82.25 29.58, 98.4 7.36 M11.8 106.99 C28.91 85.62, 47.5 64.49, 98.4 7.36 M16.53 113.74 C47.97 76.33, 80.96 40.04, 105.75 11.1 M16.53 113.74 C41.5 84.81, 64.76 58.23, 105.75 11.1 M21.25 120.5 C57.86 76.15, 93.6 36.36, 113.1 14.84 M21.25 120.5 C42.92 94.56, 66.92 67.28, 113.1 14.84 M26.63 126.5 C60.2 88.82, 95.43 50.98, 119.8 19.34 M26.63 126.5 C50.34 100.67, 73.1 73.32, 119.8 19.34 M33.98 130.24 C63.89 91.9, 96.07 58.71, 124.52 26.09 M33.98 130.24 C55.52 106.64, 77.13 84.27, 124.52 26.09 M41.33 133.98 C68.26 104.09, 94.43 72.02, 129.25 32.85 M41.33 133.98 C66.68 105.17, 91.06 76.56, 129.25 32.85 M48.68 137.72 C76.03 103.56, 106.71 69.51, 133.97 39.61 M48.68 137.72 C73.37 111.16, 95.49 83.87, 133.97 39.61 M56.69 140.71 C85.12 110.31, 113.03 79.79, 137.39 47.88 M56.69 140.71 C77.24 116.3, 100.52 89.48, 137.39 47.88 M66.66 141.43 C93.46 109.08, 122.09 78.52, 139.49 57.65 M66.66 141.43 C81.57 123.14, 99.07 103.12, 139.49 57.65 M77.29 141.39 C95.6 117.5, 113.97 96.76, 142.24 66.68 M77.29 141.39 C98.74 115.73, 120.95 91.78, 142.24 66.68 M87.92 141.36 C103.83 123.26, 114.86 109.61, 142.38 78.72 M87.92 141.36 C98.62 128.52, 110.23 116.06, 142.38 78.72 M105.77 133.02 C114.78 125.59, 119.13 116.29, 136.61 97.55 M105.77 133.02 C118.12 119.13, 128.16 105.91, 136.61 97.55" stroke="#b2f2bb" stroke-width="1" fill="none"></path><path d="M89.73 3.09 C99.28 4.36, 109.54 9.86, 117.23 16.29 C124.92 22.73, 131.51 32.23, 135.87 41.72 C140.23 51.22, 143.67 62.99, 143.4 73.27 C143.13 83.55, 139.04 94.21, 134.25 103.39 C129.45 112.57, 122.8 121.99, 114.64 128.35 C106.48 134.71, 95.48 139.52, 85.27 141.55 C75.07 143.57, 63.51 143.19, 53.42 140.49 C43.33 137.79, 32.48 131.93, 24.73 125.35 C16.98 118.78, 11.1 110.49, 6.92 101.03 C2.74 91.57, -0.65 79.03, -0.37 68.59 C-0.09 58.15, 3.81 47.34, 8.6 38.37 C13.38 29.41, 20.2 20.99, 28.34 14.8 C36.48 8.61, 46.61 3.05, 57.44 1.25 C68.27 -0.54, 87.13 3.22, 93.32 4.04 C99.5 4.85, 95.08 5.33, 94.55 6.16 M61.12 0.81 C70.86 -1.39, 85.44 2, 95.37 5.15 C105.3 8.31, 113.42 12.8, 120.69 19.73 C127.96 26.67, 135.21 37.16, 138.98 46.74 C142.74 56.31, 144.68 66.91, 143.29 77.2 C141.91 87.5, 135.99 99.37, 130.65 108.5 C125.31 117.62, 119.49 126.46, 111.23 131.95 C102.97 137.44, 91.57 140.31, 81.11 141.42 C70.64 142.54, 58.56 141.71, 48.45 138.64 C38.34 135.56, 27.66 130.11, 20.46 122.96 C13.25 115.81, 8.34 105.56, 5.21 95.73 C2.08 85.89, 0.69 74.13, 1.7 63.97 C2.71 53.81, 6.29 43.36, 11.25 34.78 C16.22 26.19, 22.9 17.96, 31.48 12.48 C40.06 7, 57.54 3.8, 62.76 1.87 C67.98 -0.07, 62.9 0.04, 62.81 0.88" stroke="#2f9e44" stroke-width="2" fill="none"></path></g><g transform="translate(39.47665194249112 177.6715193886248) rotate(0 41.903968811035156 10)"><text x="41.903968811035156" y="14.016" font-family="Virgil, Segoe UI Emoji" font-size="16px" fill="#2f9e44" text-anchor="middle" style="white-space: pre;" direction="ltr" dominant-baseline="alphabetic">Availability</text></g><g transform="translate(131.62806930836632 178.49746609005342) rotate(0 9.568000793457031 9.084331179053152)"><text x="0" y="12.732598580560872" font-family="Virgil, Segoe UI Emoji" font-size="14.534929886485013px" fill="#1e1e1e" text-anchor="start" style="white-space: pre;" direction="ltr" dominant-baseline="alphabetic">AP</text></g><g transform="translate(161.10365103721324 167.6715193886248) rotate(0 38.24798583984375 20)"><text x="38.24798583984375" y="14.016" font-family="Virgil, Segoe UI Emoji" font-size="16px" fill="#1971c2" text-anchor="middle" style="white-space: pre;" direction="ltr" dominant-baseline="alphabetic">Partition</text><text x="38.24798583984375" y="34.016" font-family="Virgil, Segoe UI Emoji" font-size="16px" fill="#1971c2" text-anchor="middle" style="white-space: pre;" direction="ltr" dominant-baseline="alphabetic">Tolerance</text></g><g transform="translate(96.03863773821922 71.38062075352627) rotate(0 44.15997314453125 10)"><text x="44.15997314453125" y="14.016" font-family="Virgil, Segoe UI Emoji" font-size="16px" fill="#f08c00" text-anchor="middle" style="white-space: pre;" direction="ltr" dominant-baseline="alphabetic">Consistency</text></g><g transform="translate(98.91195355967557 126.23074509005346) rotate(0 9.444496154785156 9.084331179053152)"><text x="0" y="12.732598580560872" font-family="Virgil, Segoe UI Emoji" font-size="14.534929886485013px" fill="#1e1e1e" text-anchor="start" style="white-space: pre;" direction="ltr" dominant-baseline="alphabetic">CA</text></g><g transform="translate(161.0165853083663 126.23074509005346) rotate(0 9.480819702148438 9.084331179053152)"><text x="0" y="12.732598580560872" font-family="Virgil, Segoe UI Emoji" font-size="14.534929886485013px" fill="#1e1e1e" text-anchor="start" style="white-space: pre;" direction="ltr" dominant-baseline="alphabetic">CP</text></g></svg>