<svg version="1.1" xmlns="http://www.w3.org/2000/svg" viewBox="0 0 791.6884437356134 501.2990090254589" width="791.6884437356134" height="501.2990090254589">
  <!-- svg-source:excalidraw -->
  
  <defs>
    <style class="style-fonts">
      @font-face {
        font-family: "Virgil";
        src: url("https://excalidraw.com/Virgil.woff2");
      }
      @font-face {
        font-family: "Cascadia";
        src: url("https://excalidraw.com/Cascadia.woff2");
      }
      @font-face {
        font-family: "Assistant";
        src: url("https://excalidraw.com/Assistant-Regular.woff2");
      }
    </style>
    
  </defs>
  <g stroke-linecap="round"><g transform="translate(143.36721869329267 61.562439247212296) rotate(0 299.77658472104827 0)"><path d="M-0.98 -1.16 C98.71 -1.17, 498.69 0.79, 598.62 0.94 M0.71 0.84 C100.73 0.42, 500.8 -0.7, 600.85 -0.69" stroke="#1e1e1e" stroke-width="2" fill="none"></path></g></g><mask></mask><g transform="translate(21.718749357532488 48.3999998827926) rotate(0 52.734375 12)"><text x="0" y="0" font-family="Cascadia, Segoe UI Emoji" font-size="20px" fill="#1e1e1e" text-anchor="start" style="white-space: pre;" direction="ltr" dominant-baseline="text-before-edge">Cliente_w</text></g><g stroke-linecap="round"><g transform="translate(143.36721893837512 234.18199873503772) rotate(0 299.77658472104827 0)"><path d="M-0.05 0.39 C99.9 0.35, 500.38 1.06, 600.24 0.85 M-1.54 -0.46 C98.27 -0.31, 499.71 -0.9, 599.65 -0.83" stroke="#1e1e1e" stroke-width="2" fill="none"></path></g></g><mask></mask><g transform="translate(103.74999960261448 221.58939437061827) rotate(0 11.71875 12)"><text x="0" y="0" font-family="Cascadia, Segoe UI Emoji" font-size="20px" fill="#1e1e1e" text-anchor="start" style="white-space: pre;" direction="ltr" dominant-baseline="text-before-edge">r2</text></g><g stroke-linecap="round"><g transform="translate(143.36721893837512 286.10995573503806) rotate(0 299.77658472104827 0)"><path d="M0.56 0.3 C100.25 0.46, 498.68 -0.03, 598.4 -0.16 M-0.61 -0.59 C99.42 -0.14, 500.78 1.1, 600.5 1.3" stroke="#1e1e1e" stroke-width="2" fill="none"></path></g></g><mask></mask><g transform="translate(103.74999960261448 273.5173513706186) rotate(0 11.71875 12)"><text x="0" y="0" font-family="Cascadia, Segoe UI Emoji" font-size="20px" fill="#1e1e1e" text-anchor="start" style="white-space: pre;" direction="ltr" dominant-baseline="text-before-edge">r3</text></g><g stroke-linecap="round"><g transform="translate(143.36721848069692 172.7685804638768) rotate(0 250.64931843493264 0)"><path d="M-0.31 -0.7 C83.09 -0.78, 418 -1.35, 501.47 -1.11 M1.72 1.54 C84.89 1.62, 417.06 0.31, 500.61 -0.16" stroke="#1e1e1e" stroke-width="2" fill="none"></path></g></g><mask></mask><g transform="translate(103.74999914493719 160.95867609945708) rotate(0 11.71875 12)"><text x="0" y="0" font-family="Cascadia, Segoe UI Emoji" font-size="20px" fill="#1e1e1e" text-anchor="start" style="white-space: pre;" direction="ltr" dominant-baseline="text-before-edge">r1</text></g><g stroke-linecap="round"><g transform="translate(143.61590833575974 351.01608402342526) rotate(0 299.77658472104827 0)"><path d="M1.09 -0.7 C101.15 -0.71, 499.94 -0.64, 599.64 -0.41 M0.21 1.55 C100.18 1.74, 499.04 1.38, 598.74 0.92" stroke="#1e1e1e" stroke-width="2" fill="none"></path></g></g><mask></mask><g transform="translate(10 338.4530466590063) rotate(0 58.59375 12)"><text x="0" y="0" font-family="Cascadia, Segoe UI Emoji" font-size="20px" fill="#1e1e1e" text-anchor="start" style="white-space: pre;" direction="ltr" dominant-baseline="text-before-edge">Cliente_R1</text></g><g stroke-linecap="round"><g transform="translate(143.61590833575974 398.6390650234257) rotate(0 299.77658472104827 0)"><path d="M1.1 0.88 C101.02 0.93, 500.98 -0.4, 600.6 -0.56 M0.21 0.3 C99.98 0.58, 500.02 0.53, 600.2 0.68" stroke="#1e1e1e" stroke-width="2" fill="none"></path></g></g><mask></mask><g transform="translate(10 386.07602765900674) rotate(0 58.59375 12)"><text x="0" y="0" font-family="Cascadia, Segoe UI Emoji" font-size="20px" fill="#1e1e1e" text-anchor="start" style="white-space: pre;" direction="ltr" dominant-baseline="text-before-edge">Cliente_R2</text></g><g transform="translate(164.75596052400124 143.10701747679013) rotate(0 41.015625 12)"><text x="0" y="0" font-family="Cascadia, Segoe UI Emoji" font-size="20px" fill="#1e1e1e" text-anchor="start" style="white-space: pre;" direction="ltr" dominant-baseline="text-before-edge">&lt;v0,t0&gt;</text></g><g transform="translate(164.75596052400124 203.60737647679025) rotate(0 41.015625 12)"><text x="0" y="0" font-family="Cascadia, Segoe UI Emoji" font-size="20px" fill="#1e1e1e" text-anchor="start" style="white-space: pre;" direction="ltr" dominant-baseline="text-before-edge">&lt;v0,t0&gt;</text></g><g transform="translate(164.75596010939034 256.89794545243876) rotate(0 41.015625 12)"><text x="0" y="0" font-family="Cascadia, Segoe UI Emoji" font-size="20px" fill="#1e1e1e" text-anchor="start" style="white-space: pre;" direction="ltr" dominant-baseline="text-before-edge">&lt;v0,t0&gt;</text></g><g transform="translate(758.2509437356134 221.5893951138587) rotate(0 11.71875 12)"><text x="0" y="0" font-family="Cascadia, Segoe UI Emoji" font-size="20px" fill="#1e1e1e" text-anchor="start" style="white-space: pre;" direction="ltr" dominant-baseline="text-before-edge">r2</text></g><g transform="translate(758.2509437356134 273.5173521138595) rotate(0 11.71875 12)"><text x="0" y="0" font-family="Cascadia, Segoe UI Emoji" font-size="20px" fill="#1e1e1e" text-anchor="start" style="white-space: pre;" direction="ltr" dominant-baseline="text-before-edge">r3</text></g><g transform="translate(758.2509432779357 160.95867684269706) rotate(0 11.71875 12)"><text x="0" y="0" font-family="Cascadia, Segoe UI Emoji" font-size="20px" fill="#1e1e1e" text-anchor="start" style="white-space: pre;" direction="ltr" dominant-baseline="text-before-edge">r1</text></g><g transform="translate(660.7004564524336 158.90237848970992) rotate(0 5.859375 12)"><text x="0" y="0" font-family="Cascadia, Segoe UI Emoji" font-size="20px" fill="#e03131" text-anchor="start" style="white-space: pre;" direction="ltr" dominant-baseline="text-before-edge">X</text></g><g stroke-linecap="round"><g transform="translate(266.3524842198749 60.22564288278818) rotate(0 9.023375459830959 96.91773642040562)"><path d="M0.96 0.33 C4.09 32.98, 15.53 162.48, 18.37 194.89 M0.01 -0.54 C3.04 31.88, 14.72 161.07, 17.59 193.33" stroke="#1971c2" stroke-width="2" fill="none"></path></g><g transform="translate(266.3524842198749 60.22564288278818) rotate(0 9.023375459830959 96.91773642040562)"><path d="M18.47 192.37 L9.94 182.3 L22.86 180.52 L18.4 193.2" stroke="none" stroke-width="0" fill="#1971c2" fill-rule="evenodd"></path><path d="M17.59 193.33 C16.11 190.34, 15.01 186.46, 10.06 180.35 M17.59 193.33 C14.81 189.04, 11.83 182.74, 10.06 180.35 M10.06 180.35 C14.33 180.17, 18.59 179.49, 22.69 179.22 M10.06 180.35 C13.26 179.74, 16.54 179.55, 22.69 179.22 M22.69 179.22 C20.07 184.02, 18.88 187.77, 17.59 193.33 M22.69 179.22 C21.72 182.1, 19.88 186.56, 17.59 193.33 M17.59 193.33 C17.59 193.33, 17.59 193.33, 17.59 193.33 M17.59 193.33 C17.59 193.33, 17.59 193.33, 17.59 193.33" stroke="#1971c2" stroke-width="2" fill="none"></path></g></g><mask></mask><g stroke-linecap="round"><g transform="translate(267.522149397068 62.639696995294344) rotate(0 13.033764553088986 85.55496732284087)"><path d="M-0.64 -1.11 C3.72 27.54, 20.79 141.91, 25.07 170.78 M1.23 0.93 C6.05 29.85, 22.9 143.92, 27.26 172.15" stroke="#1971c2" stroke-width="2" fill="none"></path></g><g transform="translate(267.522149397068 62.639696995294344) rotate(0 13.033764553088986 85.55496732284087)"><path d="M27.37 170.69 L17.01 160.82 L33.22 158.43 L28.28 171.24" stroke="none" stroke-width="0" fill="#1971c2" fill-rule="evenodd"></path><path d="M27.26 172.15 C24.27 168.26, 23.52 165.63, 18.96 159.65 M27.26 172.15 C24.4 166.58, 21.21 162, 18.96 159.65 M18.96 159.65 C22.77 159.5, 25.29 159.64, 31.5 157.76 M18.96 159.65 C21.79 158.74, 25.92 159.33, 31.5 157.76 M31.5 157.76 C30.93 161.86, 27.53 168.53, 27.26 172.15 M31.5 157.76 C30.72 161.82, 29.05 164.92, 27.26 172.15 M27.26 172.15 C27.26 172.15, 27.26 172.15, 27.26 172.15 M27.26 172.15 C27.26 172.15, 27.26 172.15, 27.26 172.15" stroke="#1971c2" stroke-width="2" fill="none"></path></g></g><mask></mask><g transform="translate(299.08412821699176 203.60737703264203) rotate(0 41.015625 12)"><text x="0" y="0" font-family="Cascadia, Segoe UI Emoji" font-size="20px" fill="#1e1e1e" text-anchor="start" style="white-space: pre;" direction="ltr" dominant-baseline="text-before-edge">&lt;v1,t1&gt;</text></g><g stroke-linecap="round"><g transform="translate(267.1167944087938 60.29917058962474) rotate(0 71.89623894308124 55.76369058044497)"><path d="M0.57 -0.88 C24.51 17.55, 120.73 91.53, 144.68 110.36 M-0.59 1.28 C23.17 19.83, 120.14 93.16, 144.19 111.29" stroke="#1971c2" stroke-width="2" fill="none"></path></g><g transform="translate(267.1167944087938 60.29917058962474) rotate(0 71.89623894308124 55.76369058044497)"><path d="M145.27 111.3 L130.39 109.82 L136.62 99.44 L144.38 110.95" stroke="none" stroke-width="0" fill="#1971c2" fill-rule="evenodd"></path><path d="M144.19 111.29 C137.4 111.24, 131.34 109.49, 129.53 108.15 M144.19 111.29 C138.61 110.55, 134.73 109.05, 129.53 108.15 M129.53 108.15 C133.36 105.8, 135.77 100.75, 137.17 98.03 M129.53 108.15 C132.36 105.13, 135.68 100.96, 137.17 98.03 M137.17 98.03 C140.96 104.04, 141.99 108.23, 144.19 111.29 M137.17 98.03 C139.13 101.59, 140.88 105.51, 144.19 111.29 M144.19 111.29 C144.19 111.29, 144.19 111.29, 144.19 111.29 M144.19 111.29 C144.19 111.29, 144.19 111.29, 144.19 111.29" stroke="#1971c2" stroke-width="2" fill="none"></path></g></g><mask></mask><g transform="translate(411.6081173753105 143.10701746888753) rotate(0 41.015625 12)"><text x="0" y="0" font-family="Cascadia, Segoe UI Emoji" font-size="20px" fill="#1e1e1e" text-anchor="start" style="white-space: pre;" direction="ltr" dominant-baseline="text-before-edge">&lt;v1,t1&gt;</text></g><g stroke-linecap="round"><g transform="translate(496.1227165662849 171.15443826018054) rotate(0 18.14153562690558 -53.5808141593111)"><path d="M-0.42 0.18 C5.69 -17.51, 30 -88.17, 36.05 -106.22 M1.55 -0.77 C7.54 -18.77, 29.42 -90.09, 34.97 -107.84" stroke="#1971c2" stroke-width="2" fill="none"></path></g><g transform="translate(496.1227165662849 171.15443826018054) rotate(0 18.14153562690558 -53.5808141593111)"><path d="M33.43 -109.52 L37.76 -92.16 L23.86 -96.36 L36.44 -106.69" stroke="none" stroke-width="0" fill="#1971c2" fill-rule="evenodd"></path><path d="M34.97 -107.84 C35.69 -104.46, 37.15 -101.02, 37.01 -92.98 M34.97 -107.84 C35.21 -104.17, 35.87 -101.4, 37.01 -92.98 M37.01 -92.98 C34.8 -93.61, 30.79 -94, 24.9 -96.73 M37.01 -92.98 C33.17 -94.52, 29.94 -95.36, 24.9 -96.73 M24.9 -96.73 C26.6 -98.12, 28.87 -100.48, 34.97 -107.84 M24.9 -96.73 C29.19 -100.97, 32.63 -104.65, 34.97 -107.84 M34.97 -107.84 C34.97 -107.84, 34.97 -107.84, 34.97 -107.84 M34.97 -107.84 C34.97 -107.84, 34.97 -107.84, 34.97 -107.84" stroke="#1971c2" stroke-width="2" fill="none"></path></g></g><mask></mask><g stroke-linecap="round"><g transform="translate(383.4470935662848 232.75127973466397) rotate(0 10.969300718973955 -84.5901829837942)"><path d="M-0.98 0.54 C3.03 -27.8, 19.02 -140.94, 22.99 -169.06 M0.71 -0.21 C4.74 -27.82, 18.96 -139.16, 22.6 -167.46" stroke="#1971c2" stroke-width="2" fill="none"></path></g><g transform="translate(383.4470935662848 232.75127973466397) rotate(0 10.969300718973955 -84.5901829837942)"><path d="M21.17 -167.34 L28.61 -153.77 L15.89 -156 L24.02 -165.62" stroke="none" stroke-width="0" fill="#1971c2" fill-rule="evenodd"></path><path d="M22.6 -167.46 C24.37 -163.06, 24.81 -160.18, 27.16 -153.17 M22.6 -167.46 C23.73 -161.42, 25.84 -156.91, 27.16 -153.17 M27.16 -153.17 C24.16 -153.63, 18.11 -153.6, 14.58 -154.79 M27.16 -153.17 C22.14 -154.38, 18.5 -154.05, 14.58 -154.79 M14.58 -154.79 C17.22 -160.08, 19.61 -163.69, 22.6 -167.46 M14.58 -154.79 C17.79 -159.34, 20.34 -163.89, 22.6 -167.46 M22.6 -167.46 C22.6 -167.46, 22.6 -167.46, 22.6 -167.46 M22.6 -167.46 C22.6 -167.46, 22.6 -167.46, 22.6 -167.46" stroke="#1971c2" stroke-width="2" fill="none"></path></g></g><mask></mask><g transform="translate(233.54990535342404 10) rotate(0 32.8125 19.200000000000045)"><text x="32.8125" y="0" font-family="Cascadia, Segoe UI Emoji" font-size="16px" fill="#1971c2" text-anchor="middle" style="white-space: pre;" direction="ltr" dominant-baseline="text-before-edge">Escreve</text><text x="32.8125" y="19.2" font-family="Cascadia, Segoe UI Emoji" font-size="16px" fill="#1971c2" text-anchor="middle" style="white-space: pre;" direction="ltr" dominant-baseline="text-before-edge">&lt;v1,t1&gt;</text></g><g transform="translate(429.7938454479063 10.000000044462013) rotate(0 84.375 19.200000000000045)"><text x="84.375" y="0" font-family="Cascadia, Segoe UI Emoji" font-size="16px" fill="#1971c2" text-anchor="middle" style="white-space: pre;" direction="ltr" dominant-baseline="text-before-edge">Quórum de acks</text><text x="84.375" y="19.2" font-family="Cascadia, Segoe UI Emoji" font-size="16px" fill="#1971c2" text-anchor="middle" style="white-space: pre;" direction="ltr" dominant-baseline="text-before-edge">retorna ao cliente</text></g><g transform="translate(278.8642007441945 258.318171732416) rotate(0 5.859375 12)"><text x="0" y="0" font-family="Cascadia, Segoe UI Emoji" font-size="20px" fill="#e03131" text-anchor="start" style="white-space: pre;" direction="ltr" dominant-baseline="text-before-edge">X</text></g><g stroke-linecap="round"><g transform="translate(278.26956456628477 282.07380074112234) rotate(0 -21.69652124120853 69.63883471445138)"><path d="M0.07 -0.82 C-7.1 22.61, -36.92 116.02, -44.05 139.38 M-1.36 1.37 C-8.04 25.11, -34.73 117.75, -41.68 140.98" stroke="#e03131" stroke-width="2" fill="none"></path></g><g transform="translate(278.26956456628477 282.07380074112234) rotate(0 -21.69652124120853 69.63883471445138)"><path d="M-40 140.46 L-43.29 124.22 L-32.69 131.6 L-42 140.8" stroke="none" stroke-width="0" fill="#e03131" fill-rule="evenodd"></path><path d="M-41.68 140.98 C-43.04 136.99, -42.37 135.53, -43.94 126.15 M-41.68 140.98 C-42.9 135.92, -42.73 131.28, -43.94 126.15 M-43.94 126.15 C-38.45 126.45, -35.02 129.51, -31.78 129.71 M-43.94 126.15 C-40.95 126.35, -37.87 127.53, -31.78 129.71 M-31.78 129.71 C-35.54 134.82, -39.91 138.72, -41.68 140.98 M-31.78 129.71 C-34.38 132.5, -37.75 136.19, -41.68 140.98 M-41.68 140.98 C-41.68 140.98, -41.68 140.98, -41.68 140.98 M-41.68 140.98 C-41.68 140.98, -41.68 140.98, -41.68 140.98" stroke="#e03131" stroke-width="2" fill="none"></path></g></g><mask></mask><g transform="translate(27.706315430655195 433.69900902545896) rotate(0 126.5625 28.799999999999955)"><text x="126.5625" y="0" font-family="Cascadia, Segoe UI Emoji" font-size="16px" fill="#e03131" text-anchor="middle" style="white-space: pre;" direction="ltr" dominant-baseline="text-before-edge">Mensagem pode demorar muito</text><text x="126.5625" y="19.2" font-family="Cascadia, Segoe UI Emoji" font-size="16px" fill="#e03131" text-anchor="middle" style="white-space: pre;" direction="ltr" dominant-baseline="text-before-edge">ou o cliente pode falhar e</text><text x="126.5625" y="38.4" font-family="Cascadia, Segoe UI Emoji" font-size="16px" fill="#e03131" text-anchor="middle" style="white-space: pre;" direction="ltr" dominant-baseline="text-before-edge">nunca ser recebida por R3</text></g><g stroke-linecap="round"><g transform="translate(295.1749055662849 398.79933774112214) rotate(0 16.060565695721152 -111.76550889882265)"><path d="M0.01 -0.37 C5.64 -37.75, 27.71 -187.45, 32.87 -224.62 M-1.44 -1.6 C4.18 -38.85, 26.53 -186.92, 32.31 -223.65" stroke="#e8590c" stroke-width="2" fill="none"></path></g><g transform="translate(295.1749055662849 398.79933774112214) rotate(0 16.060565695721152 -111.76550889882265)"><path d="M32.7 -225.01 L35.43 -209.15 L23.52 -209.67 L33.14 -223.44" stroke="none" stroke-width="0" fill="#e8590c" fill-rule="evenodd"></path><path d="M32.31 -223.65 C32.75 -219.51, 32.79 -218.71, 36.51 -209.25 M32.31 -223.65 C33.48 -218.66, 35.16 -214.79, 36.51 -209.25 M36.51 -209.25 C31.05 -210.22, 28.47 -211.15, 23.98 -211.18 M36.51 -209.25 C34.14 -210.19, 30.41 -209.58, 23.98 -211.18 M23.98 -211.18 C25.71 -214.36, 28.11 -217.74, 32.31 -223.65 M23.98 -211.18 C27.54 -215.24, 29.8 -219.72, 32.31 -223.65 M32.31 -223.65 C32.31 -223.65, 32.31 -223.65, 32.31 -223.65 M32.31 -223.65 C32.31 -223.65, 32.31 -223.65, 32.31 -223.65" stroke="#e8590c" stroke-width="2" fill="none"></path></g></g><mask></mask><g stroke-linecap="round"><g transform="translate(336.3569560771525 173.51969067627897) rotate(0 22.74133109561967 110.98547056067446)"><path d="M0.82 0.05 C8.55 36.96, 37.84 185.11, 45.37 222.04 M-0.21 -0.97 C7.44 36.09, 36.74 186.32, 44.36 223.61" stroke="#e8590c" stroke-width="2" fill="none"></path></g><g transform="translate(336.3569560771525 173.51969067627897) rotate(0 22.74133109561967 110.98547056067446)"><path d="M42.49 223.05 L34.2 212.74 L47.75 207.69 L44.73 224.34" stroke="none" stroke-width="0" fill="#e8590c" fill-rule="evenodd"></path><path d="M44.36 223.61 C42.44 220.92, 40.55 219.09, 35.49 211.52 M44.36 223.61 C42.04 220.75, 39.78 216.47, 35.49 211.52 M35.49 211.52 C37.56 211.14, 40.03 210, 47.92 209.04 M35.49 211.52 C38.8 210.13, 42.25 210.41, 47.92 209.04 M47.92 209.04 C47.74 212.62, 46.56 215.44, 44.36 223.61 M47.92 209.04 C46.51 213.51, 45.35 217.28, 44.36 223.61 M44.36 223.61 C44.36 223.61, 44.36 223.61, 44.36 223.61 M44.36 223.61 C44.36 223.61, 44.36 223.61, 44.36 223.61" stroke="#e8590c" stroke-width="2" fill="none"></path></g></g><mask></mask><g stroke-linecap="round"><g transform="translate(295.5591418822014 399.12956249350464) rotate(0 15.424245279996512 -55.30156234535298)"><path d="M0.77 0.2 C6.1 -18.07, 25.77 -91.44, 30.79 -109.85 M-0.28 -0.73 C4.99 -19.34, 24.74 -93.57, 29.81 -111.58" stroke="#e8590c" stroke-width="2" fill="none"></path></g><g transform="translate(295.5591418822014 399.12956249350464) rotate(0 15.424245279996512 -55.30156234535298)"><path d="M27.87 -111.35 L32.92 -97.28 L18.96 -101.8 L30.87 -112.42" stroke="none" stroke-width="0" fill="#e8590c" fill-rule="evenodd"></path><path d="M29.81 -111.58 C30.55 -108.71, 31.74 -105.62, 32.34 -96.8 M29.81 -111.58 C30.53 -106.58, 32.11 -101.94, 32.34 -96.8 M32.34 -96.8 C29.02 -97.65, 25.08 -99.74, 20.11 -100.13 M32.34 -96.8 C27.06 -97.61, 23.46 -99.07, 20.11 -100.13 M20.11 -100.13 C21.51 -103.2, 25.93 -106.59, 29.81 -111.58 M20.11 -100.13 C22.44 -103.3, 24.94 -106.17, 29.81 -111.58 M29.81 -111.58 C29.81 -111.58, 29.81 -111.58, 29.81 -111.58 M29.81 -111.58 C29.81 -111.58, 29.81 -111.58, 29.81 -111.58" stroke="#e8590c" stroke-width="2" fill="none"></path></g></g><mask></mask><g stroke-linecap="round"><g transform="translate(330.92204569487603 287.39783448962817) rotate(0 15.800446384386532 56.24206510632848)"><path d="M-0.5 0.69 C4.86 19.47, 26.54 94.96, 32.03 113.46 M1.44 0 C6.68 18.4, 26.19 93.08, 31.3 111.86" stroke="#e8590c" stroke-width="2" fill="none"></path></g><g transform="translate(330.92204569487603 287.39783448962817) rotate(0 15.800446384386532 56.24206510632848)"><path d="M30.71 111.93 L21.39 102.01 L33.4 95.71 L30.12 110" stroke="none" stroke-width="0" fill="#e8590c" fill-rule="evenodd"></path><path d="M31.3 111.86 C29.29 109.01, 26.87 106.17, 21.68 100.35 M31.3 111.86 C29.57 109.23, 26.31 106.48, 21.68 100.35 M21.68 100.35 C27.24 98.74, 30.67 98.57, 33.93 97.09 M21.68 100.35 C24.53 99.18, 28 98.07, 33.93 97.09 M33.93 97.09 C34.87 98.72, 32.24 104.64, 31.3 111.86 M33.93 97.09 C32.84 100.49, 32.49 102.97, 31.3 111.86 M31.3 111.86 C31.3 111.86, 31.3 111.86, 31.3 111.86 M31.3 111.86 C31.3 111.86, 31.3 111.86, 31.3 111.86" stroke="#e8590c" stroke-width="2" fill="none"></path></g></g><mask></mask><g stroke-linecap="round"><g transform="translate(297.44014740415196 399.12956249350464) rotate(0 47.025138048769804 -81.63563965266394)"><path d="M-0.75 1.09 C15.05 -25.96, 79.38 -135.7, 95 -163.21 M1.05 0.62 C16.77 -26.15, 78.85 -134.37, 94.55 -161.64" stroke="#e8590c" stroke-width="2" fill="none"></path></g><g transform="translate(297.44014740415196 399.12956249350464) rotate(0 47.025138048769804 -81.63563965266394)"><path d="M94.46 -161.14 L94.48 -146.46 L80.92 -153.3 L94.34 -161.07" stroke="none" stroke-width="0" fill="#e8590c" fill-rule="evenodd"></path><path d="M94.55 -161.64 C95.4 -155.79, 93.72 -153.7, 93.27 -146.69 M94.55 -161.64 C93.89 -157.46, 94.36 -154.1, 93.27 -146.69 M93.27 -146.69 C90.87 -147.47, 87.49 -148.63, 82.28 -153.01 M93.27 -146.69 C89.56 -148.68, 86.32 -150.58, 82.28 -153.01 M82.28 -153.01 C86.73 -155.9, 90.73 -157.59, 94.55 -161.64 M82.28 -153.01 C86.52 -155.01, 89.76 -158.25, 94.55 -161.64 M94.55 -161.64 C94.55 -161.64, 94.55 -161.64, 94.55 -161.64 M94.55 -161.64 C94.55 -161.64, 94.55 -161.64, 94.55 -161.64" stroke="#e8590c" stroke-width="2" fill="none"></path></g></g><mask></mask><g transform="translate(334.8521549542106 405.81764129339126) rotate(0 46.875 19.200000000000045)"><text x="46.875" y="0" font-family="Cascadia, Segoe UI Emoji" font-size="16px" fill="#e8590c" text-anchor="middle" style="white-space: pre;" direction="ltr" dominant-baseline="text-before-edge">Leitura 1</text><text x="46.875" y="19.2" font-family="Cascadia, Segoe UI Emoji" font-size="16px" fill="#e8590c" text-anchor="middle" style="white-space: pre;" direction="ltr" dominant-baseline="text-before-edge">devolve V0</text></g><g stroke-linecap="round"><g transform="translate(481.7070833850462 349.5771487542547) rotate(0 63.47100502103467 -55.499241341551624)"><path d="M-0.21 0.67 C20.9 -17.71, 105.6 -91.44, 126.61 -110.08 M-1.78 -0.02 C19.15 -18.75, 103.83 -93.39, 125.49 -111.72" stroke="#2f9e44" stroke-width="2" fill="none"></path></g><g transform="translate(481.7070833850462 349.5771487542547) rotate(0 63.47100502103467 -55.499241341551624)"><path d="M125.52 -112.88 L118.36 -96.98 L111.32 -108.02 L123.71 -112.29" stroke="none" stroke-width="0" fill="#2f9e44" fill-rule="evenodd"></path><path d="M125.49 -111.72 C124.55 -108.1, 123.05 -104.97, 119.37 -98.03 M125.49 -111.72 C123.17 -107.29, 121.93 -103.34, 119.37 -98.03 M119.37 -98.03 C117 -100.22, 115.28 -102.92, 111.07 -107.61 M119.37 -98.03 C116.28 -100.95, 113.38 -105.01, 111.07 -107.61 M111.07 -107.61 C113.24 -107.91, 118.51 -110.82, 125.49 -111.72 M111.07 -107.61 C115.04 -108.92, 118.51 -110.48, 125.49 -111.72 M125.49 -111.72 C125.49 -111.72, 125.49 -111.72, 125.49 -111.72 M125.49 -111.72 C125.49 -111.72, 125.49 -111.72, 125.49 -111.72" stroke="#2f9e44" stroke-width="2" fill="none"></path></g></g><mask></mask><g transform="translate(563.377565128375 356.1470101192267) rotate(0 46.875 19.200000000000045)"><text x="46.875" y="0" font-family="Cascadia, Segoe UI Emoji" font-size="16px" fill="#2f9e44" text-anchor="middle" style="white-space: pre;" direction="ltr" dominant-baseline="text-before-edge">Leitura 2</text><text x="46.875" y="19.2" font-family="Cascadia, Segoe UI Emoji" font-size="16px" fill="#2f9e44" text-anchor="middle" style="white-space: pre;" direction="ltr" dominant-baseline="text-before-edge">devolve V1</text></g><g stroke-linecap="round"><g transform="translate(480.8453246757831 350.72616036660565) rotate(0 21.97484708621255 -87.89938834484997)"><path d="M0.14 0.88 C7.67 -28.4, 36.93 -145.63, 44.34 -175.14 M-1.25 0.3 C6.23 -29.37, 36.03 -147.69, 43.6 -176.91" stroke="#2f9e44" stroke-width="2" fill="none"></path></g><g transform="translate(480.8453246757831 350.72616036660565) rotate(0 21.97484708621255 -87.89938834484997)"><path d="M44.55 -176.33 L46.67 -161.67 L33.78 -163.69 L42.43 -177.43" stroke="none" stroke-width="0" fill="#2f9e44" fill-rule="evenodd"></path><path d="M43.6 -176.91 C45.41 -173.05, 45.77 -169.35, 46.39 -162.17 M43.6 -176.91 C44.28 -173.13, 44.44 -168.28, 46.39 -162.17 M46.39 -162.17 C43.28 -163.62, 40.92 -163.46, 34.1 -165.3 M46.39 -162.17 C42.66 -163.29, 37.73 -164.63, 34.1 -165.3 M34.1 -165.3 C37.3 -169.28, 38.72 -169.54, 43.6 -176.91 M34.1 -165.3 C37.12 -169.08, 39.97 -172.87, 43.6 -176.91 M43.6 -176.91 C43.6 -176.91, 43.6 -176.91, 43.6 -176.91 M43.6 -176.91 C43.6 -176.91, 43.6 -176.91, 43.6 -176.91" stroke="#2f9e44" stroke-width="2" fill="none"></path></g></g><mask></mask><g stroke-linecap="round"><g transform="translate(529.3910652976124 172.91661335529125) rotate(0 40.50265933537207 88.18664124793781)"><path d="M-0.16 1 C13.33 30.44, 67.52 147.98, 80.86 177.33 M-1.71 0.48 C11.63 29.53, 65.86 146.6, 79.84 175.71" stroke="#2f9e44" stroke-width="2" fill="none"></path></g><g transform="translate(529.3910652976124 172.91661335529125) rotate(0 40.50265933537207 88.18664124793781)"><path d="M80.96 176.32 L66.6 167.42 L81.22 162.16 L80.52 176.66" stroke="none" stroke-width="0" fill="#2f9e44" fill-rule="evenodd"></path><path d="M79.84 175.71 C77.69 172.73, 74.3 168.7, 68.32 166.11 M79.84 175.71 C76.13 172.42, 72.16 168.35, 68.32 166.11 M68.32 166.11 C71.88 164.25, 73.19 163.22, 79.79 160.71 M68.32 166.11 C71.14 164.86, 74.58 162.47, 79.79 160.71 M79.79 160.71 C78.96 165.38, 79.53 169.05, 79.84 175.71 M79.79 160.71 C79.56 166.55, 79.08 170.55, 79.84 175.71 M79.84 175.71 C79.84 175.71, 79.84 175.71, 79.84 175.71 M79.84 175.71 C79.84 175.71, 79.84 175.71, 79.84 175.71" stroke="#2f9e44" stroke-width="2" fill="none"></path></g></g><mask></mask><g stroke-linecap="round"><g transform="translate(480.8453246757831 350.72616036660565) rotate(0 17.845366962734943 -30.909082259168372)"><path d="M0.08 -0.23 C6.06 -10.4, 29.73 -51.25, 35.62 -61.38 M-1.34 -1.39 C4.5 -11.89, 28.66 -53.02, 34.63 -63.27" stroke="#2f9e44" stroke-width="2" fill="none"></path></g><g transform="translate(480.8453246757831 350.72616036660565) rotate(0 17.845366962734943 -30.909082259168372)"><path d="M33.88 -61.83 L32.2 -49.19 L21.75 -52.79 L36.04 -63.04" stroke="none" stroke-width="0" fill="#2f9e44" fill-rule="evenodd"></path><path d="M34.63 -63.27 C33.91 -59.23, 34.36 -55.36, 33.24 -48.34 M34.63 -63.27 C33.62 -57.1, 33.84 -52.49, 33.24 -48.34 M33.24 -48.34 C31.25 -48.88, 26.16 -52.53, 22.29 -54.74 M33.24 -48.34 C30.03 -49.95, 26.16 -52.2, 22.29 -54.74 M22.29 -54.74 C24.65 -57.64, 31.31 -59.9, 34.63 -63.27 M22.29 -54.74 C24.75 -56.12, 27.75 -58.35, 34.63 -63.27 M34.63 -63.27 C34.63 -63.27, 34.63 -63.27, 34.63 -63.27 M34.63 -63.27 C34.63 -63.27, 34.63 -63.27, 34.63 -63.27" stroke="#2f9e44" stroke-width="2" fill="none"></path></g></g><mask></mask><g stroke-linecap="round"><g transform="translate(518.1377881430908 287.31141830149863) rotate(0 25.877968244946715 30.414732968658654)"><path d="M0.98 0.72 C9.94 10.75, 44.45 50.66, 52.71 60.49 M0.03 0.05 C9.01 10.23, 43.47 51.78, 52.27 61.85" stroke="#2f9e44" stroke-width="2" fill="none"></path></g><g transform="translate(518.1377881430908 287.31141830149863) rotate(0 25.877968244946715 30.414732968658654)"><path d="M52.79 61.3 L39.14 57.31 L50.17 45.82 L50.74 62.77" stroke="none" stroke-width="0" fill="#2f9e44" fill-rule="evenodd"></path><path d="M52.27 61.85 C50.25 61.82, 46.03 57.82, 38.64 55.59 M52.27 61.85 C49.69 60.54, 46.48 59.41, 38.64 55.59 M38.64 55.59 C40.94 53.5, 44.89 52.37, 48.3 47.38 M38.64 55.59 C41.6 53.14, 44.45 50.24, 48.3 47.38 M48.3 47.38 C49.76 52.96, 52.35 57.13, 52.27 61.85 M48.3 47.38 C50.4 52.59, 51.1 59.06, 52.27 61.85 M52.27 61.85 C52.27 61.85, 52.27 61.85, 52.27 61.85 M52.27 61.85 C52.27 61.85, 52.27 61.85, 52.27 61.85" stroke="#2f9e44" stroke-width="2" fill="none"></path></g></g><mask></mask></svg>