<svg version="1.1" xmlns="http://www.w3.org/2000/svg" viewBox="0 0 478.3606981526573 297.24755259009544" width="478.3606981526573" height="297.24755259009544">
  <!-- svg-source:excalidraw -->
  
  <defs>
    <style class="style-fonts">
      @font-face {
        font-family: "Virgil";
        src: url("https://excalidraw.com/Virgil.woff2");
      }
      @font-face {
        font-family: "Cascadia";
        src: url("https://excalidraw.com/Cascadia.woff2");
      }
      @font-face {
        font-family: "Assistant";
        src: url("https://excalidraw.com/Assistant-Regular.woff2");
      }
    </style>
    
  </defs>
  <g stroke-linecap="round"><g transform="translate(153.49999999999955 44.78600299999994) rotate(0 0 104.35723786220319)"><path d="M0.52 -0.09 C0.56 34.74, 0.86 174.07, 0.75 208.95 M-0.66 -1.19 C-0.76 33.26, 0.24 172.23, 0.19 206.96" stroke="#1e1e1e" stroke-width="2" fill="none"></path></g></g><mask></mask><g transform="translate(10 71.28600299999994) rotate(0 61.416015625 23)"><text x="0" y="18.400390625" font-family="Helvetica, Segoe UI Emoji" font-size="20px" fill="#1e1e1e" text-anchor="start" style="white-space: pre;" direction="ltr" dominant-baseline="alphabetic">O = {A}</text><text x="0" y="41.400390625" font-family="Helvetica, Segoe UI Emoji" font-size="20px" fill="#1e1e1e" text-anchor="start" style="white-space: pre;" direction="ltr" dominant-baseline="alphabetic">R = {A,B,C,D}</text></g><g transform="translate(10 10) rotate(0 21.013671875 16.100000000000023)"><text x="0" y="25.760546874999996" font-family="Helvetica, Segoe UI Emoji" font-size="28px" fill="#1e1e1e" text-anchor="start" style="white-space: pre;" direction="ltr" dominant-baseline="alphabetic">P1:</text></g><g stroke-linecap="round"><g transform="translate(99.6883966906098 139.16302584806658) rotate(0 47.992450797666606 0)"><path d="M-0.15 0.77 C15.8 0.99, 80.28 0.83, 96.47 0.68 M-1.69 0.13 C14.08 0.06, 79.37 -1.26, 95.77 -1.09" stroke="#1971c2" stroke-width="2" fill="none"></path></g><g transform="translate(99.6883966906098 139.16302584806658) rotate(0 47.992450797666606 0)"><path d="M72.34 7.62 C82.19 5.29, 90.55 2.94, 95.77 -1.09 M72.34 7.62 C78.64 5.12, 86.39 2.35, 95.77 -1.09" stroke="#1971c2" stroke-width="2" fill="none"></path></g><g transform="translate(99.6883966906098 139.16302584806658) rotate(0 47.992450797666606 0)"><path d="M72.22 -9.48 C82.02 -5.59, 90.43 -1.73, 95.77 -1.09 M72.22 -9.48 C78.49 -7.05, 86.28 -4.87, 95.77 -1.09" stroke="#1971c2" stroke-width="2" fill="none"></path></g></g><mask></mask><g transform="translate(208.21421377765728 126.63416119889507) rotate(0 130.0732421875 11.5)"><text x="0" y="18.400390625" font-family="Helvetica, Segoe UI Emoji" font-size="20px" fill="#1971c2" text-anchor="start" style="white-space: pre;" direction="ltr" dominant-baseline="alphabetic">Consenso[1].propõe({B,C,D})</text></g><g transform="translate(15.07396966574288 177.97597458011592) rotate(0 33.349609375 11.5)"><text x="0" y="18.400390625" font-family="Helvetica, Segoe UI Emoji" font-size="20px" fill="#6741d9" text-anchor="start" style="white-space: pre;" direction="ltr" dominant-baseline="alphabetic">{B,C,D}</text></g><g stroke-linecap="round"><g transform="translate(183.99122020719142 191.41684207735398) rotate(0 -45.124192450971805 -0.18106194566621525)"><path d="M0.47 0.62 C-14.85 0.66, -76.09 0.14, -91.25 0.08 M-0.74 -0.1 C-15.76 -0.42, -73.96 -1.53, -89.07 -1.8" stroke="#6741d9" stroke-width="2" fill="none"></path></g><g transform="translate(183.99122020719142 191.41684207735398) rotate(0 -45.124192450971805 -0.18106194566621525)"><path d="M-65.42 -9.91 C-72.79 -8.61, -81.48 -4.47, -89.07 -1.8 M-65.42 -9.91 C-73.83 -7.83, -82.37 -4.72, -89.07 -1.8" stroke="#6741d9" stroke-width="2" fill="none"></path></g><g transform="translate(183.99122020719142 191.41684207735398) rotate(0 -45.124192450971805 -0.18106194566621525)"><path d="M-65.74 7.19 C-72.98 2.41, -81.56 0.48, -89.07 -1.8 M-65.74 7.19 C-73.99 3.25, -82.41 0.33, -89.07 -1.8" stroke="#6741d9" stroke-width="2" fill="none"></path></g></g><mask></mask><g transform="translate(42.86205572525023 208.87211011794443) rotate(0 5.5615234375 11.5)"><text x="0" y="18.400390625" font-family="Helvetica, Segoe UI Emoji" font-size="20px" fill="#6741d9" text-anchor="start" style="white-space: pre;" direction="ltr" dominant-baseline="alphabetic">2</text></g><g transform="translate(17.656117164731313 235.76824646711952) rotate(0 61.97265625 11.5)"><text x="0" y="18.400390625" font-family="Helvetica, Segoe UI Emoji" font-size="20px" fill="#6741d9" text-anchor="start" style="white-space: pre;" direction="ltr" dominant-baseline="alphabetic">O = {A,B,C,D}</text></g><g stroke-linecap="round"><g transform="translate(19.52195198167783 203.2373334026188) rotate(0 28.245559649401002 2.3912028881323977)"><path d="M1.2 -0.76 C1.95 -0.04, -2.84 4.34, 5.58 5.1 C14.01 5.86, 43.3 4.47, 51.76 3.81 C60.23 3.15, 55.53 1.92, 56.37 1.16 M0.37 1.45 C1.4 1.74, -0.64 2.62, 7.89 3.15 C16.42 3.68, 43.45 5.3, 51.56 4.61 C59.67 3.92, 55.9 -0.07, 56.56 -1" stroke="#6741d9" stroke-width="2" fill="none"></path></g></g><mask></mask><g transform="translate(103.30757279233285 264.24755259009544) rotate(0 5.5615234375 11.5)"><text x="0" y="18.400390625" font-family="Helvetica, Segoe UI Emoji" font-size="20px" fill="#6741d9" text-anchor="start" style="white-space: pre;" direction="ltr" dominant-baseline="alphabetic">2</text></g><g stroke-linecap="round"><g transform="translate(80.94794947497849 258.931917889827) rotate(0 27.991928157609664 2.308501754957433)"><path d="M-1.1 0.98 C-0.33 1.48, -2.93 3.58, 5.48 4.17 C13.89 4.77, 40.96 5.18, 49.37 4.54 C57.78 3.9, 54.69 0.97, 55.95 0.32 M0.52 0.45 C1.13 1.63, -3.61 4.58, 4.94 5.48 C13.48 6.37, 43.28 6.56, 51.82 5.81 C60.36 5.07, 55.48 1.82, 56.18 0.98" stroke="#6741d9" stroke-width="2" fill="none"></path></g></g><mask></mask><g transform="translate(63.19537050076815 264.24755213451067) rotate(0 5.5615234375 11.5)"><text x="0" y="18.400390625" font-family="Helvetica, Segoe UI Emoji" font-size="20px" fill="#6741d9" text-anchor="start" style="white-space: pre;" direction="ltr" dominant-baseline="alphabetic">1</text></g><g stroke-linecap="round"><g transform="translate(61.41145658309051 260.4490652388795) rotate(0 7.231845501683665 1.5837350458132278)"><path d="M0.44 -0.06 C0.72 0.59, -0.74 3.23, 1.25 3.68 C3.25 4.14, 10.15 3.12, 12.39 2.66 C14.63 2.19, 14.34 1.24, 14.69 0.89 M0 -0.56 C0.25 -0.04, -1.39 2.39, 0.84 2.98 C3.08 3.58, 11.08 3.5, 13.43 3 C15.77 2.49, 14.84 0.33, 14.92 -0.04" stroke="#6741d9" stroke-width="2" fill="none"></path></g></g><mask></mask></svg>