<svg version="1.1" xmlns="http://www.w3.org/2000/svg" viewBox="0 0 430.3940927005151 256.1634448039208" width="430.3940927005151" height="256.1634448039208">
  <!-- svg-source:excalidraw -->
  
  <defs>
    <style class="style-fonts">
      @font-face {
        font-family: "Virgil";
        src: url("https://excalidraw.com/Virgil.woff2");
      }
      @font-face {
        font-family: "Cascadia";
        src: url("https://excalidraw.com/Cascadia.woff2");
      }
      @font-face {
        font-family: "Assistant";
        src: url("https://excalidraw.com/Assistant-Regular.woff2");
      }
    </style>
    
  </defs>
  <g stroke-linecap="round"><g transform="translate(143.36721893837512 100.32472681382023) rotate(0 138.53408474790763 0)"><path d="M1.01 -0.66 C47.26 -0.63, 230.92 0.84, 277.03 1.01 M0.08 1.6 C46.22 1.25, 229.87 -0.02, 276.06 -0.58" stroke="#1e1e1e" stroke-width="2" fill="none"></path></g></g><mask></mask><g transform="translate(103.74999960261448 87.73212244940078) rotate(0 11.71875 12)"><text x="0" y="0" font-family="Cascadia, Segoe UI Emoji" font-size="20px" fill="#1e1e1e" text-anchor="start" style="white-space: pre;" direction="ltr" dominant-baseline="text-before-edge">r2</text></g><g stroke-linecap="round"><g transform="translate(143.36721893837512 152.2526838138201) rotate(0 137.43482461480517 0)"><path d="M0.6 0.38 C46.26 0.28, 228.12 0.38, 273.89 0.4 M-0.54 -0.46 C45.49 -0.41, 230.22 -1.33, 276.09 -1.51" stroke="#1e1e1e" stroke-width="2" fill="none"></path></g></g><mask></mask><g transform="translate(103.74999960261448 139.66007944940065) rotate(0 11.71875 12)"><text x="0" y="0" font-family="Cascadia, Segoe UI Emoji" font-size="20px" fill="#1e1e1e" text-anchor="start" style="white-space: pre;" direction="ltr" dominant-baseline="text-before-edge">r3</text></g><g stroke-linecap="round"><g transform="translate(144.98223573277073 38.911308542658844) rotate(0 137.01844111928426 0)"><path d="M0.38 0.54 C46.06 0.56, 227.36 0.54, 273.08 0.5 M-0.88 -0.22 C45.25 -0.6, 229.43 -1.69, 275.29 -1.36" stroke="#1e1e1e" stroke-width="2" fill="none"></path></g></g><mask></mask><g transform="translate(103.74999914493765 27.101404178239136) rotate(0 11.71875 12)"><text x="0" y="0" font-family="Cascadia, Segoe UI Emoji" font-size="20px" fill="#1e1e1e" text-anchor="start" style="white-space: pre;" direction="ltr" dominant-baseline="text-before-edge">r1</text></g><g stroke-linecap="round"><g transform="translate(143.61590833575974 217.15881210220687) rotate(0 137.31047991611285 0)"><path d="M0.63 0.3 C46.52 0.08, 228.76 -0.86, 274.37 -0.8 M-0.5 -0.59 C45.3 -0.72, 227.66 0.45, 273.28 0.32" stroke="#1e1e1e" stroke-width="2" fill="none"></path></g></g><mask></mask><g transform="translate(10 204.59577473778882) rotate(0 58.59375 12)"><text x="0" y="0" font-family="Cascadia, Segoe UI Emoji" font-size="20px" fill="#1e1e1e" text-anchor="start" style="white-space: pre;" direction="ltr" dominant-baseline="text-before-edge">Cliente_R1</text></g><g transform="translate(143.44360452400133 69.75010455557276) rotate(0 11.71875 12)"><text x="0" y="0" font-family="Cascadia, Segoe UI Emoji" font-size="20px" fill="#1e1e1e" text-anchor="start" style="white-space: pre;" direction="ltr" dominant-baseline="text-before-edge">v0</text></g><g transform="translate(143.44360410938998 124.03878353122127) rotate(0 11.71875 12)"><text x="0" y="0" font-family="Cascadia, Segoe UI Emoji" font-size="20px" fill="#1e1e1e" text-anchor="start" style="white-space: pre;" direction="ltr" dominant-baseline="text-before-edge">v0</text></g><g transform="translate(176.92628474419507 127.69909481119794) rotate(0 5.859375 12)"><text x="0" y="0" font-family="Cascadia, Segoe UI Emoji" font-size="20px" fill="#e03131" text-anchor="start" style="white-space: pre;" direction="ltr" dominant-baseline="text-before-edge">X</text></g><g transform="translate(142.487528143316 10.0000001809467) rotate(0 11.71875 12)"><text x="0" y="0" font-family="Cascadia, Segoe UI Emoji" font-size="20px" fill="#1e1e1e" text-anchor="start" style="white-space: pre;" direction="ltr" dominant-baseline="text-before-edge">v0</text></g><g stroke-linecap="round"><g transform="translate(155.1623543466094 216.9264098010526) rotate(0 13.87918868464908 -31.43145239628052)"><path d="M-0.34 -0.25 C4.15 -10.58, 22.87 -51.55, 27.62 -62.13 M1.68 -1.43 C5.94 -12.08, 22.28 -53.63, 26.6 -63.87" stroke="#2f9e44" stroke-width="2" fill="none"></path></g><g transform="translate(155.1623543466094 216.9264098010526) rotate(0 13.87918868464908 -31.43145239628052)"><path d="M25.42 -62.21 L27.18 -49.81 L15.82 -52.02 L25.32 -65.16" stroke="none" stroke-width="0" fill="#2f9e44" fill-rule="evenodd"></path><path d="M26.6 -63.87 C26.54 -58.72, 28.04 -52.72, 27.37 -48.89 M26.6 -63.87 C27.39 -61.08, 26.97 -57.05, 27.37 -48.89 M27.37 -48.89 C24.46 -49.93, 19.59 -52.52, 15.62 -53.66 M27.37 -48.89 C23.63 -50.87, 20.2 -51.96, 15.62 -53.66 M15.62 -53.66 C20.4 -57.03, 23.51 -60.28, 26.6 -63.87 M15.62 -53.66 C18.98 -56.14, 22.16 -60.38, 26.6 -63.87 M26.6 -63.87 C26.6 -63.87, 26.6 -63.87, 26.6 -63.87 M26.6 -63.87 C26.6 -63.87, 26.6 -63.87, 26.6 -63.87" stroke="#2f9e44" stroke-width="2" fill="none"></path></g></g><mask></mask><g stroke-linecap="round"><g transform="translate(157.0326066309235 216.010090033275) rotate(0 58.479425415187734 -87.14127818784868)"><path d="M-1.2 1.01 C18.11 -28.08, 97.26 -144.65, 116.87 -173.72 M0.38 0.49 C19.42 -29.03, 96.69 -146.25, 115.87 -175.55" stroke="#2f9e44" stroke-width="2" fill="none"></path></g><g transform="translate(157.0326066309235 216.010090033275) rotate(0 58.479425415187734 -87.14127818784868)"><path d="M117.19 -177.03 L115.3 -160.91 L104.5 -169.4 L117.46 -173.95" stroke="none" stroke-width="0" fill="#2f9e44" fill-rule="evenodd"></path><path d="M115.87 -175.55 C116.4 -169.94, 115 -164.71, 113.71 -160.71 M115.87 -175.55 C114.52 -170.77, 114.29 -165.22, 113.71 -160.71 M113.71 -160.71 C111.18 -163.91, 106.06 -165.31, 103.11 -167.67 M113.71 -160.71 C110.89 -162.18, 106.77 -165.14, 103.11 -167.67 M103.11 -167.67 C107.06 -170.09, 110.87 -174.3, 115.87 -175.55 M103.11 -167.67 C106.03 -169.94, 110.7 -171.93, 115.87 -175.55 M115.87 -175.55 C115.87 -175.55, 115.87 -175.55, 115.87 -175.55 M115.87 -175.55 C115.87 -175.55, 115.87 -175.55, 115.87 -175.55" stroke="#2f9e44" stroke-width="2" fill="none"></path></g></g><mask></mask><g transform="translate(222.05365568297702 10) rotate(0 11.71875 12)"><text x="0" y="0" font-family="Cascadia, Segoe UI Emoji" font-size="20px" fill="#1e1e1e" text-anchor="start" style="white-space: pre;" direction="ltr" dominant-baseline="text-before-edge">v1</text></g><g stroke-linecap="round"><g transform="translate(233.38244599230984 34.36742422783027) rotate(0 0 5.045437174537028)"><path d="M-0.14 0.43 C-0.1 2.17, 0.11 8.43, 0.14 10.03 M0.78 0.17 C0.78 2.03, -0.04 8.96, -0.22 10.7" stroke="#1e1e1e" stroke-width="2" fill="none"></path></g></g><mask></mask><g stroke-linecap="round"><g transform="translate(277.04723671964666 40.163736803610846) rotate(0 14.22689710696045 87.01567300303736)"><path d="M-0.64 0.16 C3.81 29.35, 22.92 144.97, 27.65 174.12 M1.23 -0.8 C5.97 28.69, 25.71 146.7, 29.94 175.7" stroke="#2f9e44" stroke-width="2" fill="none"></path></g><g transform="translate(277.04723671964666 40.163736803610846) rotate(0 14.22689710696045 87.01567300303736)"><path d="M31.51 177.16 L22.51 165.21 L34.87 161.26 L31.04 175.38" stroke="none" stroke-width="0" fill="#2f9e44" fill-rule="evenodd"></path><path d="M29.94 175.7 C27.05 169.92, 23.77 165.32, 21.55 163.27 M29.94 175.7 C26.6 171.54, 23.32 166.63, 21.55 163.27 M21.55 163.27 C25.16 163.7, 30.06 162.1, 34.08 161.28 M21.55 163.27 C25.7 162.98, 29.39 161.66, 34.08 161.28 M34.08 161.28 C34.15 165.14, 32.69 168.35, 29.94 175.7 M34.08 161.28 C31.95 166.92, 31.2 172.11, 29.94 175.7 M29.94 175.7 C29.94 175.7, 29.94 175.7, 29.94 175.7 M29.94 175.7 C29.94 175.7, 29.94 175.7, 29.94 175.7" stroke="#2f9e44" stroke-width="2" fill="none"></path></g></g><mask></mask><g stroke-linecap="round"><g transform="translate(157.01821449850058 216.55070540383986) rotate(0 88.38570295080467 -56.441957047388996)"><path d="M-0.05 -0.61 C29.56 -19.16, 147.02 -93.38, 176.47 -112.27 M-1.53 1.68 C27.99 -17.14, 145.81 -94.92, 175.36 -114.07" stroke="#2f9e44" stroke-width="2" fill="none"></path></g><g transform="translate(157.01821449850058 216.55070540383986) rotate(0 88.38570295080467 -56.441957047388996)"><path d="M177 -114.17 L165.81 -102.24 L158.6 -111.52 L176.84 -114.56" stroke="none" stroke-width="0" fill="#2f9e44" fill-rule="evenodd"></path><path d="M175.36 -114.07 C172.9 -111.89, 172.85 -109.15, 167.46 -101.32 M175.36 -114.07 C172.91 -111.32, 172.27 -108.5, 167.46 -101.32 M167.46 -101.32 C164.9 -105.47, 161.46 -107.81, 160.51 -111.93 M167.46 -101.32 C164.85 -104.54, 162.46 -109.21, 160.51 -111.93 M160.51 -111.93 C164.18 -113.4, 165.77 -111.29, 175.36 -114.07 M160.51 -111.93 C163.41 -111.92, 166.53 -112.63, 175.36 -114.07 M175.36 -114.07 C175.36 -114.07, 175.36 -114.07, 175.36 -114.07 M175.36 -114.07 C175.36 -114.07, 175.36 -114.07, 175.36 -114.07" stroke="#2f9e44" stroke-width="2" fill="none"></path></g></g><mask></mask><g transform="translate(290.79592367464056 71.53126085186386) rotate(0 11.71875 12)"><text x="0" y="0" font-family="Cascadia, Segoe UI Emoji" font-size="20px" fill="#1e1e1e" text-anchor="start" style="white-space: pre;" direction="ltr" dominant-baseline="text-before-edge">v1</text></g><g stroke-linecap="round"><g transform="translate(302.1247139839729 95.89868507969413) rotate(0 0 5.045437174537028)"><path d="M0.18 -0.03 C0.28 1.51, 0.51 7.92, 0.54 9.66 M-0.4 -0.52 C-0.32 1.04, 0.28 8.46, 0.39 10.14" stroke="#1e1e1e" stroke-width="2" fill="none"></path></g></g><mask></mask><g transform="translate(361.07647173816804 122.75684351021573) rotate(0 11.71875 12)"><text x="0" y="0" font-family="Cascadia, Segoe UI Emoji" font-size="20px" fill="#1e1e1e" text-anchor="start" style="white-space: pre;" direction="ltr" dominant-baseline="text-before-edge">v1</text></g><g stroke-linecap="round"><g transform="translate(372.4052620475013 147.124267738046) rotate(0 0 5.045437174537028)"><path d="M-0.49 0.41 C-0.51 2.02, 0.26 8.28, 0.29 9.91 M0.25 0.14 C0.16 1.81, 0.18 8.74, 0.01 10.52" stroke="#1e1e1e" stroke-width="2" fill="none"></path></g></g><mask></mask><g stroke-linecap="round"><g transform="translate(337.083351240336 101.86693334628671) rotate(0 7.646964238808778 57.287427009380735)"><path d="M1.13 -0.89 C3.65 18.18, 13.31 95.62, 15.66 114.83 M0.27 1.26 C2.62 19.91, 12.54 93.79, 14.9 112.84" stroke="#2f9e44" stroke-width="2" fill="none"></path></g><g transform="translate(337.083351240336 101.86693334628671) rotate(0 7.646964238808778 57.287427009380735)"><path d="M13.3 111.81 L6.47 101.41 L21.43 98.2 L15.49 114.51" stroke="none" stroke-width="0" fill="#2f9e44" fill-rule="evenodd"></path><path d="M14.9 112.84 C10.98 109.01, 9.65 104.09, 6.86 100.17 M14.9 112.84 C12.44 109.87, 10.52 105.63, 6.86 100.17 M6.86 100.17 C12.35 99.99, 14.91 98, 19.44 98.54 M6.86 100.17 C12.16 100.16, 16.02 98.41, 19.44 98.54 M19.44 98.54 C18.23 103.57, 16.42 108.87, 14.9 112.84 M19.44 98.54 C18.51 102.34, 17.73 104.83, 14.9 112.84 M14.9 112.84 C14.9 112.84, 14.9 112.84, 14.9 112.84 M14.9 112.84 C14.9 112.84, 14.9 112.84, 14.9 112.84" stroke="#2f9e44" stroke-width="2" fill="none"></path></g></g><mask></mask><g transform="translate(356.6052008240499 180.59577440664225) rotate(0 11.71875 12)"><text x="0" y="0" font-family="Cascadia, Segoe UI Emoji" font-size="20px" fill="#2f9e44" text-anchor="start" style="white-space: pre;" direction="ltr" dominant-baseline="text-before-edge">v1</text></g><g transform="translate(273.9001847254367 184.86355141541435) rotate(0 11.71875 12)"><text x="0" y="0" font-family="Cascadia, Segoe UI Emoji" font-size="20px" fill="#2f9e44" text-anchor="start" style="white-space: pre;" direction="ltr" dominant-baseline="text-before-edge">v1</text></g><g transform="translate(123.02442863198257 226.963444803921) rotate(0 32.8125 9.599999999999909)"><text x="32.8125" y="0" font-family="Cascadia, Segoe UI Emoji" font-size="16px" fill="#2f9e44" text-anchor="middle" style="white-space: pre;" direction="ltr" dominant-baseline="text-before-edge">Read(*)</text></g><g stroke-linecap="round" transform="translate(154.81988234660912 213.75716656977147) rotate(0 76.08353250000005 3.305499752912965)"><path d="M1.65 0 C38.17 3.51, 73.07 -1.1, 150.51 0 C153.21 1.52, 152.02 0.67, 152.17 1.65 C151.92 2.44, 152.27 3.72, 152.17 4.96 C152.69 3.6, 149.49 5.16, 150.51 6.61 C93.62 5.06, 40.22 8.18, 1.65 6.61 C1.33 6.96, 0.49 3.74, 0 4.96 C-0.41 3.92, -0.24 2.57, 0 1.65 C2.34 -1.59, -0.22 0.43, 1.65 0" stroke="none" stroke-width="0" fill="#b2f2bb"></path><path d="M1.65 0 C39.23 -0.55, 78.45 0.27, 150.51 0 M1.65 0 C54.83 -0.69, 108.41 -1.11, 150.51 0 M150.51 0 C151.43 0.98, 152.22 1.28, 152.17 1.65 M150.51 0 C150.99 0.66, 152.42 -0.45, 152.17 1.65 M152.17 1.65 C152.24 2.8, 152.05 3.97, 152.17 4.96 M152.17 1.65 C152.2 2.92, 152.23 4.15, 152.17 4.96 M152.17 4.96 C152.87 6.72, 151.38 5.73, 150.51 6.61 M152.17 4.96 C151.84 6.42, 151.76 7.02, 150.51 6.61 M150.51 6.61 C101.1 7.11, 50.64 7.05, 1.65 6.61 M150.51 6.61 C100.87 5.82, 51.57 5.6, 1.65 6.61 M1.65 6.61 C1.22 6.23, 0.29 7.03, 0 4.96 M1.65 6.61 C0.97 7.56, -0.95 7.16, 0 4.96 M0 4.96 C0.05 4.13, -0.09 3.24, 0 1.65 M0 4.96 C-0.04 3.72, -0.05 2.6, 0 1.65 M0 1.65 C-0.59 -0.05, 0.95 -0.24, 1.65 0 M0 1.65 C-1.13 0.82, 1.25 -0.7, 1.65 0" stroke="#2f9e44" stroke-width="2" fill="none"></path></g><g transform="translate(260.1119473612225 224.98926810920648) rotate(0 46.875 9.599999999999909)"><text x="46.875" y="0" font-family="Cascadia, Segoe UI Emoji" font-size="16px" fill="#2f9e44" text-anchor="middle" style="white-space: pre;" direction="ltr" dominant-baseline="text-before-edge">Return(V1)</text></g></svg>