<svg version="1.1" xmlns="http://www.w3.org/2000/svg" viewBox="0 0 678.3726651169827 398.94859715774203" width="678.3726651169827" height="398.94859715774203">
  <!-- svg-source:excalidraw -->
  
  <defs>
    <style class="style-fonts">
      @font-face {
        font-family: "Virgil";
        src: url("https://excalidraw.com/Virgil.woff2");
      }
      @font-face {
        font-family: "Cascadia";
        src: url("https://excalidraw.com/Cascadia.woff2");
      }
      @font-face {
        font-family: "Assistant";
        src: url("https://excalidraw.com/Assistant-Regular.woff2");
      }
    </style>
    
  </defs>
  <g stroke-linecap="round"><g transform="translate(165.65716035046262 11.811613171093768) rotate(0 0 187.4969314853118)"><path d="M-0.26 -0.35 C0.02 61.82, 0.71 311.56, 0.69 374.24" stroke="#1e1e1e" stroke-width="2.5" fill="none" stroke-dasharray="1.5 8"></path></g></g><mask></mask><g stroke-linecap="round"><g transform="translate(208.16438504592816 11.45857061537015) rotate(0 0 187.49693148531173)"><path d="M0.67 -0.91 C0.59 61.46, 0 311, -0.06 373.83" stroke="#1e1e1e" stroke-width="2.5" fill="none" stroke-dasharray="1.5 8"></path></g></g><mask></mask><g stroke-linecap="round"><g transform="translate(257.121859045928 11.256972615370273) rotate(0 0 187.49693148531173)"><path d="M-0.06 -1.16 C-0.11 61.67, 0.51 313.25, 0.35 376.06" stroke="#1e1e1e" stroke-width="2.5" fill="none" stroke-dasharray="1.5 8"></path></g></g><mask></mask><g stroke-linecap="round"><g transform="translate(477.8591180459284 9.881329615369964) rotate(0 0 187.49693148531173)"><path d="M-0.8 0.12 C-1.05 62.52, -0.53 312.78, -0.46 375.23" stroke="#1e1e1e" stroke-width="2.5" fill="none" stroke-dasharray="1.5 8"></path></g></g><mask></mask><g stroke-linecap="round"><g transform="translate(10.200843350462492 10.963492171093776) rotate(0 0 187.4969314853118)"><path d="M0.87 -0.96 C1.05 61.5, 0.94 313.12, 0.87 375.84" stroke="#1e1e1e" stroke-width="2.5" fill="none" stroke-dasharray="1.5 8"></path></g></g><mask></mask><g stroke-linecap="round"><g transform="translate(52.70806804592803 10.610449615370158) rotate(0 0 187.49693148531173)"><path d="M0.87 0.85 C0.8 63.57, 0.53 312.91, 0.45 375.4" stroke="#1e1e1e" stroke-width="2.5" fill="none" stroke-dasharray="1.5 8"></path></g></g><mask></mask><g stroke-linecap="round"><g transform="translate(550.0468470459286 9.99999961537003) rotate(0 0 187.49693148531173)"><path d="M-0.46 0.29 C-0.18 62.77, 0.8 313.26, 0.72 375.63" stroke="#1e1e1e" stroke-width="2.5" fill="none" stroke-dasharray="1.5 8"></path></g></g><mask></mask><g stroke-linecap="round"><g transform="translate(605.9140570459285 9.999999615369916) rotate(0 0 187.4969314853118)"><path d="M0.54 1.13 C0.35 63.76, -0.05 313.07, -0.06 375.42" stroke="#1e1e1e" stroke-width="2.5" fill="none" stroke-dasharray="1.5 8"></path></g></g><mask></mask><g stroke-linecap="round"><g transform="translate(347.5135340459283 12.096091615370028) rotate(0 0 187.49693148531173)"><path d="M1.02 -0.62 C1.13 61.81, 0.15 311.46, -0.07 373.9" stroke="#1e1e1e" stroke-width="2.5" fill="none" stroke-dasharray="1.5 8"></path></g></g><mask></mask><g stroke-linecap="round"><g transform="translate(404.4746270459282 12.449133615370101) rotate(0 0 187.49693148531168)"><path d="M-0.07 -1.09 C-0.28 61.36, -0.21 311.36, -0.27 374.06" stroke="#1e1e1e" stroke-width="2.5" fill="none" stroke-dasharray="1.5 8"></path></g></g><mask></mask><g stroke-linecap="round"><g transform="translate(11.27727842488548 94.13330446136524) rotate(0 97.8595206969735 0)"><path d="M-1.13 1.01 C31.3 1.26, 162.01 1.03, 195 1.05 M0.48 0.49 C33.27 0.47, 164.64 -0.33, 197.33 -0.53" stroke="#1e1e1e" stroke-width="2" fill="none"></path></g></g><mask></mask><g transform="translate(97.93658898351987 47.48508994716201) rotate(0 11.807998657226562 22.5)"><text x="11.807998657226562" y="0" font-family="Virgil, Segoe UI Emoji" font-size="36px" fill="#1e1e1e" text-anchor="middle" style="white-space: pre;" direction="ltr" dominant-baseline="text-before-edge">A</text></g><g stroke-linecap="round"><g transform="translate(53.43198139786455 316.6738814613652) rotate(0 56.333548411883385 0)"><path d="M0.32 -0.09 C18.99 -0.17, 92.81 0.48, 111.55 0.46 M-0.97 -1.18 C18.1 -1.71, 94.84 -1.79, 113.68 -1.42" stroke="#1e1e1e" stroke-width="2" fill="none"></path></g></g><mask></mask><g transform="translate(97.52150910559021 270.025666947162) rotate(0 13.08599853515625 22.5)"><text x="13.08599853515625" y="0" font-family="Virgil, Segoe UI Emoji" font-size="36px" fill="#1e1e1e" text-anchor="middle" style="white-space: pre;" direction="ltr" dominant-baseline="text-before-edge">B</text></g><g stroke-linecap="round"><g transform="translate(258.1380274008402 149.79638199194153) rotate(0 72.1654760707736 0)"><path d="M-1.08 -0.1 C23.23 -0.06, 120.64 1.18, 144.79 1.11 M0.56 -1.2 C24.84 -1.55, 120.37 -0.71, 144.09 -0.43" stroke="#1e1e1e" stroke-width="2" fill="none"></path></g></g><mask></mask><g transform="translate(291.0415414044646 103.51274647773835) rotate(0 11.591995239257812 22.5)"><text x="11.591995239257812" y="0" font-family="Virgil, Segoe UI Emoji" font-size="36px" fill="#1e1e1e" text-anchor="middle" style="white-space: pre;" direction="ltr" dominant-baseline="text-before-edge">C</text></g><g stroke-linecap="round"><g transform="translate(351.43066302228226 221.35255330550046) rotate(0 99.03993498645536 0)"><path d="M-0.21 -0.56 C32.55 -0.48, 163.91 -0.55, 196.92 -0.44 M-1.79 1.76 C31.3 2.08, 165.91 0.91, 199.03 0.87" stroke="#1e1e1e" stroke-width="2" fill="none"></path></g></g><mask></mask><g transform="translate(426.660507979032 175.0577397912973) rotate(0 14.039993286132812 22.5)"><text x="14.039993286132812" y="0" font-family="Virgil, Segoe UI Emoji" font-size="36px" fill="#1e1e1e" text-anchor="middle" style="white-space: pre;" direction="ltr" dominant-baseline="text-before-edge">D</text></g><g stroke-linecap="round"><g transform="translate(477.89176515279905 284.9910817918842) rotate(0 63.747298900442956 0)"><path d="M0.64 -0.32 C21.83 -0.1, 106.96 0.92, 128.12 0.8 M-0.49 -1.53 C20.52 -1.61, 106.27 -1.11, 127.51 -0.91" stroke="#1e1e1e" stroke-width="2" fill="none"></path></g></g><mask></mask><g transform="translate(566.1828822408952 238.45341627768084) rotate(0 12.131996154785156 22.5)"><text x="12.131996154785156" y="0" font-family="Virgil, Segoe UI Emoji" font-size="36px" fill="#1e1e1e" text-anchor="middle" style="white-space: pre;" direction="ltr" dominant-baseline="text-before-edge">E</text></g><g stroke-linecap="round"><g transform="translate(11.068325577303767 387.7694406617949) rotate(0 324.03890898103054 0)"><path d="M0.26 0.85 C108.29 0.61, 540.93 -0.22, 648.93 -0.29 M-1.07 0.26 C106.83 0.69, 540.32 1.42, 648.43 1.1" stroke="#1e1e1e" stroke-width="2" fill="none"></path></g><g transform="translate(11.068325577303767 387.7694406617949) rotate(0 324.03890898103054 0)"><path d="M624.94 9.66 C634.7 7.96, 641.22 3.77, 648.43 1.1 M624.94 9.66 C633.09 6.31, 641.05 3.77, 648.43 1.1" stroke="#1e1e1e" stroke-width="2" fill="none"></path></g><g transform="translate(11.068325577303767 387.7694406617949) rotate(0 324.03890898103054 0)"><path d="M624.94 -7.45 C634.87 -3.01, 641.39 -1.07, 648.43 1.1 M624.94 -7.45 C633.1 -5.04, 641.07 -1.83, 648.43 1.1" stroke="#1e1e1e" stroke-width="2" fill="none"></path></g></g><mask></mask><g transform="translate(648.0326687790921 339.20040126117715) rotate(0 10.169998168945312 22.5)"><text x="10.169998168945312" y="0" font-family="Virgil, Segoe UI Emoji" font-size="36px" fill="#1e1e1e" text-anchor="middle" style="white-space: pre;" direction="ltr" dominant-baseline="text-before-edge">t</text></g></svg>