<svg version="1.1" xmlns="http://www.w3.org/2000/svg" viewBox="0 0 589.3188727463362 302.9440506340263" width="589.3188727463362" height="302.9440506340263">
  <!-- svg-source:excalidraw -->
  
  <defs>
    <style class="style-fonts">
      @font-face {
        font-family: "Virgil";
        src: url("https://excalidraw.com/Virgil.woff2");
      }
      @font-face {
        font-family: "Cascadia";
        src: url("https://excalidraw.com/Cascadia.woff2");
      }
      @font-face {
        font-family: "Assistant";
        src: url("https://excalidraw.com/Assistant-Regular.woff2");
      }
    </style>
    
  </defs>
  <g stroke-linecap="round"><g transform="translate(11.230674737082154 37.90630621240052) rotate(0 67.61051891951183 0)"><path d="M0.44 -0.52 C22.8 -0.42, 112.43 0.64, 134.82 0.79 M-0.78 1.82 C21.32 1.57, 111.23 -0.31, 133.67 -0.92" stroke="#1e1e1e" stroke-width="2" fill="none"></path></g></g><mask></mask><g transform="translate(55.40346508675702 10) rotate(0 23.4375 12)"><text x="23.4375" y="0" font-family="Cascadia, Segoe UI Emoji" font-size="20px" fill="#1e1e1e" text-anchor="middle" style="white-space: pre;" direction="ltr" dominant-baseline="text-before-edge">W(0)</text></g><g stroke-linecap="round"><g transform="translate(171.1767971537247 97.9130641772299) rotate(0 37.357412215644445 0)"><path d="M-0.41 0.35 C12.06 0.31, 62.03 0.6, 74.38 0.51 M1.58 -0.51 C13.89 -0.98, 60.85 -1.6, 73.25 -1.35" stroke="#1e1e1e" stroke-width="2" fill="none"></path></g></g><mask></mask><g transform="translate(185.51297445493765 69.71561006741285) rotate(0 23.4375 12)"><text x="23.4375" y="0" font-family="Cascadia, Segoe UI Emoji" font-size="20px" fill="#1e1e1e" text-anchor="middle" style="white-space: pre;" direction="ltr" dominant-baseline="text-before-edge">R(0)</text></g><g stroke-linecap="round"><g transform="translate(11.050025703385472 291.7678107410675) rotate(0 280.14605431125324 0)"><path d="M-1.05 -0.19 C92.35 -0.08, 466.49 1.21, 560.06 1.18 M0.6 -1.34 C93.85 -1.57, 465.82 -0.68, 558.98 -0.33" stroke="#1e1e1e" stroke-width="2" fill="none"></path></g><g transform="translate(11.050025703385472 291.7678107410675) rotate(0 280.14605431125324 0)"><path d="M535.47 8.15 C541.5 5.66, 550.18 3.79, 558.98 -0.33 M535.47 8.15 C541.11 5.79, 548.22 3.82, 558.98 -0.33" stroke="#1e1e1e" stroke-width="2" fill="none"></path></g><g transform="translate(11.050025703385472 291.7678107410675) rotate(0 280.14605431125324 0)"><path d="M535.51 -8.95 C541.61 -6.79, 550.27 -4.01, 558.98 -0.33 M535.51 -8.95 C541 -6.73, 548.1 -4.11, 558.98 -0.33" stroke="#1e1e1e" stroke-width="2" fill="none"></path></g></g><mask></mask><g transform="translate(561.7340409226399 249.7777151918708) rotate(0 8.792415911848138 19.452251094859093)"><text x="8.792415911848067" y="0" font-family="Virgil, Segoe UI Emoji" font-size="31.12360175177456px" fill="#1e1e1e" text-anchor="middle" style="white-space: pre;" direction="ltr" dominant-baseline="text-before-edge">t</text></g><g stroke-linecap="round"><g transform="translate(256.73062124021635 142.97099926581723) rotate(0 37.357412215644445 0)"><path d="M0.03 -0.38 C12.35 -0.58, 61.37 -0.06, 73.68 -0.02 M-1.42 -1.63 C11.29 -1.12, 62.89 1.05, 75.84 1.51" stroke="#1e1e1e" stroke-width="2" fill="none"></path></g></g><mask></mask><g transform="translate(270.521448541429 114.26407315599954) rotate(0 23.4375 12)"><text x="23.4375" y="0" font-family="Cascadia, Segoe UI Emoji" font-size="20px" fill="#1e1e1e" text-anchor="middle" style="white-space: pre;" direction="ltr" dominant-baseline="text-before-edge">R(0)</text></g><g stroke-linecap="round"><g transform="translate(290.98653581351573 37.90630647878152) rotate(0 67.61051891951183 0)"><path d="M-0.88 -0.11 C21.84 -0.07, 112.54 0.19, 135.3 0.26 M0.86 -1.22 C23.52 -1.55, 112.01 -2.22, 134.4 -1.73" stroke="#1e1e1e" stroke-width="2" fill="none"></path></g></g><mask></mask><g transform="translate(335.1593261631897 10.000000266380994) rotate(0 23.4375 12)"><text x="23.4375" y="0" font-family="Cascadia, Segoe UI Emoji" font-size="20px" fill="#1e1e1e" text-anchor="middle" style="white-space: pre;" direction="ltr" dominant-baseline="text-before-edge">W(1)</text></g><g stroke-linecap="round"><g transform="translate(359.71742767916385 187.5565678720227) rotate(0 37.357412215644445 0)"><path d="M0.48 0.26 C12.74 0.32, 61.13 0.5, 73.63 0.64 M-0.72 -0.66 C11.89 -0.96, 63.13 -1.14, 75.77 -1.14" stroke="#1e1e1e" stroke-width="2" fill="none"></path></g></g><mask></mask><g transform="translate(373.5082549803765 158.849641762205) rotate(0 23.4375 12)"><text x="23.4375" y="0" font-family="Cascadia, Segoe UI Emoji" font-size="20px" fill="#1e1e1e" text-anchor="middle" style="white-space: pre;" direction="ltr" dominant-baseline="text-before-edge">R(0)</text></g><g stroke-linecap="round"><g transform="translate(459.7071469678194 229.73305880350017) rotate(0 37.357412215644445 0)"><path d="M0.75 1.09 C13.35 1.17, 62.26 1.33, 74.54 1.13 M-0.32 0.61 C12.2 0.33, 61.19 -0.49, 73.49 -0.41" stroke="#1e1e1e" stroke-width="2" fill="none"></path></g></g><mask></mask><g transform="translate(473.49797426903206 201.02613269368248) rotate(0 23.4375 12)"><text x="23.4375" y="0" font-family="Cascadia, Segoe UI Emoji" font-size="20px" fill="#1e1e1e" text-anchor="middle" style="white-space: pre;" direction="ltr" dominant-baseline="text-before-edge">R(0)</text></g></svg>