<svg version="1.1" xmlns="http://www.w3.org/2000/svg" viewBox="0 0 381.5839580796205 218.08466638551545" width="381.5839580796205" height="218.08466638551545">
  <!-- svg-source:excalidraw -->
  
  <defs>
    <style class="style-fonts">
      @font-face {
        font-family: "Virgil";
        src: url("https://excalidraw.com/Virgil.woff2");
      }
      @font-face {
        font-family: "Cascadia";
        src: url("https://excalidraw.com/Cascadia.woff2");
      }
      @font-face {
        font-family: "Assistant";
        src: url("https://excalidraw.com/Assistant-Regular.woff2");
      }
    </style>
    
  </defs>
  <g stroke-linecap="round" transform="translate(10 10.000000000001819) rotate(0 51.440382513036866 51.440382513036866)"><path d="M25.72 0 C40.65 3.13, 52.84 2.44, 77.16 0 C93.99 -2.44, 99.47 12.1, 102.88 25.72 C105.32 37.95, 105.15 58.27, 102.88 77.16 C104.45 93.88, 96.51 101.02, 77.16 102.88 C65.89 105.67, 52.31 99.48, 25.72 102.88 C10 102.62, 1.98 93.68, 0 77.16 C1.73 59.74, -3.1 47.96, 0 25.72 C-1.07 10.09, 7.76 -3.24, 25.72 0" stroke="none" stroke-width="0" fill="#a5d8ff"></path><path d="M25.72 0 C41.29 1.84, 56.96 -0.23, 77.16 0 M25.72 0 C38.03 0.43, 51.22 0.6, 77.16 0 M77.16 0 C94.33 -1.87, 102.7 9.72, 102.88 25.72 M77.16 0 C92.37 -0.82, 100.76 7.86, 102.88 25.72 M102.88 25.72 C103.68 36.75, 102.42 51.86, 102.88 77.16 M102.88 25.72 C102.14 36.5, 101.74 49.89, 102.88 77.16 M102.88 77.16 C101.61 95.92, 94.26 102, 77.16 102.88 M102.88 77.16 C104.99 94.97, 93.59 104.44, 77.16 102.88 M77.16 102.88 C59.48 103.89, 41.3 104.93, 25.72 102.88 M77.16 102.88 C65.32 103.16, 50.93 102.97, 25.72 102.88 M25.72 102.88 C6.77 102.91, -0.7 95.35, 0 77.16 M25.72 102.88 C7.11 100.67, 1.6 92.61, 0 77.16 M0 77.16 C1.22 59.81, 2.19 42.75, 0 25.72 M0 77.16 C-0.07 60.48, -0.9 45.04, 0 25.72 M0 25.72 C-1.16 7.98, 7.51 -0.08, 25.72 0 M0 25.72 C2.19 8.17, 6.44 -0.71, 25.72 0" stroke="#1971c2" stroke-width="2" fill="none"></path></g><g transform="translate(16.542298821037548 42.24038267995911) rotate(0 28.124999999999773 19.200000000000045)"><text x="0" y="15.45" font-family="Cascadia, Segoe UI Emoji" font-size="16px" fill="#1e1e1e" text-anchor="start" style="white-space: pre;" direction="ltr" dominant-baseline="alphabetic">IN: </text><text x="0" y="34.65" font-family="Cascadia, Segoe UI Emoji" font-size="16px" fill="#1e1e1e" text-anchor="start" style="white-space: pre;" direction="ltr" dominant-baseline="alphabetic">PEND: </text></g><g transform="translate(51.34467938803755 15.000000000001819) rotate(0 10.095703124999773 10.342057796053723)"><text x="10.095703125" y="16.644249265523875" font-family="Cascadia, Segoe UI Emoji" font-size="17.236762993422786px" fill="#1971c2" text-anchor="middle" style="white-space: pre;" direction="ltr" dominant-baseline="alphabetic">P1</text></g><g stroke-linecap="round" transform="translate(139.35159652677385 10) rotate(0 51.44038251303709 51.440382513036866)"><path d="M25.72 0 C41.49 4.15, 63.74 -0.78, 77.16 0 C93.1 2.8, 100.19 11.21, 102.88 25.72 C105.48 43.15, 102.38 64.19, 102.88 77.16 C99.85 97.18, 97.88 106.31, 77.16 102.88 C67.45 102.19, 52.89 105.7, 25.72 102.88 C7.61 105.35, -3.27 91.95, 0 77.16 C-0.54 59.78, -0.79 50.7, 0 25.72 C-0.76 10.6, 6.81 -0.46, 25.72 0" stroke="none" stroke-width="0" fill="#ffc9c9"></path><path d="M25.72 0 C39.2 -0.17, 55.93 1.22, 77.16 0 M25.72 0 C42 1.05, 57.61 0.12, 77.16 0 M77.16 0 C92.46 -0.62, 101.67 6.75, 102.88 25.72 M77.16 0 C92.64 1.45, 101.39 8.58, 102.88 25.72 M102.88 25.72 C101.01 44.4, 100.86 62.87, 102.88 77.16 M102.88 25.72 C102.53 45.73, 103.47 66.91, 102.88 77.16 M102.88 77.16 C102.26 95.66, 95.38 103.96, 77.16 102.88 M102.88 77.16 C104 94.89, 95.18 103.46, 77.16 102.88 M77.16 102.88 C58.86 104.55, 36.71 101.31, 25.72 102.88 M77.16 102.88 C63.23 103.41, 49.35 101.93, 25.72 102.88 M25.72 102.88 C9.97 101.41, 0.4 92.61, 0 77.16 M25.72 102.88 C7.51 103.78, -1.04 96.33, 0 77.16 M0 77.16 C-0.08 65.34, -0.73 52.14, 0 25.72 M0 77.16 C-0.23 58.62, 1.25 39.99, 0 25.72 M0 25.72 C-1.85 7.96, 7.49 -1.22, 25.72 0 M0 25.72 C0.48 10.03, 10.7 1.17, 25.72 0" stroke="#e03131" stroke-width="2" fill="none"></path></g><g transform="translate(145.8938953478114 42.24038267995729) rotate(0 28.125 19.200000000000045)"><text x="0" y="15.45" font-family="Cascadia, Segoe UI Emoji" font-size="16px" fill="#1e1e1e" text-anchor="start" style="white-space: pre;" direction="ltr" dominant-baseline="alphabetic">IN: </text><text x="0" y="34.65" font-family="Cascadia, Segoe UI Emoji" font-size="16px" fill="#1e1e1e" text-anchor="start" style="white-space: pre;" direction="ltr" dominant-baseline="alphabetic">PEND: </text></g><g stroke-linecap="round" transform="translate(268.70319305354633 10.000000000001819) rotate(0 51.44038251303709 51.440382513036866)"><path d="M25.72 0 C44.98 3.16, 63.96 2.99, 77.16 0 C97.01 1.57, 102.46 10.77, 102.88 25.72 C99.62 41.36, 106.22 54.69, 102.88 77.16 C100.26 95.74, 94.05 104.86, 77.16 102.88 C61.66 106.1, 44.82 101.27, 25.72 102.88 C7.67 101.81, 1.52 93.5, 0 77.16 C-0.49 68.38, -1.49 55.09, 0 25.72 C-1.55 9.2, 11.88 -0.65, 25.72 0" stroke="none" stroke-width="0" fill="#b2f2bb"></path><path d="M25.72 0 C40.59 -0.24, 52.86 -0.45, 77.16 0 M25.72 0 C43.17 -0.13, 61.86 -0.73, 77.16 0 M77.16 0 C92.86 1.26, 101.58 8.58, 102.88 25.72 M77.16 0 C96.02 -1.72, 100.86 6.86, 102.88 25.72 M102.88 25.72 C104.41 38.37, 104.08 53.51, 102.88 77.16 M102.88 25.72 C103.04 39.57, 103.89 52.61, 102.88 77.16 M102.88 77.16 C103.85 94.81, 95.07 103.39, 77.16 102.88 M102.88 77.16 C104.95 93.12, 93.38 104.91, 77.16 102.88 M77.16 102.88 C56.19 100.73, 36.68 101.83, 25.72 102.88 M77.16 102.88 C59.76 101.65, 41.15 101.54, 25.72 102.88 M25.72 102.88 C7.65 103.66, -0.9 96.06, 0 77.16 M25.72 102.88 C6.83 103.3, -0.34 94.33, 0 77.16 M0 77.16 C1.36 61.3, -0.43 46.69, 0 25.72 M0 77.16 C-1.42 61.62, -1.03 46.08, 0 25.72 M0 25.72 C0.42 9.84, 10.42 1.01, 25.72 0 M0 25.72 C1.68 8.37, 7.01 -2.18, 25.72 0" stroke="#2f9e44" stroke-width="2" fill="none"></path></g><g transform="translate(275.2454918745839 42.24038267995911) rotate(0 28.125 19.200000000000045)"><text x="0" y="15.45" font-family="Cascadia, Segoe UI Emoji" font-size="16px" fill="#1e1e1e" text-anchor="start" style="white-space: pre;" direction="ltr" dominant-baseline="alphabetic">IN: </text><text x="0" y="34.65" font-family="Cascadia, Segoe UI Emoji" font-size="16px" fill="#1e1e1e" text-anchor="start" style="white-space: pre;" direction="ltr" dominant-baseline="alphabetic">PEND: </text></g><g stroke-linecap="round"><g transform="translate(13.457303009489806 150.37640717282375) rotate(0 178.31141453301484 0)"><path d="M-0.11 0.69 C59.16 0.8, 296.34 -0.25, 355.61 -0.43 M-1.63 0 C58 0.38, 297.88 0.76, 357.79 0.88" stroke="#1e1e1e" stroke-width="2" fill="none"></path></g></g><mask></mask><g transform="translate(135.2656124414857 126.3211107560237) rotate(0 55.5263671875 10.342057796053723)"><text x="55.5263671875" y="16.644249265523875" font-family="Cascadia, Segoe UI Emoji" font-size="17.236762993422786px" fill="#1e1e1e" text-anchor="middle" style="white-space: pre;" direction="ltr" dominant-baseline="alphabetic">Ordem total</text></g><g transform="translate(310.04787244158206 15.000000000001819) rotate(0 10.095703125 10.342057796053723)"><text x="10.095703125" y="16.644249265523875" font-family="Cascadia, Segoe UI Emoji" font-size="17.236762993422786px" fill="#2f9e44" text-anchor="middle" style="white-space: pre;" direction="ltr" dominant-baseline="alphabetic">P3</text></g><g transform="translate(180.6962759148114 15) rotate(0 10.095703125 10.342057796053723)"><text x="10.095703125" y="16.644249265523875" font-family="Cascadia, Segoe UI Emoji" font-size="17.236762993422786px" fill="#e03131" text-anchor="middle" style="white-space: pre;" direction="ltr" dominant-baseline="alphabetic">P2</text></g><g transform="translate(36.20112574918585 159.38640478155776) rotate(0 25.239257812500227 10.342057796053723)"><text x="25.2392578125" y="16.644249265523875" font-family="Cascadia, Segoe UI Emoji" font-size="17.236762993422786px" fill="#1971c2" text-anchor="middle" style="white-space: pre;" direction="ltr" dominant-baseline="alphabetic">A,2,F</text></g><g transform="translate(165.55272227595697 159.38640478155776) rotate(0 25.2392578125 10.342057796053723)"><text x="25.2392578125" y="16.644249265523875" font-family="Cascadia, Segoe UI Emoji" font-size="17.236762993422786px" fill="#e03131" text-anchor="middle" style="white-space: pre;" direction="ltr" dominant-baseline="alphabetic">B,1,T</text></g><g transform="translate(165.9955670361901 187.400550793408) rotate(0 25.2392578125 10.342057796053723)"><text x="25.2392578125" y="16.644249265523875" font-family="Cascadia, Segoe UI Emoji" font-size="17.236762993422786px" fill="#e03131" text-anchor="middle" style="white-space: pre;" direction="ltr" dominant-baseline="alphabetic">A,2,F</text></g><g transform="translate(294.90431880272945 159.38640478155776) rotate(0 25.2392578125 10.342057796053723)"><text x="25.2392578125" y="16.644249265523875" font-family="Cascadia, Segoe UI Emoji" font-size="17.236762993422786px" fill="#2f9e44" text-anchor="middle" style="white-space: pre;" direction="ltr" dominant-baseline="alphabetic">C,1,T</text></g></svg>