<svg version="1.1" xmlns="http://www.w3.org/2000/svg" viewBox="0 0 794.772805929384 458.6800487933972" width="794.772805929384" height="458.6800487933972">
  <!-- svg-source:excalidraw -->
  
  <defs>
    <style class="style-fonts">
      @font-face {
        font-family: "Virgil";
        src: url("https://excalidraw.com/Virgil.woff2");
      }
      @font-face {
        font-family: "Cascadia";
        src: url("https://excalidraw.com/Cascadia.woff2");
      }
      @font-face {
        font-family: "Assistant";
        src: url("https://excalidraw.com/Assistant-Regular.woff2");
      }
    </style>
    
  </defs>
  <g stroke-linecap="round"><g transform="translate(90.75383211147073 88.66510273501831) rotate(0 0 175.773482285518)"><path d="M0.17 0.88 C0.18 59.69, 0.8 293.76, 0.87 352.3 M-1.2 0.3 C-1.35 58.82, 0.16 292.28, 0.37 350.57" stroke="#1e1e1e" stroke-width="2" fill="none"></path></g></g><mask></mask><g stroke-linecap="round"><g transform="translate(253.78467411147085 89.41721773501826) rotate(0 0 178.3853871902763)"><path d="M0.36 1.06 C0.45 60.46, -0.29 296.75, -0.22 356.13 M-0.92 0.57 C-0.93 60.15, -1.5 298.2, -1.28 357.33" stroke="#1e1e1e" stroke-width="2" fill="none"></path></g></g><mask></mask><g stroke-linecap="round"><g transform="translate(416.69267211147053 88.96748773501832) rotate(0 0 179.64209365822146)"><path d="M0.91 0.42 C0.98 60.06, -0.33 298.76, -0.5 358.56 M-0.07 -0.4 C-0.12 59.31, -1.56 299.57, -1.71 359.71" stroke="#1e1e1e" stroke-width="2" fill="none"></path></g></g><mask></mask><g transform="translate(74.49613313585724 39.88374435652156) rotate(0 17.1240234375 16.099999999999994)"><text x="0" y="25.760546874999996" font-family="Helvetica, Segoe UI Emoji" font-size="28px" fill="#1971c2" text-anchor="start" style="white-space: pre;" direction="ltr" dominant-baseline="alphabetic">P1</text></g><g transform="translate(236.1750011358563 39.88374435652162) rotate(0 17.1240234375 16.099999999999994)"><text x="0" y="25.760546874999996" font-family="Helvetica, Segoe UI Emoji" font-size="28px" fill="#1e1e1e" text-anchor="start" style="white-space: pre;" direction="ltr" dominant-baseline="alphabetic">P2</text></g><g transform="translate(399.1677501358563 39.88374435652162) rotate(0 17.1240234375 16.099999999999994)"><text x="0" y="25.760546874999996" font-family="Helvetica, Segoe UI Emoji" font-size="28px" fill="#1e1e1e" text-anchor="start" style="white-space: pre;" direction="ltr" dominant-baseline="alphabetic">P3</text></g><g transform="translate(10 136.40363558357672) rotate(0 35.576171875 11.5)"><text x="0" y="18.400390625" font-family="Helvetica, Segoe UI Emoji" font-size="20px" fill="#1971c2" text-anchor="start" style="white-space: pre;" direction="ltr" dominant-baseline="alphabetic">Prepare</text></g><g transform="translate(52.25585938561744 297.9595125486279) rotate(0 14.4482421875 11.5)"><text x="0" y="18.400390625" font-family="Helvetica, Segoe UI Emoji" font-size="20px" fill="#6741d9" text-anchor="start" style="white-space: pre;" direction="ltr" dominant-baseline="alphabetic">OK</text></g><g transform="translate(52.25585938561744 213.86744954862786) rotate(0 14.4482421875 11.5)"><text x="0" y="18.400390625" font-family="Helvetica, Segoe UI Emoji" font-size="20px" fill="#6741d9" text-anchor="start" style="white-space: pre;" direction="ltr" dominant-baseline="alphabetic">OK</text></g><g transform="translate(12.26562500000091 339.73746658357675) rotate(0 34.443359375 11.5)"><text x="0" y="18.400390625" font-family="Helvetica, Segoe UI Emoji" font-size="20px" fill="#1971c2" text-anchor="start" style="white-space: pre;" direction="ltr" dominant-baseline="alphabetic">Commit</text></g><g stroke-linecap="round"><g transform="translate(89.43429304661367 148.61743170913996) rotate(0 79.35079105714021 10.092863774811747)"><path d="M1.11 -0.71 C27.64 2.75, 133.78 17.59, 159.85 20.97 M0.24 1.53 C26.65 4.64, 132.91 16.09, 159.51 19.26" stroke="#1971c2" stroke-width="2" fill="none"></path></g><g transform="translate(89.43429304661367 148.61743170913996) rotate(0 79.35079105714021 10.092863774811747)"><path d="M135.21 25.13 C142.69 24.72, 153.87 18.79, 159.51 19.26 M135.21 25.13 C141.16 22.91, 146.87 22.25, 159.51 19.26" stroke="#1971c2" stroke-width="2" fill="none"></path></g><g transform="translate(89.43429304661367 148.61743170913996) rotate(0 79.35079105714021 10.092863774811747)"><path d="M137.12 8.13 C143.95 13.82, 154.44 13.95, 159.51 19.26 M137.12 8.13 C142.77 10.14, 148 13.69, 159.51 19.26" stroke="#1971c2" stroke-width="2" fill="none"></path></g></g><mask></mask><g stroke-linecap="round"><g transform="translate(91.1491154059322 158.79097128844307) rotate(0 162.71658792935796 25.19182153478357)"><path d="M-0.32 -0.92 C53.87 7.39, 270.06 42.71, 324.39 51.06 M1.72 1.21 C56.33 9.68, 272.66 41.18, 326.56 49.29" stroke="#1971c2" stroke-width="2" fill="none"></path></g><g transform="translate(91.1491154059322 158.79097128844307) rotate(0 162.71658792935796 25.19182153478357)"><path d="M302.07 54.32 C306.29 51.45, 314.76 52.43, 326.56 49.29 M302.07 54.32 C307.79 54.19, 311.86 51.65, 326.56 49.29" stroke="#1971c2" stroke-width="2" fill="none"></path></g><g transform="translate(91.1491154059322 158.79097128844307) rotate(0 162.71658792935796 25.19182153478357)"><path d="M304.57 37.4 C308.36 38.54, 316.24 43.54, 326.56 49.29 M304.57 37.4 C309.84 40.64, 313.41 41.5, 326.56 49.29" stroke="#1971c2" stroke-width="2" fill="none"></path></g></g><mask></mask><g stroke-linecap="round" transform="translate(246.1590489970522 163.29824970353218) rotate(0 6.290997091529789 6.290997091530016)"><path d="M7.06 -0.21 C8.35 -0.2, 10.31 1.08, 11.14 2.03 C11.97 2.98, 11.99 4.16, 12.05 5.5 C12.11 6.85, 12.12 8.93, 11.51 10.12 C10.89 11.31, 9.68 12.39, 8.38 12.65 C7.07 12.91, 4.98 12.36, 3.7 11.68 C2.42 11.01, 1.29 9.8, 0.69 8.62 C0.09 7.44, -0.17 5.81, 0.09 4.6 C0.34 3.38, 0.99 2.07, 2.2 1.34 C3.41 0.6, 6.46 0.38, 7.35 0.18 C8.23 -0.02, 7.64 0.04, 7.5 0.13 M7.53 -0.38 C8.71 -0.28, 9.84 0.67, 10.72 1.92 C11.6 3.17, 12.67 5.58, 12.81 7.13 C12.95 8.67, 12.47 10.19, 11.56 11.19 C10.65 12.2, 8.68 13.04, 7.34 13.14 C6 13.24, 4.81 12.75, 3.5 11.8 C2.2 10.85, 0.15 8.83, -0.47 7.42 C-1.08 6.01, -0.94 4.51, -0.18 3.33 C0.58 2.15, 2.69 0.78, 4.09 0.35 C5.48 -0.08, 7.7 0.72, 8.18 0.74 C8.67 0.75, 7.06 0.46, 7.03 0.44" stroke="none" stroke-width="0" fill="#d0bfff"></path><path d="M6.17 0.24 C7.53 0.18, 9.26 0.25, 10.34 1.11 C11.43 1.96, 12.4 3.93, 12.67 5.37 C12.95 6.82, 12.63 8.62, 11.98 9.76 C11.32 10.9, 10.03 11.88, 8.74 12.23 C7.46 12.59, 5.62 12.42, 4.27 11.9 C2.92 11.38, 1.34 10.19, 0.66 9.12 C-0.02 8.05, -0.09 6.72, 0.18 5.46 C0.46 4.2, 1.16 2.43, 2.3 1.56 C3.44 0.69, 6.34 0.54, 7.02 0.22 C7.71 -0.09, 6.41 -0.37, 6.4 -0.32 M7.53 -0.3 C8.82 -0.16, 10.44 1.59, 11.34 2.65 C12.25 3.72, 13.1 4.75, 12.99 6.08 C12.87 7.41, 11.6 9.7, 10.66 10.64 C9.73 11.58, 8.5 11.62, 7.36 11.72 C6.22 11.83, 4.92 11.73, 3.8 11.26 C2.68 10.79, 1.32 9.89, 0.65 8.9 C-0.02 7.9, -0.46 6.59, -0.2 5.29 C0.05 3.99, 0.99 2.07, 2.19 1.08 C3.39 0.09, 6.23 -0.42, 6.97 -0.63 C7.72 -0.84, 6.65 -0.44, 6.65 -0.17" stroke="#6741d9" stroke-width="2" fill="none"></path></g><g stroke-linecap="round" transform="translate(411.31465740998374 203.5605005315116) rotate(0 6.290997091529789 6.290997091530016)"><path d="M7.18 -0.24 C8.48 -0.24, 9.45 0.74, 10.38 1.8 C11.31 2.85, 12.6 4.65, 12.75 6.07 C12.9 7.49, 12.01 9.17, 11.28 10.29 C10.55 11.41, 9.73 12.56, 8.38 12.79 C7.03 13.03, 4.46 12.29, 3.17 11.69 C1.89 11.09, 1.14 10.35, 0.68 9.21 C0.21 8.07, 0.07 6.14, 0.38 4.86 C0.69 3.58, 1.45 2.37, 2.53 1.55 C3.62 0.73, 6.09 0.08, 6.88 -0.07 C7.67 -0.22, 7.22 0.54, 7.28 0.65 M5.58 -0.55 C6.9 -0.66, 9.13 0.83, 10.29 1.71 C11.45 2.58, 12.18 3.6, 12.54 4.71 C12.89 5.82, 13.07 7.29, 12.44 8.38 C11.8 9.47, 10.07 10.62, 8.71 11.26 C7.36 11.89, 5.49 12.48, 4.31 12.18 C3.13 11.88, 2.38 10.45, 1.63 9.46 C0.87 8.46, -0.23 7.39, -0.22 6.19 C-0.22 5, 0.64 3.28, 1.64 2.29 C2.64 1.3, 5.06 0.55, 5.78 0.26 C6.5 -0.03, 5.95 0.48, 5.97 0.52" stroke="none" stroke-width="0" fill="#d0bfff"></path><path d="M6.62 -0.4 C7.92 -0.37, 9.69 1.16, 10.69 2.07 C11.68 2.98, 12.43 3.85, 12.6 5.07 C12.77 6.29, 12.44 8.25, 11.72 9.41 C11.01 10.57, 9.64 11.57, 8.32 12.04 C7 12.51, 5.02 12.76, 3.79 12.24 C2.56 11.72, 1.49 10.16, 0.95 8.93 C0.4 7.71, 0.26 6.24, 0.51 4.91 C0.75 3.58, 1.4 1.74, 2.43 0.96 C3.47 0.18, 5.86 0.3, 6.71 0.24 C7.57 0.17, 7.49 0.56, 7.57 0.57 M7.35 -0.21 C8.53 -0.13, 9.73 0.57, 10.53 1.65 C11.34 2.73, 12.17 4.7, 12.18 6.29 C12.18 7.88, 11.51 10.22, 10.56 11.18 C9.61 12.14, 7.82 11.92, 6.49 12.04 C5.15 12.16, 3.68 12.56, 2.56 11.9 C1.45 11.23, 0.09 9.27, -0.2 8.05 C-0.5 6.84, 0.16 5.75, 0.8 4.61 C1.44 3.47, 2.52 1.93, 3.62 1.22 C4.72 0.5, 6.63 0.55, 7.39 0.33 C8.15 0.12, 8.26 -0.09, 8.17 -0.09" stroke="#6741d9" stroke-width="2" fill="none"></path></g><g stroke-linecap="round"><g transform="translate(251.81035063964464 175.88024388470615) rotate(0 -80.19861964584061 24.5688616690922)"><path d="M1.09 0.44 C-25.39 8.79, -133.03 41.46, -159.89 49.49 M0.2 -0.37 C-26.3 7.65, -133.76 39.22, -160.58 47.55" stroke="#6741d9" stroke-width="2" fill="none"></path></g><g transform="translate(251.81035063964464 175.88024388470615) rotate(0 -80.19861964584061 24.5688616690922)"><path d="M-140.55 32.59 C-144.13 36.78, -148.53 39.61, -160.58 47.55 M-140.55 32.59 C-144.78 36.7, -150.63 39.88, -160.58 47.55" stroke="#6741d9" stroke-width="2" fill="none"></path></g><g transform="translate(251.81035063964464 175.88024388470615) rotate(0 -80.19861964584061 24.5688616690922)"><path d="M-135.62 48.96 C-140.16 49.73, -145.61 49.09, -160.58 47.55 M-135.62 48.96 C-141.07 48.9, -148.17 47.93, -160.58 47.55" stroke="#6741d9" stroke-width="2" fill="none"></path></g></g><mask></mask><g stroke-linecap="round"><g transform="translate(416.042596899395 216.14249488470614) rotate(0 -162.30061869686642 45.99057641191041)"><path d="M-0.26 -0.89 C-54.69 14.61, -271.31 76.35, -325.5 91.85 M1.8 1.25 C-52.34 17.05, -269.14 77.95, -323.26 93.32" stroke="#6741d9" stroke-width="2" fill="none"></path></g><g transform="translate(416.042596899395 216.14249488470614) rotate(0 -162.30061869686642 45.99057641191041)"><path d="M-302.98 78.7 C-312.46 82.81, -319.05 88.65, -323.26 93.32 M-302.98 78.7 C-308.96 83.96, -315.47 86.88, -323.26 93.32" stroke="#6741d9" stroke-width="2" fill="none"></path></g><g transform="translate(416.042596899395 216.14249488470614) rotate(0 -162.30061869686642 45.99057641191041)"><path d="M-298.33 95.16 C-309.46 92.89, -317.84 92.36, -323.26 93.32 M-298.33 95.16 C-305.63 95.3, -313.58 93.12, -323.26 93.32" stroke="#6741d9" stroke-width="2" fill="none"></path></g></g><mask></mask><g stroke-linecap="round"><g transform="translate(91.93458505977924 351.99806282096597) rotate(0 79.35079105714021 10.092863774811747)"><path d="M0.04 -0.76 C26.53 2.68, 132.85 16.86, 159.16 20.34 M-1.39 1.45 C24.96 5.15, 131.5 18.63, 158.46 21.97" stroke="#1971c2" stroke-width="2" fill="none"></path></g><g transform="translate(91.93458505977924 351.99806282096597) rotate(0 79.35079105714021 10.092863774811747)"><path d="M134.08 27.52 C140.6 26.51, 149.9 22.61, 158.46 21.97 M134.08 27.52 C142.3 26.69, 147.95 24.61, 158.46 21.97" stroke="#1971c2" stroke-width="2" fill="none"></path></g><g transform="translate(91.93458505977924 351.99806282096597) rotate(0 79.35079105714021 10.092863774811747)"><path d="M136.21 10.55 C142 14.95, 150.62 16.46, 158.46 21.97 M136.21 10.55 C143.71 14.78, 148.72 17.75, 158.46 21.97" stroke="#1971c2" stroke-width="2" fill="none"></path></g></g><mask></mask><g stroke-linecap="round"><g transform="translate(91.93458505977924 361.7428968104391) rotate(0 160.76648163860682 25.094227944097327)"><path d="M0.46 0.16 C53.91 8.65, 267.31 41.83, 320.72 50.17 M-0.76 -0.8 C53.07 7.95, 269.58 42.98, 323 51.69" stroke="#1971c2" stroke-width="2" fill="none"></path></g><g transform="translate(91.93458505977924 361.7428968104391) rotate(0 160.76648163860682 25.094227944097327)"><path d="M298.44 56.37 C306.19 53.49, 313.34 52.35, 323 51.69 M298.44 56.37 C305.01 55.16, 313.65 53.64, 323 51.69" stroke="#1971c2" stroke-width="2" fill="none"></path></g><g transform="translate(91.93458505977924 361.7428968104391) rotate(0 160.76648163860682 25.094227944097327)"><path d="M301.18 39.49 C307.99 41.75, 314.31 45.73, 323 51.69 M301.18 39.49 C307.1 43.33, 314.92 46.83, 323 51.69" stroke="#1971c2" stroke-width="2" fill="none"></path></g></g><mask></mask><g stroke-linecap="round" transform="translate(440.0763570111403 165.50207924651124) rotate(0 6.290997091529789 6.290997091530016)"><path d="M5.48 -0.17 C6.76 -0.42, 8.6 0.09, 9.7 0.95 C10.79 1.82, 11.64 3.61, 12.04 5.01 C12.44 6.42, 12.56 8.18, 12.08 9.37 C11.6 10.57, 10.45 11.74, 9.15 12.19 C7.85 12.64, 5.65 12.43, 4.28 12.09 C2.91 11.74, 1.63 11.2, 0.95 10.11 C0.27 9.02, -0.02 6.96, 0.21 5.56 C0.43 4.16, 1.4 2.69, 2.32 1.72 C3.24 0.74, 5.07 0, 5.73 -0.3 C6.38 -0.6, 6.16 -0.19, 6.24 -0.09 M7.33 -0.57 C8.64 -0.4, 10.59 0.92, 11.5 2.01 C12.42 3.1, 12.86 4.62, 12.83 5.96 C12.79 7.29, 12.28 8.92, 11.3 10.02 C10.32 11.12, 8.34 12.17, 6.93 12.55 C5.51 12.94, 3.8 13.04, 2.8 12.32 C1.8 11.6, 1.36 9.68, 0.92 8.24 C0.48 6.81, -0.15 4.99, 0.18 3.69 C0.51 2.4, 1.65 1.2, 2.9 0.49 C4.16 -0.21, 6.95 -0.44, 7.73 -0.54 C8.52 -0.64, 7.65 -0.35, 7.64 -0.11" stroke="none" stroke-width="0" fill="#d0bfff"></path><path d="M6.05 0.25 C7.38 0.13, 9 0.29, 10.1 1.07 C11.21 1.84, 12.39 3.55, 12.66 4.92 C12.93 6.3, 12.42 8.11, 11.74 9.31 C11.05 10.5, 9.77 11.6, 8.55 12.07 C7.33 12.54, 5.76 12.58, 4.43 12.15 C3.09 11.72, 1.29 10.53, 0.57 9.47 C-0.15 8.41, -0.1 7.13, 0.12 5.77 C0.34 4.4, 0.87 2.31, 1.88 1.29 C2.9 0.27, 5.46 -0.16, 6.22 -0.35 C6.98 -0.54, 6.48 0.01, 6.44 0.15 M8.43 0.91 C9.67 1.05, 10.77 1.51, 11.5 2.38 C12.24 3.26, 13.06 4.86, 12.86 6.17 C12.66 7.48, 11.28 9.13, 10.31 10.26 C9.34 11.4, 8.32 12.89, 7.02 12.99 C5.72 13.09, 3.61 11.58, 2.52 10.86 C1.44 10.14, 0.79 9.76, 0.5 8.67 C0.2 7.57, 0.36 5.64, 0.76 4.29 C1.16 2.95, 1.65 1.31, 2.88 0.6 C4.11 -0.11, 7.41 0, 8.13 0.03 C8.85 0.07, 7.2 0.67, 7.2 0.82" stroke="#6741d9" stroke-width="2" fill="none"></path></g><g transform="translate(463.42514967938405 158.74644119386267) rotate(0 160.673828125 23)"><text x="0" y="18.400390625" font-family="Helvetica, Segoe UI Emoji" font-size="20px" fill="#6741d9" text-anchor="start" style="white-space: pre;" direction="ltr" dominant-baseline="alphabetic">guardar logs em disco, garantir</text><text x="0" y="41.400390625" font-family="Helvetica, Segoe UI Emoji" font-size="20px" fill="#6741d9" text-anchor="start" style="white-space: pre;" direction="ltr" dominant-baseline="alphabetic">que os dados estão salvaguardados</text></g><g transform="translate(33.24613272793249 10) rotate(0 58.3740234375 11.5)"><text x="0" y="18.400390625" font-family="Helvetica, Segoe UI Emoji" font-size="20px" fill="#1971c2" text-anchor="start" style="white-space: pre;" direction="ltr" dominant-baseline="alphabetic">Coordenador</text></g></svg>