<svg version="1.1" xmlns="http://www.w3.org/2000/svg" viewBox="0 0 559.724670911377 651.3015798124247" width="559.724670911377" height="651.3015798124247">
  <!-- svg-source:excalidraw -->
  
  <defs>
    <style class="style-fonts">
      @font-face {
        font-family: "Virgil";
        src: url("https://excalidraw.com/Virgil.woff2");
      }
      @font-face {
        font-family: "Cascadia";
        src: url("https://excalidraw.com/Cascadia.woff2");
      }
      @font-face {
        font-family: "Assistant";
        src: url("https://excalidraw.com/Assistant-Regular.woff2");
      }
    </style>
    
  </defs>
  <g transform="translate(88.18779175294094 10) rotate(0 70.51795959472656 17.5)"><text x="0" y="24.528" font-family="Virgil, Segoe UI Emoji" font-size="28px" fill="#1971c2" text-anchor="start" style="white-space: pre;" direction="ltr" dominant-baseline="alphabetic">T1 (prio: 1)</text></g><g transform="translate(278.8894077529412 10) rotate(0 82.86595153808594 17.5)"><text x="0" y="24.528" font-family="Virgil, Segoe UI Emoji" font-size="28px" fill="#e03131" text-anchor="start" style="white-space: pre;" direction="ltr" dominant-baseline="alphabetic">T2 (prio: 2)</text></g><g transform="translate(250.02629812750456 279.1642859427546) rotate(0 141.3439483642578 17.5)"><text x="0" y="24.528" font-family="Virgil, Segoe UI Emoji" font-size="28px" fill="#1971c2" text-anchor="start" style="white-space: pre;" direction="ltr" dominant-baseline="alphabetic">T1 quer lock Lock_A</text></g><g stroke-linecap="round"><g transform="translate(243.60845535056433 279.1642854987271) rotate(0 -8.77010958286428 -27.062631787434896)"><path d="M-0.94 -0.24 C-3.78 -9.17, -15.43 -45.43, -18.17 -54.37 M0.76 -1.41 C-1.58 -10.1, -12.66 -44.46, -15.79 -52.96" stroke="#1e1e1e" stroke-width="2" fill="none"></path></g><g transform="translate(243.60845535056433 279.1642854987271) rotate(0 -8.77010958286428 -27.062631787434896)"><path d="M-0.12 -33.48 C-3.62 -38.66, -6.85 -41.31, -15.79 -52.96 M-0.12 -33.48 C-5.25 -39.7, -9.42 -46.5, -15.79 -52.96" stroke="#1e1e1e" stroke-width="2" fill="none"></path></g><g transform="translate(243.60845535056433 279.1642854987271) rotate(0 -8.77010958286428 -27.062631787434896)"><path d="M-16.3 -27.97 C-16.44 -34.15, -16.34 -37.93, -15.79 -52.96 M-16.3 -27.97 C-16.17 -35.86, -15.13 -44.45, -15.79 -52.96" stroke="#1e1e1e" stroke-width="2" fill="none"></path></g></g><mask></mask><g stroke-linecap="round"><g transform="translate(9.928508756589508 368.09725119588376) rotate(0 268.9608984430888 0)"><path d="M1 0.41 C90.72 0.52, 449.37 0.99, 538.72 0.84 M0.07 -0.43 C89.67 -0.66, 448.27 -1.01, 538.2 -0.84" stroke="#1e1e1e" stroke-width="2" fill="none"></path></g></g><mask></mask><g transform="translate(254.68878223950196 606.3015798124247) rotate(0 147.5179443359375 17.5)"><text x="0" y="24.528" font-family="Virgil, Segoe UI Emoji" font-size="28px" fill="#e03131" text-anchor="start" style="white-space: pre;" direction="ltr" dominant-baseline="alphabetic">T2 quer lock Lock_A</text></g><g stroke-linecap="round"><g transform="translate(248.36519190569015 605.2057188725041) rotate(0 -18.0238027954656 -44.753346137230835)"><path d="M0.73 0.73 C-5.25 -14.57, -30.21 -75.55, -36.48 -90.67 M-0.34 0.07 C-6.47 -14.62, -31.97 -74.92, -37.65 -89.74" stroke="#1e1e1e" stroke-width="2" fill="none"></path></g><g transform="translate(248.36519190569015 605.2057188725041) rotate(0 -18.0238027954656 -44.753346137230835)"><path d="M-20.89 -71.19 C-24.06 -76.47, -31.42 -81.82, -37.65 -89.74 M-20.89 -71.19 C-26.07 -76.66, -30.1 -81.83, -37.65 -89.74" stroke="#1e1e1e" stroke-width="2" fill="none"></path></g><g transform="translate(248.36519190569015 605.2057188725041) rotate(0 -18.0238027954656 -44.753346137230835)"><path d="M-36.73 -64.75 C-35.99 -71.74, -39.37 -78.71, -37.65 -89.74 M-36.73 -64.75 C-37.69 -72.05, -37.53 -78.93, -37.65 -89.74" stroke="#1e1e1e" stroke-width="2" fill="none"></path></g></g><mask></mask><g stroke-linecap="round" transform="translate(83.52530706402376 94.88051281160341) rotate(0 89.72056526654706 75.18044479030505)"><path d="M32 0 C60.09 0.27, 92.56 1.23, 147.44 0 M32 0 C55.09 -0.34, 79.29 -1.27, 147.44 0 M147.44 0 C170.74 0.77, 180.66 11.96, 179.44 32 M147.44 0 C169.97 -1.09, 181.07 9.54, 179.44 32 M179.44 32 C179.73 66.48, 182.08 99.16, 179.44 118.36 M179.44 32 C179.61 57.94, 179.47 83.28, 179.44 118.36 M179.44 118.36 C179.6 138.11, 169.36 150, 147.44 150.36 M179.44 118.36 C177.57 141.92, 170.45 151.18, 147.44 150.36 M147.44 150.36 C118.31 152.27, 90.99 151.47, 32 150.36 M147.44 150.36 C107.34 149.54, 67.67 150.15, 32 150.36 M32 150.36 C9.45 151.42, 0.59 140.58, 0 118.36 M32 150.36 C9.25 149.01, 2.04 141.1, 0 118.36 M0 118.36 C2.43 95.79, 0.32 76.17, 0 32 M0 118.36 C-1.02 95.16, -0.77 72.41, 0 32 M0 32 C-0.43 12.32, 11.1 1.62, 32 0 M0 32 C-1.02 11.6, 9.66 -1.26, 32 0" stroke="#1e1e1e" stroke-width="2" fill="none"></path></g><g transform="translate(124.02712233057082 99.88051281160341) rotate(0 49.21875 16.80000000000001)"><text x="49.21875" y="27.0375" font-family="Cascadia, Segoe UI Emoji" font-size="28px" fill="#1e1e1e" text-anchor="middle" style="white-space: pre;" direction="ltr" dominant-baseline="alphabetic">Lock_A</text></g><g transform="translate(110.44777150764912 151.64412260190835) rotate(0 49.21875 16.80000000000001)"><text x="0" y="27.0375" font-family="Cascadia, Segoe UI Emoji" font-size="28px" fill="#e03131" text-anchor="start" style="white-space: pre;" direction="ltr" dominant-baseline="alphabetic">IN: T2</text></g><g transform="translate(110.44777113661348 185.3072146969484) rotate(0 65.625 16.80000000000001)"><text x="0" y="27.0375" font-family="Cascadia, Segoe UI Emoji" font-size="28px" fill="#1971c2" text-anchor="start" style="white-space: pre;" direction="ltr" dominant-baseline="alphabetic">Pend: T1</text></g><g stroke-linecap="round" transform="translate(300.37617616972966 94.88051337754132) rotate(0 89.72056526654706 75.18044479030507)"><path d="M32 0 C66.39 -1.8, 104.62 -0.12, 147.44 0 M32 0 C57.38 -0.4, 84.84 -0.18, 147.44 0 M147.44 0 C167.4 -0.92, 178.66 11.35, 179.44 32 M147.44 0 C169.79 -0.02, 179.7 11.3, 179.44 32 M179.44 32 C178.05 59.24, 179.97 89.71, 179.44 118.36 M179.44 32 C180.55 58.43, 179.04 84.16, 179.44 118.36 M179.44 118.36 C181.18 138.57, 168.62 150.52, 147.44 150.36 M179.44 118.36 C179.8 139.26, 167.93 148.55, 147.44 150.36 M147.44 150.36 C119.11 148.33, 88.91 148.28, 32 150.36 M147.44 150.36 C113.95 151.03, 79.3 151.8, 32 150.36 M32 150.36 C9.4 148.57, 0.82 141.13, 0 118.36 M32 150.36 C12.36 149.71, -1.38 139.12, 0 118.36 M0 118.36 C1.8 100.67, 1.57 80.82, 0 32 M0 118.36 C0.72 97.25, 1.65 74.96, 0 32 M0 32 C-0.32 11.32, 11.09 -1.8, 32 0 M0 32 C-0.36 9.98, 12.93 0.3, 32 0" stroke="#1e1e1e" stroke-width="2" fill="none"></path></g><g transform="translate(340.8779914362767 99.88051337754138) rotate(0 49.21875 16.80000000000001)"><text x="49.21875" y="27.0375" font-family="Cascadia, Segoe UI Emoji" font-size="28px" fill="#1e1e1e" text-anchor="middle" style="white-space: pre;" direction="ltr" dominant-baseline="alphabetic">Lock_B</text></g><g transform="translate(327.298640613355 151.6441231678462) rotate(0 49.21875 16.80000000000001)"><text x="0" y="27.0375" font-family="Cascadia, Segoe UI Emoji" font-size="28px" fill="#1971c2" text-anchor="start" style="white-space: pre;" direction="ltr" dominant-baseline="alphabetic">IN: T1</text></g><g transform="translate(327.2986402423194 185.30721526288636) rotate(0 41.015625 16.80000000000001)"><text x="0" y="27.0375" font-family="Cascadia, Segoe UI Emoji" font-size="28px" fill="#1e1e1e" text-anchor="start" style="white-space: pre;" direction="ltr" dominant-baseline="alphabetic">Pend:</text></g><g stroke-linecap="round" transform="translate(45.64365336447008 422.01780733003187) rotate(0 126.07086645715117 75.18044479030505)"><path d="M32 0 C97.56 0.75, 163.62 0.91, 220.14 0 M32 0 C73.92 -0.69, 116.42 0.26, 220.14 0 M220.14 0 C242.86 0.67, 252.01 8.86, 252.14 32 M220.14 0 C242.19 1.4, 250.99 9.58, 252.14 32 M252.14 32 C253.99 50.06, 253.47 64.95, 252.14 118.36 M252.14 32 C251.39 55.47, 251.81 76.91, 252.14 118.36 M252.14 118.36 C253.37 141.69, 240.77 151.13, 220.14 150.36 M252.14 118.36 C250.93 137.67, 239.39 148.61, 220.14 150.36 M220.14 150.36 C178.07 151.44, 138.59 151.81, 32 150.36 M220.14 150.36 C151.99 150.26, 83.35 150.17, 32 150.36 M32 150.36 C9.71 151.35, -1.36 140.81, 0 118.36 M32 150.36 C11.76 150.11, 1.33 137.74, 0 118.36 M0 118.36 C0.31 95.62, 1.71 70.19, 0 32 M0 118.36 C1.3 88.26, 1.03 56.68, 0 32 M0 32 C1.87 10.59, 10.3 -1.05, 32 0 M0 32 C1.39 10.54, 10.16 1.91, 32 0" stroke="#1e1e1e" stroke-width="2" fill="none"></path></g><g transform="translate(122.49576982162125 427.01780733003187) rotate(0 49.21875 16.80000000000001)"><text x="49.21875" y="27.0375" font-family="Cascadia, Segoe UI Emoji" font-size="28px" fill="#1e1e1e" text-anchor="middle" style="white-space: pre;" direction="ltr" dominant-baseline="alphabetic">Lock_A</text></g><g transform="translate(72.56611780809544 478.7814171203369) rotate(0 98.4375 16.80000000000001)"><text x="0" y="27.0375" font-family="Cascadia, Segoe UI Emoji" font-size="28px" fill="#e03131" text-anchor="start" style="white-space: pre;" direction="ltr" dominant-baseline="alphabetic">IN: T1 -&gt; T2</text></g><g transform="translate(72.56611743705798 512.4445092153771) rotate(0 41.015625 16.80000000000001)"><text x="0" y="27.0375" font-family="Cascadia, Segoe UI Emoji" font-size="28px" fill="#1971c2" text-anchor="start" style="white-space: pre;" direction="ltr" dominant-baseline="alphabetic">Pend:</text></g><g stroke-linecap="round" transform="translate(314.3487490451971 422.01780695682834) rotate(0 89.72056526654706 75.18044479030505)"><path d="M32 0 C77.34 1.06, 121.9 1.46, 147.44 0 M32 0 C66.13 0.63, 100.9 -0.58, 147.44 0 M147.44 0 C169.68 0.55, 180.39 10.2, 179.44 32 M147.44 0 C167.88 -1.83, 178.45 12.81, 179.44 32 M179.44 32 C181.05 52, 179.05 73.85, 179.44 118.36 M179.44 32 C178.97 56.22, 179.02 77.93, 179.44 118.36 M179.44 118.36 C180.69 138.6, 167 152.1, 147.44 150.36 M179.44 118.36 C179.18 139.45, 168.4 151.21, 147.44 150.36 M147.44 150.36 C123.79 148.66, 98.71 151.49, 32 150.36 M147.44 150.36 C101.84 149.96, 56.91 148.61, 32 150.36 M32 150.36 C9.36 151.66, 1.89 140.81, 0 118.36 M32 150.36 C9.57 151.38, 1.01 141.7, 0 118.36 M0 118.36 C-0.52 97.62, 1.58 81.93, 0 32 M0 118.36 C0.45 84.82, 0.52 51.83, 0 32 M0 32 C1.71 11.32, 11.52 -1.68, 32 0 M0 32 C0.66 9.4, 11.93 1.65, 32 0" stroke="#1e1e1e" stroke-width="2" fill="none"></path></g><g transform="translate(354.85056431174417 427.01780695682834) rotate(0 49.21875 16.80000000000001)"><text x="49.21875" y="27.0375" font-family="Cascadia, Segoe UI Emoji" font-size="28px" fill="#1e1e1e" text-anchor="middle" style="white-space: pre;" direction="ltr" dominant-baseline="alphabetic">Lock_B</text></g><g transform="translate(341.27121348882247 478.78141674713316) rotate(0 49.21875 16.80000000000001)"><text x="0" y="27.0375" font-family="Cascadia, Segoe UI Emoji" font-size="28px" fill="#e03131" text-anchor="start" style="white-space: pre;" direction="ltr" dominant-baseline="alphabetic">IN: T2</text></g><g transform="translate(341.271213117785 512.4445088421733) rotate(0 41.015625 16.80000000000001)"><text x="0" y="27.0375" font-family="Cascadia, Segoe UI Emoji" font-size="28px" fill="#1e1e1e" text-anchor="start" style="white-space: pre;" direction="ltr" dominant-baseline="alphabetic">Pend:</text></g></svg>