<svg version="1.1" xmlns="http://www.w3.org/2000/svg" viewBox="0 0 448.7139003888169 353.2030810000002" width="448.7139003888169" height="353.2030810000002">
  <!-- svg-source:excalidraw -->
  
  <defs>
    <style class="style-fonts">
      @font-face {
        font-family: "Virgil";
        src: url("https://excalidraw.com/Virgil.woff2");
      }
      @font-face {
        font-family: "Cascadia";
        src: url("https://excalidraw.com/Cascadia.woff2");
      }
      @font-face {
        font-family: "Assistant";
        src: url("https://excalidraw.com/Assistant-Regular.woff2");
      }
    </style>
    
  </defs>
  <g transform="translate(80.37997429622101 10.000000330193643) rotate(0 6.129997253417969 12.5)"><text x="0" y="17.52" font-family="Virgil, Segoe UI Emoji" font-size="20px" fill="#1e1e1e" text-anchor="start" style="white-space: pre;" direction="ltr" dominant-baseline="alphabetic">K</text></g><g transform="translate(371.2779262962222 10.000000330193643) rotate(0 6.129997253417969 12.5)"><text x="0" y="17.52" font-family="Virgil, Segoe UI Emoji" font-size="20px" fill="#1e1e1e" text-anchor="start" style="white-space: pre;" direction="ltr" dominant-baseline="alphabetic">K</text></g><g transform="translate(74.70197312232085 50.31942887440198) rotate(0 11.807998657226562 22.5)"><text x="0" y="31.536" font-family="Virgil, Segoe UI Emoji" font-size="36px" fill="#1e1e1e" text-anchor="start" style="white-space: pre;" direction="ltr" dominant-baseline="alphabetic">A</text></g><g transform="translate(364.32192512232086 50.31942887440198) rotate(0 13.08599853515625 22.5)"><text x="0" y="31.536" font-family="Virgil, Segoe UI Emoji" font-size="36px" fill="#1e1e1e" text-anchor="start" style="white-space: pre;" direction="ltr" dominant-baseline="alphabetic">B</text></g><g mask="url(#mask-1VRC_ZGn4RDRcFEknhJ9o)" stroke-linecap="round"><g transform="translate(115.54058406818513 68.20007092739809) rotate(0 114.3229952640595 -9.968217570708134)"><path d="M-0.55 0.52 C18.77 -2.52, 77.77 -18.65, 116.03 -18.84 C154.29 -19.02, 210.15 -3.51, 229.02 -0.59 M1.36 -0.25 C21.04 -3.56, 80.32 -20.55, 118.16 -20.39 C156.01 -20.22, 209.84 -2.55, 228.45 0.74" stroke="#1e1e1e" stroke-width="2" fill="none"></path></g><g transform="translate(115.54058406818513 68.20007092739809) rotate(0 114.3229952640595 -9.968217570708134)"><path d="M203.6 3.56 C212.08 0.98, 220.65 2.57, 228.45 0.74 M203.6 3.56 C210.7 2.02, 218.04 1.88, 228.45 0.74" stroke="#1e1e1e" stroke-width="2" fill="none"></path></g><g transform="translate(115.54058406818513 68.20007092739809) rotate(0 114.3229952640595 -9.968217570708134)"><path d="M207.61 -13.07 C214.78 -10.58, 222.12 -3.9, 228.45 0.74 M207.61 -13.07 C213.58 -9.6, 219.7 -4.7, 228.45 0.74" stroke="#1e1e1e" stroke-width="2" fill="none"></path></g></g><mask id="mask-1VRC_ZGn4RDRcFEknhJ9o"><rect x="0" y="0" fill="#fff" width="444.1865745963041" height="188.1365060688144"></rect><rect x="209.159144918538" y="25.76363578598182" fill="#000" width="47.0159912109375" height="45" opacity="1"></rect></mask><g transform="translate(209.159144918538 25.76363578598182) rotate(0 20.61405044073399 32.61453328055893)"><text x="23.50799560546875" y="31.536" font-family="Virgil, Segoe UI Emoji" font-size="36px" fill="#1e1e1e" text-anchor="middle" style="white-space: pre;" direction="ltr" dominant-baseline="alphabetic">cT</text></g><g mask="url(#mask--UfKpVhe5z5Yg1cDYF89z)" stroke-linecap="round"><g transform="translate(114.4431460773385 105.28764638826169) rotate(180 114.3229952640595 -9.968217570708191)"><path d="M1.1 0.37 C20.54 -2.67, 79.35 -19.11, 117.16 -19.36 C154.96 -19.6, 209.51 -4.11, 227.92 -1.11 M0.21 -0.48 C19.45 -3.78, 77.86 -21.25, 116.23 -21.17 C154.6 -21.1, 211.92 -3.48, 230.44 -0.05" stroke="#1e1e1e" stroke-width="2" fill="none"></path></g><g transform="translate(114.4431460773385 105.28764638826169) rotate(180 114.3229952640595 -9.968217570708191)"><path d="M205.61 2.86 C214.77 1.69, 223.65 -0.57, 230.44 -0.05 M205.61 2.86 C211.96 2.79, 219.03 0.99, 230.44 -0.05" stroke="#1e1e1e" stroke-width="2" fill="none"></path></g><g transform="translate(114.4431460773385 105.28764638826169) rotate(180 114.3229952640595 -9.968217570708191)"><path d="M209.55 -13.78 C217.21 -9.21, 224.73 -5.75, 230.44 -0.05 M209.55 -13.78 C214.74 -9.56, 220.78 -7.04, 230.44 -0.05" stroke="#1e1e1e" stroke-width="2" fill="none"></path></g></g><mask id="mask--UfKpVhe5z5Yg1cDYF89z"><rect x="0" y="0" fill="#fff" width="443.0891366054575" height="225.22408152967802"></rect><rect x="197.6665901594015" y="82.7876463882618" fill="#000" width="56.59197998046875" height="45" opacity="1"></rect></mask><g transform="translate(199.67321932076902 81.91984379145299) rotate(0 30.096236601313194 12.96568372769616)"><text x="28.295989990234375" y="31.536" font-family="Virgil, Segoe UI Emoji" font-size="36px" fill="#1e1e1e" text-anchor="middle" style="white-space: pre;" direction="ltr" dominant-baseline="alphabetic">cT'</text></g><g transform="translate(196.3228414646519 10) rotate(0 32.89997100830078 12.5)"><text x="0" y="17.52" font-family="Virgil, Segoe UI Emoji" font-size="20px" fill="#1971c2" text-anchor="start" style="white-space: pre;" direction="ltr" dominant-baseline="alphabetic">(nonce)</text></g><g transform="translate(182.74286046465113 122.96170200000006) rotate(0 45.01996612548828 12.5)"><text x="0" y="17.52" font-family="Virgil, Segoe UI Emoji" font-size="20px" fill="#1971c2" text-anchor="start" style="white-space: pre;" direction="ltr" dominant-baseline="alphabetic">(nonce 2)</text></g><g transform="translate(80.37997429622192 200.15976833019363) rotate(0 6.129997253417969 12.5)"><text x="0" y="17.52" font-family="Virgil, Segoe UI Emoji" font-size="20px" fill="#1e1e1e" text-anchor="start" style="white-space: pre;" direction="ltr" dominant-baseline="alphabetic">K</text></g><g transform="translate(371.2779262962231 200.15976833019363) rotate(0 6.129997253417969 12.5)"><text x="0" y="17.52" font-family="Virgil, Segoe UI Emoji" font-size="20px" fill="#1e1e1e" text-anchor="start" style="white-space: pre;" direction="ltr" dominant-baseline="alphabetic">K</text></g><g transform="translate(74.70197312232176 240.47919687440196) rotate(0 11.807998657226562 22.5)"><text x="0" y="31.536" font-family="Virgil, Segoe UI Emoji" font-size="36px" fill="#1e1e1e" text-anchor="start" style="white-space: pre;" direction="ltr" dominant-baseline="alphabetic">A</text></g><g transform="translate(364.3219251223218 240.47919687440196) rotate(0 13.08599853515625 22.5)"><text x="0" y="31.536" font-family="Virgil, Segoe UI Emoji" font-size="36px" fill="#1e1e1e" text-anchor="start" style="white-space: pre;" direction="ltr" dominant-baseline="alphabetic">B</text></g><g mask="url(#mask-XcbY1b20ht4IfhqoSTJuZ)" stroke-linecap="round"><g transform="translate(115.54058406818604 258.3598389273981) rotate(0 114.3229952640595 -9.968217570708134)"><path d="M0.47 -1.1 C20.02 -4.39, 79.48 -19.72, 117.42 -19.7 C155.36 -19.68, 209.73 -4.02, 228.1 -0.99 M-0.74 0.94 C18.67 -2.74, 78.65 -21.56, 116.62 -21.7 C154.59 -21.83, 208.59 -3.34, 227.06 0.14" stroke="#1e1e1e" stroke-width="2" fill="none"></path></g><g transform="translate(115.54058406818604 258.3598389273981) rotate(0 114.3229952640595 -9.968217570708134)"><path d="M202.18 2.67 C208.06 2.27, 218 0.1, 227.06 0.14 M202.18 2.67 C208.75 2.39, 216.38 1.01, 227.06 0.14" stroke="#1e1e1e" stroke-width="2" fill="none"></path></g><g transform="translate(115.54058406818604 258.3598389273981) rotate(0 114.3229952640595 -9.968217570708134)"><path d="M206.38 -13.91 C210.95 -9.15, 219.6 -6.18, 227.06 0.14 M206.38 -13.91 C211.68 -9.74, 218.17 -6.65, 227.06 0.14" stroke="#1e1e1e" stroke-width="2" fill="none"></path></g></g><mask id="mask-XcbY1b20ht4IfhqoSTJuZ"><rect x="0" y="0" fill="#fff" width="444.18657459630504" height="378.2962740688144"></rect><rect x="196.3431506558436" y="215.92340378598192" fill="#000" width="72.64797973632812" height="45" opacity="1"></rect></mask><g transform="translate(196.3431506558436 215.9234037859817) rotate(0 32.8796616874979 32.05586439255546)"><text x="36.32398986816406" y="31.536" font-family="Virgil, Segoe UI Emoji" font-size="36px" fill="#1e1e1e" text-anchor="middle" style="white-space: pre;" direction="ltr" dominant-baseline="alphabetic">cT2</text></g><g mask="url(#mask-o-TNcxJGdsh0ry6sjimji)" stroke-linecap="round"><g transform="translate(114.4431460773394 295.4474143882617) rotate(180 114.3229952640595 -9.968217570708191)"><path d="M-0.54 -0.36 C18.77 -3.87, 77.99 -20.79, 116.16 -20.79 C154.32 -20.79, 209.56 -3.62, 228.45 -0.35 M1.38 -1.6 C21.03 -4.99, 80.66 -20.15, 118.36 -19.7 C156.06 -19.25, 208.94 -2.11, 227.59 1.11" stroke="#1e1e1e" stroke-width="2" fill="none"></path></g><g transform="translate(114.4431460773394 295.4474143882617) rotate(180 114.3229952640595 -9.968217570708191)"><path d="M202.76 4.03 C210.2 1.59, 217.42 1.93, 227.59 1.11 M202.76 4.03 C211.36 3.33, 219.07 1.33, 227.59 1.11" stroke="#1e1e1e" stroke-width="2" fill="none"></path></g><g transform="translate(114.4431460773394 295.4474143882617) rotate(180 114.3229952640595 -9.968217570708191)"><path d="M206.69 -12.61 C212.89 -9.68, 218.84 -3.94, 227.59 1.11 M206.69 -12.61 C214.14 -7.96, 220.59 -4.59, 227.59 1.11" stroke="#1e1e1e" stroke-width="2" fill="none"></path></g></g><mask id="mask-o-TNcxJGdsh0ry6sjimji"><rect x="0" y="0" fill="#fff" width="443.0891366054584" height="415.383849529678"></rect><rect x="184.8505958967071" y="272.9474143882618" fill="#000" width="82.22396850585938" height="45" opacity="1"></rect></mask><g transform="translate(184.11683672146683 273.20308075617777) rotate(0 44.282425032311494 12.403949245333763)"><text x="41.11198425292969" y="31.536" font-family="Virgil, Segoe UI Emoji" font-size="36px" fill="#1e1e1e" text-anchor="middle" style="white-space: pre;" direction="ltr" dominant-baseline="alphabetic">cT2'</text></g><g transform="translate(10 147.96170232418615) rotate(0 68.90797424316406 17.5)"><text x="0" y="24.528" font-family="Virgil, Segoe UI Emoji" font-size="28px" fill="#1e1e1e" text-anchor="start" style="white-space: pre;" direction="ltr" dominant-baseline="alphabetic">K(m) = cT</text></g><g transform="translate(300.8979519024888 147.96170184912557) rotate(0 68.90797424316406 17.5)"><text x="0" y="24.528" font-family="Virgil, Segoe UI Emoji" font-size="28px" fill="#1e1e1e" text-anchor="start" style="white-space: pre;" direction="ltr" dominant-baseline="alphabetic">m = K(cT)</text></g><g transform="translate(183.3792954646533 200.15976799999999) rotate(0 44.70996856689453 12.5)"><text x="0" y="17.52" font-family="Virgil, Segoe UI Emoji" font-size="20px" fill="#1971c2" text-anchor="start" style="white-space: pre;" direction="ltr" dominant-baseline="alphabetic">(nonce 3)</text></g><g transform="translate(182.74286046465204 318.2030810000001) rotate(0 44.299964904785156 12.500000000000057)"><text x="0" y="17.52" font-family="Virgil, Segoe UI Emoji" font-size="20px" fill="#1971c2" text-anchor="start" style="white-space: pre;" direction="ltr" dominant-baseline="alphabetic">(nonce 4)</text></g></svg>