<svg version="1.1" xmlns="http://www.w3.org/2000/svg" viewBox="0 0 590.1644208311982 278.11321584906636" width="590.1644208311982" height="278.11321584906636">
  <!-- svg-source:excalidraw -->
  
  <defs>
    <style class="style-fonts">
      @font-face {
        font-family: "Virgil";
        src: url("https://excalidraw.com/Virgil.woff2");
      }
      @font-face {
        font-family: "Cascadia";
        src: url("https://excalidraw.com/Cascadia.woff2");
      }
      @font-face {
        font-family: "Assistant";
        src: url("https://excalidraw.com/Assistant-Regular.woff2");
      }
    </style>
    
  </defs>
  <g transform="translate(21.36851453907093 183.5793305497234) rotate(0 51.059974670410156 12.5)"><text x="0" y="17.52" font-family="Virgil, Segoe UI Emoji" font-size="20px" fill="#1e1e1e" text-anchor="start" style="white-space: pre;" direction="ltr" dominant-baseline="alphabetic">(Ka+, Ka-)</text></g><g transform="translate(484.4044873595185 146.1314882679519) rotate(0 47.879966735839844 12.5)"><text x="0" y="17.52" font-family="Virgil, Segoe UI Emoji" font-size="20px" fill="#1e1e1e" text-anchor="start" style="white-space: pre;" direction="ltr" dominant-baseline="alphabetic">(Kb+, Kb-)</text></g><g transform="translate(138.70164118561752 175.63512381215992) rotate(0 11.807998657226562 22.5)"><text x="0" y="31.536" font-family="Virgil, Segoe UI Emoji" font-size="36px" fill="#1e1e1e" text-anchor="start" style="white-space: pre;" direction="ltr" dominant-baseline="alphabetic">A</text></g><g transform="translate(493.81304318561706 175.63512381215992) rotate(0 13.08599853515625 22.5)"><text x="0" y="31.536" font-family="Virgil, Segoe UI Emoji" font-size="36px" fill="#1e1e1e" text-anchor="start" style="white-space: pre;" direction="ltr" dominant-baseline="alphabetic">B</text></g><g mask="url(#mask-wbwxVQcqr3rF0noKIGCc2)" stroke-linecap="round"><g transform="translate(181.57271013148238 207.22645186515638) rotate(0 143.58513235245982 13.371820345039623)"><path d="M-0.28 -0.48 C18.53 3.93, 66.14 26.76, 113.95 27.45 C161.75 28.13, 257.67 7.44, 286.56 3.62 M1.78 -1.78 C20.42 2.21, 66.24 24.57, 113.52 25.69 C160.81 26.82, 256.46 8.84, 285.47 4.98" stroke="#2f9e44" stroke-width="2" fill="none"></path></g><g transform="translate(181.57271013148238 207.22645186515638) rotate(0 143.58513235245982 13.371820345039623)"><path d="M263.58 17.05 C271.25 14.04, 281.79 6.63, 285.47 4.98 M263.58 17.05 C271.02 13.06, 276.09 8.73, 285.47 4.98" stroke="#2f9e44" stroke-width="2" fill="none"></path></g><g transform="translate(181.57271013148238 207.22645186515638) rotate(0 143.58513235245982 13.371820345039623)"><path d="M260.94 0.15 C269.78 3.76, 281.36 2.97, 285.47 4.98 M260.94 0.15 C269.2 1.31, 275.08 2.14, 285.47 4.98" stroke="#2f9e44" stroke-width="2" fill="none"></path></g></g><mask id="mask-wbwxVQcqr3rF0noKIGCc2"><rect x="0" y="0" fill="#fff" width="568.742974836402" height="333.9700925552356"></rect><rect x="286.98696360829763" y="216.47009255523562" fill="#000" width="15.063995361328125" height="35" opacity="1"></rect></mask><g transform="translate(286.98696360829763 216.47009255523562) rotate(0 37.72640899048929 3.599346890374136)"><text x="7.5319976806640625" y="24.528" font-family="Virgil, Segoe UI Emoji" font-size="28px" fill="#2f9e44" text-anchor="middle" style="white-space: pre;" direction="ltr" dominant-baseline="alphabetic">7</text></g><g mask="url(#mask-CfhHgap-QQzDOZ9tBByQ-)" stroke-linecap="round"><g transform="translate(180.66071214061776 165.00924216453427) rotate(180 141.84333847815833 8.183290697888651)"><path d="M-0.61 0.07 C26.77 3.18, 117.78 19.73, 165.31 19.36 C212.85 18.99, 265.04 1.56, 284.6 -2.15 M1.27 -0.94 C28.42 1.79, 117.25 17.74, 164.42 17.75 C211.6 17.76, 264.66 2.43, 284.31 -0.91" stroke="#e03131" stroke-width="2" fill="none"></path></g><g transform="translate(180.66071214061776 165.00924216453427) rotate(180 141.84333847815833 8.183290697888651)"><path d="M263.14 12.38 C271.29 7.58, 280.92 3.82, 284.31 -0.91 M263.14 12.38 C268.57 8.23, 274.5 5.63, 284.31 -0.91" stroke="#e03131" stroke-width="2" fill="none"></path></g><g transform="translate(180.66071214061776 165.00924216453427) rotate(180 141.84333847815833 8.183290697888651)"><path d="M259.55 -4.34 C269.18 -2.71, 280.18 -0.06, 284.31 -0.91 M259.55 -4.34 C265.87 -3.64, 272.84 -1.42, 284.31 -0.91" stroke="#e03131" stroke-width="2" fill="none"></path></g></g><mask id="mask-CfhHgap-QQzDOZ9tBByQ-"><rect x="0" y="0" fill="#fff" width="564.3473890969344" height="285.40872095554477"></rect><rect x="289.6133251281226" y="145.49279346691765" fill="#000" width="19.0679931640625" height="35" opacity="1"></rect></mask><g transform="translate(289.9128326901937 146.33762342142563) rotate(0 32.74097170961795 27.277324418251283)"><text x="9.53399658203125" y="24.528" font-family="Virgil, Segoe UI Emoji" font-size="28px" fill="#e03131" text-anchor="middle" style="white-space: pre;" direction="ltr" dominant-baseline="alphabetic">3</text></g><g transform="translate(232.98581559969898 35.000000033890956) rotate(0 20.141990661621094 22.5)"><text x="0" y="31.536" font-family="Virgil, Segoe UI Emoji" font-size="36px" fill="#1e1e1e" text-anchor="start" style="white-space: pre;" direction="ltr" dominant-baseline="alphabetic">FI</text></g><g transform="translate(205.28783353907056 10) rotate(0 47.83997344970703 12.5)"><text x="0" y="17.52" font-family="Virgil, Segoe UI Emoji" font-size="20px" fill="#1e1e1e" text-anchor="start" style="white-space: pre;" direction="ltr" dominant-baseline="alphabetic">(FI+, FI-)</text></g><g mask="url(#mask-0wpvcq1POp5BLDIv_EKw0)" stroke-linecap="round"><g transform="translate(143.86776019062017 169.67152523555887) rotate(0 36.926030135362 -55.0406864281814)"><path d="M-0.08 -0.76 C2.43 -11.93, 1.93 -49.4, 14.24 -67.79 C26.56 -86.18, 63.8 -103.98, 73.81 -111.1 M-1.58 1.46 C0.94 -9.52, 1.39 -48.1, 13.83 -66.73 C26.26 -85.36, 62.87 -103.16, 73.02 -110.31" stroke="#e03131" stroke-width="2" fill="none"></path></g><g transform="translate(143.86776019062017 169.67152523555887) rotate(0 36.926030135362 -55.0406864281814)"><path d="M57.37 -90.82 C59.84 -93.62, 63.2 -99.87, 73.02 -110.31 M57.37 -90.82 C61.58 -95.57, 64.29 -99.31, 73.02 -110.31" stroke="#e03131" stroke-width="2" fill="none"></path></g><g transform="translate(143.86776019062017 169.67152523555887) rotate(0 36.926030135362 -55.0406864281814)"><path d="M48.5 -105.44 C52.92 -104.87, 58.33 -107.74, 73.02 -110.31 M48.5 -105.44 C54.68 -107.01, 59.29 -107.6, 73.02 -110.31" stroke="#e03131" stroke-width="2" fill="none"></path></g></g><mask id="mask-0wpvcq1POp5BLDIv_EKw0"><rect x="0" y="0" fill="#fff" width="317.71982046134417" height="379.7528980919217"></rect><rect x="148.14539455090016" y="85.28664046207246" fill="#000" width="17.919998168945312" height="35" opacity="1"></rect></mask><g transform="translate(148.14539455090016 85.28664046207246) rotate(0 31.83586036143879 29.567246367387156)"><text x="8.959999084472656" y="24.528" font-family="Virgil, Segoe UI Emoji" font-size="28px" fill="#e03131" text-anchor="middle" style="white-space: pre;" direction="ltr" dominant-baseline="alphabetic">4</text></g><g mask="url(#mask-WtFHgaw_6BJcQcDUqyRSi)" stroke-linecap="round"><g transform="translate(161.07696627017867 174.88639381825942) rotate(180.969328490561 42.31547538591485 -46.445084539887944)"><path d="M-1 -0.29 C3.59 -8.39, 12.61 -32.08, 26.73 -47.58 C40.85 -63.08, 74.09 -85.84, 83.73 -93.28 M0.68 -1.49 C5.18 -9.47, 11.5 -30.92, 25.74 -46.03 C39.99 -61.14, 76.32 -84.11, 86.15 -92.16" stroke="#2f9e44" stroke-width="2" fill="none"></path></g><g transform="translate(161.07696627017867 174.88639381825942) rotate(180.969328490561 42.31547538591485 -46.445084539887944)"><path d="M72.16 -71.44 C74.73 -76.24, 78.49 -82.41, 86.15 -92.16 M72.16 -71.44 C75.66 -77.96, 79.94 -82.79, 86.15 -92.16" stroke="#2f9e44" stroke-width="2" fill="none"></path></g><g transform="translate(161.07696627017867 174.88639381825942) rotate(180.969328490561 42.31547538591485 -46.445084539887944)"><path d="M62.11 -85.28 C67.13 -86.8, 73.21 -89.77, 86.15 -92.16 M62.11 -85.28 C68.3 -88.16, 75.26 -89.27, 86.15 -92.16" stroke="#2f9e44" stroke-width="2" fill="none"></path></g></g><mask id="mask-WtFHgaw_6BJcQcDUqyRSi"><rect x="0" y="0" fill="#fff" width="345.7079170420084" height="367.7765628980353"></rect><rect x="209.92270636161265" y="112.36200777024487" fill="#000" width="17.919998168945312" height="35" opacity="1"></rect></mask><g transform="translate(210.44798580990027 111.68817700209979) rotate(0 -6.795754460441913 16.41399517323555)"><text x="8.959999084472656" y="24.528" font-family="Virgil, Segoe UI Emoji" font-size="28px" fill="#2f9e44" text-anchor="middle" style="white-space: pre;" direction="ltr" dominant-baseline="alphabetic">6</text></g><g transform="translate(318.64587452764954 139.54877785433905) rotate(3.7631903772563926 63.927955627441406 10)"><text x="0" y="14.016" font-family="Virgil, Segoe UI Emoji" font-size="16px" fill="#e03131" text-anchor="start" style="white-space: pre;" direction="ltr" dominant-baseline="alphabetic">FI+(&lt;B, A, ok?&gt;)</text></g><g transform="translate(253.1278067016765 93.11465653112941) rotate(0 62.59996795654297 10)"><text x="0" y="14.016" font-family="Virgil, Segoe UI Emoji" font-size="16px" fill="#2f9e44" text-anchor="start" style="white-space: pre;" direction="ltr" dominant-baseline="alphabetic">Kb+(&lt;B, A, OK&gt;)</text></g><g transform="translate(308.8652107016769 241.47009253112947) rotate(353.8554040631713 62.59996795654297 10)"><text x="0" y="14.016" font-family="Virgil, Segoe UI Emoji" font-size="16px" fill="#2f9e44" text-anchor="start" style="white-space: pre;" direction="ltr" dominant-baseline="alphabetic">Kb+(&lt;B, A, OK&gt;)</text></g><g transform="translate(10 130.49144970792963) rotate(0 63.927955627441406 10)"><text x="0" y="14.016" font-family="Virgil, Segoe UI Emoji" font-size="16px" fill="#e03131" text-anchor="start" style="white-space: pre;" direction="ltr" dominant-baseline="alphabetic">FI+(&lt;B, A, ok?&gt;)</text></g></svg>