<svg version="1.1" xmlns="http://www.w3.org/2000/svg" viewBox="0 0 335.7919490703134 127.78764605806782" width="335.7919490703134" height="127.78764605806782">
  <!-- svg-source:excalidraw -->
  
  <defs>
    <style class="style-fonts">
      @font-face {
        font-family: "Virgil";
        src: url("https://excalidraw.com/Virgil.woff2");
      }
      @font-face {
        font-family: "Cascadia";
        src: url("https://excalidraw.com/Cascadia.woff2");
      }
      @font-face {
        font-family: "Assistant";
        src: url("https://excalidraw.com/Assistant-Regular.woff2");
      }
    </style>
    
  </defs>
  <g transform="translate(15.678001173901066 10) rotate(0 6.129997253417969 12.5)"><text x="0" y="17.52" font-family="Virgil, Segoe UI Emoji" font-size="20px" fill="#1e1e1e" text-anchor="start" style="white-space: pre;" direction="ltr" dominant-baseline="alphabetic">K</text></g><g transform="translate(306.57595317390223 10) rotate(0 6.129997253417969 12.5)"><text x="0" y="17.52" font-family="Virgil, Segoe UI Emoji" font-size="20px" fill="#1e1e1e" text-anchor="start" style="white-space: pre;" direction="ltr" dominant-baseline="alphabetic">K</text></g><g transform="translate(10 50.31942854420822) rotate(0 11.807998657226562 22.5)"><text x="0" y="31.536" font-family="Virgil, Segoe UI Emoji" font-size="36px" fill="#1e1e1e" text-anchor="start" style="white-space: pre;" direction="ltr" dominant-baseline="alphabetic">A</text></g><g transform="translate(299.6199520000009 50.31942854420822) rotate(0 13.08599853515625 22.5)"><text x="0" y="31.536" font-family="Virgil, Segoe UI Emoji" font-size="36px" fill="#1e1e1e" text-anchor="start" style="white-space: pre;" direction="ltr" dominant-baseline="alphabetic">B</text></g><g mask="url(#mask-noSUgHmi_L5TR-tAMmkMC)" stroke-linecap="round"><g transform="translate(50.838610945866094 68.20007059720433) rotate(0 114.3229952640595 -9.968217570708134)"><path d="M-0.79 -0.37 C18.77 -3.88, 78.56 -20.79, 116.66 -21 C154.77 -21.22, 209.12 -4.88, 227.85 -1.67 M1 -1.61 C20.41 -5.02, 77.25 -20.14, 115.47 -20.03 C153.69 -19.91, 211.32 -4.04, 230.32 -0.91" stroke="#1e1e1e" stroke-width="2" fill="none"></path></g><g transform="translate(50.838610945866094 68.20007059720433) rotate(0 114.3229952640595 -9.968217570708134)"><path d="M205.57 2.6 C211.02 1.13, 215.93 -0.29, 230.32 -0.91 M205.57 2.6 C210.95 2.75, 215.28 1.41, 230.32 -0.91" stroke="#1e1e1e" stroke-width="2" fill="none"></path></g><g transform="translate(50.838610945866094 68.20007059720433) rotate(0 114.3229952640595 -9.968217570708134)"><path d="M209.11 -14.13 C213.7 -11.53, 217.74 -8.84, 230.32 -0.91 M209.11 -14.13 C213.79 -10.46, 217.36 -8.24, 230.32 -0.91" stroke="#1e1e1e" stroke-width="2" fill="none"></path></g></g><mask id="mask-noSUgHmi_L5TR-tAMmkMC"><rect x="0" y="0" fill="#fff" width="379.4846014739851" height="188.13650573862066"></rect><rect x="128.93519913996897" y="35.76363545578806" fill="#000" width="78.0599365234375" height="25" opacity="1"></rect></mask><g transform="translate(128.93519913996897 35.76363545578806) rotate(0 36.672435806613976 21.748141287988858)"><text x="39.02996826171875" y="17.52" font-family="Virgil, Segoe UI Emoji" font-size="20px" fill="#1e1e1e" text-anchor="middle" style="white-space: pre;" direction="ltr" dominant-baseline="alphabetic">K(nonce)</text></g><g mask="url(#mask-c18XB97GVlNEynYk-1FB9)" stroke-linecap="round"><g transform="translate(49.741172955018556 105.28764605806782) rotate(180 114.3229952640595 -9.968217570708134)"><path d="M-0.8 -1.05 C18.86 -4.38, 79.24 -21.27, 117.5 -21.07 C155.77 -20.87, 210.44 -3.25, 228.8 0.17 M0.98 1.01 C20.56 -2.12, 78.9 -19.67, 116.75 -20.13 C154.61 -20.59, 209.67 -5.22, 228.11 -1.76" stroke="#1e1e1e" stroke-width="2" fill="none"></path></g><g transform="translate(49.741172955018556 105.28764605806782) rotate(180 114.3229952640595 -9.968217570708134)"><path d="M203.32 1.48 C208.08 1.42, 214.42 0.21, 228.11 -1.76 M203.32 1.48 C212.27 0.01, 220.86 -0.55, 228.11 -1.76" stroke="#1e1e1e" stroke-width="2" fill="none"></path></g><g transform="translate(49.741172955018556 105.28764605806782) rotate(180 114.3229952640595 -9.968217570708134)"><path d="M207.04 -15.22 C210.68 -10.93, 216.04 -7.79, 228.11 -1.76 M207.04 -15.22 C214.49 -10.57, 221.73 -5.02, 228.11 -1.76" stroke="#1e1e1e" stroke-width="2" fill="none"></path></g></g><mask id="mask-c18XB97GVlNEynYk-1FB9"><rect x="0" y="0" fill="#fff" width="378.38716348313756" height="225.22408119948415"></rect><rect x="103.27063968112452" y="92.78764605806782" fill="#000" width="115.97993469238281" height="25" opacity="1"></rect></mask><g transform="translate(102.62647113283856 92.66521320029801) rotate(0 61.115612812096515 2.5929988581767702)"><text x="57.989967346191406" y="17.52" font-family="Virgil, Segoe UI Emoji" font-size="20px" fill="#1e1e1e" text-anchor="middle" style="white-space: pre;" direction="ltr" dominant-baseline="alphabetic">K(nonce + 1)</text></g></svg>