<svg version="1.1" xmlns="http://www.w3.org/2000/svg" viewBox="0 0 463.9178951397935 233.73297617387266" width="463.9178951397935" height="233.73297617387266">
  <!-- svg-source:excalidraw -->
  
  <defs>
    <style class="style-fonts">
      @font-face {
        font-family: "Virgil";
        src: url("https://excalidraw.com/Virgil.woff2");
      }
      @font-face {
        font-family: "Cascadia";
        src: url("https://excalidraw.com/Cascadia.woff2");
      }
      @font-face {
        font-family: "Assistant";
        src: url("https://excalidraw.com/Assistant-Regular.woff2");
      }
    </style>
    
  </defs>
  <g transform="translate(74.94998129622127 10) rotate(0 11.559989929199219 12.5)"><text x="0" y="17.52" font-family="Virgil, Segoe UI Emoji" font-size="20px" fill="#1e1e1e" text-anchor="start" style="white-space: pre;" direction="ltr" dominant-baseline="alphabetic">Ks</text></g><g transform="translate(365.8479332962215 10) rotate(0 11.559989929199219 12.5)"><text x="0" y="17.52" font-family="Virgil, Segoe UI Emoji" font-size="20px" fill="#1e1e1e" text-anchor="start" style="white-space: pre;" direction="ltr" dominant-baseline="alphabetic">Ks</text></g><g transform="translate(74.70197312232085 50.31942854420828) rotate(0 11.807998657226562 22.5)"><text x="0" y="31.536" font-family="Virgil, Segoe UI Emoji" font-size="36px" fill="#1e1e1e" text-anchor="start" style="white-space: pre;" direction="ltr" dominant-baseline="alphabetic">A</text></g><g transform="translate(364.32192512232086 50.319428544208336) rotate(0 13.08599853515625 22.5)"><text x="0" y="31.536" font-family="Virgil, Segoe UI Emoji" font-size="36px" fill="#1e1e1e" text-anchor="start" style="white-space: pre;" direction="ltr" dominant-baseline="alphabetic">B</text></g><g mask="url(#mask-hSbJ6ePWtlzS14-OwjoRx)" stroke-linecap="round"><g transform="translate(115.54058406818513 68.20007059720439) rotate(0 114.3229952640595 -9.968217570708163)"><path d="M-1.1 0.75 C18.46 -2.28, 79.1 -18.65, 117.51 -18.79 C155.93 -18.92, 211.03 -3.11, 229.39 -0.07 M0.53 0.1 C19.95 -3.18, 78.69 -19.93, 116.77 -20.31 C154.85 -20.68, 210.58 -5.6, 229.02 -2.12" stroke="#1e1e1e" stroke-width="2" fill="none"></path></g><g transform="translate(115.54058406818513 68.20007059720439) rotate(0 114.3229952640595 -9.968217570708163)"><path d="M204.24 1.19 C213.23 1.03, 221.61 0.59, 229.02 -2.12 M204.24 1.19 C213.3 -0.25, 222.31 -0.28, 229.02 -2.12" stroke="#1e1e1e" stroke-width="2" fill="none"></path></g><g transform="translate(115.54058406818513 68.20007059720439) rotate(0 114.3229952640595 -9.968217570708163)"><path d="M207.9 -15.51 C215.67 -10.51, 222.91 -5.74, 229.02 -2.12 M207.9 -15.51 C215.56 -11.17, 223.31 -5.42, 229.02 -2.12" stroke="#1e1e1e" stroke-width="2" fill="none"></path></g></g><mask id="mask-hSbJ6ePWtlzS14-OwjoRx"><rect x="0" y="0" fill="#fff" width="444.1865745963041" height="188.1365057386207"></rect><rect x="209.159144918538" y="25.763635455788062" fill="#000" width="47.0159912109375" height="45" opacity="1"></rect></mask><g transform="translate(209.159144918538 25.763635455788062) rotate(0 20.527869858091435 32.65669760999492)"><text x="23.50799560546875" y="31.536" font-family="Virgil, Segoe UI Emoji" font-size="36px" fill="#1e1e1e" text-anchor="middle" style="white-space: pre;" direction="ltr" dominant-baseline="alphabetic">cT</text></g><g mask="url(#mask-iZbNDT6WbocUA0OQFWzDr)" stroke-linecap="round"><g transform="translate(114.4431460773385 105.28764605806805) rotate(180 114.3229952640595 -9.968217570708163)"><path d="M0.46 1.06 C20.05 -2.42, 79.04 -20.12, 117.25 -20.46 C155.46 -20.79, 211.12 -4.38, 229.7 -0.96 M-0.76 0.57 C18.71 -2.79, 77.99 -19.13, 116.37 -19.19 C154.74 -19.26, 210.71 -2.67, 229.49 0.18" stroke="#1e1e1e" stroke-width="2" fill="none"></path></g><g transform="translate(114.4431460773385 105.28764605806805) rotate(180 114.3229952640595 -9.968217570708163)"><path d="M204.73 3.62 C213.34 2.78, 217.56 3.38, 229.49 0.18 M204.73 3.62 C210.74 2.11, 217.32 1.91, 229.49 0.18" stroke="#1e1e1e" stroke-width="2" fill="none"></path></g><g transform="translate(114.4431460773385 105.28764605806805) rotate(180 114.3229952640595 -9.968217570708163)"><path d="M208.31 -13.1 C215.99 -9.3, 219.22 -4.07, 229.49 0.18 M208.31 -13.1 C213.36 -10.04, 218.97 -5.69, 229.49 0.18" stroke="#1e1e1e" stroke-width="2" fill="none"></path></g></g><mask id="mask-iZbNDT6WbocUA0OQFWzDr"><rect x="0" y="0" fill="#fff" width="443.0891366054575" height="225.22408119948437"></rect><rect x="197.6665901594015" y="82.78764605806816" fill="#000" width="56.59197998046875" height="45" opacity="1"></rect></mask><g transform="translate(197.96333217267693 83.31954679456692) rotate(0 30.95118017535833 12.265832061042431)"><text x="28.295989990234375" y="31.536" font-family="Virgil, Segoe UI Emoji" font-size="36px" fill="#1e1e1e" text-anchor="middle" style="white-space: pre;" direction="ltr" dominant-baseline="alphabetic">cT'</text></g><g transform="translate(10 147.9617019939925) rotate(0 76.50997161865234 17.5)"><text x="0" y="24.528" font-family="Virgil, Segoe UI Emoji" font-size="28px" fill="#1e1e1e" text-anchor="start" style="white-space: pre;" direction="ltr" dominant-baseline="alphabetic">Ks(m) = cT</text></g><g transform="translate(300.8979519024888 147.96170151893193) rotate(0 76.50997161865234 17.5)"><text x="0" y="24.528" font-family="Virgil, Segoe UI Emoji" font-size="28px" fill="#1e1e1e" text-anchor="start" style="white-space: pre;" direction="ltr" dominant-baseline="alphabetic">m = Ks(cT)</text></g><g stroke-linecap="round"><g transform="translate(156.40926522318205 182.2458705164189) rotate(0 13.401623267030118 8.613573694946297)"><path d="M0.5 -0.95 C4.99 2.16, 23.05 14.36, 27.25 17.55 M-0.7 1.16 C3.65 4, 21.75 13.07, 26.54 15.59" stroke="#1e1e1e" stroke-width="2" fill="none"></path></g><g transform="translate(156.40926522318205 182.2458705164189) rotate(0 13.401623267030118 8.613573694946297)"><path d="M10.74 13.58 C14.58 14.77, 21.41 13.38, 26.54 15.59 M10.74 13.58 C16.76 14.95, 22.72 15.26, 26.54 15.59" stroke="#1e1e1e" stroke-width="2" fill="none"></path></g><g transform="translate(156.40926522318205 182.2458705164189) rotate(0 13.401623267030118 8.613573694946297)"><path d="M15.73 3.9 C17.86 8.25, 23.07 10.01, 26.54 15.59 M15.73 3.9 C19.9 8.92, 23.98 12.89, 26.54 15.59" stroke="#1e1e1e" stroke-width="2" fill="none"></path></g></g><mask></mask><g transform="translate(190.23240965901914 198.73297617387266) rotate(0 51.62994384765625 12.5)"><text x="0" y="17.52" font-family="Virgil, Segoe UI Emoji" font-size="20px" fill="#1e1e1e" text-anchor="start" style="white-space: pre;" direction="ltr" dominant-baseline="alphabetic">cipherText</text></g></svg>