<svg version="1.1" xmlns="http://www.w3.org/2000/svg" viewBox="0 0 529.795478070313 80.92738989931075" width="529.795478070313" height="80.92738989931075">
  <!-- svg-source:excalidraw -->
  
  <defs>
    <style class="style-fonts">
      @font-face {
        font-family: "Virgil";
        src: url("https://excalidraw.com/Virgil.woff2");
      }
      @font-face {
        font-family: "Cascadia";
        src: url("https://excalidraw.com/Cascadia.woff2");
      }
      @font-face {
        font-family: "Assistant";
        src: url("https://excalidraw.com/Assistant-Regular.woff2");
      }
    </style>
    
  </defs>
  <g transform="translate(249.1477390000009 25.927389899310754) rotate(0 14.472000122070312 22.5)"><text x="0" y="31.536" font-family="Virgil, Segoe UI Emoji" font-size="36px" fill="#1e1e1e" text-anchor="start" style="white-space: pre;" direction="ltr" dominant-baseline="alphabetic">T</text></g><g stroke-linecap="round"><g transform="translate(242.47706875721087 58.899018778382185) rotate(0 -100.19308823445772 0)"><path d="M0.99 0.38 C-32.25 0.67, -166.69 0.98, -200.27 1.1 M0.06 -0.47 C-33.26 -0.42, -167.6 -0.41, -201.16 -0.44" stroke="#1e1e1e" stroke-width="2" fill="none"></path></g><g transform="translate(242.47706875721087 58.899018778382185) rotate(0 -100.19308823445772 0)"><path d="M-177.67 -8.99 C-182.53 -6.62, -186.76 -5.03, -201.16 -0.44 M-177.67 -8.99 C-186.03 -5.57, -195.42 -3.08, -201.16 -0.44" stroke="#1e1e1e" stroke-width="2" fill="none"></path></g><g transform="translate(242.47706875721087 58.899018778382185) rotate(0 -100.19308823445772 0)"><path d="M-177.67 8.12 C-182.43 6.52, -186.66 4.15, -201.16 -0.44 M-177.67 8.12 C-186.02 4.84, -195.41 0.64, -201.16 -0.44" stroke="#1e1e1e" stroke-width="2" fill="none"></path></g></g><mask></mask><g transform="translate(292.1044461182355 10) rotate(0 78.99994659423828 10)"><text x="0" y="14.016" font-family="Virgil, Segoe UI Emoji" font-size="16px" fill="#1e1e1e" text-anchor="start" style="white-space: pre;" direction="ltr" dominant-baseline="alphabetic">Chave pública de B?</text></g><g transform="translate(10 25.92738989931081) rotate(0 11.807998657226562 22.49999999999997)"><text x="0" y="31.536" font-family="Virgil, Segoe UI Emoji" font-size="36px" fill="#1e1e1e" text-anchor="start" style="white-space: pre;" direction="ltr" dominant-baseline="alphabetic">A</text></g><g stroke-linecap="round"><g transform="translate(43.579345826034114 31.6510667783823) rotate(0 100.19308823445726 0)"><path d="M0.7 1.17 C33.93 1.2, 167.23 -0.63, 200.46 -0.86 M-0.39 0.74 C32.59 0.98, 166.29 0.18, 199.55 0.23" stroke="#1e1e1e" stroke-width="2" fill="none"></path></g><g transform="translate(43.579345826034114 31.6510667783823) rotate(0 100.19308823445726 0)"><path d="M176.08 8.84 C187.3 5.45, 193.12 1.46, 199.55 0.23 M176.08 8.84 C183.14 6.21, 188.9 4.01, 199.55 0.23" stroke="#1e1e1e" stroke-width="2" fill="none"></path></g><g transform="translate(43.579345826034114 31.6510667783823) rotate(0 100.19308823445726 0)"><path d="M176.03 -8.26 C187.12 -4.95, 192.96 -2.24, 199.55 0.23 M176.03 -8.26 C182.94 -6.02, 188.71 -3.35, 199.55 0.23" stroke="#1e1e1e" stroke-width="2" fill="none"></path></g></g><mask></mask><g transform="translate(51.189878118235356 10) rotate(0 78.99994659423828 10)"><text x="0" y="14.016" font-family="Virgil, Segoe UI Emoji" font-size="16px" fill="#1e1e1e" text-anchor="start" style="white-space: pre;" direction="ltr" dominant-baseline="alphabetic">Chave pública de B?</text></g><g transform="translate(493.62348100000054 25.927389899310754) rotate(0 13.08599853515625 22.5)"><text x="0" y="31.536" font-family="Virgil, Segoe UI Emoji" font-size="36px" fill="#1e1e1e" text-anchor="start" style="white-space: pre;" direction="ltr" dominant-baseline="alphabetic">B</text></g><g stroke-linecap="round"><g transform="translate(284.49391382603426 31.6510667783823) rotate(0 99.5549156979323 0)"><path d="M0.11 -1.04 C32.94 -0.93, 165.12 -0.06, 198.09 0 M-1.29 1.03 C31.8 1.39, 166.68 1.67, 200.26 1.53" stroke="#1e1e1e" stroke-width="2" fill="none"></path></g><g transform="translate(284.49391382603426 31.6510667783823) rotate(0 99.5549156979323 0)"><path d="M176.77 10.09 C184.33 5, 195.29 1.35, 200.26 1.53 M176.77 10.09 C182.88 8.23, 188 5.84, 200.26 1.53" stroke="#1e1e1e" stroke-width="2" fill="none"></path></g><g transform="translate(284.49391382603426 31.6510667783823) rotate(0 99.5549156979323 0)"><path d="M176.77 -7.01 C184.24 -5.38, 195.2 -2.3, 200.26 1.53 M176.77 -7.01 C182.79 -4.77, 187.92 -3.06, 200.26 1.53" stroke="#1e1e1e" stroke-width="2" fill="none"></path></g></g><mask></mask><g transform="translate(128.42624333296226 38.427389947188885) rotate(0 14.423995971679688 10)"><text x="0" y="14.016" font-family="Virgil, Segoe UI Emoji" font-size="16px" fill="#1e1e1e" text-anchor="start" style="white-space: pre;" direction="ltr" dominant-baseline="alphabetic">Kt+</text></g><g stroke-linecap="round"><g transform="translate(485.20148075721045 59.03777777838218) rotate(0 -100.19308823445772 0)"><path d="M0.62 -1.08 C-32.74 -1.1, -167.33 0.08, -200.82 0.28 M-0.51 0.96 C-34.02 0.53, -168.57 -1.79, -202 -1.69" stroke="#1e1e1e" stroke-width="2" fill="none"></path></g><g transform="translate(485.20148075721045 59.03777777838218) rotate(0 -100.19308823445772 0)"><path d="M-178.43 -10.04 C-186.04 -8.58, -189.59 -5.75, -202 -1.69 M-178.43 -10.04 C-186.67 -7.52, -192.8 -3.89, -202 -1.69" stroke="#1e1e1e" stroke-width="2" fill="none"></path></g><g transform="translate(485.20148075721045 59.03777777838218) rotate(0 -100.19308823445772 0)"><path d="M-178.58 7.06 C-186.21 4.29, -189.72 2.89, -202 -1.69 M-178.58 7.06 C-186.88 4.22, -192.96 2.5, -202 -1.69" stroke="#1e1e1e" stroke-width="2" fill="none"></path></g></g><mask></mask><g transform="translate(371.15065533296183 38.56614894718888) rotate(0 13.967994689941406 10)"><text x="0" y="14.016" font-family="Virgil, Segoe UI Emoji" font-size="16px" fill="#1e1e1e" text-anchor="start" style="white-space: pre;" direction="ltr" dominant-baseline="alphabetic">Kb+</text></g></svg>