<svg width="24" height="24" xmlns="http://www.w3.org/2000/svg"><path fill="#fff" d="M5.196 16.783h2.05v2.05h-2.05v-2.05M6.562 5.168c3.655.15 5.247 3.84 3.075 6.607-.567.683-1.483 1.134-1.934 1.708-.458.567-.458 1.25-.458 1.933h-2.05c0-1.14 0-2.104.458-2.787.451-.684 1.367-1.087 1.934-1.538 1.653-1.53 1.244-3.696-1.025-3.874a2.05 2.05 0 0 0-2.05 2.05h-2.05a4.1 4.1 0 0 1 4.1-4.1z" style="stroke-width:.683234"/><path fill="currentColor" d="M21.537 12.806H13.45v-1.869h8.088z" style="fill:#fff;stroke-width:.485964"/></svg>