<svg width="761.235" height="418.431" viewBox="0 0 201.41 110.71" xmlns="http://www.w3.org/2000/svg"><path d="M.264 47.048H33.86v17.107H.264z" fill="none" stroke="#000" stroke-width=".529"/><g stroke-width=".133" aria-label="código partilhado"><path d="M10.169 54.037q-.373 0-.667-.156-.289-.155-.457-.483-.163-.327-.163-.837 0-.531.174-.864.173-.333.467-.488.3-.156.677-.156.216 0 .415.048.2.043.326.108l-.142.391q-.126-.048-.294-.09-.168-.044-.315-.044-.83 0-.83 1.09 0 .52.2.8.204.273.604.273.23 0 .404-.048.178-.049.325-.118v.418q-.141.075-.315.113-.168.043-.41.043zM14.007 52.54q0 .713-.357 1.105-.352.392-.956.392-.373 0-.667-.172-.289-.177-.457-.51-.168-.338-.168-.815 0-.714.352-1.1.352-.387.956-.387.383 0 .672.177.294.172.457.505.168.327.168.805zm-2.127 0q0 .51.194.81.2.295.63.295.426 0 .625-.295.2-.3.2-.81t-.2-.8q-.2-.29-.63-.29t-.625.29q-.194.29-.194.8zm1.565-2.614q-.063.097-.194.252-.132.15-.284.306-.147.15-.273.247h-.305v-.064q.08-.102.168-.242.095-.14.184-.284.09-.15.147-.268h.557zM15.735 54.037q-.525 0-.84-.37-.315-.376-.315-1.117 0-.74.315-1.116.32-.381.845-.381.326 0 .53.123.21.124.342.3h.031q-.005-.069-.02-.203-.011-.14-.011-.22v-1.148h.462v4.078h-.373l-.068-.386h-.021q-.126.182-.336.311-.21.129-.541.129zm.074-.392q.446 0 .624-.247.184-.252.184-.756v-.086q0-.537-.173-.821-.173-.29-.64-.29-.374 0-.563.306-.183.3-.183.81 0 .515.183.8.19.284.568.284zM18.203 50.029q.105 0 .184.075.084.07.084.225 0 .15-.084.225-.079.076-.184.076-.115 0-.194-.076-.079-.075-.079-.225 0-.156.079-.225.079-.075.194-.075zm.226 1.078v2.877h-.462v-2.877zM20.319 51.054q.278 0 .499.107.226.107.383.327h.026l.063-.38h.368v2.924q0 .617-.31.928-.304.312-.95.312-.62 0-1.014-.183v-.435q.415.226 1.04.226.362 0 .567-.22.21-.215.21-.59v-.113q0-.065.005-.183.006-.123.011-.171h-.021q-.284.434-.872.434-.546 0-.856-.391-.304-.392-.304-1.095 0-.687.304-1.09.31-.407.851-.407zm.063.397q-.352 0-.546.29-.194.284-.194.815 0 .531.189.816.194.279.561.279.426 0 .62-.23.194-.237.194-.757v-.113q0-.59-.2-.843-.199-.257-.624-.257zM24.998 52.54q0 .713-.357 1.105-.352.392-.956.392-.373 0-.667-.172-.289-.177-.457-.51-.168-.338-.168-.815 0-.714.352-1.1.352-.387.956-.387.383 0 .672.177.294.172.457.505.168.327.168.805zm-2.127 0q0 .51.194.81.2.295.63.295.426 0 .625-.295.2-.3.2-.81t-.2-.8-.63-.29q-.43 0-.625.29t-.194.8zM5.949 57.762q.52 0 .835.37.32.37.32 1.116 0 .736-.32 1.117-.315.38-.84.38-.326 0-.541-.123-.21-.129-.331-.295H5.04q.01.091.021.23.01.14.01.242v1.181H4.61v-4.164h.378l.063.391h.02q.127-.187.332-.316.204-.129.546-.129zm-.084.397q-.43 0-.61.247-.173.247-.183.751v.091q0 .532.168.821.173.285.635.285.258 0 .42-.145.168-.145.247-.392.084-.252.084-.574 0-.494-.189-.789-.184-.295-.572-.295zM8.906 57.767q.514 0 .761.23.247.231.247.736v1.959h-.336l-.09-.408h-.02q-.184.236-.39.349-.199.112-.556.112-.383 0-.635-.204-.252-.209-.252-.649 0-.43.33-.66.331-.236 1.02-.258l.477-.016v-.171q0-.36-.152-.5t-.43-.139q-.221 0-.42.07-.2.064-.374.15l-.141-.354q.183-.102.436-.172.252-.075.525-.075zm.136 1.535q-.525.021-.73.171-.2.15-.2.424 0 .242.142.355.147.112.373.112.357 0 .594-.198.236-.204.236-.623v-.257zM12.099 57.762q.078 0 .168.01.094.006.163.022l-.058.435q-.069-.016-.153-.027-.078-.01-.152-.01-.215 0-.404.123-.19.118-.305.338-.11.214-.11.504v1.535h-.462v-2.876h.378l.052.525h.021q.137-.236.352-.407.216-.172.51-.172zM13.894 60.359q.105 0 .215-.016.11-.022.179-.043v.36q-.074.037-.21.058-.137.027-.263.027-.22 0-.41-.075-.183-.08-.299-.274-.115-.193-.115-.542V58.18h-.4v-.225l.405-.188.184-.612h.273v.66h.814v.365h-.814v1.664q0 .263.12.391.127.124.321.124zM15.086 56.737q.105 0 .184.075.084.07.084.225 0 .15-.084.226-.079.075-.184.075-.115 0-.194-.075t-.079-.226q0-.155.079-.225.079-.075.194-.075zm.226 1.079v2.876h-.462v-2.876zM16.667 60.692h-.462v-4.079h.462zM18.022 57.81q0 .214-.026.402h.031q.137-.22.368-.333.236-.112.51-.112.514 0 .771.252.257.247.257.8v1.872h-.456v-1.84q0-.693-.63-.693-.473 0-.652.274-.173.268-.173.773v1.486h-.462v-4.078h.462zM21.871 57.767q.515 0 .761.23.247.231.247.736v1.959h-.336l-.09-.408h-.02q-.184.236-.389.349-.2.112-.556.112-.384 0-.636-.204-.252-.209-.252-.649 0-.43.331-.66.33-.236 1.019-.258l.478-.016v-.171q0-.36-.153-.5t-.43-.139q-.22 0-.42.07-.2.064-.373.15l-.142-.354q.184-.102.436-.172.252-.075.525-.075zm.137 1.535q-.526.021-.73.171-.2.15-.2.424 0 .242.142.355.147.112.373.112.357 0 .593-.198.236-.204.236-.623v-.257zM24.749 60.745q-.526 0-.84-.37-.316-.376-.316-1.116t.315-1.117q.32-.38.846-.38.325 0 .53.123.21.123.342.3h.031q-.005-.07-.021-.204-.01-.14-.01-.22v-1.148h.462v4.078h-.373l-.068-.386h-.021q-.126.183-.337.311-.21.13-.54.13zm.073-.392q.446 0 .625-.247.184-.252.184-.756v-.086q0-.537-.174-.821-.173-.29-.64-.29-.373 0-.562.306-.184.3-.184.81 0 .516.184.8.189.284.567.284zM29.427 59.248q0 .714-.357 1.105-.351.392-.955.392-.373 0-.667-.172-.289-.177-.457-.51-.168-.337-.168-.815 0-.714.352-1.1.352-.386.955-.386.384 0 .673.177.294.171.456.504.168.327.168.805zm-2.126 0q0 .51.194.81.2.295.63.295.426 0 .625-.295.2-.3.2-.81t-.2-.8q-.2-.29-.63-.29t-.625.29-.194.8z"/></g><path d="m21.377 46.834 31.846-29.02" fill="none" stroke="#000" stroke-dasharray="1.5875, 0.529167" stroke-linejoin="round" stroke-width=".529"/><path d="m53.462 17.63-1.359 3.872-2.673-3.112 2.016-.38z"/><path d="M47.64.573h105.95v46.164H47.64z" fill="none" stroke="#000" stroke-width=".53"/><g stroke-width=".117" aria-label="tabela de regiões"><path d="M54.218 9.997q.093 0 .19-.014.099-.02.16-.038v.313q-.066.032-.187.05-.122.024-.233.024-.196 0-.364-.065-.163-.07-.266-.238-.102-.168-.102-.47V8.103h-.355v-.196l.36-.163.162-.532h.243v.574h.723v.317h-.723v1.445q0 .228.107.34.112.108.285.108zM56.013 7.745q.456 0 .676.2t.219.639v1.701h-.299l-.079-.354h-.019q-.163.205-.345.303-.177.098-.494.098-.34 0-.564-.177-.224-.182-.224-.564 0-.373.294-.574.294-.205.904-.223l.425-.014v-.15q0-.312-.135-.433-.136-.121-.383-.121-.196 0-.373.06-.177.056-.33.13l-.127-.307q.164-.089.387-.15.224-.064.467-.064zm.12 1.333q-.465.019-.647.15-.177.13-.177.367 0 .21.125.308.13.098.331.098.317 0 .527-.172.21-.178.21-.541v-.224zM58.093 7.605q0 .158-.01.298-.004.135-.014.214h.024q.107-.158.293-.265t.48-.108q.467 0 .746.327.285.321.285.965t-.285.97q-.284.326-.746.326-.293 0-.48-.107-.186-.107-.293-.257h-.033l-.084.317h-.294V6.742h.41zm.704.48q-.397 0-.55.228-.154.229-.154.709v.019q0 .461.149.708.154.243.564.243.336 0 .499-.247.168-.248.168-.714 0-.946-.676-.946zM61.515 7.74q.321 0 .55.14.233.14.354.396.126.251.126.592v.247h-1.711q.01.424.214.648.21.22.583.22.238 0 .42-.043.186-.046.382-.13v.359q-.191.084-.378.12-.186.043-.443.043-.354 0-.629-.145-.27-.144-.424-.429-.15-.289-.15-.704 0-.41.136-.704.14-.293.387-.452.251-.158.583-.158zm-.005.335q-.294 0-.466.191-.168.187-.2.523h1.272q-.005-.317-.15-.513-.144-.2-.456-.2zM63.59 10.286h-.41V6.742h.41zM65.329 7.745q.456 0 .676.2t.219.639v1.701h-.299l-.079-.354h-.019q-.163.205-.345.303-.177.098-.494.098-.34 0-.564-.177-.224-.182-.224-.564 0-.373.294-.574.294-.205.904-.223l.425-.014v-.15q0-.312-.135-.433-.136-.121-.383-.121-.196 0-.373.06-.177.056-.33.13l-.127-.307q.164-.089.387-.15.224-.064.467-.064zm.12 1.333q-.465.019-.647.15-.177.13-.177.367 0 .21.125.308.13.098.331.098.317 0 .527-.172.21-.178.21-.541v-.224zM69.096 10.332q-.467 0-.746-.322-.28-.327-.28-.97t.28-.97q.284-.33.75-.33.29 0 .471.107.187.107.303.26h.028q-.005-.06-.019-.177-.009-.12-.009-.19v-.998h.41v3.543h-.33l-.061-.336h-.019q-.112.159-.298.27t-.48.113zm.065-.34q.396 0 .555-.215.163-.22.163-.658v-.074q0-.466-.154-.714-.154-.251-.569-.251-.33 0-.499.265-.163.262-.163.704 0 .448.163.695.168.247.504.247zM72.042 7.74q.321 0 .55.14.233.14.354.396.126.251.126.592v.247H71.36q.01.424.214.648.21.22.583.22.238 0 .42-.043.186-.046.382-.13v.359q-.191.084-.378.12-.186.043-.443.043-.354 0-.629-.145-.27-.144-.424-.429-.15-.289-.15-.704 0-.41.136-.704.14-.293.387-.452.251-.158.583-.158zm-.005.335q-.294 0-.466.191-.168.187-.2.523h1.272q-.005-.317-.15-.513-.144-.2-.456-.2zM76.084 7.74q.07 0 .149.009.084.005.144.019l-.051.377q-.06-.014-.135-.023-.07-.01-.135-.01-.192 0-.36.108-.167.102-.27.293-.098.187-.098.439v1.333h-.41V7.786h.336l.046.457h.019q.121-.205.312-.354.191-.15.452-.15zM77.716 7.74q.321 0 .55.14.233.14.354.396.126.251.126.592v.247h-1.711q.01.424.214.648.21.22.583.22.238 0 .42-.043.186-.046.382-.13v.359q-.191.084-.378.12-.186.043-.443.043-.354 0-.629-.145-.27-.144-.424-.429-.15-.289-.15-.704 0-.41.136-.704.14-.293.387-.452.251-.158.583-.158zm-.005.335q-.294 0-.466.191-.168.187-.2.523h1.272q-.005-.317-.15-.513-.144-.2-.456-.2zM80.267 7.74q.247 0 .442.093.2.093.34.284h.024l.056-.33h.326v2.54q0 .536-.275.807-.27.27-.844.27-.55 0-.9-.158v-.378q.369.196.924.196.321 0 .503-.191.187-.187.187-.513v-.098q0-.056.004-.159.005-.107.01-.149h-.019q-.252.378-.774.378-.485 0-.76-.34-.27-.34-.27-.952 0-.596.27-.946.275-.354.756-.354zm.055.345q-.312 0-.484.251-.173.247-.173.709 0 .462.168.709.172.242.499.242.377 0 .55-.2.172-.206.172-.658V9.04q0-.513-.177-.732-.177-.223-.555-.223zM82.458 6.85q.093 0 .163.065.074.06.074.196 0 .13-.074.195-.07.066-.163.066-.103 0-.173-.066-.07-.065-.07-.195 0-.136.07-.196.07-.065.173-.065zm.2.937v2.499h-.41v-2.5zM85.624 9.032q0 .62-.318.96-.312.34-.848.34-.331 0-.592-.149-.257-.154-.406-.443-.149-.293-.149-.708 0-.62.312-.956.313-.336.849-.336.34 0 .597.154.26.15.405.438.15.285.15.7zm-1.889 0q0 .442.173.704.177.256.56.256.377 0 .554-.256.177-.262.177-.704 0-.443-.177-.695-.177-.252-.56-.252-.382 0-.554.252t-.173.695zM83.61 7.46q.028-.275.159-.433.135-.163.354-.163.14 0 .261.07.126.065.238.13.112.065.21.065.107 0 .163-.065.06-.07.093-.205h.234q-.028.27-.159.434-.13.163-.35.163-.13 0-.256-.066l-.238-.13q-.112-.07-.214-.07-.112 0-.168.07-.056.065-.089.2zM87.237 7.74q.321 0 .55.14.233.14.354.396.126.251.126.592v.247h-1.711q.01.424.214.648.21.22.583.22.238 0 .42-.043.186-.046.382-.13v.359q-.191.084-.378.12-.186.043-.443.043-.354 0-.629-.145-.27-.144-.424-.429-.15-.289-.15-.704 0-.41.136-.704.14-.293.387-.452.251-.158.583-.158zm-.005.335q-.294 0-.466.191-.168.187-.2.523h1.272q-.005-.317-.15-.513-.144-.2-.456-.2zM90.528 9.596q0 .363-.27.55-.271.186-.728.186-.261 0-.452-.042-.187-.042-.331-.116V9.8q.149.074.359.14.214.06.433.06.313 0 .452-.098.14-.102.14-.27 0-.093-.051-.168-.051-.075-.187-.15-.13-.074-.377-.167-.243-.093-.415-.187-.173-.093-.266-.223-.093-.13-.093-.336 0-.317.256-.49.261-.172.681-.172.228 0 .424.047.2.042.373.12l-.14.327q-.158-.065-.33-.112-.173-.046-.355-.046-.252 0-.387.084-.13.079-.13.219 0 .102.06.177.06.07.2.14.145.065.383.158.238.089.406.182t.256.229q.089.13.089.33z"/></g><path d="M53.423 14.894h39.534V44.11H53.423z" fill="none" stroke="#000" stroke-width=".363"/><g stroke-width=".113" aria-label="código"><path d="M66.664 19.543q-.32 0-.572-.131-.248-.13-.392-.405-.14-.275-.14-.703 0-.446.149-.725.148-.28.4-.41.257-.13.582-.13.184 0 .355.04.171.036.28.09l-.122.329q-.108-.04-.252-.077-.144-.036-.27-.036-.712 0-.712.914 0 .437.171.672.176.23.518.23.198 0 .347-.041.153-.04.28-.1v.352q-.123.063-.271.095-.144.036-.351.036zM69.956 18.286q0 .599-.307.927-.301.33-.82.33-.32 0-.571-.145-.248-.149-.392-.428-.144-.284-.144-.684 0-.6.301-.924.302-.324.82-.324.329 0 .577.149.252.144.391.423.145.275.145.676zm-1.825 0q0 .427.167.68.171.247.54.247.365 0 .536-.247.172-.253.172-.68 0-.428-.172-.672-.17-.243-.54-.243t-.536.243q-.167.244-.167.672zm1.343-2.194q-.054.081-.167.212-.113.126-.243.257-.126.126-.234.207h-.262v-.054q.068-.086.144-.203.082-.117.158-.239.077-.126.126-.225h.478zM71.438 19.543q-.45 0-.721-.311-.27-.315-.27-.937t.27-.937q.275-.32.725-.32.28 0 .455.104.18.104.293.252h.027q-.005-.058-.018-.17-.01-.118-.01-.186v-.963h.397v3.422h-.32l-.058-.324h-.018q-.108.153-.289.261-.18.109-.463.109zm.063-.33q.382 0 .536-.206.157-.212.157-.635V18.3q0-.45-.148-.69-.15-.243-.55-.243-.32 0-.482.257-.157.252-.157.68 0 .432.157.671.162.239.487.239zM73.555 16.179q.09 0 .157.063.072.058.072.189 0 .126-.072.189-.067.063-.157.063-.1 0-.167-.063-.068-.063-.068-.19 0-.13.068-.188.067-.063.167-.063zm.193.905v2.414h-.396v-2.414zM75.37 17.039q.238 0 .427.09.194.09.33.274h.022l.054-.32h.315v2.455q0 .518-.266.78-.26.26-.815.26-.531 0-.87-.153v-.364q.357.189.893.189.31 0 .486-.185.18-.18.18-.495v-.095q0-.054.005-.153.004-.104.009-.144h-.018q-.244.365-.748.365-.468 0-.734-.33-.261-.328-.261-.918 0-.576.26-.914.267-.342.73-.342zm.054.333q-.302 0-.469.243-.166.239-.166.685t.162.684q.166.234.482.234.364 0 .531-.193.167-.198.167-.635v-.095q0-.495-.171-.707-.172-.216-.536-.216zM79.383 18.286q0 .599-.307.927-.301.33-.82.33-.32 0-.571-.145-.248-.149-.392-.428-.144-.284-.144-.684 0-.6.301-.924.302-.324.82-.324.329 0 .577.149.252.144.391.423.145.275.145.676zm-1.825 0q0 .427.167.68.171.247.54.247.365 0 .536-.247.172-.253.172-.68 0-.428-.172-.672-.17-.243-.54-.243t-.536.243q-.167.244-.167.672z"/></g><g stroke-width=".114" aria-label="dados do processo pai"><path d="M63.78 25.678q-.455 0-.729-.315-.273-.32-.273-.948t.273-.948q.278-.324.734-.324.283 0 .46.105.183.105.297.255h.027q-.004-.06-.018-.173-.01-.119-.01-.187v-.976h.402v3.465h-.324l-.059-.328h-.018q-.11.155-.292.264-.182.11-.47.11zm.064-.333q.388 0 .543-.21.16-.214.16-.643v-.073q0-.455-.151-.697-.15-.246-.556-.246-.324 0-.488.26-.16.255-.16.688 0 .438.16.68.164.24.492.24zM66.643 23.148q.446 0 .66.196t.215.624v1.664h-.292l-.077-.346h-.019q-.16.2-.337.296-.173.096-.483.096-.333 0-.552-.174-.219-.177-.219-.551 0-.365.288-.56.287-.202.884-.22l.415-.013v-.146q0-.306-.132-.424-.133-.119-.374-.119-.192 0-.365.06-.173.054-.324.127l-.123-.3q.16-.087.379-.147.218-.063.456-.063zm.118 1.303q-.456.019-.634.146-.173.128-.173.36 0 .206.123.301.128.096.324.096.31 0 .515-.169.205-.173.205-.528v-.22zM69.142 25.678q-.456 0-.73-.315-.273-.32-.273-.948t.273-.948q.278-.324.734-.324.283 0 .46.105.183.105.297.255h.027q-.004-.06-.018-.173-.01-.119-.01-.187v-.976h.402v3.465h-.324l-.059-.328h-.018q-.11.155-.292.264-.182.11-.47.11zm.063-.333q.388 0 .543-.21.16-.214.16-.643v-.073q0-.455-.151-.697-.15-.246-.556-.246-.324 0-.488.26-.16.255-.16.688 0 .438.16.68.164.24.492.24zM73.203 24.406q0 .606-.31.939-.306.332-.83.332-.324 0-.58-.145-.25-.15-.396-.434-.146-.287-.146-.692 0-.607.306-.935.305-.328.83-.328.332 0 .583.15.255.146.397.429.146.278.146.684zm-1.847 0q0 .433.169.688.173.25.547.25.37 0 .542-.25.174-.255.174-.688t-.174-.68q-.173-.246-.547-.246-.373 0-.542.246-.169.246-.169.68zM75.428 24.957q0 .355-.265.537-.264.183-.711.183-.255 0-.442-.041-.183-.041-.324-.114v-.365q.146.073.351.137.21.06.424.06.306 0 .442-.097.137-.1.137-.264 0-.091-.05-.164-.05-.073-.182-.146-.128-.073-.37-.164-.237-.091-.405-.182-.17-.092-.26-.22-.091-.127-.091-.327 0-.31.25-.48.256-.168.666-.168.223 0 .415.046.196.04.364.118l-.136.32q-.155-.064-.324-.11t-.346-.046q-.247 0-.379.083-.127.077-.127.214 0 .1.059.173.059.068.196.137.141.064.374.155.232.086.396.178.164.09.25.223.088.128.088.324zM78.072 25.678q-.456 0-.73-.315-.273-.32-.273-.948t.273-.948q.278-.324.734-.324.283 0 .46.105.183.105.297.255h.027q-.004-.06-.018-.173-.01-.119-.01-.187v-.976h.402v3.465h-.324l-.059-.328h-.018q-.11.155-.292.264-.182.11-.47.11zm.063-.333q.388 0 .543-.21.16-.214.16-.643v-.073q0-.455-.151-.697-.15-.246-.556-.246-.324 0-.488.26-.16.255-.16.688 0 .438.16.68.164.24.492.24zM82.134 24.406q0 .606-.31.939-.306.332-.83.332-.324 0-.58-.145-.25-.15-.396-.434-.146-.287-.146-.692 0-.607.306-.935t.83-.328q.332 0 .583.15.255.146.397.429.146.278.146.684zm-1.847 0q0 .433.169.688.173.25.547.25.37 0 .542-.25.174-.255.174-.688t-.174-.68q-.173-.246-.547-.246t-.542.246q-.169.246-.169.68zM60.523 28.84q.45 0 .724.315.278.315.278.948 0 .625-.278.948-.273.324-.729.324-.283 0-.47-.105-.182-.11-.287-.25h-.027q.009.077.018.196.01.118.01.205v1.003h-.402v-3.538h.328l.055.333h.018q.11-.16.287-.27.178-.108.474-.108zm-.073.338q-.374 0-.53.21-.15.21-.159.638v.077q0 .452.146.698.15.241.552.241.223 0 .364-.123.146-.123.215-.332.073-.215.073-.488 0-.42-.165-.67-.16-.251-.496-.251zM63.304 28.84q.068 0 .145.01.082.004.142.018l-.05.37q-.06-.015-.133-.024-.068-.009-.132-.009-.187 0-.35.105-.165.1-.265.287-.096.183-.096.429v1.304h-.401v-2.444h.328l.046.447h.018q.118-.2.305-.347t.443-.145zM66.08 30.104q0 .606-.31.939-.306.332-.83.332-.324 0-.58-.145-.25-.15-.396-.434-.146-.287-.146-.692 0-.607.306-.935.305-.328.83-.328.332 0 .583.15.255.146.397.429.146.278.146.684zm-1.847 0q0 .433.169.688.173.25.547.25.37 0 .542-.25.174-.255.174-.688t-.174-.68q-.173-.246-.547-.246-.373 0-.542.246-.169.246-.169.68zM67.694 31.376q-.324 0-.58-.133-.25-.132-.396-.41-.141-.278-.141-.711 0-.451.15-.734t.406-.415q.26-.132.588-.132.187 0 .36.041.173.036.283.091l-.123.333q-.11-.041-.256-.078-.146-.036-.273-.036-.72 0-.72.925 0 .443.173.68.178.232.524.232.2 0 .351-.04.155-.042.283-.101v.355q-.123.064-.274.096-.146.037-.355.037zM69.846 28.84q.314 0 .537.137.228.137.347.388.123.246.123.579v.241H69.18q.01.415.21.634.205.214.57.214.232 0 .41-.04.182-.046.374-.128v.35q-.187.083-.37.12-.182.04-.433.04-.346 0-.615-.141-.265-.142-.415-.42-.146-.282-.146-.688 0-.401.132-.688.137-.287.379-.442.246-.155.57-.155zm-.005.329q-.287 0-.456.187-.164.182-.196.51h1.245q-.005-.31-.146-.501-.142-.196-.447-.196zM73.064 30.656q0 .355-.265.537t-.711.183q-.255 0-.442-.041-.183-.041-.324-.114v-.365q.146.073.351.137.21.06.424.06.306 0 .442-.097.137-.1.137-.264 0-.091-.05-.164-.05-.073-.182-.146-.128-.073-.37-.164-.237-.091-.405-.182-.17-.092-.26-.22-.091-.127-.091-.327 0-.31.25-.48.256-.168.666-.168.223 0 .415.046.196.04.364.118l-.136.32q-.155-.064-.324-.11t-.346-.046q-.247 0-.379.082-.127.078-.127.215 0 .1.059.173.059.068.196.137.141.064.374.155.232.086.396.178.164.09.25.223.088.128.088.324zM75.248 30.656q0 .355-.265.537t-.711.183q-.255 0-.442-.041-.183-.041-.324-.114v-.365q.146.073.351.137.21.06.424.06.306 0 .442-.097.137-.1.137-.264 0-.091-.05-.164-.05-.073-.182-.146-.128-.073-.37-.164-.237-.091-.405-.182-.17-.092-.26-.22-.091-.127-.091-.327 0-.31.25-.48.256-.168.666-.168.223 0 .415.046.196.04.364.118l-.136.32q-.155-.064-.324-.11t-.346-.046q-.247 0-.379.082-.127.078-.127.215 0 .1.059.173.059.068.196.137.141.064.374.155.232.086.396.178.164.09.25.223.088.128.088.324zM77.965 30.104q0 .606-.31.939-.306.332-.83.332-.324 0-.58-.145-.25-.15-.396-.434-.146-.287-.146-.692 0-.607.306-.935.305-.328.83-.328.332 0 .583.15.255.146.397.429.146.278.146.684zm-1.847 0q0 .433.169.688.173.25.547.25.37 0 .542-.25.174-.255.174-.688t-.174-.68q-.173-.246-.547-.246-.373 0-.542.246-.169.246-.169.68zM80.946 28.84q.45 0 .724.315.278.315.278.948 0 .625-.278.948-.273.324-.729.324-.283 0-.47-.105-.182-.11-.287-.25h-.027q.009.077.018.196.01.118.01.205v1.003h-.402v-3.538h.328l.055.333h.018q.11-.16.287-.27.178-.108.475-.108zm-.073.338q-.374 0-.53.21-.15.21-.159.638v.077q0 .452.146.698.15.241.552.241.223 0 .364-.123.146-.123.215-.332.073-.215.073-.488 0-.42-.165-.67-.16-.251-.496-.251zM83.512 28.846q.446 0 .66.196t.215.624v1.664h-.292l-.077-.346h-.019q-.16.2-.337.296-.173.096-.483.096-.333 0-.552-.174-.219-.177-.219-.551 0-.365.288-.56.287-.202.884-.22l.415-.013v-.146q0-.306-.132-.424-.133-.119-.374-.119-.192 0-.365.06-.173.054-.324.127l-.123-.3q.16-.087.379-.147.218-.063.456-.063zm.118 1.303q-.456.019-.634.146-.173.128-.173.36 0 .206.123.301.128.096.324.096.31 0 .515-.169.205-.173.205-.528v-.22zM85.35 27.97q.09 0 .16.064.072.06.072.192 0 .127-.073.191-.068.064-.16.064-.1 0-.168-.064-.069-.064-.069-.191 0-.132.069-.192.068-.063.169-.063zm.196.917v2.443h-.402v-2.443z"/></g><g stroke-width=".109" aria-label="pilha do processo pai"><path d="M65.688 34.153q.43 0 .691.3.266.3.266.905 0 .596-.266.905-.26.309-.696.309-.27 0-.448-.1-.174-.105-.274-.24h-.026q.008.074.017.188.009.113.009.195v.958h-.383v-3.377h.313l.052.318h.018q.104-.153.274-.257.17-.104.453-.104zm-.07.322q-.357 0-.505.2-.143.2-.152.609v.074q0 .43.14.666.143.23.526.23.213 0 .348-.117.139-.118.204-.318.07-.204.07-.465 0-.4-.157-.64-.152-.24-.474-.24zM67.45 33.322q.087 0 .152.06.07.057.07.183 0 .122-.07.183-.065.06-.152.06-.096 0-.161-.06t-.066-.183q0-.126.066-.183.065-.06.16-.06zm.187.874v2.332h-.383v-2.332zM68.76 36.529h-.383v-3.307h.383zM69.883 34.192q0 .174-.022.326h.026q.113-.178.304-.27.196-.091.423-.091.426 0 .64.204.212.2.212.649v1.518h-.378v-1.492q0-.562-.522-.562-.392 0-.54.222-.143.218-.143.627v1.205H69.5v-3.307h.383zM73.072 34.157q.426 0 .63.187.205.187.205.596v1.588h-.279l-.073-.33h-.018q-.152.19-.322.282-.165.092-.461.092-.318 0-.527-.166-.208-.17-.208-.526 0-.348.274-.536.274-.191.844-.208l.396-.013v-.14q0-.291-.126-.404-.127-.114-.357-.114-.183 0-.348.057-.166.052-.31.122l-.117-.287q.153-.083.361-.14.21-.06.436-.06zm.113 1.244q-.435.017-.605.14-.166.121-.166.343 0 .196.118.287.122.092.309.092.296 0 .492-.161.195-.166.195-.505v-.209zM76.588 36.572q-.436 0-.697-.3-.26-.305-.26-.906 0-.6.26-.905.266-.309.7-.309.27 0 .44.1.174.1.283.244h.026q-.004-.057-.017-.165-.009-.114-.009-.179v-.931h.383v3.307h-.309l-.056-.313h-.018q-.104.148-.278.252-.174.105-.448.105zm.06-.318q.37 0 .518-.2.153-.205.153-.614v-.07q0-.435-.144-.665-.144-.235-.53-.235-.31 0-.466.248-.153.244-.153.657 0 .418.153.648.156.23.47.23zM80.465 35.358q0 .578-.296.896-.292.318-.792.318-.31 0-.553-.14-.24-.143-.378-.413-.14-.274-.14-.661 0-.58.292-.892t.792-.314q.317 0 .557.144.243.14.378.409.14.265.14.653zm-1.763 0q0 .413.161.657.166.239.522.239.353 0 .518-.24.166-.243.166-.656 0-.414-.166-.649t-.522-.235-.518.235-.16.649zM61.067 39.592q.43 0 .691.3.266.3.266.905 0 .596-.266.905-.26.309-.696.309-.27 0-.448-.1-.174-.105-.274-.24h-.026q.008.074.017.188.009.113.009.195v.958h-.383v-3.377h.313l.052.318h.018q.104-.153.274-.257t.453-.104zm-.07.322q-.357 0-.505.2-.143.2-.152.609v.074q0 .43.14.666.143.23.526.23.213 0 .348-.117.139-.118.204-.318.07-.204.07-.465 0-.4-.157-.64-.152-.24-.474-.24zM63.72 39.592q.066 0 .14.008.078.005.135.018l-.048.352q-.057-.013-.126-.022-.066-.008-.127-.008-.178 0-.335.1-.156.095-.252.274-.091.174-.091.409v1.244h-.383v-2.332h.313l.043.427h.018q.113-.192.291-.331.179-.14.423-.14zM66.37 40.797q0 .578-.295.896-.292.318-.792.318-.31 0-.553-.14-.24-.143-.378-.413-.14-.274-.14-.661 0-.58.292-.892t.792-.314q.317 0 .557.144.243.14.378.409.14.265.14.653zm-1.762 0q0 .413.161.657.166.239.522.239.353 0 .518-.24.166-.243.166-.656 0-.414-.166-.649-.165-.235-.522-.235t-.518.235q-.16.235-.16.649zM67.91 42.01q-.308 0-.552-.126-.24-.126-.379-.391-.135-.266-.135-.68 0-.43.144-.7.144-.27.387-.396.248-.126.562-.126.178 0 .343.04.166.034.27.086l-.117.318q-.105-.04-.244-.074-.14-.035-.261-.035-.688 0-.688.884 0 .422.166.648.17.222.5.222.192 0 .335-.04.148-.038.27-.095v.34q-.117.06-.261.09-.14.036-.34.036zM69.965 39.592q.3 0 .513.13.218.13.33.37.118.235.118.553v.23H69.33q.009.396.2.605.196.205.544.205.222 0 .392-.04.174-.043.357-.121v.335q-.179.078-.353.113-.174.039-.413.039-.33 0-.587-.135-.253-.135-.396-.4-.14-.27-.14-.657 0-.383.126-.657.131-.275.362-.422.235-.148.544-.148zm-.005.313q-.274 0-.435.178-.157.174-.187.488h1.188q-.005-.296-.14-.479-.134-.187-.426-.187zM73.037 41.324q0 .339-.253.513-.252.174-.679.174-.243 0-.422-.04-.174-.038-.309-.108v-.348q.14.07.335.13.2.057.405.057.292 0 .422-.091.13-.096.13-.253 0-.087-.047-.156-.048-.07-.174-.14-.122-.07-.353-.156-.226-.087-.387-.174t-.248-.21q-.087-.12-.087-.312 0-.296.24-.457.243-.161.635-.161.213 0 .396.043.187.04.348.113l-.13.305q-.149-.061-.31-.104-.16-.044-.33-.044-.236 0-.362.078-.122.074-.122.205 0 .096.057.165.057.065.187.13.135.062.357.149.222.082.379.17.156.086.239.213.083.121.083.309zM75.122 41.324q0 .339-.253.513-.252.174-.679.174-.243 0-.422-.04-.174-.038-.309-.108v-.348q.14.07.335.13.2.057.405.057.292 0 .422-.091.13-.096.13-.253 0-.087-.047-.156-.048-.07-.174-.14-.122-.07-.353-.156-.226-.087-.387-.174t-.248-.21q-.087-.12-.087-.312 0-.296.24-.457.243-.161.635-.161.213 0 .396.043.187.04.348.113l-.13.305q-.149-.061-.31-.104-.16-.044-.33-.044-.236 0-.362.078-.122.074-.122.205 0 .096.057.165.057.065.187.13.135.062.357.149.222.082.379.17.156.086.239.213.083.121.083.309zM77.715 40.797q0 .578-.296.896-.292.318-.792.318-.31 0-.553-.14-.24-.143-.378-.413-.14-.274-.14-.661 0-.58.292-.892t.792-.314q.317 0 .557.144.243.14.378.409.14.265.14.653zm-1.763 0q0 .413.161.657.166.239.522.239.353 0 .518-.24.166-.243.166-.656 0-.414-.166-.649-.165-.235-.522-.235t-.518.235q-.16.235-.16.649zM80.56 39.592q.431 0 .692.3.266.3.266.905 0 .596-.266.905-.26.309-.696.309-.27 0-.448-.1-.174-.105-.274-.24h-.026q.008.074.017.188.009.113.009.195v.958h-.383v-3.377h.313l.052.318h.018q.104-.153.274-.257t.453-.104zm-.07.322q-.356 0-.504.2-.143.2-.152.609v.074q0 .43.14.666.143.23.526.23.213 0 .348-.117.139-.118.204-.318.07-.204.07-.465 0-.4-.157-.64-.152-.24-.474-.24zM83.01 39.597q.426 0 .63.187.205.187.205.596v1.588h-.279l-.073-.33h-.018q-.152.19-.322.282-.165.092-.461.092-.318 0-.527-.166-.208-.17-.208-.526 0-.348.274-.536.274-.191.844-.208l.396-.013v-.14q0-.291-.126-.404-.127-.114-.357-.114-.183 0-.348.057-.166.052-.31.122l-.117-.287q.153-.083.361-.14.21-.06.436-.06zm.113 1.244q-.435.017-.605.14-.166.121-.166.343 0 .196.118.287.122.092.309.092.296 0 .492-.161.195-.166.195-.505v-.209zM84.764 38.76q.087 0 .152.061.07.057.07.183 0 .122-.07.183-.065.06-.152.06-.096 0-.161-.06-.066-.06-.066-.183 0-.126.066-.183.065-.06.16-.06zm.187.875v2.332h-.383v-2.332z"/></g><g fill="none" stroke="#000"><path d="m53.289 21.109 39.625-.055" stroke-width=".265"/><path d="m103.602 16.674 41.145-.054" stroke-width=".27"/><path d="m53.283 32.784 39.625-.055" stroke-width=".265"/><path d="M99.802 5.86h48.862v38.058H99.802z" stroke-dasharray="1.05833, 0.264583" stroke-linejoin="round" stroke-width=".265"/><path d="M103.642 9.288h41.146v15.53h-41.146z" stroke-linejoin="round" stroke-width=".265"/></g><g stroke-width=".123" aria-label="ficheiros abertos"><path d="M106.602 12.67h-.664v2.3h-.433v-2.3h-.462v-.201l.462-.147v-.153q0-.511.227-.732.226-.226.629-.226.157 0 .285.03.132.024.226.058l-.113.34q-.079-.025-.182-.05-.103-.024-.211-.024-.217 0-.325.147-.103.143-.103.452v.172h.664zm.697-1.322q.099 0 .173.07.078.063.078.206 0 .137-.078.206-.074.069-.173.069-.108 0-.181-.069-.074-.069-.074-.206 0-.143.074-.207.073-.069.181-.069zm.212.988v2.635h-.433v-2.635zM109.402 15.02q-.35 0-.625-.143-.27-.143-.427-.442-.153-.3-.153-.767 0-.487.163-.791.162-.305.437-.448.28-.142.634-.142.202 0 .388.044.187.04.305.098l-.133.36q-.118-.045-.275-.084-.157-.04-.295-.04-.776 0-.776.998 0 .477.186.732.192.251.566.251.216 0 .378-.044.167-.044.305-.108v.383q-.133.069-.295.103-.157.04-.383.04zM111.132 12.332q0 .196-.025.368h.03q.127-.201.343-.305.222-.103.477-.103.482 0 .723.231.24.226.24.733v1.715h-.427v-1.686q0-.634-.59-.634-.442 0-.61.25-.161.246-.161.708v1.362h-.433v-3.736h.433zM114.752 12.288q.339 0 .58.147.245.147.373.418.133.265.133.624v.26h-1.804q.01.448.226.684.221.23.614.23.251 0 .443-.043.196-.05.403-.138v.378q-.202.089-.398.128-.197.044-.467.044-.374 0-.664-.152-.285-.152-.447-.452-.157-.305-.157-.742 0-.433.142-.743.148-.31.408-.476.266-.167.614-.167zm-.005.353q-.31 0-.492.202-.177.197-.211.55h1.341q-.005-.334-.157-.54-.152-.212-.482-.212zM116.732 11.349q.098 0 .172.068.078.064.078.207 0 .137-.078.206-.074.07-.172.07-.109 0-.182-.07-.074-.069-.074-.206 0-.143.074-.207.073-.068.182-.068zm.21.988v2.634h-.432v-2.634zM119.012 12.288q.073 0 .157.01.088.004.152.019l-.054.398q-.064-.015-.142-.024-.074-.01-.143-.01-.202 0-.378.113-.177.108-.286.31-.103.196-.103.461v1.406h-.432v-2.634h.354l.049.481h.02q.127-.216.329-.373t.476-.157zM122.002 13.649q0 .653-.335 1.012-.329.359-.894.359-.35 0-.624-.157-.27-.163-.428-.467-.157-.31-.157-.747 0-.654.329-1.008.33-.354.894-.354.36 0 .63.162.275.158.427.462.158.3.158.738zm-1.991 0q0 .467.182.742.187.27.59.27.398 0 .585-.27.186-.275.186-.742t-.186-.733q-.187-.265-.59-.265-.403 0-.585.265-.182.266-.182.733zM124.402 14.244q0 .383-.286.58-.285.196-.766.196-.276 0-.477-.044-.197-.044-.35-.123v-.393q.158.078.38.147.225.064.457.064.329 0 .476-.103.148-.108.148-.285 0-.098-.054-.177-.054-.079-.197-.157-.138-.079-.398-.177-.256-.099-.438-.197-.181-.098-.28-.236-.098-.137-.098-.354 0-.334.27-.516.276-.182.718-.182.24 0 .447.05.212.044.393.127l-.147.344q-.167-.068-.349-.118-.182-.049-.374-.049-.265 0-.408.089-.137.083-.137.23 0 .109.064.187.064.074.211.148.152.069.403.167.25.093.428.192.177.098.27.24.094.138.094.35zM127.312 12.292q.481 0 .712.21.231.212.231.674v1.794h-.314l-.084-.373h-.02q-.172.216-.363.32-.187.102-.521.102-.36 0-.595-.186-.236-.192-.236-.595 0-.393.31-.605.31-.216.953-.236l.447-.014v-.158q0-.329-.142-.457-.143-.127-.403-.127-.207 0-.393.063-.187.06-.35.138l-.132-.324q.172-.094.408-.158.236-.068.491-.068zm.127 1.405q-.491.02-.683.158-.187.137-.187.388 0 .221.133.324.138.103.349.103.334 0 .555-.181.222-.187.222-.57v-.236zM129.502 12.145q0 .167-.01.314-.005.143-.015.226h.024q.113-.167.31-.28.197-.113.506-.113.492 0 .787.344.3.34.3 1.017t-.3 1.023q-.3.344-.787.344-.31 0-.506-.113-.197-.113-.31-.27h-.034l-.088.334h-.31v-3.736h.432zm.742.506q-.418 0-.58.24-.162.241-.162.748v.02q0 .486.157.747.162.255.595.255.353 0 .525-.26.177-.26.177-.752 0-.998-.712-.998zM133.112 12.288q.339 0 .58.147.245.147.373.418.133.265.133.624v.26h-1.804q.01.448.226.684.221.23.614.23.251 0 .443-.043.196-.05.403-.138v.378q-.202.089-.398.128-.197.044-.467.044-.374 0-.664-.152-.285-.152-.447-.452-.157-.305-.157-.742 0-.433.142-.743.148-.31.408-.476.266-.167.614-.167zm-.005.353q-.31 0-.492.202-.177.197-.211.55h1.341q-.005-.334-.157-.54-.152-.212-.482-.212zM136.102 12.288q.073 0 .157.01.088.004.152.019l-.054.398q-.064-.015-.142-.024-.074-.01-.143-.01-.202 0-.378.113-.177.108-.286.31-.103.196-.103.461v1.406h-.432v-2.634h.354l.049.481h.02q.127-.216.329-.373t.476-.157zM137.782 14.666q.098 0 .201-.015.103-.02.167-.04v.33q-.069.034-.196.054-.128.024-.246.024-.207 0-.384-.068-.172-.074-.28-.251-.108-.177-.108-.496V12.67h-.373v-.206l.378-.172.172-.56h.256v.604h.762v.334h-.762v1.524q0 .24.113.359.118.113.3.113zM140.962 13.649q0 .653-.335 1.012-.329.359-.894.359-.35 0-.624-.157-.27-.163-.428-.467-.157-.31-.157-.747 0-.654.329-1.008.33-.354.894-.354.36 0 .63.162.275.158.427.462.158.3.158.738zm-1.991 0q0 .467.182.742.187.27.59.27.398 0 .585-.27.186-.275.186-.742t-.186-.733q-.187-.265-.59-.265t-.585.265q-.182.266-.182.733zM143.362 14.244q0 .383-.286.58-.285.196-.766.196-.276 0-.477-.044-.197-.044-.35-.123v-.393q.158.078.38.147.226.064.457.064.329 0 .476-.103.148-.108.148-.285 0-.098-.054-.177-.054-.079-.197-.157-.138-.079-.398-.177-.256-.099-.438-.197-.181-.098-.28-.236-.098-.137-.098-.354 0-.334.27-.516.276-.182.718-.182.24 0 .447.05.212.044.393.127l-.147.344q-.167-.068-.349-.118-.182-.049-.374-.049-.265 0-.408.089-.137.083-.137.23 0 .109.064.187.064.074.211.148.152.069.403.167.25.093.428.192.177.098.27.24.093.138.093.35z"/></g><g stroke-width=".118" aria-label="diretório corrente"><path d="M105.902 21.81q-.47 0-.753-.324-.282-.33-.282-.978 0-.649.282-.978.287-.334.757-.334.292 0 .475.108.188.108.306.263h.028q-.005-.06-.019-.178-.009-.123-.009-.193V18.19h.414v3.574h-.334l-.06-.339h-.02q-.113.16-.3.273t-.485.113zm.065-.343q.4 0 .56-.216.165-.221.165-.663v-.075q0-.47-.156-.72-.155-.254-.573-.254-.334 0-.504.268-.164.264-.164.71 0 .452.164.701.17.25.508.25zM108.112 18.298q.094 0 .164.065.075.062.075.198 0 .132-.075.197-.07.066-.164.066-.104 0-.174-.066-.071-.065-.071-.197 0-.136.07-.198.071-.065.175-.065zm.202.945v2.52h-.414v-2.52zM110.282 19.197q.07 0 .15.009.085.005.146.019l-.052.38q-.061-.013-.136-.023-.07-.01-.137-.01-.192 0-.362.109-.17.103-.273.296-.098.188-.098.442v1.345h-.414v-2.52h.338l.047.46h.02q.122-.207.314-.357.193-.15.456-.15zM111.932 19.197q.324 0 .554.14.236.142.358.4.127.254.127.598v.249h-1.726q.009.428.216.653.212.221.588.221.24 0 .423-.042.188-.047.386-.131v.362q-.193.084-.38.122-.189.042-.448.042-.357 0-.635-.146-.272-.145-.427-.432-.15-.292-.15-.71 0-.414.135-.71.142-.297.39-.457.255-.16.589-.16zm-.005.338q-.297 0-.47.193-.17.188-.203.527h1.284q-.005-.32-.15-.518-.146-.202-.461-.202zM114.452 21.473q.094 0 .192-.015.099-.018.16-.037v.315q-.066.033-.188.052-.122.023-.235.023-.198 0-.367-.066-.164-.07-.268-.24-.103-.169-.103-.474v-1.468h-.358v-.197l.362-.165.165-.536h.245v.579h.728v.32h-.728v1.457q0 .23.108.343.113.109.287.109zM117.502 20.499q0 .625-.32.968-.315.344-.856.344-.334 0-.597-.15-.259-.156-.41-.448-.15-.296-.15-.714 0-.626.315-.964.315-.339.856-.339.343 0 .602.155.263.15.409.442.15.287.15.706zm-1.905 0q0 .446.174.71.179.258.564.258.381 0 .56-.258.179-.264.179-.71t-.18-.701q-.178-.254-.563-.254t-.56.254q-.174.254-.174.7zm1.401-2.29q-.056.084-.174.22-.117.132-.254.269-.131.131-.244.216h-.273v-.057q.07-.089.15-.211.085-.122.165-.25.08-.131.132-.235h.498zM119.332 19.197q.07 0 .15.009.085.005.146.019l-.052.38q-.061-.013-.136-.023-.07-.01-.137-.01-.192 0-.362.109-.17.103-.273.296-.098.188-.098.442v1.345h-.414v-2.52h.338l.047.46h.02q.122-.207.314-.357.193-.15.456-.15zM120.312 18.298q.094 0 .164.065.075.062.075.198 0 .132-.075.197-.07.066-.164.066-.104 0-.174-.066-.071-.065-.071-.197 0-.136.07-.198.071-.065.175-.065zm.202.945v2.52h-.414v-2.52zM123.502 20.499q0 .625-.32.968-.315.344-.856.344-.334 0-.597-.15-.259-.156-.41-.448-.15-.296-.15-.714 0-.626.315-.964.315-.339.856-.339.343 0 .602.155.263.15.409.442.15.287.15.706zm-1.905 0q0 .446.174.71.179.258.564.258.381 0 .56-.258.179-.264.179-.71t-.18-.701q-.178-.254-.563-.254t-.56.254q-.174.254-.174.7zM126.392 21.81q-.334 0-.598-.136-.258-.136-.409-.423-.146-.287-.146-.734 0-.465.156-.757.155-.291.418-.428.268-.136.607-.136.193 0 .371.042.179.038.292.094l-.127.344q-.113-.043-.264-.08t-.282-.038q-.743 0-.743.955 0 .456.179.7.183.24.54.24.208 0 .363-.042.16-.042.291-.104v.367q-.126.066-.282.099-.15.038-.366.038zM129.822 20.499q0 .625-.32.968-.315.344-.856.344-.334 0-.597-.15-.259-.156-.41-.448-.15-.296-.15-.714 0-.626.315-.964.315-.339.856-.339.343 0 .602.155.263.15.409.442.15.287.15.706zm-1.905 0q0 .446.174.71.179.258.564.258.381 0 .56-.258.179-.264.179-.71t-.18-.701q-.178-.254-.563-.254t-.56.254q-.174.254-.174.7zM131.652 19.197q.07 0 .15.009.085.005.146.019l-.052.38q-.061-.013-.136-.023-.07-.01-.137-.01-.192 0-.362.109-.169.103-.273.296-.098.188-.098.442v1.345h-.414v-2.52h.339l.047.46h.018q.123-.207.315-.357.193-.15.457-.15zM133.592 19.197q.07 0 .15.009.085.005.146.019l-.052.38q-.061-.013-.136-.023-.07-.01-.137-.01-.192 0-.362.109-.17.103-.273.296-.098.188-.098.442v1.345h-.414v-2.52h.338l.047.46h.02q.122-.207.314-.357.193-.15.456-.15zM135.242 19.197q.324 0 .554.14.236.142.358.4.127.254.127.598v.249h-1.726q.009.428.216.653.212.221.588.221.24 0 .423-.042.188-.047.386-.131v.362q-.193.084-.38.122-.189.042-.448.042-.357 0-.635-.146-.272-.145-.427-.432-.15-.292-.15-.71 0-.414.135-.71.142-.297.39-.457.255-.16.589-.16zm-.005.338q-.297 0-.47.193-.17.188-.203.527h1.284q-.005-.32-.15-.518-.146-.202-.461-.202zM138.132 19.197q.451 0 .681.22.23.217.23.706v1.641h-.408v-1.613q0-.606-.565-.606-.418 0-.578.235-.16.235-.16.677v1.307h-.414v-2.52h.334l.061.343h.024q.122-.198.338-.292.217-.098.456-.098zM140.672 21.473q.094 0 .192-.015.099-.018.16-.037v.315q-.066.033-.188.052-.122.023-.235.023-.198 0-.367-.066-.164-.07-.268-.24-.103-.169-.103-.474v-1.468h-.358v-.197l.362-.165.165-.536h.245v.579h.728v.32h-.728v1.457q0 .23.108.343.113.109.287.109zM142.502 19.197q.324 0 .554.14.236.142.358.4.127.254.127.598v.249h-1.726q.009.428.216.653.212.221.588.221.24 0 .423-.042.188-.047.386-.131v.362q-.193.084-.38.122-.19.042-.448.042-.357 0-.635-.146-.272-.145-.427-.432-.151-.292-.151-.71 0-.414.136-.71.141-.297.39-.457.255-.16.589-.16zm-.005.338q-.297 0-.47.193-.17.188-.203.527h1.284q-.005-.32-.15-.518-.146-.202-.461-.202z"/></g><g stroke-width=".144" aria-label="região U"><path d="M114.682 28.123q.086 0 .184.011.104.006.179.023l-.064.467q-.075-.017-.167-.029-.086-.011-.167-.011-.236 0-.444.133-.208.126-.335.363-.12.23-.12.542v1.65h-.508V28.18h.415l.058.565h.023q.15-.253.386-.438.237-.184.56-.184zM116.702 28.123q.397 0 .68.173.288.173.438.49.156.311.156.732v.306h-2.116q.011.525.265.801.26.271.72.271.295 0 .52-.051.23-.058.473-.162v.444q-.237.104-.467.15-.231.052-.548.052-.439 0-.779-.179-.334-.179-.525-.53-.184-.358-.184-.871 0-.508.167-.871.173-.363.479-.56.311-.195.72-.195zm-.006.415q-.364 0-.577.236-.208.23-.248.646h1.574q-.006-.392-.184-.634-.18-.248-.565-.248zM119.852 28.123q.305 0 .547.115.248.115.421.352h.03l.068-.41h.404v3.143q0 .663-.34.998-.335.334-1.044.334-.68 0-1.113-.196v-.467q.456.242 1.142.242.398 0 .623-.236.23-.23.23-.634v-.121q0-.07.006-.197.006-.132.012-.184h-.023q-.312.467-.958.467-.6 0-.94-.421-.334-.42-.334-1.176 0-.739.334-1.171.34-.438.935-.438zm.069.426q-.387 0-.6.312-.213.305-.213.876t.207.877q.214.3.617.3.467 0 .68-.248.214-.254.214-.813v-.121q0-.635-.219-.906-.22-.277-.686-.277zM122.562 27.022q.115 0 .201.08.093.075.093.243 0 .161-.093.242-.086.08-.201.08-.127 0-.214-.08-.086-.081-.086-.242 0-.168.086-.243.087-.08.214-.08zm.247 1.159v3.09h-.507v-3.09zM124.962 28.129q.565 0 .836.248.27.248.27.79v2.104h-.368l-.098-.438h-.023q-.202.254-.427.375-.22.121-.611.121-.421 0-.698-.219-.277-.225-.277-.698 0-.461.363-.71.364-.253 1.12-.276l.524-.017v-.185q0-.386-.167-.536-.168-.15-.473-.15-.242 0-.462.075-.219.07-.41.161l-.155-.38q.202-.11.479-.185.277-.08.577-.08zm.15 1.649q-.577.023-.802.184-.22.162-.22.456 0 .26.156.38.162.122.41.122.392 0 .652-.214.259-.219.259-.669v-.276zm-1.252-2.001q.035-.34.196-.537.167-.201.438-.201.173 0 .323.086.156.08.294.162.139.08.26.08.133 0 .202-.08.075-.087.115-.254h.289q-.035.334-.197.536-.161.202-.432.202-.162 0-.317-.08-.15-.081-.294-.162-.139-.087-.266-.087-.138 0-.207.087-.07.08-.11.248zM129.722 29.72q0 .768-.393 1.189-.386.42-1.05.42-.409 0-.732-.184-.317-.19-.501-.548-.185-.363-.185-.876 0-.767.387-1.183.386-.415 1.05-.415.42 0 .737.19.323.185.502.543.185.351.185.865zm-2.336 0q0 .548.213.871.22.318.692.318.467 0 .687-.318.219-.323.219-.87t-.22-.86q-.219-.311-.691-.311-.473 0-.687.311-.213.312-.213.86zM135.222 29.819q0 .426-.173.772-.173.34-.531.542-.352.196-.9.196-.767 0-1.17-.415-.398-.42-.398-1.107v-2.653h.519v2.67q0 .502.265.779.271.277.813.277.56 0 .808-.294.253-.3.253-.767v-2.665h.514z"/></g><g stroke-width=".139" aria-label="pilha núcleo"><path d="M110.202 36.504q.548 0 .88.382.339.382.339 1.153 0 .759-.338 1.152-.333.394-.887.394-.344 0-.57-.128-.222-.133-.35-.305h-.033q.011.095.022.239t.011.249v1.22h-.487v-4.301h.399l.066.404h.022q.133-.194.35-.327.215-.133.576-.133zm-.09.41q-.454 0-.642.255-.183.254-.194.775v.095q0 .548.177.847.183.294.67.294.272 0 .444-.15.178-.15.26-.404.09-.26.09-.593 0-.51-.2-.815-.194-.304-.604-.304zM112.442 35.446q.11 0 .193.077.09.072.09.233 0 .155-.09.233-.083.077-.193.077-.122 0-.206-.077-.083-.078-.083-.233 0-.16.083-.233.084-.077.206-.077zm.238 1.113v2.97h-.488v-2.97zM114.112 39.53h-.488v-4.212h.488zM115.542 36.554q0 .221-.028.415h.033q.144-.227.388-.343.25-.117.537-.117.544 0 .815.26.272.256.272.826v1.934h-.483v-1.9q0-.715-.665-.715-.498 0-.687.282-.183.277-.183.798v1.535h-.487v-4.211h.487zM119.602 36.51q.543 0 .803.238t.26.759v2.023h-.354l-.094-.422h-.023q-.194.244-.41.36-.21.117-.587.117-.405 0-.67-.21-.267-.217-.267-.671 0-.443.35-.682.349-.243 1.075-.266l.504-.016v-.178q0-.37-.16-.515t-.455-.144q-.233 0-.444.072-.21.067-.393.155l-.15-.366q.194-.105.46-.177.266-.077.554-.077zm.144 1.584q-.555.023-.77.178-.211.155-.211.437 0 .25.15.366.155.117.393.117.377 0 .626-.205.25-.211.25-.643v-.266zM124.462 36.504q.531 0 .803.26.272.255.272.831v1.934h-.483v-1.9q0-.715-.665-.715-.493 0-.681.277-.189.277-.189.798v1.54h-.487v-2.97h.393l.072.405h.028q.144-.233.399-.344.255-.116.537-.116zM128.932 36.56v2.97h-.4l-.071-.394h-.023q-.144.233-.399.344-.255.105-.543.105-.537 0-.809-.255-.271-.26-.271-.825V36.56h.493v1.911q0 .71.66.71.493 0 .68-.277.195-.277.195-.798V36.56zm-.46-1.22q-.067.1-.205.26-.139.156-.3.317-.155.155-.288.255h-.321v-.067q.083-.105.177-.25.1-.143.194-.293.094-.155.155-.277h.588zM131.072 39.585q-.394 0-.704-.161-.305-.16-.482-.499-.172-.338-.172-.864 0-.549.183-.893.183-.343.493-.504.316-.16.715-.16.227 0 .438.05.21.044.343.11l-.15.405q-.132-.05-.31-.094-.177-.045-.332-.045-.876 0-.876 1.125 0 .538.21.826.217.282.638.282.244 0 .427-.05.188-.05.343-.121v.432q-.15.077-.332.116-.178.045-.432.045zM133.022 39.53h-.488v-4.212h.488zM135.112 36.504q.382 0 .653.166.277.166.422.47.15.3.15.705v.293h-2.035q.012.505.255.77.25.261.693.261.283 0 .499-.05.221-.055.454-.155v.427q-.227.1-.449.144-.221.05-.526.05-.421 0-.748-.172-.322-.172-.504-.51-.178-.344-.178-.837 0-.487.16-.837.167-.349.46-.537.3-.188.694-.188zm-.006.399q-.35 0-.555.227-.2.221-.238.62h1.513q-.006-.376-.177-.61-.172-.237-.543-.237zM139.672 38.039q0 .737-.377 1.141-.372.405-1.009.405-.393 0-.704-.178-.304-.183-.482-.526-.177-.35-.177-.842 0-.738.371-1.136t1.009-.4q.404 0 .71.183.31.178.481.521.178.338.178.832zm-2.245 0q0 .526.205.836.21.305.665.305.45 0 .66-.305.21-.31.21-.836t-.21-.826q-.21-.3-.665-.3-.455 0-.66.3-.205.3-.205.826z"/></g><path d="M106.592 34.022h35.336v7.707h-35.336z" fill="none" stroke="#000" stroke-linejoin="round" stroke-width=".363"/><g><path d="M47.64 64.244h105.95v46.164H47.64z" fill="none" stroke="#000" stroke-width=".53"/><g stroke-width=".117" aria-label="tabela de regiões"><path d="M54.218 73.668q.093 0 .191-.014.098-.019.159-.037v.312q-.065.033-.187.051-.12.023-.233.023-.196 0-.363-.065-.164-.07-.266-.238-.103-.167-.103-.47v-1.455h-.354v-.196l.359-.163.163-.532h.243v.574h.722v.317h-.722v1.445q0 .229.107.34.112.108.284.108zM56.013 71.416q.457 0 .676.2t.22.639v1.702h-.299l-.08-.355h-.018q-.163.206-.345.303-.177.098-.494.098-.34 0-.564-.177-.224-.182-.224-.564 0-.373.294-.573.293-.206.904-.224l.424-.014v-.15q0-.312-.135-.433t-.382-.121q-.196 0-.373.06-.177.056-.331.13l-.126-.307q.163-.088.387-.149.224-.065.466-.065zm.121 1.333q-.466.019-.648.15-.177.13-.177.368 0 .21.126.307.13.098.331.098.317 0 .527-.172.21-.177.21-.541v-.224zM58.092 71.276q0 .158-.01.298-.004.135-.013.215h.023q.107-.159.294-.266t.48-.107q.466 0 .746.326.285.322.285.965 0 .644-.285.97-.284.326-.746.326-.294 0-.48-.107t-.294-.256h-.032l-.084.317h-.294v-3.544h.41zm.704.48q-.396 0-.55.228t-.154.71v.018q0 .461.15.708.153.243.564.243.335 0 .498-.247.168-.247.168-.714 0-.946-.676-.946zM61.514 71.41q.322 0 .55.14.234.14.355.397.126.252.126.592v.247h-1.711q.009.424.214.648.21.22.583.22.238 0 .42-.043.186-.046.382-.13v.359q-.191.084-.378.121-.186.042-.443.042-.354 0-.63-.144-.27-.145-.424-.43-.149-.288-.149-.703 0-.41.135-.704.14-.294.387-.453.252-.158.583-.158zm-.004.336q-.294 0-.467.192-.168.186-.2.522h1.273q-.005-.317-.15-.513-.144-.2-.456-.2zM63.59 73.957h-.411v-3.543h.41zM65.328 71.416q.457 0 .676.2t.22.639v1.702h-.299l-.08-.355h-.018q-.163.206-.345.303-.177.098-.494.098-.34 0-.564-.177-.224-.182-.224-.564 0-.373.294-.573.293-.206.904-.224l.424-.014v-.15q0-.312-.135-.433t-.382-.121q-.196 0-.373.06-.177.056-.331.13l-.126-.307q.163-.088.387-.149.224-.065.466-.065zm.121 1.333q-.466.019-.648.15-.177.13-.177.368 0 .21.126.307.13.098.331.098.317 0 .527-.172.21-.177.21-.541v-.224zM69.095 74.004q-.466 0-.746-.322-.28-.326-.28-.97 0-.643.28-.97.285-.33.75-.33.29 0 .472.107.186.107.303.26h.028q-.005-.06-.019-.176-.01-.122-.01-.191v-.998h.411v3.543h-.33l-.061-.336h-.02q-.111.159-.298.27t-.48.113zm.066-.34q.396 0 .554-.215.163-.22.163-.657v-.075q0-.466-.153-.713-.154-.252-.57-.252-.33 0-.498.266-.163.26-.163.704 0 .447.163.694.168.247.504.247zM72.042 71.41q.322 0 .55.14.234.14.355.397.126.252.126.592v.247h-1.711q.009.424.214.648.21.22.583.22.238 0 .42-.043.186-.046.382-.13v.359q-.191.084-.378.121-.186.042-.443.042-.354 0-.63-.144-.27-.145-.424-.43-.149-.288-.149-.703 0-.41.135-.704.14-.294.387-.453.252-.158.583-.158zm-.004.336q-.294 0-.467.192-.168.186-.2.522h1.273q-.005-.317-.15-.513-.144-.2-.456-.2zM76.084 71.41q.07 0 .15.01.083.005.144.019l-.051.377q-.06-.014-.136-.023-.07-.01-.135-.01-.19 0-.359.108-.168.103-.27.294-.098.186-.098.438v1.333h-.41v-2.499h.335l.047.457h.019q.12-.205.312-.354.191-.15.452-.15zM77.716 71.41q.322 0 .55.14.234.14.355.397.126.252.126.592v.247h-1.711q.009.424.214.648.21.22.583.22.238 0 .42-.043.186-.046.382-.13v.359q-.191.084-.378.121-.186.042-.443.042-.354 0-.63-.144-.27-.145-.424-.43-.149-.288-.149-.703 0-.41.135-.704.14-.294.387-.453.252-.158.583-.158zm-.004.336q-.294 0-.467.192-.168.186-.2.522h1.273q-.005-.317-.15-.513-.144-.2-.456-.2zM80.266 71.41q.247 0 .443.094.2.093.34.284h.024l.056-.33h.326v2.54q0 .537-.275.807-.27.27-.844.27-.55 0-.9-.158v-.378q.369.196.923.196.322 0 .504-.191.187-.187.187-.513v-.098q0-.056.004-.158.005-.108.01-.15h-.02q-.25.378-.773.378-.485 0-.76-.34-.27-.34-.27-.951 0-.597.27-.947.275-.354.755-.354zm.056.346q-.312 0-.485.252-.172.247-.172.708t.168.709q.172.242.499.242.377 0 .55-.2.172-.205.172-.658v-.097q0-.513-.177-.732-.177-.224-.555-.224zM82.457 70.52q.093 0 .163.066.075.06.075.196 0 .13-.075.196-.07.065-.163.065-.102 0-.172-.065-.07-.066-.07-.196 0-.135.07-.196.07-.065.172-.065zm.2.938v2.499h-.41v-2.5zM85.623 72.703q0 .62-.317.96-.312.34-.848.34-.331 0-.592-.149-.257-.153-.406-.443-.15-.293-.15-.708 0-.62.313-.956.312-.336.849-.336.34 0 .596.154.262.15.406.438.15.285.15.7zm-1.888 0q0 .443.173.704.177.256.559.256.378 0 .555-.256.177-.261.177-.704 0-.443-.177-.695-.177-.252-.56-.252-.382 0-.554.252-.173.252-.173.695zm-.126-1.571q.028-.275.159-.434.135-.163.354-.163.14 0 .261.07.126.065.238.13.112.066.21.066.107 0 .163-.066.06-.07.093-.205h.233q-.028.27-.158.434-.13.163-.35.163-.13 0-.256-.065l-.238-.13q-.112-.07-.215-.07-.112 0-.167.07-.056.064-.09.2zM87.236 71.41q.322 0 .55.14.234.14.355.397.126.252.126.592v.247h-1.711q.009.424.214.648.21.22.583.22.238 0 .42-.043.186-.046.382-.13v.359q-.191.084-.378.121-.186.042-.443.042-.354 0-.63-.144-.27-.145-.424-.43-.149-.288-.149-.703 0-.41.135-.704.14-.294.387-.453.252-.158.583-.158zm-.004.336q-.294 0-.467.192-.168.186-.2.522h1.273q-.005-.317-.15-.513-.144-.2-.456-.2zM90.528 73.267q0 .363-.27.55-.27.186-.727.186-.262 0-.453-.042-.186-.041-.33-.116v-.373q.148.075.358.14.215.06.434.06.312 0 .452-.097.14-.103.14-.27 0-.094-.051-.169-.052-.074-.187-.149-.13-.075-.377-.168-.243-.093-.415-.186-.173-.094-.266-.224-.093-.13-.093-.336 0-.317.256-.49.261-.172.68-.172.23 0 .425.047.2.042.373.121l-.14.326q-.158-.065-.33-.111-.173-.047-.355-.047-.252 0-.387.084-.13.08-.13.219 0 .103.06.177.06.07.2.14.145.065.383.159.237.088.405.181t.257.229q.088.13.088.33z"/></g><path d="M53.422 78.565h39.534v29.216H53.422z" fill="none" stroke="#000" stroke-width=".363"/><g stroke-width=".113" aria-label="código"><path d="M66.663 83.214q-.32 0-.572-.13-.247-.131-.392-.406-.14-.275-.14-.703 0-.446.15-.725t.4-.41q.257-.13.581-.13.185 0 .356.04.171.036.28.09l-.122.329q-.108-.04-.253-.077-.144-.036-.27-.036-.711 0-.711.915 0 .437.17.67.176.23.519.23.198 0 .347-.04.153-.04.279-.1v.352q-.122.063-.27.095-.145.036-.352.036zM69.955 81.958q0 .599-.306.928-.302.328-.82.328-.32 0-.572-.144-.247-.148-.392-.428-.144-.283-.144-.684 0-.6.302-.923.302-.325.82-.325.329 0 .576.149.253.144.392.423.144.275.144.676zm-1.824 0q0 .428.167.68.17.248.54.248.365 0 .536-.248.171-.252.171-.68t-.17-.671q-.172-.243-.541-.243-.37 0-.536.243-.167.243-.167.67zm1.342-2.194q-.054.081-.166.212-.113.126-.244.257-.126.126-.234.207h-.26v-.054q.067-.086.143-.203.081-.117.158-.238.076-.127.126-.226h.477zM71.437 83.214q-.45 0-.72-.311-.27-.315-.27-.937 0-.621.27-.937.274-.32.725-.32.279 0 .455.104.18.104.292.252h.027q-.004-.058-.018-.17-.009-.118-.009-.185v-.964h.397v3.423h-.32l-.059-.325h-.018q-.108.154-.288.262-.18.108-.464.108zm.063-.329q.383 0 .536-.207.158-.212.158-.635v-.072q0-.45-.149-.69-.148-.243-.55-.243-.319 0-.481.257-.158.252-.158.68 0 .433.158.671.162.239.486.239zM73.554 79.85q.09 0 .158.063.072.058.072.189 0 .126-.072.19-.068.062-.158.062-.099 0-.166-.063-.068-.063-.068-.189 0-.13.068-.19.067-.062.166-.062zm.194.905v2.414h-.396v-2.414zM75.37 80.71q.238 0 .427.09.194.09.329.275h.022l.054-.32h.316v2.454q0 .518-.266.78-.261.26-.815.26-.532 0-.87-.152v-.365q.356.19.892.19.311 0 .487-.186.18-.18.18-.495v-.095q0-.054.004-.153.005-.103.01-.144h-.019q-.243.365-.747.365-.469 0-.734-.329-.262-.329-.262-.919 0-.576.262-.914.265-.342.73-.342zm.053.333q-.301 0-.468.243-.167.239-.167.685 0 .446.162.684.167.235.482.235.365 0 .532-.194.166-.198.166-.635v-.095q0-.495-.17-.707-.172-.216-.537-.216zM79.382 81.958q0 .599-.306.928-.302.328-.82.328-.32 0-.572-.144-.247-.148-.392-.428-.144-.283-.144-.684 0-.6.302-.923.302-.325.82-.325.329 0 .576.149.253.144.392.423.144.275.144.676zm-1.824 0q0 .428.167.68.17.248.54.248.365 0 .536-.248.171-.252.171-.68t-.17-.671q-.172-.243-.541-.243-.37 0-.536.243-.167.243-.167.67z"/></g><g stroke-width=".114" aria-label="dados do processo pai"><path d="M63.78 89.349q-.456 0-.73-.315-.273-.319-.273-.948t.274-.948q.278-.324.734-.324.282 0 .46.105.183.105.297.255h.027q-.005-.059-.018-.173-.01-.118-.01-.187v-.975h.402v3.464h-.324l-.06-.328h-.017q-.11.155-.292.264-.183.11-.47.11zm.064-.333q.388 0 .543-.21.16-.214.16-.642v-.073q0-.456-.151-.698-.15-.246-.557-.246-.323 0-.487.26-.16.255-.16.688 0 .438.16.68.164.241.492.241zM66.643 86.819q.447 0 .661.196.214.196.214.624v1.664h-.291l-.078-.346h-.018q-.16.2-.337.296-.174.096-.484.096-.332 0-.551-.173-.219-.178-.219-.552 0-.365.287-.56.287-.201.885-.22l.414-.013v-.146q0-.305-.132-.424t-.374-.119q-.191 0-.364.06-.173.054-.324.127l-.123-.3q.16-.087.378-.146.22-.064.456-.064zm.119 1.304q-.456.018-.634.145-.173.128-.173.36 0 .206.123.301.128.096.324.096.31 0 .515-.168.205-.174.205-.53v-.218zM69.141 89.349q-.456 0-.73-.315-.273-.319-.273-.948t.274-.948q.278-.324.734-.324.282 0 .46.105.183.105.297.255h.027q-.005-.059-.018-.173-.01-.118-.01-.187v-.975h.402v3.464h-.324l-.06-.328h-.017q-.11.155-.292.264-.183.11-.47.11zm.064-.333q.388 0 .543-.21.16-.214.16-.642v-.073q0-.456-.151-.698-.15-.246-.557-.246-.323 0-.487.26-.16.255-.16.688 0 .438.16.68.164.241.492.241zM73.203 88.077q0 .606-.31.939-.305.333-.83.333-.323 0-.578-.146-.251-.15-.397-.433-.146-.287-.146-.693 0-.606.306-.935.305-.328.83-.328.332 0 .583.15.255.146.396.429.146.278.146.684zm-1.846 0q0 .433.169.688.173.25.547.25.369 0 .542-.25.173-.255.173-.688t-.173-.68q-.173-.246-.547-.246-.374 0-.542.247-.169.246-.169.679zM75.427 88.629q0 .355-.264.538-.265.182-.711.182-.256 0-.442-.041-.183-.041-.324-.114v-.365q.146.073.35.137.21.06.425.06.305 0 .442-.096.137-.1.137-.265 0-.09-.05-.164-.05-.073-.183-.146-.127-.073-.369-.164-.237-.091-.406-.182-.168-.091-.26-.219-.09-.128-.09-.328 0-.31.25-.479.255-.169.666-.169.223 0 .414.046.196.041.365.119l-.137.319q-.155-.064-.323-.11-.169-.045-.347-.045-.246 0-.378.082-.128.077-.128.214 0 .1.06.173.059.069.196.137.14.064.373.155.233.087.397.178.164.09.25.223.087.128.087.324zM78.071 89.349q-.456 0-.73-.315-.273-.319-.273-.948t.274-.948q.278-.324.734-.324.282 0 .46.105.183.105.297.255h.027q-.005-.059-.018-.173-.01-.118-.01-.187v-.975h.402v3.464h-.324l-.06-.328h-.017q-.11.155-.292.264-.183.11-.47.11zm.064-.333q.388 0 .543-.21.16-.214.16-.642v-.073q0-.456-.151-.698-.15-.246-.557-.246-.323 0-.487.26-.16.255-.16.688 0 .438.16.68.164.241.492.241zM82.133 88.077q0 .606-.31.939-.305.333-.83.333-.323 0-.578-.146-.251-.15-.397-.433-.146-.287-.146-.693 0-.606.306-.935.305-.328.83-.328.332 0 .583.15.255.146.396.429.146.278.146.684zm-1.846 0q0 .433.169.688.173.25.547.25.369 0 .542-.25.173-.255.173-.688t-.173-.68q-.173-.246-.547-.246-.374 0-.542.247-.169.246-.169.679zM60.523 92.51q.452 0 .725.314.278.315.278.949 0 .624-.278.948-.273.323-.73.323-.282 0-.469-.104-.182-.11-.287-.251h-.027q.009.077.018.196.009.118.009.205v1.003h-.401v-3.538h.328l.055.333h.018q.11-.16.287-.269.178-.11.474-.11zm-.073.337q-.374 0-.529.21-.15.21-.16.638v.078q0 .45.147.697.15.242.551.242.224 0 .365-.123.146-.124.214-.333.073-.215.073-.488 0-.42-.164-.67-.16-.25-.497-.25zM63.304 92.51q.069 0 .146.009.082.005.141.018l-.05.37q-.059-.014-.132-.024-.068-.009-.132-.009-.187 0-.351.105-.164.1-.265.287-.095.183-.095.429v1.304h-.401v-2.444h.328l.045.447h.019q.118-.2.305-.346.187-.146.442-.146zM66.08 93.78q0 .606-.31.939-.305.333-.83.333-.323 0-.578-.146-.251-.15-.397-.433-.146-.287-.146-.693 0-.606.306-.935.305-.328.83-.328.332 0 .583.15.255.146.396.429.146.278.146.684zm-1.846 0q0 .433.169.688.173.25.547.25.369 0 .542-.25.173-.255.173-.688 0-.433-.173-.68-.173-.246-.547-.246t-.542.247q-.169.246-.169.679zM67.693 95.05q-.323 0-.579-.132-.25-.133-.396-.41-.142-.279-.142-.712 0-.451.15-.734.151-.282.407-.415.26-.132.588-.132.186 0 .36.041.173.037.282.091l-.123.333q-.11-.04-.255-.077t-.274-.037q-.72 0-.72.926 0 .442.173.679.178.232.525.232.2 0 .35-.04.156-.042.283-.101v.356q-.123.063-.273.095-.146.037-.356.037zM69.845 92.51q.315 0 .538.137.228.136.347.387.123.246.123.579v.242H69.18q.009.414.21.633.205.214.57.214.232 0 .41-.04.182-.046.373-.128v.35q-.187.083-.369.12-.182.04-.433.04-.346 0-.615-.14-.265-.142-.415-.42-.146-.283-.146-.689 0-.4.132-.688.137-.287.378-.442.247-.155.57-.155zm-.004.328q-.288 0-.456.187-.164.182-.196.51h1.244q-.004-.31-.146-.501-.14-.196-.446-.196zM73.063 94.33q0 .355-.264.538-.265.182-.711.182-.256 0-.442-.04-.183-.042-.324-.115v-.365q.146.073.35.137.21.06.425.06.305 0 .442-.096.137-.1.137-.265 0-.09-.05-.164-.05-.073-.183-.146-.127-.073-.369-.164-.237-.09-.406-.182-.168-.091-.26-.219-.09-.128-.09-.328 0-.31.25-.479.255-.168.666-.168.223 0 .414.045.196.041.365.119l-.137.319q-.155-.064-.323-.11-.169-.045-.347-.045-.246 0-.378.082-.128.077-.128.214 0 .1.06.173.059.069.196.137.14.064.373.155.233.087.397.178t.25.223q.087.128.087.324zM75.247 94.33q0 .355-.264.538-.265.182-.711.182-.256 0-.442-.04-.183-.042-.324-.115v-.365q.146.073.35.137.21.06.425.06.305 0 .442-.096.137-.1.137-.265 0-.09-.05-.164-.05-.073-.183-.146-.127-.073-.369-.164-.237-.09-.406-.182-.168-.091-.26-.219-.09-.128-.09-.328 0-.31.25-.479.255-.168.666-.168.223 0 .414.045.196.041.365.119l-.137.319q-.155-.064-.323-.11-.169-.045-.347-.045-.246 0-.378.082-.128.077-.128.214 0 .1.06.173.059.069.195.137.142.064.374.155.233.087.397.178t.25.223q.087.128.087.324zM77.964 93.78q0 .606-.31.939-.305.333-.83.333-.323 0-.578-.146-.251-.15-.397-.433-.146-.287-.146-.693 0-.606.306-.935.305-.328.83-.328.332 0 .583.15.255.146.396.429.146.278.146.684zm-1.846 0q0 .433.169.688.173.25.547.25.369 0 .542-.25.173-.255.173-.688 0-.433-.173-.68-.173-.246-.547-.246t-.542.247q-.169.246-.169.679zM80.945 92.51q.452 0 .725.314.278.315.278.949 0 .624-.278.948-.273.323-.73.323-.282 0-.469-.104-.182-.11-.287-.251h-.027q.009.077.018.196.009.118.009.205v1.003h-.401v-3.538h.328l.055.333h.018q.11-.16.287-.269.178-.11.474-.11zm-.073.337q-.374 0-.529.21-.15.21-.16.638v.078q0 .45.147.697.15.242.551.242.224 0 .365-.123.146-.124.214-.333.073-.215.073-.488 0-.42-.164-.67-.16-.25-.497-.25zM83.512 92.52q.447 0 .661.196.214.196.214.624v1.664h-.291l-.078-.346H84q-.16.2-.337.296-.174.096-.484.096-.332 0-.551-.173-.219-.178-.219-.552 0-.365.287-.56.287-.201.885-.22l.414-.013v-.146q0-.306-.132-.424-.132-.119-.374-.119-.191 0-.364.06-.173.054-.324.127l-.123-.3q.16-.087.378-.146.22-.064.456-.064zm.119 1.304q-.456.018-.634.145-.173.128-.173.36 0 .206.123.301.128.096.324.096.31 0 .515-.168.205-.174.205-.53v-.218zM85.35 91.642q.09 0 .159.064.073.059.073.191 0 .128-.073.192-.069.063-.16.063-.1 0-.168-.063-.069-.064-.069-.192 0-.132.069-.191.068-.064.168-.064zm.195.916v2.443h-.4v-2.443z"/></g><g stroke-width=".109" aria-label="pilha do processo filho"><path d="M65.687 97.82q.431 0 .692.3.266.3.266.905 0 .596-.266.905-.261.31-.696.31-.27 0-.448-.1-.174-.105-.274-.24h-.027q.01.074.018.187.009.113.009.196v.957h-.383v-3.377h.313l.052.318h.018q.104-.152.274-.257.17-.104.452-.104zm-.07.322q-.356 0-.504.2-.144.2-.152.61v.073q0 .43.139.666.143.23.526.23.214 0 .348-.117.14-.117.205-.318.07-.204.07-.465 0-.4-.157-.64-.152-.24-.474-.24zM67.45 96.99q.086 0 .152.06.07.057.07.183 0 .122-.07.183-.066.061-.153.061-.095 0-.16-.06-.066-.062-.066-.184 0-.126.065-.182.066-.061.161-.061zm.186.874v2.333h-.383v-2.333zM68.76 100.2h-.384v-3.307h.383zM69.882 97.86q0 .174-.022.326h.027q.113-.178.304-.27.196-.091.422-.091.427 0 .64.204.213.2.213.649v1.518h-.378v-1.492q0-.561-.523-.561-.391 0-.54.222-.143.217-.143.626v1.205H69.5V96.89h.383zM73.071 97.83q.427 0 .631.187.205.187.205.596v1.588h-.279l-.074-.33h-.017q-.152.191-.322.282-.166.092-.461.092-.318 0-.527-.166-.209-.17-.209-.526 0-.348.274-.535.274-.192.845-.21l.395-.012v-.14q0-.291-.126-.404-.126-.113-.357-.113-.182 0-.348.056-.165.052-.309.122l-.117-.287q.152-.083.361-.14.209-.06.435-.06zm.113 1.244q-.435.018-.604.14-.166.121-.166.343 0 .196.118.287.122.092.309.092.296 0 .491-.161.196-.165.196-.505v-.209zM76.587 100.24q-.435 0-.696-.3-.261-.305-.261-.906 0-.6.261-.905.265-.309.7-.309.27 0 .44.1.174.1.283.244h.026q-.004-.056-.017-.165-.01-.113-.01-.179v-.93h.384v3.306h-.31l-.056-.313h-.017q-.105.148-.279.252t-.448.105zm.061-.318q.37 0 .518-.2.152-.205.152-.614v-.07q0-.434-.143-.665-.144-.235-.531-.235-.31 0-.466.248-.152.244-.152.657 0 .418.152.649.157.23.47.23zM80.464 99.03q0 .579-.296.896-.291.318-.792.318-.309 0-.552-.14-.24-.143-.379-.413-.139-.274-.139-.661 0-.579.292-.892.291-.314.791-.314.318 0 .557.144.244.14.379.41.14.265.14.652zm-1.762 0q0 .413.16.657.166.24.523.24.353 0 .518-.24.165-.244.165-.657t-.165-.649q-.165-.235-.522-.235t-.518.235q-.161.235-.161.649zM59.654 103.26q.431 0 .692.3.266.3.266.905 0 .596-.266.905-.261.31-.696.31-.27 0-.448-.1-.174-.105-.274-.24H58.9q.01.074.018.187.009.113.009.196v.957h-.383v-3.377h.313l.052.318h.018q.104-.152.274-.257.17-.104.452-.104zm-.07.322q-.356 0-.504.2-.144.2-.152.61v.073q0 .43.139.666.143.23.526.23.214 0 .348-.117.14-.117.205-.318.07-.204.07-.465 0-.4-.157-.64-.152-.24-.474-.24zM62.308 103.26q.066 0 .14.009.078.004.134.017l-.047.353q-.057-.013-.127-.022-.065-.01-.126-.01-.178 0-.335.1-.157.097-.252.275-.092.174-.092.41v1.244h-.383v-2.333h.314l.043.427h.018q.113-.192.291-.331.179-.14.422-.14zM64.958 104.47q0 .579-.296.896-.291.318-.792.318-.309 0-.552-.14-.24-.143-.379-.413-.139-.274-.139-.661 0-.579.292-.892.291-.314.791-.314.318 0 .557.144.244.14.379.41.14.265.14.652zm-1.762 0q0 .413.16.657.166.24.523.24.353 0 .518-.24.165-.244.165-.657 0-.414-.165-.649-.165-.235-.522-.235t-.518.235q-.161.235-.161.649zM66.5 105.68q-.31 0-.553-.126-.24-.127-.379-.392-.135-.265-.135-.679 0-.43.144-.7.143-.27.387-.396.248-.127.561-.127.179 0 .344.04.165.034.27.087l-.118.317q-.104-.039-.243-.074-.14-.034-.261-.034-.688 0-.688.883 0 .422.165.648.17.222.5.222.192 0 .336-.04.148-.038.27-.095v.34q-.118.06-.261.091-.14.035-.34.035zM68.552 103.26q.3 0 .514.13.217.13.33.37.118.235.118.553v.23h-1.597q.009.396.2.605.196.205.544.205.222 0 .392-.04.174-.043.356-.121v.335q-.178.078-.352.113-.174.04-.413.04-.331 0-.588-.136-.252-.135-.396-.4-.139-.27-.139-.657 0-.383.126-.657.13-.274.361-.422.235-.148.544-.148zm-.004.313q-.274 0-.435.179-.157.174-.187.487h1.187q-.004-.296-.139-.479-.135-.187-.426-.187zM71.625 105q0 .34-.252.513t-.679.174q-.244 0-.422-.039-.174-.04-.309-.109v-.348q.14.07.335.13.2.057.405.057.291 0 .422-.091.13-.096.13-.252 0-.087-.048-.157-.047-.07-.174-.14-.121-.069-.352-.156-.226-.087-.387-.174t-.248-.209q-.087-.122-.087-.313 0-.296.239-.457.244-.161.635-.161.213 0 .396.043.187.04.348.114l-.13.304q-.148-.06-.31-.104-.16-.044-.33-.044-.235 0-.361.079-.122.074-.122.204 0 .096.057.165.056.066.187.13.135.062.357.149.222.083.378.17.157.087.24.213.082.122.082.309zM73.71 105q0 .34-.253.513-.253.174-.679.174-.244 0-.422-.039-.174-.04-.309-.109v-.348q.14.07.335.13.2.057.405.057.291 0 .422-.091.13-.096.13-.252 0-.087-.048-.157-.047-.07-.174-.14-.121-.069-.352-.156-.226-.087-.387-.174t-.248-.209q-.087-.122-.087-.313 0-.296.239-.457.244-.161.635-.161.213 0 .396.043.187.04.348.114l-.13.304q-.148-.06-.31-.104-.16-.044-.33-.044-.235 0-.361.079-.122.074-.122.204 0 .096.057.165.056.066.187.13.135.062.357.149.222.083.378.17t.24.213q.082.122.082.309zM76.302 104.47q0 .579-.296.896-.291.318-.792.318-.309 0-.552-.14-.24-.143-.379-.413-.139-.274-.139-.661 0-.579.292-.892.291-.314.791-.314.318 0 .557.144.244.14.379.41.14.265.14.652zm-1.762 0q0 .413.16.657.166.24.523.24.353 0 .518-.24.165-.244.165-.657 0-.414-.165-.649-.165-.235-.522-.235t-.518.235q-.161.235-.161.649zM79.113 103.6h-.587v2.036h-.383V103.6h-.41v-.179l.41-.13v-.135q0-.453.2-.648.2-.2.557-.2.14 0 .252.026.118.021.2.052l-.1.3q-.07-.022-.16-.044-.092-.021-.188-.021-.191 0-.287.13-.091.127-.091.4v.153h.587zm.618-1.17q.087 0 .152.06.07.057.07.183 0 .122-.07.183-.065.06-.152.06-.096 0-.16-.06-.066-.061-.066-.183 0-.126.065-.183.065-.06.161-.06zm.187.874v2.332h-.383v-2.332zM81.041 105.64h-.383v-3.307h.383zM82.163 103.3q0 .174-.022.326h.027q.113-.178.304-.27.196-.091.422-.091.427 0 .64.204.213.2.213.649v1.518h-.378v-1.492q0-.561-.523-.561-.391 0-.54.222-.143.217-.143.626v1.205h-.383v-3.307h.383zM86.497 104.47q0 .579-.296.896-.291.318-.792.318-.309 0-.552-.14-.24-.143-.379-.413-.139-.274-.139-.661 0-.579.292-.892.291-.314.791-.314.318 0 .557.144.244.14.379.41.14.265.14.652zm-1.762 0q0 .413.16.657.166.24.523.24.353 0 .518-.24.165-.244.165-.657 0-.414-.165-.649-.165-.235-.522-.235t-.518.235q-.161.235-.161.649z"/></g><g fill="none" stroke="#000"><path d="m53.288 84.78 39.625-.054" stroke-width=".265"/><path d="m103.606 80.345 41.145-.054" stroke-width=".27"/><path d="m53.282 96.46 39.625-.054" stroke-width=".265"/><path d="M99.796 69.53h48.862v38.059H99.796z" stroke-dasharray="1.05833, 0.264583" stroke-linejoin="round" stroke-width=".265"/><path d="M103.636 72.959h41.146v15.53h-41.146z" stroke-linejoin="round" stroke-width=".265"/></g><g stroke-width=".123" aria-label="ficheiros abertos"><path d="M106.596 76.342h-.663v2.3h-.433v-2.3h-.462v-.202l.462-.147v-.153q0-.51.226-.732.226-.226.63-.226.157 0 .284.03.133.024.227.058l-.113.34q-.08-.025-.182-.05-.104-.024-.212-.024-.216 0-.324.147-.103.143-.103.453v.172h.663zm.698-1.322q.098 0 .172.068.079.064.079.207 0 .137-.079.206-.073.07-.172.07-.108 0-.182-.07-.073-.069-.073-.206 0-.143.073-.207.074-.068.182-.068zm.212.988v2.634h-.433v-2.634zM109.396 78.692q-.349 0-.624-.143-.27-.142-.428-.442-.152-.3-.152-.767 0-.486.162-.791t.438-.447q.28-.143.634-.143.201 0 .388.044.187.04.305.099l-.133.358q-.118-.044-.275-.083-.157-.04-.295-.04-.777 0-.777.998 0 .477.187.733.192.25.565.25.217 0 .379-.044.167-.044.305-.108v.383q-.133.07-.295.103-.158.04-.384.04zM111.136 76.003q0 .196-.024.368h.03q.127-.201.343-.304.221-.104.477-.104.482 0 .722.231.241.227.241.733v1.715h-.427v-1.686q0-.634-.59-.634-.442 0-.61.251-.162.246-.162.708v1.361h-.432v-3.735h.432zM114.756 75.959q.34 0 .58.147.246.148.374.418.132.265.132.624v.26h-1.803q.01.448.226.684.22.231.614.231.25 0 .442-.044.197-.05.403-.138v.379q-.201.088-.398.127-.196.045-.467.045-.373 0-.663-.153-.285-.152-.447-.452-.158-.305-.158-.742 0-.433.143-.742.147-.31.408-.477.265-.167.614-.167zm-.005.354q-.31 0-.491.201-.177.197-.212.55h1.342q-.005-.334-.157-.54-.152-.211-.482-.211zM116.736 75.02q.099 0 .172.069.079.064.079.206 0 .138-.079.206-.073.07-.172.07-.108 0-.182-.07-.073-.068-.073-.206 0-.142.073-.206.074-.07.182-.07zm.212.988v2.634h-.433v-2.634zM119.006 75.959q.074 0 .158.01.088.005.152.02l-.054.397q-.064-.014-.143-.024-.073-.01-.142-.01-.202 0-.379.113-.177.108-.285.31-.103.196-.103.462v1.405h-.433v-2.634h.354l.05.482h.02q.127-.217.328-.374t.477-.157zM121.996 77.32q0 .654-.334 1.012-.33.36-.895.36-.349 0-.624-.158-.27-.162-.427-.467-.158-.31-.158-.747 0-.654.33-1.008.329-.354.894-.354.359 0 .63.163.275.157.427.462.157.3.157.737zm-1.99 0q0 .467.181.742.187.27.59.27.398 0 .585-.27.187-.275.187-.742 0-.467-.187-.733-.187-.265-.59-.265-.403 0-.584.265-.182.266-.182.733zM124.396 77.915q0 .383-.285.58-.285.196-.767.196-.275 0-.476-.044-.197-.044-.35-.123v-.393q.158.079.38.148.225.063.456.063.33 0 .477-.103.147-.108.147-.285 0-.098-.054-.177-.054-.078-.196-.157-.138-.079-.398-.177-.256-.098-.438-.197-.182-.098-.28-.236-.098-.137-.098-.353 0-.335.27-.517.275-.181.718-.181.24 0 .447.049.211.044.393.128l-.147.344q-.167-.07-.35-.118-.181-.05-.373-.05-.265 0-.408.089-.137.083-.137.23 0 .11.063.188.064.073.212.147.152.069.403.167.25.094.427.192t.27.24q.094.138.094.35zM127.316 75.964q.482 0 .713.211.231.212.231.674v1.794h-.315l-.083-.374h-.02q-.172.216-.364.32-.186.103-.52.103-.36 0-.595-.187-.236-.192-.236-.595 0-.393.31-.604.309-.217.953-.236l.447-.015v-.157q0-.33-.142-.457t-.403-.128q-.207 0-.394.064-.186.059-.349.137l-.132-.324q.172-.094.408-.157.236-.07.491-.07zm.128 1.406q-.491.02-.683.157-.187.137-.187.388 0 .221.133.324.137.104.349.104.334 0 .555-.182.221-.187.221-.57v-.236zM129.506 75.816q0 .167-.01.314-.005.143-.014.226h.024q.113-.167.31-.28.196-.113.506-.113.492 0 .786.344.3.34.3 1.018 0 .678-.3 1.022t-.786.344q-.31 0-.506-.113-.197-.113-.31-.27h-.034l-.089.334h-.31v-3.735h.433zm.742.506q-.417 0-.58.24t-.162.748v.02q0 .486.158.747.162.255.594.255.354 0 .526-.26.177-.26.177-.752 0-.998-.713-.998zM133.116 75.959q.34 0 .58.147.246.148.374.418.132.265.132.624v.26H132.4q.01.448.226.684.22.231.614.231.25 0 .442-.044.197-.05.403-.138v.379q-.201.088-.398.127-.196.045-.467.045-.373 0-.663-.153-.285-.152-.447-.452-.158-.305-.158-.742 0-.433.143-.742.147-.31.408-.477.265-.167.614-.167zm-.005.354q-.31 0-.491.201-.177.197-.212.55h1.342q-.005-.334-.157-.54-.152-.211-.482-.211zM136.096 75.959q.074 0 .158.01.088.005.152.02l-.054.397q-.064-.014-.143-.024-.073-.01-.142-.01-.202 0-.379.113-.177.108-.285.31-.103.196-.103.462v1.405h-.433v-2.634h.354l.05.482h.02q.127-.217.328-.374t.477-.157zM137.776 78.338q.099 0 .202-.015.103-.02.167-.04v.33q-.069.034-.197.054-.128.025-.245.025-.207 0-.384-.07-.172-.073-.28-.25-.108-.177-.108-.496v-1.534h-.374v-.206l.379-.172.172-.56h.255v.604h.762v.334h-.762v1.524q0 .24.113.359.118.113.3.113zM140.966 77.32q0 .654-.334 1.012-.33.36-.895.36-.349 0-.624-.158-.27-.162-.427-.467-.158-.31-.158-.747 0-.654.33-1.008.329-.354.894-.354.359 0 .63.163.275.157.427.462.157.3.157.737zm-1.99 0q0 .467.181.742.187.27.59.27.398 0 .585-.27.187-.275.187-.742 0-.467-.187-.733-.187-.265-.59-.265t-.584.265q-.182.266-.182.733zM143.366 77.915q0 .383-.285.58-.285.196-.767.196-.275 0-.476-.044-.197-.044-.35-.123v-.393q.158.079.38.148.225.063.456.063.33 0 .477-.103.147-.108.147-.285 0-.098-.054-.177-.054-.078-.196-.157-.138-.079-.398-.177-.256-.098-.438-.197-.182-.098-.28-.236-.098-.137-.098-.353 0-.335.27-.517.275-.181.718-.181.24 0 .447.049.211.044.393.128l-.147.344q-.167-.07-.35-.118-.181-.05-.373-.05-.265 0-.408.089-.137.083-.137.23 0 .11.063.188.064.073.212.147.152.069.403.167.25.094.427.192t.27.24q.094.138.094.35z"/></g><g stroke-width=".118" aria-label="diretório corrente"><path d="M105.896 85.482q-.47 0-.752-.325-.282-.329-.282-.978t.282-.978q.287-.334.757-.334.291 0 .475.108.188.109.306.264h.028q-.005-.061-.019-.179-.009-.122-.009-.193v-1.006h.414v3.574h-.334l-.061-.339h-.019q-.113.16-.301.273-.188.113-.484.113zm.066-.343q.4 0 .56-.217.164-.22.164-.663v-.075q0-.47-.155-.72-.155-.254-.574-.254-.334 0-.503.269-.164.263-.164.71 0 .451.164.7.17.25.508.25zM108.106 81.97q.094 0 .165.066.075.06.075.197 0 .132-.075.198-.07.065-.165.065-.103 0-.174-.065-.07-.066-.07-.198 0-.136.07-.197.07-.066.174-.066zm.202.945v2.52h-.413v-2.52zM110.286 82.868q.07 0 .15.01.085.004.146.018l-.051.38q-.061-.013-.137-.023-.07-.009-.136-.009-.193 0-.362.108-.17.104-.273.296-.099.189-.099.442v1.345h-.413v-2.52h.338l.047.46h.02q.121-.206.314-.357.193-.15.456-.15zM111.936 82.868q.325 0 .555.14.235.142.358.4.127.255.127.598v.25h-1.726q.009.427.216.653.212.22.588.22.24 0 .423-.042.188-.047.386-.131v.362q-.193.084-.381.122-.188.042-.447.042-.357 0-.635-.145-.273-.146-.428-.433-.15-.292-.15-.71 0-.414.136-.71.141-.296.39-.456.254-.16.588-.16zm-.005.338q-.296 0-.47.193-.17.188-.202.527h1.284q-.005-.32-.15-.517-.147-.203-.462-.203zM114.456 85.144q.094 0 .193-.014.099-.02.16-.038v.315q-.066.033-.188.052-.122.023-.235.023-.198 0-.367-.065-.165-.071-.268-.24-.104-.17-.104-.475v-1.467h-.357v-.198l.362-.165.165-.536h.244v.579h.73v.32h-.73v1.457q0 .23.108.344.113.108.287.108zM117.496 84.17q0 .625-.32.969-.315.343-.855.343-.334 0-.598-.15-.258-.156-.409-.447-.15-.297-.15-.715 0-.626.315-.964t.856-.339q.343 0 .602.155.263.15.409.442.15.287.15.706zm-1.904 0q0 .447.174.71.178.259.564.259.381 0 .56-.26.178-.262.178-.71 0-.446-.178-.7-.179-.254-.565-.254t-.56.254q-.173.254-.173.7zm1.401-2.29q-.056.084-.174.22-.117.132-.254.269-.131.131-.244.216h-.273v-.056q.07-.09.15-.212.085-.122.165-.25.08-.13.132-.234h.498zM119.326 82.868q.07 0 .15.01.085.004.147.018l-.052.38q-.061-.013-.137-.023-.07-.009-.136-.009-.193 0-.362.108-.17.104-.273.296-.098.189-.098.442v1.345h-.414v-2.52h.338l.047.46h.02q.121-.206.314-.357.193-.15.456-.15zM120.306 81.97q.094 0 .165.066.075.06.075.197 0 .132-.075.198-.07.065-.165.065-.103 0-.174-.065-.07-.066-.07-.198 0-.136.07-.197.07-.066.174-.066zm.202.945v2.52h-.413v-2.52zM123.496 84.17q0 .625-.32.969-.315.343-.855.343-.334 0-.598-.15-.258-.156-.409-.447-.15-.297-.15-.715 0-.626.315-.964t.856-.339q.343 0 .602.155.263.15.409.442.15.287.15.706zm-1.904 0q0 .447.174.71.178.259.564.259.38 0 .56-.26.178-.262.178-.71 0-.446-.178-.7t-.565-.254-.56.254q-.173.254-.173.7zM126.386 85.482q-.334 0-.597-.137-.259-.136-.41-.423-.145-.287-.145-.733 0-.466.155-.758.155-.291.419-.427.268-.137.606-.137.193 0 .372.043.179.037.292.094l-.127.343q-.113-.042-.264-.08-.15-.038-.282-.038-.743 0-.743.955 0 .456.179.7.183.24.54.24.207 0 .363-.042.16-.042.291-.103v.366q-.127.066-.282.1-.15.037-.367.037zM129.826 84.17q0 .625-.32.969-.315.343-.855.343-.334 0-.598-.15-.258-.156-.409-.447-.15-.297-.15-.715 0-.626.315-.964t.856-.339q.343 0 .602.155.263.15.409.442.15.287.15.706zm-1.904 0q0 .447.174.71.178.259.564.259.381 0 .56-.26.178-.262.178-.71 0-.446-.178-.7t-.565-.254-.56.254q-.173.254-.173.7zM131.656 82.868q.07 0 .15.01.085.004.146.018l-.051.38q-.061-.013-.137-.023-.07-.009-.136-.009-.193 0-.362.108-.17.104-.273.296-.099.189-.099.442v1.345h-.413v-2.52h.338l.047.46h.02q.121-.206.314-.357.193-.15.456-.15zM133.596 82.868q.07 0 .15.01.085.004.146.018l-.051.38q-.061-.013-.137-.023-.07-.009-.136-.009-.193 0-.362.108-.17.104-.273.296-.098.189-.098.442v1.345h-.414v-2.52h.338l.047.46h.02q.121-.206.314-.357.193-.15.456-.15zM135.246 82.868q.325 0 .555.14.235.142.358.4.127.255.127.598v.25h-1.726q.009.427.216.653.212.22.588.22.24 0 .423-.042.188-.047.386-.131v.362q-.193.084-.381.122-.188.042-.447.042-.357 0-.635-.145-.273-.146-.428-.433-.15-.292-.15-.71 0-.414.136-.71.141-.296.39-.456.254-.16.588-.16zm-.005.338q-.296 0-.47.193-.17.188-.202.527h1.284q-.005-.32-.15-.517-.147-.203-.462-.203zM138.136 82.868q.452 0 .682.22.23.217.23.706v1.641h-.409v-1.613q0-.606-.564-.606-.418 0-.578.235-.16.235-.16.677v1.307h-.414v-2.52h.334l.061.343h.023q.123-.197.34-.291.215-.1.455-.1zM140.666 85.144q.094 0 .193-.014.099-.02.16-.038v.315q-.066.033-.188.052-.122.023-.235.023-.198 0-.367-.065-.165-.071-.268-.24-.104-.17-.104-.475v-1.467h-.357v-.198l.362-.165.165-.536h.244v.579h.73v.32h-.73v1.457q0 .23.108.344.113.108.287.108zM142.496 82.868q.325 0 .555.14.235.142.358.4.127.255.127.598v.25h-1.726q.009.427.216.653.212.22.588.22.24 0 .423-.042.188-.047.386-.131v.362q-.193.084-.381.122-.188.042-.447.042-.357 0-.635-.145-.273-.146-.428-.433-.15-.292-.15-.71 0-.414.136-.71.141-.296.39-.456.254-.16.588-.16zm-.005.338q-.296 0-.47.193-.17.188-.202.527h1.284q-.005-.32-.15-.517-.147-.203-.462-.203z"/></g><g stroke-width=".144" aria-label="região U"><path d="M114.686 91.795q.087 0 .185.011.104.006.179.023l-.064.468q-.075-.018-.167-.03-.087-.01-.167-.01-.237 0-.444.132-.208.127-.335.363-.121.23-.121.542v1.65h-.507v-3.092h.415l.057.566h.024q.15-.254.386-.439.236-.184.56-.184zM116.696 91.795q.398 0 .68.173.29.173.439.49.156.311.156.732v.306h-2.117q.012.525.266.802.26.27.72.27.295 0 .52-.051.23-.058.472-.162v.444q-.236.104-.467.15-.23.052-.548.052-.438 0-.778-.179-.335-.178-.525-.53-.184-.358-.184-.87 0-.508.167-.872.173-.363.478-.56.312-.195.721-.195zm-.006.415q-.363 0-.576.236-.208.231-.248.646h1.574q-.006-.392-.185-.634-.178-.248-.565-.248zM119.856 91.795q.306 0 .548.115.248.115.421.352h.029l.07-.41h.403v3.143q0 .664-.34.998-.335.335-1.044.335-.68 0-1.113-.196v-.468q.455.243 1.142.243.397 0 .622-.237.231-.23.231-.634v-.121q0-.07.006-.196.006-.133.012-.185h-.024q-.311.467-.957.467-.6 0-.94-.42-.334-.422-.334-1.177 0-.738.334-1.17.34-.44.934-.44zm.07.427q-.387 0-.6.311-.214.306-.214.877t.208.876q.213.3.617.3.467 0 .68-.248.214-.254.214-.813v-.121q0-.635-.22-.906-.218-.276-.686-.276zM122.566 90.693q.116 0 .202.08.092.076.092.243 0 .161-.092.242-.086.08-.202.08-.127 0-.213-.08-.087-.08-.087-.242 0-.167.087-.242.086-.081.213-.081zm.248 1.159v3.09h-.507v-3.09zM124.966 91.8q.565 0 .836.248t.271.79v2.105h-.369l-.098-.439h-.023q-.202.254-.426.375-.22.121-.612.121-.42 0-.698-.219-.276-.225-.276-.698 0-.46.363-.709.363-.254 1.119-.277l.525-.017v-.185q0-.386-.168-.536-.167-.15-.473-.15-.242 0-.46.075-.22.07-.41.162l-.156-.38q.202-.11.479-.185.276-.081.576-.081zm.15 1.65q-.577.022-.801.184-.22.161-.22.455 0 .26.156.38.162.122.41.122.392 0 .651-.213.26-.22.26-.67v-.276zm-1.251-2.002q.034-.34.196-.536.167-.202.438-.202.173 0 .323.086.156.081.294.162.139.08.26.08.132 0 .202-.08.075-.087.115-.254h.288q-.034.335-.196.536-.161.202-.432.202-.162 0-.318-.08-.15-.081-.294-.162-.138-.086-.265-.086-.138 0-.208.086-.069.08-.11.248zM129.716 93.39q0 .767-.392 1.188-.386.42-1.05.42-.409 0-.732-.184-.317-.19-.502-.548-.184-.363-.184-.876 0-.767.386-1.182.387-.416 1.05-.416.42 0 .738.19.323.185.502.543.184.352.184.865zm-2.335 0q0 .548.213.87.22.318.692.318.467 0 .686-.317.22-.323.22-.871t-.22-.86q-.219-.31-.692-.31t-.686.31q-.213.312-.213.86zM135.216 93.49q0 .427-.173.773-.173.34-.53.542-.352.196-.9.196-.767 0-1.17-.415-.399-.421-.399-1.108v-2.652h.52v2.67q0 .501.265.778.27.277.813.277.56 0 .807-.294.254-.3.254-.767v-2.664h.513z"/></g><g stroke-width=".139" aria-label="pilha núcleo"><path d="M110.196 100.18q.549 0 .881.382.338.383.338 1.153 0 .759-.338 1.152-.332.394-.886.394-.344 0-.571-.128-.222-.133-.35-.304h-.032q.01.094.022.238.01.144.01.25v1.218h-.487v-4.3h.4l.066.405h.022q.133-.194.35-.327.215-.133.575-.133zm-.088.41q-.455 0-.643.255-.183.255-.194.776v.094q0 .548.177.848.183.293.67.293.272 0 .444-.15.177-.149.26-.404.09-.26.09-.593 0-.51-.2-.814-.194-.305-.604-.305zM112.446 99.12q.111 0 .194.077.089.072.089.233 0 .155-.089.233-.083.077-.194.077-.122 0-.205-.077-.083-.078-.083-.233 0-.16.083-.233.083-.077.205-.077zm.239 1.114v2.97h-.488v-2.97zM114.106 103.2h-.487v-4.212h.487zM115.536 100.23q0 .221-.027.415h.033q.144-.227.388-.343.249-.117.537-.117.543 0 .815.26.271.256.271.827v1.934h-.482v-1.901q0-.715-.665-.715-.499 0-.687.283-.183.277-.183.798v1.535h-.487v-4.212h.487zM119.606 100.18q.543 0 .804.238.26.238.26.76v2.022h-.354l-.095-.421h-.022q-.194.244-.41.36-.21.116-.587.116-.405 0-.67-.21-.267-.216-.267-.67 0-.444.35-.682.348-.244 1.074-.266l.505-.017v-.177q0-.372-.161-.516t-.455-.144q-.232 0-.443.072-.21.067-.393.155l-.15-.365q.194-.106.46-.178.266-.077.554-.077zm.144 1.585q-.554.022-.77.177-.21.155-.21.438 0 .25.15.365.154.117.393.117.376 0 .626-.205.25-.21.25-.643v-.266zM124.456 100.18q.532 0 .804.26.271.255.271.831v1.934h-.482v-1.9q0-.715-.665-.715-.493 0-.681.277t-.189.798v1.54h-.487v-2.97h.393l.072.405h.028q.144-.233.399-.344.255-.116.537-.116zM128.936 100.23v2.97h-.399l-.072-.393h-.022q-.144.232-.399.343-.255.105-.543.105-.538 0-.809-.254-.272-.26-.272-.826v-1.945h.494v1.912q0 .709.66.709.492 0 .68-.277.195-.277.195-.798v-1.546zm-.46-1.22q-.066.1-.205.261-.138.155-.299.316-.155.155-.288.255h-.322v-.067q.084-.105.178-.249.1-.144.194-.294.094-.155.155-.277h.587zM131.066 103.26q-.393 0-.704-.16-.304-.162-.482-.5-.171-.338-.171-.864 0-.549.182-.892t.494-.505q.316-.16.714-.16.228 0 .438.05.21.044.344.11l-.15.405q-.133-.05-.31-.094t-.333-.044q-.875 0-.875 1.124 0 .538.21.826.217.283.638.283.244 0 .426-.05.189-.05.344-.122v.432q-.15.078-.333.116-.177.045-.432.045zM133.026 103.2h-.487v-4.212h.487zM135.116 100.18q.383 0 .654.166.277.166.421.471.15.3.15.704v.294h-2.034q.011.504.255.77.25.26.693.26.282 0 .499-.05.221-.055.454-.155v.427q-.227.1-.449.144-.222.05-.526.05-.422 0-.748-.172-.322-.172-.505-.51-.177-.343-.177-.837 0-.487.16-.836.167-.35.46-.538.3-.188.693-.188zm-.006.399q-.349 0-.554.227-.2.222-.238.62h1.513q-.006-.376-.178-.609-.171-.238-.543-.238zM139.676 101.71q0 .737-.377 1.141-.37.405-1.008.405-.394 0-.704-.178-.305-.182-.482-.526-.177-.35-.177-.842 0-.737.371-1.136.371-.4 1.009-.4.404 0 .709.184.31.177.482.52.177.339.177.832zm-2.244 0q0 .526.205.837.21.304.665.304.449 0 .66-.304.21-.31.21-.837 0-.527-.21-.826-.211-.3-.666-.3t-.659.3q-.205.3-.205.826z"/></g><path d="M106.596 97.69h35.336v7.708h-35.336z" fill="none" stroke="#000" stroke-linejoin="round" stroke-width=".363"/><path d="M172.686 10.376h17.716v41.406h-17.716z" fill="none" stroke="#000" stroke-linejoin="round" stroke-width=".322"/><g stroke-width=".119" aria-label="tabela de ficheiros"><path d="M172.276 3.318q.095 0 .195-.014.1-.02.162-.038v.318q-.067.033-.19.052-.124.024-.238.024-.2 0-.37-.066-.167-.072-.272-.243t-.104-.48V1.388h-.362v-.2l.366-.166.167-.542h.247v.584h.737v.324h-.737V2.86q0 .233.11.347.113.11.29.11zM174.106 1.022q.466 0 .69.205t.223.65v1.736h-.304l-.081-.361h-.019q-.166.209-.352.309-.18.1-.504.1-.347 0-.575-.181-.228-.185-.228-.575 0-.38.3-.585.299-.21.922-.228l.432-.015v-.152q0-.318-.138-.442-.138-.123-.39-.123-.2 0-.38.061-.18.057-.337.134l-.129-.314q.167-.09.395-.152.228-.067.475-.067zm.124 1.36q-.476.019-.661.152-.18.133-.18.375 0 .214.128.314.133.1.337.1.324 0 .537-.176.214-.18.214-.551v-.229zM176.226.88q0 .161-.01.304-.005.138-.014.218h.024q.11-.161.3-.27t.489-.11q.475 0 .76.333.29.328.29.984 0 .656-.29.989t-.76.333q-.3 0-.49-.11t-.3-.261h-.033l-.085.323h-.3V0h.419zm.718.49q-.404 0-.56.232t-.158.723v.019q0 .47.152.722.157.248.576.248.342 0 .508-.252.171-.252.171-.728 0-.965-.689-.965zM179.716 1.017q.328 0 .561.143.238.143.362.404.128.257.128.604v.252h-1.745q.01.432.219.66.214.224.594.224.243 0 .428-.043.19-.047.39-.133v.366q-.195.086-.385.124-.19.043-.452.043-.361 0-.642-.148-.275-.147-.432-.437-.152-.295-.152-.718 0-.418.137-.718.143-.3.395-.461.257-.162.594-.162zm-.005.343q-.3 0-.475.194-.171.19-.205.533h1.298q-.005-.323-.152-.523-.147-.204-.466-.204zM181.826 3.613h-.418V0h.418zM183.606 1.022q.466 0 .69.205.223.204.223.65v1.736h-.304l-.081-.361h-.019q-.166.209-.352.309-.18.1-.504.1-.347 0-.575-.181-.228-.185-.228-.575 0-.38.3-.585.299-.21.922-.228l.432-.015v-.152q0-.318-.138-.442-.138-.123-.39-.123-.2 0-.38.061-.18.057-.337.134l-.129-.314q.167-.09.395-.152.228-.067.475-.067zm.124 1.36q-.476.019-.661.152-.18.133-.18.375 0 .214.128.314.133.1.337.1.324 0 .537-.176.214-.18.214-.551v-.229zM187.446 3.66q-.475 0-.76-.327-.286-.333-.286-.99 0-.655.286-.988.29-.337.765-.337.295 0 .48.109.19.11.31.266h.028q-.005-.062-.02-.18-.01-.124-.01-.195V0h.419v3.613h-.338l-.061-.342h-.02q-.113.162-.304.276t-.49.114zm.067-.346q.404 0 .566-.219.166-.223.166-.67v-.076q0-.476-.157-.728-.157-.256-.58-.256-.337 0-.509.27-.166.267-.166.718 0 .457.166.709.172.252.514.252zM190.446 1.017q.328 0 .561.143.238.143.362.404.128.257.128.604v.252h-1.745q.01.432.219.66.214.224.594.224.243 0 .428-.043.19-.047.39-.133v.366q-.195.086-.385.124-.19.043-.452.043-.361 0-.642-.148-.275-.147-.432-.437-.152-.295-.152-.718 0-.418.137-.718.143-.3.395-.461.257-.162.594-.162zm-.005.343q-.3 0-.475.194-.171.19-.205.533h1.298q-.005-.323-.152-.523-.147-.204-.466-.204zM173.456 7.33h-.642v2.226h-.418V7.33h-.447v-.195l.447-.143v-.147q0-.495.219-.708.218-.22.608-.22.152 0 .276.03.128.023.219.056l-.11.328q-.076-.023-.176-.047-.1-.024-.204-.024-.21 0-.314.143-.1.138-.1.437v.167h.642zm.675-1.278q.095 0 .167.067.076.061.076.2 0 .132-.076.199-.072.066-.167.066-.104 0-.176-.066-.07-.067-.07-.2 0-.138.07-.2.072-.066.176-.066zm.205.956v2.548h-.419V7.008zM176.166 9.603q-.337 0-.604-.138-.261-.138-.413-.428-.147-.29-.147-.742 0-.47.156-.765.157-.295.424-.433.27-.137.613-.137.195 0 .375.042.181.038.295.095l-.128.347q-.114-.042-.266-.08t-.286-.038q-.75 0-.75.965 0 .46.18.708.185.242.546.242.21 0 .367-.042.161-.043.294-.105v.37q-.128.067-.285.1-.152.039-.37.039zM177.836 7.003q0 .19-.024.356h.029q.124-.195.333-.294.214-.1.46-.1.467 0 .7.223.233.219.233.709v1.659h-.414v-1.63q0-.614-.57-.614-.428 0-.59.242-.157.238-.157.685v1.317h-.418V5.943h.418zM181.346 6.96q.328 0 .561.142.238.143.362.405.128.256.128.603v.252h-1.745q.01.433.219.661.214.223.594.223.243 0 .428-.042.19-.048.39-.133v.366q-.195.085-.385.123-.19.043-.452.043-.361 0-.642-.147-.275-.148-.432-.438-.152-.294-.152-.718 0-.418.137-.717.143-.3.395-.462.257-.161.594-.161zm-.005.342q-.3 0-.475.195-.171.19-.205.532h1.298q-.005-.323-.152-.522-.147-.205-.466-.205zM183.256 6.052q.095 0 .167.066.076.062.076.2 0 .133-.076.2-.072.066-.167.066-.104 0-.176-.066-.071-.067-.071-.2 0-.138.071-.2.072-.066.176-.066zm.205.955v2.548h-.419V7.007zM185.456 6.96q.072 0 .152.01.086.004.148.018l-.053.385q-.061-.014-.137-.023-.072-.01-.138-.01-.195 0-.366.11-.171.104-.276.299-.1.19-.1.447v1.36h-.418V7.006h.342l.048.466h.019q.123-.209.318-.361t.461-.152zM188.356 8.277q0 .632-.323.98-.319.346-.865.346-.338 0-.604-.152-.261-.157-.414-.452-.152-.3-.152-.722 0-.632.319-.975t.865-.342q.347 0 .609.157.266.152.413.447.152.29.152.713zm-1.925 0q0 .451.176.718.18.261.57.261.385 0 .566-.261.18-.267.18-.718t-.18-.709-.57-.256-.566.256q-.176.257-.176.709zM190.676 8.852q0 .37-.275.56-.276.19-.742.19-.266 0-.461-.042-.19-.043-.338-.119v-.38q.152.076.366.143.219.061.442.061.319 0 .462-.1.142-.104.142-.275 0-.095-.052-.171-.052-.076-.19-.152-.133-.076-.385-.172-.248-.095-.423-.19-.176-.095-.271-.228-.096-.133-.096-.342 0-.323.262-.5.266-.175.694-.175.233 0 .433.047.204.043.38.124l-.143.333q-.161-.067-.337-.114-.176-.048-.362-.048-.256 0-.394.086-.133.08-.133.223 0 .105.062.18.061.072.204.143.147.067.39.162.242.09.413.185.172.095.262.233.09.133.09.338z"/></g><path d="M173.166 72.53h17.73v38.025h-17.73z" fill="none" stroke="#000" stroke-linejoin="round" stroke-width=".308"/><g stroke-width=".119" aria-label="tabela de inodes"><path d="M172.766 65.479q.095 0 .195-.014.1-.02.162-.038v.318q-.067.033-.19.052-.124.024-.238.024-.2 0-.37-.066-.167-.072-.272-.243t-.104-.48v-1.483h-.362v-.2l.366-.166.167-.542h.247v.584h.737v.324h-.737v1.473q0 .233.11.347.113.11.29.11zM174.596 63.182q.466 0 .69.204t.223.652v1.735h-.304l-.081-.362h-.019q-.166.21-.352.31-.18.1-.504.1-.347 0-.575-.181-.228-.186-.228-.576 0-.38.3-.584.299-.21.922-.229l.432-.014v-.152q0-.318-.138-.442t-.39-.124q-.2 0-.38.062-.18.057-.337.133l-.129-.314q.167-.09.395-.152.228-.066.475-.066zm.124 1.36q-.476.018-.661.152-.18.133-.18.375 0 .214.128.314.133.1.337.1.324 0 .537-.176.214-.18.214-.552v-.228zM176.716 63.04q0 .161-.01.304-.005.138-.014.219h.024q.11-.162.3-.271t.489-.11q.475 0 .76.333.29.328.29.984t-.29.99q-.29.332-.76.332-.3 0-.49-.11t-.3-.26h-.033l-.085.322h-.3V62.16h.419zm.718.49q-.404 0-.56.232t-.158.723v.019q0 .47.152.723.157.247.576.247.342 0 .508-.252.171-.252.171-.727 0-.966-.689-.966zM180.206 63.178q.328 0 .561.142.238.143.362.405.128.256.128.603v.252h-1.745q.01.433.219.661.214.223.594.223.243 0 .428-.042.19-.048.39-.133v.366q-.195.085-.385.123-.19.043-.452.043-.361 0-.642-.147-.275-.148-.432-.438-.152-.294-.152-.718 0-.418.137-.717.143-.3.395-.462.257-.161.594-.161zm-.005.342q-.3 0-.475.195-.171.19-.205.532h1.298q-.005-.323-.152-.522-.147-.205-.466-.205zM182.326 65.773h-.418V62.16h.418zM184.096 63.182q.466 0 .69.204t.223.652v1.735h-.304l-.081-.362h-.019q-.166.21-.352.31-.18.1-.504.1-.347 0-.575-.181-.228-.186-.228-.576 0-.38.3-.584.299-.21.922-.229l.432-.014v-.152q0-.318-.138-.442t-.39-.124q-.2 0-.38.062-.18.057-.337.133l-.129-.314q.167-.09.395-.152.228-.066.475-.066zm.124 1.36q-.476.018-.661.152-.18.133-.18.375 0 .214.128.314.133.1.337.1.324 0 .537-.176.214-.18.214-.552v-.228zM187.936 65.82q-.475 0-.76-.327-.286-.333-.286-.99t.286-.988q.29-.337.765-.337.295 0 .48.109.19.11.31.266h.028q-.005-.062-.02-.18-.01-.124-.01-.195V62.16h.419v3.613h-.338l-.061-.342h-.02q-.113.162-.304.276t-.49.114zm.067-.346q.404 0 .566-.219.166-.223.166-.67v-.076q0-.476-.157-.728-.157-.256-.58-.256-.337 0-.509.27-.166.267-.166.718 0 .457.166.709.172.252.514.252zM190.946 63.178q.328 0 .561.142.238.143.362.405.128.256.128.603v.252h-1.745q.01.433.219.661.214.223.594.223.243 0 .428-.042.19-.048.39-.133v.366q-.195.085-.385.123-.19.043-.452.043-.361 0-.642-.147-.275-.148-.432-.438-.152-.294-.152-.718 0-.418.137-.717.143-.3.395-.462.257-.161.594-.161zm-.005.342q-.3 0-.475.195-.171.19-.205.532h1.298q-.005-.323-.152-.522-.147-.205-.466-.205zM175.036 68.212q.095 0 .167.066.076.062.076.2 0 .133-.076.2-.072.066-.167.066-.104 0-.176-.066-.071-.067-.071-.2 0-.138.071-.2.072-.066.176-.066zm.205.955v2.548h-.419v-2.548zM177.276 69.12q.457 0 .69.223.233.219.233.713v1.66h-.414v-1.631q0-.613-.57-.613-.424 0-.585.237-.162.238-.162.685v1.321h-.418v-2.548h.337l.062.347h.024q.123-.2.342-.294.219-.1.461-.1zM181.196 70.437q0 .632-.323.98-.319.346-.865.346-.338 0-.604-.152-.261-.157-.414-.452-.152-.3-.152-.722 0-.632.319-.975.318-.342.865-.342.347 0 .609.157.266.152.413.447.152.29.152.713zm-1.925 0q0 .451.176.718.18.261.57.261.385 0 .566-.261.18-.267.18-.718t-.18-.709q-.18-.256-.57-.256-.39 0-.566.256t-.176.709zM182.766 71.763q-.475 0-.76-.328-.286-.333-.286-.99t.286-.988q.29-.337.765-.337.295 0 .48.109.19.11.31.266h.028q-.005-.062-.02-.18-.01-.124-.01-.195v-1.018h.419v3.613h-.338l-.061-.342h-.02q-.113.162-.304.276t-.49.114zm.067-.347q.404 0 .566-.219.166-.223.166-.67v-.076q0-.476-.157-.728-.157-.256-.58-.256-.337 0-.509.27-.166.267-.166.718 0 .457.166.709.172.252.514.252zM185.766 69.12q.328 0 .561.142.238.143.362.405.128.256.128.603v.252h-1.745q.01.433.219.661.214.223.594.223.243 0 .428-.042.19-.048.39-.133v.366q-.195.085-.385.123-.19.043-.452.043-.361 0-.642-.147-.275-.148-.432-.438-.152-.294-.152-.718 0-.418.137-.717.143-.3.395-.462.257-.161.594-.161zm-.005.342q-.3 0-.475.195-.171.19-.205.532h1.298q-.005-.323-.152-.522-.147-.205-.466-.205zM189.126 71.012q0 .37-.275.56t-.742.19q-.266 0-.461-.042-.19-.043-.338-.119v-.38q.152.076.366.143.219.061.442.061.319 0 .462-.1.142-.104.142-.275 0-.095-.052-.171-.052-.076-.19-.152-.133-.076-.385-.172-.248-.095-.423-.19t-.271-.228q-.096-.133-.096-.342 0-.323.262-.5.266-.175.694-.175.233 0 .433.047.204.043.38.124l-.143.333q-.161-.067-.337-.114-.176-.048-.362-.048-.256 0-.394.086-.133.08-.133.223 0 .105.062.18.061.072.204.143.147.067.39.162.242.09.413.185.172.095.262.233.09.133.09.338z"/></g><path d="M195.146 27.41c13.607 48.623.348 62.85.348 62.85" fill="none" stroke="#000" stroke-width=".265"/><path d="m194.693 91.481.282-3.537 2.923 2.013z"/><g fill="none" stroke="#000" stroke-width=".265"><path d="m148.656 9.864 23.786 11.095" stroke-dasharray="0.265, 0.265"/><g stroke-dasharray="0.264583, 0.264583"><path d="m148.656 9.864 23.994 15.789M148.656 9.864l24.011 21.972M148.656 9.864l24.19 28.716M148.656 9.864l23.845 33.85M148.656 9.864l23.914 37.729M139.216 69.435l33.228-48.476M139.216 69.435l33.436-43.782M139.216 69.435l33.453-37.6M139.216 69.435l33.632-30.856M139.216 69.435l33.287-25.72M139.216 69.435l33.356-21.842"/></g></g></g><path d="m29.13 64.369 24.068 18.508" fill="none" stroke="#000" stroke-dasharray="1.11509, 0.371698" stroke-linejoin="round" stroke-width=".372"/><path d="m53.368 83.021-4.041-.71 2.636-3.145.702 1.928z"/></svg>