<svg height="512" viewBox="0 0 64 64" width="512" xmlns="http://www.w3.org/2000/svg"><path d="M12 3h46v50H12z" fill="#2d75bb"/><path d="M12 3h46v34H12zM10 53h48v8H10a4 4 0 0 1-4-4 4 4 0 0 1 4-4z" fill="#fcec97"/><path d="M9 56h49v2H9zM6 57a4 4 0 0 1 4-4h2V3a6 6 0 0 0-6 6z" fill="#f1c056"/><path d="M36 34c-5.932 0-6-8.632-6-9 0-2.854-.74-11-4-11s-4 8.146-4 11h-2c0-1.331.168-13 6-13s6 11.669 6 13c0 .069.06 7 4 7s4-6.93 4-7c0-1.5.193-9 4-9s4 7.5 4 9c0 .048.05 5 3 5v2c-3.955 0-5-4.579-5-7 0-3.311-.824-7-2-7-1.288 0-2 4.139-2 7 0 .368-.068 9-6 9z" fill="#e4544f"/><path d="M18 24h33v2H18z" fill="#2d75bb"/><path d="m37.293 7.293-1.96 1.96-1.626-1.627-1.414 1.415 1.626 1.626-1.626 1.626 1.414 1.414 5-5z" fill="#7fc99d"/><path d="M40 8h4v2h-4zM40 12h4v2h-4z" fill="#2d75bb"/><path d="M52 14h-6V6h2v2h4zm-4-2h2v-2h-2zM22.707 29.707l-1.414-1.414L20 29.586l-1.293-1.293-1.414 1.414L18.586 31l-1.293 1.293 1.414 1.414L20 32.414l1.293 1.293 1.414-1.414L21.414 31z" fill="#7fc99d"/><g fill="#2d75bb"><path d="M25 28h4v2h-4zM25 32h4v2h-4zM17 6h2v10h-2z"/><path d="M15 8h13v2H15zM50 20h2v2h-2zM53 16h2v2h-2z"/></g><path d="M20 41h30v8H20z" fill="#f1c056"/><path d="M15 40h2v2h-2zM15 48h2v2h-2zM53 40h2v2h-2zM53 48h2v2h-2z" fill="#fcec97"/></svg>