<svg xmlns="http://www.w3.org/2000/svg" viewBox="0 0 512 512" style="enable-background:new 0 0 512 512" xml:space="preserve"><path d="M503.706 175.827a8.294 8.294 0 0 0 0-16.588h-53.633v-27.646h53.633a8.294 8.294 0 0 0 0-16.588h-53.633V96.76c0-19.207-15.627-34.834-34.834-34.834h-18.246V8.294a8.294 8.294 0 0 0-16.588 0v53.633H352.76V8.294a8.294 8.294 0 0 0-16.588 0v53.633h-27.646V8.294a8.294 8.294 0 0 0-16.588 0v53.633h-27.646V8.294a8.294 8.294 0 0 0-16.586 0v53.633H220.06V8.294a8.294 8.294 0 0 0-16.588 0v53.633h-27.646V8.294a8.294 8.294 0 0 0-16.588 0v53.633h-27.646V8.294a8.294 8.294 0 0 0-16.588 0v53.633H96.76c-19.207 0-34.834 15.626-34.834 34.834v18.246H8.294a8.294 8.294 0 0 0 0 16.587h53.633v27.646H8.294a8.294 8.294 0 0 0 0 16.588h53.633v27.646H8.294a8.294 8.294 0 0 0 0 16.588h53.633v27.646H8.294a8.294 8.294 0 0 0 0 16.586h53.633v27.646H8.294a8.294 8.294 0 0 0 0 16.588h53.633v27.646H8.294a8.294 8.294 0 0 0 0 16.588h53.633v27.646H8.294a8.294 8.294 0 0 0 0 16.588h53.633v18.246c0 19.207 15.626 34.834 34.834 34.834h18.246v53.633a8.294 8.294 0 0 0 8.294 8.294 8.294 8.294 0 0 0 8.294-8.294v-53.633h27.646v53.633a8.294 8.294 0 0 0 8.294 8.294 8.294 8.294 0 0 0 8.294-8.294v-53.633h27.646v53.633a8.294 8.294 0 0 0 8.294 8.294 8.294 8.294 0 0 0 8.294-8.294v-53.633h27.646v53.633a8.294 8.294 0 0 0 8.294 8.294 8.294 8.294 0 0 0 8.294-8.294v-53.633h27.646v53.633a8.294 8.294 0 0 0 8.294 8.294 8.294 8.294 0 0 0 8.294-8.294v-53.633h27.646v53.633a8.294 8.294 0 0 0 8.294 8.294 8.294 8.294 0 0 0 8.294-8.294v-53.633h27.646v53.633a8.294 8.294 0 0 0 8.294 8.294 8.294 8.294 0 0 0 8.294-8.294v-53.633h18.246c19.207 0 34.834-15.627 34.834-34.834v-18.246h53.633a8.294 8.294 0 0 0 0-16.588h-53.633V352.76h53.633a8.294 8.294 0 0 0 0-16.588h-53.633v-27.646h53.633a8.294 8.294 0 0 0 0-16.588h-53.633v-27.646h53.633a8.294 8.294 0 0 0 0-16.588h-53.633V220.06h53.633a8.294 8.294 0 0 0 0-16.588h-53.633v-27.646h53.627zm-70.22 239.413c0 10.061-8.185 18.246-18.246 18.246H96.76c-10.061 0-18.246-8.185-18.246-18.246V96.76c0-10.061 8.185-18.246 18.246-18.246h318.48c10.061 0 18.246 8.185 18.246 18.246v318.48z" fill="#fff"/><path d="M406.393 97.313H105.607a8.294 8.294 0 0 0-8.294 8.294v300.786a8.294 8.294 0 0 0 8.294 8.294h300.786a8.294 8.294 0 0 0 8.294-8.294V105.607a8.295 8.295 0 0 0-8.294-8.294zm-8.294 300.786H113.901V113.901H398.1v284.198z" fill="#fff"/><path d="m370.823 227.106-112.558-32.16a8.284 8.284 0 0 0-4.557 0l-112.558 32.16c-5.054 1.443-8.45 5.945-8.45 11.201s3.396 9.758 8.45 11.201l44.617 12.748v37.978c0 9.452 7.689 17.14 17.14 17.14h106.16c9.452 0 17.14-7.689 17.14-17.14v-37.978l18.722-5.349.076 43.342a8.293 8.293 0 0 0 8.294 8.279h.016a8.294 8.294 0 0 0 8.279-8.308l-.085-48.049 9.314-2.662c5.054-1.443 8.45-5.945 8.45-11.2 0-5.256-3.395-9.759-8.45-11.203zm-61.205 73.127a.554.554 0 0 1-.553.553h-106.16a.554.554 0 0 1-.553-.553v-33.238l51.354 14.672a8.252 8.252 0 0 0 4.558 0l51.354-14.672v33.238zm-53.632-35.166-93.662-26.76 93.662-26.761 93.663 26.76-93.663 26.761z" fill="#fff"/><circle cx="353.313" cy="326.773" r="8.294" fill="#fff"/></svg>