<svg class="site-logo__symbol" width="30" height="37" xmlns="http://www.w3.org/2000/svg"><path d="M4.831 1.41h20.102v25.867H4.831z" fill="#fff"/><path d="M22.77 11.57h-1.237v9.336h-2.678V11.57H17.62V9.698h5.15v1.873zm-6.596-4.844v17.157c0 2.224-1.796 3.375-4.01 3.375-2.215 0-4.027-.971-4.027-2.86h.003c0-.74.599-1.342 1.337-1.342a1.34 1.34 0 0 1 1.336 1.343h.002c0 1.37.109 2.301 1.348 2.301 1.332 0 1.332-.934 1.332-2.817l.002-17.157c0-2.222 1.795-3.374 4.01-3.374 2.214 0 4.026.97 4.026 2.86h-.003a1.34 1.34 0 0 1-1.337 1.341 1.34 1.34 0 0 1-1.337-1.341h-.001c0-1.371-.109-2.302-1.348-2.302-1.333 0-1.333.933-1.333 2.816zM8.142 9.698h2.67l.004 11.2H8.139l.003-11.2zM0 .182V15.32c0 13.63 14.832 20.93 14.832 20.93s14.887-7.3 14.887-20.93V.182H0z" fill="#009DE0"/></svg>