<svg width="194.56" height="235.06" xmlns="http://www.w3.org/2000/svg"><path fill="#fff" d="M32.17 14.11h130.9v165.24H32.17z"/><path d="M.04 0v73.924c0 18.857-.738 37.633 4.113 56.032 7.606 28.853 25.956 54.517 48.152 74.058 10.097 8.89 20.627 17.021 32.018 24.2 3.225 2.033 8.795 6.84 12.713 6.845 4.15.005 9.783-4.848 13.184-6.966 11.569-7.206 22.366-15.493 32.489-24.604 21.908-19.718 39.757-44.396 47.676-73.062 4.983-18.039 4.117-36.572 4.117-55.09V0H.042m111.59 20.852c10.918-1.292 28.176 3.118 29.151 16.345.579 7.856-7.433 14.83-14.467 8.696-5.882-5.13-.197-14.768-6.686-19.8-4.282-3.319-10.872-1.53-12.655 3.57-3.456 9.889-.993 23.986-.993 34.372v73.924c0 14.35 2.223 30.597-14.126 36.814-2.378.905-4.988 1.576-7.534 1.754-12.233.857-30.649-2.196-31.016-17.85-.171-7.346 8.611-12.343 14.45-7.283 5.921 5.134.62 14.728 6.7 19.864 4.013 3.392 11.02 1.814 12.802-3.165 3.52-9.832 1.302-23.569 1.302-33.9v-71.57c0-14.714-3.382-32.64 13.184-39.61 3.138-1.321 6.536-1.765 9.888-2.162m-40.964 41.3v72.983H53.246V62.152h17.422m70.157 12.242v60.74h-17.422v-60.74H115.4V62.152h23.072c2.657 0 7.327-.902 9.738.284 1.826.899 1.882 10.25.336 11.474-1.605 1.271-5.758.484-7.72.484z" fill="#029fe3"/></svg>