<?xml version="1.0" encoding="UTF-8" standalone="no"?>
<svg 
   width="571.91998pt"
   height="228pt"
   viewBox="0 0 571.91998 228"
   version="1.1"
   id="svg100"
   xmlns="http://www.w3.org/2000/svg"
   xmlns:svg="http://www.w3.org/2000/svg" content="%3Cmxfile%20host%3D%22app.diagrams.net%22%20modified%3D%222022-09-16T23%3A52%3A21.707Z%22%20agent%3D%225.0%20(X11%3B%20Linux%20x86_64)%20AppleWebKit%2F537.36%20(KHTML%2C%20like%20Gecko)%20Chrome%2F105.0.0.0%20Safari%2F537.36%22%20etag%3D%22Kki3rbg3Qhf_0DFMlXmf%22%20version%3D%2220.1.1%22%20type%3D%22device%22%3E%3Cdiagram%20id%3D%22enV2Dd9MdoO8voux-6Ez%22%20name%3D%22Page-1%22%3E7Zxdb9owFIZ%2FDZdD2PkgXBZaNk2rNJWLdrupvMQkbpM4cgyE%2FfrZiQ0Emo5pVWNU9wLi488cP3mPE6cMnFlWfWaoSG5phNMBHEXVwLkeQAg8zxFf0rJtLE4wbgwxI5EqtDcsyG%2BsjCNlXZEIl62CnNKUk6JtDGme45C3bIgxumkXW9K03WuBYtXjaG9YhCjFJ8XuScSTxhp4B6W%2FYBInumcwUjkZ0oVVE2WCIro56Mu5GTgzRilvjrJqhlPpPO2XpqF5R%2B5uYAzn%2FJwKj8Ft9fXnJLu%2FKu6uiydwx75HnyB01ej4Vp8yjoQHVDKnufiaMrrKIywbGolU%2BYx5KE8OiARlPKExzVH6jdJCGZ8w51s1mWjFqTAlPEtVLq4Ifzg4%2FiHbHXoqdV2pburEVidyzrYPh4kfh4l9pTqlay1pzucoI6k0zNAvkotTXajh17kLumKhHGbCuUAKes6V%2BBBOlB%2ByQDmMKY1TjApSDkOa1RlhWRedL5u2xaFu3YPTdvuNE4Sbm%2FSMppTVfnaaP%2BlPjhi%2FkrDuPV7b5iRNd%2BcV6RJhisqShI1RFQF1FUaf8csdyBzNryBv2ky6nOlOmjS22kFdCAEfqusSsRjz10oGwY57IRiYZlhMlqjJcIo4WbfHgtSVG%2B%2FK7eEWB4rvf2B9N9A1Sleqr4Hk380eQXNwci1wXPE2vG0vq9lailk4MqGUxLmcLeFQLOzTNWacCGG5UhkZiSLZzXSTEI4XBaq9vBEyenLBmYOx%2FwrGyrniNHH1OlWnBKgKY0epp4oWrus16c1ee31VJDmQXV3tzZkRTV%2B0Pg6hZyXSAIl0LkUinU6JhFYiTZRIz%2BlZIoHvdjAz8GZhRHlpwTERHB%2F2HlvhJcdWYAOrAYHVu5TA6nUG1merjybq4xj0rY%2Fgwu897K2HAQqpn7f%2BVSEh6Lg%2B3kkh9UBPFNKuH43QRxgc3XjodG83Hk1If4EYbokxgZiJacRA4NuIaiPq%2F0VUFSfPiqhenxF1N9ATfVzb%2FQ4zFNIdGaeQE0MU0urjxerj2fvBzYZsb%2FqoX%2FnonXW7GvgQtDv90g7MoB1Y1j8A6z2vfLve9Fnbp%2B1mrHx9YNzKNzBDH%2B1q4JIV8tz9SCVR%2FSlk136kfWnjzVh%2BA5n0jJNJ2AWODaxGEOO4R8T4vRPjW2JMJsb1jCOmayvYPrY2ghj%2FSGPcSe%2FEdG0FW2KMICYIjCNmYokxmRj%2F%2BOWBcd%2FE6JYtMWYSExz%2FZ0T%2FxHRtwFtijCDGP1r5%2BkHfr%2Fw6XQ%2BuLTFGEBO8HzEiuf9xgDrv4CcWnJs%2F%3C%2Fdiagram%3E%3C%2Fmxfile%3E">
  <defs
     id="defs104" />
  <path
     fill="none"
     stroke-width="2"
     stroke-linecap="round"
     stroke-linejoin="round"
     stroke="rgb(19.999695%, 19.999695%, 19.999695%)"
     stroke-opacity="1"
     stroke-miterlimit="10"
     d="M 510.999333 16.001784 C 566.549648 50.370969 625.387859 86.657658 694.037648 131.599172 M 510.999333 16.001784 C 557.368553 46.410905 604.82158 76.580338 694.037648 131.599172 "
     transform="matrix(0.749672, 0, 0, 0.749672, 0, 0)"
     id="path2" />
  <path
     fill="none"
     stroke-width="1"
     stroke-linecap="round"
     stroke-linejoin="round"
     stroke="rgb(19.999695%, 19.999695%, 19.999695%)"
     stroke-opacity="1"
     stroke-miterlimit="10"
     d="M 694.699396 126.88878 L 694.699396 126.88878 M 694.699396 126.88878 L 694.699396 126.88878 M 695.491409 138.180172 C 695.991627 137.070312 696.799272 136.189719 698.768882 134.40248 M 695.491409 138.180172 C 696.147946 137.091155 697.070224 136.210562 698.768882 134.40248 "
     transform="matrix(0.749672, 0, 0, 0.749672, 0, 0)"
     id="path4" />
  <path
     fill="none"
     stroke-width="2"
     stroke-linecap="round"
     stroke-linejoin="round"
     stroke="rgb(19.999695%, 19.999695%, 19.999695%)"
     stroke-opacity="1"
     stroke-miterlimit="10"
     d="M 699.107572 134.808907 C 697.21091 134.762012 695.600831 135.038174 690.20785 133.917893 M 699.107572 134.808907 C 695.84052 134.157581 693.099739 134.527534 690.20785 133.917893 M 690.20785 133.917893 C 691.390658 132.818454 693.042422 132.729874 694.037648 131.599172 M 690.20785 133.917893 C 691.411501 133.318673 692.792313 132.422448 694.037648 131.599172 M 694.037648 131.599172 C 694.371127 130.541418 694.490971 129.358609 694.48055 127.14931 M 694.037648 131.599172 C 693.928226 130.348625 694.298179 129.671246 694.48055 127.14931 M 694.48055 127.14931 C 696.080208 128.540543 697.252595 131.630435 699.107572 134.808907 M 694.48055 127.14931 C 696.220894 130.020357 697.742392 132.599609 699.107572 134.808907 "
     transform="matrix(0.749672, 0, 0, 0.749672, 0, 0)"
     id="path6" />
  <path
     fill-rule="nonzero"
     fill="rgb(19.999695%, 19.999695%, 19.999695%)"
     fill-opacity="1"
     stroke-width="5.262417"
     stroke-linecap="butt"
     stroke-linejoin="miter"
     stroke="rgb(19.999695%, 19.999695%, 19.999695%)"
     stroke-opacity="0.2784"
     stroke-miterlimit="4"
     d="M 20.971085 287.054171 C 21.656295 291.046111 22.684111 296.308215 24.054532 303.021933 C 25.25365 309.735651 29.364914 322.255829 36.045716 340.945369 C 42.726519 359.634909 49.407322 375.421219 55.916822 387.941397 C 62.597625 400.643026 73.389691 412.981751 87.950415 424.957573 C 102.682441 436.933395 117.414468 442.739854 131.975192 442.014047 C 146.707219 441.288239 160.925337 438.929365 174.972153 434.937425 C 189.018969 430.945484 198.954522 424.957573 204.950114 416.973692 C 210.945707 408.989811 216.256088 401.731737 221.052562 395.018019 C 225.677733 388.3043 228.418575 381.953486 228.932483 375.965575 L 230.988115 369.070405 C 230.988115 367.61879 231.33072 367.074435 232.015931 367.074435 L 242.979299 377.961545 C 283.064116 420.602729 330.001038 442.014047 383.961368 442.014047 C 395.267342 442.014047 405.716803 441.288239 414.967145 440.018076 C 424.38879 438.747913 432.953921 436.389039 441.005145 432.941454 C 449.056369 429.675321 455.394567 426.409188 460.019738 422.961603 C 464.644909 419.69547 469.612685 415.703529 474.923067 410.985781 C 480.404751 406.268033 483.659501 401.913189 485.029922 397.921248 C 486.400344 393.929308 488.969883 389.755915 493.081146 385.038167 C 497.021107 380.320419 498.391528 376.328479 497.021107 373.062345 C 495.650686 369.61476 496.678502 366.711531 499.933252 363.989753 C 503.359304 361.267975 504.044515 359.090553 501.988883 356.913131 L 510.040107 367.074435 C 552.009253 416.973692 601.687017 442.014047 659.0734 442.014047 C 695.046953 442.014047 723.997098 432.941454 745.923835 414.977722 C 768.021875 397.013989 779.327849 370.703471 780.01306 336.046169 C 780.01306 301.933222 767.336665 249.312187 741.983875 178.001612 C 716.631085 106.691037 703.95469 64.049853 703.95469 50.078061 C 704.6399 40.642565 706.352927 34.291751 708.922466 31.025617 C 711.663308 27.578032 716.631085 25.944966 723.997098 25.944966 C 742.669085 25.944966 759.970652 35.924817 776.073099 56.065972 C 792.004244 76.025675 805.023244 103.243452 814.958797 138.082206 C 817.014429 145.34028 819.070061 149.695124 820.95439 150.965287 C 823.010021 152.416902 828.320403 152.961257 837.056837 152.961257 C 850.418443 152.961257 856.927943 150.420931 856.927943 144.977376 C 856.927943 144.251569 855.728824 139.352369 852.987982 129.916873 C 847.677601 110.682977 840.311587 91.630534 831.061245 72.940994 C 821.6396 54.251453 806.393666 35.743365 784.980836 17.053825 C 763.739309 -1.635715 740.613454 -10.708307 715.945874 -9.9825 C 684.597492 -9.9825 661.985544 -0.909907 647.938728 17.053825 C 634.063215 35.017558 627.039807 53.707098 627.039807 72.940994 C 627.039807 85.642623 639.030991 125.74348 663.01336 193.062115 C 686.995729 260.38075 699.329519 311.005814 700.014729 344.937309 C 700.014729 384.31236 685.282703 404.090611 655.989952 404.090611 L 651.022176 404.090611 C 593.635793 404.090611 545.32845 370.340568 505.928844 303.021933 L 499.076739 291.046111 L 466.01533 156.953198 C 443.91729 69.67486 431.412198 22.678832 427.986145 15.965114 C 419.249711 -1.998619 405.031592 -11.071211 384.989184 -11.071211 C 376.252749 -11.071211 369.400644 -8.712337 363.91896 -3.994589 C 358.608578 0.723159 355.011223 4.7151 352.955591 7.981233 C 351.071262 11.247366 350.043446 14.694951 350.043446 17.961084 C 350.043446 25.40061 361.34942 72.940994 383.961368 160.945138 L 419.934921 307.013874 C 421.990553 316.993725 423.018369 329.695354 423.018369 344.937309 C 423.018369 384.31236 408.286342 404.090611 378.993591 404.090611 L 374.025815 404.090611 C 316.639432 404.090611 268.332089 370.340568 228.932483 303.021933 L 222.080378 291.046111 L 189.018969 156.953198 C 166.920929 69.67486 154.415837 22.678832 150.989784 15.965114 C 142.25335 -1.998619 128.035231 -11.071211 107.992823 -11.071211 C 99.256389 -11.071211 92.404283 -9.07524 86.922599 -5.0833 C 81.612217 -0.909907 78.014862 3.082033 75.95923 7.073974 C 74.074901 11.065914 73.389691 14.332048 74.074901 17.053825 C 74.074901 25.582062 86.751296 80.380519 111.932784 181.086293 C 137.970784 283.606586 150.989784 337.316332 150.989784 342.03408 C 153.045416 352.013931 154.073232 361.086524 154.073232 369.070405 C 154.073232 393.022048 145.679403 404.99787 129.063047 404.99787 C 114.331021 404.99787 101.997231 395.743826 92.061678 377.054286 C 81.954823 358.364746 74.417507 338.042139 68.935822 316.086466 C 63.625441 293.949341 59.68548 281.973519 56.944638 279.977549 C 55.745519 278.707386 50.263835 277.981579 41.013493 277.981579 L 26.966677 277.981579 C 23.026716 281.973519 20.971085 285.058201 20.971085 287.054171 Z M 20.971085 287.054171 "
     transform="matrix(0.0228032, 0, 0, -0.0215278, 345.603823, 17.761662)"
     id="path8" />
  <path
     fill-rule="nonzero"
     fill="rgb(19.999695%, 19.999695%, 19.999695%)"
     fill-opacity="1"
     stroke-width="7.443306"
     stroke-linecap="butt"
     stroke-linejoin="miter"
     stroke="rgb(19.999695%, 19.999695%, 19.999695%)"
     stroke-opacity="0.1961"
     stroke-miterlimit="4"
     d="M 213.062547 577.887142 L 199.978611 573.010784 C 190.771397 569.674328 177.445166 566.337873 159.999918 563.001417 C 142.55467 559.664962 123.413356 557.355108 102.091387 556.071856 L 82.950073 556.071856 L 82.950073 602.012281 L 102.091387 602.012281 C 133.347456 603.295533 162.422869 608.428542 189.075331 616.898006 C 215.727793 625.62412 234.384516 633.580283 245.045501 641.023145 C 255.706486 648.209357 264.9137 655.652219 272.909438 663.095082 C 274.363209 664.891634 278.239931 665.918236 285.024194 665.918236 C 291.081571 665.918236 296.654359 664.121683 301.984851 660.015276 L 301.984851 361.017536 L 302.954032 60.993194 C 307.557639 56.373487 311.676656 53.293682 315.068787 52.010429 C 318.218624 50.727177 326.214362 49.443925 339.056003 47.904023 C 351.655349 46.620771 372.250433 46.10747 401.083551 46.10747 L 427.009127 46.10747 L 427.009127 -0.089606 L 416.105847 -0.089606 C 402.052731 1.963597 348.990102 2.990199 256.917961 2.990199 C 166.299591 2.990199 113.963847 1.963597 99.910731 -0.089606 L 88.038271 -0.089606 L 88.038271 46.10747 L 113.963847 46.10747 C 128.743849 46.10747 141.343194 46.10747 152.004179 46.10747 C 162.665164 46.10747 170.903198 46.36412 176.960575 46.877421 C 183.017953 47.647372 188.348445 48.673974 192.952053 49.957226 C 197.55566 51.240478 200.220906 52.010429 200.947791 52.010429 C 201.674676 52.010429 203.613037 53.550332 207.005169 56.886787 C 210.3973 60.223243 212.335661 61.763145 213.062547 60.993194 Z M 213.062547 577.887142 "
     transform="matrix(0.0161219, 0, 0, -0.0152201, 366.377534, 20.990824)"
     id="path10" />
  <path
     fill="none"
     stroke-width="2"
     stroke-linecap="round"
     stroke-linejoin="round"
     stroke="rgb(19.999695%, 19.999695%, 19.999695%)"
     stroke-opacity="1"
     stroke-miterlimit="10"
     d="M 510.999333 105.999444 C 567.732457 118.640384 623.699621 130.062041 692.922578 141.910969 M 510.999333 105.999444 C 580.472399 118.228746 649.507774 131.719016 692.922578 141.910969 "
     transform="matrix(0.749672, 0, 0, 0.749672, 0, 0)"
     id="path12" />
  <path
     fill="none"
     stroke-width="1"
     stroke-linecap="round"
     stroke-linejoin="round"
     stroke="rgb(19.999695%, 19.999695%, 19.999695%)"
     stroke-opacity="1"
     stroke-miterlimit="10"
     d="M 691.750191 137.570531 L 691.750191 137.570531 M 691.750191 137.570531 L 691.750191 137.570531 M 693.188319 148.101174 C 693.928226 147.449848 695.288195 145.469816 697.778867 142.817615 M 693.188319 148.101174 C 694.511814 146.558833 695.59041 145.282234 697.778867 142.817615 "
     transform="matrix(0.749672, 0, 0, 0.749672, 0, 0)"
     id="path14" />
  <path
     fill="none"
     stroke-width="2"
     stroke-linecap="round"
     stroke-linejoin="round"
     stroke="rgb(19.999695%, 19.999695%, 19.999695%)"
     stroke-opacity="1"
     stroke-miterlimit="10"
     d="M 698.810567 143.067725 C 696.919116 143.448099 694.152282 143.828474 690.181797 145.438552 M 698.810567 143.067725 C 696.319896 143.307413 693.558272 144.260954 690.181797 145.438552 M 690.181797 145.438552 C 690.911282 144.427694 691.672031 144.010845 692.922578 141.910969 M 690.181797 145.438552 C 691.06239 144.30785 692.187882 142.900985 692.922578 141.910969 M 692.922578 141.910969 C 692.380674 139.930937 691.771033 138.737708 691.729348 137.591373 M 692.922578 141.910969 C 692.557835 140.332154 691.969036 139.039923 691.729348 137.591373 M 691.729348 137.591373 C 694.178335 139.800672 698.169662 141.728598 698.810567 143.067725 M 691.729348 137.591373 C 693.599957 138.779392 694.407602 139.498457 698.810567 143.067725 "
     transform="matrix(0.749672, 0, 0, 0.749672, 0, 0)"
     id="path16" />
  <path
     fill-rule="nonzero"
     fill="rgb(19.999695%, 19.999695%, 19.999695%)"
     fill-opacity="1"
     stroke-width="5.262417"
     stroke-linecap="butt"
     stroke-linejoin="miter"
     stroke="rgb(19.999695%, 19.999695%, 19.999695%)"
     stroke-opacity="0.2784"
     stroke-miterlimit="4"
     d="M 20.971085 286.954098 C 21.656295 290.946039 22.684111 296.389594 24.054532 302.92186 C 25.25365 309.635579 29.364914 322.337208 36.045716 341.026748 C 42.726519 359.716288 49.407322 375.321147 55.916822 388.022776 C 62.597625 400.724405 73.389691 413.06313 87.950415 425.038952 C 102.682441 437.014774 117.414468 442.639781 131.975192 441.913974 C 146.707219 441.369618 160.925337 439.010744 174.972153 435.018804 C 189.018969 431.026863 198.954522 425.038952 204.950114 417.055071 C 210.945707 409.07119 216.256088 401.631664 221.052562 394.917946 C 225.677733 388.38568 228.418575 382.034865 228.932483 376.046954 L 230.988115 368.970332 C 230.988115 367.700169 231.33072 366.974362 232.015931 366.974362 L 242.979299 378.042924 C 283.064116 420.684108 330.001038 441.913974 383.961368 441.913974 C 395.267342 441.913974 405.716803 441.369618 414.967145 439.918004 C 424.38879 438.647841 432.953921 436.288967 441.005145 433.022833 C 449.056369 429.7567 455.394567 426.309115 460.019738 423.042982 C 464.644909 419.595397 469.612685 415.603456 474.923067 411.06716 C 480.404751 406.349412 483.659501 401.994568 485.029922 398.002627 C 486.400344 394.010687 488.969883 389.655842 493.081146 384.938094 C 497.021107 380.401798 498.391528 376.409858 497.021107 372.962273 C 495.650686 369.696139 496.678502 366.611458 499.933252 364.071132 C 503.359304 361.349355 504.044515 358.990481 501.988883 356.99451 L 510.040107 366.974362 C 552.009253 417.055071 601.687017 441.913974 659.0734 441.913974 C 695.046953 441.913974 723.997098 433.022833 745.923835 415.059101 C 768.021875 396.913916 779.327849 370.603399 780.01306 335.946096 C 780.01306 302.014601 767.336665 249.393566 741.983875 178.082991 C 716.631085 106.590964 703.95469 63.94978 703.95469 49.977988 C 704.6399 40.723944 706.352927 34.37313 708.922466 30.925545 C 711.663308 27.659411 716.631085 26.026345 723.997098 26.026345 C 742.669085 26.026345 759.970652 36.006196 776.073099 55.965899 C 792.004244 75.925602 805.023244 103.324831 814.958797 137.982133 C 817.014429 145.421659 819.070061 149.595051 820.95439 151.046666 C 823.010021 152.316829 828.320403 153.042636 837.056837 153.042636 C 850.418443 153.042636 856.927943 150.320859 856.927943 145.058755 C 856.927943 144.332948 855.728824 139.252296 852.987982 129.998252 C 847.677601 110.582905 840.311587 91.711913 831.061245 73.022373 C 821.6396 54.332833 806.393666 35.643293 784.980836 16.953752 C 763.739309 -1.735788 740.613454 -10.626928 715.945874 -10.082572 C 684.597492 -10.082572 661.985544 -1.00998 647.938728 16.953752 C 634.063215 34.917485 627.039807 53.607025 627.039807 73.022373 C 627.039807 85.724002 639.030991 125.643408 663.01336 192.962042 C 686.995729 260.280677 699.329519 311.087193 700.014729 345.018689 C 700.014729 384.393739 685.282703 403.990538 655.989952 403.990538 L 651.022176 403.990538 C 593.635793 403.990538 545.32845 370.421947 505.928844 302.92186 L 499.076739 290.946039 L 466.01533 157.034577 C 443.91729 69.756239 431.412198 22.57876 427.986145 16.046493 C 419.249711 -1.917239 405.031592 -10.989832 384.989184 -10.989832 C 376.252749 -10.989832 369.400644 -8.630958 363.91896 -3.91321 C 358.608578 0.623086 355.011223 4.615027 352.955591 8.062612 C 351.071262 11.328745 350.043446 14.594878 350.043446 18.042464 C 350.043446 25.300537 361.34942 73.022373 383.961368 161.026518 L 419.934921 306.913801 C 421.990553 317.075104 423.018369 329.595282 423.018369 345.018689 C 423.018369 384.393739 408.286342 403.990538 378.993591 403.990538 L 374.025815 403.990538 C 316.639432 403.990538 268.332089 370.421947 228.932483 302.92186 L 222.080378 290.946039 L 189.018969 157.034577 C 166.920929 69.756239 154.415837 22.57876 150.989784 16.046493 C 142.25335 -1.917239 128.035231 -10.989832 107.992823 -10.989832 C 99.256389 -10.989832 92.404283 -8.993861 86.922599 -5.001921 C 81.612217 -1.00998 78.014862 2.98196 75.95923 6.973901 C 74.074901 10.965842 73.389691 14.413427 74.074901 16.953752 C 74.074901 25.663441 86.751296 80.280446 111.932784 180.98622 C 137.970784 283.687965 150.989784 337.397711 150.989784 341.934007 C 153.045416 351.913859 154.073232 360.986451 154.073232 368.970332 C 154.073232 392.921976 145.679403 405.079249 129.063047 405.079249 C 114.331021 405.079249 101.997231 395.643753 92.061678 376.954213 C 81.954823 358.264673 74.417507 337.942067 68.935822 315.986393 C 63.625441 294.03072 59.68548 282.054898 56.944638 280.058928 C 55.745519 278.607313 50.263835 278.062958 41.013493 278.062958 L 26.966677 278.062958 C 23.026716 282.054898 20.971085 284.958128 20.971085 286.954098 Z M 20.971085 286.954098 "
     transform="matrix(0.0228032, 0, 0, -0.0215278, 345.603823, 85.232164)"
     id="path18" />
  <path
     fill-rule="nonzero"
     fill="rgb(19.999695%, 19.999695%, 19.999695%)"
     fill-opacity="1"
     stroke-width="7.443306"
     stroke-linecap="butt"
     stroke-linejoin="miter"
     stroke="rgb(19.999695%, 19.999695%, 19.999695%)"
     stroke-opacity="0.1961"
     stroke-miterlimit="4"
     d="M 109.117945 428.888321 C 90.945812 428.888321 76.6504 435.047931 65.989416 447.1105 C 55.328431 458.91642 49.997939 473.545494 49.997939 490.997722 C 49.997939 538.2214 67.685481 579.285467 103.060567 613.933274 C 138.435653 648.581081 182.291068 666.033309 235.111401 666.033309 C 295.685179 666.033309 346.324856 647.297829 387.030434 610.083518 C 427.736013 572.612556 448.331097 524.362277 449.057982 465.07603 C 449.057982 436.331183 442.273719 409.126238 428.947488 382.947895 C 415.621257 357.026203 399.62978 334.440966 380.973057 314.935534 C 362.316333 295.686752 335.663871 271.048312 301.015671 241.020212 C 277.028455 220.231528 243.59173 189.690128 200.947791 148.882711 L 142.07008 92.93292 L 217.908449 91.906318 C 322.579936 91.906318 378.307811 93.702871 385.092074 97.039326 C 389.695681 98.322578 397.691419 128.094027 409.079289 186.097022 L 409.079289 188.920177 L 449.057982 188.920177 L 449.057982 186.097022 C 448.331097 184.043819 443.969785 153.759069 435.974046 94.986123 C 427.978308 36.213177 422.89011 5.671776 420.95175 3.105272 L 420.95175 0.0254672 L 49.997939 0.0254672 L 49.997939 31.080168 C 49.997939 35.699876 51.936299 40.576234 56.055316 45.965893 C 59.932038 51.355551 70.108433 62.90482 86.09991 81.127 C 105.241223 102.428985 121.959586 120.907815 136.012702 137.076792 C 142.07008 143.749703 153.215655 156.068923 169.934017 174.034453 C 186.65238 191.999982 198.04025 204.319202 204.097628 210.992113 C 209.91271 217.665024 219.604514 228.700992 232.930745 244.100017 C 246.256976 259.242392 255.706486 270.791661 261.036978 277.977873 C 266.36747 285.420735 274.120914 295.430102 284.055013 308.005972 C 293.989113 320.581843 301.015671 331.361161 304.892393 340.087275 C 309.011409 348.556739 314.099607 358.309455 319.914689 369.088772 C 325.972067 379.61144 330.333379 390.390757 332.998625 400.913425 C 335.663871 411.692742 338.086822 421.702109 340.025183 430.941524 C 341.963544 440.437589 342.932725 451.216907 342.932725 464.049428 C 342.932725 505.883447 331.78715 542.327807 309.011409 573.125857 C 286.235669 603.667257 254.01042 619.066282 212.093366 619.066282 C 190.044511 619.066282 170.660903 613.419973 153.94254 602.127355 C 137.224178 590.578086 125.594012 579.542118 119.052044 569.01945 C 112.267781 558.240133 109.117945 552.080523 109.117945 550.027319 C 109.117945 549.257368 110.571716 549.000717 113.963847 549.000717 C 126.078603 549.000717 138.435653 544.38101 151.034999 534.884944 C 163.634344 525.645529 169.934017 510.246504 169.934017 488.944519 C 169.934017 472.262242 164.603525 458.403119 153.94254 447.1105 C 143.281555 435.561231 128.259259 429.658272 109.117945 428.888321 Z M 109.117945 428.888321 "
     transform="matrix(0.0161219, 0, 0, -0.0152201, 366.377534, 88.461325)"
     id="path20" />
  <path
     fill-rule="nonzero"
     fill="rgb(19.999695%, 19.999695%, 19.999695%)"
     fill-opacity="1"
     stroke-width="5.544999"
     stroke-linecap="butt"
     stroke-linejoin="miter"
     stroke="rgb(19.999695%, 19.999695%, 19.999695%)"
     stroke-opacity="0.251"
     stroke-miterlimit="4"
     d="M 77.953276 249.898373 C 77.953276 265.947051 83.729317 279.911486 94.920395 292.000101 C 106.291975 304.088716 120.732077 309.924599 138.060199 309.924599 C 153.944311 309.924599 168.02341 304.713989 179.936494 294.084345 C 192.030079 283.246276 198.347623 269.073417 199.069628 250.940495 C 199.069628 234.266543 193.293588 220.093684 181.922008 208.005069 C 170.730929 195.916454 156.290827 190.080571 138.962705 190.080571 C 121.634583 190.080571 107.374983 195.708029 96.003403 206.962947 C 84.631823 218.426289 78.675281 232.599148 77.953276 249.898373 Z M 525.054923 249.898373 C 525.054923 265.947051 530.650463 279.911486 542.022043 292.000101 C 553.393623 304.088716 567.653223 309.924599 584.981345 309.924599 C 601.045958 309.924599 614.944556 304.713989 627.038141 294.084345 C 638.951225 283.246276 645.268769 269.073417 645.990775 250.940495 C 645.990775 234.266543 640.395235 220.093684 629.023655 208.005069 C 617.652075 195.916454 603.392475 190.080571 586.064353 190.080571 C 568.736231 190.080571 554.296129 195.708029 542.924549 206.962947 C 531.73347 218.426289 525.596427 232.599148 525.054923 249.898373 Z M 971.976069 249.898373 C 971.976069 265.947051 977.75211 279.911486 988.943189 292.000101 C 1000.314769 304.088716 1014.75487 309.924599 1032.082992 309.924599 C 1047.967104 309.924599 1062.046203 304.713989 1073.959287 294.084345 C 1086.052872 283.246276 1092.370417 269.073417 1092.911921 250.940495 C 1092.911921 234.266543 1087.316381 220.093684 1075.944801 208.005069 C 1064.753722 195.916454 1050.313621 190.080571 1032.985499 190.080571 C 1015.657377 190.080571 1001.397776 195.708029 990.026196 206.962947 C 978.654616 218.426289 972.698074 232.599148 971.976069 249.898373 Z M 971.976069 249.898373 "
     transform="matrix(0.0216411, 0, 0, -0.0187418, 347.91066, 151.996047)"
     id="path22" />
  <path
     fill="none"
     stroke-width="2"
     stroke-linecap="round"
     stroke-linejoin="round"
     stroke="rgb(19.999695%, 19.999695%, 19.999695%)"
     stroke-opacity="1"
     stroke-miterlimit="10"
     d="M 510.999333 285.999973 C 568.477574 251.057621 622.391758 215.239887 694.037648 170.402586 M 510.999333 285.999973 C 567.628245 249.739337 624.330105 214.479138 694.037648 170.402586 "
     transform="matrix(0.749672, 0, 0, 0.749672, 0, 0)"
     id="path24" />
  <path
     fill="none"
     stroke-width="1"
     stroke-linecap="round"
     stroke-linejoin="round"
     stroke="rgb(19.999695%, 19.999695%, 19.999695%)"
     stroke-opacity="1"
     stroke-miterlimit="10"
     d="M 690.228692 168.057811 L 690.228692 168.057811 M 690.228692 168.057811 L 690.228692 168.057811 "
     transform="matrix(0.749672, 0, 0, 0.749672, 0, 0)"
     id="path26" />
  <path
     fill="none"
     stroke-width="2"
     stroke-linecap="round"
     stroke-linejoin="round"
     stroke="rgb(19.999695%, 19.999695%, 19.999695%)"
     stroke-opacity="1"
     stroke-miterlimit="10"
     d="M 699.107572 167.187639 C 697.351596 169.490729 694.928663 173.508109 694.48055 174.852447 M 699.107572 167.187639 C 698.112346 169.287515 696.179209 171.762555 694.48055 174.852447 M 694.48055 174.852447 C 694.589973 173.179841 694.610816 172.351354 694.037648 170.402586 M 694.48055 174.852447 C 694.490971 173.539373 694.011595 172.83073 694.037648 170.402586 M 694.037648 170.402586 C 692.609941 169.537624 691.672031 168.828981 690.20785 168.078654 M 694.037648 170.402586 C 693.381112 170.058685 692.229567 169.480308 690.20785 168.078654 M 690.20785 168.078654 C 693.511377 168.068232 695.371565 167.79207 699.107572 167.187639 M 690.20785 168.078654 C 692.078459 167.7087 694.642079 167.401274 699.107572 167.187639 "
     transform="matrix(0.749672, 0, 0, 0.749672, 0, 0)"
     id="path28" />
  <path
     fill-rule="nonzero"
     fill="rgb(19.999695%, 19.999695%, 19.999695%)"
     fill-opacity="1"
     stroke-width="5.320551"
     stroke-linecap="butt"
     stroke-linejoin="miter"
     stroke="rgb(19.999695%, 19.999695%, 19.999695%)"
     stroke-opacity="0.2824"
     stroke-miterlimit="4"
     d="M 20.995336 287.023268 C 21.688116 291.016737 22.727286 296.39924 23.939651 302.997146 C 25.325211 309.595052 29.308697 322.269977 36.063303 341.021922 C 42.644714 359.600237 49.39932 375.400486 55.980731 388.075411 C 62.735337 400.750336 73.300233 413.078003 88.02181 425.058412 C 102.743387 437.038821 117.291769 442.594953 132.013346 442.074065 C 146.734923 441.379549 160.936915 438.948741 174.965712 434.955272 C 188.994509 430.961802 199.03982 425.058412 204.928451 417.071473 C 210.990277 409.084534 216.359322 401.618482 221.035588 395.020576 C 225.711854 388.24904 228.309779 381.998392 229.002559 375.921373 L 231.080899 368.976209 C 231.080899 367.587176 231.254094 367.066289 231.946875 367.066289 L 243.031356 378.004923 C 283.039407 420.717684 329.975258 442.074065 384.012105 442.074065 C 395.269782 442.074065 405.661483 441.379549 415.014014 439.990516 C 424.366546 438.601483 433.026297 436.344305 440.993268 433.045351 C 448.960239 429.746398 455.368455 426.273816 460.044721 422.974863 C 464.720986 419.67591 469.743642 415.68244 474.939493 410.994454 C 480.308538 406.306468 483.599244 401.96574 484.984804 397.972271 C 486.370364 393.978801 488.968289 389.638073 492.951775 384.950087 C 496.935261 380.262101 498.320821 376.268632 496.935261 372.969678 C 495.722895 369.670725 496.588871 366.71903 500.052771 363.940965 C 503.343476 361.336528 504.036257 359.079349 501.957916 356.9958 L 509.924887 367.066289 C 552.011278 417.071473 601.71825 442.074065 659.045803 442.074065 C 695.070367 442.074065 723.993936 433.045351 745.989704 414.987924 C 767.985472 396.930496 779.416344 370.7125 779.935929 335.986677 C 779.935929 301.955371 767.292692 249.34575 742.006219 177.984185 C 716.719745 106.622619 704.076509 64.083487 704.076509 50.019529 C 704.596094 40.643556 706.328044 34.392908 708.925969 30.920326 C 711.69709 27.621373 716.719745 26.058711 723.993936 26.058711 C 742.698999 26.058711 760.018501 35.95557 775.952443 55.922918 C 792.059581 76.063895 805.049207 103.323666 814.921324 138.049489 C 816.999664 145.341911 819.078004 149.682639 820.98315 151.071672 C 823.06149 152.287076 828.257341 152.981592 836.917092 152.981592 C 850.253109 152.981592 857.007715 150.377156 857.007715 144.994653 C 857.007715 144.300137 855.622154 139.264893 853.024229 130.06255 C 847.655183 110.616089 840.380992 91.690516 831.028461 72.938571 C 821.67593 54.360256 806.261573 35.608312 784.958585 17.029997 C 763.655597 -1.721947 740.620659 -10.750661 716.026965 -10.056144 C 684.678666 -10.056144 661.990118 -1.027431 647.961321 17.029997 C 633.932524 34.913796 627.004723 53.66574 627.004723 72.938571 C 627.004723 85.613497 638.95518 125.721822 663.029288 192.916288 C 686.930201 260.284384 699.400243 310.984085 699.919828 345.015391 C 699.919828 384.255571 685.371446 404.04929 655.928292 404.04929 L 651.078832 404.04929 C 593.751279 404.04929 545.256672 370.365242 505.941402 302.997146 L 499.013601 291.016737 L 465.933351 156.975062 C 443.937583 69.639618 431.294347 22.586129 428.003641 15.988222 C 419.34389 -2.069205 404.968703 -10.92429 385.051275 -10.92429 C 376.391524 -10.92429 369.290528 -8.667112 363.921482 -3.979126 C 358.725632 0.708861 354.915341 4.70233 353.010196 8.001283 C 350.931856 11.300236 350.065881 14.59919 350.065881 18.071772 C 350.065881 25.364195 361.323557 72.938571 384.012105 160.968532 L 420.03667 306.990616 C 421.941815 317.061104 422.980986 329.736029 422.980986 345.015391 C 422.980986 384.255571 408.259409 404.04929 378.98945 404.04929 L 373.966794 404.04929 C 316.639241 404.04929 268.31783 370.365242 229.002559 302.997146 L 222.074758 291.016737 L 188.994509 156.975062 C 166.998741 69.639618 154.355504 22.586129 151.064799 15.988222 C 142.405047 -2.069205 128.02986 -10.92429 107.939238 -10.92429 C 99.279487 -10.92429 92.351686 -9.01437 86.98264 -5.0209 C 81.613594 -1.027431 77.976499 2.966039 76.071353 6.959509 C 73.993013 10.952978 73.300233 14.251931 73.993013 17.029997 C 73.993013 25.711453 86.63625 80.404623 111.922723 180.93588 C 138.075172 283.724314 151.064799 337.37571 151.064799 342.063696 C 152.969944 351.960556 154.009114 360.98927 154.009114 368.976209 C 154.009114 392.937026 145.695753 404.917435 129.069031 404.917435 C 114.347454 404.917435 102.050607 395.715092 92.005296 376.963148 C 81.959984 358.384833 74.339403 338.070227 68.970357 316.019329 C 63.601312 293.968432 59.617826 281.988023 57.019901 280.078103 C 55.634341 278.68907 50.265295 277.994554 41.085959 277.994554 L 27.057162 277.994554 C 23.073676 281.988023 20.995336 284.939718 20.995336 287.023268 Z M 20.995336 287.023268 "
     transform="matrix(0.0225541, 0, 0, -0.0224977, 345.600689, 220.601885)"
     id="path30" />
  <path
     fill-rule="nonzero"
     fill="rgb(19.999695%, 19.999695%, 19.999695%)"
     fill-opacity="1"
     stroke-width="7.525531"
     stroke-linecap="butt"
     stroke-linejoin="miter"
     stroke="rgb(19.999695%, 19.999695%, 19.999695%)"
     stroke-opacity="0.2"
     stroke-miterlimit="4"
     d="M 121.078844 647.116643 C 121.078844 653.747458 122.303702 661.360615 124.998391 669.956116 C 127.69308 678.551616 131.612628 682.972159 137.002006 682.972159 C 137.736921 682.972159 161.74415 684.69126 209.023694 687.883874 C 256.303237 691.322074 280.555438 693.28676 282.025269 694.023517 C 290.109336 694.023517 294.028883 691.322074 294.028883 685.919188 C 294.028883 681.253059 277.370806 611.752298 244.054651 476.925734 C 210.738496 345.046198 194.080419 276.773366 194.080419 272.107237 C 206.573977 278.738051 216.372846 284.877695 222.987082 291.017338 C 238.910245 303.051038 261.937587 323.925825 292.06911 353.887284 C 321.95566 384.094329 345.227974 404.232358 361.886052 415.03813 C 388.58797 432.965888 414.06503 442.05256 438.072259 442.05256 C 457.914969 442.05256 473.59316 435.667331 485.106831 422.896874 C 496.37553 410.372002 502.254852 392.444243 502.989767 369.113599 C 502.989767 352.41377 500.785021 338.415383 495.885587 327.11844 C 491.231124 315.575911 485.106831 307.225996 477.022764 302.068696 C 468.938697 296.665809 462.079488 292.982024 455.955195 291.017338 C 450.075874 289.052652 443.951581 288.070309 438.072259 288.070309 C 424.598814 288.070309 414.06503 291.754095 405.980963 299.121667 C 397.896896 306.243653 393.977348 316.067082 393.977348 328.100783 C 393.977348 344.555026 399.366726 358.307827 409.90051 369.113599 C 420.679266 379.673786 431.213051 386.550186 441.991807 389.988386 L 457.914969 392.935415 C 450.075874 401.039744 441.991807 404.969115 433.90774 404.969115 L 429.988192 404.969115 C 408.675652 403.00443 387.608083 394.654515 367.030458 379.919371 C 346.452833 365.429813 321.95566 344.063855 294.028883 316.067082 C 266.102106 288.070309 244.054651 267.686694 227.886517 254.916236 C 229.356347 254.425064 234.255782 253.442721 243.074764 251.969207 C 251.648774 250.741278 259.732841 248.776593 267.081993 246.07515 C 274.431145 243.373707 283.005156 240.672264 293.048996 237.970821 C 303.092837 235.269378 311.911819 230.603249 319.995886 223.972434 C 328.079953 217.341619 335.429105 211.447562 342.043342 206.044676 C 348.657579 200.64179 354.291928 192.046289 358.946391 180.012589 C 363.600854 167.978888 365.560628 156.92753 365.070684 147.104101 C 365.070684 135.561572 363.355882 122.054357 359.926278 106.091285 C 356.741646 89.882627 354.781872 76.620997 354.046957 66.060811 C 354.046957 39.291967 363.11091 26.030337 380.993847 26.030337 C 413.085143 26.030337 439.052146 65.56964 458.894856 144.89383 C 460.364686 150.296716 466.978923 152.998159 478.982538 152.998159 L 482.902085 152.998159 C 493.680841 152.998159 499.070219 150.05113 499.070219 143.911487 C 499.070219 140.718872 498.090332 136.052743 495.885587 129.9131 C 468.693725 36.099352 429.253277 -11.053108 378.054186 -11.053108 C 347.922663 -11.053108 323.670462 -2.212021 305.052611 14.97898 C 286.43476 32.415566 276.880862 57.219725 276.880862 89.882627 C 276.880862 101.916327 278.105721 112.230928 280.065495 121.072014 C 282.025269 129.667515 283.005156 137.771844 283.005156 144.89383 C 283.005156 159.628973 278.350693 172.399431 269.041767 182.959617 C 259.732841 193.765389 247.974199 201.378547 234.01081 206.044676 C 220.047422 210.710805 208.778722 214.394591 199.95974 217.096034 C 191.38573 219.551891 185.261436 220.77982 182.076804 220.043062 L 180.11703 220.043062 C 172.032963 192.046289 164.928783 165.031859 159.049461 138.999772 C 152.925168 112.967685 148.270705 93.566413 145.086073 81.04154 C 141.656469 68.271083 138.716808 55.991796 136.022119 43.958095 C 133.32743 31.924395 130.877713 24.065652 128.917939 19.890694 C 126.958165 15.961322 124.75342 11.786365 122.058731 7.120236 C 119.364042 2.454107 115.689466 -0.738507 111.035003 -1.966436 C 102.216021 -8.106079 92.907095 -11.053108 83.108226 -11.053108 C 71.594555 -11.053108 63.020544 -7.614907 56.896251 -0.984093 C 51.01693 5.646722 48.077269 11.295194 48.077269 15.961322 C 48.077269 22.592137 60.325855 75.88424 85.068 176.083217 C 109.565173 276.036608 134.062345 374.2709 158.069575 471.031676 L 195.060305 615.927256 C 195.550249 624.768342 193.345503 629.925642 187.956125 631.890328 C 182.566747 634.1006 169.583246 635.574114 149.005621 637.047628 L 144.106186 637.047628 C 137.246978 637.047628 133.082458 637.047628 130.877713 637.047628 C 128.917939 637.047628 126.713193 638.029971 124.018504 639.994657 C 121.323815 641.959343 120.343929 644.4152 121.078844 647.116643 Z M 121.078844 647.116643 "
     transform="matrix(0.0159457, 0, 0, -0.0159059, 366.147436, 223.976535)"
     id="path32" />
  <path
     fill="none"
     stroke-width="2"
     stroke-linecap="round"
     stroke-linejoin="round"
     stroke="rgb(19.999695%, 19.999695%, 19.999695%)"
     stroke-opacity="1"
     stroke-miterlimit="10"
     d="M 61.000614 150.998273 C 77.101399 151.300489 93.139658 149.398616 112.757605 150.998273 M 61.000614 150.998273 C 79.857812 151.967447 96.781874 151.99871 112.757605 150.998273 "
     transform="matrix(0.749672, 0, 0, 0.749672, 0, 0)"
     id="path34" />
  <path
     fill="none"
     stroke-width="1"
     stroke-linecap="round"
     stroke-linejoin="round"
     stroke="rgb(19.999695%, 19.999695%, 19.999695%)"
     stroke-opacity="1"
     stroke-miterlimit="10"
     d="M 110.939102 146.7881 L 110.939102 146.7881 M 110.939102 146.7881 L 110.939102 146.7881 M 113.038978 156.568416 C 114.237418 155.32829 116.097606 152.941831 118.291273 150.529318 M 113.038978 156.568416 C 114.310367 155.510662 115.441069 153.770318 118.291273 150.529318 "
     transform="matrix(0.749672, 0, 0, 0.749672, 0, 0)"
     id="path36" />
  <path
     fill="none"
     stroke-width="2"
     stroke-linecap="round"
     stroke-linejoin="round"
     stroke="rgb(19.999695%, 19.999695%, 19.999695%)"
     stroke-opacity="1"
     stroke-miterlimit="10"
     d="M 118.760228 150.998273 C 116.56135 152.050817 115.211802 153.499366 110.761941 155.000022 M 118.760228 150.998273 C 116.759354 152.33219 114.85227 152.790723 110.761941 155.000022 M 110.761941 155.000022 C 110.91826 153.911004 111.512269 153.228414 112.757605 150.998273 M 110.761941 155.000022 C 111.272581 153.739054 111.679009 152.749038 112.757605 150.998273 M 112.757605 150.998273 C 111.548743 149.768569 111.189211 147.929224 110.761941 147.001735 M 112.757605 150.998273 C 112.090647 149.940519 111.788431 148.992188 110.761941 147.001735 M 110.761941 147.001735 C 113.408931 148.648288 116.821881 149.278772 118.760228 150.998273 M 110.761941 147.001735 C 113.007714 148.419021 116.248714 149.877992 118.760228 150.998273 "
     transform="matrix(0.749672, 0, 0, 0.749672, 0, 0)"
     id="path38" />
  <path
     fill-rule="nonzero"
     fill="rgb(19.999695%, 19.999695%, 19.999695%)"
     fill-opacity="1"
     stroke-width="5.362343"
     stroke-linecap="butt"
     stroke-linejoin="miter"
     stroke="rgb(19.999695%, 19.999695%, 19.999695%)"
     stroke-opacity="0.2745"
     stroke-miterlimit="4"
     d="M 130.918931 289.073781 C 130.918931 310.277859 136.330149 332.025631 146.978031 353.954634 C 157.625913 376.064869 176.303345 396.36279 203.010328 415.029627 C 229.717311 433.696465 262.010067 442.576805 300.063154 442.033111 C 341.258238 442.033111 371.281774 432.971539 389.959206 415.029627 C 408.636639 397.087715 418.411743 376.971026 418.93541 355.042023 C 418.93541 333.656714 413.349635 318.070811 402.003532 307.92185 C 390.657428 297.954122 377.914881 292.69841 363.950445 291.973484 C 355.397229 291.973484 347.367678 294.691956 340.03635 299.947667 C 332.705021 305.38461 328.690246 314.083719 327.992024 326.044994 C 327.992024 336.737648 330.959467 345.980451 337.068907 353.954634 C 343.003792 361.928817 348.589567 367.909455 354.000785 372.077778 C 359.412004 376.064869 363.601335 378.058415 366.917888 378.058415 C 367.61611 378.058415 367.965221 378.420878 367.965221 378.964572 C 367.965221 380.958118 365.696 384.039052 360.983003 388.026144 C 356.270006 392.013235 348.0659 395.637864 336.021575 399.081261 C 323.977249 402.343427 311.060147 404.336973 296.921156 405.061899 C 264.97751 405.061899 241.587081 396.36279 226.924424 378.964572 C 212.261766 361.747586 204.581327 343.986906 204.057661 326.044994 C 204.057661 309.371702 210.341657 297.591659 223.084204 291.067327 C 235.652196 284.361764 253.980517 278.74359 278.069168 274.031572 C 301.983264 269.319555 319.264252 264.245075 330.08669 258.989363 C 374.074661 239.5976 396.068647 207.700868 396.068647 162.936704 C 396.068647 144.269866 392.402982 125.603028 385.071654 106.936191 C 377.740325 88.269353 366.743333 69.602516 352.080675 50.935678 C 337.418018 32.26884 316.29681 17.589094 289.066161 7.077671 C 261.660957 -3.614983 230.415532 -9.414389 194.980778 -9.958084 C 143.661478 -9.958084 107.353946 -0.352818 86.058182 19.038946 C 64.587863 38.249478 53.59087 61.084638 53.067203 87.000733 C 53.067203 112.916828 60.049421 131.583666 74.013856 143.001246 C 87.978292 154.418826 102.640949 160.037001 118.001828 160.037001 C 127.951488 160.037001 137.377482 156.956066 145.930699 150.975429 C 154.658471 144.994792 159.371468 134.6646 160.069689 119.984854 C 160.069689 102.586636 153.960249 88.088122 141.915923 75.945616 C 130.046153 63.984341 119.747382 58.003704 111.01961 58.003704 C 109.623167 57.278778 108.750389 56.916315 108.052168 56.916315 C 107.353946 56.916315 107.004835 56.372621 107.004835 54.92277 C 107.703057 52.929224 110.321388 50.391984 115.034385 46.948586 C 119.747382 43.686421 130.046153 39.336866 145.930699 34.081155 C 161.989799 28.644212 180.318121 26.288203 200.915663 27.013129 C 225.004314 27.013129 245.601856 30.637757 263.0574 38.068246 C 280.338389 45.317504 293.080936 54.741538 300.935931 65.977887 C 308.965481 77.395467 314.725811 87.725659 318.042364 96.968462 C 321.358918 106.392497 322.929917 114.729142 322.929917 121.9784 C 322.929917 140.645237 315.947699 154.600058 301.983264 164.024092 C 288.018828 173.266895 271.959728 179.066301 253.980517 181.059847 C 236.001307 183.053393 216.276542 187.946642 194.980778 195.920825 C 173.685014 204.076239 157.975024 215.675051 148.025364 231.079723 C 136.67926 247.753014 130.918931 266.963546 130.918931 289.073781 Z M 130.918931 289.073781 "
     transform="matrix(0.0223783, 0, 0, -0.0215539, 17.992135, 118.980677)"
     id="path40" />
  <path
     fill-rule="nonzero"
     fill="rgb(19.999695%, 19.999695%, 19.999695%)"
     fill-opacity="1"
     stroke-width="5.366556"
     stroke-linecap="butt"
     stroke-linejoin="miter"
     stroke="rgb(19.999695%, 19.999695%, 19.999695%)"
     stroke-opacity="0.2706"
     stroke-miterlimit="4"
     d="M 26.068239 384.968963 C 21.363812 389.685662 18.917509 393.004821 18.917509 394.92644 C 18.917509 397.721521 20.046572 402.962298 21.928343 410.998156 C 23.998291 419.034015 25.691885 423.750714 27.009125 424.973562 C 28.326364 428.292721 31.337198 430.039647 36.041625 430.039647 C 40.746053 430.039647 57.681991 430.389032 87.037619 430.91311 L 139.915383 430.91311 L 158.92127 510.922308 C 160.991218 518.259396 163.249343 528.04218 166.072 539.921275 C 168.706479 551.975062 170.964604 560.709691 173.034552 565.950468 C 174.916323 571.365938 176.986271 578.004256 179.056219 586.040114 C 180.93799 594.075972 183.760647 599.666135 186.959657 602.985293 C 190.346845 606.304452 193.734033 610.322382 196.933044 615.039081 C 200.320231 619.581088 205.024659 622.725554 211.046326 623.948402 C 217.067993 625.345943 223.08966 626.044713 228.92315 626.044713 C 240.966484 625.345943 249.246277 621.677399 253.950704 615.039081 C 258.655132 608.400763 260.913257 601.937138 260.913257 595.997591 C 260.913257 591.280891 258.0906 575.733252 252.068933 549.005289 C 246.047266 522.277325 239.272891 496.073439 231.933984 470.044246 L 221.960598 433.00942 C 221.960598 431.61188 238.708359 430.91311 272.015706 430.91311 L 323.011699 430.91311 C 327.716126 426.371103 329.974252 422.702559 329.974252 420.08217 C 329.974252 405.407994 325.646178 393.703592 316.990032 384.968963 L 209.917263 384.968963 L 173.975438 239.974128 C 148.006998 133.411659 135.022779 75.937802 135.022779 68.076636 C 135.022779 39.951132 144.055279 25.975726 161.932104 25.975726 C 185.266064 25.975726 208.035492 37.330744 230.052213 60.040778 C 252.068933 82.750813 269.75758 110.701624 282.929977 144.067905 C 284.247217 148.085835 285.940811 150.356838 288.010759 151.055608 C 290.080707 151.579686 294.973311 152.278456 303.064927 152.977227 L 307.016646 152.977227 C 316.990032 152.977227 322.070814 150.356838 322.070814 144.941368 C 322.070814 143.01975 320.941751 139.001821 319.05998 133.062273 C 315.672792 122.406027 309.651125 109.653469 300.994979 94.979293 C 292.338832 80.305117 281.048206 64.582785 266.934924 47.986991 C 253.009819 31.391196 236.07388 17.41579 215.938931 6.060773 C 195.992158 -5.294244 175.669032 -11.059099 154.969551 -11.059099 C 135.022779 -11.059099 116.016892 -5.993014 97.95189 3.964462 C 80.075066 13.921939 67.090846 31.391196 58.999231 56.022849 C 57.681991 61.263626 56.929283 70.34764 56.929283 82.925505 L 56.929283 100.91884 L 91.930223 241.022283 C 115.264183 335.006887 127.307518 382.348574 128.060226 383.047345 C 128.060226 384.270193 110.93611 384.968963 77.064233 384.968963 Z M 26.068239 384.968963 "
     transform="matrix(0.0207584, 0, 0, -0.0223607, 544.263553, 118.951929)"
     id="path42" />
  <path
     fill="none"
     stroke-width="2"
     stroke-linecap="round"
     stroke-linejoin="round"
     stroke="rgb(19.999695%, 19.999695%, 19.999695%)"
     stroke-opacity="1"
     stroke-miterlimit="10"
     d="M 181.000967 150.998273 C 194.569396 152.347821 207.971085 151.050379 222.758797 150.998273 M 181.000967 150.998273 C 196.622376 150.670005 211.441352 150.362579 222.758797 150.998273 "
     transform="matrix(0.749672, 0, 0, 0.749672, 0, 0)"
     id="path44" />
  <path
     fill="none"
     stroke-width="1"
     stroke-linecap="round"
     stroke-linejoin="round"
     stroke="rgb(19.999695%, 19.999695%, 19.999695%)"
     stroke-opacity="1"
     stroke-miterlimit="10"
     d="M 220.830871 146.918366 L 220.830871 146.918366 M 220.830871 146.918366 L 220.830871 146.918366 M 222.930747 156.68826 C 224.801356 155.422081 224.801356 153.587947 228.177832 150.659584 M 222.930747 156.68826 C 224.702355 154.520646 226.770967 152.551035 228.177832 150.659584 "
     transform="matrix(0.749672, 0, 0, 0.749672, 0, 0)"
     id="path46" />
  <path
     fill="none"
     stroke-width="2"
     stroke-linecap="round"
     stroke-linejoin="round"
     stroke="rgb(19.999695%, 19.999695%, 19.999695%)"
     stroke-opacity="1"
     stroke-miterlimit="10"
     d="M 228.76142 150.998273 C 226.838705 152.160239 223.8895 154.171535 220.757923 155.000022 M 228.76142 150.998273 C 225.650686 151.99871 223.238173 153.249257 220.757923 155.000022 M 220.757923 155.000022 C 220.862135 153.801582 221.852151 152.452034 222.758797 150.998273 M 220.757923 155.000022 C 221.320669 153.942268 221.961574 152.629194 222.758797 150.998273 M 222.758797 150.998273 C 222.169998 149.888413 221.800045 149.028663 220.757923 147.001735 M 222.758797 150.998273 C 222.039733 149.351721 221.138297 148.168912 220.757923 147.001735 M 220.757923 147.001735 C 224.087503 148.179333 227.599454 150.748164 228.76142 150.998273 M 220.757923 147.001735 C 222.909905 147.908381 223.952027 148.502391 228.76142 150.998273 "
     transform="matrix(0.749672, 0, 0, 0.749672, 0, 0)"
     id="path48" />
  <path
     fill-rule="nonzero"
     fill="rgb(19.999695%, 19.999695%, 19.999695%)"
     fill-opacity="1"
     stroke-width="5.270073"
     stroke-linecap="butt"
     stroke-linejoin="miter"
     stroke="rgb(19.999695%, 19.999695%, 19.999695%)"
     stroke-opacity="0.2784"
     stroke-miterlimit="4"
     d="M 173.050407 380.066294 C 173.050407 396.606304 166.702988 404.967188 154.008151 404.967188 C 138.053829 404.967188 121.413299 395.333995 103.91501 376.06761 C 86.588273 356.619467 72.349469 326.992856 61.027046 287.006019 C 60.340839 286.278986 59.654632 285.370194 58.968424 283.916127 C 58.282217 282.643819 57.939113 281.735027 57.939113 281.007993 C 57.939113 280.28096 57.252906 279.735685 56.052043 279.008652 C 54.679628 278.281618 53.650317 277.918101 52.964109 277.918101 C 52.277902 277.918101 51.077039 277.918101 49.018417 277.918101 C 46.959794 277.918101 44.386517 277.918101 40.95548 277.918101 L 27.059779 277.918101 C 22.942535 281.916785 21.055464 285.006677 21.055464 287.006019 C 21.055464 291.731736 23.628742 301.364929 28.94685 316.087355 C 34.264957 330.628023 42.327894 348.076824 52.964109 368.070243 C 63.600324 388.063661 78.353784 404.967188 97.052936 418.962581 C 115.752088 432.957974 136.681414 440.410066 160.012466 440.955341 C 187.975418 440.955341 209.590952 432.957974 225.030619 416.963239 C 240.298734 400.968504 248.361671 382.247394 249.047878 360.981667 C 249.047878 349.71265 248.018567 340.988249 245.959945 334.990223 C 245.959945 330.99154 240.984941 316.269113 231.034934 291.004703 C 221.084926 265.740292 210.620263 235.931923 199.984048 201.943111 C 189.347833 167.9543 183.343518 138.327689 181.971103 113.063278 C 181.971103 95.069202 183.686622 80.346775 186.946107 69.077758 C 195.695252 40.359938 216.624578 26.001029 250.077189 26.001029 C 274.609104 26.001029 297.597053 37.270047 319.041035 59.98984 C 340.313464 82.709634 356.953994 109.064595 368.962624 139.054722 C 380.971254 169.04485 390.749709 196.672119 397.954887 221.93653 C 405.331617 247.382699 408.934206 265.740292 408.934206 277.00931 C 408.934206 292.277011 406.360928 305.727129 401.042821 316.996147 C 395.724713 328.265164 389.720398 336.989565 383.029876 342.987591 C 376.339354 348.985616 370.335039 354.983642 365.016931 360.981667 C 359.698824 366.979693 356.953994 374.250027 356.953994 382.974427 C 356.953994 397.696854 363.301413 411.32873 375.99625 424.051815 C 388.691087 436.593141 402.415235 442.954683 416.997143 442.954683 C 429.69198 442.954683 441.014403 436.956657 450.96441 424.960606 C 460.914418 412.964555 466.404077 393.69817 466.918733 366.979693 C 466.918733 348.985616 462.97304 321.358347 455.081655 283.916127 C 447.018717 246.655665 434.666984 205.033003 418.026454 159.048141 C 401.385924 113.063278 377.711769 73.2582 347.003987 39.996422 C 316.296205 6.734644 280.956523 -10.350641 240.984941 -11.077674 C 198.268529 -11.077674 164.301262 0.00958487 139.08314 22.002345 C 114.379673 43.268072 102.027939 75.075783 102.027939 117.061962 C 102.027939 137.600656 104.601217 159.048141 109.919325 181.040901 C 115.408984 203.033661 128.961581 241.929948 150.920218 297.91152 C 165.673677 340.624732 173.050407 368.070243 173.050407 380.066294 Z M 173.050407 380.066294 "
     transform="matrix(0.0227701, 0, 0, -0.0214914, 102.708065, 118.972862)"
     id="path50" />
  <path
     fill-rule="nonzero"
     fill="rgb(19.999695%, 19.999695%, 19.999695%)"
     fill-opacity="1"
     stroke-width="7.454135"
     stroke-linecap="butt"
     stroke-linejoin="miter"
     stroke="rgb(19.999695%, 19.999695%, 19.999695%)"
     stroke-opacity="0.1961"
     stroke-miterlimit="4"
     d="M 213.103185 578.008131 L 200.000214 573.123536 C 190.779604 569.781445 177.433986 566.439354 159.963357 563.097263 C 142.735377 559.755172 123.323567 557.441416 101.970577 555.898913 L 83.044063 555.898913 L 83.044063 601.916937 L 101.970577 601.916937 C 133.27212 603.45944 162.389833 608.344035 189.081071 617.084889 C 215.772309 625.568658 234.213528 633.53826 244.890023 640.993694 C 255.566518 648.449128 265.029775 655.647478 273.037146 663.102912 C 274.250384 664.9025 278.375394 665.930836 284.926879 665.930836 C 290.99307 665.930836 296.573965 663.874164 301.912213 660.017905 L 301.912213 361.029292 L 302.882803 61.012344 C 307.735755 56.384833 311.618117 53.299826 315.015184 52.014406 C 318.41225 50.728987 326.419622 49.443567 339.037298 47.901063 C 351.654974 46.615644 372.280021 46.101476 400.91244 46.101476 L 427.118382 46.101476 L 427.118382 0.0834521 L 415.956592 0.0834521 C 401.88303 1.88304 348.98585 2.911375 257.022404 2.911375 C 166.272195 2.911375 114.102958 1.88304 100.029396 0.0834521 L 87.897015 0.0834521 L 87.897015 46.101476 L 114.102958 46.101476 C 128.661815 46.101476 141.279491 46.101476 151.955986 46.101476 C 162.632481 46.101476 170.8825 46.35856 176.94869 46.872728 C 183.014881 47.643979 188.353128 48.672315 192.963433 49.957735 C 197.573738 51.243155 200.242861 52.014406 200.970804 52.014406 C 201.698747 52.014406 203.639928 53.55691 207.036995 56.899001 C 210.434061 60.241092 212.375242 61.783596 213.103185 61.012344 Z M 213.103185 578.008131 "
     transform="matrix(0.0160984, 0, 0, -0.0151945, 114.502963, 122.196581)"
     id="path52" />
  <path
     fill="none"
     stroke-width="2"
     stroke-linecap="round"
     stroke-linejoin="round"
     stroke="rgb(19.999695%, 19.999695%, 19.999695%)"
     stroke-opacity="1"
     stroke-miterlimit="10"
     d="M 390.99898 136.002137 C 408.777582 99.579972 423.169287 67.920304 447.320465 23.369587 M 390.99898 136.002137 C 413.20139 93.509611 434.971319 49.891593 447.320465 23.369587 "
     transform="matrix(0.749672, 0, 0, 0.749672, 0, 0)"
     id="path54" />
  <path
     fill="none"
     stroke-width="1"
     stroke-linecap="round"
     stroke-linejoin="round"
     stroke="rgb(19.999695%, 19.999695%, 19.999695%)"
     stroke-opacity="1"
     stroke-miterlimit="10"
     d="M 442.912289 23.291428 L 442.912289 23.291428 M 442.912289 23.291428 L 442.912289 23.291428 "
     transform="matrix(0.749672, 0, 0, 0.749672, 0, 0)"
     id="path56" />
  <path
     fill="none"
     stroke-width="2"
     stroke-linecap="round"
     stroke-linejoin="round"
     stroke="rgb(19.999695%, 19.999695%, 19.999695%)"
     stroke-opacity="1"
     stroke-miterlimit="10"
     d="M 449.998719 17.997448 C 450.337409 20.331801 449.32134 24.437762 449.998719 26.938855 M 449.998719 17.997448 C 449.83198 20.248431 450.34783 22.697418 449.998719 26.938855 M 449.998719 26.938855 C 449.352603 25.990524 449.050388 25.69873 447.320465 23.369587 M 449.998719 26.938855 C 449.498501 25.927996 448.748173 25.089088 447.320465 23.369587 M 447.320465 23.369587 C 446.408609 23.249743 445.027797 23.291428 442.839341 23.369587 M 447.320465 23.369587 C 445.548858 23.520694 443.970043 23.390429 442.839341 23.369587 M 442.839341 23.369587 C 444.960059 22.270148 446.288765 19.789898 449.998719 17.997448 M 442.839341 23.369587 C 444.918374 22.040881 446.450294 20.607963 449.998719 17.997448 "
     transform="matrix(0.749672, 0, 0, 0.749672, 0, 0)"
     id="path58" />
  <path
     fill="none"
     stroke-width="2"
     stroke-linecap="round"
     stroke-linejoin="round"
     stroke="rgb(19.999695%, 19.999695%, 19.999695%)"
     stroke-opacity="1"
     stroke-miterlimit="10"
     d="M 390.99898 150.998273 C 407.412402 138.029065 423.007758 125.26828 444.407734 110.939102 M 390.99898 150.998273 C 410.658612 136.841045 429.119804 120.349464 444.407734 110.939102 "
     transform="matrix(0.749672, 0, 0, 0.749672, 0, 0)"
     id="path60" />
  <path
     fill="none"
     stroke-width="1"
     stroke-linecap="round"
     stroke-linejoin="round"
     stroke="rgb(19.999695%, 19.999695%, 19.999695%)"
     stroke-opacity="1"
     stroke-miterlimit="10"
     d="M 440.598778 108.729803 L 440.598778 108.729803 M 440.598778 108.729803 L 440.598778 108.729803 "
     transform="matrix(0.749672, 0, 0, 0.749672, 0, 0)"
     id="path62" />
  <path
     fill="none"
     stroke-width="2"
     stroke-linecap="round"
     stroke-linejoin="round"
     stroke="rgb(19.999695%, 19.999695%, 19.999695%)"
     stroke-opacity="1"
     stroke-miterlimit="10"
     d="M 449.211917 107.33857 C 448.258375 109.089335 447.372572 112.080226 445.210168 115.342068 M 449.211917 107.33857 C 448.117689 110.178353 446.257501 112.450179 445.210168 115.342068 M 445.210168 115.342068 C 444.527578 113.731989 444.392103 111.908276 444.407734 110.939102 M 445.210168 115.342068 C 444.960059 113.919571 444.730792 112.299071 444.407734 110.939102 M 444.407734 110.939102 C 443.141556 109.917822 441.437687 109.151863 440.411196 108.938228 M 444.407734 110.939102 C 443.047765 110.501411 441.838904 109.860506 440.411196 108.938228 M 440.411196 108.938228 C 442.568389 108.807962 445.871916 108.458852 449.211917 107.33857 M 440.411196 108.938228 C 442.401649 108.662065 444.8819 108.250427 449.211917 107.33857 "
     transform="matrix(0.749672, 0, 0, 0.749672, 0, 0)"
     id="path64" />
  <path
     fill="none"
     stroke-width="2"
     stroke-linecap="round"
     stroke-linejoin="round"
     stroke="rgb(19.999695%, 19.999695%, 19.999695%)"
     stroke-opacity="1"
     stroke-miterlimit="10"
     d="M 390.99898 165.99962 C 408.157519 198.722252 427.488883 233.549971 447.320465 278.63217 M 390.99898 165.99962 C 404.301668 192.177726 418.187944 220.268125 447.320465 278.63217 "
     transform="matrix(0.749672, 0, 0, 0.749672, 0, 0)"
     id="path66" />
  <path
     fill="none"
     stroke-width="1"
     stroke-linecap="round"
     stroke-linejoin="round"
     stroke="rgb(19.999695%, 19.999695%, 19.999695%)"
     stroke-opacity="1"
     stroke-miterlimit="10"
     d="M 442.677812 278.809331 L 442.677812 278.809331 M 442.677812 278.809331 L 442.677812 278.809331 M 449.368235 283.311298 C 450.999156 281.7898 452.348704 280.059878 453.969204 278.02774 M 449.368235 283.311298 C 450.670888 281.61785 452.0517 280.231828 453.969204 278.02774 "
     transform="matrix(0.749672, 0, 0, 0.749672, 0, 0)"
     id="path68" />
  <path
     fill="none"
     stroke-width="2"
     stroke-linecap="round"
     stroke-linejoin="round"
     stroke="rgb(19.999695%, 19.999695%, 19.999695%)"
     stroke-opacity="1"
     stroke-miterlimit="10"
     d="M 449.998719 283.999099 C 448.430325 282.779816 445.491541 281.268739 442.839341 278.63217 M 449.998719 283.999099 C 448.320903 283.358194 447.44031 281.737694 442.839341 278.63217 M 442.839341 278.63217 C 444.230574 278.37164 445.64786 278.762436 447.320465 278.63217 M 442.839341 278.63217 C 444.03257 278.840595 445.267485 278.778068 447.320465 278.63217 M 447.320465 278.63217 C 447.841526 277.579627 448.758594 277.308675 449.998719 275.057692 M 447.320465 278.63217 C 448.388641 277.392045 449.060809 276.381187 449.998719 275.057692 M 449.998719 275.057692 C 450.118563 276.990828 450.34783 278.210111 449.998719 283.999099 M 449.998719 275.057692 C 450.290513 277.60047 449.639187 280.257881 449.998719 283.999099 "
     transform="matrix(0.749672, 0, 0, 0.749672, 0, 0)"
     id="path70" />
  <path
     fill-rule="nonzero"
     fill="rgb(19.999695%, 19.999695%, 19.999695%)"
     fill-opacity="1"
     stroke-width="5.342779"
     stroke-linecap="butt"
     stroke-linejoin="miter"
     stroke="rgb(19.999695%, 19.999695%, 19.999695%)"
     stroke-opacity="0.2784"
     stroke-miterlimit="4"
     d="M 172.95787 379.998147 C 172.95787 396.694331 166.678771 405.042423 153.946153 405.042423 C 138.073984 405.042423 121.329719 395.302983 104.062195 375.99802 C 86.620252 356.693057 72.317859 326.952979 60.980596 286.951705 C 60.282918 286.25603 59.58524 285.386437 59.061982 283.995089 C 58.364304 282.60374 58.015465 281.734147 58.015465 281.038473 C 58.015465 280.342799 57.317788 279.647124 55.922432 278.95145 C 54.701496 278.255775 53.65498 278.081857 52.957302 278.081857 C 52.259624 278.081857 51.038688 278.081857 48.945655 278.081857 C 47.027041 278.081857 44.41075 278.081857 40.922361 278.081857 L 26.968807 278.081857 C 22.95716 282.081984 21.038546 285.0386 21.038546 286.951705 C 21.038546 291.647506 23.654838 301.386947 29.06184 315.996108 C 34.294423 330.605269 42.317717 347.997128 52.957302 367.997765 C 63.596887 387.998402 78.248119 405.042423 97.085418 418.95591 C 115.748297 433.043315 136.678629 440.347896 160.050833 441.04357 C 187.957942 441.04357 209.585951 433.043315 224.934861 417.042806 C 240.283771 401.042296 248.307065 382.259089 249.004742 361.041022 C 249.004742 349.736314 247.958226 341.040384 246.039612 334.953234 C 246.039612 330.953106 240.981449 316.343945 231.039541 290.951832 C 220.923214 265.733637 210.632468 235.99356 199.992882 202.079436 C 189.353297 167.991393 183.248617 138.251315 182.027681 113.033121 C 182.027681 94.945588 183.597456 80.336427 187.085844 69.031719 C 195.632397 40.335152 216.737148 26.073828 250.051259 26.073828 C 274.644399 26.073828 297.667764 37.378536 318.946934 59.987952 C 340.400524 82.597368 356.97037 109.032993 369.005311 138.94699 C 381.040252 169.034905 390.63332 196.68796 397.958937 222.080073 C 405.284553 247.298268 408.947361 265.733637 408.947361 277.038345 C 408.947361 292.343181 406.331069 305.734912 400.924067 317.03962 C 395.691484 328.344328 389.586804 337.040257 382.958865 342.953489 C 376.330927 349.040639 370.400666 354.953871 364.993664 361.041022 C 359.586662 366.954253 356.97037 374.258834 356.97037 382.954763 C 356.97037 397.737843 363.24947 411.303492 375.982088 423.999549 C 388.714707 436.695606 402.319422 442.956675 416.970654 442.956675 C 429.703273 442.956675 441.040536 437.043443 450.982444 425.043061 C 460.924351 413.042678 466.331353 393.737715 467.029031 366.954253 C 467.029031 349.040639 463.017384 321.387584 454.99409 283.995089 C 446.970797 246.602593 434.587017 205.036052 418.017171 158.947627 C 401.272906 113.033121 377.726283 73.379683 347.028463 39.987315 C 316.330643 6.594947 280.923498 -10.275156 240.981449 -10.97083 C 198.248688 -10.97083 164.411318 -0.0139591 138.946081 22.073701 C 114.352942 43.291768 101.969162 74.944951 101.969162 117.033248 C 101.969162 137.72956 104.585454 158.947627 109.992456 181.035287 C 115.399458 202.949029 129.004174 242.08071 150.981022 298.082494 C 165.632254 340.692547 172.95787 367.997765 172.95787 379.998147 Z M 172.95787 379.998147 "
     transform="matrix(0.0223957, 0, 0, -0.0224602, 260.146014, 119.40203)"
     id="path72" />
  <path
     fill-rule="nonzero"
     fill="rgb(19.999695%, 19.999695%, 19.999695%)"
     fill-opacity="1"
     stroke-width="7.556971"
     stroke-linecap="butt"
     stroke-linejoin="miter"
     stroke="rgb(19.999695%, 19.999695%, 19.999695%)"
     stroke-opacity="0.2"
     stroke-miterlimit="4"
     d="M 121.074879 647.06362 C 121.074879 653.705489 122.308397 661.331339 125.022136 669.941169 C 127.735875 678.551 131.683132 682.978913 137.110611 682.978913 C 137.604018 682.978913 161.780967 684.700879 208.901347 687.898816 C 256.268432 691.342748 280.692084 693.310709 281.925602 694.048695 C 290.06682 694.048695 294.014077 691.342748 294.014077 685.930855 C 294.014077 681.256947 277.238234 611.640317 243.933253 477.080965 C 210.628272 344.981565 194.099134 276.594911 194.099134 271.921003 C 206.681015 278.562873 216.302454 284.958747 222.963451 291.108626 C 238.999182 302.916393 261.942614 324.071977 292.040448 354.083386 C 321.891579 384.094796 345.328418 404.266399 362.10426 415.090185 C 388.748245 433.047832 413.912008 441.903658 438.088958 441.903658 C 458.071946 441.903658 473.614271 435.753779 484.962635 422.962031 C 496.310999 410.416277 502.231884 392.212636 502.971995 369.089091 C 502.971995 352.36142 500.751663 338.339696 496.064295 327.023919 C 491.376927 315.708142 484.962635 307.344306 477.068121 301.932413 C 468.926903 296.766514 462.019203 293.076587 456.098318 291.108626 C 449.930729 288.894669 444.009843 287.910689 438.088958 287.910689 C 424.766965 287.910689 413.912008 291.600616 406.017494 298.980471 C 398.12298 306.360326 393.92902 315.954137 393.92902 328.007899 C 393.92902 344.73557 399.356498 358.265304 409.964751 369.089091 C 420.573005 379.666883 431.427961 386.554747 442.036215 389.998679 L 458.071946 392.950621 C 449.930729 401.068461 442.036215 405.004384 433.894997 405.004384 L 429.94774 405.004384 C 408.731234 403.036423 387.761431 394.672587 367.038331 379.912878 C 346.315232 365.399164 321.891579 343.997585 294.014077 315.954137 C 265.889871 287.910689 243.933253 267.739086 227.897522 254.947337 C 229.377743 254.455347 234.311814 253.225371 242.946439 251.995396 C 251.581064 250.76542 259.722281 248.551463 266.876685 246.091512 C 274.277792 243.385565 282.912416 240.679618 293.027262 237.973672 C 302.895405 235.267725 312.023437 230.593817 319.917951 223.951948 C 328.059168 217.310078 335.213572 211.406194 342.121272 205.994301 C 348.782268 200.582408 354.45645 191.972577 358.897114 179.918814 C 363.584482 168.111047 365.55811 157.041265 365.064703 146.955463 C 365.064703 135.639686 363.337778 122.109952 359.883928 106.120267 C 356.676782 89.884586 354.703153 76.600848 353.963043 66.023056 C 353.963043 39.455579 363.091074 25.925845 381.100435 25.925845 C 412.925194 25.925845 439.075772 65.777061 459.058761 144.987502 C 460.292278 150.399395 466.953275 153.105342 479.041749 153.105342 L 482.989006 153.105342 C 493.597259 153.105342 499.024738 149.907405 499.024738 144.003521 C 499.024738 140.559589 498.037924 135.885681 496.064295 129.981797 C 468.6802 36.011647 429.454333 -10.973429 377.893288 -10.973429 C 348.042157 -10.973429 323.618504 -2.363598 305.115737 15.102058 C 286.366266 32.321719 276.991531 57.413225 276.991531 89.884586 C 276.991531 101.938349 277.978345 112.270146 279.951974 120.879976 C 281.925602 129.735802 282.912416 137.607647 282.912416 144.987502 C 282.912416 159.747211 278.225049 172.292964 269.097017 183.116751 C 259.722281 193.694543 247.88051 201.320393 234.065111 205.994301 C 220.003008 210.668209 208.654644 214.358136 200.020019 217.064083 C 191.385394 219.77003 185.217805 220.75401 182.010659 220.016025 L 180.037031 220.016025 C 171.895813 191.972577 164.988113 164.91311 159.067228 139.083618 C 152.899639 113.008131 148.212271 93.574514 145.005125 81.028761 C 141.551275 68.237012 138.590832 55.937254 135.877093 43.883492 C 133.410057 32.075724 130.943021 23.957884 128.969393 20.021961 C 126.995764 16.086039 124.775432 11.658126 122.061693 6.984218 C 119.347954 2.31031 115.647401 -0.641632 110.960033 -2.117603 C 102.325408 -8.021487 92.950673 -10.973429 83.08253 -10.973429 C 71.734166 -10.973429 63.099542 -7.775492 56.931952 -0.887627 C 51.011067 5.754242 48.050624 11.412131 48.050624 16.086039 C 48.050624 22.727908 60.385802 76.108857 85.056159 175.982892 C 109.726515 276.102921 133.903464 374.254989 158.080413 470.931086 L 195.085948 616.06823 C 195.579355 624.67806 193.359023 630.089954 187.931545 632.057915 C 182.75077 634.025876 169.675481 635.747842 148.952382 636.977818 L 144.01831 636.977818 C 137.357314 636.977818 132.91665 636.977818 130.943021 636.977818 C 128.969393 636.977818 126.749061 637.961799 124.035322 639.92976 C 121.321582 641.897721 120.334768 644.357673 121.074879 647.06362 Z M 121.074879 647.06362 "
     transform="matrix(0.0158338, 0, 0, -0.0158794, 271.746989, 122.771061)"
     id="path74" />
  <path
     fill="none"
     stroke-width="2"
     stroke-linecap="round"
     stroke-linejoin="round"
     stroke="rgb(19.999695%, 19.999695%, 19.999695%)"
     stroke-opacity="1"
     stroke-miterlimit="10"
     d="M 291.002159 150.998273 C 299.177607 150.11247 311.130746 149.211034 322.760828 150.998273 M 291.002159 150.998273 C 301.579698 150.680426 310.119888 150.80027 322.760828 150.998273 "
     transform="matrix(0.749672, 0, 0, 0.749672, 0, 0)"
     id="path76" />
  <path
     fill="none"
     stroke-width="1"
     stroke-linecap="round"
     stroke-linejoin="round"
     stroke="rgb(19.999695%, 19.999695%, 19.999695%)"
     stroke-opacity="1"
     stroke-miterlimit="10"
     d="M 320.442107 147.371689 L 320.442107 147.371689 M 320.442107 147.371689 L 320.442107 147.371689 M 322.541983 157.152004 C 324.678333 155.458556 325.871563 153.53063 328.440393 150.362579 M 322.541983 157.152004 C 324.417802 154.880178 326.36136 152.811566 328.440393 150.362579 "
     transform="matrix(0.749672, 0, 0, 0.749672, 0, 0)"
     id="path78" />
  <path
     fill="none"
     stroke-width="2"
     stroke-linecap="round"
     stroke-linejoin="round"
     stroke="rgb(19.999695%, 19.999695%, 19.999695%)"
     stroke-opacity="1"
     stroke-miterlimit="10"
     d="M 328.758241 150.998273 C 326.908474 152.900146 324.548068 152.358243 320.759954 155.000022 M 328.758241 150.998273 C 326.840736 151.691284 325.392187 152.358243 320.759954 155.000022 M 320.759954 155.000022 C 321.312279 153.457681 321.812497 152.597931 322.760828 150.998273 M 320.759954 155.000022 C 321.421702 154.291379 321.489439 153.290942 322.760828 150.998273 M 322.760828 150.998273 C 321.729128 149.200613 321.421702 147.632219 320.759954 147.001735 M 322.760828 150.998273 C 321.989658 149.679989 321.119486 148.028226 320.759954 147.001735 M 320.759954 147.001735 C 323.412155 148.189754 325.861141 149.409037 328.758241 150.998273 M 320.759954 147.001735 C 323.19852 148.518023 326.158146 149.930098 328.758241 150.998273 "
     transform="matrix(0.749672, 0, 0, 0.749672, 0, 0)"
     id="path80" />
  <path
     fill-rule="nonzero"
     fill="rgb(19.999695%, 19.999695%, 19.999695%)"
     fill-opacity="1"
     stroke-width="5.879712"
     stroke-linecap="butt"
     stroke-linejoin="miter"
     stroke="rgb(19.999695%, 19.999695%, 19.999695%)"
     stroke-opacity="0.2431"
     stroke-miterlimit="4"
     d="M 78.012774 250.060335 C 78.012774 265.900589 83.75468 280.073448 95.047095 291.953638 C 106.33951 304.042254 120.694275 310.086561 137.919994 310.086561 C 153.99733 310.086561 167.969302 304.667527 180.027305 294.037882 C 192.085307 283.408238 198.401404 269.026955 198.975595 251.102456 C 198.975595 234.428505 193.425085 220.047221 181.941273 207.958606 C 170.648858 196.078415 156.294093 190.034108 139.068375 190.034108 C 121.65126 190.034108 107.296494 195.661567 96.004079 206.916484 C 84.711664 218.379826 78.586964 232.761109 78.012774 250.060335 Z M 524.924462 250.060335 C 524.924462 265.900589 530.666368 280.073448 541.958784 291.953638 C 553.251199 304.042254 567.605964 310.086561 585.023079 310.086561 C 600.909019 310.086561 615.072388 304.667527 626.938994 294.037882 C 638.996996 283.408238 645.313093 269.026955 646.07868 251.102456 C 646.07868 234.428505 640.336774 220.047221 629.044359 207.958606 C 617.751944 196.078415 603.397179 190.034108 585.980064 190.034108 C 568.754345 190.034108 554.39958 195.661567 542.915768 206.916484 C 531.623353 218.379826 525.69005 232.761109 524.924462 250.060335 Z M 972.027548 250.060335 C 972.027548 265.900589 977.578057 280.073448 989.061869 291.953638 C 1000.354285 304.042254 1014.70905 310.086561 1031.934768 310.086561 C 1048.012105 310.086561 1061.984076 304.667527 1074.042079 294.037882 C 1085.908685 283.408238 1092.416179 269.026955 1092.990369 251.102456 C 1092.990369 234.428505 1087.248463 220.047221 1075.956048 207.958606 C 1064.663633 196.078415 1050.308867 190.034108 1033.083149 190.034108 C 1015.666034 190.034108 1001.311269 195.661567 990.018854 206.916484 C 978.726439 218.379826 972.601739 232.761109 972.027548 250.060335 Z M 972.027548 250.060335 "
     transform="matrix(0.0204092, 0, 0, -0.0187418, 183.7047, 118.260801)"
     id="path82" />
  <path
     fill-rule="nonzero"
     fill="rgb(19.999695%, 19.999695%, 19.999695%)"
     fill-opacity="1"
     stroke-width="5.940423"
     stroke-linecap="butt"
     stroke-linejoin="miter"
     stroke="rgb(19.999695%, 19.999695%, 19.999695%)"
     stroke-opacity="0.251"
     stroke-miterlimit="4"
     d="M 121.00847 647.071706 C 121.00847 653.646393 122.365834 661.381319 125.080562 670.083111 C 127.601381 678.59153 131.673473 683.039112 136.90902 683.039112 C 137.684657 683.039112 161.729392 684.586098 209.043226 688.066814 C 256.357059 691.354158 280.595704 693.287889 281.953068 694.061382 C 289.903343 694.061382 293.975435 691.354158 293.975435 685.93971 C 293.975435 681.298754 277.299248 611.684419 243.946873 476.903331 C 210.594499 345.02284 193.918312 276.762117 193.918312 271.927788 C 206.716316 278.695849 216.411774 285.077163 223.004685 291.071731 C 238.905235 303.060866 261.980425 323.945167 292.036344 353.918005 C 322.092263 384.084217 345.361361 404.388398 362.037548 415.023922 C 388.603103 433.007625 414.005202 442.096163 438.049937 442.096163 C 458.02258 442.096163 473.729221 435.714849 484.975952 422.952221 C 496.416592 410.382966 502.427776 392.399263 503.009504 369.001111 C 503.009504 352.37102 500.682594 338.25478 496.028774 327.039137 C 491.374954 315.630121 484.975952 307.315075 477.025677 302.094 C 469.075402 296.679552 462.094672 293.005462 456.083488 291.071731 C 450.072304 288.944626 444.061121 287.97776 438.049937 287.97776 C 424.670205 287.97776 414.005202 291.65185 406.054926 299.00003 C 397.910742 306.34821 394.032559 316.016867 394.032559 328.006003 C 394.032559 344.636094 399.268106 358.365588 409.933109 369.001111 C 420.598113 379.636635 431.263116 386.598068 441.92812 390.078785 L 458.02258 392.979382 C 450.072304 400.907682 441.92812 404.968518 433.977845 404.968518 L 429.905752 404.968518 C 408.575745 403.034786 387.633557 394.719741 367.079186 380.023381 C 346.330907 365.327021 322.092263 344.055975 293.975435 316.016867 C 266.052517 287.97776 243.946873 267.673579 228.046323 254.910951 C 229.403687 254.330831 234.251416 253.363966 242.977328 252.010354 C 251.70324 250.656741 259.653515 248.72301 267.022063 246.015786 C 274.390611 243.308562 282.922613 240.601337 293.005889 238.087487 C 303.089165 235.380262 312.008987 230.739307 319.959262 223.971246 C 327.909537 217.396559 335.278085 211.401991 342.064905 205.987543 C 348.657817 200.573095 354.281182 192.064676 358.935002 180.075541 C 363.588822 168.086405 365.721822 157.064135 364.946186 147.008731 C 364.946186 135.599715 363.394912 122.063595 359.904548 106.013623 C 356.608092 89.963651 354.669001 76.620903 354.087273 65.98538 C 354.087273 39.299885 363.007094 25.957137 381.040645 25.957137 C 413.035656 25.957137 439.019483 65.598634 458.992125 145.075 C 460.34949 150.296075 466.942401 153.003299 478.964768 153.003299 L 483.036861 153.003299 C 493.701864 153.003299 498.937411 149.909329 498.937411 143.914761 C 498.937411 140.627417 497.967865 135.986462 496.028774 129.991894 C 468.687583 36.012541 429.324025 -10.977135 377.938099 -10.977135 C 348.076089 -10.977135 323.643536 -2.275343 305.028257 14.934868 C 286.412978 32.338451 276.91143 57.283588 276.91143 89.963651 C 276.91143 101.952787 278.074885 112.394937 280.013976 120.903356 C 281.953068 129.605147 282.922613 137.72682 282.922613 145.075 C 282.922613 159.577986 278.268794 172.340614 268.961154 182.976138 C 259.653515 193.611661 248.018966 201.346587 234.057507 205.987543 C 220.096047 210.628499 208.655407 214.302589 199.929495 217.009813 C 191.397493 219.717037 185.386309 220.683903 182.089853 219.91041 L 179.956853 219.91041 C 172.006577 192.064676 165.025848 164.992435 159.014664 139.080432 C 153.00348 112.975056 148.34966 93.637741 145.053205 81.068486 C 141.756749 68.305858 138.654203 55.929976 135.939475 43.940841 C 133.418656 31.951705 131.091746 24.023406 128.958745 19.96257 C 127.019653 16.095107 124.692744 11.647524 121.978015 7.006568 C 119.263287 2.365613 115.579013 -0.728358 110.925194 -2.08197 C 102.393191 -8.076538 93.085551 -10.977135 83.002275 -10.977135 C 71.755544 -10.977135 63.029633 -7.689791 57.018449 -0.921731 C 51.007265 5.652956 47.904719 11.260778 47.904719 16.095107 C 47.904719 22.669794 60.314904 76.040784 84.941367 176.014704 C 109.761739 275.988625 134.000383 374.41556 158.045118 470.908763 L 195.081767 615.938628 C 195.663494 624.64042 193.336584 630.054868 187.907128 631.9886 C 182.671581 633.922331 169.679667 635.66269 148.931388 637.016302 L 144.083659 637.016302 C 137.296839 637.016302 133.030837 637.016302 131.091746 637.016302 C 128.958745 637.016302 126.631835 637.983168 123.917107 639.916899 C 121.396288 642.044004 120.426742 644.364482 121.00847 647.071706 Z M 121.00847 647.071706 "
     transform="matrix(0.0201447, 0, 0, -0.0202006, 62.972472, 103.23138)"
     id="path84" />
  <path
     fill-rule="nonzero"
     fill="rgb(19.999695%, 19.999695%, 19.999695%)"
     fill-opacity="1"
     stroke-width="5.940423"
     stroke-linecap="butt"
     stroke-linejoin="miter"
     stroke="rgb(19.999695%, 19.999695%, 19.999695%)"
     stroke-opacity="0.251"
     stroke-miterlimit="4"
     d="M 121.052907 647.071706 C 121.052907 653.646393 122.410271 661.381319 124.93109 670.083111 C 127.645819 678.59153 131.717911 683.039112 136.953458 683.039112 C 137.729095 683.039112 161.579921 684.586098 209.087663 688.066814 C 256.401497 691.354158 280.640141 693.287889 281.997505 694.061382 C 289.947781 694.061382 294.019873 691.354158 294.019873 685.93971 C 294.019873 681.298754 277.343686 611.684419 243.991311 476.903331 C 210.638937 345.02284 193.962749 276.762117 193.962749 271.927788 C 206.760754 278.695849 216.262302 285.077163 223.049122 291.071731 C 238.949673 303.060866 262.024862 323.945167 292.080781 353.918005 C 321.942791 384.084217 345.405799 404.388398 362.081986 415.023922 C 388.64754 433.007625 414.049639 442.096163 438.094375 442.096163 C 458.067017 442.096163 473.57975 435.714849 485.02039 422.952221 C 496.267121 410.382966 502.278305 392.399263 503.053941 369.001111 C 503.053941 352.37102 500.727031 338.25478 496.073212 327.039137 C 491.419392 315.630121 485.02039 307.315075 477.070115 302.094 C 468.92593 296.679552 461.945201 293.005462 455.934017 291.071731 C 449.922833 288.944626 443.911649 287.97776 438.094375 287.97776 C 424.714643 287.97776 414.049639 291.65185 405.905455 299.00003 C 397.95518 306.34821 394.076997 316.016867 394.076997 328.006003 C 394.076997 344.636094 399.312544 358.365588 409.977547 369.001111 C 420.642551 379.636635 431.307554 386.598068 441.972558 390.078785 L 458.067017 392.979382 C 449.922833 400.907682 441.972558 404.968518 434.022282 404.968518 L 429.95019 404.968518 C 408.620183 403.034786 387.677994 394.719741 366.929715 380.023381 C 346.375345 365.327021 321.942791 344.055975 294.019873 316.016867 C 265.903046 287.97776 243.991311 267.673579 228.09076 254.910951 C 229.254215 254.330831 234.295853 253.363966 243.021765 252.010354 C 251.747677 250.656741 259.697953 248.72301 267.066501 246.015786 C 274.241139 243.308562 282.967051 240.601337 293.050327 238.087487 C 302.939694 235.380262 312.053424 230.739307 320.0037 223.971246 C 327.953975 217.396559 335.322523 211.401991 341.915434 205.987543 C 348.702254 200.573095 354.32562 192.064676 358.97944 180.075541 C 363.633259 168.086405 365.572351 157.064135 364.990623 147.008731 C 364.990623 135.599715 363.245441 122.063595 359.948985 106.013623 C 356.65253 89.963651 354.713438 76.620903 353.937802 65.98538 C 353.937802 39.299885 363.051532 25.957137 381.085083 25.957137 C 413.080094 25.957137 439.06392 65.598634 459.036563 145.075 C 460.393927 150.296075 466.986839 153.003299 479.009206 153.003299 L 483.081298 153.003299 C 493.746302 153.003299 498.981849 149.909329 498.981849 143.914761 C 498.981849 140.627417 498.012303 135.986462 496.073212 129.991894 C 468.732021 36.012541 429.368463 -10.977135 377.982537 -10.977135 C 347.926618 -10.977135 323.687974 -2.275343 305.072695 14.934868 C 286.263507 32.338451 276.955867 57.283588 276.955867 89.963651 C 276.955867 101.952787 277.925413 112.394937 280.058414 120.903356 C 281.997505 129.605147 282.967051 137.72682 282.967051 145.075 C 282.967051 159.577986 278.313231 172.340614 269.005592 182.976138 C 259.697953 193.611661 248.063403 201.346587 233.908035 205.987543 C 219.946576 210.628499 208.699845 214.302589 199.973933 217.009813 C 191.248021 219.717037 185.236837 220.683903 181.940382 219.91041 L 180.00129 219.91041 C 172.051015 192.064676 165.070285 164.992435 159.059102 139.080432 C 153.047918 112.975056 148.394098 93.637741 144.903733 81.068486 C 141.607278 68.305858 138.69864 55.929976 135.983912 43.940841 C 133.269184 31.951705 130.942274 24.023406 129.003183 19.96257 C 127.064091 16.095107 124.737181 11.647524 122.022453 7.006568 C 119.307725 2.365613 115.623451 -0.728358 110.969631 -2.08197 C 102.243719 -8.076538 92.93608 -10.977135 83.046713 -10.977135 C 71.606073 -10.977135 63.07407 -7.689791 57.062886 -0.921731 C 51.051703 5.652956 47.949156 11.260778 47.949156 16.095107 C 47.949156 22.669794 60.359342 76.040784 84.985805 176.014704 C 109.612267 275.988625 134.044821 374.41556 158.089556 470.908763 L 194.932295 615.938628 C 195.707932 624.64042 193.381022 630.054868 187.951566 631.9886 C 182.716018 633.922331 169.724105 635.66269 148.975826 637.016302 L 143.934188 637.016302 C 137.341276 637.016302 133.075275 637.016302 130.942274 637.016302 C 129.003183 637.016302 126.676273 637.983168 123.961545 639.916899 C 121.246817 642.044004 120.277271 644.364482 121.052907 647.071706 Z M 121.052907 647.071706 "
     transform="matrix(0.0201447, 0, 0, -0.0202006, 145.43642, 103.23138)"
     id="path86" />
  <path
     fill-rule="nonzero"
     fill="rgb(19.999695%, 19.999695%, 19.999695%)"
     fill-opacity="1"
     stroke-width="5.717586"
     stroke-linecap="butt"
     stroke-linejoin="miter"
     stroke="rgb(19.999695%, 19.999695%, 19.999695%)"
     stroke-opacity="0.2588"
     stroke-miterlimit="4"
     d="M 212.925757 578.048959 L 200.083522 573.036352 C 190.591435 569.758878 177.376962 566.288612 160.067862 563.011138 C 142.758763 559.733665 123.40235 557.420154 101.998625 556.070606 L 83.014452 556.070606 L 83.014452 601.955238 L 101.998625 601.955238 C 133.266676 603.304786 162.301294 608.317393 188.916361 616.993059 C 215.717547 625.668725 234.329482 633.57322 244.938285 641.09213 C 255.733207 648.418248 265.039175 655.744366 273.042307 663.070484 C 274.345142 664.998409 278.253649 665.962372 284.953945 665.962372 C 290.909764 665.962372 296.679464 664.034446 302.076925 659.985802 L 302.076925 360.964522 L 303.007522 60.979279 C 307.660506 56.352257 311.755132 53.267576 314.919161 51.918028 C 318.269309 50.761273 326.272441 49.411725 338.928557 48.062177 C 351.584672 46.712629 372.24392 45.941458 401.092419 45.941458 L 426.963009 45.941458 L 426.963009 0.056826 L 415.981967 0.056826 C 402.023016 1.984752 348.979001 2.948715 257.036043 2.948715 C 166.39592 2.948715 113.910263 1.984752 99.951312 0.056826 L 88.039674 0.056826 L 88.039674 45.941458 L 113.910263 45.941458 C 128.613692 45.941458 141.269808 45.941458 152.06473 45.941458 C 162.673533 45.941458 171.048904 46.327043 177.004723 46.905421 C 182.960542 47.676592 188.358003 48.640554 193.010987 49.990102 C 197.663971 51.33965 200.269641 51.918028 201.014119 51.918028 C 201.758596 51.918028 203.61979 53.653161 206.969938 56.930635 C 210.320086 60.400901 212.367399 61.750449 212.925757 60.979279 Z M 212.925757 578.048959 "
     transform="matrix(0.0209879, 0, 0, -0.0202614, 287.87489, 50.977714)"
     id="path88" />
  <path
     fill-rule="nonzero"
     fill="rgb(19.999695%, 19.999695%, 19.999695%)"
     fill-opacity="1"
     stroke-width="5.717586"
     stroke-linecap="butt"
     stroke-linejoin="miter"
     stroke="rgb(19.999695%, 19.999695%, 19.999695%)"
     stroke-opacity="0.2588"
     stroke-miterlimit="4"
     d="M 212.95172 578.048959 L 199.923365 573.036352 C 190.617398 569.758878 177.402924 566.288612 159.907705 563.011138 C 142.598606 559.733665 123.242193 557.420154 102.024588 556.070606 L 83.040414 556.070606 L 83.040414 601.955238 L 102.024588 601.955238 C 133.292638 603.304786 162.327257 608.317393 188.942324 616.993059 C 215.74351 625.668725 234.355445 633.57322 244.964248 641.09213 C 255.75917 648.418248 265.065137 655.744366 273.068269 663.070484 C 274.371105 664.998409 278.279611 665.962372 284.979908 665.962372 C 290.935727 665.962372 296.705427 664.034446 301.916769 659.985802 L 301.916769 360.964522 L 303.033485 60.979279 C 307.686468 56.352257 311.594975 53.267576 314.945123 51.918028 C 318.295271 50.761273 326.298403 49.411725 338.954519 48.062177 C 351.610635 46.712629 372.269882 45.941458 400.932262 45.941458 L 426.988971 45.941458 L 426.988971 0.056826 L 416.00793 0.056826 C 402.048978 1.984752 349.004964 2.948715 257.062005 2.948715 C 166.421882 2.948715 113.936226 1.984752 99.977275 0.056826 L 88.065636 0.056826 L 88.065636 45.941458 L 113.936226 45.941458 C 128.639654 45.941458 141.29577 45.941458 152.090692 45.941458 C 162.699495 45.941458 171.074866 46.327043 177.030685 46.905421 C 182.986504 47.676592 188.383966 48.640554 193.036949 49.990102 C 197.689933 51.33965 200.295604 51.918028 201.040081 51.918028 C 201.598439 51.918028 203.645752 53.653161 206.9959 56.930635 C 210.346049 60.400901 212.393362 61.750449 212.95172 60.979279 Z M 212.95172 578.048959 "
     transform="matrix(0.0209879, 0, 0, -0.0202614, 467.796221, 50.977714)"
     id="path90" />
  <path
     fill-rule="nonzero"
     fill="rgb(19.999695%, 19.999695%, 19.999695%)"
     fill-opacity="1"
     stroke-width="5.717586"
     stroke-linecap="butt"
     stroke-linejoin="miter"
     stroke="rgb(19.999695%, 19.999695%, 19.999695%)"
     stroke-opacity="0.2588"
     stroke-miterlimit="4"
     d="M 212.992848 577.911624 L 199.964494 573.09181 C 190.658526 569.621544 177.257933 566.34407 159.948834 563.066596 C 142.639734 559.59633 123.283322 557.282819 102.065716 555.933271 L 83.081543 555.933271 L 83.081543 602.010696 L 102.065716 602.010696 C 133.333767 603.360244 162.368385 608.372851 188.983452 617.048516 C 215.598519 625.724182 234.396573 633.628678 245.005376 640.954795 C 255.614179 648.280913 264.920147 655.607031 272.923279 662.933149 C 274.412233 665.053867 278.32074 666.01783 285.021036 666.01783 C 290.976856 666.01783 296.746555 664.089904 301.957897 660.04126 L 301.957897 361.01998 L 303.074613 61.034737 C 307.727597 56.407715 311.636103 53.323034 314.986252 51.973486 C 318.3364 50.623938 326.339532 49.27439 338.995648 47.924842 C 351.651763 46.575294 372.311011 45.996916 400.973391 45.996916 L 427.0301 45.996916 L 427.0301 -0.0805088 L 416.049058 -0.0805088 C 402.090107 2.040209 349.046092 3.004172 256.917015 3.004172 C 166.276892 3.004172 113.977355 2.040209 100.018403 -0.0805088 L 87.920646 -0.0805088 L 87.920646 45.996916 L 113.977355 45.996916 C 128.680783 45.996916 141.336899 45.996916 151.945702 45.996916 C 162.740624 45.996916 170.929875 46.382501 177.071814 46.960879 C 183.027633 47.732049 188.425094 48.696012 193.078078 50.04556 C 197.731062 51.395108 200.336733 51.973486 201.08121 51.973486 C 201.639568 51.973486 203.686881 53.708619 207.037029 56.986093 C 210.387177 60.263566 212.248371 61.613114 212.992848 61.034737 Z M 212.992848 577.911624 "
     transform="matrix(0.0209879, 0, 0, -0.0202614, 317.861764, 110.951494)"
     id="path92" />
  <path
     fill-rule="nonzero"
     fill="rgb(19.999695%, 19.999695%, 19.999695%)"
     fill-opacity="1"
     stroke-width="5.717586"
     stroke-linecap="butt"
     stroke-linejoin="miter"
     stroke="rgb(19.999695%, 19.999695%, 19.999695%)"
     stroke-opacity="0.2588"
     stroke-miterlimit="4"
     d="M 212.916244 577.911624 L 200.074009 573.09181 C 190.581922 569.621544 177.367448 566.34407 160.058349 563.066596 C 142.749249 559.59633 123.392837 557.282819 101.989112 555.933271 L 83.004938 555.933271 L 83.004938 602.010696 L 101.989112 602.010696 C 133.257162 603.360244 162.291781 608.372851 189.092967 617.048516 C 215.708034 625.724182 234.319969 633.628678 244.928772 640.954795 C 255.723694 648.280913 265.029662 655.607031 273.032794 662.933149 C 274.335629 665.053867 278.244135 666.01783 284.944432 666.01783 C 291.08637 666.01783 296.669951 664.089904 302.067412 660.04126 L 302.067412 361.01998 L 302.998009 61.034737 C 307.650993 56.407715 311.745618 53.323034 314.909647 51.973486 C 318.259795 50.623938 326.262927 49.27439 338.919043 47.924842 C 351.575159 46.575294 372.420526 45.996916 401.082906 45.996916 L 426.953495 45.996916 L 426.953495 -0.0805088 L 415.972454 -0.0805088 C 402.013503 2.040209 348.969488 3.004172 257.02653 3.004172 C 166.386407 3.004172 114.086869 2.040209 99.941799 -0.0805088 L 88.030161 -0.0805088 L 88.030161 45.996916 L 114.086869 45.996916 C 128.604179 45.996916 141.260294 45.996916 152.055217 45.996916 C 162.66402 45.996916 171.03939 46.382501 176.995209 46.960879 C 182.951029 47.732049 188.34849 48.696012 193.001473 50.04556 C 197.654457 51.395108 200.260128 51.973486 201.004605 51.973486 C 201.749083 51.973486 203.610276 53.708619 206.960425 56.986093 C 210.310573 60.263566 212.357886 61.613114 212.916244 61.034737 Z M 212.916244 577.911624 "
     transform="matrix(0.0209879, 0, 0, -0.0202614, 430.31259, 110.951494)"
     id="path94" />
  <path
     fill-rule="nonzero"
     fill="rgb(19.999695%, 19.999695%, 19.999695%)"
     fill-opacity="1"
     stroke-width="5.717586"
     stroke-linecap="butt"
     stroke-linejoin="miter"
     stroke="rgb(19.999695%, 19.999695%, 19.999695%)"
     stroke-opacity="0.2588"
     stroke-miterlimit="4"
     d="M 213.082091 577.979206 L 200.053736 572.966599 C 190.747769 569.689126 177.347176 566.411652 160.038076 562.941386 C 142.728977 559.663912 123.372565 557.350401 101.968839 556.000853 L 82.984666 556.000853 L 82.984666 602.078278 L 101.968839 602.078278 C 133.423009 603.427826 162.271509 608.24764 189.072695 616.923306 C 215.687762 625.598972 234.299697 633.69626 244.9085 641.022377 C 255.703422 648.348495 265.009389 655.674613 273.012521 663.000731 C 274.315357 664.928656 278.409982 666.085412 284.92416 666.085412 C 291.066098 666.085412 296.649679 663.964694 302.04714 659.91605 L 302.04714 361.087562 L 302.977737 60.909526 C 307.63072 56.282504 311.725346 53.390616 315.075494 52.041068 C 318.425642 50.69152 326.242655 49.341972 339.08489 47.992424 C 351.741006 46.642876 372.400254 46.064498 401.062633 46.064498 L 426.933223 46.064498 L 426.933223 -0.0129268 L 415.952181 -0.0129268 C 401.99323 1.914999 348.949216 3.071754 257.006257 3.071754 C 166.366134 3.071754 114.066597 1.914999 99.921527 -0.0129268 L 88.009888 -0.0129268 L 88.009888 46.064498 L 114.066597 46.064498 C 128.583906 46.064498 141.426141 46.064498 152.034944 46.064498 C 162.643747 46.064498 171.019118 46.257291 176.974937 47.028461 C 182.930756 47.606839 188.328217 48.570802 192.981201 49.92035 C 197.634185 51.269898 200.425975 52.041068 200.984333 52.041068 C 201.728811 52.041068 203.590004 53.583408 206.940152 57.053675 C 210.290301 60.331148 212.337613 61.680696 213.082091 60.909526 Z M 213.082091 577.979206 "
     transform="matrix(0.0209879, 0, 0, -0.0202614, 295.371609, 197.163801)"
     id="path96" />
  <path
     fill-rule="nonzero"
     fill="rgb(19.999695%, 19.999695%, 19.999695%)"
     fill-opacity="1"
     stroke-width="5.717586"
     stroke-linecap="butt"
     stroke-linejoin="miter"
     stroke="rgb(19.999695%, 19.999695%, 19.999695%)"
     stroke-opacity="0.2588"
     stroke-miterlimit="4"
     d="M 213.041191 577.979206 L 200.012837 572.966599 C 190.706869 569.689126 177.306276 566.411652 159.997176 562.941386 C 142.688077 559.663912 123.331665 557.350401 101.92794 556.000853 L 82.943766 556.000853 L 82.943766 602.078278 L 101.92794 602.078278 C 133.38211 603.427826 162.416728 608.24764 189.031795 616.923306 C 215.646862 625.598972 234.258797 633.69626 245.053719 641.022377 C 255.662522 648.348495 264.968489 655.674613 272.971621 663.000731 C 274.274457 664.928656 278.369082 666.085412 285.069379 666.085412 C 291.025198 666.085412 296.608779 663.964694 302.00624 659.91605 L 302.00624 361.087562 L 302.936837 60.909526 C 307.58982 56.282504 311.684446 53.390616 315.034594 52.041068 C 318.384743 50.69152 326.387875 49.341972 339.04399 47.992424 C 351.700106 46.642876 372.359354 46.064498 401.021734 46.064498 L 427.078442 46.064498 L 427.078442 -0.0129268 L 415.911281 -0.0129268 C 401.95233 1.914999 348.908316 3.071754 256.965357 3.071754 C 166.325234 3.071754 114.025697 1.914999 100.066746 -0.0129268 L 87.968988 -0.0129268 L 87.968988 46.064498 L 114.025697 46.064498 C 128.729126 46.064498 141.385242 46.064498 151.994044 46.064498 C 162.602847 46.064498 170.978218 46.257291 176.934037 47.028461 C 183.075976 47.606839 188.287318 48.570802 192.940301 49.92035 C 197.593285 51.269898 200.385075 52.041068 200.943433 52.041068 C 201.687911 52.041068 203.735224 53.583408 207.085372 57.053675 C 210.249401 60.331148 212.296714 61.680696 213.041191 60.909526 Z M 213.041191 577.979206 "
     transform="matrix(0.0209879, 0, 0, -0.0202614, 445.306061, 197.163801)"
     id="path98" />
</svg>
