<svg width="612.69" height="426.977" stroke-linejoin="round" stroke-linecap="round" fill-rule="evenodd" font-family="'Bitstream Courier'" xmlns:xlink="http://www.w3.org/1999/xlink" xmlns="http://www.w3.org/2000/svg"><g font-size="12" transform="matrix(2.07467 0 0 2.07467 5 88.993)"><defs><path id="a" fill="#0ff" stroke="none" d="M0 0h90v20H0z"/><path id="f" fill="#9cff9c" stroke="#000" d="M0 0h80v20H0z"/><path id="d" fill="#ded" stroke="#000" d="M0 0h80v20H0z"/><path id="c" fill="#ded" stroke="none" d="M3 1h24v18H3z"/><path id="e" fill="#a8a8ff" stroke="none" d="M3 1h24v18H3z"/><marker id="b" viewBox="0 0 14 8" refX="13" refY="4" markerWidth="14" markerHeight="8" orient="auto"><path stroke="#000" d="M1 7V1l12 3z"/></marker></defs><g text-anchor="middle"><text x="130" y="-30" font-size="15" font-weight="bold">hash</text><text x="130" y="-10" font-size="15" font-weight="bold">function</text><path fill="#aec" d="M100 0h60v160h-60z"/><text x="45" y="-10" font-size="15" font-weight="bold">keys</text><g transform="translate(0 30)"><use xlink:href="#a" width="100%" height="100%"/><text x="45" y="14">John Smith</text><path stroke="#000" d="M95 10h10M105 10l50 10"/><path stroke="#000" marker-end="url(#b)" d="M155 20h25"/></g><g transform="translate(0 70)"><use xlink:href="#a" width="100%" height="100%"/><text x="45" y="14">Lisa Smith</text><path stroke="#000" d="M95 10h10M105 10l50-50"/><path stroke="#000" marker-end="url(#b)" d="M155-40h25"/></g><g transform="translate(0 110)"><use xlink:href="#a" width="100%" height="100%"/><text x="45" y="14">Sandra Dee</text><path stroke="#000" d="M95 10h10M105 10l50 10"/><path stroke="#000" marker-end="url(#b)" d="M155 20h25"/></g></g><g text-anchor="middle"><text x="70" y="-10" font-size="15" font-weight="bold" transform="translate(180)">buckets</text><g transform="translate(180)"><use xlink:href="#c" width="100%" height="100%"/><text x="15" y="14">00</text><use x="30" xlink:href="#d" width="100%" height="100%"/></g><g transform="translate(180 20)"><use xlink:href="#e" width="100%" height="100%"/><text x="15" y="14">01</text><use x="30" xlink:href="#f" width="100%" height="100%"/><text x="70" y="14">521-8976</text></g><g transform="translate(180 40)"><use xlink:href="#e" width="100%" height="100%"/><text x="15" y="14">02</text><use x="30" xlink:href="#f" width="100%" height="100%"/><text x="70" y="14">521-1234</text></g><g transform="translate(180 60)"><use xlink:href="#c" width="100%" height="100%"/><text x="15" y="14">03</text><use x="30" xlink:href="#d" width="100%" height="100%"/></g><g font-weight="bold"><text x="15" y="14" transform="translate(180 80)">:</text><text x="70" y="14" transform="translate(180 80)">:</text></g><g transform="translate(180 100)"><use xlink:href="#c" width="100%" height="100%"/><text x="15" y="14">13</text><use x="30" xlink:href="#d" width="100%" height="100%"/></g><g transform="translate(180 120)"><use xlink:href="#e" width="100%" height="100%"/><text x="15" y="14">14</text><use x="30" xlink:href="#f" width="100%" height="100%"/><text x="70" y="14">521-9655</text></g><g transform="translate(180 140)"><use xlink:href="#c" width="100%" height="100%"/><text x="15" y="14">15</text><use x="30" xlink:href="#d" width="100%" height="100%"/></g></g></g></svg>