<?xml version="1.0" encoding="UTF-8"?>
<svg width="270.06pt" height="152.12pt" version="1.2" viewBox="0 0 270.06 152.12" xmlns="http://www.w3.org/2000/svg" xmlns:xlink="http://www.w3.org/1999/xlink">
 <path d="m266.26 148.59c-0.50058-2.6318-1.0784-4.9534-1.284-5.159-0.47411-0.47412-7.1136 3.7647-9.8076 6.2614-1.1221 1.04-2.229 1.7021-2.4597 1.4713-0.7506-0.7506 3.0811-4.1944 7.3198-6.5788 2.2779-1.2814 4.2717-2.4329 4.4307-2.5589s-0.28161-1.1678-0.97914-2.315l-1.2682-2.0859 1.7334 2.0325c1.2784 1.499 2.0276 1.8465 2.8541 1.324 0.61641-0.38969 1.7957-0.70048 2.6207-0.69066 1.0745 0.0128 0.80854 0.31841-0.9375 1.0773-2.7019 1.1744-2.7846 1.4124-1.6354 4.7088 0.44114 1.2655 0.69426 3.4252 0.5625 4.7994-0.19909 2.0764-0.39337 1.69-1.1497-2.2866zm-124.57-1.9649c0-1.2375 0.27022-3.0938 0.60048-4.125 0.58387-1.8231 0.60048-1.8128 0.60048 0.375 0 1.2375-0.27022 3.0938-0.60048 4.125-0.58387 1.8231-0.60048 1.8128-0.60048-0.375zm77.361-0.0279c-0.24333-0.63411 0.1055-1.7584 0.77518-2.4984s0.99186-1.5712 0.71596-1.8471c-0.2759-0.27594-0.10788-0.50168 0.37336-0.50168 1.257 0 1.0775 1.5331-0.36624 3.1284-1.1198 1.2373-1.1241 1.3716-0.0443 1.3716 0.65834 0 1.4056 0.3375 1.6605 0.75s-0.24199 0.75-1.1043 0.75-1.7669-0.51882-2.0102-1.1529zm-83.923-4.1702c-1.1432-2.2108-1.3682-2.3329-2.2005-1.1947-1.4503 1.9834-2.2016 1.4852-0.85642-0.56787 0.66154-1.0096 0.98892-2.393 0.72753-3.0743-0.41552-1.0828-0.27907-1.116 1.0849-0.26419 0.85813 0.53591 1.3995 1.2344 1.2031 1.5522-0.19643 0.31782 0.18779 1.6316 0.85381 2.9196 0.66603 1.288 1.0422 2.5105 0.83595 2.7167s-0.94803-0.73314-1.6484-2.0875zm77.439-1.126c-0.96535-1.8424-1.0918-1.8786-2.3097-0.66071-0.70863 0.70863-1.5255 1.0426-1.8152 0.74215-0.28973-0.30045 0.23259-1.0568 1.1607-1.6808 0.92813-0.62398 1.6927-1.8527 1.699-2.7305 8e-3 -1.1815 0.17896-1.3317 0.65637-0.57826 0.42228 0.66646 1.2597 0.83665 2.426 0.49306l1.7811-0.5247-1.6337 1.1993c-1.3625 1.0002-1.5269 1.572-0.98985 3.4444 0.79236 2.7628 0.38289 2.8872-0.97475 0.29599zm-119.26-2.3717c-0.60996-0.9428-0.14295-11.004 0.73632-15.863l0.46301-2.5589-12.669 0.49641c-6.9678 0.27302-20.094 0.64381-29.169 0.82397l-16.5 0.32756 18.375-1.0128c10.106-0.55706 23.158-1.042 29.003-1.0776l10.628-0.0648 0.42427-2.0625c0.95683-4.6514 2.1188-17.156 3.6414-39.187 1.2339-17.855 0.31756-51.3-1.4866-54.259-0.4538-0.74425-2.5252 2.1668-5.1735 7.2708-1.038 2.0004-2.0559 3.4683-2.2622 3.2621-0.55976-0.55976 3.0989-7.4611 5.414-10.212 1.1117-1.3212 2.3035-2.12 2.6485-1.775s1.2064 6.2629 1.9144 13.151c0.70799 6.8882 1.4452 12.366 1.6383 12.173 0.19309-0.19309 0.78494 0.26835 1.3152 1.0254 0.87968 1.2559 2.7251 1.4177 21.067 1.8467 15.986 0.37393 22.637 0.85936 32.478 2.3704 6.8062 1.0451 19.631 2.3213 28.5 2.836 8.8688 0.51472 14.1 1.0429 11.625 1.1737-6.2906 0.33249-27.027-1.1114-36-2.5067-4.125-0.64145-10.229-1.5091-13.564-1.9281-7.3207-0.91972-44.393-1.9994-45.481-1.3245-0.49515 0.30699-0.58425 2.4811-0.24854 6.0637 0.36631 3.909 0.17004 7.4477-0.65402 11.792-0.64757 3.4137-1.1774 9.5444-1.1774 13.624v7.4172l3.1875 5e-3c3.1484 5e-3 16.514 2.1297 23.062 3.6664 4.1538 0.97474 10.74 1.073 10.17 0.15171-0.2301-0.37232 0.62276-1.0399 1.8952-1.4835s3.8877-1.9412 5.8116-3.328c7.9365-5.7208 25.295-13.952 41.373-19.619 4.3312-1.5266 13.856-5.4953 21.165-8.8193 11.305-5.141 13.467-5.8967 14.475-5.06 1.6688 1.3849 1.2117 6.259-0.61951 6.6062-0.93416 0.17712-1.6163-0.43852-2.2003-1.9858l-0.84647-2.2425-4.1747 1.8945c-11.552 5.2424-18.479 8.1106-26.675 11.046-18.082 6.4754-30.672 12.395-43.062 20.246-2.9868 1.8927-3.1741 2.176-1.9071 2.885 0.78321 0.43831 9.8823 1.0678 20.562 1.4225 10.536 0.34994 26.582 0.92481 35.657 1.2775s16.709 0.52398 16.965 0.38067c0.43306-0.2428 0.14296-2.2042-1.2484-8.44l-0.56272-2.5221 6.0777 1.0268 0.48588-6.6163c0.26724-3.639 0.78404-8.3038 1.1484-10.366 0.55939-3.1662 0.60561-2.8158 0.29688 2.25-0.20111 3.3-0.67684 9.0375-1.0572 12.75-0.73791 7.2028-0.96698 12.988-1.0449 26.391l-0.0487 8.3914 19.701 0.46538c10.836 0.25596 20.401 0.24322 21.257-0.0283 1.4809-0.47001 1.4374-0.61548-0.9058-3.0331-1.3537-1.3967-2.2447-2.756-1.9801-3.0206 0.55913-0.55939 8.0412 5.5152 8.0412 6.5283 0 0.37409-0.99258 0.68016-2.2057 0.68016-1.2132 0-2.4143 0.3375-2.6693 0.75s-0.80102 0.75-1.2135 0.75-0.54142-0.3375-0.28648-0.75c0.30465-0.49293-6.4778-0.75-19.788-0.75h-20.251l-0.28709 3.1875-0.2871 3.1875-0.13102-3.1875-0.13109-3.1873-29.438-4e-3c-16.191-1e-3 -33.209-0.22075-37.819-0.48639l-8.3817-0.48299-0.6216 5.0978-0.12002-2.3244-0.12003-2.324-7.3125-0.48424c-4.0219-0.26633-13.972-0.48598-22.111-0.48812l-14.798-4e-3 -0.48895 1.9481c-0.26892 1.0715-0.69723 5.3746-0.95179 9.5625-0.26553 4.3683-0.72368 7.2112-1.0747 6.6686zm122.72-18.179c0.1957-0.20625 0.48253-5.141 0.63741-10.966l0.28159-10.591-11.263-0.5459c-6.1947-0.30023-22.401-0.84476-36.013-1.2101-13.612-0.36529-25.931-0.86516-27.375-1.1108-2.4108-0.41016-2.6967-0.25761-3.4986 1.8668-0.70781 1.8752-0.6012 3.613 0.56285 9.174 0.78983 3.7734 1.4361 8.3189 1.4361 10.101v3.2406l10.688 0.26213c15.625 0.38322 64.129 0.21718 64.545-0.22095zm-76.732-5.2035c0-5.5402-2.0076-14.469-3.4335-15.271-0.58656-0.32987-1.0665-1.4267-1.0665-2.4375 0-1.691-0.28444-1.8385-3.5625-1.8476-1.9594-5e-3 -6.7208-0.66155-10.581-1.4581-11.642-2.4023-21.132-3.4542-21.775-2.4138-0.3035 0.49107-0.96884 6.0372-1.4785 12.325-0.50969 6.2876-1.1182 12.36-1.3522 13.494l-0.42551 2.0625h43.675zm-16.369-6.609c-0.0721-1.7531-0.46853-3.1875-0.88103-3.1875s-0.75-0.3375-0.75-0.75 1.7398-0.75 3.8662-0.75h3.8662l-1.4288-1.5885c-0.78581-0.87369-2.1037-1.8648-2.9287-2.2025-1.4755-0.60392-1.4746-0.61471 0.0568-0.66148 1.9982-0.061 5.1522 3.2503 4.5616 4.7893-0.28473 0.74201-1.3897 1.1632-3.0518 1.1632-2.5202 0-2.6148 0.1043-2.8925 3.1875l-0.2871 3.1875-0.13103-3.1875zm94.369-15.937c0-4.3492-0.0655-4.5-1.9552-4.5-1.3489 0-1.8328 0.31914-1.5603 1.0291 0.2172 0.56601 0.62912 2.591 0.9154 4.5 0.3312 2.2086 0.89865 3.4709 1.5603 3.4709 0.77092 0 1.0398-1.1638 1.0398-4.5zm3-33.089c0-0.4125-0.3375-0.54142-0.75-0.28648s-0.75 0.80102-0.75 1.2135 0.3375 0.54142 0.75 0.28648 0.75-0.80102 0.75-1.2135zm-130.28 37.864c0.23812-3.1486 0.83901-6.1017 1.3353-6.5625 0.69231-0.64279 0.79369-0.40137 0.43555 1.0372-0.25675 1.0312-0.47141 3.9844-0.47704 6.5625-7e-3 3.0132-0.3168 4.6875-0.8685 4.6875-0.60719 0-0.7316-1.6746-0.42529-5.7247zm-89.923 2.4083c-0.82759-2.1567 4.2002-9.1363 8.0906-11.231l2.4907-1.3413v-7.3679c0-4.0524 0.27148-7.6394 0.60328-7.9712 1.3398-1.3398 2.0803 1.9562 1.8285 8.1381l-0.26614 6.5348 2.1002 0.46127c1.1551 0.25371 2.3995 0.99613 2.7653 1.6498 0.5695 1.0176 0.73919 0.95528 1.18-0.43361 0.92552-2.916 1.544-1.7089 1.2819 2.5018-0.1413 2.2693-0.56318 4.126-0.9375 4.126s-0.68185-0.42187-0.68339-0.9375c-0.0016-0.51562-0.68664 0.18413-1.5224 1.555-0.8358 1.3709-1.9314 2.3611-2.4347 2.2005s-1.4375-1.8434-2.0761-3.7395l-1.1611-3.4474-1.7758 3.3474c-2.9508 5.5623-8.3364 8.9441-9.4834 5.9551zm4.3235-1.1148c1.9278-1.5164 6.2968-8.9047 5.6488-9.5527-0.60061-0.6006-6.4937 5.0153-7.6896 7.3278-1.9674 3.8045-1.1292 4.7184 2.0408 2.2249zm12.239-5.2815c1.4071-2.721 1.4075-2.6668-0.03431-4.1087-1.4068-1.4068-4.0732-1.5648-4.0672-0.24107 0.0087 1.9571 1.596 6.5625 2.2618 6.5625 0.38252 0 1.2104-0.99574 1.8397-2.2128zm-4.359-15.225c-0.20806-0.51562-0.37829-0.0937-0.37829 0.9375 0 1.0312 0.17023 1.4531 0.37829 0.9375 0.20806-0.51562 0.20806-1.3594 0-1.875zm28.941 16.932c-2.254-1.5723-2.1273-2.9203 0.5625-5.9838 1.2375-1.4094 2.25-3.0312 2.25-3.604 0-1.4316-3.6578-5.6588-5.5638-6.4298-1.5608-0.63143-1.5608-0.63157 0.04864-0.6791 2.0769-0.0613 6.2652 4.67 6.2652 7.0775 0 1.0025-1.0701 3.0416-2.378 4.5312l-2.378 2.7084 2.1905 1.7908c2.4297 1.9863 1.6589 2.4415-0.99702 0.58888zm-18.193-0.80669c-0.02386-2.369-1.7365-10.451-2.3786-11.224-0.5067-0.61053-0.52448-0.96322-0.04856-0.96322 0.96645 0 2.1981 3.2154 2.8729 7.5 0.51409 3.2643 0.55458 3.3072 1.2348 1.3078 0.76309-2.243 2.0752-2.1036 2.0752 0.22036 0 1.2741 0.22174 1.3386 1.9287 0.56088 2.0587-0.93801 3.3127-0.0179 3.286 2.4109-0.0097 0.88475-0.23422 0.8323-1.0512-0.24562-0.98288-1.2968-1.1432-1.3023-2.9761-0.10125-1.8441 1.2083-1.9384 1.2021-1.9601-0.12937-0.02134-1.3092-0.07173-1.3148-0.78727-0.0863-0.76746 1.3176-2.185 1.8019-2.1956 0.75zm60.355-1.3125c0.79684-1.2375 2.2641-3.702 3.2605-5.4766 0.99644-1.7746 1.978-3.0603 2.1813-2.857 0.52532 0.52532-4.043 8.3285-5.5958 9.5582-1.1012 0.87211-1.0782 0.68907 0.154-1.2246zm-1.1533-8.1964c-0.86447-1.9543-1.403-3.722-1.1968-3.9282s1.0823 1.224 1.9468 3.1782c0.86447 1.9543 1.403 3.722 1.1968 3.9282s-1.0823-1.224-1.9468-3.1782zm87.054-15.759c0-0.6431 0.3375-1.1693 0.75-1.1693s0.75 0.31758 0.75 0.70574c0 0.38815-0.3375 0.91432-0.75 1.1693s-0.75-0.0626-0.75-0.70573zm-2.9243-4.453c-0.60591-0.73009-0.63536-1.6192-0.10022-3.0268 0.87341-2.2972-0.21265-3.1057-3.363-2.5035-1.0244 0.19581-1.8625 0.1047-1.8625-0.20249 0-0.84016 2.6011-1.3517 4.7674-0.9376 1.7718 0.33872 1.905 0.64371 1.7621 4.035-0.085 2.0177-0.19763 3.6687-0.25025 3.6688-0.0526 1.5e-4 -0.48174-0.46491-0.95362-1.0335zm-75.638-8.1316c-1.9506-0.94074-2.0796-1.8782-0.53865-3.9155 0.96019-1.2695 1.1012-1.2935 1.1012-0.1875 0 0.69759-0.3375 1.2684-0.75 1.2684-1.5443 0-0.66686 1.2692 1.6875 2.441 1.3406 0.6672 1.9312 1.2118 1.3125 1.2103-0.61875-1e-3 -1.8844-0.36903-2.8125-0.81665zm-9.1875-1.5738c0-0.18022 0.50625-1.5393 1.125-3.0202 1.4619-3.4989 1.4185-4.177-0.2399-3.7433-0.77276 0.20208-1.8302-0.23509-2.4375-1.0077-0.98497-1.2531-0.96357-1.279 0.26188-0.31706 1.1721 0.9201 1.56 0.83573 3.1875-0.69323 1.3657-1.283 1.853-1.4464 1.853-0.62121 0 1.8976-2.2465 8.8012-3.0195 9.2789-0.40178 0.24831-0.73052 0.30402-0.73052 0.12381zm161.83-7.1747c0.17468-1.1901-0.0604-2.8701-0.52233-3.7333-0.73161-1.367-1.2872-1.5081-4.3093-1.0939-2.8572 0.39162-3.6482 0.23103-4.4826-0.91008-1.1219-1.5343-1.3475-6.9102-0.35569-8.4749 0.37001-0.58373 0.48193 0.58707 0.26846 2.8086-0.23487 2.4444-0.0303 4.2142 0.57083 4.9385 1.0382 1.251 3.5598 1.4658 5.1782 0.44114 0.86633-0.54851 0.76796-1.0233-0.5625-2.7147-2.1296-2.7074-2.0968-6.3868 0.0751-8.4019 4.6369-4.3023 8.5941-0.76787 6.1896 5.5283-0.6633 1.7368-1.6818 3.5528-2.2634 4.0354-0.89743 0.74481-0.82291 1.1947 0.49272 2.9741 1.1639 1.5743 1.4223 2.6783 1.0372 4.4315-0.6459 2.9408-1.7437 3.0835-1.3163 0.17107zm1.3561-13.259c0.93338-4.9754-1.2434-6.3354-4.6644-2.9144-2.111 2.111-1.9904 4.7549 0.33435 7.3342 1.1942 1.3249 1.2813 1.3166 2.5426-0.24102 0.71834-0.8871 1.5227-2.7675 1.7874-4.1788zm-137.75-3.9117c-5.0795-4.2135-7.8658-6.9154-7.1314-6.9154 0.36216 0 2.0462 1.2685 3.7423 2.8189 1.6961 1.5504 4.0635 3.5801 5.2609 4.5105 1.1974 0.9304 2.0229 1.8457 1.8346 2.0341s-1.8562-0.91326-3.7064-2.448zm-17.567-10.103c-0.18661-0.51562-0.44076-3.8527-0.56476-7.4158-0.24645-7.0812-0.59678-7.8194-5.3489-11.272-1.6088-1.1687-2.5644-2.125-2.1237-2.125 0.44071 0 2.5797 1.518 4.7534 3.3734l3.9521 3.3734 1.595-1.4984c2.7202-2.5555 3.0598-1.6451 0.40713 1.0917l-2.5104 2.5901 0.4927 6.4099c0.45126 5.8708 0.21351 7.865-0.65243 5.4724z" stroke-width=".75"/>
</svg>
