<?xml version="1.0" encoding="UTF-8"?>
<svg width="341.09pt" height="321pt" version="1.2" viewBox="0 0 341.09 321" xmlns="http://www.w3.org/2000/svg" xmlns:xlink="http://www.w3.org/1999/xlink">
 <path d="m0 320.48c0-0.26659 1.5444-2.1358 3.4321-4.1539l3.4321-3.6691-1.5875-2.6907c-0.87314-1.4799-1.4379-2.8402-1.2551-3.0231 0.18282-0.18283 0.9443 0.70346 1.6922 1.9695 0.74788 1.2661 1.6165 2.3019 1.9302 2.3019 0.31375 0 2.4822-2.54 4.8188-5.6445 2.3366-3.1045 4.4122-5.4806 4.6125-5.2804s-1.6502 3.1802-4.1122 6.6221l-4.4763 6.258 1.7567 2.5637c0.96618 1.41 1.746 2.9107 1.7328 3.3349-0.02292 0.74104-1.1625-0.54723-3.2985-3.7288-0.96597-1.4388-1.1354-1.3547-4.1561 2.0625-2.8589 3.2342-4.5216 4.366-4.5216 3.0778zm242.52-30.546c-1.2529-2.6273-1.2416-2.8471 0.34286-6.6698 2.0054-4.8385 2.0112-5.049 0.13842-5.049-0.95888 0-1.5-0.50001-1.5-1.386 0-1.7061-3.3353-1.9182-54.75-3.4812-19.594-0.59565-42.881-1.4552-51.75-1.9101-11.712-0.60076-18.793-0.60217-25.875-5e-3 -26.127 2.2026-39.203 2.3361-66.544 0.67929-12.823-0.77703-14.084-0.97727-14.505-2.3027-0.27833-0.87693 0.05908-2.026 0.85227-2.9025 0.72215-0.79797 1.1378-1.626 0.92371-1.8402s-3.8964 3.1096-8.1829 7.3861c-4.2865 4.2766-8.9749 8.7028-10.419 9.8361l-2.625 2.0606 11.062-0.39306c6.6398-0.23593 11.062-0.11282 11.062 0.30792 0 0.38556-1.4344 0.73299-3.1875 0.77208-1.7531 0.0391-7.3106 0.2922-12.35 0.5625-9.0262 0.48412-9.176 0.46581-10.084-1.2328-0.72537-1.3572-0.72882-2.848-0.01623-7.0035 0.87202-5.0852 2.1451-8.6396 2.8442-7.9406 0.18437 0.18436-0.01131 1.2466-0.43484 2.3606-1.2254 3.2231-1.9204 12.692-0.90618 12.347 1.7125-0.58232 15.706-14.008 22.634-21.716 3.9188-4.3597 11.443-12.571 16.721-18.247s11.145-12.649 13.037-15.495l3.4409-5.1746-0.53006-5.8282c-0.29153-3.2055-0.68717-14.582-0.8792-25.281-0.26991-15.038-0.09305-21.08 0.77944-26.625 0.74284-4.7212 1.1137-12.286 1.0851-22.134-0.03742-12.883-0.24214-15.465-1.474-18.59-1.8629-4.7263-1.8561-12.218 0.01987-21.949 0.79525-4.125 1.8453-11.719 2.3335-16.875 0.48815-5.1562 1.6987-12.185 2.69-15.619 1.5099-5.2309 1.7963-7.8483 1.7646-16.125-0.0208-5.4343 0.0236-11.062 0.0988-12.506s0.11598-3.4688 0.0907-4.5c-0.0789-3.2125 1.378-13.655 2.5943-18.595 0.63917-2.5962 0.99918-4.8833 0.80002-5.0824s-1.6467 1.5031-3.2168 3.7828c-2.7318 3.9664-4.1054 5.0818-4.1054 3.3336 0-1.1336 5.067-9.716 6.9172-11.716l1.5286-1.6526 5.5577 5.6121c3.0568 3.0867 5.3553 5.9397 5.1078 6.3401-0.64325 1.0408-1.7138 0.89977-1.5906-0.20951 0.0573-0.51562-1.6194-2.5417-3.7261-4.5023l-3.8303-3.5648-1.5767 6.1898c-2.3649 9.2844-2.7122 13.03-1.2597 13.587 0.65575 0.25163 1.092 1.0211 0.96958 1.71-0.17154 0.96484 1.8444 2.0688 8.7773 4.8069 4.95 1.9549 9.8438 3.9531 10.875 4.4403 1.0312 0.48727 10.65 4.755 21.375 9.4838 10.725 4.7288 24.731 11.378 31.125 14.776 13.73 7.2971 14.788 7.772 33.75 15.155 9.1731 3.5714 22.564 9.7315 35.921 16.525 11.713 5.9569 18.677 9.7536 18.954 9.7536l4.4666 2.1464c0.15571 0.14325 4.8061 2.5205 10.334 5.2829 5.528 2.7623 11.335 5.8328 12.904 6.8232 2.0882 1.3182 3.4604 1.6792 5.1206 1.3472 1.9642-0.39285 2.3706-0.18373 3.034 1.5611 0.89469 2.3532-0.25697 5.2601-1.8429 4.6515-1.4007-0.53749-1.6235 0.9003-1.7844 11.515-0.13689 9.0298-0.27136 9.7526-3.6516 19.627l-3.5094 10.252 0.957 6.7616c1.0974 7.7533 2.0299 11.359 5.3203 20.574 2.0936 5.8627 2.3696 7.5998 2.5024 15.75l0.14928 9.1605 20.909 0.19953c15.43 0.14725 21.193-0.0366 21.995-0.70177 0.79597-0.6606 1.2253-0.67594 1.6076-0.0574 38.514 2.4578 37.83 5.4035 4.4766 2.7183l-5.7626-0.47479-1.0616 2.5329c-2.6695 6.3695-10.9 17.634-16.393 22.434-8.3178 7.2696-11.303 10.761-10.183 11.912 0.72027 0.74016 0.65916 0.88471-0.2905 0.68715-0.6758-0.14058-3.715 2.0408-6.9375 4.9793-5.4473 4.9673-6.8852 7.1162-4.7974 7.1693 0.65304 0.0166 0.59615 0.30108-0.1875 0.9375-0.73066 0.5934-1.0434 1.8995-0.89222 3.7262 0.13475 1.6281-0.10213 2.8125-0.5625 2.8125-0.44131 0-0.79528-1.4865-0.79528-3.3398 0-3.2036-0.11136-3.3705-2.7314-4.0939-3.8306-1.0577-22.769 0.56395-22.769 1.9496 0 0.54124 0.675 0.98407 1.5 0.98407 1.91 0 1.8895 1.1788-0.0987 5.6734-1.3908 3.1441-1.4794 3.9441-0.68115 6.1515 1.265 3.4984 0.38475 3.9702-1.2014 0.64396zm-2.4172-18.656c-0.85016-1.3406-1.9802-2.4692-2.5112-2.5081-0.53097-0.0388-1.8898-0.45089-3.0195-0.91575s-4.336-1.043-7.125-1.2848c-4.9539-0.4294-17.159-2.7951-21.495-4.1663-1.1959-0.3782-3.1588-0.68763-4.362-0.68763-4.5832 0-23.786-4.9171-30.589-7.8328-2.6377-1.1305-4.9681-1.6342-6.4633-1.397-2.2364 0.35475-2.3738 0.58527-3.1537 5.2915-0.44847 2.7064-1.2104 5.2902-1.6932 5.7419-0.66318 0.62051-0.76226 0.2712-0.40522-1.4287 0.25992-1.2375 0.69162-4.0673 0.95933-6.2884l0.48676-4.0384-49.428 0.5525c-35.845 0.40067-51.414 0.31429-56.655-0.31435-3.9752-0.47676-7.9408-0.92058-8.8125-0.98624-0.87172-0.0657-1.5849-0.42896-1.5849-0.80733 0-0.3854 1.5667-0.48518 3.5625-0.2269 11.429 1.479 26.258 1.9622 44.063 1.4357 10.725-0.31716 30.389-0.57666 43.697-0.57666 20.864 0 24.242-0.15498 24.523-1.125 0.56819-1.9622 0.80331-23.099 0.26298-23.641-0.28463-0.28539-21.378-0.56724-46.875-0.62637-26.407-0.0612-46.196-0.39126-45.982-0.76686 0.20915-0.36776 20.774-0.66437 46.5-0.67066l46.125-0.0113-0.46942-8.3293c-0.70309-12.475-1.5072-18.355-2.6388-19.294-0.5592-0.46416-1.0167-1.45-1.0167-2.1907 0-2.7368-1.0857-3.8701-8.1519-8.5096-10.509-6.8998-10.336-6.8309-10.837-4.3302-0.42861 2.143-3.0158 3.8704-5.7969 3.8704-1.3381 0-1.4647 0.55119-1.4647 6.375 0 3.75-0.30882 6.375-0.75 6.375s-0.75-2.625-0.75-6.375c0-6.3-0.0221-6.375-1.875-6.375-1.0312 0-1.875-0.3375-1.875-0.75s1.0125-0.75 2.25-0.75c2.242 0 2.25-0.0154 2.25-4.3611 0-4.3027-0.0377-4.3789-2.8125-5.6931-1.5469-0.73263-5.5125-3.1115-8.8125-5.2863-12.147-8.0054-15.964-10.175-25.875-14.705-5.5688-2.5455-10.462-4.8936-10.875-5.2178s-3.6915-2.0999-7.2866-3.9459l-6.5366-3.3563-1.1509 1.7564c-0.82301 1.2561-1.1508 3.7147-1.1508 8.6308 0 3.7809-0.5408 10.276-1.2018 14.434-0.99714 6.272-1.1145 11.076-0.68938 28.214 0.28182 11.36 0.56118 22.853 0.6208 25.538 0.10564 4.759 0.0045 5.0345-3.9981 10.852-2.2586 3.2831-7.3213 9.3545-11.25 13.492-16.224 17.084-18.063 19.27-17.143 20.379 0.67132 0.80888 0.58956 1.3553-0.35976 2.4043-2.7951 3.0885-1.9906 3.3396 14.818 4.6249 13.291 1.0163 36.93 0.92699 52.42-0.19798 7.0997-0.51563 18.815-0.92641 26.034-0.91285 15.924 0.0299 73.866 1.7045 87.375 2.5252 5.3625 0.32579 14.424 0.64472 20.136 0.70873l10.386 0.11639zm13.398 1.7766c3.1682-0.39363 3.7336-0.63738 2.4375-1.0508-4.2202-1.3462-4.8687-1.4382-4.3622-0.61866 0.70486 1.1405-0.43463 1.0423-2.221-0.19133-0.81366-0.56193-3.1035-1.2608-5.0885-1.553l-3.6091-0.53127 1.1909 2.303c1.3103 2.5338 2.7932 2.7428 11.652 1.6421zm14.866-0.60627c-0.19078-0.99067-1.9618-1.5455-8.1175-2.5433-4.3304-0.70188-8.886-1.503-10.123-1.7802-1.4498-0.32481-1.8499-0.26663-1.125 0.16361 0.61875 0.36721 4.6688 1.4344 9 2.3715 4.3312 0.93709 8.3812 1.9881 9 2.3356 1.5849 0.89001 1.6386 0.8685 1.366-0.54716zm0.81363-13.358 0.061-3.75-8.4328-0.16429c-4.638-0.0904-15.014-0.69282-23.058-1.3388-19.323-1.5518-36.475-2.4378-43.875-2.2664-4.3723 0.10126-5.3896-0.034-3.75-0.49875 2.6377-0.74761 32.034 0.47059 49.627 2.0565 12.742 1.1487 28.179 1.527 29.481 0.7224 1.4816-0.9157 0.91209-16.622-0.83793-23.108l-1.6052-5.949-19.552 0.46733c-14.857 0.3551-23.492 0.54112-22.83-0.12139 0.5972-0.5972 8.8723-1.1333 17.244-1.0859 6.7224 0.038 15.022-0.11049 18.443-0.33004l6.2202-0.39918-0.44034-9.8725-6.75-1.3324c-8.1826-1.6152-15.013-3.3479-27.352-6.9383-5.1436-1.4967-12.032-3.2298-15.308-3.8513s-8.0802-1.7859-10.676-2.5876c-9.2544-2.8584-44.496-7.8208-45.859-6.4575-0.26785 0.26784-0.4856 2.5835-0.48391 5.1458 4e-3 5.5141 1.5947 26.824 2.0357 27.265 0.1683 0.16829 8.3214 0.30264 18.118 0.29856 16.634-7e-3 17.976-0.10899 20.297-1.5432 1.4542-0.89875 2.6716-1.2336 2.9351-0.80737 0.24759 0.4006-0.14756 1.0763-0.87811 1.5016-1.0977 0.63903-0.87252 0.77925 1.2967 0.80758 1.4438 0.0188 20.994-0.40649 21.613-7e-3 0.78819 0.50936-18.31 1.5104-21.988 1.5466-5.0413 0.0496-5.5241 0.22148-12.146 4.324-9.0916 5.6322-27.229 18.184-27.229 18.844 0 0.76925 6.213 2.1578 13.875 3.101 3.7125 0.45701 10.631 1.6211 15.375 2.5869 27.921 5.6844 42.277 8.4166 47.229 8.9878 2.257 0.26039 6.4757 1.123 9.375 1.9168 2.8993 0.79383 8.3089 1.8788 12.021 2.411l6.75 0.96761 0.4968-3.3963c0.27324-1.868 0.52425-5.0838 0.55779-7.1463zm-60.648-38.438c0.0175-0.72188 0.4613-3.153 0.98629-5.4024 0.71014-3.0428 1.0925-3.7303 1.4935-2.6852 0.62079 1.6178-0.93644 9.4001-1.8809 9.4001-0.34686 0-0.61635-0.59063-0.59888-1.3125zm-9.7818-2.0926c0-0.22277 1.3739-1.712 3.0532-3.3094l3.0532-2.9044-1.2237-2.3664c-0.67304-1.3015-1.0901-2.7654-0.92685-3.2531 0.16327-0.48766 0.83173 0.12585 1.4855 1.3634l1.1886 2.25 0.94398-2.25c0.89181-2.1256 0.96039-2.1552 1.2408-0.53586 0.35935 2.0756-2.8045 7.7041-5.5402 9.856-1.914 1.5055-3.2744 1.9832-3.2744 1.1498zm76.289 47.493c2.1786-2.1515 3.9611-4.1765 3.9611-4.5 0-0.32347-1.0969-0.59329-2.4375-0.59961-1.3406-6e-3 -2.8923-0.29973-3.4482-0.65202-1.0894-0.6904-0.80051-1.0889 2.5107-3.4632 1.3996-1.0036 1.2932-1.0772-1.5894-1.0994-2.993-0.0231-3.1039 0.0639-3.5542 2.7886-0.6389 3.8653-0.60081 11.438 0.0575 11.438 0.2964 0 2.3214-1.7604 4.5-3.9119zm-29.37 1.263c-1.6272-1.2307-4.1692-1.4766-4.1692-0.40332 0 0.65052 1.87 1.2432 4.5 1.4262 0.82304 0.0573 0.73424-0.21727-0.33084-1.0228zm-17.669-3.4628c-5.9812-1.2238-18.285-3.7485-27.343-5.6104-9.0572-1.8619-18.17-3.5362-20.25-3.7205l-3.7824-0.33521 4.5 1.4177c6.6076 2.0817 17.815 4.6101 20.436 4.6101 1.2535 0 6.2808 1.0116 11.172 2.248s10.411 2.2739 12.268 2.3056c1.8562 0.0317 4.8938 0.32785 6.75 0.65815 8.6372 1.5369 5.9588 0.41305-3.75-1.5734zm54.77-5.7008 1.6293-2.0625-2.6079-0.2273c-3.0682-0.26741-9.1742 3.1999-6.7477 3.8318 3.7252 0.96996 6.1195 0.49213 7.7263-1.542zm8.8684-8.8238c5.6266-4.9159 14.817-17.289 16.564-22.3l0.71925-2.0632h-40.971l1.8185 6.9375c1.5927 6.0761 1.756 7.8831 1.315 14.554-0.58661 8.8733-1.2331 8.2662 8.5548 8.0332l6.2638-0.14912zm-116.34 4.4332c-0.24922-0.24922-0.8961-0.27586-1.4375-0.0592-0.5983 0.23942-0.42059 0.41714 0.45313 0.45312 0.79062 0.0326 1.2336-0.14469 0.98437-0.39391zm2.0781-15.899c3.3-2.3664 8.4469-5.769 11.438-7.5612 2.9906-1.7922 5.4375-3.3769 5.4375-3.5215 0-0.14457-7.2062-0.26432-16.014-0.2661l-16.014-3e-3 -0.49856 8.8218c-0.27421 4.852-0.29008 9.8642-0.0353 11.138l0.46326 2.3163 4.6116-3.3108c2.5364-1.8212 7.3116-5.2472 10.612-7.6137zm88.817-28.835c-0.10186-5.6326-1.5469-9.0382-4.4557-10.5l-2.6117-1.313-0.55308 4.2661c-0.52257 4.0306-1.5459 6.2609-2.4554 5.3514-0.22467-0.22466-0.0616-1.321 0.3625-2.4363 0.42404-1.1153 0.77098-3.4684 0.77098-5.229 0-1.7606 0.22053-3.4217 0.49006-3.6912 0.26954-0.26954 1.6195 0.20799 3 1.0612 1.3805 0.85318 2.5099 1.4141 2.5099 1.2464 0-0.16764-0.81282-2.6946-1.8063-5.6154-2.076-6.1037-3.4437-14.037-3.4437-19.975 0-3.0032 0.85865-6.3991 3.1875-12.606 2.9735-7.9254 3.1748-8.9369 2.9979-15.066-0.1043-3.6134 0.11687-7.934 0.4915-9.6013 0.37464-1.6674 0.45822-2.9297 0.18576-2.8052-5.4106 2.472-17.952 9.6303-20.768 11.853-8.045 6.3522-30.616 18.977-43.062 24.085-3.9006 1.6011-10.313 5.0441-14.25 7.6511-3.9369 2.607-11.026 7.0792-15.753 9.9382l-8.5948 5.1981 3.3448 0.50691c1.8396 0.27879 5.2996 0.53192 7.6889 0.5625 2.3893 0.0306 6.7768 0.53745 9.75 1.1264 2.9732 0.58895 7.9371 1.4729 11.031 1.9643s8.325 1.6629 11.625 2.6032 8.6097 2.2415 11.799 2.8914c3.1896 0.6499 10.108 2.4206 15.375 3.9349 10.093 2.9021 29.663 7.6489 31.888 7.7347 1.0606 0.041 1.3014-0.56105 1.2549-3.1368zm-98.942-24.282c1.8562-1.018 6.75-4.3588 10.875-7.424s12.029-8.0057 17.564-10.979c5.5349-2.9732 15.322-8.8556 21.75-13.072 22.627-14.844 26.774-17.403 36.29-22.395 5.3571-2.8103 9.4783-5.4244 9.3201-5.9118-0.23471-0.723-26.062-13.979-26.062-13.979l-2.5855-1.2184s-44.064-22.376-52.527-25.674c-5.3625-2.0896-13.22-5.1571-17.462-6.8167-4.2417-1.6596-12.843-5.7522-19.114-9.0946-10.719-5.7134-17.812-9.0443-41.424-19.453-5.3625-2.3639-10.931-4.8403-12.375-5.503-4.61-2.1161-20.405-8.1053-20.672-7.8384-0.55598 0.55598-1.6131 9.1144-1.2821 10.38 0.21053 0.80506 0.16783 1.7892 0.26587 2.4808l0.57811 4.0788s-0.64454 4.33-0.64985 7.5c-6e-3 3.6534-0.56167 7.5248-1.5173 10.574-0.82919 2.6454-1.8581 8.0454-2.2864 12-0.42834 3.9546-1.6082 12.59-2.6218 19.19-2.217 14.435-2.2814 18.629-0.35309 22.989 0.96438 2.1801 1.4539 4.9338 1.4388 8.0938-0.018 3.7688 0.25693 4.9629 1.2903 5.6035 6.2399 3.8683 26.735 14.364 33.847 17.333 1.5606 0.65153 4.525 2.2929 6.5875 3.6474 12.573 8.2572 19.118 12.417 21.372 13.583 2.5088 1.2974 2.5841 1.2917 3.6239-0.27433 1.5045-2.2658 2.2288-2.0047 3.5419 1.2771 0.7593 1.8977 1.977 3.2703 3.5789 4.0342 1.3354 0.63682 5.9269 3.5367 10.203 6.4443l7.7752 5.2864 3.8272-1.5049c2.105-0.8277 5.346-2.3378 7.2022-3.3559zm34.924-33.202c-0.22822-0.36927 0.13767-0.88347 0.81309-1.1426 1.4601-0.56031 2.1067-0.0983 1.4192 1.0142-0.60276 0.97528-1.6709 1.0368-2.2323 0.12848zm-4.1472-7.5293c-1.3522-2.5266-0.85917-4.2441 2.2236-7.7463 1.65-1.8745 3-3.8795 3-4.4556 0-2.8028-4.3178-3.7919-7.3331-1.6799-1.7825 1.2485-2.3465 0.33016-0.6579-1.0712 1.9106-1.5857 5.6148-1.8515 7.6072-0.54599 2.6693 1.749 2.3607 4.025-1.1162 8.2326-2.9516 3.5718-3.7268 5.9294-2.25 6.8421 0.4125 0.25494 0.75 0.78111 0.75 1.1693 0 1.2348-1.4184 0.75963-2.2236-0.74496zm-63.463 39.245c0.70012-0.26865 1.1863-1.3366 1.1863-2.6057 0-1.6355-0.54409-2.4318-2.272-3.3254-2.9965-1.5496-3.728-0.95003-3.728 3.0557 0 3.0228 0.16771 3.3307 1.8137 3.3307 0.99751 0 2.3475-0.20486 3-0.45525zm-0.67265-8.5271c-0.73782-0.81527-1.6541-1.2891-2.0361-1.053-0.38205 0.23612-0.0838 0.89243 0.66274 1.4585 2.0326 1.5411 2.9026 1.2843 1.3734-0.40547zm101.8-28.087c8.6648-6.1483 10.793-8.2418 3.75-3.6893-2.3719 1.5332-6.1688 3.8754-8.4375 5.2048-7.8006 4.571-12 7.3589-12 7.9665 0 1.1419 8.6094-3.7501 16.688-9.482zm32.812-19.556c0-0.61875-0.3375-1.125-0.75-1.125s-0.75 0.50625-0.75 1.125 0.3375 1.125 0.75 1.125 0.75-0.50625 0.75-1.125zm-196.12-116.63c0.74662-0.825 1.1887-1.5 0.98249-1.5s-0.98587 0.675-1.7325 1.5-1.1887 1.5-0.98248 1.5 0.98586-0.675 1.7325-1.5zm-52.875 257.55c0-0.4125 0.37892-1.1289 0.84204-1.592 0.62273-0.62273 0.33859-1.3455-1.0909-2.775-2.3683-2.3683-1.6696-2.5875 0.81316-0.25512l1.786 1.6778 1.4332-1.8653c1.6857-2.194 1.9863-1.0662 0.3417 1.2818-0.64896 0.92652-0.90685 2.187-0.60958 2.9794 0.43197 1.1514 0.33206 1.2248-0.618 0.45378-0.8687-0.70495-1.3392-0.7137-2.0154-0.0375-0.5 0.5-0.88215 0.55725-0.88215 0.13216zm19.589-21.863c0.0488-0.72188 0.34637-2.325 0.66126-3.5625 0.51105-2.0084 0.58206-1.8675 0.66126 1.3125 0.0488 1.9594-0.24876 3.5625-0.66126 3.5625s-0.71007-0.59063-0.66126-1.3125zm-8.4061-1.5617c0.40449-0.75581 1.2643-1.8131 1.9106-2.3495 0.90592-0.75185 0.97692-1.2142 0.30986-2.018-0.69279-0.83477-0.61429-0.94633 0.39368-0.55953 0.74148 0.28453 1.9199-0.0938 2.8667-0.92033l1.6077-1.4035-1.2403 1.8254c-0.68219 1.004-1.1299 2.5227-0.99501 3.375 0.13493 0.8523 0.10104 1.1278-0.07531 0.61213-0.4874-1.4251-1.4487-1.1322-3.0767 0.9375-1.7191 2.1854-2.7682 2.4942-1.7013 0.50082zm282.82-28.643c-0.9556-0.632-0.85328-0.9546 0.67957-2.1425 1.1576-0.89709 1.6366-1.8363 1.336-2.6195-0.25769-0.67154-0.13103-1.221 0.28147-1.221 1.3708 0 1.6759 2.3484 0.46277 3.5616-1.0937 1.0937-1.0865 1.2779 0.0849 2.168 1.184 0.89965 1.1675 0.97365-0.21979 0.98509-0.825 7e-3 -2.0062-0.32245-2.625-0.73167zm-11.25-2.1276c0-0.44177 1.042-1.9899 2.3154-3.4403l2.3154-2.6371-1.6245-2.0765c-0.89349-1.1421-2.3573-2.2831-3.2529-2.5357-1.5447-0.43564-1.5549-0.49029-0.19873-1.0627 1.0902-0.46014 1.9247-0.0494 3.5141 1.7294l2.0844 2.3329 0.73918-2.0202c0.40786-1.1147 0.76572-1.4729 0.79839-0.79926 0.1003 2.0681-1.9929 6.2836-4.399 8.8594-1.2605 1.3493-2.2918 2.0919-2.2918 1.6501zm-251.25-67.98c0-1.4438 0.13183-2.625 0.29294-2.625 0.16112 0 0.43085 1.1812 0.5994 2.625 0.16856 1.4438 0.03675 2.625-0.29294 2.625-0.32967 0-0.5994-1.1812-0.5994-2.625zm-10.956 0.80861c-0.22507-0.58652-0.0074-1.8172 0.48365-2.7347 0.81251-1.5182 0.74635-1.63-0.73508-1.2426-1.0557 0.27606-1.5252 0.1169-1.3357-0.45277 0.16071-0.48317 1.2727-1.0498 2.4712-1.2593 2.7728-0.48454 3.345-2.7362 0.94047-3.7002-1.6739-0.67112-1.6798-0.70079-0.14752-0.74643 2.0845-0.0621 3.2351 1.445 2.5404 3.3274-0.30444 0.825-0.37412 1.9772-0.15486 2.5605 0.23431 0.62331 0.07072 0.85787-0.39675 0.56895-0.43748-0.27038-1.3503 0.35533-2.0286 1.3905-1.0971 1.6744-1.1062 1.9308-0.08204 2.3238 0.63313 0.24296 1.6574 0.24747 2.2761 0.01 0.61875-0.23743 1.125-0.10479 1.125 0.29476 0 1.1556-4.5009 0.8469-4.9563-0.33993zm252.36-26.11c-0.25803-1.9534-1.0146-4.3842-1.6814-5.4018-1.1679-1.7825-1.3086-1.8098-3.8497-0.74812-4.3822 1.831-8.7685-0.49521-8.5378-4.5278 0.086-1.5033 0.0912-1.5036 0.45243-0.0206 0.62627 2.5707 2.5696 4.125 5.1576 4.125 3.582 0 3.7734-1.1725 0.73976-4.5304-2.2064-2.4423-2.6867-3.5516-2.6867-6.2053 0-5.4271 4.6992-8.7805 8.6639-6.1827 3.6926 2.4195 4.1149 7.7302 1.0352 13.017-1.4289 2.4528-1.428 2.4908 0.10132 4.5594 1.1722 1.5855 1.4861 2.9715 1.3084 5.7766l-0.23383 3.6906zm-1.4211-11.793c2.851-5.5885 1.3511-11.28-2.9728-11.28-2.3866 0-5.2619 2.9445-5.2619 5.3884 0 2.1341 1.9548 5.5205 4.2112 7.2954 1.0951 0.86143 2.1075 1.5662 2.2497 1.5662 0.14224 0 0.94048-1.3366 1.7739-2.9701zm-237.46-69.405c-0.24322-0.6338-1.3597-1.125-2.5572-1.125-2.9369 0-3.4312-1.2496-1.518-3.8374 0.89247-1.2071 1.4046-2.5476 1.1381-2.9789-0.28166-0.45573 0.06397-0.68456 0.82536-0.54643 0.72048 0.13071 1.4575-0.18421 1.6378-0.69984 0.21118-0.60396-0.41486-0.9375-1.7597-0.9375-1.5968 0-1.8807-0.20678-1.2078-0.87965 0.65949-0.65949 1.3431-0.66852 2.7311-0.0361 2.2973 1.0467 2.2727 3.523-0.04538 4.5792-0.92006 0.41922-2.043 1.4539-2.4955 2.2994-0.69038 1.29-0.60135 1.5372 0.55372 1.5372 0.75701 0 1.8053 0.42188 2.3296 0.9375 0.76484 0.75221 1.2457 0.57955 2.4328-0.87361 0.81376-0.9961 1.2999-2.2792 1.0804-2.8514-0.21957-0.57219-0.06562-0.83415 0.34219-0.58213 1.1847 0.7322 0.8632 2.277-0.78424 3.7679-1.5247 1.3798-1.5244 1.3813 0.5625 2.3053l2.0882 0.92462-2.461 0.0609c-1.5393 0.0381-2.6227-0.36041-2.8927-1.0641zm-14.521-18.144c0-0.37906 1.9406-3.0003 4.3125-5.8249 5.2547-6.2577 8.6356-10.724 9.883-13.054l0.9375-1.7517-7.379 0.40778c-5.2773 0.29162-6.4177 0.222-4.004-0.24444 5.6102-1.0841 12-0.93171 12 0.28626 0 1.441-4.0396 7.3187-9.2559 13.468-2.3923 2.82-4.2117 5.2651-4.0432 5.4336 0.16849 0.16849 2.0945-0.0328 4.2801-0.44726 4.865-0.92263 8.269-0.96889 8.269-0.11239 0 0.35268-2.2781 0.86835-5.0625 1.1459s-6.1594 0.70234-7.5 0.9439c-1.3406 0.24155-2.4375 0.12905-2.4375-0.25z" stroke-width=".75"/>
</svg>
