<?xml version="1.0" encoding="UTF-8"?>
<svg width="373.01pt" height="247.55pt" version="1.2" viewBox="0 0 373.01 247.55" xmlns="http://www.w3.org/2000/svg" xmlns:xlink="http://www.w3.org/1999/xlink">
 <g transform="translate(-394.94 153.29)" fill="none" stroke-width="2.2166px">
  <g stroke="#808080">
   <path d="m434.23-26.794c4.7852-2.568 9.0876-5.9162 13.389-9.2054 1.259-0.9628 2.6834-1.6828 3.8022-2.8016"/>
   <path d="m433.01-16.393c1.5854-0.85351 3.38-1.2159 4.9954-1.9936 5.1039-2.4575 9.926-5.5427 14.809-8.4049 5.005-2.934 10.285-5.4507 15.209-8.4049"/>
   <path d="m435.21-0.16284c2.0041-1.4019 3.9041-2.9659 6.0123-4.2056 4.3673-2.5681 9.6784-3.391 14.208-5.6033 2.8476-1.3907 5.4446-3.2458 8.2048-4.8028 3.6421-2.0545 7.6878-3.5413 11.207-5.8034 1.5264-0.98125 2.902-2.1815 4.4026-3.2019 1.9926-1.355 4.9073-2.3058 6.6038-4.0023"/>
   <path d="m439.02 12.357c1.402 0.4282 2.7461 1.4186 4.2059 1.2846 0.65999-0.06056 8.1117-4.8129 8.4049-5.0029 6.0273-3.9066 5.4866-4.078 11.807-7.0041 6.2851-2.9098 13.19-4.1825 19.411-7.2042 5.3551-2.6011 10.048-6.4061 15.409-9.0052 2.5695-1.2458 5.3794-1.8911 8.0046-3.0017 2.9554-1.2503 5.7582-2.5864 8.8051-3.6021"/>
   <path d="m439.18 33.654c11.497-9.8583 26.466-11.804 39.814-17.801 7.213-3.2406 14.05-7.2925 21.212-10.606 7.3592-3.405 15.431-4.9634 22.613-8.8051 4.1594-2.2248 3.7115-2.5916 7.6044-5.4031 4.8675-3.5155 10.56-6.5807 15.809-9.2053"/>
   <path d="m448.99 48.872c13.838-3.0503 25.803-11.21 39.002-16.009 7.6621-2.7862 15.568-4.3884 23.013-7.8045 6.7738-3.108 12.828-7.3468 19.611-10.406 11.939-5.3842 24.509-9.3529 36.221-15.209"/>
   <path d="m471.59 55.876c21.996-3.4989 42.344-12.159 62.219-21.813 3.9206-1.9043 7.4989-4.5459 11.407-6.4037 5.1254-2.4367 10.097-4.0097 15.409-5.6033"/>
   <path d="m530.17 54.867c1.1282-0.40023 2.2866-0.72357 3.3844-1.2007 3.1754-1.38 5.9383-3.6201 9.0052-5.203 2.7157-1.4016 5.6357-2.3329 8.4049-3.6021 3.5575-1.6305 6.82-3.8539 10.206-5.8034 1.4722-0.84761 4.4577-2.0563 5.6033-3.2019"/>
  </g>
  <path d="m524.42-29.377c0.86717 4.9299 1.7344 9.8598 2.6015 14.79" stroke="#666"/>
  <path d="m534.27-28.959c-2.5653 2.5653-4.5195 5.9917-7.657 7.7882 1.4079 2.2691 6.0834 3.164 8.2337 4.2391" stroke="#666"/>
 </g>
 <g transform="translate(-394.94 153.29)" fill="none" stroke="#000" stroke-width="2.2166px">
  <path d="m426.14 83.727c-2.2706-6.8117-0.24353-16.11-0.56601-23.207-0.77759-17.107-1.0722-34.919 0-52.073 0.3314-5.3026 1.4176-10.518 1.698-15.848 1.7925-34.057 1.2247-68.991-0.566-103.01-0.59273-11.261 0.7775-25.682 0.566-33.937-13.517 7.6665-7.1016 7.0443-16.927 16.733"/>
  <path d="m427.28-144.35c2.7583-2.3552 3.3032 7.2113 8.9266 15.514"/>
  <path d="m398.98 62.684c8.4944-2.7118 17.302 0.85869 25.889 0 5.5128-0.55128 10.81-2.5187 16.414-2.8301 11.473-0.63741 23.045 0.47842 34.527 0 13.553-0.56469 26.652 0.06472 40.187 0.56601 11.119 0.41181 22.273 0.18252 33.395 0.56601 34.028 1.1734 67.777 3.9621 101.88 3.9621 10.649 0 22.606 1.1972 33.381 0 4.1731-0.46368 8.2452-1.8433 12.452-2.2641 2.4608-0.24608 8.9969 0.6253 10.754-1.132"/>
  <path d="m568.32 60.281c0.75471-2.6201 1.4765-5.25 2.264-7.8604 3.26-10.805 4.2489-23.742 2.8301-35.093-0.63543-5.0834-2.8188-12.486-1.132-17.546 2.4693-7.4078 1.715-28.833-1.6981-35.659"/>
  <path d="m429.73-42.095c4.979-1.0261 9.6704 0.56601 14.564 0.56601"/>
  <path d="m456.07-42.095c3.387 0.37734 6.7739 0.75469 10.161 1.132"/>
  <path d="m476.56-40.681c1.337 0.30858 2.6052 0.28302 3.9384 0.28302"/>
  <path d="m488.56-39.979c2.7318 0.09434 5.4636 0.18868 8.1954 0.28302h0.13625"/>
  <path d="m510.7-39.55c2.6315-0.33177 5.2871 0 7.9164 0"/>
  <path d="m530.64-38.847c2.8352 0.08861 5.1264 0.56601 7.9105 0.56601"/>
  <path d="m549.71-37.863c3.5854-0.07078 7.1907 0.28302 10.749 0.28302"/>
  <path d="m565.95-37.16c0.31816 0.0365 3.6192-0.07702 3.8045 0.14151 0.30356 0.35797 0.55043 0.76036 0.82564 1.1405"/>
  <path d="m412.76-45.509c1.958 1.4362 6.3928-6.8272 7.0216-6.2262 1.7168 1.6412-1.132 12.491-1.132 15.26"/>
  <path d="m564.57 71.271c0.53509 0.8311 4.2986-3.498 4.7043-3.1131 1.9432 1.8436-1.7126 17.076-1.7126 21.494"/>
  <path d="m497.78 6.7629c-0.55309-6.6645 6.0948 3.7063-2.1143 0.96991-1.0907-0.36355-1.2246-2.7923 2.1143-0.96991z"/>
  <path d="m484.39 12.007c0-5.6572-0.0296-11.314 0.29587-16.968 11.75 2.6581 9.8782 9.348-0.60664 9.348"/>
  <path d="m472.49 0.10762c1.2148-0.81335 4.2008 0.32957 5.0596-0.55247"/>
  <path d="m472.4 7.0372c1.3838 0.25627 2.7568-0.20012 4.0881-0.20012"/>
  <path d="m458.95-5.7943c1.7121 0.56782 3.9676 1.4524 5.0943 3.0017 1.3908 1.9124 2.3357 4.7871 1.801 7.1041-0.24088 1.0432-0.16522 2.1382-0.70043 3.1018-0.88366 1.5906-2.3598 2.66-3.6021 3.9023-0.31299 0.31302-0.79148 0.49131-1.1006 0.80046"/>
  <path d="m450.93-3.9627c1.3226-0.47406 1.4274-2.2039 2.2962-3.0967 0.11379-0.11689 0 0.32617 0 0.48925 0 0.72864 0.0455 1.4749 0 2.2013-0.0562 0.89738-0.18915 1.8132-0.30019 2.7016-0.11467 0.91761 0.0999 1.8718 0.0999 2.8016"/>
  <path d="m448.74 3.936c2.6582 0.6782 5.3174 0.61603 8.0006 0.61603"/>
  <path d="m450.53 8.8488c0.89203 0.021575 2.2075-0.19264 2.7656 0.70041 0.8897 1.4235 1.0599 2.0419-0.0999 3.2019-0.45069 0.45069-0.99157 1.0722-1.6009 1.3008-0.68517 0.25695-1.4112 0.44166-2.1012 0.70041-0.18206 0.0683-0.68887 0.25264-0.50028 0.30018 1.0981 0.27678 2.3844 0.42674 3.4955 0.60035 1.3213 0.20647 2.6648 0.40023 4.0023 0.40023"/>
  <path d="m443.79-1.4555-1.6923 1.2058"/>
  <path d="m442 5.1578c-0.65795 1.9435-0.74322 4.1842-1.7802 5.9989-0.23644 0.41371-0.92525 0.92524-1.2007 1.2007"/>
  <path d="m432.22-6.6597c1.1988-0.56505 2.3975-1.1301 3.5962-1.6951-0.0899-0.082133 0.24501-0.60721 0.30019-0.50029 0.38377 0.74278-0.90054 6.9508-0.90054 8.6923"/>
  <path d="m430.51 3.2428c1.1428-0.33131 6.2257 0.67208 6.8978 0"/>
  <path d="m431.2 8.1372c0.92203-0.017437 1.996 0.00113 2.8931 0.30018 0.24708 0.08237 0.35581 0.3836 0.50031 0.60035 1.3347 2.0021-0.68432 4.1654-2.2013 5.3031-0.20511 0.1538-0.50521 0.60035-0.70039 0.60035-0.37089 0 0.73311 0.11674 1.0945 0.20012 1.2721 0.29357 2.6774 0.59006 3.9001 1.0006"/>
  <path d="m430.28-8.8708c-4.9191 5.2095-2.0105 11.892-1.5962 18.106 0.1395 2.09 0.45237 7.7566 1.9011 9.2053"/>
  <path d="m413.88-4.5249c3.7793 1.577 4.6659 7.7454 2.7782 11.521-0.26451 0.52922-0.56252 1.2646-1.1006 1.6009-0.75037 0.469-2.9089 0.70764-3.2999 1.0987"/>
  <path d="m416.25 3.6935c-0.47078-1.864-3.5516 0.34074-4.5928-0.70041"/>
  <path d="m397.35-5.9141c-0.71142 3.9712-0.45887 8.2629-0.8967 12.203-0.16639 1.4974-0.40023 2.8802-0.40023 4.4026"/>
  <path d="m405.55-0.70639c-2.6999 1.2657-5.3998 2.5314-8.0997 3.7972 0.16432 0.4975 0.26836 1.0192 0.49321 1.4925 0.4044 0.85185 1.2225 1.6749 1.701 2.5015 1.0174 1.7574 1.7815 3.8827 3.2019 5.3031"/>
  <path d="m503.61-39.618c-0.55309-6.6645 6.0948 3.7063-2.1143 0.96991-1.0907-0.36355-1.2246-2.7923 2.1143-0.96991z"/>
  <path d="m499.69-47.193c0-5.6256 2.2432-10.955 1.415-16.608 2.2334 1.0522 7.6513 1.8446 6.4022 5.592-0.69706 2.0911-4.8263 2.5159-4.5281 2.8141 1.3603 1.3605 3.5852 2.1165 5.0781 3.3961 2.5715 2.2041 4.2846 4.5677 6.5092 6.7922"/>
  <path d="m517.71-59.273c2.1852 0.05707 4.3329-0.84902 6.4699-0.84902"/>
  <path d="m517.73-52.8c-0.0644-1.1956 6.0466 0.44089 7.0535-0.56601"/>
  <path d="m534.67-66.385c-1.747 2.5827-3.733 4.9449-4.7922 7.9108-0.94369 2.6423-1.5309 9.545 1.132 11.32"/>
  <path d="m540.49-63.091c1.5951-1.3009 0.71577-0.39961 1.6937-1.7688 0.30779-0.43089 0.70149-0.7692 0.99054-1.2028 0.0836-0.12558 0.22136-0.49169 0.28254-0.35376 1.1627 2.6181-1.288 6.1967-0.28314 8.2068"/>
  <path d="m538.44-55.946c2.5858 0.72314 5.1918 1.1195 7.8512 1.415 0.24915 0.02778 1.5348-0.01655 1.7672 0.2107"/>
  <path d="m540.91-50.924c0.94337 0.09434 1.8954 0.12392 2.8301 0.28302 1.4569 0.248 0.89735 1.9607 0.28314 2.7593-0.30504 0.39654-0.68009 0.73726-1.0613 1.0613-0.12059 0.10244-0.56462 0.13879-0.4245 0.21226 0.27486 0.14405 0.91496 0.19421 1.1962 0.28302 1.353 0.42725 2.6593 1.0716 4.0328 1.415"/>
  <path d="m553.55-59.138c-0.35245 0.82412-0.72886 1.6384-1.0573 2.4723-0.15399 0.39043 0.52856 0.81433 0.84902 0.70752 0.29289-0.09768 0.6224-0.55315 0.77824-0.77827 0.92292-1.3331 0.44971-1.4354-0.0706-2.4763"/>
  <path d="m553.77-51.227c0.0606 0.97283-0.54278 5.2402-1.4858 5.7163-0.17142 0.08651-0.88851-0.07075-1.1293-0.07075"/>
  <path d="m560.62-59.589c1.6644-1.4665 3.4417-2.7983 5.2332-4.1012 0.34375-0.25 0.80986-0.71872 1.2028-0.91977 0.56009-0.28659-0.11586 4.5495-0.14334 4.7387-0.34261 2.3554-0.70811 4.6896-0.77828 7.0752-0.0266 0.90833 0.0878 3.0932 0.35375 3.8913 0.1794 0.53863 0 1.4083 0 1.981"/>
  <path d="m573.85-67.864c1.363 4.9 2.1573 10.143 1.1996 15.205-0.25919 1.3694-0.70302 2.6894-1.0613 4.0329-0.71951 2.6982-1.933 5.4946-4.5281 6.7922"/>
  <path d="m478.07-65.026c1.8712 1.1104 3.7936 2.2969 4.9004 4.25 1.7486 3.0858 0.5293 9.2701-2.4514 11.357-1.3604 0.95224-3.0727 0.80046-4.6527 0.80046"/>
  <path d="m482.56-55.469c-1.6905-0.42556-3.3915-0.78024-5.0955-1.1507-0.53299-0.11586-1.0524-0.3502-1.6009-0.3502"/>
  <path d="m473.67-45.418c3.0846-4.352 6.1094-8.7468 9.2537-13.056 0.45958-0.62984 1.0435-1.159 1.5509-1.751 1.1174-1.3036 2.1286-2.7107 3.2018-4.0524 0.43065-0.53831 0.90465-1.0851 1.3008-1.651 0.13034-0.18611 0.19566-0.496 0.3502-0.65038"/>
  <path d="m459.87-66.669c-0.22491 1.8661-0.52217 3.7278-0.70042 5.5993-0.12354 1.2997-0.0845 2.6577-0.30016 3.9523-0.14837 0.89014-0.14157 0.49367-0.30019 1.3508-0.11881 0.6421-0.12324 1.2543-0.15014 1.9011-0.0322 0.77012-0.15014 1.5312-0.15014 2.2999"/>
  <path d="m459.67-59.668c2.5362-1.2685 4.9185-3.0346 7.4489-4.2998"/>
  <path d="m459.67-59.668c1.0651 1.8669 1.8869 3.8582 2.8964 5.751 0.42408 0.79514 0.66611 1.6587 1.4505 2.0509"/>
  <path d="m571.76 9.1895c-0.55309-6.6645 6.0948 3.7063-2.1143 0.96991-1.0907-0.36355-1.2246-2.7923 2.1143-0.96991z"/>
  <path d="m592.39 2.2945c-2.3966 0.04451-4.2271 0.61941-6.1023 2.0012-1.3196 0.97234-2.4306 2.0918-3.1018 3.6021-0.40396 0.9089-0.40024 1.7227-0.40024 2.7016 0 3.2282 1.9014 3.9238 4.6027 4.5026 0.76692 0.16432 1.6012 0.44138 2.4014 0.30018 0.28225-0.04983 1.4045-0.4957 1.701-0.60035 2.4056-0.84902 4.1893-1.6746 5.4032-4.1024 0.84445-1.6889 0.71721-3.1767-0.30019-4.7027-1.2216-1.8325-2.4631-2.7093-4.2036-3.7021z"/>
  <path d="m591.18 11.4c1.8643 1.7532 3.8026 3.5274 5.1984 5.6987 0.41469 0.64504 0.65781 1.6584 1.2007 2.2013"/>
  <path d="m603.75 1.0601c-1.2142 3.3443-1.5539 6.7925-1.6273 10.315-0.0573 2.754-0.16876 1.2895 0.0706 3.3253 0.24797 2.1083 0.42222 4.1013 1.9811 5.6601"/>
  <path d="m609.83 6.3539c0.66017-0.30102 4.8053-2.2547 4.8053-2.6178 0-0.44803 0.0706 0.89419 0.0706 1.3422 0 0.54294-0.0177 1.0869-0.0706 1.6273-0.24265 2.4751-0.99636 4.881-1.2028 7.3582-0.083 0.99707 0 1.9778 0 2.9716"/>
  <path d="m623.84 6.4203c-0.44539 0.63676-0.9222 1.2527-1.3362 1.9103-0.2456 0.39 0.4959 0.89597 0.84903 0.77827 0.28904-0.096379 0.41406-0.47958 0.566-0.70752 0.4936-0.7404 0.48072-1.2489-0.0789-1.981z"/>
  <path d="m623.7 12.146c-0.34834 1.8152-0.58223 6.2952-3.1131 6.9279"/>
  <path d="m632.06 2.6658c1.3554-0.27055 2.3207-2.7063 3.39-3.2546 0.38584-0.19784-0.62068 3.132-0.63673 3.1802-0.35841 1.0752-0.75324 2.2179-0.99057 3.3253-0.24264 1.1325 0 2.3411 0 3.4668"/>
  <path d="m630.36 11.365c0.75267 0.02364 1.5056 0.03999 2.2581 0.07075 1.2548 0.05131 2.4998 0.20949 3.7498 0.28302 1.4121 0.08305 3.3592-0.18611 4.6696 0.14151"/>
  <path d="m632.24 15.97c1.8135 0.77875 3.7276 1.3557 5.4404 2.3362 0.0866 0.04959-0.0635 1.5131-0.0706 1.5565-0.49064 2.9439-4.154 3.7498-6.6506 3.7498-0.2592 0 0.51538-0.07075 0.77472-0.07075 0.63674 0 1.2738-0.02128 1.9103 0 1.4215 0.04741 2.8326 0.22536 4.2451 0.35376 0.33108 0.03009 0.60954-0.03266 0.91978 0.07075"/>
  <path d="m645.63 1.1241c1.3343 6.7716 2.9838 12.086 1.9071 18.392-0.1531 0.89725-0.50034 1.7374-0.70749 2.6178-0.43937 1.8673-0.8406 4.5225-2.5471 5.6601"/>
  <path d="m669.12 7.6276c-1.516-0.45276-2.6826-0.011526-3.9591 0.85204-2.1399 1.4476-2.4502 2.9462-3.2546 5.2356-0.99053 2.8192-1.9235 6.8366-0.49528 9.693 0.74869 1.4974 2.2806 2.4924 3.7498 3.1838 0.35395 0.16654 0.72433 0.18528 1.0613 0.35376"/>
  <path d="m662.55 15.774c1.0253-0.164 2.0814-0.04111 3.1069-0.13876 0.52575-0.05007 1.0794-0.26546 1.5565-0.42451 0.49732-0.16577 1.3143 0 1.8395 0"/>
  <path d="m679.53 5.0888c-0.6938 9.3084-0.56408 18.7-0.56408 28.016"/>
  <path d="m689.5 11.533c-1.0161 1.0161-2.7647 1.6076-3.9621 2.4763-1.6587 1.2034-2.7757 2.2256-4.3159 3.5376-0.4443 0.37847-0.89206 0.75285-1.3381 1.1293 2.7791 3.8218 6.4568 7.2441 9.6821 10.469"/>
  <path d="m630.56-107.63c-0.55309-6.6645 6.0948 3.7063-2.1143 0.96991-1.0907-0.36355-1.2246-2.7923 2.1143-0.96991z"/>
  <path d="m707.86 61.552c-3.7444-4.9986-11.41-6.5487-16.29-11.429"/>
  <path d="m707.86 61.552c-3.3853 5.924-10.722 6.8036-14.107 12.728"/>
  <path d="m704.29 90.931c6.727-4.8051 16.63-7.2421 22.796-13.408"/>
  <path d="m711.06 77.461c0.59742 0.66361 1.179 1.3418 1.7922 1.9908 2.1701 2.2972 9.0784 12.444 11.807 13.808"/>
  <path d="m446.93-131.68c1.1304-1.1936 2.2278-2.4194 3.3914-3.5808 2.1819-2.1779 4.7434-3.9006 6.8039-6.2036 1.4562-1.6275 2.5936-3.5381 4.0023-5.203 0.87846-1.0382 2.0371-1.837 3.0018-2.8016"/>
  <path d="m455.99-141.4c-1.5392-4.0487-3.9409-7.6934-5.7916-11.395"/>
  <path d="m640.34-111.91c-0.33373 2.3598-2.2502 4.2552-2.6966 6.5989-0.75283 3.9522-0.28019 10.981 1.6009 14.508 0.5494 1.0301 1.676 3.3853 2.6015 4.0023"/>
  <path d="m645.25-105.51c2.2164-0.34904 5.2068 0.33298 6.095 2.7016 1.5604 4.1609 0.82994 6.3149-2.3013 9.2053-0.51272 0.47325-2.4994 1.523-2.5015 1.6009-6e-3 0.20198 0.40266-0.11364 1.5956 0 0.84063 0.08006 1.6665 0.27374 2.5014 0.40023 1.102 0.16698 7.6643 1.3757 8.2048 1.8977"/>
  <path d="m665.56-104.6c3.8142 2.307 0.97659 0.33384 0 0z"/>
  <path d="m667.26-96.216c-1.0678 2.5279-1.532 8.7265-4.1024 11.297"/>
  <path d="m674.49-104.88c3.4835 0.35637 5.2912 1.6631 5.8815 5.3031 0.53445 3.2958-2.139 6.4155-4.4026 8.5049-0.0443 0.04102-2.316 1.4935-1.701 1.801 0.87541 0.43771 2.152 0.54211 3.1018 0.70041 1.5959 0.266 3.1898 0.20529 4.8028 0.30017 0.79985 0.04705 5.5157 0.1126 5.9034 0.50029"/>
  <path d="m690.88-114.79c1.3806 6.1543 3.3158 12.28 3.502 18.611 0.0597 2.0272 0.25299 4.0795 0 6.1035-0.21162 1.6911-0.4613 3.4559-0.90048 5.103-0.29201 1.0949-1.1007 2.3763-1.1007 3.502"/>
  <path d="m703.88-103.28c6.6254 0.81678 4.3123 0.80046 6.8932 0.80046"/>
  <path d="m702.86-93.069c2.1226-0.37901 4.2592-0.62185 6.3956-0.90052 0.61841-0.08066 1.2098-0.30017 1.701-0.30017"/>
  <path d="m727.37-109.26c-2.9532 1.0699-5.3546 2.5073-6.2145 5.6601-0.078 0.286-0.41159 1.2351-0.28314 1.5565 0.80428 2.0107 2.8579 3.3103 3.8206 5.2356 0.49313 0.9862 0.56604 2.4666 0.56604 3.5376 0 5.0167-1.5675 4.9538-5.3772 5.3771-0.45612 0.05069-0.81542 0.28302-1.2735 0.28302"/>
  <path d="m742.8-105.3c-20.991 5.8533-4.2908 18.812 0.57893 15.565"/>
  <path d="m734.04-97.378c1.8811 0.09517 3.7564 0.14151 5.6431 0.14151"/>
  <path d="m730.91-86.488c3.4866-2.5019 4.7873-6.5589 6.9336-10.047 1.4335-2.3294 2.9775-4.5852 4.3866-6.9337 0.95788-1.5964 1.6014-3.345 2.547-4.9526 0.48467-0.82391 1.0472-1.3586 1.5566-2.1226"/>
  <path d="m754.86-106.99c0.0644 7.0647-0.54082 14.08-1.415 21.073-0.0736 0.58858-0.22284 4.3264-0.56601 4.6696"/>
  <path d="m767.17-103.29c-0.76601 0.76602-2.103 1.1158-2.9716 1.8396-2.7342 2.2785-6.0119 4.2645-7.9242 7.3417-0.13477 6.0394 5.4192 8.8589 7.7866 13.594"/>
 </g>
</svg>
