<?xml version="1.0" encoding="UTF-8"?>
<svg width="310.96" height="312.02" version="1.1" viewBox="0 0 310.96 312.02" xml:space="preserve" xmlns="http://www.w3.org/2000/svg" xmlns:cc="http://creativecommons.org/ns#" xmlns:dc="http://purl.org/dc/elements/1.1/" xmlns:rdf="http://www.w3.org/1999/02/22-rdf-syntax-ns#"><metadata><rdf:RDF><cc:Work rdf:about=""><dc:format>image/svg+xml</dc:format><dc:type rdf:resource="http://purl.org/dc/dcmitype/StillImage"/><dc:title/></cc:Work></rdf:RDF></metadata><g transform="matrix(1.3333 0 0 -1.3333 -155.37 612.36)"><g transform="matrix(.54545 0 0 -.54545 0 587.52)" fill="none" stroke="#000" stroke-linecap="round" stroke-linejoin="round" stroke-miterlimit="10" stroke-width="1.8189"><path d="m367.98 236.03v250.73"/><path d="m367.98 486.76c-51.017 58.827-102.03 117.65-153.05 176.48"/><path d="m367.98 486.76c88.814 0.21103 177.63 0.42207 266.44 0.6331"/></g><g><path d="m199.39 456.91c1.9952-0.58161-0.85713 2.0568 0 0zm-0.5483-1.2612c2.5578 3.3854-2.1055 0.40654-4e-4 1e-4zm-0.6488-1.3984c2.5366 4.9452-2.7142-0.8651 0 0zm-0.1364-0.3577c0.71523 2.4984-2.3187-0.88913 0 0zm-0.5796-0.2491c1.6575 8e-3 -0.79184 1.632 0 0zm0.5942 0.3299c0.49866 2.9467-2.2343-1.2417 0 0zm0.1077 0.5043c2.1235 4.2567-2.427-0.21551 0 0zm0.6084 1.5455c2.5079 3.7077-2.3527 0.43183-2e-4 4e-4zm0.7452 1.4613c2.6492 1.2912-2.453 0.56943 0 0zm0.2126-5e-3c7.1973-8.5832 2.3624 1.8945 0 0z"/><path d="m344.06 323.32c3.5427-2.477 0.46388 2.0635 0 0zm1.175-0.691c3.8038-3.3174 1.3498 2.6199 0 0zm1.577-0.9689c3.9241-4.7915 2.2053 4.5639 0 0zm1.8399-2.0689c3.4513 2.8647-2.2825 2.1923 0 0zm-3.6001-1.3861c11.708 4.0362-1.5088 2.5117 0 0z"/><path d="m207.61 398.4c1.995 2.0668-2.0725 0.20782 0 0zm-0.4297-0.712c1.6558 2.7654-2.469-0.47686 0 0zm-0.072-0.2075c0.17395 2.3641-2.2428-1.093 0 0zm-0.7981-0.146c1.8837-0.90963-0.10443 2.3388 0 0zm0.7635 0.0464c1.6718 2.6277-2.8825-0.23712 0 0zm0.2687 0.3619c1.9901 3.3931-2.7976-0.3418 0 0zm0.4374 0.7578c1.4834 2.9962-2.5316-0.44227 0 0zm0.3624 0.6775c1.2656 2.2933-2.3243-0.3078 0 0zm-0.6132 0.5334c0.4275-3.0256 2.0512 1.9988 0 0zm0.0102-0.4168c-0.90678-11.929 3.327-2.7534 0 0z"/><path d="m199.22 395.43c7.174-0.70399-0.69619 2.8047 0 0z"/><path d="m281.02 320.88c0.71121 7.1613-2.4176-1.4878 0 0z"/><path d="m287.39 326.95c1.5164 0.56429-1.798 0.73786 0 0zm-0.2959-0.2532c2.022 1.8789-2.8599 0.12956 0 0zm-0.1067-0.12c0.63304 2.1625-2.0682-0.3562 0 0zm0.0681 0.1014c-0.0446 2.1234-1.8035-0.95578 0 0zm-0.0593-0.0939c2.7352 3.066-2.8983 0.0346 0 0zm0.5715 0.5804c2.8356 2.3752-2.8978 0.54712 0 0zm-0.1748 0.6179c0.84927-4.2364 1.9528 2.4586 0 0zm1.0215-2.1235c0.41914 4.7858-2.5747-1.7203 0 0zm-0.142-0.8644c0.36178 4.7628-2.7704-2.1992 0 0zm-1.0622-1.6693c3.7056-0.0316-1.3443 4.9894 0 0z"/><path d="m158.07 274.06c2.9335-1.1851-0.60221 2.0714 0 0zm0.4681-0.26c2.3682-2.4372 0.52318 2.1374 0 0zm0.606-0.6257c3.9724-4.3505 0.63124 2.656 0 0z"/><path d="m148.8 277.02c0.23579 2.0697-1.2575-0.88585 0 0zm1e-3 0.2424c0.29694 1.1541-1.4005-0.44683 0 0zm-0.3461-0.8191c2.1403 2.7979-2.5886-0.58127 0 0zm-1.1098-0.5906c2.1251-0.93757 0.48193 2.9457 0 0zm0.8898 0.0343c2.1169 4.049-3.0163-0.67345 0 0zm0.4688 0.915c2.0904 3.7283-2.9717-0.3635 0 0zm-0.3305 0.7985c1.4402-4.2028 1.2662 3.3415 0 0zm1.0941-3.0823c0.499 7.4887-3.0993-1.6561 0 0zm-0.6407-2.8185c2.6532 1.2699-2.1599 5.8322 0 0z"/></g><g transform="matrix(.54545 0 0 -.54545 0 587.52)" fill="none" stroke-linecap="round" stroke-linejoin="round" stroke-miterlimit="10"><path d="m367.45 352.18c-1.0454 3.0864-2.0909 6.1728-3.1363 9.2592m-3.1364 9.2593c-1.0454 3.0864-2.0909 6.1728-3.1363 9.2592m-3.1364 9.2593c-1.0454 3.0864-2.0909 6.1728-3.1363 9.2592m-3.1363 9.2593c-1.0455 3.0864-2.0909 6.1728-3.1364 9.2592m-3.1363 9.2593c-1.0455 3.0864-2.0909 6.1728-3.1364 9.2592m-3.1363 9.2593c-1.0455 3.0864-2.0909 6.1728-3.1364 9.2592m-3.1363 9.2593c-1.0455 3.0864-2.0909 6.1728-3.1363 9.2592m-3.1364 9.2593c-1.0454 3.0864-2.0909 6.1728-3.1363 9.2592m-3.1364 9.2593c-1.0454 3.0864-2.0909 6.1728-3.1363 9.2592m-3.1364 9.2593c-1.0454 3.0864-2.0909 6.1728-3.1363 9.2592m-3.1363 9.2593c-1.0455 3.0864-2.0909 6.1728-3.1364 9.2592m-3.1363 9.2593c-1.0455 3.0864-2.0909 6.1728-3.1364 9.2592m-3.1363 9.2593c3.0907-1.2162 6.1814-2.4323 9.2721-3.6485m9.2721-3.6485c3.0907-1.2162 6.1814-2.4323 9.2721-3.6485m9.2721-3.6484c3.0907-1.2162 6.1814-2.4323 9.2721-3.6485m9.2721-3.6484c3.0907-1.2162 6.1814-2.4324 9.2721-3.6485m9.2722-3.6485c3.0907-1.2161 6.1814-2.4323 9.2721-3.6484m9.272-3.6485c3.0907-1.2162 6.1814-2.4324 9.2722-3.6485m9.2721-3.6485c3.0907-1.2161 6.1814-2.4322 9.2721-3.6484m9.2721-3.6485c3.0907-1.2162 6.1814-2.4323 9.2721-3.6485m9.2721-3.6484c3.0907-1.2162 6.1814-2.4323 9.2721-3.6485m9.2721-3.6485c3.0907-1.2161 6.1814-2.4323 9.2721-3.6484m9.2721-3.6485c3.0907-1.2161 6.1814-2.4323 9.2721-3.6485m9.2722-3.6484c3.0907-1.2162 6.1814-2.4323 9.2721-3.6485m9.2721-3.6485c-2.4543-2.2443-4.9087-4.4886-7.363-6.7329m-7.3629-6.733-7.3629-6.7329m-7.3629-6.7329-7.3629-6.7329m-7.3629-6.733-7.3629-6.7329m-7.363-6.733-7.3629-6.7329m-7.3629-6.733-7.3629-6.7329m-7.363-6.7329c-2.4542-2.2444-4.9085-4.4887-7.3628-6.733m-7.363-6.7329c-2.4543-2.2443-4.9086-4.4886-7.3629-6.733m-7.3629-6.7329-7.3629-6.7329m-7.3629-6.7329c-2.4544-2.2443-4.9087-4.4887-7.363-6.733" stroke="#000" stroke-width="1.8189"/><g stroke="#55e1ff" stroke-width="3.1181"><path d="m323.11 487.93c45.445-16.443 90.89-32.886 136.34-49.329"/><path d="m323.11 487.93c2.0675-2.4238 4.135-4.8476 6.2025-7.2714m6.2026-7.2713c2.0675-2.4238 4.135-4.8476 6.2025-7.2714m6.2025-7.2713c2.0675-2.4238 4.135-4.8476 6.2025-7.2714m6.2026-7.2713c2.0675-2.4238 4.135-4.8476 6.2025-7.2714"/><path d="m366.53 437.03 9.2918 0.157m9.2917 0.1571 9.2918 0.157m9.2918 0.1571 9.2918 0.157m9.2917 0.1571 9.2918 0.157m9.2918 0.1571 9.2917 0.157"/></g></g><path d="m118.94 231.72c0.94912 2.51-1.6661-0.10763 0 0zm0.2916 0.8502c-1.1426 1.3246-0.75824-1.5282 0 0zm0.0601-0.3483c-0.89183 2.3143-1.3225-1.9313 0 0zm-0.039-0.9793c0.35415 4.2956-2.5523-1.9322 0 0zm-0.6514-1.8534c2.4151 4.6684-3.1052 0.02-3e-3 -7e-3zm-0.7714-2.0359c3.0829 7.0883-3.7427-1.0975 0 0zm-1.2755-0.948c2.5222-1.2971 0.41154 4.5183 0 0zm0 0c1.9574-2.2897 1.1379 2.5289 0 0zm0.77-0.5467c4.7203 1.5258-1.3722 2.3492 0 0zm1.5547 0.6687c6.0757 2.7529-2.8909 2.0053 0 0zm1.697 0.9498c9.1379 1.637-3.3594 2.5035 0 0z"/></g></svg>
