<?xml version="1.0" encoding="UTF-8"?>
<svg width="227.22" height="205.74" version="1.1" viewBox="0 0 227.22 205.74" xml:space="preserve" xmlns="http://www.w3.org/2000/svg" xmlns:cc="http://creativecommons.org/ns#" xmlns:dc="http://purl.org/dc/elements/1.1/" xmlns:rdf="http://www.w3.org/1999/02/22-rdf-syntax-ns#"><metadata><rdf:RDF><cc:Work rdf:about=""><dc:format>image/svg+xml</dc:format><dc:type rdf:resource="http://purl.org/dc/dcmitype/StillImage"/><dc:title/></cc:Work></rdf:RDF></metadata><g transform="matrix(1.3333 0 0 -1.3333 -171.74 604.5)"><g transform="matrix(.54545 0 0 -.54545 0 587.52)" fill="none" stroke="#000" stroke-linecap="round" stroke-linejoin="round" stroke-miterlimit="10" stroke-width="1.8189"><path d="m240.12 248.07v272.14"/><path d="m240.12 520.21c100.76 0.72453 201.52 1.4491 302.28 2.1736"/></g><g><path d="m130.03 450.28c2.374 4.2896-1.8256 0.84577 0 0zm-0.4997-1.034c1.7707 3.0122-1.9564-0.18238 0 0zm-0.059-0.1832c0.21219 1.8026-1.7336-0.87469 0 0zm-0.6456-3e-3c1.2013-0.88434 0.30205 1.377 0 0zm0.6604 0.058c1.0132 3.4787-1.9873-0.96445 0 0zm0.2302 0.8475c1.7832 4.1539-2.2045-0.36066 0 0zm0.4218 1.3841c2.2809 3.2247-2.5255-0.17733 0 0zm0.4314 0.9686c1.9434 1.9949-2.0594 0.14598 0 0zm0.23 0.291c2.6082-3.7122 0.11301 2.6184 0 0zm0.5477-0.9611c3.6586-8.5128 1.725 2.6593 0 0z"/><path d="m294.75 304.43c0.93429-1.5445 0.23972 1.1806 0 0zm-0.3052 0.0798c1.8836-0.0822-1.4552 1.1373 0 0zm-0.2151-0.0609c1.6443 1.2005-2.0569 0.99561 0 0zm-0.5766 0.4381c1.0411-1.6351 1.025 1.6322 0 0zm0.3644-0.4526c3.6092 0.14558-1.7578 2.0355 0 0zm0.4274-0.0942c4.0602-2.1375 0.24191 2.9308-0.2895 0.18859l0.2895-0.18899zm1.2635-0.4762c5.4743-2.6312-0.23977 3.0883 0 0zm1.7636-0.6807c4.7854-1.4536-1.5134 3.074 0 0zm0.7725-1.1262c3.3475 3.3764-2.8126 0.65869 0 0zm-3.6555-2.9068c4.0743 1.9625 4.6316 6.1742 0.34994 1.3662-0.44905 0.43215-1.4689-1.8554-0.34994-1.3662z"/><path d="m162.81 304.71c0.32247-1.5976 0.91499 1.1298 0 0zm0.5723 0.0267c-0.70774 1.2986-0.77658-1.2157 0 0zm0.0786-1.1943c-0.0464 4.3265-1.7392-1.6839 0 0zm0.017-1.7097c0.893 4.74-2.4889-0.41744-0.16523-0.29902zm-0.0593-0.5268c-0.0887 3.2562-1.9629-1.6859 0 0zm-0.7481-0.2859c1.9157-0.34113-0.44889 1.9341 0 0zm0.7478 0.3878c0.48465 7.9013-2.3694-1.7129 0 0z"/><path d="m262.91 299.37c0.99251 3.9439-0.60849 7.2665-0.58482 1.2375-0.62882 0.14675 0.11246-2.3055 0.58482-1.2375z"/><path d="m165.84 362.05c0.4239 3.6554-0.48358 6.8892-0.54401 1.1697-0.62763 0.0979 0.0874-2.2953 0.54401-1.1697z"/><path d="m165.77 354.43c1.4221 6.8981-1.5018 2.3208 0 0z"/><path d="m165.56 345.06c0.87962 7.312-1.617 2.6331 0 0z"/><path d="m165.55 336.51c1.1209 7.0009-1.4464 2.6787 0 0z"/><path d="m165.22 331.03c-0.39459-3.6864 1.1554-6.8647 0.54688-1.108 0.60023-0.23603-0.19431 2.125-0.54688 1.108z"/><path d="m166.19 319.83c0.94903 6.6414-1.7532 0.41206 0 0z"/><path d="m166.6 309.49c1.1619 2.8692-1.3722 5.3703 0 0z"/><path d="m263.28 387.83c0.83937 8.2232-1.7101 0.969 0 0z"/><path d="m262.68 377.5c0.0855-5.1797 0.90568-3.7004 0.4012 0.0532l-0.2272 0.174-0.174-0.2272z"/><path d="m263.18 362.63c1.3875 1.8074-0.60186 5.0771 0 0z"/><path d="m263.6 351.53c1.1404 6.2876-1.3789 2.1057 0 0z"/><path d="m263.82 343.4c0.54826 6.9238-1.2211 5.2063 0 0z"/><path d="m263.75 334.62c0.93679 6.9245-1.2755 2.8697 0 0z"/><path d="m263.05 326.27c1.5116 6.3799-0.85277 2.6424 0 0z"/><path d="m263.14 318.88c0.72029 5.0808-0.94154 3.8719-0.2256-0.2247l0.2256 0.2236v1e-3zm-0.0685-2.912c0.93357 2.4712-1.2526 4.7515 0 0z"/><path d="m262.5 308.13c1.4164 2.0615-0.6653 5.4478 0 0z"/><path d="m262.54 383.16c-0.0592-4.8313 1.5496-0.16081 0 0z"/><path d="m167.61 372.04c2.9203 2.5743 1.9449 7.9069-0.5922 2.3923-0.60633-0.62661-1.1229-3.9671 0.5922-2.3923zm2.1757 3.7215c6.2019 6.9743-4.8897 0.5882 0 0zm1.6585 2.0386c4.9144 4.6892-4.8578 0.58456 3e-4 -1e-4zm1.14 1.0075c6.3108 3.9845-4.6508 1.7517 4e-4 0h1e-4zm1.6741 1.0719c8.2958 4.5168-5.4499 1.8432 0 0zm1.8734 1.0006c6.3319 2.5748-4.3766 2.2915-9e-4 -4e-4zm1.423 0.5055c9.7509 2.2601-4.8304 3.2423 0 0zm2.2876 0.5184c7.9516 1.3514-3.5487 3.3749 0 0zm2.0304 0.3755c12.331-0.68655-4.6766 4.6094 0 0zm2.8285 0.069c5.6792-1.4442 3.9757 3.3262-0.63503 1.5193-0.57148-0.50902-0.12825-1.568 0.63503-1.5193zm3.0729-0.1528c7.8093-1.6316-2.0025 4.4293 0 0zm2.056-0.3935c7.7952-1.9411-2.0153 4.496 0 0zm1.9813-0.4763c8.0208-2.8034-1.2617 4.7527 0 3e-4zm2.5784-0.6845c7.7305-2.7146-1.4595 4.674-4e-4 0zm2.3195-0.6683c6.6489-2.4047-1.5669 4.4875-4e-3 2e-3l4e-3 -2e-3zm1.7329-0.5885c7.4262-1.6066-1.7885 4.3333 0 0zm2.004-0.3848c5.5535-1.2998-0.75271 4.2809-0.57344 0.3099zm1.4744-0.187c6.9736-1.237-2.481 4.1039 0 0zm1.3736-0.3874c7.8214-2.5536-1.0252 4.6624 3e-4 0zm2.5295-0.6187c9.4708-1.8326-2.9179 4.7562 0 0zm2.2217-0.436c5.4537-1.5941-0.35908 4.3137-0.53974 0.3793zm1.5618-0.2636c9.2023-0.85753-2.1138 4.2922 0 0zm2.7846-0.0743c10.443-0.44762-2.3375 4.3145 0 0zm3.3116 0.1105c9.2045 0.78128-2.8059 3.9555 1e-4 0zm3.0638 0.574c8.5977 1.6743-3.3621 3.4353-1e-4 -1e-4zm2.7533 0.7855c7.751 2.4042-3.6748 2.9144 0-3e-4zm2.3653 0.9349c8.3569 2.8294-3.7022 2.8941-5e-4 3e-4zm2.656 1.1708c7.8745 3.1998-3.7508 2.6236 0-3e-4zm2.4803 1.2743c7.66 3.9609-3.8476 2.3521-2e-4 0zm2.4441 1.587c8.1785 5.2086-4.0517 2.0966 0-5e-4zm2.6574 2.1194c6.8377 4.8226-4.0602 1.5893 4e-4 -4e-4zm2.125 1.8152c4.9777 4.4764-3.9128 1.0519 4e-4 0zm1.4229 1.4422c4.8009 4.5135-3.9716 0.86976-3e-4 4e-4zm1.3261 1.3476c8.5398 7.2791-5.3757 0.166 0 0zm2.0577 1.7908c4.0628 1.8609 3.9042 6.1586-0.1364 1.8106-1.2682-0.14647-1.469-2.644 0.1364-1.8106zm3.2556 2.7366c7.0699 3.9526-1.5228 4.1096-0.5367-0.16421l0.5317 0.16011 5e-3 4e-3zm2.8872 2.2838c5.9943 3.6058-3.7685 1.7353 5e-4 4e-4zm1.6864 1.1253c5.8619 1.4344-2.4965 3.1555-0.56022-0.0511l0.56022 0.0512zm1.6111 0.6041c9.0592 2.0621-4.3005 2.6833 0 0zm2.1522 0.5134c8.6769 0.0111-2.3946 3.688-5e-3 -9e-4l5e-3 9e-4zm2.8016 0.2012c9.5438 0.072-3.4142 3.6794 0 0zm2.2571 0.0102c6.79-0.79947-3.2277 4.0201 0 0zm1.1175-0.2483c6.825-2.5704-2.2215 4.7843 0 0zm1.1388-0.5117c5.2096-3.5179 1.3329 3.5693-0.33355 0.50921z"/></g><g fill="#55e1ff"><path d="m240.98 395.08c3.5462-1.9802-0.31664 10.236 0.0133 1.4069zm1e-4 -9e-4c1.6966-3.6735 1.986 3.1548 0 0zm0.044-0.3668c3.3982-0.86418-2.148 1.1808 1.3574 0.3399-0.26852 0.77148-1.4882 0.44782-1.3574-0.3399zm1.4087 0.1028c-0.58527 5.0323-2.8211-2.9549 0 0zm0.014 0.8309c0.56991 6.9385-3.3182-1.9535 4e-4 0zm-0.0121 2.248c0.91862 8.7627-3.0789-4.1108 0 0z"/><path d="m242.08 400.49c4.5408-2.388 8.2401 3.4232 0 0zm4.2019-0.2434c8.5983-0.95884 0.44384 4.2479-0.46535 0.1493zm3.4931 0.1817c10.137-0.13125-2.7963 3.698 0 0zm2.8171 0.0489c9.6578-0.83115-1.6784 3.984 0 0zm3.4788 0.0835c7.0904-0.56506 2.98 3.365-0.7517 0.7002-0.13101-0.37631 0.49647-0.74077 0.7517-0.7002z"/><path d="m230.24 392.93c3.2228-0.97852 11.418 1.0203 3.2718 0.93711-0.39285-0.26579-5.0342 0.52693-3.2718-0.93711zm6.5712-0.1383c6.5085-0.7553 0.0404 3.1096-0.41428 0.15939z"/><path d="m228.72 392.03c1.1715 3.4162-2.5809-0.64865 0 0zm0.3558 0.3782c-0.69081 3.4583-2.0842-2.3827 0 0zm0.0805-4.5461c0.87487 4.2319-1.7623 7.2642-1.2433 1.1365-0.71006-0.86577 0.78994-2.8358 1.2433-1.1365zm-1.1534-5.0071c3.3251 0.39124-0.79013 10.661-0.1205 1.7335z"/><path d="m229.01 392.95c4.5984-2.1628 0.84998 2.8854 0 0z"/><path d="m199.3 380.43c3.9797-0.40555-1.9399 2.1386 0 0zm-0.411 0.6535c0.42275-2.2024 1.678 1.1917 0 0zm0.3903-0.6595c5.1286-0.87897-1.6592 2.8546 0 0zm1.1492-0.0948c8.2928-0.69554-0.44428 3.3856 0 0zm2.9649 0.0521c8.7077-0.50252-2.6082 3.7041 0 0zm2.6357 0.2248c8.0183-1.0188 0.52034 4.0742-0.48814 0.15261l0.48024-0.15331 8e-3 7e-4zm3.3018 0.1375c3.195-1.1478 8.7659 1.7738 2.4997 1.3868-0.78067 0.13182-4.8479 0.0653-2.4997-1.3868zm5.0364 0.0504c5.2647-1.3397 5.1522 2.8547-1e-3 1.3648-0.88497 0.019-0.88312-1.3857 1e-3 -1.3648zm3.652 0.0119c6.2152-1.1982 2.397 3.7419-0.7058 0.6796l0.21246-0.48579zm3.1016 0.1404c4.3-0.90485 6.8093 2.4298 0.98861 1.4323-1.0252 0.57294-2.7415-1.0552-0.98861-1.4323zm4.2524 0.2208c6.0385-0.37993 2.5173 3.3356-0.7123 0.652l0.22066-0.47334 0.49074-0.17866z"/><path d="m198.53 383.65c2.3101-1.3901-0.0195 2.9637 0 0zm-0.0568 0.4231c1.5827-2.9883 1.6516 2.4737 0 0zm1.5196-1.1057c-1.176 5.2279-2.6433-3.3127 0 0zm-1.2755-2.9864c3.1177-1.3116-0.20754 7.5496-0.17311 1.4829z"/><path d="m189.79 383.66c3.7646-0.54527 13.148 0.3233 4.1214 1.0804-0.81915-0.0576-6.8772 1.2144-4.1214-1.0804z"/><path d="m188.92 385.15c1.7593-1.3589 0.23394 2.6023 0 0zm1.0632 0.6488c-1.6327 1.4877-0.63937-2.1939 0 0zm0.093-0.2901c-2.029 2.6693-1.1-3.0501 0 0zm0.0918-0.8436c-0.88382 4.48-2.6597-3.0958 0 0zm-1.2739-1.5502c3.9864-0.46685-1.3327 5.1265 0 0z"/><path d="m166.21 385.33c4.1658 0.24394-1.7649 2.2012 0 0zm0.8427-7e-3c5.6989-0.50406-2.4643 2.8499 0 0zm1.1734-0.0227c6.5939-0.77096-2.8619 2.9065 0 0zm1.0309 0.0273c4.2202 0.42921-2.2156 2.2656-1e-4 0zm0.9251 0.0393c4.815-0.64271-0.78155 3.1329-0.4197 0.16163zm1.4567 0.0153c6.7292 0.15576-2.6135 2.8137 0 0zm1.5822 0.016c6.5254-0.20375-2.8349 3.0734 0 0zm1.491 0.0383c6.872-0.0972-2.8609 3.1826 0 0zm1.6775 0.0717c5.5007-0.62994-0.80223 3.5003-0.45353 0.15963zm1.7048 0.065c5.1496-0.63936-0.84915 3.3533-0.4544 0.17643zm1.5624 0.0337c4.6532-0.45844-0.92693 3.2021-0.45486 0.17719zm1.3425 0.0419c5.9722-0.0981-2.3884 2.8322-4e-3 -2e-4l4e-3 2e-4zm1.6104 0.0339c6.1601-0.89908-2.6758 3.459 0 0zm1.5757-6e-3c4.8332-0.13383-2.0752 2.6732-0.033 2e-3l0.033-2e-3zm1.2216-0.0111c8.1791-1.3326-2.6923 3.5038 0 0zm2.1277 4e-3c8.0502-1.1461-3.0083 3.074 0 0z"/><path d="m165.52 385.23c1.6125-2.3102 0.54596 2.3571 0 0zm0.8527-2e-3c-1.0238 1.8691-1.0789-1.6037 0 0zm0.0997-2.5471c0.7636 7.7423-3.0773-2.0394 0 0zm0.0804-2.9748c1.0198 5.4461-3.0146 2.5995-0.6478-0.6126l0.45069 0.17205zm-0.0697-1.259c0.0731 6.0178-2.9665-2.5286 0 0zm-0.0576-1.6992c1.0249 5.4513-3.5374-0.56725-0.18544-0.44213zm-1.2561 4e-3c0.0633-6.1435 3.0919 2.667 0 0zm0.1117-1.6238c1.4599-4.7846 1.7863 3.2831 0 0zm1.1905-1.5635c0.0353 3.7312-2.3699-1.6205-1e-4 0zm-0.3892-0.6843c1.6182 2.3679-2.3842 0.81278 0 0z"/><path d="m242.73 390.1c-1.0876 2.1278-0.97567-1.7025 0 0zm-0.0129-1.0803c0.82213 4.0637-2.4746-1.8263 0 0zm-0.0852-1.1646c0.83388 3.789-2.5164-0.42491-0.14846-0.31148zm-0.7487-1.6205c2.5933 0.41921-1.4172 4.1958 0 0z"/><path d="m242.11 378.59c1.2136 6.1106-1.7744 5.1955 0 0z"/><path d="m241.75 369.28c1.7106 2.2364-0.58342 7.1472 0 0z"/><path d="m242.37 360.86c0.69026 5.4117-1.629-2.1511 0 0zm4e-4 -1.0325c0.18469 3.9222-1.7095-1.4318 0 0zm-0.3545-2.2462c1.4174 4.037-1.5132 2.686 0 0z"/><path d="m242.16 351.6c0.57908 4.1183-1.606 0.0494 0 0zm-0.247-2.445c1.3044 5.5559-1.5935 0.8978 0 0z"/><path d="m241.53 341.68c1.4403 7.0349-1.3276 2.4271 0 0z"/><path d="m241.09 334.96c1.7212 0.46049-0.73316 5.1968 0 0zm0 1e-4c-0.0621-5.3989 1.4758 1.7048 0 0z"/><path d="m241.18 326.92c0.94945 4.7986-1.0002 1.3834 0 0z"/><path d="m240.92 319.18c0.37224 3.5983-1.4244-0.69609 0 0zm-0.4954-1.851c1.4633 0.70521-0.59394 3.7748 0 0z"/><path d="m240.44 311.15c1.0776 5.6074-1.2134 1.7586 0 0z"/><path d="m240.31 305.74c0.77388 4.2335-1.8555-0.57031 0 0z"/><path d="m227.95 376.19c1.9291 1.7634-1.0757 6.1665 2e-4 0z"/><path d="m228.41 369.3c0.43675 5.7196-1.6967 0.48678 0 0z"/><path d="m228.33 362.27c0.53072 5.4163-1.7955 0.15707 0 0z"/><path d="m228.18 357.56c0.27914 3.5914-1.4718-1.0303 0 0zm-0.0446-0.8907c0.30072 3.2694-1.4477-0.95719 0 0zm-0.2457-1.3594c2.827 3.0888-2.9197 0.7908 0 0z"/><path d="m227.71 348.39c0.58552 4.2076-1.6162-0.67584 0 0zm-0.2117-1.3865c0.98819 2.253-1.1338 2.0382 0 0z"/><path d="m227.04 340.56c1.302 1.4944-0.68039 4.2524 0 0z"/><path d="m227.2 333.54c1.3766 0.93148-0.74652 3.7917 0 0z"/><path d="m227.23 328.72c-0.0636-5.788 1.428 0.65233 0 0z"/><path d="m227.6 321c1.3343 1.5193-0.95682 4.3014 0 0z"/><path d="m227.81 316.26c0.82127 3.9426-1.5308-0.99629 0 0zm-0.2353-1.2454c1.2694 0.26774-0.7342 2.6283-0.2039 0.5z"/><path d="m227.58 309.31c1.9928 0.23274-0.79006 4.4424 0 0z"/><path d="m227.56 303.11c1.1747 1.1012-0.11495 7.0614-9e-3 1.2082z"/><path d="m199.08 375.39c0.43439 4.6859-2.008-1.9726 0 0zm-0.8192-1.7775c2.3665-0.22445-0.53328 4.7852 0 0z"/><path d="m198.29 368.08c1.502 1.5989-1.0129 4.4258 0 0z"/><path d="m198.71 361.74c1.2213 5.2979-1.4894 2.0822 0 0z"/><path d="m198.61 354.04c0.47836 6.102-1.4648 3.0713 0 0z"/><path d="m198.72 348.74c0.47101 4.6226-1.8472 0.94501 0 0z"/><path d="m198.05 341.5c1.5808 1.7425-1.1525 4.8262 0 0z"/><path d="m198.46 333.95c0.71712 5.7392-1.7773 0.81071 0 2e-4z"/><path d="m198.38 329.22c0.48406 4.3787-1.6931-0.78676 0 0zm-0.5726-1.6993c1.6034 0.30724-0.5842 3.8257 0 0z"/><path d="m198 321.64c1.5742 1.3123-1.0384 4.5902 0 0z"/><path d="m198.4 315.69c0.66527 5.3172-1.758 0.48591 0 3e-4z"/><path d="m197.8 309.87c1.7889-0.62112-0.56278 4.7782 0 0z"/><path d="m197.87 306.13c1.7286-0.16922-0.63902 4.4956 0 0z"/><path d="m189.34 378.78c0.53447 3.9852-1.8862-1.153-6e-4 0zm-0.0813-1.0354c0.63618 3.6932-2.1212-1.551 0 0zm-0.698-1.2814c2.8598 0.35613-1.3706 3.42 0 0z"/><path d="m188.75 371.12c1.3662 1.4592-1.2378 4.1351 0 0z"/><path d="m189.35 364c0.35414 5.8942-1.5364 4.1425-0.3687-0.3797l0.369 0.3573z"/><path d="m188.58 357.28c1.4367 6.5914-1.8473 1.1968 0 0z"/><path d="m188.07 353.23c1.8155 0.83739-0.99863 3.6783 0 0z"/><path d="m188.43 347.33c1.436 1.7052-1.0799 4.4818 0 0z"/><path d="m188.9 342.63c0.60127 5.3752-1.8401 0.0947 0 0z"/><path d="m188.46 336.83c1.6294 2.093-1.0443 5.753 0 0z"/><path d="m188.44 330.75c1.4382 2.5274-0.68861 5.7669 0 0z"/><path d="m188.42 326.02c2.1774-0.40402-0.68714 4.247 0 0zm-1e-4 2e-3c-0.0267-4.0833 1.6205 1.1095 0 0z"/><path d="m188.46 320.05c1.7909 1.212-0.91929 3.5691 0 0z"/><path d="m188.58 315.16c1.514 1.514-0.94198 4.626 0 0z"/><path d="m188.62 309.94c1.3777 1.7877-0.93862 4.5698 0 0z"/><path d="m188.93 305.09c0.75286 4.5717-1.7219 0.10683-5e-4 0z"/></g><g><path d="m241.47 392.88c1.1776-0.35872-0.13807 1.6213 0 0zm0.4576 0.162c1.3124 1.682-1.7515 0.0734 0 0zm0.2266 0.2144c1.8202 1.8124-1.9701 0.39493 0 0zm0.3332 0.2719c1.6415 1.4721-1.8974 0.61663 0 0zm0.2928 0.215c2.8378 2.2562-2.5904 0.54601 0 0zm0.5228 0.3585c2.2702 1.8434-2.2469 0.43653 0 0zm0.5567 0.4469c0.79642 2.0806-1.9876-0.33036 0 0zm-0.1253 2e-3c1.5278 1.5675-2.0284 0.56769 0 0zm-0.0756-0.0571c1.5755 2.0197-2.4491-3e-3 0 0zm-0.2368-0.1871c1.603 2.1146-2.3525 0.0474 0 0zm-0.2742-0.2363c1.6747 2.241-2.4113-5e-3 0 0zm-0.4516-0.4087c2.284 2.5856-2.5958 0.0336 0 0zm-0.3554-0.33c1.7807 2.2868-2.2483 4e-3 0 0zm-0.0824-0.0814c0.93378 2.0716-2.2796-0.25524 0 0zm-0.2773-0.1235c1.4715 1.0735-1.5536 0.988 0 0zm0.3277 0.1875c0.25107 2.0414-1.7973-0.65565 0 0zm0.0532 0.0783c1.02 2.3316-2.4227-0.74449 0 0zm0.1561 0.2485c0.96361 2.2897-2.2131-0.66153 0 0zm0.1854 0.2494c2.1401 2.0127-2.5908-0.12074 0 0zm0.2801 0.282c1.8284 1.7739-2.154 0.30889 0 0zm0.2991 0.2462c1.555 1.5791-2.0947 0.39801 0 0zm0.2055 0.1421c1.0033 1.3683-1.7318 0.36431 0 0zm0.1087 0.0734c0.50515 1.8603-1.8688-0.30445 0 0zm-0.2381-0.1987c1.8492 1.9067-2.535-0.024 0 0zm-0.3695-0.3172c2.2061 2.2108-2.5841-0.0484 0 0zm-0.3587-0.3309c1.907 2.3241-2.3889-3e-3 0 0zm-0.3801-0.347c1.9757 2.3426-2.3806 0.0417 0 0zm-0.2777-0.2276c1.4998 1.8588-1.9654 0.20796 0 0zm-0.6922 0.1464c1.5457-1.0856 0.4109 1.8082 0 0zm0.702-0.1126c0.57687 2.1325-1.9802-0.55585 0 0zm0.0793 0.0998c1.5506 2.2451-2.5804-0.53984 0 0zm0.1869 0.2081c1.3031 1.8983-1.9585-0.14223 0 0zm0.2934 0.2945c1.6968 1.7948-2.2591 0.20946 0 0zm0.2844 0.2603c1.5132 1.5293-1.8586 0.36336 0 0zm0.3102 0.2471c1.7009 1.4951-2.2067 0.47134 0 0zm0.2354 0.1756c1.0426 1.6373-2.0715 0.0775 0 0zm-0.0716-0.0168c1.1406 0.90303-1.4659 0.63595 0 0zm-3e-3 -0.0146c1.0179 1.566-1.7498 0.27447 0 0zm-0.1538-0.1271c1.238 2.0257-2.1309-0.15067 0 0zm-0.5433-0.4761c2.2515 1.9333-2.2112 0.27078 0 0zm-0.6351-0.5323c2.5826 1.9733-2.222 0.62406 0 0zm-0.3565-0.2583c1.8634 1.6841-1.9515 0.56221 0 0zm-0.0909-0.0533c1.1061 1.2451-1.7314 0.50199 0 0zm-0.4852 0.077c1.5394-0.57729-0.17023 1.7671 0 0zm0.5804 6e-3c1.4212 1.7839-2.3 0.0327 0 0zm0.2096 0.2141c1.9233 2.058-2.3473 0.0693 0 0zm0.357 0.3615c2.0022 1.9744-2.2604 0.19927 0 0zm0.3847 0.3586c1.83 1.6346-1.8712 0.4733 0 0zm0.4326 0.3635c1.8289 1.6455-1.8473 0.45444 0 0zm0.3923 0.3013c1.611 1.4976-2.1015 0.48726 0 0zm0.173 0.1237c0.88408 1.4734-1.6399 0.2518 0 0zm-0.0563-0.014c1.3098 0.84306-1.6772 1.1511 0 0zm0.0561 0.013c0.7712 1.6527-1.5971 3e-3 0 0zm-0.12-0.0986c1.2286 1.7573-1.9755 0.0232 0 0zm-0.276-0.2406c1.4669 1.6701-2.0532 0.0841 0 0zm-0.5251-0.4728c2.5708 2.7868-2.6145-0.0355 0 0zm-0.668-0.5892c3.9218 2.2088-2.9864 0.40288 0 0zm-0.3596-0.3202c1.8496 2.0825-2.1992 0.21845 0 0zm-0.1025-0.0995c0.88416 1.7278-1.9246-0.0362 0 0zm-0.0308-0.027c0.52681 1.9715-1.7727-0.2954 0 0zm0.0288 0.0247c1.309 1.8752-2.3316-0.14494 0 0zm0.1519 0.1414c1.6094 2.2546-2.2674-0.17778 0 0zm0.3386 0.3592c1.774 2.0656-2.2319-5e-3 0 0zm0.3555 0.3984c1.9579 2.0823-2.0805 0.062 0 0zm0.3987 0.354c2.092 1.7318-1.8728 0.53024 0 0zm0.4366 0.3118c1.9463 1.5389-2.1156 0.60703 0 0zm0.2923 0.1827c1.4436 1.166-1.7392 0.72746 0 0zm0.125 0.0609c1.3202 1.3143-1.7212 0.62557 0 0zm0.1656 0.0722c0.59333 1.7136-1.7607-0.0362 0 0zm-0.1957-0.1298c1.4659 1.84-2.1446 0.23269 0 0zm-0.2828-0.1913c1.6686 1.4943-2.0226 0.46477 0 0zm-0.2396-0.1783c1.7285 1.9508-2.2895 0.19407 0 0zm-0.2665-0.2205c2.1291 2.0514-2.6494-0.0909 0 0zm-0.403-0.3784c2.2232 2.422-2.5753-0.12137 0 0zm-0.5538-0.5188c2.6798 2.9553-2.6587-0.11544 0 0zm-0.3375-0.3077c1.8348 2.2955-2.3959-0.0204 0 0zm-0.6011-0.1084c1.9549 0.0698-0.68966 1.5668 0 0zm0.6235 0.1888c-0.38789 2.1119-1.5561-1.1782 0 0zm-0.0298-0.0408c0.84851 2.183-2.1516-0.56042 0 0zm0.1516 0.1787c1.8199 2.0785-2.3389 0.0864 0 0zm0.34 0.3628c1.6822 2.0397-2.3987 4e-3 0 0zm0.2633 0.2588c2.5336 2.3577-2.4352 0.38304 0 0zm0.5044 0.4275c2.5924 2.0418-2.2812 0.57388 0 0zm0.626 0.5254c2.5291 2.3611-2.6699 0.10449 0 0zm0.4805 0.392c2.3787 1.8201-2.1774 0.32693-0.0233-0.0168z"/><path d="m227.53 381.48c1.8949 1.2204-1.318 0.73312 0 0zm0.5027 0.3356c1.9243 1.5262-1.619 0.54186 0 0zm0.4579 0.3406c2.1783 1.4436-1.9298 0.83352 0 0zm0.4234 0.272c2.81 1.7828-2.2096 0.78722 0 0zm0.5483 0.311c3.1718 1.8707-2.1883 0.91642 0 0zm0.7263 0.4132c2.3852 1.8587-2.4256 0.53172 0 0zm0.406 0.2365c0.72241 1.52-1.7344 0.0347 0 0zm-0.2286-0.0682c1.5996 1.1096-1.6589 0.89343 0 0zm-0.1927-0.0966c2.0937 1.7839-2.2886 0.42298 0 0zm-0.9812-0.5752c3.7598 1.5724-2.6682 1.0628 0 0zm-1.0357-0.6287c5.1516 1.9796-3.2036 0.88224 0 0zm-0.6441-0.4213c3.2131 2.5446-2.8145 0.4189 0 0zm-0.5598-0.334c2.4929 1.5152-2.1182 0.95763 0 0zm-0.2361-0.1c1.7819 1.2883-1.8541 0.85357 0 0zm-0.0686-0.0243c1.3349 1.3141-1.7542 0.63832 0 0zm0.1849 0.1325c0.12945 2.0353-1.7486-0.74718 0 0zm-0.1044-0.0926c1.3088 1.6964-2.1794 0.20879 0 0zm0.1082 0.0667c2.3281 1.8076-2.4148 0.407 0 0zm0.4068 0.2624c2.9201 2.0529-2.1816 0.58109 0 0zm0.6736 0.424c6.8959 2.0195-3.075 1.0405 0 0zm0.8054 0.4503c3.8624 1.7194-2.6117 0.97642 0 0zm0.8213 0.43c2.129 1.3048-1.9958 0.65161 0 0zm0.4563 0.2454c1.2244 1.6842-2.0479 0.23739 0 0zm0.0671 0.0367c1.0551 1.4383-1.9839 0.40393 0 0zm-0.5488-0.3139c2.818 1.7662-2.2275 0.82375 0 0zm-0.8518-0.5021c3.6359 2.4946-2.6053 0.42987 0 0zm-0.6925-0.4313c4.4117 1.27-2.9953 0.81499 0 0zm-0.6608-0.3984c3.2604 2.3293-2.5852 0.44183 0 0zm-0.7123-0.3723c2.945 1.728-2.0352 0.82409 0 0zm-0.42-0.2044c2.5643 1.6191-2.3296 0.7024 0 0zm-0.4271 0.0273c1.8358-0.11409-0.61773 1.6908 0 0zm0.443-0.0165c1.3784 1.7142-2.0516 0.23416 0 0zm0.192 0.1146c2.6284 1.662-2.2526 0.73739 0 0zm0.5364 0.3319c3.1311 1.9699-2.273 0.73579 0 0zm0.7371 0.4837c2.7323 1.5911-1.9352 0.88206 0 0zm0.7225 0.4581c2.3149 1.2464-1.6533 0.92565 0 0zm0.6053 0.3569c2.126 1.4451-2.1011 0.65616 0 0zm0.3888 0.2438c1.6656 1.3674-2.042 0.51799 0 0zm0.2402 0.151c1.4829 1.2804-1.9293 0.52066 0 0zm0.1814 0.0985c1.2107 0.89123-1.8613 0.72567 0 0zm0.1423 0.0709c0.29752 1.5227-1.4437-0.36017 0 0zm-0.2387-0.1974c1.1243 1.2371-1.6087 0.34051 0 0zm-0.4345-0.2861c2.2376 1.5061-2.0841 0.53983 0 0zm-0.5997-0.3578c2.7574 1.6237-2.1446 0.67545 0 0zm-0.8647-0.5159c3.5284 1.9938-2.2902 0.73605 0 0zm-0.7982-0.4699c3.2826 1.8206-2.1462 0.87798 0 0zm-0.4771-0.2312c2.6803 1.3884-2.2197 0.8351 0 0zm-0.379-0.1491c1.816 0.9211-1.4896 0.96898 0 0zm-0.2497-0.1198c1.9074 1.2386-1.9208 0.74144 0 0zm-0.3513-0.2057c1.6731 1.1974-1.6418 0.6232 0 0zm-0.1665-0.1056c1.3641 1.2344-1.9244 0.44668 0 0zm0.0642 0.0525c0.34446 1.4787-1.6888-0.30278 0 0zm-0.0885-0.0675c1.3232 1.1542-1.8221 0.55023 0 0zm0.1484 0.0784c1.4169 1.0849-1.558 0.60449 0 0zm0.2486 0.1303c2.1025 1.2677-2.0491 0.67834 0 0zm0.3323 0.19c3.7761 1.2812-1.9421 1.8148 0 0zm1.1179 0.648c4.5996 2.313-2.3088 1.1423 0 0zm1.2601 0.712c2.9691 1.6382-2.2361 0.86561 0 0zm0.6493 0.3616c3.0096 1.7802-2.2949 0.70451 0 0zm0.675 0.4122c1.864 1.4487-1.793 0.47909 0 0zm0.5261 0.4733c-0.41592 1.3301-1.1084-0.90042 0 0zm-0.1352-0.1708c0.48896 1.1508-1.2066 0.0289 0 0zm-0.1825-0.1324c1.3024 1.1848-1.6926 0.35413 0 0zm-0.3641-0.2509c1.8705 1.3405-1.8211 0.49351 0 0zm-0.6076-0.3624c2.6706 1.5499-1.976 0.62152 0 0zm-0.6644-0.3769c2.8821 1.5829-2.0162 0.69343 0 0zm-0.5256-0.3001c2.537 1.4702-2.0311 0.6458 0 0zm-0.6089-0.3438c2.7578 1.5363-2.0307 0.6982 0 0zm-0.5366-0.2901c2.5893 1.4159-2.0283 0.71489 0 0zm-0.3803-0.1943c2.1164 1.1749-1.8966 0.7974 0 0zm-0.374-0.1545c2.1362 0.98438-1.8186 0.93523 0 0zm-0.615-0.1965c2.3845 0.71626-1.4103 1.186 0 0zm-0.6615-0.2125c3.0582 0.97346-1.9634 1.0825 0 0zm-0.5664-0.2096c2.8018 1.0627-2.0338 1.0292 0 0zm-0.3004-0.1221c2.046 1.1619-2.0713 0.82709 0 0zm-0.1503-0.0701c1.2145 1.2733-1.5483 0.58317 0 0zm-0.028-9e-3c1.031 1.4194-1.4976 0.28422 0 0zm-0.3659 0.1067c1.0991-0.47041 0.0431 1.4119 0 0zm0.363-0.1088c1.2851 0.99115-1.4789 0.73122 0 0zm0.1034 0.0269c2.4434 1.1745-1.6134 0.85187 0 0zm0.5054 0.2066c2.3194 1.0758-1.5202 0.9592 0 0zm0.557 0.2451c2.7267 1.4309-2.012 0.84622 0 0zm0.547 0.2487c3.9947 1.7312-2.0975 1.1263 0 0zm1.0507 0.5032c3.3768 1.434-1.7283 1.1369 0 0zm0.9506 0.4633c3.2456 1.4975-2.195 0.88895 0 0zm0.7323 0.3455c3.2757 1.4866-2.1079 0.90445 0 0zm0.7728 0.3673c2.7946 1.4621-2.0414 0.75642 0 0zm0.6203 0.3336c2.7414 1.5333-2.0061 0.65867 0 0zm0.6214 0.3587c1.9512 1.254-1.8729 0.54135 0 0zm0.3672 0.2213c0.77019 1.2685-1.3566 0.11946 0 0zm0.1506 0.1113c0.0365 1.2227-1.0945-0.37314 0 0zm-0.1864-0.1542c1.0745 1.1521-1.6566 0.22696 0 0zm-0.3185-0.2444c1.6794 1.3609-1.7663 0.36067 0 0zm-0.3377-0.2486c1.7754 1.3886-1.8558 0.42527 0 0zm-0.3406-0.2181c1.5513 1.1269-1.5909 0.55901 0 0zm-0.5184-0.2833c2.5186 1.3868-2.0248 0.70675 0 0zm-0.7287-0.3821c3.083 1.542-2.0212 0.86292 0 0zm-0.6022-0.3017c2.7337 1.3566-1.9074 0.87765 0 0zm-0.4899-0.2269c2.1388 1.0852-1.5439 0.87052 0 0zm-0.8552-0.3713c3.0019 1.0796-1.5033 1.1697 0 0zm-0.8055-0.3364c2.8663 0.99499-1.5109 1.1522 0 0zm-0.3995-0.1798c2.2916 1.1852-1.9416 0.72492 0 0zm-0.3023-0.1693c1.8911 1.2268-1.8959 0.57939 0 0zm-0.27-0.1485c1.7407 1.0185-1.7 0.75878 0 0zm-0.0482-0.0181c0.91711 1.0687-1.3026 0.36225 0 0zm0.1951 0.3213c-1.0476 1.0595-0.47164-1.1905 0 0zm-0.0896-0.2497c0.537 1.3632-1.5687-0.11508 0 0zm0.05 0.0488c1.5211 1.4134-1.9961 0.18663 0 0zm0.2111 0.1209c1.9594 1.1586-1.501 0.73328 0 0zm0.4426 0.2327c2.2663 1.2918-2.0268 0.67801 0 0zm0.3821 0.204c2.0701 1.2826-1.9558 0.68296 0 0zm0.366 0.2035c3.0243 1.7128-2.124 0.70405 0 0zm0.6648 0.3487c3.1479 1.6043-1.9857 0.86683 0 0zm0.7702 0.4161c2.7017 1.5001-2.064 0.68084 0 0zm0.5785 0.3213c2.4122 1.1665-1.6254 0.93164 0 0zm0.6292 0.3246c3.1 1.5418-1.9257 0.87198 0 0zm0.7565 0.3987c3.0266 1.6017-1.9726 0.80142 0 0zm0.7303 0.4082c2.2991 1.232-1.6343 0.85154 0 0zm0.5999 0.3444c1.9222 1.2374-1.8584 0.63628 0 0zm0.3381 0.1922c1.0478 1.1898-1.568 0.40351 0 0zm0.1977 0.1308c0.0867 1.5238-1.2412-0.49375 0 0zm-0.2106-0.1193c1.1852 1.0086-1.5917 0.60706 0 0zm-0.4353-0.2707c2.2566 1.4139-1.9198 0.60786 0 0zm-0.9767-0.6009c3.6578 2.0337-2.1089 0.83638 0 0zm-0.8124-0.4615c3.2512 1.7266-1.9839 0.87596 0 0zm-0.7727-0.4264c2.7947 1.3343-1.6669 1.0104 0 1e-4zm-0.8208-0.4525c2.8749 1.3212-1.5948 1.0453 0 0zm-0.4737-0.2272c1.9505 1.0059-1.2969 0.83988 0 0zm-0.1272-0.0579c1.3485 1.4694-1.7584-0.0167 0 0zm-0.0526-0.0501c0.49787 1.2116-1.3564-0.0753 0 0zm-0.2905-0.0519c1.2085 0.16415-0.69718 1.1475 0 0zm0.2433 0.0146c0.94915 1.0074-1.4886 0.34441 0 0zm0.0755 0.0443c1.8039 1.3129-1.6284 0.40925 0 0zm0.3462 0.2307c1.9868 1.3796-1.6262 0.44487 0 0zm0.434 0.303c2.0798 1.5283-1.7104 0.38809 0 0zm0.4383 0.2847c2.3079 1.5365-1.7483 0.50361 0 0zm0.4999 0.2991c2.2331 1.4197-1.7861 0.54783 0 0zm0.4528 0.2511c2.5567 1.4779-1.8466 0.63719 0 0zm0.5495 0.2858c3.1162 1.5515-1.8064 0.84131 0 0zm0.7963 0.4296c1.9314 1.0079-1.4088 0.85459 0 0zm0.5914 0.3681c0.6537 1.323-1.4487-0.20302 0 0zm-0.2459 0.0323c1.1831-0.14719-0.33159 1.1682 0 0zm0.2977-0.0809c0.45436 1.4191-1.4122-0.27792 0 0zm-0.2774-0.2764c1.4309 1.4918-1.8146 0.19732 0 0zm-0.4405-0.3333c1.7862 1.3202-1.6654 0.50522 0 0zm-0.7509-0.5037c3.0104 1.8959-2.0256 0.67169 0 0zm-0.802-0.5157c3.2005 1.9254-2.0501 0.718 0 0zm-0.761-0.4873c2.7356 1.5093-1.7345 0.90492 0 0zm-0.616-0.3829c2.7395 1.6696-2.0321 0.62231 0 0zm-0.2974-0.1661c1.8227 1.142-1.8338 0.72146 0 0zm-0.0812-0.0384c1.1486 1.1962-1.7421 0.48802 0 0zm-0.3708 0.0595c1.3353-0.43301-0.31197 1.7082 0 0zm0.37-0.0599c1.2216 1.1794-1.7775 0.53309 0 0zm0.0819 0.0385c1.907 1.17-1.8206 0.72466 0 0zm0.3301 0.1864c2.5616 1.6167-1.9494 0.65084 0 0zm0.5779 0.3735c2.3135 1.3756-1.6957 0.78289 0 0zm0.5952 0.3714c2.5292 1.2329-1.6516 0.95007 2e-4 -4e-4zm0.6683 0.3493c2.9541 1.3881-1.9762 0.89295 0 0zm0.6655 0.3203c2.3082 1.1223-1.9091 0.87919 0 0zm0.4313 0.1926c1.5798 1.0894-1.7634 0.70126 0 0zm0.2003 0.0824c1.059 1.2177-1.4076 0.43084 0 0zm0.1279 0.0421c0.70258 1.054-1.3972 0.21329 0 0zm-0.1438-0.0967c1.2116 1.1906-1.8073 0.35957 0 0zm-0.4512-0.2723c2.254 1.3723-1.9592 0.58409 0 0zm-0.4954-0.2808c2.3793 1.3596-1.9216 0.72361 0 0zm-0.8284-0.482c2.9558 1.4506-1.7356 1.0025 0 0zm-0.9996-0.5762c3.7205 1.9331-2.0015 0.94344 0 0zm-0.4485-0.2536c2.3049 1.5307-1.9646 0.56239 0 0zm-0.1545-0.0965c1.3332 1.3064-1.926 0.31935 0 0zm-0.0301-0.024c0.56282 1.4243-1.5699-0.0284 0 0zm-0.1221-0.0605c0.98091 1.3213-1.3467 0.36303 0 0zm0.0506 0.0165c0.99129 1.1016-1.4206 0.43193 0 0zm0.076 0.0322c2.0771 1.119-1.9318 0.74883 0 0zm0.3272 0.1799c2.3906 1.6337-2.0041 0.53305 0 0zm0.4818 0.2955c2.6639 1.7708-2.0617 0.56848 0 0zm0.5681 0.339c2.418 1.3341-1.6719 0.86607 0 0zm0.6072 0.3367c2.4822 1.4708-2.1127 0.68943 0 0zm0.4596 0.2396c2.0723 1.1769-2.0305 0.84269 0 0zm0.314 0.1492c1.5226 1.1006-1.6286 0.63391 0 0zm0.2301 0.1041c0.9947 1.3911-1.5127 0.29537 0 0zm0.1132 0.0546c0.78257 1.5523-1.7742-0.0271 0 0zm-0.2716-0.1501c1.7714 1.1485-1.9503 0.70752 0 0zm-0.5821-0.3183c2.9041 1.6646-2.2214 0.62905 0 0zm-0.8103-0.4445c3.3121 1.7244-2.0868 0.77187 0 0zm-0.851-0.4723c3.3831 1.7452-2.0387 0.8627 0 0zm-0.5954-0.2409c2.3131 0.61694-0.98541 1.5183 0 0zm0.2066 0.0212c1.3207 1.2005-1.5534 0.49595 0 0zm0.1508 0.0648c2.4362 1.2774-2.1163 0.8076 0 0zm0.4078 0.2065c2.0645 1.0167-1.6091 0.94132 0 0zm0.5238 0.2955c1.9 1.0417-1.6456 0.84551 0 0zm0.45 0.2624c1.8864 1.2143-1.7222 0.74537 0 0zm0.412 0.2273c2.5478 1.3262-2.0417 0.83507 0 0zm0.5038 0.2503c1.988 1.1346-1.9517 0.83582 0 0zm0.308 0.1449c0.93367 1.311-1.6427 0.42867 0 0zm0.065 0.0311c0.6155 1.5676-1.4828 0.0337 0 0zm-0.1088-0.0541c1.081 1.3641-1.6959 0.42434 0 0zm-0.2834-0.162c1.5072 1.0413-1.6738 0.68918 0 0zm-0.4236-0.258c2.3259 1.5191-2.2108 0.61219 0 0zm-0.7637-0.4542c2.8514 1.4733-1.8639 0.92559 0 0zm-0.6409-0.3659c2.859 1.5818-2.036 0.88579 0 0zm-0.0613-0.028c1.0192 1.3365-1.5754 0.33148 0 0zm0.0932 0.0608c0.33842 1.7419-1.5011-0.3904 0 0zm-0.0662-0.0463c1.0994 1.3685-1.7841 0.4109 0 0zm0.0902 0.049c2.0302 1.293-1.9985 0.71409 0 0zm0.3513 0.2008c2.6838 1.5943-2.1299 0.64161 0 0zm0.5494 0.3209c2.1426 1.2413-1.696 0.82033 0 0zm0.5172 0.2893c2.4154 1.3082-1.9959 0.80057 0 0zm0.4681 0.2393c2.2924 1.1976-1.9726 0.8434 0 0zm0.4178 0.1988c1.436 1.0368-1.7611 0.82497 0 0zm-0.1412-0.0221c2.0038 1.4769-2.055 0.53804 0 0zm-0.3463-0.1806c2.1237 1.3296-2.1623 0.74352 0 0zm-0.2656-0.1703c1.8169 1.4964-2.2676 0.50231 0 0zm-0.3683-0.2571c2.1652 1.6713-2.3642 0.49868 0 0zm-0.4202-0.2835c2.2898 1.6533-2.2812 0.64608 0 0zm-0.3458-0.2067c2.3186 1.4396-2.4353 0.74581 0 0zm-0.3718-0.1823c2.4539 1.2344-2.3266 0.94035 0 0zm-0.1856-0.0793c1.7861 1.0922-2.1382 0.90771 0 0zm0.1648 0.136c-0.24327 1.9872-1.3314-0.83423 0 0zm-0.1084-0.104c1.6594 1.4018-2.1312 0.56729 0 0zm0.2298 0.146c2.7025 1.7908-2.3009 0.59422 0 0zm0.5406 0.3137c2.4028 1.3688-1.7656 0.88439 0 0zm0.5897 0.3315c2.3034 1.3952-1.795 0.81348 0 0zm0.5414 0.3084c2.4329 1.5444-2.0943 0.70082 0 0zm0.515 0.3239c1.4442 1.4263-1.9288 0.33067 0 0zm0.2343 0.1806c1.0604 1.3385-1.7967 0.20337 0 0zm0.1509 0.1383c0.64745 1.376-1.4817-0.19008 0 0zm-0.2405-8e-3c1.7699-0.0914-1.1278 1.5238 0 0zm0.4002-0.0331c0.42759 1.7927-1.6637-0.56534 0 0zm-0.1614-0.1841c0.85235 1.5491-1.8037-2e-3 0 0zm-0.3475-0.2517c1.9456 1.4776-2.2249 0.55005 0 0zm-0.4196-0.2336c2.2057 1.7292-2.2554 0.47386 0 0zm-0.394-0.2035c2.538 1.6202-2.4779 0.54917 0 0zm-0.5555-0.272c2.8863 1.8175-2.3504 0.67868 0 0zm-0.6073-0.2459c2.8898 1.2854-1.8968 1.2432 0 0zm-0.3865-0.1159c2.3615 0.93504-1.7722 1.1456 0 0zm-0.3103-0.1019c1.9766 0.78809-1.5962 1.0918 0 0zm-0.5806-0.1832c2.0689 0.59704-0.75091 1.1452 0 0z"/><path d="m223.33 380.14c2.195 0.41083-0.66158 1.1282 0 0zm0.6673 0.1714c2.4758 0.80949-1.2606 1.0546 0 0zm0.6825 0.2487c2.4474 0.87938-1.6126 1.1718 0 0zm0.5082 0.1864c1.8876 0.89029-1.7763 0.92661 0 0zm0.2953 0.1147c1.0168 1.1894-1.7714 0.46139 0 0zm-0.301 0.0485c1.6438-0.011-0.67093 1.5298 0 0zm0.1718-0.0657c1.3995 0.9108-1.5445 0.89807 0 0zm-0.3056-0.1514c2.324 1.1168-2.1549 0.78453 0 0zm-0.6789-0.3087c2.911 1.2712-1.8419 0.96894 0 0zm-0.562-0.2012c2.2283 0.7856-1.3904 1.1058 0 0zm-0.2396-0.0729c1.8755 0.7278-1.755 1.0177 0 0zm-0.1164-0.013c1.3349 0.78711-1.2736 0.91707 0 0zm0.1448 0.0247c1.5891 0.88622-1.8258 0.80472 0 0zm0.175 0.0741c2.8183 1.4225-1.9191 0.78758 0 0zm0.6059 0.2825c2.6095 1.0832-1.5585 1.0452 0 5e-4zm0.7017 0.3261c2.9406 1.411-1.9731 0.86712 0 0zm0.627 0.2646c2.6763 1.1532-1.9063 0.977 0 0zm0.5562 0.2334c1.9712 1.1215-2.0201 0.74658 0 0zm0.3338 0.1822c0.53917 1.6024-1.5439-0.13425 0 0zm-0.4765 0.1882c1.1397-0.84048 0.42082 1.409 0 0zm0.2839-0.2171c1.3206 0.99386-1.3971 0.78895 0 0zm-0.2308-0.09c2.153 0.85162-2.1621 0.99698 0 0zm-0.3821-0.1592c2.2483 1.0569-1.9756 0.87803 0 0zm-0.7717-0.3539c2.8669 1.1152-1.6408 1.0527 0 0zm-0.8071-0.3656c2.8548 1.076-1.5062 1.1723 1e-4 0zm-0.3821-0.142c1.7662 0.79282-1.3742 0.91719 0 0zm-0.4606 0.5039c-0.42849-1.7228 1.6851 0.58944 0 0zm0.2858-0.5653c1.841 0.75886-1.8004 0.97025 0 0zm0.2331 0.0799c2.213 0.88425-1.7812 1.0006 0 0zm0.365 0.1226c2.1128 0.76621-1.6775 1.1198 0 0zm0.375 0.1378c2.8663 1.4269-1.9263 0.79947 0 0zm0.6191 0.2888c2.5847 1.1728-1.5534 0.98326 0 0zm0.6894 0.3417c2.622 1.1198-1.5833 1.0451 0-5e-4zm0.7028 0.33c3.0385 1.4077-1.9442 0.95643 0 0zm0.705 0.3343c2.7167 1.4554-2.054 0.8295 0 0zm0.5806 0.3107c2.5627 1.4327-2.1147 0.72106 0 0zm0.5153 0.2801c2.2341 1.2052-1.9774 0.77577 0 0zm0.4151 0.2058c2.593 1.186-1.9298 0.8088 0 0zm0.545 0.2498c1.7914 0.91025-1.444 0.8197 0 0zm0.4069 0.1857c1.392 1.0138-1.7316 0.66924 0 0zm0.1418 0.0669c0.83372 0.95373-1.3727 0.38807 0 0zm-0.1062-0.0238c1.1894 1.2595-1.3587 0.42217 0 0zm-0.0627-0.0284c1.5606 1.2062-1.9772 0.57939 0 0zm-0.4392-0.2514c2.3145 1.4356-2.0578 0.63913 0 0zm-0.6046-0.3426c2.7142 1.5123-1.9798 0.80145 0 0zm-0.4298-0.2199c2.3988 1.3774-2.014 0.69332 0 0zm-0.4335-0.2406c1.9334 1.2204-1.5189 0.68509 0 0zm-0.5282-0.3038c2.0623 1.172-1.3876 0.76517 0 0zm-0.5259-0.2784c1.9934 1.0082-1.2165 0.7907 0 0zm-0.5389-0.27c2.2666 1.1394-1.344 0.67653 0 0zm-0.662-0.3468c2.3038 0.99757-1.2177 0.76675 0 0zm-0.4826-0.246c1.8049 0.82609-1.0848 0.72301 0 0zm-0.1351-0.0589c1.1151 0.70694-1.2697 0.54895 0 0zm-0.0654-0.018c0.83788 0.74726-1.0145 0.51341 0 0zm0.0977 0.0382c0.67097 0.93358-1.1121 0.12619 0 0zm0.0729 0.0495c1.3774 0.90092-1.4141 0.42574 0 0zm0.2258 0.1214c1.9623 0.86598-1.1449 0.75418 4e-4 4e-4zm0.5455 0.282c2.0769 0.93765-1.1538 0.78621 0 0zm0.5609 0.2789c2.0925 0.94353-1.1935 0.88588 0 0zm0.539 0.2438c2.7115 1.2378-1.4233 1.101 0 0zm0.7613 0.3897c3.5245 1.6536-1.7613 1.2424 0 0zm1.0303 0.583c3.2492 1.8712-2.256 0.84628 0 0zm0.771 0.4568c2.1006 1.4046-2.3307 0.60617 0 0zm0.3115 0.1923c2.5273 1.3882-2.211 0.74055 0 0zm0.4743 0.2426c2.4088 1.2526-2.0755 0.80559 0 0zm0.4535 0.2244c1.7711 0.95296-2.3083 0.782 0 0zm0.1645 0.0942c0.86181 1.4563-1.7525 0.16685 0 0zm-0.1349-0.0256c1.3308 0.95503-1.3864 0.89886 0 0zm2e-3 -0.0126c1.3341 1.0491-1.6991 0.75867 0 0zm-0.2622-0.1187c1.8496 1.1721-1.91 0.72534 0 0zm-0.4411-0.2287c2.347 1.3069-2.0526 0.77911 0 0zm-0.5184-0.2953c2.5527 1.4957-2.1208 0.75211 0 0zm-0.4551-0.2625c2.4252 1.4744-2.172 0.67967 0 0zm-0.3477-0.1926c2.0757 1.301-2.066 0.7532 0 0zm-0.3873-0.2105c1.9333 1.2289-1.7692 0.71173 0 0zm-0.4117-0.2311c2.4387 1.4764-2.269 0.67542 0 0zm-0.6035-0.3139c2.8375 1.6519-2.0545 0.74787 0 0zm-0.5037-0.22c2.039 0.91676-1.212 1.036 0 0zm-0.059-0.012c1.1031 0.9687-1.2066 0.54554 0 0zm0.0996 0.041c0.52834 1.2753-1.2776-0.15516 0 0zm-0.0635-0.0303c1.0767 0.89961-1.2012 0.46926 0 0zm0.1032 0.0339c1.6436 0.908-1.212 0.77784 0 0zm0.383 0.1976c1.8835 1.2166-1.4789 0.66081 0 0zm0.4372 0.2581c2.0927 1.2531-1.5524 0.76065 0 0zm0.4968 0.2771c1.9388 1.1769-1.6263 0.78163 0 0zm0.4483 0.2452c2.4339 1.3154-1.7227 0.8434 0 0zm0.6179 0.3647c2.8856 1.7502-2.0877 0.7172 0 0zm0.673 0.4219c1.7059 1.3142-1.7231 0.59819 0 0zm0.3707 0.2448c1.8072 1.3471-2.0163 0.5883 0 0zm0.2697 0.1583c1.5287 1.1607-1.6724 0.57931 0 0zm0.2406 0.1218c1.3577 0.92177-1.9434 0.75972 0 0zm-0.2685 0.1014c1.3576-0.58983-0.23897 1.9207 0 0z"/><path d="m189.18 382.29c2.322-0.687-0.73789 1.4665 0 0zm-0.3167 0.1188c2.0242-0.42727-0.93445 1.6206 0 0zm-0.1579 0.0316c1.8907 0.36976-1.2538 1.3482 0 0zm-0.3151 0.297c1.002-1.1558 0.6865 1.501 0 0zm0.3048-0.2961c2.2392 0.0558-1.1094 1.8265 0 0zm0.1942-0.0477c2.5337-0.0151-1.0947 1.8511 0 0zm0.343-0.0744c2.6333-0.1629-1.2203 1.9142 0 0zm0.3381-0.0976c3.0905-0.32285-1.339 2.2453 0 0zm0.2951-0.1129c2.5034-0.0912-1.115 2.125 0 0zm-0.1428 0.2902c1.3952-1.5097 0.7433 1.7942 0 0zm0.1617-0.3007c2.1791-0.095-0.8757 1.9473 0 0zm-0.3571 0.1981c2.481-0.86991-0.47292 2.139 0 0zm-0.3769 0.1884c2.2243-0.91885-0.34669 2.0853 0 0zm-0.3105 0.0979c2.1648-0.25198-0.88957 1.7641 0 0zm-0.2508 0.0541c2.2163 0.23974-1.3156 1.5953 0 0zm-0.0967 0.0206c2.0648 0.48664-1.4029 1.5268 0 0zm-0.1801 0.0891c1.6748-0.36163-0.31863 1.9184 0 0zm0.238-0.0954c1.9272 0.6466-1.4649 1.4835 0 0zm0.0874-6e-3c2.571 0.25422-1.5732 1.8461 0 0zm0.1882-0.0444c2.9094-0.49524-1.0024 2.1476 0 0zm0.4546-0.1436c3.2789-0.60994-1.283 2.4458 0 0zm0.423-0.1541c2.674-0.23943-1.1415 2.0414 0 0zm0.1969-0.0899c2.5588-0.14187-1.0264 2.1042 0 0zm-0.0976 0.1633c1.6705-1.2399 0.47395 2.1966 0 0zm0.1355-0.188c2.1848-0.0778-0.85244 1.9042 0 0zm-0.2606 0.161c2.2594-0.75637-0.4176 2.0502 0 0zm-0.2547 0.1473c2.4348-0.88347-0.59474 2.2403 0 0zm-0.4007 0.1624c2.1876-0.7853-0.43346 1.9984 0 0zm-0.5349 0.2114c2.9745-0.70519-1.0435 2.0658 0 0zm-0.2773 0.1218c2.4646-0.67871-1.0795 2.2292 0 0zm-0.2791 0.3755c0.72072-1.387 1.1276 1.4295 0 0zm0.2559-0.3657c2.102-0.26321-0.76423 1.8801 0 0zm0.1679-0.0758c3.1996-1.295-0.6219 2.3716 0 0zm0.6277-0.3025c3.9866-2.3535-0.85065 2.982 0 0zm0.829-0.3971c2.4723-0.59564-0.83631 2.325 0 0zm-0.0699 0.0361c2.8247-0.94274-0.67893 2.2245 0 0zm-0.4571 0.276c2.189-1.3101 0.0113 2.0724 0 0zm-0.4532 0.2269c2.2841-0.9171-0.50136 1.9886 0 0zm-0.3612 0.2023c1.9787-0.69802-0.37959 1.8133 0 0zm0 0c1.9138-0.14397-0.79243 1.6159 0 0zm0.1037-0.0294c2.2236-0.12819-0.93175 1.864 0 0zm0.2026-0.0711c3.0737-0.77821-0.851 2.2623 0 0zm0.5327-0.1981c3.408-0.79-1.185 2.4554 0 0zm0.5179-0.2043c2.7777-0.41417-1.1016 2.1562 0 0zm0.2295-0.1161c2.7663-0.62958-1.0749 2.4638 0 0zm0.041 0.0187c2.0096-0.94614-0.0145 2.2393 0 0zm-0.0797-0.0374c2.2283-0.6467-0.52633 1.9496 0 0zm-0.3742 0.1677c2.8354-0.78135-1.0054 2.1828 0 0zm-0.3632 0.0894c2.96-0.21582-1.6542 1.9246 0 0zm-0.3686 0.0742c2.0399-0.29117-0.71901 1.8176 0 0zm-0.0393 0.0174c1.9956 0.1892-1.0229 1.6667 0 0zm0.2338-0.0293c1.5026 1.0929-1.794 0.99021 0 0zm-0.0823-3e-3c1.8996 0.53702-1.3334 1.3897 0 0zm0.1379-0.01c2.2474 0.34447-1.3602 1.5772 0 0zm0.1595-0.0285c2.5413-0.25427-1.0432 1.9896 0 0zm0.3044-0.0984c3.4584-1.2532-1.2509 2.7213 0 0zm0.4548-0.2208c3.5477-1.5976-0.83088 2.7416 0 0zm0.6028-0.3539c2.7012-0.79092-0.82422 2.1725 0 0z"/><path d="m199.21 379.75c0.81122 1.1392-1.351 0.0866 0 0zm0.0498 0.0335c0.24874 1.5157-1.7041-0.376 0 0zm-0.7004 0.2243c0.99881-1.4026 0.99881 1.4026 0 0zm0.2562-0.367c2.1276 0.0359-0.86101 1.7834 0 0zm0.1229-0.0451c2.3659-0.10026-0.92078 1.8326 0 0zm0.3108-0.087c2.8747 0.13169-1.571 1.8732 0 0zm0.255-0.0706c2.4808 0.0604-1.2429 1.9127 0 0zm-0.0754 0.1883c1.6693-1.1952 0.37316 2.0345 0 0zm0.1107-0.2107c2.1934 0.0667-1.0902 1.8112 0 0zm-0.2993 0.0801c2.605-0.19074-1.1438 2.0439 0 0zm-0.2356 0.0535c2.5541 0.20106-1.402 1.6693 0 0zm-0.214 0.045c2.2668-0.0622-1.3869 1.8535 0 0zm-0.3603 0.405c1.2536-1.8859 0.77539 1.7899 0 0zm0.3801-0.4008c1.7322 0.82904-1.3922 1.1234 0 0zm0.0528-3e-3c2.2788 0.6861-1.5745 1.492 0 0zm0.1811-0.0124c3.1675 0.0664-1.7777 1.9522 0 0zm0.3467-0.0862c2.8548-0.27742-1.2754 2.0991 0 0zm0.4002-0.1173c2.1922 0.64903-1.5222 1.539 0 0zm-0.2321 0.1972c1.713-0.82625 0.12771 1.8732 0 0zm0.0401-0.0816c2.0152-0.38533-0.56724 1.9377 0 0zm-0.4235 0.2082c2.6827-1.0033-0.54595 2.1608 0 0zm-0.5968 0.2561c3.434-1.3038-1.0225 2.462 0 0zm-0.3142 0.1224c2.3499-0.83956-0.81635 2.3112 0 0zm-0.0541 0.0242c1.8965 0.095-0.93916 1.7458 0 0zm0.2011-0.0313c1.162 1.1794-1.3841 0.64994 0 0zm-0.1162 7e-3c2.1126 0.68688-1.2242 1.3672 0 0zm0.1016-0.0214c2.7634-0.48232-1.0237 1.9485 0 0zm0.4157-0.1524c3.5396-1.3106-1.0459 2.6007 0 0zm0.5996-0.2363c2.6158-0.1975-1.1616 2.064 0 0zm0.2729-0.1067c1.7105 0.52486-1.167 1.3528 0 0zm-0.2382 0.1392c2.0415-0.48774-0.49947 1.9299 0 0zm-0.3003 0.1414c2.6296-0.82024-0.73445 2.2328 0 0zm-0.3735 0.1418c2.182-0.6458-0.46836 1.9196 0 0zm-0.2904 0.0973c2.297-0.65486-0.97705 2.2087 0 0zm-0.2783 0.1038c1.9801-0.38382-0.67167 1.7307 0 0zm-0.2024 0.1038c1.8261-0.78291-0.42002 2.2457 0 0zm0 0c1.5249-0.2229-0.54772 1.6474 0 0zm0.1783-0.0455c2.2374 0.1345-1.1579 1.6202 0 0zm0.1822-0.0531c2.9958-0.60216-0.88993 2.1326 0 0zm0.5459-0.1633c3.2855-0.45711-1.3344 2.237 0 0zm0.5088-0.1495c2.9514-0.35671-1.2892 2.2151 0 0zm0.3639-0.1256c3.0226-0.50578-1.2111 2.2896 0 0zm0.3992-0.1515c2.6827-0.32315-1.1462 2.2021 0 0zm0.3133-0.114c2.4241 0.12187-1.2998 1.9656 0 0zm0.2172-0.058c2.244 0.52493-1.5104 1.7029 0 0zm0.3789 0.0132c1.1869 1.7665-2.0966 0.28409 0 0zm-0.5437 0.1387c1.9148-0.611-0.2545 1.9414 0 0zm-0.0589 0.0283c2.1245-0.42437-0.64322 1.8817 0 0zm-0.2182 0.0915c1.9768-0.47458-0.58622 1.8987 0 0zm-0.6653 0.1704c3.4142-0.66724-1.1786 2.1136 0 0zm-0.6635 0.153c2.8152-0.58896-0.80141 1.9105 0 0zm-0.3457 0.0842c2.483-0.53293-1.173 2.1498 0 0zm-0.2969 0.0808c2.3694-0.60872-1.1698 2.274 0 0zm-0.3647 0.3341c1.7499-1.4402 0.37077 1.7252 0 0zm0.3945-0.3219c1.6361 0.76237-1.403 1.1632 0 0zm0.0706 5e-4c1.9288 0.58643-1.4379 1.3129 0 0zm0.0619-0.0139c2.5044-0.39747-0.97109 1.9628 0 0zm0.3412-0.1164c3.0029-0.76186-0.80171 2.1986 0 0zm0.5695-0.1915c3.7278-0.73415-1.4528 2.4027 0 0zm0.623-0.1715c3.3988-0.30906-1.4868 2.2051 0 0zm0.5591-0.1294c2.9474 0.0628-1.5788 2.0124 0 0zm0.3621-0.0757c3.1366-0.1277-1.5435 2.1011 0 0zm0.4856-0.0837c2.9914 0.14924-1.6526 1.9236 0 0zm0.3847-0.0608c2.5846 0.15555-1.4346 1.9029 0 0zm0.2916-0.0563c2.3894 0.42727-1.5283 1.7446 0 0zm0.2538-0.0242c2.2214 0.92789-1.7461 1.3474 0 0zm0.2687 0.0115c1.4083 1.5924-1.9819 0.52757 0 0zm-0.409 0.0978c2.0412-0.16124-0.69671 1.7451 0 0zm-0.2724 0.0234c2.437-0.24549-0.93089 1.8606 0 0zm-0.6417 0.0847c3.3463-0.26975-1.4199 1.964 0 0zm-0.4369 0.0452c2.6883-0.1057-1.407 1.8768 0 0zm-0.3835 0.042c2.5918-0.29555-1.3656 2.0191 0 0zm-0.2643 0.0672c2.2209-0.52364-1.0988 2.1682 0 0zm-0.4101 0.14c2.6363-0.82626-1.0301 2.2218 0 0zm-0.4956 0.1515c2.7718-0.72405-0.99748 2.0836 0 0zm-0.4346 0.1216c2.1278-0.43116-0.63815 1.752 0 0zm-0.2059 0.057c1.8565 0.01-0.9326 1.4928 0 0zm-0.292 0.0736c2.0942-0.357-0.9435 1.8844 0 0zm-0.2408 0.0765c1.7727-0.18124-0.68603 1.5799 0 0zm-0.2502 0.1781c1.5538-1.1164 0.10406 1.9653 0 0zm1e-4 -1e-4c1.323-0.56894 0.0443 1.4613 0 0zm0.3072-0.1373c2.0833 0.16466-1.1289 1.3988 0 0zm0.1851-0.0656c2.8447-0.87245-1.0084 2.2344 0 0zm0.4651-0.1598c2.1163-0.54131-0.58869 1.9439 0 0zm0.3673-0.1203c2.2036-0.46376-0.8387 1.852 0 0zm0.3441-0.1074c3.1021-0.57842-1.2869 2.056 0 0zm0.5648-0.1447c3.1734-0.51066-1.2982 2.0778 0 0zm0.5165-0.1357c2.4849-0.41527-0.85135 1.8885 0 0zm0.4316-0.1159c2.3297-0.41007-0.92478 1.8746 0 0zm0.4339-0.1018c2.2234-0.20948-1.0605 1.6621 0 0zm0.4443-0.0736c2.7061 0.12478-1.5353 1.7652 0 0zm0.3241-0.0491c2.3537-0.12243-1.0405 1.78 0 0zm0.3183-0.0731c2.2667 0.0695-1.1849 1.5997 0 0zm0.1482-0.049c2.1716-0.0444-0.98387 1.7812 0 0zm-0.0716 0.0993c1.5028-0.71436 8e-3 1.692 0 0zm0.0343-0.0844c1.727-0.28681-0.53154 1.7424 0 0zm-0.1992 0.0743c2.1914-0.32162-0.92809 1.9169 0 0zm-0.2762 0.0579c1.9376-0.0371-0.92616 1.5272 0 0zm-0.3529 0.0479c2.3689-0.14298-1.3105 1.7804 0 0zm-0.6076 0.1084c2.9799-0.51912-1.1948 1.9369 0 0zm-0.5568 0.1185c2.8512-0.55128-1.0758 1.96 0 0zm-0.2568 0.0423c2.2046 0.0269-1.2947 1.7006 0 0zm-0.4205 0.2981c1.8033-1.4874 0.28281 1.5307 0 0zm0.3337-0.2878c1.7453 0.8177-1.4441 1.0755 0 0zm0.0814-2e-3c2.2542 0.81108-1.6695 1.181 0 0zm0.1347-0.0134c2.8811-0.20041-1.5117 2.0251 0 0zm0.3862-0.0549c2.328-0.15645-1.1106 1.7816 0 0zm0.3969-0.0612c2.861-0.11228-1.4542 1.9571 0 0zm0.376-0.079c2.8689-0.16718-1.4543 1.947 0 0zm0.4034-0.079c2.4559 0.44198-1.5508 1.6008 0 0zm0.2711-0.022c1.98 0.27455-1.3562 1.5405 0 0zm0.0998-8e-3c2.1596 0.27933-1.2242 1.7227 0 0zm0.3062-0.0381c1.2324 1.1921-1.6721 0.67503 0 0zm-0.244-0.0106c1.876 0.64055-1.4312 1.3591 0 0zm-0.3281 0.0424c2.2102 0.12489-1.0664 1.6443 0 0zm-0.4016 0.0696c3.0014-0.4293-1.5525 2.1396 0 0zm-0.4698 0.0678c2.1047-0.2822-0.89486 1.787 0 0zm-0.4021 0.0494c2.5926-0.13747-1.3393 1.9296 0 0zm-0.4497 0.0735c2.8288-0.44538-1.3332 2.0914 0 0zm-0.37 0.1316c2.4314-0.99067-0.79405 2.2908 0 0zm-0.1852 0.1167c1.7504-1.1233-0.25735 2.3768 0 0zm-0.1342 0.277c0.99846-1.3404 1.0109 1.4022 0 0zm0.4355-0.3584c2.3256 0.24788-1.3338 1.6994 0 0zm0.2284-0.0268c2.3685-0.0414-1.1406 1.7178 0 0zm0.2968-0.0668c2.8692-0.54574-0.92053 2.0214 0 0zm0.5259-0.1476c3.3638-0.51479-1.3196 2.1294 0 0zm0.5843-0.1592c3.3547-0.58164-1.464 2.1842 0 0zm0.5193-0.13c2.7742-0.16297-1.539 1.9983 0 0zm0.3884-0.0772c1.6632 0.8197-1.3884 1.1196 0 0zm-0.2633 0.1831c1.7007-0.68132-0.0836 1.8394 0 0zm0.0339-0.0352c1.6983-0.24269-0.5966 1.6535 0 0zm-0.1829 0.0224c2.458 0.0897-1.4823 1.7637 0 0zm-0.456 0.0611c2.5804-0.26239-1.1791 1.8793 0 0zm-0.3321 0.0667c2.2953-0.28451-1.0864 1.916 0 0zm-0.2527 0.0412c1.9593 0.12101-1.0767 1.5112 0 0zm-0.3413 0.0442c2.376-0.13337-1.3404 1.883 0 0zm-0.1745 0.0249c1.9571 0.23033-1.3099 1.6917 0 0zm-0.0263 5e-3c1.7165 0.77584-1.3038 1.0679 0 0zm0.0262-5e-3c2.1644 0.70245-1.3207 1.3724 0 0zm0.1213-0.0161c2.95-0.33943-1.1637 1.9254 0 0zm0.4814-0.1322c3.797-0.91213-0.96461 2.3417 0 0zm0.8716-0.2206c3.4486-0.21122-1.5781 2.1341 0 0zm0.5851-0.11c2.1334 0.61572-1.501 1.6152 0 0z"/><path d="m201.1 379.35c1.8742 0.01-0.93883 1.3106 0 0zm-0.2925 0.1885c1.2258-0.70721 0.0687 1.1664 0 0zm-0.0663 0.025c1.6794-0.16664-0.91641 1.1495 0 0zm-0.3279 0.1613c0.9193-0.82608 0.61265 1.5334 0 0zm0.2318-0.1509c1.7798 0.22098-1.052 1.3497 0 0zm0.1847-0.0236c2.2275 0.0129-1.1544 1.6114 0 0zm0.3274-0.0384c2.1933-0.12388-0.96651 1.637 0 0zm0.418-0.0656c2.6639-0.40326-1.3398 1.9932 0 0zm0.4125-0.0658c1.8467 0.29895-1.3651 1.608 0 0zm0.1393-0.0135c1.5043 0.64599-1.2531 0.9419 0 0zm-0.168 0.0419c1.8902 0.412-1.1142 1.4516 0 0zm-0.2157 0.041c2.3085 0.30858-1.5021 1.5984 0 0zm-0.3034 0.035c2.8579-0.0446-1.9258 1.8358 0 0zm-0.3148 0.0217c2.1408 0.14357-1.2782 1.6042 0 0zm-0.2879 0.0337c2.2987 5e-3 -1.1719 1.8959 0 0zm-0.3157 0.156c2.0438-0.99274-0.34935 2.0728 0 0zm-0.1095 0.279c0.9947-1.3764 1.2344 1.4055 0 0zm0.6057-0.3469c2.2562 0.32971-1.5361 1.5054 0 0zm0.3014 3e-3c2.2727-0.11249-1.3788 1.845 0 0zm0.2816-0.0401c2.1337-0.099-1.1487 1.781 0 0zm0.2674-0.046c1.6537 0.46455-1.155 1.377 0 0zm0.1771-0.0171c1.1856 0.95023-1.4196 0.76021 0 0zm-0.162 9e-3c1.7353 0.52048-1.3607 1.3515 0 0zm-0.3361 0.0428c2.3862-0.18137-1.34 1.8253 0 0zm-0.4677 0.0524c2.675-0.1976-1.3622 1.7924 0 0zm-0.3923 0.0268c2.4605 7.9e-4 -1.3535 1.7073 0 0zm-0.1975 8e-3c1.9657 0.16345-1.4338 1.646 0 0zm0.0377 5e-4c1.2878 1.0878-1.361 0.79263 0 0zm-4e-3 2e-4c2.5099 0.15235-1.5216 1.5652 0 0zm0.4271 0.01c2.3963 0.0413-1.0817 1.5254 0 0zm0.5333-8e-3c1.8368-0.12755-0.81137 1.5758 0 0zm0.3231-0.0599c2.2716-0.34552-1.0222 1.8727 0 0zm0.3499-0.0751c2.2707-0.23225-1.3003 1.9172 0 0zm0.2926-0.0374c1.8889 0.21445-1.3541 1.6541 0 0zm0.1476-0.0148c1.5187 0.95198-1.2623 0.98502 0 0zm-0.3095 0.0312c2.2826-0.0282-1.3787 1.7841 0 0zm-0.5342 0.0676c2.8071-0.29865-1.223 1.9123 0 0zm-0.4518 0.0692c2.8256-0.34969-1.4046 2.0117 0 0zm-0.4595 0.0658c2.6632-0.25801-1.2332 1.8905 0 0zm-0.3538 0.0367c2.487-0.0292-1.4244 1.7827 0 0zm-0.1713 9e-3c1.8919 0.2282-1.4113 1.6116 0 0zm0.0714 3e-3c1.2206 1.3613-1.429 0.5112 0 0zm-0.0903-9e-4c2.1276 0.15169-1.2915 1.6138 0 0zm0.3058-6e-4c2.441 0.11893-1.4857 1.5899 0 0zm0.3973-5e-3c2.5157-0.27106-0.96222 1.6368 0 0zm0.6096-0.0754c3.3382-0.51807-1.0817 1.8164 0 0zm0.8133-0.109c2.0302-0.0704-0.8895 1.4907 0 0zm0.4334-0.0426c1.6259 0.50843-1.3387 1.2773 0 0zm-0.0756 0.0514c1.6307 0.13552-0.66704 1.3069 0 0zm0.1326-0.0607c1.4463 0.97883-1.3212 0.82696 0 0zm-0.4077 0.0302c2.3505-0.0647-1.2563 1.7059 0 0zm-0.4183 0.0453c2.4842-0.14101-1.2456 1.7454 0 0zm-0.3607 0.0255c2.4116-1e-3 -1.3271 1.713 0 0zm-0.6332 0.0206c3.1414 0.0635-1.4388 1.61 0 0zm-0.618 0.0442c2.9683-0.11322-1.1292 1.61 0 0zm-0.351 0.0776c2.2348-0.40511-0.96035 1.6752 0 0zm-0.2695 0.0678c1.8558-0.38589-0.76775 1.6496 0 0zm-0.0492 0.0165c1.6303 0.47585-0.97986 0.97717 0 0zm-0.2085 0.2326c0.86025-0.98492 0.71885 1.2458 0 0zm0.3342-0.2467c1.848 0.0988-1.3113 1.5032 0 0zm0.2051-7e-3c2.8517-0.22899-1.2422 1.6239 0 0zm0.6007-0.0512c3.061-0.35118-1.1969 1.6582 0 0zm0.6888-0.074c1.9743-0.10086-0.82925 1.4332 0 0zm0.4214-0.0469c2.4604-0.16482-1.3029 1.628 0 0zm0.4019-0.0315c1.8976 0.0346-1.2941 1.5568 0 0zm3e-3 0.0886c1.2051-0.4226-0.1804 1.3036 0 0zm-0.0878-0.0394c1.9263-0.0598-1.0044 1.5904 0 0zm-0.3985 0.078c2.4434-0.35117-1.2114 1.9139 0 0zm-0.3722 0.0571c2.458-0.18009-1.2478 1.8723 0 0zm-0.6168 0.0716c3.0525-0.30882-1.262 1.8791 0 0zm-0.6177 0.0899c3.0637-0.27883-1.1027 1.7698 0 0zm-0.3769 0.1719c2.0863-1.0303-0.27142 1.7417 0 0zm-1e-4 1e-4c1.5878-0.33993-0.28262 1.447 0 0zm0.3295-0.0597c2.5219-0.0188-1.2602 1.4378 0 0zm0.4378-0.0728c3.2764-1.3627-0.69222 2.1224 0 0zm0.927-0.1721c2.6255-0.50665-0.67505 1.6776 0 1e-4zm0.7291-0.1098c1.5295 0.0715-0.84672 1.3502 0 0zm0.106-0.0288c1.5897 0.5511-1.3818 1.2332 0 0zm-0.4482 0.0678c2.4262-0.36178-1.1456 1.7774 0 0zm-0.4568 0.0897c2.6073-0.40712-1.2124 1.861 0 0zm-0.3546 0.048c2.3424-0.13469-1.2272 1.7734 0 0zm-0.3139 0.0283c2.2415 0.0257-1.2907 1.6782 0 0zm-0.1697 0.0119c1.8589 0.19063-1.3506 1.592 0 0zm-0.286 0.1886c1.4402-0.72648 5e-3 1.412 0 0zm0.3777-0.1802c1.3714 1.1414-1.4716 0.56982 0 0zm0.1093 0.0229c1.7436 0.67426-1.4596 0.96446 0 0zm0.1586 4e-4c2.4931-0.21056-1.1699 1.6141 0 0zm0.4189-0.0631c2.1264-0.24488-0.77336 1.5538 0 0zm0.4626-0.0789c2.1738-0.28773-0.77223 1.6116 0 0zm0.4631-0.091c2.3148-0.2695-1.0108 1.7864 0 0zm0.3128-0.0733c1.7471 0.0463-0.89779 1.6569 0 0zm0.2878-0.0464c1.1863 0.98776-1.5417 0.66724 0 0zm-0.23 1e-3c1.616 0.54395-1.1396 1.088 0 0zm-0.2638 0.0483c2.0715-0.37883-1.0747 1.8374 0 0zm-0.4175 0.1294c1.9672-0.48967-0.58143 1.6436 0 0zm-0.5116 0.1531c2.6886-0.74212-1.007 1.9621 0 0zm-0.3993 0.0843c2.4664-0.35093-1.1284 1.8452 0 0zm-0.2958 0.039c2.23-0.0947-1.2406 1.79 0 0zm-0.3039 0.0616c2.1484-0.37018-1.006 1.9112 0 0zm-0.2808 0.09c2.1286-0.64426-0.9005 2.0563 0 0zm-0.3271 0.0981c2.314-0.50452-0.93388 1.9581 0 0zm-0.4798 0.1042c2.3774-0.33798-0.83228 1.6311 0 0zm-0.4038 0.07c2.5355-0.3647-1.2144 1.8383 0 0zm-0.4393 0.0987c2.6418-0.57298-1.1666 1.9274 0 0zm-0.4128 0.0842c2.4653-0.35133-1.135 1.7992 0 0zm-0.3161 0.0195c2.2867 0.0707-1.3602 1.6455 0 0zm-0.33 0.0108c1.84 0.16664-1.0058 1.3852 0 0zm-0.2978 0.0525c2.1233-0.35613-1.0496 1.7989 0 0zm-0.1761 0.0524c1.7691-0.27144-0.8119 1.7242 0 0zm-0.4488 0.1358c2.2332-0.77608-0.36452 1.7745 0 0z"/></g><g fill="#55e1ff"><path d="m213.32 373.92c0.83713 1.8027-1.5326-0.44049 0 0zm0.1125-1.6509c0.82962 4.1906-1.6619 1.1006 0 0z"/><path d="m213.28 365.88c0.98024 5.8233-2.3492 0.62553-0.18159-0.37901l0.17749 0.30171 4e-3 0.0773z"/><path d="m213.02 359.22c1.5618 5.4216-1.8716 1.5062 0 0z"/><path d="m213.44 352.67c0.8583 5.7808-2.3048 0.64397-0.14995-0.34878l0.14925 0.28978z"/><path d="m212.35 348.97c1.04-3.1237 1.2037 2.2646 0 0zm0.0361-2.251c2.3631 0.18661-0.70669 4.7822 0 0z"/><path d="m212.55 340.11c1.8734 0.48885-0.94756 6.8529-0.13673 1.0498z"/><path d="m212.62 332.04c1.6719 2.0204-0.52946 6.0101 0 0z"/><path d="m212.75 325.58c1.2897 4.6565-1.3256 2.0251 0 0z"/><path d="m212.67 319.53c0.56532 4.581-1.4028 2.8149-0.3536-0.3404l0.3531 0.3154z"/><path d="m211.61 311.01c2.9348 0.85121-1.339 5.5108 0 0z"/><path d="m212.24 305.59c0.64352 4.5724-1.4447 2.6724-0.404-0.3729l0.4025 0.3351 1e-3 0.0378z"/><path d="m213.17 375.91c1.7317-0.61198-0.74506 3.0087 0 0z"/><path d="m213.39 380.67c0.79053-0.80107 0.27957 1.1311 0 0zm0.4326 0.1932c-0.96202 0.62833-0.0181-1.2926 0 0zm0.1089-0.3303c-0.76718 1.6159-0.79655-1.5786 0 0zm-0.483-1.0345c2.4642 0.21686-1.3579 2.6015 0 0z"/></g></g></svg>
