<?xml version="1.0" encoding="UTF-8"?>
<svg width="377.39" height="210.86" version="1.1" viewBox="0 0 377.39 210.86" xml:space="preserve" xmlns="http://www.w3.org/2000/svg" xmlns:cc="http://creativecommons.org/ns#" xmlns:dc="http://purl.org/dc/elements/1.1/" xmlns:rdf="http://www.w3.org/1999/02/22-rdf-syntax-ns#"><metadata><rdf:RDF><cc:Work rdf:about=""><dc:format>image/svg+xml</dc:format><dc:type rdf:resource="http://purl.org/dc/dcmitype/StillImage"/><dc:title/></cc:Work></rdf:RDF></metadata><g transform="matrix(1.3333 0 0 -1.3333 -71.298 626.46)"><g transform="matrix(.54545 0 0 -.54545 -57.719 589.34)" fill="none" stroke="#000" stroke-linecap="round" stroke-linejoin="round" stroke-miterlimit="10" stroke-width="1.8189"><path d="m348.48 236.99v271.1"/><path d="m204.76 376.5h315.08"/></g><g transform="matrix(.54545 0 0 -.54545 -54.378 589.34)"><path d="m442.24 372.48c1.5758 51.295-44.281 97.613-95.59 96.549-51.295 1.5758-97.613-44.281-96.549-95.59-1.5758-51.295 44.281-97.613 95.59-96.549 51.724-1.2494 97.279 43.825 96.549 95.59z" fill="none" stroke="#000" stroke-miterlimit="10" stroke-width="1.8189"/></g><g><path d="m131.33 458.63c3.9192 4.4768-2.6832-0.46297 0 0zm-1.1335-0.8075c1.9215-1.059 0.71091 3.4749 0 0zm0.7272 5e-3c1.3891 3.0311-2.2027-0.30773-4e-4 0zm0.3491 0.8455c2.2557 4.5271-2.6816-0.63512 0 0zm0.5505 1.2096c1.9573 3.1167-2.4381-0.0849 0 0zm0.4926 0.8353c1.88 2.1648-2.3666 0.0104 0 0zm-0.2455 0.2323c1.623-5.2815 1.4605 2.9518 0 0zm0.2379-1.2429c1.694-7.2217 2.7177 1.6383 0 0z"/><path d="m136.75 469.24c0.32308-2.0493 1.209 1.3574 0 0zm6e-3 -0.0448c1.3034 0.34589-0.60205 0.52409 5e-4 0zm0 0c0.39039-2.9776 1.5451 1.0794 0 0zm0.1087-0.7868c0.79793-4.129 2.3115 1.1714 0 0zm0.5393-1.4479c2.8541-2.978 0.82471 2.551 1e-4 0zm1.0247-0.8424c4.7555-0.48694-1.4834 2.6091 0 0zm1.1463-0.0924c3.4511 1.7019-2.191 1.6734 0 0zm1.0059 0.8359c0.90221 4.5348-2.5795-0.80087-0.0176-0.0539zm0.0947 1.4903c-0.022 4.4331-2.2231-1.9361 0 0zm-0.8968 0.8761c2.0577-1.3582 0.18346 2.0483 0 0zm-0.0137 0.0738c-0.85796-5.305 3.367 1.4704 0 0zm0.1595-1.5783c-0.27637-7.6465 3.2433 0.0913 0 0zm0.2304-2.8548c-0.63369-7.7062 3.2349 2.3821 0 0zm1.1571-4.4578c1.3303 7.2703-3.3458-2.0458 0 0zm-0.5571-1.8217c3.8775 6.2064-3.6253-0.183 0 0zm-1.0844-0.6065c3.4164 1.2655-1.4064 2.1529 0 0zm-0.9153 0.4744c4.2108-2.1711-0.49972 2.495 0 0zm-0.5515 0.9592c1.6614-3.3371 1.3164 1.8656 0 0zm-0.4234 1.5415c0.69928-4.7011 1.9484 1.3111 0 0zm0 0c2.1294-0.80747-0.80126 4.2449 0 0zm0.6976 1.3656c2.2784 2.9307-2.371-0.37029 0 0zm0.4102 0.3922c11.687 0.38479 0.40962 2.8888 0 0z"/><path d="m221.68 386.84c2.1071 0.11713-0.82204 1.5309 0 0zm-5e-3 4e-3c2.7701-2.1622 0.28001 2.3778 0 0zm0.67-0.4825c4.1558-4.2612 1.7934 3.6664 0 0zm1.8836-1.0337c4.7672-3.3699 0.90232 3.1118 0 0zm1.6-0.8768c3.072-2.8596 8e-3 3.5462 0 0zm-0.2403-1.2998c5.7768 2.2997-3.0844 1.8132 0 0zm-1.6122-0.4793c5.6316 1.504-2.6902 1.9589 5e-4 1e-4zm-0.8536-0.6715c3.4521 2.3642-2.2859 1.3007 0 0z"/><path d="m224.36 376.78c1.667 2.7648-1.6363-0.36504 0 0zm0.4351 0.7041c3.982 1.7399-1.6233 1.3467 0 0zm1.1987 0.6436c4.3166 0.64829-1.5645 1.819 0 0zm1.1742 0.2249c3.7003-1.5299-1.0924 2.5568 0 0zm0.4409-0.2678c0.87857-4.6295 2.1944 2.6427 0 0zm0.5477-2.882c2.6394 5.3052-3.0342-0.21698 0 0zm-0.9234-1.3326c3.6149 4.757-3.1831 0.21354 0 0zm-0.3392-0.3366c2.282 2.5294-3.2179 0.13631 0 0zm-0.852 0.1356c2.0622-1.0546 0.13346 2.0716 0 0zm0.9505 0.1656c-0.62492 2.4279-1.6463-1.7267 0 0zm0.0101 0.1898c7.0089 7.4893-3.6265-0.75205 0 0zm1.6545 2.2044c6.5113 5.9454-2.6828 1.8095 0 0zm2.0908 2.5764c2.1646 2.9692-2.8108-0.0171 0 0zm0.4858 0.5826c-0.0992 2.0932-1.9944-0.89839 0 0zm-0.3259-0.6676c1.6356 3.5465-3.0822-0.82276 0 0zm-0.4525-1.3628c2.1467 4.9812-3.4304-1.647 0 0zm-0.1704-1.4758c1.3531 5.4729-3.2452-2.319 0 0zm-0.7721-1.4437c2.9515-0.0604-1.7615 4.0956 0 0zm0 0c5.2528-2.4233-0.96672 3.3492 0 0zm1.0112-0.5642c7.1565 2.6974-1.8854 2.1767 0 0z"/><path d="m190.2 379.08c5.8063-0.9214-0.0443 2.9049 0 0zm1.5749 0.0321c0.97645-3.7212 1.7249 2.4204 0 0zm0.2353-2.8015c6.0383 8.0846-4.1927-0.80341 0 0zm-0.9442-2.0009c3.4214 6.0464-3.1872 0.24732 0 0zm-0.5662-1.2948c2.2418 1.2104-1.991 2.7378 0 0zm-6e-3 3e-3c8.6974-1.4538 0.77616 2.7439 0 0z"/><path d="m189.32 375.82c10.651 0.24596 4.423 2.2421 0 0z"/><path d="m66.828 376.84c4.8104-1.946 0.10966 3.5774 0 0zm1.8353-0.2055c6.7637-0.87082-1.0173 2.5813 0 0z"/><path d="m75.407 379.58c3.3171 1.0882-1.626 1.1797 0 0zm0.82354 0.2425c4.0877-0.52826-1.5279 2.3302 0 0zm0.42367 6e-3c2.2235-4.3098 0.63808 3.7628 0 0zm1.06-1.3073c0.36054 5.1736-2.6191-2.5987 0 0zm-0.617-1.6503c2.5205 5.7452-3.5125-1.0543 0 0zm-0.67473-1.6345c2.8137 5.5254-3.4783-0.82555 0 0zm-0.2165-0.931c0.81827 5.2542-3.0526-2.109 0 0zm-0.62328-1.0104c2.786-0.11853-1.9384 3.711 0 0zm-3e-5 1e-4c4.2842-1.9998 0.71526 2.4788 0 0zm1.683-0.4893c5.9724-0.0488-0.71341 2.6609-3e-5 0z"/><path d="m74.45 376.56c7.2113-0.6394 5.7787 2.4712 0 0z"/><path d="m259.68 447.38c1.6713 2.0713-1.5116 0.0359 0 0zm0.4025 0.4827c3.6067 1.4027-1.88 1.084 0 0zm0.7924 0.2922c4.3531 0.63948-1.9101 1.902 0 0zm0.9654 0.0956c4.0349-0.44281-1.2194 2.3278 0 0zm0.9571-0.129c3.5192-2.1488-0.38255 2.9924 0 0zm0.7057-0.4564c3.2971-4.5103 0.6627 3.8304 0 0zm0.4881-0.7904c1.2525-5.9116 2.2786 3.5941 0 0zm0.5707-3.0426c3.2726 7.6782-3.6868-1.1193 0 0zm-1.3382-1.3307c5.0115 4.3422-3.3008 1.2414 0 0zm0 0c1.4533 2.7486-3.9791-0.15588 0 0zm-0.1594 0.6731c1.543 4.2253-2.5856-1.5731 0 0zm0.3672 0.8298c4.5919 3.7904-2.0909 1.5718 0 0zm1.628 1.6853c5.7409 4.3362-2.7424 1.9526 0 0zm1.8312 1.9702c2.7348 3.614-2.8722 0.25541 1e-4 0zm-0.2386 1.2539c2.2393-1.6475 0.31446 3.0265 0 0zm0.2447-0.4461c3.5765 4.4521-4.174-1.1986 0 0zm-0.4101-0.8738c1.6052 4.0703-2.9407-1.3114 3e-4 0zm-0.2222-1.4753c1.7269 5.6105-3.5444-2.3023 0 0zm-1.3118-1.3176c2.9601-2.2941 0.18773 5.4282 0 0zm0 0c1.6719-4.4505 2.1343 2.362 0 0zm0.514-1.2091c4.4508-3.9618 0.54123 3.4663 0 0zm1.2205-1.0566c6.1869-1.1888-2.2063 3.4695 0 0zm1.1968-0.3339c7.7419 2.3285-3.0238 2.1515 0 0z"/><path d="m268.96 455.11c2.4881 1.8275-1.3257 0.31464 0 0zm0.6943 0.5163c3.5262 0.17082-0.71429 1.7341 0 0zm1.0178 0.1114c3.0799-0.83618-0.84766 2.1346 0 0zm0.3271-0.1397c1.6744-2.7496 0.81382 2.5129 0 0zm0.9047-1.5031c1.2923 5.6643-2.8672-1.7889 0 0zm-1.2617-1.3064c4.197 3.0629-2.8323 1.2264 0 0zm-1.0977-0.8068c4.1119 2.7204-2.5481 1.5698 0 0zm4.3657 0.0493c-3.3878 2.3339-8.0155-1.1811 0 2e-4z"/><path d="m277.11 448.26c-0.13824-2.0711 1.3799 0.95063 0 0zm0.6249-0.0449c-0.63429 1.3849-0.99387-1.238 0 0zm0.0222-1.4632c0.62372 4.3787-2.2033-1.4196 0 0zm-1.1435-2.8746c2.9794-1.8622-0.49599 7.8236 0 0zm0 0c-0.64248-6.6038 2.9114 2.3958 0 0z"/><path d="m273.47 444.98c5.4347-0.80877 10.474 1.2503 1.7905 0.64819 0.54894 0.79183-3.1889 0.0666-1.7905-0.64819z"/><path d="m285.48 449c-0.0334-3.1507 1.4859 1.4823 0 0zm2e-3 -0.1128c1.3676-1.1027 0.1438 1.475 0 0zm0 1e-4c-0.11953-3.0538 1.9944 0.88084 0 0zm0.0522-0.9305c-1.1932-5.4603 3.55 1.4427 0 0zm0.1909-1.5561c1.3214-5.0073 2.3793 1.9655 0 0zm0.6439-1.5479c3.0981-3.6693 1.2281 2.8883 0 0zm1.0749-1.0236c4.6648-3.1584-0.31853 3.9096 0 0zm1.4299-0.5328c4.8759 0.93714-1.8495 2.3503 0 0zm1.6054 0.5663c2.3709 4.5627-3.089-0.49435 0 0zm0.6071 1.4613c1.7441 5.0267-3.1764-1.5636 0 0zm-0.7881 2.4635c-0.0397-3.934 2.1938 1.552 0 0zm-0.0938 0.5796c0.91519-3.4834 1.6702 2.7088 0 0zm-0.0832 0.2037c1.6722-1.9229 0.92069 2.4468 0 0zm0.9601 0.1203c-0.48679 2.0689-2.143-1.9463 0 0zm0.0275-0.5724c-0.84935 3.6444-1.9717-2.5516 0 0zm-1.0483-1.6748c3.0468-2.0694-0.59692 5.9032 0 0zm0 0c-0.35663-6.1562 3.6274 0.94696 0.11899 0.45234l-0.11899-0.45224zm0.2108-1.9686c-1.0719-6.6774 3.9128 0.71902 0.14755 0.46732l-0.14755-0.46722zm0.7597-4.6943c2.5106 7.0156-3.8524-0.42965 0 0zm-1.2306-1.6536c4.3922 4.0497-3.0319 1.9852-0.47606-0.17201zm-1.4157-0.9547c6.1096 3.3458-3.9434 1.532 0 0zm-1.3021-0.2903c6.3081 1.8337-3.2732 2.1084 0 0zm9e-3 -2e-4c1.9746 1.9086-3.0999 2.304 0 0z"/><path d="m291.2 453.25c1.7816-0.55639 1.1814 3.1313 0 0zm1.0924 0.6211c3.93 0.18832-1.347 1.9296 0 1e-4zm1.0582 0.0671c4.3947-1.2959-1.1459 3.2089 0 0zm0.663-0.1641c2.6584-2.7043 0.15482 3.0911 0 0zm1.211-1.1626c1.909 5.0488-3.4892-0.75407 0 0zm-1.1403-1.656c4.0002 4.4969-3.3998 0.66974 0 0zm-1.0128-1.0907c4.0706 4.4949-3.6848 0.23179 0 0zm-0.1212-0.5415c2.3126 1.9804-3.247 1.5384 0 0zm0 0c8.2117-0.4826-2.5761 3.4667 0 0zm2.2599 0.0277c9.0273 0.13735-3.1655 3.0689 0 0z"/><path d="m301.12 444.82c7.786-1.815 2.5216 2.3888 0 0z"/><path d="m300.67 442c4.7096-0.79068 0.26691 2.0484 0 0zm1.7062-0.1634c7.2927-0.86776-1.3326 2.5873 0 0z"/><path d="m312.99 448.97c2.3012 0.25782-1.4604 1.4091 0 0zm0.1627 0.64c-1.4427 0.49019 0.59598-2.0783 0 0zm-0.1421-0.6514c5.6287-1.3048-0.44401 2.5766 0 0zm1.9643-0.2179c7.0533-1.5657-0.40571 3.4214 0 0zm2.0444-0.2876c3.6998-1.4603-1.066 3.1226 0 0zm0.2871-0.219c2.1719-3.3784 0.69789 3.3347 0-4e-4zm1.1124-1.8355c1.7416 4.3315-3.2572 0.29494-0.37206-0.34334zm-0.9256-1.5239c3.6001 4.1947-3.2957 1.3545-0.42954-0.25909zm-0.872-1.2552c3.4702 5.0865-3.7256-0.27039 0 0zm-0.4839-1.291c1.9456 5.8832-3.4334-1.4484 0 0zm-1.0596-1.5097c3.0494-0.16075-1.2645 4.6228 1e-4 0zm0 0c5.4212-3.468-0.5878 3.536 0 0zm1.1226-0.7866c6.4386-1.1521-2.0879 3.1723 0 0zm1.3544-0.2944c5.3993 0.73669-1.8213 2.4172 5e-4 0z"/><path d="m313.48 444.18c1.6604 0.0236-0.94938 1.1977 0 0zm-0.23 0.3239c0.40995-1.1027 1.1307 0.79954 0 0zm0.4246-0.3223c5.4887-1.7605 0.40307 3.7545 0 0zm2.2766 0.0162c9.7807-0.3936 5.6119 2.5451 0 0z"/><path d="m320.43 454.44c1.4212 0.56143-1.0349 1.934 0 0zm0.3631 0.4792c5.4684 1.7194-3.2776 1.3436 0 0zm0.8707 0.125c4.0973-0.9438-0.88949 2.8373 0 0zm0.6422-0.0931c2.7787-5.0152 0.59845 4.5766 0 0zm0.5619-2.4929c3.302 5.787-3.5431 0.071 0 0zm-0.8682-1.1752c3.3911 4.4766-3.6694-0.19634 5e-4 -1e-4zm-0.4058-0.9709c2.3423 1.4838-2.4038 2.967 0 0zm0 0c6.1017-2.1525-1.2776 3.528 0 0zm1.636-0.4395c8.0106-1.3582-2.2161 3.24 0 0z"/><path d="m258.68 416.27c2.4049-8.1828 2.9184 1.0483 0 0zm1.0423-2.8146c2.9516-3.4199 0.99228 2.794 0 0zm0.7999-0.8862c3.7986-1.0989-0.87229 2.9854 0 0zm0.8174-0.2791c3.667 0.96431-2.0226 2.2507 0 0zm0.9923 0.357c4.3598 3.5473-3.7693 0.7964 0 0zm0.9755 1.1974c3.0523 5.4139-3.6805-0.69982 0 0zm0.8072 1.7641c1.5852 4.5325-3.1894-1.3754 0 0zm0.2467 0.8106c0.39894 2.1864-2.1062-0.52411 0 0zm0.0864-0.3155c-0.29161 3.2799-2.0491-1.955 0 0zm-0.2926-5.5085c1.9251 12.647-3.6776 3.1414 0 0zm-0.5276-6.4657c1.7613 4.4815-0.99948 11.182-1.0398 2.4911-1.1805-0.14745-0.11012-4.6252 1.0398-2.4911zm-0.5166-2.1676c2.2893 7.0481-3.7536-1.1443 1e-4 -3e-4zm-0.8573-1.1157c3.558 3.8214-3.0825 1.0611 0 0zm-1.3781 0.6923c3.71-2.6167 0.22377 3.0016 0 0zm-0.8751 1.6601c2.7511-6.4135 1.9116 3.4159 0 0zm-0.7004 2.1989c1.1268-6.8731 2.9446 1.9812 0 0zm-0.2756 1.9556c-0.41443-5.7189 3.3564 1.1744 0 0zm0 0c2.3353-1.5691-0.0234 3.533 0 0zm1.0923 0.7505c2.1331 3.3667-2.9055-0.67865 0 0zm0.437 0.3824c4.76 1.1109-2.6373 1.9527 0 0zm1.1134 0.27c7.7987-1.7371-1.2034 3.1927 0 0z"/><path d="m269.97 412.81c9.9022-1.5854 0.42301 2.7729 0 0z"/><path d="m269.47 410.14c4.2245-1.3558 7.669 1.2982 0 0z"/><path d="m283.84 417.41c0.16265-3.2326 1.6576 2.0361 0 0zm0.7569-0.0349c-0.58959 1.5935-1.2298-1.2556 0 0zm-0.077-0.7402c0.35816 3.4924-2.2763-1.626 0 0zm-0.1274-1.9652c1.089 6.4185-3.1044-2.3693 0 0zm-0.7284-3.233c2.9459 2.0913-2.0645 6.5214-1e-4 0z"/><path d="m280.56 414.24c5.9543 0.0127 9.1438 1.1341 1.1733 0.84111 0.0174 0.87432-2.4694-0.67833-1.1733-0.84111z"/><path d="m280.56 407.67c7.0234-1.7599 1.6567 2.9404 0 1e-4zm3.4661-0.2957c9.0061 0.71495-0.78336 2.9365 0 0z"/><path d="m294.28 409.62c3.499-7.0063 1.1352 3.6974 0 0zm1.1239-1.5661c2.1006-10.523 3.2511 2.3872 0 0zm1.2736-3.1767c2.5084-13.398 2.6427 4.1286 0 0zm1.1415-2.8902c2.6843-2.5979 0.91601 2.8793 0 0zm1.5011-0.3045c2.2244 7.1293-3.4299 0.12826 0 0zm0.4337 2.5884c1.9281 8.8601-3.4489-0.80994-4e-4 0zm-0.8383 6.2897c-0.78691-7.4848 3.1778 0.27194 0 0zm-0.0833 2.6282c-0.72322-6.4336 3.2466 0.27905 0 0zm0.0558 2.5636c-1.4859-7.3804 3.7942 1.1168 0 0zm-0.1401 2.0363c-1.1249-6.1472 3.9612 1.7478 0 0zm-0.2118 1.1496c0.76266-4.847 2.2457 2.3232 0 0zm0 0c2.2615-1.7154 2.0746 2.79 0 0zm1.3869-0.1765c7.882-0.62604-2.8533 2.9252 0 0zm1.5727 0.076c8.511-1.6911-1.7967 3.8852 0 0zm2.6531-0.12c10.08-2.0716-1.2494 4.3446 0 0zm3.4771-0.1712c12.492-1.508-1.1829 4.6122 0 0zm4.5957 0.0664c5.6375-0.89384 9.7403 2.357 1.4914 1.3392-0.77383 0.9134-3.4017-0.88059-1.4914-1.3392zm6.1807 0.2501c8.1833-0.93561 6.6195 2.6791-0.49539 1.0746-0.39706-0.38029-0.0517-1.1296 0.49539-1.0746zm5.7024 0.064c10.566-2.5615 4.6203 3.7327 0 0zm5.3547-0.4241c4.4414-1.3508 10.905 1.4758 2.1241 1.0396-0.3373 1.1488-4.1716-0.0854-2.1241-1.0396z"/><path d="m304.49 411.48c3.0285 1.1928-1.9865 0.95142 0 0zm-0.5053 0.2712c1.6778-1.3589 0.35946 1.4581 0 0zm0.4582-0.3261c4.0428-0.61655-0.46789 2.3998 0 0zm1.3871-0.0336c5.8728-1.0593-0.89289 2.8625 0 0zm1.8839-0.1511c4.3324-2.166-0.84421 3.4896 0 0zm0.61-0.2973c1.7565-3.8216 1.3409 2.9613 0 0zm1.0277-1.8561c1.6387 5.0345-3.4133-1.2172 0 0zm-0.9711-1.279c4.0095 5.2756-4.0958-0.13533 0 0zm-0.9018-1.283c5.8825 6.93-4.7969-1.3782 0 0zm-0.4013-1.0161c1.7647 6.0138-3.7974-2.5156 0 0zm-0.7153-1.1284c2.9146 0.55407-2.0993 3.1307 0 0zm0 0c4.5483-1.8361-0.92959 3.1358 0 0zm1.0946-0.414c8.4777-0.0898-2.5156 2.7926 0 0z"/><path d="m304.31 407.87c7.2249-0.97395 5.7587 1.7438-0.3143 0.4051z"/><path d="m310.26 415.06c3.5682 1.2532-1.8545 0.96246 0 0zm1.0153 0.4443c3.8458-0.20214-1.1519 1.9294 0 0zm0.8723-0.0437c3.1195-1.0642-0.7091 2.1175 0 0zm0.3141-0.1664c1.0778-3.555 1.7405 2.7388 0 0zm-0.172-2.1492c4.8677 4.4781-3.7036 0.42916 0 0zm-1.1823-1.1051c3.6837 1.0752-1.1623 4.3009 0 0zm-6e-3 3e-3c9.5946-1.6995-0.95267 3.068 0 0z"/><path d="m314.48 405.43c5.5458-0.66093-0.48862 2.7757 0 0zm2.0464 0.107c9.9575-0.98089-0.95858 3.1209 0 0z"/><path d="m323.64 408.29c4.692 0.40616-1.3112 1.9518 0 0zm1.3878 0.2098c4.2494-0.8166-1.521 2.5526 0 0zm0.6245-0.2031c2.3679-4.2696 0.97251 3.4423 0 0zm0.3148-0.8392c-1.0795-5.7719 3.6764 2.0798 0 0zm0.7455-3.2499c2.3014 5.464-3.447-0.77346 0 0zm-0.6835-1.186c3.4986 4.925-3.7075-0.5733 0 0zm-0.2432-0.3032c1.4052 3.1913-3.0871-0.58906 0 0zm-1.0067 0.0801c2.498-1.212 0.19088 2.6969 0 0zm1.0679 0.0597c0.81794 3.4332-2.8946-1.2565 0 0zm0.2325 0.454c3.8591 3.6107-2.8615 0.6591-0.0558-0.0864zm1.1847 1.4724c5.4347 4.6524-2.9379 1.257 0 0zm1.6727 1.933c3.0005 3.221-2.355 0.54419 0 0zm0.0349 1.4382c1.8351-1.9894 0.32314 2.5666 0 0zm0.4471-0.2661c1.3059 3.3158-2.8638-1.2092 0 0zm-0.2541-1.6806c2.2695 7.8268-3.5675-2.7444 0 0zm-1.1651-2.163c3.4147-1.5192-0.70698 6.935 0 0zm0 0c3.6673-5.4176 1.1775 3.4605 0 0zm0.8786-1.3911c4.9801-2.2622-0.62312 3.6982 0 0zm1.2935-0.5377c7.9083 3.3398-2.074 2.3043 0 0z"/><path d="m331.49 414.64c3.4152 1.1109-1.5648 1.2634 0 0zm0.9482 0.3719c3.2691-0.80046-0.83757 2.0385 0 0zm0.5932-0.185c2.3517-4.3944 0.68044 3.5463 0 0zm0.5824-2.7843c3.3484 6.9322-3.6921-1.1918 0 0zm-0.6635-1.1477c2.7083 4.725-3.461-0.83094 0 0zm-0.7171-0.6239c2.6464 0.15793-1.5977 2.8364 0 0zm-1e-3 7e-4c8.5911-3.2661-0.23063 3.5507 0 0z"/></g></g></svg>
