<?xml version="1.0" encoding="UTF-8"?>
<svg width="359.17" height="239.07" version="1.1" viewBox="0 0 359.17 239.07" xml:space="preserve" xmlns="http://www.w3.org/2000/svg" xmlns:cc="http://creativecommons.org/ns#" xmlns:dc="http://purl.org/dc/elements/1.1/" xmlns:rdf="http://www.w3.org/1999/02/22-rdf-syntax-ns#"><metadata><rdf:RDF><cc:Work rdf:about=""><dc:format>image/svg+xml</dc:format><dc:type rdf:resource="http://purl.org/dc/dcmitype/StillImage"/><dc:title/></cc:Work></rdf:RDF></metadata><g transform="matrix(1.3333 0 0 -1.3333 -126.15 632.05)"><g transform="matrix(.54545 0 0 -.54545 10.103 583.5)" fill="none" stroke="#000" stroke-linecap="round" stroke-linejoin="round" stroke-miterlimit="10" stroke-width="1.8189"><path d="m383.28 201.59v326.91"/><path d="m155.84 423.84h487.21"/></g><path d="m357.04 354.53c1.1125-2.5501 1.7808 0.67708 0 0zm0.9644-1.0398c3.9153-2.4472-0.0379 3.4432 0 0zm1.3294-0.3195c4.5783-2.0963-0.34769 2.7016 0 0zm1.3867-0.5379c4.4344-3.0276 0.14999 2.9776 0 0zm1.3205-0.8004c3.3954-3.4196 0.478 3.1028 0 0zm0.7603-0.7425c1.7784-2.8695 0.69087 2.8959 0 0zm0.064-1.3101c4.2509 3.3842-3.3924 0.45271 0 0zm-1.2551-0.7931c5.029 2.2562-3.6837 1.2296 0 0zm-1.7683-1.5724c5.7392 3.7968-2.3702 1.9872 0 0z"/><g transform="matrix(.54545 0 0 -.54545 7.3692 583.5)"><path d="m226.73 461.51c26.494-53.511 56.037-109.37 106.08-144.51 29.04-20.943 69.672-22.411 100.03-3.3431 51.767 31.482 84.72 85.829 113.97 137.15" fill="none" stroke="#000" stroke-linecap="round" stroke-linejoin="round" stroke-miterlimit="10" stroke-width="1.8189"/></g><g><path d="m310.58 341.27c0.20643-2.1796 1.0847 1.1833 0 0zm0.5088 6e-3c-0.62942 1.1053-0.66884-1.0509 0 0zm0.1028-1.0127c-0.16091 3.7658-1.5672-1.6994 0 0zm-0.6333-1.6741c2.675-1.1117-1.2116 4.924 0 0zm0 0c1.8248-3.5115 1.5028 2.1514 0 2e-4zm0.7132-1.0493c3.9598-1.7111-0.72462 2.9091 0 0zm0.9009-0.3762c4.2146 1.0554-2.2201 1.8801 0 0zm0.9353 0.2599c2.7157 3.0324-2.421 0.70941 0 0zm0.7544 0.9856c2.0323 4.619-2.9399-0.35053 0 0zm0.4181 1.6912c0.79785 4.6872-2.5815-1.684 0 0zm-0.1457 0.7318c1.4765 1.8047-2.0539 0.55104 0 0zm0.3039-0.6023c0.18184 4.4927-2.4116-1.9434 0 0zm0.0205-4.0576c1.4353 8.2323-3.4973 1.6133-0.16415-0.40244l0.16425 0.39264-1e-4 0.01zm0.0284-4.0304c1.5453 8.5657-3.6003 1.4362-0.17801-0.40959zm-0.361-1.5781c1.3858 6.034-2.8598-0.91836 0 0zm-1.1975-0.5597c3.7126 0.99673-1.4274 2.3338 0 0zm-1.2215 0.6946c3.3775-2.568 0.4515 2.6485-2e-4 -3e-4zm-0.855 1.3269c2.2336-4.3721 1.6206 2.1865 0 0zm0 0c2.63-0.50987-1.627 5.0808 0 0zm0.5473 1.7381c2.1317 4.629-3.006-0.92126 0 0zm0.473 1.3671c3.4172 3.2796-2.5331 0.58255 0 0zm0.9192 0.9885c6.1714 0.89857-2.4126 1.7902 0 0z"/><path d="m318.18 338.16c1.8337-0.70838 1.5015 2.3673 0 0zm1.0184 0.0826c6.2095-1.8007-1.366 2.5985 0 0z"/><path d="m318.16 335.32c8.3421 0.25252-0.40987 2.2181 0 0z"/><path d="m324.75 335.91c2.2414 3.6964-1.9047 0.14564 0 0zm0.6149 1.266c2.9171 4.2474-2.3162 0.70964 0 0zm0.8234 1.61c0.95799 2.8482-2.2108-0.55341 0 0zm-0.673 0.5881c0.60368-5.043 2.1928 2.3219 0 0zm0.0887-1.103c-0.42746-7.24 1.8272-5.5677 1.0334 0.1135l-0.5828 0.4483z"/><path d="m330.07 335.48c8.5223 0.39428-2.9058 1.513 0 0z"/><path d="m334.92 337.53c1.1489 0.0162 0.27779 2.2817 0 0zm0.5385 0.4426c4.3963-0.23973-1.8032 1.9729 0 0zm0.6187-0.1395c3.0576-2.8008-0.23932 3.0123 0 0zm0.3689-0.4953c-0.076-6.4465 2.4778 2.8108 0 0zm1.3081-3.0247c0.70036 4.8772-2.9115-0.5822-0.20618-0.37752zm-0.3771-1.1655c1.6703 3.9971-2.9929-0.50551 0 0zm-0.8179-0.8004c2.9988 2.3183-2.4288 1.337 5e-4 0zm0 0c1.7475 2.695-3.5745-0.43442 0 0zm-0.1644 0.7008c0.0415 2.4428-1.3895-1.8614 0 0zm0.1082 0.4426c2.8857 2.94-2.3287 0.25007 0 0zm0.7674 0.9843c3.2794 2.3134-1.892 1.1556 0 0zm1.0086 0.9943c2.5842 3.5308-2.3664 0.05 0 0zm0.6596 0.9733c1.3972 3.8318-2.2758-0.76511 0 0zm0.33 0.9818c0.10533 2.5536-1.8813-1.4402 0 0zm-0.0684 0.1632c0.46936 1.5768-1.5708-0.34488 0 0zm-0.0464-0.3281c0.5859 2.7649-2.2352-1.1305 0 0zm-0.1675-1.0286c0.82767 4.5632-2.5988-1.85 0 0zm-0.0499-1.4962c0.41312 5.8955-2.6839-2.2057 0 0zm-0.9829-1.2835c2.6786-1.1138-0.6503 4.2835 0 0zm0-1e-4c2.2028-3.5551 1.1936 2.7841 0 0zm0.4897-0.7604c6.4083-0.66955 0.48993 2.8155 0 0z"/><path d="m339.91 342.65c3.2691-0.93006-0.44223 1.8562 0 0zm0.7523-0.1618c1.1279-3.3636 1.3584 2.1035 0 0zm0.3216-2.5111c2.851 3.959-2.6759 0.72508 0 0zm-0.6818-1.2602c2.6528 2.6339-2.4167 2.4716 0 0zm-3e-3 3e-4c9.7809-0.18252-1.9725 2.6166 0 0z"/></g><g transform="matrix(.54545 0 0 -.54545 5.2428 570.44)"><path d="m265.96 243.12c20.073 48.873 41.302 100.03 80.886 136.51 20.388 19.712 53.6 25.412 77.461 8.3685 40.764-27.554 63.613-73.516 85.197-116.21 6.4304-13.432 12.469-27.05 18.227-40.783" fill="none" stroke="#000" stroke-linecap="round" stroke-linejoin="round" stroke-miterlimit="10" stroke-width="1.8189"/></g><g><path d="m226.12 429.61c0.41585 2.8542-1.6417-0.85809 0 0zm0.0407 0.438c0.57633 1.3083-2.0107-0.28408 0 0zm-0.4499-0.7589c2.1372 3.5165-2.682-0.76904 0 0zm-0.5231-0.9232c2.362 3.9171-3.1405-0.77422 0 0zm-0.1273-0.2631c0.70869 2.6406-2.7388-0.8804 0 0zm-0.1585-0.1914c0.71313 2.1446-2.1471-0.0576 0 0zm0.1656 0.2035c1.7131 3.1161-2.7243-0.37885 0 0zm0.4117 0.7861c2.4751 3.5836-2.8378-0.072 0 0zm8e-3 0.8779c1.3526-4.39 0.82596 3.1927-2e-4 -3e-4zm-6e-3 -4.1414c3.3983-1.451-0.68163 7.9843 0 0zm0 0c-0.41406-5.251 2.9355 0.47124 0.16349 0.40873z"/><path d="m276.23 437.46c4.0926-3.8354 1.4369 3.2989 0 0zm1.8669-0.8941c4.4843-0.43588-1.5561 2.2954 0 0zm0.9757-0.1142c3.219 1.2672-1.5557 1.6677 0 0zm1.0186 0.5824c1.5596 3.326-2.5526-0.13937 0 0zm-0.7044 1.8528c1.2188-4.6363 1.6693 2.9337 0 0zm-0.4517 0.7646c2.7624-3.9057 0.5249 3.2675 0 0zm-0.6324 0.4419c4.8083-2.1396-1.5782 3.0983 0 0zm-0.5706 0.1994c2.9911-0.88322-0.53781 2.2782 0 0zm0 0c2.6012-2.7864 0.49638 3.0102 0 0zm0.4076-0.4988c5.3395-8.3542 1.5007 3.6436 0 0zm1.7805-1.5592c5.0432-5.604 1.6289 3.1597 1e-4 1e-4zm2.1399-1.7993c4.3788-5.7361 0.61614 3.9243 0 0zm1.4293-1.4922c2.7369-4.8418 0.89201 3.376-3e-4 4e-4zm1.1353-2.314c2.6418 3.3866-2.2991 1.135 0 0zm-1.2215-0.1457c4.2357 0.10361-1.429 2.565 0 0zm-1.321 0.3378c4.0604-1.4606-0.22777 2.6229 0 0zm-0.8922 0.7766c2.6321-2.7387 0.88761 2.1936 0 0zm-0.4109 1.536c0.61936-4.6877 1.9705 1.5196 0 0zm0 0c2.9096-1.076-1.1578 4.8776 0 0zm0.9224 1.5331c3.8956 5.1358-2.9894-0.33271 0 0z"/><path d="m282.14 441.85c4.1389 3.6968-2.5232 1.9731 0 0zm1.2234 1.8226c2.7057 3.0578-2.1851-0.0126 0 0z"/><path d="m284.14 440.69c5.3435 5.6384-1.2098 1.6622 0 0z"/><path d="m284.79 447.66c0.95703-2.0292 0.81217 0.92117 0 0zm0 0c1.3167-0.81306 0.28636 2.3336 0 0zm0.7217 0.3183c3.222 1.6542-2.3075 0.75192 0 0zm0.4899 0.1181c3.8349-0.23081-1.5637 2.255 0 0zm0.6122-0.1047c3.1643-2.1121-0.20223 3.0966 0 0zm0.4514-0.3823c2.6098-3.9512 0.76931 3.409 0 0zm0.4538-0.7642c1.3615-6.1904 1.8433 3.6084 0 0zm0.3182-1.3207c0.64997-4.69 2.1837 2.6143 0 0zm0.1353-0.9877c1.7047-1.8598 0.89987 2.1844 0 0zm1.046 0.1557c0.3103 4.8433-2.5146-1.1534 0 0zm-1.0041 4.2831c-0.45021-5.6072 2.2963-0.28051 5e-4 0zm-0.3638 0.8935c1.5063-4.2638 0.69785 2.7997 0 0zm-0.0731 0.09c0.69406 1.3069 0.35783 0.24544 0 0zm-0.5851-0.0336c1.7377-1.2532 0.4897 2.6494 0 0zm0 0c2.5966-4.2727 1.6155 1.714 0 0zm0.897-1.3151c3.0799-4.5459 1.19 3.2982 0 0zm1.1445-1.0824c3.6629-2.3529-0.25348 3.0436 0 0zm0.831-0.5246c3.1054-0.69107-0.77521 2.4524 0 0zm0.8163-0.1587c3.8012 4.1564-1.4902 2.3008 0 0z"/><path d="m283.35 456.23c2.0712 0.0475-1.4097 3.6648 0 0zm0.5383 1.1739c1.7697 2.618-2.3762-0.49036 0 0zm0.2141 0.1775c3.94 1.6668-2.9726 1.1836 0 0zm0.3751 0.0624c4.003-0.6377-2.394 2.889 0 0zm0.1231-0.0932c2.801-2.7014 0.15259 3.3632 0 0zm0.2416-0.3528c0.37834-7.8612 2.2258 3.6895 0 0zm0.1223-1.5125c1.5372-6.6208 1.9189 2.935 0 0zm1.1891-1.6697c3.4441 2.6654-2.5549 1.2688 0 0zm0.9805 0.9542c5.8007 4.7792-3.9815 0.15813 0 0z"/><path d="m170.49 394.43c1.3139 0.018 0.38209-0.25978 0 0zm-0.1118-5e-4c2.7799 0.52797-2.1739 1.7537 0 0zm0.051-9e-3c1.3367 2.1182-2.5448-0.36432 0 0zm-0.0857-0.3943c0.68003 3.6573-3.0246-1.9235 0 0zm-0.9879-0.8226c2.5701-0.7217-0.5842 3.2123 0 0zm0 0c2.6242-2.1209 0.75397 2.5105 0 0zm0.8912-0.5543c4.1906-0.71114-1.5727 2.8778 0 0zm0.8733-0.1513c2.8098 0.84179-1.8546 1.8674 0 0zm0.786 0.3057c1.5674 3.2034-2.8532-0.43559 0 0zm0.3108 0.6431c0.13563 4.0974-2.4131-1.7705 0 0zm-1.1676 1.2698c1.6553-2.9323 0.89989 2.619 0 0zm-0.2841 0.246c2.9385-1.4249-0.81808 2.6194 0 0zm-0.3518 0.0668c3.824 0.20953-2.437 2.3211 0 0zm0.0177-0.0448c-0.9446 2.1986-0.16788 0.25282 0 0zm-0.1574-0.8265c0.39687 5.0854-2.7185-2.2881 0 0zm-0.9301-1.172c2.5643-0.61761-0.89288 3.9697 0 0zm0 0c3.4442-2.2341-0.14021 2.9367 0 0zm0.6397-0.484c4.2187-0.20361-1.8568 2.5489 0 0zm0.688-0.1269c3.4525 0.81035-2.2866 1.9451 0 0zm0.6274 0.0627c3.4132 2.2812-3.0754 0.90089 0 0zm0.6239 0.4726c1.3649 3.7886-2.8489-0.80149 0 0zm0.2791 0.8192c0.11047 3.8568-2.4233-1.9465 0 0zm-1.0326 0.7154c2.2249-1.7297-0.11809 2.6029 0 0zm-0.3802 0.0638c3.4418-0.21276-1.7773 2.1488 0 0zm-1.2047-0.2047c2.1624-0.99326 1.2607 3.1682 0 0z"/><path d="m267.12 392.83c-1.0476 0.74962-0.35524 0.33999 0 0zm-0.6681-0.7847c1.1208 1.3011 0.5476 0.59052 0 0zm0 0c2.6073-1.4112 0.31322 2.1769 0 0zm0.8957-0.3483c3.169 0.83771-1.4123 1.8571 0 0zm1.0411 0.5019c1.1959 3.5376-2.8159-0.9085 0 0zm-0.8198 1.1252c0.94358-2.7212 1.5677 2.1181 0 0zm-0.0766 0.1614c2.1746-1.9821 0.0908 2.7323 0 0zm-0.0634 0.0353c4.5029-0.84148-3.1265 3.3162 0 0zm-0.1992-0.0286c3.7063 1.9264-3.4806 1.0377 0 0zm-0.1818-0.1502c2.865 3.8149-3.9084-0.92716 0 0zm-0.2058-0.4242c2.7845 5.2731-3.43-0.38291 0 0zm-1.2369-0.5474c2.2678-2.0464 0.59586 3.6822 0 0zm0 1e-4c2.0541-4.3214 1.352 2.9527 0 0zm0.297-0.8396c4.0771-2.1759-0.57442 3.1922 0 0zm0.6776-0.4599c3.8906-0.52222-1.32 2.6025 0 0zm0.7985-0.1798c4.0155 0.95854-2.5163 2.0183 0 0zm0.8248 0.1405c2.2608 2.322-2.5529 0.5648 0 0zm0.6187 0.6308c0.92518 3.7348-2.8966-1.1949 0 0zm-0.9026 1.3182c0.72351-3.1179 1.8346 2.1127 0 0zm-0.1857 0.2251c2.6291-2.2255-0.1817 2.9358 0 0zm-0.3876 0.1459c4.3315-0.27577-2.6252 2.6271 0 0zm-0.0737-5e-3c-0.66505 2.1981-0.0608 0.37212 0 0zm-0.848-0.9482c2.3941 0.0386-0.73377 4.1809 0 0z"/><path d="m267.7 385.25c1.5701 5.6171-2.1618 0.70697 0 0z"/><path d="m268.15 379.94c0.56289 6.1866-2.132-1.5037 3e-4 0z"/><path d="m267.56 376.06c-0.5321-7.2866 2.1024 0.1098 0 0z"/><path d="m268.27 367.64c0.94492 5.6851-2.2707-1.0447 0 0z"/><path d="m268.5 362.28c0.62974 4.622-1.8722 0.917 1e-4 0z"/><path d="m268.46 357.06c0.711 5.4315-1.6684 1.3797 0 0z"/><path d="m268.17 354.74c0.0903-4.4077 1.692 0.63981 0 0z"/><path d="m265.47 348.35c1.6563-6.2198 2.4276 1.4323 0 0zm0.8998-2.1673c2.1205-3.0451 0.83804 2.6101 0 0zm0.4628-0.657c2.4077-0.41306-0.0265 2.5636 0 0zm0.1334 2.181c-0.28708-4.6027 2.176 1.0392 0 0zm-0.1475 1.2192c-0.38401-3.9752 2.444 1.1854 0 0zm-0.118 0.9037c0.18798-3.1289 1.6032 1.1979 0 0zm0 0c1.7163-0.82921 0.97274 2.5911 0 0zm0.9904 0.2094c4.84-0.59502-1.2722 3.2429 0 0zm1.5409 0.2495c6.632 0.43004-1.8238 2.1369 0 0z"/><path d="m269.03 348.14c2.0841 2.2112-1.7914 0.0796 0 0zm0.4692 0.4179c3.1992 1.0964-2.034 1.354 0 0zm0.5247 0.1048c2.863 0.16197-1.456 1.7139 0 0zm0.1858 0.0391c1.8152-2.1499 0.25381 2.5666 0 0zm0.871-1.0581c0.53751 4.029-2.3673-1.2211 0 0zm-0.3632-0.6504c1.8412 3.4535-2.8243-0.61603 0 0zm-0.767-0.8399c2.8241 2.806-2.4374 0.59248 0 0zm-0.7926-0.7823c2.8811 2.6069-2.1799 0.75219 0 0zm-0.2695-0.3192c1.2381 2.0106-1.903-0.14563 0 0zm0.3688-0.3281c1.0723 1.716-2.7123 0.0917 0 0zm7e-3 3e-4c6.0839 0.29649-1.4934 2.2835 0 0z"/><path d="m266.86 343.38c3.8612-1.311-0.0178 2.7722 0 0zm1.4888 8e-3c4.3176-0.71775-1.3239 2.7621 0 0zm1.2098 0.186c5.341-0.22529-1.6634 2.0387 0 0z"/><path d="m268.21 341.67c3.9712 0.81312-2.0584 1.6821 0 0zm0.8949 0.4763c2.7786 0.71475-1.5384 1.3256 0 0zm0.4229 0.0454c2.2127-0.36007-1.0478 1.6938 0 0zm0.0225-0.0165c1.987-3.7641 0.34206 3.5484 0 0zm0.469-1.3586c1.7877 3.3031-2.4652-0.22086 0 0zm-0.8746-1.2583c3.3599 4.4282-2.905 0.0429 0 0zm-1.2003-0.5821c1.6785-1.0319 1.1528 3.2668 0 0zm0-1e-4c1.027-1.9207 1.096 1.3956 0 0zm0.3564-0.5382c2.5592-1.2217 0.0115 2.0351 0 0zm0.7028-0.3187c4.7511-0.57407-1.057 2.3639 0 0z"/><path d="m170.78 389.14c-0.11578-6.9047 2.6861 0.8295 0 0z"/><path d="m171.13 383c-0.34874-7.2555 2.1222 0.17904 0 0z"/><path d="m171.56 374.44c2.4486 1.2278-1.8377 4.2955 0 0z"/><path d="m171.36 370.98c-0.70099-6.5253 1.8508-2.1582 0-2e-4z"/><path d="m172.19 361.73c0.97638 6.4055-1.8408 1.1273 0 0z"/><path d="m171.69 360.07c-0.18605-3.0907 1.6101 0.50996 0 0zm0.3254-2.2186c1.8514 0.14144-1.5925 3.0494 0 0z"/><path d="m171.87 355.35c-0.3151-2.8434 1.6891 0.63876 0 0z"/><path d="m164.38 344.69c5.8923-0.0312-1.4722 1.7598 0 0z"/><path d="m168.17 346.97c1.0643-0.6139 0.17354 1.4114 0 0zm0.1154-0.0101c1.6084-2.026 0.48589 2.0546 0 0zm0.1748-0.3572c1.1799-4.1551 2.1428 1.958 0 0zm0.697-1.2357c1.647-2.6057 1.0807 1.9117 0 0zm1.2851-0.674c0.67629 2.815-1.8739-0.33764 0 0zm0.1261 0.8699c-0.24187 3.645-1.5789-1.7113 0 0zm-0.8779 1.7389c0.30792-3.1691 1.4592 1.1968 0 0zm-0.1868 1.1371c0.50335-4.1904 1.4117 1.5947 0 0zm-0.0783 0.9674c0.16033-3.6829 1.5763 1.4019 0 0zm0 0c1.5488-0.96095 0.0551 2.4858 0 0zm0.7557 0.4382c1.4282 2.0204-1.9408-0.15243 0 0zm0.2256 0.2096c2.848 1.0187-1.8747 1.0905 0 0zm0.5818 0.1309c6.2952-0.20046-1.7642 2.3546 0 0z"/><path d="m171.73 347.86c1.1519 2.1737-1.4491-0.39105 0 0zm0.2804 0.4628c1.8526 1.5261-1.7026 0.45297 0 0zm0.3063 0.195c3.5852 1.7328-2.7216 0.38561 0 0zm0.2091 0.0234c2.8222-0.2866-1.4618 2.015 0 0zm-0.0272 0.0408c2.3508-3.5622 0.20416 3.4082 0 0zm0.9129-1.0316c0.39 3.8576-2.3619-1.4287 0 0zm-0.3742-0.8396c1.6557 3.6345-2.6606-0.55192 0 0zm-0.6121-0.8038c2.2888 2.7953-2.2737 0.41675 0 0zm-0.4339-0.5918c1.6114 0.9212-1.345 1.8401 0 0zm-2e-3 6e-4c6.4323-1.2251-0.80339 2.1796 0 0z"/><path d="m169.03 343.03c3.2386-0.59382-0.39932 2.1202 0 0zm1.1534 0.0919c4.0036-0.33423-1.575 1.7388 0 0zm0.9077 0.1175c8.1254-0.53692-0.76348 2.146 0 0z"/><path d="m170.9 341.45c2.6677 1.4161-1.6793 0.70225 0-1e-4zm0.67 0.2862c3.1211 0.26875-1.3965 1.5804 0 0zm0.4082-4e-3c2.1054-1.4941-0.30378 2.2209 0 0zm0.0573-0.1152c0.69583-3.1746 1.7249 2.2533 0 0zm0.5552-1.4828c1.5714 3.0504-2.4047-0.16461 0 2e-4zm-0.7584-0.9067c2.7199 2.8546-2.2668 0.6486 0 0zm-0.4181-0.5132c1.7688 3.1828-2.3218-0.53173 0 0zm0.2411-0.5482c-0.50022 1.5092-0.20162 0.74362 0 0zm8e-3 -1e-3c6.9644-0.60294-1.0792 2.5598 0 0z"/><path d="m218.53 471.05c2.3771 3.1955-2.6315 0.1575 4e-4 -2e-4zm-0.8949-2.1005c3.1694 5.2646-2.4904 1.2354 0 0zm-0.21-0.7155c0.89756 3.8888-2.6413-1.3806 0 0zm-0.8664-0.1125c2.1558-1.0668-0.0998 2.2201 0 0zm0.8895 0.1539c2.4668 5.7324-3.0241-1.0031 0 0zm0.6162 1.6085c3.6032 6.2693-3.3797-0.0516 0 0zm0.9336 2.2775c2.1091 3.7606-2.7495-0.3046 0 0zm-0.0959 0.6914c2.9995-3.9682-0.083 3.876 0 0zm0.2085-0.6245c3.1768-10.204 2.6571 1.8938 0 0z"/></g><g transform="matrix(.54545 0 0 -.54545 0 587.52)" fill="none" stroke-linecap="round" stroke-linejoin="round" stroke-miterlimit="10" stroke-width="3.1181"><path d="m316.22 355.99h9.5457m9.5458 0h9.5457m9.5457 0h9.5458m9.5457 0h9.5458m9.5457 0h9.5458m9.5458 0h9.5457m9.5457 0h9.5458m9.5457 0h9.5458m9.5457 0h9.5458" stroke="#55e1ff"/><path d="m341.29 385.23h9.7245m9.7245 0h9.7245m9.7245 0h9.7246m9.7245 0h9.7245m9.7245 0h9.7246m9.7245 0h9.7245m9.7245 0h9.7245" stroke="#ff58c4"/></g><g fill="#55e1ff"><path d="m274.5 396.24c0.55682-2.4571 1.2216 1.8614 0 0zm-7e-4 0.0205c0.20802-3.7355 2.2611 1.4537 0 0zm8e-3 -0.7402c0.48269-4.2924 2.6837 1.6001 0-3e-4zm0.2352-1.2292c2.6045-3.502 1.1756 3.0711 2e-4 -3e-4zm0.6665-0.8914c6.3652-2.3357-1.3961 3.6083 0 0zm1.3011-0.5555c4.9298 0.84681-1.9475 2.5296 0 0zm1.5452 0.4694c2.8248 6.3405-3.6831-1.5997 0 0zm0.578 1.2233c1.7511 5.3621-3.5722-2.0509 0 0zm0.1303 1.3952c-0.84957 4.0963-2.1493-2.5482 0 0zm-0.0936 0.1919c-0.1955 3.3154-2.602-2.0799 0 0zm-0.0271-0.5357c-0.7523 4.774-2.3538-3.2505 0 0zm-1.1327-1.4742c3.3491-2.0007-0.57128 5.4649 0 0zm0 0c0.44964-7.3014 3.103 3.4853 0 0zm0.2098-1.6774c-0.3566-7.7047 3.222 3.6728 0 0zm1.1248-2.683c1.1382 4.9304-3.1501-0.71567 0 0zm-0.9146-0.5234c3.9518 2.6009-3.2135 1.4487 0 0zm-1.5465 0.2105c6.5137-0.65157-2.2938 3.2696 0 0zm-0.8743 0.2446c4.7906-0.71094-2.132 3.0599 0 0zm-0.188 0.0101c3.101 1.2668-2.3839 1.9633 0 0zm0.4716 0.1564c0.83871 2.5879-2.7773-0.27679 0 0zm-0.117-0.0716c3.6043 2.7842-3.685 0.81071 0 0z"/><path d="m281.84 394.99c6.9492-0.17463-1.4782 1.796 0 0z"/><path d="m281.8 392.86c5.0071-0.60927 1.0101 2.4456 0 0z"/><path d="m290.37 399.27c2.2813 0.58576-0.59807 4.0072 0 0zm0.8391 1.3367c1.4631 2.8358-2.4034-0.2087 0 0zm0.5968-0.3403c-0.55717 4.305-2.1585-2.6713 1e-4 0zm-1.2755-0.0909c-0.34515-9.4336 3.3989 2.984 0 0z"/><path d="m287.93 394.02c5.9109-2.2908 0.0438 4.7075 0 0zm2.2941 0.0714c6.858-0.96062 3.5494 2.7629-0.5544 0.41z"/><path d="m290.1 391.65c2.5888 2.7088-2.4359 0.0425 0 0zm0.4519 0.335c5.0506 0.81451-2.31 2.2567 0 0zm1.092 0.117c3.3296-0.96235-1.1211 2.8116 0 0zm0.3409 0.0573c1.7865-3.2787 1.1723 2.9022 0 0zm0.1514-2.0643c4.0664 4.9088-3.5457 0.16461 0 0zm-1.6514-1.8079c6.7522 4.3059-4.566 2.0769 0 0zm-0.7186-0.8278c8.0462 7.6256-5.1593-1.6945 0 0zm0.2008-0.6159c2.1992 2.1353-3.8602 1.0259 0 0zm7e-3 -2e-4c8.9236-0.42733-1.3012 3.2412 0-3e-4z"/></g></g></svg>
