<?xml version="1.0" encoding="UTF-8"?>
<svg width="272.47" height="266.09" version="1.1" viewBox="0 0 272.47 266.09" xml:space="preserve" xmlns="http://www.w3.org/2000/svg" xmlns:cc="http://creativecommons.org/ns#" xmlns:dc="http://purl.org/dc/elements/1.1/" xmlns:rdf="http://www.w3.org/1999/02/22-rdf-syntax-ns#"><metadata><rdf:RDF><cc:Work rdf:about=""><dc:format>image/svg+xml</dc:format><dc:type rdf:resource="http://purl.org/dc/dcmitype/StillImage"/><dc:title/></cc:Work></rdf:RDF></metadata><g transform="matrix(1.3333 0 0 -1.3333 -177.27 609.12)"><g transform="matrix(.54545 0 0 -.54545 0 587.52)" fill="none" stroke="#000" stroke-linecap="round" stroke-linejoin="round" stroke-miterlimit="10" stroke-width="1.8189"><path d="m264.79 241.27v338.61"/><path d="m264.79 579.88c115.86 1.2064 231.73 2.4129 347.59 3.6193"/></g><path d="m141.92 451.52c5.4711 6.6216-1.6305 3.5125 2e-4 0zm2.1599 3.5527c3.0917 4.3155-3.6142-0.59167 0 0zm0.3659 0.6137c5.0185-1.5945-2.7172 3.4917 0 0zm0.4034-0.3032c6.2617-9.9268 1.4982 3.7267 0 0z"/><path d="m330.9 270.57c7.2197-3.9693 2.7392 2.3473 0 0zm3.2672-1.2736c6.2873-3.2256-0.80529 3.6488 0 0zm1.7915-0.8038c3.7768-1.7974-1.187 3.3626 0 0zm-0.092-1.0337c5.3149 2.7203-3.1975 1.2309 0 0zm-1.3584-0.5866c6.4525 2.3633-3.9425 1.3473 0 0zm-1.7951-1.4982c5.5195 3.5861-1.6842 2.4933 0 0z"/><g transform="matrix(.54545 0 0 -.54545 0 587.52)" fill="none" stroke-linecap="round" stroke-linejoin="round" stroke-miterlimit="10" stroke-width="1.8189"><path d="m264.79 579.88c75.272-9.7358 147.81-46.009 196.01-105.41 7.1249-8.5278 13.801-17.428 20.04-26.623" stroke="#55e1ff"/><path d="m264.79 579.88c87.039-43.797 161.03-114.44 204.55-202.02 4.4724-8.8108 8.6697-17.761 12.598-26.828" stroke="#ff58c4"/><path d="m282.02 353.6h9.9833m9.9833 0h9.9832m9.9833 0h9.9833m9.9832 0h9.9833m9.9833 0h9.9832m9.9833 0h9.9832m9.9833 0h9.9833m9.9832 0h9.9833m9.9833 0h9.9832m9.9833 0h9.9833" stroke="#000"/></g><g><path d="m144.48 393.97c5.7306-0.78892 0.4336 1.852 0 0z"/><path d="m144.73 393.91c4.0734-1.8843 0.1236 3.2628 0 0zm1.5611-0.104c5.6199-0.33964-1.3633 2.161 0 0z"/><path d="m133.46 395.78c3.4622 4.1788-2.4261-0.85436 0 0zm0.448 0.5793c3.821 1.4396-1.6174 1.4437 0 0zm1.1023 0.4851c4.7552 0.87074-2.4012 2.1578 0 0zm0.8865 0.1555c4.1343-0.35061-1.866 2.6185 0 0zm0.5087-0.1289c3.9307-2.4815-1.0335 3.6288 0 0zm0.3624-0.351c2.5587-3.9159 0.62284 3.2361 0 0zm0.2988-0.6813c1.1603-5.3326 1.7876 3.2997 0 0zm-0.5944-3.477c5.3241 5.7263-3.0846 1.2543 0 3e-4zm-2.0757-2.2641c7.0694 5.3266-3.2932 2.0759 0 0zm-0.3771-0.4824c1.7766 3.2244-2.6354-0.70385 0 0zm0.7008-0.7324c1.8517 2.0424-4.2756 0.51394 0 0zm0 0c7.3536-0.6697-1.7278 3.2245 0 0zm2.1728-2e-3c6.7182 0.58892 0.0298 3.1513-0.4057 0.11633z"/><path d="m264.36 385.63c0.52896 10.965-1.3377 3.5058 0 0z"/><path d="m263.33 374.2c1.5734 1.8566-0.23627 8.8982-0.0541 1.749z"/><path d="m263.22 361.52c0.94123 5.988-1.0858 5.0517-0.2162-0.1962z"/><path d="m263.01 350.37c1.3065 3.1679-0.57193 6.0234 0 0z"/><path d="m261.7 339.15c1.6071 1.275-0.21112 8.7059-0.0136 1.3727l0.0133-1.3727z"/><path d="m261.86 325.45c1.3637 8.1235-0.92925 7.1819 0 0z"/><path d="m260.35 316.18c-0.36064-6.2864 1.4992-4.1114 0.1387 0.2935l-0.1388-0.2935z"/><path d="m260.44 297.88c0.98138 1.4308-0.74227 8.6362-0.3918 2.0389z"/><path d="m260.55 285.48c0.42285 6.6579-1.4726 4.2274 0 0z"/><path d="m260.33 275.65c0.37377 6.3976-0.96225 6.3116 0 0z"/><path d="m260.08 263.61c0.85455 2.0569-1.545-0.2234 0 0zm0.0577 0.2981c1.0109 1.288-1.8485 0.31873 0 0zm-0.2724-0.2908c1.7708 1.9274-2.3365 0.0891 0 0zm-0.6645-0.8271c2.9259 3.4468-2.9052-0.2929 0 0zm-1.0948-0.5636c2.1508-0.68882 0.64438 3.4437 0 0zm0.6174-0.0967c1.7859 1.5963-2.1923 0.6001 0 0zm0.3307 0.2245c4.9106 4.8264-2.6499 0.48909 0 0zm1.3604 1.4971c4.5348 4.6319-3.353-0.0141 0 0zm0.4653 1.2888c-0.15563-4.0308 0.85219-12.231 0.97919-3.1481 0.0902 0.41047 0.10133 5.6628-0.97919 3.1481z"/></g><g fill="#55e1ff"><path d="m268.03 348.68c-1.7307-6.0774 4.8777 0.88733 0 0zm0.3852-2.0597c2.4264-4.1361 1.4064 2.7019 0 0zm0.6522-1.0701c5.7754-2.6778-1.0149 3.3055 0 0zm1.2142-0.6308c4.339 0.0455-1.424 2.5664-1e-4 0zm1.4575 0.2038c4.1428 3.2371-3.4339 0.82976 0 0zm0.927 1.1428c2.0289 6.1376-3.1417-0.87562 5e-4 0zm0.4207 2.012c0.42004 4.181-2.605-1.3838 0 4e-4zm0.0352 0.646c-0.11042 3.5602-2.46-2.3262 0 0zm-0.0286-1.122c0.23459 4.5403-2.4941-2.1706 1e-4 0zm-1.1243-1.9016c3.2198-2.0226-0.72469 6.5498 0 0zm0 0c-1.097-9.2574 3.6597 3.0751 0 0zm1.1965-4.5302c1.5488 5.9891-3.3741 0.23478-0.31401-0.38186l0.31341 0.37986zm-0.8098-1.3001c3.4922 6.2416-3.8979-0.99208 0 0zm-1.4313-0.692c5.9436 1.2926-3.3962 2.4535 0 0zm-1.4492 0.1192c6.8825-0.21936-2.4886 2.9639 0 0zm3e-3 -1e-3c2.4691 1.3981-3.2922 3.9976 0 0z"/><path d="m276.56 346.5c10.333-1.1321 0.65844 2.4538 0 0z"/><path d="m277.61 344.06c7.6801-1.3631 0.2304 2.5605 0 0z"/><path d="m283.28 346.8c2.2431 1.0645-1.7064 2.0541 0 0zm0.2984 0.3352c3.9096 0.0414-1.3478 2.4326 0 0zm0.9589 0.0378c4.6671-0.0109-2.2067 2.7956 0 0zm0.6765-0.0715c3.6369-0.80526-1.4369 2.7526 0 0zm0.2263-0.1503c3.3328-3.4874 0.24103 3.9433 0 0zm0.3216-0.5187c1.478-4.6707 1.8333 3.0052 0 0zm0.2442-0.9938c0.12834-5.4431 2.6478 2.5759-1e-4 0zm0.8633-2.9033c2.1832 4.2193-3.2109 0.71702-0.40391-0.2973zm-0.8099-0.9906c5.2625 4.7627-4.2892 0.1186 0 0zm-0.9881-0.5003c4.1129 2.2426-2.5574 1.7912 0 0zm-0.9159 0.8693c1.5389-2.7564 1.5336 1.9322 0 0zm0 1e-4c1.879-1.4736 1.8496 4.2921 0 0zm1.7091 0.8968c6.4964 5.7171-3.1202 0.83239 0 0zm1.9826 1.9284c5.3466 4.9982-3.2056 0.86496 0 0zm1.4962 1.6487c1.893 4.1953-2.7946-0.34393 0 0zm-0.5578 0.9972c2.8659-0.60307-1.8202 2.478 6e-4 1e-4l-6e-4 -4e-4zm-0.2079-0.0284c2.6442 1.9602-3.214 0.35583-2e-4 0zm-0.1704-0.5079c3.7636 7.2396-3.9083-2.3393 0 0zm-0.1575-1.1441c0.49007 6.203-3.1034-2.8733 0 0zm-1.2496-1.5234c3.2309-2.1614-0.27564 5.7542 0 0zm0 1e-4c1.0587-5.2616 2.5979 2.331 0 0zm0.4324-1.5463c2.6668-3.8292 2.1455 2.4203-0.0515 0.49902zm1.1199-1.1142c6.2049-1.3673-2.0964 3.4744 0 0zm1.2143-0.3735c8.0785 2.616-2.8984 2.3404 0 0z"/><path d="m290.83 353.22c2.7056 1.9127-1.8515 0.47308 0 0zm0.6344 0.3551c4.4469-1.0196-1.1904 2.877 0 0zm0.5356-5e-3c0.95206-4.0643 1.704 2.7663 0 0zm0.428-2.3629c2.8416 4.4069-3.2712 0.237 0 0zm-1.0413-1.0081c3.8716 2.7884-2.6656 1.8545-0.42405-0.14204zm-0.2719-0.3246c1.5273 3.6254-3.0395-1.1503 0 0zm-1.1268 0.1488c2.8044-3.174 1.6717 2.0627 0 0zm1.1479-0.9355c9.2276-0.73344-2.2579 3.3448 0 0z"/></g><g fill="#ff58c4"><path d="m264.45 404.43c0.77829 2.6-1.7379-0.31594 0 0zm0.2392 0.7504c-0.51708 1.5964-1.7564-1.8545 0 0zm0.092-0.9101c-0.1646 3.4216-1.9121-1.681 0 0zm-0.6753-1.6376c2.9905-1.2532-1.5875 5.0039 0 0zm0-1e-4c2.4543-4.0595 1.304 2.7242 0 0zm0.6326-1.0186c4.4978-5.2498 0.73268 3.4693 0 0zm1.0045-0.6177c5.5847-0.0384-2.0355 2.5358 0 0zm1.2881-0.0821c3.3922 2.5414-2.4678 1.4032-1e-4 0zm1.0328 1.0544c2.5597 4.4421-3.4726-0.8961 0 0zm0.5411 1.3553c1.6883 4.4814-2.8489-0.75472 2e-4 0zm0.387 1.3939c0.56364 2.7004-2.5286-0.89949 0 0zm0.0748-0.1293c0.021 4.0885-2.476-2.3391 0 0zm-0.0306-2.2763c1.1097 7.3658-3.3422-2.2667 0 0zm-0.1581-2.7612c1.9516 8.7912-3.9043-1.9025 0 0zm-0.561-1.7255c2.5594 4.7703-3.2926 0.7241-0.359-0.31106zm-0.7864-1.2755c3.738 5.1383-4.049-0.43228 0 0zm-1.2621-0.8889c5.6279 4.3359-3.8231 0.59166 0 0zm0 0c1.345 3.6386-4.3424 3.3791 0 0z"/><path d="m271.75 402.69c5.4239-0.17471 1.948 2.4988-0.4588 0.0914z"/><path d="m274.47 401.42c-0.62446 1.5888-4.7791-1.9653 0 0z"/><path d="m278.65 404.93c1.9987 0.35817 0.78289 3.3088 0 0zm0.9573 0.7243c3.8848 0.1947-1.2544 2.001 0 0zm0.9875 0.0538c3.0049-0.72402-1.0438 2.4338 0 0zm0.3394-0.1128c2.2335-2.9012 0.48007 2.9714 0 0zm0.1875-0.4126c1.2531-5.8481 2.1672 3.4545 0 0zm1.0977-2.5394c1.2964 5.8122-3.5063-1.3818 0 0zm-0.7638-1.0974c3.4144 5.6621-4.0087-0.89089 0 0zm-1.4907-1.3671c5.741 5.0644-4.2518 0.71457 0 0zm-1.1375-1.0275c3.8174 2.404-2.0733 2.4919 0 0zm1e-4 0c6.0967-0.92548-2.7842 3.3602 0 0zm1.4447 0.0319c10.496-2.627-3.9157 3.8708 0 0z"/><path d="m285.36 403.66c1.6634 0.20457-0.51553 3.1728 0 0zm0.6248 0.9396c2.9481 0.9389-1.7834 1.4407 0 0zm0.5244 0.1356c3.4715-0.20851-1.4819 2.2653 0 0zm0.3333-0.054c3.2037-2.4995-0.16975 3.2848 0 0zm0.3016-0.4009c2.5293-4.9295 1.2296 4.0044 0 0zm0.3391-0.8214c1.361-5.4575 2.1168 3.4293 0 0zm0.8708-2.4901c2.3395 4.0405-3.0058 0.88657-0.39445-0.24201zm-1.015-1.0354c3.9973 4.1319-3.2965 0.54743 0 0zm-1.3048-0.1244c3.1929-0.80372 0.44704 2.9637 0 0zm1.052 0.2706c-0.91628 2.8336-1.8189-2.2294 0 0zm-5e-3 0.2029c4.0377 4.504-3.8189-1.2334 0 0zm0.9048 1.1627c4.6316 4.1523-2.0903 1.734-8e-4 -1e-3zm1.694 1.9417c3.5326 4.483-2.8858 0.28851 0 0zm0.0101 1.2953c3.1187-0.70155-1.0426 2.9622 0 0zm0.1125-0.7967c2.5185 4.8707-3.7649-1.238 0 0zm-0.3652-1.4372c2.4402 6.0656-3.8764-2.3739 0 0zm-0.0561-1.2303c0.23656 5.0609-2.759-2.2188-3e-4 -0.0198zm-0.8153-1.3651c3.2008-0.0516-1.9326 4.0036 0 0zm1e-4 0c4.3796-2.4002 0.21426 3.179 0 0zm1.3931-0.613c4.7668 0.0947-0.79806 3.0643-0.43508 0.23705zm1.6222 0.3492c4.2916 3.8665-3.5295 0.67349 0 0z"/><path d="m290.58 411.68c3.3224 1.12-1.5066 1.4106 0 0zm0.8024 0.2911c2.7074-0.57728-1.0005 2.174 0 0zm0.2917-0.1077c2.6362-2.1006-7e-3 2.7108 0 0zm0.2236-0.2816c1.3914-3.579 1.3968 2.704 0 0zm0.0704-2.558c3.9408 5.0594-3.4217 0.44961 0 0zm-1.31-1.5902c3.3198 1.7216-0.84783 4.2031 0 0zm0 0c4.0875-0.74139-1.1766 2.8706-0.0339 0.0125zm1.0226-0.1831c9.6944 1.3565-2.3238 3.0187 0 0z"/></g><g><path d="m187.62 264c1.4292 0.19715-0.61062 2.0556 0 0zm0.4856 0.5673c3.2298 1.9077-2.2417 0.5952 0 0zm0.6231 0.2357c3.639 0.30383-1.663 1.8848 0 0zm0.578 0.0169c2.5189-1.812-0.40688 2.4137 0 0zm0.2513-0.3036c1.3559-4.4865 1.4657 2.6839 0 0zm1.0018-2.3128c0.5616 5.3428-2.5106-1.4601 0 0zm-0.3687-1.0698c1.5183 3.5175-2.5071-0.26876 0 4e-4zm-0.5304-0.6583c1.9365 2.1119-1.8756 0.76553 0 0zm1e-4 1e-4c0.70079 1.6465-1.9712 0.22778 0 0zm-0.0259 0.5984c0.62234 2.4088-1.4319-1.1019 4e-4 0zm0.1585 0.5986c2.8 2.772-1.27 1.0582 0 2e-4zm1.0157 1.2508c5.0706 3.459-1.9633 1.4191 0 0zm1.5946 1.4614c3.6422 1.8412-2.2605 1.4675 0 0zm1.0133 0.8135c1.2263 2.2872-1.8196 0.0575 0 0zm-0.4154 0.5438c2.1726-0.30835-1.4274 1.7312 0 0zm-0.4136-0.2551c2.533 2.0826-2.4506 0.0347 0 0zm-0.3817-0.7154c1.838 3.4893-2.7764-0.80831 0 0zm-0.1867-1.4708c1.0081 4.3644-2.5519-0.78353 0 0zm-0.8193-1.7886c2.556-0.61403-1.0215 4.8261 4e-4 2e-4zm0 0c3.3954-3.6372 0.49474 2.7524 0 0zm0.8058-0.9097c4.7356-1.3888-1.4215 2.7998 0 0zm0.9153-0.3501c5.7675 1.4498-1.7281 1.9953 0 0z"/><path d="m190.38 271.15c-0.75586 1.475-0.13945 0.47141 0 0zm-0.4704-0.498c2.005 0.79114-1.6291 1.7768 0 0zm-2e-4 0c2.6087 0.55782-1.6189 1.8261 0 0zm-9e-4 0.0223c2.4021-0.0628-1.3141 2.2265 0 0zm-0.3371 0.1359c3.0338-0.44813-1.236 2.4258 0 0zm0.3496-8e-3c1.0867 2.2085-2.4863-0.68458 0 0zm-0.468-0.7453c2.3862 0.354-1.8327 2.8487 0 0zm0 0c4.609-0.75178-1.4766 2.4609 0 0zm0.9356-0.2257c2.9691 1.5318-2.065 1.2265 0-2e-4zm0.8486 0.5582c1.3429 5.4757-2.6282-1.7718 0 0zm-0.7826 1.4952c2.18-3.0573 0.49708 3.1011 0 0zm-0.2957 0.1546c3.6894-0.65171-2.0321 2.6531 0 0zm0.1266-0.0129c1.0563 2.703-2.451-0.99318 0 0zm-0.0941-0.5484c0.16909 3.3303-2.0838-1.7906 0-2e-4zm-1.0308 1e-3c1.4753-3.656 1.667 2.0108 0 0zm0.5265-1.0091c3.9376-0.67122-1.0805 2.4354 0 0zm0.9775-0.2011c3.1415 3.0802-2.5488 0.57596 0 0zm0.7734 0.6936c4.3263 5.1648-3.9975-1.4731 0 0zm-0.7528 1.0277c2.5668-2.1244-0.37548 3.03 0 0zm-0.45 0.0944c3.5276-0.0896-1.7762 2.0278 0 0zm-0.6966-0.9293c3.6656 3.4407-2.4612 1.4128 0 0z"/><path d="m190.81 279.47c0.33527 4.6952-1.567-1.5979 0 0z"/><path d="m190.58 274.8c0.33586 2.9141-1.2718-0.57416 0 0z"/><path d="m192.23 301c0.34655 1.5196-1.3609-0.60798 0 0zm0.0714 0.3817c-0.87775 0.73549-0.28923-1.2579 0 0zm0.1315-0.2674c-1.0954 1.3753-0.47685-1.7736 0 0zm0.1592-0.8754c-0.6179 3.2346-1.7399-2.0436-1e-4 0zm-0.0108-0.9151c-0.19569 4.9692-2.4237-2.6814 0 0zm-0.0235-0.9112c-0.0626 4.7411-2.689-2.3151 0 0zm-0.0279-1.0334c-0.26192 5.3466-2.5479-2.638 0 0zm-0.0158-1.0047c-0.39387 5.3588-2.4654-2.6789 0 0zm-0.1403-1.0112c0.38823 4.4531-2.6286-1.6442 0 0zm-0.16-1.0355c0.3728 5.4491-2.8166-2.398 0 0zm-0.0605-1.009c-0.0879 5.2372-2.6014-2.4934 0 0zm-0.0505-1.0359c1.3067 6.5508-3.0749-2.5768 0 0zm-0.0255-0.7169c-0.22761 4.5012-2.4472-2.4748 0 0zm-0.0346-0.9686c1.646 7.2307-3.0754-2.7041 0 0zm-0.0714-0.9127c-6e-5 4.3595-2.3191-1.8102 0 0zm-0.0575-0.9234c-0.0715 4.438-2.274-1.9237 0 0zm-0.0903-1.0832c0.7891 3.7023-2.7141-0.42579-0.1966-0.35019zm-0.086-0.9262c3.1806 8.9446-3.3423-2.5495 0 0zm-0.0712-0.8154c0.14973 3.639-2.2926-1.5447 0-4e-4zm-0.057-0.514c-0.17864 3.7255-2.3248-2.0932 0 0zm-0.0722-0.5486c-0.1364 3.256-2.0619-1.5622 0 0zm-0.1454-0.5862c0.55434 3.7468-2.5708-1.5154 0 0zm-0.0754-0.1985c0.0346 2.8381-2.2867-1.371 0 0zm-0.165-0.2229c0.71381 2.0497-2.1771-0.10211 0 0zm0.1888 0.4084c-1.1853 2.3544-1.4457-2.1542 0 0zm-6e-3 0.058c-0.30974 3.1139-2.0264-2.0464 0 0zm0.071 0.1974c1.4625 3.706-2.7678-1.1699 0 0z"/><path d="m192.31 301.57c1.1815-0.746 0.14063 1.7622 0 0zm0.9658 0.2627c-1.6746 1.8739-0.75661-2.2454 0 0zm0.1005-1.3751c-0.29301 5.1419-2.247-2.3181 0 0zm0.0107-1.535c0.66167 5.5233-3.1661-2.231 0 0zm-0.0249-1.312c1.2274 5.9092-3.2642-2.6335 0 0zm-0.083-1.5676c1.0457 4.8813-3.193-0.40606-0.20935-0.39299zm-0.0833-1.0727c1.813 7.6056-3.3054-2.9628 0 0zm-0.063-1.0259c-0.16234 5.5108-2.5978-2.6705 0 0zm-0.069-1.3223c0.8479 4.4722-3.0683-0.61762-0.18544-0.40679zm-0.0929-1.8614c1.2242 6.7949-3.1636-2.1962 0 0zm-0.1305-1.5705c0.89929 6.2491-3.257-2.1329 0 0zm-0.0738-0.6683c-0.0913 4.3937-2.614-2.3294 0 0zm-1.1407-1.21c3.0753-1.717-0.32722 4.5132 0 0zm0 0c-0.8872-5.1339 2.9366 2.3992 0 0zm1.0055-2.007c0.15517 4.2283-2.4939-2.0103 0 0zm-0.9102-0.6728c2.8151 0.868-1.0735 2.1439 0 0zm0.1527-0.0548c2.6577 1.3055-2.4368 1.2816 0 0zm0.1163 4e-3c0.95068 2.5876-2.4014-0.67934 0 0zm-0.3022-0.3499c1.4774 2.3271-2.4673 0.0727 0 0zm-0.7925 0.154c1.9916-1.16 0.37956 2.4265 0 0z"/><path d="m192.35 300.39c1.6796 3.5052-2.0389-0.38515 0 0zm0.2964 0.7544c0.78416 1.7096-1.657-0.10214 0 0zm0.2484 0.2681c-0.41369 1.7016-1.679-1.3523 0 0zm-0.0381-0.4685c0.0772 2.8235-2.0611-1.6032 0 0zm-0.0303-0.4357c-0.0444 2.9177-2.1633-1.7798 0 0zm-3e-3 -0.113c-0.76577 2.116-1.6785-1.7949 0 0zm-0.0251-0.1377c-0.58884 2.0306-1.6988-1.1877 0 0zm0.0204 0.0748c0.18719 2.642-2.2811-1.4427 0 0zm0.0668 0.3373c0.73285 3.1128-2.4598-1.2761 0 0zm0.1588 0.467c0.44504 2.0246-1.9355-0.59377 0 0zm-0.3587-0.1149c1.9033 1.9614-2.8439 0.27082 0 0zm-0.2856-0.253c1.8749 1.9819-2.6456 0.34377 0 0zm-0.0944-0.0788c1.0961 1.9413-2.4375 0.0658 0 0zm0.0724 0.0763c5e-3 2.1121-1.9028-0.64819 0 0zm-0.027-0.0315c1.2215 2.046-2.5453-0.0547 0 0zm0.1573 0.1696c2.1829 2.3577-2.7752-0.0822 0 0z"/><path d="m192.07 300.99c1.1707 0.56169-1.09 0.82562 0 0zm-0.2527 0.1226c0.93634-0.63145 0.19388 1.4018 0 0zm0.4013-0.0592c1.499 1.2001-1.5565 0.52873 0 0zm0.2412 0.1461c1.7982 1.5216-1.8303 0.45356 0 0zm0.3557 0.2802c0.66721 1.6007-1.8824-0.21472 0 0zm0.056 0.0688c0.74698 1.4727-2.1082-0.14983 0 0zm-0.7268-0.559c2.1076 1.2662-1.1307 1.073 0 0z"/><path d="m191.2 299.64c2.4809-1.7812-0.50966 4.6065 0 0zm-3e-4 5e-3c0.1342-4.3468 2.2871 1.664 0 0zm0.0376-1.8788c2.3637-1.9138 0.0961 4.0007 0 0zm0 0c-0.67013-6.4564 2.7973 2.0922 0 0zm0.9974-4.1956c1.7266 7.0236-4.0178-1.3091 0 0zm-0.0836-1.2637c0.704 4.3668-2.6655-1.0207 0 0zm-0.0523-1.0028c0.0526 4.7226-2.3221-2.0045 0 0zm-0.0408-0.9836c0.22809 3.7764-2.2335-1.2695 0 0zm-0.0567-0.7924c0.084 4.0799-2.2591-1.8692 0 0zm-0.9374-0.8115c2.1203-1.2405-0.19498 3.0811 0-4e-4zm0.8314-1.0702c0.46556 3.755-2.2838-1.088 0-3e-4zm-0.9382-0.8819c2.0992-1.1689-0.19402 3.2281 0-3e-4zm0.8407-0.5459c-0.0565 2.5904-1.8451-1.2017 0 0zm-0.0812-0.3998c0.41552 2.5259-2.1962-1.066 0 0zm-0.0518-0.1427c0.15197 2.1198-2.1418-1.0546 0 0zm-0.5918-0.2342c1.6482 0.0395-0.77684 1.6072 0 0zm0.6114 0.4141c-0.0479 2.2156-1.757-1.2182 0 0zm2e-3 0.4737c0.99864 5.7902-2.6046-1.1284 0 0zm0.1136 1.8909c1.1102 6.4461-2.7417-0.83776 0 0zm0.1324 2.2556c0.47237 6.6784-2.5404-1.9088 0 0zm0.0383 1.851c0.55459 4.7085-2.3696-1.1756 0 0zm0.0387 1.4472c2.3887 6.359-2.9945-2.1423 0 0zm0.0985 1.1271c0.57373 4.7817-2.3505-1.483 0 0zm0.1096 1.2428c0.23122 3.3694-2.0836-1.1729 0 0zm-0.8273 0.9068c2.4653-1.3156-0.7032 3.4746 0 0zm0.8967 1.0055c0.39294 4.3785-2.2558-1.591 0 0zm0.0737 1.0509c0.15764 3.6774-2.0952-1.7034 0 0zm0.0337 0.7703c-0.41491 2.3081-1.7464-1.7552 0 0zm-0.0324 0.1114c-0.51104 1.8777-1.5724-1.1034 0 0zm-0.0616-0.3795c0.35146 2.8532-2.1831-1.4249 0 0zm-0.1147-1.0545c0.56643 4.5168-2.3253-1.7462 0 0zm-0.0622-1.0486c0.32868 4.5328-2.3071-1.8747 0 0zm-0.0619-0.9704c0.30606 4.3468-2.3212-1.8117 0 0zm-0.0815-1.2497c0.45976 4.9965-2.457-1.7154 0 0zm-0.0591-1.2637c0.45175 4.4102-2.3834-1.233 0 0zm-0.0707-1.3339c1.4119 5.1571-2.9322-1.5945 0 0zm-0.1035-1.0745c0.5453 3.78-2.2196-0.86446 0 0zm-0.1275-0.7915c0.44556 3.862-2.142-1.4351 0 0zm-0.0921-0.8993c0.43552 3.3812-2.029-1.0841 0 0zm-0.0508-0.7742c0.24905 3.512-2.0165-1.4132 0 0zm-0.0568-0.6738c0.24208 3.3314-2.0167-1.4664 0 0zm-0.0725-0.8414c0.36816 3.1459-1.9904-1.0114 0 0zm-0.0394-0.7374c0.15227 3.6117-1.9742-1.7362 0 0zm-0.0229-0.6574c0.23451 2.5101-1.8636-0.97038 0 0zm-0.0193-0.7891c0.0992 3.1595-1.9197-1.2445 0 0zm-0.0119-0.9087c0.11112 3.9112-2.0572-1.5998 0 0zm-0.0505-0.5435c0.16139 2.4696-1.8731-1.0363 0 0zm-0.0296-0.1451c-0.27492 2.0979-1.8682-1.3572 0 0zm-0.0357-0.1043c-0.34653 1.9911-1.7158-0.97659 0 0zm-0.8142 0.2594c0.9224-1.8318 1.361 1.7107 0 0zm0.7775-0.2421c1.1751 2.8706-2.4762-1.0929 0 0zm-0.0146-6e-3c2.6408 1.8012-1.9464 0.81996 0 0z"/><path d="m191.19 284.24c0.98832 0.21646-0.68356 1.1567 0 0zm2e-3 -6e-4c1.9948 0.91165-0.26276 1.2852 0 0z"/></g><g transform="matrix(.54545 0 0 -.54545 0 587.52)" fill="none" stroke="#ffffb5" stroke-linecap="round" stroke-linejoin="round" stroke-miterlimit="10" stroke-opacity=".5" stroke-width="5.1968"><path d="m272.94 577.36c33.706-11.371 60.268-37.144 92.948-50.772 13.277 0.0377-17.111 14.141-22.6 17.319-6.3049 2.6051-25.725 14.687-8.5512 4.0542 8.6192-5.7822 23.435-16.152 30.233-17.292-10.006 4.4726-29.586 17.4-34.026 17.795 9.1842-7.9299 24.699-17.416 32.657-22.184-8.7876 4.1646-22.524 14.986-28.873 16.224 6.1624-6.4867 19.478-16.335 24.209-19.108-6.8397 3.9312-22.106 14.914-24.273 17.117 7.1874-6.2245 18.245-11.232 3.8167-1.3543-6.8618 3.8986-28.008 20.7-28.851 19.401 7.4468-6.0877 25.316-15.509 28.908-17.43-7.8268 5.4631-22.34 15.163-26.18 18.535 7.0354-4.6704 24.488-15.63 27.647-13.853-8.312 5.117-20.548 12.817-27.707 15.319 5.6559-4.4476 27.153-14.56 26.622-12.072-8.9061 5.8584-24.006 11.383-30.689 15.963 5.5201-3.164 30.221-10.592 10.445-3.8128-8.9039 2.2292-28.891 9.1272-30.896 11.87 6.1082-2.3949 36.766-10.798 13.059-4.8499-6.7021 1.6068-28.179 8.7375-8.5972 2.9897 21.052-6.1041 43.025-12.774 62.054-22.585-6.333 4.311-37.667 13.15-32.155 13.324 17.856-5.4807 34.468-14.065 50.493-23.384-6.5954 4.3657-34.464 17.586-30.376 16.357 7.0759-2.9378 19.047-8.8245 23.668-10.64-10.812 8.003-31.127 14.428-39.843 18.428 18.317-7.9011 38.064-18.213 53.229-29.172-14.414 6.7716-27.998 15.797-42.778 21.618 11.329-9.4772 24.494-17.66 38.162-23.304-8.7473 4.1034-35.091 21.21-33.164 18.149 13.654-9.701 27.418-20.126 42.857-26.663-6.3848 4.0157-23.86 17.853-25.344 13.761 12.347-10.688 25.623-20.633 40.364-27.771-13.946 8.9606-29.154 17.588-42.118 27.113 16.756-15.274 34.703-29.27 54.117-41.012-17.412 9.551-33.73 21.566-50.445 31.933 9.1432-10.239 20.091-19.04 31.546-26.419-12.99 7.975-25.692 18.581-37.696 26.592 3.0649-4.5875 23.52-19.835 20.357-17.355-9.2717 5.0275-17.855 15.429-26.058 19.294 19.382-15.687 40.594-29.138 60.815-43.722-2.6933-1.3781-26.952 25.832-24.452 16.818 3.7784-5.5103 24.876-20.317 8.5231-7.8493-6.6549 4.8636-34.192 30.434-14.902 10.591 6.1083-6.0601 14.792-11.287 2.7244-1.969-8.1469 5.9699-21.088 19.514-5.7158 4.814 11.862-12.569 26.05-22.68 39.104-33.643-0.0281-6.5236-18.787 23.392-18.412 15.967 3.315-4.5898 25.211-22.645 8.6389-9.9114-5.7896 2.6605-20.091 19.952-7.0514 6.9496 5.0854-4.5998 25.23-25.761 24.641-18.724-6.8548 9.9401-23.513 27.347-28.566 30.377 9.1105-7.8483 25.433-22.132 32.956-22.904-7.6741 7.227-25.379 21.163-28.216 24.858 9.2243-5.5719 27.17-23.889 32.647-21.55-10.53 9.6162-23.595 20.326-33.657 28.139 11.903-8.603 25.63-25.775 38.781-26.494-12.434 11.883-26.262 22.963-38.893 34.416 12.558-11.352 25.418-25.339 41.796-30.089-11.685 10.196-26.286 19.304-36.214 30.368 9.2898-6.7163 24.473-22.823 31.147-22.766-8.6041 7.1687-21.751 20.061-27.532 25.24 4.3271-4.7642 24.141-21.214 22.13-18.316-6.8723 4.7629-23.97 19.742-7.089 6.6641 5.1459-4.3277 17.364-11.771 4.8858-2.5499-14.546 12.369-31.005 22.976-48.353 30.525 7.3978-5.1892 27.804-25.897 29.329-20.826-8.088 5.718-21.481 15.789-28.241 17.248 5.1522-6.9941 23.679-22.908 26.188-20.723-6.023 6.6499-33.916 17.446-12.62 4.7803 6.6481-4.4325 20.682-9.481 6.6822 0.64597-12.542 10.834-28.412 20.868-39.971 30.921 11.642-4.7519 28.14-15.275 35.447-19.628-6.7547 5.4588-26.246 13.586-27.468 16.94 13.974-7.6535 28.237-15.23 41.005-24.744-14.054 10.54-29.62 20.402-46.343 25.506 22.496-18.484 43.388-39.058 66.002-57.506 7.396-14.495 11.564-32.641 23.259-45.292 9.6639-2.7839-7.5945 19.44-14.77 19.597-11.735 0.50182-16.932 29.398-4.2604 10.397 9.3595-9.2565 19.67-21.172 29.246-28.11-7.8948 8.4504-27.261 27.685-28.659 30.572 9.0346-9.0777 20.394-23.497 30.766-26.264-7.8999 11.863-20.589 21.049-30.316 30.442 8.7417-8.4479 22.389-23.402 30.559-25.792-7.7585 7.4905-23.262 20.811-26.95 25.896 7.4744-6.0251 21.24-23.042 27.236-21.828-5.7543 6.332-27.556 29.118-26.225 27.293 6.3139-6.4692 25.482-25.935 26.929-22.349-8.8019 8.4684-21.171 21.978-27.865 27.797 8.1275-8.5343 20.789-21.931 27.827-25.747-11.298 12.101-23.616 23.344-35.087 35.182 14.333-10.748 24.427-26.064 37.858-37.553-8.9204 12.93-21.389 22.988-31.367 35.09-12.366 10.175 10.377-16.001 12.362-19.528 6.8519-8.525 22.734-29.755 26.314-30.751-2.4159 5.9952-18.314 17.768-5.0316 6.0154 14.413-14.004-10.777 15.074 1.7237 0.9685 14.479-14.698-22.06 21.988-8.5035 2.3208 5.9174-6.9649 10.642-20.096-1.1669-8.0506-6.4023 7.1188-17.423 14.626-5.5651 1.0692 4.0169-5.0923 16.256-21.72 3.9608-7.8264-4.1165 5.2609-23.428 24.581-11.924 8.1306 4.3079-5.0537 21.075-29.703 6.075-12.329-10.449 11.721-19.983 24.485-30.867 35.666 3.0287-8.1826 22.73-31.806 8.8016-11.012-4.9145 7.0699-21.024 30.27-21.376 24.95 5.282-9.6097 18.801-25.652 25.395-26.53-5.2839 5.3557-21.446 23.948-18.467 22.096 4.0691-4.898 24.903-25.432 21.308-20.378-9.8252 7.1506-22.106 22.039-31.59 23.166 4.703-9.7048 16.963-22.687 21.952-27.854-7.9955 7.9986-26.143 25.565-30.237 28.076 4.6085-6.653 16.791-18.611 19.53-20.983-12.248 11.605-22.21 26.293-35.304 36.53 4.7586-5.5627 27.509-25.983 9.903-9.9954-13.215 9.65-21.704 25.171-35.651 33.278 12.986-12.039 25.588-24.59 38.499-36.847 19.826-22.158 39.791-44.446 59.981-66.122-4.6287 7.1171-17.285 22.589-23.64 33.114-11.187 13.08 16.217-16.885 22.493-21.459 4.9783-4.8932 13.114-11.162 2.6857-1.4972-3.9752 3.8135-16.655 17.194-17.622 16.01 5.2382-10.392 26.022-21.793 22.741-31.293-11.107 6.0516-23.971 30.205-30.137 32.232 7.7144-10.92 18.554-28.023 23.956-36.007-5.6538 7.5412-20.832 29.52-22.664 28.15 0.76884-3.4235 18.272-23.577 13.149-17.84-10.648 14.364-20.337 31.579-31.528 44.215 4.3556-6.7508 21.496-30.891 21.956-29.363-3.764 6.2012-22.691 27.71-19.186 25.01 11.505-12.79 27.263-22.531 35.935-37.47-5.6627-0.47493 4.389-18.952 12.69-20.202 14.857-4.9805-4.0538 13.001-0.9315 22.56 3.4587-4.7441 1.6992-33.482 1.9928-13.111-1.5308 8.7678-3.0631 41.141 0.91277 16.981 0.71654-5.2874 3.5138-31.394 4.5321-26.035-0.2456 7.592-2.0528 42.614 0.28464 17.747-0.3652-6.6687 1.936-40.972 2.1343-18.003 0.51526 6.7459-0.18216 31.862-0.26685 30.262 0.53041-10.301 0.0969-35.401 2.3464-37.975 0.0447 12.868 0.0178 33.116 0.0259 42.301 0.67108-11.144-0.21345-28.598 0.7308-36.489-1.1999 13.241-0.31558 28.33-0.5237 40.617 0.55127-5.8489-2.7071-23.644-2.0391-7.1577-1.2415 19.035-2.0242 1.5257-1.7358-6.7693-0.76071 4.6392-4.1411 23.508-1.4434 7.2445 4.2882-21.822-7.0954 24.466-1.0432-0.5082 5.7921-26.267-11.495 25.965-4.8618-0.2746 1.6424-7.2968 5.2479-27.69 0.6912-8.584-2.4266 7.1596-7.9821 28.735-1.3235 9.0428 2.3428-9.3615 5.075-17.289 3.8228-2.6889-1.3628 7.594-0.92615 23.746 3.3709 7.0119 5.7311-9.9601-1.3878 22.374 3.0826 2.5289 0.87343-9.128 2.1937 11.344 1.1642 0.1782-1.9713-15.048 0.40291-29.994-0.3304-44.998-1.8951 7.7891-8.3546 33.008-2.9115 10.945 0.6706-5.7383 3.4833-25.09-0.18466-7.849-1.1342 5.3764-8.2771 30.693-3.457 11.463 0.85221-7.4304 4.4596-25.211-0.24746-6.9789-2.5344 6.6637-5.5705 16.238-0.69234 2.5005 1.8393-6.8375 4.4059-16.727 0.4058-3.4954-1.8921 6.4809-10.603 26.547-3.3991 7.9765 2.9277-7.9555 8.3306-20.408 0.26713-5.2347-2.7868 4.9929-9.0765 17.662-3.4625 4.2681 1.8544-7.7697 13.049-27.776 3.3858-9.5269-2.8202 4.9392-13.675 27.833-5.4423 9.2504 1.6904-6.2678 12.532-28.502 2.4321-10.529-3.0834 5.4758-13.259 25.031-5.0518 7.9936 4.2942-7.5805 9.8986-23.003 1.2744-6.3499-4.1689 6.8011-13.925 25.107-5.0954 6.8416 11.317-20.102-4.3284 5.7341-7.426 11.834 3.9978-6.7003 13.591-23.183 2.9188-6.9889-5.3873 8.7904-8.2253 11.894-0.6607 1.8239 6.4908-7.0754 14.513-22.453 17.412-27.534-6.7233 12.628-4.984 7.6674-0.2965-2.1721 7.2259-16.854-5.5106 21.541 2.658 2.756 7.9055-19.863-2.5374 23.711 4.9281-0.7117 4.6198-14.791-4.8198 21.014 0.9992 3.4341 4.2848-17.403 1.7774-0.27401 0.2401 6.9122 1.209-5.2181 3.7174-23.087 3.0101-6.5068 0.0969 9.039-1.9848 15.807 4e-3 2.5758 0.93202-6.6202 1.871-17.344 0.43224-3.297-2.0918 12.543-1.6165 36.666-4.4325 43.408-0.86124-7.4322-0.40366-24.019-4.9822-7.2326-2.8472 6.3133-10.035 27.513-5.3554 8.3188 1.2994-8.308 3.5257-26.148-0.54586-7.5969-1.789 6.0447-9.004 24.545-2.4695 7.8653 2.4649-6.3332 3.3123-13.193 5.5996-19.539" style="mix-blend-mode:multiply"/><path d="m483.32 353.42c-0.16642 3.8165-0.49209 14.574-0.4812 20.616 0.0615 13.661-0.15818-2.2958-0.2731-6.7671 0.56393-6.4919 0.81507-16.437-1.5759-4.7596-0.86332 5.2456-6.0913 9.7714-6.3997 14.561 2.6734 4.5636 4.9876-8.6508 4.6794-1.5896-1.0993 3.93-2.325 2.2762 0.5154 2.5696 0.48265-5.9046-5.6067-2.9946-7.2808-1.8105 2.2016-1.7444 9.7165-16.201 6.4861-10.602-3.7213 7.1497 2.5921-9.7098 3.1075-7.6009-0.3483 3.5115-1.7791 20.402-0.1702 7.8071 2.4974-7.9049 0.35081 3.7691 0.5161 5.727" style="mix-blend-mode:multiply"/></g><g><path d="m192.59 394.1c1.8786 1.5311-2.7383 0.11119 0 0zm0.0424-0.0665c-0.68947 2.3356-1.4421-1.9467 0 0zm-1.0768-0.4199c1.9534-1.7952 0.71511 2.7667 0 0zm0 0c1.7803-2.4227 1.2058 2.3888 0 0zm0.5328-0.6078c2.8999 0.33081-1.6452 2.3161 0 0zm0.6405 0.0911c1.9228 2.3142-2.5671 0.57179 0 0zm0.4569 0.6208c0.22969 3.7996-2.4391-1.6172 0 0zm-0.9064 0.641c2.635-1.4256-0.45721 2.7742 0 0zm0.0495-0.048c3.0855 1.071-2.8558 1.4827 0 0zm0.0354 0.0125c1.7281 2.6459-3.2283-0.4819 0 0zm0.0213-0.0961c-0.15842 4.0405-2.3472-2.684 0 0zm-0.6061-0.9288c2.7018 0.77631-2.1762 2.8003 0 0zm0 1e-4c3.2709 0.0305-1.4492 2.3662 0 0zm0.5507-0.0976c3.1739 1.769-2.3331 1.5331 0 0zm0.7574 0.3923c1.436 3.5659-2.983-0.73158 0 0zm0.3413 0.7426c-0.56091 3.3186-2.0967-2.1576 0 0zm-1.1012 0.3604c2.4246-1.4816-0.31133 2.461 0 0zm-0.1305 0.0628c3.6612-0.20849-2.5566 2.3777 0 0zm-0.0191-0.0472c1.7132 2.4742-2.8096-0.4127 0 0zm-1.1824-0.253c1.8399-2.0441 1.1195 3.3605 0 0zm0 0c1.7548-3.415 1.5785 2.3714 0 0zm0.4778-0.898c4.5428-0.93059-1.5825 2.8105 0 0zm0.8067-0.2244c3.0455 1.3534-2.1529 1.5652 0 1e-4zm0.8117 0.388c1.5128 2.8859-2.6001-0.23954-0.0225-0.022zm0.3665 0.8264c-0.51923 3.4175-2.0138-2.221 0 0zm-1.033 0.505c2.0622-1.7536 0.0663 2.4344 0 0zm-0.0993 0.0735c3.3108-0.8701-1.574 2.7936 0 0zm-0.1576 0.0283c3.4348 0.50441-2.3114 2.0253 0 0zm-0.1049-0.0163c2.106 1.3006-2.3616 0.91894 0 0zm0.0282-0.0519c1.0219 2.7686-2.6443-0.76555 0 0zm-0.0675-0.256c0.048 4.7516-2.6099-3.0586 0 0zm-0.1419-1.1931c1.796 1.8817-3.0045 2.1268 0 0z"/><path d="m192.06 395.23c1.761 1.3462-3.0842-0.0907 0 0zm-0.085-0.2626c0.40672 2.3218-2.0639-0.88544 0 0zm-0.0281-0.1546c-0.22339 3.122-2.0701-2.025 0 0zm-0.0184-0.3c-0.76766 2.8351-1.7271-2.1508 0 0zm-0.9705-0.3687c1.8872-1.5934 0.62384 2.6602 0 0zm-1e-4 1e-4c1.6156-2.288 1.143 2.3869 0 0zm0.2347-0.4073c2.5271-1.3404-0.37507 2.82 0 0zm0.123-0.1329c2.6316-1.5531-0.24551 2.7451 0 0zm0.319-0.2548c2.6908-0.39432-0.87113 2.1762 0 0zm0.4271-0.1522c2.3364 0.41803-1.5259 1.8364 0 0zm0.5359 0.1003c1.2876 1.9546-2.1099 0.11736 0 0zm0.0577 0.032c2.1308 1.475-2.4238 1.0286 0 0zm0.3481 0.2373c1.1267 2.1505-2.619-0.19515 0 0zm0.166 0.2042c1.0322 2.291-2.4017-0.35118 0 0zm0.1895 0.284c1.016 2.4391-2.4861-0.5814 0 0zm0.1822 0.3783c0.38205 2.5812-2.176-1.0951 0 0zm0.0832 0.4128c-0.12553 2.508-1.936-1.5397 0 0zm-0.8332 0.3429c1.6392-1.4124 0.16348 2.0129 0 0zm-0.1765 0.1779c1.9262-1.3566 0.0148 2.3668 0 0zm-0.0186 7e-3c1.8457-0.11452-0.67589 1.5151 0 0zm-0.0567 0.0301c1.701 0.0484-0.70439 1.4274 0 0zm-0.1516 0.1348c2.0105-0.81976-0.34907 1.6749 0 0zm0 1e-4c1.4425-1.1492 0.32744 1.6379 0 0zm0.0555-0.1086c1.5696-1.9228 0.65116 2.095 0 0zm0.1019-0.2502c1.1714-2.2227 1.1523 2.203 0 0zm0.0887-0.2577c1.1068-2.0929 1.1891 2.1739 0 0zm0.0332-0.1622c0.48251-2.7025 1.7345 1.986 0 0zm0.8229-0.8753c0.12729 2.3055-1.888-0.80965 0 0zm-0.2865-0.3625c1.5753 2.0312-2.3833 0.0546 0 0zm-0.0968-0.0919c0.68948 2.0241-1.8686-0.46 0 0zm-0.0563-0.0964c0.17505 1.8848-1.6433-0.65946 0 0zm-0.0759-0.093c0.30114 1.6092-1.567-0.27556 0 0zm0.1205 0.26c-1.1769 1.7524-0.75562-1.4782 0 0zm-0.0275-0.0826c0.81096 3.0503-2.5063-1.9481 0 0zm0.0143 0.015c1.6376 2.2046-2.4214-0.2208 0 0zm0.2385 0.3578c0.73732 2.3021-2.1134-0.72561 0 0zm0.1374 0.3822c0.21672 2.2664-1.9005-1.1954 0 0zm0.0516 0.3272c0.011 2.298-1.7463-1.3764 0 0zm-0.7053 0.5038c0.66076-1.6738 1.0656 1.3878 0 0zm-0.0604 0.1462c0.99587-1.4904 0.69497 1.6098 0 0zm-0.0953 0.2076c1.2123-1.7316 0.71976 2.0668 0 0zm-0.0936 0.2558c0.8811-1.5531 0.98087 1.292 0 0z"/><path d="m191.82 387.68c1.9191 1.0009-0.72887 5.1805 0 0z"/><path d="m191.79 384.58c-0.36271-6.1286 2.0515 1.1524 0 0z"/><path d="m192.27 376.33c1.5373 1.052-0.62096 4.5687 0 0z"/><path d="m192.49 370.38c0.8321 5.1653-1.9822-0.74415 0 0z"/><path d="m191.99 366.59c2.0558-0.0305-0.81806 4.3322 0 0z"/><path d="m192.58 361.79c0.65226 5.1906-1.7757 0.3004 0 0z"/><path d="m192.32 356.88c1.2664 1.8826-0.95561 4.4678 0 0z"/><path d="m192.72 350.38c0.64282 6.7016-1.5995 0.0361 0 0z"/><path d="m192.62 346.13c0.2762 3.5539-1.39-1.133 0 0zm-0.535-0.9422c1.5497-0.92783-0.39132 3.0298 0 0zm0 0c-0.17399-2.7904 1.2501 0.92731 0 0z"/><path d="m192.02 340.67c-0.43131-4.6314 1.5969-2.704 0 0z"/><path d="m192.03 332.38c1.4649 1.2435-0.66826 4.6579 0 0z"/><path d="m191.94 326.94c2.3301-0.35466-1.5842 5.637 0 0z"/><path d="m192.04 320.47c0.84365 6.0373-1.0646 2.084 0 0z"/><path d="m192.04 316.56c0.65626 3.6038-1.5954-0.58365 0 0zm-0.2288-1.1697c1.1337 2.6342-1.2835 0.61436 0 0z"/><path d="m191.47 309.84c1.6505 0.77888-0.73948 3.6493 0 0z"/><path d="m191.94 305.44c0.15872 3.8722-1.2503-1.262 0 0z"/></g></g></svg>
