<?xml version="1.0" encoding="UTF-8"?>
<svg width="221.27" height="197.55" version="1.1" viewBox="0 0 221.27 197.55" xml:space="preserve" xmlns="http://www.w3.org/2000/svg" xmlns:cc="http://creativecommons.org/ns#" xmlns:dc="http://purl.org/dc/elements/1.1/" xmlns:rdf="http://www.w3.org/1999/02/22-rdf-syntax-ns#"><metadata><rdf:RDF><cc:Work rdf:about=""><dc:format>image/svg+xml</dc:format><dc:type rdf:resource="http://purl.org/dc/dcmitype/StillImage"/><dc:title/></cc:Work></rdf:RDF></metadata><defs><clipPath><path d="m0-1.0712e-5h455.04v587.52h-455.04z"/></clipPath></defs><g transform="matrix(1.3333 0 0 -1.3333 -177.05 577.96)"><g transform="matrix(.54545 0 0 -.54545 0 587.52)" fill="none" stroke="#000" stroke-linecap="round" stroke-linejoin="round" stroke-miterlimit="10" stroke-width="1.8189"><path d="m247.09 285.06v263.88"/><path d="m247.09 548.94c98.19-0.5166 196.38-1.0332 294.57-1.5498"/></g><g><path d="m133.02 427.98c1.869 0.13679-0.54333 1.7065 0 0zm0.5228 0.2267c0.76617 2.3455-2.0383-0.34427 0 0zm0.1738 0.4662c2.6962 5.24-2.8309-0.27383 0 0zm0.7167 1.5668c4.7402 6.4113-3.9432-0.84095 0 0zm0.8635 1.7104c2.2255 3.8272-3.3833-0.91858 0 0zm-0.2776 0.3595c2.89-3.583 0.0328 3.7692 0 0zm0.1862-0.5054c0.85761-3.457 5.0843-8.1593 1.796-1.5116-0.19827 0.60796-1.2468 3.6797-1.796 1.5116z"/><path d="m294.22 288.69c1.4378 0.86797-2.1666 1.8958 0 0zm0 0c3.078-2.9064 0.76726 3.4069 0 0zm1.2145-0.4268c6.0672-2.1281-0.82527 3.0256 0 0zm1.6528-0.5149c3.9724-2.6656-0.54551 3.0952 0 0zm-2.1172-2.451c7.0489 2.2338 2.4624 4.3905 0 0z"/><path d="m157.31 385.41c2.804-2.2352 1.412 1.8422 0 0zm1.1583-0.6548c6.0603 0.17575-2.0682 2.8819 0 0zm1.3678-0.0323c7.7868-0.80472-1.6605 3.8741 0 0zm2.259-0.1471c10.579-0.0911-3.8779 4.0356 0 0zm2.4566-0.0313c5.143-1.4497 4.8927 3.3619-0.0503 1.6877-1.0992-4e-3 -1.0472-1.7494 0.0503-1.6877zm3.3459 0.0325c3.3748-1.404 9.4325 0.94086 2.6878 1.572-1.07 0.48196-5.4652 0.0946-2.6878-1.572zm5.1139-0.4436c3.3938-1.8353 10.407 0.18123 3.111 1.2406-0.96422 0.357-5.7448 1.0391-3.111-1.2406zm5.6694-0.9099c4.2782-2.2669 7.7356 0.81403 1.4316 1.4491-1.0833 0.9374-3.32-0.60572-1.4316-1.4491zm4.3111-0.9787c7.4719-3.6813 1.5726 4.5326-0.50098 0.40782l0.49748-0.40682 3e-3 -1e-3zm3.0182-0.9074c6.6782-2.3569-1.2568 4.4769-3e-4 3e-4zm1.8433-0.6023c6.7423-3.1341-0.9287 4.6584-3e-4 3e-4v-1e-4zm1.897-0.8295c5.2394-4.1233 3.8288 2.994-0.4061 1.1256l-0.0292-0.64661zm2.6192-1.2782c5.0722-3.9247 3.7069 2.974-0.3786 1.1437l-0.0475-0.65023zm2.5414-1.2049c7.074-4.3988-0.39531 4.9138-4e-4 -3e-4zm2.0856-1.1901c4.3914-4.7992 5.8573 0.041 0.35025 1.5431-0.72941-0.0822-0.97215-1.1544-0.35025-1.5431zm3.1392-2.3378c2.6663-3.7967 7.0246-2.3337 1.8918 0.72624-0.56901 1.3498-3.1919 0.77661-1.8918-0.72624zm3.2407-2.5879c5.7444-5.7039 0.89982 4.7504-8e-3 7e-3zm1.8048-1.6075c5.029-6.7165 3.458 3.3874-0.26704 0.58956zm2.2824-2.1862c2.8412-4.4518 5.7758-1.4568 1.1768 1.2191-0.77329 0.78612-1.9896-0.47408-1.1768-1.2191zm2.5717-2.5167c3.5356-5.6536 5.832-1.145 0.60054 1.4464-0.72682 0.045-1.145-0.96508-0.60054-1.4464zm2.727-2.9716c1.8578-4.178 6.3891-3.4587 1.9614 0.35962-0.30797 1.405-2.9248 1.3298-1.9614-0.35962zm2.6501-3.0751c5.1385-6.8964 1.4677 4.555 0 0zm1.5153-1.8762c5.0957-7.0694 1.7426 4.518 2e-4 5e-4zm1.8227-2.1304c2.4875-4.9398 5.9758-1.5233 1.2656 1.1392-0.74222 0.8323-2.0151-0.31577-1.2656-1.1392zm2.429-2.5972c2.7825-4.7772 5.9018-1.8315 1.2269 1.1897-0.775 0.80332-2.0046-0.39109-1.2269-1.1897zm2.571-2.7642c2.1138-4.3207 6.8942-3.506 2.0114 0.34725-0.30766 1.4191-3.0044 1.3866-2.0114-0.34725zm3.0209-3.217c1.5422-3.505 8.3224-5.3544 3.132-0.69315-0.56143 0.957-3.8932 3.8824-3.132 0.69315zm3.891-3.8034c1.5778-3.3115 7.9985-4.3043 2.9578-0.37493-0.58788 0.99855-3.886 3.3497-2.9578 0.37493zm3.7429-3.2707c3.5273-4.074 6.0855-0.72748 1.0574 1.3378-0.87319 0.70208-1.9427-0.65101-1.0574-1.3378zm3.0811-2.2109c4.7531-4.6094 5.9718 0.25632 0.28098 1.5436-0.71904-0.1126-0.91359-1.1851-0.28098-1.5436zm3.3803-2.224c9.3087-7.3441 1.2955 5.0017 0 0zm2.9669-2.0682c1.9882-2.3687 10.066-4.7364 3.5395-0.47283-0.7119 0.74435-4.7563 3.7542-3.5395 0.47283z"/><path d="m158.84 374.2c0.20903 4.0468-1.001 7.5686-0.87604 1.2618-0.79364-0.45766 0.44524-2.7792 0.87604-1.2618z"/><path d="m157.85 370.12c-0.053-3.9598 1.0575-7.251 0.73753-1.1531 0.73215-0.1066-0.4747 2.3368-0.73753 1.1531z"/><path d="m158.71 356.19c0.61943 7.543-2.0236 2.5998 0 0z"/><path d="m158.57 346.26c0.41407 4.2239-0.6587 5.4527-0.7055 0.0281-0.0367-0.62133 0.70533-0.36946 0.7055-0.0281z"/><path d="m158.6 337.39c1.3011 6.3579-1.9345 0.71695-8e-4 -0.0103z"/><path d="m158.35 329.07c1.3266 1.7998 0.13142 7.6574-0.0781 1.4281z"/><path d="m159.09 319.28c0.75464 9.3931-1.7917 2.3723 0 0z"/><path d="m158.35 314.92c-0.49344-6.1955 1.3235-3.3687 0-2e-4z"/><path d="m158.09 302.39c1.3906 2.8378-0.62187 8.309 0 0z"/><path d="m158.09 298.73c-0.76998-4.7371 1.8291 0.56698 0 0z"/><path d="m158.59 290.87c1.3296 6.9613-1.7703 1.3077 0 0z"/><path d="m250.31 324.64c1.7933 1.42-0.77409 4.9796 0 0z"/><path d="m250.59 317.23c0.25308 5.514-1.075 4.2193-0.2682-0.2731l0.2683 0.2592z"/><path d="m250.2 314.96c-0.34952-4.1328 1.08-5.3487 0.4965 0.0112l-0.2555 0.2409-0.241-0.2516z"/><path d="m250.88 306.23c1.7364 6.1526-1.1796 1.7296 0 0z"/><path d="m250.69 300.44c1.2218 5.2895-1.5462 1.3147 0 0z"/><path d="m250.45 294.56c1.3391 4.3529-0.95003 3.2218 0 0z"/><path d="m250.42 289.33c1.1316 1.3039-0.29359 3.6536 0 0z"/></g><g fill="#55e1ff"><path d="m159.44 381.48c2.4762-0.90128 0.0804 1.7148 0 0zm0.3197-0.1817c2.8519 0.61615-1.4716 1.83 0 0zm0.3233-0.0189c7.2809-0.5439-1.03 3.3881-4e-4 3e-4zm2.4594 0.036c7.6686-1.1662 0.45352 4.2821-0.48896 0.18328l0.48936-0.18328zm3.0435 0.0485c3.7228-1.2872 6.6966 2.7902 1.3906 1.5673-0.99757 0.72651-3.4003-0.99787-1.3906-1.5673zm3.9876 0.2474c3.5708-0.91481 10.298 2.0174 2.8474 1.7118-0.89995 0.1401-5.6579-0.17306-2.8474-1.7118zm5.8332 0.2562c7.2887-1.037 3.1031 3.8424-0.7671 0.7622l0.2253-0.53984 0.5412-0.22236zm3.9277 0.1792c6.7986-0.50645 2.0616 3.5872-0.8787 0.6236 0.0132-0.42416 0.52068-0.6862 0.8787-0.6236z"/><path d="m182.78 380.31c0.65865-1.6452 0.99448 1.4499 0 0zm0.642 0.0466c-0.71116 1.3214-0.94336-1.2758 0 0zm0.0706-0.9835c0.22775 3.6823-1.936-1.9678 0 0zm-0.656-2.6519c2.3979 1.1577-1.2864 5.5404 0 0z"/><path d="m182.36 373.39c-0.51523-6.7926 2.0851 0.74176 0 0z"/><path d="m182.46 367.13c-0.25704-6.6626 1.5034-2.9474 0 0z"/><path d="m183.18 356.55c1.401 1.9888-1.2308 5.2614 0 0z"/><path d="m183.23 349.6c1.9294-0.12091-0.73063 5.123 1e-4 0zm0 0c-0.40714-5.8094 1.9444 1.1372 0 0z"/><path d="m183.32 342.79c1.6994 0.3545-0.66353 4.8493 0 0zm0-1e-4c-0.34952-4.8917 1.6121 1.3163 0 0z"/><path d="m183.68 336.88c1.1903 4.7122-2.1589-0.5363 0 0zm-0.5123-2.1974c1.4807 0.98376-0.6949 4.4128 0 0z"/><path d="m183.37 327.31c0.62666 7.6961-1.0573 2.8635 0 0z"/><path d="m183.21 322.17c0.91063 4.8452-1.5856 0.63055 0 0zm-0.2849-1.9699c1.2335 4.1997-1.311 1.2527 0 0z"/><path d="m182.9 313.07c1.395 3.3556-1.0056 4.8657 0 0z"/><path d="m182.7 307.22c1.4721 2.0116-0.59407 5.361 0 0z"/><path d="m182.9 301.69c1.2029 1.9902-0.48404 4.5761 0 0z"/><path d="m182.87 296.76c1.3199 2.1884-0.65747 4.2602 0 0z"/><path d="m183.03 294.05c-0.27328-4.5261 1.7192 0.82306 0 0z"/><path d="m183.45 288.43c0.43385 2.4366-1.0505-0.4258 0 0z"/><path d="m184.29 365.6c7.2703-1.0146-0.48996 4.034 0 0zm2.3507-0.1335c8.5695 0.81742-4.1107 3.8252 0 0zm1.7173 0.0742c7.8181-0.10271-2.8745 4.2301-1e-4 0zm2.164 0.0242c8.2086-0.5323-2.7354 4.4448-4e-4 0zm2.313-0.077c6.1799-1.1522-0.98934 4.6554-0.63788 0.31849zm1.6769-0.1278c6.991 0.45652-3.7124 3.9733 0 0zm1.1788-0.0758c7.3858-0.27986-2.7024 4.2932-4e-4 0h9e-4zm1.9922-0.0392c12.809-0.42471-4.6985 4.6687 0 0zm2.9733-0.0929c6.2745-1.5638 2.0304 4.5305-0.8888 0.9811l0.24147-0.67471 0.64783-0.30639zm2.704-0.0838c9.0704 0.0618-3.8903 4.3753 0 0zm1.9847-0.0324c8.9744-0.0124-3.7882 4.4012 0 0zm1.977-0.0484c5.8837 1.1045-3.9281 3.4345 0 0z"/><path d="m208.89 359.53c1.6461 0.4261-0.14055 6.9264-4e-3 1.1792z"/><path d="m208.56 356.29c-0.94477-3.9434 2.73 0.40123 0 0zm0.2158-2.999c1.9522 0.87721-1.2086 3.2731 0 0z"/><path d="m209.13 347.99c0.94971 5.9811-1.3604 1.4262 0 0z"/><path d="m209.38 341.72c0.53133 4.8656-1.5796 2.8692-0.3929-0.3879l0.3927 0.355z"/><path d="m208.65 335.34c1.6212 2.8359-0.68625 7.6203 0 0z"/><path d="m208.65 330.81c1.8567 2.5596-0.92167 5.2916 0 0z"/><path d="m209.82 324.82c0.49834 4.5006-1.4228 2.9461-0.3341-0.3341l0.3341 0.3183z"/><path d="m209.2 317.31c1.483 1.5481-0.29344 6.6203-0.024 0.92308z"/><path d="m209.31 311.23c1.4638 2.0086-0.86397 5.4256 0 0z"/><path d="m209.73 304.98c0.85819 6.1127-1.2654 3.2003 0 0z"/><path d="m209.72 299.28c0.14096 3.2185-0.60327 5.3618-0.6539 0.0117-0.0303-0.58421 0.67037-0.33312 0.6539-0.0117z"/><path d="m209.85 294.3c1.1466 6.9982-1.8033 1.2663 0 0z"/><path d="m210.18 290.39c0.40647 5.4168-1.9839-0.41922-1e-4 0z"/><path d="m211.19 347.63c5.7981-0.7483-1.143 3.6127 0-2e-4zm1.5339-0.1654c7.6686-0.47227-2.1703 4.1377 0 0zm2.0405-0.1074c8.0308 0.36465-4.3197 4.1594 0 0zm1.3303-0.0325c5.8932-0.86329-1.2336 4.6108-0.65581 0.30358zm1.476-0.0929c7.9772-0.0884-3.3094 4.1727 0 0zm1.6745-0.1429c6.5982-0.19155-2.9306 4.1597 0-1e-4zm1.4166-0.1297c7.3529-0.17508-3.0532 4.2876 4e-4 0zm1.756-0.0754c8.52 0.47669-4.3962 4.277 0 0zm1.4823-0.0406c4.9367 1.4881-3.7447 3.2931 0 0z"/><path d="m225.22 344.25c-0.19451-7.2106 2.2076-0.60291 0 0z"/><path d="m225.52 334.44c1.7706 1.8888-1.2555 5.7669 0 0z"/><path d="m226.02 329.73c0.83606 6.4622-1.9971-0.5387 0 0z"/><path d="m225.91 324.15c0.67049 7.656-1.754-0.60064 0 0z"/><path d="m225.5 317.66c1.5101 1.2992-0.64535 4.4025 0 0z"/><path d="m225.87 313.61c0.55944 4.8552-1.6612-0.0342 0 0z"/><path d="m225.52 307.58c1.5783 1.8584-0.58349 5.3907 0 0z"/><path d="m226.31 303.18c0.45734 5.3794-1.9361-0.29413 0 0z"/><path d="m226.02 298.96c1.5746 1.214-1.0655 3.46 0 0z"/><path d="m226.22 293.92c1.5543 2.5184-1.1338 4.7172 3e-4 0z"/><path d="m226.06 289.33c1.6908 2.0923-0.61015 4.7051 0 0z"/><path d="m228.15 331.46c1.2593 1.1243-1.4863 0.50512 0 0zm-0.4319 0.2748c1.198-1.3635 0.54936 1.4675 0 0zm0.2179-0.2761c2.7486-1.1943 0.16143 2.4112 0 0zm0.5921-0.2697c6.4322-1.8198 0.20871 3.8478 0 0zm2.1233-0.4022c7.9924-0.92878-2.1346 4.2785 5e-4 0zm2.4018-0.1566c8.5755-0.79244-2.1594 4.2835 0 0zm2.4728-0.1197c6.2455-0.91943-1.045 4.4685-0.61181 0.26656zm1.7281-0.0609c6.2107-1.3244-0.90645 4.5844-0.62693 0.30476zm1.7078-0.1791c7.1066-1.039-2.3564 4.3403-4e-4 0zm1.9227-0.2356c6.2286-0.70111-2.6553 3.9965-0.0138 2e-3zm1.3358-0.2162c6.7729-1.1108-2.4239 4.2125-3e-3 6e-4zm1.6527-0.2774c6.666-0.87459-2.3467 4.146-2e-3 3e-4zm1.7706-0.2046c7.32-0.10538-3.0248 3.8661 0 0zm1.5404-0.137c7.2805-0.74277-2.9546 3.9091 0 0z"/></g><g><path d="m178.49 383.79c1.3388-0.29434-0.29625 1.3363 0 0zm0.08-0.046c2.2573-0.94896-0.16428 2.075 0 0zm0.3771-0.1731c3.0433-0.46545-0.77937 2.0952 0 0zm0.5973-0.1534c2.9974 0.51777-1.8186 1.9741 0 0zm0.3504-0.0307c2.9058 1.0304-2.2634 1.6025 0 0zm0.1153-0.0113c3.2159 0.37473-2.0196 2.1144 0 0zm0.1871-0.0532c3.272-0.18442-1.2897 2.2664 0 0zm0.5537-0.1216c3.7103 0.10365-2.0167 2.3962 0 0zm0.5138-0.0684c3.7977-0.0141-1.9833 2.4076 0 0zm0.5341-0.1028c3.7949-0.35988-1.7156 2.5863 0 0zm0.5608-0.1431c3.4309-0.6019-1.2946 2.4449 0 0zm0.4837-0.1941c3.5597-0.8331-1.2639 2.7513 0 0zm0.5182-0.2188c3.1057-0.012-1.599 2.46 0 0zm0.3065-0.0775c3.0333 0.23447-1.6802 2.0558 0 0zm0.2403-0.0688c2.8033 0.14599-1.4735 2.3449 0 0zm-0.0946 0.1303c2.7125-0.80191-0.58462 2.5616 0 0zm-0.0787 0.0506c2.5266-0.63001-0.63148 2.3158 0 0zm-0.2607 0.1308c3.0547-0.67384-1.0956 2.5164 0 0zm-0.404 0.1517c3.2615-0.60731-1.315 2.473 0 0zm-0.4226 0.1271c3.2706-0.39786-1.4365 2.3314 0 0zm-0.4877 0.0707c3.4741-9e-3 -1.7773 2.1073 0 0zm-0.5839 0.0539c3.5596-0.0241-1.8068 2.055 0 0zm-0.3643 0.0558c2.5376 0.16947-1.2647 1.7233 0 0zm-0.4712 0.1361c3.2062-0.52888-1.3948 2.2709 0 0zm-0.4235 0.126c2.8238-0.24762-1.1544 1.8937 0 0zm-0.098 0.0133c2.1197 0.76473-1.6622 1.229 0 0zm-0.2595-5e-3c2.3778 0.59961-1.8661 1.6719 0 0zm-0.3595 0.0654c2.7414-0.12507-1.5266 2.1975 0 0zm-0.1908 0.0525c2.554 0.26022-1.4348 1.777 0 0zm-0.2214 0.021c2.6596 0.60754-1.7586 1.5642 0 0zm-0.4829 0.0848c3.232-0.19787-1.5007 2.1984 0 0zm-0.0145 5e-3c2.506 0.94875-2.2762 1.49 0 0zm7e-3 -7e-3c1.5828 1.7867-2.1855 0.60182 0 0zm-0.4166 0.0364c2.3406 0.12428-1.0586 2.1747 0 0zm0.2119-0.0641c2.9056 0.75108-2.0126 1.9128 0 0zm0.2392-0.0208c2.9819 0.42576-1.7385 1.9568 0 0zm0.3461-0.0421c3.556 9e-3 -1.9094 2.5271 0 0zm0.3905-0.0868c4.087-0.34737-1.9047 2.6996 0 0zm0.6155-0.1218c3.8967 0.29387-2.1198 2.3654 0 0zm0.5009-0.0767c3.3435-0.0746-1.6204 2.2801 0 0zm0.4951-0.098c3.7793-0.16065-1.8348 2.5818 0 0zm0.5571-0.1157c4.0151 0.19129-2.259 2.3857 0 0zm0.3861-0.0877c3.1953-0.0786-1.432 2.2638 0 0zm0.4341-0.1132c3.2368 7e-3 -1.6309 2.2335 0 0zm0.2961-0.092c2.7578 0.11418-1.3995 2.3338 0 0zm-1e-3 0.0141c2.6179 0.33454-1.3911 1.8709 0 0zm-0.7524 0.2022c3.8496-0.64678-1.2681 2.3863 0 0zm-0.7176 0.2025c4.0082-0.90929-1.3017 2.6318 0 0zm-0.3554 0.3973c1.1117-1.5094 0.98753 1.7051 0 0zm0.2431-0.3546c2.4983-0.30476-0.96932 2.2389 0 0zm0.1229-0.0675c2.9429-0.75813-0.72544 2.2324 0 0zm0.4678-0.2066c3.6302-0.83806-1.35 2.6665 0 0zm0.5256-0.1905c3.4048-0.38199-1.5572 2.5959 0 0zm0.3777-0.1273c3.4349-0.63715-1.3853 2.7303 0 0zm0.3863-0.1539c2.7276-0.2006-1.0749 2.1959 0 0zm0.3293-0.1243c2.7542 0.39487-1.7435 2.1382 0 0zm0.2817-0.0357c1.9547 1.3457-1.8903 1.1585 0 0zm-0.3933 0.2049c2.2361-0.81619-0.17792 2.3877 0 0zm0.1264-0.1291c2.3853 0.16164-1.1591 2.0034 0 0zm-0.3038 0.1025c3.062-0.31024-1.3601 2.4021 0 0zm-0.5874 0.1937c3.7051-0.79455-1.3896 2.6091 0 0zm-0.561 0.1817c3.5272-0.6311-1.3926 2.4571 0 0zm-0.5387 0.1521c3.6142-0.55186-1.5326 2.5218 0 0zm-0.5691 0.1313c3.6411-0.24999-1.7225 2.3405 0 0zm-0.494 0.1125c3.3197-0.27392-1.5471 2.3868 0 0zm-0.3595 0.1148c3.007-0.26746-1.3311 2.3637 0 0zm-0.329 0.1204c2.9722-0.31921-1.2584 2.3659 0 0zm-0.31 0.0712c3.3471 0.0884-1.8217 2.1845 0 0zm-0.4543 0.0685c2.9739 0.10069-1.4603 1.9637 0 0zm-0.354 0.0617c3.0163 0.16546-1.6401 2.0755 0 0zm-0.1358 0.0289c2.4884 0.49586-1.6059 1.8348 0 0zm0.1651-6e-3c1.7466 1.6112-2.0875 0.85574 0 0zm-0.2482 0.0299c2.4813 0.17253-1.2944 2.0366 0 0zm0.0825-0.0336c3.2918-0.57081-1.2735 2.4805 0 0zm0.4816-0.1205c3.4888-0.29913-1.6805 2.4953 0 0zm0.458-0.0968c3.1803 0.10959-1.6806 2.2466 0 0zm0.2859-0.0785c3.1526-0.0127-1.5645 2.3403 0 0zm0.3322-0.0923c3.2105 0.0555-1.5784 2.3173 0 0zm0.4071-0.0818c3.4653-0.0222-1.7899 2.3392 0 0zm0.4633-0.0937c3.2994-0.0301-1.7454 2.3444 0 0zm0.478-0.0816c2.5661 0.86943-1.959 1.705 0 0zm-0.1951 0.163c2.1245-0.57653-0.27374 2.1301 0 0zm-0.039-0.0507c2.9097-0.0354-1.2761 2.1539 0 0zm-0.5403 0.1462c3.6818-0.51557-1.5353 2.4335 0 0zm-0.6292 0.1264c3.7803-0.38041-1.6732 2.3436 0 0zm-0.4733 0.0569c3.0334 0.18991-1.5653 1.7917 0 0zm-0.5435 0.056c3.3258 0.0565-1.7527 2.0631 0 0zm-0.4427 0.0926c3.0571-0.13064-1.4222 2.1444 0 0zm-0.4153 0.3377c2.242-1.4303 0.26728 2.0594 0 0zm0.3659-0.3168c2.9435 0.0629-1.5739 2.1442 0 0zm0.3091-0.0656c4.1226-0.62023-1.7741 2.5432 0 0zm0.6599-0.1483c4.0195-0.37793-1.7541 2.471 0 0zm0.6747-0.1318c2.9847 0.38765-1.81 2.0291 0 0zm0.3759-0.0354c2.3913 0.8155-1.954 1.6964 0 0zm-0.0452 0.0121c2.5385 0.75725-1.8659 1.7604 0 0zm-0.3101 0.0607c2.8556 0.0875-1.5652 2.1179 0 0zm-0.3704 0.0782c3.1772-0.0523-1.6434 2.2274 0 0zm-0.5072 0.0781c3.3688 0.0285-1.7351 2.0962 0 0zm-0.4555 0.0464c3.3252 0.19682-1.8641 2.0594 0 0zm-0.3756 0.0162c2.7161 0.52096-1.6398 1.5888 0 0zm-0.6226 0.3398c1.7884-1.3754 0.6037 1.8521 0 0zm0.52-0.3298c1.9412 1.4162-2.0829 0.97991 0 0zm0.0847 0.0141c2.8125 1.2113-2.4629 1.1743 0 0zm0.1141-9e-3c3.2921 0.18771-1.8485 2.1217 0 0zm0.4014-0.0588c3.6631-0.24491-1.7522 2.4253 0 0zm0.5123-0.1127c3.5652-0.47703-1.5692 2.5581 0 0zm0.4775-0.1414c3.0711-0.29863-1.3583 2.3681 0 0zm0.3923-0.122c2.4317 0.43184-1.4194 1.7774 0 0zm0.0747-0.015c2.3362 0.45617-1.323 1.934 0 0zm0.0355-0.017c2.1279 0.59039-1.4055 1.6666 0 0zm-0.3833 0.0767c2.8424 0.0778-1.3864 1.9186 0 0zm-0.5346 0.0968c3.4572-0.0947-1.7137 2.2115 0 0zm-0.5121 0.0862c3.3635-0.0378-1.6737 2.1788 0 0zm-0.4281 0.0813c3.2205 0.043-1.6119 2.1388 0 0zm-0.1993 0.026c2.7834 0.48385-1.8778 1.8485 0 0zm-0.1429 8e-3c2.3221 0.83459-1.8062 1.5107 0 0zm-0.3949 0.2734c1.8991-1.215 0.18759 2.1158 0 0zm0.3659-0.2714c2.4003 0.42738-1.5413 1.9064 0 0zm0.1705-0.0201c3.7596 0.0274-1.8799 2.224 0 0zm0.5869-0.0697c3.5426 0.0865-1.8235 2.1653 0 0zm0.5528-0.0692c2.7375 0.41294-1.6475 1.7862 0 0zm0.2292-0.0457c2.6682 0.21448-1.5412 2.0928 0 0zm0.3127-0.0522c2.2866 1.1103-1.9604 1.4116 0 0zm-0.1032 0.0368c2.4113 0.46931-1.4246 1.8619 0 0zm-0.2427 0.0657c2.9836 0.0723-1.5261 2.1299 0 0zm-0.5889 0.1294c3.7615-0.40098-1.6287 2.4068 0 0zm-0.713 0.1053c3.3328-0.2918-1.3751 2.1094 0 1e-4zm-0.4741 0.062c3.2758-0.0159-1.6676 2.1249 0 0zm-0.2222 0.0722c2.3047-0.0416-0.97161 2.0134 0 0zm-1e-4 1e-4c1.8272 0.0239-0.90891 1.8012 0 0zm0.1799-0.039c2.4747 0.75819-1.7836 1.634 0 0zm0.1669-0.0144c3.2327 0.45227-1.9098 1.9546 0 0zm0.3372-0.0499c3.2565 0.0734-1.7488 2.2815 0 0zm0.365-0.0699c3.3881-0.19489-1.6886 2.476 0 0zm0.3804-0.1063c3.4663-0.38744-1.4988 2.4969 0 0zm0.4929-0.143c3.2729-0.0925-1.5912 2.3691 0 0zm0.4419-0.0967c3.2658 0.22322-1.8221 2.1679 0 0zm0.3264-0.0703c3.1558 0.11109-1.7179 2.2181 0 0zm0.229-0.0701c2.7811-0.0819-1.1968 2.1171 0 0zm0.3411-0.1021c3.3066-0.0543-1.6832 2.3725 0 0zm0.4021-0.0901c3.3848-0.0796-1.7706 2.4491 0 0zm0.3728-0.0908c3.3441-0.28806-1.531 2.4441 0 0zm0.3924-0.1268c3.1099-0.43338-1.1534 2.2995 0 0zm0.4468-0.1593c3.0628-0.46602-1.1518 2.3417 0 0zm0.4238-0.1545c3.0038-0.2863-1.3041 2.4414 0 0zm0.3535-0.1213c2.7561 0.69064-1.8819 1.8982 0 0zm-0.2451 0.2196c2.4942-0.65241-0.71026 2.1172 0 0zm0.0145-9e-3c2.4083 0.43918-1.6324 1.8244 0 0z"/><path d="m246.96 331.1c1.0891 0.94808-1.3501 0.31721 0 0zm0.1329 0.1125c0.49803 1.7645-2.1302-0.97014 0 0zm-0.6663 0.0892c1.224-1.1543 0.45621 1.6302 0 0zm0.1897-0.2337c1.7513-0.46838-0.39096 1.7832 0 0zm0.1774-0.0911c2.6208-0.81919-0.68364 2.2434 0 0zm0.316-0.162c2.6714-0.69339-0.86657 2.2126 0 0zm0.3032-0.1593c2.726-0.89394-0.82698 2.419 0 0zm0.2854-0.1652c2.5512-0.86559-0.67325 2.2954 0 0zm0.2837-0.1745c2.3875-0.43777-0.82101 2.1568 0 0zm0.1813-0.1074c1.7689 0.21556-0.91051 1.5552 0 0zm-0.1621 0.1249c1.9144-0.60759-0.29338 1.9731 0 0zm-0.1485 0.1062c2.1146-0.76363-0.4151 2.037 0 0zm-0.4455 0.2553c2.9702-1.1785-0.67957 2.2631 0 0zm-0.4851 0.2696c3.0097-1.3752-0.74925 2.3776 0 0zm-0.2664 0.1308c2.5692-0.64466-0.93724 2.1609 0 0zm-0.4208 0.4954c1.2973-1.9374 1.0828 1.543 0 0zm0.2707-0.4138c2.192-0.22599-1.0268 1.7128 0 0zm0.1001-0.0706c2.4939-1.2069-0.26233 2.2794 0 0zm0.3799-0.2544c3.3585-1.4524-0.84834 2.691 0 0zm0.5213-0.2831c3.2443-1.178-0.90692 2.5799 0 0zm0.4935-0.2615c2.5771-0.59376-0.93553 2.4175 0 0zm0.2432-0.1302c2.2272 0.4925-1.3348 1.7956 0 0zm-0.2039 0.1391c2.3772-0.63262-0.60049 2.316 0 0zm-0.3629 0.251c2.578-1.2974-0.26399 2.2855 0 0zm-0.4604 0.3059c2.5846-1.4177-0.20508 2.193 0 0zm-0.3201 0.1969c2.2483-0.9756-0.38113 2.0158 0 0zm-0.209 0.1114c2.4121-0.50301-0.98983 2.0207 0 0zm-0.092 0.0325c1.8624 0.21397-0.97982 1.4315 0 0zm0.3931 0.6403c-1.8444 0.31498 0.53807-1.7392 0 0zm-0.5549-0.5405c1.7443-1.062 0.0835 1.8808 0 0zm0.1092-0.1276c2.1011-1.4308 0.16105 2.0884 0 0zm0.3109-0.2882c3.1591-1.69-0.55159 2.6514 0 0zm0.4941-0.3223c3.2202-1.4393-0.79549 2.7088 0 0zm0.4612-0.274c2.945-1.0899-0.79772 2.6441 0 0zm0.3192-0.1973c2.9335-0.97414-0.80293 2.5499 0 0zm0.3206-0.197c2.9586-0.94152-0.83514 2.5291 0 0zm0.3823-0.2046c2.7279-0.42698-1.0114 2.3185 0 0zm0.4598-0.1679c2.0286 1.3622-2.0336 1.094 0 0zm-0.4809 0.2729c2.1439-1.0234-0.12673 2.2264 0 0zm-0.2598 0.2542c2.3662-1.6096 0.0286 2.4285 0 0zm-0.1993 0.1712c1.7582-1.0801 0.0359 1.9704 0 0zm-0.3505 0.2192c2.3606-1.2354-0.4415 2.2461 0 0zm-0.252 0.1417c2.2054-0.83418-0.83298 2.2688 0 0zm-0.0781 0.0242c1.691 0.50781-1.0708 1.1401 0 0zm-0.2415 0.2223c1.4043-1.0386 0.44809 1.6419 0 0zm0.1205-0.1652c1.8955-0.60182-0.33501 1.8073 0 0zm0.1087-0.0868c2.3802-1.2544-0.16089 2.1539 0 0zm0.3215-0.2509c2.6295-1.4563-0.1648 2.3943 0 0zm0.421-0.3061c2.7006-0.93506-0.5557 2.2816 0 0zm0.3434-0.2175c2.4058-0.40112-0.85809 2.0641 0 0zm0.5272-0.1504c1.5786 1.0394-1.7653 1.0667 0 0zm-0.4485 0.314c1.6546-1.1625 0.32549 1.9473 0 0zm-0.0266 3e-3c2.0973-0.68176-0.46624 1.9123 0 0zm-0.1327 0.0902c2.4375-0.53687-0.88974 2.1073 0 0zm-0.2477 0.2428c1.8906-1.3091 0.19477 1.9341 0 0zm-1e-4 3e-4c1.2755-1.334 0.69236 1.8135 0 0zm0.0236-0.0645c1.5515-1.7093 0.7209 1.8603 0 0zm0.2577-0.3425c2.2066-1.3074-0.0153 2.2162 0 0zm0.3264-0.2657c2.3432-0.52897-0.65002 2.024 0 0zm0.2887-0.1517c2.4996 0.10978-1.2552 1.944 0 0zm0.3333-0.063c1.7891 1.4623-1.7862 0.93779 0 0zm-0.5292 0.396c2.2079-1.113-0.23892 2.0671 0 0zm-0.3104 0.2805c2.2644-1.3786-0.11309 2.1074 0 0zm-0.1799 0.1471c2.4265-1.0208-0.58312 2.3368 0 0zm-0.1654 0.0982c2.1126-0.51964-0.61217 1.9418 0 0zm-0.2781 0.1273c2.4753-0.70367-0.76252 2.1941 0 0zm-0.3739 0.1743c2.3106-0.76948-0.50162 1.9505 0 0zm-0.3892 0.2135c2.6935-1.22-0.74236 2.2744 0 0zm-0.3945 0.2132c2.707-1.2002-0.94055 2.2566 0 0zm-0.3177 0.1695c1.9414-0.82325-0.39196 1.9322 0 0zm-0.1736 0.0936c2.1835-0.51254-0.62847 1.9818 0 0zm-2e-3 1e-3c1.7021 0.46953-1.1657 1.2505 0 0zm0.0184-6e-3c1.5165 0.93062-1.435 1.0766 0 0zm0.3424 0.5258c-1.458 0.94812-0.2247-1.6929 0 0zm-0.5757-0.456c1.5245-0.39228-0.27413 1.7044 0 0zm0.0438-0.033c1.8095-0.72535-0.29118 1.8476 0 0zm0.0982-0.0896c2.0957-1.243-0.0229 2.0671 0 0zm0.2904-0.2417c2.4216-1.1517-0.32901 2.0995 0 0zm0.3399-0.2506c3.0927-1.6287-0.5951 2.6018 0 0zm0.4786-0.3096c2.7267-0.95194-0.72656 2.3733 0 0zm0.3268-0.1966c2.2397-0.15583-0.88314 2.0528 0 0zm0.7417 0.3295c-1.1424 1.799-1.1625-1.6574 0 0zm-0.8791-0.1374c1.7079-1.1229 0.26669 1.9708 0 0zm-0.0498 0.0475c1.9455-0.98902-0.1423 2.0489 0 0zm-0.2025 0.1607c2.1896-1.1487-0.2481 2.2977 0 0zm-0.3165 0.2096c2.2438-1.0669-0.31859 2.0419 0 0zm-0.4866 0.2907c2.9019-1.656-0.54801 2.4398 0 0zm-0.4601 0.2837c2.5918-1.4503-0.32372 2.2628 0 0zm-0.2261 0.1738c1.7599-1.2389 0.0173 2.1839 0 0zm-0.1192 0.1589c1.1248-1.5476 0.5937 2.1688 0 0zm-0.0168 0.0334c1.4297-0.92767 0.32232 1.726 0 0zm0.096-0.1207c1.8171-0.2673-0.59025 1.7793 0 0zm-0.0283 0.0282c1.6866-0.95764-0.0145 1.735 0 0zm0.1247-0.1396c1.511-1.2122 0.34181 1.8644 0 0zm0.2261-0.2266c1.9388-1.015-0.1113 1.9793 0 0zm0.2103-0.1728c2.3446-1.2161-0.1663 2.134 0 0zm0.3673-0.2553c2.9767-1.2709-0.75291 2.4948 0 0zm0.4253-0.2434c2.2874-0.0193-1.0497 1.8708 0 0z"/><path d="m157.75 385.17c0.71079-1.6806 0.83017 1.7032 0 0zm0.785-0.4228c-0.83328 2.9686-1.3336-2.2072 0 0zm-0.5155-1.9943c2.1825 0.65215-1.4126 4.3744 0 0z"/></g></g></svg>
