<?xml version="1.0" encoding="UTF-8"?>
<svg width="234.92" height="253.25" version="1.1" viewBox="0 0 234.92 253.25" xml:space="preserve" xmlns="http://www.w3.org/2000/svg" xmlns:cc="http://creativecommons.org/ns#" xmlns:dc="http://purl.org/dc/elements/1.1/" xmlns:rdf="http://www.w3.org/1999/02/22-rdf-syntax-ns#"><metadata><rdf:RDF><cc:Work rdf:about=""><dc:format>image/svg+xml</dc:format><dc:type rdf:resource="http://purl.org/dc/dcmitype/StillImage"/><dc:title/></cc:Work></rdf:RDF></metadata><g transform="matrix(1.3333 0 0 -1.3333 -171.57 598.83)"><g transform="matrix(.54545 0 0 -.54545 0 587.52)" fill="none" stroke="#000" stroke-miterlimit="10"><g stroke-linecap="round" stroke-linejoin="round" stroke-width="1.8189"><path d="m355.4 254.64v232.63"/><path d="m355.4 487.27c66.251-0.0905 132.5-0.18069 198.75-0.2709"/><path d="m355.4 487.27c-39.421 37.922-78.842 75.843-118.26 113.77"/></g><path d="m440.37 357.78c-6.551 18.692-31.303 20.263-48.023 24.444-35.842 5.0819-73.711 5.4493-108.07-7.2015-19.929-4.1673-16.381-27.059 1.8826-30.403 36.897-13.548 77.682-14.232 116.17-7.9726 13.187 3.5754 33.678 5.7405 38.039 21.133z" stroke-width="1.8798"/><path d="m271.98 367.57c27.806 39.9 55.611 79.801 83.417 119.7" stroke-linecap="round" stroke-linejoin="round" stroke-width="1.8189"/><path d="m355.4 487.27c27.326-40.797 54.653-81.594 81.98-122.39" stroke-linecap="round" stroke-linejoin="round" stroke-width="1.8189"/></g><g><path d="m193.23 391.83c0.95765 1.2975 0.28782 0.23123 0 0zm-0.687 0.2034c1.2312-1.5224 1.2291 1.9999 0 0zm0 0c1.794-2.2453 1.2693 1.613 0 0zm0.8157-0.659c4.2423-0.65818-1.9093 2.366 0 0zm1.0268 0.1576c1.7878 2.5504-2.0521 0.30144 0 0zm-0.5431 0.6902c3.5838-1.2838-1.8121 2.8643 0 0zm-0.0227 2e-3c1.6956 2.8374-2.8036-0.9571 0 0zm-0.1019-0.7736c1.8634 1.3752-2.6513 1.762 0 0zm-1e-4 0c3.8367 1.4884-1.9368 1.4729 0 0zm0.0989 0.8886c2.6763-2.7763-0.23371 3.4852 0 0zm-0.0325 0.0188c2.5654 0.95397-2.6368 0.82924 6e-4 -7e-4zm-0.8798-0.7042c2.3792 0.15474-0.47127 3.2611 0 0z"/><path d="m192.62 391.54c4.3388 0.18451-0.62366 1.8836 0 0zm1.5967 0.1917c3.1248 3e-3 -1.2831 1.9799 0 0zm-0.0154 0.0567c3.3744-0.0373-1.655 1.9683 0 0zm-0.7725-9e-3c3.1963 0.0866-1.463 1.8126 3e-4 -7e-4zm-0.477-0.1428c3.0416 1.5328-2.5805 0.8897 0 0zm-0.3336-0.1806c2.2597 1.4612-2.4733 0.80919 0 0zm-0.6219 0.1617c1.4529-1.0783 0.50268 2.0373 0 0zm0.5259-0.2152c2.3205 1.1416-2.2078 1.0406 0 0z"/><path d="m199.66 394.23c1.1088 1.0188-1.6952 0.0461 0 0zm-0.3241-0.5166c1.649 2.6157-2.7674-0.71871 0 0zm-0.0712-0.152c-0.1268 2.4241-1.8282-1.1803 0 0zm-0.7877-0.0494c2.0548-0.57854-0.13918 1.7839 0 0zm0.8155 0.032c3.4531 3.1944-3.1159 0.066 0 0zm0.704 0.7414c3.0656 2.6452-2.4788 0.55208 0 0zm0.197 0.7257c0.55417-6.322 1.7964 3.8194 0 0zm0.1714-4.2183c3.0153 1.029-1.1545 6.7348 0 0z"/><path d="m193.79 447.26c1.3261-1.4432-0.25878 2.2159 0 0zm-0.548-1.1657c2.8496 3.3249-2.5099 0.17138-0.0123-0.0195zm-0.9113-1.6147c3.5295 5.342-3.3525-0.75534 0 0zm-0.1859-0.3943c0.79201 3.0644-2.5095-1.0339 0 0zm-0.8904 2e-3c1.9153-1.3348 0.31845 2.3488 0 0zm0.891-7e-3c1.7901 4.6948-2.8416-1.4638 0 0zm0.4142 0.7466c3.756 5.4028-3.4266-0.59156 0 0zm0.8465 1.7065c4.1591 5.0136-3.7186-0.99867 0 0zm0.4658 1.0064c3.4755-0.44783-2.2907 2.4382 0 0zm0.0814-0.1029c2.5008-6.0999 3.9634-3.4523 0.45584 0.81951-0.42499 0.0618-0.73003-0.49358-0.45584-0.81951z"/><path d="m299.25 323.2c2.109 0.53449-1.4736 0.98166 0 0zm-0.3264 0.1476c1.3564-0.85952 0.0321 1.3333 0 0zm0.2693-0.1602c3.0294 0.0482-1.0668 1.6239 0 0zm0.6469-0.0216c5.163-2.3771-1.2005 3.1446 0 0zm1.0733-0.0535c4.713-1.5851-1.2143 2.7578 0 0zm1.0603-0.4081c5.6627-3.0287-0.67986 3.4661 0 0zm1.5757-0.7323c3.9188-1.1799-1.4097 3.0508 0 0zm0.0573-0.6458c4.4986 2.1281-3.2667 1.2998 0 0zm-1.7957-1.117c6.3749 3.5212-2.3732 2.0399 0 0z"/><path d="m130.37 265.11c-2e-3 -3.1164 1.6227 1.5915 0 0zm0.7284-0.092c-0.26987 1.6164-1.5852-1.086 0 0zm-0.1863-0.932c0.72331 3.5093-2.138-1.3635 0 0zm-0.5478-1.7629c2.5427 5.3626-3.3863-1.0729 0 0zm-0.4743-1.3614c2.7127 5.5883-3.2565-1.5582 0 0zm-1.2084-0.7602c2.3208-1.5848 0.23548 3.7023 0 0zm0 0c2.7755-2.596 1.6071 2.0711 0 0zm1.2387-0.7082c4.8512 0.68593 6.8745 3.8699 0.6005 1.1101-0.71142 0.20234-1.7394-0.74919-0.6005-1.1101z"/></g></g></svg>
