<?xml version="1.0" encoding="UTF-8"?>
<svg width="227.7" height="167.19" version="1.1" viewBox="0 0 227.7 167.19" xml:space="preserve" xmlns="http://www.w3.org/2000/svg" xmlns:cc="http://creativecommons.org/ns#" xmlns:dc="http://purl.org/dc/elements/1.1/" xmlns:rdf="http://www.w3.org/1999/02/22-rdf-syntax-ns#"><metadata><rdf:RDF><cc:Work rdf:about=""><dc:format>image/svg+xml</dc:format><dc:type rdf:resource="http://purl.org/dc/dcmitype/StillImage"/><dc:title/></cc:Work></rdf:RDF></metadata><g transform="matrix(1.3333 0 0 -1.3333 -110.94 564.75)"><g transform="matrix(.54545 0 0 -.54545 0 587.52)"><path d="m193.15 303.62v198.01c89.548-0.20102 179.1-0.40223 268.65-0.6036" fill="none" stroke="#000" stroke-linecap="round" stroke-linejoin="round" stroke-miterlimit="10" stroke-width="1.8189"/></g><g><path d="m90.401 338.54c0.52443 2.1174-1.4835-0.47942 0 0zm0.03678 0.3621c0.54479 1.3005-1.5155-0.17959 0 0zm-0.20616-0.3765c1.0384 2.5364-2.1829-0.77821 0 0zm-0.19198-0.3961c0.83782 2.796-2.3215-1.1629 0 0zm-0.04872-0.1788c-0.19847 2.396-1.8059-1.3462 0 0zm-0.83418-0.0123c1.7552-1.2955 0.38212 2.0165 0 0zm0.83848-0.012c2.5796 3.3624-2.9615-0.48022 0 0zm0.49657 0.917c2.7247 4.075-2.8938-0.73976 0 0zm-0.06728 0.8828c-0.24333-3.1509 0.53552-8.796 0.83702-2.1685 0.44157 0.58864-0.33409 4.5021-0.83702 2.1685z"/><path d="m87.377 359.68c4.0245 2.2789-3.1673 0.48695 0 0zm0.55561 0.2537c3.4616-1.3028-1.2139 2.3459-1e-5 3e-4zm0.52014-0.2006c1.1285-5.0495 1.5967 3.2548 0 0zm0.3527-2.7519c3.6163 5.0832-3.6688-0.12422 0 0zm-1.1377-1.7069c4.4847 4.6372-3.1304 0.74665 0 0zm0.0028-0.7115c1.8071 1.6677-2.9839 1.6044 0 0zm0.0081-2e-4c3.1144-0.1396 7.7334 3.2672 1.6754 1.2339-0.49072-0.18298-3.2614-0.25497-1.6754-1.2339z"/><path d="m85.569 381.26c1.5449 0.66631-1.1174 0.60502 1e-5 0zm-0.34899 0.1697c1.0827-0.89908 0.2668 0.94753 0 0zm0.28172-0.2112c2.5633 0.0792-0.60885 1.4367 0 0zm0.69353 0.0265c4.2713-0.36715-0.73281 2.4616 0 1e-4zm1.3135 0.0372c4.0489-1.1177-1.8888 2.7681 0 0zm1.1852-0.7827c0.65493 4.0481-2.4099-0.97923 0 0zm-0.95497-0.9146c3.4608 3.3679-2.6617 0.51036 0 0zm-1.0261-0.6674c3.6229 1.8963-1.9366 1.497 0 0zm-0.24058-0.0781c2.135 1.2522-2.069 1.0944 0 0zm-0.53506 0.2728c2.0597-1.2467 0.22614 1.7927 0 0zm0.60508-0.2564c3.3561 0.6701-1.7064 1.5393 4e-5 -2e-4zm0.99181 0.2649c4.3143 0.55914-1.82 1.6783-4e-5 -2e-4zm1.1487 0.2077c3.12-0.13954-1.4237 1.7635 0 0zm0.38636-0.08c2.22-2.1114-0.17048 2.4922 0 0zm0.17202-0.3163c1.1487-4.1944 1.4873 2.6972 0 0zm0.70939-1.7813c1.4054 3.0891-2.3319-0.0976-3e-5 -2e-4zm-0.87523-0.6798c4.0733 1.8816-3.0221 1.1333 0 0zm-2.5504-0.1879c6.1044-0.50271 0.69712 2.5688 0 0z"/><path d="m84.551 404.06c0.45751-1.8216 1.1139 1.4586 0 0zm0.63112 0.0946c-0.75714 1.1819-0.91326-1.2474 0 0zm0.054-0.5045c-0.58585 2.6894-1.3918-1.9452 0 0zm-0.48586-1.7779c2.3856 5.2039-2.9699-0.86673 0 0zm-0.5856-1.4514c2.6084 5.5724-3.1668-1.2672 0 0zm0.09811-0.8878c1.429 1.6139-3.0155 1.4126 0 0zm1e-5 0c6.2083-0.98201-1.3708 2.594 0 0zm2.0597-0.0317c4.5212 0.85131-1.2845 1.7907 0 0zm0.65479 1.2758c1.1733-2.9206 0.99145 2.1324 0 0zm0.56082-0.2125c0.69991 1.9079-1.7792-0.25868 0 0zm0.17284-0.2765c-0.16615 2.8499-1.7293-1.6755 0 0zm-0.8523-3.7527c2.3703 0.23047-0.54694 8.0966-0.07351 1.2157z"/><path d="m101.25 400.3c7.551-0.86122 2.0061 1.5012 0 0z"/><path d="m101.87 379.24c3.6284-0.39222 6.6691 1.3065 1.1102 0.64429 0.0226 0.57493-2.1922-0.24435-1.1102-0.64429z"/><path d="m101.44 358.49c7.3102-0.19103 3.134 2.1628 0 0z"/><path d="m101.57 336.97c7.904-1.251 0.58772 2.0979 0 0z"/><path d="m131.05 314.72c1.078 3.0212-1.7791-0.34252 0 0zm0.3114 0.7153c-0.9074 1.668-0.85869-1.3585 0 0zm-0.6094-4.4614c1.9902 0.74534-0.54608 8.7743-0.0448 1.5972l0.0449-1.5972z"/><path d="m129.86 303.01c4.0286 4.9795-2.2913 1.3131 0 0zm0.5966 1.6048c1.8418-2.4077 0.10667 2.8122 4e-4 0zm0.0138-0.2575c-0.38254-2.9601 1.1937-8.0399 1.0571-1.8393 0.18062 0.62046-0.01 3.6427-1.0571 1.8393z"/><path d="m167.41 315.3c0.53442-1.6874 1.0257 1.3792 0 0zm0.6212 0.0242c-0.60189 1.3064-0.98251-1.2008 0 0zm0.0296-0.8993c0.52593 3.5909-2.0135-1.8313 0 0zm-0.7125-2.4566c2.3362 0.94372-1.0588 5.2825 0 0z"/><path d="m165.95 305.18c6.4586 2.0494-2.5215 1.1774 0 0zm1.5228 0.4635c4.3657-0.48956-1.6882 2.3681 0 0zm0.6618-5e-3c1.778-2.3092 0.31982 2.4733 5e-4 0zm0.4892-1.3721c2.7395 4.6069-3.0625-0.55554 0 0zm-1.036-0.6691c3.443 1.4826-1.5209 2.0421-0.3217 0.0145zm-0.2868-0.1131c2.1637 1.8987-2.1875 0.375 0 0zm-4e-3 -0.204c1.218 1.3781-2.2427 0.66379 0 0zm-1e-4 0c2.8231 0.21709-1.0534 1.5153 0 0zm0.8173 0.1168c2.9362 0.31208-1.2551 1.6744 0-2e-4zm0.7068 0.0979c3.0079-0.64401-1.282 2.0106 0 0zm0.3058-0.1166c2.4126-2.7688 0.32391 2.7866 0 0zm0.2868-0.4443c1.2007-4.0827 1.4513 2.8221 0 0zm1.092-1.7522c0.8709 4.4843-2.758-1.8052 0 0zm-0.6595-1.1761c2.4468 3.3746-2.4465 0.44196 0 0zm-1.2395-0.541c4.3614 1.2343-2.445 1.973 0 0zm-2.6116-0.1073c6.4767-0.62368 0.67633 2.7887 0 0z"/><path d="m200.72 316.15c0.49171-1.6424 1.0355 1.3117 0 0zm0.6009-3e-3c-0.55204 1.3778-1.0031-1.1944 0 0zm7e-3 -1.2261c0.13168 4.3191-1.8442-1.8223 0 0zm-0.4054-3.3452c2.1098 1.4452-1.263 6.3019-0.24426 0.82304z"/><path d="m198.34 304.71c0.29568-1.9784 1.1653 1.2948 0 0zm0.6008-7e-3c-0.53669 1.2758-0.93317-1.147 0 0zm0.0185-0.5811c-0.26718 2.4962-1.3939-1.5792 0 0zm0.1925-1.0428c1.6632 1.6244-3.0741 1.3533 2e-4 0zm0 0c5.3252 0.16679-2.0186 2.4488 0 0zm1.3978 0.0756c5.241-1.4945-2.5705 2.8016 0 0zm0.6337-0.1314c2.8479-3.834 0.13125 3.6122 0 0zm0.4347-0.6329c1.3625-4.2139 1.4929 2.7913 0 0zm0.7994-1.7368c1.4999 5.3749-2.7025-1.789 0 0zm-0.8589-0.9399c3.6797 2.7728-3.2261 0.7688 0 0zm-1.9778 0.5407c3.0148-2.5598 2.4804 1.8 0 0z"/><path d="m198.52 305.33c3.9336-0.0329 5.9996 2.5062 0.6536 0.5755-0.26212 0.19958-1.3521-0.15755-0.6536-0.5755z"/><path d="m230.38 316.34c0.64139-1.3233 0.65512 1.2918 0 0zm0.589 0.056c-0.38669 1.3332-1.2208-1.321 0 0zm0.0988-1.4859c0.14084 4.7504-1.7717-1.7059 0 0zm-0.4359-2.7989c2.1929 1.4597-1.6134 5.6006 0 0z"/><path d="m232.01 304.18c0.88189-2.1601 0.7347 1.3352 0 0zm-0.5963 0.4035c2.7307-1.9907-0.67993 2.2685 0 0zm-0.6488 0.119c2.8315-0.38113-1.3856 1.5919 0-3e-4zm-0.4905-0.2545c2.9292 1.9773-2.6402 0.25665 0 0zm-0.2412-0.3893c0.95954 3.2364-2.2777-1.5835 0 0zm-0.6086-0.9441c2.5569-0.27629-1.3989 3.2003 0 0zm0 1e-4c4.2595-2.9668-0.42717 3.1142 0 0zm0.8252-0.6589c4.147-2.3274-0.63252 2.9211 0 0zm0.8882-0.568c3.2574-2.9066 0.20151 2.8619 0 0zm0.824-0.7174c3.0992-4.4045 0.39042 3.6487 0 0zm0.5195-0.8563c2.0603-4.8197 1.141 3.2527 0 0zm0.7503-1.8143c2.0192 3.1973-2.4588 0.2634 0 0zm-1.2256-0.3227c4.6811 0.78198-1.9132 2.0271 0 0zm-1.1724 0.7387c2.8831-2.559 0.99159 1.9549 0 0zm0 0c2.0405-0.21625-1.455 2.986 0-3e-4zm0.3566 1.1547c3.484 4.019-2.2306 0.36604 0 0zm1.027 1.261c3.5822 3.9148-0.72817 4.6692 0 0z"/><path d="m250.34 315.05c1.753-0.36904-0.68723 1.5172 0 0zm-0.1988 0.3859c0.7097-1.5248 1.2543 0.89532 0 0zm0.3602-0.4525c2.9756-1.4564 0.0343 2.13 0 0zm0.8841-0.3419c4.4354-2.5565 0.036 3.3893 0 0zm1.3942-0.5696c2.9229-2.7625-0.43224 3.3217 0 0zm-1.7835-2.7442c5.3357 2.8344 1.9404 4.7871 0 0z"/></g><g transform="matrix(.54545 0 0 -.54545 0 587.52)"><path d="m195.38 381.36h41.727" fill="none" stroke="#55e1ff" stroke-linecap="round" stroke-linejoin="round" stroke-miterlimit="10" stroke-width="3.1181"/></g><g fill="#55e1ff"><path d="m130.57 376.53c0.87651-2.5555 1.4054 2.0554 0 0zm1.0135 0.09c-1.2982 1.94-1.2789-2.1313 0 0zm0.1129-0.9891c-0.69235 4.4521-2.1452-2.6187 0 0zm-1.3515-2.3611c3.2023-0.60188-0.51686 6.3446 0 0z"/><path d="m131.36 365.62c0.61133 5.6337-1.929 4.2666-1.1378-0.43954 0.35759-0.47089 1.1943-0.15049 1.1378 0.43954z"/><path d="m131.06 359c0.61677 3.9944-1.7185 2.9691-0.85654-0.34399 0.27724-0.33654 0.89122-0.0927 0.85654 0.34399z"/><path d="m130.52 352.17c2.0832 1.7953-1.5455 4.9238-1e-4 0z"/><path d="m130.38 348.87c-0.78004-6.8743 2.9561 0.23408 0 0z"/><path d="m131.22 340.76c0.9374 5.4547-2.3324-1.5108 0 0zm-0.7397-2.2935c2.1085 1.0654-0.68903 5.0161 0 0z"/><path d="m131.15 331.58c0.72244 5.4027-1.4544 3.8484-0.3641-0.3431l0.3638 0.3327z"/><path d="m130.98 324.97c1.3489 3.7519-0.93118 6.873-0.45559 1.1135-0.50362 0.20338-4e-3 -1.987 0.45559-1.1135z"/><path d="m130.98 320.82c1.318 5.2604-2.7345-1.4128 0 0zm-0.6916-2.2402c2.378 0.84614-1.1977 5.146 0 0z"/></g><g transform="matrix(.54545 0 0 -.54545 0 587.52)"><path d="m242.06 420.61h65.248" fill="none" stroke="#55e1ff" stroke-linecap="round" stroke-linejoin="round" stroke-miterlimit="10" stroke-width="3.1181"/></g><g fill="#55e1ff"><path d="m169.02 353.15c-0.37539 6.1862-2.4396-2.6259 0 0z"/><path d="m168.37 345.86c1.767 7.4538-3.0954-1.1514 0 0z"/><path d="m168.1 340.08c1.2021 4.833-2.1978 0.83986-0.12379-0.24876z"/><path d="m167.74 333.97c2.1204 6.2739-2.2856 0.93964 0 0z"/><path d="m167.03 328.16c2.1298 1.509-0.60168 5.415 0 0z"/><path d="m167.48 323.27c1.3027 4.6788-1.5087 1.5506 0 0z"/><path d="m167.35 317.99c1.0616 6.8107-1.5932 4.7023 0 0z"/></g><g transform="matrix(.54545 0 0 -.54545 0 587.52)"><path d="m308.18 342.79h62.987" fill="none" stroke="#55e1ff" stroke-linecap="round" stroke-linejoin="round" stroke-miterlimit="10" stroke-width="3.1181"/></g><g fill="#55e1ff"><path d="m168.8 394.83c-0.19244 3.9837-2.1588-1.0866-0.15031-0.51352l0.16741 0.35632z"/><path d="m168.35 389.7c0.50277 3.1052-2.1801-0.49405-0.13424-0.2967z"/><path d="m168.15 384.15c0.63878 3.479-2.297-1.3624 0 0z"/><path d="m167.97 378.15c1.0291 4.3939-2.0967-1.1037 0 0z"/><path d="m168.07 371.84c0.91401 4.7932-2.1488 0.46249-0.11699-0.26098l0.11669 0.25068z"/><path d="m167.67 365.65c1.2023 7.5653-1.4989 2.7517 0 0z"/><path d="m167.28 361.11c1.9534 0.32467-0.0119 3.6161 0 0z"/><path d="m202.88 394.07c0.79829 5.7541-2.8158 0.0484-0.1848-0.44614l0.1848 0.37054z"/><path d="m201.5 386.67c2.8656 3.117-0.86194 5.9095 0 0z"/><path d="m202.08 380.22c1.0635 5.0937-1.9629 2.5052-0.4173-0.3914 0.22372-0.0395 0.41341 0.1987 0.4173 0.3914z"/><path d="m201.76 374.02c1.5259 5.4631-1.6383 3.7643 0 0z"/><path d="m201.83 366.31c1.6694 6.0255-2.576 1.292-0.15316-0.28756z"/><path d="m201.72 360.09c1.2153 9.2479-2.4419-0.64744 0 0z"/><path d="m200.91 352.14c2.1248 3.0406-0.6192 5.5416 0 0z"/><path d="m200.63 345.96c2.1473 0.68733 0.2006 8.7839 0 0z"/><path d="m201.45 339.5c0.62416 5.4352-2.4144-1.2167 0 0zm-0.7419-2.3693c2.2851 1.1616-0.94217 5.1987 0 0z"/><path d="m200.75 331.11c2.0069 0.19878 0.17277 9.1713-0.0998 2.3574l0.023-1.1804z"/><path d="m200.74 325.02c2.4166 1.5976-1.0075 5.1404 0 0z"/><path d="m201.22 317.01c1.8369 0.7278-0.80291 8.4947-0.4033 1.8936l0.13992-0.96038z"/></g><g transform="matrix(.54545 0 0 -.54545 0 587.52)"><path d="m368.48 472.52h52.769" fill="none" stroke="#55e1ff" stroke-linecap="round" stroke-linejoin="round" stroke-miterlimit="10" stroke-width="3.1181"/></g><g><path d="m230.94 324.45c0.2233 6.5233-2.2227-2.5755 0 0z" fill="#55e1ff"/><path d="m229.95 319.81c2.3356 1.1023-0.7242 3.8847 0 0z" fill="#55e1ff"/><path d="m104.87 420.19c3.1241 4.2293-1.3201 2.0035-0.23924-0.14426l0.23894 0.14386zm-0.497-0.6756c4.7852 4.5334-3.0455-0.74674 0 0zm-0.5999-0.0655c1.5964-0.33824-0.22233 1.625 0 0zm0.6281 0.1785c1.6537 3.9896-2.263-1.1385 0 0zm0.3606 0.9147c2.2386 4.643-2.4021-0.73403 0 0zm0.5722 1.3379c1.9945 2.7476-2.0596-0.0649 0 0zm0.508 0.7752c2.0004 1.6872-1.8415 0.25088 0 0zm0.1569 0.2484c2.039-3.1528 0.1396 2.6789 0 0zm0.2491-0.5415c1.3941-6.5006 3.1314-0.66805 0 0z"/></g></g></svg>
