<svg width="269.47" height="201.4" xml:space="preserve" xmlns="http://www.w3.org/2000/svg"><path d="M4.551.672v194.692h262.42" fill="none" stroke="#000" stroke-linecap="round" stroke-linejoin="round" stroke-miterlimit="10" stroke-width="1.32286775"/><path d="M3.532 2.282c.174-.226.363-.449.59-.625.116-.09.252-.18.402-.199A.415.415 0 0 0 4.53.635c-.725-.107-1.384.418-1.857.902a.569.569 0 1 0 .859.744zM2.35 3.927c.37-.565.771-1.11 1.183-1.645a.569.569 0 0 0-.858-.745c-.507.52-.99 1.072-1.398 1.674a.645.645 0 1 0 1.067.724l.006-.008zm-.757 1.392c.209-.486.467-.95.757-1.392a.645.645 0 0 0-1.073-.716 9.842 9.842 0 0 0-.884 1.588.654.654 0 1 0 1.2.519zm-.338.789.338-.79a.654.654 0 0 0-1.2-.519l-.343.788a.657.657 0 0 0 1.203.524l.002-.003zM.09 6.21a.653.653 0 0 0 .754.275c.212-.067.373-.252.46-.452a.656.656 0 0 0-1.164-.6c.012-.022-.009.015-.004.006a.666.666 0 0 0-.046.771zm1.177-.103L2.565 3.94a.656.656 0 0 0-1.127-.674L.14 5.434a.656.656 0 1 0 1.127.674zM2.565 3.94c.144-.24.341-.542.622-.639.192-.066.398.011.568.1.474.251.855.68 1.19 1.088.53.647.983 1.359 1.407 2.08a.467.467 0 0 0 .818-.448c-.431-.847-.899-1.685-1.468-2.448-.374-.502-.804-.994-1.34-1.327-.51-.317-1.123-.446-1.697-.227-.54.207-.937.662-1.227 1.147a.657.657 0 0 0 1.127.674zM262.14 190.57c.052.168.099.36.147.536a.382.382 0 0 0 .748-.132c-.015-.183-.037-.37-.045-.553a.435.435 0 1 0-.85.15zm.007.023a.43.43 0 0 0 .063.113.45.45 0 1 0 .6-.642c-.35-.207-.815.12-.663.529zm.038.073.287.526a.615.615 0 1 0 .853-.823l-.516-.306a.45.45 0 0 0-.624.603zm.287.526c.263.483.69.861 1.168 1.124a.779.779 0 0 0 .75-1.365l-.02-.011c-.354-.18-.703-.37-1.045-.572a.615.615 0 0 0-.853.824zm1.168 1.124c.705.388 1.358.887 2.009 1.358a.794.794 0 1 0 .931-1.287l-.004-.002c-.71-.508-1.428-1.046-2.207-1.445a.779.779 0 0 0-.73 1.376zm2.009 1.358c.72.521 1.44 1.048 2.186 1.533a.795.795 0 0 0 .875-1.327c-.722-.483-1.427-.99-2.134-1.495a.794.794 0 0 0-.927 1.29zm2.132 1.492a.782.782 0 0 0 1.308.831c.274-.326.425-.748.331-1.173-.089-.404-.375-.72-.71-.944a.794.794 0 0 0-.93 1.288zm.006 2.166c.454-.424.902-.86 1.302-1.335a.782.782 0 1 0-1.197-1.007l-.01.013c-.343.425-.75.799-1.158 1.159a.791.791 0 0 0 1.046 1.187l.017-.016zm-2.22 1.866c.76-.596 1.514-1.205 2.22-1.866a.791.791 0 0 0-1.063-1.17 40.057 40.057 0 0 1-2.158 1.743.817.817 0 1 0 .994 1.299l.008-.005zm-3.015 2.159c.391-.178.746-.455 1.092-.704.652-.47 1.288-.96 1.922-1.454a.818.818 0 0 0-1.001-1.292c-.654.502-1.303 1.02-1.89 1.6-.343.34-.785.767-.875 1.264a.538.538 0 0 0 .752.586z"/><path d="M69.015 78.924h131.203v57.642H69.015V78.924" fill="none" stroke="#55e1ff" stroke-linecap="round" stroke-linejoin="round" stroke-miterlimit="10" stroke-width="2.2675655"/><g fill="#55e1ff"><path d="m72.57 91.133.13-.054a.331.331 0 0 0-.255-.611l-.13.054a.33.33 0 1 0 .256.61zm-.383-.09a.335.335 0 0 0 .383.09.331.331 0 0 0 .176-.173.333.333 0 0 0-.563-.357c-.089.135-.113.305.004.441zm.538-.052.174-.224a.345.345 0 1 0-.544-.424l-.016.023-.156.236a.334.334 0 0 0 .542.389zm.174-.224c.077-.099.184-.181.277-.264.222-.196.45-.384.68-.571a.388.388 0 1 0-.493-.601l-.018.016c-.223.207-.446.416-.662.632-.12.12-.25.244-.344.387a.345.345 0 0 0 .56.401zm.956-.835c.49-.402.978-.808 1.452-1.23a.434.434 0 1 0-.577-.648c-.003.003-.007.005-.01.01-.455.43-.914.857-1.374 1.283a.388.388 0 0 0 .51.585zm1.452-1.23a77.67 77.67 0 0 0 1.22-1.112.462.462 0 1 0-.629-.677l-.013.012c-.383.385-.771.765-1.166 1.137a.434.434 0 0 0 .587.64zm1.22-1.112c.672-.623 1.36-1.23 2.046-1.837a.488.488 0 0 0-.646-.73c-.002 0-.003 0-.003.002-.69.621-1.383 1.243-2.038 1.9a.462.462 0 0 0 .642.665zm2.046-1.837a73.922 73.922 0 0 0 3.806-3.599.322.322 0 0 0-.427-.483 63.712 63.712 0 0 0-4.029 3.354.488.488 0 0 0 .65.728zM72.49 99.92c.252 0 .475-.187.654-.344.286-.249.543-.531.794-.814a.33.33 0 1 0-.495-.44c-.232.262-.47.525-.734.755-.068.06-.216.177-.26.183a.331.331 0 0 0 .042.66zm1.448-1.158a78.43 78.43 0 0 1 1.668-1.83.342.342 0 0 0-.497-.47l-.005.006c-.558.615-1.111 1.234-1.662 1.855a.331.331 0 1 0 .496.44zm1.668-1.83c.692-.732 1.376-1.472 2.06-2.213a.367.367 0 1 0-.54-.498l-.005.004c-.67.75-1.341 1.498-2.017 2.243a.342.342 0 0 0 .502.464zm2.06-2.213c1.122-1.217 2.299-2.382 3.484-3.537a.383.383 0 0 0-.533-.549c-1.196 1.166-2.38 2.347-3.495 3.591a.367.367 0 0 0 .544.494zm3.484-3.537a116.382 116.382 0 0 1 4.377-4.051.387.387 0 0 0-.511-.582h-.001a122.307 122.307 0 0 0-4.399 4.085.382.382 0 1 0 .535.548zm4.377-4.051a121.95 121.95 0 0 1 6.465-5.32.265.265 0 0 0-.308-.43c-2.34 1.563-4.559 3.307-6.669 5.168a.388.388 0 0 0 .512.582zM73.05 113.28a96.024 96.024 0 0 1 1.606-1.916.38.38 0 1 0-.575-.494c-.55.64-1.084 1.296-1.59 1.972a.355.355 0 0 0 .56.437zm1.606-1.916a70.65 70.65 0 0 1 2.372-2.595.368.368 0 0 0-.532-.51 59.839 59.839 0 0 0-2.415 2.61.38.38 0 0 0 .575.495zm2.372-2.595a446.077 446.077 0 0 1 3.43-3.567.38.38 0 1 0-.547-.53l-.004.004a330.081 330.081 0 0 1-3.41 3.583.369.369 0 0 0 .529.513l.003-.003zm3.43-3.567a500.243 500.243 0 0 1 4.351-4.42.404.404 0 1 0-.572-.57 217.088 217.088 0 0 0-4.33 4.465.38.38 0 0 0 .55.525zm4.351-4.42a247.054 247.054 0 0 1 5.207-5.073.404.404 0 0 0-.556-.586 246.4 246.4 0 0 0-5.223 5.089.404.404 0 0 0 .572.57zm5.207-5.073c1.519-1.439 3.048-2.869 4.62-4.251a.428.428 0 1 0-.566-.643l-.006.006a355.22 355.22 0 0 0-4.605 4.301.404.404 0 1 0 .556.587zm4.62-4.251c.957-.843 1.915-1.685 2.876-2.522a.451.451 0 0 0-.592-.681 159.62 159.62 0 0 0-2.856 2.566.428.428 0 0 0 .571.637zm2.876-2.522a343.227 343.227 0 0 1 4.433-3.774.288.288 0 0 0-.35-.455c-1.596 1.126-3.201 2.264-4.675 3.548a.451.451 0 0 0 .592.68zM74.877 123.679c.174-.379.46-.718.716-1.042.504-.633 1.041-1.24 1.584-1.84a.341.341 0 0 0-.506-.458l-.002.001a39.64 39.64 0 0 0-1.599 1.884c-.289.367-.597.75-.794 1.177a.33.33 0 1 0 .601.277zm2.3-2.882a90.087 90.087 0 0 0 2.644-3.063.36.36 0 1 0-.555-.46l-.001.003a95.526 95.526 0 0 1-2.596 3.064.341.341 0 0 0 .508.456zm2.644-3.063a93.46 93.46 0 0 1 2.73-3.156.37.37 0 0 0-.548-.496 79.147 79.147 0 0 0-2.739 3.195.36.36 0 0 0 .557.457zm2.73-3.156a813.573 813.573 0 0 1 3.473-3.797.352.352 0 0 0-.516-.48 300.017 300.017 0 0 0-3.505 3.78.37.37 0 0 0 .547.497zm3.473-3.797c1.036-1.128 2.07-2.257 3.132-3.36a.306.306 0 0 0-.43-.434c-1.113 1.064-2.164 2.193-3.218 3.314a.352.352 0 0 0 .514.482l.002-.002zm3.132-3.36c.898-.933 1.809-1.851 2.721-2.768a.258.258 0 0 0-.364-.367c-.926.904-1.853 1.807-2.788 2.702a.306.306 0 1 0 .423.441l.01-.009zm2.721-2.768a223.602 223.602 0 0 1 3.652-3.584.239.239 0 1 0-.33-.345 555.988 555.988 0 0 0-3.686 3.562.258.258 0 1 0 .362.37l.002-.003zm3.652-3.584c1.546-1.483 3.098-2.96 4.653-4.433a.237.237 0 0 0-.325-.344c-1.556 1.474-3.11 2.95-4.658 4.432a.238.238 0 1 0 .331.344zm4.653-4.433a205.276 205.276 0 0 1 5.85-5.327.249.249 0 1 0-.33-.373 252.643 252.643 0 0 0-5.846 5.356.237.237 0 0 0 .325.344zm5.85-5.327a206.549 206.549 0 0 1 9.358-7.766.188.188 0 0 0-.227-.298 138.413 138.413 0 0 0-9.46 7.69.25.25 0 0 0 .329.374zM79.664 130.185c-.008-.086-.011-.173-.015-.26a.357.357 0 0 0-.708-.048c-.016.085-.03.17-.05.255a.392.392 0 1 0 .772.053zm-.726.25a.398.398 0 0 0 .106.115c.222.159.46.048.613-.132a.402.402 0 0 0-.614-.52l-.006.008a.407.407 0 0 0-.098.528zm.719-.017.348-.41a.411.411 0 1 0-.636-.522l-.335.422a.402.402 0 0 0 .622.51zm.348-.41c.325-.384.707-.725 1.072-1.069a.426.426 0 0 0-.584-.62l-.004.004c-.384.371-.787.743-1.12 1.163a.411.411 0 0 0 .636.521zm1.072-1.069c.747-.702 1.487-1.41 2.226-2.12a.45.45 0 0 0-.621-.649l-.006.006a235.45 235.45 0 0 1-2.186 2.146.426.426 0 0 0 .587.617zm2.226-2.12a52.105 52.105 0 0 0 2.394-2.434.464.464 0 1 0-.685-.626 67.588 67.588 0 0 1-2.336 2.417.449.449 0 0 0 .627.643zm2.394-2.434c.673-.736 1.348-1.47 2.025-2.2a.456.456 0 0 0-.665-.624 159.25 159.25 0 0 0-2.045 2.198.464.464 0 0 0 .685.626zm2.025-2.2c.795-.858 1.602-1.703 2.415-2.544a.421.421 0 0 0-.596-.593 95.07 95.07 0 0 0-2.483 2.512.456.456 0 1 0 .662.628c0-.002.002-.003.004-.004zm2.415-2.544c.955-.987 1.904-1.98 2.85-2.976a.368.368 0 0 0-.528-.514c-.967.972-1.94 1.938-2.919 2.897a.42.42 0 0 0 .588.601l.008-.008zm2.85-2.976a144.957 144.957 0 0 1 3.045-3.11.327.327 0 0 0-.46-.47 222.05 222.05 0 0 0-3.113 3.066.368.368 0 0 0 .522.52c.001-.003.004-.004.006-.007zm3.045-3.11a878.653 878.653 0 0 0 3.254-3.246.301.301 0 0 0-.425-.427 521.275 521.275 0 0 1-3.288 3.205.328.328 0 1 0 .455.471l.003-.003zm3.254-3.246a196.183 196.183 0 0 1 3.367-3.295.273.273 0 0 0-.375-.398 171.642 171.642 0 0 0-3.416 3.266.302.302 0 0 0 .422.43l.002-.002zm3.367-3.295c1.165-1.114 2.329-2.23 3.49-3.347a.257.257 0 1 0-.357-.371 288.42 288.42 0 0 1-3.51 3.32.274.274 0 0 0 .373.4l.003-.002zm3.49-3.347c1.182-1.136 2.374-2.26 3.58-3.37a.255.255 0 0 0-.346-.375 209.21 209.21 0 0 0-3.59 3.373.257.257 0 1 0 .357.371zm3.58-3.37c1.79-1.65 3.636-3.241 5.48-4.83a.265.265 0 1 0-.347-.402c-1.84 1.603-3.68 3.207-5.479 4.857a.255.255 0 0 0 .345.376zm5.48-4.831a945.264 945.264 0 0 1 12.69-10.737.193.193 0 0 0-.245-.3c-4.324 3.472-8.608 6.996-12.792 10.636a.265.265 0 0 0 .347.401zM93.49 131.065c.113-.28.365-.517.578-.722a.286.286 0 1 0-.399-.412l-.006.006c-.261.27-.54.57-.682.923a.274.274 0 1 0 .509.205zm.576-.72c.277-.263.566-.513.856-.761a.305.305 0 1 0-.397-.465l-.004.004c-.295.262-.588.53-.86.816a.287.287 0 0 0 .405.406zm.856-.761c.605-.517 1.242-.999 1.874-1.482a.347.347 0 1 0-.422-.55c-.004.002-.008.004-.01.008-.619.516-1.24 1.03-1.842 1.564a.305.305 0 0 0 .4.46zm1.874-1.482a88.215 88.215 0 0 0 2.493-1.977.392.392 0 0 0-.498-.604 352.43 352.43 0 0 1-2.427 2.04.347.347 0 0 0 .432.541zm2.493-1.977c1.213-1 2.377-2.058 3.543-3.11a.405.405 0 1 0-.544-.602c-1.156 1.05-2.311 2.101-3.501 3.111a.392.392 0 0 0 .502.601zm3.543-3.11a186.747 186.747 0 0 0 5.035-4.735.409.409 0 0 0-.569-.585 196.935 196.935 0 0 1-5.01 4.718.405.405 0 0 0 .544.601zm5.035-4.735c1.62-1.576 3.242-3.149 4.869-4.717a.393.393 0 0 0-.541-.568 444.91 444.91 0 0 0-4.897 4.7.409.409 0 0 0 .57.585zm4.869-4.717c1.326-1.279 2.654-2.555 3.987-3.827a.356.356 0 0 0-.486-.519 480.75 480.75 0 0 0-4.042 3.778.392.392 0 1 0 .538.57l.003-.002zm3.987-3.827a286.54 286.54 0 0 1 3.41-3.205.311.311 0 0 0-.418-.461 232.005 232.005 0 0 0-3.479 3.147.355.355 0 0 0 .482.523l.004-.004zm3.41-3.205a1377.66 1377.66 0 0 1 3.247-2.991.283.283 0 0 0-.382-.418c-1.087.99-2.182 1.973-3.283 2.948a.311.311 0 1 0 .418.461zm3.247-2.991c1.6-1.469 3.225-2.91 4.85-4.35a.279.279 0 0 0-.37-.418c-1.627 1.443-3.254 2.886-4.862 4.35a.283.283 0 1 0 .382.418zm4.85-4.35c1.79-1.588 3.581-3.175 5.376-4.758a.295.295 0 0 0-.39-.442l-.002.002a834.232 834.232 0 0 1-5.354 4.78.279.279 0 0 0 .37.418zm5.376-4.758a625.026 625.026 0 0 1 4.575-3.991.328.328 0 0 0-.43-.497c0 .001 0 .002-.002.003a566.69 566.69 0 0 0-4.535 4.045.295.295 0 0 0 .392.44zm4.575-3.992a342.324 342.324 0 0 0 6.56-5.82.225.225 0 0 0-.293-.342c-2.28 1.832-4.503 3.736-6.699 5.668a.328.328 0 0 0 .432.494zM110.61 131.652c.319-.397.644-.794 1-1.16a.235.235 0 1 0-.338-.327c-.004.004-.008.01-.014.014-.33.4-.655.804-.98 1.208a.212.212 0 0 0 .33.265zm.996-1.157c.3-.298.64-.56.972-.821a.29.29 0 1 0-.358-.454l-.015.012c-.33.298-.672.6-.949.95a.235.235 0 0 0 .35.313zm.972-.821c.386-.305.773-.61 1.162-.911a.327.327 0 1 0-.401-.517l-.007.005c-.385.316-.758.647-1.127.982a.29.29 0 0 0 .373.44zm1.162-.911c.392-.305.768-.63 1.14-.958a.35.35 0 0 0-.464-.525l-.01.008c-.348.33-.702.658-1.074.963a.327.327 0 0 0 .408.511zm1.14-.958a67.335 67.335 0 0 0 1.817-1.683.379.379 0 1 0-.522-.549l-.004.004a135.97 135.97 0 0 1-1.764 1.71.35.35 0 0 0 .473.518zm1.817-1.683a94.319 94.319 0 0 1 2.578-2.353.404.404 0 0 0-.535-.605 86.194 86.194 0 0 0-2.57 2.412.38.38 0 0 0 .526.546zm2.578-2.353a329 329 0 0 1 3.165-2.758.42.42 0 0 0-.547-.636h-.002c-1.06.921-2.113 1.85-3.154 2.793a.403.403 0 0 0 .538.601zm3.165-2.758a147.744 147.744 0 0 0 3.794-3.393.424.424 0 0 0-.576-.624 166.64 166.64 0 0 1-3.767 3.382.42.42 0 0 0 .55.635zm3.794-3.393c1.444-1.333 2.9-2.653 4.364-3.963a.416.416 0 0 0-.553-.621 286.12 286.12 0 0 0-4.387 3.96.424.424 0 0 0 .576.624zm4.364-3.963a290.412 290.412 0 0 0 4.682-4.287.399.399 0 0 0-.543-.583 284.144 284.144 0 0 1-4.692 4.249.416.416 0 1 0 .552.621zm4.682-4.287c1.926-1.802 3.845-3.613 5.762-5.426a.386.386 0 0 0-.531-.562 818.726 818.726 0 0 1-5.774 5.405.399.399 0 0 0 .541.585l.002-.002zm5.762-5.426c1.703-1.612 3.408-3.224 5.17-4.772a.38.38 0 0 0-.5-.571c-1.773 1.549-3.489 3.165-5.201 4.781a.386.386 0 1 0 .53.562zm5.17-4.772a457.847 457.847 0 0 0 4.035-3.592.387.387 0 1 0-.518-.576l-.001.001a251.358 251.358 0 0 1-4.016 3.595.38.38 0 1 0 .5.572zm4.035-3.592a108.676 108.676 0 0 1 4.152-3.567.398.398 0 1 0-.502-.617 95.975 95.975 0 0 0-4.17 3.61.387.387 0 0 0 .52.574zm4.152-3.567c2.158-1.753 4.19-3.66 6.148-5.633a.255.255 0 0 0-.351-.37 182.031 182.031 0 0 1-6.299 5.386.398.398 0 1 0 .502.617zM130.49 129.999c.254-.029.501-.197.714-.328.405-.25.792-.528 1.177-.808a.284.284 0 1 0-.335-.46c-.002.002-.003.002-.003.004-.368.277-.74.552-1.129.8-.115.072-.23.143-.353.202-.039.019-.088.047-.131.052a.27.27 0 0 0 .06.538zm1.89-1.136a20.545 20.545 0 0 0 2.689-2.343.316.316 0 0 0-.454-.438l-.004.004a19.34 19.34 0 0 1-2.568 2.32.284.284 0 0 0 .339.455zm2.689-2.343c.926-.963 1.849-1.93 2.77-2.897a.348.348 0 1 0-.503-.48l-.003.003-2.722 2.94a.315.315 0 0 0 .458.433zm2.77-2.897c.943-.99 1.909-1.96 2.913-2.889a.366.366 0 1 0-.497-.537l-.001.001a57.057 57.057 0 0 0-2.922 2.949.348.348 0 0 0 .507.476zm2.913-2.889a80.617 80.617 0 0 0 2.406-2.31.374.374 0 1 0-.53-.525 74.658 74.658 0 0 1-2.374 2.299.366.366 0 0 0 .498.536zm2.406-2.31a582.694 582.694 0 0 1 1.841-1.842c.239-.238.524-.467.732-.733a.378.378 0 0 0-.566-.5 324.72 324.72 0 0 0-2.538 2.55.373.373 0 0 0 .532.526zm2.54-2.54c.711-.707 1.419-1.419 2.156-2.098a.384.384 0 1 0-.521-.565l-.004.004c-.734.694-1.448 1.41-2.164 2.124a.378.378 0 0 0 .534.536zm2.156-2.098c.854-.788 1.674-1.612 2.5-2.428a.39.39 0 1 0-.549-.554c-.82.811-1.638 1.627-2.476 2.42a.384.384 0 0 0 .524.562zm2.5-2.428a129.086 129.086 0 0 1 4.432-4.149.371.371 0 0 0-.494-.555 105.816 105.816 0 0 0-4.486 4.149.39.39 0 1 0 .549.554zm4.432-4.149a396.523 396.523 0 0 0 4.09-3.716.347.347 0 0 0-.47-.51 290.127 290.127 0 0 1-4.114 3.671.371.371 0 0 0 .491.558l.003-.003zm4.09-3.716c.745-.69 1.49-1.378 2.241-2.062a.34.34 0 0 0-.456-.502c-.754.682-1.505 1.368-2.255 2.054a.347.347 0 1 0 .468.511h.002zm2.241-2.062c1.276-1.16 2.595-2.275 3.901-3.403a.335.335 0 0 0-.438-.507c-1.311 1.129-2.636 2.247-3.92 3.408a.34.34 0 1 0 .456.503h.001zm3.901-3.403a198.287 198.287 0 0 1 5.748-4.795.34.34 0 1 0-.424-.53h-.001a233.866 233.866 0 0 0-5.76 4.818.335.335 0 1 0 .437.507zm5.748-4.795a281.53 281.53 0 0 0 4.874-3.98.347.347 0 0 0-.445-.533 349.491 349.491 0 0 1-4.854 3.984.34.34 0 0 0 .425.529zm4.874-3.98a397.617 397.617 0 0 1 7.557-6.153.224.224 0 0 0-.27-.356c-2.64 1.91-5.234 3.885-7.732 5.976a.347.347 0 1 0 .445.532zM151.129 127.999c.273-.1.514-.306.735-.489.39-.322.759-.67 1.122-1.022a.347.347 0 1 0-.483-.5l-.004.005a18.09 18.09 0 0 1-1.066 1.004c-.155.132-.334.308-.53.379a.33.33 0 1 0 .225.623zm1.857-1.511c.653-.63 1.308-1.26 1.928-1.923a.354.354 0 0 0-.512-.49c-.63.644-1.267 1.28-1.903 1.917a.347.347 0 0 0 .487.496zm1.928-1.923c.32-.342.641-.685.963-1.025a.354.354 0 0 0-.515-.487l-.008.008c-.308.347-.629.682-.953 1.014a.355.355 0 0 0 .507.496l.005-.006zm.963-1.025c.47-.498.964-.973 1.454-1.451a.385.385 0 0 0-.537-.55l-.008.008c-.483.499-.97.995-1.431 1.514a.354.354 0 0 0 .522.479zm1.454-1.451c1.209-1.181 2.412-2.37 3.615-3.557a.418.418 0 1 0-.59-.593c-1.196 1.196-2.395 2.39-3.571 3.607a.384.384 0 0 0 .545.542zm3.615-3.557a157.518 157.518 0 0 1 4.934-4.672.43.43 0 0 0-.577-.636 137.692 137.692 0 0 0-4.946 4.715.418.418 0 0 0 .589.594zm4.934-4.672a578.653 578.653 0 0 0 5.046-4.625.416.416 0 0 0-.563-.612c-1.683 1.537-3.37 3.07-5.06 4.6a.43.43 0 1 0 .577.637zm5.046-4.625a449.312 449.312 0 0 0 5.192-4.89.39.39 0 0 0-.538-.565 431.385 431.385 0 0 1-5.217 4.843.416.416 0 0 0 .56.614l.003-.003zm5.192-4.89a419.141 419.141 0 0 1 5.413-5.084.37.37 0 0 0-.5-.544 490.043 490.043 0 0 0-5.45 5.063.39.39 0 1 0 .535.568l.001-.002zm5.413-5.084a328.287 328.287 0 0 1 5.612-5.068.342.342 0 0 0-.45-.516 264.12 264.12 0 0 0-5.662 5.04.37.37 0 0 0 .499.545h.001zm5.612-5.068a244.994 244.994 0 0 1 5.734-4.896.355.355 0 0 0-.453-.547l-.004.004a1511.142 1511.142 0 0 0-5.727 4.924.343.343 0 1 0 .448.518l.003-.003zm5.734-4.896c1.272-1.054 2.535-2.128 3.847-3.133a.389.389 0 1 0-.476-.616c-1.313 1.02-2.565 2.125-3.828 3.206a.355.355 0 0 0 .456.542zm3.847-3.134c1.096-.84 2.19-1.685 3.282-2.53a.258.258 0 0 0-.293-.424c-1.186.73-2.363 1.485-3.464 2.339a.389.389 0 0 0 .475.615zM168.275 130.705c.554-.875 1.274-1.644 2.01-2.367a.355.355 0 0 0-.496-.507l-.008.008c-.746.782-1.471 1.605-2.05 2.52a.323.323 0 0 0 .544.346zm2.008-2.364c.553-.532 1.102-1.067 1.644-1.61a.392.392 0 1 0-.555-.555l-.003.003a105.15 105.15 0 0 0-1.59 1.663.355.355 0 0 0 .505.499zm1.644-1.61c.683-.683 1.35-1.383 2.013-2.084a.4.4 0 1 0-.581-.551h-.001c-.658.7-1.317 1.397-1.99 2.083a.393.393 0 0 0 .558.553zm2.013-2.084c1.123-1.186 2.3-2.322 3.481-3.45a.404.404 0 1 0-.557-.584c-1.192 1.137-2.377 2.284-3.506 3.484a.4.4 0 0 0 .582.55zm3.481-3.45a838.852 838.852 0 0 1 4.906-4.637.405.405 0 1 0-.554-.59 775.923 775.923 0 0 0-4.91 4.643.404.404 0 0 0 .558.585zm4.906-4.637c3.584-3.363 7.223-6.666 10.868-9.963a.254.254 0 0 0-.334-.382c-3.754 3.181-7.499 6.386-11.088 9.754a.405.405 0 0 0 .554.591zM180.701 129.572c.183-.064.338-.212.478-.341.234-.216.454-.448.67-.682a.33.33 0 0 0-.484-.448c-.204.221-.411.441-.633.645-.064.06-.188.183-.25.204a.33.33 0 1 0 .219.622zm1.148-1.023c1.12-1.21 2.335-2.34 3.522-3.484a.374.374 0 0 0-.517-.539l-.007.007c-1.17 1.18-2.353 2.35-3.482 3.568a.33.33 0 0 0 .484.448zm3.522-3.484a134.309 134.309 0 0 1 4.988-4.592.417.417 0 0 0-.548-.63c-1.718 1.494-3.36 3.074-4.964 4.69a.373.373 0 0 0 .525.532zm4.988-4.592c1.99-1.731 3.977-3.467 5.954-5.213a.268.268 0 0 0-.337-.418c-2.132 1.568-4.169 3.265-6.165 5.001a.417.417 0 1 0 .548.63zM192.034 127.119l7.611-6.35a.31.31 0 0 0-.396-.475l-7.611 6.35a.31.31 0 1 0 .396.475z"/></g><path d="M134.502 101.386c.015.09.032.28.046.402a.385.385 0 0 0 .765 0c.014-.124.03-.304.046-.403a.434.434 0 1 0-.857.001zm.87-.052c-.017-.17-.076-.324-.25-.409a.435.435 0 0 0-.528.115.513.513 0 0 0-.104.294.443.443 0 1 0 .881 0zm.13 1.38-.13-1.38a.443.443 0 0 0-.882 0l-.13 1.38a.574.574 0 1 0 1.142 0zm.18 2.282a61.897 61.897 0 0 0-.18-2.281.574.574 0 0 0-1.143 0c-.073.768-.13 1.54-.143 2.311a.734.734 0 1 0 1.466-.03zm.1 2.13c-.027-.71-.059-1.42-.1-2.13a.734.734 0 0 0-1.466.03l-.034 2.117a.8.8 0 1 0 1.6-.018zm-1.005 3.104a.541.541 0 0 0 1.004-.25c.052-.946.028-1.899.001-2.847a.8.8 0 0 0-1.6.018c-.007 1.018.057 2.181.595 3.079z"/><path d="M130.382 102.4a57.78 57.78 0 0 1 2.662-.15.569.569 0 1 0-.113-1.129c-.897.148-1.793.318-2.673.548a.372.372 0 0 0 .124.73zm2.673-.15c2.361-.132 4.716-.427 7.062-.715a.46.46 0 0 0-.073-.918c-2.366.086-4.756.165-7.102.503a.569.569 0 0 0 .113 1.13zM129.53 112.186c.73-.014 1.46-.085 2.185-.162a91.187 91.187 0 0 0 3.278-.421.57.57 0 0 0-.162-1.128l-.025.004c-1.768.335-3.543.687-5.331.894a.408.408 0 0 0 .054.813zm5.463-.583c1.076-.156 2.152-.31 3.23-.447.551-.07 1.105-.15 1.66-.18a.441.441 0 0 0 .146-.847c-.264-.11-.56-.14-.842-.153a8.778 8.778 0 0 0-1.081.025c-1.108.084-2.209.273-3.3.478a.57.57 0 0 0 .187 1.124z"/><g fill="#55e1ff"><path d="M212.007 82.146a.628.628 0 1 0 1.254-.076 7.786 7.786 0 0 0-.16-1.069c-.06-.252-.14-.526-.314-.726a.46.46 0 0 0-.806.291c-.012.526.012 1.055.026 1.58zm1.43 2.075a41.702 41.702 0 0 0-.177-2.165.629.629 0 0 0-1.253.077c.004.709-.003 1.418-.01 2.127a.72.72 0 1 0 1.44-.039zm-1.44.049c.003.677.042 1.364.192 2.026.11.48.283.996.64 1.353a.511.511 0 0 0 .863-.454c-.181-.97-.205-1.98-.254-2.964a.72.72 0 0 0-1.44.039z"/><path d="M208.994 81.013c.864.066 1.732.143 2.599.16a.63.63 0 1 0-.029-1.26c-.856.057-1.711.116-2.567.175a.464.464 0 0 0-.003.925zm2.587.16c.39.015.783-.004 1.172-.035a.689.689 0 1 0-.17-1.365 12.09 12.09 0 0 1-1.031.141.63.63 0 0 0 .029 1.259zm1.182-.036c1.13-.104 2.257-.24 3.384-.371a.477.477 0 0 0-.016-.948c-.7-.058-1.402-.104-2.104-.115-.477-.008-.962-.006-1.434.068a.689.689 0 0 0 .17 1.366zM210.06 88.76c-.047.013.011-.002.024-.004l.15-.03a.366.366 0 0 0 0-.718c-.08-.016-.163-.04-.245-.048a.408.408 0 1 0 .071.8zm-.235-.003a.416.416 0 1 0 .096-.8l-.012.003a.408.408 0 0 0-.121.782l.037.016zm.045.015.621.162a.516.516 0 1 0 .104-1.013l-.642.034a.416.416 0 0 0-.083.817zm.621.162c.462.121.936.192 1.41.229a.664.664 0 1 0 .006-1.324c-.437.03-.875.058-1.312.082a.516.516 0 0 0-.104 1.013zm1.426.23c.555.03 1.115-.007 1.669-.045a69.69 69.69 0 0 0 2.707-.248.49.49 0 0 0-.037-.98c-1.44-.045-2.894-.122-4.334-.053a.664.664 0 0 0-.005 1.326zM208.247 76.32a.34.34 0 0 0 .597.181c.062-.01.125-.013.188-.013a.417.417 0 1 0-.084-.826c-.329.064-.747.253-.7.658zm.785.168c1.173-.012 2.347.003 3.52.007a.59.59 0 0 0 .004-1.18l-.05.002c-.81.067-1.621.135-2.43.213-.375.036-.758.058-1.128.13a.417.417 0 0 0 .084.827zm3.52.007c1.894.006 3.793-.063 5.676-.277a.47.47 0 0 0-.012-.935c-1.898-.167-3.813-.122-5.71.035a.59.59 0 0 0 .046 1.177z"/></g></svg>