<svg width="360.67" height="248.72" xml:space="preserve" xmlns="http://www.w3.org/2000/svg"><g fill="none" stroke="#000" stroke-linecap="round" stroke-linejoin="round" stroke-miterlimit="10" stroke-width="1.819"><path d="M166.685 5.457v242.602M.654 132.929h353.828" stroke-width="1.32286775"/></g><path d="M165.843 6.964c.008.12.008.242.008.363a.284.284 0 0 0 .566.031c.022-.2.047-.403.042-.604-.003-.12-.03-.24-.12-.326-.175-.165-.433-.095-.557.088a.34.34 0 0 0 .061.448zm.17.637.357-.749a.34.34 0 0 0-.583-.343l-.482.675a.412.412 0 1 0 .708.417zm-.477 1.496c.115-.508.252-1.023.477-1.496a.412.412 0 0 0-.708-.417c-.353.495-.571 1.081-.742 1.66a.503.503 0 1 0 .965.284l.008-.03zm-.24 1.058.24-1.058a.503.503 0 0 0-.973-.253l-.306 1.041a.537.537 0 0 0 1.031.303c.003-.01.007-.022.008-.033zm-.978.206a.538.538 0 0 0 .792.118.605.605 0 0 0 .187-.297.538.538 0 0 0-1.003-.388.532.532 0 0 0-.037.091.547.547 0 0 0 .06.476zm.979-.179.448-1.389a.525.525 0 0 0-.996-.331l-.474 1.38a.539.539 0 1 0 1.021.34zm.448-1.389c.247-.765.507-1.527.796-2.278a.489.489 0 0 0-.904-.37c-.33.758-.62 1.534-.888 2.317a.525.525 0 1 0 .995.331zm.796-2.278c.184-.48.38-.972.663-1.403a.49.49 0 1 0-.838-.504 19.233 19.233 0 0 0-.73 1.537.489.489 0 1 0 .905.37zm.663-1.403a1.16 1.16 0 0 1 .25-.3v.001a.54.54 0 1 0-.264-1.043c-.39.12-.638.497-.824.838a.49.49 0 0 0 .838.504zm-.135-.368c.277.514.429 1.113.596 1.669a.61.61 0 1 0 1.168-.352l-.008-.025c-.183-.522-.37-1.049-.618-1.544-.191-.381-.508-.879-1.016-.722a.539.539 0 0 0-.122.975zm.598 1.673c.535 1.73 1.378 3.545 2.88 4.641a.426.426 0 0 0 .572-.626c-1.096-1.244-1.763-2.84-2.293-4.392a.61.61 0 0 0-1.16.377zM152.31.417c.011.155.017.322.024.48a.354.354 0 0 0 .708 0l.025-.485a.379.379 0 1 0-.757.005zm.76-.065a.382.382 0 0 0-.629-.253.398.398 0 0 0-.134.281.384.384 0 1 0 .763-.028zm.093.613-.094-.613a.384.384 0 0 0-.762.028l-.048.618a.455.455 0 1 0 .903-.033zm-.714 1.606a.548.548 0 1 0 1.059-.286l-.01-.032a7.676 7.676 0 0 1-.335-1.288.455.455 0 0 0-.903.033c-.041.53.052 1.064.19 1.573zm0 0a4.55 4.55 0 0 0 .89 1.704.6.6 0 1 0 .927-.765l-.024-.027c-.33-.354-.59-.77-.744-1.23a.548.548 0 0 0-1.049.318zm.89 1.704c.429.518.986.92 1.625 1.136a.633.633 0 0 0 .404-1.198l-.008-.003a2.652 2.652 0 0 1-1.118-.728.6.6 0 0 0-.903.793zm1.625 1.136c.568.192 1.174.277 1.77.2a.638.638 0 0 0-.164-1.265 2.79 2.79 0 0 1-1.21-.136.633.633 0 0 0-.396 1.201zm1.77.2c.609-.08 1.162-.385 1.504-.902a.627.627 0 0 0-1.034-.708c-.15.211-.382.312-.634.345a.638.638 0 0 0 .164 1.265zm1.504-.902c.34-.516.481-1.142.543-1.75a.59.59 0 0 0-1.17-.15c-.064.408-.163.849-.407 1.192a.627.627 0 1 0 1.021.726l.012-.018zm.543-1.75c.053-.528.095-1.065.055-1.596a.545.545 0 0 0-1.088.044c.001.468-.065.94-.138 1.401a.59.59 0 0 0 1.167.182l.004-.031zM157.748 1.4a.545.545 0 1 0 1.088-.037c-.015-.193-.038-.394-.121-.571a.64.64 0 0 0-.878-.308.547.547 0 0 0-.09.917h.001zm.475 2.289c.055-.563.112-1.126.189-1.686.033-.243.061-.495.13-.731h.001a.547.547 0 0 0-.706-.788c-.377.192-.45.728-.524 1.099-.13.651-.217 1.312-.302 1.97a.61.61 0 1 0 1.21.155l.003-.019zm-.373 5.304c.083-1.77.203-3.54.373-5.304a.61.61 0 0 0-1.212-.136 76.42 76.42 0 0 0-.488 5.371.664.664 0 1 0 1.327.076v-.007zm-.334 4.16c.208-1.374.269-2.774.334-4.16a.664.664 0 0 0-1.327-.069c-.076 1.342-.147 2.696-.348 4.027a.678.678 0 1 0 1.341.202zm-.46 1.91c.284-.58.365-1.279.46-1.91a.678.678 0 1 0-1.341-.202c-.052.346-.11.693-.184 1.036-.038.176-.076.36-.146.526a.665.665 0 0 0 1.21.55zm-1.28.731c.553.06 1.039-.238 1.28-.73a.665.665 0 0 0-1.195-.586l-.016.035-.01.02a.632.632 0 0 0-.058 1.261zm-1.33-1.4c.243.582.623 1.324 1.33 1.4a.632.632 0 0 0 .156-1.254c-.104-.015-.014 0 .004.01-.03-.018-.054-.046-.077-.071-.144-.164-.246-.368-.339-.564a.588.588 0 0 0-1.073.478zm-.545-2.53c.059.862.211 1.73.545 2.53a.587.587 0 1 0 1.085-.453l-.011-.025c-.315-.666-.455-1.405-.515-2.134a.553.553 0 0 0-1.104.083zm0 0a.553.553 0 1 0 1.103-.082c-.051-.632-.048-1.329.23-1.913a.553.553 0 1 0-1.005-.465c-.344.764-.385 1.636-.329 2.46zm1.334-1.996c.068-.145.205-.254.334-.341.242-.164.516-.28.79-.377 1.001-.359 2.078-.515 3.129-.642a.38.38 0 0 0-.058-.755c-1.13.036-2.29.11-3.383.416-.698.196-1.497.53-1.817 1.234a.554.554 0 0 0 1.005.465zM352.559 131.24a.3.3 0 0 0 .217-.56 4.98 4.98 0 0 1-.279-.116.32.32 0 0 0-.361-.151c-.247.066-.343.383-.147.561a.589.589 0 0 0 .144.09c.138.067.283.121.426.177zm-.374-.2.458.049a.42.42 0 1 0-.09-.817l-.436.146a.32.32 0 0 0 .068.623zm.458.049c.12.013.244.084.35.138.262.133.513.29.76.452a.546.546 0 1 0 .56-.938 5.23 5.23 0 0 0-.954-.423c-.256-.079-.545-.133-.806-.046a.42.42 0 0 0 .09.817zm1.11.59c.563.368 1.151.716 1.781.957a.623.623 0 1 0 .446-1.165l-.048-.016c-.566-.165-1.103-.433-1.62-.714a.547.547 0 0 0-.56.938zm1.76.947a.678.678 0 0 0 1.21.405c.272-.344.284-.826-.018-1.157-.201-.221-.492-.336-.773-.419a.624.624 0 0 0-.419 1.172zm-.08 1.188c.48-.15.972-.379 1.29-.783a.679.679 0 0 0-1.013-.9c-.173.174-.458.253-.686.317a.713.713 0 0 0 .39 1.372l.019-.006zm-2.358 1.744c.445-.433.908-.855 1.412-1.22.288-.208.6-.417.943-.523a.713.713 0 0 0-.409-1.366c-.532.154-.99.505-1.38.888-.493.486-.908 1.05-1.287 1.628a.47.47 0 0 0 .72.593zM351.132 146.12a.366.366 0 0 0 .689-.245c-.175-.54-.15-1.11.207-1.57a.442.442 0 1 0-.698-.543l-.021.03c-.464.708-.479 1.553-.177 2.328zm.891-1.809c.25-.309.546-.58.886-.788a.517.517 0 1 0-.582-.853 4.24 4.24 0 0 0-1.022 1.128.442.442 0 0 0 .718.513zm.886-.788c.238-.146.508-.282.791-.305a.573.573 0 1 0-.15-1.135c-.451.084-.862.314-1.223.588a.517.517 0 0 0 .582.852zm.791-.305c.159-.013.305.16.393.267a.631.631 0 1 0 .927-.854c-.39-.383-.912-.65-1.47-.548a.573.573 0 0 0 .15 1.135zm.393.267c.113.135.162.327.202.493.086.362.113.738.125 1.108a.69.69 0 1 0 1.377-.068c-.052-.805-.167-1.79-.777-2.387a.631.631 0 0 0-.927.854zm1.32 4.483c.35-.939.449-1.954.384-2.95a.69.69 0 0 0-1.377.068c.027.805-.06 1.624-.344 2.382a.713.713 0 0 0 1.336.5zm-.92 2.067a15.97 15.97 0 0 0 .92-2.067.713.713 0 0 0-1.337-.5 19.318 19.318 0 0 1-.82 1.92.698.698 0 0 0 1.236.647zm-.544 1.058c.154-.364.354-.711.543-1.058a.698.698 0 1 0-1.235-.648c-.205.409-.429.83-.551 1.273a.66.66 0 0 0 1.244.433zm-.138.408a.634.634 0 0 0 .19-.68.66.66 0 0 0-1.296-.16c-.06.216-.086.446.014.657.209.442.752.473 1.092.183zm0 0 .835-.715a.614.614 0 0 0-.78-.947l-.861.684a.634.634 0 0 0 .788.992l.018-.014zm.835-.715c.56-.479 1.043-1.044 1.486-1.631a.546.546 0 0 0-.842-.694c-.441.49-.907.967-1.424 1.378a.614.614 0 1 0 .78.947zm1.486-1.631a27.458 27.458 0 0 0 1.484-2.195.512.512 0 1 0-.874-.535c-.003.004-.006.008-.007.012a11.906 11.906 0 0 1-1.444 2.024.546.546 0 1 0 .841.694zm1.484-2.195c.377-.616.773-1.272.96-1.977a.544.544 0 0 0-1.052-.279c-.001.007-.002.014-.005.02-.136.606-.479 1.181-.785 1.713a.513.513 0 0 0 .881.523zm.96-1.977.186-.702a.558.558 0 0 0-1.078-.286l-.006.02-.159.71a.544.544 0 0 0 1.057.258zm-.248-.297c.21-.04.38-.198.434-.405a.56.56 0 0 0-.57-.73.579.579 0 0 0-.487.349.56.56 0 0 0 .623.786zm.128.362.278-.705a.56.56 0 0 0-1.03-.444c-.106.23-.213.458-.32.687a.584.584 0 0 0 1.058.495l.014-.033zm-.588 2.36c.1-.5.205-1 .329-1.494a6.96 6.96 0 0 1 .259-.866.584.584 0 0 0-1.073-.462c-.373.797-.562 1.697-.765 2.548a.64.64 0 1 0 1.245.297c0-.008.004-.015.005-.023zm-.405 2.637c.052-.886.231-1.769.405-2.637a.64.64 0 0 0-1.25-.274c-.22.922-.442 1.86-.531 2.806a.69.69 0 1 0 1.374.129l.001-.024zm-1.298 1.453a.72.72 0 1 0 1.33-.548c-.03-.064-.032-.176-.037-.252a4.986 4.986 0 0 1 .005-.653.69.69 0 0 0-1.376-.105c-.047.504-.1 1.072.078 1.558zm.002.008c.175.46.667.617 1.115.525.276-.056.539-.174.789-.3.837-.418 1.617-.957 2.385-1.488a.477.477 0 0 0-.486-.819c-.6.301-1.206.596-1.826.855a5.99 5.99 0 0 1-.968.336l.001-.001a.72.72 0 0 0-1.01.892z"/><path d="M179.851 48.42c45.709 7.057 77.045 49.832 69.987 95.539s-49.833 77.044-95.539 69.986-77.045-49.832-69.987-95.538 49.833-77.045 95.539-69.987z" fill="none" stroke="#000" stroke-miterlimit="10" stroke-width="1.32286775"/><path d="M254.894 139.974c.212.429.274.914.23 1.387a.331.331 0 0 0 .658.062 4.874 4.874 0 0 0-.13-1.736.407.407 0 1 0-.758.287zm-.28-.504.29.521a.407.407 0 0 0 .752-.285l-.128-.582a.493.493 0 1 0-.913.346zm.927.229c-.004-.128-.008-.256-.01-.384a.51.51 0 0 0-.134-.437.496.496 0 0 0-.454-.142c-.46.093-.435.604-.447.961a.523.523 0 1 0 1.044.002zm.131 4.182-.131-4.182a.523.523 0 0 0-1.045-.002l-.143 4.183a.66.66 0 1 0 1.319.001zm.121 3.848-.121-3.848a.66.66 0 0 0-1.319-.001l-.131 3.847a.786.786 0 1 0 1.571.002zm-1.564.357a.791.791 0 0 0 1.567-.087c.007-.09 0-.18-.002-.27a.786.786 0 0 0-1.571-.002c-.004.119-.015.241.006.359zm1.567-.199-.046-.736a.744.744 0 0 0-1.486 0l-.046.736a.79.79 0 1 0 1.578 0zm-1.553-2.518c.033.592.059 1.19.021 1.782a.744.744 0 1 0 1.486 0 39.459 39.459 0 0 0-.177-1.893.667.667 0 0 0-1.33.111zm0 0a.667.667 0 1 0 1.333-.074l-.002-.037a24.662 24.662 0 0 1-.152-2.087.62.62 0 0 0-1.238.012 34.66 34.66 0 0 0 .06 2.186zm1.178-2.198a11.64 11.64 0 0 1 .042-1.556.6.6 0 0 0-1.193-.134 15.706 15.706 0 0 0-.086 1.702.619.619 0 1 0 1.237-.012zm.042-1.556c.045-.422.296-.81.546-1.14a.61.61 0 0 0-.97-.737l-.01.012c-.37.511-.686 1.095-.76 1.73a.6.6 0 1 0 1.193.14v-.005zm.546-1.14c.291-.384.642-.741 1.072-.968a.638.638 0 1 0-.594-1.128l-.023.012c-.576.334-1.048.821-1.435 1.358a.61.61 0 0 0 .98.725zm1.072-.968a1.77 1.77 0 0 1 1.02-.21.674.674 0 0 0 .147-1.34l-.038-.002a3.154 3.154 0 0 0-1.746.437.638.638 0 0 0 .617 1.116zm1.02-.21c.229.026.355.175.438.382a.704.704 0 0 0 1.306-.525c-.001-.006-.004-.01-.007-.015-.29-.677-.882-1.145-1.629-1.185a.674.674 0 0 0-.11 1.343zm.438.382c.18.448.259.931.275 1.412a.714.714 0 0 0 1.425-.046v-.001a5.273 5.273 0 0 0-.4-1.905.704.704 0 0 0-1.3.54zm1.217 3.44a4.07 4.07 0 0 0 .483-2.075.713.713 0 0 0-1.425.047c.015.47-.089.934-.313 1.349a.714.714 0 1 0 1.255.68zm-1.134 1.502c.46-.431.834-.948 1.134-1.502a.714.714 0 1 0-1.255-.68c-.233.43-.511.839-.853 1.19a.695.695 0 0 0 .974.992zm-1.452 1.066a8.043 8.043 0 0 0 1.452-1.066.695.695 0 0 0-.95-1.015l-.024.023a8.035 8.035 0 0 1-1.168.98.64.64 0 0 0 .69 1.078zm-1.615.354a.565.565 0 0 0 1.111.03c.017-.083-.01.002-.007-.003a.457.457 0 0 1 .072-.077c.13-.12.285-.215.438-.304a.64.64 0 1 0-.645-1.107l-.044.028c-.459.32-1.022.806-.926 1.433zm0 0c.058.38.388.606.711.757.389.181.807.3 1.22.412a.632.632 0 1 0 .243-1.238c-.363-.046-.758-.088-1.096-.237a.565.565 0 0 0-1.078.306zm1.945 1.172c1.405.343 2.787.782 4.12 1.343a.495.495 0 0 0 .482-.859c-1.282-.927-2.798-1.492-4.359-1.723a.632.632 0 0 0-.243 1.24z"/><g fill="none" stroke="#55e1ff" stroke-linecap="round" stroke-linejoin="round" stroke-miterlimit="10" stroke-width="3.118"><path d="M168.048 132.95h82.834M168.048 132.95h82.834" stroke-width="2.2675655"/></g><g fill="#55e1ff"><path d="M181.563 117.548c.03-.026.082-.073.126-.075a.509.509 0 1 0-.04-1.017c-.233.01-.46.079-.67.176a.548.548 0 1 0 .584.916zm-.053.114a.384.384 0 0 1 .081-.14.548.548 0 0 0-.577-.905c-.18.07-.348.168-.504.283a.654.654 0 1 0 1 .762zm-.097.325a2.15 2.15 0 0 1 .097-.325.655.655 0 0 0-1-.762 2.723 2.723 0 0 0-.451.42.778.778 0 1 0 1.354.667zm-.143.65.143-.65a.778.778 0 0 0-1.354-.667c-.194.228-.33.504-.448.776a.876.876 0 1 0 1.659.541zm-.123.967c.023-.323.052-.65.123-.967a.876.876 0 0 0-1.659-.54 9.335 9.335 0 0 0-.401 1.167.989.989 0 1 0 1.937.34zm-.023 1.4c-.013-.466-.01-.934.023-1.4a.989.989 0 0 0-1.937-.34 9.763 9.763 0 0 0-.308 1.654 1.114 1.114 0 1 0 2.217.234c.005-.049.006-.098.005-.147zm-2.28 1.81a1.198 1.198 0 1 0 2.39-.169 22.196 22.196 0 0 1-.11-1.64 1.114 1.114 0 0 0-2.222-.087c-.067.63-.082 1.264-.057 1.896zm0 0c.028.699.146 1.394.36 2.06a1.237 1.237 0 1 0 2.354-.758c-.002-.01-.006-.019-.009-.028a6.333 6.333 0 0 1-.316-1.442 1.198 1.198 0 0 0-2.388.168zm.36 2.06c.201.623.473 1.224.827 1.774a1.247 1.247 0 1 0 2.097-1.35 5.69 5.69 0 0 1-.579-1.21 1.236 1.236 0 0 0-2.345.786zm.827 1.774c.235.365.475.762.801 1.055a1.223 1.223 0 0 0 1.807-1.629c-.181-.25-.344-.516-.511-.776a1.247 1.247 0 1 0-2.097 1.35zm.801 1.055c.23.206.496.371.76.53a1.193 1.193 0 0 0 1.258-2.027c-.099-.063-.2-.126-.277-.215a1.224 1.224 0 1 0-1.741 1.712zm.76.53c.357.214.742.384 1.142.5a1.17 1.17 0 0 0 .727-2.223 3.077 3.077 0 0 1-.611-.304 1.193 1.193 0 1 0-1.289 2.007l.03.02zm1.142.5c.35.102.712.179 1.077.175a1.14 1.14 0 0 0 .094-2.275c-.151-.014-.303-.072-.444-.123a1.17 1.17 0 0 0-.798 2.2l.071.023zm1.077.175c.326-.004.649-.06.965-.134a1.12 1.12 0 0 0-.49-2.186c-.121.025-.256.057-.381.045a1.14 1.14 0 1 0-.094 2.275zm.965-.134c.585-.137 1.078-.517 1.484-.946a1.093 1.093 0 0 0-1.536-1.553c-.114.105-.28.28-.438.313a1.12 1.12 0 1 0 .49 2.186zm1.484-.946c.403-.424.74-.912.98-1.446a1.054 1.054 0 0 0-1.902-.91 2.88 2.88 0 0 1-.614.803 1.093 1.093 0 1 0 1.536 1.553zm.98-1.446c.305-.675.431-1.43.525-2.159a1.005 1.005 0 0 0-1.984-.311c-.097.521-.2 1.081-.443 1.56a1.054 1.054 0 1 0 1.882.953l.02-.043zm.525-2.159c.107-.834.172-1.674.183-2.515a.974.974 0 0 0-1.947-.025v.005c-.005.746-.084 1.49-.22 2.223a1.004 1.004 0 1 0 1.983.312zm-1.95-4.393a7.76 7.76 0 0 1 .186 1.858.973.973 0 0 0 1.947.02c.01-.782-.051-1.57-.233-2.331a.977.977 0 1 0-1.9.453zm-.543-1.222c.27.36.439.787.543 1.222a.977.977 0 0 0 1.9-.453 6.308 6.308 0 0 0-.783-1.913 1.008 1.008 0 1 0-1.66 1.144zm-.547-.68c.206.186.38.455.547.68a1.009 1.009 0 0 0 1.66-1.144c-.22-.348-.438-.713-.713-1.021a1.055 1.055 0 1 0-1.494 1.485zm-.325-.214c.113.062.23.128.325.214a1.055 1.055 0 0 0 1.494-1.485 3.456 3.456 0 0 0-.711-.588 1.083 1.083 0 1 0-1.108 1.86zm-.548-.246c.189.068.372.15.548.246a1.083 1.083 0 0 0 1.108-1.86 6.135 6.135 0 0 0-.824-.446 1.112 1.112 0 0 0-.909 2.029c.025.01.051.022.077.031zm-.643-.121c.215.02.438.047.643.121a1.112 1.112 0 0 0 .832-2.06 4.314 4.314 0 0 0-1.231-.318 1.136 1.136 0 0 0-.282 2.253l.038.004zm-.69-.048c.23.002.46.027.69.048a1.135 1.135 0 0 0 .244-2.257c-.29-.037-.581-.074-.873-.087a1.149 1.149 0 1 0-.061 2.296zm-.384.104c.108-.034.217-.066.327-.09.02-.004.127-.014.057-.014a1.148 1.148 0 0 0 .06-2.296c-.382-.017-.764.086-1.126.198a1.152 1.152 0 1 0 .682 2.202zm-1.889 1.689c.423-.453.857-.902 1.333-1.3.156-.13.364-.33.556-.39a1.152 1.152 0 0 0-.682-2.2c-.602.186-1.054.673-1.409 1.173-.415.586-.74 1.236-1.037 1.889a.755.755 0 0 0 1.24.828z"/><path d="M180.803 122.814c.413-.002.826.015 1.238.045a.957.957 0 1 0-.042-1.904 4.036 4.036 0 0 0-1.567.504.727.727 0 0 0 .371 1.355zm1.192.04c.29.036.579.089.864.153a1.115 1.115 0 1 0 .101-2.193c-.336.044-.672.092-1.007.148a.956.956 0 0 0 .042 1.893zm.923.164c.471.08.96.06 1.435.033a30.594 30.594 0 0 0 2.088-.203.784.784 0 0 0 .072-1.544 30.385 30.385 0 0 0-2.06-.396c-.47-.07-.957-.136-1.433-.1a1.115 1.115 0 0 0-.102 2.21zM192.496 121.401c.275.01.555.15.795.27a.773.773 0 1 0 .194-1.446c-.31.064-.634.126-.953.115a.531.531 0 0 0-.036 1.061zm.795.27c.41.208.84.395 1.29.495a1.067 1.067 0 1 0 .21-2.108c-.439.008-.876.08-1.306.167a.772.772 0 0 0-.194 1.447zm1.33.503c.788.143 1.614-.099 2.338-.4a.727.727 0 0 0-.096-1.375c-.661-.172-1.346-.328-2.032-.341a1.067 1.067 0 0 0-.21 2.116zM193.376 124.761c.219.02.435.076.645.14a.795.795 0 1 0-.233-1.406c-.08.057-.206.145-.312.135a.568.568 0 1 0-.1 1.13zm.645.14c.388.118.788.196 1.189.255a1.13 1.13 0 1 0-.067-2.225c-.48.1-.955.276-1.355.564a.795.795 0 0 0 .233 1.406zm1.258.263c.597.05 1.276.083 1.844-.144a.804.804 0 0 0 .484-.93c-.115-.49-.536-.847-.985-1.03-.445-.179-.939-.209-1.41-.14a1.13 1.13 0 0 0 .067 2.244zM201.79 117.948c.138.047.284.073.428.096a.475.475 0 0 0 .178-.932.541.541 0 1 0-.607.836zm-.512-.553c.079.304.33.563.655.58a.541.541 0 0 0 .57-.51v-.016c0 .033.012-.045.015-.055a.64.64 0 1 0-1.24 0zm0 0a.64.64 0 0 0 1.16.183c.002-.003.005-.004.009-.007a.772.772 0 1 0-1.087-.953c-.093.246-.15.517-.082.776zm1.169.177c.168-.09.342-.169.516-.244a.93.93 0 1 0-.978-1.556c-.266.231-.5.514-.625.846a.772.772 0 0 0 1.087.954zm.516-.244a1.69 1.69 0 0 1 .492-.122 1.05 1.05 0 1 0-.505-2.017c-.35.142-.68.335-.965.583a.93.93 0 0 0 .978 1.556zm.492-.122a.977.977 0 0 1 .386.032 1.168 1.168 0 1 0 .344-2.286 3.224 3.224 0 0 0-1.235.237 1.05 1.05 0 0 0 .505 2.017zm.386.032a.498.498 0 0 1 .196.103 1.253 1.253 0 1 0 1.55-1.96 2.537 2.537 0 0 0-1.402-.429 1.167 1.167 0 0 0-.344 2.286zm.196.103c.093.085.184.176.254.28a1.303 1.303 0 1 0 2.033-1.62 4.256 4.256 0 0 0-.736-.62 1.253 1.253 0 0 0-1.55 1.96zm.254.28c.099.144.194.29.285.44a1.325 1.325 0 1 0 2.26-1.383 4.299 4.299 0 0 0-.512-.676 1.303 1.303 0 0 0-2.033 1.619zm.285.44c.07.115.134.236.189.36a1.32 1.32 0 0 0 2.431-1.028c-.1-.247-.22-.487-.36-.715a1.325 1.325 0 0 0-2.26 1.382zm.189.36c.049.111.072.237.092.356a1.31 1.31 0 0 0 2.588-.406 4.24 4.24 0 0 0-.249-.978 1.32 1.32 0 0 0-2.45.986l.019.042zm.092.356c.035.209.028.425.012.635a1.3 1.3 0 0 0 2.592.216 5.37 5.37 0 0 0-.016-1.257 1.31 1.31 0 1 0-2.588.406zm2.132 2.462c.244-.506.42-1.05.472-1.611a1.3 1.3 0 1 0-2.591-.216c-.02.27-.106.533-.209.78a1.277 1.277 0 0 0 2.328 1.047zm-.75 1.363c.272-.442.524-.896.75-1.363a1.277 1.277 0 1 0-2.328-1.046c-.161.385-.352.758-.564 1.117a1.25 1.25 0 0 0 2.142 1.292zm-1.213 1.919c.408-.637.816-1.275 1.213-1.92a1.25 1.25 0 1 0-2.142-1.29c-.385.652-.757 1.313-1.129 1.973a1.201 1.201 0 0 0 2.058 1.237zm-1.257 1.926c.43-.634.844-1.28 1.257-1.926a1.201 1.201 0 1 0-2.058-1.237c-.373.662-.745 1.323-1.112 1.987a1.124 1.124 0 0 0 1.913 1.176zm-.487.721c.159-.243.324-.481.487-.721a1.124 1.124 0 1 0-1.913-1.176c-.184.332-.41.683-.503 1.055a1.068 1.068 0 0 0 1.929.842zm-.344.577a1.047 1.047 0 1 0-.01-2.094h-.024v-.002a1.067 1.067 0 0 0-1.551.677c-.118.475.098.978.519 1.224.138.081.292.131.45.158.203.035.411.038.617.037zm0 0c.43-.003.858-.012 1.286-.027a1.123 1.123 0 1 0-.332-2.208 3.867 3.867 0 0 1-.968.14 1.047 1.047 0 0 0 .015 2.095zm1.286-.027c.479-.018.957-.059 1.431-.124a1.218 1.218 0 1 0-.403-2.401c-.457.09-.91.196-1.36.317a1.123 1.123 0 0 0 .332 2.208zm1.431-.124c.38-.053.763-.089 1.146-.104a1.237 1.237 0 0 0-.099-2.473c-.487.02-.972.08-1.45.176a1.218 1.218 0 0 0 .403 2.4zm1.146-.104c.88-.036 1.759-.165 2.628-.303a.78.78 0 0 0 .178-1.492c-.908-.378-1.907-.718-2.905-.678a1.237 1.237 0 1 0 .099 2.473zM211.149 119.374c.013.02.027.035.04.054a.634.634 0 0 0 .924.16.725.725 0 1 0-.964-.214zm1.172-.922a.797.797 0 0 0-.738-.22.752.752 0 0 0-.395.237.813.813 0 0 0-.192.49.78.78 0 1 0 1.325-.507zm.166.164-.166-.164a.78.78 0 0 0-1.325.507l-.014.232a.886.886 0 1 0 1.505-.576zm-1.502 1.246a1.012 1.012 0 1 0 1.984-.315c-.096-.335-.23-.682-.482-.931a.886.886 0 0 0-1.505.575c-.014.223-.006.448.002.67zm2.255.923a12.782 12.782 0 0 0-.27-1.238 1.012 1.012 0 0 0-1.985.315c.013.36-.002.72-.018 1.079a1.146 1.146 0 1 0 2.273-.156zm.217 1.733c-.044-.58-.113-1.16-.217-1.733a1.146 1.146 0 0 0-2.273.156 82.671 82.671 0 0 1-.084 1.594 1.29 1.29 0 1 0 2.574-.017zm.026 1.752c.033-.583.018-1.17-.026-1.752a1.29 1.29 0 0 0-2.574.017 56.949 56.949 0 0 1-.115 1.538 1.361 1.361 0 1 0 2.712.243l.004-.046zm-.043 1.195c.004-.398.021-.797.043-1.195a1.361 1.361 0 0 0-2.715-.197c-.04.454-.07.91-.074 1.366a1.374 1.374 0 0 0 2.746.026zm-2.567 1.31a1.35 1.35 0 0 0 2.606-.682c-.04-.205-.04-.42-.039-.628a1.374 1.374 0 0 0-2.746-.026c-.004.45.037.907.179 1.335zm-.008-.026c.13.417.407.788.795.996.519.28 1.205.224 1.607-.235a1.12 1.12 0 0 0 .214-.366c.122-.346.067-.727-.008-1.077a1.35 1.35 0 1 0-2.609.682zM215.042 119.321c.01.664.017 1.328.021 1.992a.892.892 0 1 0 1.769-.172 21.59 21.59 0 0 0-.482-2.016.668.668 0 0 0-1.308.196zm.021 1.992c.008 1.021.017 2.043.027 3.064a1.102 1.102 0 1 0 2.197-.148c-.13-1.032-.261-2.066-.454-3.088a.892.892 0 0 0-1.769.172zm.027 3.064c.007.656.05 1.323.221 1.958.145.535.412 1.157.955 1.392a.794.794 0 0 0 1.045-.414l.02-.05c.138-.39.127-.836.114-1.244a18.949 18.949 0 0 0-.158-1.79 1.103 1.103 0 0 0-2.197.148z"/><path d="M210.202 119.894c.647-.076 1.306-.087 1.955-.123a.794.794 0 1 0-.191-1.573c-.46.087-.921.176-1.377.285-.261.062-.551.119-.784.26a.624.624 0 0 0 .397 1.152zm1.915-.122c.816-.004 1.631-.06 2.443-.133a.98.98 0 1 0-.275-1.939c-.789.154-1.577.317-2.359.506a.794.794 0 0 0 .191 1.566zm2.443-.133c.781-.07 1.563-.135 2.345-.187a1.086 1.086 0 1 0-.218-2.16c-.804.11-1.604.254-2.402.409a.98.98 0 0 0 .275 1.939zm2.357-.188c1.05-.082 2.094-.22 3.13-.405a.747.747 0 0 0 .08-1.452 8.48 8.48 0 0 0-3.427-.303 1.086 1.086 0 0 0 .217 2.16zM187.523 137.827a.363.363 0 0 1 .054-.004.599.599 0 0 0 .205-1.164c-.425-.149-.892-.106-1.257.17a.713.713 0 1 0 .998.998zm-.141.273c.052-.111.11-.219.176-.322a.713.713 0 0 0-.994-.977 2.76 2.76 0 0 0-.486.405.8.8 0 1 0 1.304.894zm-.159.395c.047-.134.098-.267.159-.395a.801.801 0 0 0-1.304-.894 4.94 4.94 0 0 0-.396.475.882.882 0 1 0 1.541.814zm-.165.52c.051-.175.106-.348.165-.52a.882.882 0 0 0-1.541-.814c-.135.183-.26.373-.377.568a.964.964 0 1 0 1.753.765zm-.202.841c.061-.282.121-.565.202-.842a.964.964 0 0 0-1.753-.765c-.19.319-.328.67-.458 1.017a1.05 1.05 0 1 0 2.009.59zm-.225 1.438c.057-.481.122-.964.225-1.438a1.05 1.05 0 0 0-2.01-.59c-.2.535-.342 1.092-.464 1.65a1.142 1.142 0 1 0 2.25.378zm-.077 1.746c-.015-.583.008-1.167.077-1.746a1.142 1.142 0 0 0-2.249-.379 15.563 15.563 0 0 0-.305 2.054 1.241 1.241 0 1 0 2.473.205c.004-.045.006-.09.004-.134zm-2.36 2.163a1.298 1.298 0 1 0 2.543-.517 9.305 9.305 0 0 1-.182-1.646 1.241 1.241 0 0 0-2.478-.071c-.061.745-.03 1.5.117 2.233zm0 0c.141.711.397 1.401.784 2.017a1.3 1.3 0 0 0 2.203-1.384 3.48 3.48 0 0 1-.444-1.15 1.297 1.297 0 0 0-2.544.517zm.784 2.017c.383.61.903 1.134 1.537 1.484a1.272 1.272 0 0 0 1.314-2.176 2.246 2.246 0 0 1-.648-.692 1.3 1.3 0 0 0-2.203 1.384zm1.537 1.484a4.668 4.668 0 0 0 1.87.558 1.208 1.208 0 0 0 .312-2.392 2.31 2.31 0 0 1-.868-.342 1.272 1.272 0 1 0-1.314 2.176zm1.87.558a5.984 5.984 0 0 0 1.631-.067 1.144 1.144 0 0 0-.327-2.262 3.69 3.69 0 0 1-.992-.063 1.208 1.208 0 1 0-.311 2.392zm1.631-.067c.453-.089.906-.233 1.293-.49a1.077 1.077 0 0 0-1.003-1.894c-.193.078-.412.102-.617.122a1.144 1.144 0 1 0 .327 2.261zm1.293-.49c.363-.243.66-.573.915-.925a1.008 1.008 0 0 0-1.566-1.266c-.097.107-.214.24-.352.297a1.077 1.077 0 1 0 1.003 1.893zm.915-.925c.2-.275.402-.56.537-.874a.955.955 0 0 0-1.666-.916c-.127.187-.287.356-.437.524a1.008 1.008 0 1 0 1.566 1.266zm.537-.874c.113-.26.192-.535.266-.81a.922.922 0 0 0-1.77-.514c-.042.133-.082.291-.162.408a.955.955 0 1 0 1.666.916zm.266-.81c.097-.357.165-.722.212-1.09a.913.913 0 1 0-1.812-.229 4.663 4.663 0 0 1-.17.805.922.922 0 0 0 1.76.549c.004-.01.007-.023.01-.034zm.212-1.09c.062-.495.072-.997.072-1.496a.913.913 0 0 0-1.825 0c0 .422-.006.848-.059 1.267a.913.913 0 0 0 1.812.23zm-2.003-3.446c.136.639.25 1.295.25 1.95a.913.913 0 1 0 1.825.001c0-.784-.128-1.565-.29-2.33a.912.912 0 0 0-1.785.379zm-.564-2.196c.227.721.408 1.456.564 2.196a.912.912 0 1 0 1.785-.378c-.17-.804-.374-1.601-.64-2.378a.9.9 0 0 0-1.709.56zm-.523-1.084c.275.282.41.72.523 1.084a.9.9 0 0 0 1.716-.54l-.006-.02c-.223-.653-.537-1.333-1.084-1.778a.852.852 0 0 0-1.148 1.254zm-.282-.193c.104.002.218.128.282.193a.852.852 0 1 0 1.149-1.254c-.37-.3-.797-.542-1.271-.619a.845.845 0 1 0-.16 1.68zm-.512.03c.167-.035.342-.035.512-.03a.845.845 0 0 0 .16-1.68 2.836 2.836 0 0 0-1.034.002.873.873 0 0 0 .362 1.708zm-1.718.656a30.85 30.85 0 0 1 1.169-.473c.178-.067.361-.143.549-.183a.873.873 0 1 0-.362-1.708c-.358.076-.674.295-.958.517-.36.281-.694.597-1.02.919a.569.569 0 0 0 .623.928z"/><path d="M186.003 143.454c.462.024.926.02 1.388 0a.81.81 0 1 0-.33-1.566 2.392 2.392 0 0 1-.985.18.694.694 0 0 0-.073 1.386zm1.32 0c.263.01.525.035.785.076a1.024 1.024 0 1 0-.11-1.997c-.345.095-.68.225-1 .382a.81.81 0 0 0 .325 1.539zm.852.085c.422.04.854-.016 1.27-.075a27.118 27.118 0 0 0 1.83-.336.734.734 0 0 0-.048-1.444 23.797 23.797 0 0 0-1.858-.207c-.43-.027-.88-.048-1.306.04a1.024 1.024 0 0 0 .112 2.022zM198.003 142.16c.743-.071 1.487-.142 2.23-.22a1.05 1.05 0 1 0-.336-2.071c-.769.169-1.517.463-2.252.737a.804.804 0 0 0 .358 1.555zm2.231-.22c.642-.07 1.267-.282 1.864-.517a.705.705 0 0 0-.033-1.324c-.685-.23-1.45-.388-2.168-.23a1.05 1.05 0 0 0 .337 2.07zM198.87 144.134c.265.095.547.144.827.178a.657.657 0 1 0-.224-1.233c-.059.03-.203.101-.256.082a.516.516 0 1 0-.348.973zm.814.176c.31.045.632-.023.93-.104a8.904 8.904 0 0 0 1.118-.399.522.522 0 0 0-.194-1.003 9.37 9.37 0 0 0-1.183.045c-.303.034-.623.088-.894.236a.656.656 0 0 0 .223 1.225zM209.042 138.827c.215-.125.456-.193.704-.207a.609.609 0 0 0 .024-1.214c-.452-.043-.91.02-1.332.191a.687.687 0 1 0 .604 1.23zm-.283.276c.082-.114.184-.213.303-.288a.687.687 0 0 0-.602-1.226 3.2 3.2 0 0 0-.8.434.78.78 0 1 0 1.099 1.08zm-.35.936c.065-.225.136-.45.222-.667.036-.09.07-.19.128-.269a.78.78 0 0 0-1.1-1.08c-.449.334-.711.9-.932 1.399a.898.898 0 1 0 1.681.617zm-.292 1.454a7.37 7.37 0 0 1 .291-1.454.898.898 0 0 0-1.68-.617 8.445 8.445 0 0 0-.587 1.795 1 1 0 1 0 1.976.276zm-.004 1.497c-.032-.498-.038-1 .004-1.498a1 1 0 0 0-1.976-.275 10.341 10.341 0 0 0-.177 1.827 1.076 1.076 0 1 0 2.15-.054zm-2.03 1.683a1.134 1.134 0 1 0 2.184-.6c-.112-.343-.13-.726-.154-1.083a1.076 1.076 0 0 0-2.15.054c-.007.541 0 1.098.12 1.629zm0 0c.081.364.196.723.357 1.06a1.174 1.174 0 1 0 2.065-1.112 2.638 2.638 0 0 1-.238-.548 1.134 1.134 0 0 0-2.185.6zm.357 1.06c.158.33.36.638.605.91a1.193 1.193 0 0 0 1.775-1.594 2.809 2.809 0 0 1-.315-.428 1.174 1.174 0 0 0-2.065 1.112zm.605.91c.272.303.6.55.948.76a1.186 1.186 0 0 0 1.255-2.013 2.06 2.06 0 0 1-.428-.34 1.193 1.193 0 0 0-1.775 1.593zm.948.76c.466.283 1 .438 1.536.518a1.16 1.16 0 0 0 .408-2.283c-.236-.05-.484-.116-.69-.248a1.186 1.186 0 1 0-1.254 2.013zm1.536.518c.537.08 1.085.087 1.621.004a1.14 1.14 0 0 0-.35-2.253c-.286.044-.58.025-.863-.034a1.16 1.16 0 1 0-.408 2.283zm1.621.004a2.765 2.765 0 0 0 1.72-1.001 1.106 1.106 0 0 0-1.643-1.478.76.76 0 0 1-.427.226 1.14 1.14 0 1 0 .348 2.253h.003zm1.72-1.001c.428-.53.661-1.189.78-1.853a1.019 1.019 0 0 0-1.978-.478c-.093.301-.218.626-.445.853a1.106 1.106 0 1 0 1.642 1.478zm.78-1.853a8.885 8.885 0 0 0 .096-2.147.94.94 0 0 0-1.878.08 5.075 5.075 0 0 1-.196 1.59 1.02 1.02 0 1 0 1.977.477zm-2.098-3.863a6.01 6.01 0 0 1 .316 1.796.94.94 0 1 0 1.88-.036l-.001-.044a9.001 9.001 0 0 0-.465-2.301.913.913 0 0 0-1.73.585zm-.578-1.362c.256.42.422.899.578 1.362a.913.913 0 0 0 1.73-.582v-.004c-.202-.59-.425-1.187-.748-1.722a.912.912 0 1 0-1.56.945zm-.367-.496c.155.126.266.33.367.496a.912.912 0 0 0 1.56-.946c-.212-.35-.45-.702-.77-.963a.913.913 0 0 0-1.157 1.413zm-1.555.134c.377-.045.756-.083 1.136-.091.17-.004.347-.007.514.025a.913.913 0 0 0 1.062-1.481c-.431-.353-1.013-.316-1.52-.182-.528.14-1.032.369-1.522.607a.593.593 0 0 0 .33 1.122z"/></g></svg>