<svg width="335.08" height="308.16" xml:space="preserve" xmlns="http://www.w3.org/2000/svg"><g fill="none" stroke="#000" stroke-linecap="round" stroke-linejoin="round" stroke-miterlimit="10" stroke-width="1.819"><path d="M131.941 6.983V174.912H315.705M131.941 174.912 2.971 294.173" stroke-width="1.32286775"/></g><path d="M130.01 7.648c.043.486.074.974.11 1.46a.385.385 0 0 0 .768-.024c.004-.488.004-.977.016-1.465a.448.448 0 1 0-.894.03zm.717.317a.448.448 0 0 0 .176-.335c.01-.198-.072-.39-.261-.482a.434.434 0 0 0-.184-.046c-.242-.009-.406.158-.492.362a.464.464 0 0 0 .762.501zm-.247.876.352-1.048a.463.463 0 0 0-.866-.329l-.431 1.019a.506.506 0 0 0 .932.394l.013-.036zm-.406 1.874a9.427 9.427 0 0 1 .406-1.874.506.506 0 0 0-.945-.358 9.233 9.233 0 0 0-.584 2.07.567.567 0 1 0 1.12.188c0-.009.002-.017.003-.026zm-.142 1.18.142-1.18a.567.567 0 0 0-1.123-.162l-.197 1.172a.595.595 0 0 0 1.174.198l.004-.028zm-.97.419a.594.594 0 0 0 .394.135c.318-.008.49-.227.597-.485a.597.597 0 0 0-1.075-.514.596.596 0 0 0-.124.275.619.619 0 0 0 .209.589zm.99-.35.966-2.349a.589.589 0 0 0-1.088-.45l-.98 2.342a.597.597 0 0 0 1.101.46l.002-.004zm.966-2.349c.445-1.084.892-2.171 1.398-3.23a.564.564 0 0 0-1.011-.5c-.547 1.066-1.013 2.175-1.475 3.28a.588.588 0 1 0 1.086.454l.001-.004zm1.398-3.23c.083-.175.173-.35.287-.507v.001a.586.586 0 0 0 .346-1.086c-.372-.225-.791-.084-1.072.21-.241.254-.414.573-.572.882a.564.564 0 0 0 1.003.514l.007-.014zm-.12-.715c.105.126.128.35.16.505.075.362.122.73.163 1.096a.675.675 0 1 0 1.343-.152l-.005-.04c-.082-.469-.174-.942-.326-1.394-.112-.333-.268-.702-.581-.892a.586.586 0 0 0-.754.877zm.323 1.6c.111.982.28 1.975.63 2.902a.733.733 0 0 0 1.37-.518l-.003-.01c-.324-.82-.51-1.697-.66-2.564a.675.675 0 0 0-1.337.19zm.63 2.904c.479 1.26 1.529 2.16 2.78 2.611a.488.488 0 0 0 .447-.857c-.818-.58-1.491-1.34-1.86-2.282a.733.733 0 0 0-1.367.528zM142.716 1.755c.815.165 1.664.097 2.472-.076a.52.52 0 0 0-.217-1.015l-.024.005c-.694.184-1.414.31-2.134.282a.406.406 0 0 0-.097.804zm2.465-.074c.606-.121 1.218-.208 1.831-.274a.584.584 0 1 0-.162-1.156c-.642.11-1.282.245-1.91.42a.52.52 0 0 0 .241 1.01zm1.831-.274c.508-.055 1.023-.106 1.535-.095a.644.644 0 1 0-.032-1.287c-.558.04-1.114.13-1.665.225a.584.584 0 0 0 .162 1.157zm1.535-.095c.075 0 .15.006.224.022l-.001.001a.691.691 0 0 0 1.083-.859c-.314-.414-.855-.485-1.338-.45a.644.644 0 0 0 .032 1.286zm1.11.905c.29-.506.6-1.207.196-1.741a.691.691 0 0 0-1.221.589c-.051.154-.132.298-.213.438a.715.715 0 1 0 1.236.719l.002-.004zM148.483 4c.417-.576.821-1.165 1.174-1.783a.715.715 0 0 0-1.238-.714c-.333.573-.71 1.12-1.099 1.656a.718.718 0 0 0 1.163.841zm-1.208 2.04c.343-.713.745-1.399 1.208-2.04a.718.718 0 1 0-1.163-.841 14.197 14.197 0 0 0-1.331 2.268.713.713 0 0 0 1.286.613zm-.735 1.888c.17-.654.443-1.281.735-1.888a.713.713 0 0 0-1.284-.618s-.001.004-.003.005c-.326.693-.623 1.41-.806 2.157a.7.7 0 0 0 1.358.344zm-.216 1.436c.01-.485.093-.968.216-1.436a.7.7 0 1 0-1.355-.355l-.002.011a7.644 7.644 0 0 0-.235 1.762.688.688 0 0 0 1.376.018zm-1.376-.018c-.004.707.336 1.34.936 1.717a.68.68 0 0 0 .73-1.15.594.594 0 0 1-.29-.55.688.688 0 1 0-1.376-.026v.01zm.935 1.716c.55.347 1.262.39 1.893.393.967.005 1.935-.12 2.89-.268a.438.438 0 0 0-.075-.871c-.912.015-1.832.012-2.74-.095a5.617 5.617 0 0 1-.85-.155 1.43 1.43 0 0 1-.388-.154.68.68 0 1 0-.732 1.149l.002.001z"/><path d="M142.25 6.022c.205.16.493.197.744.22a8.12 8.12 0 0 0 1.068.01c1.239-.052 2.474-.215 3.7-.385a.25.25 0 0 0-.06-.496c-1.213.126-2.435.246-3.656.26a7.183 7.183 0 0 1-1.043-.044.977.977 0 0 1-.38-.11.331.331 0 0 0-.373.545zM2.28 290.535c.15-.472.345-.936.623-1.348a.478.478 0 1 0-.83-.47c-.243.519-.399 1.075-.506 1.637a.368.368 0 0 0 .713.18zm.612-1.333.354-.482a.548.548 0 1 0-.947-.538l-.233.551a.478.478 0 0 0 .826.47zm-.467-.41a.578.578 0 0 0 1-.414c-.01-.284-.198-.544-.494-.589a.59.59 0 0 0-.255.02c-.189.059-.304.2-.377.372a.548.548 0 0 0 .125.61zm1.018.122-.018-.536a.578.578 0 0 0-1.133-.139l-.147.516a.662.662 0 1 0 1.298.16zm-.847 3c.222-.62.44-1.244.625-1.876.105-.357.235-.747.222-1.124a.662.662 0 0 0-1.298-.16c-.081.286-.187.565-.285.844-.214.606-.434 1.21-.655 1.812a.74.74 0 1 0 1.39.503zm-.954 2.831c.084-.329.197-.651.305-.973.21-.622.428-1.24.65-1.859a.74.74 0 0 0-1.392-.503 91.27 91.27 0 0 0-.67 1.883c-.123.359-.25.72-.34 1.087a.746.746 0 0 0 1.447.365zm-.152.837c.014-.282.082-.564.152-.837a.746.746 0 1 0-1.446-.37l-.002.005a5.94 5.94 0 0 0-.19 1.127.744.744 0 0 0 1.486.075zm-.038.882a.737.737 0 0 0-.166-1.43h.001a.744.744 0 0 0-1.283.474c-.02.396.167.785.539.957.29.134.615.1.909 0zm0 0c.486-.166.944-.417 1.387-.675a.736.736 0 1 0-.74-1.273l-.008.004c-.347.208-.711.42-1.1.543a.738.738 0 1 0 .46 1.4zm1.387-.675a35.79 35.79 0 0 1 1.238-.687c.167-.088.352-.165.507-.272a.742.742 0 0 0-.763-1.27c-.585.305-1.164.622-1.73.96a.736.736 0 0 0 .748 1.27zm1.666-.911a17.225 17.225 0 0 1 1.802-.81.74.74 0 0 0-.524-1.383 17.858 17.858 0 0 0-1.499.644c-.18.086-.379.166-.543.28a.742.742 0 0 0 .764 1.269zm1.802-.81c1.313-.499 2.694-.83 4.06-1.152a.466.466 0 0 0-.127-.92c-.85.035-1.701.097-2.543.225-.648.098-1.299.232-1.914.464a.74.74 0 1 0 .523 1.384zM5.133 303.334a.372.372 0 0 0 .703-.241 1.073 1.073 0 0 1 .014-.728c.112-.27.337-.477.571-.643a.471.471 0 1 0-.578-.744c-.346.295-.644.665-.777 1.105-.125.414-.087.851.067 1.251zm1.28-1.606c.456-.308.97-.519 1.505-.64a.58.58 0 1 0-.313-1.115 5.121 5.121 0 0 0-1.77 1.012.472.472 0 0 0 .578.743zm1.505-.64c.457-.104.936-.182 1.406-.14a.668.668 0 0 0 .118-1.332c-.027-.003-.053-.003-.079-.003-.6.018-1.192.169-1.758.36a.58.58 0 0 0 .313 1.114zm1.406-.14c.204.017.318.15.403.328a.711.711 0 0 0 1.286-.608c-.001-.003-.003-.004-.003-.007-.313-.643-.919-1.068-1.646-1.047a.668.668 0 0 0-.04 1.333zm.403.328c.165.35.263.73.278 1.117a.715.715 0 0 0 1.43-.056 4.22 4.22 0 0 0-.425-1.676.711.711 0 0 0-1.283.615zm1.471 3.018c.15-.639.262-1.299.237-1.957a.715.715 0 0 0-1.43.056c.02.532-.072 1.068-.186 1.586a.707.707 0 0 0 1.379.315zm-.624 1.922c.274-.617.47-1.267.624-1.922a.707.707 0 1 0-1.377-.326l-.003.011a9.751 9.751 0 0 1-.514 1.689.692.692 0 0 0 1.27.549zm-.395.89.395-.89a.692.692 0 0 0-1.264-.56l-.006.011-.378.898a.683.683 0 0 0 1.253.542zm-1.327-.124a.678.678 0 0 0 1.021.501.768.768 0 0 0 .306-.376.683.683 0 0 0-1.248-.554l-.005.012a.804.804 0 0 0-.075.418zm1.33.085.274-.794a.587.587 0 0 0-1.063-.486l-.421.725a.67.67 0 1 0 1.21.555zm.274-.794c.103-.297.256-.58.405-.855.264-.488.551-.963.843-1.434a.518.518 0 1 0-.88-.546c-.483.78-.97 1.557-1.43 2.349a.587.587 0 1 0 1.062.486zm1.248-2.29c.53-.856 1.063-1.714 1.644-2.538a.536.536 0 1 0-.885-.602c-.562.855-1.101 1.725-1.64 2.595a.518.518 0 0 0 .882.546zm1.644-2.538c.306-.435.614-.872.888-1.33a.577.577 0 1 0-1.016-.545c-.212.445-.488.862-.758 1.273a.536.536 0 0 0 .886.602zm.888-1.33.284-.474a.603.603 0 1 0-1.061-.57l-.239.499a.577.577 0 0 0 1.016.546zm.33-.551c.096-.254.042-.545-.19-.723a.605.605 0 0 0-.917.23c-.007.013-.012.027-.018.041h.001l-.014.035-.005.02a.606.606 0 0 0 1.143.397zm-.323.85.323-.85a.606.606 0 0 0-1.124-.45l-.355.838a.623.623 0 1 0 1.148.485c.002-.007.005-.015.009-.022zm-.374 1.851c.056-.625.151-1.26.374-1.85a.623.623 0 0 0-1.156-.463c-.291.69-.436 1.438-.523 2.179a.656.656 0 0 0 1.303.152l.002-.018zm-1.364 2.389a.696.696 0 1 0 1.386-.127 11.42 11.42 0 0 1-.022-2.262.656.656 0 0 0-1.305-.134c-.098.837-.12 1.682-.06 2.523zm0 0c.06.844.323 1.68.878 2.332a.738.738 0 1 0 1.123-.957l-.02-.022c-.37-.403-.536-.945-.595-1.48a.696.696 0 0 0-1.386.127zm.878 2.332a3.453 3.453 0 0 0 2.064 1.155.765.765 0 1 0 .244-1.51 2.035 2.035 0 0 1-1.204-.623.738.738 0 0 0-1.104.978zm2.065 1.155c.839.14 1.638-.3 2.267-.81.87-.707 1.573-1.614 2.217-2.523a.508.508 0 0 0-.786-.64c-.685.736-1.413 1.474-2.26 2.025-.324.211-.781.502-1.193.438a.765.765 0 0 0-.245 1.51z"/><path d="m131.941 174.912 42.312 66.298" fill="none" stroke="#ff58c4" stroke-linecap="round" stroke-linejoin="round" stroke-miterlimit="10" stroke-width="1.32286775"/><path d="m132.33 48.022 42.312 66.3M174.645 114.324l-.386 126.89" fill="none" stroke="#55e1ff" stroke-linecap="round" stroke-linejoin="round" stroke-miterlimit="10" stroke-width="1.32286775"/><path d="M311.032 173.724c.19.09.404.145.602.215a.353.353 0 0 0 .287-.643c-.181-.099-.36-.211-.547-.3a.402.402 0 1 0-.342.728zm-.205-.198a.472.472 0 0 0 .22.215.417.417 0 1 0 .291-.773.472.472 0 0 0-.318.023.406.406 0 0 0-.192.535zm.22.215.705.384a.53.53 0 1 0 .369-.983l-.783-.174a.417.417 0 0 0-.29.773zm.705.384c.336.184.702.316 1.063.442a30.44 30.44 0 0 0 1.689.525.722.722 0 1 0 .335-1.403c-.907-.175-1.816-.346-2.718-.547a.53.53 0 0 0-.37.983zm2.752.967c.402.115.803.235 1.195.377.193.07.455.136.601.287a.814.814 0 0 0 1.294-.967c-.226-.397-.69-.573-1.102-.705a14.578 14.578 0 0 0-1.653-.395.722.722 0 0 0-.335 1.403zm2.082 1.67c.302-.189.603-.4.832-.674.303-.366.42-.869.175-1.3a.814.814 0 0 0-1.519.345c-.11.095-.23.177-.354.255a.812.812 0 0 0 .866 1.373zm-4.298 1.984c1.465-.562 2.965-1.15 4.3-1.986a.812.812 0 0 0-.862-1.375l-.004.002a262.37 262.37 0 0 1-3.898 2.415.528.528 0 0 0 .465.944zM324.712 173.178c.03.292.044.588.065.882a.387.387 0 0 0 .772 0c.02-.29.036-.604.065-.884a.453.453 0 1 0-.902.002zm-.005-.006a.46.46 0 1 0 .916-.079.503.503 0 0 0-.162-.314.455.455 0 0 0-.706.144.53.53 0 0 0-.048.25zm0 0 .014 1.183a.55.55 0 1 0 1.091-.095l-.19-1.167a.461.461 0 0 0-.915.08zm.014 1.183c.01.73.079 1.462.25 2.172a.671.671 0 1 0 1.29-.369 12.304 12.304 0 0 1-.449-1.898.549.549 0 0 0-1.091.095zm.25 2.172c.135.556.316 1.13.658 1.598a.723.723 0 1 0 1.145-.88c-.25-.31-.39-.715-.513-1.087a.671.671 0 0 0-1.29.369zm.658 1.598c.305.416.73.727 1.2.935a.736.736 0 0 0 .597-1.344c-.247-.11-.481-.26-.652-.472a.722.722 0 0 0-1.145.88zm1.2.935c.56.248 1.183.268 1.77.106a.736.736 0 0 0-.393-1.418c-.259.071-.532.078-.78-.033a.735.735 0 1 0-.597 1.345zm1.77.106c.706-.195 1.246-.722 1.62-1.335a.733.733 0 0 0-1.251-.766c-.178.288-.422.588-.762.683a.736.736 0 1 0 .392 1.418zm1.62-1.335c.363-.599.63-1.255.769-1.942a.687.687 0 0 0-1.332-.336 6.476 6.476 0 0 1-.688 1.512.733.733 0 0 0 1.248.769c0-.001.001-.003.003-.003zm.769-1.942a14.99 14.99 0 0 0 .252-1.704.635.635 0 0 0-1.264-.122 8.204 8.204 0 0 1-.32 1.49.687.687 0 1 0 1.332.336zm.252-1.704.065-.781a.625.625 0 0 0-1.244-.12l-.085.779a.635.635 0 0 0 1.262.138l.001-.016zm.067-.785a.625.625 0 0 0-.978-.58l-.01.006a.624.624 0 0 0-.258.45.627.627 0 1 0 1.246.124zm-.06 1.04.06-1.04a.627.627 0 0 0-1.246-.124l-.147 1.031a.67.67 0 1 0 1.332.133zm-.04 4.489c-.006-1.493-.048-2.998.04-4.489a.67.67 0 0 0-1.333-.133c-.079.558-.103 1.124-.13 1.686-.046.974-.071 1.948-.092 2.923a.758.758 0 1 0 1.515.033v-.02zm-.081 4.817c.049-.612.06-1.227.07-1.84.017-.992.016-1.985.01-2.977a.757.757 0 0 0-1.515-.013c-.034 1.565-.045 3.139-.172 4.7a.806.806 0 0 0 1.606.13zm-.488 2.617c.246-.854.416-1.731.488-2.617a.806.806 0 0 0-1.606-.13c-.064.774-.221 1.54-.448 2.282a.817.817 0 1 0 1.563.477l.004-.012zm-.861 2.09c.41-.632.654-1.371.861-2.09a.817.817 0 0 0-1.566-.465c-.172.562-.36 1.156-.683 1.654a.827.827 0 0 0 1.388.901zm-1.751.825c.726.226 1.37-.24 1.75-.825a.827.827 0 1 0-1.387-.901c-.045.069-.093.136-.151.195v-.001a.784.784 0 0 0-.212 1.532zm-1.204-1.132c.27.488.652.96 1.204 1.132a.784.784 0 1 0 .41-1.513c-.204-.047-.322-.197-.445-.365a.695.695 0 0 0-1.169.746zm-.722-1.912c.177.656.391 1.315.722 1.912a.695.695 0 1 0 1.17-.746c-.33-.451-.535-.993-.706-1.519a.619.619 0 0 0-1.186.353zm0 0a.619.619 0 1 0 1.186-.353c-.165-.504-.29-1.064-.194-1.594a.599.599 0 1 0-1.178-.214l-.003.013c-.113.717 0 1.454.188 2.148zm.993-1.947c.034-.191.147-.361.27-.507.22-.263.499-.475.783-.664a.643.643 0 1 0-.713-1.072l-.027.019c-.67.497-1.358 1.16-1.494 2.023a.599.599 0 0 0 1.18.2zm1.057-1.174c.781-.529 1.626-.969 2.463-1.4 1.386-.714 2.795-1.38 4.21-2.033a.441.441 0 0 0-.335-.815c-1.485.538-2.964 1.1-4.405 1.748-.918.413-1.855.851-2.673 1.447a.643.643 0 0 0 .74 1.053z"/><g fill="#55e1ff"><path d="M173.662 113.899c.01.282-.009.564-.036.845a.788.788 0 0 0 1.525.345c.183-.508.369-1.033.44-1.571.038-.292.03-.593-.077-.87a1.32 1.32 0 0 0-1.12-.835 1.142 1.142 0 0 0-.732 2.087zm1.285-.008a1.142 1.142 0 0 0-.458-2.066 1.776 1.776 0 0 0-1.865.912 1.299 1.299 0 1 0 2.325 1.154h-.002zm.02.464c.001-.22 0-.457.055-.673a1.298 1.298 0 0 0-2.398-.945c-.264.488-.346 1.054-.352 1.602a1.348 1.348 0 1 0 2.696.027v-.012zm-1.743 2.049a1.346 1.346 0 0 0 1.817-1.977c-.221-.234-.1-.106-.075-.044.013.033.002-.013.002-.028a1.348 1.348 0 0 0-2.696-.016c-.008.8.322 1.564.953 2.065zm0 0c.454.36.995.644 1.587.653a1.332 1.332 0 0 0 .28-2.637c-.216-.044.013.022-.016.005a1.133 1.133 0 0 1-.157-.113 1.346 1.346 0 1 0-1.712 2.077l.018.014zm1.587.653c.843.012 1.46-.61 1.897-1.261a1.31 1.31 0 0 0-2.153-1.494 2.637 2.637 0 0 1-.118.154l-.001-.003a1.332 1.332 0 0 0 .375 2.604zm1.897-1.261c.377-.56.667-1.199.716-1.88a1.292 1.292 0 0 0-2.575-.213c-.02.216-.173.43-.294.6a1.31 1.31 0 1 0 2.153 1.493zm-1.933-2.213c.021.025.077.081.074.12a1.292 1.292 0 1 0 2.573.242c0-.01 0-.02.002-.029.05-.708-.186-1.394-.609-1.957a1.304 1.304 0 1 0-2.04 1.624zm-.249-.113c.158.035.148-.008.249.113a1.304 1.304 0 0 0 2.04-1.624c-.441-.587-1.073-1.012-1.807-1.122a1.339 1.339 0 0 0-.482 2.633zm.655.053c.01-.03.022-.058.034-.087l.001.002a1.34 1.34 0 0 0-.208-2.6 1.964 1.964 0 0 0-1.626.525c-.35.326-.586.752-.759 1.193a1.368 1.368 0 1 0 2.558.968zm-.276.961c0-.071.031-.18.051-.258.061-.239.141-.472.225-.703a1.367 1.367 0 0 0-2.558-.967c-.228.584-.458 1.206-.486 1.84a1.385 1.385 0 1 0 2.768.088zm-2.448 1.396a1.39 1.39 0 0 0 2.512-1.178c-.043-.111-.066-.12-.064-.218a1.385 1.385 0 0 0-2.768-.088 2.822 2.822 0 0 0 .32 1.484zm0 0c.36.656 1.06.993 1.755 1.175a1.386 1.386 0 0 0 .717-2.678 1.903 1.903 0 0 1-.195-.063l.002-.001a1.39 1.39 0 0 0-2.28 1.568zm1.755 1.175c.5.13 1.029.245 1.548.19a1.37 1.37 0 0 0-.196-2.733c-.01 0-.129-.017-.171-.025a5.655 5.655 0 0 1-.464-.11 1.386 1.386 0 1 0-.731 2.674l.014.004zm1.548.19c.54-.056 1.001-.378 1.298-.823.2-.3.33-.64.427-.986a1.34 1.34 0 0 0-2.56-.788l-.025.068-.001-.002a1.37 1.37 0 0 0 .86 2.53zm1.725-1.81c.149-.527.276-1.082.253-1.634a1.296 1.296 0 0 0-2.588-.038c-.02.3-.131.603-.226.885a1.34 1.34 0 1 0 2.561.788zm-2.38-1.747c.144.281.05.009.045.075a1.296 1.296 0 1 0 2.589.038c-.02-.504-.17-1-.459-1.416a1.27 1.27 0 0 0-2.174 1.303zm-.123.291c.131.012.263.029.392.06l-.002.002a1.27 1.27 0 0 0 1.908-1.656c-.449-.645-1.256-.866-1.993-.974a1.294 1.294 0 1 0-.305 2.568zm-.691.018c.012-.007.114-.022.153-.026.178-.017.36-.008.538.008a1.294 1.294 0 0 0 .305-2.568c-.707-.104-1.467-.116-2.133.183a1.329 1.329 0 1 0 1.09 2.425l.047-.022zm.02.034c.128-.29-.003-.042-.02-.034a1.33 1.33 0 0 0-1.137-2.403A2.55 2.55 0 0 0 171.8 113a1.358 1.358 0 0 0 2.512 1.03zm-2.702.963a1.384 1.384 0 1 0 2.76-.211c-.027-.322-.058-.66.02-.977A1.358 1.358 0 0 0 171.8 113c-.24.628-.237 1.333-.191 1.994zm0 0c.054.783.227 1.631.83 2.184a1.396 1.396 0 0 0 2.002-1.938 2.372 2.372 0 0 1-.073-.457 1.383 1.383 0 0 0-2.759.211zm.83 2.184c.549.503 1.32.68 2.035.783a1.4 1.4 0 1 0 .4-2.771 3.768 3.768 0 0 1-.534-.108.9.9 0 0 1-.113-.04c-.037-.015.151.103-.039-.032a1.396 1.396 0 0 0-1.749 2.168zm2.035.783c.78.112 1.65.117 2.333-.333a1.358 1.358 0 0 0-1.119-2.44c-.27.077-.536.042-.814.001a1.4 1.4 0 1 0-.4 2.771zm2.333-.333c.66-.434.995-1.199 1.22-1.927a1.305 1.305 0 0 0-2.485-.799c-.049.148-.104.299-.185.433v-.002a1.358 1.358 0 0 0 1.407 2.323l.043-.027zm1.22-1.927c.202-.653.358-1.343.314-2.03a1.3 1.3 0 1 0-2.593.192c.03.345-.098.718-.205 1.04a1.305 1.305 0 1 0 2.476.825l.008-.027zm-2.218-1.536a1.3 1.3 0 0 0 2.532-.495c-.063-1.002-.804-1.716-1.705-2.049a1.338 1.338 0 1 0-.826 2.543zm-1.004-.195c.335.002.676.099.995.192a1.338 1.338 0 0 0 .836-2.54c-.567-.21-1.162-.381-1.77-.404a1.377 1.377 0 1 0-.061 2.752zm-.39.046c.12-.047.263-.047.39-.046a1.377 1.377 0 0 0 .062-2.752 3.756 3.756 0 0 0-1.438.202 1.388 1.388 0 0 0 .959 2.606c.01-.002.018-.006.027-.01zm-.005.017c.046-.065-.028.01.137-.077a1.388 1.388 0 0 0-1.118-2.536c-.516.19-.959.54-1.28.984a1.393 1.393 0 1 0 2.258 1.632l.003-.004zm-.167.722c.033-.2.07-.403.13-.598.01-.029.088-.195.037-.124a1.393 1.393 0 0 0-2.26-1.63c-.396.547-.553 1.242-.663 1.896a1.397 1.397 0 0 0 2.755.465l.001-.008zm-2.738 1.612a1.4 1.4 0 0 0 2.687-.786c-.018-.06-.014-.164-.011-.234a4.43 4.43 0 0 1 .062-.592 1.397 1.397 0 0 0-2.756-.456c-.114.677-.178 1.4.018 2.068zm0 0c.232.794.879 1.355 1.596 1.715a1.386 1.386 0 0 0 1.284-2.458 1.139 1.139 0 0 1-.247-.165c-.025-.024.111.226-.007-.044a1.4 1.4 0 0 0-2.627.952zm1.596 1.715a5.647 5.647 0 0 0 1.997.583 1.357 1.357 0 0 0 .313-2.694 3.018 3.018 0 0 1-1.026-.347 1.386 1.386 0 1 0-1.324 2.437l.04.02zm1.997.583c.507.048 1.041.083 1.54-.04a1.327 1.327 0 0 0-.536-2.598c-.002 0-.13 0-.17-.002a6.322 6.322 0 0 1-.522-.054 1.357 1.357 0 1 0-.37 2.688l.058.006zm1.54-.04c.813-.2 1.262-.95 1.549-1.676a1.31 1.31 0 0 0-2.432-.976c-.03.073-.062.146-.099.217l-.001-.001a1.327 1.327 0 0 0 .984 2.437zm1.549-1.676c.219-.555.408-1.148.41-1.75a1.296 1.296 0 0 0-2.59-.065c-.013.284-.147.58-.252.839a1.31 1.31 0 1 0 2.426.989l.006-.014zm-2.487-2.09c.114.125.23.259.31.41h-.002a1.296 1.296 0 0 0 2.59-.07c.004-.792-.46-1.49-.96-2.066a1.298 1.298 0 0 0-1.958 1.703l.02.023zm-1.418-.885c.576.108 1.029.454 1.415.881a1.298 1.298 0 0 0 1.939-1.725c-.47-.536-1.095-.943-1.803-1.07a2.654 2.654 0 0 0-1.835.348.851.851 0 0 0 .284 1.566zM186.142 109.7c.195-.732.406-1.468.706-2.164a3.73 3.73 0 0 1 .311-.6.856.856 0 0 1 .2-.227.521.521 0 0 0-.4-.937c-.597.113-1.022.653-1.318 1.144-.44.73-.725 1.552-.97 2.364a.765.765 0 0 0 1.464.443l.007-.024zm-.574 2.613c.124-.884.354-1.757.576-2.62a.765.765 0 0 0-1.472-.42c-.285.908-.573 1.826-.757 2.762a.839.839 0 1 0 1.646.323l.008-.045zm-.122 2.727c.002-.905-.003-1.828.122-2.727a.839.839 0 0 0-1.653-.278c-.192.977-.205 1.996-.22 2.988a.875.875 0 1 0 1.75.028v-.01zm-.928 3.91a.883.883 0 0 0 1.59-.769c-.47-.978-.666-2.061-.662-3.141a.876.876 0 0 0-1.752-.017c-.021 1.352.23 2.707.824 3.927zm0 0c.37.76.802 1.507 1.364 2.144.425.481.95.929 1.58 1.108a.55.55 0 0 0 .54-.916c-.332-.335-.597-.736-.843-1.136-.39-.635-.729-1.3-1.052-1.97a.883.883 0 1 0-1.59.766v.003zM189.635 113.086c.08-.467.25-.94.595-1.278a.446.446 0 1 0-.652-.608c-.426.5-.622 1.146-.678 1.791a.37.37 0 0 0 .735.095zm.588-1.272c.095-.089.23-.136.352-.17.242-.07.496-.094.746-.107a.575.575 0 1 0-.162-1.133c-.564.134-1.205.336-1.586.803a.446.446 0 0 0 .65.607zm1.098-.277c.286-.014.69-.009.885.246a.728.728 0 1 0 1.077-.972c-.576-.542-1.39-.582-2.124-.407a.575.575 0 0 0 .162 1.133zm.885.246c.189.247.323.532.368.842a.808.808 0 1 0 1.6-.236l-.01-.055a2.975 2.975 0 0 0-.88-1.523.728.728 0 0 0-1.078.972zm.368.842c.071.483.079.977.07 1.465a.83.83 0 1 0 1.662.028c.01-.596-.015-1.2-.142-1.784a.808.808 0 0 0-1.59.29zm1.265 3.885c.264-.77.453-1.576.467-2.392a.83.83 0 1 0-1.662-.028c-.01.635-.177 1.262-.395 1.856a.843.843 0 1 0 1.584.58l.005-.016zm-.547 1.654c.166-.556.358-1.105.547-1.654a.843.843 0 0 0-1.59-.564c-.217.592-.444 1.196-.569 1.817a.831.831 0 0 0 1.612.401zm-.171.575.171-.575a.831.831 0 1 0-1.593-.475c-.007.024-.014.049-.019.074l-.118.588a.804.804 0 0 0 1.559.388zm-1.278.41a.803.803 0 0 0 .481.18c.3.009.556-.147.719-.386.034-.049.065-.1.095-.15a.79.79 0 0 0-1.27-.927.804.804 0 0 0-.306.485.822.822 0 0 0 .28.797zm1.295-.356 1.023-1.691a.696.696 0 0 0-1.154-.775l-1.178 1.587a.79.79 0 1 0 1.31.88zm1.023-1.691c.44-.727.891-1.46 1.247-2.234a.605.605 0 0 0-1.094-.517c-.343.706-.842 1.35-1.307 1.976a.696.696 0 1 0 1.154.775zm1.247-2.234c.26-.567.429-1.174.553-1.784a.612.612 0 0 0-1.2-.243l-.005.018c-.087.511-.215 1.024-.442 1.492a.605.605 0 0 0 1.088.529l.005-.012zm.553-1.784c.119-.588.215-1.183.248-1.782a.665.665 0 1 0-1.328-.004c.025.522-.037 1.047-.124 1.561a.612.612 0 0 0 1.204.225zm-1.119-2.598.04.812h-.001a.665.665 0 0 0 1.328.004l.044-.811a.706.706 0 1 0-1.41-.005zm1.182.489.022-.022a.706.706 0 0 0 .207-.462.714.714 0 0 0-.34-.693.71.71 0 0 0-.323-.102c-.38-.025-.67.242-.755.585a.717.717 0 0 0 1.189.694zm.117.404.101-.838a.717.717 0 0 0-1.407-.26l-.205.82a.77.77 0 1 0 1.511.278zm-.06 2.477c-.01-.82-.039-1.66.06-2.477a.77.77 0 0 0-1.51-.279c-.222.887-.224 1.842-.242 2.75a.846.846 0 1 0 1.692.034v-.028zm-1.627 2.77a.883.883 0 1 0 1.753-.22c-.113-.84-.114-1.702-.125-2.55a.847.847 0 0 0-1.692-.006c-.019.922-.044 1.86.064 2.777zm0 0c.067.574.203 1.148.466 1.665a.89.89 0 0 0 1.586-.805c-.17-.334-.25-.71-.3-1.08a.883.883 0 0 0-1.752.22zm.466 1.665c.295.58.902.875 1.528.93.622.055 1.253-.08 1.847-.251a.57.57 0 0 0-.14-1.12c-.453-.014-.932-.042-1.362-.197-.084-.03-.241-.077-.287-.168a.89.89 0 0 0-1.586.805v.001zM201.555 120.419a.486.486 0 0 0 .8-.535c-.24-.505-.267-1.092-.245-1.64.039-.933.237-1.86.469-2.762a.53.53 0 0 0-1.01-.321c-.369.97-.672 2-.696 3.044-.017.78.141 1.619.682 2.214zM205.462 113.712a.81.81 0 0 0 1.563-.419l-.01-.035c-.34-1.075-.554-2.191-.747-3.3a.556.556 0 0 0-1.103.076c-.04 1.223-.022 2.49.297 3.678zm-.003-.008c.143.556.325 1.111.609 1.612a.852.852 0 1 0 1.483-.84l-.02-.031c-.23-.368-.385-.784-.52-1.194a.81.81 0 0 0-1.552.453zm.609 1.612c.283.5.71.903 1.22 1.168a.865.865 0 0 0 .798-1.536 1.417 1.417 0 0 1-.554-.503.852.852 0 0 0-1.464.871zm1.22 1.168c.53.276 1.147.377 1.723.182a.845.845 0 0 0-.477-1.62c-.153.04-.315-.029-.448-.098a.866.866 0 0 0-.799 1.536zm1.723.182c.543-.184.964-.594 1.229-1.095a.791.791 0 0 0-1.354-.814c-.086.127-.199.251-.352.29a.845.845 0 1 0 .477 1.62zm1.229-1.095c.314-.595.439-1.287.537-1.945a.738.738 0 0 0-1.457-.242c-.082.452-.17.984-.434 1.373a.791.791 0 1 0 1.354.814zm.537-1.945c.113-.758.164-1.53.108-2.295a.692.692 0 0 0-1.382.062c.012.668-.063 1.335-.183 1.991a.738.738 0 0 0 1.453.266l.004-.024zm-1.345-3.16c-.023-.042-.002.01.002.029.014.064.023.128.03.193.027.234.035.47.039.705a.692.692 0 1 0 1.383-.062c-.034-.464-.044-.98-.21-1.42a.682.682 0 1 0-1.244.556zm-.155-.296.155.297a.683.683 0 0 0 1.244-.556l-.118-.313a.703.703 0 1 0-1.281.572zm1.3-.138a.724.724 0 0 0-.682-.907.68.68 0 0 0-.15.015c-.365.076-.561.393-.578.738a.712.712 0 0 0 1.412.154zm.042.573-.03-.722a.712.712 0 0 0-1.422-.005l-.036.721a.745.745 0 1 0 1.488.006zm-1.032 3.685a.826.826 0 1 0 1.63-.266l-.005-.03a89.225 89.225 0 0 1-.44-2.308c-.06-.355-.138-.72-.153-1.081a.745.745 0 0 0-1.488-.006c-.022.438.047.885.102 1.318.1.793.225 1.583.354 2.373zm0 0c.224 1.37.46 2.75.562 4.136a.888.888 0 1 0 1.771-.129v-.012c-.126-1.441-.425-2.873-.708-4.29a.826.826 0 0 0-1.625.295zm.562 4.136c.05.683.088 1.37.07 2.055a.906.906 0 1 0 1.811.028 24.203 24.203 0 0 0-.11-2.224.888.888 0 0 0-1.771.141zm1.122 3.973c.569-.455.755-1.191.759-1.89a.905.905 0 0 0-1.81-.028 1.533 1.533 0 0 1-.044.362c-.01.036-.02.099-.052.124a.917.917 0 0 0 1.147 1.432zm-1.469.566a2.627 2.627 0 0 0 1.469-.566.917.917 0 0 0-1.136-1.44.819.819 0 0 1-.455.167.922.922 0 0 0 .122 1.839zm-1.873-.448c.581.264 1.226.49 1.873.448a.921.921 0 0 0-.122-1.84c-.347.024-.725-.138-1.037-.265a.902.902 0 0 0-.714 1.657zm0 0a.902.902 0 0 0 .747-1.643 2.347 2.347 0 0 1-.16-.07.536.536 0 0 0-.743-.654c-.416.201-.76.55-.792 1.033-.041.618.422 1.095.948 1.334zM216.435 118.392c.21-1.29.267-2.608.327-3.912a.524.524 0 0 0-1.038-.124c-.245 1.253-.489 2.506-.765 3.753a.751.751 0 1 0 1.476.283zm-.135 1.402c.013-.473.066-.944.136-1.411a.752.752 0 0 0-1.475-.284 8.223 8.223 0 0 0-.233 1.653.786.786 0 1 0 1.572.042zm.28 1.225a.5.5 0 0 0-.136-.936c-.028-.005-.124-.014-.13-.048a1.097 1.097 0 0 1-.014-.241.786.786 0 1 0-1.572-.042c-.013.507.166 1.044.63 1.307.389.22.84.158 1.222-.04zM220.768 109.192a.54.54 0 1 0-.06-1.074c-.259.038-.521.072-.784.074a.365.365 0 0 0-.629-.15c-.128.148-.206.34-.155.538.05.192.205.327.379.408.379.177.839.19 1.249.204zm0 0c.673.024 1.351.036 2.021.104a.714.714 0 1 0 .057-1.425c-.714.016-1.433.142-2.138.246a.54.54 0 0 0 .06 1.075zm2.021.104c.047.004.099.01.14.032.007.004-.04-.056.009.017a.778.778 0 1 0 1.241-.935c-.333-.39-.832-.55-1.334-.538a.713.713 0 0 0-.056 1.424zm.128.015c-.024-.04.005.033.01.048.017.077.028.155.036.234.03.267.034.537.034.805a.838.838 0 1 0 1.676-.035c-.028-.636-.056-1.442-.493-1.953a.778.778 0 0 0-1.262.901zm1 4.665c.408-1.14.809-2.386.755-3.613a.839.839 0 0 0-1.676.035c0 .409-.077.817-.17 1.214-.14.603-.332 1.194-.542 1.777a.868.868 0 0 0 1.632.589v-.003zm-.849 3.045c.127-1.04.498-2.064.849-3.045a.868.868 0 0 0-1.633-.587c-.4 1.107-.802 2.261-.926 3.438a.86.86 0 0 0 1.71.194zm-.756 1.988a.847.847 0 0 0 .74-1.506 2.229 2.229 0 0 1 .016-.482.86.86 0 1 0-1.708-.208l-.002.014c-.042.402-.05.821.065 1.212.13.445.44.823.89.97zm-.001 0c.293.097.615.102.922.1.392 0 .783-.027 1.174-.059 1.311-.106 2.617-.28 3.92-.462a.542.542 0 0 0-.085-1.08c-1.292.023-2.585.041-3.877.007-.355-.01-.711-.022-1.066-.052-.147-.012-.314-.016-.456-.063a.847.847 0 0 0-.532 1.609z"/><path d="M219.981 113.592a.331.331 0 0 0 .46-.365.441.441 0 0 0-.548-.69c-.207.142-.404.363-.344.634.048.218.243.337.432.421zm.262-.261c.503-.118 1.028-.165 1.54-.229 1.121-.14 2.245-.264 3.37-.386a.4.4 0 0 0-.059-.798c-1.142.043-2.288.095-3.425.219-.366.04-.733.086-1.094.163-.224.048-.458.104-.657.222a.441.441 0 0 0 .325.809zM226.434 104.78c.359.105.576.47.711.793a.38.38 0 1 0 .632-.405c-.333-.362-.737-.697-1.225-.82a.223.223 0 0 0-.118.431zm.711.793c.292.698.604 1.387.92 2.075a.616.616 0 1 0 1.084-.581c-.41-.661-.844-1.324-1.372-1.899a.381.381 0 0 0-.632.405zm.92 2.075c.433.948.79 1.93 1.106 2.923a.757.757 0 0 0 1.443-.461c-.004-.014-.01-.027-.015-.04-.398-1.039-.864-2.057-1.45-3.003a.616.616 0 0 0-1.085.581zm1.106 2.923c.342 1.07.547 2.181.61 3.302a.844.844 0 1 0 1.684-.093l-.003-.032a13.93 13.93 0 0 0-.863-3.679.757.757 0 0 0-1.428.502zm-1.09 10.563c.997-1.216 1.935-2.512 2.61-3.938.503-1.064.877-2.253.772-3.443a.844.844 0 0 0-1.683.125c.057.92-.218 1.845-.546 2.693-.532 1.371-1.279 2.658-2.074 3.89a.571.571 0 0 0 .921.673zM174.596 242.562c.106-.36.21-.72.324-1.077a.502.502 0 1 0-.979-.205c-.037.374-.087.746-.133 1.118a.404.404 0 0 0 .788.164zm-.256-.738a.557.557 0 0 0 .657-.845c-.205-.285-.621-.383-.89-.11-.117.118-.159.273-.167.434a.502.502 0 0 0 .4.52zm-.335-.377.15.571a.667.667 0 1 0 1.187-.56l-.345-.479a.557.557 0 0 0-.992.468zm.15.571c.145.55.596.94 1.12 1.119a.748.748 0 1 0 .484-1.416c-.155-.052-.319-.126-.417-.262a.667.667 0 0 0-1.186.56zm1.12 1.119c.337.114.715.14 1.024-.064.366-.242.46-.687.359-1.09a.734.734 0 0 0-1.278-.289.748.748 0 0 0-.104 1.443zm-.168-.96c.06.026.106.055.118.12a.734.734 0 1 0 1.442-.272 1.81 1.81 0 0 0-.901-1.18.744.744 0 1 0-.659 1.332zm.143.045a.744.744 0 0 0 .516-1.378c-.262-.146-.562-.227-.863-.182-.34.052-.629.262-.811.548a.778.778 0 0 0 1.159 1.012zm-1.454.305a.79.79 0 1 0 1.571-.157v-.006a.564.564 0 0 1 .055-.348.778.778 0 0 0-1.33-.806 2.06 2.06 0 0 0-.296 1.316zm0 0c.039.388.25.735.58.945.283.181.62.25.953.265a.789.789 0 0 0 .073-1.576 1.012 1.012 0 0 1-.09-.008h.002a.79.79 0 0 0-1.518.373zm1.533 1.21c.554.024 1.19-.045 1.579-.49a.767.767 0 0 0-1.017-1.132c-.11.077-.02.02-.018.02a.312.312 0 0 1-.067.015c-.133.021-.27.018-.404.012a.788.788 0 1 0-.08 1.575h.007zm1.579-.49c.247-.28.4-.632.44-1.005a.738.738 0 0 0-1.461-.201.227.227 0 0 1-.072.134.767.767 0 1 0 1.093 1.073zm-1.029-1.149a.738.738 0 0 0 1.47.144 1.47 1.47 0 0 0-.412-1.185.743.743 0 0 0-1.07 1.03c.004.003.008.007.012.013v-.001zm-.452-.061c.154.009.38.009.508.113a.742.742 0 0 0 1.002-1.093c-.357-.372-.888-.506-1.385-.557a.771.771 0 0 0-.16 1.534l.035.002zm-1.091 1.044a.513.513 0 0 0 1-.169c-.003-.285-.004-.606.104-.875a.771.771 0 0 0 .107-1.538c-.658-.064-1.251.327-1.403.98-.124.53.023 1.098.192 1.602zM189.715 232.35l.031-.025v.001a.416.416 0 0 0 .612-.488.768.768 0 0 0-.496-.5c-.252-.077-.52-.012-.746.11a.543.543 0 1 0 .6.901zm-.733 1.374c.138-.336.284-.672.462-.99.073-.128.153-.29.271-.385a.543.543 0 0 0-.6-.9c-.274.148-.484.4-.665.649-.246.34-.452.708-.645 1.08a.65.65 0 1 0 1.177.546zm-.937 2.873c.252-.975.553-1.94.937-2.873a.65.65 0 0 0-1.177-.547c-.5.96-.888 1.977-1.207 3.01a.752.752 0 0 0 1.438.444c.004-.01.006-.023.009-.034zm-.551 2.515c.127-.848.337-1.685.551-2.515a.752.752 0 0 0-1.447-.41c-.268.87-.53 1.746-.716 2.638a.819.819 0 1 0 1.604.332l.008-.045zm-.154 2.015c.013-.674.054-1.348.154-2.015a.819.819 0 0 0-1.612-.287 14.51 14.51 0 0 0-.267 2.244.863.863 0 1 0 1.725.058zm-1.599 2.654a.894.894 0 1 0 1.771-.246 14.472 14.472 0 0 1-.173-2.408.863.863 0 0 0-1.724-.058c-.044.905.01 1.814.126 2.712zm0 .003c.127.962.604 1.853 1.15 2.642.725 1.05 1.617 1.981 2.546 2.853a.59.59 0 0 0 .866-.797c-.734-.926-1.439-1.889-2.012-2.925-.346-.625-.674-1.305-.778-2.02a.894.894 0 0 0-1.772.247zM191.729 241.27a.352.352 0 0 0 .69-.134c-.085-.487-.16-1.142.163-1.567a.419.419 0 1 0-.696-.464c-.377.648-.305 1.46-.157 2.164zm.846-1.691c.198-.247.542-.356.837-.427a.537.537 0 1 0-.345-1.013c-.47.21-.934.514-1.186.976a.419.419 0 0 0 .694.464zm.837-.427c.378-.092.776-.126 1.16-.05a.673.673 0 1 0 .138-1.332c-.568-.006-1.127.138-1.643.369a.537.537 0 0 0 .345 1.012zm1.16-.05c.284.058.525.213.715.43a.767.767 0 1 0 1.108-1.059 2.468 2.468 0 0 0-1.685-.703.673.673 0 0 0-.138 1.333zm.715.43c.331.378.566.84.77 1.295a.822.822 0 0 0 1.501-.67l-.016-.035c-.3-.597-.661-1.183-1.147-1.649a.767.767 0 0 0-1.108 1.06zm.77 1.295c.24.54.415 1.11.495 1.695a.848.848 0 0 0 1.68-.23v-.002a6.98 6.98 0 0 0-.69-2.168.822.822 0 0 0-1.485.705zm2.105 3.537c.161-.679.165-1.386.07-2.074a.848.848 0 0 0-1.68.232c.065.48.07.975-.043 1.449a.85.85 0 1 0 1.653.394v-.001zm-.842 1.775c.4-.526.69-1.132.842-1.775a.85.85 0 0 0-1.653-.393c-.098.413-.285.8-.542 1.138a.85.85 0 1 0 1.353 1.03zm-.53.696.53-.696a.85.85 0 0 0-1.353-1.03l-.53.696a.85.85 0 0 0 1.353 1.03zm-.864.325a.85.85 0 0 0 .93-.424l.005-.01a.843.843 0 0 0-1.346-1.01c-.002.002-.005.004-.006.007a.848.848 0 0 0 .417 1.437zm.935-.434 1.284-1.94a.703.703 0 0 0-1.122-.843l-1.507 1.772a.843.843 0 1 0 1.345 1.011zm1.284-1.94a66.27 66.27 0 0 0 1.832-2.88v-.001a.59.59 0 1 0-1.017-.6c-.004.005-.007.012-.01.018-.517.95-1.23 1.8-1.928 2.62a.703.703 0 1 0 1.122.844zm1.832-2.88c.391-.664.714-1.374.9-2.123a.628.628 0 0 0-1.219-.301c-.001.006-.002.013-.005.02-.136.64-.392 1.249-.704 1.82a.59.59 0 0 0 1.028.583zm.9-2.123c.053-.217.107-.434.151-.653.064-.314.081-.637-.21-.865a.65.65 0 0 0-.481-.136.677.677 0 0 0-.405.201.654.654 0 0 0-.17.601 9.717 9.717 0 0 1-.108.571.627.627 0 0 0 1.222.281zm-.326-.078.383-.539a.654.654 0 0 0-1.002-.836l-.461.473a.706.706 0 1 0 1.08.902zm-.32.998c.054-.332.12-.717.32-.998a.706.706 0 0 0-1.08-.902c-.419.429-.632 1.024-.767 1.596a.78.78 0 1 0 1.527.304zm-.14 2.207c.005-.735.023-1.48.14-2.207a.78.78 0 0 0-1.527-.304c-.191.803-.262 1.636-.309 2.459a.849.849 0 1 0 1.697.052zm-1.497 2.638a.886.886 0 1 0 1.714-.449c-.186-.71-.22-1.458-.216-2.189a.849.849 0 0 0-1.697-.052c-.05.896-.03 1.817.2 2.69zm0 0c.16.612.378 1.244.777 1.746a.876.876 0 0 0 1.388-1.068c-.238-.321-.351-.747-.45-1.127a.886.886 0 1 0-1.715.449zm.774 1.742c.63.8 1.713.908 2.65.74a.52.52 0 0 0 .08-1.003c-.477-.165-1.028-.386-1.342-.805a.876.876 0 1 0-1.4 1.05l.012.018zM206.728 246.709c.144-.845.355-1.7.754-2.465a.512.512 0 0 0-.86-.55c-.614.796-.984 1.762-1.235 2.727a.687.687 0 1 0 1.34.288zm-.696 2.764a.493.493 0 0 0 .78-.554c-.275-.696-.206-1.49-.084-2.21a.687.687 0 0 0-1.341-.288c-.27 1.039-.225 2.299.645 3.052zM211.501 239.95c.053-.331.1-.663.16-.992a.472.472 0 1 0-.936-.09c-.004.334-.022.669-.033 1.003a.407.407 0 0 0 .81.078zm.197-1.053c-.032-.196-.1-.379-.302-.47a.476.476 0 0 0-.665.357c-.01.062-.008.127-.008.19a.49.49 0 1 0 .975-.077zm.273 1.651-.273-1.65a.49.49 0 0 0-.975.076l-.012 1.673a.635.635 0 1 0 1.261-.099zm-.963 2.663a.807.807 0 1 0 1.498-.59c-.292-.648-.42-1.377-.535-2.073a.635.635 0 0 0-1.26.099c-.007.852.02 1.749.297 2.564zm0 0c.188.557.467 1.132.957 1.483a.848.848 0 0 0 .988-1.378c-.214-.153-.343-.466-.447-.696a.806.806 0 0 0-1.498.591zm.957 1.483c.38.273.83.431 1.294.474a.842.842 0 0 0 .175-1.675 1.02 1.02 0 0 1-.481-.177.848.848 0 0 0-.988 1.378zm1.294.474c.62.058 1.22-.204 1.734-.528a.818.818 0 0 0-.843-1.403c-.195.112-.477.284-.716.256a.842.842 0 1 0-.175 1.676zm1.734-.528a3.083 3.083 0 0 0 1.303-1.746.759.759 0 0 0-1.431-.497c-.142.354-.382.65-.715.84a.818.818 0 0 0 .812 1.421l.03-.018zm1.303-1.746c.232-.781.29-1.612.303-2.423a.682.682 0 0 0-1.363-.057c-.045.665-.122 1.36-.371 1.983a.759.759 0 1 0 1.431.497zm.303-2.423.015-.918c.002-.152.02-.32-.014-.47a.655.655 0 0 0-1.17-.234h-.001a.657.657 0 0 0-.12.311.68.68 0 0 0-.004.147c-.018.37-.045.738-.07 1.107a.683.683 0 1 0 1.364.057zm-.016-.32.032-.876a.656.656 0 0 0-1.306-.115l-.122.869a.702.702 0 1 0 1.397.122zm-1.29 1.884a.754.754 0 0 0 1.483-.271l-.004-.023c-.111-.519-.208-1.057-.188-1.59a.702.702 0 0 0-1.396-.122c-.093.665-.016 1.35.105 2.006zm0 0c.153.839.258 1.686.347 2.533a.805.805 0 1 0 1.6-.168c0-.012-.002-.024-.003-.035a42.95 42.95 0 0 0-.465-2.624.754.754 0 0 0-1.48.294zm.347 2.533c.093.883.133 1.774.081 2.66a.859.859 0 1 0 1.716.074 16.746 16.746 0 0 0-.2-2.938.805.805 0 0 0-1.597.204zm.99 5.415c.531-.793.782-1.733.807-2.681a.859.859 0 0 0-1.716-.074c-.036.622-.201 1.238-.559 1.754a.888.888 0 1 0 1.46 1.012l.008-.012zm-1.602 1.512c.685-.3 1.194-.905 1.601-1.512a.888.888 0 0 0-1.467-1.001c-.216.312-.491.711-.854.87a.897.897 0 0 0 .72 1.643zm-1.932.207c.648.09 1.326.059 1.932-.207a.897.897 0 1 0-.72-1.643c-.3.132-.653.12-.972.079a.894.894 0 0 0-.24 1.771zm-1.807-.774c.497.453 1.15.683 1.807.774a.894.894 0 0 0 .246-1.77l-.007-.001c-.338-.045-.697-.126-.98-.327a.851.851 0 0 0-1.066 1.324zm.014.012a.851.851 0 1 0 1.066-1.325c-.287-.212-.624-.447-.811-.76a.49.49 0 0 0-.825-.028c-.496.717.002 1.616.57 2.113zM221.128 250.042a.48.48 0 0 0 .941-.133c-.004-.688.17-1.374.374-2.027.318-1.02.747-2.006 1.204-2.972a.528.528 0 0 0-.93-.5c-.591.98-1.128 2.015-1.45 3.117-.235.804-.37 1.694-.14 2.515zM227.408 238.883c.262-.055.575.162.774.302a.38.38 0 0 0 .474-.595c-.364-.328-.802-.647-1.307-.69a.497.497 0 1 0 .059.983zm-.095.277a1.14 1.14 0 0 1 .13-.267c.008-.01.016-.023.026-.032-.01.008-.05.023.008.002a.498.498 0 0 0-.095-.96c-.527-.08-.936.326-1.17.751a.608.608 0 1 0 1.101.506zm-.16 1.634c-.001-.35.007-.7.044-1.047.021-.196.047-.4.116-.587a.608.608 0 0 0-1.102-.506c-.341.618-.417 1.388-.479 2.078a.712.712 0 0 0 1.417.127c.003-.021.003-.043.003-.065zm-1.51 1.9a.792.792 0 1 0 1.576-.147c-.076-.577-.065-1.172-.067-1.753a.712.712 0 0 0-1.42-.062c-.058.649-.125 1.31-.089 1.962zm0 0c.036.651.355 1.272.68 1.823a.836.836 0 1 0 1.44-.85l-.02-.031c-.207-.318-.473-.701-.524-1.089a.792.792 0 0 0-1.576.147zm.68 1.823a5.37 5.37 0 0 0 1.785 1.809.86.86 0 0 0 .914-1.458 4.132 4.132 0 0 1-1.279-1.232.836.836 0 0 0-1.42.88zm1.785 1.809c.667.418 1.417.737 2.21.796a.85.85 0 0 0 .145-1.695c-.518-.05-1.006-.286-1.441-.559a.86.86 0 0 0-.914 1.458zm2.21.796a4.231 4.231 0 0 0 1.959-.302.841.841 0 0 0-.654-1.55 2.388 2.388 0 0 1-1.16.157.85.85 0 1 0-.164 1.694h.019zm1.959-.302c.703-.297 1.212-.889 1.447-1.61a.813.813 0 0 0-1.527-.555c-.111.276-.297.498-.574.615a.841.841 0 1 0 .654 1.55zm1.447-1.61a7.636 7.636 0 0 0 .342-2.02.775.775 0 0 0-1.546-.086c-.035.527-.126 1.059-.323 1.551a.813.813 0 1 0 1.527.555zm-1.512-3.755c.23.518.345 1.082.308 1.649a.774.774 0 1 0 1.545.101l.001-.015a5.389 5.389 0 0 0-.438-2.349.771.771 0 1 0-1.42.605c.002.002.003.006.004.009zm-1.086-1.366c.47.36.847.825 1.086 1.366a.772.772 0 0 0 1.416-.614 4.969 4.969 0 0 0-1.553-1.989.78.78 0 1 0-.95 1.237h.001zm-1.722-.653c.62.066 1.224.27 1.722.653a.78.78 0 0 0 .95-1.237c-.726-.557-1.603-.872-2.509-.968a.78.78 0 0 0-.163 1.552zm-1.84.34a3.19 3.19 0 0 1 1.84-.34.78.78 0 0 0 .163-1.552c-1.032-.108-2.03.315-2.638 1.162a.497.497 0 0 0 .636.73zM235.14 232.123a24.906 24.906 0 0 1 2.182 3.753.558.558 0 1 0 1.012-.47l-.017-.034a26.464 26.464 0 0 0-2.524-3.737.408.408 0 0 0-.652.488zm2.178 3.744c.475 1.073.819 2.204 1.132 3.332a.687.687 0 1 0 1.314-.4c-.391-1.177-.833-2.357-1.452-3.436a.558.558 0 0 0-.994.504zm1.132 3.332a16.36 16.36 0 0 1 .605 4.036.79.79 0 1 0 1.576-.066 17.335 17.335 0 0 0-.866-4.37.687.687 0 0 0-1.315.4zm-1.364 12.737c1.04-1.518 2.009-3.109 2.713-4.814.512-1.24.91-2.593.832-3.948a.789.789 0 0 0-1.576.066c.031 1.14-.283 2.282-.657 3.349-.58 1.66-1.378 3.243-2.233 4.777a.542.542 0 0 0 .92.57z"/></g><g fill="#ff58c4"><path d="M158.543 221.243c.341-.295.715-.624 1.142-.79a.423.423 0 0 0-.168-.817c-.615.02-1.19.398-1.664.76a.546.546 0 1 0 .664.868l.026-.021zm-1.192 1.327c.371-.465.754-.936 1.199-1.333a.546.546 0 0 0-.69-.847c-.536.397-1 .895-1.443 1.39a.612.612 0 0 0 .912.816l.022-.026zm-1.593 2.345c.487-.809 1.003-1.607 1.593-2.345a.611.611 0 0 0-.934-.79c-.67.749-1.26 1.568-1.815 2.403a.684.684 0 1 0 1.14.758l.016-.026zm-1.738 3.39c.52-1.159 1.083-2.301 1.738-3.39a.684.684 0 0 0-1.156-.732c-.739 1.11-1.365 2.295-1.933 3.5a.743.743 0 0 0 1.345.634l.005-.012zm-1.608 4.187a42.233 42.233 0 0 1 1.608-4.187.743.743 0 0 0-1.35-.621 37.398 37.398 0 0 0-1.709 4.335.763.763 0 0 0 1.451.473zm-1.116 4.123c.288-1.395.675-2.77 1.116-4.123a.763.763 0 1 0-1.45-.473 49.988 49.988 0 0 0-1.203 4.26.787.787 0 1 0 1.533.354l.004-.018zm-.518 3.005c.116-1.01.314-2.01.518-3.005a.787.787 0 0 0-1.537-.336c-.24 1.037-.47 2.082-.613 3.138a.823.823 0 1 0 1.63.22c0-.005.001-.012.003-.017zm-.198 2.272c.047-.759.112-1.516.198-2.272a.823.823 0 0 0-1.632-.203 32.814 32.814 0 0 0-.232 2.372.835.835 0 1 0 1.666.103zm-.154 2.395c.053-.799.104-1.597.154-2.395a.835.835 0 0 0-1.666-.103c-.05.804-.09 1.609-.119 2.414a.817.817 0 0 0 1.631.084zm-1.663 1.66a.779.779 0 0 0 1.557.025c.031-.562.069-1.124.106-1.685a.816.816 0 1 0-1.63-.108v.024c-.021.58-.047 1.163-.033 1.744zm0 0c.01.416.115.89.42 1.193.187.185.486.19.678.01.316-.293.436-.763.459-1.178a.78.78 0 1 0-1.557-.026z"/><path d="M147.21 244.096c.088.24.246.45.415.64a.36.36 0 0 0 .573-.435c-.065-.101-.1-.183-.083-.298a.47.47 0 1 0-.905.093zm.03.066a.47.47 0 0 0 .188.185h-.001a.621.621 0 1 0 .403-1.125c-.387-.027-.76.287-.687.698a.783.783 0 0 0 .097.242zm.035.03c-.039-.056.012.042.018.06.04.114.074.23.106.345a.735.735 0 1 0 1.375-.508c-.181-.389-.47-.834-.944-.867a.621.621 0 0 0-.555.97zm.124.405c.103.371.185.749.26 1.127a.814.814 0 1 0 1.577-.4 9.725 9.725 0 0 0-.462-1.235.735.735 0 0 0-1.375.508zm.26 1.127c.081.407.169.814.28 1.215a.863.863 0 1 0 1.651-.503c-.122-.37-.239-.74-.354-1.112a.814.814 0 0 0-1.577.4zm.28 1.215c.106.38.264.745.466 1.084a.875.875 0 1 0 1.502-.896 3.496 3.496 0 0 1-.317-.69.863.863 0 0 0-1.65.502zm.466 1.084c.229.384.546.743.987.876a.869.869 0 0 0 .638-1.61c-.126-.063.028.042-.013-.004a1.04 1.04 0 0 1-.11-.158.875.875 0 0 0-1.502.896zm.987.876c.648.195 1.194-.252 1.56-.734a.839.839 0 0 0-1.295-1.065 2.126 2.126 0 0 1-.097.102.869.869 0 0 0-.168 1.697zm1.56-.734c.31-.41.597-.84.873-1.274a.793.793 0 0 0-1.318-.882c-.265.377-.543.747-.85 1.091a.839.839 0 1 0 1.295 1.064zm.87-1.269c.752-1.167 1.577-2.29 2.39-3.413h.001a.49.49 0 0 0-.733-.645 42.71 42.71 0 0 0-1.833 1.816c-.405.43-.806.874-1.143 1.36a.793.793 0 1 0 1.318.882zM127.57 264.935c.076.014.13.098.164.16a.314.314 0 1 0 .442-.419 1.51 1.51 0 0 0-.517-.217.242.242 0 0 0-.089.476zm.164.16c.137.246.267.496.398.745a.433.433 0 1 0 .73-.46c-.194-.258-.41-.53-.686-.704a.314.314 0 0 0-.441.419zm.398.745c.207.396.393.803.57 1.212a.508.508 0 0 0 .932-.404l-.015-.033a8.957 8.957 0 0 0-.757-1.235.433.433 0 0 0-.73.46zm.57 1.212c.207.477.405.958.594 1.443a.577.577 0 1 0 1.076-.42l-.025-.054c-.241-.47-.484-.938-.728-1.406a.508.508 0 0 0-.917.437zm.594 1.443c.16.41.323.82.497 1.224a.645.645 0 1 0 1.155-.57 35.916 35.916 0 0 1-.6-1.128.577.577 0 0 0-1.052.474zm.497 1.224c.16.374.345.737.542 1.093a.687.687 0 0 0 1.201-.666l-.015-.026c-.197-.32-.389-.644-.573-.972a.645.645 0 0 0-1.155.57zm.542 1.093c.203.366.424.723.67 1.063a.718.718 0 1 0 1.161-.844l-.027-.035a7.647 7.647 0 0 1-.618-.876.687.687 0 0 0-1.186.692zm.67 1.063c.17.233.342.48.558.675a.736.736 0 0 0 .983-1.097l-.008-.006c-.15-.13-.274-.3-.4-.451a.718.718 0 0 0-1.133.879zm.558.675c.15.133.32.246.51.314a.737.737 0 1 0 .5-1.387c.028.011-.027-.023-.035-.03a.736.736 0 0 0-.975 1.103zm.51.314c.321.117.689.064.949-.166a.718.718 0 0 0-.563-1.25v-.002a.737.737 0 0 0-.387 1.418zm.949-.166c.246-.217.316-.547.351-.859a.675.675 0 0 0-1.323-.245.82.82 0 0 1-.02.068v-.001a.718.718 0 0 0 .992 1.037zm.351-.859c.034-.3.047-.602.053-.904a.634.634 0 0 0-1.267-.064c-.02.242-.048.487-.109.723a.675.675 0 1 0 1.323.245zm.053-.904c.031-1.667.004-3.336 0-5.003a.607.607 0 0 0-1.214 0c-.004 1.162-.008 2.324-.02 3.486-.006.483.006.972-.033 1.453a.634.634 0 1 0 1.266.064zm-1.218-10.029c.018.507.01 1.015.01 1.522.002 1.168-.002 2.336-.005 3.504a.607.607 0 0 0 1.214.003v-.002c-.003-1.17-.005-2.342-.02-3.513-.006-.527.006-1.062-.044-1.588a.579.579 0 0 0-1.155.075zm-.064-.941c.035.312.053.627.064.941a.578.578 0 1 0 1.154-.075 44.351 44.351 0 0 0-.105-.994.56.56 0 0 0-1.113.128zm-.056-.862c.005.288.024.575.056.862a.56.56 0 1 0 1.114-.124v-.004a6.926 6.926 0 0 1-.05-.749.56.56 0 1 0-1.12.01v.005zm0 0a.56.56 0 0 0 1.12-.014c0-.195.02-.39.07-.579a.565.565 0 0 0-1.091-.292l-.003.009a3.392 3.392 0 0 0-.097.876zm1.19-.593c.038-.14.083-.285.158-.41a.57.57 0 1 0-.977-.589l-.005.01a2.73 2.73 0 0 0-.27.707.565.565 0 0 0 1.094.283zm.158-.41a.74.74 0 0 1 .147-.188.576.576 0 0 0-.741-.881l-.014.012a1.94 1.94 0 0 0-.374.477.57.57 0 0 0 .982.58zm.147-.188c-.024.02.032-.014.04-.017.072-.029.148-.048.223-.066a.593.593 0 1 0-.316-1.143c-.249.08-.505.18-.702.357a.575.575 0 0 0 .755.868zm.263-.083c.176-.041.354-.081.534-.106a.615.615 0 1 0-.166-1.217c-.012 0-.023.004-.035.005a5.79 5.79 0 0 0-.65.175.593.593 0 0 0 .317 1.143zm.534-.106c.327-.044.667-.037.996-.045a.633.633 0 1 0-.048-1.265c-.38.02-.774.025-1.149.098a.615.615 0 0 0 .2 1.212zm.996-.045c.865-.02 1.728-.09 2.59-.158a.654.654 0 0 0-.104-1.303h-.007c-.841.076-1.683.152-2.527.196a.633.633 0 0 0 .048 1.265zm2.59-.158c.91-.073 1.822-.139 2.735-.162a.662.662 0 0 0-.032-1.323c-.94.023-1.878.098-2.813.182a.654.654 0 0 0 .11 1.303zm2.735-.162c2.223-.055 4.45-.024 6.672-.023a.668.668 0 0 0 0-1.335c-2.234.004-4.471-.02-6.704.035a.662.662 0 0 0 .032 1.323zm6.672-.023c2.584.002 5.167.003 7.751.008a.67.67 0 0 0 .006-1.34c-2.586-.015-5.172-.007-7.758-.003a.668.668 0 0 0 .001 1.336zm7.751.008c1.252.003 2.505.023 3.757.08a.665.665 0 0 0 .06-1.33c-1.27-.057-2.54-.081-3.811-.09a.67.67 0 1 0-.009 1.34h.003zm3.757.08 2.846.125a.665.665 0 1 0 .058-1.33c-.948-.04-1.897-.082-2.845-.125a.665.665 0 1 0-.06 1.33zm2.846.125c1.004.044 2.009.079 3.013.112a.666.666 0 0 0 .044-1.331c-1-.033-2-.068-3-.11a.665.665 0 0 0-.057 1.329zm3.013.112c1.042.035 2.084.07 3.125.111a.658.658 0 0 0 .06-1.314 170.217 170.217 0 0 0-3.14-.128.666.666 0 0 0-.045 1.331zm3.125.111c.7.027 1.4.056 2.098.095a.642.642 0 0 0 .083-1.282 96.294 96.294 0 0 0-2.121-.127.657.657 0 1 0-.068 1.314h.008zm2.098.095c.436.024.873.045 1.31.048a.616.616 0 0 0 .055-1.23c-.427-.036-.855-.068-1.282-.1a.642.642 0 1 0-.083 1.282zM136.583 265.082c.075.255.263.456.461.623a.294.294 0 1 0 .38-.45c-.038-.03-.164-.132-.15-.196a.357.357 0 1 0-.691.023zm.015.04a.357.357 0 0 0 .644.025c.05-.097.171-.166.258-.227a.46.46 0 1 0-.598-.694c-.218.23-.445.57-.304.897zm.902-.202c.231-.163.492-.283.754-.387a.538.538 0 1 0-.46-.97c-.323.18-.635.394-.892.663a.46.46 0 0 0 .598.694zm.754-.387c.233-.092.485-.157.737-.146a.611.611 0 1 0-.04-1.218c-.409.045-.8.194-1.157.394a.539.539 0 0 0 .46.97zm.737-.146c.123.006.21.114.274.206a.671.671 0 1 0 1.065-.815c-.342-.408-.837-.669-1.379-.609a.611.611 0 0 0 .04 1.218zm.274.206c.148.212.24.456.273.712a.73.73 0 1 0 1.431-.264 3.14 3.14 0 0 0-.639-1.263.671.671 0 0 0-1.065.815zm.273.712c.034.28.061.563.054.845a.776.776 0 1 0 1.551-.013 5.578 5.578 0 0 0-.174-1.096.73.73 0 0 0-1.431.264zm1.494 1.888c.083-.345.126-.7.111-1.056a.776.776 0 0 0-1.551.013 3.227 3.227 0 0 1-.095.675.79.79 0 0 0 1.535.368zm-.491 1.456c.185-.476.372-.958.491-1.456a.79.79 0 0 0-1.535-.368c-.104.431-.265.851-.42 1.266a.783.783 0 0 0 1.464.558zm-.59 1.41c.22-.46.405-.936.59-1.41a.783.783 0 1 0-1.46-.567l-.004.009c-.168.451-.337.903-.521 1.348a.764.764 0 0 0 1.396.62zm-.365.703c.14-.224.253-.465.366-.703a.764.764 0 0 0-1.38-.655l-.016.035c-.113.271-.228.555-.27.847a.708.708 0 0 0 1.3.476zm-.124.198.124-.198a.708.708 0 1 0-1.3-.476c-.01.078-.022.155-.033.233a.658.658 0 0 0 1.209.441zm-.76.283a.648.648 0 0 0 .47-.026.703.703 0 0 0 .296-.264.647.647 0 0 0-.74-.976.658.658 0 0 0-.475.54.666.666 0 0 0 .448.726zm.766-.29.293-.434a.597.597 0 0 0-.917-.755l-.37.37a.647.647 0 1 0 .994.82zm.293-.434c.256-.38.494-.772.731-1.163a.513.513 0 0 0-.853-.57c-.247.338-.5.682-.795.978a.597.597 0 1 0 .917.755zm.731-1.163.791-1.306a.473.473 0 0 0-.807-.493c-.26.423-.545.83-.837 1.23a.513.513 0 1 0 .853.569zm.791-1.306c.276-.455.536-.92.791-1.386a.49.49 0 0 0-.859-.47l-.009.017c-.227.457-.463.911-.73 1.346a.473.473 0 0 0 .805.496l.001-.003zm.791-1.386c.235-.43.47-.862.658-1.314a.543.543 0 1 0-1.026-.346c-.11.42-.308.82-.5 1.207a.49.49 0 0 0 .868.453zm.658-1.314.198-.475a.578.578 0 1 0-1.094-.368l-.13.497a.543.543 0 0 0 1.026.346zm-.916-.707a.579.579 0 0 0 1.144.147.581.581 0 1 0-1.144-.147zm.986.538.131-.314a.581.581 0 0 0-1.056-.484l-.152.304a.593.593 0 1 0 1.077.494zm-.224.798c.059-.268.118-.544.224-.798a.593.593 0 0 0-1.077-.494c-.154.308-.262.64-.365.968a.63.63 0 1 0 1.218.324zm-.142 1.236c.013-.414.053-.83.142-1.236a.63.63 0 0 0-1.218-.324 8.553 8.553 0 0 0-.306 1.448.694.694 0 1 0 1.382.112zm-1.48 1.429a.748.748 0 1 0 1.494-.046c-.026-.46-.03-.922-.014-1.383a.694.694 0 0 0-1.382-.112c-.066.51-.102 1.026-.098 1.54zm0 0c.002.454.039.926.209 1.352a.769.769 0 0 0 1.427-.57c0-.004-.004-.01-.005-.013-.106-.251-.123-.547-.137-.816a.748.748 0 0 0-1.494.047zm.209 1.352c.101.254.216.508.379.729a.772.772 0 1 0 1.243-.916c-.086-.118-.144-.262-.2-.396a.769.769 0 0 0-1.422.583zm.378.729c.167.226.391.404.642.528a.77.77 0 0 0 .7-1.37.279.279 0 0 1-.098-.074.772.772 0 0 0-1.244.916zm.64.527c.422.212.9.06 1.302-.125.465-.213.901-.49 1.327-.772a.496.496 0 0 0-.416-.889c-.358.108-.718.21-1.083.29-.175.037-.357.078-.537.08a.77.77 0 0 0-.593 1.416zM143.423 259.802c.03-.173.155-.29.309-.363a.335.335 0 1 0-.337-.575c-.284.203-.492.491-.552.839a.294.294 0 0 0 .58.099zm.295-.357c.1-.042.212-.07.32-.05a.434.434 0 1 0-.05-.844c-.22.066-.423.18-.605.322a.335.335 0 0 0 .335.572zm.32-.05c.068.011.123.08.162.13a.53.53 0 1 0 .743-.748c-.268-.213-.618-.326-.954-.226a.434.434 0 0 0 .05.843zm.162.13c.057.07.126.156.145.248a.59.59 0 1 0 1.122-.349c-.11-.26-.306-.473-.524-.647a.53.53 0 0 0-.742.747zm.145.248c.037.176.016.373.006.55a.643.643 0 1 0 1.284.001c-.019-.302-.049-.619-.167-.9a.59.59 0 0 0-1.122.349zm1.05 1.729c.205-.355.264-.773.24-1.178a.643.643 0 0 0-1.285 0c-.01.168-.035.352-.122.5a.675.675 0 0 0 1.166.68l.001-.002zm-.601.779c.227-.237.436-.494.601-.779a.675.675 0 0 0-1.167-.678 2.815 2.815 0 0 1-.409.522.675.675 0 0 0 .975.935zm-.863.653c.324-.164.612-.392.863-.653a.675.675 0 1 0-.975-.935c-.15.156-.318.297-.509.4a.67.67 0 0 0 .621 1.188zm-.85.274c.298-.028.585-.14.85-.274a.67.67 0 1 0-.607-1.196l-.014.008c-.18.097-.362.193-.548.278a.622.622 0 0 0 .319 1.185zm-.267.026.267-.026a.622.622 0 1 0-.32-1.184l-.245.113a.576.576 0 0 0 .298 1.097zm-.565-.847a.575.575 0 0 0 .652.83.576.576 0 1 0-.228-1.128l-.01.002v.001a.562.562 0 0 0-.318.165.572.572 0 0 0-.096.13zm.652.83.856-.173a.613.613 0 1 0-.294-1.188l-.837.244a.576.576 0 0 0 .275 1.117zm.864-.174a9.846 9.846 0 0 1 2.354-.211.426.426 0 0 0 .163-.825 4.532 4.532 0 0 0-2.81-.153.613.613 0 0 0 .293 1.189zM149.743 264.642a.302.302 0 0 0 .604 0v-.134a.302.302 0 0 0-.604.003v.13zm.608-.136c-.004-.027-.008-.054-.015-.08a.266.266 0 0 0-.02-.052l-.564.21a.302.302 0 0 0 .589-.015l.004-.022-.61.014a.31.31 0 1 0 .615-.055zm.139.91-.14-.91a.31.31 0 0 0-.61-.006l-.158.907a.46.46 0 1 0 .908.009zm-1.04 2.126a.64.64 0 1 0 1.278-.07 32.245 32.245 0 0 0-.239-2.056.46.46 0 0 0-.908-.01c-.122.704-.148 1.423-.132 2.136zm0 0c.011.538.018 1.079.061 1.615a.686.686 0 1 0 1.364-.133c-.06-.516-.102-1.035-.147-1.552a.64.64 0 0 0-1.279.07zm.061 1.62c.035.399.084.797.161 1.19a.45.45 0 0 0 .783.208c.36-.417.48-.996.421-1.532a.686.686 0 0 0-1.365.133z"/><path d="M147.623 267.242c.654.092 1.313.143 1.972.16a.553.553 0 1 0-.03-1.105 27.7 27.7 0 0 1-1.887.09.43.43 0 0 0-.055.854zm1.971.16c1.357.037 2.719-.021 4.075-.059a.4.4 0 0 0 .031-.795 57.975 57.975 0 0 0-2.57-.228c-.519-.033-1.047-.066-1.566-.023a.553.553 0 0 0 .03 1.105zM156.996 262.882a1.2 1.2 0 0 1 .115.607.327.327 0 0 0 .652.03c.012-.27.026-.54.042-.81a.429.429 0 1 0-.809.173zm-.119-.16.15.21a.429.429 0 0 0 .77-.166l.05-.254a.54.54 0 1 0-.97.21zm.99-.308a.61.61 0 0 0-.164-.393.546.546 0 0 0-.628-.107c-.203.1-.3.296-.316.508a.556.556 0 1 0 1.107-.008zm.092.993-.093-.993a.556.556 0 0 0-1.107.008l-.078.994a.641.641 0 1 0 1.278-.01zm-1.344 1.285a.74.74 0 1 0 1.47-.138c-.063-.379-.09-.765-.126-1.147a.641.641 0 0 0-1.277.01c-.033.422-.077.85-.067 1.275zm0 0c.006.258.043.516.098.768a.778.778 0 1 0 1.498-.413c-.054-.161-.1-.325-.127-.493a.74.74 0 0 0-1.47.138zm.098.768c.06.272.144.539.256.793a.8.8 0 1 0 1.464-.643l-.004-.01a5.797 5.797 0 0 1-.218-.554.778.778 0 0 0-1.498.414zm.256.793c.129.293.298.567.48.83a.804.804 0 1 0 1.322-.919l-.005-.008a3.37 3.37 0 0 1-.337-.555.8.8 0 0 0-1.46.653zm.48.83c.214.307.464.589.748.832a.814.814 0 1 0 1.058-1.239l-.02-.015a2.523 2.523 0 0 1-.47-.505.804.804 0 0 0-1.315.926zm.748.832c.293.25.637.46 1.023.514a.821.821 0 0 0 .228-1.626c.032.004-.025-.015-.035-.02a1.19 1.19 0 0 1-.177-.122.814.814 0 0 0-1.039 1.254zm1.023.514c.604.084 1.084-.33 1.308-.855a.772.772 0 0 0-1.327-.767v-.001a.82.82 0 0 0 .02 1.623zm1.308-.855c.14-.327.235-.67.286-1.022a.684.684 0 0 0-1.326-.314 2.14 2.14 0 0 1-.296.58.772.772 0 1 0 1.336.756zm.286-1.022c.057-.39.078-.786.089-1.18a.619.619 0 0 0-1.233-.083c-.034.319-.08.644-.182.95a.684.684 0 1 0 1.326.313zm.089-1.18c.014-.526.013-1.052.004-1.578a.574.574 0 0 0-1.147-.006c-.013.501-.037 1.003-.09 1.501a.618.618 0 1 0 1.233.083zm.004-1.578-.015-.938a.554.554 0 0 0-1.107-.005l-.025.937a.574.574 0 0 0 1.147.03v-.024zm-1.018-.606.008.01.014.019a.554.554 0 0 0 .968-.228l.005-.029c.003-.012.004-.024.005-.037.003-.025.004-.05.003-.075a.554.554 0 0 0-1.109-.023c-.01.13.028.258.105.364zm1.026.543-.022-.883a.555.555 0 0 0-1.109-.024l-.06.882a.597.597 0 1 0 1.19.081l.001-.056zm.092 1.763a35.695 35.695 0 0 1-.092-1.763.596.596 0 0 0-1.191-.025 36.161 36.161 0 0 0-.077 1.827.681.681 0 1 0 1.36-.04zm.123 2.119c-.03-.707-.07-1.414-.123-2.12a.68.68 0 0 0-1.36.04c-.013.702-.02 1.404-.026 2.106a.755.755 0 1 0 1.51-.026zm.046 2.25c.003-.75-.013-1.5-.046-2.25a.755.755 0 0 0-1.51.026c-.006.734-.017 1.468-.035 2.201a.796.796 0 0 0 1.591.039v-.016zm-.228 2.075c.168-.677.225-1.38.228-2.075a.796.796 0 0 0-1.591-.023 7.934 7.934 0 0 1-.203 1.71.807.807 0 0 0 1.566.388zm-.338 1.18c.15-.38.24-.786.338-1.18a.807.807 0 1 0-1.566-.387c-.083.335-.157.678-.273 1.003a.802.802 0 0 0 1.501.563zm-.344.643c.142-.2.255-.417.344-.644a.802.802 0 1 0-1.492-.588l-.01.025a1.258 1.258 0 0 1-.144.294.795.795 0 0 0 1.302.913zm-.693.63c.26-.172.51-.374.693-.63a.795.795 0 1 0-1.295-.923l-.007.01c-.066.096-.18.17-.275.234a.79.79 0 0 0 .884 1.31zm-.77.38c.278-.07.533-.222.77-.38a.79.79 0 0 0-.873-1.316l-.01.007c-.113.077-.232.168-.36.218a.774.774 0 0 0 .473 1.47zm-.869-.07c.275.112.58.143.868.07a.774.774 0 0 0-.376-1.5h-.003c-.14.036-.018.007.017.017a.75.75 0 0 0-.505 1.412zm-.818-2.22c.02.411.048.829.138 1.233.09.405.276.827.69.99a.751.751 0 0 0 .645-1.352c-.244-.317-.4-.716-.556-1.081a.478.478 0 0 0-.917.21zM162.93 260.109a.817.817 0 0 1 .36-.17.454.454 0 1 0-.324-.837 1.81 1.81 0 0 0-.576.516.367.367 0 0 0 .54.49zm.36-.17a3.27 3.27 0 0 1 .621-.068.544.544 0 1 0-.131-1.075c-.284.063-.562.16-.814.306a.455.455 0 0 0 .324.837zm.621-.068a2.53 2.53 0 0 1 .535.03.611.611 0 1 0 .105-1.211 3.82 3.82 0 0 0-.771.106.545.545 0 0 0 .131 1.076zm.535.03a.245.245 0 0 1 .047.012c-.024-.012-.084-.07-.013.003a.66.66 0 1 0 .88-.982c-.23-.182-.522-.249-.81-.244a.611.611 0 0 0-.104 1.211zm-.067-.117a.413.413 0 0 1 .064.17.709.709 0 1 0 1.37-.344c-.091-.259-.234-.505-.452-.676a.661.661 0 0 0-.982.85zm1.511.849c.038-.34.037-.697-.077-1.023a.709.709 0 0 0-1.37.343c.024.15-.009.312-.036.458a.75.75 0 1 0 1.483.222zm-.367 1.13c.196-.348.323-.733.367-1.13a.75.75 0 0 0-1.483-.222c-.037.194-.113.38-.22.546a.78.78 0 1 0 1.311.848c.01-.014.017-.027.025-.041zm-.64.828c.261-.234.469-.523.64-.827a.78.78 0 0 0-1.336-.807 3.92 3.92 0 0 1-.397.528.779.779 0 0 0 1.093 1.106zm-.691.525c.242-.159.475-.332.691-.525a.778.778 0 1 0-1.093-1.106 7.093 7.093 0 0 1-.487.477.73.73 0 0 0 .889 1.154zm-1.415-.182a.656.656 0 0 0 1.105.39c-.043.043.042-.027.053-.035.085-.06.17-.116.257-.173a.73.73 0 1 0-.89-1.154c-.276.248-.576.567-.525.972zm0 0c.045.358.329.552.635.679a.65.65 0 0 0 .508-1.195.656.656 0 0 0-1.143.516zm.66.688c.186.069.393.08.59.092.26.015.52.018.781.018.906.003 1.812-.027 2.717-.06a.454.454 0 0 0 .028-.905 439.93 439.93 0 0 1-2.679-.27c-.37-.038-.744-.066-1.111-.125a.65.65 0 0 0-.327 1.25z"/></g></svg>