<?xml version="1.0" encoding="UTF-8"?>
<svg width="271.83" height="251.78" version="1.1" xmlns="http://www.w3.org/2000/svg">
 <g fill="none" stroke-miterlimit="10">
  <g stroke="#000">
   <path d="m135.5 0.35355v251.43" stroke-width=".53181" paint-order="fill stroke markers"/>
   <path d="m135.5 0.35355-4 4" paint-order="fill stroke markers"/>
   <path d="m135.5 0.35355 4 4" paint-order="fill stroke markers"/>
   <path d="m0 172.81h271.47" stroke-width=".4204" paint-order="fill stroke markers"/>
   <path d="m271.47 172.81-4-4" paint-order="fill stroke markers"/>
   <path d="m271.47 172.81-4 4" paint-order="fill stroke markers"/>
  </g>
  <path d="m175.85 172.66c0 22.155-17.96 40.114-40.114 40.114-22.155 0-40.114-17.96-40.114-40.114 0-22.155 17.96-40.114 40.114-40.114 22.155 0 40.114 17.96 40.114 40.114z" stroke="#616161" stroke-linecap="round" stroke-linejoin="round" stroke-opacity=".8" stroke-width="2.5" paint-order="fill stroke markers"/>
  <path d="m29 30.658v0l1 2.6483v0l1 2.6234v0l1 2.5985v0l1 2.5735v0l1 2.5486v0l1 2.5237v0l1 2.4988v0l1 2.4738v0l1 2.4489v0l1 2.424v0l1 2.399v0l1 2.3741v0l1 2.3492v0l1 2.3243v0l1 2.2993v0l1 2.2744v0l1 2.2495v0l1 2.2245v0l1 2.1996v0l1 2.1747v0l1 2.1498v0l1 2.1248v0l1 2.0999v0l1 2.075v0l1 2.05v0l1 2.0251v0l1 2.0002v0l1 1.9752v0l1 1.9503v0l1 1.9254v0l1 1.9005v0l1 1.8755v0l1 1.8506v0l1 1.8257v0l1 1.8008v0l1 1.7758v0l1 1.7509v0l1 1.726v0l1 1.701v0l1 1.6761v0l1 1.6512v0l1 1.6263v0l1 1.6013v0l1 1.5764v0l1 1.5515v0l1 1.5265v0l1 1.5016v0l1 1.4767v0l1 1.4518v0l1 1.4268v0l1 1.4019v0l1 1.377v0l1 1.352v0l1 1.3271v0l1 1.3022v0l1 1.2772v0l1 1.2523v0l1 1.2274v0l1 1.2025v0l1 1.1775v0l1 1.1526v0l1 1.1277v0l1 1.1028v0l1 1.0778v0l1 1.0529v0l1 1.028v0l1 1.003v0l1 0.9781v0l1 0.95318v0l1 0.92825v0l1 0.90332v0l1 0.87839v0l1 0.85346v0l1 0.82854v0l1 0.8036v0l1 0.77868v0l1 0.75375v0l1 0.72882v0l1 0.70389v0l1 0.67896v0l1 0.65403v0l1 0.62911v0l1 0.60417v0l1 0.57925v0l1 0.55432v0l1 0.52939v0l1 0.50446v0l1 0.47953v0l1 0.4546v0l1 0.42968v0l1 0.40475v0l1 0.37981v0l1 0.35489v0l1 0.32996v0l1 0.30503v0l1 0.28011v0l1 0.25517v0l1 0.23025v0l1 0.20531v0l1 0.18039v0l1 0.15546v0l1 0.13053v0l1 0.10561v0l1 0.0807v0l1 0.0557v0l1 0.0308v0l1 7e-3v-8.7e-4l1-0.019v0l1-0.044v0l1-0.0689v0l1-0.0938v0l1-0.11875v0l1-0.14369v0l1-0.16861v0l1-0.19354v0l1-0.21848v0l1-0.24339v0l1-0.26833v0l1-0.29326v0l1-0.31818v0l1-0.34312v0l1-0.36804v0l1-0.39297v0l1-0.4179v0l1-0.44283v0l1-0.46776v0l1-0.49268v0l1-0.51762v0l1-0.54254v0l1-0.56747v0l1-0.59241v0l1-0.61732v0l1-0.64226v0l1-0.66719v0l1-0.69212v0l1-0.71704v0l1-0.74197v0l1-0.7669v0l1-0.79183v0l1-0.81676v0l1-0.84169v0l1-0.86662v0l1-0.89154v0l1-0.91648v0l1-0.9414v0l1-0.96633v0l1-0.99126v0l1-1.0162v0l1-1.0411v0l1-1.066v0l1-1.091v0l1-1.1159v0l1-1.1408v0l1-1.1658v0l1-1.1907v0l1-1.2156v0l1-1.2405v0l1-1.2655v0l1-1.2904v0l1-1.3153v0l1-1.3403v0l1-1.3652v0l1-1.3901v0l1-1.415v0l1-1.44v0l1-1.4649v0l1-1.4898v0l1-1.5148v0l1-1.5397v0l1-1.5646v0l1-1.5895v0l1-1.6145v0l1-1.6394v0l1-1.6643v0l1-1.6893v0l1-1.7142v0l1-1.7391v0l1-1.764v0l1-1.789v0l1-1.8139v0l1-1.8388v0l1-1.8638v0l1-1.8887v0l1-1.9136v0l1-1.9386v0l1-1.9635v0l1-1.9884v0l1-2.0133v0l1-2.0383v0l1-2.0632v0l1-2.0881v0l1-2.113v0l1-2.138v0l1-2.1629v0l1-2.1878v0l1-2.2128v0l1-2.2377v0l1-2.2626v0l1-2.2876v0l1-2.3125v0l1-2.3374v0l1-2.3623v0l1-2.3873v0l1-2.4122v0l1-2.4371v0l1-2.462v0l1-2.487v0l1-2.5119v0l1-2.5368v0l1-2.5618v0l1-2.5867v0l1-2.6116v0l1-2.6366v0" stroke="#2e7d32" stroke-linecap="round" stroke-linejoin="round" stroke-opacity=".69804" stroke-width="2.5" paint-order="fill stroke markers"/>
 </g>
 <path d="m140.74 172.66c0 2.7614-2.2386 5-5 5-2.7614 0-5-2.2386-5-5 0-2.7614 2.2386-5 5-5 2.7614 0 5 2.2386 5 5z" fill="#1565c0" paint-order="stroke fill markers"/>
 <path d="m140.74 172.66c0 2.7614-2.2386 5-5 5-2.7614 0-5-2.2386-5-5 0-2.7614 2.2386-5 5-5 2.7614 0 5 2.2386 5 5z" fill="none" stroke="#000" stroke-linecap="round" stroke-linejoin="round" stroke-miterlimit="10" paint-order="fill stroke markers"/>
 <text x="140.00021" y="162.31355" dominant-baseline="alphabetic" fill="#1565c0" font-family="geogebra-sans-serif, sans-serif" font-size="16px" text-decoration="normal">A</text>
</svg>
