<svg width="251.28" height="282.09" xmlns="http://www.w3.org/2000/svg"><g fill="none" stroke-miterlimit="10" paint-order="fill stroke markers"><path d="M58.356 256.65v0l.999-5.154v0l.998-4.997v0l.999-4.844v0l.998-4.692v0l1-4.544v0l.998-4.397v0l.998-4.252v0l.999-4.111v0l.999-3.972v0l.998-3.835v0l.999-3.7v0l.999-3.568v0l.998-3.438v0l.999-3.311v0l.998-3.186v0l.999-3.064v0l.999-2.943v0l.998-2.826v0l.999-2.71v0l.998-2.598v0l1-2.487v0l.998-2.379v0l.998-2.273v0l.999-2.17v0l.999-2.069v0l.998-1.97v0l.999-1.874v0l.999-1.78v0l.998-1.69v0l.999-1.6v0l.998-1.515v0l.999-1.43v0l.999-1.348v0l.998-1.269v0l.999-1.192v0l.998-1.117v0l1-1.046v0l.998-.976v0l.998-.908v0l.999-.844v0l.999-.78v0l.998-.722v0l.999-.664v0l.998-.608v0l1-.555v0l.998-.505v0l.998-.457v0l.999-.411v0l.999-.368v0l.998-.327v0l.999-.289v0l.998-.253v0l1-.219v0l.998-.187v0l.998-.16v0l.999-.132v0l.999-.108v0l.998-.087v0l.999-.068v0l.998-.05v0l1-.037v0l.998-.025v0l.998-.014v0l.999-.008v0l.999-.003v0h.998v0l.999-.001v0l.998-.003v0l1-.008v0l.998-.015v0l.998-.024v0l.999-.037v0l.999-.05v0l.998-.068v0l.999-.087v0l.998-.109v0l1-.132v0l.998-.16v0l.998-.187v0l.999-.22v0l.999-.252v0l.998-.288v0l.999-.328v0l.998-.368v0l1-.41v0l.998-.458v0l.998-.505v0l.999-.555v0l.999-.608v0l.998-.664v0l.999-.72v0l.998-.782v0l1-.844v0l.998-.908v0l.998-.976v0l.999-1.046v0l.999-1.117v0l.998-1.192v0l.999-1.269v0l.998-1.348v0l1-1.43v0l.998-1.514v0l.998-1.6v0l.999-1.69v0l.999-1.78v0l.998-1.875v0l.999-1.97v0l.998-2.069v0l1-2.17v0l.998-2.273v0l.998-2.379v0l.999-2.487v0l.999-2.597v0l.998-2.71v0l.999-2.826v0l.998-2.944v0l1-3.063v0l.998-3.186v0l.998-3.311v0l.999-3.439v0l.999-3.568v0l.998-3.7v0l.999-3.835v0l.998-3.971v0l1-4.111v0l.998-4.253v0l.998-4.397v0l.999-4.543v0l.999-4.693v0l.998-4.844v0l.999-4.997v0l.998-5.154v0l1-5.312v0" stroke="#2e7d32" stroke-linecap="round" stroke-linejoin="round" stroke-opacity=".698" stroke-width="2.5"/><g stroke="#000"><path d="M125.23.353v281.74" stroke-width=".563"/><path d="m125.23.353-3.994 4.004M125.23.353l3.994 4.004"/><path d="M0 141.38h250.93" stroke-width=".404"/><path d="m250.93 141.38-3.994-4.004M250.93 141.38l-3.994 4.004"/></g><path d="M165.52 141.22c0 22.177-17.935 40.156-40.059 40.156s-40.059-17.978-40.059-40.156 17.935-40.156 40.059-40.156 40.059 17.978 40.059 40.156z" stroke="#616161" stroke-linecap="round" stroke-linejoin="round" stroke-opacity=".8" stroke-width="2.5"/></g><path d="M130.46 141.22a5 5 0 0 1-4.993 5.005 5 5 0 0 1-4.993-5.005 5 5 0 0 1 4.993-5.005 5 5 0 0 1 4.993 5.005z" fill="#1565c0" paint-order="stroke fill markers"/><path d="M130.46 141.22a5 5 0 0 1-4.993 5.005 5 5 0 0 1-4.993-5.005 5 5 0 0 1 4.993-5.005 5 5 0 0 1 4.993 5.005z" fill="none" stroke="#000" stroke-linecap="round" stroke-linejoin="round" stroke-miterlimit="10" paint-order="fill stroke markers"/><text transform="scale(.9988 1.0012)" x="129.877" y="130.709" dominant-baseline="alphabetic" fill="#1565c0" font-family="geogebra-sans-serif, sans-serif" font-size="15.997" text-decoration="normal">A</text></svg>