<svg width="194.52" height="155pt" version="1.2" viewBox="0 0 145.89 155" xmlns="http://www.w3.org/2000/svg"><g fill="none" stroke-linecap="round" stroke-linejoin="round" stroke-miterlimit="10"><g stroke="#000"><path d="m21.02 151.55 37.383-39.906" stroke-width=".87"/><path d="M59.17 111.52h86.168" stroke-width="1.091"/><path d="M58.15 111.92V28.334" stroke-width="1.019"/></g><g stroke="#00bfff"><path d="m18.4 112.48-.043.367" stroke-width=".843"/><path d="m18.36 112.84.18.45M18.54 113.29l.137.285M18.68 113.58l.137.285" stroke-width=".844"/><path d="m18.81 113.86.137.285" stroke-width=".845"/><path d="m18.95 114.15.316.531" stroke-width=".846"/><g stroke-width=".847"><path d="m19.27 114.68.18.285M19.44 114.96l.184.328M19.63 115.29l.27.324"/></g><path d="m19.9 115.62.137.367" stroke-width=".847"/><path d="m20.03 115.98.273.328M20.31 116.31l.227.367" stroke-width=".848"/><path d="m20.53 116.68.27.367" stroke-width=".849"/><path d="m20.8 117.05.227.367M21.03 117.41l.273.285" stroke-width=".85"/><path d="m21.3 117.7.273.324" stroke-width=".851"/><path d="m21.58 118.02.27.246M21.85 118.27l.273.285M22.12 118.55l.227.246" stroke-width=".852"/><path d="m22.35 118.8.273.246M22.62 119.05l.227.285" stroke-width=".853"/><g stroke-width=".853"><path d="m22.85 119.33.227.242M23.07 119.57l.27.207M23.34 119.78l.227.242M23.57 120.02l.227.207M23.8 120.23l.23.203"/></g><g stroke-width=".853"><path d="m24.03 120.43.227.203M24.25 120.64l.227.203M24.48 120.84l.227.203M24.71 121.04l.316.207M25.02 121.25l.316.203M25.34 121.45l.41.246M25.75 121.7l.406.285"/></g><g stroke-width=".853"><path d="m26.16 121.98.453.242M26.61 122.23l.5.367M27.11 122.59l.496.285"/></g><g stroke-width=".854"><path d="m27.6 122.88.547.371M28.15 123.25l.496.367M28.65 123.62l.547.324"/></g><g stroke-width=".855"><path d="m29.19 123.94.496.246M29.69 124.19l.547.285M30.24 124.47l.453.246M30.69 124.72l.453.203M31.14 124.92l.453.242M31.6 125.16l.406.164"/></g><path d="m32 125.33.41.164M32.41 125.49l.406.164" stroke-width=".855"/><path d="m32.82 125.66.453.121" stroke-width=".856"/><path d="m33.27 125.78.41.164" stroke-width=".857"/><g stroke-width=".86"><path d="m33.68 125.94.363.164M34.05 126.11l.406.121M34.45 126.23l.363.164"/></g><path d="m34.82 126.39.41.121" stroke-width=".86"/><path d="m35.23 126.51.453.164" stroke-width=".861"/><path d="m35.68 126.68.406.164M36.09 126.84l.5.164" stroke-width=".864"/><path d="m36.59 127 .453.16" stroke-width=".865"/><path d="m37.04 127.16.496.164" stroke-width=".872"/><path d="m37.53 127.33.5.203" stroke-width=".877"/><path d="m38.03 127.53.5.164" stroke-width=".884"/><path d="m38.53 127.7.543.082" stroke-width=".887"/><path d="m39.08 127.78.5.203" stroke-width=".888"/><path d="m39.58 127.98.453.125" stroke-width=".893"/><path d="m40.03 128.11.5.121" stroke-width=".903"/><path d="m40.53 128.23.453.164" stroke-width=".909"/><path d="m40.98 128.39.453.082" stroke-width=".917"/><path d="m41.44 128.47.496.121" stroke-width=".923"/><path d="m41.93 128.59.453.121" stroke-width=".926"/><path d="m42.39 128.71.5.125" stroke-width=".934"/><path d="m42.89 128.84.453.121M43.34 128.96l.453.121" stroke-width=".938"/><path d="m43.79 129.08.453.125" stroke-width=".944"/><path d="m44.25 129.21.453.121" stroke-width=".948"/><path d="m44.7 129.33.453.082" stroke-width=".951"/><path d="m45.15 129.41.457.121" stroke-width=".953"/><path d="m45.61 129.53.453.043" stroke-width=".956"/><path d="m46.06 129.57.496.082" stroke-width=".964"/><path d="m46.56 129.66.5.04" stroke-width=".965"/><path d="m47.06 129.7.543.082" stroke-width=".969"/><path d="m47.6 129.78.5.082" stroke-width=".97"/><path d="m48.1 129.86.543.04" stroke-width=".973"/><path d="m48.64 129.9.5.082" stroke-width=".974"/><path d="m49.14 129.98.5.043M49.64 130.02l.496.04" stroke-width=".975"/><path d="m50.14 130.06.453.04" stroke-width=".98"/><path d="m50.59 130.1.453.043M51.05 130.14l.41.04" stroke-width=".981"/><path d="M51.46 130.18h.453" stroke-width=".982"/><path d="m51.91 130.18.453.043" stroke-width=".986"/><path d="m52.36 130.23.453.04" stroke-width="1.006"/><path d="m52.82 130.27.5.043M53.32 130.31l.543.082" stroke-width="1.013"/><path d="m53.86 130.39.543.04" stroke-width="1.019"/><g stroke-width="1.023"><path d="m54.4 130.43.547.04M54.95 130.47l.496.082M55.44 130.55l.5.043"/></g><path d="m55.94 130.59.453.04" stroke-width="1.026"/><path d="m56.4 130.63.453.043" stroke-width="1.027"/><path d="M56.85 130.68h.453" stroke-width="1.028"/><path d="m57.3 130.68.453.04" stroke-width="1.029"/><path d="m57.76 130.71.5-.04M58.26 130.68h.543" stroke-width="1.03"/><path d="m58.8 130.68.5-.082" stroke-width="1.031"/><g stroke-width="1.034"><path d="m59.3 130.59.543-.043M59.84 130.55l.59-.082M60.43 130.47l.5-.078M60.93 130.39l.496-.082M61.43 130.31l.457-.043"/></g><path d="m61.89 130.27.453-.04M62.34 130.23l.453-.043" stroke-width="1.034"/><path d="m62.79 130.18.453-.04" stroke-width="1.035"/><path d="m63.25 130.14.453-.043M63.7 130.1l.363-.078M64.06 130.02l.316-.043" stroke-width="1.036"/><path d="m64.38 129.98.59-.082M64.97 129.9l.363-.04" stroke-width="1.038"/><g stroke-width="1.039"><path d="m65.33 129.86.406-.082M65.74 129.78l.453-.121M66.19 129.66l.363-.082"/></g><path d="m66.55 129.57.363-.082M66.92 129.49l.316-.082" stroke-width="1.039"/><path d="m67.23 129.41.543-.082" stroke-width="1.04"/><path d="m67.78 129.33.59-.164M68.37 129.16l.363-.082" stroke-width="1.041"/><path d="m68.73 129.08.363-.121" stroke-width="1.042"/><path d="m69.09 128.96.316-.164" stroke-width="1.043"/><path d="m69.41 128.8.453-.242" stroke-width="1.044"/><path d="m69.86 128.55.32-.207" stroke-width="1.045"/><path d="m70.18 128.35.406-.164" stroke-width="1.047"/><path d="m70.59 128.18.273-.16M70.86 128.02l.27-.164" stroke-width="1.048"/><path d="m71.13 127.86.32-.246M71.45 127.61l.363-.242M71.82 127.37l.406-.246" stroke-width="1.049"/><path d="m72.22 127.12.543-.328M72.77 126.8l.5-.367" stroke-width="1.05"/><g stroke-width="1.05"><path d="m73.27 126.43.543-.367M73.81 126.06l.547-.406M74.35 125.66l.543-.367"/></g><path d="m74.9 125.29.543-.367M75.44 124.92l.543-.328M75.98 124.59l.547-.285" stroke-width="1.05"/><g stroke-width="1.051"><path d="m76.53 124.31.453-.285M76.98 124.02l.363-.246M77.35 123.78l.27-.16"/></g><path d="m77.62 123.62.273-.246M77.89 123.37l.227-.246" stroke-width="1.05"/><path d="m78.12 123.12.227-.246" stroke-width="1.051"/><path d="m78.34 122.88.273-.367" stroke-width="1.05"/><path d="m78.62 122.51.18-.285" stroke-width="1.046"/><path d="m78.8 122.23.227-.324" stroke-width="1.041"/><path d="m79.02 121.9.273-.328M79.3 121.57l.227-.367" stroke-width="1.038"/><path d="m79.52 121.21.18-.324" stroke-width="1.035"/><path d="m79.7 120.88.273-.531" stroke-width="1.023"/><path d="m79.98 120.35.27-.41" stroke-width="1.019"/><path d="m80.25 119.94.227-.285" stroke-width="1.017"/><path d="m80.47 119.66.137-.324" stroke-width="1.003"/><path d="m80.61 119.33.137-.41" stroke-width=".99"/><path d="m80.75 118.92.273-.45M81.02 118.47l.227-.324M81.25 118.15l.27-.367" stroke-width=".978"/><path d="m81.51 117.78.273-.367M81.79 117.41l.184-.367" stroke-width=".977"/><path d="m81.97 117.05.18-.328M82.15 116.72l.18-.531" stroke-width=".978"/><path d="m82.33 116.19.094-.367" stroke-width=".979"/><path d="m82.43 115.82.043-.324" stroke-width=".98"/><path d="m82.47 115.5.047-.45" stroke-width=".981"/><g stroke-width=".981"><path d="m82.51 115.05.043-.367M82.56 114.68l.047-.45M82.6 114.23l.09-.41"/></g><path d="m82.69 113.82.09-.445M82.78 113.38l.047-.367M82.83 113.01l.09-.41" stroke-width=".982"/><path d="m82.92 112.6.047-.45" stroke-width=".954"/><path d="M82.97 112.15v-.324" stroke-width=".752"/><g stroke-dasharray="6, 3"><path d="m18.13 113.29-.273-.164" stroke-width=".917"/><path d="M17.86 113.13v-.41" stroke-dashoffset=".317" stroke-width=".921"/><path d="m17.86 112.72.137-.367" stroke-dashoffset=".725" stroke-width=".921"/><path d="m18 112.35.18-.445" stroke-dashoffset="1.117" stroke-width=".922"/><g stroke-width=".923"><path d="m18.18 111.91.184-.371" stroke-dashoffset="1.601"/><path d="m18.36 111.54.227-.285" stroke-dashoffset="2.011"/><path d="m18.59 111.25.18-.324" stroke-dashoffset="2.375"/><path d="m18.77 110.93.227-.285" stroke-dashoffset="2.749"/><path d="m18.99 110.64.363-.328" stroke-dashoffset="3.113"/></g><path d="m19.35 110.31.363-.324" stroke-dashoffset="3.601" stroke-width=".924"/><path d="m19.72 109.99.363-.246" stroke-dashoffset="4.089" stroke-width=".924"/><path d="m20.08 109.74.363-.246" stroke-dashoffset="4.527" stroke-width=".928"/><path d="m20.44 109.5.27-.285" stroke-dashoffset="4.965" stroke-width=".929"/><path d="m20.71 109.21.363-.246" stroke-dashoffset="5.359" stroke-width=".93"/><path d="m21.08 108.96.363-.16" stroke-dashoffset="5.797" stroke-width=".933"/><path d="m21.44 108.8.406-.164" stroke-dashoffset="6.194" stroke-width=".935"/><path d="m21.85 108.64.363-.164" stroke-dashoffset="6.634" stroke-width=".939"/><path d="m22.21 108.48.453-.164" stroke-dashoffset="7.032" stroke-width=".946"/><path d="m22.66 108.31.5-.203" stroke-dashoffset="7.514" stroke-width=".951"/><path d="m23.16 108.11.406-.203" stroke-dashoffset="8.052" stroke-width=".958"/><path d="m23.57 107.91.41-.203" stroke-dashoffset="8.509" stroke-width=".968"/><path d="m23.98 107.7.5-.207" stroke-dashoffset="8.965" stroke-width=".973"/><path d="m24.48 107.5.543-.242" stroke-dashoffset=".504" stroke-width=".977"/><path d="m25.02 107.25.316-.125" stroke-dashoffset="1.1" stroke-width=".978"/><path d="m25.34 107.13.59-.242" stroke-dashoffset="1.441" stroke-width=".988"/><path d="m25.93 106.89.543-.207" stroke-dashoffset="2.079" stroke-width=".992"/><path d="m26.47 106.68.453-.16" stroke-dashoffset="2.66" stroke-width=".998"/><path d="m26.93 106.52.41-.164" stroke-dashoffset="3.142" stroke-width="1.002"/><path d="m27.34 106.36.316-.125" stroke-dashoffset="3.581" stroke-width="1.008"/><path d="m27.65 106.23.68-.242" stroke-dashoffset="3.921" stroke-width="1.012"/><g stroke-width="1.012"><path d="m28.33 105.99.316-.125" stroke-dashoffset="4.644"/><path d="m28.65 105.86.363-.16" stroke-dashoffset="4.984"/><path d="m29.01 105.7.59-.207" stroke-dashoffset="5.382"/><path d="m29.6 105.5.543-.121" stroke-dashoffset="6.006"/><path d="m30.14 105.38.59-.121" stroke-dashoffset="6.564"/></g><g stroke-width="1.013"><path d="m30.73 105.25.59-.125" stroke-dashoffset="7.166"/><path d="m31.32 105.13.32-.04" stroke-dashoffset="7.768"/><path d="m31.64 105.09.543-.082" stroke-dashoffset="8.088"/><path d="m32.19 105.01.59-.082" stroke-dashoffset="8.638"/></g><path d="m32.78 104.93.363-.082" stroke-dashoffset=".233" stroke-width="1.013"/><path d="m33.14 104.84.453-.082" stroke-dashoffset=".605" stroke-width="1.013"/><path d="m33.59 104.76.453-.121" stroke-dashoffset="1.065" stroke-width="1.014"/><path d="m34.05 104.64.406-.082" stroke-dashoffset="1.535" stroke-width="1.014"/><path d="m34.45 104.56.41-.082" stroke-dashoffset="1.951" stroke-width="1.014"/><path d="m34.86 104.48.406-.082" stroke-dashoffset="2.367" stroke-width="1.015"/><path d="m35.27 104.39.59-.16" stroke-dashoffset="2.784" stroke-width="1.015"/><g stroke-width="1.014"><path d="m35.86 104.23.5-.125" stroke-dashoffset="3.395"/><path d="m36.36 104.11.543-.121" stroke-dashoffset="3.909"/><path d="m36.9 103.99.316-.04" stroke-dashoffset="4.466"/></g><g stroke-width="1.015"><path d="m37.22 103.95.41-.082" stroke-dashoffset="4.786"/><path d="m37.63 103.87.496-.082" stroke-dashoffset="5.202"/><path d="m38.12 103.79.547-.082" stroke-dashoffset="5.708"/></g><path d="m38.67 103.7.59-.121" stroke-dashoffset="6.258" stroke-width="1.016"/><path d="m39.26 103.58.633-.125" stroke-dashoffset="6.86" stroke-width="1.016"/><path d="m39.89 103.46.59-.164" stroke-dashoffset="7.506" stroke-width="1.017"/><path d="m40.48 103.29.59-.121" stroke-dashoffset="8.118" stroke-width="1.017"/><path d="m41.07 103.17.5-.121" stroke-dashoffset="8.72" stroke-width="1.016"/><path d="m41.57 103.05.453-.082" stroke-dashoffset=".234" stroke-width="1.016"/><path d="m42.03 102.97.36-.043" stroke-dashoffset=".694" stroke-width="1.011"/><path d="m42.39 102.93.32-.04" stroke-dashoffset="1.059" stroke-width="1.002"/><path d="M42.71 102.89h.363" stroke-dashoffset="1.379" stroke-width=".986"/><path d="M43.07 102.89h.406" stroke-dashoffset="1.742" stroke-width=".971"/><path d="M43.48 102.89h.453" stroke-dashoffset="2.15" stroke-width=".967"/><path d="m43.93 102.89.453.04" stroke-dashoffset="2.604" stroke-width=".966"/><g stroke-width=".966"><path d="M44.38 102.93h.316" stroke-dashoffset="3.059"/><path d="m44.7 102.93.59.043" stroke-dashoffset="3.376"/><path d="M45.29 102.97h.5" stroke-dashoffset="3.967"/></g><path d="M45.79 102.97h.5" stroke-dashoffset="4.466" stroke-width=".967"/><path d="M46.29 102.97h.363" stroke-dashoffset="4.965" stroke-width=".967"/><path d="M46.65 102.97h.36" stroke-dashoffset="5.327" stroke-width=".968"/><path d="M47.01 102.97h.5" stroke-dashoffset="5.69" stroke-width=".969"/><path d="M47.51 102.97h.5" stroke-dashoffset="6.189" stroke-width=".969"/><path d="M48.01 102.97h.543" stroke-dashoffset="6.687" stroke-width=".969"/><g stroke-width=".969"><path d="M48.55 102.97h.543" stroke-dashoffset="7.231"/><path d="M49.1 102.97h.5" stroke-dashoffset="7.776"/><path d="M49.6 102.97h.5" stroke-dashoffset="8.274"/></g><path d="M50.1 102.97h.453" stroke-dashoffset="8.773" stroke-width=".968"/><g stroke-width=".967"><path d="M50.55 102.97h.453" stroke-dashoffset=".227"/><path d="M51 102.97h.406" stroke-dashoffset=".68"/><path d="M51.41 102.97h.363" stroke-dashoffset="1.088"/><path d="M51.77 102.97h.363" stroke-dashoffset="1.451"/><path d="M52.14 102.97h.453" stroke-dashoffset="1.813"/></g><g stroke-width=".965"><path d="m52.59 102.97.453.082" stroke-dashoffset="2.267"/><path d="m53.04 103.05.543.121" stroke-dashoffset="2.728"/><path d="m53.59 103.17.363.04" stroke-dashoffset="3.285"/><path d="m53.95 103.21.41.082" stroke-dashoffset="3.65"/><path d="m54.36 103.29.496.043" stroke-dashoffset="4.066"/><path d="M54.85 103.34h.5" stroke-dashoffset="4.567"/></g><path d="m55.35 103.34.543.04" stroke-dashoffset="5.066" stroke-width=".965"/><path d="M55.9 103.38h.547" stroke-dashoffset="5.611" stroke-width=".966"/><path d="M56.44 103.38h.59" stroke-dashoffset="6.155" stroke-width=".969"/><path d="M57.03 103.38h.543" stroke-dashoffset="6.745" stroke-width=".97"/><path d="M57.58 103.38h.543" stroke-dashoffset="7.289" stroke-width=".97"/><g stroke-width=".971"><path d="M58.12 103.38h.5" stroke-dashoffset="7.833"/><path d="M58.62 103.38h.453" stroke-dashoffset="8.332"/><path d="M59.07 103.38h.316" stroke-dashoffset="8.785"/><path d="M59.39 103.38h.363" stroke-dashoffset=".102"/></g><path d="M59.75 103.38h.406" stroke-dashoffset=".465" stroke-width=".97"/><path d="m60.16 103.38.457.043" stroke-dashoffset=".873" stroke-width=".971"/><path d="m60.62 103.42.543.082" stroke-dashoffset="1.328" stroke-width=".971"/><path d="m61.16 103.5.543.082" stroke-dashoffset="1.879" stroke-width=".971"/><path d="m61.7 103.58.543.04" stroke-dashoffset="2.429" stroke-width=".972"/><path d="m62.25 103.62.547.082" stroke-dashoffset="2.974" stroke-width=".976"/><path d="m62.79 103.7.496.04" stroke-dashoffset="3.525" stroke-width=".976"/><path d="m63.29 103.74.41.082" stroke-dashoffset="4.025" stroke-width=".976"/><path d="m63.7 103.82.363.082" stroke-dashoffset="4.441" stroke-width=".976"/><path d="m64.06 103.91.633.121" stroke-dashoffset="4.813" stroke-width=".983"/><path d="m64.69 104.03.41.043" stroke-dashoffset="5.459" stroke-width=".988"/><path d="M65.1 104.07h.363" stroke-dashoffset="5.87" stroke-width=".991"/><path d="m65.47 104.07.406.04" stroke-dashoffset="6.232" stroke-width=".991"/><path d="m65.87 104.11.406.043" stroke-dashoffset="6.642" stroke-width=".995"/><path d="m66.28 104.15.363.04" stroke-dashoffset="7.052" stroke-width=".996"/><path d="m66.64 104.19.363.043" stroke-dashoffset="7.418" stroke-width="1.001"/><path d="m67.01 104.23.363.082" stroke-dashoffset="7.782" stroke-width="1.002"/><path d="m67.37 104.32.406.04" stroke-dashoffset="8.154" stroke-width="1.008"/><path d="m67.78 104.36.457.082" stroke-dashoffset="8.564" stroke-width="1.013"/><path d="m68.23 104.44.453.04" stroke-dashoffset=".025" stroke-width="1.017"/><path d="m68.69 104.48.406.043" stroke-dashoffset=".48" stroke-width="1.017"/><path d="m69.09 104.52.453.082" stroke-dashoffset=".89" stroke-width="1.02"/><path d="m69.55 104.6.316.04" stroke-dashoffset="1.351" stroke-width="1.022"/><path d="m69.86 104.64.363.082" stroke-dashoffset="1.671" stroke-width="1.025"/><path d="m70.23 104.72.59.121" stroke-dashoffset="2.043" stroke-width="1.025"/><path d="m70.82 104.84.316.043" stroke-dashoffset="2.645" stroke-width="1.026"/><path d="m71.13 104.89.32.082" stroke-dashoffset="2.965" stroke-width="1.026"/><path d="m71.45 104.97.543.16" stroke-dashoffset="3.293" stroke-width="1.028"/><path d="m72 105.13.5.164" stroke-dashoffset="3.861" stroke-width="1.028"/><path d="m72.5 105.29.496.164" stroke-dashoffset="4.385" stroke-width="1.029"/><path d="m72.99 105.46.547.203" stroke-dashoffset="4.91" stroke-width="1.03"/><path d="m73.54 105.66.453.203" stroke-dashoffset="5.491" stroke-width="1.03"/><g stroke-width="1.031"><path d="m73.99 105.86.496.164" stroke-dashoffset="5.988"/><path d="m74.49 106.03.453.203" stroke-dashoffset="6.513"/><path d="m74.94 106.23.453.207" stroke-dashoffset="7.01"/></g><path d="m75.39 106.44.5.285" stroke-dashoffset="7.508" stroke-width="1.032"/><path d="m75.89 106.72.273.164" stroke-dashoffset="8.082" stroke-width="1.032"/><path d="m76.17 106.89.27.16" stroke-dashoffset="8.4" stroke-width="1.033"/><path d="m76.44 107.05.41.29" stroke-dashoffset="8.717" stroke-width="1.033"/><path d="m76.85 107.34.363.242" stroke-dashoffset=".215" stroke-width="1.033"/><path d="m77.21 107.58.316.203" stroke-dashoffset=".653" stroke-width="1.034"/><path d="m77.53 107.78.41.29" stroke-dashoffset="1.03" stroke-width="1.035"/><g stroke-width="1.035"><path d="m77.94 108.07.36.242" stroke-dashoffset="1.528"/><path d="m78.3 108.31.32.164" stroke-dashoffset="1.966"/><path d="m78.62 108.48.453.328" stroke-dashoffset="2.322"/><path d="m79.07 108.8.363.324" stroke-dashoffset="2.881"/></g><path d="m79.43 109.13.36.246" stroke-dashoffset="3.369" stroke-width="1.035"/><g stroke-width="1.034"><path d="m79.79 109.38.32.246" stroke-dashoffset="3.807"/><path d="m80.11 109.62.316.324" stroke-dashoffset="4.208"/><path d="m80.43 109.95.227.203" stroke-dashoffset="4.663"/><path d="m80.66 110.15.273.285" stroke-dashoffset="4.968"/><path d="m80.93 110.43.27.29" stroke-dashoffset="5.362"/></g><g stroke-width="1.034"><path d="m81.2 110.72.363.324" stroke-dashoffset="5.757"/><path d="m81.56 111.05.227.285" stroke-dashoffset="6.245"/><path d="m81.79 111.33.273.246" stroke-dashoffset="6.609"/><path d="m82.06 111.58.27.246" stroke-dashoffset="6.976"/></g><path d="m82.33 111.82.32.285" stroke-dashoffset="7.341" stroke-width="1.033"/><path d="m82.65 112.11.227.324" stroke-dashoffset="7.769" stroke-width="1.033"/><path d="m82.88 112.43.227.367" stroke-dashoffset="8.166" stroke-width="1.033"/><path d="m83.1 112.8.09.45" stroke-dashoffset="8.598" stroke-width=".782"/><path d="m83.19 113.25-.273.285" stroke-dashoffset=".055" stroke-width=".219"/></g><path d="m18.27 113.45-.133-.367" stroke-width=".815"/><path d="M18.13 113.09v-.324" stroke-width=".932"/><path d="M18.13 112.76v-.488" stroke-width=".967"/><path d="m18.13 112.27.043-.656" stroke-width=".981"/><path d="m18.18 111.62.09-.45" stroke-width=".989"/><path d="m18.27 111.17.094-.57" stroke-width=".998"/><path d="m18.36 110.6.09-.531" stroke-width="1.01"/><path d="m18.45 110.07.09-.488" stroke-width="1.02"/><path d="m18.54 109.58.09-.488" stroke-width="1.026"/><path d="m18.63 109.09.09-.41" stroke-width="1.032"/><path d="m18.72 108.68.047-.324M18.77 108.36l.047-.328" stroke-width="1.039"/><path d="m18.81 108.03.043-.324" stroke-width="1.045"/><path d="M18.85 107.7v-.328M18.85 107.38l.047-.367" stroke-width="1.046"/><path d="M18.9 107.01v-.406M18.9 106.6v-.41" stroke-width="1.045"/><path d="m18.9 106.19.047-.45" stroke-width="1.046"/><g stroke-width="1.046"><path d="m18.95 105.74.09-.45M19.04 105.29l.043-.488M19.08 104.8l.094-.488M19.18 104.32l.043-.41"/></g><path d="m19.22 103.91.047-.45" stroke-width="1.048"/><path d="m19.27 103.46.043-.367" stroke-width="1.051"/><path d="M19.31 103.09v-.406" stroke-width="1.054"/><path d="m19.31 102.68.047-.41" stroke-width="1.057"/><path d="M19.35 102.27v-.406" stroke-width="1.062"/><path d="M19.35 101.87v-.41" stroke-width="1.063"/><path d="M19.35 101.46v-.45" stroke-width="1.068"/><path d="M19.35 101.01v-.406M19.35 100.6v-.45" stroke-width="1.073"/><path d="M19.35 100.15v-.406" stroke-width="1.074"/><path d="M19.35 99.75v-.367" stroke-width="1.081"/><path d="M19.35 99.38v-.41" stroke-width="1.084"/><path d="M19.35 98.97v-.367M19.35 98.6v-.406M19.35 98.2v-.41" stroke-width="1.086"/><path d="M19.35 97.79v-.406M19.35 97.38v-.492" stroke-width="1.091"/><path d="M19.35 96.89v-.488M19.35 96.4l-.047-.531" stroke-width="1.092"/><path d="M19.31 95.87v-.488M19.31 95.38l-.043-.492M19.27 94.89l-.047-.406" stroke-width="1.095"/><path d="m19.22 94.48-.043-.406M19.18 94.07l-.047-.367" stroke-width="1.1"/><g stroke-width="1.1"><path d="m19.13 93.71-.09-.613M19.04 93.09l-.047-.367M18.99 92.73l-.043-.328M18.95 92.4l-.094-.406M18.85 91.99l-.043-.41M18.81 91.58l-.094-.45"/></g><path d="m18.72 91.13-.09-.488M18.63 90.64l-.137-.531" stroke-width="1.101"/><path d="m18.49 90.11-.09-.57M18.4 89.54l-.137-.531" stroke-width="1.102"/><path d="m18.27 89.01-.133-.57" stroke-width="1.103"/><path d="m18.13 88.44-.137-.531" stroke-width="1.104"/><path d="m18 87.91-.184-.488" stroke-width="1.107"/><path d="m17.81 87.42-.133-.488" stroke-width="1.113"/><g stroke-width="1.116"><path d="m17.68 86.93-.184-.45M17.5 86.48l-.137-.367M17.36 86.12l-.137-.41"/></g><g stroke-width="1.117"><path d="m17.22 85.71-.133-.406M17.09 85.3l-.137-.367M16.95 84.93l-.09-.41"/></g><path d="m16.86 84.52-.094-.406M16.77 84.12l-.09-.41" stroke-width="1.118"/><g stroke-width="1.118"><path d="m16.68 83.71-.137-.488M16.54 83.22l-.09-.45M16.45 82.77l-.18-.531M16.27 82.24l-.137-.531M16.14 81.71l-.184-.527M15.95 81.18l-.18-.492"/></g><path d="m15.77 80.69-.18-.45M15.59 80.24l-.137-.406" stroke-width="1.119"/><path d="m15.46 79.83-.137-.41M15.32 79.42l-.137-.367" stroke-width="1.12"/><path d="m15.18 79.05-.137-.285" stroke-width="1.121"/><path d="m15.05 78.77-.137-.324M14.91 78.45l-.133-.328" stroke-width="1.122"/><path d="m14.78 78.12-.137-.324M14.64 77.79l-.184-.367" stroke-width="1.123"/><path d="m14.46 77.43-.133-.328M14.32 77.1l-.137-.367M14.19 76.73l-.184-.328" stroke-width="1.124"/><path d="m14 76.4-.18-.367M13.82 76.04l-.227-.367" stroke-width="1.125"/><path d="m13.6 75.67-.227-.406" stroke-width="1.131"/><path d="m13.37 75.26-.273-.41" stroke-width="1.132"/><path d="m13.1 74.85-.227-.406" stroke-width="1.133"/><path d="M12.87 74.45 12.6 74M12.6 74l-.23-.324" stroke-width="1.136"/><g stroke-width="1.137"><path d="m12.37 73.67-.18-.367M12.19 73.3l-.18-.246M12.01 73.06l-.184-.285"/></g><path d="m11.83 72.77-.137-.285M11.69 72.49l-.18-.29" stroke-width="1.136"/><path d="m11.51 72.2-.227-.324M11.28 71.88l-.227-.367" stroke-width="1.137"/><g stroke-width="1.137"><path d="m11.06 71.51-.184-.367M10.87 71.14l-.27-.285M10.6 70.86l-.227-.328M10.38 70.53l-.273-.324"/></g><path d="m10.1 70.2-.273-.328" stroke-width="1.138"/><path d="m9.83 69.88-.27-.367M9.56 69.51l-.273-.367" stroke-width="1.139"/><path d="m9.29 69.14-.363-.367" stroke-width="1.142"/><path d="m8.93 68.77-.363-.406" stroke-width="1.147"/><path d="m8.56 68.37-.36-.45M8.2 67.92l-.363-.41" stroke-width="1.149"/><path d="m7.84 67.51-.316-.367" stroke-width="1.152"/><path d="m7.52 67.14-.32-.324" stroke-width="1.153"/><path d="m7.2 66.82-.27-.29" stroke-width="1.154"/><path d="m6.93 66.53-.227-.203" stroke-width="1.155"/><path d="m6.71 66.32-.227-.203" stroke-width="1.158"/><path d="m6.48 66.12-.32-.328" stroke-width="1.164"/><path d="m6.16 65.79-.316-.445" stroke-width="1.165"/><path d="m5.84 65.35-.18-.246" stroke-width="1.166"/><path d="m5.66 65.1-.363-.367" stroke-width="1.167"/><path d="m5.3 64.73-.273-.328" stroke-width="1.168"/><path d="m5.03 64.41-.273-.367M4.75 64.04l-.227-.242" stroke-width="1.175"/><path d="m4.53 63.8-.406-.41" stroke-width="1.179"/><path d="m4.12 63.39-.273-.203" stroke-width="1.18"/><path d="m3.85 63.18-.363-.45M3.48 62.73l-.227-.203" stroke-width="1.184"/><path d="m3.26 62.53-.316-.45M2.94 62.08l-.316-.328" stroke-width="1.185"/><path d="m2.62 61.75-.316-.367" stroke-width="1.184"/><path d="m2.31 61.39-.273-.285" stroke-width="1.169"/><path d="m2.03 61.1-.227-.246" stroke-width="1.068"/><path d="m1.81 60.86-.273-.203" stroke-width=".779"/><path d="m1.53 60.65-.27-.203" stroke-width=".491"/><path d="m83.42 112.88-.227-.285" stroke-width=".652"/><path d="m83.19 112.6-.09-.45" stroke-width=".698"/><path d="M83.1 112.15v-.367" stroke-width=".724"/><path d="M83.1 111.78v-.367" stroke-width=".767"/><path d="M83.1 111.41v-.45" stroke-width=".817"/><path d="M83.1 110.96v-.45" stroke-width=".852"/><path d="M83.1 110.52v-.488" stroke-width=".869"/><path d="m83.1 110.03.043-.531" stroke-width=".881"/><path d="m83.15 109.5.047-.613" stroke-width=".896"/><path d="m83.19 108.88.09-.57" stroke-width=".901"/><path d="m83.28 108.31.047-.324M83.33 107.99l.09-.328M83.42 107.66l.047-.324" stroke-width=".905"/><path d="m83.47 107.34.09-.328" stroke-width=".906"/><path d="m83.56 107.01.043-.328" stroke-width=".909"/><path d="m83.6 106.68.047-.367" stroke-width=".91"/><path d="m83.65 106.31.047-.324" stroke-width=".913"/><path d="m83.69 105.99.043-.41M83.74 105.58l.09-.406" stroke-width=".914"/><path d="m83.83 105.17.047-.41" stroke-width=".915"/><path d="m83.87 104.76.047-.406M83.92 104.36l.043-.45M83.96 103.91l.047-.45" stroke-width=".916"/><path d="m84.01 103.46.043-.45M84.05 103.01l.047-.45" stroke-width=".917"/><path d="m84.1 102.56.047-.488M84.15 102.07v-.488" stroke-width=".918"/><path d="m84.15 101.58.043-.574" stroke-width=".919"/><path d="M84.19 101.01v-.527" stroke-width=".922"/><path d="m84.19 100.48-.043-.574" stroke-width=".925"/><path d="M84.15 99.91v-.527M84.15 99.38l-.047-.531" stroke-width=".926"/><path d="m84.1 98.85-.09-.492" stroke-width=".929"/><path d="m84.01 98.36-.047-.488M83.96 97.87l-.043-.488" stroke-width=".93"/><path d="M83.92 97.38v-.492" stroke-width=".935"/><path d="M83.92 96.89v-.488M83.92 96.4v-.45" stroke-width=".939"/><path d="M83.92 95.95v-.45" stroke-width=".94"/><path d="M83.92 95.5v-.406" stroke-width=".943"/><path d="M83.92 95.09v-.367" stroke-width=".944"/><path d="m83.92 94.73.043-.367M83.96 94.36l.09-.41" stroke-width=".945"/><path d="m84.05 93.95.094-.406" stroke-width=".946"/><path d="m84.15 93.54.09-.45" stroke-width=".949"/><path d="m84.24 93.09.09-.45" stroke-width=".95"/><path d="m84.33 92.64.09-.488M84.42 92.16l.094-.45M84.51 91.71l.09-.492" stroke-width=".951"/><path d="m84.6 91.21.09-.45M84.69 90.77l.09-.488M84.78 90.28l.09-.488" stroke-width=".953"/><path d="m84.87 89.79.094-.45M84.96 89.34l.133-.492" stroke-width=".954"/><path d="m85.1 88.85.094-.488M85.19 88.36l.09-.531" stroke-width=".955"/><path d="m85.28 87.83.137-.527" stroke-width=".956"/><g stroke-width=".957"><path d="m85.42 87.3.043-.613M85.46 86.69l.094-.613M85.55 86.07l.043-.613M85.6 85.46l.09-.57"/></g><path d="m85.69 84.89.094-.488M85.78 84.4l.09-.45" stroke-width=".958"/><path d="m85.87 83.95.09-.41" stroke-width=".959"/><path d="m85.96 83.54.09-.367M86.05 83.18l.09-.406" stroke-width=".96"/><path d="m86.14 82.77.094-.367" stroke-width=".961"/><path d="m86.23 82.4.09-.45M86.32 81.95l.18-.45" stroke-width=".962"/><path d="m86.5 81.5.184-.488M86.69 81.02l.18-.531M86.87 80.48l.184-.531" stroke-width=".964"/><path d="m87.05 79.95.18-.488" stroke-width=".965"/><g stroke-width=".965"><path d="m87.23 79.46.18-.45M87.41 79.02l.184-.45M87.59 78.57l.18-.406"/></g><path d="m87.77 78.16.137-.45M87.91 77.71l.137-.41M88.05 77.3l.137-.367" stroke-width=".966"/><g stroke-width=".967"><path d="m88.18 76.93.137-.367M88.32 76.57l.18-.367M88.5 76.2l.18-.367"/></g><path d="m88.68 75.83.273-.406M88.95 75.43l.227-.367" stroke-width=".964"/><path d="m89.18 75.06.137-.285" stroke-width=".965"/><path d="m89.32 74.77.18-.328M89.5 74.45l.137-.328M89.63 74.12l.137-.285M89.77 73.83l.137-.367M89.91 73.46l.18-.285M90.09 73.18l.184-.324M90.27 72.86l.133-.29M90.4 72.57l.23-.285M90.63 72.28l.133-.324" stroke-width=".966"/><g stroke-width=".962"><path d="m90.77 71.96.273-.367M91.04 71.59l.273-.41M91.31 71.18l.27-.324M91.58 70.86l.273-.328M91.85 70.53l.18-.242"/></g><path d="m92.03 70.29.273-.328M92.31 69.96l.18-.246" stroke-width=".962"/><path d="m92.49 69.71.227-.367" stroke-width=".961"/><path d="m92.71 69.34.227-.285" stroke-width=".958"/><path d="m92.94 69.06.273-.285" stroke-width=".949"/><path d="m93.21 68.77.316-.285" stroke-width=".944"/><path d="m93.53 68.49.41-.367" stroke-width=".937"/><path d="m93.94 68.12.406-.367" stroke-width=".933"/><path d="m94.35 67.75.453-.41" stroke-width=".929"/><g stroke-width=".925"><path d="m94.8 67.34.453-.367M95.25 66.98l.457-.324M95.71 66.65l.316-.285M96.03 66.37l.227-.246"/></g><path d="m96.25 66.12.316-.367M96.57 65.75l.363-.328" stroke-width=".927"/><path d="m96.93 65.43.453-.445" stroke-width=".91"/><path d="m97.39 64.98.227-.246" stroke-width=".898"/><path d="m97.61 64.73.363-.246" stroke-width=".889"/><path d="m97.98 64.49.363-.246" stroke-width=".885"/><path d="m98.34 64.24.316-.242" stroke-width=".874"/><path d="m98.66 64 .363-.203M99.02 63.8l.227-.207" stroke-width=".87"/><path d="m99.25 63.59.363-.324M99.61 63.27l.18-.285" stroke-width=".869"/><path d="m99.79 62.98.227-.367M100.01 62.61l.363-.328" stroke-width=".868"/><path d="m100.38 62.29.5-.367" stroke-width=".866"/><path d="m100.88 61.92.406-.246" stroke-width=".85"/><path d="m101.28 61.67.316-.242" stroke-width=".837"/><path d="m101.6 61.43.363-.207M101.96 61.22l.227-.203" stroke-width=".832"/><path d="m102.19 61.02.32-.324" stroke-width=".831"/><path d="m102.51 60.7.27-.285" stroke-width=".786"/><path d="m2.4 61.71-.047.367" stroke-width=".808"/><path d="m2.35 62.08.137.324" stroke-width=".817"/><path d="m2.49 62.41.184.41" stroke-width=".827"/><path d="m2.67 62.82.227.45" stroke-width=".838"/><path d="m2.9 63.27.27.367" stroke-width=".852"/><path d="m3.17 63.63.273.406" stroke-width=".871"/><path d="m3.44 64.04.27.41" stroke-width=".883"/><path d="m3.71 64.45.273.324" stroke-width=".89"/><path d="m3.98 64.77.227.367" stroke-width=".895"/><path d="m4.21 65.14.184.246" stroke-width=".899"/><path d="m4.39 65.39.406.406M4.8 65.79l.18.246" stroke-width=".903"/><path d="m4.98 66.04.41.488M5.39 66.53l.18.246" stroke-width=".905"/><path d="m5.57 66.77.273.203" stroke-width=".906"/><path d="m5.84 66.98.227.207M6.07 67.18l.18.242M6.25 67.43l.273.164M6.52 67.59l.363.328" stroke-width=".909"/><path d="m6.89 67.92.273.285" stroke-width=".91"/><path d="m7.16 68.2.363.324" stroke-width=".911"/><g stroke-width=".912"><path d="m7.52 68.53.27.164M7.79 68.69l.227.246M8.02 68.94l.273.203M8.29 69.14l.27.246M8.56 69.39l.32.285M8.88 69.67l.406.242"/></g><path d="m9.29 69.91.363.29" stroke-width=".912"/><path d="m9.65 70.2.406.242M10.06 70.45l.273.246M10.33 70.69l.316.121" stroke-width=".913"/><path d="m10.65 70.81.273.164M10.92 70.98l.273.164" stroke-width=".914"/><g stroke-width=".915"><path d="m11.19 71.14.496.324M11.69 71.46l.227.246M11.92 71.71l.5.367"/></g><path d="m12.42 72.08.316.203" stroke-width=".916"/><path d="m12.73 72.28.363.207M13.1 72.49l.316.242M13.41 72.73l.41.246" stroke-width=".917"/><path d="m13.82 72.98.406.246M14.23 73.22l.363.242M14.59 73.46l.273.207M14.87 73.67l.316.16" stroke-width=".918"/><path d="m15.18 73.83.273.164" stroke-width=".919"/><path d="m15.46 74 .543.246M16 74.24l.316.164" stroke-width=".918"/><g stroke-width=".917"><path d="m16.32 74.41.273.16M16.59 74.57l.363.207M16.95 74.77l.406.16M17.36 74.93l.363.125M17.72 75.06l.453.242M18.18 75.3l.41.164"/></g><path d="m18.59 75.46.453.203" stroke-width=".917"/><path d="m19.04 75.67.406.246M19.44 75.91l.363.121M19.81 76.04l.41.125M20.22 76.16l.27.164" stroke-width=".918"/><path d="m20.49 76.32.363.078M20.85 76.4l.363.164" stroke-width=".919"/><path d="m21.21 76.57.273.164" stroke-width=".92"/><path d="m21.49 76.73.406.121M21.89 76.85l.316.207" stroke-width=".921"/><g stroke-width=".922"><path d="m22.21 77.06.316.16M22.53 77.22l.363.164M22.89 77.38l.363.164M23.25 77.55l.41.082"/></g><g stroke-width=".922"><path d="m23.66 77.63.406.164M24.07 77.79l.363.16M24.43 77.95l.406.125M24.84 78.08l.457.16M25.3 78.24l.453.082"/></g><path d="m25.75 78.32.496.125" stroke-width=".925"/><path d="m26.25 78.45.59.164" stroke-width=".929"/><path d="m26.84 78.61.59.16" stroke-width=".933"/><path d="m27.43 78.77.59.125" stroke-width=".934"/><path d="m28.01 78.89.633.121" stroke-width=".938"/><path d="m28.65 79.02.547.082" stroke-width=".939"/><path d="m29.19 79.1.496.082" stroke-width=".943"/><path d="m29.69 79.18.41.121M30.1 79.3l.406.082" stroke-width=".944"/><path d="m30.51 79.38.59.203" stroke-width=".953"/><path d="m31.1 79.59.59.164" stroke-width=".96"/><path d="m31.69 79.75.363.082M32.05 79.83l.363.082" stroke-width=".964"/><path d="m32.41 79.91.5.082" stroke-width=".969"/><path d="m32.91 80 .453.082M33.37 80.08l.453.078" stroke-width=".97"/><path d="m33.82 80.16.496.082" stroke-width=".971"/><path d="m34.32 80.24.547.082" stroke-width=".974"/><path d="m34.86 80.32.543.082" stroke-width=".977"/><path d="m35.41 80.4.543.121" stroke-width=".978"/><path d="m35.95 80.52.547.082" stroke-width=".981"/><path d="m36.5 80.61.496.082" stroke-width=".982"/><path d="m36.99 80.69.5.125" stroke-width=".985"/><path d="m37.49 80.81.406.078" stroke-width=".99"/><path d="m37.9 80.89.41.082" stroke-width=".991"/><path d="m38.31 80.97.406.125" stroke-width=".996"/><path d="m38.71 81.1.363.082" stroke-width=".999"/><path d="m39.08 81.18.363.078"/><path d="m39.44 81.26.363.043" stroke-width="1.006"/><path d="m39.8 81.3.406.082" stroke-width="1.012"/><path d="m40.21 81.38.453.04" stroke-width="1.018"/><path d="m40.66 81.42.5.043" stroke-width="1.023"/><path d="m41.16 81.46.59.04" stroke-width="1.024"/><path d="m41.75 81.5.59.043" stroke-width="1.029"/><path d="m42.34 81.55.633.04" stroke-width="1.032"/><path d="M42.98 81.59h.68" stroke-width="1.037"/><path d="m43.66 81.59.684.043" stroke-width="1.038"/><path d="M44.34 81.63h.633M44.97 81.63h.637" stroke-width="1.042"/><path d="M45.61 81.63h.633" stroke-width="1.046"/><path d="m46.24 81.63.59-.043" stroke-width="1.049"/><path d="M46.83 81.59h.543" stroke-width="1.054"/><path d="M47.37 81.59h.547" stroke-width="1.058"/><path d="m47.92 81.59.543-.04" stroke-width="1.062"/><path d="m48.46 81.55.543-.043M49.01 81.5l.5-.04M49.51 81.46l.453-.043" stroke-width="1.066"/><path d="M49.96 81.42h.453" stroke-width="1.067"/><path d="M50.41 81.42h.406" stroke-width="1.07"/><path d="M50.82 81.42h.41" stroke-width="1.071"/><path d="M51.23 81.42h.316M51.55 81.42h.363" stroke-width="1.072"/><path d="M51.91 81.42h.316" stroke-width="1.076"/><path d="m52.23 81.42.363-.04" stroke-width="1.077"/><path d="M52.59 81.38H53M53 81.38l.406-.043" stroke-width="1.082"/><path d="m53.41 81.34.406-.04" stroke-width="1.086"/><path d="m53.81 81.3.457-.043" stroke-width="1.09"/><path d="m54.27 81.26.406-.04" stroke-width="1.097"/><path d="m54.68 81.22.453-.082" stroke-width="1.103"/><path d="m55.13 81.14.453-.082" stroke-width="1.109"/><path d="m55.58 81.05.5-.082" stroke-width="1.113"/><path d="m56.08 80.97.5-.121" stroke-width="1.114"/><g stroke-width="1.114"><path d="m56.58 80.85.543-.121M57.12 80.73l.59-.164M57.71 80.57l.59-.121"/></g><path d="m58.3 80.45.543-.082" stroke-width="1.115"/><path d="m58.85 80.36.543-.082" stroke-width="1.121"/><path d="m59.39 80.28.59-.082" stroke-width="1.122"/><path d="m59.98 80.2.543-.043" stroke-width="1.123"/><path d="m60.52 80.16.547-.078" stroke-width="1.126"/><path d="m61.07 80.08.543-.043" stroke-width="1.132"/><path d="m61.61 80.04.543-.082" stroke-width="1.137"/><path d="m62.16 79.95.5-.04" stroke-width="1.142"/><path d="m62.66 79.91.543-.082M63.2 79.83l.5-.082" stroke-width="1.147"/><path d="m63.7 79.75.453-.082" stroke-width="1.152"/><path d="m64.15 79.67.453-.082M64.6 79.59l.5-.082" stroke-width="1.153"/><path d="m65.1 79.5.453-.082M65.56 79.42l.496-.121" stroke-width="1.155"/><path d="m66.05 79.3.5-.121M66.55 79.18l.5-.082M67.05 79.1l.496-.121" stroke-width="1.156"/><path d="m67.55 78.98.457-.082" stroke-width="1.157"/><path d="m68.01 78.89.453-.082M68.46 78.81l.453-.125" stroke-width="1.158"/><path d="m68.91 78.69.496-.078" stroke-width="1.162"/><path d="m69.41 78.61.453-.125" stroke-width="1.165"/><path d="m69.86 78.48.5-.164" stroke-width="1.168"/><path d="m70.36 78.32.543-.203" stroke-width="1.174"/><path d="m70.91 78.12.59-.246" stroke-width="1.178"/><path d="m71.5 77.87.637-.285M72.13 77.59l.59-.285M72.72 77.3l.59-.242" stroke-width="1.182"/><path d="m73.31 77.06.496-.207M73.81 76.85l.5-.16M74.31 76.69l.453-.125M74.76 76.57l.406-.164" stroke-width="1.183"/><path d="m75.17 76.4.41-.121" stroke-width="1.184"/><path d="m75.58 76.28.406-.164M75.98 76.12l.41-.121M76.39 76l.453-.164" stroke-width="1.185"/><path d="m76.85 75.83.406-.164" stroke-width="1.186"/><path d="m77.25 75.67.453-.203M77.71 75.46l.363-.164M78.07 75.3l.32-.121" stroke-width="1.187"/><path d="m78.39 75.18.36-.121M78.75 75.06l.59-.246" stroke-width="1.188"/><g stroke-width="1.189"><path d="m79.34 74.81.5-.203M79.84 74.61l.406-.203M80.25 74.41l.41-.207M80.66 74.2l.5-.203"/></g><path d="m81.16 74 .453-.203M81.61 73.79l.453-.203" stroke-width="1.19"/><path d="m82.06 73.59.496-.246M82.56 73.34l.457-.246" stroke-width="1.192"/><path d="m83.01 73.1.406-.203M83.42 72.89l.363-.203" stroke-width="1.193"/><path d="m83.78 72.69.453-.203M84.24 72.49l.273-.164" stroke-width="1.194"/><g stroke-width="1.194"><path d="m84.51 72.32.27-.164M84.78 72.16l.273-.164M85.05 72l.316-.164"/></g><path d="m85.37 71.83.316-.16" stroke-width="1.195"/><path d="m85.69 71.67.547-.285" stroke-width="1.194"/><path d="m86.23 71.39.496-.246M86.73 71.14l.273-.203M87 70.94l.453-.328M87.46 70.61l.273-.203" stroke-width="1.195"/><g stroke-width="1.195"><path d="m87.73 70.41.363-.246M88.09 70.16l.27-.164M88.36 70l.41-.367M88.77 69.63l.227-.203M89 69.43l.27-.246M89.27 69.18l.273-.203"/></g><g stroke-width="1.195"><path d="m89.54 68.98.273-.242M89.82 68.73l.316-.246M90.13 68.49l.316-.246M90.45 68.24l.316-.203"/></g><path d="m90.77 68.04.273-.203M91.04 67.84l.316-.203" stroke-width="1.195"/><path d="m91.35 67.63.316-.164M91.67 67.47l.273-.207" stroke-width="1.196"/><g stroke-width="1.196"><path d="m91.94 67.26.273-.203M92.22 67.06l.316-.242M92.53 66.82l.273-.164M92.81 66.65l.316-.203M93.12 66.45l.273-.164"/></g><path d="m93.4 66.29.406-.285M93.8 66l.316-.328" stroke-width="1.198"/><path d="m94.12 65.67.273-.246M94.39 65.43l.227-.203" stroke-width="1.2"/><path d="m94.62 65.22.316-.203M94.94 65.02l.453-.328" stroke-width="1.199"/><path d="m95.39 64.69.273-.203M95.66 64.49l.273-.164M95.94 64.32l.406-.324" stroke-width="1.2"/><path d="m96.34 64 .316-.285" stroke-width="1.201"/><path d="m96.66 63.71.273-.285" stroke-width="1.203"/><path d="m96.93 63.43.227-.246" stroke-width="1.204"/><g stroke-width="1.204"><path d="m97.16 63.18.227-.203M97.39 62.98l.227-.246M97.61 62.73l.273-.246"/></g><path d="m97.89 62.49.27-.203M98.16 62.29l.273-.164" stroke-width="1.205"/><path d="m98.43 62.12.227-.203" stroke-width="1.206"/><path d="m98.66 61.92.363-.406M99.02 61.51l.273-.29" stroke-width="1.208"/><g stroke-width="1.209"><path d="m99.29 61.22.36-.406M99.65 60.82l.453-.45M100.1 60.37l.41-.406M100.51 59.96l.273-.207"/></g><path d="m100.79 59.75.316-.285" stroke-width="1.209"/><path d="m101.1 59.47.18-.285" stroke-width="1.21"/><path d="m101.28 59.18.227-.203M101.51 58.98l.184-.246M101.69 58.73l.137-.285" stroke-width="1.214"/><path d="m101.83 58.45.133-.367" stroke-width="1.189"/><path d="m101.96 58.08.137-.488" stroke-width="1.025"/><path d="M102.1 57.59v-.367" stroke-width=".651"/><path d="m3.44 61.71-.41-.164" stroke-width=".681"/><path d="m3.03 61.55-.406-.164" stroke-width=".731"/><path d="m2.62 61.39-.273-.242" stroke-width=".784"/><path d="m2.35 61.14-.227-.246" stroke-width=".823"/><path d="m2.12 60.9-.227-.246" stroke-width=".853"/><path d="m1.9 60.65-.227-.242M1.67 60.41 1.443 60" stroke-width=".873"/><path d="m1.44 60-.137-.367" stroke-width=".874"/><path d="m1.31 59.63-.137-.324" stroke-width=".879"/><path d="m1.17 59.31-.18-.41" stroke-width=".88"/><path d="m.99 58.9-.137-.488" stroke-width=".881"/><g stroke-width=".877"><path d="m.85 58.41-.09-.531M.77 57.88l-.09-.531M.68 57.35l-.09-.531"/></g><path d="m.59 56.82-.047-.531" stroke-width=".879"/><path d="m.54 56.29-.047-.488" stroke-width=".884"/><path d="m.49 55.8-.043-.57" stroke-width=".888"/><g stroke-width=".889"><path d="M.45 55.23v-.613M.45 54.61v-.367M.45 54.25v-.324"/></g><path d="M.45 53.92v-.328M.45 53.59v-.328M.45 53.27v-.527" stroke-width=".89"/><path d="M.45 52.74v-.574" stroke-width=".894"/><path d="M.45 52.16v-.324" stroke-width=".897"/><path d="M.45 51.84v-.367M.45 51.47v-.45" stroke-width=".902"/><path d="m.45 51.02.043-.41M.49 50.61l.047-.445M.54 50.17l.047-.45" stroke-width=".903"/><path d="m.59 49.72.043-.45" stroke-width=".904"/><path d="m.63 49.27.047-.45M.68 48.82l.043-.45" stroke-width=".905"/><path d="m.72 48.37.094-.41" stroke-width=".906"/><path d="m.81 47.96.043-.367M.85 47.59l.047-.324" stroke-width=".909"/><path d="m.9 47.27.043-.328" stroke-width=".911"/><path d="m.94 46.94.094-.61M1.04 46.33l.09-.367" stroke-width=".912"/><path d="m1.13 45.96.09-.328M1.22 45.64l.09-.45" stroke-width=".913"/><path d="m1.31 45.19.094-.45M1.4 44.74l.133-.45M1.53 44.29l.137-.45M1.67 43.84l.137-.406" stroke-width=".914"/><path d="m1.81 43.43.09-.406" stroke-width=".915"/><path d="m1.9 43.03.227-.613" stroke-width=".917"/><path d="m2.12 42.41.184-.492" stroke-width=".921"/><path d="m2.31 41.92.18-.527" stroke-width=".924"/><path d="m2.49 41.39.09-.328M2.58 41.07l.094-.367M2.67 40.7l.18-.406M2.85 40.29l.18-.45" stroke-width=".925"/><g stroke-width=".926"><path d="m3.03 39.84.137-.41M3.17 39.43l.184-.45M3.35 38.98l.09-.324M3.44 38.66l.137-.328"/></g><path d="m3.58 38.33.27-.45M3.85 37.88l.227-.45" stroke-width=".925"/><g stroke-width=".925"><path d="m4.07 37.43.32-.57M4.39 36.86l.18-.285M4.57 36.58l.273-.328M4.85 36.25l.227-.367"/></g><path d="m5.07 35.88.27-.367M5.34 35.52l.273-.367" stroke-width=".926"/><path d="m5.62 35.15.273-.367" stroke-width=".927"/><path d="m5.89 34.78.316-.367" stroke-width=".926"/><path d="m6.21 34.41.273-.324M6.48 34.09l.316-.285M6.8 33.8l.27-.246" stroke-width=".925"/><path d="m7.07 33.56.273-.246" stroke-width=".921"/><g stroke-width=".92"><path d="m7.34 33.31.227-.203M7.57 33.11l.273-.164M7.84 32.95l.316-.16M8.16 32.79l.316-.207"/></g><path d="m8.47 32.58.363-.203M8.84 32.38l.316-.246" stroke-width=".921"/><path d="m9.15 32.13.363-.203M9.51 31.93l.363-.242M9.88 31.68l.363-.246" stroke-width=".922"/><path d="m10.24 31.44.406-.164M10.65 31.27l.363-.203" stroke-width=".923"/><g stroke-width=".918"><path d="m11.01 31.07.363-.125M11.37 30.95l.41-.121M11.78 30.82l.406-.164M12.19 30.66l.453-.16M12.64 30.5l.453-.125"/></g><path d="m13.1 30.38.453-.203" stroke-width=".919"/><path d="m13.55 30.17.453-.203" stroke-width=".924"/><path d="m14 29.97.453-.164" stroke-width=".925"/><path d="m14.46 29.8.453-.164" stroke-width=".926"/><g stroke-width=".927"><path d="m14.91 29.64.41-.082M15.32 29.56l.363-.082M15.68 29.48l.406-.04"/></g><path d="m16.09 29.44.363-.082" stroke-width=".926"/><path d="m16.45 29.36.363-.04M16.82 29.32l.363-.082M17.18 29.23l.363-.043M17.54 29.19l.363-.04M17.91 29.15l.36-.082" stroke-width=".925"/><path d="m18.27 29.07.41-.082" stroke-width=".926"/><path d="m18.68 28.99.406-.082" stroke-width=".927"/><path d="m19.08 28.91.453-.082" stroke-width=".934"/><path d="m19.53 28.82.5-.121" stroke-width=".935"/><path d="m20.03 28.7.5-.164M20.53 28.54l.496-.121" stroke-width=".94"/><path d="m21.03 28.42.5-.125M21.53 28.29l.543-.121" stroke-width=".938"/><g stroke-width=".939"><path d="m22.07 28.17.547-.082M22.62 28.09l.543-.082M23.16 28.01l.5-.121"/></g><g stroke-width=".942"><path d="m23.66 27.89.496-.121M24.16 27.77l.363-.082M24.52 27.68l.41-.082"/></g><path d="m24.93 27.6.316-.043" stroke-width=".945"/><path d="M25.25 27.56h.316M25.57 27.56h.316M25.88 27.56l.32-.04" stroke-width=".946"/><path d="M26.2 27.52h.406" stroke-width=".954"/><path d="m26.61 27.52.453-.04" stroke-width=".966"/><path d="m27.06 27.48.543-.082" stroke-width=".972"/><path d="m27.6 27.4.547-.082" stroke-width=".977"/><path d="m28.15 27.32.59-.082" stroke-width=".978"/><path d="m28.74 27.23.633-.082" stroke-width=".983"/><path d="m29.37 27.15.637-.121" stroke-width=".987"/><path d="m30.01 27.03.59-.125M30.6 26.91l.586-.082M31.19 26.82l.5-.078" stroke-width=".988"/><path d="m31.69 26.75.453-.082M32.14 26.66l.41-.043" stroke-width=".99"/><path d="m32.55 26.62.406-.082M32.96 26.54l.41-.082" stroke-width=".991"/><path d="m33.37 26.46.316-.04" stroke-width=".992"/><path d="m33.68 26.42.363-.04M34.05 26.38l.543-.043" stroke-width=".993"/><path d="M34.59 26.34h.316" stroke-width=".994"/><path d="m34.91 26.34.32-.04M35.23 26.3h.36" stroke-width=".995"/><path d="m35.59 26.3.363-.043M35.95 26.25l.316-.04" stroke-width=".996"/><path d="m36.27 26.21.363-.043" stroke-width=".997"/><path d="M36.63 26.17h.547" stroke-width=".998"/><path d="M37.18 26.17h.496" stroke-width=".997"/><g stroke-width=".997"><path d="m37.67 26.17.59-.04M38.26 26.13h.316M38.58 26.13l.32-.043"/></g><g stroke-width=".997"><path d="m38.9 26.09.316-.04M39.21 26.05l.316-.04M39.53 26.01l.543-.043"/></g><path d="M40.07 25.97h.547M40.62 25.97h.496" stroke-width=".998"/><path d="M41.12 25.97h.5M41.62 25.97h.316" stroke-width=".999"/><path d="M41.93 25.97h.363"/><path d="M42.3 25.97h.453" stroke-width="1.003"/><path d="M42.75 25.97h.453M43.2 25.97h.5M43.7 25.97h.543" stroke-width="1.007"/><g stroke-width="1.012"><path d="m44.25 25.97.547-.04M44.79 25.93h.453M45.25 25.93h.363"/></g><path d="M45.61 25.93h.36" stroke-width="1.012"/><path d="M45.97 25.93h.547" stroke-width="1.014"/><path d="M46.51 25.93h.543" stroke-width="1.018"/><path d="M47.06 25.93h.543M47.6 25.93h.32M47.92 25.93l.586.121" stroke-width="1.019"/><path d="m48.51 26.05.637.164" stroke-width="1.028"/><path d="m101.87 57.8.41-.203" stroke-width=".783"/><path d="m102.28 57.59.27-.328" stroke-width=".82"/><path d="m102.55 57.27.273-.45" stroke-width=".85"/><path d="m102.83 56.82.273-.324" stroke-width=".855"/><path d="m103.1 56.49.27-.246" stroke-width=".86"/><path d="m103.37 56.25.227-.246" stroke-width=".866"/><path d="m103.6 56 .184-.324" stroke-width=".896"/><path d="m103.78 55.68.18-.45" stroke-width=".918"/><path d="m103.96 55.23.137-.367" stroke-width=".919"/><path d="m104.1 54.86.137-.328M104.23 54.53l.137-.367" stroke-width=".924"/><path d="m104.37 54.16.133-.367" stroke-width=".925"/><path d="m104.5 53.8.137-.324" stroke-width=".928"/><path d="m104.64 53.47.09-.328" stroke-width=".929"/><path d="m104.73 53.14.184-.57" stroke-width=".937"/><path d="m104.91 52.57.043-.328" stroke-width=".94"/><path d="m104.96 52.25.047-.57" stroke-width=".954"/><path d="M105 51.68v-.324" stroke-width=".96"/><path d="M105 51.35v-.367" stroke-width=".965"/><path d="m105 50.98-.047-.41M104.96 50.57v-.367M104.96 50.21l-.043-.406" stroke-width=".969"/><path d="m104.91 49.8-.09-.41M104.82 49.39l-.047-.406M104.78 48.98l-.09-.41" stroke-width=".97"/><path d="m104.69 48.57-.09-.367M104.6 48.21l-.094-.367M104.5 47.84l-.09-.367" stroke-width=".971"/><path d="m104.41 47.47-.09-.367M104.32 47.11l-.137-.367M104.19 46.74l-.09-.367" stroke-width=".972"/><path d="m104.1 46.37-.137-.406M103.96 45.96l-.137-.41" stroke-width=".976"/><path d="m103.82 45.55-.227-.45M103.6 45.11l-.18-.406" stroke-width=".977"/><path d="m103.42 44.7-.227-.41M103.19 44.29l-.273-.367" stroke-width=".981"/><g stroke-width=".981"><path d="m102.92 43.92-.18-.324M102.74 43.6l-.273-.246M102.46 43.35l-.227-.324M102.24 43.03l-.273-.29M101.96 42.74l-.27-.285"/></g><path d="m101.69 42.45-.273-.285" stroke-width=".982"/><g stroke-width=".985"><path d="m101.42 42.17-.316-.285M101.1 41.88l-.273-.285M100.83 41.6l-.316-.328M100.51 41.27l-.316-.367"/></g><path d="m100.2 40.9-.273-.367" stroke-width=".986"/><path d="m99.93 40.54-.363-.367M99.56 40.17l-.316-.367" stroke-width=".987"/><path d="m99.25 39.8-.316-.324" stroke-width=".988"/><path d="m98.93 39.48-.363-.328" stroke-width=".993"/><path d="m98.57 39.15-.316-.285" stroke-width="1.004"/><path d="m98.25 38.86-.32-.164" stroke-width="1.012"/><path d="m97.93 38.7-.316-.203" stroke-width="1.021"/><path d="m97.61 38.5-.273-.203" stroke-width="1.027"/><path d="m97.34 38.29-.27-.164" stroke-width="1.028"/><path d="m97.07 38.13-.227-.203" stroke-width="1.032"/><path d="m96.84 37.93-.273-.246" stroke-width="1.036"/><g stroke-width="1.04"><path d="m96.57 37.68-.273-.164M96.3 37.52l-.316-.285M95.98 37.23l-.316-.324"/></g><path d="m95.66 36.91-.363-.29M95.3 36.62l-.363-.367" stroke-width="1.041"/><path d="m94.94 36.25-.316-.285" stroke-width="1.045"/><path d="m94.62 35.96-.273-.285" stroke-width="1.046"/><path d="m94.35 35.68-.227-.203" stroke-width="1.054"/><path d="m94.12 35.48-.316-.367" stroke-width="1.06"/><path d="m93.8 35.11-.316-.164" stroke-width="1.064"/><path d="m93.49 34.95-.41-.242" stroke-width="1.065"/><path d="m93.08 34.7-.27-.164" stroke-width="1.07"/><path d="m92.81 34.54-.273-.246" stroke-width="1.073"/><g stroke-width="1.074"><path d="m92.53 34.29-.273-.203M92.26 34.09l-.316-.246M91.94 33.84l-.363-.324"/></g><path d="m91.58 33.52-.363-.246M91.22 33.27l-.316-.285M90.9 32.99l-.316-.246" stroke-width="1.075"/><path d="m90.59 32.74-.273-.203" stroke-width="1.078"/><path d="m90.31 32.54-.496-.328" stroke-width="1.082"/><g stroke-width="1.087"><path d="m89.82 32.21-.5-.324M89.32 31.89l-.227-.203M89.09 31.68l-.273-.164"/></g><path d="m88.82 31.52-.316-.164M88.5 31.36l-.273-.203" stroke-width="1.087"/><path d="m88.23 31.15-.363-.125M87.86 31.03l-.36-.16M87.5 30.87l-.363-.207" stroke-width="1.091"/><path d="m87.14 30.66-.363-.121" stroke-width="1.094"/><path d="m86.78 30.54-.41-.203" stroke-width="1.095"/><path d="m86.37 30.34-.36-.164" stroke-width="1.1"/><path d="m86.01 30.17-.41-.164" stroke-width="1.107"/><path d="m85.6 30.01-.406-.164" stroke-width="1.111"/><path d="m85.19 29.84-.41-.121" stroke-width="1.115"/><path d="m84.78 29.72-.496-.164M84.28 29.56l-.457-.203M83.83 29.36l-.453-.164" stroke-width="1.118"/><path d="m83.37 29.19-.496-.16" stroke-width="1.127"/><path d="m82.88 29.03-.453-.207" stroke-width="1.132"/><path d="m82.43 28.82-.453-.121" stroke-width="1.136"/><path d="m81.97 28.7-.41-.121" stroke-width="1.137"/><path d="m81.56 28.58-.363-.125" stroke-width="1.145"/><path d="m81.2 28.46-.406-.082M80.79 28.38l-.363-.082" stroke-width="1.155"/><path d="m80.43 28.29-.363-.078" stroke-width="1.158"/><path d="m80.07 28.21-.363-.082M79.7 28.13l-.406-.082" stroke-width="1.159"/><path d="m79.3 28.05-.363-.082" stroke-width="1.16"/><path d="m78.93 27.97-.363-.043" stroke-width="1.161"/><path d="m78.57 27.93-.316-.078" stroke-width="1.162"/><path d="m78.25 27.85-.363-.082M77.89 27.77l-.316-.082" stroke-width="1.165"/><path d="m77.57 27.68-.363-.082" stroke-width="1.172"/><path d="m77.21 27.6-.41-.043" stroke-width="1.178"/><path d="m76.8 27.56-.453-.078" stroke-width="1.182"/><path d="m76.35 27.48-.453-.043M75.89 27.44l-.453-.04M75.44 27.4l-.453-.082" stroke-width="1.185"/><path d="m74.99 27.32-.453-.043M74.53 27.27l-.453-.04" stroke-width="1.187"/><path d="m74.08 27.23-.453-.043" stroke-width="1.188"/><path d="m73.63 27.19-.453-.04" stroke-width="1.189"/><path d="m73.18 27.15-.453-.04" stroke-width="1.19"/><path d="m72.72 27.11-.453-.082M72.27 27.03l-.41-.043" stroke-width="1.194"/><path d="m71.86 26.99-.363-.04" stroke-width="1.195"/><path d="m71.5 26.95-.406-.043" stroke-width="1.198"/><path d="m71.09 26.91-.41-.04M70.68 26.87l-.453-.043" stroke-width="1.199"/><path d="m70.23 26.82-.496-.04M69.73 26.79h-.547" stroke-width="1.2"/><g stroke-width="1.201"><path d="m69.18 26.79-.59-.04M68.59 26.75l-.586-.043M68.01 26.7l-.59-.082"/></g><path d="m67.42 26.62-.547-.04" stroke-width="1.201"/><path d="m66.87 26.58-.496-.043M66.37 26.54l-.453-.082" stroke-width="1.202"/><path d="m65.92 26.46-.453-.04M65.47 26.42l-.41-.04" stroke-width="1.203"/><path d="M65.06 26.38h-.406M64.65 26.38h-.41" stroke-width="1.204"/><path d="m64.24 26.38-.406-.043" stroke-width="1.205"/><g stroke-width="1.205"><path d="M63.84 26.34h-.453M63.38 26.34l-.5-.04M62.88 26.3l-.5-.082"/></g><path d="m62.38 26.21-.453-.082" stroke-width="1.206"/><path d="m61.93 26.13-.363-.043" stroke-width="1.209"/><path d="m61.57 26.09-.316-.04M61.25 26.05l-.406-.04" stroke-width="1.21"/><path d="M60.84 26.01h-.32" stroke-width="1.211"/><path d="M60.52 26.01h-.406M60.12 26.01l-.41-.043" stroke-width="1.212"/><path d="m59.71 25.97-.543-.04M59.16 25.93l-.59-.082" stroke-width="1.213"/><path d="M58.57 25.85h-.543" stroke-width="1.214"/><path d="m58.03 25.85-.453-.043" stroke-width="1.215"/><path d="m57.58 25.8-.316-.082M57.26 25.72h-.41" stroke-width="1.216"/><g stroke-width="1.216"><path d="m56.85 25.72-.453-.04M56.4 25.68h-.406M55.99 25.68h-.32M55.67 25.68h-.36M55.31 25.68l-.363.04"/></g><path d="m54.95 25.72-.32.043" stroke-width="1.216"/><g stroke-width="1.215"><path d="m54.63 25.77-.36.04M54.27 25.8l-.5.082M53.77 25.89l-.41.164"/></g><path d="m53.36 26.05-.496.082" stroke-width="1.216"/><path d="M52.86 26.13h-.5M52.36 26.13l-.543.121" stroke-width="1.217"/><path d="m49.14 26.5-.227-.328" stroke-width=".563"/><path d="M48.92 26.17h.453" stroke-width=".851"/><path d="M49.37 26.17h.406" stroke-width=".884"/><path d="M49.78 26.17h.363" stroke-width=".902"/><path d="M50.14 26.17h.32" stroke-width=".912"/><path d="m50.46 26.17.36.082" stroke-width=".924"/><path d="m50.82 26.25.453-.04" stroke-width=".939"/><path d="m51.27 26.21.32-.043" stroke-width=".95"/><path d="M51.59 26.17h.316" stroke-width=".956"/><path d="m51.91 26.17.316-.082" stroke-width=".958"/><path d="m52.23 26.09.41-.04" stroke-width=".97"/></g><g stroke="#ff7f00"><path d="m55.69 54.86 4.89-2.07" stroke-width="1.199"/><path d="m63.38 54.33.133-.285" stroke-width="1.175"/><path d="m63.51 54.04.453-.488" stroke-width="1.215"/><path d="m63.97 53.55.273-.367" stroke-width="1.226"/><path d="m64.24 53.19.316-.41" stroke-width="1.238"/><path d="m64.56 52.78.273-.406" stroke-width="1.252"/><path d="m64.83 52.37.227-.367" stroke-width="1.267"/><path d="m65.06 52 .18-.285" stroke-width="1.279"/><path d="m65.24 51.72.184-.41" stroke-width="1.298"/><path d="m65.42 51.31.09.328" stroke-width="1.335"/><path d="M65.51 51.64v.324" stroke-width="1.339"/><path d="M65.51 51.96v.41" stroke-width="1.345"/><path d="M65.51 52.37v.488" stroke-width="1.352"/><path d="M65.51 52.86v.57M65.51 53.43v.574" stroke-width="1.357"/><path d="M65.51 54v.527" stroke-width="1.358"/><path d="M65.51 54.53v.492M65.51 55.02v.324" stroke-width="1.361"/><path d="m65.51 55.35.137.531" stroke-width="1.36"/><path d="m65.65 55.88.137.328" stroke-width="1.341"/><path d="m65.78 56.21.137.367" stroke-width="1.239"/><path d="m65.92 56.57.133.57" stroke-width=".978"/><path d="m66.05 57.14.047.488" stroke-width=".558"/><path d="M32.46 43.19V10.67" stroke-width="1.255"/><path d="m29.56 14.01-.094-.367" stroke-width=".957"/><path d="m29.46 13.64.32-.527" stroke-width="1.027"/><path d="m29.78 13.12.227-.328" stroke-width="1.056"/><path d="m30.01 12.79.227-.328" stroke-width="1.08"/><path d="m30.24 12.46.18-.285" stroke-width="1.101"/><path d="m30.42 12.18.184-.285" stroke-width="1.118"/><path d="m30.6 11.89.36-.406" stroke-width="1.142"/><path d="m30.96 11.48.363-.45" stroke-width="1.151"/><path d="m31.32 11.04.32-.45" stroke-width="1.152"/><path d="m31.64 10.59.27-.367" stroke-width="1.15"/><path d="m31.91 10.22.227-.246" stroke-width="1.146"/><path d="m32.14 9.97.363-.242" stroke-width="1.147"/><path d="m32.5 9.73.363.16" stroke-width="1.11"/><path d="m32.87 9.89.453.41" stroke-width="1.137"/><path d="m33.32 10.3.316.324" stroke-width="1.152"/><path d="m33.64 10.62.273.246" stroke-width="1.163"/><path d="m33.91 10.87.273.367" stroke-width="1.167"/><path d="m34.18 11.24.27.246" stroke-width="1.177"/><path d="m34.45 11.48.227.242" stroke-width="1.178"/><path d="m34.68 11.73.184.29" stroke-width="1.184"/><path d="m34.86 12.02.316.406" stroke-width="1.187"/><path d="m35.18 12.42.227.285" stroke-width="1.197"/><path d="m35.41 12.71.227.203" stroke-width="1.201"/><path d="m35.63 12.91.137.367" stroke-width="1.217"/><path d="m35.77 13.28.18.246" stroke-width=".98"/><path d="m39.12 1.36-.273.246" stroke-width="1.07"/><path d="m38.85 1.61-.09.367" stroke-width="1.099"/><path d="m38.76 1.98-.047.488" stroke-width="1.147"/><path d="m38.71 2.46-.09.777" stroke-width="1.187"/><path d="m38.62 3.24-.137.938" stroke-width="1.214"/><path d="m38.49 4.18-.137 1.14" stroke-width="1.229"/><path d="m38.35 5.32-.09 1.184M38.26 6.5v1.02" stroke-width="1.239"/><path d="M38.26 7.52v.898" stroke-width="1.238"/><path d="m38.26 8.42.184.652M38.44 9.07l.227.531" stroke-width="1.237"/><path d="m38.67 9.61.27.41" stroke-width="1.236"/><path d="m38.94 10.02.32.285" stroke-width="1.232"/><path d="m39.26 10.3.27.285" stroke-width="1.214"/><path d="m39.53 10.59.316.203" stroke-width="1.173"/><path d="m39.85 10.79.32.164" stroke-width="1.083"/><path d="m40.17 10.95.406.164" stroke-width=".923"/><path d="m40.57 11.12.5-.082" stroke-width=".579"/><path d="m45.29 3.24-.363.121" stroke-width="1.057"/><path d="M44.93 3.36h-.406" stroke-width="1.161"/><path d="m44.52 3.36-.316.164" stroke-width="1.185"/><path d="m44.2 3.53-.32.531" stroke-width="1.194"/><g stroke-width="1.194"><path d="m43.88 4.06-.18.488M43.7 4.55l-.227.531M43.48 5.08l-.18.652"/></g><path d="m43.3 5.73-.094.691" stroke-width="1.194"/><path d="M43.2 6.42v.613" stroke-width="1.185"/><path d="M43.2 7.04v.613" stroke-width="1.174"/><path d="m43.2 7.65.184.488" stroke-width="1.171"/><path d="m43.39 8.14.18.367" stroke-width="1.167"/><path d="m43.57 8.5.273.328M43.84 8.83l.273.203" stroke-width="1.163"/><path d="m44.11 9.04.453.203" stroke-width="1.159"/><path d="m44.57 9.24.453-.04" stroke-width="1.168"/><path d="m45.02 9.2.496-.285" stroke-width="1.187"/><path d="m45.51 8.91.32-.328" stroke-width="1.194"/><path d="m45.84 8.59.316-.406" stroke-width="1.199"/><path d="m46.15 8.18.27-.492" stroke-width="1.202"/><path d="m46.42 7.69.23-.45" stroke-width="1.203"/><path d="m46.65 7.24.18-.488M46.83 6.75l.137-.45" stroke-width="1.211"/><g stroke-width="1.21"><path d="m46.97 6.3.09-.531M47.06 5.77l.09-.488M47.15 5.28l.047-.488"/></g><path d="m47.19 4.79.043-.367" stroke-width="1.21"/><path d="m47.24 4.43-.043-.367" stroke-width="1.206"/><path d="m47.19 4.06-.227-.45" stroke-width="1.19"/><path d="m46.97 3.61-.453-.207" stroke-width="1.102"/><path d="m46.51 3.4-.363.082" stroke-width=".995"/><path d="m46.15 3.48-.316.246" stroke-width=".847"/><path d="m45.84 3.73-.363.45" stroke-width=".643"/><path d="m45.47 4.18-.184.305" stroke-width=".46"/><path d="m45.29 4.48-.18.309" stroke-width=".278"/><path d="m50.29 14.02.328-2.129" stroke-width=".854"/><path d="m54.54 4.5-.137-.285" stroke-width=".93"/><path d="m54.4 4.22-.363-.121" stroke-width="1.157"/><path d="m54.04 4.1-.316.164" stroke-width="1.197"/><path d="m53.72 4.26-.227.57M53.5 4.83l-.137.531" stroke-width="1.199"/><path d="m53.36 5.36-.09.652M53.27 6.02l-.043.734" stroke-width="1.202"/><path d="m53.23 6.75-.047.773" stroke-width="1.193"/><path d="m53.18 7.52.137.734M53.32 8.26l.137.574" stroke-width="1.189"/><path d="m53.45 8.83.27.406M53.72 9.24l.273.328" stroke-width="1.184"/><path d="m54 9.57.273.203M54.27 9.77l.316.121" stroke-width="1.178"/><path d="m54.59 9.89.59.082" stroke-width="1.183"/><path d="m55.18 9.97.59-.285" stroke-width="1.206"/><path d="m55.77 9.69.316-.324" stroke-width="1.216"/><path d="m56.08 9.36.27-.41" stroke-width="1.223"/><path d="m56.35 8.95.23-.488" stroke-width="1.229"/><path d="m56.58 8.46.18-.574" stroke-width="1.235"/><path d="m56.76 7.89.137-.527" stroke-width="1.237"/><path d="m56.9 7.36.09-.613M56.99 6.75l.047-.613M57.03 6.14v-.652M57.03 5.48v-.613" stroke-width="1.238"/><path d="m57.03 4.87-.094-.57M56.94 4.3l-.18-.45M56.76 3.85l-.18-.324" stroke-width="1.242"/><path d="m56.58 3.53-.273-.207" stroke-width="1.239"/><path d="m56.31 3.32-.543-.16" stroke-width="1.198"/><path d="m55.77 3.16-.32-.043" stroke-width="1.14"/><path d="m55.44 3.12-.543.125" stroke-width=".867"/><path d="m54.9 3.24-.227.324" stroke-width=".537"/><path d="M60.93 13.12v-2.652" stroke-width=".731"/><path d="m64.15 5.89.406-.41" stroke-width="1.118"/><path d="m64.56 5.48.32-.531" stroke-width="1.181"/><path d="m64.88 4.95.18-.324" stroke-width="1.199"/><path d="m65.06 4.63.227-.613" stroke-width="1.212"/><path d="m65.28 4.02.227-.324" stroke-width="1.215"/><path d="m65.51 3.69.184.527" stroke-width="1.159"/><path d="m65.69 4.22.043.492" stroke-width="1.171"/><path d="m65.74 4.71.09.652" stroke-width="1.181"/><path d="m65.83 5.36.094.691" stroke-width="1.187"/><path d="m65.92 6.05.09.656" stroke-width="1.19"/><path d="m66.01 6.71.09.652" stroke-width="1.191"/><path d="m66.1 7.36.09.57M66.19 7.93l.09.488" stroke-width="1.19"/><path d="m66.28 8.42.094.367" stroke-width="1.162"/><path d="m66.37 8.79.18.246" stroke-width="1.088"/><path d="m66.55 9.04.5.203" stroke-width=".558"/><path d="m69 .55.18.45" stroke-width="1.093"/><path d="m69.18 1 .227.367" stroke-width="1.142"/><path d="m69.41 1.36.32.531" stroke-width="1.181"/><path d="m69.73 1.89.406.613" stroke-width="1.21"/><path d="m70.14 2.51.316.734" stroke-width="1.236"/><path d="m70.45 3.24.32.895" stroke-width="1.258"/><path d="m70.77 4.14.27.941" stroke-width="1.271"/><path d="m71.04 5.08.227 1.02M71.27 6.1l.137 1.102M71.41 7.2l.047 1.14" stroke-width="1.279"/><path d="M71.45 8.34v1.184" stroke-width="1.267"/><path d="m71.45 9.52-.137 1.227" stroke-width="1.224"/><path d="m71.32 10.75-.137 1.223" stroke-width="1.13"/><path d="m71.18 11.97-.453 1.633" stroke-width=".858"/><path d="M54.71 131.12v14.359" stroke-width="1.119"/><path d="m53.5 143.32-.27-.164" stroke-width=".949"/><path d="m53.23 143.16-.184.328" stroke-width="1.313"/><path d="m53.04 143.49.273.45" stroke-width="1.314"/><path d="m53.32 143.94.18.285M53.5 144.22l.184.285" stroke-width="1.319"/><path d="m53.68 144.51.27.285M53.95 144.79l.273.488" stroke-width="1.322"/><path d="m54.22 145.28.227.246" stroke-width="1.323"/><path d="m54.45 145.53.18.367" stroke-width="1.322"/><path d="m54.63 145.89.363-.367" stroke-width="1.317"/><path d="m54.99 145.53.32-.45" stroke-width="1.327"/><path d="m55.31 145.08.18-.367" stroke-width="1.33"/><path d="m55.49 144.71.273-.324" stroke-width="1.331"/><g stroke-width="1.334"><path d="m55.77 144.39.18-.367M55.94 144.02l.18-.328M56.12 143.69l.184-.285"/></g><path d="m56.31 143.41.18-.246M56.49 143.16l.184-.242" stroke-width="1.335"/><path d="m56.67 142.92.27-.367" stroke-width="1.336"/><path d="m56.94 142.55.227-.29" stroke-width="1.341"/><path d="m57.17 142.26.32-.285" stroke-width=".36"/><path d="m59.62 145.24-.227.203" stroke-width="1.344"/><path d="m59.39 145.45-.09.367" stroke-width="1.357"/><path d="m59.3 145.81-.047.367" stroke-width="1.364"/><path d="m59.25 146.18-.043.531" stroke-width="1.365"/><path d="m59.21 146.71-.047.695" stroke-width="1.373"/><path d="m59.16 147.41-.09.773M59.07 148.18l-.047.816" stroke-width="1.376"/><path d="M59.03 149v.734" stroke-width="1.377"/><g stroke-width="1.378"><path d="m59.03 149.73.047.695M59.07 150.43l.09.57M59.16 151l.137.488"/></g><path d="m59.3 151.48.227.367" stroke-width="1.377"/><path d="m59.53 151.85.18.328" stroke-width="1.358"/><path d="m59.71 152.18.227.203" stroke-width="1.315"/><path d="m59.93 152.38.547.246" stroke-width="1.184"/><path d="m60.48 152.63.316.04" stroke-width="1.077"/><path d="m60.8 152.67.316.043" stroke-width=".877"/><path d="m61.11 152.71.547-.125" stroke-width=".428"/><path d="m65.87 147-.273-.164" stroke-width="1.045"/><path d="m65.6 146.83-.363-.04" stroke-width="1.209"/><path d="m65.24 146.79-.496.121M64.74 146.91l-.227.45" stroke-width="1.282"/><path d="m64.51 147.36-.137.41M64.38 147.77l-.09.488" stroke-width="1.278"/><path d="m64.29 148.26-.09.57" stroke-width="1.277"/><path d="m64.2 148.83-.047.531" stroke-width="1.269"/><path d="m64.15 149.36.137.531M64.29 149.89l.137.488" stroke-width="1.268"/><path d="m64.43 150.38.27.367" stroke-width="1.262"/><path d="m64.69 150.75.273.328" stroke-width="1.257"/><path d="m64.97 151.08.316.203" stroke-width="1.251"/><path d="m65.28 151.28.543.246" stroke-width="1.228"/><path d="m65.83 151.53.547-.164" stroke-width="1.231"/><path d="m66.37 151.36.27-.203" stroke-width="1.242"/><path d="m66.64 151.16.273-.328M66.92 150.83l.273-.488" stroke-width="1.247"/><path d="m67.19 150.34.18-.531M67.37 149.81l.137-.613M67.51 149.2l.043-.61M67.55 148.59v-.613M67.55 147.98l-.043-.57" stroke-width="1.248"/><path d="m67.51 147.41-.184-.531" stroke-width="1.247"/><path d="m67.32 146.88-.227-.492" stroke-width="1.241"/><path d="m67.1 146.38-.316-.324M66.78 146.06l-.363-.246" stroke-width="1.236"/><path d="m66.42 145.81-.316-.121" stroke-width="1.223"/><path d="M66.1 145.69h-.316" stroke-width="1.185"/><path d="m65.78 145.69-.316.121" stroke-width="1.115"/><path d="m65.47 145.81-.273.246" stroke-width="1.027"/><path d="m65.19 146.06-.227.406" stroke-width=".886"/><path d="m64.97 146.46-.184.531" stroke-width=".611"/><path d="m64.78 147-.043.387" stroke-width=".392"/><path d="m64.74 147.38-.047.39" stroke-width=".173"/><path d="m71.12 154.57.98-3.258" stroke-width=".862"/><path d="m75.85 146.75-.273-.285" stroke-width="1.032"/><path d="m75.58 146.46-.41-.16" stroke-width="1.184"/><path d="m75.17 146.3-.453-.043" stroke-width="1.272"/><path d="m74.71 146.26-.133.328M74.58 146.59l-.047.324" stroke-width="1.267"/><path d="m74.53 146.91-.047.492M74.49 147.41v.57" stroke-width="1.268"/><path d="M74.49 147.98v.652" stroke-width="1.264"/><path d="m74.49 148.63.094.613M74.58 149.24l.18.527" stroke-width="1.261"/><path d="m74.76 149.77.18.41" stroke-width="1.254"/><path d="m74.94 150.18.273.285" stroke-width="1.246"/><path d="m75.21 150.46.273.164" stroke-width="1.241"/><path d="m75.49 150.63.453.121" stroke-width="1.224"/><path d="M75.94 150.75h.406" stroke-width="1.228"/><path d="m76.35 150.75.363-.285" stroke-width="1.24"/><path d="m76.71 150.46.184-.246" stroke-width="1.245"/><path d="m76.89 150.22.18-.367" stroke-width="1.246"/><g stroke-width="1.251"><path d="m77.07 149.85.18-.406M77.25 149.45l.137-.45M77.39 149l.137-.45M77.53 148.55v-.45"/></g><path d="m77.53 148.1.047-.45" stroke-width="1.246"/><path d="M77.57 147.65v-.406" stroke-width="1.243"/><path d="m77.57 147.24-.047-.328" stroke-width="1.24"/><path d="m77.53 146.91-.09-.324" stroke-width="1.239"/><path d="m77.44 146.59-.41-.41M77.03 146.18l-.27-.164" stroke-width="1.234"/><path d="m76.76 146.02-.363-.04" stroke-width="1.233"/><path d="m76.39 145.98-.363-.04" stroke-width="1.228"/><path d="M76.03 145.94h-.316" stroke-width="1.224"/><path d="m75.71 145.94-.363.16" stroke-width="1.203"/><path d="m75.35 146.1-.273.207" stroke-width="1.15"/><path d="m75.08 146.3-.18.285" stroke-width="1.079"/><path d="m74.9 146.59-.227.367" stroke-width=".956"/><path d="m74.67 146.96-.09.324" stroke-width=".791"/><path d="M74.58 147.28v.41" stroke-width=".436"/><path d="m81.38 154.18.797-2.496" stroke-width=".874"/><path d="M86.32 149h.5M86.82 149l.316-.04" stroke-width="1.274"/><path d="m87.14 148.96.406-.043" stroke-width="1.264"/><path d="m87.55 148.91.41-.04" stroke-width="1.235"/><path d="m87.96 148.88.406-.125" stroke-width="1.18"/><path d="m88.36 148.75.453-.16" stroke-width="1.077"/><path d="m88.82 148.59.41-.164" stroke-width=".823"/><path d="m89.23 148.43.496-.328" stroke-width=".249"/><path d="m93.21 147.32.047-.492" stroke-width=".977"/><path d="m93.26 146.83.09-.367" stroke-width=".987"/><path d="m93.35 146.46.137-.45" stroke-width=".99"/><path d="m93.49 146.02.137-.445M93.62 145.57l.133-.41" stroke-width=".994"/><path d="m93.76 145.16.137-.328" stroke-width=".998"/><path d="m93.89 144.83.137-.406" stroke-width=".999"/><path d="m94.03 144.43.09.328" stroke-width="1.068"/><path d="m94.12 144.75.09.406" stroke-width="1.098"/><path d="m94.21 145.16.094.57" stroke-width="1.121"/><path d="m94.3 145.73.09.695" stroke-width="1.133"/><path d="m94.39 146.43.09.773" stroke-width="1.134"/><path d="m94.48 147.2.137.734M94.62 147.93l.09.695" stroke-width="1.139"/><path d="m94.71 148.63.09.57" stroke-width="1.118"/><path d="m94.8 149.2.094.367" stroke-width="1.075"/><path d="m94.89 149.57.18.41" stroke-width=".808"/><path d="m97.02 142.43.316.285" stroke-width="1.025"/><path d="m97.34 142.71.273.246" stroke-width="1.084"/><path d="m97.61 142.96.363.406" stroke-width="1.151"/><path d="m97.98 143.36.316.492" stroke-width="1.203"/><path d="m98.29 143.86.363.652" stroke-width="1.242"/><path d="m98.66 144.51.316.816" stroke-width="1.276"/><path d="m98.97 145.32.227.938" stroke-width="1.299"/><path d="m99.2 146.26.137 1.02" stroke-width="1.314"/><path d="m99.34 147.28.137.98" stroke-width="1.322"/><path d="M99.47 148.26v.938M99.47 149.2v.86" stroke-width="1.327"/><path d="m99.47 150.06-.047.734" stroke-width="1.302"/><path d="m99.43 150.79-.09.734" stroke-width="1.223"/><path d="m99.34 151.53-.137.734" stroke-width="1.069"/><path d="m99.2 152.26-.137.508" stroke-width=".862"/><path d="m99.06 152.77-.133.512" stroke-width=".656"/></g><g stroke="#0f0"><path d="m7.41 103.2 11.488-1.781" stroke-width="1.198"/><g stroke-width="1.201"><path d="m10.33 100.19-.363.082M9.97 100.27l-.227.246M9.74 100.52l-.316.285M9.43 100.8l-.363.41M9.06 101.21l-.363.57M8.7 101.79l-.363.57M8.34 102.36l-.36.613M7.98 102.97l-.227.57"/></g><path d="m7.75 103.54-.227.41" stroke-width="1.201"/><path d="m7.52 103.95-.137.367M7.39 104.32l-.137.324" stroke-width="1.2"/><path d="m7.25 104.64.363.328" stroke-width="1.203"/><path d="m7.61 104.97.363.082" stroke-width="1.211"/><path d="m7.98 105.05.453.16" stroke-width="1.226"/><path d="m8.43 105.21.453.164" stroke-width="1.233"/><path d="m8.88 105.38.453.164" stroke-width="1.244"/><path d="m9.34 105.54.453.164M9.79 105.7l.453.082" stroke-width="1.251"/><path d="m10.24 105.79.406.078" stroke-width="1.255"/><path d="m10.65 105.86.32.043" stroke-width="1.262"/><path d="m10.97 105.91.316.082" stroke-width="1.268"/><path d="m11.28 105.99.453.082" stroke-width="1.275"/><path d="m11.74 106.07.18.324" stroke-width=".493"/><path d="M85.01 92.37h8.527" stroke-width="1.248"/><path d="m91.18 89.87.543.285" stroke-width="1.031"/><path d="m91.72 90.16.453.164" stroke-width="1.064"/><path d="m92.17 90.32.453.242" stroke-width="1.088"/><path d="m92.62 90.56.547.328" stroke-width="1.11"/><path d="m93.17 90.89.496.242" stroke-width="1.125"/><path d="m93.67 91.13.5.29" stroke-width="1.139"/><path d="m94.17 91.42.363.203" stroke-width="1.146"/><path d="m94.53 91.62.363.164" stroke-width="1.151"/><path d="m94.89 91.79.27.16" stroke-width="1.156"/><path d="m95.16 91.95.316.164" stroke-width="1.16"/><path d="m95.48 92.11.137.285" stroke-width="1.196"/><path d="m95.62 92.4-.09.367" stroke-width="1.23"/><path d="m95.53 92.77-.18.328" stroke-width="1.243"/><path d="m95.35 93.09-.184.367" stroke-width="1.247"/><path d="m95.16 93.46-.27.324" stroke-width="1.252"/><path d="m94.89 93.79-.273.328" stroke-width="1.257"/><path d="m94.62 94.11-.227.203" stroke-width="1.258"/><path d="m94.39 94.32-.227.203" stroke-width="1.262"/><path d="m94.17 94.52-.316.29" stroke-width="1.28"/><path d="m93.85 94.81-.227.203" stroke-width="1.291"/><path d="m93.62 95.01-.273.164M93.35 95.18l-.41.203" stroke-width="1.295"/><path d="m92.94 95.38-.36.246" stroke-width="1.289"/><path d="m92.58 95.62-.273.203" stroke-width="1.286"/><path d="m92.31 95.83-.316.285M91.99 96.11l-.363.246" stroke-width="1.294"/></g><g stroke="#00bfff" stroke-dasharray="6, 3"><path d="m19.63 97.46-.047.445" stroke-width=".313"/><path d="M19.58 97.91v.328" stroke-dashoffset=".451" stroke-width=".314"/><path d="M19.58 98.23v.531" stroke-dashoffset=".778" stroke-width=".315"/><path d="m19.58 98.77.047.531" stroke-dashoffset="1.308" stroke-width=".315"/><path d="m19.63 99.3.09.488" stroke-dashoffset="1.84" stroke-width=".312"/><path d="m19.72 99.79.137.45" stroke-dashoffset="2.338" stroke-width=".311"/><path d="m19.85 100.23.09.324" stroke-dashoffset="2.807" stroke-width=".311"/><path d="m19.94 100.56.09.41" stroke-dashoffset="3.146" stroke-width=".31"/><path d="m20.03 100.97.137.531" stroke-dashoffset="3.564" stroke-width=".31"/><path d="m20.17 101.5.137.488" stroke-dashoffset="4.112" stroke-width=".311"/><path d="m20.31 101.99.137.41" stroke-dashoffset="4.62" stroke-width=".31"/><path d="m20.44 102.4.18.285" stroke-dashoffset="5.05" stroke-width=".31"/><path d="m20.62 102.68.18.242" stroke-dashoffset="5.389" stroke-width=".308"/><path d="m20.8 102.93.184.328" stroke-dashoffset="5.693" stroke-width=".308"/><path d="m20.99 103.25.27.406" stroke-dashoffset="6.067" stroke-width=".308"/><path d="m21.26 103.66.363.45" stroke-dashoffset="6.557" stroke-width=".308"/><path d="m21.62 104.11.363.367" stroke-dashoffset="7.134" stroke-width=".308"/><path d="m21.98 104.48.316.285" stroke-dashoffset="7.65" stroke-width=".308"/><path d="m22.3 104.76.363.246" stroke-dashoffset="8.077" stroke-width=".308"/><path d="m22.66 105.01.227.246" stroke-dashoffset="8.515" stroke-width=".309"/><path d="m22.89 105.25.363.242" stroke-dashoffset="8.849" stroke-width=".309"/><path d="m23.25 105.5.316.246" stroke-dashoffset=".286" stroke-width=".309"/><path d="m23.57 105.74.273.203" stroke-dashoffset=".687" stroke-width=".309"/><path d="m23.84 105.95.363.207" stroke-dashoffset="1.027" stroke-width=".309"/><path d="m24.21 106.15.406.242" stroke-dashoffset="1.443" stroke-width=".309"/><path d="m24.61 106.39.363.246" stroke-dashoffset="1.919" stroke-width=".31"/><path d="m24.98 106.64.32.203" stroke-dashoffset="2.357" stroke-width=".31"/><path d="m25.3 106.84.36.125" stroke-dashoffset="2.734" stroke-width=".31"/><path d="m25.66 106.97.453.121" stroke-dashoffset="3.117" stroke-width=".311"/><path d="m26.11 107.09.547.121" stroke-dashoffset="3.587" stroke-width=".312"/><path d="m26.66 107.21.59.203" stroke-dashoffset="4.144" stroke-width=".313"/><path d="m27.25 107.41.543.207" stroke-dashoffset="4.768" stroke-width=".313"/><path d="m27.79 107.62.543.203" stroke-dashoffset="5.349" stroke-width=".313"/><path d="m28.33 107.82.543.121" stroke-dashoffset="5.93" stroke-width=".315"/><path d="m28.87 107.95.5.082" stroke-dashoffset="6.488" stroke-width=".318"/><path d="m29.37 108.03.543.082" stroke-dashoffset="6.993" stroke-width=".323"/><path d="m29.92 108.11.363.04" stroke-dashoffset="7.543" stroke-width=".325"/><path d="m30.28 108.15.41.082" stroke-dashoffset="7.909" stroke-width=".326"/><g stroke-width=".329"><path d="m30.69 108.23.406.082" stroke-dashoffset="8.325"/><path d="m31.1 108.31.41.082" stroke-dashoffset="8.741"/><path d="m31.51 108.39.406.082" stroke-dashoffset=".157"/></g><path d="m31.91 108.48.41.082" stroke-dashoffset=".573" stroke-width=".329"/><path d="m32.32 108.56.36.04" stroke-dashoffset=".989" stroke-width=".329"/><path d="m32.68 108.6.32.082" stroke-dashoffset="1.354" stroke-width=".329"/><path d="m33 108.68.363.082" stroke-dashoffset="1.682" stroke-width=".33"/><path d="m33.37 108.76.453.082" stroke-dashoffset="2.054" stroke-width=".333"/><path d="m33.82 108.84.453.04" stroke-dashoffset="2.514" stroke-width=".337"/><path d="m34.27 108.88.59.043" stroke-dashoffset="2.97" stroke-width=".341"/><path d="m34.86 108.93.68.082" stroke-dashoffset="3.561" stroke-width=".344"/><path d="m35.54 109.01.406.04" stroke-dashoffset="4.245" stroke-width=".347"/><path d="m35.95 109.05.41.043" stroke-dashoffset="4.655" stroke-width=".349"/><path d="m36.36 109.09.406.04" stroke-dashoffset="5.066" stroke-width=".351"/><path d="m36.77 109.13.453.043" stroke-dashoffset="5.476" stroke-width=".353"/><path d="m37.22 109.17.41.04" stroke-dashoffset="5.931" stroke-width=".354"/><path d="m37.63 109.21.316.043" stroke-dashoffset="6.341" stroke-width=".355"/><path d="m37.94 109.25.316.04" stroke-dashoffset="6.661" stroke-width=".357"/><path d="M38.26 109.29h.5" stroke-dashoffset="6.981" stroke-width=".359"/><path d="M38.76 109.29h.406" stroke-dashoffset="7.48" stroke-width=".365"/><path d="M39.17 109.29h.41" stroke-dashoffset="7.888" stroke-width=".366"/><path d="M39.58 109.29h.496" stroke-dashoffset="8.296" stroke-width=".367"/><path d="m40.07 109.29.637-.04" stroke-dashoffset="8.795" stroke-width=".367"/><path d="m40.71 109.25.633-.043" stroke-dashoffset=".431" stroke-width=".369"/><path d="m41.34 109.21.32-.04" stroke-dashoffset="1.067" stroke-width=".37"/><path d="m41.66 109.17.316-.043" stroke-dashoffset="1.387" stroke-width=".37"/><path d="m41.98 109.13.363-.04" stroke-dashoffset="1.707" stroke-width=".372"/><path d="m42.34 109.09.363-.082" stroke-dashoffset="2.072" stroke-width=".374"/><path d="m42.71 109.01.363-.082" stroke-dashoffset="2.444" stroke-width=".374"/><path d="m43.07 108.93.453-.043" stroke-dashoffset="2.816" stroke-width=".375"/><path d="m43.52 108.88.406-.078" stroke-dashoffset="3.271" stroke-width=".377"/><path d="m43.93 108.8.41-.082" stroke-dashoffset="3.687" stroke-width=".377"/><path d="m44.34 108.72.406-.082" stroke-dashoffset="4.103" stroke-width=".377"/><path d="m44.75 108.64.406-.082" stroke-dashoffset="4.519" stroke-width=".377"/><path d="m45.15 108.56.637-.121" stroke-dashoffset="4.935" stroke-width=".378"/><path d="m45.79 108.44.363-.043" stroke-dashoffset="5.582" stroke-width=".378"/><g stroke-width=".378"><path d="m46.15 108.39.363-.082" stroke-dashoffset="5.947"/><path d="m46.51 108.31.406-.04" stroke-dashoffset="6.319"/><path d="m46.92 108.27.41-.082" stroke-dashoffset="6.729"/><path d="m47.33 108.19.406-.043" stroke-dashoffset="7.145"/><path d="m47.74 108.15.41-.04" stroke-dashoffset="7.555"/></g><g stroke-width=".379"><path d="m48.15 108.11.316-.04" stroke-dashoffset="7.965"/><path d="m48.46 108.07.363-.043" stroke-dashoffset="8.285"/><path d="M48.83 108.03h.316" stroke-dashoffset="8.65"/><path d="M49.14 108.03h.316" stroke-dashoffset="8.967"/><path d="m49.46 108.03.363-.04" stroke-dashoffset=".285"/></g><path d="M49.82 107.99h.543" stroke-dashoffset=".65" stroke-width=".379"/><path d="m50.37 107.99.41-.082" stroke-dashoffset="1.194" stroke-width=".379"/><path d="m50.78 107.91.453-.043" stroke-dashoffset="1.61" stroke-width=".379"/><path d="m51.23 107.86.543-.082" stroke-dashoffset="2.065" stroke-width=".379"/><path d="m51.77 107.78.637-.121" stroke-dashoffset="2.615" stroke-width=".38"/><path d="m52.41 107.66.633-.121" stroke-dashoffset="3.262" stroke-width=".38"/><path d="m53.04 107.54.316-.043" stroke-dashoffset="3.908" stroke-width=".382"/><path d="m53.36 107.5.32-.082" stroke-dashoffset="4.228" stroke-width=".382"/><path d="m53.68 107.41.316-.04" stroke-dashoffset="4.556" stroke-width=".385"/><path d="m54 107.38.316-.082" stroke-dashoffset="4.876" stroke-width=".387"/><path d="m54.31 107.29.543-.121" stroke-dashoffset="5.204" stroke-width=".39"/><path d="m54.85 107.17.5-.125" stroke-dashoffset="5.761" stroke-width=".393"/><path d="m55.35 107.05.543-.121" stroke-dashoffset="6.275" stroke-width=".395"/><path d="m55.9 106.93.547-.121" stroke-dashoffset="6.833" stroke-width=".396"/><path d="m56.44 106.8.316-.082" stroke-dashoffset="7.39" stroke-width=".397"/><path d="m56.76 106.72.59-.121" stroke-dashoffset="7.718" stroke-width=".399"/><path d="m57.35 106.6.316-.043" stroke-dashoffset="8.32" stroke-width=".4"/><path d="m57.67 106.56.543-.082" stroke-dashoffset="8.64" stroke-width=".401"/><path d="m58.21 106.48.547-.082" stroke-dashoffset=".19" stroke-width=".401"/><path d="m58.76 106.39.496-.082" stroke-dashoffset=".74" stroke-width=".402"/><path d="m59.25 106.31.547-.082" stroke-dashoffset="1.246" stroke-width=".403"/><path d="m59.8 106.23.59-.16" stroke-dashoffset="1.796" stroke-width=".403"/><path d="m60.39 106.07.36-.043" stroke-dashoffset="2.408" stroke-width=".403"/><path d="m60.75 106.03.68-.164" stroke-dashoffset="2.773" stroke-width=".404"/><path d="m61.43 105.86.59-.078" stroke-dashoffset="3.472" stroke-width=".404"/><path d="m62.02 105.79.547-.082" stroke-dashoffset="4.067" stroke-width=".405"/><path d="m62.57 105.7.316-.043" stroke-dashoffset="4.617" stroke-width=".406"/><path d="m62.88 105.66.59-.121" stroke-dashoffset="4.937" stroke-width=".407"/><path d="m63.47 105.54.59-.203" stroke-dashoffset="5.539" stroke-width=".408"/><path d="m64.06 105.34.316-.082" stroke-dashoffset="6.163" stroke-width=".408"/><path d="m64.38 105.25.316-.082" stroke-dashoffset="6.491" stroke-width=".408"/><path d="m64.69 105.17.543-.082" stroke-dashoffset="6.819" stroke-width=".408"/><path d="m65.24 105.09.547-.121" stroke-dashoffset="7.369" stroke-width=".411"/><path d="m65.78 104.97.496-.082" stroke-dashoffset="7.926" stroke-width=".411"/><path d="m66.28 104.89.5-.043" stroke-dashoffset="8.432" stroke-width=".412"/><path d="m66.78 104.84.5-.082" stroke-dashoffset="8.932" stroke-width=".413"/><path d="m67.28 104.76.59-.121" stroke-dashoffset=".438" stroke-width=".415"/><path d="m67.87 104.64.316-.04" stroke-dashoffset="1.04" stroke-width=".415"/><path d="m68.19 104.6.316-.082" stroke-dashoffset="1.359" stroke-width=".415"/><path d="m68.5 104.52.59-.082" stroke-dashoffset="1.687" stroke-width=".416"/><path d="m69.09 104.44.453-.043" stroke-dashoffset="2.282" stroke-width=".416"/><path d="m69.55 104.39.316-.078" stroke-dashoffset="2.737" stroke-width=".416"/><path d="m69.86 104.32.41-.043" stroke-dashoffset="3.065" stroke-width=".416"/><path d="m70.27 104.27.453-.082" stroke-dashoffset="3.475" stroke-width=".417"/><path d="m70.73 104.19.453-.082" stroke-dashoffset="3.936" stroke-width=".417"/><path d="m71.18 104.11.316-.082" stroke-dashoffset="4.397" stroke-width=".417"/><path d="m71.5 104.03.32-.078" stroke-dashoffset="4.724" stroke-width=".417"/><path d="m71.82 103.95.406-.207" stroke-dashoffset="5.052" stroke-width=".419"/><path d="m72.22 103.74.363-.16" stroke-dashoffset="5.508" stroke-width=".419"/><path d="m72.59 103.58.27-.207" stroke-dashoffset="5.906" stroke-width=".419"/><path d="m72.85 103.38.363-.164" stroke-dashoffset="6.246" stroke-width=".42"/><g stroke-width=".42"><path d="m73.22 103.21.5-.242" stroke-dashoffset="6.644"/><path d="m73.72 102.97.5-.164" stroke-dashoffset="7.199"/><path d="m74.22 102.8.363-.164" stroke-dashoffset="7.724"/></g><path d="m74.58 102.64.406-.121" stroke-dashoffset="8.122" stroke-width=".419"/><path d="m74.99 102.52.406-.121" stroke-dashoffset="8.548" stroke-width=".42"/><path d="m75.39 102.4.5-.164" stroke-dashoffset="8.974" stroke-width=".42"/><path d="m75.89 102.23.316-.125" stroke-dashoffset=".499" stroke-width=".42"/><path d="m76.21 102.11.363-.203" stroke-dashoffset=".839" stroke-width=".42"/><path d="m76.57 101.91.273-.164" stroke-dashoffset="1.255" stroke-width=".42"/><path d="m76.85 101.74.406-.16" stroke-dashoffset="1.573" stroke-width=".42"/><path d="m77.25 101.58.453-.207" stroke-dashoffset="2.012" stroke-width=".421"/><path d="m77.71 101.38.457-.121" stroke-dashoffset="2.509" stroke-width=".42"/><path d="m78.16 101.25.36-.121" stroke-dashoffset="2.979" stroke-width=".421"/><path d="m78.52 101.13.453-.203" stroke-dashoffset="3.362" stroke-width=".421"/><path d="m78.98 100.93.32-.164" stroke-dashoffset="3.859" stroke-width=".422"/><path d="m79.3 100.77.316-.246" stroke-dashoffset="4.216" stroke-width=".422"/><path d="m79.61 100.52.316-.246" stroke-dashoffset="4.617" stroke-width=".424"/><path d="m79.93 100.27.363-.242" stroke-dashoffset="5.017" stroke-width=".424"/><path d="m80.29 100.03.273-.246" stroke-dashoffset="5.455" stroke-width=".424"/><path d="m80.57 99.79.316-.246" stroke-dashoffset="5.821" stroke-width=".424"/><path d="m80.88 99.54.316-.285" stroke-dashoffset="6.222" stroke-width=".424"/><path d="m81.2 99.25.273-.242" stroke-dashoffset="6.649" stroke-width=".424"/><path d="m81.47 99.01.227-.207" stroke-dashoffset="7.015" stroke-width=".425"/><path d="m81.7 98.8.363-.285" stroke-dashoffset="7.32" stroke-width=".425"/><path d="m82.06 98.52.227-.242" stroke-dashoffset="7.782" stroke-width=".425"/><path d="m82.29 98.28.227-.246" stroke-dashoffset="8.115" stroke-width=".425"/><path d="m82.51 98.03.316-.367" stroke-dashoffset="8.449" stroke-width=".426"/><path d="m82.83 97.66.184-.285" stroke-dashoffset="8.934" stroke-width=".426"/><g stroke-width=".426"><path d="m83.01 97.38.18-.285" stroke-dashoffset=".273"/><path d="m83.19 97.09.273-.367" stroke-dashoffset=".611"/><path d="m83.47 96.73.18-.41" stroke-dashoffset="1.068"/></g><path d="m83.65 96.32.18-.45" stroke-dashoffset="1.514" stroke-width=".427"/><path d="m83.83 95.87.273-.406" stroke-dashoffset="1.999" stroke-width=".427"/><g stroke-width=".427"><path d="m84.1 95.46.137-.41" stroke-dashoffset="2.489"/><path d="m84.24 95.05.18-.367" stroke-dashoffset="2.919"/><path d="m84.42 94.68.184-.285" stroke-dashoffset="3.329"/><path d="m84.6 94.4.227-.45" stroke-dashoffset="3.667"/></g><path d="m84.83 93.95.18-.324" stroke-dashoffset="4.17" stroke-width=".427"/><path d="m85.01 93.62.137-.328" stroke-dashoffset="4.543" stroke-width=".427"/><path d="m85.14 93.3.18-.488" stroke-dashoffset="4.897" stroke-width=".42"/><path d="m85.32 92.81.094-.328" stroke-dashoffset="5.419" stroke-width=".414"/><path d="m85.42 92.48.09-.324" stroke-dashoffset="5.758" stroke-width=".402"/><path d="m85.51 92.16.09-.41" stroke-dashoffset="6.097" stroke-width=".38"/><path d="m85.6 91.75.137-.367" stroke-dashoffset="6.515" stroke-width=".344"/><path d="m85.73 91.38.047-.45" stroke-dashoffset="6.907" stroke-width=".29"/><path d="m18.63 83.59.137.45" stroke-width=".38"/><path d="m18.77 84.04.184.367" stroke-dashoffset=".469" stroke-width=".38"/><path d="m18.95 84.4.18.406" stroke-dashoffset=".879" stroke-width=".382"/><path d="m19.13 84.81.18.41" stroke-dashoffset="1.325" stroke-width=".383"/><path d="m19.31 85.22.184.45" stroke-dashoffset="1.772" stroke-width=".383"/><path d="m19.49 85.67.227.406" stroke-dashoffset="2.256" stroke-width=".384"/><path d="m19.72 86.07.363.367" stroke-dashoffset="2.723" stroke-width=".384"/><path d="m20.08 86.44.27.164" stroke-dashoffset="3.239" stroke-width=".384"/><path d="m20.35 86.61.227.246" stroke-dashoffset="3.556" stroke-width=".385"/><path d="m20.58 86.85.273.203" stroke-dashoffset="3.89" stroke-width=".385"/><path d="m20.85 87.05.273.246" stroke-dashoffset="4.23" stroke-width=".385"/><path d="m21.12 87.3.27.242" stroke-dashoffset="4.596" stroke-width=".385"/><path d="m21.39 87.54.363.246" stroke-dashoffset="4.962" stroke-width=".385"/><path d="m21.76 87.79.273.246" stroke-dashoffset="5.399" stroke-width=".385"/><path d="m22.03 88.04.363.203" stroke-dashoffset="5.765" stroke-width=".385"/><path d="m22.39 88.24.363.242" stroke-dashoffset="6.181" stroke-width=".386"/><path d="m22.76 88.48.36.207" stroke-dashoffset="6.619" stroke-width=".386"/><path d="m23.12 88.69.41.203" stroke-dashoffset="7.035" stroke-width=".386"/><path d="m23.53 88.89.363.121" stroke-dashoffset="7.492" stroke-width=".386"/><path d="m23.89 89.01.363.246" stroke-dashoffset="7.874" stroke-width=".387"/><path d="m24.25 89.26.36.121" stroke-dashoffset="8.312" stroke-width=".388"/><path d="m24.61 89.38.363.164" stroke-dashoffset="8.695" stroke-width=".389"/><path d="m24.98 89.54.363.246" stroke-dashoffset=".093" stroke-width=".391"/><path d="m25.34 89.79.41.121" stroke-dashoffset=".53" stroke-width=".396"/><path d="m25.75 89.91.453.246" stroke-dashoffset=".956" stroke-width=".4"/><path d="m26.2 90.16.453.164" stroke-dashoffset="1.472" stroke-width=".402"/><path d="m26.66 90.32.496.121" stroke-dashoffset="1.953" stroke-width=".404"/><path d="m27.15 90.44.5.164" stroke-dashoffset="2.467" stroke-width=".405"/><path d="m27.65 90.61.5.082" stroke-dashoffset="2.992" stroke-width=".405"/><path d="m28.15 90.69.496.121" stroke-dashoffset="3.497" stroke-width=".406"/><path d="m28.65 90.81.457.121" stroke-dashoffset="4.011" stroke-width=".406"/><g stroke-width=".408"><path d="m29.1 90.93.453.082" stroke-dashoffset="4.48"/><path d="m29.56 91.01.453.121" stroke-dashoffset="4.941"/><path d="m30.01 91.13.453.082" stroke-dashoffset="5.411"/></g><path d="m30.46 91.21.453.082" stroke-dashoffset="5.871" stroke-width=".408"/><path d="m30.92 91.3.453.043" stroke-dashoffset="6.332" stroke-width=".408"/><path d="m31.37 91.34.543.082" stroke-dashoffset="6.787" stroke-width=".408"/><path d="m31.91 91.42.543.078" stroke-dashoffset="7.337" stroke-width=".409"/><path d="m32.46 91.5.59.082" stroke-dashoffset="7.888" stroke-width=".409"/><path d="m33.05 91.58.59.125" stroke-dashoffset="8.483" stroke-width=".409"/><path d="m33.64 91.71.547.082" stroke-dashoffset=".085" stroke-width=".409"/><g stroke-width=".411"><path d="m34.18 91.79.543.121" stroke-dashoffset=".635"/><path d="m34.73 91.91.5.082" stroke-dashoffset="1.192"/><path d="m35.23 91.99.453.121" stroke-dashoffset="1.698"/></g><path d="m35.68 92.11.36.082" stroke-dashoffset="2.167" stroke-width=".411"/><path d="m36.04 92.2.363.121" stroke-dashoffset="2.539" stroke-width=".411"/><path d="m36.4 92.32.59.082" stroke-dashoffset="2.922" stroke-width=".411"/><path d="m36.99 92.4.363.043" stroke-dashoffset="3.517" stroke-width=".411"/><path d="M37.35 92.44h.363" stroke-dashoffset="3.882" stroke-width=".413"/><path d="m37.72 92.44.453.04" stroke-dashoffset="4.245" stroke-width=".413"/><path d="m38.17 92.48.453.043" stroke-dashoffset="4.7" stroke-width=".413"/><path d="m38.62 92.52.5.04" stroke-dashoffset="5.155" stroke-width=".416"/><path d="m39.12 92.56.543.043" stroke-dashoffset="5.656" stroke-width=".416"/><path d="m39.67 92.61.59.04" stroke-dashoffset="6.201" stroke-width=".416"/><path d="m40.26 92.64.59.04" stroke-dashoffset="6.792" stroke-width=".419"/><path d="m40.85 92.68.543.043" stroke-dashoffset="7.383" stroke-width=".419"/><path d="m41.39 92.73.543.04" stroke-dashoffset="7.929" stroke-width=".42"/><path d="M41.93 92.77h.5" stroke-dashoffset="8.474" stroke-width=".42"/><g stroke-width=".42"><path d="M42.43 92.77h.453" stroke-dashoffset="8.973"/><path d="M42.89 92.77h.41" stroke-dashoffset=".426"/><path d="M43.3 92.77h.453" stroke-dashoffset=".835"/></g><path d="M43.75 92.77h.453" stroke-dashoffset="1.288" stroke-width=".42"/><path d="M44.2 92.77h.496" stroke-dashoffset="1.741" stroke-width=".422"/><path d="m44.7 92.77.547-.04" stroke-dashoffset="2.24" stroke-width=".423"/><path d="M45.25 92.73h.543" stroke-dashoffset="2.786" stroke-width=".423"/><path d="m45.79 92.73.543-.043" stroke-dashoffset="3.33" stroke-width=".424"/><path d="m46.33 92.68.547-.04" stroke-dashoffset="3.875" stroke-width=".427"/><path d="m46.88 92.64.543-.04" stroke-dashoffset="4.421" stroke-width=".427"/><path d="m47.42 92.61.5-.082" stroke-dashoffset="4.967" stroke-width=".429"/><g stroke-width=".431"><path d="m47.92 92.52.543-.043" stroke-dashoffset="5.472"/><path d="m48.46 92.48.543-.082" stroke-dashoffset="6.018"/><path d="m49.01 92.4.5-.082" stroke-dashoffset="6.568"/></g><g stroke-width=".432"><path d="m49.51 92.32.453-.082" stroke-dashoffset="7.073"/><path d="m49.96 92.23.5-.078" stroke-dashoffset="7.534"/><path d="m50.46 92.16.453-.043" stroke-dashoffset="8.039"/><path d="m50.91 92.11.453-.04" stroke-dashoffset="8.495"/><path d="m51.37 92.07.453-.043" stroke-dashoffset="8.95"/><path d="m51.82 92.03.496-.04" stroke-dashoffset=".405"/><path d="m52.32 91.99.5-.043" stroke-dashoffset=".905"/><path d="m52.82 91.95.5-.04" stroke-dashoffset="1.406"/><path d="m53.32 91.91.543-.043" stroke-dashoffset="1.906"/></g><path d="m53.86 91.87.59-.04" stroke-dashoffset="2.452" stroke-width=".433"/><path d="m54.45 91.83.633-.04" stroke-dashoffset="3.043" stroke-width=".433"/><path d="m55.08 91.79.637-.082" stroke-dashoffset="3.679" stroke-width=".434"/><path d="m55.72 91.71.633-.043" stroke-dashoffset="4.319" stroke-width=".434"/><path d="m56.35 91.66.637-.082" stroke-dashoffset="4.955" stroke-width=".434"/><path d="m56.99 91.58.633-.082" stroke-dashoffset="5.595" stroke-width=".435"/><path d="m57.62 91.5.59-.04" stroke-dashoffset="6.235" stroke-width=".435"/><path d="m58.21 91.46.547-.082" stroke-dashoffset="6.826" stroke-width=".436"/><path d="m58.76 91.38.496-.082" stroke-dashoffset="7.376" stroke-width=".437"/><path d="m59.25 91.3.5-.082" stroke-dashoffset="7.881" stroke-width=".438"/><path d="m59.75 91.21.543-.082" stroke-dashoffset="8.387" stroke-width=".438"/><path d="m60.3 91.13.5-.078" stroke-dashoffset="8.937" stroke-width=".441"/><path d="m60.8 91.05.5-.082" stroke-dashoffset=".442" stroke-width=".442"/><path d="m61.3 90.97.543-.082" stroke-dashoffset=".948" stroke-width=".444"/><path d="m61.84 90.89.5-.043" stroke-dashoffset="1.498" stroke-width=".444"/><path d="m62.34 90.85.543-.082" stroke-dashoffset="1.998" stroke-width=".444"/><path d="m62.88 90.77.453-.078" stroke-dashoffset="2.548" stroke-width=".446"/><path d="m63.34 90.69.5-.043" stroke-dashoffset="3.009" stroke-width=".447"/><path d="m63.84 90.64.406-.082" stroke-dashoffset="3.509" stroke-width=".449"/><path d="m64.24 90.56.453-.082" stroke-dashoffset="3.926" stroke-width=".45"/><path d="m64.69 90.48.41-.082" stroke-dashoffset="4.386" stroke-width=".452"/><path d="m65.1 90.4.406-.078" stroke-dashoffset="4.802" stroke-width=".452"/><path d="m65.51 90.32.363-.082" stroke-dashoffset="5.219" stroke-width=".452"/><path d="m65.87 90.24.363-.043" stroke-dashoffset="5.59" stroke-width=".452"/><path d="m66.24 90.2.316-.082" stroke-dashoffset="5.955" stroke-width=".454"/><path d="m66.55 90.11.363-.04" stroke-dashoffset="6.283" stroke-width=".454"/><path d="m66.92 90.07.406-.043" stroke-dashoffset="6.648" stroke-width=".454"/><path d="m67.32 90.03.363-.078" stroke-dashoffset="7.058" stroke-width=".455"/><path d="m67.69 89.95.363-.043" stroke-dashoffset="7.43" stroke-width=".455"/><path d="m68.05 89.91.41-.082" stroke-dashoffset="7.795" stroke-width=".455"/><path d="m68.46 89.83.406-.04" stroke-dashoffset="8.211" stroke-width=".455"/><g stroke-width=".455"><path d="m68.87 89.79.41-.043" stroke-dashoffset="8.621"/><path d="m69.28 89.75.36-.04" stroke-dashoffset=".031"/><path d="m69.64 89.71.363-.043" stroke-dashoffset=".396"/></g><g stroke-width=".455"><path d="m70 89.66.316-.04" stroke-dashoffset=".761"/><path d="m70.32 89.62.32-.043" stroke-dashoffset="1.081"/><path d="m70.64 89.58.316-.04" stroke-dashoffset="1.401"/><path d="m70.95 89.54.316-.04" stroke-dashoffset="1.721"/></g><path d="m71.27 89.5.453-.082" stroke-dashoffset="2.041" stroke-width=".456"/><path d="m71.72 89.42.453-.043" stroke-dashoffset="2.502" stroke-width=".456"/><path d="m72.18 89.38.453-.04" stroke-dashoffset="2.957" stroke-width=".456"/><path d="m72.63 89.34.457-.082" stroke-dashoffset="3.413" stroke-width=".457"/><path d="m73.09 89.26.543-.082" stroke-dashoffset="3.873" stroke-width=".457"/><g stroke-width=".458"><path d="m73.63 89.18.59-.121" stroke-dashoffset="4.423"/><path d="m74.22 89.05.363-.082" stroke-dashoffset="5.025"/><path d="m74.58 88.97.36-.082" stroke-dashoffset="5.397"/></g><path d="m74.94 88.89.41-.121" stroke-dashoffset="5.769" stroke-width=".459"/><g stroke-width=".459"><path d="m75.35 88.77.316-.125" stroke-dashoffset="6.195"/><path d="m75.67 88.64.316-.121" stroke-dashoffset="6.535"/><path d="m75.98 88.52.453-.164" stroke-dashoffset="6.875"/></g><path d="m76.44 88.36.41-.121" stroke-dashoffset="7.357" stroke-width=".459"/><path d="m76.85 88.24.453-.164" stroke-dashoffset="7.783" stroke-width=".461"/><path d="m77.3 88.07.5-.246" stroke-dashoffset="8.265" stroke-width=".461"/><path d="m77.8 87.83.27-.16" stroke-dashoffset="8.821" stroke-width=".461"/><path d="m78.07 87.67.547-.29" stroke-dashoffset=".138" stroke-width=".462"/><path d="m78.62 87.38.27-.16" stroke-dashoffset=".753" stroke-width=".462"/><path d="m78.89 87.22.32-.125" stroke-dashoffset="1.07" stroke-width=".462"/><path d="m79.21 87.09.27-.16" stroke-dashoffset="1.41" stroke-width=".463"/><path d="m79.48 86.93.316-.164" stroke-dashoffset="1.727" stroke-width=".464"/><path d="m79.79 86.77.273-.164" stroke-dashoffset="2.084" stroke-width=".464"/><path d="m80.07 86.61.453-.285" stroke-dashoffset="2.401" stroke-width=".465"/><path d="m80.52 86.32.41-.328" stroke-dashoffset="2.937" stroke-width=".466"/><g stroke-width=".466"><path d="m80.93 85.99.27-.203" stroke-dashoffset="3.46"/><path d="m81.2 85.79.227-.203" stroke-dashoffset="3.8"/><path d="m81.43 85.59.227-.203" stroke-dashoffset="4.105"/><path d="m81.65 85.38.227-.207" stroke-dashoffset="4.41"/></g><path d="m81.88 85.18.41-.285" stroke-dashoffset="4.715" stroke-width=".466"/><path d="m82.29 84.89.316-.242" stroke-dashoffset="5.213" stroke-width=".467"/><path d="m82.6 84.65.273-.246" stroke-dashoffset="5.614" stroke-width=".468"/><path d="m82.88 84.4.27-.203" stroke-dashoffset="5.98" stroke-width=".468"/><path d="m83.15 84.2.227-.207" stroke-dashoffset="6.32" stroke-width=".469"/><path d="m83.37 83.99.363-.285" stroke-dashoffset="6.625" stroke-width=".469"/><path d="m83.74 83.71.453-.324" stroke-dashoffset="7.087" stroke-width=".469"/><path d="m84.19 83.38.273-.285" stroke-dashoffset="7.645" stroke-width=".469"/><path d="m84.46 83.1.273-.246" stroke-dashoffset="8.04" stroke-width=".47"/><path d="m84.74 82.85.27-.246" stroke-dashoffset="8.406" stroke-width=".47"/><path d="m85.01 82.61.227-.285" stroke-dashoffset="8.772" stroke-width=".471"/><path d="m85.23 82.32.227-.203" stroke-dashoffset=".136" stroke-width=".471"/><g stroke-width=".471"><path d="m85.46 82.12.184-.246" stroke-dashoffset=".441"/><path d="m85.64 81.87.227-.324" stroke-dashoffset=".746"/><path d="m85.87 81.55.27-.246" stroke-dashoffset="1.143"/></g><path d="m86.14 81.3.137-.285" stroke-dashoffset="1.509" stroke-width=".469"/><path d="m86.28 81.02.184-.246" stroke-dashoffset="1.826" stroke-width=".457"/><path d="m86.46 80.77.043-.488" stroke-dashoffset="2.131" stroke-width=".322"/></g></g></svg>