<svg width="102.139" height="76.923" version="1.2" viewBox="0 0 76.604 57.692" xmlns="http://www.w3.org/2000/svg"><g fill="none" stroke-linecap="round" stroke-linejoin="round" stroke-miterlimit="10"><g stroke="#00bfff"><path d="m.63 40.266.094.41M.72 40.676l.18.285M.9 40.966l.273.324M1.17 41.286l.18.246" stroke-width=".716"/><path d="m1.35 41.536.363.367" stroke-width=".717"/><g stroke-width=".717"><path d="m1.72 41.906.18.246M1.9 42.146l.227.324M2.12 42.476l.273.246M2.4 42.716l.316.203"/></g><g stroke-width=".716"><path d="m2.71 42.926.32.164M3.03 43.086l.36.164M3.39 43.246l.457.324M3.85 43.576l.406.41"/></g><path d="m4.26 43.986.5.367" stroke-width=".717"/><g stroke-width=".718"><path d="m4.76 44.346.27.203M5.03 44.556l.32.246M5.35 44.796l.36.203"/></g><path d="m5.71 45.006.363.246M6.07 45.246l.41.203M6.48 45.456l.406.164" stroke-width=".717"/><path d="m6.89 45.616.453.242M7.34 45.856l.453.125" stroke-width=".716"/><path d="m7.79 45.986.453.164" stroke-width=".713"/><path d="m8.24 46.146.5.16" stroke-width=".712"/><path d="m8.74 46.306.453.125M9.2 46.436l.41.121" stroke-width=".708"/><path d="m9.61 46.556.453.082" stroke-width=".703"/><path d="m10.06 46.636.406.121" stroke-width=".702"/><path d="m10.47 46.756.41.082M10.88 46.836l.363.082" stroke-width=".699"/><path d="m11.24 46.926.36.082M11.6 47.006l.41.121" stroke-width=".703"/><path d="m12.01 47.126.633.164" stroke-width=".706"/><path d="m12.64 47.286.59.203M13.23 47.496l.316.082" stroke-width=".704"/><path d="m13.55 47.576.637.164" stroke-width=".705"/><path d="m14.19 47.736.363.082M14.55 47.816l.406.121" stroke-width=".706"/><g stroke-width=".707"><path d="m14.96 47.936.41.121M15.37 48.066l.406.125M15.77 48.186l.453.121"/></g><path d="m16.23 48.306.5.121" stroke-width=".706"/><path d="m16.73 48.426.543.125M17.27 48.556l.59.082" stroke-width=".695"/><path d="m17.86 48.636.637.121M18.49 48.756l.633.082" stroke-width=".684"/><path d="m19.13 48.836.68.082" stroke-width=".686"/><path d="m19.81 48.926.68.04" stroke-width=".689"/><path d="m20.49 48.956.727.082M21.21 49.046l.77.043" stroke-width=".69"/><path d="m21.98 49.086.773.04" stroke-width=".691"/><path d="m22.76 49.126.816.043" stroke-width=".696"/><path d="M23.57 49.166h.77" stroke-width=".697"/><path d="m24.34 49.166.816.04M25.16 49.206l.77.04" stroke-width=".698"/><path d="m25.93 49.246.773.043M26.7 49.286l.77.04" stroke-width=".699"/><path d="M27.47 49.326h.727M28.2 49.326l.77.043M28.97 49.366l.68.04" stroke-width=".703"/><path d="m29.65 49.406.727.043M30.37 49.456l.633.04M31.01 49.496l.637.082" stroke-width=".704"/><path d="m31.64 49.576.59.04" stroke-width=".709"/><path d="m32.23 49.616.543.082" stroke-width=".712"/><path d="m32.78 49.696.59.043" stroke-width=".716"/><path d="m33.37 49.736.543.04" stroke-width=".717"/><path d="m33.91 49.776.543.082" stroke-width=".721"/><path d="m34.45 49.856.59.043" stroke-width=".725"/><path d="m35.04 49.906.547.078" stroke-width=".732"/><path d="m35.59 49.976.586.082" stroke-width=".738"/><path d="m36.17 50.066.59.043" stroke-width=".746"/><path d="m36.76 50.106.59.04" stroke-width=".755"/><path d="m37.35 50.146.637.043" stroke-width=".76"/><path d="M37.99 50.186h.59" stroke-width=".768"/><path d="M38.58 50.186h.633" stroke-width=".775"/><path d="M39.21 50.186h.637" stroke-width=".786"/><path d="M39.85 50.186h.68" stroke-width=".795"/><path d="M40.53 50.186h.77" stroke-width=".801"/><path d="m41.3 50.186.77-.043" stroke-width=".805"/><path d="M42.07 50.146h.816" stroke-width=".808"/><path d="m42.89 50.146.816-.082" stroke-width=".812"/><path d="m43.7 50.066.816-.082" stroke-width=".823"/><path d="m44.52 49.976.863-.078" stroke-width=".831"/><path d="m45.38 49.906.906-.125" stroke-width=".836"/><path d="m46.29 49.776.816-.121" stroke-width=".842"/><path d="m47.1 49.656.86-.082" stroke-width=".845"/><path d="m47.96 49.576.773-.121" stroke-width=".851"/><path d="m48.74 49.456.723-.125" stroke-width=".858"/><path d="m49.46 49.326.684-.121" stroke-width=".863"/><path d="m50.14 49.206.633-.082M50.78 49.126l.59-.121" stroke-width=".866"/><path d="m51.37 49.006.59-.125" stroke-width=".868"/><path d="m51.96 48.876.543-.082M52.5 48.796l.5-.121" stroke-width=".871"/><path d="m53 48.676.496-.121M53.49 48.556l.457-.125" stroke-width=".875"/><path d="m53.95 48.426.496-.121M54.45 48.306l.5-.121" stroke-width=".876"/><path d="m54.95 48.186.5-.125M55.45 48.066l.496-.203" stroke-width=".877"/><path d="m55.94 47.856.5-.164M56.44 47.696l.453-.16" stroke-width=".882"/><path d="m56.9 47.536.406-.164M57.3 47.366l.41-.121" stroke-width=".879"/><path d="m57.71 47.246.406-.125" stroke-width=".883"/><path d="m58.12 47.126.41-.121" stroke-width=".884"/><path d="m58.53 47.006.453-.164M58.98 46.836l.453-.203" stroke-width=".885"/><path d="m59.44 46.636.543-.246" stroke-width=".888"/><path d="m59.98 46.386.59-.324" stroke-width=".889"/><path d="m60.57 46.066.727-.328" stroke-width=".903"/><path d="m61.3 45.736.816-.406" stroke-width=".913"/><g stroke-width=".918"><path d="m62.11 45.336.86-.41M62.97 44.926l.816-.324M63.79 44.596l.727-.328"/></g><g stroke-width=".919"><path d="m64.51 44.266.637-.285M65.15 43.986l.543-.203M65.69 43.776l.453-.246"/></g><path d="m66.15 43.536.406-.164" stroke-width=".92"/><path d="m66.55 43.366.32-.164M66.87 43.206l.36-.121" stroke-width=".921"/><path d="m67.23 43.086.59-.285" stroke-width=".922"/><path d="m67.82 42.796.363-.164M68.19 42.636l.316-.203M68.5 42.436l.363-.203M68.87 42.226l.5-.285" stroke-width=".927"/><path d="m69.37 41.946.5-.246M69.87 41.696l.316-.203" stroke-width=".928"/><path d="m70.18 41.496.363-.207M70.55 41.286l.316-.16" stroke-width=".929"/><path d="m70.86 41.126.273-.246" stroke-width=".934"/><path d="m71.14 40.886.406-.328M71.54 40.556l.227-.242" stroke-width=".941"/><path d="m71.77 40.316.227-.246" stroke-width=".919"/><path d="m.67 40.146-.227-.203" stroke-width=".797"/><path d="m.45 39.946-.047-.45" stroke-width=".798"/><path d="M.4 39.496v-.367M.4 39.126v-.367" stroke-width=".799"/><path d="M.4 38.766v-.45M.4 38.316l.047-.492" stroke-width=".796"/><path d="m.45 37.816.09-.488" stroke-width=".799"/><path d="m.54 37.336.09-.488M.63 36.846l.094-.45M.72 36.396l.133-.45" stroke-width=".8"/><path d="m.85 35.946.137-.367M.99 35.576l.137-.367M1.13 35.206l.137-.367" stroke-width=".801"/><path d="m1.26 34.846.09-.367M1.35 34.476l.184-.41" stroke-width=".802"/><path d="m1.54 34.066.18-.488" stroke-width=".803"/><path d="m1.72 33.576.273-.57M1.99 33.006l.227-.652M2.22 32.356l.27-.734" stroke-width=".804"/><path d="m2.49 31.616.363-.777" stroke-width=".807"/><g stroke-width=".808"><path d="m2.85 30.846.363-.855M3.21 29.986l.453-.86M3.67 29.126l.453-.895"/></g><path d="m4.12 28.236.453-.898M4.57 27.336l.453-.86" stroke-width=".807"/><path d="m5.03 26.476.5-.813M5.53 25.666l.453-.777M5.98 24.886l.5-.734" stroke-width=".808"/><path d="m6.48 24.156.453-.734M6.93 23.416l.5-.773" stroke-width=".81"/><path d="m7.43 22.646.543-.777" stroke-width=".814"/><path d="m7.98 21.866.543-.773" stroke-width=".819"/><path d="m8.52 21.096.5-.777" stroke-width=".825"/><path d="m9.02 20.316.543-.691" stroke-width=".831"/><path d="m9.56 19.626.453-.656" stroke-width=".834"/><path d="m10.01 18.966.453-.57" stroke-width=".835"/><path d="m10.47 18.396.41-.531M10.88 17.866l.453-.488" stroke-width=".838"/><path d="m11.33 17.376.453-.488M11.78 16.886l.496-.492" stroke-width=".839"/><path d="m12.28 16.396.547-.488M12.83 15.906l.59-.488" stroke-width=".844"/><path d="m13.42 15.426.633-.531" stroke-width=".845"/><path d="m14.05 14.886.68-.57" stroke-width=".846"/><path d="m14.73 14.316.68-.531" stroke-width=".853"/><path d="m15.41 13.786.68-.531" stroke-width=".862"/><path d="m16.09 13.256.727-.57" stroke-width=".871"/><path d="m16.82 12.686.773-.531" stroke-width=".877"/><path d="m17.59 12.156.77-.57" stroke-width=".881"/><path d="m18.36 11.585.77-.531M19.13 11.054l.727-.488" stroke-width=".884"/><path d="m19.85 10.566.727-.45" stroke-width=".885"/><g stroke-width=".889"><path d="m20.58 10.116.68-.41M21.26 9.706l.68-.324M21.94 9.382l.68-.328"/></g><path d="m22.62 9.054.633-.246" stroke-width=".893"/><path d="m23.25 8.808.637-.285" stroke-width=".896"/><path d="m23.89 8.523.633-.324M24.52 8.198l.637-.285" stroke-width=".901"/><path d="m25.16 7.913.68-.29" stroke-width=".914"/><path d="m25.84 7.624.77-.324" stroke-width=".922"/><path d="m26.61 7.3.773-.246" stroke-width=".923"/><path d="m27.38 7.054.816-.246" stroke-width=".927"/><path d="m28.2 6.808.816-.242" stroke-width=".934"/><path d="m29.01 6.566.86-.203" stroke-width=".938"/><path d="m29.87 6.363.863-.164" stroke-width=".941"/><path d="m30.74 6.198.86-.125" stroke-width=".944"/><path d="m31.6 6.074.77-.121" stroke-width=".945"/><path d="m32.37 5.952.773-.121" stroke-width=".953"/><path d="m33.14 5.831.727-.082" stroke-width=".958"/><path d="m33.87 5.749.723-.082" stroke-width=".959"/><path d="m34.59 5.667.637-.04" stroke-width=".96"/><path d="m35.23 5.628.633-.043" stroke-width=".963"/><path d="m35.86 5.585.637-.04" stroke-width=".969"/><path d="M36.49 5.546h.633" stroke-width=".973"/><path d="M37.13 5.546h.637" stroke-width=".978"/><path d="M37.76 5.546h.633" stroke-width=".981"/><path d="M38.4 5.546h.727M39.12 5.546h.68" stroke-width=".982"/><path d="m39.8 5.546.637.082" stroke-width=".99"/><path d="m40.44 5.628.633.078" stroke-width=".995"/><path d="m41.07 5.706.637.207M41.71 5.913l.586.16" stroke-width=".998"/><path d="m42.3 6.074.547.207" stroke-width=".999"/><path d="m42.84 6.281.543.242M43.39 6.523l.543.207" stroke-width="1.002"/><path d="m43.93 6.73.547.285" stroke-width="1.003"/><path d="m44.48 7.015.59.242" stroke-width="1.007"/><path d="m45.06 7.257.586.29M45.65 7.546l.637.242" stroke-width="1.008"/><path d="m46.29 7.788.633.246M46.92 8.034l.637.285" stroke-width="1.013"/><path d="m47.56 8.32.68.246" stroke-width="1.016"/><path d="m48.24 8.566.68.367" stroke-width="1.017"/><path d="m48.92 8.933.68.242" stroke-width="1.023"/><path d="m49.6 9.175.637.367" stroke-width="1.026"/><path d="m50.23 9.542.633.246" stroke-width="1.029"/><path d="m50.87 9.788.59.285M51.46 10.074l.543.328" stroke-width="1.034"/><path d="m52 10.402.547.242" stroke-width="1.035"/><g stroke-width="1.035"><path d="m52.55 10.644.543.328M53.09 10.972l.5.285M53.59 11.257l.543.328"/></g><path d="m54.13 11.585.5.285" stroke-width="1.04"/><g stroke-width="1.04"><path d="m54.63 11.87.543.324M55.17 12.196l.5.328M55.67 12.526l.496.324"/></g><path d="m56.17 12.846.5.371M56.67 13.216l.5.367" stroke-width="1.041"/><path d="m57.17 13.586.453.324M57.62 13.906l.406.367" stroke-width="1.046"/><path d="m58.03 14.276.41.328M58.44 14.606l.406.324" stroke-width="1.047"/><path d="m58.85 14.926.273.367M59.12 15.296l.363.328" stroke-width="1.048"/><g stroke-width="1.049"><path d="m59.48 15.626.36.324M59.84 15.946l.363.367M60.21 16.316l.41.45"/></g><path d="m60.62 16.766.453.45M61.07 17.216l.453.492" stroke-width="1.05"/><path d="m61.52 17.706.453.445" stroke-width="1.051"/><path d="m61.98 18.156.5.492M62.48 18.646l.496.488" stroke-width="1.055"/><path d="m62.97 19.136.453.492" stroke-width="1.058"/><path d="m63.42 19.626.363.445" stroke-width="1.059"/><path d="m63.79 20.066.363.45" stroke-width="1.06"/><path d="m64.15 20.516.273.41" stroke-width="1.063"/><g stroke-width="1.064"><path d="m64.42 20.926.316.406M64.74 21.336l.316.328M65.06 21.666l.273.367"/></g><g stroke-width="1.065"><path d="m65.33 22.026.273.324M65.6 22.356l.27.328M65.87 22.686l.227.367"/></g><g stroke-width="1.064"><path d="m66.1 23.046.273.328M66.37 23.376l.227.285M66.6 23.666l.137.324M66.74 23.986l.18.285"/></g><path d="m66.92 24.276.184.29M67.1 24.566l.18.285" stroke-width="1.065"/><g stroke-width="1.07"><path d="m67.28 24.846.18.242M67.46 25.086l.184.246M67.64 25.336l.227.246"/></g><path d="m67.87 25.586.18.285" stroke-width="1.07"/><path d="m68.05 25.866.184.285M68.23 26.156l.27.285M68.5 26.436l.184.367M68.69 26.806l.18.285" stroke-width="1.071"/><path d="m68.87 27.086.184.367" stroke-width="1.072"/><g stroke-width="1.076"><path d="m69.05 27.456.137.285M69.19 27.746l.18.328M69.37 28.066l.18.406M69.55 28.476l.137.328"/></g><path d="m69.68 28.806.184.367M69.87 29.176l.227.613" stroke-width="1.077"/><path d="m70.09 29.786.227.45" stroke-width="1.078"/><path d="m70.32 30.236.18.445" stroke-width="1.079"/><g stroke-width="1.079"><path d="m70.5 30.676.137.492M70.64 31.176l.047.324M70.68 31.496l.043.367"/></g><path d="m70.73 31.866.047.41" stroke-width="1.08"/><path d="m70.77 32.276.043.367" stroke-width="1.083"/><g stroke-width="1.084"><path d="m70.82 32.636.137.57M70.95 33.206l.09.45M71.04 33.656l.094.328"/></g><path d="m71.14 33.986.09.445" stroke-width="1.084"/><path d="m71.23 34.436.043.531" stroke-width="1.086"/><path d="m71.27 34.966.047.531" stroke-width="1.087"/><path d="m71.32 35.496.047.613" stroke-width="1.096"/><path d="m71.36 36.106.043.324" stroke-width="1.099"/><path d="M71.4 36.436v.613" stroke-width="1.109"/><path d="M71.4 37.046v.45" stroke-width="1.11"/><path d="m71.4 37.496.047.367" stroke-width="1.116"/><path d="m71.45 37.866.09.406" stroke-width="1.121"/><path d="m71.54 38.266.09.328" stroke-width="1.125"/><path d="m71.63 38.596.047.488" stroke-width="1.135"/><path d="m71.68 39.086.09.574" stroke-width="1.141"/><path d="m71.77 39.656.09.445" stroke-width="1.142"/><path d="m71.86 40.106.137.367" stroke-width="1.143"/><path d="m71.99 40.476.184.45" stroke-width="1.145"/><path d="m72.18 40.926.133.531" stroke-width="1.147"/><path d="m72.31 41.456.094.41" stroke-width="1.141"/><g stroke-dasharray="6, 3"><path d="M1.13 39.166v-.324" stroke-width=".747"/><path d="m1.13 38.846.184-.246" stroke-dashoffset=".326" stroke-width=".747"/><path d="m1.31 38.596.18-.367" stroke-dashoffset=".631" stroke-width=".748"/><path d="m1.49 38.226.273-.367" stroke-dashoffset="1.041" stroke-width=".748"/><path d="m1.76 37.866.227-.328" stroke-dashoffset="1.498" stroke-width=".749"/><path d="m1.99 37.536.227-.285" stroke-dashoffset="1.895" stroke-width=".75"/><path d="m2.22 37.246.18-.285" stroke-dashoffset="2.26" stroke-width=".751"/><path d="m2.4 36.966.184-.367" stroke-dashoffset="2.598" stroke-width=".752"/><path d="m2.58 36.596.18-.367" stroke-dashoffset="3.008" stroke-width=".752"/><g stroke-width=".752"><path d="m2.76 36.226.363-.45" stroke-dashoffset="3.417"/><path d="m3.12 35.776.27-.203" stroke-dashoffset="3.994"/><path d="m3.39 35.576.23-.285" stroke-dashoffset="4.335"/><path d="m3.62 35.296.227-.285" stroke-dashoffset="4.699"/></g><path d="m3.85 35.006.227-.285" stroke-dashoffset="5.064" stroke-width=".756"/><path d="m4.08 34.726.27-.29" stroke-dashoffset="5.428" stroke-width=".756"/><path d="m4.35 34.436.184-.242" stroke-dashoffset="5.823" stroke-width=".754"/><path d="m4.53 34.186.316-.367" stroke-dashoffset="6.128" stroke-width=".753"/><path d="m4.85 33.826.273-.328" stroke-dashoffset="6.613" stroke-width=".752"/><path d="m5.12 33.496.406-.367" stroke-dashoffset="7.038" stroke-width=".753"/><path d="m5.53 33.126.273-.242" stroke-dashoffset="7.587" stroke-width=".753"/><g stroke-width=".757"><path d="m5.8 32.886.316-.246" stroke-dashoffset="7.953"/><path d="m6.12 32.636.316-.285" stroke-dashoffset="8.354"/><path d="m6.43 32.356.316-.246" stroke-dashoffset="8.781"/></g><path d="m6.75 32.106.273-.246" stroke-dashoffset=".182" stroke-width=".756"/><path d="m7.02 31.866.273-.242" stroke-dashoffset=".548" stroke-width=".756"/><path d="m7.3 31.616.27-.164" stroke-dashoffset=".914" stroke-width=".756"/><path d="m7.56 31.456.273-.164" stroke-dashoffset="1.231" stroke-width=".755"/><path d="m7.84 31.296.406-.246" stroke-dashoffset="1.548" stroke-width=".756"/><g stroke-width=".757"><path d="m8.24 31.046.5-.242" stroke-dashoffset="2.024"/><path d="m8.74 30.806.273-.164" stroke-dashoffset="2.58"/><path d="m9.02 30.636.316-.164" stroke-dashoffset="2.897"/><path d="m9.33 30.476.363-.203" stroke-dashoffset="3.254"/></g><path d="m9.7 30.276.363-.164" stroke-dashoffset="3.67" stroke-width=".753"/><path d="m10.06 30.106.406-.164" stroke-dashoffset="4.068" stroke-width=".753"/><path d="m10.47 29.946.41-.121" stroke-dashoffset="4.507" stroke-width=".754"/><path d="m10.88 29.826.453-.164" stroke-dashoffset="4.933" stroke-width=".754"/><path d="m11.33 29.656.453-.121" stroke-dashoffset="5.415" stroke-width=".753"/><g stroke-width=".753"><path d="m11.78 29.536.496-.164" stroke-dashoffset="5.885"/><path d="m12.28 29.376.457-.121" stroke-dashoffset="6.41"/><path d="m12.74 29.256.406-.082" stroke-dashoffset="6.879"/></g><path d="m13.14 29.176.363-.121" stroke-dashoffset="7.295" stroke-width=".753"/><path d="m13.51 29.046.316-.043" stroke-dashoffset="7.678" stroke-width=".753"/><path d="m13.82 29.006.543-.121" stroke-dashoffset="7.998" stroke-width=".754"/><g stroke-width=".758"><path d="m14.37 28.886.547-.082" stroke-dashoffset="8.556"/><path d="m14.91 28.806.363-.043" stroke-dashoffset=".106"/><path d="m15.28 28.766.406-.078" stroke-dashoffset=".471"/><path d="m15.68 28.686.5-.043" stroke-dashoffset=".887"/><path d="m16.18 28.636.453-.04" stroke-dashoffset="1.388"/><path d="m16.64 28.596.496-.043" stroke-dashoffset="1.843"/><path d="m17.13 28.556.457-.04" stroke-dashoffset="2.343"/><path d="m17.59 28.516.406-.043" stroke-dashoffset="2.798"/></g><path d="m17.99 28.476.363-.04" stroke-dashoffset="3.209" stroke-width=".759"/><path d="m18.36 28.436.406-.043" stroke-dashoffset="3.574" stroke-width=".759"/><path d="m18.76 28.396.363-.04" stroke-dashoffset="3.984" stroke-width=".76"/><path d="m19.13 28.356.363-.082" stroke-dashoffset="4.349" stroke-width=".76"/><path d="m19.49 28.276.363-.082" stroke-dashoffset="4.721" stroke-width=".761"/><path d="m19.85 28.186.363-.082" stroke-dashoffset="5.092" stroke-width=".767"/><path d="m20.22 28.106.406-.082" stroke-dashoffset="5.464" stroke-width=".767"/><path d="m20.62 28.026.363-.078" stroke-dashoffset="5.88" stroke-width=".768"/><path d="m20.99 27.946.41-.082" stroke-dashoffset="6.252" stroke-width=".769"/><path d="m21.4 27.866.406-.082" stroke-dashoffset="6.668" stroke-width=".772"/><path d="m21.8 27.786.406-.043" stroke-dashoffset="7.084" stroke-width=".772"/><path d="m22.21 27.746.363-.04" stroke-dashoffset="7.494" stroke-width=".773"/><path d="m22.57 27.706.41-.043" stroke-dashoffset="7.859" stroke-width=".773"/><path d="M22.98 27.656h.453" stroke-dashoffset="8.27" stroke-width=".774"/><path d="M23.44 27.656h.453" stroke-dashoffset="8.723" stroke-width=".78"/><path d="m23.89 27.656.5-.04" stroke-dashoffset=".176" stroke-width=".785"/><path d="m24.39 27.616.59-.04" stroke-dashoffset=".677" stroke-width=".791"/><path d="m24.98 27.586.633-.043" stroke-dashoffset="1.268" stroke-width=".8"/><path d="m25.61 27.536.68-.121" stroke-dashoffset="1.904" stroke-width=".808"/><path d="m26.29 27.416.68-.203" stroke-dashoffset="2.595" stroke-width=".823"/><path d="m26.97 27.216.727-.164" stroke-dashoffset="3.305" stroke-width=".83"/><path d="m27.7 27.046.727-.164" stroke-dashoffset="4.048" stroke-width=".838"/><path d="m28.42 26.886.68-.164" stroke-dashoffset="4.792" stroke-width=".845"/><path d="m29.1 26.726.633-.082" stroke-dashoffset="5.491" stroke-width=".845"/><g stroke-width=".852"><path d="m29.74 26.636.59-.082" stroke-dashoffset="6.131"/><path d="m30.33 26.556.5-.082" stroke-dashoffset="6.726"/><path d="m30.83 26.476.5-.04" stroke-dashoffset="7.232"/></g><path d="M31.33 26.436h.406" stroke-dashoffset="7.732" stroke-width=".852"/><path d="M31.73 26.436h.316" stroke-dashoffset="8.14" stroke-width=".853"/><path d="M32.05 26.436h.363" stroke-dashoffset="8.458" stroke-width=".856"/><path d="M32.41 26.436h.363" stroke-dashoffset="8.82" stroke-width=".861"/><path d="M32.78 26.436h.363" stroke-dashoffset=".183" stroke-width=".865"/><g stroke-width=".868"><path d="M33.14 26.436h.453" stroke-dashoffset=".546"/><path d="M33.59 26.436h.453" stroke-dashoffset=".999"/><path d="M34.05 26.436h.453" stroke-dashoffset="1.453"/></g><path d="m34.5 26.436.453-.04" stroke-dashoffset="1.906" stroke-width=".876"/><path d="M34.95 26.396h.5" stroke-dashoffset="2.361" stroke-width=".879"/><path d="M35.45 26.396h.453" stroke-dashoffset="2.86" stroke-width=".882"/><path d="M35.9 26.396h.5" stroke-dashoffset="3.313" stroke-width=".893"/><path d="M36.4 26.396h.453" stroke-dashoffset="3.812" stroke-width=".906"/><path d="M36.86 26.396h.496" stroke-dashoffset="4.266" stroke-width=".914"/><path d="M37.35 26.396h.5" stroke-dashoffset="4.764" stroke-width=".919"/><path d="M37.85 26.396h.453" stroke-dashoffset="5.263" stroke-width=".924"/><path d="M38.31 26.396h.5" stroke-dashoffset="5.716" stroke-width=".934"/><path d="M38.81 26.396h.453" stroke-dashoffset="6.215" stroke-width=".948"/><path d="M39.26 26.396h.453" stroke-dashoffset="6.669" stroke-width=".955"/><path d="M39.71 26.396h.5" stroke-dashoffset="7.122" stroke-width=".962"/><path d="M40.21 26.396h.496" stroke-dashoffset="7.621" stroke-width=".962"/><path d="M40.71 26.396h.453" stroke-dashoffset="8.12" stroke-width=".964"/><path d="M41.16 26.396h.5" stroke-dashoffset="8.573" stroke-width=".969"/><path d="m41.66 26.396.453.04" stroke-dashoffset=".072" stroke-width=".972"/><path d="m42.12 26.436.453.082" stroke-dashoffset=".527" stroke-width=".974"/><path d="m42.57 26.516.453.082" stroke-dashoffset=".988" stroke-width=".977"/><path d="m43.02 26.596.5.164" stroke-dashoffset="1.448" stroke-width=".981"/><path d="m43.52 26.766.453.16" stroke-dashoffset="1.973" stroke-width=".982"/><path d="m43.98 26.926.5.164" stroke-dashoffset="2.455" stroke-width=".985"/><path d="m44.48 27.086.496.164" stroke-dashoffset="2.98" stroke-width=".989"/><path d="m44.97 27.256.5.082" stroke-dashoffset="3.505" stroke-width=".99"/><path d="m45.47 27.336.5.082" stroke-dashoffset="4.01" stroke-width=".991"/><path d="m45.97 27.416.453.121" stroke-dashoffset="4.515" stroke-width=".995"/><path d="m46.42 27.536.406.082" stroke-dashoffset="4.985" stroke-width=".995"/><path d="m46.83 27.616.41.082" stroke-dashoffset="5.401" stroke-width=".995"/><g stroke-width=".996"><path d="m47.24 27.706.633.164" stroke-dashoffset="5.817"/><path d="m47.87 27.866.543.16" stroke-dashoffset="6.473"/><path d="m48.42 28.026.363.082" stroke-dashoffset="7.041"/></g><path d="m48.78 28.106.32.082" stroke-dashoffset="7.412" stroke-width=".997"/><path d="m49.1 28.186.406.203" stroke-dashoffset="7.74" stroke-width=".997"/><path d="m49.51 28.396.453.164" stroke-dashoffset="8.196" stroke-width=".997"/><g stroke-width="1.002"><path d="m49.96 28.556.41.164" stroke-dashoffset="8.678"/><path d="m50.37 28.726.496.246" stroke-dashoffset=".118"/><path d="m50.87 28.966.453.121" stroke-dashoffset=".673"/></g><path d="m51.32 29.086.453.164" stroke-dashoffset="1.143" stroke-width="1.002"/><path d="m51.77 29.256.41.242" stroke-dashoffset="1.625" stroke-width="1.002"/><path d="m52.18 29.496.406.207" stroke-dashoffset="2.101" stroke-width="1.002"/><path d="m52.59 29.706.41.242" stroke-dashoffset="2.557" stroke-width="1.002"/><path d="m53 29.946.406.207" stroke-dashoffset="3.033" stroke-width="1.003"/><path d="m53.4 30.156.363.16" stroke-dashoffset="3.489" stroke-width="1.004"/><path d="m53.77 30.316.363.246" stroke-dashoffset="3.887" stroke-width="1.004"/><path d="m54.13 30.556.406.121" stroke-dashoffset="4.324" stroke-width="1.006"/><path d="m54.54 30.676.363.164" stroke-dashoffset="4.75" stroke-width="1.006"/><g stroke-width="1.009"><path d="m54.9 30.846.363.246" stroke-dashoffset="5.148"/><path d="m55.26 31.086.41.164" stroke-dashoffset="5.586"/><path d="m55.67 31.256.453.203" stroke-dashoffset="6.025"/><path d="m56.13 31.456.453.203" stroke-dashoffset="6.523"/></g><path d="m56.58 31.656.496.164" stroke-dashoffset="7.02" stroke-width="1.012"/><path d="m57.08 31.826.547.246" stroke-dashoffset="7.545" stroke-width="1.013"/><path d="m57.62 32.066.543.121" stroke-dashoffset="8.141" stroke-width="1.016"/><path d="m58.17 32.186.543.121" stroke-dashoffset="8.699" stroke-width="1.017"/><path d="m58.71 32.316.5.164" stroke-dashoffset=".257" stroke-width="1.018"/><path d="m59.21 32.476.453.082" stroke-dashoffset=".781" stroke-width="1.018"/><path d="m59.66 32.556.406.082" stroke-dashoffset="1.242" stroke-width="1.019"/><path d="m60.07 32.636.32.164" stroke-dashoffset="1.658" stroke-width="1.019"/><path d="m60.39 32.806.363.16" stroke-dashoffset="2.015" stroke-width="1.02"/><path d="m60.75 32.966.27.164" stroke-dashoffset="2.413" stroke-width="1.02"/><path d="m61.02 33.126.273.164" stroke-dashoffset="2.73" stroke-width="1.026"/><path d="m61.3 33.296.316.203" stroke-dashoffset="3.047" stroke-width="1.027"/><path d="m61.61 33.496.363.164" stroke-dashoffset="3.425" stroke-width="1.028"/><path d="m61.98 33.656.406.203" stroke-dashoffset="3.822" stroke-width="1.03"/><path d="m62.38 33.866.363.246" stroke-dashoffset="4.279" stroke-width="1.031"/><path d="m62.74 34.106.5.121" stroke-dashoffset="4.716" stroke-width="1.034"/><path d="m63.24 34.226.453.246" stroke-dashoffset="5.23" stroke-width="1.037"/><path d="m63.7 34.476.5.164" stroke-dashoffset="5.745" stroke-width="1.041"/><path d="m64.2 34.636.543.16" stroke-dashoffset="6.27" stroke-width="1.041"/><path d="m64.74 34.796.543.246" stroke-dashoffset="6.838" stroke-width="1.044"/><path d="m65.28 35.046.59.125" stroke-dashoffset="7.435" stroke-width="1.051"/><path d="m65.87 35.176.5.16" stroke-dashoffset="8.037" stroke-width="1.056"/><path d="m66.37 35.336.453.164" stroke-dashoffset="8.561" stroke-width="1.056"/><path d="m66.83 35.496.363.082" stroke-dashoffset=".043" stroke-width="1.057"/><path d="m67.19 35.576.316.121" stroke-dashoffset=".415" stroke-width="1.057"/><path d="m67.51 35.696.316.082" stroke-dashoffset=".755" stroke-width="1.061"/><path d="m67.82 35.776.32.125" stroke-dashoffset="1.083" stroke-width="1.062"/><path d="m68.14 35.906.543.242" stroke-dashoffset="1.423" stroke-width="1.062"/><path d="m68.69 36.146.5.246" stroke-dashoffset="2.02" stroke-width="1.063"/><path d="m69.19 36.396.496.246" stroke-dashoffset="2.575" stroke-width="1.064"/><path d="m69.68 36.636.543.242" stroke-dashoffset="3.131" stroke-width="1.064"/><path d="m70.23 36.886.457.246" stroke-dashoffset="3.728" stroke-width="1.063"/><path d="m70.68 37.126.36.285" stroke-dashoffset="4.243" stroke-width="1.063"/><g stroke-width="1.064"><path d="m71.04 37.416.32.328" stroke-dashoffset="4.705"/><path d="m71.36 37.746.316.324" stroke-dashoffset="5.16"/><path d="m71.68 38.066.273.328" stroke-dashoffset="5.615"/></g><path d="m71.95 38.396.27.242" stroke-dashoffset="6.04" stroke-width="1.065"/><path d="m72.22 38.636.363.367" stroke-dashoffset="6.406" stroke-width="1.065"/><path d="m72.58 39.006.273.328" stroke-dashoffset="6.922" stroke-width="1.062"/><path d="m72.86 39.336.18.328" stroke-dashoffset="7.347" stroke-width="1.058"/><g stroke-width="1.059"><path d="m73.04 39.656.227.445" stroke-dashoffset="7.721"/><path d="m73.26 40.106.273.492" stroke-dashoffset="8.223"/><path d="m73.54 40.596.227.406" stroke-dashoffset="8.784"/></g><path d="m73.76 41.006.18.41" stroke-dashoffset=".25" stroke-width=".991"/><path d="M73.94 41.416v.45" stroke-dashoffset=".697" stroke-width=".836"/></g></g><g stroke="#ff7f00"><path d="m6.57 23.336-.363-.164" stroke-width="1.094"/><path d="m6.21 23.176-.363-.242" stroke-width="1.097"/><path d="m5.84 22.926-.316-.207" stroke-width="1.098"/><path d="m5.53 22.726-.316-.285M5.21 22.436l-.273-.242M4.94 22.196l-.363-.285M4.57 21.906l-.316-.29" stroke-width="1.102"/><path d="m4.26 21.616-.316-.203M3.94 21.416l-.316-.242M3.62 21.176l-.273-.207" stroke-width="1.105"/><path d="m3.35 20.966-.273-.242" stroke-width="1.106"/><path d="m3.08 20.726-.27-.207" stroke-width="1.107"/><path d="m2.81 20.516-.184.45" stroke-width="1.06"/><path d="m2.62 20.966-.09.574M2.53 21.546l-.137.406" stroke-width="1.061"/><path d="M2.4 21.946v.45" stroke-width="1.06"/><path d="m2.4 22.396.047-.488" stroke-width="1.067"/><path d="m2.44 21.906.09-.492" stroke-width="1.055"/><path d="m2.53 21.416.09-.367" stroke-width="1.047"/><path d="m2.62 21.046.09-.406" stroke-width="1.041"/><path d="m2.71 20.646.047-.328" stroke-width="1.039"/><path d="m2.76 20.316.09-.367" stroke-width="1.036"/><path d="m2.85 19.946.41-.04M3.26 19.906l.363.203" stroke-width="1.006"/><path d="m3.62 20.116.36.082" stroke-width="1.012"/><path d="m3.98 20.196.41.082" stroke-width="1.019"/><path d="M4.39 20.276h.406" stroke-width="1.026"/><path d="M4.8 20.276h.363" stroke-width="1.028"/><path d="m5.16 20.276.41-.043" stroke-width=".964"/><path d="m5.57 20.236.316-.04" stroke-width=".603"/><path d="m20.22 9.827-.273-.16" stroke-width="1.055"/><path d="m19.94 9.667-.09-.328M19.85 9.339l-.137-.45M19.72 8.89l-.18-.45" stroke-width="1.058"/><path d="m19.54 8.441-.184-.367" stroke-width="1.057"/><path d="m19.35 8.074-.18-.285M19.17 7.788l-.137-.285" stroke-width="1.058"/><path d="m19.04 7.503-.137-.285" stroke-width="1.061"/><path d="m18.9 7.218-.227-.367M18.67 6.851l-.18-.285" stroke-width="1.063"/><path d="m18.49 6.566-.227-.328" stroke-width="1.062"/><path d="m18.27 6.238-.184-.367" stroke-width="1.063"/><path d="m18.08 5.87-.18-.367" stroke-width="1.064"/><path d="m17.9 5.503-.184-.324" stroke-width="1.065"/><path d="m17.72 5.179-.227-.41M17.49 4.769l-.133-.324" stroke-width="1.066"/><path d="m17.36 4.445-.184-.328" stroke-width="1.072"/><path d="M17.18 4.116 17 3.749" stroke-width="1.092"/><path d="m17 3.749-.184-.246" stroke-width="1.093"/><g stroke-width=".993"><path d="m16.82 3.503-.137.328M16.68 3.831l-.09.45M16.59 4.281v.324"/></g><path d="m16.59 4.605-.09.41" stroke-width=".995"/><path d="m16.5 5.015-.047.367" stroke-width=".988"/><path d="m16.45 5.382.047-.328" stroke-width="1.012"/><path d="m16.5 5.054.09-.324" stroke-width="1.009"/><path d="m16.59 4.73.137-.45"/><path d="m16.73 4.281.047-.45" stroke-width=".985"/><path d="M16.77 3.831v-.367" stroke-width=".983"/><path d="m16.77 3.464.316.082M17.09 3.546l.363.324" stroke-width=".927"/><path d="m17.45 3.87.363.285M17.82 4.156l.27.207" stroke-width=".928"/><path d="m18.08 4.363.363.324" stroke-width=".935"/><path d="m18.45 4.687.363.125" stroke-width=".958"/><path d="M18.81 4.812h.406" stroke-width=".975"/><path d="m46.74 8.074.227-.203" stroke-width="1.055"/><path d="m46.97 7.87.316-.406" stroke-width="1.058"/><g stroke-width="1.059"><path d="m47.28 7.464.184-.246M47.47 7.218l.18-.285M47.65 6.933l.184-.246"/></g><g stroke-width="1.06"><path d="m47.83 6.687.133-.285M47.96 6.402l.184-.246M48.15 6.156l.18-.242"/></g><path d="m48.33 5.913.363-.45" stroke-width="1.059"/><path d="m48.69 5.464.363-.41" stroke-width="1.062"/><path d="m49.05 5.054.273-.285" stroke-width="1.061"/><path d="m49.33 4.769.18-.246M49.51 4.523l.18-.285" stroke-width="1.06"/><path d="m49.69 4.238.273-.406" stroke-width="1.059"/><path d="m49.96 3.831.273-.41M50.23 3.421l.27-.324" stroke-width="1.062"/><path d="m50.5 3.097.227-.246" stroke-width="1.061"/><path d="m50.73 2.851.273-.324" stroke-width="1.062"/><path d="m51 2.527.18-.246M51.18 2.281l.273-.246" stroke-width="1.058"/><path d="m51.46 2.034.227-.285M51.68 1.749l.273-.285" stroke-width="1.057"/><path d="m51.96 1.464.18-.246" stroke-width="1.055"/><path d="m52.14 1.218.273-.203M52.41 1.015l.273-.203M52.68.812l.27-.285" stroke-width="1.052"/><path d="m52.95.527-.406.04M52.55.566l-.453.043" stroke-width="1.013"/><path d="m52.09.609-.5.082" stroke-width="1.016"/><path d="m51.59.691-.543.121" stroke-width="1.02"/><path d="m51.05.812-.32.082" stroke-width="1.024"/><path d="m50.73.894-.496.121" stroke-width="1.025"/><path d="m50.23 1.015-.363.043M49.87 1.058l-.316.078" stroke-width="1.024"/><g stroke-width=".996"><path d="m49.55 1.136.316.125M49.87 1.261h.453M50.32 1.261h.363"/></g><path d="M50.69 1.261h.316" stroke-width=".996"/><path d="m51 1.261.41-.043M51.41 1.218l.36-.04" stroke-width=".995"/><path d="M51.77 1.179h.363" stroke-width=".992"/><path d="M52.14 1.179h.41" stroke-width=".988"/><path d="M52.55 1.179h.496" stroke-width=".987"/><path d="m53.04 1.179.137.367" stroke-width="1.02"/><path d="M53.18 1.546v.406" stroke-width="1.027"/><path d="M53.18 1.952v.45" stroke-width="1.031"/><path d="M53.18 2.402v.367" stroke-width="1.032"/><path d="M53.18 2.769v.328" stroke-width="1.035"/><path d="m53.18 3.097.09.406" stroke-width="1.042"/><path d="m23.57 49.576-.273.285" stroke-width=".916"/><path d="m23.3 49.856-.137.531" stroke-width=".922"/><path d="m23.16 50.386-.09.324" stroke-width=".923"/><path d="m23.07 50.716-.137.574" stroke-width=".928"/><path d="m22.94 51.286-.09.531M22.85 51.816l-.047.324" stroke-width=".929"/><path d="m22.8 52.146-.09.57" stroke-width=".933"/><path d="m22.71 52.716-.043.531" stroke-width=".94"/><path d="m22.67 53.246-.094.45" stroke-width=".942"/><path d="m22.57 53.696-.09.406" stroke-width=".952"/><path d="m22.48 54.096-.09.45" stroke-width=".957"/><path d="m22.39 54.546-.09.656" stroke-width=".958"/><path d="m22.3 55.206-.094.324M22.21 55.526l-.043.328M22.17 55.856l-.09.406" stroke-width=".959"/><path d="m22.08 56.266-.047.328" stroke-width=".955"/><path d="m22.03 56.596-.273-.246" stroke-width="1.087"/><g stroke-width="1.091"><path d="m21.76 56.346-.27-.285M21.49 56.066l-.184-.246M21.3 55.816l-.18-.242M21.12 55.576l-.184-.45"/></g><path d="m20.94 55.126.137.406M21.08 55.526l.273.367M21.35 55.896l.18.246" stroke-width=".975"/><path d="m21.53 56.146.32.324" stroke-width=".974"/><path d="m21.85 56.466.36.328" stroke-width=".972"/><path d="m22.21 56.796.32.285" stroke-width=".968"/><path d="m22.53 57.086.453.121" stroke-width=".97"/><path d="m22.98 57.206.453-.04" stroke-width=".98"/><path d="m23.44 57.166.5-.164" stroke-width=".987"/><path d="m23.94 56.996.406-.203" stroke-width=".991"/><path d="m24.34 56.796.316-.246M24.66 56.546l.453-.285M25.11 56.266l.363-.246"/><path d="m25.48 56.016.316-.242" stroke-width="1.001"/><path d="m68.1 24.686.316-.043" stroke-width=".679"/><path d="m68.41 24.636.363-.121" stroke-width=".75"/><path d="m68.78 24.516.41-.203" stroke-width=".78"/><path d="m69.19 24.316.36-.121" stroke-width=".8"/><path d="m69.55 24.196.32-.082" stroke-width=".812"/><path d="m69.87 24.116.453-.164" stroke-width=".825"/><path d="m70.32 23.946.363-.164" stroke-width=".829"/><path d="m70.68 23.786.36-.121" stroke-width=".835"/><path d="m71.04 23.666.363-.164" stroke-width=".848"/><path d="m71.4 23.496.363-.203" stroke-width=".863"/><path d="m71.77 23.296.453-.207" stroke-width=".868"/><path d="m72.22 23.086.41-.203" stroke-width=".878"/><path d="m72.63 22.886.406-.203" stroke-width=".879"/><path d="m73.04 22.686.316-.164" stroke-width=".88"/><path d="m73.35 22.516.363-.164" stroke-width=".882"/><path d="m73.72 22.356.363-.16" stroke-width=".885"/><path d="m74.08 22.196.273-.164" stroke-width=".889"/><path d="m74.35 22.026.27-.246" stroke-width=".893"/><path d="m74.62 21.786.273-.164" stroke-width=".895"/><path d="m74.9 21.616.316-.203" stroke-width=".896"/><path d="m75.21 21.416-.316-.121" stroke-width=".969"/><path d="m74.9 21.296-.316-.082" stroke-width=".97"/><path d="m74.58 21.216-.41-.164" stroke-width=".972"/><path d="m74.17 21.046-.453-.121" stroke-width=".973"/><path d="m73.72 20.926-.363-.125" stroke-width=".974"/><g stroke-width=".974"><path d="m73.35 20.806-.316-.121M73.04 20.686l-.316-.121M72.72 20.566l-.273-.203"/></g><path d="m72.45 20.356.32-.043" stroke-width=".925"/><path d="m72.77 20.316.496.121M73.26 20.436l.453.082M73.72 20.516l.41.125M74.13 20.646l.363.16" stroke-width=".924"/><path d="m74.49 20.806.453.164" stroke-width=".925"/><g stroke-width=".925"><path d="m74.94 20.966.453.164M75.4 21.136l.27.203M75.67 21.336l.32.207"/></g><path d="m75.99 21.546.133.367" stroke-width=".937"/><path d="m76.12 21.906-.09.367" stroke-width=".971"/><path d="m76.03 22.276-.137.406" stroke-width=".979"/><path d="m75.89 22.686-.27.45M75.62 23.136l-.184.406M75.44 23.536l-.133.285" stroke-width=".988"/><path d="m75.31 23.826-.137.371" stroke-width=".99"/><path d="m75.17 24.196-.047.367" stroke-width=".992"/></g><g stroke="red"><path d="m7.34 23.666.137.324" stroke-width=".829"/><path d="m7.48 23.986.316.246" stroke-width=".844"/><path d="m7.79 24.236.32.246" stroke-width=".855"/><path d="m8.11 24.476.27.242" stroke-width=".871"/><path d="m8.38 24.726.227.285" stroke-width=".886"/><path d="m8.61 25.006.273.246" stroke-width=".906"/><path d="m8.88 25.256.273.203" stroke-width=".916"/><path d="m9.15 25.456.27.207" stroke-width=".917"/><path d="m9.42 25.666.363.242" stroke-width=".922"/><path d="m9.79 25.906.273.203" stroke-width=".925"/><path d="m10.06 26.106.27.164" stroke-width=".926"/><path d="m10.33 26.276.32.203" stroke-width=".927"/><path d="m10.65 26.476.406.207" stroke-width=".93"/><path d="m11.06 26.686.273.203" stroke-width=".932"/><path d="m11.33 26.886-.09-.328" stroke-width="1.022"/><path d="m11.24 26.556-.137-.45" stroke-width="1.023"/><path d="m11.1 26.106-.137-.367" stroke-width="1.022"/><path d="m10.97 25.746-.184-.406" stroke-width="1.009"/><path d="m10.78 25.336-.133-.285" stroke-width="1.005"/><path d="m10.65 25.046-.137.285M10.51 25.336v.613" stroke-width=".935"/><path d="m10.51 25.946.043.488" stroke-width=".936"/><path d="m10.56 26.436.137.367" stroke-width=".938"/><path d="m10.69 26.806.09.41" stroke-width=".933"/><path d="m10.78 27.216-.227.324" stroke-width=".964"/><path d="M10.56 27.536h-.316" stroke-width=".982"/><path d="M10.24 27.536h-.316" stroke-width=".997"/><path d="m20.31 11.585.137.45" stroke-width=".929"/><path d="m20.44 12.036.18.324" stroke-width=".938"/><path d="m20.62 12.356.137.328" stroke-width=".939"/><path d="m20.76 12.686.137.285" stroke-width=".943"/><path d="m20.9 12.976.18.324" stroke-width=".95"/><path d="m21.08 13.296.137.328M21.21 13.626l.184.367" stroke-width=".958"/><path d="m21.4 13.996.133.367" stroke-width=".962"/><path d="m21.53 14.356.184.406" stroke-width=".967"/><path d="m21.71 14.766.18.328M21.89 15.096l.184.246" stroke-width=".968"/><path d="m22.08 15.336.227.367M22.3 15.706l.137.285" stroke-width=".971"/><path d="m22.44 15.996.227.285M22.67 16.276l.27.367M22.94 16.646l.227.328" stroke-width=".974"/><path d="m23.16 16.976-.316.078" stroke-width="1.077"/><path d="m22.85 17.046-.406-.078" stroke-width="1.08"/><path d="m22.44 16.976-.457-.082" stroke-width="1.084"/><path d="m21.98 16.886-.316-.043" stroke-width="1.089"/><path d="m21.67 16.846-.453-.082" stroke-width="1.095"/><path d="m21.21 16.766-.316-.082" stroke-width="1.099"/><path d="m20.9 16.686-.453-.203" stroke-width="1.1"/><path d="m20.44 16.476.227.246" stroke-width="1.043"/><path d="m20.67 16.726.363.246" stroke-width="1.04"/><path d="m21.03 16.976.406.203" stroke-width="1.035"/><path d="m21.44 17.176.363.082" stroke-width="1.03"/><path d="m21.8 17.256.363.04" stroke-width="1.029"/><path d="m22.17 17.296.453.082M22.62 17.376h.316" stroke-width="1.026"/><path d="m22.94 17.376.273-.164" stroke-width="1.027"/><path d="m23.21 17.216.316-.242" stroke-width="1.028"/><path d="m23.53 16.976.363-.246" stroke-width="1.03"/><path d="m23.89 16.726.18-.246" stroke-width="1.031"/><path d="m24.07 16.476.137-.285" stroke-width="1.033"/><path d="m24.21 16.196.227-.45" stroke-width="1.035"/><path d="m24.43 15.746.184-.367" stroke-width="1.036"/><path d="m24.62 15.376.133-.324" stroke-width="1.026"/><path d="m46.79 8.605-.227.285" stroke-width=".767"/><path d="m46.56 8.89-.184.246" stroke-width=".802"/><path d="m46.38 9.136-.316.324" stroke-width=".813"/><path d="m46.06 9.46-.227.246" stroke-width=".815"/><path d="m45.83 9.706-.273.328" stroke-width=".818"/><path d="m45.56 10.034-.227.285M45.33 10.32l-.227.324" stroke-width=".82"/><path d="m45.11 10.644-.273.207" stroke-width=".821"/><path d="m44.83 10.851-.227.285" stroke-width=".829"/><path d="m44.61 11.136-.227.367" stroke-width=".83"/><path d="m44.38 11.503-.227.367" stroke-width=".829"/><path d="m44.15 11.87-.18.242" stroke-width=".844"/><path d="m43.98 12.116-.18.246" stroke-width=".857"/><path d="m43.8 12.356-.32.328" stroke-width=".871"/><path d="m43.48 12.686-.18.242" stroke-width=".904"/><path d="m43.3 12.926-.137-.45" stroke-width=".997"/><path d="m43.16 12.476-.18-.324" stroke-width=".99"/><path d="m42.98 12.156-.137-.41" stroke-width=".977"/><path d="m42.84 11.745-.047-.367" stroke-width=".978"/><path d="m42.8 11.378.09.367" stroke-width=".923"/><path d="m42.89 11.745.137.367" stroke-width=".926"/><path d="m43.02 12.116.184.45" stroke-width=".927"/><path d="m43.21 12.566.133.367" stroke-width=".932"/><path d="m43.34 12.926.137.328" stroke-width=".934"/><path d="M43.48 13.256h.547" stroke-width=".921"/><path d="m44.02 13.256.316-.121" stroke-width=".923"/><path d="m44.34 13.136.406-.164" stroke-width=".924"/><path d="m44.74 12.976.363-.082" stroke-width=".928"/><path d="m45.11 12.886.41-.164" stroke-width=".932"/><path d="m45.52 12.726.496-.203M46.01 12.526l.363-.203" stroke-width=".933"/><path d="m46.38 12.316.316-.164" stroke-width=".934"/><path d="m67.05 25.376-.406.043" stroke-width=".994"/><path d="m66.65 25.416-.41.246" stroke-width=".998"/><path d="m66.24 25.666-.273.16M65.96 25.826l-.36.207" stroke-width="1.003"/><path d="m65.6 26.026-.32.203" stroke-width=".99"/><path d="m65.28 26.236-.406.203" stroke-width=".987"/><path d="m64.88 26.436-.453.203" stroke-width=".982"/><g stroke-width=".982"><path d="m64.42 26.636-.41.207M64.01 26.846l-.406.324M63.61 27.176l-.316.285"/></g><path d="m63.29 27.456-.32.164" stroke-width=".991"/><path d="m62.97 27.616-.27.246" stroke-width=".999"/><path d="m62.7 27.866-.41.121" stroke-width="1.017"/><path d="m62.29 27.986-.137-.406" stroke-width="1.027"/><path d="M62.15 27.586v-.367" stroke-width="1.031"/><path d="m62.15 27.216-.043-.41" stroke-width="1.025"/><path d="M62.11 26.806v-.367" stroke-width="1.017"/><path d="M62.11 26.436v-.367" stroke-width="1.01"/><path d="m62.11 26.066.137.406" stroke-width=".946"/><path d="m62.25 26.476.09.574" stroke-width=".943"/><path d="m62.34 27.046.137.531" stroke-width=".921"/><path d="m62.48 27.586.09.324" stroke-width=".905"/><path d="m62.56 27.906.137.328M62.7 28.236l.043.45" stroke-width=".897"/><path d="m62.74 28.686.32.078" stroke-width=".961"/><path d="m63.06 28.766.406-.078" stroke-width=".974"/><path d="m63.47 28.686.543-.082" stroke-width=".988"/><path d="m64.01 28.596.5-.082" stroke-width=".999"/><path d="m64.51 28.516.363-.043" stroke-width="1.003"/><path d="m64.88 28.476.406-.121" stroke-width="1.008"/><path d="m65.28 28.356.363-.082M65.65 28.276l.363-.04" stroke-width="1.009"/><path d="M66.01 28.236h.316" stroke-width="1.014"/><path d="m23.57 48.876.137-.367" stroke-width=".896"/><path d="m23.71 48.506.18-.488" stroke-width=".904"/><path d="m23.89 48.026.09-.488" stroke-width=".911"/><g stroke-width=".914"><path d="m23.98 47.536.09-.367M24.07 47.166l.047-.328M24.12 46.836l.137-.324"/></g><path d="m24.25 46.516.137-.41" stroke-width=".91"/><path d="m24.39 46.106.133-.367" stroke-width=".898"/><path d="m24.52 45.736.184-.328" stroke-width=".89"/><path d="m24.71 45.406.18-.324M24.89 45.086l.137-.285M25.02 44.796l.09-.367" stroke-width=".885"/><path d="m25.11 44.436.137-.41" stroke-width=".879"/><path d="m25.25 44.026.137-.285" stroke-width=".874"/><path d="m25.39 43.736.137-.367" stroke-width=".823"/><path d="m25.52 43.366-.316.203" stroke-width=".79"/><path d="m25.21 43.576-.273.164" stroke-width=".795"/><path d="m24.93 43.736-.273.164" stroke-width=".8"/><path d="m24.66 43.906-.363.246M24.3 44.146l-.27.16" stroke-width=".801"/><path d="m24.03 44.306-.316.164" stroke-width=".795"/><path d="m23.71 44.476-.23.203" stroke-width=".794"/><path d="m23.48 44.676-.227.246" stroke-width=".789"/><path d="m23.25 44.926.227-.285" stroke-width=".806"/><path d="m23.48 44.636.273-.203" stroke-width=".809"/><path d="m23.75 44.436.41-.246M24.16 44.186l.496-.164" stroke-width=".812"/><path d="m24.66 44.026.363-.121" stroke-width=".817"/><path d="m25.02 43.906.41-.164" stroke-width=".821"/><path d="m25.43 43.736.406.328" stroke-width=".876"/><path d="m25.84 44.066.227.324" stroke-width=".895"/><path d="m26.06 44.386.273.41" stroke-width=".904"/><path d="m26.34 44.796.363.324" stroke-width=".908"/><path d="m26.7 45.126.27.246" stroke-width=".916"/><path d="m26.97 45.366.363.328" stroke-width=".929"/><path d="m27.33 45.696.273.203" stroke-width=".938"/><path d="m27.61 45.906.27.285" stroke-width=".946"/></g></g></svg>