<svg width="99.251" height="89.687" version="1.2" viewBox="0 0 74.438 67.265" xmlns="http://www.w3.org/2000/svg"><g fill="none" stroke-linecap="round" stroke-linejoin="round" stroke-miterlimit="10"><g stroke="#00bfff"><path d="m.62 56.94.09.41M.71 57.35l.18.285M.89 57.64l.273.324M1.17 57.96l.18.246" stroke-width=".716"/><path d="m1.35 58.21.363.367" stroke-width=".717"/><g stroke-width=".717"><path d="m1.71 58.57.184.246M1.89 58.82l.227.324M2.12 59.14l.27.246M2.39 59.39l.32.203"/></g><g stroke-width=".716"><path d="m2.71 59.59.316.164M3.03 59.76l.363.164M3.39 59.92l.453.324M3.84 60.25l.406.41"/></g><path d="m4.25 60.66.5.367" stroke-width=".717"/><g stroke-width=".718"><path d="m4.75 61.02.273.203M5.02 61.23l.316.246M5.34 61.47l.363.203"/></g><path d="m5.7 61.68.363.246M6.07 61.92l.406.203M6.47 62.13l.406.164" stroke-width=".717"/><path d="m6.88 62.29.457.242M7.34 62.53l.453.125" stroke-width=".716"/><path d="m7.79 62.66.453.164" stroke-width=".713"/><path d="m8.24 62.82.496.16" stroke-width=".712"/><path d="m8.74 62.98.453.125M9.19 63.11l.41.121" stroke-width=".708"/><path d="m9.6 63.23.453.082" stroke-width=".703"/><path d="m10.05 63.31.406.121" stroke-width=".702"/><path d="m10.46 63.43.41.082M10.87 63.51l.363.082" stroke-width=".699"/><path d="m11.23 63.59.363.082M11.6 63.68l.406.121" stroke-width=".703"/><path d="m12 63.8.637.164" stroke-width=".706"/><path d="m12.64 63.96.586.203M13.23 64.16l.32.082" stroke-width=".704"/><path d="m13.55 64.25.633.164" stroke-width=".705"/><path d="m14.18 64.41.363.082M14.54 64.49l.41.121" stroke-width=".706"/><g stroke-width=".707"><path d="m14.95 64.61.406.125M15.36 64.74l.41.121M15.77 64.86l.453.121"/></g><path d="m16.22 64.98.496.125" stroke-width=".706"/><path d="m16.72 65.11.547.121M17.27 65.23l.586.082" stroke-width=".695"/><path d="m17.85 65.31.637.121M18.49 65.43l.633.082" stroke-width=".684"/><path d="m19.12 65.51.684.082" stroke-width=".686"/><path d="m19.8 65.59.68.04" stroke-width=".689"/><path d="m20.48 65.63.723.082M21.21 65.72l.773.043" stroke-width=".69"/><path d="m21.98 65.76.77.04" stroke-width=".691"/><path d="m22.75 65.8.816.043" stroke-width=".696"/><path d="M23.57 65.84h.77" stroke-width=".697"/><path d="m24.34 65.84.816.04M25.15 65.88l.773.04" stroke-width=".698"/><path d="m25.93 65.92.77.043M26.69 65.96l.77.04" stroke-width=".699"/><path d="M27.46 66h.727M28.19 66l.77.043M28.96 66.04l.68.04" stroke-width=".703"/><path d="m29.64 66.08.727.043M30.37 66.13l.637.04M31 66.16l.633.082" stroke-width=".704"/><path d="m31.64 66.25.59.04" stroke-width=".709"/><path d="m32.23 66.29.543.082" stroke-width=".712"/><path d="m32.77 66.37.59.043" stroke-width=".716"/><path d="m33.36 66.41.543.04" stroke-width=".717"/><path d="m33.9 66.45.547.082" stroke-width=".721"/><path d="m34.45 66.53.59.043" stroke-width=".725"/><path d="m35.04 66.57.543.078" stroke-width=".732"/><path d="m35.58 66.65.59.082" stroke-width=".738"/><path d="m36.17 66.73.59.043" stroke-width=".746"/><path d="m36.76 66.78.59.04" stroke-width=".755"/><path d="m37.35 66.82.633.043" stroke-width=".76"/><path d="M37.98 66.86h.59" stroke-width=".768"/><path d="M38.57 66.86h.633" stroke-width=".775"/><path d="M39.21 66.86h.637" stroke-width=".786"/><path d="M39.84 66.86h.68" stroke-width=".795"/><path d="M40.52 66.86h.77" stroke-width=".801"/><path d="m41.29 66.86.773-.043" stroke-width=".805"/><path d="M42.07 66.82h.816" stroke-width=".808"/><path d="m42.88 66.82.816-.082" stroke-width=".812"/><path d="m43.7 66.73.812-.082" stroke-width=".823"/><path d="m44.51 66.65.863-.078" stroke-width=".831"/><path d="m45.37 66.57.906-.125" stroke-width=".836"/><path d="m46.28 66.45.816-.121" stroke-width=".842"/><path d="m47.1 66.33.863-.082" stroke-width=".845"/><path d="m47.96 66.25.77-.121" stroke-width=".851"/><path d="m48.73 66.13.727-.125" stroke-width=".858"/><path d="m49.46 66 .68-.121" stroke-width=".863"/><path d="m50.14 65.88.633-.082M50.77 65.8l.59-.121" stroke-width=".866"/><path d="m51.36 65.68.59-.125" stroke-width=".868"/><path d="m51.95 65.55.543-.078M52.49 65.47l.5-.125" stroke-width=".871"/><path d="m52.99 65.35.5-.121M53.49 65.23l.453-.121" stroke-width=".875"/><path d="m53.95 65.11.496-.125M54.44 64.98l.5-.121" stroke-width=".876"/><path d="m54.94 64.86.5-.121M55.44 64.74l.496-.207" stroke-width=".877"/><path d="m55.94 64.53.5-.164M56.44 64.37l.453-.16" stroke-width=".882"/><path d="m56.89 64.21.41-.164M57.3 64.04l.406-.121" stroke-width=".879"/><path d="m57.71 63.92.41-.125" stroke-width=".883"/><path d="m58.12 63.8.406-.121" stroke-width=".884"/><path d="m58.52 63.68.453-.164M58.98 63.51l.453-.203" stroke-width=".885"/><path d="m59.43 63.31.547-.246" stroke-width=".888"/><path d="m59.98 63.06.586-.324" stroke-width=".889"/><path d="m60.56 62.74.727-.328" stroke-width=".903"/><path d="m61.29 62.41.816-.406" stroke-width=".913"/><g stroke-width=".918"><path d="m62.11 62 .863-.41M62.97 61.59l.816-.324M63.78 61.27l.723-.328"/></g><g stroke-width=".919"><path d="m64.51 60.94.637-.285M65.14 60.66l.543-.203M65.69 60.45l.453-.246"/></g><path d="m66.14 60.21.41-.164" stroke-width=".92"/><path d="m66.55 60.04.316-.164M66.87 59.88l.363-.121" stroke-width=".921"/><path d="m67.23 59.76.59-.285" stroke-width=".922"/><path d="m67.82 59.47.36-.164M68.18 59.31l.32-.203M68.5 59.11l.363-.203M68.86 58.9l.496-.285" stroke-width=".927"/><path d="m69.36 58.62.5-.246M69.86 58.37l.316-.203" stroke-width=".928"/><path d="m70.18 58.17.363-.207M70.54 57.96l.316-.16" stroke-width=".929"/><path d="m70.86 57.8.273-.246" stroke-width=".934"/><path d="m71.13 57.56.406-.328M71.53 57.23l.227-.242" stroke-width=".941"/><path d="m71.76 56.98.227-.246" stroke-width=".919"/><path d="m.67 56.82-.227-.203" stroke-width=".797"/><path d="m.44 56.62-.043-.45" stroke-width=".798"/><path d="M.4 56.17v-.367M.4 55.8v-.367" stroke-width=".799"/><path d="M.4 55.43v-.45M.4 54.98l.043-.488" stroke-width=".796"/><path d="m.44 54.5.09-.492" stroke-width=".799"/><path d="m.53 54 .094-.488M.62 53.52l.09-.45M.71 53.07l.137-.45" stroke-width=".8"/><path d="m.85 52.62.137-.367M.99 52.25l.133-.367M1.12 51.88l.137-.367" stroke-width=".801"/><path d="m1.26 51.52.09-.367M1.35 51.15l.184-.406" stroke-width=".802"/><path d="m1.53 50.74.18-.492" stroke-width=".803"/><path d="m1.71 50.25.273-.57M1.98 49.68l.227-.652M2.21 49.03l.273-.734" stroke-width=".804"/><path d="m2.48 48.29.36-.777" stroke-width=".807"/><g stroke-width=".808"><path d="m2.84 47.52.363-.855M3.21 46.66l.453-.855M3.66 45.8l.453-.898"/></g><path d="m4.11 44.91.457-.898M4.57 44.01l.453-.855" stroke-width=".807"/><path d="m5.02 43.15.496-.816M5.52 42.34l.453-.777M5.97 41.56l.5-.734" stroke-width=".808"/><path d="m6.47 40.82.453-.734M6.93 40.09l.5-.773" stroke-width=".81"/><path d="m7.43 39.32.543-.777" stroke-width=".814"/><path d="m7.97 38.54.543-.773" stroke-width=".819"/><path d="m8.51 37.77.5-.777" stroke-width=".825"/><path d="m9.01 36.99.543-.691" stroke-width=".831"/><path d="m9.55 36.3.453-.656" stroke-width=".834"/><path d="m10.01 35.64.453-.57" stroke-width=".835"/><path d="m10.46 35.07.41-.531M10.87 34.54l.453-.488" stroke-width=".838"/><path d="m11.32 34.05.453-.488M11.78 33.56l.5-.492" stroke-width=".839"/><path d="m12.28 33.07.543-.488M12.82 32.58l.59-.488" stroke-width=".844"/><path d="m13.41 32.09.633-.531" stroke-width=".845"/><path d="m14.04 31.56.684-.57" stroke-width=".846"/><path d="m14.73 30.99.68-.531" stroke-width=".853"/><path d="m15.41 30.46.68-.531" stroke-width=".862"/><path d="m16.09 29.93.723-.57" stroke-width=".871"/><path d="m16.81 29.36.773-.531" stroke-width=".877"/><path d="m17.58 28.83.77-.57" stroke-width=".881"/><path d="m18.35 28.26.77-.531M19.12 27.73l.727-.488" stroke-width=".884"/><path d="m19.85 27.24.727-.45" stroke-width=".885"/><g stroke-width=".889"><path d="m20.57 26.79.68-.41M21.25 26.38l.68-.324M21.93 26.06l.68-.328"/></g><path d="m22.61 25.73.637-.246" stroke-width=".893"/><path d="m23.25 25.48.633-.285" stroke-width=".896"/><path d="m23.88 25.2.637-.324M24.52 24.87l.633-.285" stroke-width=".901"/><path d="m25.15 24.59.68-.29" stroke-width=".914"/><path d="m25.83 24.3.773-.324" stroke-width=".922"/><path d="m26.61 23.97.77-.246" stroke-width=".923"/><path d="m27.37 23.73.816-.242" stroke-width=".927"/><path d="m28.19 23.48.816-.246" stroke-width=".934"/><path d="m29.01 23.24.86-.203" stroke-width=".938"/><path d="m29.87 23.04.863-.164" stroke-width=".941"/><path d="m30.73 22.87.86-.125" stroke-width=".944"/><path d="m31.59 22.75.773-.121" stroke-width=".945"/><path d="m32.36 22.63.77-.121" stroke-width=".953"/><path d="m33.13 22.5.727-.082" stroke-width=".958"/><path d="m33.86 22.42.723-.082" stroke-width=".959"/><path d="m34.58 22.34.637-.04" stroke-width=".96"/><path d="m35.22 22.3.633-.043" stroke-width=".963"/><path d="m35.85 22.26.637-.04" stroke-width=".969"/><path d="M36.49 22.22h.637" stroke-width=".973"/><path d="M37.12 22.22h.633" stroke-width=".978"/><path d="M37.76 22.22h.637" stroke-width=".981"/><path d="M38.39 22.22h.723M39.12 22.22h.68" stroke-width=".982"/><path d="m39.8 22.22.637.082" stroke-width=".99"/><path d="m40.43 22.3.633.078" stroke-width=".995"/><path d="m41.07 22.38.637.207M41.7 22.59l.59.16" stroke-width=".998"/><path d="m42.29 22.75.543.207" stroke-width=".999"/><path d="m42.84 22.95.543.242M43.38 23.2l.547.207" stroke-width="1.002"/><path d="m43.93 23.4.543.285" stroke-width="1.003"/><path d="m44.47 23.69.59.242" stroke-width="1.007"/><path d="m45.06 23.93.59.29M45.65 24.22l.633.242" stroke-width="1.008"/><path d="m46.28 24.46.637.246M46.92 24.71l.633.285" stroke-width="1.013"/><path d="m47.55 24.99.68.246" stroke-width="1.016"/><path d="m48.23 25.24.68.367" stroke-width="1.017"/><path d="m48.91 25.61.68.242" stroke-width="1.023"/><path d="m49.59 25.85.637.367" stroke-width="1.026"/><path d="m50.23 26.22.633.246" stroke-width="1.029"/><path d="m50.86 26.46.59.285M51.45 26.75l.547.328" stroke-width="1.034"/><path d="m52 27.07.543.242" stroke-width="1.035"/><g stroke-width="1.035"><path d="m52.54 27.32.543.328M53.08 27.64l.5.285M53.58 27.93l.543.328"/></g><path d="m54.12 28.26.5.285" stroke-width="1.04"/><g stroke-width="1.04"><path d="m54.62 28.54.543.324M55.17 28.87l.5.328M55.67 29.2l.5.328"/></g><path d="m56.17 29.52.496.367M56.66 29.89l.5.367" stroke-width="1.041"/><path d="m57.16 30.26.453.324M57.62 30.58l.406.367" stroke-width="1.046"/><path d="m58.02 30.95.41.328M58.43 31.28l.406.324" stroke-width="1.047"/><path d="m58.84 31.6.273.367M59.11 31.97l.363.328" stroke-width="1.048"/><g stroke-width="1.049"><path d="m59.48 32.3.363.324M59.84 32.62l.363.367M60.2 32.99l.406.45"/></g><path d="m60.61 33.44.453.45M61.06 33.89l.453.492" stroke-width="1.05"/><path d="m61.52 34.38.453.45" stroke-width="1.051"/><path d="m61.97 34.83.5.488M62.47 35.32l.5.488" stroke-width="1.055"/><path d="m62.97 35.8.453.492" stroke-width="1.058"/><path d="m63.42 36.3.363.45" stroke-width="1.059"/><path d="m63.78 36.75.36.445" stroke-width="1.06"/><path d="m64.14 37.19.273.41" stroke-width="1.063"/><g stroke-width="1.064"><path d="m64.42 37.6.316.406M64.73 38.01l.32.328M65.05 38.34l.27.367"/></g><g stroke-width="1.065"><path d="m65.32 38.7.273.324M65.6 39.03l.27.328M65.87 39.36l.23.367"/></g><g stroke-width="1.064"><path d="m66.1 39.72.27.328M66.37 40.05l.227.285M66.59 40.34l.137.324M66.73 40.66l.18.285"/></g><path d="m66.91 40.95.184.29M67.09 41.23l.18.285" stroke-width="1.065"/><g stroke-width="1.07"><path d="m67.27 41.52.184.242M67.46 41.76l.18.246M67.64 42.01l.227.246"/></g><path d="m67.86 42.25.184.285" stroke-width="1.07"/><path d="m68.05 42.54.18.285M68.23 42.82l.273.285M68.5 43.11l.18.367M68.68 43.48l.184.285" stroke-width="1.071"/><path d="m68.86 43.76.18.367" stroke-width="1.072"/><g stroke-width="1.076"><path d="m69.04 44.13.137.285M69.18 44.41l.18.328M69.36 44.74l.184.406M69.54 45.15l.133.328"/></g><path d="m69.68 45.48.184.367M69.86 45.84l.227.613" stroke-width="1.077"/><path d="m70.09 46.46.227.45" stroke-width="1.078"/><path d="m70.31 46.91.18.445" stroke-width="1.079"/><g stroke-width="1.079"><path d="m70.49 47.35.137.492M70.63 47.84l.047.324M70.68 48.17l.043.367"/></g><path d="m70.72 48.54.047.41" stroke-width="1.08"/><path d="m70.77 48.95.047.367" stroke-width="1.083"/><g stroke-width="1.084"><path d="m70.81 49.31.133.57M70.95 49.88l.094.45M71.04 50.33l.09.328"/></g><path d="m71.13 50.66.09.45" stroke-width="1.084"/><path d="m71.22 51.11.047.527" stroke-width="1.086"/><path d="m71.27 51.64.043.531" stroke-width="1.087"/><path d="m71.31 52.17.047.613" stroke-width="1.096"/><path d="m71.36 52.78.047.324" stroke-width="1.099"/><path d="M71.4 53.11v.613" stroke-width="1.109"/><path d="M71.4 53.72v.45" stroke-width="1.11"/><path d="m71.4 54.17.043.367" stroke-width="1.116"/><path d="m71.45 54.54.09.406" stroke-width="1.121"/><path d="m71.53 54.94.094.328" stroke-width="1.125"/><path d="m71.63 55.27.043.488" stroke-width="1.135"/><path d="m71.67 55.76.09.574" stroke-width="1.141"/><path d="m71.76 56.33.094.45" stroke-width="1.142"/><path d="m71.86 56.78.133.367" stroke-width="1.143"/><path d="m71.99 57.15.184.445" stroke-width="1.145"/><path d="m72.17 57.59.137.531" stroke-width="1.147"/><path d="m72.31 58.13.09.41" stroke-width="1.141"/><g stroke-dasharray="6, 3"><path d="M1.12 55.84v-.324" stroke-width=".747"/><path d="m1.12 55.52.184-.246" stroke-dashoffset=".326" stroke-width=".747"/><path d="m1.3 55.27.18-.367" stroke-dashoffset=".631" stroke-width=".748"/><path d="m1.48 54.9.273-.367" stroke-dashoffset="1.041" stroke-width=".748"/><path d="m1.76 54.54.227-.328" stroke-dashoffset="1.498" stroke-width=".749"/><path d="m1.98 54.21.227-.285" stroke-dashoffset="1.895" stroke-width=".75"/><path d="m2.21 53.92.18-.285" stroke-dashoffset="2.26" stroke-width=".751"/><path d="m2.39 53.64.184-.367" stroke-dashoffset="2.598" stroke-width=".752"/><path d="m2.57 53.27.18-.367" stroke-dashoffset="3.008" stroke-width=".752"/><g stroke-width=".752"><path d="m2.75 52.9.363-.45" stroke-dashoffset="3.417"/><path d="m3.12 52.45.273-.203" stroke-dashoffset="3.994"/><path d="m3.39 52.25.227-.285" stroke-dashoffset="4.335"/><path d="m3.62 51.97.227-.285" stroke-dashoffset="4.699"/></g><path d="m3.84 51.68.227-.285" stroke-dashoffset="5.064" stroke-width=".756"/><path d="m4.07 51.39.27-.285" stroke-dashoffset="5.428" stroke-width=".756"/><path d="m4.34 51.11.184-.246" stroke-dashoffset="5.823" stroke-width=".754"/><path d="m4.52 50.86.316-.367" stroke-dashoffset="6.128" stroke-width=".753"/><path d="m4.84 50.5.273-.328" stroke-dashoffset="6.613" stroke-width=".752"/><path d="m5.11 50.17.406-.367" stroke-dashoffset="7.038" stroke-width=".753"/><path d="m5.52 49.8.273-.242" stroke-dashoffset="7.587" stroke-width=".753"/><g stroke-width=".757"><path d="m5.79 49.56.316-.246" stroke-dashoffset="7.953"/><path d="m6.11 49.31.316-.285" stroke-dashoffset="8.354"/><path d="m6.43 49.03.32-.246" stroke-dashoffset="8.781"/></g><path d="m6.75 48.78.27-.246" stroke-dashoffset=".182" stroke-width=".756"/><path d="m7.02 48.54.273-.242" stroke-dashoffset=".548" stroke-width=".756"/><path d="m7.29 48.29.273-.164" stroke-dashoffset=".914" stroke-width=".756"/><path d="m7.56 48.13.27-.164" stroke-dashoffset="1.231" stroke-width=".755"/><path d="m7.83 47.97.41-.246" stroke-dashoffset="1.548" stroke-width=".756"/><g stroke-width=".757"><path d="m8.24 47.72.496-.242" stroke-dashoffset="2.024"/><path d="m8.74 47.48.273-.164" stroke-dashoffset="2.58"/><path d="m9.01 47.31.316-.164" stroke-dashoffset="2.897"/><path d="m9.33 47.15.363-.203" stroke-dashoffset="3.254"/></g><path d="m9.69 46.95.363-.164" stroke-dashoffset="3.67" stroke-width=".753"/><path d="m10.05 46.78.406-.164" stroke-dashoffset="4.068" stroke-width=".753"/><path d="m10.46 46.62.41-.121" stroke-dashoffset="4.507" stroke-width=".754"/><path d="m10.87 46.5.453-.164" stroke-dashoffset="4.933" stroke-width=".754"/><path d="m11.32 46.33.453-.121" stroke-dashoffset="5.415" stroke-width=".753"/><g stroke-width=".753"><path d="m11.78 46.21.5-.164" stroke-dashoffset="5.885"/><path d="m12.28 46.05.453-.121" stroke-dashoffset="6.41"/><path d="m12.73 45.93.406-.082" stroke-dashoffset="6.879"/></g><path d="m13.14 45.84.363-.121" stroke-dashoffset="7.295" stroke-width=".753"/><path d="m13.5 45.72.316-.043" stroke-dashoffset="7.678" stroke-width=".753"/><path d="m13.82 45.68.547-.121" stroke-dashoffset="7.998" stroke-width=".754"/><g stroke-width=".758"><path d="m14.36 45.56.543-.082" stroke-dashoffset="8.556"/><path d="m14.91 45.48.363-.04" stroke-dashoffset=".106"/><path d="m15.27 45.44.406-.082" stroke-dashoffset=".471"/><path d="m15.68 45.36.5-.043" stroke-dashoffset=".887"/><path d="m16.18 45.31.453-.04" stroke-dashoffset="1.388"/><path d="m16.63 45.27.5-.043" stroke-dashoffset="1.843"/><path d="m17.13 45.23.453-.04" stroke-dashoffset="2.343"/><path d="m17.58 45.19.406-.043" stroke-dashoffset="2.798"/></g><path d="m17.99 45.15.363-.04" stroke-dashoffset="3.209" stroke-width=".759"/><path d="m18.35 45.11.41-.04" stroke-dashoffset="3.574" stroke-width=".759"/><path d="m18.76 45.07.36-.043" stroke-dashoffset="3.984" stroke-width=".76"/><path d="m19.12 45.03.363-.082" stroke-dashoffset="4.349" stroke-width=".76"/><path d="m19.48 44.95.363-.082" stroke-dashoffset="4.721" stroke-width=".761"/><path d="m19.85 44.86.363-.082" stroke-dashoffset="5.092" stroke-width=".767"/><path d="m20.21 44.78.406-.082" stroke-dashoffset="5.464" stroke-width=".767"/><path d="m20.62 44.7.363-.078" stroke-dashoffset="5.88" stroke-width=".768"/><path d="m20.98 44.62.41-.082" stroke-dashoffset="6.252" stroke-width=".769"/><path d="m21.39 44.54.406-.082" stroke-dashoffset="6.668" stroke-width=".772"/><path d="m21.8 44.46.41-.043" stroke-dashoffset="7.084" stroke-width=".772"/><path d="m22.21 44.41.363-.04" stroke-dashoffset="7.494" stroke-width=".773"/><path d="m22.57 44.38.406-.043" stroke-dashoffset="7.859" stroke-width=".773"/><path d="M22.98 44.33h.453" stroke-dashoffset="8.27" stroke-width=".774"/><path d="M23.43 44.33h.453" stroke-dashoffset="8.723" stroke-width=".78"/><path d="m23.88 44.33.5-.04" stroke-dashoffset=".176" stroke-width=".785"/><path d="m24.38 44.29.59-.04" stroke-dashoffset=".677" stroke-width=".791"/><path d="m24.97 44.25.633-.043" stroke-dashoffset="1.268" stroke-width=".8"/><path d="m25.61 44.21.68-.121" stroke-dashoffset="1.904" stroke-width=".808"/><path d="m26.28 44.09.68-.203" stroke-dashoffset="2.595" stroke-width=".823"/><path d="m26.96 43.89.727-.164" stroke-dashoffset="3.305" stroke-width=".83"/><path d="m27.69 43.72.727-.164" stroke-dashoffset="4.048" stroke-width=".838"/><path d="m28.42 43.56.68-.164" stroke-dashoffset="4.792" stroke-width=".845"/><path d="m29.1 43.39.637-.082" stroke-dashoffset="5.491" stroke-width=".845"/><g stroke-width=".852"><path d="m29.73 43.31.586-.082" stroke-dashoffset="6.131"/><path d="m30.32 43.23.5-.078" stroke-dashoffset="6.726"/><path d="m30.82 43.15.5-.043" stroke-dashoffset="7.232"/></g><path d="M31.32 43.11h.406" stroke-dashoffset="7.732" stroke-width=".852"/><path d="M31.73 43.11h.316" stroke-dashoffset="8.14" stroke-width=".853"/><path d="M32.04 43.11h.363" stroke-dashoffset="8.458" stroke-width=".856"/><path d="M32.41 43.11h.363" stroke-dashoffset="8.82" stroke-width=".861"/><path d="M32.77 43.11h.363" stroke-dashoffset=".183" stroke-width=".865"/><g stroke-width=".868"><path d="M33.13 43.11h.453" stroke-dashoffset=".546"/><path d="M33.59 43.11h.453" stroke-dashoffset=".999"/><path d="M34.04 43.11h.453" stroke-dashoffset="1.453"/></g><path d="m34.49 43.11.453-.04" stroke-dashoffset="1.906" stroke-width=".876"/><path d="M34.95 43.07h.5" stroke-dashoffset="2.361" stroke-width=".879"/><path d="M35.45 43.07h.453" stroke-dashoffset="2.86" stroke-width=".882"/><path d="M35.9 43.07h.5" stroke-dashoffset="3.313" stroke-width=".893"/><path d="M36.4 43.07h.453" stroke-dashoffset="3.812" stroke-width=".906"/><path d="M36.85 43.07h.5" stroke-dashoffset="4.266" stroke-width=".914"/><path d="M37.35 43.07h.496" stroke-dashoffset="4.764" stroke-width=".919"/><path d="M37.85 43.07h.453" stroke-dashoffset="5.263" stroke-width=".924"/><path d="M38.3 43.07h.5" stroke-dashoffset="5.716" stroke-width=".934"/><path d="M38.8 43.07h.453" stroke-dashoffset="6.215" stroke-width=".948"/><path d="M39.25 43.07h.453" stroke-dashoffset="6.669" stroke-width=".955"/><path d="M39.71 43.07h.5" stroke-dashoffset="7.122" stroke-width=".962"/><path d="M40.21 43.07h.496" stroke-dashoffset="7.621" stroke-width=".962"/><path d="M40.7 43.07h.457" stroke-dashoffset="8.12" stroke-width=".964"/><path d="M41.16 43.07h.496" stroke-dashoffset="8.573" stroke-width=".969"/><path d="m41.66 43.07.453.04" stroke-dashoffset=".072" stroke-width=".972"/><path d="m42.11 43.11.453.082" stroke-dashoffset=".527" stroke-width=".974"/><path d="m42.56 43.19.453.082" stroke-dashoffset=".988" stroke-width=".977"/><path d="m43.02 43.27.5.164" stroke-dashoffset="1.448" stroke-width=".981"/><path d="m43.52 43.44.453.16" stroke-dashoffset="1.973" stroke-width=".982"/><path d="m43.97 43.6.5.164" stroke-dashoffset="2.455" stroke-width=".985"/><path d="m44.47 43.76.5.164" stroke-dashoffset="2.98" stroke-width=".989"/><path d="m44.97 43.93.496.082" stroke-dashoffset="3.505" stroke-width=".99"/><path d="m45.46 44.01.5.082" stroke-dashoffset="4.01" stroke-width=".991"/><path d="m45.96 44.09.453.121" stroke-dashoffset="4.515" stroke-width=".995"/><path d="m46.42 44.21.406.082" stroke-dashoffset="4.985" stroke-width=".995"/><path d="m46.82 44.29.41.082" stroke-dashoffset="5.401" stroke-width=".995"/><g stroke-width=".996"><path d="m47.23 44.38.633.164" stroke-dashoffset="5.817"/><path d="m47.87 44.54.547.16" stroke-dashoffset="6.473"/><path d="m48.41 44.7.363.082" stroke-dashoffset="7.041"/></g><path d="m48.78 44.78.316.082" stroke-dashoffset="7.412" stroke-width=".997"/><path d="m49.09 44.86.406.207" stroke-dashoffset="7.74" stroke-width=".997"/><path d="m49.5 45.07.453.16" stroke-dashoffset="8.196" stroke-width=".997"/><g stroke-width="1.002"><path d="m49.95 45.23.41.164" stroke-dashoffset="8.678"/><path d="m50.36 45.39.496.246" stroke-dashoffset=".118"/><path d="m50.86 45.64.457.121" stroke-dashoffset=".673"/></g><path d="m51.32 45.76.453.164" stroke-dashoffset="1.143" stroke-width="1.002"/><path d="m51.77 45.93.406.246" stroke-dashoffset="1.625" stroke-width="1.002"/><path d="m52.18 46.17.41.203" stroke-dashoffset="2.101" stroke-width="1.002"/><path d="m52.59 46.38.406.242" stroke-dashoffset="2.557" stroke-width="1.002"/><path d="m52.99 46.62.41.207" stroke-dashoffset="3.033" stroke-width="1.003"/><path d="m53.4 46.82.36.16" stroke-dashoffset="3.489" stroke-width="1.004"/><path d="m53.76 46.98.363.246" stroke-dashoffset="3.887" stroke-width="1.004"/><path d="m54.12 47.23.41.121" stroke-dashoffset="4.324" stroke-width="1.006"/><path d="m54.53 47.35.363.164" stroke-dashoffset="4.75" stroke-width="1.006"/><g stroke-width="1.009"><path d="m54.9 47.52.36.246" stroke-dashoffset="5.148"/><path d="m55.26 47.76.41.164" stroke-dashoffset="5.586"/><path d="m55.67 47.93.453.203" stroke-dashoffset="6.025"/><path d="m56.12 48.13.453.203" stroke-dashoffset="6.523"/></g><path d="m56.57 48.33.5.164" stroke-dashoffset="7.02" stroke-width="1.012"/><path d="m57.07 48.5.543.246" stroke-dashoffset="7.545" stroke-width="1.013"/><path d="m57.62 48.74.543.121" stroke-dashoffset="8.141" stroke-width="1.016"/><path d="m58.16 48.86.547.121" stroke-dashoffset="8.699" stroke-width="1.017"/><path d="m58.71 48.98.496.164" stroke-dashoffset=".257" stroke-width="1.018"/><path d="m59.2 49.15.453.082" stroke-dashoffset=".781" stroke-width="1.018"/><path d="m59.66 49.23.41.082" stroke-dashoffset="1.242" stroke-width="1.019"/><path d="m60.07 49.31.316.164" stroke-dashoffset="1.658" stroke-width="1.019"/><path d="m60.38 49.48.363.16" stroke-dashoffset="2.015" stroke-width="1.02"/><path d="m60.75 49.64.27.164" stroke-dashoffset="2.413" stroke-width="1.02"/><path d="m61.02 49.8.273.164" stroke-dashoffset="2.73" stroke-width="1.026"/><path d="m61.29 49.97.316.203" stroke-dashoffset="3.047" stroke-width="1.027"/><path d="m61.61 50.17.363.164" stroke-dashoffset="3.425" stroke-width="1.028"/><path d="m61.97 50.33.41.203" stroke-dashoffset="3.822" stroke-width="1.03"/><path d="m62.38 50.54.363.246" stroke-dashoffset="4.279" stroke-width="1.031"/><path d="m62.74 50.78.496.121" stroke-dashoffset="4.716" stroke-width="1.034"/><path d="m63.24 50.9.453.246" stroke-dashoffset="5.23" stroke-width="1.037"/><path d="m63.69 51.15.5.164" stroke-dashoffset="5.745" stroke-width="1.041"/><path d="m64.19 51.31.543.164" stroke-dashoffset="6.27" stroke-width="1.041"/><path d="m64.73 51.48.547.242" stroke-dashoffset="6.838" stroke-width="1.044"/><path d="m65.28 51.72.586.125" stroke-dashoffset="7.435" stroke-width="1.051"/><path d="m65.87 51.84.5.16" stroke-dashoffset="8.037" stroke-width="1.056"/><path d="m66.37 52 .453.164" stroke-dashoffset="8.561" stroke-width="1.056"/><path d="m66.82 52.17.363.082" stroke-dashoffset=".043" stroke-width="1.057"/><path d="m67.18 52.25.316.121" stroke-dashoffset=".415" stroke-width="1.057"/><path d="m67.5 52.37.32.082" stroke-dashoffset=".755" stroke-width="1.061"/><path d="m67.82 52.45.316.125" stroke-dashoffset="1.083" stroke-width="1.062"/><path d="m68.14 52.58.543.242" stroke-dashoffset="1.423" stroke-width="1.062"/><path d="m68.68 52.82.5.246" stroke-dashoffset="2.02" stroke-width="1.063"/><path d="m69.18 53.07.496.246" stroke-dashoffset="2.575" stroke-width="1.064"/><path d="m69.68 53.31.547.242" stroke-dashoffset="3.131" stroke-width="1.064"/><path d="m70.22 53.56.453.246" stroke-dashoffset="3.728" stroke-width="1.063"/><path d="m70.68 53.8.363.285" stroke-dashoffset="4.243" stroke-width="1.063"/><g stroke-width="1.064"><path d="m71.04 54.09.316.328" stroke-dashoffset="4.705"/><path d="m71.36 54.41.316.324" stroke-dashoffset="5.16"/><path d="m71.67 54.74.273.328" stroke-dashoffset="5.615"/></g><path d="m71.95 55.07.27.242" stroke-dashoffset="6.04" stroke-width="1.065"/><path d="m72.21 55.31.363.367" stroke-dashoffset="6.406" stroke-width="1.065"/><path d="m72.58 55.68.273.328" stroke-dashoffset="6.922" stroke-width="1.062"/><path d="m72.85 56 .18.328" stroke-dashoffset="7.347" stroke-width="1.058"/><g stroke-width="1.059"><path d="m73.03 56.33.227.45" stroke-dashoffset="7.721"/><path d="m73.26 56.78.273.488" stroke-dashoffset="8.223"/><path d="m73.53 57.27.227.406" stroke-dashoffset="8.784"/></g><path d="m73.76 57.68.184.41" stroke-dashoffset=".25" stroke-width=".991"/><path d="M73.94 58.09v.45" stroke-dashoffset=".697" stroke-width=".836"/></g></g><g stroke="#ff7f00"><path d="m34.17 56.76 16.82-29.324" stroke-width="1.03"/><path d="m47.26 28.03.32.082" stroke-width=".953"/><path d="m47.58 28.11.633-.164" stroke-width=".959"/><path d="m48.21 27.95.41-.164" stroke-width=".964"/><path d="m48.62 27.79.406-.121" stroke-width=".965"/><path d="m49.03 27.66.41-.164" stroke-width=".968"/><path d="m49.44 27.5.316-.164M49.76 27.34l.363-.16" stroke-width=".969"/><path d="m50.12 27.18.453-.246" stroke-width=".97"/><path d="m50.57 26.93.316-.246" stroke-width=".971"/><path d="m50.89 26.68.047.492" stroke-width=".989"/><path d="M50.94 27.18v.324" stroke-width=".995"/><path d="M50.94 27.5v.41" stroke-width="1.002"/><path d="M50.94 27.91v.488" stroke-width="1.008"/><path d="m50.94 28.4.09.531" stroke-width="1.019"/><path d="m51.03 28.93.043.531" stroke-width="1.03"/><path d="m51.07 29.46.094.488" stroke-width="1.039"/><path d="m51.16 29.95.09.406" stroke-width="1.047"/><path d="m51.25 30.36.09.574" stroke-width="1.063"/><path d="m51.34 30.93.047.324" stroke-width="1.07"/><path d="m51.39 31.25.137.367" stroke-width="1.086"/><path d="M52.82 24.18 65.457.832" stroke-width="1.054"/><path d="m61.5 2.16-.406-.04" stroke-width="1.115"/><path d="m61.09 2.12.316-.043" stroke-width="1.196"/><path d="m61.41 2.08.453-.121" stroke-width="1.198"/><path d="m61.86 1.96.406-.164" stroke-width="1.208"/><path d="m62.27 1.79.32-.203M62.59 1.59l.316-.203" stroke-width="1.212"/><path d="m62.91 1.39.316-.164M63.22 1.22l.363-.164" stroke-width="1.217"/><path d="m63.59 1.06.453-.203M64.04.86l.316-.043" stroke-width="1.219"/><path d="m64.36.81.363-.203" stroke-width="1.226"/><path d="m64.72.61.316.082" stroke-width="1.19"/><path d="m65.03.69.363.203" stroke-width="1.179"/><path d="m65.4.89.227.285" stroke-width="1.183"/><path d="m65.62 1.18.137.29" stroke-width="1.192"/><path d="m65.76 1.47.184.445" stroke-width="1.204"/><path d="m65.95 1.91.133.45" stroke-width="1.212"/><path d="m66.08 2.36.047.531" stroke-width="1.219"/><path d="m66.12 2.89.09.488" stroke-width="1.22"/><path d="m66.21 3.38.047.492" stroke-width="1.221"/><path d="m66.26 3.88.043.406" stroke-width="1.225"/><path d="m66.3 4.28.047.41" stroke-width="1.226"/><path d="m66.35 4.69.09.406" stroke-width="1.23"/><path d="m66.44 5.1.227.203" stroke-width=".299"/></g></g></svg>