<svg width="131.857" height="115.929" version="1.2" viewBox="0 0 98.893 86.947" xmlns="http://www.w3.org/2000/svg"><g fill="none" stroke-linecap="round" stroke-linejoin="round" stroke-miterlimit="10"><g stroke="#000"><path d="M33.363 55.434V.403" stroke-width=".804"/><path d="m1.313 84.594 32.156-29.836" stroke-width=".861"/><path d="M34.176 55.114h64.195" stroke-width=".82"/></g><g stroke="red"><path d="m52.24 44.914-.324.18" stroke-width=".826"/><path d="m51.91 45.094-.242.402" stroke-width=".827"/><path d="m51.67 45.494-.164.293" stroke-width=".828"/><path d="m51.51 45.784-.203.363M51.3 46.154l-.16.293" stroke-width=".829"/><path d="m51.14 46.444-.164.293" stroke-width=".83"/><g stroke-width=".829"><path d="m50.98 46.734-.2.438M50.78 47.174l-.082.29M50.7 47.464l-.121.367"/></g><path d="m50.58 47.834-.164.398" stroke-width=".831"/><path d="m50.41 48.234-.121.367" stroke-width=".832"/><path d="m50.29 48.594-.082.29M50.21 48.884l-.078.328M50.13 49.214l-.043.477M50.09 49.694l-.04.363M50.05 50.054l-.043.402M50.01 50.454l-.04.473" stroke-width=".833"/><g stroke-width=".833"><path d="m49.97 50.934-.082.512M49.89 51.444l-.04.508M49.85 51.944v.437"/></g><path d="M49.85 52.384v.402M49.85 52.784v.363" stroke-width=".834"/><path d="m49.85 53.154-.04.367M49.81 53.514v.402" stroke-width=".836"/><path d="M49.81 53.924v.398" stroke-width=".837"/><path d="m49.81 54.324-.043.328M49.77 54.644v.328" stroke-width=".838"/><path d="M49.77 54.974v.477M49.77 55.454v.363" stroke-width=".839"/><path d="m49.77 55.814.043.402M49.81 56.214l.04.398" stroke-width=".838"/><path d="m49.85 56.614.082.477M49.93 57.094l.078.473M50.01 57.564l.125.438" stroke-width=".839"/><path d="m50.13 58.004.16.363M50.29 58.364l.164.328" stroke-width=".836"/><path d="m50.46 58.694.2.293" stroke-width=".837"/><path d="m50.66 58.984.246.293" stroke-width=".836"/><path d="m50.9 59.284.324.328" stroke-width=".834"/><path d="m51.23 59.604.242.18" stroke-width=".837"/><path d="m51.47 59.784.324.328" stroke-width=".841"/><path d="m51.79 60.114.363.258" stroke-width=".831"/><path d="m52.16 60.374.285.184" stroke-width=".816"/><path d="m52.44 60.554.406.145" stroke-width=".81"/><path d="m52.85 60.704.363.074" stroke-width=".811"/><path d="m53.21 60.774.445.11" stroke-width=".812"/><path d="m53.66 60.884.324.035" stroke-width=".813"/><path d="M53.98 60.924h.406" stroke-width=".816"/><path d="M54.39 60.924h.363" stroke-width=".813"/><path d="m54.75 60.924.406.035" stroke-width=".801"/><path d="m55.16 60.954.281.148" stroke-width=".602"/><g stroke-dasharray="6, 3"><path d="m55.52 42.614.324-.11" stroke-width="1.011"/><path d="m55.84 42.504.406-.074" stroke-dashoffset=".342" stroke-width="1.009"/><path d="m56.25 42.434.445-.11" stroke-dashoffset=".754" stroke-width="1.008"/><path d="m56.7 42.324.363-.074" stroke-dashoffset="1.213" stroke-width="1.007"/><path d="m57.06 42.254.324-.035" stroke-dashoffset="1.585" stroke-width="1.002"/><path d="M57.38 42.214h.445" stroke-dashoffset="1.911" stroke-width=".969"/><path d="m57.83 42.214.445.035" stroke-dashoffset="2.357" stroke-width=".933"/><path d="m58.27 42.254.367.258" stroke-dashoffset="2.804" stroke-width=".901"/><path d="m58.64 42.504.324.254" stroke-dashoffset="3.249" stroke-width=".882"/><path d="m58.96 42.764.203.328" stroke-dashoffset="3.661" stroke-width=".848"/><path d="m59.17 43.094.203.363" stroke-dashoffset="4.047" stroke-width=".833"/><path d="m59.37 43.454.2.402" stroke-dashoffset="4.464" stroke-width=".822"/><path d="m59.57 43.854.164.402" stroke-dashoffset="4.914" stroke-width=".811"/><path d="m59.73 44.254.121.29" stroke-dashoffset="5.346" stroke-width=".806"/><path d="m59.86 44.544.082.402" stroke-dashoffset="5.662" stroke-width=".804"/><path d="m59.94 44.944.04.363" stroke-dashoffset="6.072" stroke-width=".804"/><path d="m59.98 45.314.043.477" stroke-dashoffset="6.438" stroke-width=".802"/><path d="M60.02 45.784v.363" stroke-dashoffset="6.914" stroke-width=".801"/><path d="M60.02 46.154v.402" stroke-dashoffset="7.279" stroke-width=".796"/><path d="M60.02 46.554v.328" stroke-dashoffset="7.68" stroke-width=".795"/><path d="M60.02 46.884v.437" stroke-dashoffset="8.008" stroke-width=".795"/><g stroke-width=".795"><path d="M60.02 47.324v.363" stroke-dashoffset="8.446"/><path d="M60.02 47.684v.438" stroke-dashoffset="8.81"/><path d="M60.02 48.124v.367" stroke-dashoffset=".248"/></g><path d="M60.02 48.484v.398" stroke-dashoffset=".613" stroke-width=".796"/><path d="M60.02 48.884v.437" stroke-dashoffset="1.014" stroke-width=".797"/><path d="M60.02 49.324v.328" stroke-dashoffset="1.451" stroke-width=".801"/><path d="M60.02 49.654v.512" stroke-dashoffset="1.779" stroke-width=".811"/><path d="m60.02 50.164-.043.473" stroke-dashoffset="2.29" stroke-width=".842"/><path d="m59.98 50.634-.082.512" stroke-dashoffset="2.766" stroke-width=".864"/><path d="m59.89 51.144-.04.328" stroke-dashoffset="3.283" stroke-width=".866"/><path d="m59.86 51.474-.082.328" stroke-dashoffset="3.613" stroke-width=".867"/><path d="m59.77 51.804-.04.437" stroke-dashoffset="3.951" stroke-width=".868"/><path d="m59.73 52.244-.04.402" stroke-dashoffset="4.391" stroke-width=".881"/><path d="m59.7 52.644-.125.398" stroke-dashoffset="4.794" stroke-width=".893"/><path d="m59.57 53.044-.121.367" stroke-dashoffset="5.213" stroke-width=".897"/><path d="m59.45 53.414-.16.473" stroke-dashoffset="5.597" stroke-width=".897"/><path d="m59.29 53.884-.121.477" stroke-dashoffset="6.098" stroke-width=".898"/><path d="m59.17 54.354-.121.398" stroke-dashoffset="6.588" stroke-width=".898"/><path d="m59.05 54.754-.164.402" stroke-dashoffset="7.007" stroke-width=".898"/><path d="m58.88 55.164-.082.402" stroke-dashoffset="7.439" stroke-width=".906"/><path d="m58.8 55.564-.078.398" stroke-dashoffset="7.849" stroke-width=".921"/><path d="m58.72 55.964-.082.367" stroke-dashoffset="8.258" stroke-width=".935"/><path d="m58.64 56.324-.043.398" stroke-dashoffset="8.632" stroke-width=".937"/><path d="m58.6 56.724-.121.328" stroke-dashoffset=".035" stroke-width=".942"/><path d="m58.48 57.054-.121.328" stroke-dashoffset=".385" stroke-width=".951"/><path d="m58.36 57.384-.082.367" stroke-dashoffset=".735" stroke-width=".95"/><path d="m58.27 57.754-.16.328" stroke-dashoffset="1.108" stroke-width=".893"/><path d="m58.11 58.074-.121.363" stroke-dashoffset="1.474" stroke-width=".603"/></g><path d="m81.53 35.906.043-.363" stroke-width=".864"/><path d="m81.57 35.542.16-.258" stroke-width=".866"/><path d="m81.73 35.285.164-.29" stroke-width=".873"/><path d="m81.9 34.996.242-.367M82.14 34.628l.242-.254" stroke-width=".874"/><path d="m82.38 34.374.242-.254" stroke-width=".875"/><path d="m82.63 34.121.324-.402" stroke-width=".876"/><path d="m82.95 33.718.324-.254" stroke-width=".875"/><path d="m83.27 33.464.324-.219M83.6 33.246l.324-.148" stroke-width=".874"/><path d="m83.92 33.097.406-.18" stroke-width=".866"/><path d="m84.33 32.917.406-.074" stroke-width=".864"/><path d="m84.73 32.843.324-.074" stroke-width=".862"/><path d="m85.06 32.769.445-.07" stroke-width=".86"/><g stroke-width=".861"><path d="m85.5 32.699.527-.074M86.03 32.624l.605-.145M86.64 32.48l.406-.11M87.04 32.371l.406-.04"/></g><path d="M87.45 32.332h.324" stroke-width=".853"/><path d="M87.77 32.332h.406" stroke-width=".845"/><path d="m88.18 32.332.324.074" stroke-width=".844"/><path d="m88.5 32.406.32.145M88.82 32.55l.285.148" stroke-width=".845"/><path d="m89.11 32.699.285.18" stroke-width=".846"/><path d="m89.39 32.878.281.219M89.68 33.097l.285.219M89.96 33.316l.242.219" stroke-width=".847"/><path d="m90.2 33.535.242.219M90.45 33.753l.324.293" stroke-width=".849"/><path d="m90.77 34.046.285.293" stroke-width=".85"/><path d="m91.05 34.339.324.363" stroke-width=".852"/><path d="m91.38 34.703.285.363" stroke-width=".856"/><path d="m91.66 35.066.242.437" stroke-width=".86"/><g stroke-width=".862"><path d="m91.91 35.503.242.402M92.15 35.906l.203.402M92.35 36.308l.16.398"/></g><path d="m92.51 36.706.164.437" stroke-width=".863"/><path d="m92.68 37.144.121.402" stroke-width=".864"/><path d="m92.8 37.546.082.438M92.88 37.984l.121.438" stroke-width=".865"/><path d="m93 38.421.082.363" stroke-width=".866"/><path d="m93.08 38.785.04.367" stroke-width=".867"/><path d="m93.12 39.152.082.437" stroke-width=".868"/><path d="m93.2 39.589.04.473" stroke-width=".869"/><path d="m93.24 40.062.04.438" stroke-width=".873"/><path d="M93.28 40.504v.402" stroke-width=".874"/><path d="m93.28 40.904.043.438" stroke-width=".875"/><path d="m93.32 41.344.04.402" stroke-width=".876"/><path d="M93.36 41.744v.398" stroke-width=".877"/><path d="M93.36 42.144v.402" stroke-width=".878"/><path d="m93.36 42.544.043.402" stroke-width=".882"/><path d="m93.41 42.944.04.437" stroke-width=".883"/><path d="M93.45 43.384v.473" stroke-width=".884"/><path d="m93.45 43.854.04.473" stroke-width=".888"/><path d="m93.48 44.324.043.477" stroke-width=".892"/><path d="M93.53 44.804v.437" stroke-width=".901"/><path d="M93.53 45.244v.398" stroke-width=".903"/><path d="M93.53 45.644v.438" stroke-width=".904"/><path d="M93.53 46.074v.367" stroke-width=".908"/><path d="M93.53 46.444v.473" stroke-width=".909"/><path d="M93.53 46.914v.477" stroke-width=".923"/><path d="M93.53 47.394v.547" stroke-width=".927"/><path d="M93.53 47.944v.508" stroke-width=".928"/><path d="M93.53 48.444v.512" stroke-width=".929"/><path d="M93.53 48.964v.473" stroke-width=".933"/><path d="M93.53 49.434v.402" stroke-width=".934"/><path d="M93.53 49.834v.363" stroke-width=".944"/><path d="M93.53 50.194v.402" stroke-width=".953"/><path d="M93.53 50.604v.402" stroke-width=".966"/><path d="M93.53 51.004v.473" stroke-width=".967"/><path d="M93.53 51.474v.582" stroke-width=".969"/><path d="M93.53 52.054v.547" stroke-width=".97"/><path d="M93.53 52.604v.512" stroke-width=".972"/><path d="M93.53 53.114v.328" stroke-width=".975"/><path d="M93.53 53.444v.477" stroke-width=".976"/><path d="M93.53 53.924v.473" stroke-width=".977"/><path d="m93.53 54.394-.043.582M93.48 54.974v.328" stroke-width=".981"/><path d="m93.48 55.304-.078.621" stroke-width=".982"/><g stroke-width=".982"><path d="m93.41 55.924-.082.512M93.32 56.434l-.043.363M93.28 56.804l-.04.402"/></g><path d="m93.24 57.204-.04.398" stroke-width=".983"/><path d="m93.2 57.604-.082.547M93.12 58.144l-.082.328" stroke-width=".985"/><path d="m93.04 58.474-.04.328M93 58.804l-.082.328" stroke-width=".986"/><path d="m92.92 59.134-.082.293M92.84 59.424l-.121.473M92.72 59.894l-.078.328" stroke-width=".987"/><path d="m92.64 60.224-.043.367" stroke-width=".988"/><g stroke-width=".988"><path d="m92.59 60.594-.121.547M92.47 61.144l-.082.328M92.39 61.464l-.078.363"/></g><g stroke-width=".989"><path d="m92.31 61.834-.125.328M92.19 62.164l-.078.293M92.11 62.454l-.164.473"/></g><path d="m91.95 62.924-.121.293M91.82 63.214l-.082.328M91.74 63.544l-.16.438" stroke-width=".99"/><path d="m91.58 63.984-.082.293M91.5 64.274l-.121.328M91.38 64.604l-.121.328" stroke-width=".991"/><path d="m91.26 64.934-.121.328M91.14 65.264l-.121.328" stroke-width=".992"/><path d="m91.02 65.594-.203.547" stroke-width=".993"/><path d="m90.81 66.134-.203.473M90.61 66.604l-.203.473" stroke-width=".995"/><path d="m90.41 67.084-.121.293M90.29 67.374l-.121.293M90.16 67.664l-.164.328M90 67.994l-.16.328" stroke-width=".996"/><g stroke-width=".997"><path d="m89.84 68.324-.203.328M89.64 68.654l-.203.328M89.43 68.984l-.16.293M89.27 69.274l-.203.363"/></g><path d="m89.07 69.634-.164.293M88.91 69.934l-.324.363" stroke-width=".997"/><g stroke-width=".998"><path d="m88.58 70.294-.242.293M88.34 70.584l-.242.219M88.1 70.804l-.242.29"/></g><path d="m87.86 71.094-.246.293" stroke-width=".997"/><g stroke-width=".996"><path d="m87.61 71.384-.281.184M87.33 71.574l-.285.219M87.04 71.784l-.285.18"/></g><path d="m86.76 71.964-.363.184" stroke-width=".998"/><path d="m86.39 72.154-.406.219" stroke-width=".997"/><path d="m85.99 72.374-.363.219" stroke-width="1.001"/><path d="m85.63 72.594-.363.145" stroke-width="1.005"/><path d="m85.26 72.734-.367.11" stroke-width="1.007"/><g stroke-width="1.009"><path d="m84.89 72.844-.445.074M84.45 72.914l-.324.11M84.13 73.024l-.281.11"/></g><path d="m83.84 73.134-.406.074" stroke-width="1.021"/><path d="m83.44 73.214-.324.07" stroke-width="1.033"/><path d="m83.11 73.284-.406-.035" stroke-width="1.042"/><path d="m82.71 73.244-.363-.074" stroke-width="1.047"/><path d="m82.34 73.174-.406-.11" stroke-width="1.056"/><path d="m81.94 73.064-.324-.07" stroke-width="1.057"/><path d="m81.61 72.994-.406-.148M81.21 72.844l-.324-.145" stroke-width="1.058"/><path d="m80.88 72.694-.281-.145" stroke-width="1.063"/><path d="m80.6 72.554-.285-.184" stroke-width="1.064"/><path d="m80.32 72.374-.281-.219" stroke-width="1.065"/><path d="m80.04 72.154-.203-.254" stroke-width="1.066"/><path d="m79.83 71.894-.324-.367" stroke-width="1.07"/><path d="m79.51 71.534-.367-.398M79.14 71.134l-.324-.367M78.82 70.764l-.242-.254M78.57 70.514l-.242-.293" stroke-width="1.071"/><path d="m78.33 70.214-.203-.363" stroke-width="1.07"/><path d="m78.13 69.854-.16-.363" stroke-width="1.069"/><path d="m77.97 69.494-.164-.402" stroke-width="1.068"/><path d="m77.8 69.094-.16-.402" stroke-width="1.065"/><path d="m77.64 68.684-.164-.398M77.48 68.284l-.082-.402" stroke-width="1.061"/><path d="m77.4 67.884-.16-.477" stroke-width="1.062"/><path d="m77.24 67.414-.121-.582M77.12 66.824l-.082-.293" stroke-width="1.063"/><path d="m77.04 66.534-.203-.547" stroke-width="1.062"/><path d="m76.83 65.984-.16-.508M76.67 65.484l-.082-.293M76.59 65.184l-.121-.402" stroke-width="1.06"/><path d="m76.47 64.784-.121-.328" stroke-width="1.059"/><path d="m76.35 64.454-.082-.363M76.27 64.094l-.082-.402" stroke-width="1.055"/><path d="m76.18 63.694-.04-.508" stroke-width="1.051"/><path d="m76.14 63.184-.043-.512" stroke-width="1.05"/><path d="m76.1 62.674-.04-.473" stroke-width="1.049"/><g stroke-width="1.049"><path d="m76.06 62.194-.04-.438M76.02 61.764l-.043-.402M75.98 61.354l-.04-.402M75.94 60.954l-.04-.398M75.9 60.554l-.043-.477"/></g><path d="M75.86 60.084v-.512" stroke-width="1.045"/><path d="M75.86 59.574v-.473M75.86 59.094l-.04-.438M75.82 58.664l-.043-.473" stroke-width="1.044"/><path d="M75.78 58.184v-.512" stroke-width="1.045"/><path d="M75.78 57.674v-.438" stroke-width="1.04"/><path d="M75.78 57.234v-.473" stroke-width="1.039"/><path d="M75.78 56.764v-.438" stroke-width="1.034"/><path d="m75.78 56.324.043-.367" stroke-width="1.03"/><g stroke-width="1.03"><path d="m75.82 55.964.082-.29M75.9 55.674l.078-.367M75.98 55.304l.082-.438M76.06 54.864l.082-.473M76.14 54.394l.082-.402"/></g><path d="m76.23 53.994.078-.473" stroke-width="1.031"/><path d="m76.3 53.514.121-.547" stroke-width="1.03"/><g stroke-width="1.031"><path d="m76.43 52.974.125-.547M76.55 52.424l.121-.477M76.67 51.944l.121-.473M76.79 51.474l.082-.438"/></g><path d="m76.88 51.034.078-.438" stroke-width="1.032"/><path d="m76.95 50.604.043-.473M77 50.124l.078-.477" stroke-width="1.033"/><g stroke-width="1.032"><path d="m77.07 49.654.082-.473M77.16 49.184l.082-.402M77.24 48.774l.082-.363"/></g><path d="m77.32 48.414.078-.328M77.4 48.084l.043-.328" stroke-width="1.033"/><path d="m77.44 47.754.082-.402" stroke-width="1.032"/><path d="m77.52 47.354.121-.363" stroke-width="1.031"/><path d="m77.64 46.994.078-.402" stroke-width="1.026"/><path d="m77.72 46.594.082-.328" stroke-width="1.025"/><path d="m77.8 46.264.121-.293" stroke-width="1.024"/><path d="m77.93 45.964.164-.508M78.09 45.464l.078-.293" stroke-width="1.019"/><g stroke-width="1.018"><path d="m78.17 45.164.246-.512M78.41 44.654l.16-.328M78.57 44.324l.082-.29"/></g><path d="m78.66 44.034.121-.293" stroke-width="1.017"/><path d="m78.78 43.744.121-.363" stroke-width="1.004"/><path d="m78.9 43.384.121-.402" stroke-width=".988"/><path d="m79.02 42.984.121-.363" stroke-width=".978"/><path d="m79.14 42.614.082-.293" stroke-width=".977"/><path d="m79.22 42.324.121-.328" stroke-width=".976"/><path d="m79.34 41.994.082-.473" stroke-width=".975"/><path d="m79.43 41.524.121-.477" stroke-width=".97"/><path d="m79.55 41.044.121-.473" stroke-width=".95"/><path d="m79.67 40.574.164-.437" stroke-width=".944"/><path d="m79.83 40.136.078-.293M79.91 39.843l.082-.363" stroke-width=".943"/><path d="m79.99 39.48.082-.328" stroke-width=".944"/><path d="m80.07 39.152.082-.328" stroke-width=".942"/><g stroke-width=".94"><path d="m80.16 38.824.121-.328M80.28 38.496l.16-.438M80.44 38.058l.121-.328M80.56 37.73l.164-.367"/></g><path d="m80.72 37.363.16-.438" stroke-width=".939"/><g stroke-width=".938"><path d="m80.88 36.925.203-.29M81.09 36.636l.164-.293M81.25 36.343l.16-.363"/></g><path d="m81.41 35.98.164-.367M81.57 35.613l.16-.328" stroke-width=".938"/><path d="m81.73 35.285.082-.363" stroke-width=".71"/></g><path d="m52.87 44.884 33.043-12.207" stroke="#00bfff" stroke-width=".765"/><path d="M55.04 60.944 80.13 72.94" stroke="#00bfff" stroke-width=".92"/><g stroke="red"><path d="m73.63 47.214.445-.074" stroke-width=".847"/><path d="m74.08 47.134.406-.219" stroke-width=".885"/><path d="m74.48 46.914.484-.29" stroke-width=".905"/><path d="m74.97 46.624.242-.184" stroke-width=".909"/><path d="m75.21 46.444.285-.145" stroke-width=".91"/><path d="m75.5 46.304.281-.223M75.78 46.074l.324-.18" stroke-width=".911"/><path d="m76.1 45.894.367-.219" stroke-width=".912"/><path d="m76.47 45.684.242-.219" stroke-width=".915"/><path d="m76.71 45.464.324-.258" stroke-width=".916"/><path d="m77.04 45.204.406-.363" stroke-width=".917"/><path d="m77.44 44.844.363-.293" stroke-width=".926"/><path d="m77.8 44.544.242-.29" stroke-width=".936"/><path d="m78.05 44.254.164.473" stroke-width=".911"/><path d="m78.21 44.734.16.473M78.37 45.204l.082.293" stroke-width=".916"/><path d="m78.45 45.494.242.547M78.7 46.044l.203.367" stroke-width=".918"/><path d="m78.9 46.414.203.29M79.1 46.694l.203.293M79.3 46.994l.203.254" stroke-width=".917"/><path d="m79.51 47.244.281.328" stroke-width=".918"/><path d="m79.79 47.574.164.293" stroke-width=".48"/><path d="m48.11 49.804.04.328" stroke-width=".854"/><path d="m48.14 50.124.246.363" stroke-width=".858"/><path d="m48.39 50.494.242.328M48.63 50.824l.242.328" stroke-width=".862"/><path d="m48.88 51.144.203.254" stroke-width=".866"/><path d="m49.08 51.404.242.328" stroke-width=".872"/><path d="m49.32 51.734.121.293" stroke-width=".875"/><path d="m49.44 52.024.203.328" stroke-width=".88"/><path d="m49.64 52.354.121.402" stroke-width=".882"/><path d="m49.77 52.754.324.035" stroke-width=".969"/><path d="m50.09 52.784.285-.184" stroke-width=".975"/><path d="m50.38 52.604.363-.328M50.74 52.274l.242-.18" stroke-width=".979"/><path d="m50.98 52.094.367-.328" stroke-width=".98"/><path d="m51.35 51.774.242-.328" stroke-width=".981"/><path d="m51.59 51.444.242-.293M51.83 51.144l.203-.254" stroke-width=".986"/><path d="m52.52 44.624.242-.254" stroke-width=".835"/><path d="m52.77 44.364.324-.258" stroke-width=".849"/><path d="m53.09 44.104.281-.29" stroke-width=".858"/><path d="m53.37 43.824.285-.219" stroke-width=".859"/><path d="m53.66 43.604.363-.219" stroke-width=".86"/><path d="m54.02 43.384.367-.148" stroke-width=".861"/><path d="m54.39 43.234.242-.18" stroke-width=".863"/><path d="m54.63 43.054.363-.148" stroke-width=".858"/><path d="m54.99 42.904.285-.11" stroke-width=".859"/></g><g stroke="#0f0"><path d="m64.22 29.703 5.477 8.305" stroke-width=".987"/><path d="M62.73 31.312v-.328" stroke-width=".799"/><path d="m62.73 30.984.082-.402" stroke-width=".822"/><path d="m62.81 30.582.082-.402" stroke-width=".845"/><path d="m62.89 30.179.04-.328" stroke-width=".86"/><path d="M62.93 29.851v-.363" stroke-width=".879"/><path d="M62.93 29.488v-.328" stroke-width=".895"/><path d="m62.93 29.16.285-.11M63.22 29.05l.324-.035" stroke-width=".876"/><path d="m63.54 29.015.324-.04" stroke-width=".872"/><path d="m63.87 28.976.527.11" stroke-width=".867"/><path d="m64.39 29.085.324.148M64.72 29.234l.402.145" stroke-width=".868"/><path d="m65.12 29.378.324.145" stroke-width=".869"/><path d="m65.45 29.523.367.148" stroke-width=".871"/><path d="m65.81 29.671.445.145" stroke-width=".874"/><path d="m66.26 29.816.406.11" stroke-width=".877"/><path d="m63.38 24.675.082-.477M63.46 24.199l.043-.328" stroke-width="1.031"/><path d="m63.5 23.871.078-.398" stroke-width="1.032"/><path d="m63.58 23.472.121-.367" stroke-width="1.035"/><path d="m63.7 23.105.125-.363" stroke-width="1.036"/><path d="m63.83 22.742.121-.363M63.95 22.378l.121-.293" stroke-width="1.041"/><path d="m64.07 22.085.16-.512" stroke-width="1.044"/><path d="m64.23 21.574.164-.328" stroke-width="1.04"/><path d="m64.39 21.246.281-.29" stroke-width="1.033"/><path d="m64.68 20.956.285-.184" stroke-width="1.027"/><path d="m64.96 20.773.285-.145" stroke-width=".984"/><path d="m65.25 20.628.363.11" stroke-width=".955"/><g stroke-width=".95"><path d="m65.61 20.738.242.29M65.85 21.027l.242.402M66.09 21.429l.203.328M66.3 21.757l.164.254"/></g><path d="m66.46 22.011.082.367" stroke-width=".951"/><path d="m66.54 22.378.04.437" stroke-width=".956"/><path d="m66.58 22.816.04.363" stroke-width=".958"/><path d="M66.62 23.179v.402" stroke-width=".945"/><path d="m68.2 26.937.324-.184" stroke-width="1.042"/><path d="m68.53 26.753.242-.184" stroke-width="1.05"/><path d="m68.77 26.57.242-.219" stroke-width="1.057"/><g stroke-width="1.062"><path d="m69.01 26.351.445-.438M69.46 25.914l.285-.363M69.74 25.55l.16-.293"/></g><path d="m69.9 25.257.367-.363" stroke-width="1.036"/><path d="m70.27 24.894.203-.254" stroke-width=".996"/><path d="m70.47 24.64.078-.332" stroke-width=".446"/><path d="m68.1 24.171 1.426 1.68" stroke-width=".732"/><path d="m75.78 20.371-.281.293" stroke-width="1.056"/><path d="m75.5 20.664-.285.363" stroke-width="1.057"/><path d="m75.21 21.027-.16.258M75.05 21.285l-.164.29" stroke-width="1.061"/><path d="m74.89 21.574-.16.258M74.73 21.832l-.121.29" stroke-width="1.062"/><path d="m74.61 22.121-.246.438M74.36 22.558l-.242.367M74.12 22.925l-.16.254" stroke-width="1.066"/><path d="m73.96 23.179-.164.254" stroke-width="1.098"/><path d="m73.79 23.433.406.074" stroke-width="1.06"/><path d="m74.2 23.507.445.145" stroke-width="1.067"/><path d="m74.64 23.652.406.11" stroke-width="1.072"/><path d="m75.05 23.761.484.11M75.54 23.871l.406.074" stroke-width="1.077"/><path d="m75.94 23.945.406.11" stroke-width="1.087"/><path d="m82.34 20.117-.242-.184" stroke-width=".853"/><path d="m82.1 19.933-.488.074" stroke-width=".925"/><path d="m81.61 20.007-.281.293" stroke-width=".897"/><path d="m81.33 20.3-.246.29" stroke-width=".876"/><path d="m81.09 20.589-.16.258" stroke-width=".871"/><path d="m80.93 20.847-.164.363" stroke-width=".869"/><path d="m80.76 21.21-.121.328" stroke-width=".868"/><path d="m80.64 21.539-.121.328" stroke-width=".867"/><path d="m80.52 21.867-.082.363" stroke-width=".859"/><path d="M80.44 22.23v.402" stroke-width=".845"/><path d="M80.44 22.632v.402" stroke-width=".839"/><path d="m80.44 23.035.082.473" stroke-width=".835"/><path d="m80.52 23.507.164.437" stroke-width=".836"/><path d="m80.68 23.945.242.293" stroke-width=".839"/><path d="m80.93 24.238.324.254" stroke-width=".811"/><path d="m81.25 24.492.406.074" stroke-width=".826"/><path d="m81.66 24.566.402-.04" stroke-width=".839"/><path d="m82.06 24.527.445-.145" stroke-width=".844"/><path d="m82.5 24.382.445-.219" stroke-width=".848"/><path d="m82.95 24.164.367-.254" stroke-width=".851"/><path d="m83.32 23.91.242-.328" stroke-width=".855"/><path d="m83.56 23.582.203-.402" stroke-width=".863"/><path d="m83.76 23.179.121-.512" stroke-width=".868"/><path d="M83.88 22.667v-.547" stroke-width=".878"/><path d="m83.88 22.121-.121-.547" stroke-width=".884"/><path d="m83.76 21.574-.121-.29" stroke-width=".89"/><path d="m83.64 21.285-.203-.402" stroke-width=".914"/><path d="m83.44 20.882-.164-.293" stroke-width=".936"/><path d="m83.27 20.589-.242-.18" stroke-width=".951"/><path d="m83.03 20.41-.406-.148" stroke-width=".964"/><path d="m82.63 20.261-.324-.07" stroke-width=".969"/><path d="M82.3 20.191h-.363" stroke-width=".957"/><path d="M81.94 20.191h-.363" stroke-width=".896"/><path d="M81.57 20.191h-.406" stroke-width=".659"/><path d="m81.17 20.191-.363.18" stroke-width=".323"/><path d="m61.23 77.774 6.063-10.207" stroke-width=".93"/><path d="m59.21 75.874-.04.367" stroke-width=".749"/><path d="m59.17 76.234.16.29" stroke-width=".764"/><path d="m59.33 76.524.242.328" stroke-width=".781"/><path d="m59.57 76.854.203.402" stroke-width=".807"/><path d="m59.77 77.254.203.402" stroke-width=".823"/><path d="m59.98 77.664.164.398" stroke-width=".835"/><path d="m60.14 78.054.16.367" stroke-width=".848"/><path d="m60.3 78.424.164.363" stroke-width=".855"/><path d="m60.46 78.784.324-.035" stroke-width=".934"/><path d="m60.79 78.754.445-.148" stroke-width=".958"/><path d="m61.23 78.604.445-.11M61.68 78.494l.363-.11M62.04 78.384l.324-.145" stroke-width=".966"/><path d="m62.37 78.244.406-.145M62.77 78.094l.363-.148M63.14 77.944l.285-.145" stroke-width=".97"/><path d="m63.42 77.804.406-.219" stroke-width=".971"/><path d="m63.83 77.584.363-.184" stroke-width=".975"/><path d="m64.19 77.404.285-.145" stroke-width=".981"/><path d="m66.05 82.584-.16-.402" stroke-width="1.061"/><path d="M65.89 82.184v-.621M65.89 81.554l.04-.547M65.93 81.014l.04-.328" stroke-width="1.065"/><path d="m65.97 80.684.082-.398" stroke-width="1.064"/><path d="m66.05 80.284.203-.402" stroke-width="1.058"/><path d="m66.26 79.884.324-.328" stroke-width="1.053"/><path d="m66.58 79.554.285-.254" stroke-width="1.042"/><path d="m66.87 79.304.281-.184" stroke-width="1.03"/><path d="m67.15 79.114.324-.074" stroke-width=".998"/><path d="m67.47 79.044.324.04" stroke-width=".914"/><path d="m67.8 79.084.242.219" stroke-width=".897"/><path d="m68.04 79.304.324.29" stroke-width=".89"/><path d="m68.36 79.594.246.367" stroke-width=".893"/><path d="m68.61 79.954.16.363" stroke-width=".895"/><path d="m68.77 80.324.121.402" stroke-width=".9"/><path d="m68.89 80.724.043.398" stroke-width=".91"/><path d="m68.93 81.124.04.402" stroke-width=".921"/><path d="M68.97 81.524v.328" stroke-width=".93"/><path d="m68.97 81.854-.04.367" stroke-width=".934"/><path d="M68.93 82.214v.438" stroke-width=".935"/><path d="m68.93 82.654.16.328" stroke-width=".347"/><path d="m69.86 86.514.121-.437" stroke-width=".856"/><path d="m69.98 86.084.285-.512" stroke-width=".909"/><path d="m70.27 85.574.16-.29" stroke-width=".929"/><path d="m70.43 85.284.246-.293" stroke-width=".947"/><path d="m70.68 84.984.2-.328" stroke-width=".964"/><path d="m70.88 84.664.125-.293" stroke-width=".974"/><path d="m71 84.364.242-.29" stroke-width=".977"/><path d="m71.24 84.074.363-.512" stroke-width=".979"/><path d="m71.61 83.564.203-.293M71.81 83.274l.203-.29" stroke-width=".98"/><path d="m72.01 82.984.203-.258" stroke-width=".981"/><path d="m72.22 82.724.324-.363" stroke-width=".982"/><path d="m72.54 82.364.203-.367" stroke-width=".967"/><path d="m72.74 81.994.16-.363" stroke-width=".84"/><path d="m70.65 81.414 1.277 2.04" stroke-width=".705"/><path d="m77.28 79.514-.363.29" stroke-width="1.089"/><path d="m76.91 79.804-.363.328" stroke-width="1.093"/><path d="m76.55 80.134-.324.293M76.23 80.434l-.203.254" stroke-width="1.098"/><path d="m76.02 80.684-.246.258" stroke-width="1.1"/><path d="m75.78 80.944.285.29" stroke-width="1.088"/><path d="m76.06 81.234.406.258" stroke-width="1.093"/><path d="m76.47 81.484.445.29" stroke-width="1.098"/><path d="m76.91 81.774.445.219" stroke-width="1.099"/><path d="m77.36 81.994.363.223" stroke-width="1.102"/><path d="m77.72 82.214.285.145" stroke-width="1.103"/><path d="m78.01 82.364.324.11" stroke-width="1.104"/><path d="M82.3 79.994v-.402" stroke-width=".795"/><path d="m82.3 79.594-.242-.328" stroke-width=".987"/><path d="m82.06 79.264-.363-.11" stroke-width="1.07"/><path d="m81.7 79.154-.324.11" stroke-width="1.06"/><path d="m81.37 79.264-.242.367" stroke-width="1.048"/><path d="m81.13 79.624-.203.582" stroke-width="1.039"/><path d="m80.93 80.214-.082.328" stroke-width="1.03"/><path d="m80.84 80.534-.082.328" stroke-width="1.02"/><path d="m80.76 80.864-.04.328" stroke-width="1.008"/><path d="M80.72 81.194v.582" stroke-width=".98"/><path d="m80.72 81.774.203.441" stroke-width=".969"/><path d="m80.93 82.214.363.398" stroke-width=".964"/><path d="m81.29 82.614.242.184" stroke-width=".959"/><path d="m81.53 82.804.527.293" stroke-width=".927"/><path d="m82.06 83.094.488.11" stroke-width=".888"/><path d="M82.55 83.204h.484" stroke-width=".879"/><path d="m83.03 83.204.445-.184" stroke-width=".889"/><path d="m83.48 83.014.285-.473" stroke-width=".902"/><path d="m83.76 82.544.082-.367" stroke-width=".903"/><path d="m83.84 82.184.04-.402" stroke-width=".904"/><path d="M83.88 81.774v-.398M83.88 81.374l.04-.438" stroke-width=".907"/><path d="M83.92 80.944v-.437" stroke-width=".912"/><path d="M83.92 80.504v-.402" stroke-width=".916"/><path d="m83.92 80.104-.04-.328" stroke-width=".928"/><path d="m83.88 79.774-.04-.328" stroke-width=".945"/><path d="m83.84 79.444-.164-.402" stroke-width=".975"/><path d="m83.68 79.044-.242-.254" stroke-width=".97"/><path d="m83.44 78.784-.363-.145" stroke-width=".866"/><path d="m83.07 78.644-.324.016" stroke-width=".645"/><path d="m82.75 78.664-.324.02" stroke-width=".425"/></g><g stroke="#000"><path d="m97.13 52.354.04.437" stroke-width=".985"/><path d="m97.17 52.784.242.293M97.41 53.084l.246.254" stroke-width=".99"/><path d="m97.66 53.334.16.293" stroke-width=".981"/><path d="m97.82 53.624.164.254" stroke-width=".979"/><path d="m97.98 53.884.203.293" stroke-width=".983"/><path d="m98.19 54.174.16.254" stroke-width=".988"/><path d="m98.35 54.434-.121.328" stroke-width="1.09"/><path d="m98.23 54.754-.324.258" stroke-width="1.094"/><path d="m97.9 55.014-.324.363M97.58 55.374l-.203.293" stroke-width="1.095"/><path d="m97.38 55.674-.242.219M97.13 55.894l-.242.363M96.89 56.254l-.203.293M96.69 56.544l-.164.328" stroke-width="1.097"/><path d="m96.52 56.874-.16.328" stroke-width="1.099"/><path d="m.617 81.854-.082.293" stroke-width="1.05"/><path d="M.535 82.144v.547" stroke-width="1.061"/><path d="M.535 82.694v.363" stroke-width="1.062"/><path d="m.535 83.054.043.402" stroke-width="1.07"/><path d="m.578 83.454.04.402" stroke-width="1.073"/><path d="m.617 83.854.043.438" stroke-width="1.077"/><path d="M.66 84.294v.398" stroke-width="1.078"/><path d="m.66 84.694.04.367" stroke-width="1.079"/><path d="M.699 85.064v.473" stroke-width="1.083"/><path d="m.699 85.534.324.074" stroke-width="1.088"/><g stroke-width="1.097"><path d="m1.024 85.604.324-.148M1.348 85.464l.566-.219M1.914 85.244l.324-.11"/></g><path d="m2.238 85.134.406-.07" stroke-width="1.089"/><path d="m2.645 85.064.324-.074" stroke-width="1.088"/><path d="m2.969 84.984.324-.035" stroke-width="1.085"/><path d="m3.293 84.954.527-.074" stroke-width="1.079"/><path d="m3.82 84.874.402-.074" stroke-width="1.078"/><path d="m4.223 84.804.367-.035" stroke-width="1.077"/><path d="m4.59 84.774.363-.11" stroke-width=".942"/><path d="m30.52 3.378.367-.363" stroke-width="1.06"/><path d="m30.887 3.015.324-.328" stroke-width="1.063"/><path d="m31.211 2.687.242-.293" stroke-width="1.067"/><path d="m31.453 2.394.242-.254" stroke-width="1.068"/><path d="m31.695 2.14.242-.328" stroke-width="1.07"/><path d="m31.938 1.812.203-.402" stroke-width="1.073"/><path d="m32.141 1.41.203-.363" stroke-width="1.057"/><path d="m32.344 1.046.285-.184" stroke-width="1.058"/><path d="m32.629.863.402-.145" stroke-width="1.059"/><path d="m33.031.718.246-.184" stroke-width="1.062"/><path d="m33.278.535.281.219" stroke-width="1.009"/><path d="m33.559.753.367.293" stroke-width="1.013"/><path d="m33.926 1.046.324.29" stroke-width="1.018"/><path d="m34.25 1.335.32.219M34.57 1.554l.246.219M34.817 1.773l.281.293" stroke-width="1.022"/><path d="m35.098 2.066.324.328" stroke-width="1.024"/><path d="m35.422 2.394.367.402" stroke-width="1.026"/><path d="m85.42 53.224.082-.328" stroke-width=".454"/><path d="m85.5 52.894-.04.438" stroke-width=".628"/><path d="M85.46 53.334v.402" stroke-width=".629"/><path d="M85.46 53.734v.402" stroke-width=".636"/><path d="M85.46 54.144v.363" stroke-width=".637"/><path d="M85.46 54.504v.402" stroke-width=".642"/><path d="m85.46 54.904-.043.328" stroke-width=".65"/><path d="m85.42 55.234-.04.363" stroke-width=".655"/><path d="m85.38 55.594-.043.402" stroke-width=".663"/><g stroke-width=".869"><path d="m83.72 59.314.281-.184M84 59.134l.324-.07M84.33 59.064l.363-.11"/></g><path d="m84.69 58.954.324-.074" stroke-width=".864"/><path d="m85.02 58.874.324.145" stroke-width=".796"/><path d="M85.34 59.024v.328" stroke-width=".791"/><path d="M85.34 59.354v.437" stroke-width=".796"/><path d="M85.34 59.784v.477" stroke-width=".802"/><path d="m85.34 60.264-.04.402" stroke-width=".806"/><path d="m85.3 60.664-.082.29" stroke-width=".814"/><path d="m85.22 60.954-.242.328" stroke-width=".823"/><path d="m84.98 61.284-.16.293" stroke-width=".822"/><path d="m84.82 61.574-.164.328" stroke-width=".776"/><path d="m84.65 61.904.406.254" stroke-width=".728"/><path d="m85.06 62.164.324.04" stroke-width=".725"/><path d="M85.38 62.194h.324" stroke-width=".703"/><path d="m85.71 62.194.363-.04" stroke-width=".698"/><path d="m86.07 62.164.324-.07" stroke-width=".69"/><path d="m54.34 53.734-.121.293" stroke-width=".745"/><path d="M54.22 54.034v.363" stroke-width=".754"/><path d="M54.22 54.394v.402" stroke-width=".755"/><path d="M54.22 54.794v.328" stroke-width=".75"/><path d="m52.97 57.094.203-.258" stroke-width=".893"/><path d="m53.17 56.834.363-.145" stroke-width=".894"/><path d="m53.54 56.694.324-.145" stroke-width=".895"/><path d="m53.86 56.544.281-.184" stroke-width=".896"/><path d="m54.14 56.364.246-.219" stroke-width=".902"/><path d="m54.39 56.144.04.473" stroke-width=".901"/><path d="M54.43 56.614v.367" stroke-width=".913"/><path d="M54.43 56.984v.438" stroke-width=".916"/><path d="M54.43 57.424v.328" stroke-width=".917"/><path d="M54.43 57.754v.398M54.43 58.144v.328" stroke-width=".928"/></g></g></svg>