<svg width="369.947" height="182.987" version="1.2" viewBox="0 0 277.46 137.24" xmlns="http://www.w3.org/2000/svg"><g fill="none" stroke-linecap="round" stroke-linejoin="round" stroke-miterlimit="10"><g stroke="#000"><path d="M44.888 14.448v63.676" stroke-width=".777"/><path d="M19.146 110.097 45.107 78.32" stroke-width=".845"/><path d="M45.388 77.997h53.148" stroke-width=".644"/></g><g stroke="red"><path d="m7.122 83.747-.266.316" stroke-width=".654"/><path d="m6.856 84.057-.043.395" stroke-width=".621"/><path d="M6.813 84.457v.395" stroke-width=".609"/><path d="M6.813 84.847v.516" stroke-width=".598"/><path d="m6.813 85.367.043.355" stroke-width=".589"/><path d="m6.856 85.717.176.437" stroke-width=".582"/><path d="m7.032 86.157.352.434" stroke-width=".585"/><g stroke-width=".591"><path d="m7.384 86.597.441.516M7.825 87.107l.219.316M8.044 87.427l.309.316"/></g><g stroke-width=".583"><path d="m8.353 87.737.266.355M8.618 88.097l.305.316M8.923 88.417l.398.277"/></g><path d="m9.321 88.687.352.316M9.673 89.007l.309.277M9.981 89.287l.352.277" stroke-width=".587"/><path d="m10.333 89.557.352.316M10.685 89.877l.352.277" stroke-width=".586"/><path d="m11.036 90.157.395.316M11.431 90.467l.352.36" stroke-width=".589"/><path d="m11.782 90.827.398.316M12.181 91.147l.395.355" stroke-width=".59"/><path d="m12.575 91.507.438.355" stroke-width=".586"/><path d="m13.013 91.857.441.355" stroke-width=".585"/><path d="m13.454 92.217.441.316M13.896 92.527l.438.355M14.333 92.887l.398.316" stroke-width=".586"/><path d="m14.731 93.197.437.36" stroke-width=".587"/><path d="m15.169 93.557.441.316M15.61 93.877l.484.355M16.095 94.237l.48.355" stroke-width=".591"/><path d="m16.575 94.587.484.395M17.06 94.987l.527.398" stroke-width=".592"/><path d="m17.587 95.377.574.395" stroke-width=".591"/><path d="m18.161 95.777.57.395" stroke-width=".588"/><path d="m18.731 96.167.617.36" stroke-width=".587"/><path d="m19.349 96.527.613.355" stroke-width=".583"/><path d="m19.962 96.887.66.355" stroke-width=".582"/><path d="m20.622 97.237.703.316" stroke-width=".577"/><path d="m21.325 97.557.707.355" stroke-width=".576"/><path d="m22.032 97.917.746.316M22.778 98.227l.793.238" stroke-width=".575"/><path d="m23.571 98.467.79.316" stroke-width=".57"/><path d="m24.36 98.787.793.238" stroke-width=".565"/><path d="m25.153 99.027.836.277M25.989 99.297l.836.277" stroke-width=".561"/><path d="m26.825 99.577.836.238" stroke-width=".556"/><path d="m27.661 99.817.79.234" stroke-width=".555"/><path d="m28.45 100.047.836.16M29.286 100.207l.836.238" stroke-width=".554"/><path d="m30.122 100.447.793.117" stroke-width=".553"/><g stroke-width=".548"><path d="m30.915 100.567.793.121M31.708 100.687l.79.117M32.498 100.807l.793.078"/></g><path d="m33.288 100.877.746.121M34.038 101.007l.75.117M34.788 101.117l.746.117M35.528 101.237l.75.121" stroke-width=".547"/><path d="m36.278 101.357.746.078M37.028 101.437l.746.117" stroke-width=".546"/><path d="m37.778 101.557.793.043" stroke-width=".545"/><path d="m38.568 101.597.793.04" stroke-width=".542"/><path d="m39.358 101.637.836.04" stroke-width=".539"/><path d="M40.198 101.677h.836M41.028 101.677h.832" stroke-width=".538"/><g stroke-width=".539"><path d="M41.868 101.677h.836M42.698 101.677l.793-.04M43.498 101.637h.793M44.288 101.637l.703-.04M44.988 101.597l.703-.043M45.688 101.557l.66-.04"/></g><path d="m46.348 101.517.57-.04" stroke-width=".539"/><path d="m46.918 101.477.574-.04" stroke-width=".54"/><path d="m47.498 101.437.48-.078" stroke-width=".543"/><path d="m47.978 101.357.398-.04M48.378 101.317l.527-.082" stroke-width=".544"/><path d="m48.908 101.237.438-.04" stroke-width=".547"/><path d="m49.338 101.197.531-.04" stroke-width=".564"/><path d="m49.868 101.157.352-.078" stroke-width=".577"/><path d="m50.228 101.077.395-.078" stroke-width=".583"/><path d="m50.618 101.007.484-.082" stroke-width=".588"/><path d="m51.098 100.917.527-.117M51.628 100.807l.57-.2" stroke-width=".592"/><path d="m52.198 100.607.617-.156" stroke-width=".595"/><g stroke-width=".599"><path d="m52.818 100.447.617-.238M53.438 100.207l.703-.238M54.138 99.967l.66-.195"/></g><path d="m54.798 99.777.703-.238M55.498 99.537l.613-.2" stroke-width=".599"/><path d="m56.118 99.337.574-.156M56.688 99.187l.57-.121" stroke-width=".6"/><path d="m57.258 99.057.527-.156M57.788 98.907l.574-.121" stroke-width=".601"/><path d="m58.358 98.787.527-.117M58.888 98.667l.527-.16" stroke-width=".602"/><g stroke-width=".603"><path d="m59.418 98.507.57-.156M59.988 98.347l.527-.16M60.508 98.187l.574-.195M61.088 97.997l.613-.238"/></g><path d="m61.698 97.757.617-.238" stroke-width=".603"/><path d="m62.318 97.517.617-.238M62.938 97.277l.656-.277" stroke-width=".604"/><path d="m63.588 97.007.66-.277" stroke-width=".605"/><path d="m64.248 96.727.66-.316" stroke-width=".606"/><path d="m64.908 96.407.617-.316M65.528 96.097l.57-.238M66.098 95.857l.484-.316" stroke-width=".607"/><path d="m66.578 95.537.395-.234M66.978 95.307l.352-.2" stroke-width=".61"/><path d="m67.328 95.107.309-.238M67.638 94.867l.309-.156" stroke-width=".611"/><path d="m67.948 94.707.309-.238" stroke-width=".614"/><path d="m68.258 94.467.262-.238" stroke-width=".621"/><path d="m68.518 94.237.309-.238" stroke-width=".627"/><path d="m68.828 93.997.309-.238" stroke-width=".632"/><path d="m69.138 93.757.309-.277" stroke-width=".639"/><path d="m69.438 93.477.309-.316" stroke-width=".647"/><path d="m69.748 93.167.305-.277" stroke-width=".652"/><path d="m70.058 92.887.266-.316" stroke-width=".659"/><path d="m70.318 92.567.266-.277" stroke-width=".665"/><path d="m70.588 92.287.262-.273" stroke-width=".671"/><path d="m70.848 92.017.266-.32" stroke-width=".677"/><path d="m71.118 91.697.219-.316" stroke-width=".684"/><path d="m71.338 91.377.266-.316" stroke-width=".693"/><path d="m71.598 91.067.219-.355" stroke-width=".702"/><path d="m71.818 90.707.219-.355" stroke-width=".71"/><path d="m72.038 90.357.219-.355" stroke-width=".717"/><path d="m72.258 89.997.223-.355M72.478 89.647l.219-.398" stroke-width=".723"/><path d="m72.698 89.247.219-.395" stroke-width=".724"/><path d="m72.918 88.847.223-.355M73.138 88.497l.219-.316" stroke-width=".727"/><path d="m73.358 88.177.176-.277" stroke-width=".732"/><path d="m73.528 87.897.266-.438" stroke-width=".742"/><path d="m73.798 87.467.219-.277" stroke-width=".752"/><path d="m74.018 87.187.219-.434" stroke-width=".757"/><path d="m74.238 86.757.133-.277M74.368 86.477l.176-.277M74.548 86.197l.176-.277" stroke-width=".758"/><path d="m74.718 85.917.176-.316M74.898 85.607l.176-.316" stroke-width=".759"/><path d="m75.068 85.287.133-.277M75.208 85.007l.133-.316" stroke-width=".76"/><path d="m75.338 84.697.129-.277" stroke-width=".767"/><path d="m75.468 84.417.133-.277" stroke-width=".77"/><path d="m75.598 84.137.176-.434" stroke-width=".781"/><path d="m75.778 83.707.043-.36M75.818 83.347l.09-.473M75.908 82.877l.176-.555" stroke-width=".789"/><path d="m76.078 82.317.176-.316" stroke-width=".788"/><g stroke-width=".788"><path d="m76.258 82.007.133-.355M76.388 81.647l.176-.316M76.568 81.327l.176-.316"/></g><path d="m76.748 81.017.133-.398" stroke-width=".788"/><path d="m76.878 80.617.086-.395M76.958 80.217l.043-.316" stroke-width=".792"/><path d="m77.008 79.907.047-.316" stroke-width=".791"/><path d="M77.048 79.587v-.398" stroke-width=".785"/><path d="M77.048 79.187v-.316" stroke-width=".772"/><path d="M77.048 78.877v-.355" stroke-width=".764"/><path d="M77.048 78.517v-.395" stroke-width=".75"/><path d="m77.048 78.127-.223-.277" stroke-width=".344"/><g stroke-dasharray="6, 3"><path d="M6.989 83.427v-.355" stroke-width=".566"/><path d="M6.989 83.077V82.6" stroke-dashoffset=".356" stroke-width=".568"/><path d="m6.989 82.597.043-.594" stroke-dashoffset=".831" stroke-width=".569"/><path d="m7.032 82.007.047-.316" stroke-dashoffset="1.427" stroke-width=".573"/><path d="m7.079 81.687.086-.355" stroke-dashoffset="1.746" stroke-width=".574"/><path d="m7.165 81.327.043-.316" stroke-dashoffset="2.113" stroke-width=".577"/><path d="m7.208 81.017.047-.316" stroke-dashoffset="2.433" stroke-width=".578"/><path d="m7.255 80.697.086-.36" stroke-dashoffset="2.752" stroke-width=".578"/><path d="m7.341 80.337.09-.594" stroke-dashoffset="3.119" stroke-width=".583"/><path d="m7.431 79.747.129-.594" stroke-dashoffset="3.72" stroke-width=".584"/><g stroke-width=".589"><path d="m7.56 79.147.09-.316" stroke-dashoffset="4.328"/><path d="m7.649 78.837.086-.355" stroke-dashoffset="4.657"/><path d="m7.735 78.477.09-.355" stroke-dashoffset="5.023"/></g><path d="m7.825 78.127.086-.355" stroke-dashoffset="5.39" stroke-width=".589"/><path d="m7.911 77.767.133-.398" stroke-dashoffset="5.757" stroke-width=".589"/><path d="m8.044 77.367.133-.395" stroke-dashoffset="6.175" stroke-width=".589"/><g stroke-width=".588"><path d="m8.177 76.977.133-.395" stroke-dashoffset="6.592"/><path d="m8.31 76.577.133-.355" stroke-dashoffset="7.009"/><path d="m8.442 76.227.129-.277" stroke-dashoffset="7.389"/><path d="m8.571 75.947.133-.277" stroke-dashoffset="7.696"/></g><path d="m8.704 75.667.266-.438" stroke-dashoffset="8.003" stroke-width=".589"/><path d="m8.97 75.237.129-.277" stroke-dashoffset="8.512" stroke-width=".593"/><path d="m9.099 74.957.133-.277" stroke-dashoffset="8.819" stroke-width=".593"/><g stroke-width=".594"><path d="m9.231 74.677.176-.316" stroke-dashoffset=".125"/><path d="m9.407 74.367.176-.316" stroke-dashoffset=".488"/><path d="m9.583 74.047.176-.277" stroke-dashoffset=".85"/></g><g stroke-width=".593"><path d="m9.759 73.767.266-.277" stroke-dashoffset="1.178"/><path d="m10.024 73.487.395-.473" stroke-dashoffset="1.561"/><path d="m10.419 73.017.266-.238" stroke-dashoffset="2.179"/></g><g stroke-width=".594"><path d="m10.685 72.777.352-.395" stroke-dashoffset="2.534"/><path d="m11.036 72.387.352-.316" stroke-dashoffset="3.064"/><path d="m11.388 72.067.438-.437" stroke-dashoffset="3.537"/><path d="m11.825 71.627.223-.238" stroke-dashoffset="4.156"/><path d="m12.048 71.397.309-.234" stroke-dashoffset="4.479"/><path d="m12.356 71.157.352-.277" stroke-dashoffset="4.868"/></g><path d="m12.708 70.877.352-.238" stroke-dashoffset="5.316" stroke-width=".594"/><g stroke-width=".595"><path d="m13.06 70.647.352-.277" stroke-dashoffset="5.741"/><path d="m13.411 70.367.352-.238" stroke-dashoffset="6.189"/><path d="m13.763 70.127.262-.238" stroke-dashoffset="6.613"/></g><path d="m14.024 69.887.309-.238" stroke-dashoffset="6.968" stroke-width=".595"/><path d="m14.333 69.647.309-.234" stroke-dashoffset="7.357" stroke-width=".603"/><path d="m14.642 69.417.266-.277" stroke-dashoffset="7.746" stroke-width=".61"/><path d="m14.907 69.137.305-.238" stroke-dashoffset="8.128" stroke-width=".619"/><path d="m15.212 68.897.266-.2" stroke-dashoffset="8.517" stroke-width=".626"/><path d="m15.478 68.697.266-.234" stroke-dashoffset="8.847" stroke-width=".639"/><path d="m15.743 68.467.262-.16" stroke-dashoffset=".202" stroke-width=".648"/><path d="m16.005 68.307.219-.238" stroke-dashoffset=".51" stroke-width=".655"/><path d="m16.224 68.067.266-.238" stroke-dashoffset=".833" stroke-width=".658"/><path d="m16.489 67.827.266-.234" stroke-dashoffset="1.188" stroke-width=".659"/><path d="m16.755 67.597.219-.238" stroke-dashoffset="1.543" stroke-width=".66"/><g stroke-width=".661"><path d="m16.974 67.357.262-.16" stroke-dashoffset="1.867"/><path d="m17.235 67.197.398-.316" stroke-dashoffset="2.175"/><path d="m17.634 66.877.352-.238" stroke-dashoffset="2.682"/></g><path d="m17.985 66.647.484-.234" stroke-dashoffset="3.106" stroke-width=".661"/><path d="m18.47 66.407.262-.16" stroke-dashoffset="3.645" stroke-width=".661"/><path d="m18.731 66.247.309-.117" stroke-dashoffset="3.953" stroke-width=".662"/><path d="m19.04 66.127.57-.238" stroke-dashoffset="4.283" stroke-width=".663"/><path d="m19.61 65.897.266-.16" stroke-dashoffset="4.902" stroke-width=".664"/><g stroke-width=".667"><path d="m19.876 65.737.309-.156" stroke-dashoffset="5.21"/><path d="m20.185 65.577.309-.2" stroke-dashoffset="5.556"/><path d="m20.493 65.377.305-.156" stroke-dashoffset="5.922"/><path d="m20.798 65.217.309-.2" stroke-dashoffset="6.268"/><path d="m21.106 65.027.309-.117" stroke-dashoffset="6.634"/><path d="m21.415 64.907.266-.16" stroke-dashoffset="6.964"/></g><path d="m21.681 64.747.527-.238" stroke-dashoffset="7.272" stroke-width=".668"/><path d="m22.208 64.507.527-.195" stroke-dashoffset="7.851" stroke-width=".672"/><path d="m22.735 64.307.527-.2" stroke-dashoffset="8.414" stroke-width=".676"/><path d="m23.263 64.117.309-.117" stroke-dashoffset="8.978" stroke-width=".677"/><path d="m23.571 63.997.305-.16" stroke-dashoffset=".308" stroke-width=".681"/><path d="m23.876 63.837.398-.16" stroke-dashoffset=".654" stroke-width=".687"/><path d="m24.274 63.677.395-.234" stroke-dashoffset="1.08" stroke-width=".699"/><path d="m24.669 63.437.484-.2" stroke-dashoffset="1.542" stroke-width=".704"/><path d="m25.153 63.237.441-.238" stroke-dashoffset="2.065" stroke-width=".708"/><path d="m25.595 63.007.438-.195" stroke-dashoffset="2.564" stroke-width=".709"/><path d="m26.032 62.807.441-.16" stroke-dashoffset="3.047" stroke-width=".712"/><path d="m26.474 62.647.352-.16" stroke-dashoffset="3.514" stroke-width=".713"/><path d="m26.825 62.487.352-.117" stroke-dashoffset="3.9" stroke-width=".714"/><path d="m27.177 62.367.527-.238" stroke-dashoffset="4.271" stroke-width=".715"/><path d="m27.704 62.127.527-.195" stroke-dashoffset="4.85" stroke-width=".714"/><path d="m28.231 61.937.527-.121" stroke-dashoffset="5.414" stroke-width=".715"/><path d="m28.759 61.817.352-.117" stroke-dashoffset="5.955" stroke-width=".719"/><path d="m29.11 61.697.352-.078" stroke-dashoffset="6.326" stroke-width=".724"/><path d="m29.462 61.617.441-.121" stroke-dashoffset="6.687" stroke-width=".728"/><path d="m29.903 61.497.352-.078" stroke-dashoffset="7.142" stroke-width=".733"/><path d="m30.255 61.417.309-.121" stroke-dashoffset="7.503" stroke-width=".736"/><path d="m30.563 61.297.352-.078" stroke-dashoffset="7.833" stroke-width=".741"/><path d="m30.915 61.217.57-.195" stroke-dashoffset="8.193" stroke-width=".757"/><path d="m31.488 61.027.309-.082" stroke-dashoffset="8.799" stroke-width=".76"/><path d="m31.798 60.947.309-.117" stroke-dashoffset=".116" stroke-width=".761"/><g stroke-width=".762"><path d="m32.098 60.827.527-.121" stroke-dashoffset=".446"/><path d="m32.628 60.707.527-.117" stroke-dashoffset=".987"/><path d="m33.158 60.587.352-.04" stroke-dashoffset="1.528"/></g><path d="M33.508 60.547h.352" stroke-dashoffset="1.882" stroke-width=".763"/><path d="m33.858 60.547.484-.04" stroke-dashoffset="2.234" stroke-width=".763"/><path d="m34.348 60.507.441-.04" stroke-dashoffset="2.72" stroke-width=".766"/><path d="m34.788 60.467.438-.04" stroke-dashoffset="3.161" stroke-width=".772"/><path d="m35.228 60.437.441-.043" stroke-dashoffset="3.603" stroke-width=".78"/><path d="m35.668 60.387.395-.04" stroke-dashoffset="4.044" stroke-width=".784"/><path d="m36.058 60.347.309-.04" stroke-dashoffset="4.442" stroke-width=".787"/><path d="m36.368 60.307.309-.078" stroke-dashoffset="4.753" stroke-width=".787"/><path d="m36.678 60.237.527-.117" stroke-dashoffset="5.07" stroke-width=".789"/><path d="m37.208 60.117.309-.043" stroke-dashoffset="5.611" stroke-width=".79"/><g stroke-width=".793"><path d="m37.508 60.077.309-.04" stroke-dashoffset="5.922"/><path d="M37.818 60.037h.395" stroke-dashoffset="6.232"/><path d="m38.218 60.037.395-.04" stroke-dashoffset="6.628"/><path d="M38.608 59.997h.527" stroke-dashoffset="7.026"/></g><g stroke-width=".794"><path d="m39.138 59.997.484-.04" stroke-dashoffset="7.554"/><path d="m39.618 59.957.527-.04" stroke-dashoffset="8.039"/><path d="m40.148 59.917.527-.04" stroke-dashoffset="8.568"/></g><path d="m40.678 59.877.531-.04" stroke-dashoffset=".097" stroke-width=".794"/><path d="m41.208 59.837.48-.043" stroke-dashoffset=".627" stroke-width=".798"/><path d="m41.688 59.797.531-.04" stroke-dashoffset="1.112" stroke-width=".801"/><path d="m42.218 59.757.48-.04" stroke-dashoffset="1.641" stroke-width=".802"/><path d="m42.698 59.717.484-.078" stroke-dashoffset="2.127" stroke-width=".803"/><path d="m43.188 59.637.441-.04" stroke-dashoffset="2.617" stroke-width=".807"/><path d="m43.628 59.597.484-.04" stroke-dashoffset="3.059" stroke-width=".813"/><path d="m44.108 59.557.48-.04" stroke-dashoffset="3.544" stroke-width=".813"/><path d="m44.588 59.527.484-.043" stroke-dashoffset="4.029" stroke-width=".817"/><path d="M45.078 59.477h.484" stroke-dashoffset="4.515" stroke-width=".817"/><path d="M45.558 59.477h.441" stroke-dashoffset="4.999" stroke-width=".822"/><path d="M45.998 59.477h.484" stroke-dashoffset="5.438" stroke-width=".822"/><path d="M46.488 59.477h.48" stroke-dashoffset="5.922" stroke-width=".823"/><path d="M46.968 59.477h.531" stroke-dashoffset="6.406" stroke-width=".826"/><path d="M47.498 59.477h.48" stroke-dashoffset="6.934" stroke-width=".827"/><path d="M47.978 59.477h.484" stroke-dashoffset="7.418" stroke-width=".827"/><g stroke-width=".828"><path d="M48.458 59.477h.441" stroke-dashoffset="7.901"/><path d="M48.908 59.477h.352" stroke-dashoffset="8.341"/><path d="M49.258 59.477h.352" stroke-dashoffset="8.693"/></g><path d="m49.608 59.477.57.082" stroke-dashoffset=".045" stroke-width=".829"/><path d="m50.178 59.557.531.04" stroke-dashoffset=".622" stroke-width=".83"/><path d="m50.708 59.597.527.078" stroke-dashoffset="1.151" stroke-width=".831"/><path d="M51.238 59.677h.305" stroke-dashoffset="1.685" stroke-width=".832"/><g stroke-width=".833"><path d="m51.538 59.677.617.078" stroke-dashoffset="1.993"/><path d="m52.158 59.757.352.04" stroke-dashoffset="2.614"/><path d="m52.508 59.797.395.082" stroke-dashoffset="2.968"/></g><path d="m52.908 59.877.355.04" stroke-dashoffset="3.371" stroke-width=".833"/><path d="m53.258 59.917.395.078" stroke-dashoffset="3.725" stroke-width=".834"/><path d="m53.658 59.997.352.078" stroke-dashoffset="4.129" stroke-width=".834"/><path d="m54.008 60.077.352.043" stroke-dashoffset="4.49" stroke-width=".834"/><path d="m54.358 60.117.395.078" stroke-dashoffset="4.844" stroke-width=".835"/><path d="m54.748 60.197.617.078" stroke-dashoffset="5.247" stroke-width=".836"/><path d="m55.368 60.277.309.04" stroke-dashoffset="5.868" stroke-width=".837"/><path d="m55.678 60.307.309.04" stroke-dashoffset="6.179" stroke-width=".837"/><g stroke-width=".837"><path d="m55.988 60.347.305.04" stroke-dashoffset="6.489"/><path d="m56.288 60.387.309.043" stroke-dashoffset="6.799"/><path d="m56.598 60.437.352.078" stroke-dashoffset="7.11"/></g><g stroke-width=".838"><path d="m56.948 60.507.352.04" stroke-dashoffset="7.471"/><path d="m57.298 60.547.309.04" stroke-dashoffset="7.824"/><path d="m57.608 60.587.352.078" stroke-dashoffset="8.135"/><path d="m57.958 60.667.309.04" stroke-dashoffset="8.496"/><path d="m58.268 60.707.309.082" stroke-dashoffset="8.806"/></g><path d="m58.578 60.787.527.156" stroke-dashoffset=".124" stroke-width=".836"/><path d="m59.108 60.947.395.16" stroke-dashoffset=".675" stroke-width=".832"/><path d="m59.498 61.107.441.195" stroke-dashoffset="1.101" stroke-width=".832"/><path d="m59.938 61.297.527.238" stroke-dashoffset="1.583" stroke-width=".832"/><path d="m60.468 61.537.527.238" stroke-dashoffset="2.162" stroke-width=".831"/><path d="m60.998 61.777.266.2" stroke-dashoffset="2.741" stroke-width=".831"/><g stroke-width=".831"><path d="m61.258 61.977.262.156" stroke-dashoffset="3.071"/><path d="m61.528 62.127.266.16" stroke-dashoffset="3.378"/><path d="m61.788 62.287.352.238" stroke-dashoffset="3.686"/></g><path d="m62.138 62.527.613.234" stroke-dashoffset="4.111" stroke-width=".832"/><path d="m62.758 62.767.266.16" stroke-dashoffset="4.771" stroke-width=".832"/><path d="m63.018 62.927.57.277" stroke-dashoffset="5.078" stroke-width=".831"/><path d="m63.588 63.197.266.156" stroke-dashoffset="5.714" stroke-width=".831"/><path d="m63.858 63.357.266.16" stroke-dashoffset="6.021" stroke-width=".831"/><g stroke-width=".83"><path d="m64.118 63.517.262.2" stroke-dashoffset="6.329"/><path d="m64.388 63.717.352.156" stroke-dashoffset="6.659"/><path d="m64.738 63.877.266.2" stroke-dashoffset="7.045"/><path d="m64.998 64.077.352.238" stroke-dashoffset="7.375"/></g><path d="m65.348 64.307.309.195" stroke-dashoffset="7.799" stroke-width=".829"/><path d="m65.658 64.507.305.2" stroke-dashoffset="8.165" stroke-width=".829"/><path d="m65.968 64.707.309.238" stroke-dashoffset="8.531" stroke-width=".828"/><path d="m66.278 64.947.266.195" stroke-dashoffset="8.92" stroke-width=".828"/><path d="m66.538 65.137.262.16" stroke-dashoffset=".25" stroke-width=".828"/><g stroke-width=".827"><path d="m66.798 65.297.352.277" stroke-dashoffset=".558"/><path d="m67.158 65.577.309.238" stroke-dashoffset="1.006"/><path d="m67.458 65.817.352.277" stroke-dashoffset="1.394"/><path d="m67.818 66.097.266.156" stroke-dashoffset="1.842"/></g><path d="m68.078 66.247.262.277" stroke-dashoffset="2.15" stroke-width=".827"/><path d="m68.338 66.527.266.2" stroke-dashoffset="2.533" stroke-width=".826"/><path d="m68.608 66.727.352.234" stroke-dashoffset="2.862" stroke-width=".82"/><path d="m68.958 66.957.309.238" stroke-dashoffset="3.287" stroke-width=".815"/><path d="m69.268 67.197.262.277" stroke-dashoffset="3.676" stroke-width=".811"/><path d="m69.528 67.477.441.398" stroke-dashoffset="4.058" stroke-width=".811"/><path d="m69.968 67.877.352.434" stroke-dashoffset="4.65" stroke-width=".806"/><path d="m70.318 68.307.266.238" stroke-dashoffset="5.21" stroke-width=".801"/><path d="m70.588 68.547.305.473" stroke-dashoffset="5.565" stroke-width=".79"/><path d="m70.888 69.017.309.438" stroke-dashoffset="6.131" stroke-width=".786"/><path d="m71.198 69.457.352.395" stroke-dashoffset="6.664" stroke-width=".782"/><path d="m71.548 69.847.352.355" stroke-dashoffset="7.194" stroke-width=".781"/><path d="m71.908 70.207.352.398" stroke-dashoffset="7.694" stroke-width=".78"/><path d="m72.258 70.607.266.355" stroke-dashoffset="8.224" stroke-width=".769"/><path d="m72.518 70.957.219.355" stroke-dashoffset="8.667" stroke-width=".753"/><path d="m72.738 71.317.133.395" stroke-dashoffset=".086" stroke-width=".742"/><path d="m72.868 71.707.133.516" stroke-dashoffset=".503" stroke-width=".734"/><path d="m73.008 72.227.133.438" stroke-dashoffset="1.034" stroke-width=".719"/><path d="m73.138 72.667.129.277" stroke-dashoffset="1.489" stroke-width=".708"/><path d="m73.268 72.937.176.273" stroke-dashoffset="1.796" stroke-width=".703"/><path d="m73.438 73.217.266.36" stroke-dashoffset="2.124" stroke-width=".699"/><path d="m73.708 73.577.219.234" stroke-dashoffset="2.568" stroke-width=".698"/><path d="m73.928 73.807.223.316" stroke-dashoffset="2.891" stroke-width=".698"/><g stroke-width=".697"><path d="m74.148 74.127.219.238" stroke-dashoffset="3.277"/><path d="m74.368 74.367.219.238" stroke-dashoffset="3.6"/><path d="m74.588 74.597.219.277" stroke-dashoffset="3.924"/><path d="m74.808 74.877.355.277" stroke-dashoffset="4.278"/><path d="m75.158 75.157.352.316" stroke-dashoffset="4.726"/><path d="m75.508 75.467.305.277" stroke-dashoffset="5.199"/><path d="m75.818 75.747.266.156" stroke-dashoffset="5.613"/><path d="m76.078 75.907.309.277" stroke-dashoffset="5.921"/><path d="m76.388 76.187.262.16" stroke-dashoffset="6.335"/></g><path d="m76.658 76.347.352.156" stroke-dashoffset="6.643" stroke-width=".695"/><path d="m77.008 76.497.309.16" stroke-dashoffset="7.029" stroke-width=".695"/><path d="m77.318 76.657.352.277" stroke-dashoffset="7.375" stroke-width=".694"/><path d="m77.668 76.937.266.316" stroke-dashoffset="7.823" stroke-width=".688"/></g></g><g stroke="#00bfff"><path d="m7.825 78.437-.133-.395" stroke-width=".401"/><path d="m7.692 78.047-.086-.316" stroke-width=".444"/><path d="m7.606 77.727-.09-.398" stroke-width=".462"/><path d="m7.517 77.327-.043-.355" stroke-width=".467"/><path d="M7.474 76.977v-.434M7.474 76.537v-.555M7.474 75.987v-.555" stroke-width=".471"/><path d="M7.474 75.437v-.395" stroke-width=".472"/><path d="M7.474 75.037v-.398M7.474 74.637v-.316" stroke-width=".474"/><path d="M7.474 74.327v-.316" stroke-width=".475"/><path d="M7.474 74.007v-.355" stroke-width=".476"/><path d="M7.474 73.647v-.395" stroke-width=".484"/><path d="M7.474 73.257v-.398" stroke-width=".49"/><path d="M7.474 72.857v-.434" stroke-width=".491"/><path d="M7.474 72.427v-.438" stroke-width=".496"/><path d="M7.474 71.987v-.434" stroke-width=".504"/><path d="M7.474 71.557v-.395" stroke-width=".509"/><path d="m7.474 71.157-.043-.398" stroke-width=".513"/><path d="M7.431 70.757v-.316" stroke-width=".52"/><path d="M7.431 70.447v-.555" stroke-width=".524"/><path d="M7.431 69.887v-.633M7.431 69.257v-.316" stroke-width=".525"/><g stroke-width=".525"><path d="M7.431 68.937v-.434M7.431 68.507v-.438M7.431 68.067v-.473"/></g><path d="M7.431 67.597v-.516" stroke-width=".53"/><path d="m7.431 67.077.043-.516" stroke-width=".546"/><path d="m7.474 66.567.043-.555" stroke-width=".558"/><path d="m7.517 66.007.043-.555" stroke-width=".563"/><path d="m7.56 65.457.09-.512M7.649 64.947l.086-.477" stroke-width=".565"/><path d="m7.735 64.467.09-.473" stroke-width=".568"/><path d="m7.825 63.997.086-.477" stroke-width=".572"/><path d="m7.911 63.517.047-.477" stroke-width=".573"/><path d="m7.958 63.037.043-.512" stroke-width=".585"/><path d="m8.001 62.527.043-.555" stroke-width=".593"/><path d="m8.044 61.977.043-.555" stroke-width=".596"/><path d="m8.087 61.417.09-.633M8.177 60.787l.09-.633" stroke-width=".597"/><path d="m8.267 60.157.176-.676M8.442 59.477l.176-.672" stroke-width=".598"/><g stroke-width=".598"><path d="m8.618 58.807.262-.71M8.88 58.097l.219-.676M9.099 57.417l.133-.633M9.231 56.787l.266-.594"/></g><path d="m9.497 56.197.176-.55M9.673 55.647l.176-.555" stroke-width=".599"/><g stroke-width=".599"><path d="m9.849 55.087.262-.477M10.11 54.617l.176-.516M10.286 54.097l.223-.473M10.509 53.627l.262-.555"/></g><path d="m10.77 53.067.223-.555M10.993 52.517l.262-.594" stroke-width=".6"/><g stroke-width=".6"><path d="m11.255 51.917.309-.633M11.563 51.287l.352-.672M11.915 50.617l.352-.715M12.267 49.897l.441-.75"/></g><path d="m12.708 49.147.395-.715" stroke-width=".601"/><path d="m13.103 48.437.395-.71M13.497 47.727l.309-.672" stroke-width=".602"/><path d="m13.806 47.057.352-.633M14.157 46.417l.266-.555M14.423 45.867l.262-.516" stroke-width=".603"/><path d="m14.685 45.347.266-.477" stroke-width=".604"/><path d="m14.95 44.877.262-.473" stroke-width=".605"/><path d="m15.212 44.397.223-.438" stroke-width=".608"/><path d="m15.435 43.967.262-.395" stroke-width=".609"/><path d="m15.696 43.569.223-.434" stroke-width=".612"/><path d="m15.919 43.136.305-.477M16.224 42.659l.352-.516" stroke-width=".613"/><path d="m16.575 42.143.355-.512" stroke-width=".614"/><path d="m16.931 41.632.437-.594M17.368 41.038l.441-.555" stroke-width=".615"/><path d="m17.81 40.483.395-.555" stroke-width=".616"/><g stroke-width=".616"><path d="m18.204 39.929.352-.477M18.556 39.452l.395-.395M18.95 39.057l.266-.316"/></g><path d="m19.216 38.741.266-.277M19.481 38.464l.262-.238" stroke-width=".617"/><path d="m19.743 38.225.484-.434" stroke-width=".618"/><path d="m20.228 37.792.309-.316" stroke-width=".621"/><g stroke-width=".621"><path d="m20.536 37.475.352-.277M20.888 37.198l.395-.36M21.282 36.839l.441-.316"/></g><path d="m21.724 36.522.395-.355M22.118 36.167l.441-.355" stroke-width=".622"/><path d="m22.56 35.811.438-.316M22.997 35.495l.441-.316M23.438 35.179l.438-.277" stroke-width=".623"/><path d="m23.876 34.901.398-.277M24.274 34.624l.438-.238" stroke-width=".624"/><path d="m24.712 34.386.352-.195M25.063 34.19l.398-.16" stroke-width=".625"/><path d="m25.462 34.03.352-.2" stroke-width=".629"/><path d="m25.813 33.831.617-.277M26.431 33.554l.352-.156M26.782 33.397l.352-.16" stroke-width=".63"/><path d="m27.134 33.237.438-.195" stroke-width=".634"/><path d="m27.571 33.042.398-.2M27.97 32.843l.438-.2" stroke-width=".635"/><path d="m28.407 32.643.484-.195" stroke-width=".639"/><path d="m28.892 32.448.484-.121" stroke-width=".64"/><path d="m29.376 32.327.484-.156M29.86 32.171l.438-.16" stroke-width=".645"/><path d="m30.298 32.011.484-.156" stroke-width=".648"/><path d="m30.782 31.854.441-.121M31.228 31.733l.437-.117" stroke-width=".649"/><path d="m31.658 31.616.398-.117" stroke-width=".648"/><path d="m32.058 31.499.437-.082" stroke-width=".647"/><path d="m32.498 31.417.484-.04M32.978 31.378l.527-.04" stroke-width=".646"/><path d="M33.508 31.339h.527M34.038 31.339h.527M34.568 31.339h.531M35.098 31.339h.48M35.578 31.339h.484M36.058 31.339h.441" stroke-width=".645"/><path d="M36.498 31.339h.438M36.938 31.339h.484" stroke-width=".646"/><path d="M37.418 31.339h.441M37.868 31.339h.484M38.348 31.339h.484" stroke-width=".647"/><path d="M38.838 31.339h.48M39.318 31.339h.441" stroke-width=".648"/><path d="M39.758 31.339h.441M40.198 31.339h.437" stroke-width=".653"/><path d="M40.638 31.339h.441M41.078 31.339h.438" stroke-width=".655"/><path d="M41.508 31.339h.398" stroke-width=".658"/><path d="M41.908 31.339h.438" stroke-width=".662"/><path d="M42.348 31.339h.441M42.788 31.339l.57.04" stroke-width=".667"/><path d="M43.358 31.378h.574" stroke-width=".668"/><path d="m43.938 31.378.656.04M44.588 31.417l.66.04" stroke-width=".672"/><path d="m45.248 31.456.66.043" stroke-width=".673"/><path d="m45.908 31.499.617.078M46.528 31.577l.66.04" stroke-width=".674"/><path d="m47.188 31.616.613.078" stroke-width=".675"/><path d="m47.798 31.694.574.078" stroke-width=".679"/><path d="m48.378 31.772.527.082" stroke-width=".682"/><path d="m48.908 31.854.484.078" stroke-width=".683"/><path d="m49.388 31.932.484.117" stroke-width=".686"/><path d="m49.868 32.05.395.121M50.268 32.171l.352.117" stroke-width=".687"/><path d="m50.618 32.288.395.121" stroke-width=".69"/><path d="m51.008 32.409.352.117" stroke-width=".691"/><path d="m51.368 32.526.352.16M51.718 32.686l.398.156" stroke-width=".692"/><path d="m52.118 32.843.437.2" stroke-width=".693"/><path d="m52.548 33.042.398.156M52.948 33.198l.437.121" stroke-width=".696"/><path d="m53.388 33.319.398.156" stroke-width=".697"/><path d="m53.788 33.475.395.16M54.178 33.636l.352.156" stroke-width=".7"/><g stroke-width=".7"><path d="m54.528 33.792.395.16M54.928 33.952l.352.238M55.278 34.19l.398.195M55.678 34.386l.395.238M56.068 34.624l.395.238M56.468 34.862l.398.277M56.868 35.139l.395.277M57.258 35.417l.395.316"/></g><path d="m57.658 35.733.398.355M58.048 36.089l.352.355" stroke-width=".7"/><path d="m58.408 36.444.352.355M58.758 36.8l.309.316" stroke-width=".701"/><g stroke-width=".702"><path d="m59.068 37.116.352.36M59.418 37.475l.352.316M59.768 37.792l.352.316M60.118 38.108l.395.355"/></g><path d="m60.508 38.464.352.277" stroke-width=".703"/><g stroke-width=".703"><path d="m60.868 38.741.309.316M61.168 39.057l.352.238M61.528 39.296l.352.277M61.878 39.573l.352.316"/></g><g stroke-width=".704"><path d="m62.228 39.889.398.277M62.628 40.167l.352.316M62.978 40.483l.262.234M63.238 40.718l.352.238M63.588 40.956l.266.277"/></g><g stroke-width=".704"><path d="m63.858 41.233.266.2M64.118 41.432l.305.238M64.428 41.671l.309.234M64.738 41.905l.309.2M65.048 42.104l.309.238M65.348 42.343l.309.316"/></g><g stroke-width=".704"><path d="m65.658 42.659.262.277M65.918 42.936l.266.355M66.188 43.292l.262.316M66.448 43.607l.266.316M66.718 43.927l.262.316M66.978 44.237l.266.316M67.248 44.557l.262.398M67.508 44.957l.309.355M67.818 45.307l.266.434M68.078 45.747l.309.398M68.388 46.147l.305.395M68.688 46.537l.266.434M68.958 46.967l.266.36M69.228 47.327l.262.355"/></g><path d="m69.488 47.687.219.355M69.708 48.037l.223.355" stroke-width=".704"/><g stroke-width=".704"><path d="m69.928 48.397.262.355M70.188 48.757l.223.316M70.408 49.067l.219.398M70.628 49.467l.219.355M70.848 49.827l.176.395"/></g><path d="m71.028 50.217.176.438M71.198 50.657l.133.395" stroke-width=".704"/><path d="m71.338 51.047.133.355M71.468 51.407l.133.355" stroke-width=".705"/><g stroke-width=".705"><path d="m71.598 51.757.129.277M71.728 52.037l.133.316M71.858 52.357l.309.516"/></g><path d="m72.168 52.867.176.277" stroke-width=".706"/><g stroke-width=".709"><path d="m72.348 53.147.176.277M72.518 53.427l.176.355M72.698 53.777l.133.316"/></g><g stroke-width=".709"><path d="m72.828 54.097.133.36M72.958 54.457l.176.355M73.138 54.807l.176.395M73.318 55.207l.129.355M73.438 55.557l.176.316"/></g><path d="m73.618 55.877.18.594" stroke-width=".71"/><path d="m73.798 56.467.176.477" stroke-width=".711"/><path d="m73.978 56.947.176.473" stroke-width=".712"/><path d="m74.148 57.417.176.438" stroke-width=".713"/><path d="m74.328 57.857.086.316M74.408 58.177l.133.316" stroke-width=".714"/><path d="m74.548 58.487.086.395M74.628 58.887l.133.398M74.758 59.287l.133.395" stroke-width=".715"/><path d="m74.898 59.677.09.395M74.988 60.077l.086.36" stroke-width=".716"/><path d="m75.068 60.437.133.273M75.208 60.707l.086.32" stroke-width=".717"/><g stroke-width=".719"><path d="m75.288 61.027.176.473M75.468 61.497l.133.277M75.598 61.777l.133.316"/></g><path d="m75.728 62.097.133.316" stroke-width=".719"/><path d="m75.868 62.407.176.398" stroke-width=".72"/><path d="m76.038 62.807.176.355M76.218 63.167l.176.434M76.388 63.597l.176.398" stroke-width=".721"/><g stroke-width=".725"><path d="m76.568 63.997.086.395M76.658 64.387l.09.316M76.748 64.707l.133.316"/></g><path d="m76.878 65.027.129.434" stroke-width=".725"/><path d="m77.008 65.457.09.398M77.098 65.857l.133.395" stroke-width=".726"/><path d="m77.228 66.247.043.438" stroke-width=".728"/><path d="m77.268 66.687.043.55M77.318 67.237v.36M77.318 67.597l.043.355" stroke-width=".73"/><g stroke-width=".731"><path d="M77.358 67.957v.355M77.358 68.307v.316M77.358 68.627v.355"/></g><path d="M77.358 68.977v.555" stroke-width=".731"/><path d="m77.358 69.537.047.516M77.408 70.047l.043.473" stroke-width=".732"/><path d="m77.448 70.527.043.477M77.488 70.997l.047.555" stroke-width=".733"/><path d="M77.538 71.557v.355M77.538 71.907v.355M77.538 72.267l-.047.355M77.488 72.617v.36" stroke-width=".735"/><path d="m77.488 72.977-.043.395" stroke-width=".736"/><path d="m77.448 73.377-.09.555M77.358 73.927v.395" stroke-width=".737"/><g stroke-width=".738"><path d="m77.358 74.327-.043.316M77.318 74.637l-.086.355M77.228 74.997l-.09.437"/></g><path d="m77.138 75.437-.133.395M77.008 75.827l-.086.316" stroke-width=".739"/><path d="m76.918 76.147-.043.316" stroke-width=".738"/><path d="M76.878 76.457v.398" stroke-width=".751"/><path d="M76.878 76.857v.434" stroke-width=".773"/><path d="m76.878 77.287.043.316" stroke-width=".78"/><path d="m76.918 77.607.043.398" stroke-width=".789"/><path d="m76.958 78.007.09.434" stroke-width=".794"/><path d="M77.048 78.437v.316" stroke-width=".737"/></g><g stroke="#0f0"><path d="m.614 40.28 13.137 7.234" stroke-width=".867"/><path d="m.833 44.397-.09-.398" stroke-width=".786"/><path d="m.743 44.007-.086-.434" stroke-width=".796"/><path d="m.657 43.569-.09-.395" stroke-width=".8"/><path d="m.567 43.175-.086-.438" stroke-width=".805"/><path d="m.481 42.737-.047-.555" stroke-width=".811"/><path d="M.435 42.182v-.55" stroke-width=".817"/><path d="M.435 41.632v-.516" stroke-width=".834"/><path d="M.435 41.116v-.477" stroke-width=".847"/><path d="M.435 40.639v-.395" stroke-width=".855"/><path d="M.435 40.245v-.437" stroke-width=".857"/><path d="M.435 39.807v-.395" stroke-width=".863"/><path d="m.435 39.413.047-.355" stroke-width=".869"/><path d="m.481 39.057.086-.395" stroke-width=".888"/><g stroke-width=".885"><path d="m.567 38.663.352-.121M.919 38.542l.398.16M1.317 38.702l.352.156M1.669 38.858l.437.121"/></g><path d="m2.106 38.979.352.117M2.458 39.097l.352.078M2.81 39.175l.398.04" stroke-width=".885"/><path d="m3.208 39.214.437.082" stroke-width=".886"/><path d="m3.646 39.296.441.04M4.087 39.335l.352.04" stroke-width=".887"/><path d="m4.438 39.374.309.04" stroke-width=".888"/><path d="M4.747 39.413h.395" stroke-width=".889"/><path d="M5.142 39.413h.352" stroke-width=".89"/><path d="m59.468 36.694 6.809-8.277" stroke-width=".791"/><path d="m62.578 29.358.441-.078" stroke-width=".632"/><path d="m63.018 29.28.395-.117" stroke-width=".668"/><path d="m63.418 29.163.527-.16" stroke-width=".689"/><path d="m63.938 29.003.574-.2" stroke-width=".708"/><path d="m64.518 28.804.309-.117" stroke-width=".712"/><path d="m64.828 28.686.305-.117" stroke-width=".717"/><path d="m65.128 28.569.309-.121" stroke-width=".722"/><path d="m65.438 28.448.309-.117" stroke-width=".727"/><path d="m65.748 28.331.484-.238" stroke-width=".728"/><path d="m66.228 28.093.395-.156" stroke-width=".73"/><path d="m66.628 27.936.309-.2" stroke-width=".731"/><path d="m66.938 27.737.09.434" stroke-width=".792"/><path d="M67.028 28.171v.316" stroke-width=".808"/><path d="M67.028 28.487v.36" stroke-width=".823"/><path d="M67.028 28.847v.395" stroke-width=".83"/><path d="M67.028 29.241v.434" stroke-width=".836"/><path d="M67.028 29.675v.398" stroke-width=".843"/><path d="M67.028 30.073v.395" stroke-width=".846"/><path d="M67.028 30.468v.316" stroke-width=".847"/><path d="M67.028 30.784v.316" stroke-width=".851"/><path d="M67.028 31.1v.437" stroke-width=".855"/><path d="M67.028 31.538v.395" stroke-width=".857"/><path d="m69.548 93.437 12.02 5.234" stroke-width=".751"/><path d="m79.778 96.487-.398-.121" stroke-width=".815"/><g stroke-width=".958"><path d="m79.378 96.367.133.516M79.508 96.887l.266.195M79.778 97.077l.219.238M79.998 97.317l.266.2M80.258 97.517l.219.238M80.478 97.757l.438.355"/></g><path d="m80.918 98.117.309.355" stroke-width=".959"/><path d="m81.228 98.467.309.316" stroke-width=".96"/><path d="m81.538 98.787.309.2" stroke-width=".961"/><path d="m81.848 98.987-.352.156M81.498 99.137l-.395.043" stroke-width="1.029"/><path d="m81.098 99.187-.484.04" stroke-width="1.03"/><path d="m80.618 99.217-.574.078" stroke-width="1.026"/><path d="m80.038 99.297-.309.078M79.728 99.377l-.305.04" stroke-width="1.025"/><path d="m79.428 99.417-.309.082" stroke-width="1.022"/><path d="m79.118 99.497-.395.156" stroke-width="1.017"/><path d="m78.728 99.657-.355.2" stroke-width=".997"/><path d="m78.368 99.857-.352.277M78.018 100.127l-.305.195" stroke-width=".975"/><path d="m77.708 100.327-.355.16" stroke-width=".976"/></g><g stroke="red"><path d="m49.648 98.867.223.238" stroke-width="1.108"/><path d="m49.868 99.097.395.16" stroke-width="1.11"/><path d="m50.268 99.257.527.156M50.798 99.417l.441.121" stroke-width="1.114"/><path d="m51.238 99.537.305.078" stroke-width="1.115"/><path d="m51.538 99.617.484.078" stroke-width="1.116"/><path d="m52.028 99.697.398.082" stroke-width="1.119"/><path d="m52.418 99.777.395.117" stroke-width="1.12"/><path d="m52.818 99.897.309.04" stroke-width="1.123"/><path d="m53.128 99.937-.176.355" stroke-width="1.158"/><path d="m52.948 100.287-.176.398" stroke-width="1.167"/><path d="m52.778 100.687-.223.316" stroke-width="1.168"/><path d="m52.548 101.007-.176.355M52.378 101.357l-.129.277" stroke-width="1.169"/><path d="m52.248 101.637-.176.277" stroke-width="1.171"/><path d="m52.068 101.917-.18.395" stroke-width="1.174"/><path d="m51.888 102.307-.176.316" stroke-width="1.175"/><path d="m51.718 102.627-.219.355" stroke-width="1.178"/><path d="m15.345 89.407-.219.395" stroke-width="1.011"/><path d="M15.126 89.797v.395M15.126 90.197l.086.438" stroke-width="1.012"/><path d="m15.212 90.627.09.316" stroke-width="1.013"/><path d="m15.302 90.947.176.395" stroke-width="1.015"/><path d="m15.478 91.347.133.438" stroke-width="1.016"/><path d="m15.61 91.777.086.395" stroke-width="1.017"/><path d="m15.696 92.177.133.434M15.829 92.607l.133.398" stroke-width="1.018"/><path d="m15.962 93.007.086.434" stroke-width="1.071"/><path d="m16.048 93.437-.305.277" stroke-width="1.097"/><path d="m15.743 93.717-.309.2" stroke-width="1.114"/><path d="m15.435 93.917-.309.117" stroke-width="1.125"/><path d="m15.126 94.037-.309.082" stroke-width="1.14"/><path d="m14.817 94.117-.484.078" stroke-width="1.159"/><path d="M14.333 94.197h-.395" stroke-width="1.175"/><path d="M13.938 94.197h-.395M13.544 94.197h-.441" stroke-width="1.181"/><path d="M13.103 94.197h-.309" stroke-width="1.18"/><path d="m12.794 94.197-.352.04" stroke-width="1.181"/><path d="m12.442 94.237-.352.078" stroke-width="1.179"/><path d="m12.091 94.307-.309.04" stroke-width="1.178"/><path d="m11.782 94.347.285-.137" stroke-width=".763"/><path d="m12.067 94.217.29-.14" stroke-width=".348"/><path d="M71.338 85.167h.484" stroke-width="1.069"/><path d="m71.818 85.167.484-.043" stroke-width="1.076"/><path d="m72.298 85.127.484-.04" stroke-width="1.079"/><path d="m72.788 85.087.48-.078" stroke-width="1.083"/><path d="m73.268 85.007.352-.078M73.618 84.937l.398-.082" stroke-width="1.084"/><path d="m74.018 84.847.352-.078" stroke-width="1.086"/><path d="m74.368 84.777.395-.117" stroke-width="1.088"/><path d="m74.758 84.657.309-.16" stroke-width="1.094"/><path d="m75.068 84.497.266-.156" stroke-width="1.105"/><path d="m75.338 84.337.129.316" stroke-width="1.121"/><path d="m75.468 84.657.09.395" stroke-width="1.128"/><path d="m75.558 85.047.176.516" stroke-width="1.133"/><path d="m75.728 85.567.176.516" stroke-width="1.134"/><path d="m75.908 86.077.133.434" stroke-width="1.136"/><path d="m76.038 86.517.176.395" stroke-width="1.138"/><path d="m76.218 86.907.086.316" stroke-width="1.139"/><path d="m76.298 87.227.223.36" stroke-width="1.14"/><path d="m35.928 57.897-.219.277" stroke-width="1.009"/><path d="m35.708 58.177-.176.316" stroke-width="1.013"/><path d="m35.528 58.487-.219.316" stroke-width="1.015"/><path d="m35.318 58.807-.266.355" stroke-width="1.03"/><path d="m35.048 59.167-.262.277" stroke-width="1.051"/><path d="m34.788 59.437-.223.316" stroke-width="1.052"/><path d="m34.568 59.757-.262.398M34.298 60.157l-.266.316" stroke-width="1.056"/><path d="m34.038 60.467-.262.316M33.778 60.787l-.133.277" stroke-width="1.057"/><path d="m33.638 61.067.219.434" stroke-width="1.121"/><path d="m33.858 61.497.352.238" stroke-width="1.122"/><g stroke-width="1.123"><path d="m34.208 61.737.309.238M34.518 61.977l.266.156M34.788 62.127l.309.2"/></g><path d="m35.098 62.327.305.2" stroke-width="1.124"/><path d="m35.398 62.527.309.156" stroke-width="1.129"/><path d="m35.708 62.687.352.277" stroke-width="1.134"/><path d="m36.058 62.967.266.16" stroke-width="1.135"/><path d="m60.338 65.057-.219-.355" stroke-width="1.198"/><path d="m60.118 64.707-.09-.594M60.028 64.117l-.043-.355" stroke-width="1.199"/><path d="m59.988 63.757-.086-.355M59.898 63.397l-.09-.36M59.808 63.037l-.043-.316" stroke-width="1.2"/><path d="m59.768 62.727-.133-.555" stroke-width="1.206"/><path d="m59.638 62.167-.086-.355" stroke-width="1.207"/><path d="M59.548 61.817v-.395M59.548 61.417v-.395" stroke-width="1.209"/><path d="M59.548 61.027v-.32" stroke-width="1.21"/><path d="m59.548 60.707.395-.117" stroke-width="1.178"/><g stroke-width="1.179"><path d="M59.938 60.587h.437M60.378 60.587h.309M60.688 60.587h.398"/></g><path d="M61.088 60.587h.437" stroke-width="1.18"/><path d="M61.528 60.587h.398" stroke-width="1.181"/><path d="M61.918 60.587h.395M62.318 60.587h.395M62.708 60.587l.352-.04M63.068 60.547l.398-.04M63.458 60.507l.352-.04" stroke-width="1.182"/><path d="m63.818 60.467.395-.04" stroke-width="1.181"/><g stroke-width="1.181"><path d="m64.208 60.437.352-.043M64.558 60.387l.441-.078M64.998 60.307l.309-.078"/></g><path d="m65.308 60.237.352-.04" stroke-width="1.18"/><path d="m200.728 88.847.266.2" stroke-width="1.046"/><path d="m200.988 89.047.437.117" stroke-width="1.047"/><path d="m201.428 89.167.527.117M201.958 89.287l.309.082M202.258 89.367l.309.078" stroke-width="1.049"/><path d="m202.568 89.447.352.078M202.918 89.527l.66.121M203.578 89.647l.57.04" stroke-width="1.05"/><path d="m204.158 89.687.484.04" stroke-width="1.054"/><path d="M204.638 89.717h.352" stroke-width="1.056"/><path d="m204.988 89.717.398.078" stroke-width="1.06"/><path d="m205.388 89.797.043.395" stroke-width="1.028"/><path d="M205.428 90.197v.398" stroke-width="1.045"/><path d="M205.428 90.597v.512" stroke-width="1.05"/><path d="M205.428 91.107v.516" stroke-width="1.058"/><path d="M205.428 91.617v.516" stroke-width="1.06"/><path d="M205.428 92.137v.395" stroke-width="1.061"/><path d="M205.428 92.527v.398" stroke-width="1.062"/><path d="M205.428 92.927v.395" stroke-width="1.07"/><path d="M205.428 93.327v.395" stroke-width="1.088"/><path d="m205.428 93.717.219-.238" stroke-width=".253"/><path d="m222.318 51.407.176-.277" stroke-width="1.007"/><path d="m222.498 51.127.266-.156" stroke-width="1.025"/><path d="m222.758 50.967.309-.238" stroke-width="1.038"/><path d="m223.068 50.737.438-.316" stroke-width="1.052"/><path d="m223.508 50.417.484-.395" stroke-width="1.065"/><path d="m223.988 50.027.484-.398" stroke-width="1.075"/><path d="m224.478 49.627.527-.473" stroke-width="1.08"/><path d="m224.998 49.147.527-.438" stroke-width="1.086"/><path d="m225.528 48.717.484-.473" stroke-width="1.087"/><path d="m226.008 48.237.395-.438" stroke-width="1.099"/><path d="m226.408 47.807.355-.316" stroke-width="1.111"/><path d="m226.758 47.487.219-.316" stroke-width="1.121"/><path d="m226.978 47.167.262-.316" stroke-width="1.133"/><path d="m227.248 46.857.133.355" stroke-width="1.091"/><path d="M227.378 47.207v.355" stroke-width="1.097"/><path d="M227.378 47.567v.437" stroke-width="1.104"/><path d="m227.378 48.007.043.473M227.418 48.477l.09.516" stroke-width="1.107"/><path d="m227.508 48.987.133.516" stroke-width="1.108"/><path d="m227.638 49.507.086.516" stroke-width="1.109"/><path d="m227.728 50.027.133.512" stroke-width="1.112"/><path d="m227.858 50.537.133.36M227.998 50.897l.086.355" stroke-width="1.113"/><path d="m228.078 51.247.176.434" stroke-width="1.114"/><path d="m228.258 51.687.176.316" stroke-width="1.116"/><path d="m228.428 51.997.176.398" stroke-width="1.129"/></g><g stroke="#f0f"><path d="m213.788 84.057.309-.04" stroke-width=".778"/><path d="m214.098 84.027.309-.082M214.408 83.937l.438-.078M214.838 83.867l.441-.156" stroke-width=".783"/><path d="m215.278 83.707.441-.16" stroke-width=".788"/><path d="m215.728 83.547.48-.2" stroke-width=".798"/><path d="m216.208 83.347.266-.195" stroke-width=".8"/><path d="m216.468 83.147.262-.16" stroke-width=".804"/><path d="m216.728 82.987.266-.195" stroke-width=".805"/><path d="m216.998 82.797.309-.238" stroke-width=".806"/><path d="m217.308 82.557.352-.238" stroke-width=".812"/><path d="m217.658 82.317.309-.16" stroke-width=".818"/><path d="m217.968 82.157.352-.234" stroke-width=".82"/><path d="m218.318 81.927.309-.238" stroke-width=".821"/><path d="m218.628 81.687.352-.238" stroke-width=".826"/><path d="m218.978 81.447.262-.238" stroke-width=".832"/><path d="m219.238 81.207.309-.316" stroke-width=".833"/><path d="m219.548 80.897.309-.277" stroke-width=".835"/><path d="m219.858 80.617.309-.316" stroke-width=".836"/><path d="m220.168 80.297.305-.277" stroke-width=".837"/><path d="m220.468 80.027.266-.277" stroke-width=".839"/><path d="m220.738 79.747.309-.355" stroke-width=".842"/><path d="m221.048 79.387.219-.238M221.258 79.147l.219-.234M221.478 78.917l.355-.398M221.838 78.517l.262-.316" stroke-width=".843"/><path d="m222.098 78.197.309-.355" stroke-width=".84"/><path d="m222.408 77.847.395-.434" stroke-width=".836"/><path d="m222.798 77.417.266-.2M223.068 77.217l.309-.316" stroke-width=".835"/><path d="m223.378 76.897.219-.277" stroke-width=".836"/><path d="m223.598 76.617.219-.277M223.818 76.347l.176-.277" stroke-width=".837"/><path d="m223.988 76.067.176-.395" stroke-width=".823"/><path d="m224.168 75.667.176-.594" stroke-width=".806"/><path d="m224.338 75.077.133-.277M224.478 74.797l.133-.316" stroke-width=".802"/><path d="m224.608 74.487.176-.398" stroke-width=".803"/><path d="m224.778 74.087.086-.316" stroke-width=".805"/><path d="M224.868 73.767v-.316" stroke-width=".499"/><path d="m224.388 88.967.305-.04" stroke-width=".584"/><path d="m224.688 88.927.309-.2" stroke-width=".609"/><path d="m224.998 88.727.309-.156" stroke-width=".644"/><path d="m225.308 88.577.352-.2" stroke-width=".659"/><path d="m225.658 88.377.395-.238" stroke-width=".667"/><path d="m226.058 88.137.352-.195" stroke-width=".67"/><path d="m226.408 87.937.398-.238" stroke-width=".689"/><path d="m226.808 87.697.352-.277" stroke-width=".709"/><path d="m227.158 87.427.395-.355M227.548 87.067l.309-.16" stroke-width=".712"/><g stroke-width=".713"><path d="m227.858 86.907.352-.277M228.208 86.627l.219-.234M228.428 86.397l.352-.238"/></g><path d="m228.778 86.157.355-.2" stroke-width=".714"/><path d="m229.138 85.957.305-.238" stroke-width=".719"/><path d="m229.438 85.717.266-.277" stroke-width=".724"/><path d="m229.708 85.447.262-.234" stroke-width=".727"/><path d="m229.968 85.207.266-.277" stroke-width=".728"/><path d="m230.238 84.937.266-.238" stroke-width=".73"/><path d="m230.498 84.697.262-.238" stroke-width=".731"/><path d="m230.758 84.457.266-.277" stroke-width=".732"/><path d="m231.028 84.177.262-.277M231.288 83.897l.309-.316" stroke-width=".736"/><path d="m231.598 83.587.309-.395" stroke-width=".737"/><g stroke-width=".738"><path d="m231.908 83.187.395-.477M232.298 82.717l.176-.316M232.478 82.397l.266-.355"/></g><path d="m232.748 82.037.176-.316" stroke-width=".739"/><path d="m232.918 81.727.176-.277" stroke-width=".74"/><path d="m233.098 81.447.176-.277" stroke-width=".743"/><path d="m233.268 81.167.176-.355" stroke-width=".747"/><path d="m233.448 80.817.133-.277" stroke-width=".749"/><path d="m233.578 80.537.129-.434" stroke-width=".752"/><path d="m233.708 80.107.047-.36" stroke-width=".749"/><path d="m233.758 79.747.086-.395M233.838 79.347l.133-.395M233.978 78.957l.043-.316" stroke-width=".741"/><path d="m234.018 78.637.133-.438" stroke-width=".742"/><path d="M234.148 78.197v-.316" stroke-width=".743"/><path d="m234.148 77.887.09-.355" stroke-width=".657"/><path d="m224.388 74.527-.09-.355" stroke-width=".794"/><path d="m224.298 74.167-.043-.36" stroke-width=".802"/><path d="M224.258 73.807v-.395M224.258 73.417v-.395" stroke-width=".806"/><path d="m224.258 73.017.043-.398" stroke-width=".808"/><path d="m224.298 72.617.133-.355" stroke-width=".81"/><path d="M224.428 72.267v-.395" stroke-width=".811"/><path d="m224.428 71.867.043-.395" stroke-width=".813"/><g stroke-width=".813"><path d="m224.478 71.477.043-.398M224.518 71.077l.09-.355M224.608 70.717v-.316M224.608 70.407l.043-.355"/></g><path d="m224.648 70.047.043-.316M224.688 69.737v-.355" stroke-width=".815"/><path d="M224.688 69.377v-.316" stroke-width=".816"/><path d="M224.688 69.057v-.36" stroke-width=".815"/><path d="m224.688 68.697-.043-.395" stroke-width=".816"/><path d="m224.648 68.307-.043-.316M224.608 67.987l-.043-.355" stroke-width=".815"/><g stroke-width=".816"><path d="m224.568 67.637-.047-.398M224.518 67.237l-.043-.355M224.478 66.877l-.086-.434"/></g><path d="m224.388 66.447-.047-.316" stroke-width=".816"/><path d="M224.338 66.127v-.398M224.338 65.737l-.043-.316M224.298 65.417l-.043-.355" stroke-width=".817"/><path d="m224.258 65.057-.09-.355" stroke-width=".818"/><path d="m224.168 64.707-.086-.395" stroke-width=".819"/><path d="m224.078 64.307-.047-.36M224.028 63.957l-.043-.316" stroke-width=".82"/><g stroke-width=".82"><path d="m223.988 63.637-.086-.434M223.908 63.197l-.133-.438M223.768 62.767l-.09-.316M223.678 62.447l-.129-.395M223.548 62.057l-.09-.434"/></g><path d="m223.458 61.617-.043-.36" stroke-width=".82"/><path d="M223.418 61.257v-.395" stroke-width=".819"/><path d="M223.418 60.867v-.434" stroke-width=".817"/><path d="M223.418 60.437v-.438" stroke-width=".813"/><path d="M223.418 59.997v-.434" stroke-width=".812"/><path d="m223.418 59.557.086-.477M223.508 59.087l.133-.395" stroke-width=".807"/><path d="m223.638 58.687.133-.398" stroke-width=".806"/><path d="m223.768 58.287.176-.355" stroke-width=".789"/><path d="M223.948 57.937h.309" stroke-width=".732"/><path d="m224.258 57.937.438.04" stroke-width=".726"/><path d="m224.688 57.977.266.16" stroke-width=".725"/><g stroke-width=".725"><path d="m224.958 58.137.309.238M225.268 58.377l.176.316M225.438 58.687l.219.395"/></g><path d="m225.658 59.087.176.395M225.838 59.477l.133.36" stroke-width=".725"/><path d="m225.968 59.837.133.355" stroke-width=".726"/><path d="m226.098 60.197.043.316" stroke-width=".727"/><path d="m226.148 60.507.043.316" stroke-width=".733"/><path d="m226.188 60.827.09.316" stroke-width=".74"/><path d="m226.278 61.147.043.316" stroke-width=".748"/><path d="m226.318 61.457.086.434" stroke-width=".762"/><path d="m226.408 61.897.09.437" stroke-width=".774"/><path d="m226.498 62.327.043.516" stroke-width=".786"/><path d="m226.538 62.847.09.434" stroke-width=".793"/><path d="m226.628 63.277.043.395" stroke-width=".797"/><path d="m226.668 63.677.09.32" stroke-width=".801"/><path d="m226.758 63.997.043.355" stroke-width=".802"/><path d="m226.808 64.347.086.434" stroke-width=".804"/><path d="m226.888 64.787.09.395" stroke-width=".817"/><path d="m226.978 65.177.043.477" stroke-width=".823"/><path d="m227.028 65.657.043.395" stroke-width=".832"/><path d="m227.068 66.047.09.398" stroke-width=".843"/><path d="m227.158 66.447.043.434" stroke-width=".866"/><path d="m227.198 66.877.043.316" stroke-width=".874"/><path d="m227.248 67.197.047.316" stroke-width=".877"/><path d="M227.288 67.517v.398" stroke-width=".88"/><path d="M227.288 67.917v.355" stroke-width=".882"/><path d="m227.288 68.267.086-.316" stroke-width="1.026"/><path d="M227.378 67.957v-.438" stroke-width="1.025"/><path d="m227.378 67.517.043-.512M227.418 67.007l.047-.316" stroke-width="1.021"/><g stroke-width="1.02"><path d="m227.468 66.687.043-.32M227.508 66.367l.043-.355M227.548 66.007l.043-.316M227.598 65.697l.047-.355M227.638 65.337l.043-.355M227.688 64.987l.043-.355"/></g><path d="m227.728 64.627.09-.36" stroke-width="1.017"/><path d="m227.818 64.267.043-.355" stroke-width="1.013"/><path d="m227.858 63.917.09-.355" stroke-width="1.009"/><path d="m227.948 63.557.086-.355" stroke-width="1.006"/><path d="m228.038 63.197.09-.316" stroke-width="1.005"/><path d="m228.128 62.887.086-.316" stroke-width="1.004"/><path d="m228.208 62.567.133-.438"/><path d="m228.348 62.127.133-.355" stroke-width=".999"/><path d="m228.478 61.777.086-.395" stroke-width=".998"/><path d="m228.568 61.377.133-.398" stroke-width=".994"/><path d="m228.698 60.987.133-.316" stroke-width=".993"/><path d="m228.828 60.667.129-.277" stroke-width=".985"/><path d="m228.958 60.387.398-.117" stroke-width=".859"/><path d="m229.358 60.277.352.277M229.708 60.547l.176.316M229.888 60.867l.176.395" stroke-width=".838"/><path d="m230.058 61.257.176.36" stroke-width=".839"/><path d="m230.238 61.617.176.473" stroke-width=".84"/><path d="m230.408 62.097.133.516" stroke-width=".841"/><path d="m230.548 62.607.043.316" stroke-width=".842"/><path d="m230.588 62.927.043.555" stroke-width=".845"/><path d="M230.628 63.477v.516" stroke-width=".847"/><path d="M230.628 63.997v.55" stroke-width=".85"/><path d="M230.628 64.547v.398M230.628 64.947v.355" stroke-width=".852"/><path d="M230.628 65.297v.395M230.628 65.697v.398" stroke-width=".853"/><path d="M230.628 66.097v.434" stroke-width=".87"/><path d="M230.628 66.527v.316" stroke-width=".875"/><path d="M230.628 66.847v.355" stroke-width=".877"/><path d="M230.628 67.197v.355" stroke-width=".88"/><path d="m230.628 67.557-.043.36" stroke-width=".908"/><path d="m230.588 67.917-.133.473" stroke-width=".933"/><g stroke-width="1.038"><path d="M230.458 68.387v-.512M230.458 67.877v-.516M230.458 67.357v-.316"/></g><path d="M230.458 67.037v-.316" stroke-width="1.037"/><path d="M230.458 66.727v-.36" stroke-width="1.034"/><path d="m230.458 66.367.047-.594" stroke-width="1.03"/><path d="m230.498 65.777.043-.512" stroke-width="1.026"/><path d="m230.548 65.257.043-.477" stroke-width="1.025"/><path d="m230.588 64.787.043-.316" stroke-width="1.024"/><path d="m230.628 64.467.09-.395" stroke-width="1.02"/><path d="m230.718 64.077.086-.316" stroke-width="1.016"/><path d="m230.808 63.757.09-.316" stroke-width="1.012"/><path d="m230.898 63.437.133-.36M231.028 63.077l.176-.316" stroke-width="1.004"/><path d="m231.208 62.767.262-.355" stroke-width="1.003"/><path d="m231.468 62.407.266-.355M231.728 62.057l.219-.316" stroke-width="1.002"/><path d="m231.948 61.737.219-.277" stroke-width="1.001"/><path d="m232.168 61.457.266-.238" stroke-width=".997"/><path d="m232.438 61.217.266-.195" stroke-width=".943"/><path d="m232.698 61.027.395.117" stroke-width=".881"/><path d="m233.098 61.147.309.2" stroke-width=".862"/><path d="m233.408 61.347.305.316" stroke-width=".853"/><g stroke-width=".852"><path d="m233.708 61.657.223.316M233.928 61.977l.176.277M234.108 62.257l.133.316"/></g><path d="m234.238 62.567.086.434" stroke-width=".862"/><path d="m234.328 63.007.043.555" stroke-width=".868"/><path d="M234.368 63.557v.316" stroke-width=".871"/><path d="M234.368 63.877v.355" stroke-width=".872"/><path d="M234.368 64.227v.594M234.368 64.827v.516M234.368 65.337v.477" stroke-width=".873"/><path d="M234.368 65.817v.316" stroke-width=".874"/><path d="M234.368 66.127v.473" stroke-width=".875"/><path d="M234.368 66.607v.516" stroke-width=".9"/><path d="M234.368 67.117v.316" stroke-width=".914"/><path d="M234.368 67.437v.395" stroke-width=".919"/><path d="M234.368 67.827v.398" stroke-width=".921"/><path d="m234.368 68.227-.043.434" stroke-width=".939"/><path d="m234.328 68.667-.043.398" stroke-width=".948"/><path d="M234.278 69.057v-.398" stroke-width="1.041"/><path d="M234.278 68.667v-.316M234.278 68.347v-.355" stroke-width="1.04"/><path d="M234.278 67.987v-.395M234.278 67.597v-.438" stroke-width="1.038"/><path d="m234.278 67.157.086-.434M234.368 66.727l.09-.516" stroke-width="1.036"/><path d="m234.458 66.207.133-.555M234.588 65.657l.086-.316" stroke-width="1.035"/><path d="m234.678 65.337.176-.594" stroke-width="1.034"/><path d="m234.848 64.747.176-.477M235.028 64.267l.133-.434" stroke-width="1.035"/><path d="m235.158 63.837.09-.395M235.248 63.437l.086-.398M235.338 63.037l.133-.277" stroke-width="1.036"/><path d="m235.468 62.767.086-.395" stroke-width="1.035"/><path d="m235.558 62.367.09-.316" stroke-width="1.028"/><path d="m235.648 62.057.176-.395" stroke-width="1.023"/><path d="m235.818 61.657.176-.398" stroke-width="1.019"/><path d="m235.998 61.257.219-.277M236.218 60.987l.176-.277" stroke-width="1.016"/><path d="m236.388 60.707.398-.195" stroke-width=".981"/><path d="m236.788 60.507.437.078" stroke-width=".901"/><path d="m237.228 60.587.352.277" stroke-width=".887"/><path d="m237.578 60.867.223.238" stroke-width=".879"/><path d="m237.798 61.107.262.316" stroke-width=".875"/><path d="m238.068 61.417.176.434" stroke-width=".871"/><path d="m238.238 61.857.219.438" stroke-width=".869"/><path d="m238.458 62.287.133.434" stroke-width=".865"/><path d="m238.588 62.727.133.438" stroke-width=".859"/><path d="m238.728 63.167.043.316" stroke-width=".858"/><path d="M238.768 63.477v.355" stroke-width=".859"/><path d="M238.768 63.837v.434" stroke-width=".868"/><path d="M238.768 64.267v.398" stroke-width=".869"/><path d="m238.768 64.667-.043.316" stroke-width=".87"/><path d="m238.728 64.987-.133.316" stroke-width=".876"/><path d="m238.588 65.297-.133.316" stroke-width=".882"/><path d="m238.458 65.617-.176.434" stroke-width=".889"/><path d="m238.278 66.047-.176.398" stroke-width=".89"/><path d="m238.108 66.447-.129.316" stroke-width=".891"/><path d="m237.978 66.767-.09.316" stroke-width=".906"/><path d="m237.888 67.077-.133.355M237.758 67.437l-.086.395" stroke-width=".907"/><path d="m237.668 67.827-.133.277" stroke-width=".916"/><path d="m237.538 68.107-.09.36" stroke-width=".922"/><path d="m237.448 68.467-.043.434" stroke-width=".924"/><path d="M237.408 68.897v.316" stroke-width=".927"/><path d="M237.408 69.217v.355" stroke-width=".93"/><path d="M237.408 69.577v.398" stroke-width=".936"/><path d="m237.408 69.967.133.395" stroke-width=".94"/><path d="m237.538 70.367.176.277" stroke-width=".942"/><path d="m237.708 70.647.309.277M238.018 70.917l.262.156" stroke-width=".941"/><path d="m238.898 70.607.484.234" stroke-width=".813"/><path d="M239.388 70.837h.352" stroke-width=".826"/><path d="M239.738 70.837h.395" stroke-width=".833"/><path d="M240.128 70.837h.309" stroke-width=".842"/><path d="m240.438 70.837.395.082" stroke-width=".846"/><path d="M240.838 70.917h.484" stroke-width=".858"/><path d="M241.318 70.917h.441" stroke-width=".863"/><path d="M241.758 70.917h.352" stroke-width=".864"/><path d="m242.108 70.917.309.04" stroke-width=".865"/><path d="m242.418 70.957.437.04" stroke-width=".866"/><path d="m242.858 70.997.309.04" stroke-width=".87"/><path d="m243.168 71.037.441.078M243.608 71.117l.395.043" stroke-width=".869"/><path d="m243.998 71.157.395.078M244.398 71.237l.398.078" stroke-width=".87"/><path d="m244.798 71.317.352.078M245.148 71.397h.352" stroke-width=".871"/><path d="m245.498 71.397.395.082" stroke-width=".868"/><path d="m245.888 71.477.352.117M246.248 71.597l.352.16" stroke-width=".863"/><path d="m246.598 71.757.398.234" stroke-width=".832"/><path d="M246.998 71.987v.36" stroke-width=".82"/><path d="M246.998 72.347v.434" stroke-width=".807"/><path d="m246.998 72.777-.09.355" stroke-width=".812"/><path d="m246.908 73.137-.176.277" stroke-width=".818"/><path d="m246.728 73.417-.309.316" stroke-width=".833"/><path d="m246.418 73.727-.438.121" stroke-width=".889"/><path d="M245.978 73.847h-.441" stroke-width=".894"/><path d="M245.538 73.847h-.438" stroke-width=".916"/><path d="m245.098 73.847-.309-.043" stroke-width=".935"/><path d="m244.798 73.807-.309-.078" stroke-width=".94"/><path d="m244.488 73.727-.352-.078" stroke-width=".942"/><path d="m244.138 73.647-.352-.04" stroke-width=".945"/><path d="m243.778 73.617-.398-.078" stroke-width=".95"/><path d="m243.388 73.537-.395-.082" stroke-width=".952"/><path d="M242.988 73.457h-.438" stroke-width=".954"/><path d="M242.548 73.457h-.309M242.248 73.457h-.484M241.758 73.457h-.395" stroke-width=".955"/><path d="M241.368 73.457h-.309" stroke-width=".956"/><path d="M241.058 73.457h-.309M240.748 73.457h-.352" stroke-width=".957"/><g stroke-width=".951"><path d="M240.398 73.457h-.441M239.958 73.457l-.309.04M239.648 73.487l-.438.16M239.208 73.647l-.309.078"/></g><path d="m238.898 73.727-.309.16" stroke-width=".95"/><path d="m238.588 73.887-.309.195M238.278 74.087l-.262.2" stroke-width=".949"/><path d="m238.018 74.287-.309.316" stroke-width=".946"/><path d="m237.708 74.597-.309.238" stroke-width=".944"/><path d="m237.408 74.837-.309.316" stroke-width=".939"/><g stroke-width=".939"><path d="m237.098 75.157-.176.277M236.918 75.437l-.219.316M236.698 75.747l-.219.316M236.478 76.067l-.223.277"/></g><g stroke-width=".939"><path d="m236.258 76.347-.305.355M235.958 76.697l-.266.355M235.688 77.057l-.219.316"/></g><path d="m235.468 77.367-.176.277" stroke-width=".939"/><path d="m235.298 77.647-.176.316" stroke-width=".934"/><path d="m235.118 77.967-.176.437" stroke-width=".93"/><path d="m234.938 78.397-.09.355" stroke-width=".926"/><path d="m234.848 78.757-.133.355" stroke-width=".607"/></g><g stroke="#0f0"><path d="m219.038 60.197 9.879 12.477" stroke-width="1.131"/><path d="m218.578 60.507-.176.316" stroke-width=".911"/><path d="M218.408 60.827v.473" stroke-width=".933"/><path d="M218.408 61.297v.32" stroke-width=".937"/><path d="M218.408 61.617v.594" stroke-width=".944"/><path d="m218.408 62.217.047.395" stroke-width=".948"/><path d="m218.448 62.607.129.434" stroke-width=".949"/><path d="M218.578 63.037v.398" stroke-width=".968"/><path d="M218.578 63.437v.395" stroke-width=".976"/><path d="m218.578 63.837.047.395" stroke-width=".983"/><g stroke-width="1.166"><path d="m218.628 64.227.129-.355M218.758 63.877l-.043-.473M218.708 63.397l-.043-.36"/></g><path d="M218.668 63.037v-.355" stroke-width="1.161"/><path d="M218.668 62.687v-.395" stroke-width="1.156"/><path d="M218.668 62.287v-.398" stroke-width="1.151"/><path d="M218.668 61.897v-.395" stroke-width="1.139"/><path d="M218.668 61.497v-.395M218.668 61.107v-.355" stroke-width="1.135"/><path d="m218.668 60.747.133-.316" stroke-width="1.11"/><path d="M218.798 60.437h.352" stroke-width="1.109"/><path d="M219.158 60.437h.484" stroke-width="1.102"/><path d="M219.638 60.437h.305" stroke-width="1.101"/><path d="M219.938 60.437h.309M220.248 60.437h.309" stroke-width="1.1"/><path d="M220.558 60.437h.309" stroke-width="1.092"/><path d="m220.868 60.437.309.078" stroke-width="1.095"/><path d="m216.908 74.757-.305.277" stroke-width=".195"/></g><g stroke="#ff7f00"><path d="m240.048 72.347.262.195" stroke-width="1.048"/><path d="m240.308 72.537.352.121" stroke-width="1.068"/><path d="m240.658 72.667.484.078" stroke-width="1.093"/><path d="m241.138 72.737.309.04" stroke-width="1.099"/><path d="m241.448 72.777.57.117" stroke-width="1.113"/><path d="m242.018 72.897.352.043" stroke-width="1.118"/><path d="m242.368 72.937.355.078" stroke-width="1.124"/><path d="m242.728 73.017.395.078" stroke-width="1.127"/><path d="m243.118 73.097.352.078" stroke-width="1.131"/><path d="m243.478 73.177.352.082M243.828 73.257l.395.117" stroke-width="1.136"/><path d="m244.218 73.377.398.117" stroke-width="1.14"/><path d="m244.618 73.487.352.121" stroke-width="1.145"/><path d="m244.968 73.617.309.117" stroke-width="1.149"/><path d="m245.278 73.727.352.121" stroke-width="1.15"/><path d="m245.628 73.847.57.195" stroke-width="1.158"/><path d="m246.198 74.047.57.2" stroke-width="1.163"/><path d="m246.768 74.247.484.156" stroke-width="1.169"/><path d="m247.258 74.397.484.2" stroke-width="1.176"/><path d="m247.738 74.597.484.117" stroke-width="1.181"/><path d="m248.228 74.717.441.121" stroke-width="1.182"/><path d="m248.668 74.837.527.156" stroke-width="1.186"/><path d="m249.188 74.997.57.16" stroke-width="1.187"/><path d="m249.758 75.157.352.078" stroke-width="1.188"/><path d="m250.118 75.237.352.078M250.468 75.307l.395.082" stroke-width="1.192"/><path d="m250.858 75.397.355.078M251.218 75.467l.352.078" stroke-width="1.193"/><path d="m251.568 75.547.613.2" stroke-width="1.195"/><path d="m252.178 75.747.484.117M252.668 75.867l.309.082" stroke-width="1.196"/><path d="m252.978 75.947.352.117" stroke-width="1.197"/><path d="m253.328 76.067.484.16" stroke-width="1.198"/><path d="m253.808 76.227.527.156M254.338 76.377l.57.16" stroke-width="1.2"/><path d="m254.908 76.537.574.117" stroke-width="1.202"/><path d="m255.478 76.657.484.078" stroke-width="1.203"/><path d="m255.968 76.737.352.082" stroke-width="1.204"/><path d="m256.318 76.817.305.078" stroke-width="1.206"/><path d="m256.618 76.897.047-.398" stroke-width="1.209"/><path d="m256.668 76.497-.352-.512" stroke-width="1.203"/><path d="m256.318 75.987-.266-.238" stroke-width="1.201"/><path d="m256.048 75.747-.262-.277M255.788 75.467l-.266-.238M255.528 75.237l-.266-.195M255.258 75.037l-.438-.32" stroke-width="1.196"/><path d="m254.818 74.717-.309-.156" stroke-width="1.197"/><path d="m254.508 74.557.309.2" stroke-width="1.153"/><path d="m254.818 74.757.395.277M255.218 75.037l.441.395M255.658 75.437l.309.316" stroke-width="1.152"/><path d="m255.968 75.747.219.395" stroke-width="1.151"/><path d="m256.188 76.147.133.316" stroke-width="1.146"/><path d="m256.318 76.457.043.398" stroke-width="1.14"/><path d="m256.358 76.857-.043.316" stroke-width="1.139"/><path d="m256.318 77.177-.133.395" stroke-width="1.138"/><path d="m256.188 77.567-.484.438" stroke-width="1.134"/><path d="m255.698 78.007-.352.234" stroke-width="1.125"/><path d="m255.348 78.237-.395.238" stroke-width="1.103"/><path d="m254.958 78.477-.398.16" stroke-width="1.061"/><path d="m254.558 78.637-.395.156" stroke-width=".995"/><path d="m254.158 78.797-.309.078" stroke-width=".87"/><path d="m253.848 78.877-.309.043" stroke-width=".67"/><path d="m253.548 78.917-.309-.082" stroke-width=".113"/><path d="M251.788 71.277v-.355" stroke-width="1.019"/><path d="m251.788 70.917.176-.516" stroke-width="1.025"/><path d="m251.958 70.407.219-.477" stroke-width="1.03"/><path d="m252.178 69.927.133-.277" stroke-width="1.034"/><path d="m252.318 69.647.309-.512" stroke-width="1.035"/><path d="m252.618 69.137.352-.398M252.978 68.737l.309-.316M253.278 68.427l.219-.234" stroke-width="1.036"/><path d="m253.498 68.187.309-.16" stroke-width="1.03"/><path d="m253.808 68.027.352-.078" stroke-width="1.022"/><path d="M254.158 67.957h.527" stroke-width="1.011"/><path d="M254.688 67.957h.57" stroke-width=".994"/><path d="m255.258 67.957.309.04" stroke-width=".985"/><path d="m255.568 67.987.527.156" stroke-width=".966"/><path d="m256.098 68.147.266.2" stroke-width=".958"/><path d="m256.358 68.347.309.395" stroke-width=".938"/><path d="m256.668 68.737.262.516" stroke-width=".931"/><path d="m256.928 69.257.133.516" stroke-width=".93"/><g stroke-width=".926"><path d="m257.068 69.777.043.555M257.108 70.327v.316M257.108 70.647v.316M257.108 70.957v.395"/></g><path d="M257.108 71.357v.355" stroke-width=".927"/><path d="m257.108 71.707-.043.36M257.068 72.067v.395" stroke-width=".931"/><path d="m257.068 72.467-.043.477" stroke-width=".928"/><path d="m252.758 63.837.48.277" stroke-width=".937"/><path d="m253.238 64.117.309.078" stroke-width=".954"/><path d="m253.548 64.187.398.078" stroke-width=".967"/><path d="m253.938 64.267.395.082" stroke-width=".972"/><path d="m254.338 64.347.441.078" stroke-width=".977"/><path d="m254.778 64.427.438.078" stroke-width=".981"/><path d="m255.218 64.507.441.082" stroke-width=".984"/><path d="m255.658 64.587.484.117M256.138 64.707l.438.078" stroke-width=".985"/><path d="m256.578 64.787.441.078" stroke-width=".988"/><path d="m257.018 64.867.438.082M257.458 64.947l.398.117" stroke-width=".993"/><path d="m257.858 65.057.395.04" stroke-width=".994"/><path d="m258.248 65.097.309.04" stroke-width="1.001"/><path d="m258.558 65.137.309.04" stroke-width="1.009"/><path d="M258.868 65.177h.352" stroke-width="1.032"/><path d="m259.218 65.177.176-.355" stroke-width="1.129"/><path d="m259.398 64.827-.352-.277" stroke-width="1.137"/><path d="m259.048 64.547-.352-.195" stroke-width="1.155"/><path d="m258.688 64.347-.309-.238" stroke-width="1.167"/><path d="m258.388 64.117.395.078" stroke-width="1.071"/><path d="m258.778 64.187.395.16" stroke-width="1.064"/><path d="m259.168 64.347.266.195" stroke-width="1.051"/><path d="m259.438 64.547.484.398" stroke-width="1.018"/><path d="m259.918 64.947.219.277" stroke-width="1.008"/><path d="m260.138 65.217.176.277"/><path d="m260.318 65.497.133.355" stroke-width=".996"/><path d="m260.448 65.857.086.316" stroke-width=".993"/><path d="m260.538 66.167.047.516" stroke-width="1.001"/><path d="m260.578 66.687-.047.395" stroke-width="1.051"/><path d="m260.538 67.077-.219.238" stroke-width="1.1"/><path d="m260.318 67.317-.352.117" stroke-width="1.112"/><path d="m259.968 67.437-.484.04" stroke-width="1.065"/><path d="m259.478 67.477-.352.04" stroke-width=".958"/><path d="m259.128 67.517-.527.121" stroke-width=".703"/></g><g stroke="#7f7f7f" stroke-width=".85"><path d="m140.648 68.617.02-1.574.054-1.574.09-1.57.129-1.571.164-1.566.2-1.563.234-1.559.273-1.55.305-1.547.343-1.535.38-1.532.413-1.52.45-1.507.48-1.5.52-1.488.55-1.477.586-1.46.621-1.45.653-1.434.683-1.418.72-1.402.75-1.383.784-1.367.813-1.351.844-1.329.875-1.308.906-1.29.933-1.269.965-1.246.992-1.223 1.02-1.199 1.047-1.176 1.078-1.152 1.098-1.129 1.129-1.097 1.152-1.079 1.176-1.046 1.199-1.02 1.223-.992 1.246-.965 1.27-.934 1.288-.906 1.309-.875 1.328-.844 1.352-.812 1.367-.781 1.383-.754 1.402-.719 1.418-.684 1.433-.652 1.45-.621 1.46-.586 1.477-.55 1.488-.52 1.5-.48 1.508-.45 1.52-.414 1.53-.379 1.536-.344 1.547-.304 1.55-.274 1.56-.234 1.562-.2L202.55.72l1.57-.13 1.57-.09 1.575-.054 1.574-.02 1.578.02 1.575.055 1.57.09 1.57.129 1.567.164 1.562.199 1.559.234 1.55.274 1.547.304 1.536.344 1.53.379 1.52.414 1.508.45 1.5.48 1.488.52 1.477.55 1.46.586 1.45.621 1.434.652 1.418.684 1.402.719 1.383.754 1.367.781 1.348.812 1.332.844 1.308.875 1.29.906 1.269.934 1.246.965 1.223.992 1.199 1.02 1.176 1.046 1.152 1.079 1.129 1.097 1.098 1.13 1.074 1.151 1.05 1.176 1.02 1.2.992 1.222.965 1.246.934 1.27.906 1.289.875 1.308.844 1.329.812 1.351.781 1.367.754 1.383.715 1.402.688 1.418.652 1.434.621 1.45.586 1.46.55 1.477.52 1.488.48 1.5.45 1.508.414 1.52.38 1.53.343 1.536.305 1.547.273 1.55.234 1.56.2 1.562.164 1.566.129 1.57.09 1.57.054 1.575.02 1.574-.02 1.578-.055 1.574-.09 1.57-.128 1.57-.164 1.567-.2 1.563-.234 1.558-.273 1.551-.305 1.547-.344 1.535-.379 1.532-.414 1.519-.45 1.508-.48 1.5-.52 1.488-.55 1.477-.586 1.46-.62 1.45-.653 1.433-.688 1.418-.715 1.403-.754 1.383-.78 1.367-.813 1.351-.844 1.328-.875 1.309-.906 1.29-.934 1.269-.965 1.246-.992 1.222-1.02 1.2-1.05 1.175-1.074 1.153-1.098 1.129-1.129 1.097-1.152 1.074-1.176 1.051-1.2 1.02-1.222.992-1.246.965-1.27.933-1.289.907-1.308.875-1.332.843-1.348.813-1.367.781-1.383.754-1.402.719-1.418.683-1.434.653-1.45.62-1.46.587-1.477.55-1.488.52-1.5.48-1.508.45-1.52.414-1.53.379-1.536.343-1.546.305-1.551.274-1.559.234-1.562.2-1.567.163-1.57.13-1.57.089-1.575.055-1.578.02-1.574-.02-1.574-.055-1.57-.09-1.57-.129-1.567-.164-1.563-.2-1.558-.233-1.551-.274-1.547-.305-1.535-.343-1.531-.38-1.52-.413-1.508-.45-1.5-.48-1.488-.52-1.476-.55-1.461-.586-1.45-.621-1.433-.653-1.418-.683-1.402-.719-1.383-.754-1.367-.781-1.352-.813-1.328-.843-1.309-.875-1.289-.907-1.27-.933-1.245-.965-1.223-.992-1.2-1.02-1.175-1.05-1.152-1.075-1.13-1.097-1.097-1.13-1.078-1.152-1.047-1.175-1.02-1.2-.992-1.222-.965-1.246-.933-1.27-.906-1.289-.875-1.309-.844-1.328-.813-1.351-.785-1.367-.75-1.383-.719-1.403-.683-1.418-.653-1.433-.62-1.45-.587-1.46-.55-1.477-.52-1.488-.48-1.5-.45-1.508-.414-1.52-.379-1.53-.343-1.536-.305-1.547-.273-1.55-.235-1.56-.199-1.562-.164-1.566-.129-1.57-.09-1.57-.054-1.575-.02-1.578M69.878 78.737l.184-1.598.53-1.52.856-1.363 1.137-1.136 1.363-.856 1.516-.53 1.602-.18 1.597.18 1.52.53 1.36.856 1.136 1.136.86 1.364.53 1.52.18 1.597-.18 1.598-.53 1.52-.86 1.362-1.137 1.137-1.36.856-1.519.53-1.597.18-1.602-.18-1.516-.53-1.363-.856-1.137-1.137-.855-1.363-.531-1.52-.184-1.597M71.598 73.767l101.2-63.527M74.628 85.527l107.71 45.832"/></g><g stroke="red"><path d="m189.908 101.717.441-.277" stroke-width=".574"/><path d="m190.348 101.437.395-.238" stroke-width=".602"/><path d="m190.738 101.197.484-.316" stroke-width=".632"/><path d="m191.228 100.877.617-.434" stroke-width=".666"/><path d="m191.838 100.447.613-.477" stroke-width=".699"/><path d="m192.458 99.967.75-.516" stroke-width=".733"/><path d="m193.208 99.457.746-.594" stroke-width=".756"/><path d="m193.948 98.867.836-.672" stroke-width=".781"/><path d="m194.788 98.187.926-.71" stroke-width=".806"/><path d="m195.708 97.477 1.055-.793" stroke-width=".821"/><path d="m196.768 96.687 1.145-.871" stroke-width=".841"/><path d="m197.908 95.817 1.273-.988" stroke-width=".853"/><path d="m199.188 94.827 1.406-1.031" stroke-width=".864"/><path d="m200.588 93.797 1.496-1.145" stroke-width=".874"/><path d="m202.088 92.647 1.54-1.309" stroke-width=".885"/><path d="m203.628 91.347 1.629-1.426" stroke-width=".892"/><path d="m205.258 89.917 1.89-1.938" stroke-width=".902"/><path d="m207.148 87.977 2.11-2.453" stroke-width=".908"/><path d="m209.258 85.527 2.29-2.93" stroke-width=".915"/><path d="m211.548 82.597 2.242-3.129" stroke-width=".924"/><path d="m213.788 79.467 1.934-2.926" stroke-width=".93"/><path d="m215.718 76.537 1.719-2.691" stroke-width=".939"/><path d="m217.438 73.847 1.45-2.457" stroke-width=".948"/><path d="m218.888 71.397 1.32-2.492" stroke-width=".954"/><path d="m220.208 68.897 1.188-2.535" stroke-width=".965"/><path d="m221.398 66.367 1.012-2.453" stroke-width=".976"/><path d="m222.408 63.917.879-2.375" stroke-width=".99"/><path d="m223.288 61.537.836-2.293" stroke-width="1.001"/><path d="m224.118 59.247.703-2.219" stroke-width="1.014"/><path d="m224.828 57.027.66-2.336" stroke-width="1.027"/><path d="m225.488 54.687.57-2.453" stroke-width="1.039"/><path d="m226.058 52.237.527-2.613" stroke-width="1.046"/><path d="m226.578 49.627.398-2.652" stroke-width="1.052"/><path d="m226.978 46.967.395-2.531" stroke-width="1.057"/><path d="m227.378 44.437.352-2.375M227.728 42.065l.309-1.898" stroke-width="1.058"/><g stroke-width="1.058"><path d="m228.038 40.167.309-1.547M228.348 38.62l.176-1.144M228.518 37.475l.219-1.031M228.738 36.444l.176-1.066M228.918 35.378l.223-1.11"/></g><path d="m229.138 34.268.176-1.11" stroke-width="1.059"/><path d="m229.318 33.159.086-.871" stroke-width="1.066"/><path d="m229.398 32.288.09-.672" stroke-width="1.072"/><path d="m229.488 31.616.043-.555" stroke-width="1.081"/><path d="m229.528 31.061.043-.477M229.578 30.585v-.473M229.578 30.112v-.477M229.578 29.636v-.555" stroke-width="1.082"/><path d="m229.578 29.081.043-.55" stroke-width="1.081"/><path d="m229.618 28.53.176-.516" stroke-width="1.077"/><path d="m229.798 28.015.133-.438" stroke-width="1.072"/><path d="m229.928 27.577.133-.316" stroke-width="1.057"/><path d="m230.058 27.261.176-.355" stroke-width=".982"/></g><g stroke="#00bfff" stroke-dasharray="6, 3"><path d="M217.878 70.997v-.316" stroke-width="1.057"/><path d="m217.878 70.687-.176-.438" stroke-dashoffset=".317" stroke-width="1.078"/><path d="m217.698 70.247-.086-.316" stroke-dashoffset=".786" stroke-width="1.086"/><path d="m217.618 69.927-.133-.355" stroke-dashoffset="1.115" stroke-width="1.09"/><path d="m217.478 69.577-.176-.395" stroke-dashoffset="1.495" stroke-width="1.093"/><path d="m217.308 69.177-.176-.438" stroke-dashoffset="1.928" stroke-width="1.094"/><path d="m217.128 68.737-.223-.473" stroke-dashoffset="2.397" stroke-width="1.098"/><path d="m216.908 68.267-.262-.555" stroke-dashoffset="2.921" stroke-width="1.101"/><path d="m216.648 67.717-.266-.594" stroke-dashoffset="3.535" stroke-width="1.102"/><path d="m216.378 67.117-.352-.633" stroke-dashoffset="4.184" stroke-width="1.105"/><path d="m216.028 66.487-.352-.672" stroke-dashoffset="4.909" stroke-width="1.105"/><path d="m215.678 65.817-.437-.754" stroke-dashoffset="5.668" stroke-width="1.11"/><g stroke-width="1.11"><path d="m215.238 65.057-.441-.832" stroke-dashoffset="6.539"/><path d="m214.798 64.227-.527-.91" stroke-dashoffset="7.48"/><path d="m214.268 63.317-.57-.95" stroke-dashoffset="8.532"/></g><path d="m213.698 62.367-.66-1.027" stroke-dashoffset=".641" stroke-width="1.111"/><path d="m213.038 61.347-.703-1.11" stroke-dashoffset="1.863" stroke-width="1.112"/><path d="m212.338 60.237-.793-1.188" stroke-dashoffset="3.176" stroke-width="1.115"/><path d="m211.548 59.047-.879-1.227" stroke-dashoffset="4.603" stroke-width="1.116"/><path d="m210.668 57.817-.926-1.309" stroke-dashoffset="6.113" stroke-width="1.116"/><path d="m209.738 56.507-.965-1.305" stroke-dashoffset="7.713" stroke-width="1.119"/><path d="m208.778 55.207-.969-1.387" stroke-dashoffset=".338" stroke-width="1.124"/><path d="m207.808 53.817-.969-1.422" stroke-dashoffset="2.028" stroke-width="1.127"/><path d="m206.838 52.397-1.012-1.426" stroke-dashoffset="3.75" stroke-width="1.136"/><path d="m205.828 50.967-1.055-1.426" stroke-dashoffset="5.498" stroke-width="1.141"/><path d="m204.768 49.547-1.055-1.387" stroke-dashoffset="7.271" stroke-width="1.144"/><path d="m203.718 48.157-1.055-1.305" stroke-dashoffset=".013" stroke-width="1.145"/><path d="m202.658 46.857-1.059-1.305" stroke-dashoffset="1.692" stroke-width="1.149"/><path d="M201.598 45.547 200.5 44.32" stroke-dashoffset="3.371" stroke-width="1.152"/><path d="m200.508 44.327-1.102-1.23" stroke-dashoffset="5.019" stroke-width="1.152"/><path d="m199.408 43.093-1.14-1.188" stroke-dashoffset="6.667" stroke-width="1.152"/><g stroke-width="1.156"><path d="m198.258 41.905-1.145-1.145" stroke-dashoffset="8.315"/><path d="m197.118 40.761-1.144-1.148" stroke-dashoffset=".935"/><path d="m195.978 39.612-1.145-1.148" stroke-dashoffset="2.555"/></g><path d="m194.828 38.464-1.14-1.07" stroke-dashoffset="4.176" stroke-width="1.156"/><path d="m193.688 37.393-1.102-.988" stroke-dashoffset="5.741" stroke-width="1.161"/><path d="m192.588 36.405-1.012-.95" stroke-dashoffset="7.22" stroke-width="1.162"/><path d="m191.578 35.456-.965-.871" stroke-dashoffset="8.608" stroke-width="1.166"/><path d="m190.608 34.585-.926-.793" stroke-dashoffset=".909" stroke-width="1.17"/><path d="m189.688 33.792-.836-.75" stroke-dashoffset="2.126" stroke-width="1.171"/><path d="m188.848 33.042-.836-.676" stroke-dashoffset="3.25" stroke-width="1.175"/><path d="m188.008 32.366-.836-.672" stroke-dashoffset="4.323" stroke-width="1.175"/><path d="m187.178 31.694-.879-.633" stroke-dashoffset="5.396" stroke-width="1.175"/><path d="m186.298 31.061-.879-.633" stroke-dashoffset="6.48" stroke-width="1.175"/><path d="m185.418 30.429-.969-.594" stroke-dashoffset="7.564" stroke-width="1.176"/><path d="m184.448 29.835-1.012-.633" stroke-dashoffset="8.699" stroke-width="1.177"/><path d="m183.438 29.202-1.012-.633" stroke-dashoffset=".892" stroke-width="1.178"/><path d="m182.428 28.569-.965-.594" stroke-dashoffset="2.086" stroke-width="1.181"/><path d="m181.458 27.975-.926-.555" stroke-dashoffset="3.221" stroke-width="1.184"/><path d="m180.538 27.421-.79-.477" stroke-dashoffset="4.298" stroke-width="1.188"/><path d="m179.748 26.944-.707-.316" stroke-dashoffset="5.221" stroke-width="1.193"/><path d="m179.038 26.628-.527-.277" stroke-dashoffset="5.993" stroke-width="1.194"/><path d="m178.508 26.35-.395-.156" stroke-dashoffset="6.589" stroke-width="1.197"/><path d="m178.118 26.194-.395-.2" stroke-dashoffset="7.015" stroke-width="1.193"/></g></g></svg>