<svg width="100.977" height="92.412" version="1.2" viewBox="0 0 75.733 69.309" xmlns="http://www.w3.org/2000/svg"><g fill="none" stroke-linecap="round" stroke-linejoin="round" stroke-miterlimit="10"><path d="M30.47 40.762V.504" stroke="#000" stroke-width=".849"/><path d="M31.13 40.442h43.414" stroke="#000" stroke-width=".656"/><path d="m.42 36.392.043-1.54.133-1.534.219-1.524.304-1.511.395-1.493.476-1.468.559-1.442.64-1.41.72-1.371.796-1.328.875-1.285.942-1.239 1.015-1.183 1.078-1.125 1.14-1.067 1.204-1.004 1.254-.933 1.308-.867 1.356-.797 1.398-.719 1.438-.645 1.472-.562 1.5-.484 1.528-.403 1.547-.32 1.562-.234 1.574-.149 1.582-.066 1.582.023 1.579.106 1.57.191 1.555.277 1.539.364 1.515.441 1.489.523 1.453.606 1.418.684 1.379.757 1.332.828 1.28.903 1.231.972 1.172 1.032 1.11 1.097 1.046 1.157.981 1.21.906 1.262.836 1.305.758 1.351.68 1.391.601 1.426.52 1.457.433 1.48.348 1.504.262 1.516.175 1.531.09 1.54v1.538l-.09 1.54-.175 1.53-.262 1.52-.348 1.5-.433 1.484-.52 1.454-.601 1.425-.68 1.391-.758 1.352-.836 1.308-.906 1.262-.98 1.21-1.047 1.153-1.11 1.098-1.172 1.035-1.23.969-1.281.902-1.332.832-1.38.758-1.417.683-1.453.602-1.489.524-1.515.445-1.54.36-1.554.277-1.57.19-1.579.11-1.582.02-1.582-.063-1.574-.152-1.562-.234-1.547-.317-1.528-.402-1.5-.485-1.472-.566-1.438-.64-1.398-.723-1.356-.793-1.308-.867-1.254-.938-1.203-1-1.14-1.066-1.079-1.13-1.015-1.183-.942-1.234-.875-1.285-.797-1.332-.718-1.371-.641-1.407-.559-1.441-.476-1.469-.395-1.492-.304-1.512-.22-1.527-.132-1.535-.043-1.54" stroke="#00bfff" stroke-width=".85"/><path d="m31.62 39.872 23.336-29.629" stroke="#000" stroke-dasharray="6, 3" stroke-width=".333"/><g stroke="#00bfff"><g stroke-dasharray="6, 3"><path d="m1.87 40.472.176-.395" stroke-width=".583"/><path d="m2.05 40.072.176-.277" stroke-dashoffset=".433" stroke-width=".583"/><path d="m2.23 39.792.176-.277" stroke-dashoffset=".761" stroke-width=".582"/><path d="m2.4 39.522.262-.277" stroke-dashoffset="1.089" stroke-width=".578"/><path d="m2.66 39.242.176-.277" stroke-dashoffset="1.472" stroke-width=".573"/><path d="m2.84 38.962.223-.238" stroke-dashoffset="1.8" stroke-width=".572"/><path d="m3.06 38.722.262-.277" stroke-dashoffset="2.124" stroke-width=".568"/><path d="m3.32 38.452.176-.277" stroke-dashoffset="2.507" stroke-width=".567"/><path d="m3.5 38.172.219-.277" stroke-dashoffset="2.835" stroke-width=".567"/><path d="m3.72 37.892.266-.316" stroke-dashoffset="3.188" stroke-width=".566"/><path d="m3.98 37.582.219-.355" stroke-dashoffset="3.601" stroke-width=".566"/><path d="m4.2 37.222.266-.355" stroke-dashoffset="4.019" stroke-width=".566"/><path d="m4.47 36.872.309-.355" stroke-dashoffset="4.463" stroke-width=".565"/><path d="m4.78 36.512.262-.398" stroke-dashoffset="4.933" stroke-width=".565"/><path d="m5.04 36.112.309-.355" stroke-dashoffset="5.409" stroke-width=".565"/><path d="m5.35 35.762.352-.395" stroke-dashoffset="5.88" stroke-width=".565"/><path d="m5.7 35.362.352-.398" stroke-dashoffset="6.41" stroke-width=".564"/><path d="m6.05 34.962.395-.395" stroke-dashoffset="6.939" stroke-width=".563"/><path d="m6.44 34.572.352-.355" stroke-dashoffset="7.499" stroke-width=".563"/><g stroke-width=".564"><path d="m6.8 34.212.398-.395" stroke-dashoffset="8"/><path d="m7.19 33.822.352-.398" stroke-dashoffset="8.559"/><path d="m7.55 33.422.352-.355" stroke-dashoffset=".089"/></g><path d="m7.9 33.062.309-.316" stroke-dashoffset=".589" stroke-width=".565"/><g stroke-width=".565"><path d="m8.21 32.752.309-.316" stroke-dashoffset="1.031"/><path d="m8.51 32.432.305-.355" stroke-dashoffset="1.473"/><path d="m8.82 32.082.309-.316" stroke-dashoffset="1.944"/><path d="m9.13 31.762.398-.438" stroke-dashoffset="2.385"/><path d="m9.53 31.322.352-.434" stroke-dashoffset="2.974"/><path d="m9.88 30.892.437-.477" stroke-dashoffset="3.533"/></g><path d="m10.32 30.412.441-.512" stroke-dashoffset="4.181" stroke-width=".566"/><path d="m10.76 29.902.484-.516" stroke-dashoffset="4.857" stroke-width=".566"/><path d="m11.24 29.382.48-.594" stroke-dashoffset="5.564" stroke-width=".566"/><path d="m11.72 28.792.484-.555" stroke-dashoffset="6.33" stroke-width=".567"/><path d="m12.21 28.242.527-.594" stroke-dashoffset="7.065" stroke-width=".567"/><path d="m12.73 27.642.531-.555" stroke-dashoffset="7.859" stroke-width=".571"/><path d="m13.26 27.092.48-.594" stroke-dashoffset="8.625" stroke-width=".571"/><g stroke-width=".572"><path d="m13.74 26.492.527-.516" stroke-dashoffset=".391"/><path d="m14.27 25.982.441-.473" stroke-dashoffset="1.128"/><path d="m14.71 25.512.395-.395" stroke-dashoffset="1.775"/></g><path d="m15.11 25.112.398-.36" stroke-dashoffset="2.335" stroke-width=".572"/><path d="m15.51 24.752.352-.355" stroke-dashoffset="2.867" stroke-width=".573"/><path d="m15.86 24.402.395-.434" stroke-dashoffset="3.368" stroke-width=".573"/><path d="m16.25 23.962.395-.477" stroke-dashoffset="3.956" stroke-width=".573"/><g stroke-width=".574"><path d="m16.65 23.492.484-.516" stroke-dashoffset="4.574"/><path d="m17.13 22.972.574-.594" stroke-dashoffset="5.281"/><path d="m17.71 22.382.57-.633" stroke-dashoffset="6.105"/><path d="m18.28 21.742.617-.672" stroke-dashoffset="6.958"/><path d="m18.89 21.072.66-.672" stroke-dashoffset="7.87"/><path d="m19.55 20.402.703-.672" stroke-dashoffset="8.813"/><path d="m20.26 19.732.66-.676" stroke-dashoffset=".786"/><path d="m20.92 19.052.656-.633" stroke-dashoffset="1.728"/><path d="m21.57 18.422.66-.555" stroke-dashoffset="2.643"/><path d="m22.23 17.872.617-.473" stroke-dashoffset="3.504"/><path d="m22.85 17.392.527-.438" stroke-dashoffset="4.282"/></g><g stroke-width=".573"><path d="m23.38 16.952.527-.355" stroke-dashoffset="4.966"/><path d="m23.9 16.602.527-.316" stroke-dashoffset="5.603"/><path d="m24.43 16.282.484-.316" stroke-dashoffset="6.218"/><path d="m24.92 15.972.484-.316" stroke-dashoffset="6.796"/></g><path d="m25.4 15.652.484-.316" stroke-dashoffset="7.375" stroke-width=".574"/><path d="m25.89 15.332.527-.355" stroke-dashoffset="7.953" stroke-width=".574"/><path d="m26.41 14.982.527-.316" stroke-dashoffset="8.59" stroke-width=".575"/><g stroke-width=".575"><path d="m26.94 14.664.57-.398" stroke-dashoffset=".205"/><path d="m27.51 14.266.617-.395" stroke-dashoffset=".9"/><path d="m28.13 13.871.57-.395" stroke-dashoffset="1.632"/><path d="m28.7 13.477.617-.316" stroke-dashoffset="2.328"/></g><path d="m29.32 13.16.57-.32" stroke-dashoffset="3.02" stroke-width=".575"/><path d="m29.89 12.84.527-.234" stroke-dashoffset="3.674" stroke-width=".575"/><path d="m30.41 12.605.484-.2" stroke-dashoffset="4.252" stroke-width=".574"/><path d="m30.9 12.406.398-.16" stroke-dashoffset="4.775" stroke-width=".571"/><path d="m31.3 12.246.352-.117" stroke-dashoffset="5.201" stroke-width=".571"/><path d="m31.65 12.129.527-.156" stroke-dashoffset="5.573" stroke-width=".571"/><path d="m32.17 11.973.484-.2" stroke-dashoffset="6.124" stroke-width=".584"/><path d="m32.66 11.773.48-.2" stroke-dashoffset="6.646" stroke-width=".6"/><path d="m33.14 11.574.352-.156" stroke-dashoffset="7.169" stroke-width=".601"/><path d="m33.49 11.418.309-.16" stroke-dashoffset="7.555" stroke-width=".604"/><path d="m33.8 11.258.441-.195" stroke-dashoffset="7.901" stroke-width=".604"/><path d="m34.24 11.062.438-.2" stroke-dashoffset="8.383" stroke-width=".604"/><path d="m34.68 10.863.531-.121" stroke-dashoffset="8.866" stroke-width=".604"/><path d="m35.21 10.742.613-.156" stroke-dashoffset=".406" stroke-width=".608"/><path d="m35.82 10.586.66-.16" stroke-dashoffset="1.042" stroke-width=".608"/><path d="m36.48 10.426.703-.156" stroke-dashoffset="1.721" stroke-width=".609"/><path d="m37.19 10.27.617-.121" stroke-dashoffset="2.442" stroke-width=".609"/><path d="m37.8 10.148.484-.078" stroke-dashoffset="3.069" stroke-width=".609"/><path d="m38.29 10.07.395-.04" stroke-dashoffset="3.559" stroke-width=".609"/><path d="m38.68 10.031.395-.078" stroke-dashoffset="3.957" stroke-width=".61"/><path d="m39.08 9.953.441-.078" stroke-dashoffset="4.361" stroke-width=".619"/><g stroke-width=".625"><path d="m39.52 9.875.352-.043" stroke-dashoffset="4.807"/><path d="m39.87 9.832.441-.04" stroke-dashoffset="5.162"/><path d="M40.31 9.793h.305" stroke-dashoffset="5.603"/></g><path d="M40.62 9.793h.398" stroke-dashoffset="5.911" stroke-width=".626"/><path d="m41.01 9.793.437-.04" stroke-dashoffset="6.307" stroke-width=".632"/><path d="M41.45 9.754h.441" stroke-dashoffset="6.748" stroke-width=".635"/><path d="m41.89 9.754.395-.04" stroke-dashoffset="7.188" stroke-width=".642"/><path d="m42.29 9.715.441-.078" stroke-dashoffset="7.586" stroke-width=".655"/><path d="m42.73 9.637.352-.121" stroke-dashoffset="8.033" stroke-width=".672"/><path d="m43.08 9.516.437-.117" stroke-dashoffset="8.404" stroke-width=".678"/><path d="m43.52 9.398.266-.16" stroke-dashoffset="8.86" stroke-width=".679"/><path d="m43.78 9.238.352-.117" stroke-dashoffset=".167" stroke-width=".68"/><path d="m44.14 9.121.441-.078" stroke-dashoffset=".539" stroke-width=".68"/><path d="m44.58 9.043.527-.04" stroke-dashoffset=".986" stroke-width=".685"/><path d="m45.1 9.004.352-.04" stroke-dashoffset="1.515" stroke-width=".685"/><path d="m45.46 8.965.438-.082" stroke-dashoffset="1.869" stroke-width=".687"/><path d="m45.89 8.883.441-.117" stroke-dashoffset="2.316" stroke-width=".692"/><path d="m46.33 8.766.309-.121" stroke-dashoffset="2.771" stroke-width=".696"/><path d="M46.64 8.644h.309" stroke-dashoffset="3.101" stroke-width=".683"/><g stroke-width=".682"><path d="M46.95 8.644h.437" stroke-dashoffset="3.409"/><path d="M47.39 8.644h.309" stroke-dashoffset="3.849"/><path d="M47.7 8.644h.309" stroke-dashoffset="4.157"/></g><path d="M48.01 8.644h.352" stroke-dashoffset="4.465" stroke-width=".682"/><path d="M48.36 8.644h.441" stroke-dashoffset="4.816" stroke-width=".682"/><path d="m48.8 8.644.352-.04" stroke-dashoffset="5.256" stroke-width=".684"/><path d="M49.15 8.605h.305" stroke-dashoffset="5.61" stroke-width=".683"/><path d="M49.46 8.605h.441" stroke-dashoffset="5.918" stroke-width=".678"/><path d="m49.9 8.605.441.04" stroke-dashoffset="6.358" stroke-width=".678"/><path d="m50.34 8.644.305.043" stroke-dashoffset="6.799" stroke-width=".679"/><path d="M50.64 8.687h.309" stroke-dashoffset="7.11" stroke-width=".68"/><path d="m50.95 8.687.527.04" stroke-dashoffset="7.418" stroke-width=".679"/><path d="m51.48 8.727.352.04" stroke-dashoffset="7.947" stroke-width=".68"/><path d="m51.83 8.766.398.04" stroke-dashoffset="8.301" stroke-width=".68"/><path d="M52.23 8.805h.352" stroke-dashoffset="8.699" stroke-width=".68"/><path d="m52.58 8.805.437.04" stroke-dashoffset=".051" stroke-width=".681"/><path d="M53.02 8.844h.441" stroke-dashoffset=".492" stroke-width=".683"/><path d="m53.46 8.844.395.04" stroke-dashoffset=".932" stroke-width=".679"/><path d="m53.85 8.883.352.16" stroke-dashoffset="1.33" stroke-width=".681"/><path d="m54.21 9.043.398.117" stroke-dashoffset="1.716" stroke-width=".689"/><path d="m54.6 9.16.305.04" stroke-dashoffset="2.129" stroke-width=".689"/><path d="m54.91 9.199.309.04" stroke-dashoffset="2.439" stroke-width=".691"/><path d="m55.22 9.238.574-.078" stroke-dashoffset="2.749" stroke-width=".305"/></g><path d="m58.12 40.582.223-.395" stroke-width=".538"/><path d="m58.34 40.192.352-.395" stroke-width=".553"/><path d="m58.69 39.792.309-.438" stroke-width=".562"/><path d="m59 39.362.219-.355" stroke-width=".581"/><path d="m59.22 39.002.219-.277" stroke-width=".589"/><path d="m59.44 38.722.176-.395" stroke-width=".591"/><path d="m59.62 38.332.176-.477" stroke-width=".592"/><path d="m59.79 37.852.176-.594" stroke-width=".597"/><path d="m59.97 37.262.09-.316" stroke-width=".602"/><path d="m60.06 36.942.176-.594" stroke-width=".611"/><path d="m60.23 36.352.176-.516" stroke-width=".624"/><path d="m60.41 35.832.176-.473" stroke-width=".63"/><path d="m60.58 35.362.176-.516" stroke-width=".634"/><path d="m60.76 34.852.176-.555" stroke-width=".635"/><path d="m60.94 34.292.086-.355M61.02 33.942l.09-.355" stroke-width=".636"/><path d="m61.11 33.582.133-.395M61.24 33.192l.086-.398M61.33 32.792l.133-.395" stroke-width=".637"/><path d="m61.46 32.392.133-.395" stroke-width=".638"/><path d="m61.6 32.002.086-.36" stroke-width=".639"/><path d="m61.68 31.642.133-.277" stroke-width=".64"/><path d="m61.82 31.362.09-.512M61.9 30.852l.086-.594" stroke-width=".641"/><path d="m61.99 30.262.043-.316M62.03 29.942l.047-.398M62.08 29.542l.086-.395M62.17 29.152l.09-.395" stroke-width=".642"/><g stroke-width=".643"><path d="m62.26 28.752.086-.398M62.34 28.352l.09-.473M62.43 27.882l.086-.438"/></g><path d="m62.52 27.442.133-.473" stroke-width=".644"/><path d="m62.65 26.972.09-.438" stroke-width=".647"/><path d="m62.74 26.532.086-.395" stroke-width=".653"/><path d="m62.83 26.142.043-.316" stroke-width=".666"/><path d="m62.87 25.822.047-.316" stroke-width=".674"/><path d="M62.92 25.512v-.555" stroke-width=".68"/><g stroke-width=".681"><path d="m62.92 24.952-.047-.594M62.87 24.362l-.043-.395M62.83 23.962v-.36"/></g><path d="m62.83 23.602-.043-.395M62.78 23.212l-.043-.355" stroke-width=".682"/><path d="m62.74 22.852-.047-.355M62.69 22.502l-.043-.398" stroke-width=".683"/><path d="m62.65 22.102-.043-.355" stroke-width=".684"/><path d="m62.61 21.742-.047-.355M62.56 21.392l-.043-.355" stroke-width=".685"/><path d="m62.52 21.032-.043-.316" stroke-width=".686"/><path d="m62.48 20.722-.043-.316M62.43 20.402l-.047-.316M62.39 20.082l-.086-.316" stroke-width=".687"/><g stroke-width=".688"><path d="m62.3 19.772-.09-.594M62.21 19.172l-.043-.594M62.17 18.582v-.316"/></g><g stroke-width=".688"><path d="M62.17 18.262v-.316M62.17 17.952l-.043-.32M62.12 17.632v-.316M62.12 17.312v-.316"/></g><path d="m62.12 16.992-.09-.594" stroke-width=".696"/><path d="m62.03 16.402-.129-.473" stroke-width=".71"/><path d="m61.9 15.932-.176-.477" stroke-width=".744"/><path d="m61.73 15.452-.176-.434" stroke-width=".754"/><path d="m61.55 15.022-.18-.438" stroke-width=".761"/><path d="m61.37 14.582-.129-.473" stroke-width=".762"/><path d="m61.24 14.109-.133-.277" stroke-width=".763"/><path d="m61.11 13.832-.176-.516" stroke-width=".764"/><path d="m60.94 13.316-.176-.355" stroke-width=".765"/><path d="m60.76 12.961-.309-.395" stroke-width=".778"/><path d="m60.45 12.566-.133-.32" stroke-width=".783"/><path d="m60.32 12.246-.176-.316" stroke-width=".784"/><path d="m60.14 11.93-.219-.434" stroke-width=".785"/><path d="m59.92 11.496-.266-.434" stroke-width=".786"/><path d="m59.66 11.062-.262-.32" stroke-width=".793"/><path d="m59.4 10.742-.266-.273" stroke-width=".799"/><path d="m59.13 10.469-.309-.32" stroke-width=".807"/><path d="m58.82 10.148-.219-.316" stroke-width=".808"/><path d="m58.6 9.832-.219-.316M58.39 9.516l-.219-.234" stroke-width=".809"/><path d="m58.17 9.281-.309-.238" stroke-width=".805"/><path d="m57.86 9.043-.398-.121" stroke-width=".817"/><path d="M57.46 8.922h-.305" stroke-width=".821"/><path d="M57.15 8.922h-.441" stroke-width=".827"/><path d="m31.25 8.605.398-.117" stroke-width=".722"/><path d="m31.65 8.488.352-.04" stroke-width=".731"/><path d="m32 8.449.395-.078" stroke-width=".743"/><path d="m32.39 8.371.441-.082" stroke-width=".752"/><path d="m32.83 8.289.437-.117" stroke-width=".759"/><path d="m33.27 8.172.398-.078" stroke-width=".763"/><path d="m33.67 8.094.437-.082" stroke-width=".77"/><path d="m34.11 8.012.441-.078" stroke-width=".776"/><path d="m34.55 7.934.395-.078" stroke-width=".788"/><path d="m34.94 7.855.441-.078" stroke-width=".796"/><path d="m35.39 7.777.48-.082" stroke-width=".807"/><path d="m35.87 7.695.484-.117" stroke-width=".819"/><path d="m36.35 7.578.484-.121" stroke-width=".828"/><path d="m36.83 7.457.527-.117" stroke-width=".837"/><path d="m37.36 7.34.527-.117" stroke-width=".842"/><path d="m37.89 7.223.484-.121M38.37 7.102l.527-.117" stroke-width=".846"/><path d="m38.9 6.984.484-.121" stroke-width=".847"/><g stroke-width=".846"><path d="m39.39 6.863.484-.078M39.87 6.785l.484-.078M40.35 6.707l.484-.04"/></g><path d="m40.84 6.668.527-.04M41.37 6.629l.438-.04" stroke-width=".847"/><path d="M41.8 6.59h.441M42.24 6.59h.441" stroke-width=".848"/><path d="M42.69 6.59h.352" stroke-width=".852"/><path d="M43.04 6.59h.395M43.43 6.59h.395" stroke-width=".853"/><path d="M43.83 6.59h.398" stroke-width=".854"/><path d="M44.23 6.59h.395M44.62 6.59h.352M44.97 6.59h.352" stroke-width=".855"/><path d="M45.32 6.59h.57" stroke-width=".856"/><path d="m45.89 6.59.531.04" stroke-width=".857"/><g stroke-width=".857"><path d="m46.42 6.629.48.04M46.9 6.668l.527.078M47.43 6.746l.355.04"/></g><path d="m47.79 6.785.656.16" stroke-width=".86"/><path d="m48.44 6.945.441.156" stroke-width=".862"/><path d="m48.89 7.102.352.082" stroke-width=".863"/><path d="m49.24 7.184.395.04" stroke-width=".864"/><path d="m49.63 7.223.441.078M50.07 7.301l.484.117" stroke-width=".865"/><path d="m50.56 7.418.57.2" stroke-width=".867"/><path d="m51.13 7.617.352.078" stroke-width=".87"/><path d="m51.48 7.695.309.082M51.79 7.777l.484.156" stroke-width=".871"/><path d="m52.27 7.934.309.04" stroke-width=".873"/><path d="m52.58 7.973.395.121" stroke-width=".875"/><path d="m52.98 8.094.352.078M53.33 8.172l.441.078" stroke-width=".876"/><path d="m53.77 8.25.309.078" stroke-width=".877"/><path d="m54.08 8.328.352.043" stroke-width=".879"/><path d="m54.43 8.371.305.04M54.73 8.41h.398" stroke-width=".88"/><path d="M55.13 8.41h.309" stroke-width=".879"/><path d="m55.44 8.41.305.04" stroke-width=".881"/><path d="m55.74 8.449.352.078" stroke-width=".88"/><path d="m56.1 8.527.355.2" stroke-width=".871"/><path d="m56.45 8.727.305.117" stroke-width=".831"/></g><g stroke="red"><path d="m1.12 36.382.04-1.469.116-1.465.192-1.46.273-1.446.344-1.43.422-1.41.496-1.383.566-1.355.637-1.328.707-1.29.777-1.25.836-1.206.903-1.164.964-1.114 1.016-1.058 1.074-1.004 1.125-.95 1.176-.886 1.219-.824 1.262-.758 1.296-.688 1.336-.62 1.364-.551 1.39-.477 1.414-.402 1.434-.328 1.45-.25 1.46-.172 1.469-.098 1.472-.02 1.47.06 1.464.132 1.453.215 1.442.289 1.425.363 1.407.441 1.375.512 1.351.586 1.317.656 1.28.723 1.24.793 1.198.855 1.149.915 1.101.976 1.047 1.035.988 1.086.934 1.137.871 1.187.805 1.23.742 1.27.672 1.309.605 1.34.532 1.37.457 1.4.382 1.421.31 1.438.233 1.453.153 1.46.078 1.47v1.472l-.078 1.469-.153 1.46-.234 1.454-.309 1.437-.382 1.422-.457 1.395-.532 1.375-.605 1.34-.672 1.308-.742 1.27-.805 1.23-.87 1.184-.935 1.14-.988 1.086-1.047 1.032-1.101.976-1.149.918-1.199.856-1.238.789-1.281.726-1.317.656-1.351.582-1.375.516-1.407.438-1.425.367-1.442.289-1.453.21-1.465.138-1.469.058-1.472-.02-1.469-.097-1.46-.172-1.45-.254-1.434-.324-1.414-.402-1.39-.48-1.364-.548-1.336-.62-1.296-.692-1.262-.758-1.219-.82-1.176-.887-1.125-.95-1.074-1.003-1.016-1.063-.964-1.11-.903-1.163-.836-1.207-.777-1.25-.707-1.29-.637-1.327-.566-1.356-.496-1.387-.422-1.406-.344-1.43-.273-1.449-.192-1.457-.117-1.465-.039-1.472" stroke-dasharray="6, 3" stroke-width=".792"/><path d="m40.79 58.712.09-.355" stroke-width=".749"/><path d="m40.88 58.362-.133.316" stroke-width=".891"/><path d="m40.75 58.672-.133.473" stroke-width=".895"/><path d="m40.62 59.152-.219.594" stroke-width=".896"/><path d="m40.4 59.742-.133.277M40.26 60.022l-.129.316" stroke-width=".9"/><path d="m40.14 60.332-.176.277" stroke-width=".903"/><path d="m39.96 60.612-.266.437" stroke-width=".907"/><path d="m39.69 61.052-.266.316" stroke-width=".916"/><path d="m39.43 61.372.398.316" stroke-width="1.042"/><path d="m39.83 61.682.352.156M40.18 61.842l.395.2" stroke-width="1.043"/><path d="m40.57 62.042.441.238" stroke-width="1.048"/><path d="m41.01 62.282.484.117" stroke-width="1.053"/><path d="m41.5 62.392.48.16M41.98 62.552l.484.078" stroke-width="1.056"/><path d="m42.46 62.632.441.117" stroke-width="1.062"/><path d="m42.9 62.752.438.121M43.34 62.872l.309.078" stroke-width="1.063"/><path d="m43.65 62.952.441.2" stroke-width="1.065"/><path d="m44.09 63.152.438.156" stroke-width="1.071"/><path d="m2.84 15.812.309.238" stroke-width=".902"/><path d="m3.15 16.042.66.277" stroke-width=".922"/><path d="m3.81 16.322.352.16" stroke-width=".928"/><path d="m4.16 16.482.395.117" stroke-width=".929"/><path d="m4.55 16.602.441.16M4.99 16.762l.395.078" stroke-width=".932"/><path d="m5.39 16.842.441.078M5.83 16.922l.395.121" stroke-width=".933"/><path d="m6.23 17.042.309.078" stroke-width=".934"/><path d="m6.53 17.122.309.04" stroke-width=".935"/><path d="m6.84 17.152.438.117M7.28 17.272l.309.04" stroke-width=".939"/><path d="m7.59 17.312.395.16" stroke-width=".94"/><path d="m7.98 17.472.441.078" stroke-width=".942"/><path d="m8.42 17.552.352.16" stroke-width=".998"/><path d="m8.78 17.712-.043.434" stroke-width="1.002"/><path d="m8.73 18.142-.043.437" stroke-width="1.008"/><path d="m8.69 18.582-.047.512" stroke-width="1.016"/><path d="m8.64 19.092-.086.477" stroke-width="1.033"/><path d="M8.56 19.572v.316" stroke-width="1.043"/><path d="M8.56 19.882v.395" stroke-width="1.065"/></g><g stroke="#000"><path d="m2.94 68.682 27.906-28.125" stroke-width=".741"/><path d="m27.69 3.262.309-.316" stroke-width=".846"/><path d="m27.99 2.945.219-.355M28.21 2.59l.266-.395" stroke-width=".852"/><path d="m28.48 2.195.266-.316" stroke-width=".853"/><path d="m28.74 1.879.305-.398" stroke-width=".859"/><path d="m29.05 1.48.223-.234" stroke-width=".864"/><path d="m29.27 1.246.305-.316" stroke-width=".863"/><path d="m29.58.93.355-.238" stroke-width=".864"/><path d="m29.93.691.305-.238" stroke-width=".868"/><path d="m30.24.453.266.277" stroke-width=".906"/><path d="m30.5.73.176.316" stroke-width=".915"/><path d="m30.68 1.047.262.277" stroke-width=".923"/><path d="m30.94 1.324.223.277M31.16 1.602l.219.316" stroke-width=".924"/><path d="m31.38 1.918.219.355" stroke-width=".925"/><path d="m31.6 2.273.266.277" stroke-width=".926"/><path d="m31.87 2.551.352.355" stroke-width=".929"/><path d="m32.22 2.906.266.16" stroke-width=".935"/><path d="m71.58 38.212.309.277" stroke-width=".923"/><path d="m71.89 38.492.309.121" stroke-width=".927"/><path d="m72.19 38.612.352.234M72.55 38.842l.352.2" stroke-width=".932"/><path d="m72.9 39.042.352.238M73.25 39.282l.352.238" stroke-width=".933"/><path d="m73.6 39.522.266.238" stroke-width=".936"/><path d="m73.87 39.762.266.195M74.13 39.952l.438.277" stroke-width=".937"/><path d="m74.57 40.232.352.16" stroke-width=".938"/><path d="m74.92 40.392.309.156" stroke-width=".932"/><path d="m75.23 40.542-.219.238" stroke-width=".998"/><path d="m75.01 40.782-.484.277" stroke-width="1.006"/><path d="m74.53 41.062-.395.238" stroke-width="1.01"/><path d="m74.13 41.302-.398.277" stroke-width="1.014"/><path d="m73.73 41.582-.395.277M73.34 41.852l-.352.234" stroke-width="1.018"/><path d="m72.99 42.092-.398.36" stroke-width="1.02"/><path d="m72.59 42.452-.262.234" stroke-width="1.022"/><path d="m2.05 65.282-.047.516" stroke-width=".808"/><path d="m2 65.802.09.395M2.09 66.192l.133.355" stroke-width=".811"/><path d="m2.23 66.552.176.395" stroke-width=".812"/><path d="m2.4 66.942.086.32" stroke-width=".813"/><path d="m2.49 67.262.133.434" stroke-width=".816"/><path d="m2.62 67.702.043.434" stroke-width=".836"/><path d="M2.66 68.132v.36" stroke-width=".855"/><path d="m2.66 68.492.309.234" stroke-width=".902"/><path d="m2.97 68.722.441.082" stroke-width=".908"/><path d="m3.41 68.812.48.04" stroke-width=".913"/><path d="M3.89 68.852h.531" stroke-width=".917"/><path d="M4.42 68.852h.48" stroke-width=".918"/><path d="M4.9 68.852h.398" stroke-width=".919"/><path d="M5.3 68.852h.352" stroke-width=".92"/><path d="M5.65 68.852h.395M6.05 68.852h.441" stroke-width=".921"/><path d="M6.49 68.852h.527M7.02 68.852h.395" stroke-width=".922"/><path d="M7.41 68.852h.352" stroke-width=".923"/></g></g></svg>