<?xml version="1.0" encoding="UTF-8"?>
<svg width="212.53" height="242.38" version="1.1" viewBox="0 0 212.53 242.38" xml:space="preserve" xmlns="http://www.w3.org/2000/svg"><defs><clipPath id="clipPath1908"><path d="m0 0h595v841h-595z"/></clipPath></defs><g transform="matrix(1.3333 0 0 1.3333 -108.59 -187.53)"><g transform="matrix(.8406 0 0 .92663 69.976 143.65)"><g clip-path="url(#clipPath1908)" fill="none" stroke-linecap="round" stroke-linejoin="round" stroke-miterlimit="10"><g stroke="#00c0ff"><path d="m90.166 113.93 28.757-56.802" stroke-width="1.2687"/><path d="m111.39 60.089 0.88165-0.36373" stroke-width="1.4416"/><path d="m112.27 59.725 0.72549-0.28466" stroke-width="1.4471"/><path d="m113 59.441 0.55548-0.43292" stroke-width="1.4478"/><path d="m113.56 59.008 0.72549-0.36373" stroke-width="1.4518"/><path d="m114.28 58.644 0.48037-0.43094" stroke-width="1.458"/><path d="m114.76 58.213 0.71758-0.71956" stroke-width="1.4641"/><path d="m115.48 57.494 0.40129-0.50211" stroke-width="1.4688"/><path d="m115.88 56.991 0.64049-0.50804" stroke-width="1.4695"/><path d="m116.52 56.483 0.64048-0.35582" stroke-width="1.4688"/><path d="m117.16 56.128 0.56537-0.21547" stroke-width="1.4695"/><path d="m117.73 55.912 0.64048-0.43292" stroke-width="1.4709"/><path d="m118.37 55.479 0.64049-0.43292" stroke-width="1.4675"/><path d="m119.01 55.046 0.64049 0.5713" stroke-width="1.4804"/><path d="m119.65 55.618 0.23919 0.5792" stroke-width="1.4967"/><path d="m119.89 56.197 0.31629 0.86584" stroke-width="1.509"/><path d="m120.2 57.063 0.24117 0.93305" stroke-width="1.5233"/><path d="m120.44 57.996 0.1621 1.0121" stroke-width="1.541"/><path d="m120.61 59.008 0.0771 1.0813" stroke-width="1.5532"/><path d="m120.68 60.089 0.1621 0.93305" stroke-width="1.5539"/><path d="m120.85 61.022 0.3242 0.72747" stroke-width="1.5621"/></g><g stroke="#0f0"><path d="m90.057 112.32h28.966" stroke-width="1.6663"/><path d="m112.91 106.3 0.56339 0.93305" stroke-width="1.3674"/><path d="m113.48 107.23 0.55548 0.5792" stroke-width="1.3933"/><path d="m114.03 107.81 0.80456 0.43293" stroke-width="1.4137"/><path d="m114.84 108.24 0.80259 0.64839" stroke-width="1.426"/><path d="m115.64 108.89 0.87968 0.43292" stroke-width="1.4341"/><path d="m116.52 109.32 0.80258 0.43292" stroke-width="1.443"/><path d="m117.32 109.76 0.79665 0.35385" stroke-width="1.4444"/><path d="m118.12 110.11 0.64049 0.29454" stroke-width="1.445"/><path d="m118.76 110.4 0.72549 0.6484" stroke-width="1.4518"/><path d="m119.49 111.05v0.71758" stroke-width="1.6213"/><path d="m119.49 111.77-0.56339 0.36373" stroke-width="1.6329"/><path d="m118.92 112.13-0.55549 0.50211" stroke-width="1.6438"/><path d="m118.37 112.64-0.72548 0.43292" stroke-width="1.6581"/><path d="m117.64 113.07-0.55746 0.50804" stroke-width="1.6703"/><path d="m117.08 113.58-0.4863 0.35582" stroke-width="1.6764"/><path d="m116.6 113.93-0.71758 0.51002" stroke-width="1.6866"/><path d="m115.88 114.44-0.56339 0.21547" stroke-width="1.686"/><path d="m115.32 114.66-0.31629 0.6484" stroke-width="1.3143"/><path d="m115 115.31-0.1621 0.57129" stroke-width=".82493"/><path d="m117.64 146.52h0.72548" stroke-width=".43947"/><path d="m104.98 126.05-0.31629 1.0042" stroke-width="1.6812"/><path d="m104.67 127.05 0.0771 1.0121" stroke-width="1.7105"/><path d="m104.74 128.07 0.1621 1.2276" stroke-width="1.7248"/><path d="m104.91 129.29 0.0771 1.5123" stroke-width="1.7329"/><path d="m104.98 130.81 0.1621 1.6526" stroke-width="1.7432"/><path d="m105.15 132.46 0.0771 1.7297" stroke-width="1.7445"/><path d="m105.22 134.19 0.1621 1.5913" stroke-width="1.7452"/><path d="m105.39 135.78 0.085 1.5123" stroke-width="1.7466"/><path d="m105.47 137.29 0.0771 1.2988" stroke-width="1.7472"/><path d="m105.55 138.59 0.0771 1.0813" stroke-width="1.7513"/><path d="m105.62 139.67v0.86386" stroke-width="1.7513"/><path d="m105.62 140.54v0.6484" stroke-width="1.737"/><path d="m105.62 141.18v0.93503" stroke-width="1.6315"/><path d="m104.1 127.56 0.64048 0.35385" stroke-width="1.6234"/><path d="m104.74 127.92h0.64049" stroke-width="1.6506"/><path d="m105.39 127.92 0.88166 0.0771" stroke-width="1.6622"/><path d="m106.27 127.99h0.80258" stroke-width="1.6628"/><g stroke-width="1.6696"><path d="m107.07 127.99 0.87968-0.0771"/><path d="m107.95 127.92 0.80258-0.0692"/><path d="m108.75 127.85 0.71956-0.0692"/></g><path d="m109.47 127.78 0.56339-0.21547" stroke-width="1.6336"/><path d="m110.03 127.56 0.64049-0.14826" stroke-width="1.5457"/><path d="m110.68 127.42 0.95677-0.14628" stroke-width="1.119"/><path d="m111.63 127.27 0.72747 0.43292" stroke-width=".67722"/><path d="m112.36 127.7 0.47838 0.43292" stroke-width=".13936"/><path d="m104.83 134.12h0.64048" stroke-width="1.4845"/><path d="m105.47 134.12h1.1208" stroke-width="1.5206"/><path d="m106.59 134.12h0.71758" stroke-width="1.5212"/><path d="m107.31 134.12 0.87968-0.0692" stroke-width="1.5212"/><path d="m108.19 134.05 0.80456-0.0771" stroke-width="1.4763"/><path d="m108.99 133.97 0.80259-0.21745" stroke-width="1.3477"/><path d="m109.8 133.75 0.87968-0.28466" stroke-width="1.0128"/><path d="m110.68 133.47 0.95677-0.64839" stroke-width=".27768"/><path d="m111.63 132.82 0.72747-0.50211" stroke-width=".13936"/><path d="m102.82 122.88h0.72747" stroke-width="1.4389"/><path d="m103.55 122.88 0.71758 0.13838" stroke-width="1.4491"/><path d="m104.27 123.01 0.95677 0.0771" stroke-width="1.4546"/><g stroke-width="1.4586"><path d="m105.22 123.09 0.96666 0.21548"/><path d="m106.19 123.31 0.95677 0.14035"/><path d="m107.15 123.45 0.96469 0.0771"/></g><path d="m108.11 123.52 0.88165 0.0692" stroke-width="1.4505"/><path d="m108.99 123.59 0.64049 0.0692" stroke-width="1.4321"/><path d="m109.63 123.66h0.64048" stroke-width="1.4239"/><path d="m110.27 123.66h0.80259" stroke-width="1.4185"/><path d="m111.08 123.66 0.40129-0.64839" stroke-width="1.4913"/><path d="m111.48 123.01-0.88759-0.71758" stroke-width="1.5532"/><path d="m110.59 122.3-0.79467-0.14826" stroke-width="1.6084"/><path d="m109.8 122.15-1.0438-0.0692" stroke-width="1.6397"/><path d="m108.75 122.08h-0.96468" stroke-width="1.6656"/><path d="m107.79 122.08-0.71758 0.0692" stroke-width="1.6751"/><path d="m107.07 122.15 0.80258 0.14826" stroke-width="1.656"/><path d="m107.87 122.3 1.1208 0.28466" stroke-width="1.6567"/><path d="m108.99 122.58 1.1189 0.36373" stroke-width="1.6574"/><path d="m110.11 122.95 0.80258 0.64839" stroke-width="1.6574"/><path d="m110.91 123.59 0.47839 0.36176" stroke-width="1.6567"/><path d="m111.39 123.96 0.48036 0.65037" stroke-width="1.6553"/><path d="m111.87 124.61 0.3242 0.71758" stroke-width="1.6594"/><path d="m112.2 125.32-0.2392 0.5792" stroke-width="1.705"/><path d="m111.96 125.9-0.64246 0.50211" stroke-width="1.7139"/><path d="m111.32 126.41-0.47839 0.36176" stroke-width="1.6363"/><g stroke-width="1.5491"><path d="m111.63 139.45 0.96666 0.0692"/><path d="m112.6 139.52 0.71758 0.43292"/><path d="m113.32 139.96 0.40129 0.94294"/></g><path d="m113.72 140.9 0.1621 0.71758" stroke-width="1.5532"/><path d="m113.88 141.62 0.0771 0.71758" stroke-width="1.5539"/><path d="m113.96 142.33v0.79665" stroke-width="1.5539"/><path d="m113.96 143.13-0.0771 0.79468" stroke-width="1.5478"/><path d="m113.88 143.93-0.085 0.86386" stroke-width="1.5301"/><path d="m113.79 144.79-0.2392 0.71956" stroke-width="1.5178"/><path d="m113.56 145.51-0.23919 0.57921" stroke-width="1.5172"/><path d="m113.32 146.09-0.64048 0.78676" stroke-width="1.5212"/><path d="m112.68 146.87-0.87968 0.51002" stroke-width="1.5219"/><path d="m111.8 147.38-0.64247 0.28466" stroke-width="1.426"/><path d="m118.61 138.59-0.87968 0.0692" stroke-width="1.4634"/><path d="m117.73 138.66-0.48827 0.71758" stroke-width="1.5076"/><path d="m117.24 139.38-0.2392 0.57921" stroke-width="1.5382"/><path d="m117 139.96-0.40129 0.79468" stroke-width="1.5607"/><path d="m116.6 140.75-0.31629 0.79665" stroke-width="1.5771"/><path d="m116.28 141.55-0.47839 0.93503" stroke-width="1.5982"/><g stroke-width="1.6036"><path d="m115.8 142.48-0.40129 1.0793"/><path d="m115.4 143.56-0.23919 1.0813"/><path d="m115.16 144.64-0.23919 1.0813"/><path d="m114.92 145.72-0.085 1.0813"/></g><path d="m114.84 146.81 0.1621 0.93503" stroke-width="1.5934"/><path d="m115 147.74 0.23919 0.64839" stroke-width="1.5485"/><path d="m115.24 148.39 0.47839 0.64839" stroke-width="1.4607"/><path d="m115.72 149.04 0.64049 0.36373" stroke-width="1.3511"/><path d="m116.36 149.4 0.64048 0.14629" stroke-width="1.234"/><path d="m117 149.55 1.2059-0.36373" stroke-width="1.04"/><path d="m118.2 149.18 0.40129-0.50211" stroke-width=".82425"/><path d="m118.61 148.68 0.55548-0.94096" stroke-width=".4635"/><path d="m119.16 147.74 0.4863-0.78875" stroke-width=".13936"/><path d="m111.72 143.93 0.64247 0.21547" stroke-width="1.5287"/><path d="m112.36 144.14 1.281 0.21745" stroke-width="1.6023"/><path d="m113.64 144.36 0.64048 0.0692" stroke-width="1.6172"/><path d="m114.28 144.43 0.64247 0.0692" stroke-width="1.6254"/><path d="m114.92 144.5 0.71758-0.0692" stroke-width="1.6254"/><path d="m115.64 144.43 0.71758-0.21745" stroke-width="1.6145"/><path d="m116.36 144.21 0.80258-0.36176" stroke-width="1.492"/><path d="m117.16 143.85 1.1208-0.64839" stroke-width="1.0822"/><path d="m118.28 143.2 0.96468-0.50211" stroke-width=".13936"/></g><g stroke="#ff8000"><path d="m89.063 57.063v55.867" stroke-width="1.5057"/><path d="m85.2 61.386 0.40327-0.71758" stroke-width="1.6302"/><path d="m85.603 60.668 0.47839-0.64839" stroke-width="1.6383"/><path d="m86.082 60.02 0.64049-0.79665" stroke-width="1.639"/><path d="m86.722 59.223 0.64048-0.64839" stroke-width="1.6424"/><path d="m87.363 58.575 0.4863-0.50211" stroke-width="1.6417"/><path d="m87.849 58.073 0.47839-0.51002" stroke-width="1.6465"/><path d="m88.327 57.563 0.31827-0.64839" stroke-width="1.6649"/><path d="m88.646 56.914 0.3242 0.51002" stroke-width="1.7016"/><path d="m88.97 57.424 0.40129 0.5713" stroke-width="1.7016"/><path d="m89.371 57.996 0.47839 0.64839" stroke-width="1.7057"/><path d="m89.849 58.644 0.40129 0.5792" stroke-width="1.7064"/><path d="m90.251 59.223 0.40129 0.64839" stroke-width="1.7064"/><path d="m90.652 59.872 0.47839 0.79665" stroke-width="1.7118"/><path d="m91.13 60.668 0.40327 0.64839" stroke-width="1.7125"/><path d="m91.534 61.317 0.40129 0.50211" stroke-width="1.7139"/><path d="m91.935 61.819 0.39338 0.50211" stroke-width="1.7186"/><path d="m92.328 62.321 0.40129 0.51002" stroke-width="1.72"/><path d="m68.707 81.425 0.31629-1.0121" stroke-width="1.445"/><path d="m69.024 80.413 0.56339-0.78677" stroke-width="1.4546"/><path d="m69.587 79.626 0.71758-1.0121" stroke-width="1.4634"/><path d="m70.305 78.614 1.0438-1.1505" stroke-width="1.4716"/><path d="m71.348 77.463 0.87968-1.2968" stroke-width="1.4811"/><path d="m72.228 76.166 0.95678-1.2988" stroke-width="1.4818"/><path d="m73.185 74.868 0.64246-1.2968" stroke-width="1.4872"/><path d="m73.827 73.571 0.64049-1.1584" stroke-width="1.4913"/><path d="m74.468 72.412 0.40129-1.0042" stroke-width="1.4913"/><path d="m74.869 71.408 0.23919-0.86386" stroke-width="1.4906"/><path d="m75.108 70.544 0.23919-0.5792" stroke-width="1.445"/><path d="m75.348 69.965 0.1621-0.5792" stroke-width="1.3266"/><path d="m75.51 69.386 0.23919-0.71758" stroke-width=".92024"/><path d="m75.749 68.668 0.085-0.64839" stroke-width=".13936"/><path d="m70.945 70.111v0.93503" stroke-width="1.4539"/><path d="m70.945 71.047 0.24117 0.86386" stroke-width="1.4675"/><path d="m71.186 71.91 0.3242 0.93503" stroke-width="1.46"/><path d="m71.511 72.845 0.39338 0.86386" stroke-width="1.2898"/><path d="m71.904 73.709 0.80258 0.79665" stroke-width=".88622"/><path d="m72.707 74.506 0.72549 0.43292" stroke-width=".50297"/><path d="m73.432 74.939 0.64048 0.36176" stroke-width=".13936"/><path d="m62.538 55.833-0.32617 0.5792" stroke-width="1.5002"/><path d="m62.212 56.412-0.07709 0.71956" stroke-width="1.5423"/><path d="m62.135 57.132-0.0771 1.0813" stroke-width="1.5655"/><path d="m62.057 58.213-0.1621 1.3739" stroke-width="1.5798"/><path d="m61.895 59.587-0.0771 1.5834" stroke-width="1.5873"/><path d="m61.818 61.17-0.1621 1.7297" stroke-width="1.5873"/><path d="m61.656 62.9-0.085 1.6605" stroke-width="1.5662"/><path d="m61.571 64.561-0.07709 1.5123" stroke-width="1.4927"/><path d="m61.494 66.073v1.368" stroke-width="1.3497"/><path d="m61.494 67.441 0.23919 1.1564" stroke-width="1.1625"/><path d="m61.733 68.597 0.23919 0.93503" stroke-width=".82221"/><path d="m61.972 69.532 0.3242 0.5792" stroke-width=".20011"/><path d="m61.733 56.845 1.1208 0.36373" stroke-width="1.5212"/><path d="m62.854 57.209 0.87968 0.28466" stroke-width="1.5308"/><path d="m63.734 57.494 0.88759 0.28664" stroke-width="1.5355"/><path d="m64.621 57.78 0.95875 0.29257" stroke-width="1.541"/><path d="m65.58 58.073 0.87968 0.14035" stroke-width="1.541"/><path d="m66.46 58.213 0.96468 0.07709" stroke-width="1.494"/><path d="m67.425 58.29 0.79665 0.06919" stroke-width="1.3783"/><path d="m68.221 58.359h0.80258" stroke-width="1.1591"/><path d="m69.024 58.359 0.80258-0.14628" stroke-width=".69423"/><path d="m69.826 58.213 0.55548-0.21745" stroke-width=".13936"/><path d="m61.417 62.181 0.95875 0.43292" stroke-width="1.56"/><path d="m62.376 62.613 0.80258 0.21745" stroke-width="1.56"/><path d="m63.178 62.831 0.80258 0.13838" stroke-width="1.556"/><path d="m63.981 62.969 0.95678 0.07709" stroke-width="1.4852"/><path d="m64.938 63.046h0.96666" stroke-width="1.2749"/><path d="m65.904 63.046 1.4352-0.51002" stroke-width=".82697"/><path d="m67.34 62.536 0.56339-0.2471" stroke-width=".48317"/><path d="m67.903 62.289 0.55746-0.25501" stroke-width=".13936"/><path d="m57.094 47.402 1.1189 0.36176" stroke-width="1.5226"/><path d="m58.213 47.764 1.0418 0.43292" stroke-width="1.5274"/><path d="m59.254 48.197 1.1208 0.35583" stroke-width="1.528"/><path d="m60.375 48.552 1.196 0.21547" stroke-width="1.5335"/><path d="m61.571 48.768 1.1288 0.29454" stroke-width="1.5335"/><path d="m62.7 49.062 1.0339 0.06919" stroke-width="1.5376"/><path d="m63.734 49.132 0.72549 0.06919" stroke-width="1.5382"/><path d="m64.459 49.201 0.88166 0.0771" stroke-width="1.5389"/><path d="m65.341 49.278 0.1621-0.79468" stroke-width="1.5961"/><path d="m65.503 48.483-0.56537-0.5792" stroke-width="1.6506"/><path d="m64.938 47.904-0.95678-0.50211" stroke-width="1.7037"/><path d="m63.981 47.402-1.0418-0.36373" stroke-width="1.735"/><path d="m62.939 47.038-0.72746-0.28466" stroke-width="1.7513"/><path d="m62.212 46.754 0.88166 0.50211" stroke-width="1.7152"/><path d="m63.093 47.256 0.56339 0.43094" stroke-width="1.7145"/><path d="m63.657 47.687 0.71758 0.43292" stroke-width="1.7139"/><path d="m64.374 48.12 0.64048 0.43292" stroke-width="1.7037"/><path d="m65.015 48.552 0.48827 0.36176" stroke-width="1.6968"/><path d="m65.503 48.914 0.64048 0.28664" stroke-width="1.6914"/><path d="m66.144 49.201 0.79468 0.51002" stroke-width="1.6866"/><path d="m66.938 49.711 0.4863 0.43292" stroke-width="1.6778"/><path d="m67.425 50.144-0.085 0.64839" stroke-width="1.7186"/><path d="m67.34 50.792-0.64049 0.28466" stroke-width="1.7227"/><path d="m66.699 51.077-0.87968 0.64839" stroke-width="1.605"/><path d="m65.819 51.725-0.40129 0.5792" stroke-width="1.3"/><path d="m65.418 52.304-0.48036 0.86584" stroke-width=".64592"/><path d="m64.938 53.17-0.31629 0.64839" stroke-width=".13936"/></g><g stroke="#00c0ff"><path d="m132.6 38.823v15.868" stroke-width="1.3788"/><path d="m132.78 38.714h6.4088" stroke-width=".99196"/><path d="m131.98 45.239 0.80456 0.14628" stroke-width="1.5703"/><path d="m132.78 45.386 0.64049-0.0771" stroke-width="1.5805"/><g stroke-width="1.5866"><path d="m133.42 45.308 0.79467-0.06919"/><path d="m134.22 45.239 0.88166-0.06919"/><path d="m135.1 45.17 0.80258-0.21547"/></g><path d="m135.9 44.955 0.87968-0.21745" stroke-width="1.5471"/><path d="m136.78 44.737 0.72549-0.21547" stroke-width="1.3981"/><path d="m137.51 44.522 1.1208-0.43292" stroke-width="1.0298"/><path d="m138.63 44.089 0.80259-0.36373" stroke-width=".13936"/><path d="m131.9 30.243-0.56339 0.21745" stroke-width="1.4348"/><path d="m131.34 30.461 1.2058 0.0771" stroke-width="1.5839"/><path d="m132.54 30.538h0.87968" stroke-width="1.605"/><path d="m133.42 30.538 0.79467 0.06919" stroke-width="1.6172"/><path d="m134.22 30.607h0.96666" stroke-width="1.6247"/><path d="m135.19 30.607 0.95678 0.06919" stroke-width="1.6349"/><path d="m136.14 30.676h0.96468" stroke-width="1.6349"/><path d="m137.11 30.676h0.95875" stroke-width="1.6356"/><path d="m138.07 30.676h0.96468" stroke-width="1.641"/><path d="m139.03 30.676h0.95678" stroke-width="1.6417"/><path d="m139.99 30.676h0.80258" stroke-width="1.6424"/><path d="m140.79 30.676h0.64246" stroke-width="1.6431"/><path d="m141.43 30.676h0.64049" stroke-width="1.6431"/><path d="m142.07 30.676 0.95677-0.06919" stroke-width="1.6451"/><path d="m143.03 30.607 0.72549-0.14628" stroke-width="1.6472"/><path d="m143.75 30.461 0.71956-0.21745" stroke-width="1.6492"/><path d="m144.47 30.243 0.64049-0.06919" stroke-width="1.6499"/><path d="m145.12 30.174h0.71758" stroke-width="1.6519"/><path d="m145.83 30.174-0.39339-0.5792" stroke-width="1.6812"/><path d="m145.44 29.595-0.80258-0.64839" stroke-width="1.6866"/><path d="m144.64 28.946-0.47839-0.43292" stroke-width="1.6982"/><path d="m144.16 28.514-0.48629-0.35583" stroke-width="1.7084"/><path d="m143.67 28.158-0.48037-0.43094" stroke-width="1.7207"/><path d="m143.19 27.727-0.55548-0.43292" stroke-width="1.7309"/><path d="m142.64 27.294-0.88759-0.64839" stroke-width="1.7602"/><path d="m141.75 26.645-0.64048-0.36373" stroke-width="1.7779"/><path d="m141.11 26.282 1.0418 0.36373" stroke-width="1.7609"/><path d="m142.15 26.645 0.64048 0.35582" stroke-width="1.7602"/><path d="m142.79 27.001 0.80259 0.36176" stroke-width="1.75"/><path d="m143.59 27.363 0.88165 0.5792" stroke-width="1.7397"/><path d="m144.47 27.942 0.56339 0.71758" stroke-width="1.7316"/><path d="m145.04 28.66 0.40129 0.93503" stroke-width="1.718"/><path d="m145.44 29.595 0.15419 0.5792" stroke-width="1.718"/><path d="m145.59 30.174 0.1621 1.0813" stroke-width="1.7288"/><path d="m145.76 31.255-0.0771 0.93503" stroke-width="1.7466"/><path d="m145.68 32.19-0.1621 0.64839" stroke-width="1.7615"/><path d="m145.52 32.839-0.3242 0.50804" stroke-width="1.7636"/><path d="m145.19 33.347-0.47839 0.78875" stroke-width="1.7636"/><path d="m144.71 34.136-0.31628 0.5792" stroke-width="1.735"/><path d="m144.4 34.715-0.4013 1.1505" stroke-width="1.3409"/><path d="m144 35.865 0.31629 0.86386" stroke-width=".13936"/></g><path d="m118.31 56.815v55.481" stroke="#0f0" stroke-dasharray="0.988404, 5.93042" stroke-width="1.3438"/><path d="m89.31 56.885h29.99" stroke="#ff8000" stroke-dasharray="0.988404, 5.93042" stroke-width="1.6329"/><g stroke="#000"><path d="m34.536 0.13645v168.23" stroke-width="1.3462"/><path d="m29.217 7.3241 0.55548-0.43094" stroke-width="1.5253"/><path d="m29.772 6.8932 0.56537-0.94294" stroke-width="1.605"/><path d="m30.338 5.9502 0.3242-0.5713" stroke-width="1.6295"/><path d="m30.662 5.3789 0.55548-1.0813" stroke-width="1.6587"/><path d="m31.217 4.2976 0.56339-0.94096" stroke-width="1.6669"/><path d="m31.781 3.3567 0.40129-0.50211" stroke-width="1.6676"/><path d="m32.182 2.8546 0.47839-0.79665" stroke-width="1.6724"/><path d="m32.66 2.0579 0.47839-0.64839" stroke-width="1.673"/><path d="m33.139 1.4095 0.40327-0.50211" stroke-width="1.6778"/><path d="m33.542 0.90741 0.64048 0.71956" stroke-width="1.7057"/><path d="m34.183 1.627 0.23919 0.5792" stroke-width="1.7173"/><path d="m34.422 2.2062 0.47839 0.71758" stroke-width="1.7254"/><path d="m34.9 2.9238 0.40129 0.79468" stroke-width="1.7343"/><path d="m35.301 3.7184 0.47839 0.86584" stroke-width="1.7384"/><path d="m35.78 4.5843 0.48827 0.86386" stroke-width="1.739"/><path d="m36.268 5.4481 0.31629 0.86584" stroke-width="1.7432"/><path d="m36.584 6.314 0.40129 0.71758" stroke-width="1.7438"/><path d="m36.986 7.0316 0.31629 0.64839" stroke-width="1.7513"/><path d="m37.302 7.68 0.3242 0.5792" stroke-width="1.7554"/><path d="m37.626 8.2592 0.47839 0.71758" stroke-width="1.7554"/><path d="m38.104 8.9767 0.3242 0.64839" stroke-width="1.735"/><path d="m38.429 9.6251 0.31629 1.2296" stroke-width="1.2701"/><path d="m38.745 10.855 0.1621 0.71758" stroke-width=".13936"/><path d="m18.406-2.3346-0.085-0.64839" stroke-width="1.6635"/><path d="m18.321-2.9829 0.48036-1.2988" stroke-width="1.6941"/><path d="m18.801-4.2817 0.4863-0.86386" stroke-width="1.7002"/><path d="m19.287-5.1456 0.47839-1.0121" stroke-width="1.705"/><path d="m19.766-6.1577 0.47839-0.93503" stroke-width="1.7111"/><path d="m20.244-7.0927 0.56339-1.0101" stroke-width="1.7118"/><path d="m20.807-8.1029 0.47839-0.93503" stroke-width="1.7125"/><g stroke-width="1.7132"><path d="m21.286-9.0379 0.48036-0.94294"/><path d="m21.766-9.9808 0.47839-0.93305"/><path d="m22.245-10.914 0.40129-0.86584"/><path d="m22.646-11.78 0.3242-0.86386"/></g><path d="m22.97-12.644 0.47839-0.79665" stroke-width="1.6989"/><path d="m23.448-13.44 0.23919-0.5713" stroke-width="1.6785"/><path d="m23.688-14.012 0.47839-0.79468" stroke-width="1.5376"/><path d="m17.765-17.694 0.15419 0.86584" stroke-width="1.1101"/><path d="m17.919-16.829 0.64048 1.0872" stroke-width="1.2735"/><path d="m18.56-15.741 0.40327 0.57327" stroke-width="1.347"/><path d="m18.963-15.168 0.40129 0.64839" stroke-width="1.4015"/><path d="m19.364-14.52 0.31629 0.5792" stroke-width="1.443"/><path d="m19.681-13.94 0.3242 0.5792" stroke-width="1.475"/><path d="m20.005-13.361 0.47839 0.86386" stroke-width="1.5321"/><path d="m20.483-12.497 0.40129 0.71758" stroke-width="1.5512"/><path d="m20.885-11.78 0.40129 0.79665" stroke-width="1.558"/><path d="m21.286-10.983 0.31827 0.71758" stroke-width="1.558"/><path d="m21.604-10.266 0.40129 0.71758" stroke-width="1.4253"/><path d="m22.005-9.5479 0.56339 0.51002" stroke-width=".13936"/><path d="m35.774 167.34h162.05" stroke-width="1.6161"/><path d="m194.22 159.93-0.4863 0.36175" stroke-width="1.3762"/><path d="m193.73 160.29 0.56339 0.71956" stroke-width="1.4341"/><path d="m194.3 161.01 0.47839 0.57921" stroke-width="1.4498"/><path d="m194.77 161.59 0.47839 0.50013" stroke-width="1.4559"/><path d="m195.25 162.09 0.56339 0.65037" stroke-width="1.462"/><path d="m195.82 162.74 0.56536 0.50211" stroke-width="1.4627"/><path d="m196.38 163.24 0.55549 0.50804" stroke-width="1.4634"/><path d="m196.94 163.75 0.47838 0.43292" stroke-width="1.4675"/><path d="m197.42 164.18 0.72549 0.5713" stroke-width="1.4716"/><path d="m198.14 164.75 0.71956 0.43292" stroke-width="1.4845"/><path d="m198.86 165.18-0.0791 0.79467" stroke-width="1.6785"/><path d="m198.78 165.98-0.3242 0.71956" stroke-width="1.6955"/><path d="m198.46 166.7-0.47839 0.86387" stroke-width="1.7159"/><path d="m197.98 167.56-0.23919 0.5792" stroke-width="1.7295"/><path d="m197.74 168.14-0.40129 0.5792" stroke-width="1.7425"/><path d="m197.34 168.72-0.47839 0.6484" stroke-width="1.75"/><path d="m196.86 169.37-0.56339 0.5792" stroke-width="1.7609"/><path d="m196.3 169.95-0.64246 0.50211" stroke-width="1.7711"/><path d="m195.65 170.45-0.55549 0.50211" stroke-width="1.7772"/><path d="m195.1 170.95-0.48629 0.36176" stroke-width="1.7867"/><path d="m194.61 171.31-0.79468 0.5792" stroke-width="1.7888"/><path d="m186.44 176.65 0.56339 0.28466" stroke-width="1.3252"/><path d="m187.01 176.94 0.64247 0.28663" stroke-width="1.3266"/><path d="m187.65 177.22 0.71758 0.43095" stroke-width="1.3266"/><path d="m188.37 177.65 0.64048 0.51001" stroke-width="1.3327"/><g stroke-width="1.3334"><path d="m189.01 178.16 0.56339 0.50211"/><path d="m189.57 178.67 0.4013 0.6484"/><path d="m189.97 179.31 0.31826 0.64839"/></g><path d="m190.29 179.96 0.2392 0.79665" stroke-width="1.3347"/><path d="m190.53 180.76v0.86387" stroke-width="1.3388"/><g stroke-width="1.3436"><path d="m190.53 181.62-0.1542 0.93503"/><path d="m190.37 182.56-0.32617 1.0813"/><path d="m190.05 183.64-0.47839 1.1584"/></g><path d="m189.57 184.8-0.64048 1.0813" stroke-width="1.3388"/><path d="m188.93 185.88-0.64049 1.0022" stroke-width="1.3388"/><path d="m188.29 186.88-0.56339 0.79665" stroke-width="1.345"/><path d="m187.73 187.68-0.64246 0.64839" stroke-width="1.345"/><path d="m187.08 188.33-0.47839 0.36176" stroke-width="1.3388"/><path d="m186.6 188.69-0.71758 0.43292" stroke-width="1.1673"/><path d="m185.89 189.12-0.1621-0.57921" stroke-width=".18105"/><path d="m195.49 178.45-0.55548-0.43292" stroke-width="1.2769"/><path d="m194.94 178.02-0.71758 0.21547" stroke-width="1.4022"/><path d="m194.22 178.23-0.88759 1.0121" stroke-width="1.4525"/><path d="m193.33 179.25-0.48037 0.86584" stroke-width="1.4811"/><path d="m192.85 180.11-0.55548 1.0813" stroke-width="1.5063"/><path d="m192.3 181.19-0.48629 1.2276" stroke-width="1.5301"/><path d="m191.81 182.42-0.40129 1.2968" stroke-width="1.5382"/><path d="m191.41 183.72-0.2392 1.2197" stroke-width="1.5389"/><g stroke-width="1.5451"><path d="m191.17 184.94-0.0771 1.0813"/><path d="m191.09 186.02 0.16209 0.94294"/><path d="m191.25 186.96 0.1542 0.64839"/></g><path d="m191.41 187.61 0.48629 0.50211" stroke-width="1.5301"/><path d="m191.89 188.11 0.55548 0.21547" stroke-width="1.5104"/><path d="m192.45 188.33 0.64247 0.14629" stroke-width="1.4961"/><path d="m193.09 188.47h0.72548" stroke-width="1.4818"/><path d="m193.82 188.47 0.64049-0.14629" stroke-width="1.4525"/><path d="m194.46 188.33 0.64048-0.36373" stroke-width="1.3837"/><path d="m195.1 187.96 0.55549-0.50211" stroke-width="1.2551"/><path d="m195.65 187.46 0.64246-0.71758" stroke-width="1.102"/><path d="m196.3 186.74 0.64049-1.0813" stroke-width=".75756"/><path d="m196.94 185.66 0.47838-0.86387" stroke-width=".13936"/><path d="m185.89 181.91 1.0418 0.21548" stroke-width="1.4355"/><path d="m186.93 182.13 0.95875 0.14628" stroke-width="1.4661"/><path d="m187.89 182.27 1.1189 0.0712" stroke-width="1.4824"/><path d="m189.01 182.34 1.2039 0.14628" stroke-width="1.4893"/><path d="m190.21 182.49 1.283 0.0692" stroke-width="1.4933"/><path d="m191.49 182.56h1.196" stroke-width="1.4933"/><path d="m192.69 182.56 1.1288-0.0692" stroke-width="1.4702"/><path d="m193.82 182.49 0.95678-0.21745" stroke-width="1.362"/><path d="m194.77 182.27 0.80258-0.21547" stroke-width="1.1401"/><path d="m195.58 182.06 0.95875-0.57921" stroke-width=".16332"/><path d="m196.54 181.48 0.80259-0.50211" stroke-width=".13936"/></g></g></g></g></svg>
