<svg width="536.97" height="120.44" xml:space="preserve" xmlns="http://www.w3.org/2000/svg"><defs><clipPath id="a"><path d="M0 0h595v841H0z"/></clipPath></defs><g clip-path="url(#a)" fill="none" stroke-linecap="round" stroke-linejoin="round" stroke-miterlimit="10" transform="translate(-77.602 -44.134) scale(1.3333)"><g stroke="#000"><path d="M70.574 42.336v76.18" stroke-width=".681"/><path d="M71.406 98.539h93.957" stroke-width=".697"/><path d="m162.21 95.477-.242.253m.002 0 .402.473" stroke-width=".739"/><path d="m162.37 96.203.367.258m.003 0 .364.289" stroke-width=".741"/><path d="m163.1 96.75.363.219m-.003 0 .324.219m.006 0 .324.218" stroke-width=".742"/><path d="m164.11 97.406.489.258" stroke-width=".74"/><path d="m164.6 97.664.445.289" stroke-width=".739"/><path d="m165.05 97.953.445.438m-.005 0 .406.476" stroke-width=".737"/><path d="m165.9 98.867.243.219m-.003 0 .242.363" stroke-width=".738"/><path d="m166.38 99.449-.324.293" stroke-width=".781"/><path d="m166.06 99.742-.325.074" stroke-width=".79"/><path d="m165.73 99.816-.363.18" stroke-width=".797"/><path d="m165.37 99.996-.406.149" stroke-width=".804"/><path d="m164.96 100.14-.445.253" stroke-width=".812"/><path d="m164.52 100.4-.407.254" stroke-width=".817"/><path d="m164.11 100.65-.363.258" stroke-width=".821"/><path d="m163.75 100.91-.324.289" stroke-width=".823"/><path d="m163.43 101.2-.242.184m-.008-.004-.286.328" stroke-width=".824"/><path d="m162.9 101.71-.242.328" stroke-width=".814"/><path d="m162.66 102.04-.082.363" stroke-width=".683"/><path d="m162.57 102.4-.16.547" stroke-width=".185"/><path d="m162.41 102.95-.082.328" stroke-width=".07"/><path d="m68.938 45.152.242-.179" stroke-width=".555"/><path d="m69.18 44.973.246-.293" stroke-width=".575"/><path d="m69.426 44.68.324-.364" stroke-width=".605"/><path d="m69.75 44.316.16-.293" stroke-width=".616"/><path d="m69.91 44.023.16-.253" stroke-width=".625"/><path d="m70.07 43.77.125-.329" stroke-width=".628"/><path d="m70.195 43.441.16-.257" stroke-width=".633"/><path d="m70.355 43.184.165-.289m0 0 .242-.368" stroke-width=".636"/><path d="m70.762 42.527.16-.254" stroke-width=".637"/><path d="m70.922 42.273.285-.293" stroke-width=".645"/><path d="m71.207 41.98.121.293" stroke-width=".742"/><path d="m71.328 42.273.164.293" stroke-width=".749"/><path d="m71.492 42.566.16.364" stroke-width=".758"/><path d="m71.652 42.93.243.437" stroke-width=".77"/><path d="m71.895 43.367.203.473" stroke-width=".779"/><path d="m72.098 43.84.164.437" stroke-width=".79"/><path d="m72.262 44.277.16.438" stroke-width=".793"/><path d="m72.422 44.715.121.402" stroke-width=".796"/><path d="m72.543 45.117.121.293m0 0 .082.289" stroke-width=".797"/><path d="m72.746 45.699.203.403" stroke-width=".794"/><path d="m72.949 46.102.16.328" stroke-width=".596"/><path d="m73.109 46.43.325.183" stroke-width=".07"/><path d="m62.656 38.117-.324-.109" stroke-width=".719"/><path d="M62.332 38.008h.324m0 0 .446.109" stroke-width=".762"/><path d="m63.102 38.117.406.219" stroke-width=".757"/><path d="m63.508 38.336.363.289" stroke-width=".75"/><path d="m63.871 38.625.246.328" stroke-width=".738"/><path d="m64.117 38.953.203.402m0 0 .121.438" stroke-width=".736"/><path d="m64.441 39.793.079.473m0 0 .042.546" stroke-width=".737"/><path d="m64.562 40.812.04.512m0 0-.04.477" stroke-width=".732"/><path d="m64.562 41.801-.042.363" stroke-width=".738"/><path d="m64.52 42.164-.161.328m0 0-.242.254" stroke-width=".743"/><path d="m64.117 42.746-.324.219" stroke-width=".747"/><path d="m63.793 42.965-.367.219m0 0-.324.148" stroke-width=".748"/><path d="m63.102 43.332-.325.145" stroke-width=".744"/><path d="m62.777 43.477-.402.144" stroke-width=".663"/><path d="m66.711 37.242-.324-.039" stroke-width=".572"/><path d="M66.387 37.203h-.325" stroke-width=".645"/><path d="m66.062 37.203-.406.184" stroke-width=".705"/><path d="m65.656 37.387-.242.218" stroke-width=".721"/><path d="m65.414 37.605-.203.329" stroke-width=".737"/><path d="m65.211 37.934-.285.511" stroke-width=".753"/><path d="m64.926 38.445-.242.657" stroke-width=".762"/><path d="m64.684 39.102-.204.765" stroke-width=".772"/><path d="m64.48 39.867-.16.875" stroke-width=".777"/><path d="m64.32 40.742-.082.84m0 0-.043.801" stroke-width=".781"/><path d="m64.195 42.383.125.621" stroke-width=".782"/><path d="m64.32 43.004.2.473" stroke-width=".781"/><path d="m64.52 43.477.285.253" stroke-width=".775"/><path d="m64.805 43.73.363.184" stroke-width=".751"/><path d="m65.168 43.914.449.035" stroke-width=".713"/><path d="m65.617 43.949.485-.07" stroke-width=".675"/><path d="m66.102 43.879.527-.184" stroke-width=".634"/><path d="m66.629 43.695.484-.363" stroke-width=".556"/><path d="m67.113 43.332.446-.477" stroke-width=".436"/><path d="m67.559 42.855.367-.656" stroke-width=".253"/><path d="m67.926 42.199.242-.547" stroke-width=".07"/><path d="m62.293 40.559 4.863-.582" stroke-width=".668"/><path d="m170.68 99.816-.082.508" stroke-width=".704"/><path d="m170.6 100.32-.082.477" stroke-width=".728"/><path d="m170.52 100.8-.078.656" stroke-width=".745"/><path d="m170.44 101.46-.126.766" stroke-width=".761"/><path d="m170.31 102.22-.078.875" stroke-width=".772"/><path d="m170.23 103.1-.043.945" stroke-width=".784"/><path d="m170.19 104.04-.039.949" stroke-width=".79"/><path d="M170.15 104.99v.949" stroke-width=".795"/><path d="m170.15 105.94.039.95" stroke-width=".799"/><path d="m170.19 106.89.164.836" stroke-width=".802"/><path d="m170.36 107.73.161.804m-.001-.004.246.657" stroke-width=".803"/><path d="m170.76 109.19.324.546m.006-.006.281.364" stroke-width=".804"/><path d="m171.37 110.1.406.218" stroke-width=".797"/><path d="m171.77 110.32.364.11" stroke-width=".786"/><path d="m172.14 110.43.406-.035" stroke-width=".757"/><path d="m172.54 110.39.406-.149" stroke-width=".697"/><path d="m172.95 110.24.363-.254" stroke-width=".618"/><path d="m173.31 109.99.325-.363" stroke-width=".501"/><path d="m173.64 109.62.324-.586" stroke-width=".237"/><path d="m173.96 109.04.242-.508" stroke-width=".07"/><path d="m167.92 105.07 5.027-.586" stroke-width=".738"/><path d="M211.86 43.16v76.18" stroke-width=".681"/><path d="M212.69 99.363h93.961" stroke-width=".697"/><path d="m303.5 96.301-.242.254m-.008 0 .406.472" stroke-width=".739"/><path d="m303.66 97.027.363.258m-.003 0 .364.289" stroke-width=".741"/><path d="m304.39 97.574.367.219m-.007 0 .324.219m.006 0 .324.218" stroke-width=".742"/><path d="m305.4 98.23.485.258" stroke-width=".74"/><path d="m305.89 98.488.445.289" stroke-width=".739"/><path d="m306.33 98.777.445.438m.005 0 .407.476" stroke-width=".737"/><path d="m307.18 99.691.242.219m.008 0 .246.363" stroke-width=".738"/><path d="m307.67 100.27-.324.293" stroke-width=".781"/><path d="m307.35 100.57-.325.071" stroke-width=".79"/><path d="m307.02 100.64-.367.183" stroke-width=".797"/><path d="m306.66 100.82-.402.145" stroke-width=".804"/><path d="m306.25 100.96-.449.258" stroke-width=".812"/><path d="m305.8 101.22-.403.254" stroke-width=".817"/><path d="m305.4 101.48-.367.253" stroke-width=".821"/><path d="m305.04 101.73-.324.293" stroke-width=".823"/><path d="m304.71 102.02-.242.184m.002.006-.281.328" stroke-width=".824"/><path d="m304.19 102.54-.247.328" stroke-width=".814"/><path d="m303.94 102.86-.078.364" stroke-width=".683"/><path d="m303.86 103.23-.164.546" stroke-width=".185"/><path d="m303.7 103.77-.082.329" stroke-width=".07"/><path d="m210.22 45.977.246-.184" stroke-width=".555"/><path d="m210.47 45.793.242-.289" stroke-width=".575"/><path d="m210.71 45.504.324-.367" stroke-width=".605"/><path d="m211.04 45.137.16-.289" stroke-width=".616"/><path d="m211.2 44.848.164-.258" stroke-width=".625"/><path d="m211.36 44.59.121-.328" stroke-width=".628"/><path d="m211.48 44.262.161-.254" stroke-width=".633"/><path d="m211.64 44.008.164-.293m-.004 0 .242-.363" stroke-width=".636"/><path d="m212.05 43.352.164-.254" stroke-width=".637"/><path d="m212.21 43.098.281-.293" stroke-width=".645"/><path d="m212.49 42.805.121.293" stroke-width=".742"/><path d="m212.61 43.098.164.289" stroke-width=".749"/><path d="m212.78 43.387.161.367" stroke-width=".758"/><path d="m212.94 43.754.246.437" stroke-width=".77"/><path d="m213.18 44.191.199.473" stroke-width=".779"/><path d="m213.38 44.664.164.438" stroke-width=".79"/><path d="m213.55 45.102.16.437" stroke-width=".793"/><path d="m213.71 45.539.125.402" stroke-width=".796"/><path d="m213.83 45.941.121.293m-.001 0 .078.289" stroke-width=".797"/><path d="m214.03 46.523.203.403" stroke-width=".794"/><path d="m214.23 46.926.164.328" stroke-width=".596"/><path d="m214.4 47.254.325.184" stroke-width=".07"/><path d="m311.96 100.64-.082.511" stroke-width=".704"/><path d="m311.88 101.15-.078.473" stroke-width=".728"/><path d="m311.8 101.62-.082.656" stroke-width=".745"/><path d="m311.72 102.28-.121.766" stroke-width=".761"/><path d="m311.6 103.04-.082.879" stroke-width=".772"/><path d="m311.52 103.92-.04.945" stroke-width=".784"/><path d="m311.48 104.87-.042.949" stroke-width=".79"/><path d="M311.44 105.82v.95" stroke-width=".795"/><path d="m311.44 106.77.042.945" stroke-width=".799"/><path d="m311.48 107.71.161.84" stroke-width=".802"/><path d="m311.64 108.55.164.801m-.004-.001.242.656" stroke-width=".803"/><path d="m312.05 110.01.324.547m-.004.003.281.367" stroke-width=".804"/><path d="m312.65 110.92.407.219" stroke-width=".797"/><path d="m313.06 111.14.367.109" stroke-width=".786"/><path d="m313.43 111.25.402-.035" stroke-width=".757"/><path d="m313.83 111.22.406-.149" stroke-width=".697"/><path d="m314.23 111.07.364-.254" stroke-width=".618"/><path d="m314.6 110.81.324-.367" stroke-width=".501"/><path d="m314.92 110.44.324-.582" stroke-width=".237"/><path d="m315.25 109.86.246-.511" stroke-width=".07"/><path d="m309.21 105.89 5.023-.586" stroke-width=".738"/><path d="M353.51 43.125v76.18" stroke-width=".681"/><path d="M354.34 99.328h93.961" stroke-width=".697"/><path d="m445.15 96.262-.242.258m.002 0 .406.472" stroke-width=".739"/><path d="m445.31 96.992.364.254m.006 0 .363.293" stroke-width=".741"/><path d="m446.04 97.539.367.219m.003 0 .324.219m-.004 0 .325.218" stroke-width=".742"/><path d="m447.06 98.195.484.254" stroke-width=".74"/><path d="m447.54 98.449.445.293" stroke-width=".739"/><path d="m447.98 98.742.446.438m.004 0 .406.472" stroke-width=".737"/><path d="m448.84 99.652.242.219m-.002 0 .242.367" stroke-width=".738"/><path d="m449.32 100.24-.324.289" stroke-width=".781"/><path d="m449 100.53-.324.075" stroke-width=".79"/><path d="m448.67 100.6-.363.183" stroke-width=".797"/><path d="m448.31 100.78-.407.145" stroke-width=".804"/><path d="m447.9 100.93-.445.254" stroke-width=".812"/><path d="m447.46 101.18-.402.257" stroke-width=".817"/><path d="m447.06 101.44-.367.254" stroke-width=".821"/><path d="m446.69 101.7-.325.293" stroke-width=".823"/><path d="m446.36 101.99-.242.18m.002 0-.285.328" stroke-width=".824"/><path d="m445.84 102.5-.242.328" stroke-width=".814"/><path d="m445.59 102.82-.082.367" stroke-width=".683"/><path d="m445.51 103.19-.16.547" stroke-width=".185"/><path d="m445.35 103.74-.082.328" stroke-width=".07"/><path d="m351.88 45.941.242-.183" stroke-width=".555"/><path d="m352.12 45.758.246-.293" stroke-width=".575"/><path d="m352.36 45.465.325-.363" stroke-width=".605"/><path d="m352.69 45.102.16-.293" stroke-width=".616"/><path d="m352.85 44.809.164-.254" stroke-width=".625"/><path d="m353.01 44.555.121-.328" stroke-width=".628"/><path d="m353.13 44.227.16-.254" stroke-width=".633"/><path d="m353.29 43.973.164-.293m.006 0 .242-.364" stroke-width=".636"/><path d="m353.7 43.316.16-.257" stroke-width=".637"/><path d="m353.86 43.059.286-.289" stroke-width=".645"/><path d="m354.14 42.77.121.289" stroke-width=".742"/><path d="m354.27 43.059.164.293" stroke-width=".749"/><path d="m354.43 43.352.16.363" stroke-width=".758"/><path d="m354.59 43.715.242.437" stroke-width=".77"/><path d="m354.83 44.152.203.477" stroke-width=".779"/><path d="m355.04 44.629.164.437" stroke-width=".79"/><path d="m355.2 45.066.16.438" stroke-width=".793"/><path d="m355.36 45.504.121.398" stroke-width=".796"/><path d="m355.48 45.902.122.293m-.002 0 .082.293" stroke-width=".797"/><path d="m355.68 46.488.203.403" stroke-width=".794"/><path d="m355.89 46.891.164.328" stroke-width=".596"/><path d="m356.05 47.219.324.179" stroke-width=".07"/><path d="m453.62 100.6-.082.511" stroke-width=".704"/><path d="m453.54 101.11-.082.473" stroke-width=".728"/><path d="m453.45 101.59-.078.656" stroke-width=".745"/><path d="m453.38 102.24-.121.766" stroke-width=".761"/><path d="m453.25 103.01-.082.875" stroke-width=".772"/><path d="m453.17 103.88-.043.949" stroke-width=".784"/><path d="m453.13 104.83-.039.949" stroke-width=".79"/><path d="M453.09 105.78v.946" stroke-width=".795"/><path d="m453.09 106.73.039.949" stroke-width=".799"/><path d="m453.13 107.68.164.84" stroke-width=".802"/><path d="m453.29 108.52.16.8m0 0 .246.657" stroke-width=".803"/><path d="m453.7 109.97.324.547m-.004.003.282.367" stroke-width=".804"/><path d="m454.3 110.89.406.218" stroke-width=".797"/><path d="m454.71 111.1.363.11" stroke-width=".786"/><path d="m455.07 111.22.406-.039" stroke-width=".757"/><path d="m455.48 111.18.407-.145" stroke-width=".697"/><path d="m455.89 111.03.363-.254" stroke-width=".618"/><path d="m456.25 110.78.324-.367" stroke-width=".501"/><path d="m456.57 110.41.324-.582" stroke-width=".237"/><path d="m456.9 109.83.243-.512" stroke-width=".07"/><path d="m450.86 105.85 5.024-.582" stroke-width=".738"/><path d="m202.53 39.902.282.328" stroke-width=".657"/><path d="m202.81 40.23.164.293" stroke-width=".699"/><path d="m202.97 40.523.242.364" stroke-width=".733"/><path d="m203.22 40.887.242.476" stroke-width=".757"/><path d="m203.46 41.363.246.547" stroke-width=".773"/><path d="m203.7 41.91.199.582" stroke-width=".784"/><path d="m203.9 42.492.164.512" stroke-width=".792"/><path d="m204.07 43.004.243.473" stroke-width=".796"/><path d="m204.31 43.477.121.363" stroke-width=".798"/><path d="m204.43 43.84.121.293" stroke-width=".799"/><path d="m204.55 44.133.246.402" stroke-width=".802"/><path d="m204.8 44.535.242.399" stroke-width=".803"/><path d="m205.04 44.934.324.437m-.004 0 .325.293" stroke-width=".805"/><path d="m205.69 45.664.324-.293" stroke-width=".853"/><path d="m206.01 45.371.082-.363m-.002 0 .121-.403" stroke-width=".854"/><path d="m206.22 44.605.121-.398m-.001 0 .121-.402m-.001 0 .121-.438" stroke-width=".855"/><path d="m206.58 43.367.121-.472m-.001 0 .164-.512" stroke-width=".856"/><path d="m206.86 42.383.16-.582" stroke-width=".855"/><path d="m207.02 41.801.165-.621" stroke-width=".85"/><path d="m207.19 41.18.242-.547" stroke-width=".844"/><path d="m207.43 40.633.121-.512" stroke-width=".839"/><path d="m207.55 40.121.121-.402" stroke-width=".826"/><path d="m207.67 39.719.121-.399" stroke-width=".791"/><path d="m346.37 39.5-.367-.289" stroke-width=".53"/><path d="m346 39.211-.324-.184" stroke-width=".622"/><path d="m345.68 39.027-.324-.144" stroke-width=".686"/><path d="M345.35 38.883h-.364" stroke-width=".712"/><path d="m344.99 38.883-.363.328m-.007 0-.164.328m.004 0-.16.438" stroke-width=".711"/><path d="m344.3 39.977-.164.472m.004 0-.121.547m.001 0-.082.547m-.008 0-.079.547m.009 0-.082.476" stroke-width=".712"/><path d="M343.77 42.566v.438m0 0 .122.547" stroke-width=".711"/><path d="m343.9 43.551.285.289" stroke-width=".712"/><path d="m344.18 43.84.324.109" stroke-width=".716"/><path d="m344.5 43.949.402.039" stroke-width=".719"/><path d="m344.91 43.988.446-.039" stroke-width=".725"/><path d="m345.35 43.949.406-.144" stroke-width=".734"/><path d="m345.76 43.805.242-.184" stroke-width=".738"/><path d="m346 43.621.285-.254" stroke-width=".741"/><path d="m346.28 43.367.242-.402m.008 0 .243-.438m-.003 0 .164-.507" stroke-width=".742"/><path d="m346.93 42.02.16-.512m0 0 .121-.403" stroke-width=".743"/><path d="m347.22 41.105.082-.293" stroke-width=".745"/><path d="m347.3 40.812.082-.328" stroke-width=".748"/><path d="m347.38 40.484.082.512" stroke-width=".789"/><path d="m347.46 40.996.078.328" stroke-width=".793"/><path d="m347.54 41.324.082.367" stroke-width=".8"/><path d="m347.62 41.691.203.438" stroke-width=".807"/><path d="m347.82 42.129.164.398" stroke-width=".811"/><path d="m347.99 42.527.16.403" stroke-width=".815"/><path d="m348.15 42.93.243.363m-.003 0 .121.293" stroke-width=".818"/><path d="m348.51 43.586.285.363" stroke-width=".821"/><path d="m348.8 43.949.285.219" stroke-width=".822"/><path d="m349.08 44.168.363.148" stroke-width=".812"/><path d="m349.44 44.316.567.036" stroke-width=".596"/><path d="m350.01 44.352.566-.145" stroke-width=".289"/><path d="m350.58 44.207.488-.184" stroke-width=".07"/></g><g stroke="#00c0ff"><path d="m71.004 76.551.203-.328" stroke-width=".583"/><path d="m71.207 76.223.203-.328" stroke-width=".591"/><path d="m71.41 75.895.324-.403" stroke-width=".594"/><path d="m71.734 75.492.325-.437m0 0 .242-.219" stroke-width=".597"/><path d="m72.301 74.836.16-.293" stroke-width=".599"/><path d="m72.461 74.543.406-.508" stroke-width=".6"/><path d="m72.867 74.035.285-.476" stroke-width=".603"/><path d="m73.152 73.559.243-.254" stroke-width=".605"/><path d="m73.395 73.305.363-.473" stroke-width=".607"/><path d="m73.758 72.832.406-.477" stroke-width=".615"/><path d="m74.164 72.355.203-.253" stroke-width=".619"/><path d="m74.367 72.102.203-.329" stroke-width=".627"/><path d="m74.57 71.773.242-.293" stroke-width=".634"/><path d="m74.812 71.48.204-.363" stroke-width=".64"/><path d="m75.016 71.117.203-.363" stroke-width=".643"/><path d="m75.219 70.754.121-.328" stroke-width=".645"/><path d="m75.34 70.426.242-.367m0 0 .164-.329m0 0 .242-.328" stroke-width=".647"/><path d="m75.988 69.402.203-.328m0 0 .243-.293m0 0 .203-.289m0 0 .16-.258" stroke-width=".648"/><path d="m76.797 68.234.246-.254m0 0 .324-.437" stroke-width=".649"/><path d="m77.367 67.543.242-.254m0 0 .161-.258m0 0 .246-.328m0 0 .242-.363" stroke-width=".65"/><path d="m78.258 66.34.281-.438m0 0 .324-.437m0 0 .325-.473m0 0 .406-.476" stroke-width=".651"/><path d="m79.594 64.516.406-.438" stroke-width=".653"/><path d="m80 64.078.363-.437m0 0 .325-.399m0 0 .285-.293m0 0 .242-.254" stroke-width=".654"/><path d="m81.215 62.695.324-.332" stroke-width=".655"/><path d="m81.539 62.363.406-.398m0 0 .446-.477m0 0 .324-.363" stroke-width=".656"/><path d="m82.715 61.125.363-.328m0 0 .445-.363M83.523 60.434l.368-.329m0 0 .363-.293m0 0 .285-.292m0 0 .324-.219M84.863 59.301l.403-.399" stroke-width=".657"/><path d="m85.266 58.902.242-.183m0 0 .324-.328M85.832 58.391l.246-.219m0 0 .203-.254m0 0 .324-.219" stroke-width=".658"/><path d="m86.605 57.699.364-.328m0 0 .363-.293m0 0 .445-.293m0 0 .446-.328" stroke-width=".659"/><path d="m88.223 56.457.488-.328m0 0 .445-.289m0 0 .406-.258" stroke-width=".66"/><path d="m89.562 55.582.325-.219m0 0 .324-.183" stroke-width=".661"/><path d="m90.211 55.18.445-.289" stroke-width=".662"/><path d="m90.656 54.891.242-.184" stroke-width=".665"/><path d="m90.898 54.707.286-.219m0 0 .281-.183" stroke-width=".668"/><path d="m91.465 54.305.324-.219" stroke-width=".672"/><path d="m91.789 54.086.367-.254" stroke-width=".674"/><path d="m92.156 53.832.364-.254" stroke-width=".68"/><path d="m92.52 53.578.406-.328m0 0 .445-.328" stroke-width=".682"/><path d="m93.371 52.922.445-.328m0 0 .407-.293" stroke-width=".684"/><path d="m94.223 52.301.402-.254m0 0 .367-.219m0 0 .324-.183" stroke-width=".685"/><path d="m95.316 51.645.282-.219" stroke-width=".687"/><path d="m95.598 51.426.285-.145m0 0 .484-.293" stroke-width=".688"/><path d="m96.367 50.988.488-.328" stroke-width=".689"/><path d="m96.855 50.66.407-.254m0 0 .402-.328" stroke-width=".691"/><path d="m97.664 50.078.527-.293m0 0 .528-.363" stroke-width=".692"/><path d="m98.719 49.422.527-.258m0 0 .566-.254m0 0 .528-.219" stroke-width=".693"/><path d="m100.34 48.691.527-.253m.003 0 .528-.223m.002 0 .484-.219" stroke-width=".694"/><path d="m101.88 47.996.445-.219m-.005 0 .364-.179" stroke-width=".695"/><path d="m102.69 47.598.449-.219m.001 0 .281-.149m-.001 0 .324-.144" stroke-width=".696"/><path d="m103.74 47.086.406-.145m.004 0 .286-.109" stroke-width=".697"/><path d="m104.43 46.832.32-.184" stroke-width=".707"/><path d="m104.75 46.648.488-.183m.002 0 .528-.254" stroke-width=".711"/><path d="m105.77 46.211.605-.293m.005 0 .648-.254m-.008 0 .649-.328m.001 0 .609-.219" stroke-width=".714"/><path d="m108.28 45.117.567-.219m.003 0 .527-.218" stroke-width=".715"/><path d="m109.38 44.68.484-.219m-.004 0 .45-.184m0 0 .363-.144M110.67 44.133l.324-.11m.006 0 .445-.144m-.005 0 .446-.039M111.89 43.84l.445-.07m-.005 0 .527-.11m.003 0 .325-.039" stroke-width=".716"/><path d="m113.18 43.621.324-.109m.006 0 .363-.071M113.87 43.441l.406-.109m.004 0 .364-.074m-.004 0 .367-.074M115.01 43.184l.324-.11m-.004 0 .363-.07M115.7 43.004l.407-.109m-.007 0 .363-.11m-.003 0 .406-.148" stroke-width=".717"/><path d="m116.87 42.637.285-.11m.005 0 .324-.07m-.004 0 .485-.109m-.005 0 .445-.075" stroke-width=".718"/><path d="m118.41 42.273.61-.109m0 0 .363-.109" stroke-width=".721"/><path d="m119.38 42.055.406-.075m.004 0 .402-.07" stroke-width=".722"/><path d="m120.19 41.91.407-.074m.003 0 .488-.035" stroke-width=".725"/><path d="m121.09 41.801.484-.074m-.004 0 .567-.075m.003 0 .57-.07m0 0 .648-.074" stroke-width=".728"/><path d="m123.36 41.508.606-.11" stroke-width=".731"/><path d="m123.96 41.398.648-.183m.002 0 .567-.145m.003 0 .527-.148" stroke-width=".733"/><path d="m125.7 40.922.488-.145m.002 0 .403-.109m-.003 0 .445-.145M127.04 40.523l.367-.109" stroke-width=".735"/><path d="m127.41 40.414.406-.074m-.006 0 .606-.11" stroke-width=".736"/><path d="M128.42 40.23h.445" stroke-width=".737"/><path d="M128.86 40.23h.446m.004 0 .488.036" stroke-width=".738"/><path d="m129.8 40.266.527.074m-.007 0h.364m.006 0 .324.035m-.004 0h.406m.004 0h.324" stroke-width=".741"/><path d="M131.74 40.375h.363m-.003 0h.325m.005 0 .324-.035m-.004 0h.445" stroke-width=".742"/><path d="m133.2 40.34.406-.035" stroke-width=".743"/><path d="m133.6 40.305.485-.075m.005 0 .488-.035m.002 0 .484-.074" stroke-width=".745"/><path d="m135.06 40.121.489-.035" stroke-width=".747"/><path d="m135.55 40.086.402-.039m-.002 0 .406-.035m.004 0 .325-.035m-.005 0 .367-.039" stroke-width=".748"/><path d="m137.05 39.938.523-.036m-.003 0h.488" stroke-width=".749"/><path d="M138.06 39.902h.485" stroke-width=".75"/><path d="M138.55 39.902h.527" stroke-width=".751"/><path d="m139.07 39.902.324.036M139.4 39.938h.325m-.005 0 .324.039m.006 0h.363" stroke-width=".753"/><path d="m140.41 39.977.57.035m0 0 .325.035m-.005 0 .324.039" stroke-width=".754"/><path d="M141.63 40.086h.445m-.005 0h.528" stroke-width=".756"/><path d="M142.6 40.086h.566m.004 0 .605-.074" stroke-width=".757"/><path d="m143.77 40.012.61-.074" stroke-width=".758"/><path d="m144.38 39.938.648-.071m.002 0 .567-.039m.003 0 .527-.07" stroke-width=".761"/><path d="m146.12 39.758.527-.039m.003 0 .485-.035" stroke-width=".762"/><path d="m147.14 39.684.488-.036m-.008 0 .445-.039" stroke-width=".764"/><path d="m148.07 39.609.485-.035m.005 0h.406m-.006 0h.406" stroke-width=".765"/><path d="M149.37 39.574h.363" stroke-width=".766"/><path d="M149.73 39.574h.325m.005 0 .363.035m-.003 0 .324.039" stroke-width=".768"/><path d="m150.74 39.648.367.036m.003 0 .364.074m-.004 0 .324.035" stroke-width=".769"/><path d="m212.54 64.371 81.766 34.094" stroke-width=".722"/><path d="M354.73 112.46h83.539" stroke-width=".947"/></g></g></svg>