<svg width="212.53" height="242.38" xml:space="preserve" xmlns="http://www.w3.org/2000/svg"><defs><clipPath id="a"><path d="M0 0h595v841H0z"/></clipPath></defs><g clip-path="url(#a)" fill="none" stroke-linecap="round" stroke-linejoin="round" stroke-miterlimit="10" transform="matrix(1.12077 0 0 1.23548 -15.291 3.999)"><g stroke="#00c0ff"><path d="m90.166 113.93 28.757-56.802" stroke-width="1.269"/><path d="m111.39 60.089.882-.364" stroke-width="1.442"/><path d="m112.27 59.725.725-.285" stroke-width="1.447"/><path d="m113 59.441.555-.433" stroke-width="1.448"/><path d="m113.56 59.008.725-.364" stroke-width="1.452"/><path d="m114.28 58.644.48-.43" stroke-width="1.458"/><path d="m114.76 58.213.718-.72" stroke-width="1.464"/><path d="m115.48 57.494.401-.502" stroke-width="1.469"/><path d="m115.88 56.991.64-.508" stroke-width="1.47"/><path d="m116.52 56.483.64-.356" stroke-width="1.469"/><path d="m117.16 56.128.565-.215" stroke-width="1.47"/><path d="m117.73 55.912.64-.433" stroke-width="1.471"/><path d="m118.37 55.479.64-.433" stroke-width="1.468"/><path d="m119.01 55.046.64.571" stroke-width="1.48"/><path d="m119.65 55.618.24.58" stroke-width="1.497"/><path d="m119.89 56.197.316.866" stroke-width="1.509"/><path d="m120.2 57.063.241.933" stroke-width="1.523"/><path d="m120.44 57.996.162 1.012" stroke-width="1.541"/><path d="m120.61 59.008.077 1.081" stroke-width="1.553"/><path d="m120.68 60.089.162.933" stroke-width="1.554"/><path d="m120.85 61.022.324.727" stroke-width="1.562"/></g><g stroke="#0f0"><path d="M90.057 112.32h28.966" stroke-width="1.666"/><path d="m112.91 106.3.563.933" stroke-width="1.367"/><path d="m113.48 107.23.555.58" stroke-width="1.393"/><path d="m114.03 107.81.805.433" stroke-width="1.414"/><path d="m114.84 108.24.803.648" stroke-width="1.426"/><path d="m115.64 108.89.88.433" stroke-width="1.434"/><path d="m116.52 109.32.803.433" stroke-width="1.443"/><path d="m117.32 109.76.797.354" stroke-width="1.444"/><path d="m118.12 110.11.64.295" stroke-width="1.445"/><path d="m118.76 110.4.725.648" stroke-width="1.452"/><path d="M119.49 111.05v.718" stroke-width="1.621"/><path d="m119.49 111.77-.563.364" stroke-width="1.633"/><path d="m118.92 112.13-.555.502" stroke-width="1.644"/><path d="m118.37 112.64-.725.433" stroke-width="1.658"/><path d="m117.64 113.07-.557.508" stroke-width="1.67"/><path d="m117.08 113.58-.486.356" stroke-width="1.676"/><path d="m116.6 113.93-.718.51" stroke-width="1.687"/><path d="m115.88 114.44-.563.215" stroke-width="1.686"/><path d="m115.32 114.66-.316.648" stroke-width="1.314"/><path d="m115 115.31-.162.571" stroke-width=".825"/><path d="M117.64 146.52h.725" stroke-width=".439"/><path d="m104.98 126.05-.316 1.004" stroke-width="1.681"/><path d="m104.67 127.05.077 1.012" stroke-width="1.71"/><path d="m104.74 128.07.162 1.228" stroke-width="1.725"/><path d="m104.91 129.29.077 1.512" stroke-width="1.733"/><path d="m104.98 130.81.162 1.653" stroke-width="1.743"/><path d="m105.15 132.46.077 1.73" stroke-width="1.744"/><path d="m105.22 134.19.162 1.591" stroke-width="1.745"/><path d="m105.39 135.78.085 1.512m-.005-.002.077 1.299" stroke-width="1.747"/><path d="m105.55 138.59.077 1.081m-.007-.001v.864" stroke-width="1.751"/><path d="M105.62 140.54v.648" stroke-width="1.737"/><path d="M105.62 141.18v.935" stroke-width="1.631"/><path d="m104.1 127.56.64.354" stroke-width="1.623"/><path d="M104.74 127.92h.64" stroke-width="1.651"/><path d="m105.39 127.92.882.077" stroke-width="1.662"/><path d="M106.27 127.99h.803" stroke-width="1.663"/><path d="m107.07 127.99.88-.077m0 .007.803-.07m-.003 0 .72-.07" stroke-width="1.67"/><path d="m109.47 127.78.563-.215" stroke-width="1.634"/><path d="m110.03 127.56.64-.148" stroke-width="1.546"/><path d="m110.68 127.42.957-.146" stroke-width="1.119"/><path d="m111.63 127.27.727.433" stroke-width=".677"/><path d="m112.36 127.7.478.433" stroke-width=".139"/><path d="M104.83 134.12h.64" stroke-width="1.484"/><path d="M105.47 134.12h1.12m0 0h.718m.002 0 .88-.07" stroke-width="1.521"/><path d="m108.19 134.05.805-.077" stroke-width="1.476"/><path d="m108.99 133.97.803-.217" stroke-width="1.348"/><path d="m109.8 133.75.88-.285" stroke-width="1.013"/><path d="m110.68 133.47.957-.648" stroke-width=".278"/><path d="m111.63 132.82.727-.502" stroke-width=".139"/><path d="M102.82 122.88h.727" stroke-width="1.439"/><path d="m103.55 122.88.718.138" stroke-width="1.449"/><path d="m104.27 123.01.957.077" stroke-width="1.455"/><path d="m105.22 123.09.967.215m.003.005.957.14m.003 0 .965.077" stroke-width="1.459"/><path d="m108.11 123.52.882.07" stroke-width="1.45"/><path d="m108.99 123.59.64.07" stroke-width="1.432"/><path d="M109.63 123.66h.64" stroke-width="1.424"/><path d="M110.27 123.66h.803" stroke-width="1.419"/><path d="m111.08 123.66.401-.648" stroke-width="1.491"/><path d="m111.48 123.01-.888-.718" stroke-width="1.553"/><path d="m110.59 122.3-.795-.148" stroke-width="1.608"/><path d="m109.8 122.15-1.044-.07" stroke-width="1.64"/><path d="M108.75 122.08h-.965" stroke-width="1.666"/><path d="m107.79 122.08-.718.07" stroke-width="1.675"/><path d="m107.07 122.15.803.148" stroke-width="1.656"/><path d="m107.87 122.3 1.12.285m0-.005 1.119.364m.001.006.803.648m-.003-.008.478.362" stroke-width="1.657"/><path d="m111.39 123.96.48.65" stroke-width="1.655"/><path d="m111.87 124.61.324.718" stroke-width="1.659"/><path d="m112.2 125.32-.24.58" stroke-width="1.705"/><path d="m111.96 125.9-.642.502" stroke-width="1.714"/><path d="m111.32 126.41-.478.362" stroke-width="1.636"/><path d="m111.63 139.45.967.07m.003 0 .718.433m.002.007.401.943" stroke-width="1.549"/><path d="m113.72 140.9.162.718" stroke-width="1.553"/><path d="m113.88 141.62.077.718m.003-.008v.797" stroke-width="1.554"/><path d="m113.96 143.13-.077.795" stroke-width="1.548"/><path d="m113.88 143.93-.085.864" stroke-width="1.53"/><path d="m113.79 144.79-.24.72" stroke-width="1.518"/><path d="m113.56 145.51-.24.58" stroke-width="1.517"/><path d="m113.32 146.09-.64.787" stroke-width="1.521"/><path d="m112.68 146.87-.88.51" stroke-width="1.522"/><path d="m111.8 147.38-.642.285" stroke-width="1.426"/><path d="m118.61 138.59-.88.07" stroke-width="1.463"/><path d="m117.73 138.66-.488.718" stroke-width="1.508"/><path d="m117.24 139.38-.24.58" stroke-width="1.538"/><path d="m117 139.96-.401.795" stroke-width="1.561"/><path d="m116.6 140.75-.316.797" stroke-width="1.577"/><path d="m116.28 141.55-.478.935" stroke-width="1.598"/><path d="m115.8 142.48-.401 1.08m.001 0-.24 1.081m0-.001-.24 1.081m0-.001-.085 1.081" stroke-width="1.604"/><path d="m114.84 146.81.162.935" stroke-width="1.593"/><path d="m115 147.74.24.648" stroke-width="1.548"/><path d="m115.24 148.39.478.648" stroke-width="1.461"/><path d="m115.72 149.04.64.364" stroke-width="1.351"/><path d="m116.36 149.4.64.146" stroke-width="1.234"/><path d="m117 149.55 1.206-.364" stroke-width="1.04"/><path d="m118.2 149.18.401-.502" stroke-width=".824"/><path d="m118.61 148.68.555-.941" stroke-width=".464"/><path d="m119.16 147.74.486-.789" stroke-width=".139"/><path d="m111.72 143.93.642.215" stroke-width="1.529"/><path d="m112.36 144.14 1.281.217" stroke-width="1.602"/><path d="m113.64 144.36.64.07" stroke-width="1.617"/><path d="m114.28 144.43.642.07m-.002 0 .718-.07" stroke-width="1.625"/><path d="m115.64 144.43.718-.217" stroke-width="1.615"/><path d="m116.36 144.21.803-.362" stroke-width="1.492"/><path d="m117.16 143.85 1.12-.648" stroke-width="1.082"/><path d="m118.28 143.2.965-.502" stroke-width=".139"/></g><g stroke="#ff8000"><path d="M89.063 57.063v55.867" stroke-width="1.506"/><path d="m85.2 61.386.403-.718" stroke-width="1.63"/><path d="m85.603 60.668.478-.648" stroke-width="1.638"/><path d="m86.082 60.02.64-.797" stroke-width="1.639"/><path d="m86.722 59.223.64-.648m.001 0 .486-.502" stroke-width="1.642"/><path d="m87.849 58.073.478-.51" stroke-width="1.647"/><path d="m88.327 57.563.318-.648" stroke-width="1.665"/><path d="m88.646 56.914.324.51m0 0 .401.571" stroke-width="1.702"/><path d="m89.371 57.996.478.648m0 0 .401.58m.001-.001.401.648" stroke-width="1.706"/><path d="m90.652 59.872.478.797m0-.001.403.648" stroke-width="1.712"/><path d="m91.534 61.317.401.502" stroke-width="1.714"/><path d="m91.935 61.819.393.502" stroke-width="1.719"/><path d="m92.328 62.321.401.51" stroke-width="1.72"/><path d="m68.707 81.425.316-1.012" stroke-width="1.445"/><path d="m69.024 80.413.563-.787" stroke-width="1.455"/><path d="m69.587 79.626.718-1.012" stroke-width="1.463"/><path d="m70.305 78.614 1.044-1.15" stroke-width="1.472"/><path d="m71.348 77.463.88-1.297" stroke-width="1.481"/><path d="m72.228 76.166.957-1.299" stroke-width="1.482"/><path d="m73.185 74.868.642-1.297" stroke-width="1.487"/><path d="m73.827 73.571.64-1.158m.001-.001.401-1.004m0 0 .24-.864" stroke-width="1.491"/><path d="m75.108 70.544.24-.58" stroke-width="1.445"/><path d="m75.348 69.965.162-.58" stroke-width="1.327"/><path d="m75.51 69.386.24-.718" stroke-width=".92"/><path d="m75.749 68.668.085-.648" stroke-width=".139"/><path d="M70.945 70.111v.935" stroke-width="1.454"/><path d="m70.945 71.047.241.864" stroke-width="1.468"/><path d="m71.186 71.91.324.935" stroke-width="1.46"/><path d="m71.511 72.845.393.864" stroke-width="1.29"/><path d="m71.904 73.709.803.797" stroke-width=".886"/><path d="m72.707 74.506.725.433" stroke-width=".503"/><path d="m73.432 74.939.64.362" stroke-width=".139"/><path d="m62.538 55.833-.326.58" stroke-width="1.5"/><path d="m62.212 56.412-.077.72" stroke-width="1.542"/><path d="m62.135 57.132-.077 1.081" stroke-width="1.565"/><path d="m62.057 58.213-.162 1.374" stroke-width="1.58"/><path d="m61.895 59.587-.077 1.583m0 0-.162 1.73" stroke-width="1.587"/><path d="m61.656 62.9-.085 1.66" stroke-width="1.566"/><path d="m61.571 64.561-.077 1.512" stroke-width="1.493"/><path d="M61.494 66.073v1.368" stroke-width="1.35"/><path d="m61.494 67.441.24 1.156" stroke-width="1.163"/><path d="m61.733 68.597.24.935" stroke-width=".822"/><path d="m61.972 69.532.324.58" stroke-width=".2"/><path d="m61.733 56.845 1.12.364" stroke-width="1.521"/><path d="m62.854 57.209.88.285" stroke-width="1.531"/><path d="m63.734 57.494.888.287" stroke-width="1.536"/><path d="m64.621 57.78.959.293m0 0 .88.14" stroke-width="1.541"/><path d="m66.46 58.213.965.077" stroke-width="1.494"/><path d="m67.425 58.29.797.07" stroke-width="1.378"/><path d="M68.221 58.359h.803" stroke-width="1.159"/><path d="m69.024 58.359.803-.146" stroke-width=".694"/><path d="m69.826 58.213.555-.217" stroke-width=".139"/><path d="m61.417 62.181.959.433m0-.001.803.217" stroke-width="1.56"/><path d="m63.178 62.831.803.138" stroke-width="1.556"/><path d="m63.981 62.969.957.077" stroke-width="1.485"/><path d="M64.938 63.046h.967" stroke-width="1.275"/><path d="m65.904 63.046 1.435-.51" stroke-width=".827"/><path d="m67.34 62.536.563-.247" stroke-width=".483"/><path d="m67.903 62.289.557-.255" stroke-width=".139"/><path d="m57.094 47.402 1.119.362" stroke-width="1.523"/><path d="m58.213 47.764 1.042.433" stroke-width="1.527"/><path d="m59.254 48.197 1.12.356" stroke-width="1.528"/><path d="m60.375 48.552 1.196.215m0 .001 1.129.295" stroke-width="1.534"/><path d="m62.7 49.062 1.034.07m0 0 .725.07" stroke-width="1.538"/><path d="m64.459 49.201.882.077" stroke-width="1.539"/><path d="m65.341 49.278.162-.795" stroke-width="1.596"/><path d="m65.503 48.483-.565-.58" stroke-width="1.651"/><path d="m64.938 47.904-.957-.502" stroke-width="1.704"/><path d="m63.981 47.402-1.042-.364" stroke-width="1.735"/><path d="m62.939 47.038-.727-.285" stroke-width="1.751"/><path d="m62.212 46.754.882.502" stroke-width="1.715"/><path d="m63.093 47.256.563.43m.001.001.718.433" stroke-width="1.714"/><path d="m64.374 48.12.64.433" stroke-width="1.704"/><path d="m65.015 48.552.488.362" stroke-width="1.697"/><path d="m65.503 48.914.64.287" stroke-width="1.691"/><path d="m66.144 49.201.795.51" stroke-width="1.687"/><path d="m66.938 49.711.486.433" stroke-width="1.678"/><path d="m67.425 50.144-.085.648" stroke-width="1.719"/><path d="m67.34 50.792-.64.285" stroke-width="1.723"/><path d="m66.699 51.077-.88.648" stroke-width="1.605"/><path d="m65.819 51.725-.401.58" stroke-width="1.3"/><path d="m65.418 52.304-.48.866" stroke-width=".646"/><path d="m64.938 53.17-.316.648" stroke-width=".139"/></g><g stroke="#00c0ff"><path d="M132.6 38.823v15.868" stroke-width="1.379"/><path d="M132.78 38.714h6.409" stroke-width=".992"/><path d="m131.98 45.239.805.146" stroke-width="1.57"/><path d="m132.78 45.386.64-.077" stroke-width="1.581"/><path d="m133.42 45.308.795-.07m.005.001.882-.07m-.002.001.803-.215" stroke-width="1.587"/><path d="m135.9 44.955.88-.217" stroke-width="1.547"/><path d="m136.78 44.737.725-.215" stroke-width="1.398"/><path d="m137.51 44.522 1.12-.433" stroke-width="1.03"/><path d="m138.63 44.089.803-.364" stroke-width=".139"/><path d="m131.9 30.243-.563.217" stroke-width="1.435"/><path d="m131.34 30.461 1.206.077" stroke-width="1.584"/><path d="M132.54 30.538h.88" stroke-width="1.605"/><path d="m133.42 30.538.795.07" stroke-width="1.617"/><path d="M134.22 30.607h.967" stroke-width="1.625"/><path d="m135.19 30.607.957.07m-.007-.001h.965" stroke-width="1.635"/><path d="M137.11 30.676h.959" stroke-width="1.636"/><path d="M138.07 30.676h.965" stroke-width="1.641"/><path d="M139.03 30.676h.957m.003 0h.803" stroke-width="1.642"/><path d="M140.79 30.676h.642m-.002 0h.64" stroke-width="1.643"/><path d="m142.07 30.676.957-.07" stroke-width="1.645"/><path d="m143.03 30.607.725-.146" stroke-width="1.647"/><path d="m143.75 30.461.72-.217" stroke-width="1.649"/><path d="m144.47 30.243.64-.07" stroke-width="1.65"/><path d="M145.12 30.174h.718" stroke-width="1.652"/><path d="m145.83 30.174-.393-.58" stroke-width="1.681"/><path d="m145.44 29.595-.803-.648" stroke-width="1.687"/><path d="m144.64 28.946-.478-.433" stroke-width="1.698"/><path d="m144.16 28.514-.486-.356" stroke-width="1.708"/><path d="m143.67 28.158-.48-.43" stroke-width="1.721"/><path d="m143.19 27.727-.555-.433" stroke-width="1.731"/><path d="m142.64 27.294-.888-.648" stroke-width="1.76"/><path d="m141.75 26.645-.64-.364" stroke-width="1.778"/><path d="m141.11 26.282 1.042.364" stroke-width="1.761"/><path d="m142.15 26.645.64.356" stroke-width="1.76"/><path d="m142.79 27.001.803.362" stroke-width="1.75"/><path d="m143.59 27.363.882.58" stroke-width="1.74"/><path d="m144.47 27.942.563.718" stroke-width="1.732"/><path d="m145.04 28.66.401.935m-.001 0 .154.58" stroke-width="1.718"/><path d="m145.59 30.174.162 1.081" stroke-width="1.729"/><path d="m145.76 31.255-.077.935" stroke-width="1.747"/><path d="m145.68 32.19-.162.648" stroke-width="1.762"/><path d="m145.52 32.839-.324.508m-.006 0-.478.789" stroke-width="1.764"/><path d="m144.71 34.136-.316.58" stroke-width="1.735"/><path d="m144.4 34.715-.401 1.15" stroke-width="1.341"/><path d="m144 35.865.316.864" stroke-width=".139"/></g><path d="M118.31 56.815v55.481" stroke="#0f0" stroke-dasharray="0.988404, 5.93042" stroke-width="1.344"/><path d="M89.31 56.885h29.99" stroke="#ff8000" stroke-dasharray="0.988404, 5.93042" stroke-width="1.633"/><g stroke="#000"><path d="M34.536.136v168.23" stroke-width="1.346"/><path d="m29.217 7.324.555-.43" stroke-width="1.525"/><path d="m29.772 6.893.565-.943" stroke-width="1.605"/><path d="m30.338 5.95.324-.571" stroke-width="1.629"/><path d="m30.662 5.379.555-1.081" stroke-width="1.659"/><path d="m31.217 4.298.563-.941" stroke-width="1.667"/><path d="m31.781 3.357.401-.502" stroke-width="1.668"/><path d="m32.182 2.855.478-.797" stroke-width="1.672"/><path d="m32.66 2.058.478-.648" stroke-width="1.673"/><path d="m33.139 1.41.403-.503" stroke-width="1.678"/><path d="m33.542.907.64.72" stroke-width="1.706"/><path d="m34.183 1.627.24.58" stroke-width="1.717"/><path d="m34.422 2.206.478.718" stroke-width="1.725"/><path d="m34.9 2.924.401.794" stroke-width="1.734"/><path d="m35.301 3.718.478.866" stroke-width="1.738"/><path d="m35.78 4.584.488.864" stroke-width="1.739"/><path d="m36.268 5.448.316.866" stroke-width="1.743"/><path d="m36.584 6.314.401.718" stroke-width="1.744"/><path d="m36.986 7.032.316.648" stroke-width="1.751"/><path d="m37.302 7.68.324.58m0 0 .478.717" stroke-width="1.755"/><path d="m38.104 8.977.324.648" stroke-width="1.735"/><path d="m38.429 9.625.316 1.23" stroke-width="1.27"/><path d="m38.745 10.855.162.718" stroke-width=".139"/><path d="m18.406-2.335-.085-.648" stroke-width="1.663"/><path d="m18.321-2.983.48-1.299" stroke-width="1.694"/><path d="m18.801-4.282.486-.864" stroke-width="1.7"/><path d="m19.287-5.146.478-1.012" stroke-width="1.705"/><path d="m19.766-6.158.478-.935" stroke-width="1.711"/><path d="m20.244-7.093.563-1.01m0 0 .478-.935" stroke-width="1.712"/><path d="m21.286-9.038.48-.943m0 .001.478-.934m.001 0 .401-.866m0 0 .324-.864" stroke-width="1.713"/><path d="m22.97-12.644.478-.797" stroke-width="1.699"/><path d="m23.448-13.44.24-.571" stroke-width="1.679"/><path d="m23.688-14.012.478-.795" stroke-width="1.538"/><path d="m17.765-17.694.154.866" stroke-width="1.11"/><path d="m17.919-16.829.64 1.087" stroke-width="1.274"/><path d="m18.56-15.741.403.573" stroke-width="1.347"/><path d="m18.963-15.168.401.648" stroke-width="1.401"/><path d="m19.364-14.52.316.58" stroke-width="1.443"/><path d="m19.681-13.94.324.58" stroke-width="1.475"/><path d="m20.005-13.361.478.864" stroke-width="1.532"/><path d="m20.483-12.497.401.718" stroke-width="1.551"/><path d="m20.885-11.78.401.797m0 0 .318.718" stroke-width="1.558"/><path d="m21.604-10.266.401.718" stroke-width="1.425"/><path d="m22.005-9.548.563.51" stroke-width=".139"/><path d="M35.774 167.34h162.05" stroke-width="1.616"/><path d="m194.22 159.93-.486.362" stroke-width="1.376"/><path d="m193.73 160.29.563.72" stroke-width="1.434"/><path d="m194.3 161.01.478.58" stroke-width="1.45"/><path d="m194.77 161.59.478.5" stroke-width="1.456"/><path d="m195.25 162.09.563.65" stroke-width="1.462"/><path d="m195.82 162.74.565.502m-.005-.002.555.508" stroke-width="1.463"/><path d="m196.94 163.75.478.433" stroke-width="1.468"/><path d="m197.42 164.18.725.571" stroke-width="1.472"/><path d="m198.14 164.75.72.433" stroke-width="1.484"/><path d="m198.86 165.18-.08.795" stroke-width="1.679"/><path d="m198.78 165.98-.324.72" stroke-width="1.696"/><path d="m198.46 166.7-.478.864" stroke-width="1.716"/><path d="m197.98 167.56-.24.58" stroke-width="1.73"/><path d="m197.74 168.14-.401.58" stroke-width="1.742"/><path d="m197.34 168.72-.478.648" stroke-width="1.75"/><path d="m196.86 169.37-.563.58" stroke-width="1.761"/><path d="m196.3 169.95-.642.502" stroke-width="1.771"/><path d="m195.65 170.45-.555.502" stroke-width="1.777"/><path d="m195.1 170.95-.486.362" stroke-width="1.787"/><path d="m194.61 171.31-.795.58" stroke-width="1.789"/><path d="m186.44 176.65.563.285" stroke-width="1.325"/><path d="m187.01 176.94.642.287m-.002-.007.718.431" stroke-width="1.327"/><path d="m188.37 177.65.64.51M189.01 178.16l.563.502m-.003.008.401.648m-.001-.008.318.648" stroke-width="1.333"/><path d="m190.29 179.96.24.797" stroke-width="1.335"/><path d="M190.53 180.76v.864" stroke-width="1.339"/><path d="m190.53 181.62-.154.935m-.006.005-.326 1.081m.006-.001-.478 1.158" stroke-width="1.344"/><path d="m189.57 184.8-.64 1.081m0-.001-.64 1.002" stroke-width="1.339"/><path d="m188.29 186.88-.563.797m.003.003-.642.648" stroke-width="1.345"/><path d="m187.08 188.33-.478.362" stroke-width="1.339"/><path d="m186.6 188.69-.718.433" stroke-width="1.167"/><path d="m185.89 189.12-.162-.58" stroke-width=".181"/><path d="m195.49 178.45-.555-.433" stroke-width="1.277"/><path d="m194.94 178.02-.718.215" stroke-width="1.402"/><path d="m194.22 178.23-.888 1.012" stroke-width="1.452"/><path d="m193.33 179.25-.48.866" stroke-width="1.481"/><path d="m192.85 180.11-.555 1.081" stroke-width="1.506"/><path d="m192.3 181.19-.486 1.228" stroke-width="1.53"/><path d="m191.81 182.42-.401 1.297" stroke-width="1.538"/><path d="m191.41 183.72-.24 1.22" stroke-width="1.539"/><path d="m191.17 184.94-.077 1.081m-.003-.001.162.943m-.002-.003.154.648" stroke-width="1.545"/><path d="m191.41 187.61.486.502" stroke-width="1.53"/><path d="m191.89 188.11.555.215" stroke-width="1.51"/><path d="m192.45 188.33.642.146" stroke-width="1.496"/><path d="M193.09 188.47h.725" stroke-width="1.482"/><path d="m193.82 188.47.64-.146" stroke-width="1.452"/><path d="m194.46 188.33.64-.364" stroke-width="1.384"/><path d="m195.1 187.96.555-.502" stroke-width="1.255"/><path d="m195.65 187.46.642-.718" stroke-width="1.102"/><path d="m196.3 186.74.64-1.081" stroke-width=".758"/><path d="m196.94 185.66.478-.864" stroke-width=".139"/><path d="m185.89 181.91 1.042.215" stroke-width="1.435"/><path d="m186.93 182.13.959.146" stroke-width="1.466"/><path d="m187.89 182.27 1.119.071" stroke-width="1.482"/><path d="m189.01 182.34 1.204.146" stroke-width="1.489"/><path d="m190.21 182.49 1.283.07m-.003 0h1.196" stroke-width="1.493"/><path d="m192.69 182.56 1.129-.07" stroke-width="1.47"/><path d="m193.82 182.49.957-.217" stroke-width="1.362"/><path d="m194.77 182.27.803-.215" stroke-width="1.14"/><path d="m195.58 182.06.959-.58" stroke-width=".163"/><path d="m196.54 181.48.803-.502" stroke-width=".139"/></g></g></svg>