<?xml version="1.0" encoding="UTF-8"?>
<svg width="536.97" height="120.44" version="1.1" viewBox="0 0 536.97 120.44" xml:space="preserve" xmlns="http://www.w3.org/2000/svg"><defs><clipPath id="clipPath14158"><path d="m0 0h595v841h-595z"/></clipPath></defs><g transform="matrix(1.3333 0 0 1.3333 -77.602 -44.134)"><g clip-path="url(#clipPath14158)" fill="none" stroke-linecap="round" stroke-linejoin="round" stroke-miterlimit="10"><g stroke="#000"><path d="m70.574 42.336v76.18" stroke-width=".68065"/><path d="m71.406 98.539h93.957" stroke-width=".69657"/><path d="m162.21 95.477-0.242 0.253" stroke-width=".73856"/><path d="m161.97 95.73 0.402 0.473" stroke-width=".73856"/><path d="m162.37 96.203 0.367 0.258" stroke-width=".74097"/><path d="m162.74 96.461 0.364 0.289" stroke-width=".74132"/><g stroke-width=".74166"><path d="m163.1 96.75 0.363 0.219"/><path d="m163.46 96.969 0.324 0.219"/><path d="m163.79 97.188 0.324 0.218"/></g><path d="m164.11 97.406 0.489 0.258" stroke-width=".7396"/><path d="m164.6 97.664 0.445 0.289" stroke-width=".73891"/><path d="m165.05 97.953 0.445 0.438" stroke-width=".73684"/><path d="m165.49 98.391 0.406 0.476" stroke-width=".73719"/><path d="m165.9 98.867 0.243 0.219" stroke-width=".73753"/><path d="m166.14 99.086 0.242 0.363" stroke-width=".73753"/><path d="m166.38 99.449-0.324 0.293" stroke-width=".78056"/><path d="m166.06 99.742-0.325 0.074" stroke-width=".78986"/><path d="m165.73 99.816-0.363 0.18" stroke-width=".7971"/><path d="m165.37 99.996-0.406 0.149" stroke-width=".80433"/><path d="m164.96 100.14-0.445 0.253" stroke-width=".81156"/><path d="m164.52 100.4-0.407 0.254" stroke-width=".81707"/><path d="m164.11 100.65-0.363 0.258" stroke-width=".8212"/><path d="m163.75 100.91-0.324 0.289" stroke-width=".82327"/><path d="m163.43 101.2-0.242 0.184" stroke-width=".82396"/><path d="m163.18 101.38-0.286 0.328" stroke-width=".82396"/><path d="m162.9 101.71-0.242 0.328" stroke-width=".81432"/><path d="m162.66 102.04-0.082 0.363" stroke-width=".68346"/><path d="m162.57 102.4-0.16 0.547" stroke-width=".18456"/><path d="m162.41 102.95-0.082 0.328" stroke-width=".0705"/><path d="m68.938 45.152 0.242-0.179" stroke-width=".55538"/><path d="m69.18 44.973 0.246-0.293" stroke-width=".57501"/><path d="m69.426 44.68 0.324-0.364" stroke-width=".60496"/><path d="m69.75 44.316 0.16-0.293" stroke-width=".61597"/><path d="m69.91 44.023 0.16-0.253" stroke-width=".62529"/><path d="m70.07 43.77 0.125-0.329" stroke-width=".62838"/><path d="m70.195 43.441 0.16-0.257" stroke-width=".63286"/><path d="m70.355 43.184 0.165-0.289" stroke-width=".63596"/><path d="m70.52 42.895 0.242-0.368" stroke-width=".6363"/><path d="m70.762 42.527 0.16-0.254" stroke-width=".63699"/><path d="m70.922 42.273 0.285-0.293" stroke-width=".64525"/><path d="m71.207 41.98 0.121 0.293" stroke-width=".74166"/><path d="m71.328 42.273 0.164 0.293" stroke-width=".74889"/><path d="m71.492 42.566 0.16 0.364" stroke-width=".75818"/><path d="m71.652 42.93 0.243 0.437" stroke-width=".77023"/><path d="m71.895 43.367 0.203 0.473" stroke-width=".77884"/><path d="m72.098 43.84 0.164 0.437" stroke-width=".78986"/><path d="m72.262 44.277 0.16 0.438" stroke-width=".79332"/><path d="m72.422 44.715 0.121 0.402" stroke-width=".79642"/><path d="m72.543 45.117 0.121 0.293" stroke-width=".79676"/><path d="m72.664 45.41 0.082 0.289" stroke-width=".7971"/><path d="m72.746 45.699 0.203 0.403" stroke-width=".79366"/><path d="m72.949 46.102 0.16 0.328" stroke-width=".59566"/><path d="m73.109 46.43 0.325 0.183" stroke-width=".0705"/><path d="m62.656 38.117-0.324-0.109" stroke-width=".71929"/><path d="m62.332 38.008h0.324" stroke-width=".76163"/><path d="m62.656 38.008 0.446 0.109" stroke-width=".76163"/><path d="m63.102 38.117 0.406 0.219" stroke-width=".75715"/><path d="m63.508 38.336 0.363 0.289" stroke-width=".74958"/><path d="m63.871 38.625 0.246 0.328" stroke-width=".73822"/><path d="m64.117 38.953 0.203 0.402" stroke-width=".73615"/><path d="m64.32 39.355 0.121 0.438" stroke-width=".73615"/><path d="m64.441 39.793 0.079 0.473" stroke-width=".73684"/><path d="m64.52 40.266 0.042 0.546" stroke-width=".73684"/><path d="m64.562 40.812 0.04 0.512" stroke-width=".73237"/><path d="m64.602 41.324-0.04 0.477" stroke-width=".73237"/><path d="m64.562 41.801-0.042 0.363" stroke-width=".73788"/><path d="m64.52 42.164-0.161 0.328" stroke-width=".74269"/><path d="m64.359 42.492-0.242 0.254" stroke-width=".74304"/><path d="m64.117 42.746-0.324 0.219" stroke-width=".74717"/><path d="m63.793 42.965-0.367 0.219" stroke-width=".74786"/><path d="m63.426 43.184-0.324 0.148" stroke-width=".74786"/><path d="m63.102 43.332-0.325 0.145" stroke-width=".74373"/><path d="m62.777 43.477-0.402 0.144" stroke-width=".6635"/><path d="m66.711 37.242-0.324-0.039" stroke-width=".57191"/><path d="m66.387 37.203h-0.325" stroke-width=".64525"/><path d="m66.062 37.203-0.406 0.184" stroke-width=".70481"/><path d="m65.656 37.387-0.242 0.218" stroke-width=".72135"/><path d="m65.414 37.605-0.203 0.329" stroke-width=".73684"/><path d="m65.211 37.934-0.285 0.511" stroke-width=".75336"/><path d="m64.926 38.445-0.242 0.657" stroke-width=".76197"/><path d="m64.684 39.102-0.204 0.765" stroke-width=".77195"/><path d="m64.48 39.867-0.16 0.875" stroke-width=".77746"/><path d="m64.32 40.742-0.082 0.84" stroke-width=".78125"/><path d="m64.238 41.582-0.043 0.801" stroke-width=".78125"/><path d="m64.195 42.383 0.125 0.621" stroke-width=".78159"/><path d="m64.32 43.004 0.2 0.473" stroke-width=".78125"/><path d="m64.52 43.477 0.285 0.253" stroke-width=".77505"/><path d="m64.805 43.73 0.363 0.184" stroke-width=".7513"/><path d="m65.168 43.914 0.449 0.035" stroke-width=".71274"/><path d="m65.617 43.949 0.485-0.07" stroke-width=".67486"/><path d="m66.102 43.879 0.527-0.184" stroke-width=".63424"/><path d="m66.629 43.695 0.484-0.363" stroke-width=".55607"/><path d="m67.113 43.332 0.446-0.477" stroke-width=".43589"/><path d="m67.559 42.855 0.367-0.656" stroke-width=".25306"/><path d="m67.926 42.199 0.242-0.547" stroke-width=".0705"/><path d="m62.293 40.559 4.863-0.582" stroke-width=".66763"/><path d="m170.68 99.816-0.082 0.508" stroke-width=".70412"/><path d="m170.6 100.32-0.082 0.477" stroke-width=".72755"/><path d="m170.52 100.8-0.078 0.656" stroke-width=".7451"/><path d="m170.44 101.46-0.126 0.766" stroke-width=".76059"/><path d="m170.31 102.22-0.078 0.875" stroke-width=".7723"/><path d="m170.23 103.1-0.043 0.945" stroke-width=".78366"/><path d="m170.19 104.04-0.039 0.949" stroke-width=".78951"/><path d="m170.15 104.99v0.949" stroke-width=".7947"/><path d="m170.15 105.94 0.039 0.95" stroke-width=".79917"/><path d="m170.19 106.89 0.164 0.836" stroke-width=".80227"/><path d="m170.36 107.73 0.161 0.804" stroke-width=".80296"/><path d="m170.52 108.53 0.246 0.657" stroke-width=".8033"/><path d="m170.76 109.19 0.324 0.546" stroke-width=".80399"/><path d="m171.09 109.73 0.281 0.364" stroke-width=".80399"/><path d="m171.37 110.1 0.406 0.218" stroke-width=".7971"/><path d="m171.77 110.32 0.364 0.11" stroke-width=".78572"/><path d="m172.14 110.43 0.406-0.035" stroke-width=".75681"/><path d="m172.54 110.39 0.406-0.149" stroke-width=".69689"/><path d="m172.95 110.24 0.363-0.254" stroke-width=".61771"/><path d="m173.31 109.99 0.325-0.363" stroke-width=".50097"/><path d="m173.64 109.62 0.324-0.586" stroke-width=".23722"/><path d="m173.96 109.04 0.242-0.508" stroke-width=".0705"/><path d="m167.92 105.07 5.027-0.586" stroke-width=".73788"/><path d="m211.86 43.16v76.18" stroke-width=".68065"/><path d="m212.69 99.363h93.961" stroke-width=".69657"/><path d="m303.5 96.301-0.242 0.254" stroke-width=".73856"/><path d="m303.25 96.555 0.406 0.472" stroke-width=".73856"/><path d="m303.66 97.027 0.363 0.258" stroke-width=".74097"/><path d="m304.02 97.285 0.364 0.289" stroke-width=".74132"/><g stroke-width=".74166"><path d="m304.39 97.574 0.367 0.219"/><path d="m304.75 97.793 0.324 0.219"/><path d="m305.08 98.012 0.324 0.218"/></g><path d="m305.4 98.23 0.485 0.258" stroke-width=".7396"/><path d="m305.89 98.488 0.445 0.289" stroke-width=".73891"/><path d="m306.33 98.777 0.445 0.438" stroke-width=".73684"/><path d="m306.78 99.215 0.407 0.476" stroke-width=".73719"/><path d="m307.18 99.691 0.242 0.219" stroke-width=".73753"/><path d="m307.43 99.91 0.246 0.363" stroke-width=".73753"/><path d="m307.67 100.27-0.324 0.293" stroke-width=".78056"/><path d="m307.35 100.57-0.325 0.071" stroke-width=".78986"/><path d="m307.02 100.64-0.367 0.183" stroke-width=".7971"/><path d="m306.66 100.82-0.402 0.145" stroke-width=".80433"/><path d="m306.25 100.96-0.449 0.258" stroke-width=".81156"/><path d="m305.8 101.22-0.403 0.254" stroke-width=".81707"/><path d="m305.4 101.48-0.367 0.253" stroke-width=".8212"/><path d="m305.04 101.73-0.324 0.293" stroke-width=".82327"/><path d="m304.71 102.02-0.242 0.184" stroke-width=".82396"/><path d="m304.47 102.21-0.281 0.328" stroke-width=".82396"/><path d="m304.19 102.54-0.247 0.328" stroke-width=".81432"/><path d="m303.94 102.86-0.078 0.364" stroke-width=".68346"/><path d="m303.86 103.23-0.164 0.546" stroke-width=".18456"/><path d="m303.7 103.77-0.082 0.329" stroke-width=".0705"/><path d="m210.22 45.977 0.246-0.184" stroke-width=".55538"/><path d="m210.47 45.793 0.242-0.289" stroke-width=".57501"/><path d="m210.71 45.504 0.324-0.367" stroke-width=".60496"/><path d="m211.04 45.137 0.16-0.289" stroke-width=".61597"/><path d="m211.2 44.848 0.164-0.258" stroke-width=".62529"/><path d="m211.36 44.59 0.121-0.328" stroke-width=".62838"/><path d="m211.48 44.262 0.161-0.254" stroke-width=".63286"/><path d="m211.64 44.008 0.164-0.293" stroke-width=".63596"/><path d="m211.8 43.715 0.242-0.363" stroke-width=".6363"/><path d="m212.05 43.352 0.164-0.254" stroke-width=".63699"/><path d="m212.21 43.098 0.281-0.293" stroke-width=".64525"/><path d="m212.49 42.805 0.121 0.293" stroke-width=".74166"/><path d="m212.61 43.098 0.164 0.289" stroke-width=".74889"/><path d="m212.78 43.387 0.161 0.367" stroke-width=".75818"/><path d="m212.94 43.754 0.246 0.437" stroke-width=".77023"/><path d="m213.18 44.191 0.199 0.473" stroke-width=".77884"/><path d="m213.38 44.664 0.164 0.438" stroke-width=".78986"/><path d="m213.55 45.102 0.16 0.437" stroke-width=".79332"/><path d="m213.71 45.539 0.125 0.402" stroke-width=".79642"/><path d="m213.83 45.941 0.121 0.293" stroke-width=".79676"/><path d="m213.95 46.234 0.078 0.289" stroke-width=".7971"/><path d="m214.03 46.523 0.203 0.403" stroke-width=".79366"/><path d="m214.23 46.926 0.164 0.328" stroke-width=".59566"/><path d="m214.4 47.254 0.325 0.184" stroke-width=".0705"/><path d="m311.96 100.64-0.082 0.511" stroke-width=".70412"/><path d="m311.88 101.15-0.078 0.473" stroke-width=".72755"/><path d="m311.8 101.62-0.082 0.656" stroke-width=".7451"/><path d="m311.72 102.28-0.121 0.766" stroke-width=".76059"/><path d="m311.6 103.04-0.082 0.879" stroke-width=".7723"/><path d="m311.52 103.92-0.04 0.945" stroke-width=".78366"/><path d="m311.48 104.87-0.042 0.949" stroke-width=".78951"/><path d="m311.44 105.82v0.95" stroke-width=".7947"/><path d="m311.44 106.77 0.042 0.945" stroke-width=".79917"/><path d="m311.48 107.71 0.161 0.84" stroke-width=".80227"/><path d="m311.64 108.55 0.164 0.801" stroke-width=".80296"/><path d="m311.8 109.35 0.242 0.656" stroke-width=".8033"/><path d="m312.05 110.01 0.324 0.547" stroke-width=".80399"/><path d="m312.37 110.56 0.281 0.367" stroke-width=".80399"/><path d="m312.65 110.92 0.407 0.219" stroke-width=".7971"/><path d="m313.06 111.14 0.367 0.109" stroke-width=".78572"/><path d="m313.43 111.25 0.402-0.035" stroke-width=".75681"/><path d="m313.83 111.22 0.406-0.149" stroke-width=".69689"/><path d="m314.23 111.07 0.364-0.254" stroke-width=".61771"/><path d="m314.6 110.81 0.324-0.367" stroke-width=".50097"/><path d="m314.92 110.44 0.324-0.582" stroke-width=".23722"/><path d="m315.25 109.86 0.246-0.511" stroke-width=".0705"/><path d="m309.21 105.89 5.023-0.586" stroke-width=".73788"/><path d="m353.51 43.125v76.18" stroke-width=".68065"/><path d="m354.34 99.328h93.961" stroke-width=".69657"/><path d="m445.15 96.262-0.242 0.258" stroke-width=".73856"/><path d="m444.91 96.52 0.406 0.472" stroke-width=".73856"/><path d="m445.31 96.992 0.364 0.254" stroke-width=".74097"/><path d="m445.68 97.246 0.363 0.293" stroke-width=".74132"/><g stroke-width=".74166"><path d="m446.04 97.539 0.367 0.219"/><path d="m446.41 97.758 0.324 0.219"/><path d="m446.73 97.977 0.325 0.218"/></g><path d="m447.06 98.195 0.484 0.254" stroke-width=".7396"/><path d="m447.54 98.449 0.445 0.293" stroke-width=".73891"/><path d="m447.98 98.742 0.446 0.438" stroke-width=".73684"/><path d="m448.43 99.18 0.406 0.472" stroke-width=".73719"/><path d="m448.84 99.652 0.242 0.219" stroke-width=".73753"/><path d="m449.08 99.871 0.242 0.367" stroke-width=".73753"/><path d="m449.32 100.24-0.324 0.289" stroke-width=".78056"/><path d="m449 100.53-0.324 0.075" stroke-width=".78986"/><path d="m448.67 100.6-0.363 0.183" stroke-width=".7971"/><path d="m448.31 100.78-0.407 0.145" stroke-width=".80433"/><path d="m447.9 100.93-0.445 0.254" stroke-width=".81156"/><path d="m447.46 101.18-0.402 0.257" stroke-width=".81707"/><path d="m447.06 101.44-0.367 0.254" stroke-width=".8212"/><path d="m446.69 101.7-0.325 0.293" stroke-width=".82327"/><path d="m446.36 101.99-0.242 0.18" stroke-width=".82396"/><path d="m446.12 102.17-0.285 0.328" stroke-width=".82396"/><path d="m445.84 102.5-0.242 0.328" stroke-width=".81432"/><path d="m445.59 102.82-0.082 0.367" stroke-width=".68346"/><path d="m445.51 103.19-0.16 0.547" stroke-width=".18456"/><path d="m445.35 103.74-0.082 0.328" stroke-width=".0705"/><path d="m351.88 45.941 0.242-0.183" stroke-width=".55538"/><path d="m352.12 45.758 0.246-0.293" stroke-width=".57501"/><path d="m352.36 45.465 0.325-0.363" stroke-width=".60496"/><path d="m352.69 45.102 0.16-0.293" stroke-width=".61597"/><path d="m352.85 44.809 0.164-0.254" stroke-width=".62529"/><path d="m353.01 44.555 0.121-0.328" stroke-width=".62838"/><path d="m353.13 44.227 0.16-0.254" stroke-width=".63286"/><path d="m353.29 43.973 0.164-0.293" stroke-width=".63596"/><path d="m353.46 43.68 0.242-0.364" stroke-width=".6363"/><path d="m353.7 43.316 0.16-0.257" stroke-width=".63699"/><path d="m353.86 43.059 0.286-0.289" stroke-width=".64525"/><path d="m354.14 42.77 0.121 0.289" stroke-width=".74166"/><path d="m354.27 43.059 0.164 0.293" stroke-width=".74889"/><path d="m354.43 43.352 0.16 0.363" stroke-width=".75818"/><path d="m354.59 43.715 0.242 0.437" stroke-width=".77023"/><path d="m354.83 44.152 0.203 0.477" stroke-width=".77884"/><path d="m355.04 44.629 0.164 0.437" stroke-width=".78986"/><path d="m355.2 45.066 0.16 0.438" stroke-width=".79332"/><path d="m355.36 45.504 0.121 0.398" stroke-width=".79642"/><path d="m355.48 45.902 0.122 0.293" stroke-width=".79676"/><path d="m355.6 46.195 0.082 0.293" stroke-width=".7971"/><path d="m355.68 46.488 0.203 0.403" stroke-width=".79366"/><path d="m355.89 46.891 0.164 0.328" stroke-width=".59566"/><path d="m356.05 47.219 0.324 0.179" stroke-width=".0705"/><path d="m453.62 100.6-0.082 0.511" stroke-width=".70412"/><path d="m453.54 101.11-0.082 0.473" stroke-width=".72755"/><path d="m453.45 101.59-0.078 0.656" stroke-width=".7451"/><path d="m453.38 102.24-0.121 0.766" stroke-width=".76059"/><path d="m453.25 103.01-0.082 0.875" stroke-width=".7723"/><path d="m453.17 103.88-0.043 0.949" stroke-width=".78366"/><path d="m453.13 104.83-0.039 0.949" stroke-width=".78951"/><path d="m453.09 105.78v0.946" stroke-width=".7947"/><path d="m453.09 106.73 0.039 0.949" stroke-width=".79917"/><path d="m453.13 107.68 0.164 0.84" stroke-width=".80227"/><path d="m453.29 108.52 0.16 0.8" stroke-width=".80296"/><path d="m453.45 109.32 0.246 0.657" stroke-width=".8033"/><path d="m453.7 109.97 0.324 0.547" stroke-width=".80399"/><path d="m454.02 110.52 0.282 0.367" stroke-width=".80399"/><path d="m454.3 110.89 0.406 0.218" stroke-width=".7971"/><path d="m454.71 111.1 0.363 0.11" stroke-width=".78572"/><path d="m455.07 111.22 0.406-0.039" stroke-width=".75681"/><path d="m455.48 111.18 0.407-0.145" stroke-width=".69689"/><path d="m455.89 111.03 0.363-0.254" stroke-width=".61771"/><path d="m456.25 110.78 0.324-0.367" stroke-width=".50097"/><path d="m456.57 110.41 0.324-0.582" stroke-width=".23722"/><path d="m456.9 109.83 0.243-0.512" stroke-width=".0705"/><path d="m450.86 105.85 5.024-0.582" stroke-width=".73788"/><path d="m202.53 39.902 0.282 0.328" stroke-width=".65696"/><path d="m202.81 40.23 0.164 0.293" stroke-width=".6993"/><path d="m202.97 40.523 0.242 0.364" stroke-width=".7334"/><path d="m203.22 40.887 0.242 0.476" stroke-width=".75715"/><path d="m203.46 41.363 0.246 0.547" stroke-width=".77264"/><path d="m203.7 41.91 0.199 0.582" stroke-width=".78435"/><path d="m203.9 42.492 0.164 0.512" stroke-width=".79158"/><path d="m204.07 43.004 0.243 0.473" stroke-width=".79642"/><path d="m204.31 43.477 0.121 0.363" stroke-width=".79848"/><path d="m204.43 43.84 0.121 0.293" stroke-width=".79883"/><path d="m204.55 44.133 0.246 0.402" stroke-width=".80158"/><path d="m204.8 44.535 0.242 0.399" stroke-width=".80261"/><path d="m205.04 44.934 0.324 0.437" stroke-width=".80537"/><path d="m205.36 45.371 0.325 0.293" stroke-width=".80537"/><path d="m205.69 45.664 0.324-0.293" stroke-width=".85287"/><path d="m206.01 45.371 0.082-0.363" stroke-width=".85356"/><path d="m206.09 45.008 0.121-0.403" stroke-width=".8539"/><path d="m206.22 44.605 0.121-0.398" stroke-width=".85459"/><path d="m206.34 44.207 0.121-0.402" stroke-width=".85494"/><path d="m206.46 43.805 0.121-0.438" stroke-width=".85528"/><path d="m206.58 43.367 0.121-0.472" stroke-width=".85563"/><path d="m206.7 42.895 0.164-0.512" stroke-width=".85563"/><path d="m206.86 42.383 0.16-0.582" stroke-width=".85528"/><path d="m207.02 41.801 0.165-0.621" stroke-width=".85012"/><path d="m207.19 41.18 0.242-0.547" stroke-width=".84392"/><path d="m207.43 40.633 0.121-0.512" stroke-width=".8391"/><path d="m207.55 40.121 0.121-0.402" stroke-width=".82568"/><path d="m207.67 39.719 0.121-0.399" stroke-width=".79054"/><path d="m346.37 39.5-0.367-0.289" stroke-width=".52957"/><path d="m346 39.211-0.324-0.184" stroke-width=".6215"/><path d="m345.68 39.027-0.324-0.144" stroke-width=".68553"/><path d="m345.35 38.883h-0.364" stroke-width=".71206"/><g stroke-width=".71102"><path d="m344.99 38.883-0.363 0.328"/><path d="m344.62 39.211-0.164 0.328"/><path d="m344.46 39.539-0.16 0.438"/></g><g stroke-width=".71171"><path d="m344.3 39.977-0.164 0.472"/><path d="m344.14 40.449-0.121 0.547"/><path d="m344.02 40.996-0.082 0.547"/><path d="m343.93 41.543-0.079 0.547"/><path d="m343.86 42.09-0.082 0.476"/></g><path d="m343.77 42.566v0.438" stroke-width=".71137"/><path d="m343.77 43.004 0.122 0.547" stroke-width=".71137"/><path d="m343.9 43.551 0.285 0.289" stroke-width=".7124"/><path d="m344.18 43.84 0.324 0.109" stroke-width=".71584"/><path d="m344.5 43.949 0.402 0.039" stroke-width=".71894"/><path d="m344.91 43.988 0.446-0.039" stroke-width=".72479"/><path d="m345.35 43.949 0.406-0.144" stroke-width=".73409"/><path d="m345.76 43.805 0.242-0.184" stroke-width=".73822"/><path d="m346 43.621 0.285-0.254" stroke-width=".74132"/><path d="m346.28 43.367 0.242-0.402" stroke-width=".74166"/><path d="m346.53 42.965 0.243-0.438" stroke-width=".74201"/><path d="m346.77 42.527 0.164-0.507" stroke-width=".74235"/><path d="m346.93 42.02 0.16-0.512" stroke-width=".74269"/><path d="m347.09 41.508 0.121-0.403" stroke-width=".74338"/><path d="m347.22 41.105 0.082-0.293" stroke-width=".74545"/><path d="m347.3 40.812 0.082-0.328" stroke-width=".7482"/><path d="m347.38 40.484 0.082 0.512" stroke-width=".78882"/><path d="m347.46 40.996 0.078 0.328" stroke-width=".79295"/><path d="m347.54 41.324 0.082 0.367" stroke-width=".8002"/><path d="m347.62 41.691 0.203 0.438" stroke-width=".80709"/><path d="m347.82 42.129 0.164 0.398" stroke-width=".81122"/><path d="m347.99 42.527 0.16 0.403" stroke-width=".81535"/><path d="m348.15 42.93 0.243 0.363" stroke-width=".81776"/><path d="m348.39 43.293 0.121 0.293" stroke-width=".8181"/><path d="m348.51 43.586 0.285 0.363" stroke-width=".8212"/><path d="m348.8 43.949 0.285 0.219" stroke-width=".82189"/><path d="m349.08 44.168 0.363 0.148" stroke-width=".81156"/><path d="m349.44 44.316 0.567 0.036" stroke-width=".59566"/><path d="m350.01 44.352 0.566-0.145" stroke-width=".28854"/><path d="m350.58 44.207 0.488-0.184" stroke-width=".0705"/></g><g stroke="#00c0ff"><path d="m71.004 76.551 0.203-0.328" stroke-width=".58292"/><path d="m71.207 76.223 0.203-0.328" stroke-width=".59084"/><path d="m71.41 75.895 0.324-0.403" stroke-width=".59394"/><path d="m71.734 75.492 0.325-0.437" stroke-width=".59704"/><path d="m72.059 75.055 0.242-0.219" stroke-width=".59738"/><path d="m72.301 74.836 0.16-0.293" stroke-width=".59945"/><path d="m72.461 74.543 0.406-0.508" stroke-width=".60048"/><path d="m72.867 74.035 0.285-0.476" stroke-width=".60289"/><path d="m73.152 73.559 0.243-0.254" stroke-width=".60496"/><path d="m73.395 73.305 0.363-0.473" stroke-width=".60736"/><path d="m73.758 72.832 0.406-0.477" stroke-width=".61528"/><path d="m74.164 72.355 0.203-0.253" stroke-width=".61875"/><path d="m74.367 72.102 0.203-0.329" stroke-width=".62701"/><path d="m74.57 71.773 0.242-0.293" stroke-width=".63424"/><path d="m74.812 71.48 0.204-0.363" stroke-width=".64043"/><path d="m75.016 71.117 0.203-0.363" stroke-width=".64319"/><path d="m75.219 70.754 0.121-0.328" stroke-width=".64525"/><g stroke-width=".64732"><path d="m75.34 70.426 0.242-0.367"/><path d="m75.582 70.059 0.164-0.329"/><path d="m75.746 69.73 0.242-0.328"/></g><path d="m75.988 69.402 0.203-0.328" stroke-width=".64766"/><path d="m76.191 69.074 0.243-0.293" stroke-width=".64801"/><path d="m76.434 68.781 0.203-0.289" stroke-width=".64835"/><path d="m76.637 68.492 0.16-0.258" stroke-width=".64835"/><path d="m76.797 68.234 0.246-0.254" stroke-width=".6487"/><path d="m77.043 67.98 0.324-0.437" stroke-width=".64938"/><path d="m77.367 67.543 0.242-0.254" stroke-width=".64973"/><path d="m77.609 67.289 0.161-0.258" stroke-width=".65007"/><path d="m77.77 67.031 0.246-0.328" stroke-width=".65007"/><path d="m78.016 66.703 0.242-0.363" stroke-width=".65042"/><path d="m78.258 66.34 0.281-0.438" stroke-width=".65076"/><path d="m78.539 65.902 0.324-0.437" stroke-width=".65076"/><path d="m78.863 65.465 0.325-0.473" stroke-width=".6511"/><path d="m79.188 64.992 0.406-0.476" stroke-width=".6511"/><path d="M 79.594,64.516 80,64.078" stroke-width=".65317"/><path d="m80 64.078 0.363-0.437" stroke-width=".65352"/><path d="m80.363 63.641 0.325-0.399" stroke-width=".65352"/><path d="m80.688 63.242 0.285-0.293" stroke-width=".65386"/><path d="m80.973 62.949 0.242-0.254" stroke-width=".6542"/><path d="m81.215 62.695 0.324-0.332" stroke-width=".65455"/><path d="m81.539 62.363 0.406-0.398" stroke-width=".65558"/><path d="m81.945 61.965 0.446-0.477" stroke-width=".65627"/><path d="m82.391 61.488 0.324-0.363" stroke-width=".65627"/><path d="m82.715 61.125 0.363-0.328" stroke-width=".65661"/><path d="m83.078 60.797 0.445-0.363" stroke-width=".65661"/><g stroke-width=".65696"><path d="m83.523 60.434 0.368-0.329"/><path d="m83.891 60.105 0.363-0.293"/><path d="m84.254 59.812 0.285-0.292"/><path d="m84.539 59.52 0.324-0.219"/></g><path d="m84.863 59.301 0.403-0.399" stroke-width=".6573"/><path d="m85.266 58.902 0.242-0.183" stroke-width=".65765"/><path d="m85.508 58.719 0.324-0.328" stroke-width=".65765"/><g stroke-width=".65799"><path d="m85.832 58.391 0.246-0.219"/><path d="m86.078 58.172 0.203-0.254"/><path d="m86.281 57.918 0.324-0.219"/></g><path d="m86.605 57.699 0.364-0.328" stroke-width=".65868"/><path d="m86.969 57.371 0.363-0.293" stroke-width=".65868"/><path d="m87.332 57.078 0.445-0.293" stroke-width=".65902"/><path d="m87.777 56.785 0.446-0.328" stroke-width=".65937"/><path d="m88.223 56.457 0.488-0.328" stroke-width=".65971"/><path d="m88.711 56.129 0.445-0.289" stroke-width=".66006"/><path d="m89.156 55.84 0.406-0.258" stroke-width=".6604"/><path d="m89.562 55.582 0.325-0.219" stroke-width=".66074"/><path d="m89.887 55.363 0.324-0.183" stroke-width=".66109"/><path d="m90.211 55.18 0.445-0.289" stroke-width=".66178"/><path d="m90.656 54.891 0.242-0.184" stroke-width=".66488"/><path d="m90.898 54.707 0.286-0.219" stroke-width=".66797"/><path d="m91.184 54.488 0.281-0.183" stroke-width=".66832"/><path d="m91.465 54.305 0.324-0.219" stroke-width=".6721"/><path d="m91.789 54.086 0.367-0.254" stroke-width=".67417"/><path d="m92.156 53.832 0.364-0.254" stroke-width=".67968"/><path d="m92.52 53.578 0.406-0.328" stroke-width=".68174"/><path d="m92.926 53.25 0.445-0.328" stroke-width=".68209"/><path d="m93.371 52.922 0.445-0.328" stroke-width=".68415"/><path d="m93.816 52.594 0.407-0.293" stroke-width=".6845"/><path d="m94.223 52.301 0.402-0.254" stroke-width=".68484"/><path d="m94.625 52.047 0.367-0.219" stroke-width=".68518"/><path d="m94.992 51.828 0.324-0.183" stroke-width=".68518"/><path d="m95.316 51.645 0.282-0.219" stroke-width=".68725"/><path d="m95.598 51.426 0.285-0.145" stroke-width=".68759"/><path d="m95.883 51.281 0.484-0.293" stroke-width=".68794"/><path d="m96.367 50.988 0.488-0.328" stroke-width=".68863"/><path d="m96.855 50.66 0.407-0.254" stroke-width=".69138"/><path d="m97.262 50.406 0.402-0.328" stroke-width=".69138"/><path d="m97.664 50.078 0.527-0.293" stroke-width=".69207"/><path d="m98.191 49.785 0.528-0.363" stroke-width=".69241"/><path d="m98.719 49.422 0.527-0.258" stroke-width=".69276"/><path d="m99.246 49.164 0.566-0.254" stroke-width=".69276"/><path d="m99.812 48.91 0.528-0.219" stroke-width=".6931"/><path d="m100.34 48.691 0.527-0.253" stroke-width=".69379"/><path d="m100.87 48.438 0.528-0.223" stroke-width=".69414"/><path d="m101.4 48.215 0.484-0.219" stroke-width=".69448"/><path d="m101.88 47.996 0.445-0.219" stroke-width=".69482"/><path d="m102.32 47.777 0.364-0.179" stroke-width=".69482"/><path d="m102.69 47.598 0.449-0.219" stroke-width=".69551"/><path d="m103.14 47.379 0.281-0.149" stroke-width=".69586"/><path d="m103.42 47.23 0.324-0.144" stroke-width=".6962"/><path d="m103.74 47.086 0.406-0.145" stroke-width=".69689"/><path d="m104.15 46.941 0.286-0.109" stroke-width=".69723"/><path d="m104.43 46.832 0.32-0.184" stroke-width=".70724"/><path d="m104.75 46.648 0.488-0.183" stroke-width=".71068"/><path d="m105.24 46.465 0.528-0.254" stroke-width=".71137"/><path d="m105.77 46.211 0.605-0.293" stroke-width=".71378"/><path d="m106.38 45.918 0.648-0.254" stroke-width=".71412"/><path d="m107.02 45.664 0.649-0.328" stroke-width=".71447"/><path d="m107.67 45.336 0.609-0.219" stroke-width=".71447"/><path d="m108.28 45.117 0.567-0.219" stroke-width=".71481"/><path d="m108.85 44.898 0.527-0.218" stroke-width=".71516"/><g stroke-width=".71584"><path d="m109.38 44.68 0.484-0.219"/><path d="m109.86 44.461 0.45-0.184"/><path d="m110.31 44.277 0.363-0.144"/></g><path d="m110.67 44.133 0.324-0.11" stroke-width=".71619"/><path d="m111 44.023 0.445-0.144" stroke-width=".71619"/><path d="m111.44 43.879 0.446-0.039" stroke-width=".71584"/><g stroke-width=".71619"><path d="m111.89 43.84 0.445-0.07"/><path d="m112.33 43.77 0.527-0.11"/><path d="m112.86 43.66 0.325-0.039"/></g><path d="m113.18 43.621 0.324-0.109" stroke-width=".71653"/><path d="m113.51 43.512 0.363-0.071" stroke-width=".71653"/><g stroke-width=".71688"><path d="m113.87 43.441 0.406-0.109"/><path d="m114.28 43.332 0.364-0.074"/><path d="m114.64 43.258 0.367-0.074"/></g><path d="m115.01 43.184 0.324-0.11" stroke-width=".71653"/><path d="m115.33 43.074 0.363-0.07" stroke-width=".71688"/><g stroke-width=".71722"><path d="m115.7 43.004 0.407-0.109"/><path d="m116.1 42.895 0.363-0.11"/><path d="m116.46 42.785 0.406-0.148"/></g><path d="m116.87 42.637 0.285-0.11" stroke-width=".71756"/><path d="m117.16 42.527 0.324-0.07" stroke-width=".71756"/><path d="m117.48 42.457 0.485-0.109" stroke-width=".71791"/><path d="m117.96 42.348 0.445-0.075" stroke-width=".71825"/><path d="m118.41 42.273 0.61-0.109" stroke-width=".72066"/><path d="m119.02 42.164 0.363-0.109" stroke-width=".72101"/><path d="m119.38 42.055 0.406-0.075" stroke-width=".7217"/><path d="m119.79 41.98 0.402-0.07" stroke-width=".72204"/><path d="m120.19 41.91 0.407-0.074" stroke-width=".72514"/><path d="m120.6 41.836 0.488-0.035" stroke-width=".72548"/><path d="m121.09 41.801 0.484-0.074" stroke-width=".72755"/><path d="m121.57 41.727 0.567-0.075" stroke-width=".72789"/><path d="m122.14 41.652 0.57-0.07" stroke-width=".72789"/><path d="m122.71 41.582 0.648-0.074" stroke-width=".72824"/><path d="m123.36 41.508 0.606-0.11" stroke-width=".73065"/><path d="m123.96 41.398 0.648-0.183" stroke-width=".73271"/><path d="m124.61 41.215 0.567-0.145" stroke-width=".73306"/><path d="m125.18 41.07 0.527-0.148" stroke-width=".73306"/><g stroke-width=".73512"><path d="m125.7 40.922 0.488-0.145"/><path d="m126.19 40.777 0.403-0.109"/><path d="m126.59 40.668 0.445-0.145"/></g><path d="m127.04 40.523 0.367-0.109" stroke-width=".73546"/><path d="m127.41 40.414 0.406-0.074" stroke-width=".73581"/><path d="m127.81 40.34 0.606-0.11" stroke-width=".73615"/><path d="m128.42 40.23h0.445" stroke-width=".73719"/><path d="m128.86 40.23h0.446" stroke-width=".73753"/><path d="m129.31 40.23 0.488 0.036" stroke-width=".73822"/><path d="m129.8 40.266 0.527 0.074" stroke-width=".74063"/><path d="m130.32 40.34h0.364" stroke-width=".74063"/><path d="m130.69 40.34 0.324 0.035" stroke-width=".74097"/><path d="m131.01 40.375h0.406" stroke-width=".74097"/><path d="m131.42 40.375h0.324" stroke-width=".74132"/><path d="m131.74 40.375h0.363" stroke-width=".74166"/><path d="m132.1 40.375h0.325" stroke-width=".74166"/><path d="m132.43 40.375 0.324-0.035" stroke-width=".74201"/><path d="m132.75 40.34h0.445" stroke-width=".74235"/><path d="m133.2 40.34 0.406-0.035" stroke-width=".74269"/><path d="m133.6 40.305 0.485-0.075" stroke-width=".74476"/><path d="m134.09 40.23 0.488-0.035" stroke-width=".74476"/><path d="m134.58 40.195 0.484-0.074" stroke-width=".7451"/><path d="m135.06 40.121 0.489-0.035" stroke-width=".74717"/><path d="m135.55 40.086 0.402-0.039" stroke-width=".74751"/><path d="m135.95 40.047 0.406-0.035" stroke-width=".74786"/><path d="m136.36 40.012 0.325-0.035" stroke-width=".7482"/><path d="m136.68 39.977 0.367-0.039" stroke-width=".7482"/><path d="m137.05 39.938 0.523-0.036" stroke-width=".74889"/><path d="m137.57 39.902h0.488" stroke-width=".74924"/><path d="m138.06 39.902h0.485" stroke-width=".75027"/><path d="m138.55 39.902h0.527" stroke-width=".75096"/><path d="m139.07 39.902 0.324 0.036" stroke-width=".75302"/><g stroke-width=".75336"><path d="m139.4 39.938h0.325"/><path d="m139.72 39.938 0.324 0.039"/><path d="m140.05 39.977h0.363"/></g><path d="m140.41 39.977 0.57 0.035" stroke-width=".75371"/><path d="m140.98 40.012 0.325 0.035" stroke-width=".75371"/><path d="m141.3 40.047 0.324 0.039" stroke-width=".75405"/><path d="m141.63 40.086h0.445" stroke-width=".75612"/><path d="m142.07 40.086h0.528" stroke-width=".75646"/><path d="m142.6 40.086h0.566" stroke-width=".75681"/><path d="m143.17 40.086 0.605-0.074" stroke-width=".7575"/><path d="m143.77 40.012 0.61-0.074" stroke-width=".75784"/><path d="m144.38 39.938 0.648-0.071" stroke-width=".76059"/><path d="m145.03 39.867 0.567-0.039" stroke-width=".76094"/><path d="m145.6 39.828 0.527-0.07" stroke-width=".76094"/><path d="m146.12 39.758 0.527-0.039" stroke-width=".76163"/><path d="m146.65 39.719 0.485-0.035" stroke-width=".76197"/><path d="m147.14 39.684 0.488-0.036" stroke-width=".76404"/><path d="m147.62 39.648 0.445-0.039" stroke-width=".76438"/><path d="m148.07 39.609 0.485-0.035" stroke-width=".76472"/><path d="m148.56 39.574h0.406" stroke-width=".76507"/><path d="m148.96 39.574h0.406" stroke-width=".76541"/><path d="m149.37 39.574h0.363" stroke-width=".7661"/><g stroke-width=".76817"><path d="m149.73 39.574h0.325"/><path d="m150.06 39.574 0.363 0.035"/><path d="m150.42 39.609 0.324 0.039"/></g><path d="m150.74 39.648 0.367 0.036" stroke-width=".76851"/><path d="m151.11 39.684 0.364 0.074" stroke-width=".76851"/><path d="m151.47 39.758 0.324 0.035" stroke-width=".76886"/><path d="m212.54 64.371 81.766 34.094" stroke-width=".72238"/><path d="m354.73 112.46h83.539" stroke-width=".94737"/></g></g></g></svg>
